<svg xmlns="http://www.w3.org/2000/svg" version="1.1" xmlns:xlink="http://www.w3.org/1999/xlink" xmlns:svgjs="http://svgjs.dev/svgjs" viewBox="0 0 1920 1080" id="5d0356f5-75ca-429e-9b6b-a058d8dd7b98"><g><rect width="1920" height="1080" fill="#3e517a"/></g><g fill="#865070"><path d="M2118.71 322.496C1962.88 381.696 1840.11 286.062 1731.68 201.315C1619.52 113.904 1545.13 63.1995 1455.92 97.0926C1366.11 131.212 1344.15 218.52 1318.91 358.127C1294.11 493.487 1265.8 646.514 1109.97 705.714C954.144 764.914 831.375 669.28 722.951 584.533C610.793 497.122 536.401 446.418 447.185 480.311C357.375 514.43 335.414 601.738 310.18 741.346C285.375 876.706 257.072 1029.73 101.242 1088.93C-54.5876 1148.13 -177.357 1052.5 -285.78 967.751C-397.344 880.114 -471.736 829.41 -561.547 863.529L-602 757.045C-446.17 697.845 -323.401 793.479 -214.977 878.225C-102.819 965.637 -28.4265 1016.34 60.7891 982.448C150.6 948.329 172.56 861.02 197.794 721.413C222.599 586.053 250.307 433.253 406.732 373.827C562.562 314.627 685.331 410.261 793.754 495.007C905.913 582.419 980.305 633.123 1069.52 599.23C1159.33 565.111 1181.29 477.802 1206.53 338.195C1231.33 202.835 1259.04 50.0347 1415.46 -9.39121C1571.89 -68.8172 1694.06 27.043 1802.49 111.789C1914.64 199.201 1989.04 249.905 2078.25 216.012L2118.71 322.496Z"/></g><g fill="#ffffff" opacity="0.2"><path d="M960.041 79C960.041 79 971.953 194.974 981.699 214.484C992.529 237.245 1064 247 1064 247C1064 247 994.694 258.923 983.865 280.6C973.036 301.194 958.959 415 958.959 415C958.959 415 945.964 296.858 935.135 275.181C925.389 255.671 855 245.916 855 245.916C855 245.916 925.389 233.994 936.218 212.316C947.047 192.806 960.041 79 960.041 79Z"/><path d="M561.041 687C561.041 687 572.953 802.974 582.699 822.484C593.529 845.245 665 855 665 855C665 855 595.694 866.923 584.865 888.6C574.036 909.194 559.959 1023 559.959 1023C559.959 1023 546.964 904.858 536.135 883.181C526.389 863.671 456 853.916 456 853.916C456 853.916 526.389 841.994 537.218 820.316C548.047 800.806 561.041 687 561.041 687Z"/></g><g><path d="M178.635 139.281L184.422 144.246V166.626H215.704L219.958 172.147L215.69 177.397H184.422V198.795L178.635 203.747L173 198.795V144.232L178.635 139.281ZM195.554 195.68H219.406L223.397 200.915L219.143 206.45H195.554L191.7 201.342L195.554 195.68ZM196.382 138H219.129L223.383 143.52L219.129 148.77H196.659L192.115 143.677L196.382 138ZM323.155 148.628L328.251 154.291L323.155 159.968H246.13L241.172 154.291L246.13 148.628H323.155ZM237.043 172.147L241.849 167.893L246.669 172.147V178.393C246.669 188.879 249.417 197.515 261.668 197.515H264.14C275.147 197.515 281.197 189.86 281.197 177.952V172.005L285.879 167.75L290.699 171.862V178.379C290.699 189.007 293.723 196.946 305.56 196.946H307.618C319.178 196.946 321.235 187.869 321.373 177.952V171.578L326.056 167.608L331 171.72V178.094C330.862 191.838 327.285 207.574 308.032 207.574H305.974C294.552 207.574 288.365 202.324 285.892 195.808C283.006 202.466 275.299 208.286 264.844 208.286H262.358C242.553 208.286 237.194 195.964 237.056 178.663V172.147H237.043ZM276.391 274.744L273.642 267.089L280.796 264.969L305.974 276.721V252.491L311.07 248.095L316.291 252.491V281.829L325.641 286.226L328.251 293.311L320.959 296L276.391 274.744ZM321.235 223.011L328.113 226.27L325.917 233.497L264.002 263.119L256.571 260.146L259.596 252.776L321.235 223.011ZM231.905 263.404L237.954 268.512C237.402 286.51 222.403 296 204.669 296H202.874C194.062 296 183.759 292.6 177.157 286.083L177.834 278.855L184.298 278.002C189.118 282.256 195.858 285.229 202.183 285.229H204.117C216.091 285.229 225.303 280.136 226.27 268.085L231.905 263.404ZM226.256 251.638C225.704 239.16 216.629 234.209 204.103 234.209H202.169C194.739 234.209 189.104 237.182 184.284 241.436L177.834 240.583L177.143 233.355C183.745 226.696 192.957 223.58 202.597 223.58H204.517C222.403 223.58 237.402 232.942 237.94 251.211L231.891 256.176L226.256 251.638Z" fill="#ffffff"/></g><g fill="#ffffff" id="info-group"><path d="M167.0800 500L154.9000 500Q153.7800 500 152.8700 499.1600Q151.9600 498.3200 151.9600 497.0600L151.9600 497.0600Q151.9600 496.5000 152.2400 495.8000L152.2400 495.8000L185.9800 405.5000Q186.4000 404.1000 187.5900 403.0500Q188.7800 402 190.8800 402L190.8800 402L206.1400 402Q208.2400 402 209.3600 403.0500Q210.4800 404.1000 211.0400 405.5000L211.0400 405.5000L244.7800 495.8000Q244.9200 496.5000 244.9200 497.0600L244.9200 497.0600Q244.9200 498.3200 244.0800 499.1600Q243.2400 500 242.1200 500L242.1200 500L229.9400 500Q227.9800 500 227.0700 499.0900Q226.1600 498.1800 225.8800 497.3400L225.8800 497.3400L219.3000 480.2600L177.7200 480.2600L171.1400 497.3400Q170.8600 498.1800 169.9500 499.0900Q169.0400 500 167.0800 500L167.0800 500ZM198.4400 420.9000L182.6200 464.1600L214.4000 464.1600L198.4400 420.9000ZM283.2800 501.4000L283.2800 501.4000Q274.7400 501.4000 268.5100 497.5500Q262.2800 493.7000 258.9200 486.6300Q255.5600 479.5600 255.5600 469.9000L255.5600 469.9000L255.5600 430.5600Q255.5600 429.1600 256.5400 428.1800Q257.5200 427.2000 258.9200 427.2000L258.9200 427.2000L271.2400 427.2000Q272.7800 427.2000 273.6900 428.1800Q274.6000 429.1600 274.6000 430.5600L274.6000 430.5600L274.6000 469.0600Q274.6000 486.4200 289.8600 486.4200L289.8600 486.4200Q297.1400 486.4200 301.4100 481.8000Q305.6800 477.1800 305.6800 469.0600L305.6800 469.0600L305.6800 430.5600Q305.6800 429.1600 306.6600 428.1800Q307.6400 427.2000 309.0400 427.2000L309.0400 427.2000L321.3600 427.2000Q322.7600 427.2000 323.7400 428.1800Q324.7200 429.1600 324.7200 430.5600L324.7200 430.5600L324.7200 496.6400Q324.7200 498.0400 323.7400 499.0200Q322.7600 500 321.3600 500L321.3600 500L310.0200 500Q308.4800 500 307.5700 499.0200Q306.6600 498.0400 306.6600 496.6400L306.6600 496.6400L306.6600 490.9000Q302.8800 495.8000 297.2800 498.6000Q291.6800 501.4000 283.2800 501.4000ZM358.3200 500L346.7000 500Q345.3000 500 344.3200 499.0200Q343.3400 498.0400 343.3400 496.6400L343.3400 496.6400L343.3400 403.9600Q343.3400 402.5600 344.3200 401.5800Q345.3000 400.6000 346.7000 400.6000L346.7000 400.6000L358.3200 400.6000Q359.7200 400.6000 360.7000 401.5800Q361.6800 402.5600 361.6800 403.9600L361.6800 403.9600L361.6800 496.6400Q361.6800 498.0400 360.7000 499.0200Q359.7200 500 358.3200 500L358.3200 500ZM401.4400 501.4000L401.4400 501.4000Q394.1600 501.4000 388.2800 498.5300Q382.4000 495.6600 378.9700 490.8300Q375.5400 486 375.5400 479.9800L375.5400 479.9800Q375.5400 470.1800 383.5200 464.3700Q391.5000 458.5600 404.3800 456.6000L404.3800 456.6000L423.5600 453.8000L423.5600 450.8600Q423.5600 444.9800 420.6200 441.7600Q417.6800 438.5400 410.5400 438.5400L410.5400 438.5400Q405.5000 438.5400 402.3500 440.5700Q399.2000 442.6000 397.6600 445.9600L397.6600 445.9600Q396.5400 447.7800 394.4400 447.7800L394.4400 447.7800L383.3800 447.7800Q381.8400 447.7800 381.0700 446.9400Q380.3000 446.1000 380.3000 444.7000L380.3000 444.7000Q380.4400 442.4600 382.1900 439.2400Q383.9400 436.0200 387.5100 433.0100Q391.0800 430 396.8200 427.9000Q402.5600 425.8000 410.6800 425.8000L410.6800 425.8000Q419.5000 425.8000 425.5900 427.9700Q431.6800 430.1400 435.3200 433.7800Q438.9600 437.4200 440.6400 442.3200Q442.3200 447.2200 442.3200 452.6800L442.3200 452.6800L442.3200 496.6400Q442.3200 498.0400 441.3400 499.0200Q440.3600 500 438.9600 500L438.9600 500L427.6200 500Q426.0800 500 425.1700 499.0200Q424.2600 498.0400 424.2600 496.6400L424.2600 496.6400L424.2600 491.1800Q422.4400 493.7000 419.3600 496.0800Q416.2800 498.4600 411.8700 499.9300Q407.4600 501.4000 401.4400 501.4000ZM406.2000 488.1000L406.2000 488.1000Q411.1000 488.1000 415.0900 486Q419.0800 483.9000 421.3900 479.4900Q423.7000 475.0800 423.7000 468.3600L423.7000 468.3600L423.7000 465.4200L409.7000 467.6600Q401.4400 468.9200 397.3800 471.7200Q393.3200 474.5200 393.3200 478.5800L393.3200 478.5800Q393.3200 481.6600 395.2100 483.8300Q397.1000 486 400.0400 487.0500Q402.9800 488.1000 406.2000 488.1000ZM526.6000 501.4000L526.6000 501.4000Q516.8000 501.4000 509.6600 499.0200Q502.5200 496.6400 497.8300 492.7900Q493.1400 488.9400 490.7600 484.3900Q488.3800 479.8400 488.2400 475.3600L488.2400 475.3600Q488.2400 474.1000 489.1500 473.3300Q490.0600 472.5600 491.3200 472.5600L491.3200 472.5600L503.9200 472.5600Q505.3200 472.5600 506.3000 473.1200Q507.2800 473.6800 507.9800 475.3600L507.9800 475.3600Q509.2400 479.1400 512.1100 481.3800Q514.9800 483.6200 518.7600 484.5300Q522.5400 485.4400 526.7400 485.4400L526.7400 485.4400Q535.1400 485.4400 540.1100 481.4500Q545.0800 477.4600 545.0800 470.0400L545.0800 470.0400Q545.0800 462.6200 540.4600 459.3300Q535.8400 456.0400 527.5800 456.0400L527.5800 456.0400L513.1600 456.0400Q511.6200 456.0400 510.6400 455.1300Q509.6600 454.2200 509.6600 452.6800L509.6600 452.6800L509.6600 446.8000Q509.6600 445.4000 510.2900 444.3500Q510.9200 443.3000 511.6200 442.6000L511.6200 442.6000L536.6800 418.1000L496.6400 418.1000Q495.1000 418.1000 494.1900 417.1200Q493.2800 416.1400 493.2800 414.7400L493.2800 414.7400L493.2800 405.5000Q493.2800 403.9600 494.1900 402.9800Q495.1000 402 496.6400 402L496.6400 402L556.7000 402Q558.2400 402 559.2200 402.9800Q560.2000 403.9600 560.2000 405.5000L560.2000 405.5000L560.2000 413.9000Q560.2000 415.1600 559.6400 416.1400Q559.0800 417.1200 558.3800 417.8200L558.3800 417.8200L534.1600 442.7400L535.8400 442.8800Q544.3800 443.5800 551.0300 446.7300Q557.6800 449.8800 561.3900 455.9000Q565.1000 461.9200 565.1000 471.0200L565.1000 471.0200Q565.1000 480.5400 560.1300 487.3300Q555.1600 494.1200 546.4800 497.7600Q537.8000 501.4000 526.6000 501.4000ZM597.3000 451L583.4400 451Q582.0400 451 581.0600 450.0200Q580.0800 449.0400 580.0800 447.6400L580.0800 447.6400L580.0800 434.3400Q580.0800 432.8000 581.0600 431.8200Q582.0400 430.8400 583.4400 430.8400L583.4400 430.8400L597.3000 430.8400Q598.8400 430.8400 599.8200 431.8200Q600.8000 432.8000 600.8000 434.3400L600.8000 434.3400L600.8000 447.6400Q600.8000 449.0400 599.8200 450.0200Q598.8400 451 597.3000 451L597.3000 451ZM597.3000 500L583.4400 500Q582.0400 500 581.0600 499.0200Q580.0800 498.0400 580.0800 496.6400L580.0800 496.6400L580.0800 483.3400Q580.0800 481.8000 581.0600 480.8200Q582.0400 479.8400 583.4400 479.8400L583.4400 479.8400L597.3000 479.8400Q598.8400 479.8400 599.8200 480.8200Q600.8000 481.8000 600.8000 483.3400L600.8000 483.3400L600.8000 496.6400Q600.8000 498.0400 599.8200 499.0200Q598.8400 500 597.3000 500L597.3000 500ZM668.2800 500L655.9600 500Q654.5600 500 653.5800 499.0200Q652.6000 498.0400 652.6000 496.6400L652.6000 496.6400L652.6000 405.5000Q652.6000 403.9600 653.5800 402.9800Q654.5600 402 655.9600 402L655.9600 402L716.7200 402Q718.2600 402 719.2400 402.9800Q720.2200 403.9600 720.2200 405.5000L720.2200 405.5000L720.2200 415.3000Q720.2200 416.8400 719.2400 417.7500Q718.2600 418.6600 716.7200 418.6600L716.7200 418.6600L671.7800 418.6600L671.7800 445.2600L713.9200 445.2600Q715.4600 445.2600 716.4400 446.2400Q717.4200 447.2200 717.4200 448.7600L717.4200 448.7600L717.4200 458.5600Q717.4200 459.9600 716.4400 460.9400Q715.4600 461.9200 713.9200 461.9200L713.9200 461.9200L671.7800 461.9200L671.7800 496.6400Q671.7800 498.0400 670.8000 499.0200Q669.8200 500 668.2800 500L668.2800 500ZM766.4200 501.4000L766.4200 501.4000Q750.8800 501.4000 741.7800 492.4400Q732.6800 483.4800 731.9800 466.9600L731.9800 466.9600Q731.8400 465.5600 731.8400 463.3900Q731.8400 461.2200 731.9800 459.9600L731.9800 459.9600Q732.5400 449.3200 736.8100 441.6900Q741.0800 434.0600 748.6400 429.9300Q756.2000 425.8000 766.4200 425.8000L766.4200 425.8000Q777.7600 425.8000 785.4600 430.4900Q793.1600 435.1800 797.0800 443.5100Q801 451.8400 801 462.7600L801 462.7600L801 465.7000Q801 467.1000 800.0200 468.0800Q799.0400 469.0600 797.5000 469.0600L797.5000 469.0600L751.0200 469.0600Q751.0200 469.0600 751.0200 469.4800Q751.0200 469.9000 751.0200 470.1800L751.0200 470.1800Q751.1600 475.0800 752.9100 479.2100Q754.6600 483.3400 758.0900 485.8600Q761.5200 488.3800 766.2800 488.3800L766.2800 488.3800Q770.2000 488.3800 772.8600 487.1900Q775.5200 486 777.2000 484.4600Q778.8800 482.9200 779.5800 481.9400L779.5800 481.9400Q780.8400 480.2600 781.6100 479.9100Q782.3800 479.5600 783.9200 479.5600L783.9200 479.5600L795.9600 479.5600Q797.3600 479.5600 798.2700 480.4000Q799.1800 481.2400 799.0400 482.5000L799.0400 482.5000Q798.9000 484.7400 796.7300 487.9600Q794.5600 491.1800 790.5000 494.2600Q786.4400 497.3400 780.3500 499.3700Q774.2600 501.4000 766.4200 501.4000ZM751.0200 456.8800L751.0200 457.3000L781.9600 457.3000L781.9600 456.8800Q781.9600 451.4200 780.1400 447.2900Q778.3200 443.1600 774.8200 440.8500Q771.3200 438.5400 766.4200 438.5400L766.4200 438.5400Q761.5200 438.5400 758.0200 440.8500Q754.5200 443.1600 752.7700 447.2900Q751.0200 451.4200 751.0200 456.8800L751.0200 456.8800ZM831.3800 500L819.2000 500Q817.8000 500 816.8200 499.0200Q815.8400 498.0400 815.8400 496.6400L815.8400 496.6400L815.8400 430.7000Q815.8400 429.1600 816.8200 428.1800Q817.8000 427.2000 819.2000 427.2000L819.2000 427.2000L830.5400 427.2000Q831.9400 427.2000 832.9900 428.1800Q834.0400 429.1600 834.0400 430.7000L834.0400 430.7000L834.0400 436.4400Q837.2600 431.9600 842.3700 429.5800Q847.4800 427.2000 854.2000 427.2000L854.2000 427.2000L859.9400 427.2000Q861.4800 427.2000 862.3900 428.1800Q863.3000 429.1600 863.3000 430.5600L863.3000 430.5600L863.3000 440.6400Q863.3000 442.0400 862.3900 443.0200Q861.4800 444 859.9400 444L859.9400 444L849.0200 444Q842.3000 444 838.5900 447.7100Q834.8800 451.4200 834.8800 458.1400L834.8800 458.1400L834.8800 496.6400Q834.8800 498.0400 833.9000 499.0200Q832.9200 500 831.3800 500L831.3800 500ZM889.7600 500L877.5800 500Q876.1800 500 875.2000 499.0200Q874.2200 498.0400 874.2200 496.6400L874.2200 496.6400L874.2200 430.7000Q874.2200 429.1600 875.2000 428.1800Q876.1800 427.2000 877.5800 427.2000L877.5800 427.2000L888.9200 427.2000Q890.3200 427.2000 891.3700 428.1800Q892.4200 429.1600 892.4200 430.7000L892.4200 430.7000L892.4200 436.4400Q895.6400 431.9600 900.7500 429.5800Q905.8600 427.2000 912.5800 427.2000L912.5800 427.2000L918.3200 427.2000Q919.8600 427.2000 920.7700 428.1800Q921.6800 429.1600 921.6800 430.5600L921.6800 430.5600L921.6800 440.6400Q921.6800 442.0400 920.7700 443.0200Q919.8600 444 918.3200 444L918.3200 444L907.4000 444Q900.6800 444 896.9700 447.7100Q893.2600 451.4200 893.2600 458.1400L893.2600 458.1400L893.2600 496.6400Q893.2600 498.0400 892.2800 499.0200Q891.3000 500 889.7600 500L889.7600 500ZM953.7400 501.4000L953.7400 501.4000Q946.4600 501.4000 940.5800 498.5300Q934.7000 495.6600 931.2700 490.8300Q927.8400 486 927.8400 479.9800L927.8400 479.9800Q927.8400 470.1800 935.8200 464.3700Q943.8000 458.5600 956.6800 456.6000L956.6800 456.6000L975.8600 453.8000L975.8600 450.8600Q975.8600 444.9800 972.9200 441.7600Q969.9800 438.5400 962.8400 438.5400L962.8400 438.5400Q957.8000 438.5400 954.6500 440.5700Q951.5000 442.6000 949.9600 445.9600L949.9600 445.9600Q948.8400 447.7800 946.7400 447.7800L946.7400 447.7800L935.6800 447.7800Q934.1400 447.7800 933.3700 446.9400Q932.6000 446.1000 932.6000 444.7000L932.6000 444.7000Q932.7400 442.4600 934.4900 439.2400Q936.2400 436.0200 939.8100 433.0100Q943.3800 430 949.1200 427.9000Q954.8600 425.8000 962.9800 425.8000L962.9800 425.8000Q971.8000 425.8000 977.8900 427.9700Q983.9800 430.1400 987.6200 433.7800Q991.2600 437.4200 992.9400 442.3200Q994.6200 447.2200 994.6200 452.6800L994.6200 452.6800L994.6200 496.6400Q994.6200 498.0400 993.6400 499.0200Q992.6600 500 991.2600 500L991.2600 500L979.9200 500Q978.3800 500 977.4700 499.0200Q976.5600 498.0400 976.5600 496.6400L976.5600 496.6400L976.5600 491.1800Q974.7400 493.7000 971.6600 496.0800Q968.5800 498.4600 964.1700 499.9300Q959.7600 501.4000 953.7400 501.4000ZM958.5000 488.1000L958.5000 488.1000Q963.4000 488.1000 967.3900 486Q971.3800 483.9000 973.6900 479.4900Q976 475.0800 976 468.3600L976 468.3600L976 465.4200L962 467.6600Q953.7400 468.9200 949.6800 471.7200Q945.6200 474.5200 945.6200 478.5800L945.6200 478.5800Q945.6200 481.6600 947.5100 483.8300Q949.4000 486 952.3400 487.0500Q955.2800 488.1000 958.5000 488.1000ZM1027.6600 500L1015.9000 500Q1014.5000 500 1013.5200 499.0200Q1012.5400 498.0400 1012.5400 496.6400L1012.5400 496.6400L1012.5400 430.5600Q1012.5400 429.1600 1013.5200 428.1800Q1014.5000 427.2000 1015.9000 427.2000L1015.9000 427.2000L1026.8200 427.2000Q1028.2200 427.2000 1029.2000 428.1800Q1030.1800 429.1600 1030.1800 430.5600L1030.1800 430.5600L1030.1800 435.3200Q1033.1200 431.4000 1038.0900 428.6700Q1043.0600 425.9400 1049.9200 425.8000L1049.9200 425.8000Q1065.8800 425.5200 1072.1800 438.2600L1072.1800 438.2600Q1075.4000 432.6600 1081.4900 429.2300Q1087.5800 425.8000 1095 425.8000L1095 425.8000Q1102.2800 425.8000 1108.2300 429.1600Q1114.1800 432.5200 1117.6100 439.3100Q1121.0400 446.1000 1121.0400 456.4600L1121.0400 456.4600L1121.0400 496.6400Q1121.0400 498.0400 1120.0600 499.0200Q1119.0800 500 1117.6800 500L1117.6800 500L1106.2000 500Q1104.8000 500 1103.8200 499.0200Q1102.8400 498.0400 1102.8400 496.6400L1102.8400 496.6400L1102.8400 457.5800Q1102.8400 451.2800 1101.0200 447.5700Q1099.2000 443.8600 1096.1200 442.3200Q1093.0400 440.7800 1089.2600 440.7800L1089.2600 440.7800Q1086.1800 440.7800 1083.1000 442.3200Q1080.0200 443.8600 1078.0600 447.5700Q1076.1000 451.2800 1076.1000 457.5800L1076.1000 457.5800L1076.1000 496.6400Q1076.1000 498.0400 1075.1200 499.0200Q1074.1400 500 1072.7400 500L1072.7400 500L1061.2600 500Q1059.8600 500 1058.8800 499.0200Q1057.9000 498.0400 1057.9000 496.6400L1057.9000 496.6400L1057.9000 457.5800Q1057.9000 451.2800 1055.9400 447.5700Q1053.9800 443.8600 1050.9000 442.3200Q1047.8200 440.7800 1044.3200 440.7800L1044.3200 440.7800Q1041.1000 440.7800 1038.0200 442.3900Q1034.9400 444 1032.9800 447.6400Q1031.0200 451.2800 1031.0200 457.5800L1031.0200 457.5800L1031.0200 496.6400Q1031.0200 498.0400 1030.0400 499.0200Q1029.0600 500 1027.6600 500L1027.6600 500ZM1170.1800 501.4000L1170.1800 501.4000Q1154.6400 501.4000 1145.5400 492.4400Q1136.4400 483.4800 1135.7400 466.9600L1135.7400 466.9600Q1135.6000 465.5600 1135.6000 463.3900Q1135.6000 461.2200 1135.7400 459.9600L1135.7400 459.9600Q1136.3000 449.3200 1140.5700 441.6900Q1144.8400 434.0600 1152.4000 429.9300Q1159.9600 425.8000 1170.1800 425.8000L1170.1800 425.8000Q1181.5200 425.8000 1189.2200 430.4900Q1196.9200 435.1800 1200.8400 443.5100Q1204.7600 451.8400 1204.7600 462.7600L1204.7600 462.7600L1204.7600 465.7000Q1204.7600 467.1000 1203.7800 468.0800Q1202.8000 469.0600 1201.2600 469.0600L1201.2600 469.0600L1154.7800 469.0600Q1154.7800 469.0600 1154.7800 469.4800Q1154.7800 469.9000 1154.7800 470.1800L1154.7800 470.1800Q1154.9200 475.0800 1156.6700 479.2100Q1158.4200 483.3400 1161.8500 485.8600Q1165.2800 488.3800 1170.0400 488.3800L1170.0400 488.3800Q1173.9600 488.3800 1176.6200 487.1900Q1179.2800 486 1180.9600 484.4600Q1182.6400 482.9200 1183.3400 481.9400L1183.3400 481.9400Q1184.6000 480.2600 1185.3700 479.9100Q1186.1400 479.5600 1187.6800 479.5600L1187.6800 479.5600L1199.7200 479.5600Q1201.1200 479.5600 1202.0300 480.4000Q1202.9400 481.2400 1202.8000 482.5000L1202.8000 482.5000Q1202.6600 484.7400 1200.4900 487.9600Q1198.3200 491.1800 1194.2600 494.2600Q1190.2000 497.3400 1184.1100 499.3700Q1178.0200 501.4000 1170.1800 501.4000ZM1154.7800 456.8800L1154.7800 457.3000L1185.7200 457.3000L1185.7200 456.8800Q1185.7200 451.4200 1183.9000 447.2900Q1182.0800 443.1600 1178.5800 440.8500Q1175.0800 438.5400 1170.1800 438.5400L1170.1800 438.5400Q1165.2800 438.5400 1161.7800 440.8500Q1158.2800 443.1600 1156.5300 447.2900Q1154.7800 451.4200 1154.7800 456.8800L1154.7800 456.8800ZM1235.2800 500L1222.9600 500Q1221.5600 500 1220.5800 499.0200Q1219.6000 498.0400 1219.6000 496.6400L1219.6000 496.6400L1219.6000 430.5600Q1219.6000 429.1600 1220.5800 428.1800Q1221.5600 427.2000 1222.9600 427.2000L1222.9600 427.2000L1234.4400 427.2000Q1235.8400 427.2000 1236.8200 428.1800Q1237.8000 429.1600 1237.8000 430.5600L1237.8000 430.5600L1237.8000 436.3000Q1241.4400 431.8200 1247.1100 428.8100Q1252.7800 425.8000 1261.1800 425.8000L1261.1800 425.8000Q1269.7200 425.8000 1276.0200 429.6500Q1282.3200 433.5000 1285.7500 440.5000Q1289.1800 447.5000 1289.1800 457.3000L1289.1800 457.3000L1289.1800 496.6400Q1289.1800 498.0400 1288.2000 499.0200Q1287.2200 500 1285.8200 500L1285.8200 500L1273.5000 500Q1272.1000 500 1271.1200 499.0200Q1270.1400 498.0400 1270.1400 496.6400L1270.1400 496.6400L1270.1400 458.1400Q1270.1400 450.0200 1266.1500 445.4000Q1262.1600 440.7800 1254.6000 440.7800L1254.6000 440.7800Q1247.3200 440.7800 1242.9800 445.4000Q1238.6400 450.0200 1238.6400 458.1400L1238.6400 458.1400L1238.6400 496.6400Q1238.6400 498.0400 1237.6600 499.0200Q1236.6800 500 1235.2800 500L1235.2800 500ZM1351.2000 500L1339.8600 500Q1331.4600 500 1325.7200 497.0600Q1319.9800 494.1200 1317.1800 488.3100Q1314.3800 482.5000 1314.3800 473.8200L1314.3800 473.8200L1314.3800 442.0400L1303.3200 442.0400Q1301.9200 442.0400 1300.9400 441.0600Q1299.9600 440.0800 1299.9600 438.5400L1299.9600 438.5400L1299.9600 430.5600Q1299.9600 429.1600 1300.9400 428.1800Q1301.9200 427.2000 1303.3200 427.2000L1303.3200 427.2000L1314.3800 427.2000L1314.3800 403.9600Q1314.3800 402.5600 1315.2900 401.5800Q1316.2000 400.6000 1317.7400 400.6000L1317.7400 400.6000L1329.0800 400.6000Q1330.4800 400.6000 1331.4600 401.5800Q1332.4400 402.5600 1332.4400 403.9600L1332.4400 403.9600L1332.4400 427.2000L1349.9400 427.2000Q1351.3400 427.2000 1352.3200 428.1800Q1353.3000 429.1600 1353.3000 430.5600L1353.3000 430.5600L1353.3000 438.5400Q1353.3000 440.0800 1352.3200 441.0600Q1351.3400 442.0400 1349.9400 442.0400L1349.9400 442.0400L1332.4400 442.0400L1332.4400 472.4200Q1332.4400 478.1600 1334.4700 481.3800Q1336.5000 484.6000 1341.5400 484.6000L1341.5400 484.6000L1351.2000 484.6000Q1352.6000 484.6000 1353.5800 485.5800Q1354.5600 486.5600 1354.5600 487.9600L1354.5600 487.9600L1354.5600 496.6400Q1354.5600 498.0400 1353.5800 499.0200Q1352.6000 500 1351.2000 500L1351.2000 500ZM1388.1600 501.4000L1388.1600 501.4000Q1380.8800 501.4000 1375.0000 498.5300Q1369.1200 495.6600 1365.6900 490.8300Q1362.2600 486 1362.2600 479.9800L1362.2600 479.9800Q1362.2600 470.1800 1370.2400 464.3700Q1378.2200 458.5600 1391.1000 456.6000L1391.1000 456.6000L1410.2800 453.8000L1410.2800 450.8600Q1410.2800 444.9800 1407.3400 441.7600Q1404.4000 438.5400 1397.2600 438.5400L1397.2600 438.5400Q1392.2200 438.5400 1389.0700 440.5700Q1385.9200 442.6000 1384.3800 445.9600L1384.3800 445.9600Q1383.2600 447.7800 1381.1600 447.7800L1381.1600 447.7800L1370.1000 447.7800Q1368.5600 447.7800 1367.7900 446.9400Q1367.0200 446.1000 1367.0200 444.7000L1367.0200 444.7000Q1367.1600 442.4600 1368.9100 439.2400Q1370.6600 436.0200 1374.2300 433.0100Q1377.8000 430 1383.5400 427.9000Q1389.2800 425.8000 1397.4000 425.8000L1397.4000 425.8000Q1406.2200 425.8000 1412.3100 427.9700Q1418.4000 430.1400 1422.0400 433.7800Q1425.6800 437.4200 1427.3600 442.3200Q1429.0400 447.2200 1429.0400 452.6800L1429.0400 452.6800L1429.0400 496.6400Q1429.0400 498.0400 1428.0600 499.0200Q1427.0800 500 1425.6800 500L1425.6800 500L1414.3400 500Q1412.8000 500 1411.8900 499.0200Q1410.9800 498.0400 1410.9800 496.6400L1410.9800 496.6400L1410.9800 491.1800Q1409.1600 493.7000 1406.0800 496.0800Q1403.0000 498.4600 1398.5900 499.9300Q1394.1800 501.4000 1388.1600 501.4000ZM1392.9200 488.1000L1392.9200 488.1000Q1397.8200 488.1000 1401.8100 486Q1405.8000 483.9000 1408.1100 479.4900Q1410.4200 475.0800 1410.4200 468.3600L1410.4200 468.3600L1410.4200 465.4200L1396.4200 467.6600Q1388.1600 468.9200 1384.1000 471.7200Q1380.0400 474.5200 1380.0400 478.5800L1380.0400 478.5800Q1380.0400 481.6600 1381.9300 483.8300Q1383.8200 486 1386.7600 487.0500Q1389.7000 488.1000 1392.9200 488.1000ZM1474.5400 501.4000L1474.5400 501.4000Q1466.1400 501.4000 1460.1900 499.4400Q1454.2400 497.4800 1450.4600 494.5400Q1446.6800 491.6000 1444.8600 488.6600Q1443.0400 485.7200 1442.9000 483.7600L1442.9000 483.7600Q1442.7600 482.2200 1443.8100 481.3100Q1444.8600 480.4000 1446.1200 480.4000L1446.1200 480.4000L1457.1800 480.4000Q1457.7400 480.4000 1458.1600 480.5400Q1458.5800 480.6800 1459.2800 481.3800L1459.2800 481.3800Q1461.1000 482.9200 1463.1300 484.6000Q1465.1600 486.2800 1467.9600 487.4700Q1470.7600 488.6600 1474.9600 488.6600L1474.9600 488.6600Q1480.4200 488.6600 1484.1300 486.4900Q1487.8400 484.3200 1487.8400 480.2600L1487.8400 480.2600Q1487.8400 477.3200 1486.2300 475.5000Q1484.6200 473.6800 1480.2800 472.2100Q1475.9400 470.7400 1467.9600 469.0600L1467.9600 469.0600Q1460.1200 467.2400 1454.9400 464.4400Q1449.7600 461.6400 1447.2400 457.4400Q1444.7200 453.2400 1444.7200 447.6400L1444.7200 447.6400Q1444.7200 442.1800 1448.0100 437.2100Q1451.3000 432.2400 1457.8100 429.0200Q1464.3200 425.8000 1473.9800 425.8000L1473.9800 425.8000Q1481.5400 425.8000 1487.1400 427.6900Q1492.7400 429.5800 1496.4500 432.3800Q1500.1600 435.1800 1502.1200 438.0500Q1504.0800 440.9200 1504.2200 443.0200L1504.2200 443.0200Q1504.3600 444.5600 1503.3800 445.4700Q1502.4000 446.3800 1501.1400 446.3800L1501.1400 446.3800L1490.7800 446.3800Q1490.0800 446.3800 1489.5200 446.1000Q1488.9600 445.8200 1488.4000 445.4000L1488.4000 445.4000Q1486.8600 444 1485.0400 442.3900Q1483.2200 440.7800 1480.6300 439.6600Q1478.0400 438.5400 1473.8400 438.5400L1473.8400 438.5400Q1468.5200 438.5400 1465.7200 440.8500Q1462.9200 443.1600 1462.9200 446.6600L1462.9200 446.6600Q1462.9200 449.0400 1464.2500 450.7900Q1465.5800 452.5400 1469.6400 454.0800Q1473.7000 455.6200 1481.9600 457.3000L1481.9600 457.3000Q1491.3400 458.9800 1496.8700 462.2700Q1502.4000 465.5600 1504.7100 469.8300Q1507.0200 474.1000 1507.0200 479.2800L1507.0200 479.2800Q1507.0200 485.5800 1503.3100 490.6200Q1499.6000 495.6600 1492.3900 498.5300Q1485.1800 501.4000 1474.5400 501.4000ZM174.6400 666.6000L162.7400 666.6000Q161.3400 666.6000 160.3600 665.6200Q159.3800 664.6400 159.3800 663.2400L159.3800 663.2400L159.3800 570.5600Q159.3800 569.1600 160.3600 568.1800Q161.3400 567.2000 162.7400 567.2000L162.7400 567.2000L173.8000 567.2000Q175.3400 567.2000 176.2500 568.1800Q177.1600 569.1600 177.1600 570.5600L177.1600 570.5600L177.1600 576.1600Q180.5200 571.6800 185.9800 568.7400Q191.4400 565.8000 199.5600 565.8000L199.5600 565.8000Q206.9800 565.8000 212.4400 568.1800Q217.9000 570.5600 221.5400 574.9700Q225.1800 579.3800 227.1400 585.4000Q229.1000 591.4200 229.3800 598.7000L229.3800 598.7000Q229.5200 601.0800 229.5200 603.6000Q229.5200 606.1200 229.3800 608.6400L229.3800 608.6400Q229.2400 615.6400 227.2800 621.5900Q225.3200 627.5400 221.6100 631.9500Q217.9000 636.3600 212.4400 638.8800Q206.9800 641.4000 199.5600 641.4000L199.5600 641.4000Q192 641.4000 186.6800 638.6700Q181.3600 635.9400 178 631.4600L178 631.4600L178 663.2400Q178 664.6400 177.0900 665.6200Q176.1800 666.6000 174.6400 666.6000L174.6400 666.6000ZM194.3800 626.4200L194.3800 626.4200Q200.4000 626.4200 203.7600 623.8300Q207.1200 621.2400 208.6600 617.0400Q210.2000 612.8400 210.4800 607.8000L210.4800 607.8000Q210.6200 603.6000 210.4800 599.4000L210.4800 599.4000Q210.2000 594.3600 208.6600 590.1600Q207.1200 585.9600 203.7600 583.3700Q200.4000 580.7800 194.3800 580.7800L194.3800 580.7800Q188.6400 580.7800 185.0700 583.4400Q181.5000 586.1000 179.8900 590.2300Q178.2800 594.3600 178 598.7000L178 598.7000Q177.8600 601.2200 177.8600 604.0200Q177.8600 606.8200 178 609.4800L178 609.4800Q178.1400 613.6800 179.9600 617.5300Q181.7800 621.3800 185.2800 623.9000Q188.7800 626.4200 194.3800 626.4200ZM266.3400 641.4000L266.3400 641.4000Q259.0600 641.4000 253.1800 638.5300Q247.3000 635.6600 243.8700 630.8300Q240.4400 626 240.4400 619.9800L240.4400 619.9800Q240.4400 610.1800 248.4200 604.3700Q256.4000 598.5600 269.2800 596.6000L269.2800 596.6000L288.4600 593.8000L288.4600 590.8600Q288.4600 584.9800 285.5200 581.7600Q282.5800 578.5400 275.4400 578.5400L275.4400 578.5400Q270.4000 578.5400 267.2500 580.5700Q264.1000 582.6000 262.5600 585.9600L262.5600 585.9600Q261.4400 587.7800 259.3400 587.7800L259.3400 587.7800L248.2800 587.7800Q246.7400 587.7800 245.9700 586.9400Q245.2000 586.1000 245.2000 584.7000L245.2000 584.7000Q245.3400 582.4600 247.0900 579.2400Q248.8400 576.0200 252.4100 573.0100Q255.9800 570 261.7200 567.9000Q267.4600 565.8000 275.5800 565.8000L275.5800 565.8000Q284.4000 565.8000 290.4900 567.9700Q296.5800 570.1400 300.2200 573.7800Q303.8600 577.4200 305.5400 582.3200Q307.2200 587.2200 307.2200 592.6800L307.2200 592.6800L307.2200 636.6400Q307.2200 638.0400 306.2400 639.0200Q305.2600 640 303.8600 640L303.8600 640L292.5200 640Q290.9800 640 290.0700 639.0200Q289.1600 638.0400 289.1600 636.6400L289.1600 636.6400L289.1600 631.1800Q287.3400 633.7000 284.2600 636.0800Q281.1800 638.4600 276.7700 639.9300Q272.3600 641.4000 266.3400 641.4000ZM271.1000 628.1000L271.1000 628.1000Q276 628.1000 279.9900 626Q283.9800 623.9000 286.2900 619.4900Q288.6000 615.0800 288.6000 608.3600L288.6000 608.3600L288.6000 605.4200L274.6000 607.6600Q266.3400 608.9200 262.2800 611.7200Q258.2200 614.5200 258.2200 618.5800L258.2200 618.5800Q258.2200 621.6600 260.1100 623.8300Q262 626 264.9400 627.0500Q267.8800 628.1000 271.1000 628.1000ZM340.6800 640L328.5000 640Q327.1000 640 326.1200 639.0200Q325.1400 638.0400 325.1400 636.6400L325.1400 636.6400L325.1400 570.7000Q325.1400 569.1600 326.1200 568.1800Q327.1000 567.2000 328.5000 567.2000L328.5000 567.2000L339.8400 567.2000Q341.2400 567.2000 342.2900 568.1800Q343.3400 569.1600 343.3400 570.7000L343.3400 570.7000L343.3400 576.4400Q346.5600 571.9600 351.6700 569.5800Q356.7800 567.2000 363.5000 567.2000L363.5000 567.2000L369.2400 567.2000Q370.7800 567.2000 371.6900 568.1800Q372.6000 569.1600 372.6000 570.5600L372.6000 570.5600L372.6000 580.6400Q372.6000 582.0400 371.6900 583.0200Q370.7800 584 369.2400 584L369.2400 584L358.3200 584Q351.6000 584 347.8900 587.7100Q344.1800 591.4200 344.1800 598.1400L344.1800 598.1400L344.1800 636.6400Q344.1800 638.0400 343.2000 639.0200Q342.2200 640 340.6800 640L340.6800 640ZM404.6600 641.4000L404.6600 641.4000Q397.3800 641.4000 391.5000 638.5300Q385.6200 635.6600 382.1900 630.8300Q378.7600 626 378.7600 619.9800L378.7600 619.9800Q378.7600 610.1800 386.7400 604.3700Q394.7200 598.5600 407.6000 596.6000L407.6000 596.6000L426.7800 593.8000L426.7800 590.8600Q426.7800 584.9800 423.8400 581.7600Q420.9000 578.5400 413.7600 578.5400L413.7600 578.5400Q408.7200 578.5400 405.5700 580.5700Q402.4200 582.6000 400.8800 585.9600L400.8800 585.9600Q399.7600 587.7800 397.6600 587.7800L397.6600 587.7800L386.6000 587.7800Q385.0600 587.7800 384.2900 586.9400Q383.5200 586.1000 383.5200 584.7000L383.5200 584.7000Q383.6600 582.4600 385.4100 579.2400Q387.1600 576.0200 390.7300 573.0100Q394.3000 570 400.0400 567.9000Q405.7800 565.8000 413.9000 565.8000L413.9000 565.8000Q422.7200 565.8000 428.8100 567.9700Q434.9000 570.1400 438.5400 573.7800Q442.1800 577.4200 443.8600 582.3200Q445.5400 587.2200 445.5400 592.6800L445.5400 592.6800L445.5400 636.6400Q445.5400 638.0400 444.5600 639.0200Q443.5800 640 442.1800 640L442.1800 640L430.8400 640Q429.3000 640 428.3900 639.0200Q427.4800 638.0400 427.4800 636.6400L427.4800 636.6400L427.4800 631.1800Q425.6600 633.7000 422.5800 636.0800Q419.5000 638.4600 415.0900 639.9300Q410.6800 641.4000 404.6600 641.4000ZM409.4200 628.1000L409.4200 628.1000Q414.3200 628.1000 418.3100 626Q422.3000 623.9000 424.6100 619.4900Q426.9200 615.0800 426.9200 608.3600L426.9200 608.3600L426.9200 605.4200L412.9200 607.6600Q404.6600 608.9200 400.6000 611.7200Q396.5400 614.5200 396.5400 618.5800L396.5400 618.5800Q396.5400 621.6600 398.4300 623.8300Q400.3200 626 403.2600 627.0500Q406.2000 628.1000 409.4200 628.1000ZM527.0200 641.4000L527.0200 641.4000Q516.9400 641.4000 509.3100 637.6200Q501.6800 633.8400 497.4100 626.6300Q493.1400 619.4200 492.7200 609.2000L492.7200 609.2000Q492.5800 607.1000 492.5800 603.6700Q492.5800 600.2400 492.7200 598L492.7200 598Q493.1400 587.7800 497.4100 580.5700Q501.6800 573.3600 509.3100 569.5800Q516.9400 565.8000 527.0200 565.8000L527.0200 565.8000Q535.9800 565.8000 542.2800 568.2500Q548.5800 570.7000 552.6400 574.5500Q556.7000 578.4000 558.7300 582.5300Q560.7600 586.6600 560.9000 590.0200L560.9000 590.0200Q561.0400 591.5600 559.9900 592.4700Q558.9400 593.3800 557.5400 593.3800L557.5400 593.3800L545.2200 593.3800Q543.8200 593.3800 543.0500 592.6800Q542.2800 591.9800 541.5800 590.5800L541.5800 590.5800Q539.4800 584.9800 536.0500 582.6700Q532.6200 580.3600 527.3000 580.3600L527.3000 580.3600Q520.3000 580.3600 516.1700 584.7700Q512.0400 589.1800 511.7600 598.7000L511.7600 598.7000Q511.4800 604.0200 511.7600 608.5000L511.7600 608.5000Q512.0400 618.1600 516.1700 622.5000Q520.3000 626.8400 527.3000 626.8400L527.3000 626.8400Q532.7600 626.8400 536.1200 624.5300Q539.4800 622.2200 541.5800 616.6200L541.5800 616.6200Q542.2800 615.2200 543.0500 614.5200Q543.8200 613.8200 545.2200 613.8200L545.2200 613.8200L557.5400 613.8200Q558.9400 613.8200 559.9900 614.7300Q561.0400 615.6400 560.9000 617.1800L560.9000 617.1800Q560.7600 619.7000 559.5700 622.8500Q558.3800 626 555.7900 629.2900Q553.2000 632.5800 549.2800 635.3100Q545.3600 638.0400 539.8300 639.7200Q534.3000 641.4000 527.0200 641.4000ZM607.6600 641.4000L607.6600 641.4000Q596.4600 641.4000 588.8300 637.4800Q581.2000 633.5600 577.2100 626.4200Q573.2200 619.2800 572.6600 609.7600L572.6600 609.7600Q572.5200 607.2400 572.5200 603.6000Q572.5200 599.9600 572.6600 597.4400L572.6600 597.4400Q573.2200 587.7800 577.3500 580.7100Q581.4800 573.6400 589.1100 569.7200Q596.7400 565.8000 607.6600 565.8000L607.6600 565.8000Q618.5800 565.8000 626.2100 569.7200Q633.8400 573.6400 637.9700 580.7100Q642.1000 587.7800 642.6600 597.4400L642.6600 597.4400Q642.8000 599.9600 642.8000 603.6000Q642.8000 607.2400 642.6600 609.7600L642.6600 609.7600Q642.1000 619.2800 638.1100 626.4200Q634.1200 633.5600 626.4900 637.4800Q618.8600 641.4000 607.6600 641.4000ZM607.6600 627.5400L607.6600 627.5400Q615.0800 627.5400 619.1400 622.8500Q623.2000 618.1600 623.6200 609.0600L623.6200 609.0600Q623.7600 606.9600 623.7600 603.6000Q623.7600 600.2400 623.6200 598.1400L623.6200 598.1400Q623.2000 589.0400 619.1400 584.3500Q615.0800 579.6600 607.6600 579.6600L607.6600 579.6600Q600.2400 579.6600 596.1800 584.3500Q592.1200 589.0400 591.7000 598.1400L591.7000 598.1400Q591.5600 600.2400 591.5600 603.6000Q591.5600 606.9600 591.7000 609.0600L591.7000 609.0600Q592.1200 618.1600 596.1800 622.8500Q600.2400 627.5400 607.6600 627.5400ZM674.0200 640L661.7000 640Q660.3000 640 659.3200 639.0200Q658.3400 638.0400 658.3400 636.6400L658.3400 636.6400L658.3400 570.5600Q658.3400 569.1600 659.3200 568.1800Q660.3000 567.2000 661.7000 567.2000L661.7000 567.2000L673.1800 567.2000Q674.5800 567.2000 675.5600 568.1800Q676.5400 569.1600 676.5400 570.5600L676.5400 570.5600L676.5400 576.3000Q680.1800 571.8200 685.8500 568.8100Q691.5200 565.8000 699.9200 565.8000L699.9200 565.8000Q708.4600 565.8000 714.7600 569.6500Q721.0600 573.5000 724.4900 580.5000Q727.9200 587.5000 727.9200 597.3000L727.9200 597.3000L727.9200 636.6400Q727.9200 638.0400 726.9400 639.0200Q725.9600 640 724.5600 640L724.5600 640L712.2400 640Q710.8400 640 709.8600 639.0200Q708.8800 638.0400 708.8800 636.6400L708.8800 636.6400L708.8800 598.1400Q708.8800 590.0200 704.8900 585.4000Q700.9000 580.7800 693.3400 580.7800L693.3400 580.7800Q686.0600 580.7800 681.7200 585.4000Q677.3800 590.0200 677.3800 598.1400L677.3800 598.1400L677.3800 636.6400Q677.3800 638.0400 676.4000 639.0200Q675.4200 640 674.0200 640L674.0200 640ZM789.9400 640L778.6000 640Q770.2000 640 764.4600 637.0600Q758.7200 634.1200 755.9200 628.3100Q753.1200 622.5000 753.1200 613.8200L753.1200 613.8200L753.1200 582.0400L742.0600 582.0400Q740.6600 582.0400 739.6800 581.0600Q738.7000 580.0800 738.7000 578.5400L738.7000 578.5400L738.7000 570.5600Q738.7000 569.1600 739.6800 568.1800Q740.6600 567.2000 742.0600 567.2000L742.0600 567.2000L753.1200 567.2000L753.1200 543.9600Q753.1200 542.5600 754.0300 541.5800Q754.9400 540.6000 756.4800 540.6000L756.4800 540.6000L767.8200 540.6000Q769.2200 540.6000 770.2000 541.5800Q771.1800 542.5600 771.1800 543.9600L771.1800 543.9600L771.1800 567.2000L788.6800 567.2000Q790.0800 567.2000 791.0600 568.1800Q792.0400 569.1600 792.0400 570.5600L792.0400 570.5600L792.0400 578.5400Q792.0400 580.0800 791.0600 581.0600Q790.0800 582.0400 788.6800 582.0400L788.6800 582.0400L771.1800 582.0400L771.1800 612.4200Q771.1800 618.1600 773.2100 621.3800Q775.2400 624.6000 780.2800 624.6000L780.2800 624.6000L789.9400 624.6000Q791.3400 624.6000 792.3200 625.5800Q793.3000 626.5600 793.3000 627.9600L793.3000 627.9600L793.3000 636.6400Q793.3000 638.0400 792.3200 639.0200Q791.3400 640 789.9400 640L789.9400 640ZM821.3000 640L809.1200 640Q807.7200 640 806.7400 639.0200Q805.7600 638.0400 805.7600 636.6400L805.7600 636.6400L805.7600 570.7000Q805.7600 569.1600 806.7400 568.1800Q807.7200 567.2000 809.1200 567.2000L809.1200 567.2000L820.4600 567.2000Q821.8600 567.2000 822.9100 568.1800Q823.9600 569.1600 823.9600 570.7000L823.9600 570.7000L823.9600 576.4400Q827.1800 571.9600 832.2900 569.5800Q837.4000 567.2000 844.1200 567.2000L844.1200 567.2000L849.8600 567.2000Q851.4000 567.2000 852.3100 568.1800Q853.2200 569.1600 853.2200 570.5600L853.2200 570.5600L853.2200 580.6400Q853.2200 582.0400 852.3100 583.0200Q851.4000 584 849.8600 584L849.8600 584L838.9400 584Q832.2200 584 828.5100 587.7100Q824.8000 591.4200 824.8000 598.1400L824.8000 598.1400L824.8000 636.6400Q824.8000 638.0400 823.8200 639.0200Q822.8400 640 821.3000 640L821.3000 640ZM896.3400 641.4000L896.3400 641.4000Q885.1400 641.4000 877.5100 637.4800Q869.8800 633.5600 865.8900 626.4200Q861.9000 619.2800 861.3400 609.7600L861.3400 609.7600Q861.2000 607.2400 861.2000 603.6000Q861.2000 599.9600 861.3400 597.4400L861.3400 597.4400Q861.9000 587.7800 866.0300 580.7100Q870.1600 573.6400 877.7900 569.7200Q885.4200 565.8000 896.3400 565.8000L896.3400 565.8000Q907.2600 565.8000 914.8900 569.7200Q922.5200 573.6400 926.6500 580.7100Q930.7800 587.7800 931.3400 597.4400L931.3400 597.4400Q931.4800 599.9600 931.4800 603.6000Q931.4800 607.2400 931.3400 609.7600L931.3400 609.7600Q930.7800 619.2800 926.7900 626.4200Q922.8000 633.5600 915.1700 637.4800Q907.5400 641.4000 896.3400 641.4000ZM896.3400 627.5400L896.3400 627.5400Q903.7600 627.5400 907.8200 622.8500Q911.8800 618.1600 912.3000 609.0600L912.3000 609.0600Q912.4400 606.9600 912.4400 603.6000Q912.4400 600.2400 912.3000 598.1400L912.3000 598.1400Q911.8800 589.0400 907.8200 584.3500Q903.7600 579.6600 896.3400 579.6600L896.3400 579.6600Q888.9200 579.6600 884.8600 584.3500Q880.8000 589.0400 880.3800 598.1400L880.3800 598.1400Q880.2400 600.2400 880.2400 603.6000Q880.2400 606.9600 880.3800 609.0600L880.3800 609.0600Q880.8000 618.1600 884.8600 622.8500Q888.9200 627.5400 896.3400 627.5400ZM962.1400 640L950.5200 640Q949.1200 640 948.1400 639.0200Q947.1600 638.0400 947.1600 636.6400L947.1600 636.6400L947.1600 543.9600Q947.1600 542.5600 948.1400 541.5800Q949.1200 540.6000 950.5200 540.6000L950.5200 540.6000L962.1400 540.6000Q963.5400 540.6000 964.5200 541.5800Q965.5000 542.5600 965.5000 543.9600L965.5000 543.9600L965.5000 636.6400Q965.5000 638.0400 964.5200 639.0200Q963.5400 640 962.1400 640L962.1400 640ZM1015.4800 641.4000L1015.4800 641.4000Q999.9400 641.4000 990.8400 632.4400Q981.7400 623.4800 981.0400 606.9600L981.0400 606.9600Q980.9000 605.5600 980.9000 603.3900Q980.9000 601.2200 981.0400 599.9600L981.0400 599.9600Q981.6000 589.3200 985.8700 581.6900Q990.1400 574.0600 997.7000 569.9300Q1005.2600 565.8000 1015.4800 565.8000L1015.4800 565.8000Q1026.8200 565.8000 1034.5200 570.4900Q1042.2200 575.1800 1046.1400 583.5100Q1050.0600 591.8400 1050.0600 602.7600L1050.0600 602.7600L1050.0600 605.7000Q1050.0600 607.1000 1049.0800 608.0800Q1048.1000 609.0600 1046.5600 609.0600L1046.5600 609.0600L1000.0800 609.0600Q1000.0800 609.0600 1000.0800 609.4800Q1000.0800 609.9000 1000.0800 610.1800L1000.0800 610.1800Q1000.2200 615.0800 1001.9700 619.2100Q1003.7200 623.3400 1007.1500 625.8600Q1010.5800 628.3800 1015.3400 628.3800L1015.3400 628.3800Q1019.2600 628.3800 1021.9200 627.1900Q1024.5800 626 1026.2600 624.4600Q1027.9400 622.9200 1028.6400 621.9400L1028.6400 621.9400Q1029.9000 620.2600 1030.6700 619.9100Q1031.4400 619.5600 1032.9800 619.5600L1032.9800 619.5600L1045.0200 619.5600Q1046.4200 619.5600 1047.3300 620.4000Q1048.2400 621.2400 1048.1000 622.5000L1048.1000 622.5000Q1047.9600 624.7400 1045.7900 627.9600Q1043.6200 631.1800 1039.5600 634.2600Q1035.5000 637.3400 1029.4100 639.3700Q1023.3200 641.4000 1015.4800 641.4000ZM1000.0800 596.8800L1000.0800 597.3000L1031.0200 597.3000L1031.0200 596.8800Q1031.0200 591.4200 1029.2000 587.2900Q1027.3800 583.1600 1023.8800 580.8500Q1020.3800 578.5400 1015.4800 578.5400L1015.4800 578.5400Q1010.5800 578.5400 1007.0800 580.8500Q1003.5800 583.1600 1001.8300 587.2900Q1000.0800 591.4200 1000.0800 596.8800L1000.0800 596.8800ZM1123.9800 641.4000L1123.9800 641.4000Q1116.7000 641.4000 1111.1700 638.9500Q1105.6400 636.5000 1102 632.0200Q1098.3600 627.5400 1096.4000 621.4500Q1094.4400 615.3600 1094.1600 608.0800L1094.1600 608.0800Q1094.0200 605.5600 1094.0200 603.5300Q1094.0200 601.5000 1094.1600 598.9800L1094.1600 598.9800Q1094.4400 591.9800 1096.3300 585.9600Q1098.2200 579.9400 1101.9300 575.3900Q1105.6400 570.8400 1111.1700 568.3200Q1116.7000 565.8000 1123.9800 565.8000L1123.9800 565.8000Q1131.5400 565.8000 1136.7900 568.3900Q1142.0400 570.9800 1145.5400 575.0400L1145.5400 575.0400L1145.5400 543.9600Q1145.5400 542.5600 1146.4500 541.5800Q1147.3600 540.6000 1148.9000 540.6000L1148.9000 540.6000L1160.8000 540.6000Q1162.2000 540.6000 1163.1800 541.5800Q1164.1600 542.5600 1164.1600 543.9600L1164.1600 543.9600L1164.1600 636.6400Q1164.1600 638.0400 1163.1800 639.0200Q1162.2000 640 1160.8000 640L1160.8000 640L1149.7400 640Q1148.2000 640 1147.2900 639.0200Q1146.3800 638.0400 1146.3800 636.6400L1146.3800 636.6400L1146.3800 631.4600Q1142.8800 635.8000 1137.4900 638.6000Q1132.1000 641.4000 1123.9800 641.4000ZM1129.1600 626.4200L1129.1600 626.4200Q1135.0400 626.4200 1138.5400 623.7600Q1142.0400 621.1000 1143.7200 616.9700Q1145.4000 612.8400 1145.5400 608.5000L1145.5400 608.5000Q1145.6800 605.9800 1145.6800 603.1100Q1145.6800 600.2400 1145.5400 597.7200L1145.5400 597.7200Q1145.4000 593.5200 1143.5800 589.6700Q1141.7600 585.8200 1138.2600 583.3000Q1134.7600 580.7800 1129.1600 580.7800L1129.1600 580.7800Q1123.2800 580.7800 1119.8500 583.3700Q1116.4200 585.9600 1114.8800 590.1600Q1113.3400 594.3600 1113.0600 599.4000L1113.0600 599.4000Q1112.9200 603.6000 1113.0600 607.8000L1113.0600 607.8000Q1113.3400 612.8400 1114.8800 617.0400Q1116.4200 621.2400 1119.8500 623.8300Q1123.2800 626.4200 1129.1600 626.4200ZM1214.1400 641.4000L1214.1400 641.4000Q1198.6000 641.4000 1189.5000 632.4400Q1180.4000 623.4800 1179.7000 606.9600L1179.7000 606.9600Q1179.5600 605.5600 1179.5600 603.3900Q1179.5600 601.2200 1179.7000 599.9600L1179.7000 599.9600Q1180.2600 589.3200 1184.5300 581.6900Q1188.8000 574.0600 1196.3600 569.9300Q1203.9200 565.8000 1214.1400 565.8000L1214.1400 565.8000Q1225.4800 565.8000 1233.1800 570.4900Q1240.8800 575.1800 1244.8000 583.5100Q1248.7200 591.8400 1248.7200 602.7600L1248.7200 602.7600L1248.7200 605.7000Q1248.7200 607.1000 1247.7400 608.0800Q1246.7600 609.0600 1245.2200 609.0600L1245.2200 609.0600L1198.7400 609.0600Q1198.7400 609.0600 1198.7400 609.4800Q1198.7400 609.9000 1198.7400 610.1800L1198.7400 610.1800Q1198.8800 615.0800 1200.6300 619.2100Q1202.3800 623.3400 1205.8100 625.8600Q1209.2400 628.3800 1214 628.3800L1214 628.3800Q1217.9200 628.3800 1220.5800 627.1900Q1223.2400 626 1224.9200 624.4600Q1226.6000 622.9200 1227.3000 621.9400L1227.3000 621.9400Q1228.5600 620.2600 1229.3300 619.9100Q1230.1000 619.5600 1231.6400 619.5600L1231.6400 619.5600L1243.6800 619.5600Q1245.0800 619.5600 1245.9900 620.4000Q1246.9000 621.2400 1246.7600 622.5000L1246.7600 622.5000Q1246.6200 624.7400 1244.4500 627.9600Q1242.2800 631.1800 1238.2200 634.2600Q1234.1600 637.3400 1228.0700 639.3700Q1221.9800 641.4000 1214.1400 641.4000ZM1198.7400 596.8800L1198.7400 597.3000L1229.6800 597.3000L1229.6800 596.8800Q1229.6800 591.4200 1227.8600 587.2900Q1226.0400 583.1600 1222.5400 580.8500Q1219.0400 578.5400 1214.1400 578.5400L1214.1400 578.5400Q1209.2400 578.5400 1205.7400 580.8500Q1202.2400 583.1600 1200.4900 587.2900Q1198.7400 591.4200 1198.7400 596.8800L1198.7400 596.8800ZM195.3600 780L185 780Q182.7600 780 181.7100 778.9500Q180.6600 777.9000 179.9600 776.5000L179.9600 776.5000L153.7800 711.5400Q153.5000 710.8400 153.5000 710.2800L153.5000 710.2800Q153.5000 709.0200 154.4100 708.1100Q155.3200 707.2000 156.5800 707.2000L156.5800 707.2000L167.9200 707.2000Q169.6000 707.2000 170.4400 708.1100Q171.2800 709.0200 171.5600 709.8600L171.5600 709.8600L190.1800 759L208.8000 709.8600Q209.0800 709.0200 209.9200 708.1100Q210.7600 707.2000 212.4400 707.2000L212.4400 707.2000L223.9200 707.2000Q225.0400 707.2000 225.9500 708.1100Q226.8600 709.0200 226.8600 710.2800L226.8600 710.2800Q226.8600 710.8400 226.7200 711.5400L226.7200 711.5400L200.4000 776.5000Q199.8400 777.9000 198.7200 778.9500Q197.6000 780 195.3600 780L195.3600 780ZM270.9600 781.4000L270.9600 781.4000Q255.4200 781.4000 246.3200 772.4400Q237.2200 763.4800 236.5200 746.9600L236.5200 746.9600Q236.3800 745.5600 236.3800 743.3900Q236.3800 741.2200 236.5200 739.9600L236.5200 739.9600Q237.0800 729.3200 241.3500 721.6900Q245.6200 714.0600 253.1800 709.9300Q260.7400 705.8000 270.9600 705.8000L270.9600 705.8000Q282.3000 705.8000 290 710.4900Q297.7000 715.1800 301.6200 723.5100Q305.5400 731.8400 305.5400 742.7600L305.5400 742.7600L305.5400 745.7000Q305.5400 747.1000 304.5600 748.0800Q303.5800 749.0600 302.0400 749.0600L302.0400 749.0600L255.5600 749.0600Q255.5600 749.0600 255.5600 749.4800Q255.5600 749.9000 255.5600 750.1800L255.5600 750.1800Q255.7000 755.0800 257.4500 759.2100Q259.2000 763.3400 262.6300 765.8600Q266.0600 768.3800 270.8200 768.3800L270.8200 768.3800Q274.7400 768.3800 277.4000 767.1900Q280.0600 766 281.7400 764.4600Q283.4200 762.9200 284.1200 761.9400L284.1200 761.9400Q285.3800 760.2600 286.1500 759.9100Q286.9200 759.5600 288.4600 759.5600L288.4600 759.5600L300.5000 759.5600Q301.9000 759.5600 302.8100 760.4000Q303.7200 761.2400 303.5800 762.5000L303.5800 762.5000Q303.4400 764.7400 301.2700 767.9600Q299.1000 771.1800 295.0400 774.2600Q290.9800 777.3400 284.8900 779.3700Q278.8000 781.4000 270.9600 781.4000ZM255.5600 736.8800L255.5600 737.3000L286.5000 737.3000L286.5000 736.8800Q286.5000 731.4200 284.6800 727.2900Q282.8600 723.1600 279.3600 720.8500Q275.8600 718.5400 270.9600 718.5400L270.9600 718.5400Q266.0600 718.5400 262.5600 720.8500Q259.0600 723.1600 257.3100 727.2900Q255.5600 731.4200 255.5600 736.8800L255.5600 736.8800ZM335.9200 780L323.7400 780Q322.3400 780 321.3600 779.0200Q320.3800 778.0400 320.3800 776.6400L320.3800 776.6400L320.3800 710.7000Q320.3800 709.1600 321.3600 708.1800Q322.3400 707.2000 323.7400 707.2000L323.7400 707.2000L335.0800 707.2000Q336.4800 707.2000 337.5300 708.1800Q338.5800 709.1600 338.5800 710.7000L338.5800 710.7000L338.5800 716.4400Q341.8000 711.9600 346.9100 709.5800Q352.0200 707.2000 358.7400 707.2000L358.7400 707.2000L364.4800 707.2000Q366.0200 707.2000 366.9300 708.1800Q367.8400 709.1600 367.8400 710.5600L367.8400 710.5600L367.8400 720.6400Q367.8400 722.0400 366.9300 723.0200Q366.0200 724 364.4800 724L364.4800 724L353.5600 724Q346.8400 724 343.1300 727.7100Q339.4200 731.4200 339.4200 738.1400L339.4200 738.1400L339.4200 776.6400Q339.4200 778.0400 338.4400 779.0200Q337.4600 780 335.9200 780L335.9200 780ZM406.3400 781.4000L406.3400 781.4000Q397.9400 781.4000 391.9900 779.4400Q386.0400 777.4800 382.2600 774.5400Q378.4800 771.6000 376.6600 768.6600Q374.8400 765.7200 374.7000 763.7600L374.7000 763.7600Q374.5600 762.2200 375.6100 761.3100Q376.6600 760.4000 377.9200 760.4000L377.9200 760.4000L388.9800 760.4000Q389.5400 760.4000 389.9600 760.5400Q390.3800 760.6800 391.0800 761.3800L391.0800 761.3800Q392.9000 762.9200 394.9300 764.6000Q396.9600 766.2800 399.7600 767.4700Q402.5600 768.6600 406.7600 768.6600L406.7600 768.6600Q412.2200 768.6600 415.9300 766.4900Q419.6400 764.3200 419.6400 760.2600L419.6400 760.2600Q419.6400 757.3200 418.0300 755.5000Q416.4200 753.6800 412.0800 752.2100Q407.7400 750.7400 399.7600 749.0600L399.7600 749.0600Q391.9200 747.2400 386.7400 744.4400Q381.5600 741.6400 379.0400 737.4400Q376.5200 733.2400 376.5200 727.6400L376.5200 727.6400Q376.5200 722.1800 379.8100 717.2100Q383.1000 712.2400 389.6100 709.0200Q396.1200 705.8000 405.7800 705.8000L405.7800 705.8000Q413.3400 705.8000 418.9400 707.6900Q424.5400 709.5800 428.2500 712.3800Q431.9600 715.1800 433.9200 718.0500Q435.8800 720.9200 436.0200 723.0200L436.0200 723.0200Q436.1600 724.5600 435.1800 725.4700Q434.2000 726.3800 432.9400 726.3800L432.9400 726.3800L422.5800 726.3800Q421.8800 726.3800 421.3200 726.1000Q420.7600 725.8200 420.2000 725.4000L420.2000 725.4000Q418.6600 724 416.8400 722.3900Q415.0200 720.7800 412.4300 719.6600Q409.8400 718.5400 405.6400 718.5400L405.6400 718.5400Q400.3200 718.5400 397.5200 720.8500Q394.7200 723.1600 394.7200 726.6600L394.7200 726.6600Q394.7200 729.0400 396.0500 730.7900Q397.3800 732.5400 401.4400 734.0800Q405.5000 735.6200 413.7600 737.3000L413.7600 737.3000Q423.1400 738.9800 428.6700 742.2700Q434.2000 745.5600 436.5100 749.8300Q438.8200 754.1000 438.8200 759.2800L438.8200 759.2800Q438.8200 765.5800 435.1100 770.6200Q431.4000 775.6600 424.1900 778.5300Q416.9800 781.4000 406.3400 781.4000ZM474.3800 781.4000L474.3800 781.4000Q467.1000 781.4000 461.2200 778.5300Q455.3400 775.6600 451.9100 770.8300Q448.4800 766 448.4800 759.9800L448.4800 759.9800Q448.4800 750.1800 456.4600 744.3700Q464.4400 738.5600 477.3200 736.6000L477.3200 736.6000L496.5000 733.8000L496.5000 730.8600Q496.5000 724.9800 493.5600 721.7600Q490.6200 718.5400 483.4800 718.5400L483.4800 718.5400Q478.4400 718.5400 475.2900 720.5700Q472.1400 722.6000 470.6000 725.9600L470.6000 725.9600Q469.4800 727.7800 467.3800 727.7800L467.3800 727.7800L456.3200 727.7800Q454.7800 727.7800 454.0100 726.9400Q453.2400 726.1000 453.2400 724.7000L453.2400 724.7000Q453.3800 722.4600 455.1300 719.2400Q456.8800 716.0200 460.4500 713.0100Q464.0200 710 469.7600 707.9000Q475.5000 705.8000 483.6200 705.8000L483.6200 705.8000Q492.4400 705.8000 498.5300 707.9700Q504.6200 710.1400 508.2600 713.7800Q511.9000 717.4200 513.5800 722.3200Q515.2600 727.2200 515.2600 732.6800L515.2600 732.6800L515.2600 776.6400Q515.2600 778.0400 514.2800 779.0200Q513.3000 780 511.9000 780L511.9000 780L500.5600 780Q499.0200 780 498.1100 779.0200Q497.2000 778.0400 497.2000 776.6400L497.2000 776.6400L497.2000 771.1800Q495.3800 773.7000 492.3000 776.0800Q489.2200 778.4600 484.8100 779.9300Q480.4000 781.4000 474.3800 781.4000ZM479.1400 768.1000L479.1400 768.1000Q484.0400 768.1000 488.0300 766Q492.0200 763.9000 494.3300 759.4900Q496.6400 755.0800 496.6400 748.3600L496.6400 748.3600L496.6400 745.4200L482.6400 747.6600Q474.3800 748.9200 470.3200 751.7200Q466.2600 754.5200 466.2600 758.5800L466.2600 758.5800Q466.2600 761.6600 468.1500 763.8300Q470.0400 766 472.9800 767.0500Q475.9200 768.1000 479.1400 768.1000ZM491.3200 697.4000L491.3200 697.4000Q487.6800 697.4000 485.4400 696.2100Q483.2000 695.0200 481.3100 693.7600Q479.4200 692.5000 477.1800 692.5000L477.1800 692.5000Q475.3600 692.5000 474.5900 693.5500Q473.8200 694.6000 473.1200 695.6500Q472.4200 696.7000 470.8800 696.7000L470.8800 696.7000L464.4400 696.7000Q463.4600 696.7000 462.7600 696Q462.0600 695.3000 462.0600 694.3200L462.0600 694.3200Q462.0600 692.2200 462.8300 689.6300Q463.6000 687.0400 465.2800 684.6600Q466.9600 682.2800 469.5500 680.8100Q472.1400 679.3400 475.6400 679.3400L475.6400 679.3400Q479.4200 679.3400 481.6600 680.5300Q483.9000 681.7200 485.7900 682.9800Q487.6800 684.2400 489.9200 684.2400L489.9200 684.2400Q491.7400 684.2400 492.5100 683.1200Q493.2800 682 493.9800 680.9500Q494.6800 679.9000 496.2200 679.9000L496.2200 679.9000L502.6600 679.9000Q503.7800 679.9000 504.4100 680.6700Q505.0400 681.4400 505.0400 682.4200L505.0400 682.4200Q505.0400 684.5200 504.2700 687.1100Q503.5000 689.7000 501.8200 692.0800Q500.1400 694.4600 497.5500 695.9300Q494.9600 697.4000 491.3200 697.4000ZM565.3800 781.4000L565.3800 781.4000Q554.1800 781.4000 546.5500 777.4800Q538.9200 773.5600 534.9300 766.4200Q530.9400 759.2800 530.3800 749.7600L530.3800 749.7600Q530.2400 747.2400 530.2400 743.6000Q530.2400 739.9600 530.3800 737.4400L530.3800 737.4400Q530.9400 727.7800 535.0700 720.7100Q539.2000 713.6400 546.8300 709.7200Q554.4600 705.8000 565.3800 705.8000L565.3800 705.8000Q576.3000 705.8000 583.9300 709.7200Q591.5600 713.6400 595.6900 720.7100Q599.8200 727.7800 600.3800 737.4400L600.3800 737.4400Q600.5200 739.9600 600.5200 743.6000Q600.5200 747.2400 600.3800 749.7600L600.3800 749.7600Q599.8200 759.2800 595.8300 766.4200Q591.8400 773.5600 584.2100 777.4800Q576.5800 781.4000 565.3800 781.4000ZM565.3800 767.5400L565.3800 767.5400Q572.8000 767.5400 576.8600 762.8500Q580.9200 758.1600 581.3400 749.0600L581.3400 749.0600Q581.4800 746.9600 581.4800 743.6000Q581.4800 740.2400 581.3400 738.1400L581.3400 738.1400Q580.9200 729.0400 576.8600 724.3500Q572.8000 719.6600 565.3800 719.6600L565.3800 719.6600Q557.9600 719.6600 553.9000 724.3500Q549.8400 729.0400 549.4200 738.1400L549.4200 738.1400Q549.2800 740.2400 549.2800 743.6000Q549.2800 746.9600 549.4200 749.0600L549.4200 749.0600Q549.8400 758.1600 553.9000 762.8500Q557.9600 767.5400 565.3800 767.5400Z" id="title"/></g></svg>