<svg xmlns="http://www.w3.org/2000/svg" version="1.1" xmlns:xlink="http://www.w3.org/1999/xlink" xmlns:svgjs="http://svgjs.dev/svgjs" viewBox="0 0 1920 1080" id="75aa2e61-b82e-4aaa-8bd3-9c60e08b8eca"><g><rect width="1920" height="1080" fill="#f7ebec"/></g><g fill="#ddbdd5"><path d="M969.5 217C561.465 217 231 547.465 231 955.5C231 1363.53 561.465 1694 969.5 1694C1377.53 1694 1708 1363.53 1708 955.5C1708 547.465 1377.53 217 969.5 217ZM969.5 1309.34C773.983 1309.34 615.658 1151.02 615.658 955.5C615.658 759.983 773.983 601.658 969.5 601.658C1165.02 601.658 1323.34 759.983 1323.34 955.5C1323.34 1151.02 1165.02 1309.34 969.5 1309.34Z"/></g><g fill="#ffffff" opacity="0.4"><path d="M1432 918.479L1616.48 734V918.479H1432Z"/><path d="M1616.48 918.479L1800.52 734V918.479H1616.48Z"/><path d="M1800.52 918.479L1985 734V918.479H1800.52Z"/><path d="M1432 1102.52L1616.48 918.479V1102.52H1432Z"/><path d="M1616.48 1102.52L1800.52 918.479V1102.52H1616.48Z"/><path d="M1800.52 1102.52L1985 918.479V1102.52H1800.52Z"/><path d="M499 154.521L683.479 -29.5215V154.521H499Z"/><path d="M683.479 154.521L867.521 -29.5215V154.521H683.479Z"/><path d="M867.521 154.521L1052 -29.5215V154.521H867.521Z"/><path d="M499 339L683.479 154.521V339H499Z"/><path d="M683.479 339L867.521 154.521V339H683.479Z"/><path d="M867.521 339L1052 154.521V339H867.521Z"/></g><g><path d="M178.635 139.281L184.422 144.246V166.626H215.704L219.958 172.147L215.69 177.397H184.422V198.795L178.635 203.747L173 198.795V144.232L178.635 139.281ZM195.554 195.68H219.406L223.397 200.915L219.143 206.45H195.554L191.7 201.342L195.554 195.68ZM196.382 138H219.129L223.383 143.52L219.129 148.77H196.659L192.115 143.677L196.382 138ZM323.155 148.628L328.251 154.291L323.155 159.968H246.13L241.172 154.291L246.13 148.628H323.155ZM237.043 172.147L241.849 167.893L246.669 172.147V178.393C246.669 188.879 249.417 197.515 261.668 197.515H264.14C275.147 197.515 281.197 189.86 281.197 177.952V172.005L285.879 167.75L290.699 171.862V178.379C290.699 189.007 293.723 196.946 305.56 196.946H307.618C319.178 196.946 321.235 187.869 321.373 177.952V171.578L326.056 167.608L331 171.72V178.094C330.862 191.838 327.285 207.574 308.032 207.574H305.974C294.552 207.574 288.365 202.324 285.892 195.808C283.006 202.466 275.299 208.286 264.844 208.286H262.358C242.553 208.286 237.194 195.964 237.056 178.663V172.147H237.043ZM276.391 274.744L273.642 267.089L280.796 264.969L305.974 276.721V252.491L311.07 248.095L316.291 252.491V281.829L325.641 286.226L328.251 293.311L320.959 296L276.391 274.744ZM321.235 223.011L328.113 226.27L325.917 233.497L264.002 263.119L256.571 260.146L259.596 252.776L321.235 223.011ZM231.905 263.404L237.954 268.512C237.402 286.51 222.403 296 204.669 296H202.874C194.062 296 183.759 292.6 177.157 286.083L177.834 278.855L184.298 278.002C189.118 282.256 195.858 285.229 202.183 285.229H204.117C216.091 285.229 225.303 280.136 226.27 268.085L231.905 263.404ZM226.256 251.638C225.704 239.16 216.629 234.209 204.103 234.209H202.169C194.739 234.209 189.104 237.182 184.284 241.436L177.834 240.583L177.143 233.355C183.745 226.696 192.957 223.58 202.597 223.58H204.517C222.403 223.58 237.402 232.942 237.94 251.211L231.891 256.176L226.256 251.638Z" fill="#000000"/></g><g fill="#000000" id="info-group"><path d="M167.0800 430L154.9000 430Q153.7800 430 152.8700 429.1600Q151.9600 428.3200 151.9600 427.0600L151.9600 427.0600Q151.9600 426.5000 152.2400 425.8000L152.2400 425.8000L185.9800 335.5000Q186.4000 334.1000 187.5900 333.0500Q188.7800 332 190.8800 332L190.8800 332L206.1400 332Q208.2400 332 209.3600 333.0500Q210.4800 334.1000 211.0400 335.5000L211.0400 335.5000L244.7800 425.8000Q244.9200 426.5000 244.9200 427.0600L244.9200 427.0600Q244.9200 428.3200 244.0800 429.1600Q243.2400 430 242.1200 430L242.1200 430L229.9400 430Q227.9800 430 227.0700 429.0900Q226.1600 428.1800 225.8800 427.3400L225.8800 427.3400L219.3000 410.2600L177.7200 410.2600L171.1400 427.3400Q170.8600 428.1800 169.9500 429.0900Q169.0400 430 167.0800 430L167.0800 430ZM198.4400 350.9000L182.6200 394.1600L214.4000 394.1600L198.4400 350.9000ZM283.2800 431.4000L283.2800 431.4000Q274.7400 431.4000 268.5100 427.5500Q262.2800 423.7000 258.9200 416.6300Q255.5600 409.5600 255.5600 399.9000L255.5600 399.9000L255.5600 360.5600Q255.5600 359.1600 256.5400 358.1800Q257.5200 357.2000 258.9200 357.2000L258.9200 357.2000L271.2400 357.2000Q272.7800 357.2000 273.6900 358.1800Q274.6000 359.1600 274.6000 360.5600L274.6000 360.5600L274.6000 399.0600Q274.6000 416.4200 289.8600 416.4200L289.8600 416.4200Q297.1400 416.4200 301.4100 411.8000Q305.6800 407.1800 305.6800 399.0600L305.6800 399.0600L305.6800 360.5600Q305.6800 359.1600 306.6600 358.1800Q307.6400 357.2000 309.0400 357.2000L309.0400 357.2000L321.3600 357.2000Q322.7600 357.2000 323.7400 358.1800Q324.7200 359.1600 324.7200 360.5600L324.7200 360.5600L324.7200 426.6400Q324.7200 428.0400 323.7400 429.0200Q322.7600 430 321.3600 430L321.3600 430L310.0200 430Q308.4800 430 307.5700 429.0200Q306.6600 428.0400 306.6600 426.6400L306.6600 426.6400L306.6600 420.9000Q302.8800 425.8000 297.2800 428.6000Q291.6800 431.4000 283.2800 431.4000ZM358.3200 430L346.7000 430Q345.3000 430 344.3200 429.0200Q343.3400 428.0400 343.3400 426.6400L343.3400 426.6400L343.3400 333.9600Q343.3400 332.5600 344.3200 331.5800Q345.3000 330.6000 346.7000 330.6000L346.7000 330.6000L358.3200 330.6000Q359.7200 330.6000 360.7000 331.5800Q361.6800 332.5600 361.6800 333.9600L361.6800 333.9600L361.6800 426.6400Q361.6800 428.0400 360.7000 429.0200Q359.7200 430 358.3200 430L358.3200 430ZM401.4400 431.4000L401.4400 431.4000Q394.1600 431.4000 388.2800 428.5300Q382.4000 425.6600 378.9700 420.8300Q375.5400 416 375.5400 409.9800L375.5400 409.9800Q375.5400 400.1800 383.5200 394.3700Q391.5000 388.5600 404.3800 386.6000L404.3800 386.6000L423.5600 383.8000L423.5600 380.8600Q423.5600 374.9800 420.6200 371.7600Q417.6800 368.5400 410.5400 368.5400L410.5400 368.5400Q405.5000 368.5400 402.3500 370.5700Q399.2000 372.6000 397.6600 375.9600L397.6600 375.9600Q396.5400 377.7800 394.4400 377.7800L394.4400 377.7800L383.3800 377.7800Q381.8400 377.7800 381.0700 376.9400Q380.3000 376.1000 380.3000 374.7000L380.3000 374.7000Q380.4400 372.4600 382.1900 369.2400Q383.9400 366.0200 387.5100 363.0100Q391.0800 360 396.8200 357.9000Q402.5600 355.8000 410.6800 355.8000L410.6800 355.8000Q419.5000 355.8000 425.5900 357.9700Q431.6800 360.1400 435.3200 363.7800Q438.9600 367.4200 440.6400 372.3200Q442.3200 377.2200 442.3200 382.6800L442.3200 382.6800L442.3200 426.6400Q442.3200 428.0400 441.3400 429.0200Q440.3600 430 438.9600 430L438.9600 430L427.6200 430Q426.0800 430 425.1700 429.0200Q424.2600 428.0400 424.2600 426.6400L424.2600 426.6400L424.2600 421.1800Q422.4400 423.7000 419.3600 426.0800Q416.2800 428.4600 411.8700 429.9300Q407.4600 431.4000 401.4400 431.4000ZM406.2000 418.1000L406.2000 418.1000Q411.1000 418.1000 415.0900 416Q419.0800 413.9000 421.3900 409.4900Q423.7000 405.0800 423.7000 398.3600L423.7000 398.3600L423.7000 395.4200L409.7000 397.6600Q401.4400 398.9200 397.3800 401.7200Q393.3200 404.5200 393.3200 408.5800L393.3200 408.5800Q393.3200 411.6600 395.2100 413.8300Q397.1000 416 400.0400 417.0500Q402.9800 418.1000 406.2000 418.1000ZM559.6400 430L492.7200 430Q491.3200 430 490.3400 429.0200Q489.3600 428.0400 489.3600 426.6400L489.3600 426.6400L489.3600 419.5000Q489.3600 418.2400 489.9900 416.4900Q490.6200 414.7400 492.8600 412.9200L492.8600 412.9200L514.9800 390.9400Q524.2200 383.6600 529.8900 378.5500Q535.5600 373.4400 538.1500 369.1700Q540.7400 364.9000 540.7400 360.7000L540.7400 360.7000Q540.7400 354.4000 537.3100 350.4800Q533.8800 346.5600 526.4600 346.5600L526.4600 346.5600Q521.5600 346.5600 518.2000 348.5900Q514.8400 350.6200 512.9500 353.9800Q511.0600 357.3400 510.3600 361.4000L510.3600 361.4000Q510.0800 363.2200 508.8200 363.9200Q507.5600 364.6200 506.3000 364.6200L506.3000 364.6200L493.8400 364.6200Q492.5800 364.6200 491.7400 363.7800Q490.9000 362.9400 490.9000 361.8200L490.9000 361.8200Q491.0400 355.8000 493.4200 350.1300Q495.8000 344.4600 500.3500 340.0500Q504.9000 335.6400 511.4800 332.9800Q518.0600 330.3200 526.3200 330.3200L526.3200 330.3200Q537.9400 330.3200 545.5700 334.2400Q553.2000 338.1600 557.0500 344.8800Q560.9000 351.6000 560.9000 360L560.9000 360Q560.9000 366.5800 558.3800 372.1100Q555.8600 377.6400 551.1000 382.7500Q546.3400 387.8600 539.6200 393.1800L539.6200 393.1800L519.7400 413.3400L559.6400 413.3400Q561.1800 413.3400 562.0900 414.2500Q563.0000 415.1600 563.0000 416.7000L563.0000 416.7000L563.0000 426.6400Q563.0000 428.0400 562.0900 429.0200Q561.1800 430 559.6400 430L559.6400 430ZM595.7600 381L581.9000 381Q580.5000 381 579.5200 380.0200Q578.5400 379.0400 578.5400 377.6400L578.5400 377.6400L578.5400 364.3400Q578.5400 362.8000 579.5200 361.8200Q580.5000 360.8400 581.9000 360.8400L581.9000 360.8400L595.7600 360.8400Q597.3000 360.8400 598.2800 361.8200Q599.2600 362.8000 599.2600 364.3400L599.2600 364.3400L599.2600 377.6400Q599.2600 379.0400 598.2800 380.0200Q597.3000 381 595.7600 381L595.7600 381ZM595.7600 430L581.9000 430Q580.5000 430 579.5200 429.0200Q578.5400 428.0400 578.5400 426.6400L578.5400 426.6400L578.5400 413.3400Q578.5400 411.8000 579.5200 410.8200Q580.5000 409.8400 581.9000 409.8400L581.9000 409.8400L595.7600 409.8400Q597.3000 409.8400 598.2800 410.8200Q599.2600 411.8000 599.2600 413.3400L599.2600 413.3400L599.2600 426.6400Q599.2600 428.0400 598.2800 429.0200Q597.3000 430 595.7600 430L595.7600 430ZM688.8600 431.4000L688.8600 431.4000Q675.8400 431.4000 666.8100 426.8500Q657.7800 422.3000 653.0200 413.8300Q648.2600 405.3600 647.7000 393.4600L647.7000 393.4600Q647.5600 387.7200 647.5600 381.1400Q647.5600 374.5600 647.7000 368.5400L647.7000 368.5400Q648.2600 356.7800 653.0900 348.2400Q657.9200 339.7000 666.9500 335.1500Q675.9800 330.6000 688.8600 330.6000L688.8600 330.6000Q698.3800 330.6000 705.9400 333.1200Q713.5000 335.6400 718.8200 340.0500Q724.1400 344.4600 727.0800 350.3400Q730.0200 356.2200 730.1600 363.0800L730.1600 363.0800Q730.3000 364.3400 729.3900 365.1800Q728.4800 366.0200 727.2200 366.0200L727.2200 366.0200L713.9200 366.0200Q712.3800 366.0200 711.4000 365.2500Q710.4200 364.4800 710.0000 362.6600L710.0000 362.6600Q707.7600 353.4200 702.3000 350.0600Q696.8400 346.7000 688.7200 346.7000L688.7200 346.7000Q679.3400 346.7000 673.7400 351.9500Q668.1400 357.2000 667.7200 369.2400L667.7200 369.2400Q667.3000 380.7200 667.7200 392.7600L667.7200 392.7600Q668.1400 404.8000 673.7400 410.0500Q679.3400 415.3000 688.7200 415.3000L688.7200 415.3000Q696.8400 415.3000 702.3700 411.8700Q707.9000 408.4400 710.0000 399.3400L710.0000 399.3400Q710.4200 397.3800 711.4000 396.6800Q712.3800 395.9800 713.9200 395.9800L713.9200 395.9800L727.2200 395.9800Q728.4800 395.9800 729.3900 396.8200Q730.3000 397.6600 730.1600 398.9200L730.1600 398.9200Q730.0200 405.7800 727.0800 411.6600Q724.1400 417.5400 718.8200 421.9500Q713.5000 426.3600 705.9400 428.8800Q698.3800 431.4000 688.8600 431.4000ZM760.6800 430L748.5000 430Q747.1000 430 746.1200 429.0200Q745.1400 428.0400 745.1400 426.6400L745.1400 426.6400L745.1400 360.7000Q745.1400 359.1600 746.1200 358.1800Q747.1000 357.2000 748.5000 357.2000L748.5000 357.2000L759.8400 357.2000Q761.2400 357.2000 762.2900 358.1800Q763.3400 359.1600 763.3400 360.7000L763.3400 360.7000L763.3400 366.4400Q766.5600 361.9600 771.6700 359.5800Q776.7800 357.2000 783.5000 357.2000L783.5000 357.2000L789.2400 357.2000Q790.7800 357.2000 791.6900 358.1800Q792.6000 359.1600 792.6000 360.5600L792.6000 360.5600L792.6000 370.6400Q792.6000 372.0400 791.6900 373.0200Q790.7800 374 789.2400 374L789.2400 374L778.3200 374Q771.6000 374 767.8900 377.7100Q764.1800 381.4200 764.1800 388.1400L764.1800 388.1400L764.1800 426.6400Q764.1800 428.0400 763.2000 429.0200Q762.2200 430 760.6800 430L760.6800 430ZM818.5000 430L806.8800 430Q805.4800 430 804.5000 429.0200Q803.5200 428.0400 803.5200 426.6400L803.5200 426.6400L803.5200 360.5600Q803.5200 359.1600 804.5000 358.1800Q805.4800 357.2000 806.8800 357.2000L806.8800 357.2000L818.5000 357.2000Q820.0400 357.2000 820.9500 358.1800Q821.8600 359.1600 821.8600 360.5600L821.8600 360.5600L821.8600 426.6400Q821.8600 428.0400 820.9500 429.0200Q820.0400 430 818.5000 430L818.5000 430ZM819.0600 345.1600L806.3200 345.1600Q804.9200 345.1600 803.9400 344.1800Q802.9600 343.2000 802.9600 341.8000L802.9600 341.8000L802.9600 331.7200Q802.9600 330.3200 803.9400 329.3400Q804.9200 328.3600 806.3200 328.3600L806.3200 328.3600L819.0600 328.3600Q820.6000 328.3600 821.5800 329.3400Q822.5600 330.3200 822.5600 331.7200L822.5600 331.7200L822.5600 341.8000Q822.5600 343.2000 821.5800 344.1800Q820.6000 345.1600 819.0600 345.1600L819.0600 345.1600ZM861.6200 431.4000L861.6200 431.4000Q854.3400 431.4000 848.4600 428.5300Q842.5800 425.6600 839.1500 420.8300Q835.7200 416 835.7200 409.9800L835.7200 409.9800Q835.7200 400.1800 843.7000 394.3700Q851.6800 388.5600 864.5600 386.6000L864.5600 386.6000L883.7400 383.8000L883.7400 380.8600Q883.7400 374.9800 880.8000 371.7600Q877.8600 368.5400 870.7200 368.5400L870.7200 368.5400Q865.6800 368.5400 862.5300 370.5700Q859.3800 372.6000 857.8400 375.9600L857.8400 375.9600Q856.7200 377.7800 854.6200 377.7800L854.6200 377.7800L843.5600 377.7800Q842.0200 377.7800 841.2500 376.9400Q840.4800 376.1000 840.4800 374.7000L840.4800 374.7000Q840.6200 372.4600 842.3700 369.2400Q844.1200 366.0200 847.6900 363.0100Q851.2600 360 857.0000 357.9000Q862.7400 355.8000 870.8600 355.8000L870.8600 355.8000Q879.6800 355.8000 885.7700 357.9700Q891.8600 360.1400 895.5000 363.7800Q899.1400 367.4200 900.8200 372.3200Q902.5000 377.2200 902.5000 382.6800L902.5000 382.6800L902.5000 426.6400Q902.5000 428.0400 901.5200 429.0200Q900.5400 430 899.1400 430L899.1400 430L887.8000 430Q886.2600 430 885.3500 429.0200Q884.4400 428.0400 884.4400 426.6400L884.4400 426.6400L884.4400 421.1800Q882.6200 423.7000 879.5400 426.0800Q876.4600 428.4600 872.0500 429.9300Q867.6400 431.4000 861.6200 431.4000ZM866.3800 418.1000L866.3800 418.1000Q871.2800 418.1000 875.2700 416Q879.2600 413.9000 881.5700 409.4900Q883.8800 405.0800 883.8800 398.3600L883.8800 398.3600L883.8800 395.4200L869.8800 397.6600Q861.6200 398.9200 857.5600 401.7200Q853.5000 404.5200 853.5000 408.5800L853.5000 408.5800Q853.5000 411.6600 855.3900 413.8300Q857.2800 416 860.2200 417.0500Q863.1600 418.1000 866.3800 418.1000ZM936.1000 430L923.7800 430Q922.3800 430 921.4000 429.0200Q920.4200 428.0400 920.4200 426.6400L920.4200 426.6400L920.4200 360.5600Q920.4200 359.1600 921.4000 358.1800Q922.3800 357.2000 923.7800 357.2000L923.7800 357.2000L935.2600 357.2000Q936.6600 357.2000 937.6400 358.1800Q938.6200 359.1600 938.6200 360.5600L938.6200 360.5600L938.6200 366.3000Q942.2600 361.8200 947.9300 358.8100Q953.6000 355.8000 962.0000 355.8000L962.0000 355.8000Q970.5400 355.8000 976.8400 359.6500Q983.1400 363.5000 986.5700 370.5000Q990.0000 377.5000 990.0000 387.3000L990.0000 387.3000L990.0000 426.6400Q990.0000 428.0400 989.0200 429.0200Q988.0400 430 986.6400 430L986.6400 430L974.3200 430Q972.9200 430 971.9400 429.0200Q970.9600 428.0400 970.9600 426.6400L970.9600 426.6400L970.9600 388.1400Q970.9600 380.0200 966.9700 375.4000Q962.9800 370.7800 955.4200 370.7800L955.4200 370.7800Q948.1400 370.7800 943.8000 375.4000Q939.4600 380.0200 939.4600 388.1400L939.4600 388.1400L939.4600 426.6400Q939.4600 428.0400 938.4800 429.0200Q937.5000 430 936.1000 430L936.1000 430ZM1034.8000 431.4000L1034.8000 431.4000Q1027.5200 431.4000 1021.9900 428.9500Q1016.4600 426.5000 1012.8200 422.0200Q1009.1800 417.5400 1007.2200 411.4500Q1005.2600 405.3600 1004.9800 398.0800L1004.9800 398.0800Q1004.8400 395.5600 1004.8400 393.5300Q1004.8400 391.5000 1004.9800 388.9800L1004.9800 388.9800Q1005.2600 381.9800 1007.1500 375.9600Q1009.0400 369.9400 1012.7500 365.3900Q1016.4600 360.8400 1021.9900 358.3200Q1027.5200 355.8000 1034.8000 355.8000L1034.8000 355.8000Q1042.3600 355.8000 1047.6100 358.3900Q1052.8600 360.9800 1056.3600 365.0400L1056.3600 365.0400L1056.3600 333.9600Q1056.3600 332.5600 1057.2700 331.5800Q1058.1800 330.6000 1059.7200 330.6000L1059.7200 330.6000L1071.6200 330.6000Q1073.0200 330.6000 1074.0000 331.5800Q1074.9800 332.5600 1074.9800 333.9600L1074.9800 333.9600L1074.9800 426.6400Q1074.9800 428.0400 1074.0000 429.0200Q1073.0200 430 1071.6200 430L1071.6200 430L1060.5600 430Q1059.0200 430 1058.1100 429.0200Q1057.2000 428.0400 1057.2000 426.6400L1057.2000 426.6400L1057.2000 421.4600Q1053.7000 425.8000 1048.3100 428.6000Q1042.9200 431.4000 1034.8000 431.4000ZM1039.9800 416.4200L1039.9800 416.4200Q1045.8600 416.4200 1049.3600 413.7600Q1052.8600 411.1000 1054.5400 406.9700Q1056.2200 402.8400 1056.3600 398.5000L1056.3600 398.5000Q1056.5000 395.9800 1056.5000 393.1100Q1056.5000 390.2400 1056.3600 387.7200L1056.3600 387.7200Q1056.2200 383.5200 1054.4000 379.6700Q1052.5800 375.8200 1049.0800 373.3000Q1045.5800 370.7800 1039.9800 370.7800L1039.9800 370.7800Q1034.1000 370.7800 1030.6700 373.3700Q1027.2400 375.9600 1025.7000 380.1600Q1024.1600 384.3600 1023.8800 389.4000L1023.8800 389.4000Q1023.7400 393.6000 1023.8800 397.8000L1023.8800 397.8000Q1024.1600 402.8400 1025.7000 407.0400Q1027.2400 411.2400 1030.6700 413.8300Q1034.1000 416.4200 1039.9800 416.4200ZM1125.8000 431.4000L1125.8000 431.4000Q1114.6000 431.4000 1106.9700 427.4800Q1099.3400 423.5600 1095.3500 416.4200Q1091.3600 409.2800 1090.8000 399.7600L1090.8000 399.7600Q1090.6600 397.2400 1090.6600 393.6000Q1090.6600 389.9600 1090.8000 387.4400L1090.8000 387.4400Q1091.3600 377.7800 1095.4900 370.7100Q1099.6200 363.6400 1107.2500 359.7200Q1114.8800 355.8000 1125.8000 355.8000L1125.8000 355.8000Q1136.7200 355.8000 1144.3500 359.7200Q1151.9800 363.6400 1156.1100 370.7100Q1160.2400 377.7800 1160.8000 387.4400L1160.8000 387.4400Q1160.9400 389.9600 1160.9400 393.6000Q1160.9400 397.2400 1160.8000 399.7600L1160.8000 399.7600Q1160.2400 409.2800 1156.2500 416.4200Q1152.2600 423.5600 1144.6300 427.4800Q1137.0000 431.4000 1125.8000 431.4000ZM1125.8000 417.5400L1125.8000 417.5400Q1133.2200 417.5400 1137.2800 412.8500Q1141.3400 408.1600 1141.7600 399.0600L1141.7600 399.0600Q1141.9000 396.9600 1141.9000 393.6000Q1141.9000 390.2400 1141.7600 388.1400L1141.7600 388.1400Q1141.3400 379.0400 1137.2800 374.3500Q1133.2200 369.6600 1125.8000 369.6600L1125.8000 369.6600Q1118.3800 369.6600 1114.3200 374.3500Q1110.2600 379.0400 1109.8400 388.1400L1109.8400 388.1400Q1109.7000 390.2400 1109.7000 393.6000Q1109.7000 396.9600 1109.8400 399.0600L1109.8400 399.0600Q1110.2600 408.1600 1114.3200 412.8500Q1118.3800 417.5400 1125.8000 417.5400ZM190.6000 571.4000L190.6000 571.4000Q175.0600 571.4000 165.9600 562.4400Q156.8600 553.4800 156.1600 536.9600L156.1600 536.9600Q156.0200 535.5600 156.0200 533.3900Q156.0200 531.2200 156.1600 529.9600L156.1600 529.9600Q156.7200 519.3200 160.9900 511.6900Q165.2600 504.0600 172.8200 499.9300Q180.3800 495.8000 190.6000 495.8000L190.6000 495.8000Q201.9400 495.8000 209.6400 500.4900Q217.3400 505.1800 221.2600 513.5100Q225.1800 521.8400 225.1800 532.7600L225.1800 532.7600L225.1800 535.7000Q225.1800 537.1000 224.2000 538.0800Q223.2200 539.0600 221.6800 539.0600L221.6800 539.0600L175.2000 539.0600Q175.2000 539.0600 175.2000 539.4800Q175.2000 539.9000 175.2000 540.1800L175.2000 540.1800Q175.3400 545.0800 177.0900 549.2100Q178.8400 553.3400 182.2700 555.8600Q185.7000 558.3800 190.4600 558.3800L190.4600 558.3800Q194.3800 558.3800 197.0400 557.1900Q199.7000 556 201.3800 554.4600Q203.0600 552.9200 203.7600 551.9400L203.7600 551.9400Q205.0200 550.2600 205.7900 549.9100Q206.5600 549.5600 208.1000 549.5600L208.1000 549.5600L220.1400 549.5600Q221.5400 549.5600 222.4500 550.4000Q223.3600 551.2400 223.2200 552.5000L223.2200 552.5000Q223.0800 554.7400 220.9100 557.9600Q218.7400 561.1800 214.6800 564.2600Q210.6200 567.3400 204.5300 569.3700Q198.4400 571.4000 190.6000 571.4000ZM175.2000 526.8800L175.2000 527.3000L206.1400 527.3000L206.1400 526.8800Q206.1400 521.4200 204.3200 517.2900Q202.5000 513.1600 199 510.8500Q195.5000 508.5400 190.6000 508.5400L190.6000 508.5400Q185.7000 508.5400 182.2000 510.8500Q178.7000 513.1600 176.9500 517.2900Q175.2000 521.4200 175.2000 526.8800L175.2000 526.8800ZM267.6000 571.4000L267.6000 571.4000Q259.2000 571.4000 253.2500 569.4400Q247.3000 567.4800 243.5200 564.5400Q239.7400 561.6000 237.9200 558.6600Q236.1000 555.7200 235.9600 553.7600L235.9600 553.7600Q235.8200 552.2200 236.8700 551.3100Q237.9200 550.4000 239.1800 550.4000L239.1800 550.4000L250.2400 550.4000Q250.8000 550.4000 251.2200 550.5400Q251.6400 550.6800 252.3400 551.3800L252.3400 551.3800Q254.1600 552.9200 256.1900 554.6000Q258.2200 556.2800 261.0200 557.4700Q263.8200 558.6600 268.0200 558.6600L268.0200 558.6600Q273.4800 558.6600 277.1900 556.4900Q280.9000 554.3200 280.9000 550.2600L280.9000 550.2600Q280.9000 547.3200 279.2900 545.5000Q277.6800 543.6800 273.3400 542.2100Q269 540.7400 261.0200 539.0600L261.0200 539.0600Q253.1800 537.2400 248 534.4400Q242.8200 531.6400 240.3000 527.4400Q237.7800 523.2400 237.7800 517.6400L237.7800 517.6400Q237.7800 512.1800 241.0700 507.2100Q244.3600 502.2400 250.8700 499.0200Q257.3800 495.8000 267.0400 495.8000L267.0400 495.8000Q274.6000 495.8000 280.2000 497.6900Q285.8000 499.5800 289.5100 502.3800Q293.2200 505.1800 295.1800 508.0500Q297.1400 510.9200 297.2800 513.0200L297.2800 513.0200Q297.4200 514.5600 296.4400 515.4700Q295.4600 516.3800 294.2000 516.3800L294.2000 516.3800L283.8400 516.3800Q283.1400 516.3800 282.5800 516.1000Q282.0200 515.8200 281.4600 515.4000L281.4600 515.4000Q279.9200 514 278.1000 512.3900Q276.2800 510.7800 273.6900 509.6600Q271.1000 508.5400 266.9000 508.5400L266.9000 508.5400Q261.5800 508.5400 258.7800 510.8500Q255.9800 513.1600 255.9800 516.6600L255.9800 516.6600Q255.9800 519.0400 257.3100 520.7900Q258.6400 522.5400 262.7000 524.0800Q266.7600 525.6200 275.0200 527.3000L275.0200 527.3000Q284.4000 528.9800 289.9300 532.2700Q295.4600 535.5600 297.7700 539.8300Q300.0800 544.1000 300.0800 549.2800L300.0800 549.2800Q300.0800 555.5800 296.3700 560.6200Q292.6600 565.6600 285.4500 568.5300Q278.2400 571.4000 267.6000 571.4000ZM378.4800 596.6000L366.4400 596.6000Q365.0400 596.6000 364.0600 595.6200Q363.0800 594.6400 363.0800 593.2400L363.0800 593.2400L363.0800 561.4600Q359.7200 565.9400 354.4000 568.6700Q349.0800 571.4000 341.5200 571.4000L341.5200 571.4000Q334.3800 571.4000 328.8500 568.8800Q323.3200 566.3600 319.6100 561.9500Q315.9000 557.5400 313.9400 551.5900Q311.9800 545.6400 311.7000 538.6400L311.7000 538.6400Q311.5600 536.1200 311.5600 533.6000Q311.5600 531.0800 311.7000 528.7000L311.7000 528.7000Q312.1200 521.4200 314.0100 515.4000Q315.9000 509.3800 319.6100 504.9700Q323.3200 500.5600 328.8500 498.1800Q334.3800 495.8000 341.5200 495.8000L341.5200 495.8000Q349.6400 495.8000 355.1700 498.7400Q360.7000 501.6800 363.9200 506.1600L363.9200 506.1600L363.9200 500.5600Q363.9200 499.1600 364.9000 498.1800Q365.8800 497.2000 367.2800 497.2000L367.2800 497.2000L378.4800 497.2000Q379.8800 497.2000 380.8600 498.1800Q381.8400 499.1600 381.8400 500.5600L381.8400 500.5600L381.8400 593.2400Q381.8400 594.6400 380.8600 595.6200Q379.8800 596.6000 378.4800 596.6000L378.4800 596.6000ZM346.8400 556.4200L346.8400 556.4200Q352.4400 556.4200 355.9400 553.9000Q359.4400 551.3800 361.1900 547.5300Q362.9400 543.6800 363.0800 539.4800L363.0800 539.4800Q363.3600 536.8200 363.3600 534.0200Q363.3600 531.2200 363.0800 528.7000L363.0800 528.7000Q362.9400 524.3600 361.2600 520.2300Q359.5800 516.1000 356.0800 513.4400Q352.5800 510.7800 346.8400 510.7800L346.8400 510.7800Q340.9600 510.7800 337.4600 513.3700Q333.9600 515.9600 332.4900 520.1600Q331.0200 524.3600 330.7400 529.4000L330.7400 529.4000Q330.4600 533.6000 330.7400 537.8000L330.7400 537.8000Q331.0200 542.8400 332.4900 547.0400Q333.9600 551.2400 337.4600 553.8300Q340.9600 556.4200 346.8400 556.4200ZM427.4800 571.4000L427.4800 571.4000Q418.9400 571.4000 412.7100 567.5500Q406.4800 563.7000 403.1200 556.6300Q399.7600 549.5600 399.7600 539.9000L399.7600 539.9000L399.7600 500.5600Q399.7600 499.1600 400.7400 498.1800Q401.7200 497.2000 403.1200 497.2000L403.1200 497.2000L415.4400 497.2000Q416.9800 497.2000 417.8900 498.1800Q418.8000 499.1600 418.8000 500.5600L418.8000 500.5600L418.8000 539.0600Q418.8000 556.4200 434.0600 556.4200L434.0600 556.4200Q441.3400 556.4200 445.6100 551.8000Q449.8800 547.1800 449.8800 539.0600L449.8800 539.0600L449.8800 500.5600Q449.8800 499.1600 450.8600 498.1800Q451.8400 497.2000 453.2400 497.2000L453.2400 497.2000L465.5600 497.2000Q466.9600 497.2000 467.9400 498.1800Q468.9200 499.1600 468.9200 500.5600L468.9200 500.5600L468.9200 566.6400Q468.9200 568.0400 467.9400 569.0200Q466.9600 570 465.5600 570L465.5600 570L454.2200 570Q452.6800 570 451.7700 569.0200Q450.8600 568.0400 450.8600 566.6400L450.8600 566.6400L450.8600 560.9000Q447.0800 565.8000 441.4800 568.6000Q435.8800 571.4000 427.4800 571.4000ZM518.7600 571.4000L518.7600 571.4000Q503.2200 571.4000 494.1200 562.4400Q485.0200 553.4800 484.3200 536.9600L484.3200 536.9600Q484.1800 535.5600 484.1800 533.3900Q484.1800 531.2200 484.3200 529.9600L484.3200 529.9600Q484.8800 519.3200 489.1500 511.6900Q493.4200 504.0600 500.9800 499.9300Q508.5400 495.8000 518.7600 495.8000L518.7600 495.8000Q530.1000 495.8000 537.8000 500.4900Q545.5000 505.1800 549.4200 513.5100Q553.3400 521.8400 553.3400 532.7600L553.3400 532.7600L553.3400 535.7000Q553.3400 537.1000 552.3600 538.0800Q551.3800 539.0600 549.8400 539.0600L549.8400 539.0600L503.3600 539.0600Q503.3600 539.0600 503.3600 539.4800Q503.3600 539.9000 503.3600 540.1800L503.3600 540.1800Q503.5000 545.0800 505.2500 549.2100Q507 553.3400 510.4300 555.8600Q513.8600 558.3800 518.6200 558.3800L518.6200 558.3800Q522.5400 558.3800 525.2000 557.1900Q527.8600 556 529.5400 554.4600Q531.2200 552.9200 531.9200 551.9400L531.9200 551.9400Q533.1800 550.2600 533.9500 549.9100Q534.7200 549.5600 536.2600 549.5600L536.2600 549.5600L548.3000 549.5600Q549.7000 549.5600 550.6100 550.4000Q551.5200 551.2400 551.3800 552.5000L551.3800 552.5000Q551.2400 554.7400 549.0700 557.9600Q546.9000 561.1800 542.8400 564.2600Q538.7800 567.3400 532.6900 569.3700Q526.6000 571.4000 518.7600 571.4000ZM503.3600 526.8800L503.3600 527.3000L534.3000 527.3000L534.3000 526.8800Q534.3000 521.4200 532.4800 517.2900Q530.6600 513.1600 527.1600 510.8500Q523.6600 508.5400 518.7600 508.5400L518.7600 508.5400Q513.8600 508.5400 510.3600 510.8500Q506.8600 513.1600 505.1100 517.2900Q503.3600 521.4200 503.3600 526.8800L503.3600 526.8800ZM583.3000 570L571.5400 570Q570.1400 570 569.1600 569.0200Q568.1800 568.0400 568.1800 566.6400L568.1800 566.6400L568.1800 500.5600Q568.1800 499.1600 569.1600 498.1800Q570.1400 497.2000 571.5400 497.2000L571.5400 497.2000L582.4600 497.2000Q583.8600 497.2000 584.8400 498.1800Q585.8200 499.1600 585.8200 500.5600L585.8200 500.5600L585.8200 505.3200Q588.7600 501.4000 593.7300 498.6700Q598.7000 495.9400 605.5600 495.8000L605.5600 495.8000Q621.5200 495.5200 627.8200 508.2600L627.8200 508.2600Q631.0400 502.6600 637.1300 499.2300Q643.2200 495.8000 650.6400 495.8000L650.6400 495.8000Q657.9200 495.8000 663.8700 499.1600Q669.8200 502.5200 673.2500 509.3100Q676.6800 516.1000 676.6800 526.4600L676.6800 526.4600L676.6800 566.6400Q676.6800 568.0400 675.7000 569.0200Q674.7200 570 673.3200 570L673.3200 570L661.8400 570Q660.4400 570 659.4600 569.0200Q658.4800 568.0400 658.4800 566.6400L658.4800 566.6400L658.4800 527.5800Q658.4800 521.2800 656.6600 517.5700Q654.8400 513.8600 651.7600 512.3200Q648.6800 510.7800 644.9000 510.7800L644.9000 510.7800Q641.8200 510.7800 638.7400 512.3200Q635.6600 513.8600 633.7000 517.5700Q631.7400 521.2800 631.7400 527.5800L631.7400 527.5800L631.7400 566.6400Q631.7400 568.0400 630.7600 569.0200Q629.7800 570 628.3800 570L628.3800 570L616.9000 570Q615.5000 570 614.5200 569.0200Q613.5400 568.0400 613.5400 566.6400L613.5400 566.6400L613.5400 527.5800Q613.5400 521.2800 611.5800 517.5700Q609.6200 513.8600 606.5400 512.3200Q603.4600 510.7800 599.9600 510.7800L599.9600 510.7800Q596.7400 510.7800 593.6600 512.3900Q590.5800 514 588.6200 517.6400Q586.6600 521.2800 586.6600 527.5800L586.6600 527.5800L586.6600 566.6400Q586.6600 568.0400 585.6800 569.0200Q584.7000 570 583.3000 570L583.3000 570ZM715.6000 571.4000L715.6000 571.4000Q708.3200 571.4000 702.4400 568.5300Q696.5600 565.6600 693.1300 560.8300Q689.7000 556 689.7000 549.9800L689.7000 549.9800Q689.7000 540.1800 697.6800 534.3700Q705.6600 528.5600 718.5400 526.6000L718.5400 526.6000L737.7200 523.8000L737.7200 520.8600Q737.7200 514.9800 734.7800 511.7600Q731.8400 508.5400 724.7000 508.5400L724.7000 508.5400Q719.6600 508.5400 716.5100 510.5700Q713.3600 512.6000 711.8200 515.9600L711.8200 515.9600Q710.7000 517.7800 708.6000 517.7800L708.6000 517.7800L697.5400 517.7800Q696 517.7800 695.2300 516.9400Q694.4600 516.1000 694.4600 514.7000L694.4600 514.7000Q694.6000 512.4600 696.3500 509.2400Q698.1000 506.0200 701.6700 503.0100Q705.2400 500 710.9800 497.9000Q716.7200 495.8000 724.8400 495.8000L724.8400 495.8000Q733.6600 495.8000 739.7500 497.9700Q745.8400 500.1400 749.4800 503.7800Q753.1200 507.4200 754.8000 512.3200Q756.4800 517.2200 756.4800 522.6800L756.4800 522.6800L756.4800 566.6400Q756.4800 568.0400 755.5000 569.0200Q754.5200 570 753.1200 570L753.1200 570L741.7800 570Q740.2400 570 739.3300 569.0200Q738.4200 568.0400 738.4200 566.6400L738.4200 566.6400L738.4200 561.1800Q736.6000 563.7000 733.5200 566.0800Q730.4400 568.4600 726.0300 569.9300Q721.6200 571.4000 715.6000 571.4000ZM720.3600 558.1000L720.3600 558.1000Q725.2600 558.1000 729.2500 556Q733.2400 553.9000 735.5500 549.4900Q737.8600 545.0800 737.8600 538.3600L737.8600 538.3600L737.8600 535.4200L723.8600 537.6600Q715.6000 538.9200 711.5400 541.7200Q707.4800 544.5200 707.4800 548.5800L707.4800 548.5800Q707.4800 551.6600 709.3700 553.8300Q711.2600 556 714.2000 557.0500Q717.1400 558.1000 720.3600 558.1000ZM801.9800 571.4000L801.9800 571.4000Q793.5800 571.4000 787.6300 569.4400Q781.6800 567.4800 777.9000 564.5400Q774.1200 561.6000 772.3000 558.6600Q770.4800 555.7200 770.3400 553.7600L770.3400 553.7600Q770.2000 552.2200 771.2500 551.3100Q772.3000 550.4000 773.5600 550.4000L773.5600 550.4000L784.6200 550.4000Q785.1800 550.4000 785.6000 550.5400Q786.0200 550.6800 786.7200 551.3800L786.7200 551.3800Q788.5400 552.9200 790.5700 554.6000Q792.6000 556.2800 795.4000 557.4700Q798.2000 558.6600 802.4000 558.6600L802.4000 558.6600Q807.8600 558.6600 811.5700 556.4900Q815.2800 554.3200 815.2800 550.2600L815.2800 550.2600Q815.2800 547.3200 813.6700 545.5000Q812.0600 543.6800 807.7200 542.2100Q803.3800 540.7400 795.4000 539.0600L795.4000 539.0600Q787.5600 537.2400 782.3800 534.4400Q777.2000 531.6400 774.6800 527.4400Q772.1600 523.2400 772.1600 517.6400L772.1600 517.6400Q772.1600 512.1800 775.4500 507.2100Q778.7400 502.2400 785.2500 499.0200Q791.7600 495.8000 801.4200 495.8000L801.4200 495.8000Q808.9800 495.8000 814.5800 497.6900Q820.1800 499.5800 823.8900 502.3800Q827.6000 505.1800 829.5600 508.0500Q831.5200 510.9200 831.6600 513.0200L831.6600 513.0200Q831.8000 514.5600 830.8200 515.4700Q829.8400 516.3800 828.5800 516.3800L828.5800 516.3800L818.2200 516.3800Q817.5200 516.3800 816.9600 516.1000Q816.4000 515.8200 815.8400 515.4000L815.8400 515.4000Q814.3000 514 812.4800 512.3900Q810.6600 510.7800 808.0700 509.6600Q805.4800 508.5400 801.2800 508.5400L801.2800 508.5400Q795.9600 508.5400 793.1600 510.8500Q790.3600 513.1600 790.3600 516.6600L790.3600 516.6600Q790.3600 519.0400 791.6900 520.7900Q793.0200 522.5400 797.0800 524.0800Q801.1400 525.6200 809.4000 527.3000L809.4000 527.3000Q818.7800 528.9800 824.3100 532.2700Q829.8400 535.5600 832.1500 539.8300Q834.4600 544.1000 834.4600 549.2800L834.4600 549.2800Q834.4600 555.5800 830.7500 560.6200Q827.0400 565.6600 819.8300 568.5300Q812.6200 571.4000 801.9800 571.4000ZM912.3000 571.4000L912.3000 571.4000Q896.7600 571.4000 887.6600 562.4400Q878.5600 553.4800 877.8600 536.9600L877.8600 536.9600Q877.7200 535.5600 877.7200 533.3900Q877.7200 531.2200 877.8600 529.9600L877.8600 529.9600Q878.4200 519.3200 882.6900 511.6900Q886.9600 504.0600 894.5200 499.9300Q902.0800 495.8000 912.3000 495.8000L912.3000 495.8000Q923.6400 495.8000 931.3400 500.4900Q939.0400 505.1800 942.9600 513.5100Q946.8800 521.8400 946.8800 532.7600L946.8800 532.7600L946.8800 535.7000Q946.8800 537.1000 945.9000 538.0800Q944.9200 539.0600 943.3800 539.0600L943.3800 539.0600L896.9000 539.0600Q896.9000 539.0600 896.9000 539.4800Q896.9000 539.9000 896.9000 540.1800L896.9000 540.1800Q897.0400 545.0800 898.7900 549.2100Q900.5400 553.3400 903.9700 555.8600Q907.4000 558.3800 912.1600 558.3800L912.1600 558.3800Q916.0800 558.3800 918.7400 557.1900Q921.4000 556 923.0800 554.4600Q924.7600 552.9200 925.4600 551.9400L925.4600 551.9400Q926.7200 550.2600 927.4900 549.9100Q928.2600 549.5600 929.8000 549.5600L929.8000 549.5600L941.8400 549.5600Q943.2400 549.5600 944.1500 550.4000Q945.0600 551.2400 944.9200 552.5000L944.9200 552.5000Q944.7800 554.7400 942.6100 557.9600Q940.4400 561.1800 936.3800 564.2600Q932.3200 567.3400 926.2300 569.3700Q920.1400 571.4000 912.3000 571.4000ZM896.9000 526.8800L896.9000 527.3000L927.8400 527.3000L927.8400 526.8800Q927.8400 521.4200 926.0200 517.2900Q924.2000 513.1600 920.7000 510.8500Q917.2000 508.5400 912.3000 508.5400L912.3000 508.5400Q907.4000 508.5400 903.9000 510.8500Q900.4000 513.1600 898.6500 517.2900Q896.9000 521.4200 896.9000 526.8800L896.9000 526.8800ZM1034.1000 571.4000L1034.1000 571.4000Q1025.9800 571.4000 1020.5900 568.6000Q1015.2000 565.8000 1011.7000 561.4600L1011.7000 561.4600L1011.7000 566.6400Q1011.7000 568.0400 1010.7900 569.0200Q1009.8800 570 1008.3400 570L1008.3400 570L997.2800 570Q995.8800 570 994.9000 569.0200Q993.9200 568.0400 993.9200 566.6400L993.9200 566.6400L993.9200 473.9600Q993.9200 472.5600 994.9000 471.5800Q995.8800 470.6000 997.2800 470.6000L997.2800 470.6000L1009.1800 470.6000Q1010.7200 470.6000 1011.6300 471.5800Q1012.5400 472.5600 1012.5400 473.9600L1012.5400 473.9600L1012.5400 505.0400Q1016.0400 500.9800 1021.2900 498.3900Q1026.5400 495.8000 1034.1000 495.8000L1034.1000 495.8000Q1041.5200 495.8000 1046.9800 498.3200Q1052.4400 500.8400 1056.1500 505.3900Q1059.8600 509.9400 1061.8200 515.9600Q1063.7800 521.9800 1063.9200 528.9800L1063.9200 528.9800Q1064.0600 531.5000 1064.0600 533.5300Q1064.0600 535.5600 1063.9200 538.0800L1063.9200 538.0800Q1063.6400 545.3600 1061.6800 551.4500Q1059.7200 557.5400 1056.0800 562.0200Q1052.4400 566.5000 1046.9800 568.9500Q1041.5200 571.4000 1034.1000 571.4000ZM1028.9200 556.4200L1028.9200 556.4200Q1034.9400 556.4200 1038.3000 553.8300Q1041.6600 551.2400 1043.2000 547.0400Q1044.7400 542.8400 1045.0200 537.8000L1045.0200 537.8000Q1045.1600 533.6000 1045.0200 529.4000L1045.0200 529.4000Q1044.7400 524.3600 1043.2000 520.1600Q1041.6600 515.9600 1038.3000 513.3700Q1034.9400 510.7800 1028.9200 510.7800L1028.9200 510.7800Q1023.3200 510.7800 1019.8200 513.3000Q1016.3200 515.8200 1014.5000 519.6700Q1012.6800 523.5200 1012.5400 527.7200L1012.5400 527.7200Q1012.4000 530.2400 1012.4000 533.1100Q1012.4000 535.9800 1012.5400 538.5000L1012.5400 538.5000Q1012.8200 542.8400 1014.4300 546.9700Q1016.0400 551.1000 1019.6100 553.7600Q1023.1800 556.4200 1028.9200 556.4200ZM1100.7400 571.4000L1100.7400 571.4000Q1093.4600 571.4000 1087.5800 568.5300Q1081.7000 565.6600 1078.2700 560.8300Q1074.8400 556 1074.8400 549.9800L1074.8400 549.9800Q1074.8400 540.1800 1082.8200 534.3700Q1090.8000 528.5600 1103.6800 526.6000L1103.6800 526.6000L1122.8600 523.8000L1122.8600 520.8600Q1122.8600 514.9800 1119.9200 511.7600Q1116.9800 508.5400 1109.8400 508.5400L1109.8400 508.5400Q1104.8000 508.5400 1101.6500 510.5700Q1098.5000 512.6000 1096.9600 515.9600L1096.9600 515.9600Q1095.8400 517.7800 1093.7400 517.7800L1093.7400 517.7800L1082.6800 517.7800Q1081.1400 517.7800 1080.3700 516.9400Q1079.6000 516.1000 1079.6000 514.7000L1079.6000 514.7000Q1079.7400 512.4600 1081.4900 509.2400Q1083.2400 506.0200 1086.8100 503.0100Q1090.3800 500 1096.1200 497.9000Q1101.8600 495.8000 1109.9800 495.8000L1109.9800 495.8000Q1118.8000 495.8000 1124.8900 497.9700Q1130.9800 500.1400 1134.6200 503.7800Q1138.2600 507.4200 1139.9400 512.3200Q1141.6200 517.2200 1141.6200 522.6800L1141.6200 522.6800L1141.6200 566.6400Q1141.6200 568.0400 1140.6400 569.0200Q1139.6600 570 1138.2600 570L1138.2600 570L1126.9200 570Q1125.3800 570 1124.4700 569.0200Q1123.5600 568.0400 1123.5600 566.6400L1123.5600 566.6400L1123.5600 561.1800Q1121.7400 563.7000 1118.6600 566.0800Q1115.5800 568.4600 1111.1700 569.9300Q1106.7600 571.4000 1100.7400 571.4000ZM1105.5000 558.1000L1105.5000 558.1000Q1110.4000 558.1000 1114.3900 556Q1118.3800 553.9000 1120.6900 549.4900Q1123 545.0800 1123 538.3600L1123 538.3600L1123 535.4200L1109 537.6600Q1100.7400 538.9200 1096.6800 541.7200Q1092.6200 544.5200 1092.6200 548.5800L1092.6200 548.5800Q1092.6200 551.6600 1094.5100 553.8300Q1096.4000 556 1099.3400 557.0500Q1102.2800 558.1000 1105.5000 558.1000ZM1187.1200 571.4000L1187.1200 571.4000Q1178.7200 571.4000 1172.7700 569.4400Q1166.8200 567.4800 1163.0400 564.5400Q1159.2600 561.6000 1157.4400 558.6600Q1155.6200 555.7200 1155.4800 553.7600L1155.4800 553.7600Q1155.3400 552.2200 1156.3900 551.3100Q1157.4400 550.4000 1158.7000 550.4000L1158.7000 550.4000L1169.7600 550.4000Q1170.3200 550.4000 1170.7400 550.5400Q1171.1600 550.6800 1171.8600 551.3800L1171.8600 551.3800Q1173.6800 552.9200 1175.7100 554.6000Q1177.7400 556.2800 1180.5400 557.4700Q1183.3400 558.6600 1187.5400 558.6600L1187.5400 558.6600Q1193 558.6600 1196.7100 556.4900Q1200.4200 554.3200 1200.4200 550.2600L1200.4200 550.2600Q1200.4200 547.3200 1198.8100 545.5000Q1197.2000 543.6800 1192.8600 542.2100Q1188.5200 540.7400 1180.5400 539.0600L1180.5400 539.0600Q1172.7000 537.2400 1167.5200 534.4400Q1162.3400 531.6400 1159.8200 527.4400Q1157.3000 523.2400 1157.3000 517.6400L1157.3000 517.6400Q1157.3000 512.1800 1160.5900 507.2100Q1163.8800 502.2400 1170.3900 499.0200Q1176.9000 495.8000 1186.5600 495.8000L1186.5600 495.8000Q1194.1200 495.8000 1199.7200 497.6900Q1205.3200 499.5800 1209.0300 502.3800Q1212.7400 505.1800 1214.7000 508.0500Q1216.6600 510.9200 1216.8000 513.0200L1216.8000 513.0200Q1216.9400 514.5600 1215.9600 515.4700Q1214.9800 516.3800 1213.7200 516.3800L1213.7200 516.3800L1203.3600 516.3800Q1202.6600 516.3800 1202.1000 516.1000Q1201.5400 515.8200 1200.9800 515.4000L1200.9800 515.4000Q1199.4400 514 1197.6200 512.3900Q1195.8000 510.7800 1193.2100 509.6600Q1190.6200 508.5400 1186.4200 508.5400L1186.4200 508.5400Q1181.1000 508.5400 1178.3000 510.8500Q1175.5000 513.1600 1175.5000 516.6600L1175.5000 516.6600Q1175.5000 519.0400 1176.8300 520.7900Q1178.1600 522.5400 1182.2200 524.0800Q1186.2800 525.6200 1194.5400 527.3000L1194.5400 527.3000Q1203.9200 528.9800 1209.4500 532.2700Q1214.9800 535.5600 1217.2900 539.8300Q1219.6000 544.1000 1219.6000 549.2800L1219.6000 549.2800Q1219.6000 555.5800 1215.8900 560.6200Q1212.1800 565.6600 1204.9700 568.5300Q1197.7600 571.4000 1187.1200 571.4000ZM1265.3800 571.4000L1265.3800 571.4000Q1249.8400 571.4000 1240.7400 562.4400Q1231.6400 553.4800 1230.9400 536.9600L1230.9400 536.9600Q1230.8000 535.5600 1230.8000 533.3900Q1230.8000 531.2200 1230.9400 529.9600L1230.9400 529.9600Q1231.5000 519.3200 1235.7700 511.6900Q1240.0400 504.0600 1247.6000 499.9300Q1255.1600 495.8000 1265.3800 495.8000L1265.3800 495.8000Q1276.7200 495.8000 1284.4200 500.4900Q1292.1200 505.1800 1296.0400 513.5100Q1299.9600 521.8400 1299.9600 532.7600L1299.9600 532.7600L1299.9600 535.7000Q1299.9600 537.1000 1298.9800 538.0800Q1298 539.0600 1296.4600 539.0600L1296.4600 539.0600L1249.9800 539.0600Q1249.9800 539.0600 1249.9800 539.4800Q1249.9800 539.9000 1249.9800 540.1800L1249.9800 540.1800Q1250.1200 545.0800 1251.8700 549.2100Q1253.6200 553.3400 1257.0500 555.8600Q1260.4800 558.3800 1265.2400 558.3800L1265.2400 558.3800Q1269.1600 558.3800 1271.8200 557.1900Q1274.4800 556 1276.1600 554.4600Q1277.8400 552.9200 1278.5400 551.9400L1278.5400 551.9400Q1279.8000 550.2600 1280.5700 549.9100Q1281.3400 549.5600 1282.8800 549.5600L1282.8800 549.5600L1294.9200 549.5600Q1296.3200 549.5600 1297.2300 550.4000Q1298.1400 551.2400 1298 552.5000L1298 552.5000Q1297.8600 554.7400 1295.6900 557.9600Q1293.5200 561.1800 1289.4600 564.2600Q1285.4000 567.3400 1279.3100 569.3700Q1273.2200 571.4000 1265.3800 571.4000ZM1249.9800 526.8800L1249.9800 527.3000L1280.9200 527.3000L1280.9200 526.8800Q1280.9200 521.4200 1279.1000 517.2900Q1277.2800 513.1600 1273.7800 510.8500Q1270.2800 508.5400 1265.3800 508.5400L1265.3800 508.5400Q1260.4800 508.5400 1256.9800 510.8500Q1253.4800 513.1600 1251.7300 517.2900Q1249.9800 521.4200 1249.9800 526.8800L1249.9800 526.8800ZM1373.8800 571.4000L1373.8800 571.4000Q1366.6000 571.4000 1361.0700 568.9500Q1355.5400 566.5000 1351.9000 562.0200Q1348.2600 557.5400 1346.3000 551.4500Q1344.3400 545.3600 1344.0600 538.0800L1344.0600 538.0800Q1343.9200 535.5600 1343.9200 533.5300Q1343.9200 531.5000 1344.0600 528.9800L1344.0600 528.9800Q1344.3400 521.9800 1346.2300 515.9600Q1348.1200 509.9400 1351.8300 505.3900Q1355.5400 500.8400 1361.0700 498.3200Q1366.6000 495.8000 1373.8800 495.8000L1373.8800 495.8000Q1381.4400 495.8000 1386.6900 498.3900Q1391.9400 500.9800 1395.4400 505.0400L1395.4400 505.0400L1395.4400 473.9600Q1395.4400 472.5600 1396.3500 471.5800Q1397.2600 470.6000 1398.8000 470.6000L1398.8000 470.6000L1410.7000 470.6000Q1412.1000 470.6000 1413.0800 471.5800Q1414.0600 472.5600 1414.0600 473.9600L1414.0600 473.9600L1414.0600 566.6400Q1414.0600 568.0400 1413.0800 569.0200Q1412.1000 570 1410.7000 570L1410.7000 570L1399.6400 570Q1398.1000 570 1397.1900 569.0200Q1396.2800 568.0400 1396.2800 566.6400L1396.2800 566.6400L1396.2800 561.4600Q1392.7800 565.8000 1387.3900 568.6000Q1382 571.4000 1373.8800 571.4000ZM1379.0600 556.4200L1379.0600 556.4200Q1384.9400 556.4200 1388.4400 553.7600Q1391.9400 551.1000 1393.6200 546.9700Q1395.3000 542.8400 1395.4400 538.5000L1395.4400 538.5000Q1395.5800 535.9800 1395.5800 533.1100Q1395.5800 530.2400 1395.4400 527.7200L1395.4400 527.7200Q1395.3000 523.5200 1393.4800 519.6700Q1391.6600 515.8200 1388.1600 513.3000Q1384.6600 510.7800 1379.0600 510.7800L1379.0600 510.7800Q1373.1800 510.7800 1369.7500 513.3700Q1366.3200 515.9600 1364.7800 520.1600Q1363.2400 524.3600 1362.9600 529.4000L1362.9600 529.4000Q1362.8200 533.6000 1362.9600 537.8000L1362.9600 537.8000Q1363.2400 542.8400 1364.7800 547.0400Q1366.3200 551.2400 1369.7500 553.8300Q1373.1800 556.4200 1379.0600 556.4200ZM1464.0400 571.4000L1464.0400 571.4000Q1448.5000 571.4000 1439.4000 562.4400Q1430.3000 553.4800 1429.6000 536.9600L1429.6000 536.9600Q1429.4600 535.5600 1429.4600 533.3900Q1429.4600 531.2200 1429.6000 529.9600L1429.6000 529.9600Q1430.1600 519.3200 1434.4300 511.6900Q1438.7000 504.0600 1446.2600 499.9300Q1453.8200 495.8000 1464.0400 495.8000L1464.0400 495.8000Q1475.3800 495.8000 1483.0800 500.4900Q1490.7800 505.1800 1494.7000 513.5100Q1498.6200 521.8400 1498.6200 532.7600L1498.6200 532.7600L1498.6200 535.7000Q1498.6200 537.1000 1497.6400 538.0800Q1496.6600 539.0600 1495.1200 539.0600L1495.1200 539.0600L1448.6400 539.0600Q1448.6400 539.0600 1448.6400 539.4800Q1448.6400 539.9000 1448.6400 540.1800L1448.6400 540.1800Q1448.7800 545.0800 1450.5300 549.2100Q1452.2800 553.3400 1455.7100 555.8600Q1459.1400 558.3800 1463.9000 558.3800L1463.9000 558.3800Q1467.8200 558.3800 1470.4800 557.1900Q1473.1400 556 1474.8200 554.4600Q1476.5000 552.9200 1477.2000 551.9400L1477.2000 551.9400Q1478.4600 550.2600 1479.2300 549.9100Q1480.0000 549.5600 1481.5400 549.5600L1481.5400 549.5600L1493.5800 549.5600Q1494.9800 549.5600 1495.8900 550.4000Q1496.8000 551.2400 1496.6600 552.5000L1496.6600 552.5000Q1496.5200 554.7400 1494.3500 557.9600Q1492.1800 561.1800 1488.1200 564.2600Q1484.0600 567.3400 1477.9700 569.3700Q1471.8800 571.4000 1464.0400 571.4000ZM1448.6400 526.8800L1448.6400 527.3000L1479.5800 527.3000L1479.5800 526.8800Q1479.5800 521.4200 1477.7600 517.2900Q1475.9400 513.1600 1472.4400 510.8500Q1468.9400 508.5400 1464.0400 508.5400L1464.0400 508.5400Q1459.1400 508.5400 1455.6400 510.8500Q1452.1400 513.1600 1450.3900 517.2900Q1448.6400 521.4200 1448.6400 526.8800L1448.6400 526.8800ZM186.2600 711.4000L186.2600 711.4000Q178.9800 711.4000 173.4500 708.9500Q167.9200 706.5000 164.2800 702.0200Q160.6400 697.5400 158.6800 691.4500Q156.7200 685.3600 156.4400 678.0800L156.4400 678.0800Q156.3000 675.5600 156.3000 673.5300Q156.3000 671.5000 156.4400 668.9800L156.4400 668.9800Q156.7200 661.9800 158.6100 655.9600Q160.5000 649.9400 164.2100 645.3900Q167.9200 640.8400 173.4500 638.3200Q178.9800 635.8000 186.2600 635.8000L186.2600 635.8000Q193.8200 635.8000 199.0700 638.3900Q204.3200 640.9800 207.8200 645.0400L207.8200 645.0400L207.8200 613.9600Q207.8200 612.5600 208.7300 611.5800Q209.6400 610.6000 211.1800 610.6000L211.1800 610.6000L223.0800 610.6000Q224.4800 610.6000 225.4600 611.5800Q226.4400 612.5600 226.4400 613.9600L226.4400 613.9600L226.4400 706.6400Q226.4400 708.0400 225.4600 709.0200Q224.4800 710 223.0800 710L223.0800 710L212.0200 710Q210.4800 710 209.5700 709.0200Q208.6600 708.0400 208.6600 706.6400L208.6600 706.6400L208.6600 701.4600Q205.1600 705.8000 199.7700 708.6000Q194.3800 711.4000 186.2600 711.4000ZM191.4400 696.4200L191.4400 696.4200Q197.3200 696.4200 200.8200 693.7600Q204.3200 691.1000 206 686.9700Q207.6800 682.8400 207.8200 678.5000L207.8200 678.5000Q207.9600 675.9800 207.9600 673.1100Q207.9600 670.2400 207.8200 667.7200L207.8200 667.7200Q207.6800 663.5200 205.8600 659.6700Q204.0400 655.8200 200.5400 653.3000Q197.0400 650.7800 191.4400 650.7800L191.4400 650.7800Q185.5600 650.7800 182.1300 653.3700Q178.7000 655.9600 177.1600 660.1600Q175.6200 664.3600 175.3400 669.4000L175.3400 669.4000Q175.2000 673.6000 175.3400 677.8000L175.3400 677.8000Q175.6200 682.8400 177.1600 687.0400Q178.7000 691.2400 182.1300 693.8300Q185.5600 696.4200 191.4400 696.4200ZM266.2000 711.4000L266.2000 711.4000Q258.9200 711.4000 253.0400 708.5300Q247.1600 705.6600 243.7300 700.8300Q240.3000 696 240.3000 689.9800L240.3000 689.9800Q240.3000 680.1800 248.2800 674.3700Q256.2600 668.5600 269.1400 666.6000L269.1400 666.6000L288.3200 663.8000L288.3200 660.8600Q288.3200 654.9800 285.3800 651.7600Q282.4400 648.5400 275.3000 648.5400L275.3000 648.5400Q270.2600 648.5400 267.1100 650.5700Q263.9600 652.6000 262.4200 655.9600L262.4200 655.9600Q261.3000 657.7800 259.2000 657.7800L259.2000 657.7800L248.1400 657.7800Q246.6000 657.7800 245.8300 656.9400Q245.0600 656.1000 245.0600 654.7000L245.0600 654.7000Q245.2000 652.4600 246.9500 649.2400Q248.7000 646.0200 252.2700 643.0100Q255.8400 640 261.5800 637.9000Q267.3200 635.8000 275.4400 635.8000L275.4400 635.8000Q284.2600 635.8000 290.3500 637.9700Q296.4400 640.1400 300.0800 643.7800Q303.7200 647.4200 305.4000 652.3200Q307.0800 657.2200 307.0800 662.6800L307.0800 662.6800L307.0800 706.6400Q307.0800 708.0400 306.1000 709.0200Q305.1200 710 303.7200 710L303.7200 710L292.3800 710Q290.8400 710 289.9300 709.0200Q289.0200 708.0400 289.0200 706.6400L289.0200 706.6400L289.0200 701.1800Q287.2000 703.7000 284.1200 706.0800Q281.0400 708.4600 276.6300 709.9300Q272.2200 711.4000 266.2000 711.4000ZM270.9600 698.1000L270.9600 698.1000Q275.8600 698.1000 279.8500 696Q283.8400 693.9000 286.1500 689.4900Q288.4600 685.0800 288.4600 678.3600L288.4600 678.3600L288.4600 675.4200L274.4600 677.6600Q266.2000 678.9200 262.1400 681.7200Q258.0800 684.5200 258.0800 688.5800L258.0800 688.5800Q258.0800 691.6600 259.9700 693.8300Q261.8600 696 264.8000 697.0500Q267.7400 698.1000 270.9600 698.1000ZM352.0200 711.4000L352.0200 711.4000Q344.7400 711.4000 339.2100 708.9500Q333.6800 706.5000 330.0400 702.0200Q326.4000 697.5400 324.4400 691.4500Q322.4800 685.3600 322.2000 678.0800L322.2000 678.0800Q322.0600 675.5600 322.0600 673.5300Q322.0600 671.5000 322.2000 668.9800L322.2000 668.9800Q322.4800 661.9800 324.3700 655.9600Q326.2600 649.9400 329.9700 645.3900Q333.6800 640.8400 339.2100 638.3200Q344.7400 635.8000 352.0200 635.8000L352.0200 635.8000Q359.5800 635.8000 364.8300 638.3900Q370.0800 640.9800 373.5800 645.0400L373.5800 645.0400L373.5800 613.9600Q373.5800 612.5600 374.4900 611.5800Q375.4000 610.6000 376.9400 610.6000L376.9400 610.6000L388.8400 610.6000Q390.2400 610.6000 391.2200 611.5800Q392.2000 612.5600 392.2000 613.9600L392.2000 613.9600L392.2000 706.6400Q392.2000 708.0400 391.2200 709.0200Q390.2400 710 388.8400 710L388.8400 710L377.7800 710Q376.2400 710 375.3300 709.0200Q374.4200 708.0400 374.4200 706.6400L374.4200 706.6400L374.4200 701.4600Q370.9200 705.8000 365.5300 708.6000Q360.1400 711.4000 352.0200 711.4000ZM357.2000 696.4200L357.2000 696.4200Q363.0800 696.4200 366.5800 693.7600Q370.0800 691.1000 371.7600 686.9700Q373.4400 682.8400 373.5800 678.5000L373.5800 678.5000Q373.7200 675.9800 373.7200 673.1100Q373.7200 670.2400 373.5800 667.7200L373.5800 667.7200Q373.4400 663.5200 371.6200 659.6700Q369.8000 655.8200 366.3000 653.3000Q362.8000 650.7800 357.2000 650.7800L357.2000 650.7800Q351.3200 650.7800 347.8900 653.3700Q344.4600 655.9600 342.9200 660.1600Q341.3800 664.3600 341.1000 669.4000L341.1000 669.4000Q340.9600 673.6000 341.1000 677.8000L341.1000 677.8000Q341.3800 682.8400 342.9200 687.0400Q344.4600 691.2400 347.8900 693.8300Q351.3200 696.4200 357.2000 696.4200ZM443.0200 711.4000L443.0200 711.4000Q431.8200 711.4000 424.1900 707.4800Q416.5600 703.5600 412.5700 696.4200Q408.5800 689.2800 408.0200 679.7600L408.0200 679.7600Q407.8800 677.2400 407.8800 673.6000Q407.8800 669.9600 408.0200 667.4400L408.0200 667.4400Q408.5800 657.7800 412.7100 650.7100Q416.8400 643.6400 424.4700 639.7200Q432.1000 635.8000 443.0200 635.8000L443.0200 635.8000Q453.9400 635.8000 461.5700 639.7200Q469.2000 643.6400 473.3300 650.7100Q477.4600 657.7800 478.0200 667.4400L478.0200 667.4400Q478.1600 669.9600 478.1600 673.6000Q478.1600 677.2400 478.0200 679.7600L478.0200 679.7600Q477.4600 689.2800 473.4700 696.4200Q469.4800 703.5600 461.8500 707.4800Q454.2200 711.4000 443.0200 711.4000ZM443.0200 697.5400L443.0200 697.5400Q450.4400 697.5400 454.5000 692.8500Q458.5600 688.1600 458.9800 679.0600L458.9800 679.0600Q459.1200 676.9600 459.1200 673.6000Q459.1200 670.2400 458.9800 668.1400L458.9800 668.1400Q458.5600 659.0400 454.5000 654.3500Q450.4400 649.6600 443.0200 649.6600L443.0200 649.6600Q435.6000 649.6600 431.5400 654.3500Q427.4800 659.0400 427.0600 668.1400L427.0600 668.1400Q426.9200 670.2400 426.9200 673.6000Q426.9200 676.9600 427.0600 679.0600L427.0600 679.0600Q427.4800 688.1600 431.5400 692.8500Q435.6000 697.5400 443.0200 697.5400ZM521.2800 711.4000L521.2800 711.4000Q512.8800 711.4000 506.9300 709.4400Q500.9800 707.4800 497.2000 704.5400Q493.4200 701.6000 491.6000 698.6600Q489.7800 695.7200 489.6400 693.7600L489.6400 693.7600Q489.5000 692.2200 490.5500 691.3100Q491.6000 690.4000 492.8600 690.4000L492.8600 690.4000L503.9200 690.4000Q504.4800 690.4000 504.9000 690.5400Q505.3200 690.6800 506.0200 691.3800L506.0200 691.3800Q507.8400 692.9200 509.8700 694.6000Q511.9000 696.2800 514.7000 697.4700Q517.5000 698.6600 521.7000 698.6600L521.7000 698.6600Q527.1600 698.6600 530.8700 696.4900Q534.5800 694.3200 534.5800 690.2600L534.5800 690.2600Q534.5800 687.3200 532.9700 685.5000Q531.3600 683.6800 527.0200 682.2100Q522.6800 680.7400 514.7000 679.0600L514.7000 679.0600Q506.8600 677.2400 501.6800 674.4400Q496.5000 671.6400 493.9800 667.4400Q491.4600 663.2400 491.4600 657.6400L491.4600 657.6400Q491.4600 652.1800 494.7500 647.2100Q498.0400 642.2400 504.5500 639.0200Q511.0600 635.8000 520.7200 635.8000L520.7200 635.8000Q528.2800 635.8000 533.8800 637.6900Q539.4800 639.5800 543.1900 642.3800Q546.9000 645.1800 548.8600 648.0500Q550.8200 650.9200 550.9600 653.0200L550.9600 653.0200Q551.1000 654.5600 550.1200 655.4700Q549.1400 656.3800 547.8800 656.3800L547.8800 656.3800L537.5200 656.3800Q536.8200 656.3800 536.2600 656.1000Q535.7000 655.8200 535.1400 655.4000L535.1400 655.4000Q533.6000 654 531.7800 652.3900Q529.9600 650.7800 527.3700 649.6600Q524.7800 648.5400 520.5800 648.5400L520.5800 648.5400Q515.2600 648.5400 512.4600 650.8500Q509.6600 653.1600 509.6600 656.6600L509.6600 656.6600Q509.6600 659.0400 510.9900 660.7900Q512.3200 662.5400 516.3800 664.0800Q520.4400 665.6200 528.7000 667.3000L528.7000 667.3000Q538.0800 668.9800 543.6100 672.2700Q549.1400 675.5600 551.4500 679.8300Q553.7600 684.1000 553.7600 689.2800L553.7600 689.2800Q553.7600 695.5800 550.0500 700.6200Q546.3400 705.6600 539.1300 708.5300Q531.9200 711.4000 521.2800 711.4000ZM627.2600 711.4000L627.2600 711.4000Q618.7200 711.4000 612.4900 707.5500Q606.2600 703.7000 602.9000 696.6300Q599.5400 689.5600 599.5400 679.9000L599.5400 679.9000L599.5400 640.5600Q599.5400 639.1600 600.5200 638.1800Q601.5000 637.2000 602.9000 637.2000L602.9000 637.2000L615.2200 637.2000Q616.7600 637.2000 617.6700 638.1800Q618.5800 639.1600 618.5800 640.5600L618.5800 640.5600L618.5800 679.0600Q618.5800 696.4200 633.8400 696.4200L633.8400 696.4200Q641.1200 696.4200 645.3900 691.8000Q649.6600 687.1800 649.6600 679.0600L649.6600 679.0600L649.6600 640.5600Q649.6600 639.1600 650.6400 638.1800Q651.6200 637.2000 653.0200 637.2000L653.0200 637.2000L665.3400 637.2000Q666.7400 637.2000 667.7200 638.1800Q668.7000 639.1600 668.7000 640.5600L668.7000 640.5600L668.7000 706.6400Q668.7000 708.0400 667.7200 709.0200Q666.7400 710 665.3400 710L665.3400 710L654 710Q652.4600 710 651.5500 709.0200Q650.6400 708.0400 650.6400 706.6400L650.6400 706.6400L650.6400 700.9000Q646.8600 705.8000 641.2600 708.6000Q635.6600 711.4000 627.2600 711.4000ZM731.4200 710L720.0800 710Q711.6800 710 705.9400 707.0600Q700.2000 704.1200 697.4000 698.3100Q694.6000 692.5000 694.6000 683.8200L694.6000 683.8200L694.6000 652.0400L683.5400 652.0400Q682.1400 652.0400 681.1600 651.0600Q680.1800 650.0800 680.1800 648.5400L680.1800 648.5400L680.1800 640.5600Q680.1800 639.1600 681.1600 638.1800Q682.1400 637.2000 683.5400 637.2000L683.5400 637.2000L694.6000 637.2000L694.6000 613.9600Q694.6000 612.5600 695.5100 611.5800Q696.4200 610.6000 697.9600 610.6000L697.9600 610.6000L709.3000 610.6000Q710.7000 610.6000 711.6800 611.5800Q712.6600 612.5600 712.6600 613.9600L712.6600 613.9600L712.6600 637.2000L730.1600 637.2000Q731.5600 637.2000 732.5400 638.1800Q733.5200 639.1600 733.5200 640.5600L733.5200 640.5600L733.5200 648.5400Q733.5200 650.0800 732.5400 651.0600Q731.5600 652.0400 730.1600 652.0400L730.1600 652.0400L712.6600 652.0400L712.6600 682.4200Q712.6600 688.1600 714.6900 691.3800Q716.7200 694.6000 721.7600 694.6000L721.7600 694.6000L731.4200 694.6000Q732.8200 694.6000 733.8000 695.5800Q734.7800 696.5600 734.7800 697.9600L734.7800 697.9600L734.7800 706.6400Q734.7800 708.0400 733.8000 709.0200Q732.8200 710 731.4200 710L731.4200 710ZM762.2200 710L750.6000 710Q749.2000 710 748.2200 709.0200Q747.2400 708.0400 747.2400 706.6400L747.2400 706.6400L747.2400 640.5600Q747.2400 639.1600 748.2200 638.1800Q749.2000 637.2000 750.6000 637.2000L750.6000 637.2000L762.2200 637.2000Q763.7600 637.2000 764.6700 638.1800Q765.5800 639.1600 765.5800 640.5600L765.5800 640.5600L765.5800 706.6400Q765.5800 708.0400 764.6700 709.0200Q763.7600 710 762.2200 710L762.2200 710ZM762.7800 625.1600L750.0400 625.1600Q748.6400 625.1600 747.6600 624.1800Q746.6800 623.2000 746.6800 621.8000L746.6800 621.8000L746.6800 611.7200Q746.6800 610.3200 747.6600 609.3400Q748.6400 608.3600 750.0400 608.3600L750.0400 608.3600L762.7800 608.3600Q764.3200 608.3600 765.3000 609.3400Q766.2800 610.3200 766.2800 611.7200L766.2800 611.7200L766.2800 621.8000Q766.2800 623.2000 765.3000 624.1800Q764.3200 625.1600 762.7800 625.1600L762.7800 625.1600ZM799.3200 710L787.7000 710Q786.3000 710 785.3200 709.0200Q784.3400 708.0400 784.3400 706.6400L784.3400 706.6400L784.3400 613.9600Q784.3400 612.5600 785.3200 611.5800Q786.3000 610.6000 787.7000 610.6000L787.7000 610.6000L799.3200 610.6000Q800.7200 610.6000 801.7000 611.5800Q802.6800 612.5600 802.6800 613.9600L802.6800 613.9600L802.6800 706.6400Q802.6800 708.0400 801.7000 709.0200Q800.7200 710 799.3200 710L799.3200 710ZM836.2800 710L824.6600 710Q823.2600 710 822.2800 709.0200Q821.3000 708.0400 821.3000 706.6400L821.3000 706.6400L821.3000 640.5600Q821.3000 639.1600 822.2800 638.1800Q823.2600 637.2000 824.6600 637.2000L824.6600 637.2000L836.2800 637.2000Q837.8200 637.2000 838.7300 638.1800Q839.6400 639.1600 839.6400 640.5600L839.6400 640.5600L839.6400 706.6400Q839.6400 708.0400 838.7300 709.0200Q837.8200 710 836.2800 710L836.2800 710ZM836.8400 625.1600L824.1000 625.1600Q822.7000 625.1600 821.7200 624.1800Q820.7400 623.2000 820.7400 621.8000L820.7400 621.8000L820.7400 611.7200Q820.7400 610.3200 821.7200 609.3400Q822.7000 608.3600 824.1000 608.3600L824.1000 608.3600L836.8400 608.3600Q838.3800 608.3600 839.3600 609.3400Q840.3400 610.3200 840.3400 611.7200L840.3400 611.7200L840.3400 621.8000Q840.3400 623.2000 839.3600 624.1800Q838.3800 625.1600 836.8400 625.1600L836.8400 625.1600ZM915.1000 710L857.9800 710Q856.4400 710 855.5300 709.0200Q854.6200 708.0400 854.6200 706.6400L854.6200 706.6400L854.6200 698.6600Q854.6200 697.4000 855.2500 696.2100Q855.8800 695.0200 856.5800 694.1800L856.5800 694.1800L892.4200 651.7600L859.1000 651.7600Q857.7000 651.7600 856.7200 650.8500Q855.7400 649.9400 855.7400 648.4000L855.7400 648.4000L855.7400 640.5600Q855.7400 639.1600 856.7200 638.1800Q857.7000 637.2000 859.1000 637.2000L859.1000 637.2000L912.1600 637.2000Q913.7000 637.2000 914.6100 638.1800Q915.5200 639.1600 915.5200 640.5600L915.5200 640.5600L915.5200 649.1000Q915.5200 650.3600 914.9600 651.3400Q914.4000 652.3200 913.5600 653.3000L913.5600 653.3000L878.5600 695.4400L915.1000 695.4400Q916.5000 695.4400 917.4800 696.3500Q918.4600 697.2600 918.4600 698.8000L918.4600 698.8000L918.4600 706.6400Q918.4600 708.0400 917.4800 709.0200Q916.5000 710 915.1000 710L915.1000 710ZM953.7400 711.4000L953.7400 711.4000Q946.4600 711.4000 940.5800 708.5300Q934.7000 705.6600 931.2700 700.8300Q927.8400 696 927.8400 689.9800L927.8400 689.9800Q927.8400 680.1800 935.8200 674.3700Q943.8000 668.5600 956.6800 666.6000L956.6800 666.6000L975.8600 663.8000L975.8600 660.8600Q975.8600 654.9800 972.9200 651.7600Q969.9800 648.5400 962.8400 648.5400L962.8400 648.5400Q957.8000 648.5400 954.6500 650.5700Q951.5000 652.6000 949.9600 655.9600L949.9600 655.9600Q948.8400 657.7800 946.7400 657.7800L946.7400 657.7800L935.6800 657.7800Q934.1400 657.7800 933.3700 656.9400Q932.6000 656.1000 932.6000 654.7000L932.6000 654.7000Q932.7400 652.4600 934.4900 649.2400Q936.2400 646.0200 939.8100 643.0100Q943.3800 640 949.1200 637.9000Q954.8600 635.8000 962.9800 635.8000L962.9800 635.8000Q971.8000 635.8000 977.8900 637.9700Q983.9800 640.1400 987.6200 643.7800Q991.2600 647.4200 992.9400 652.3200Q994.6200 657.2200 994.6200 662.6800L994.6200 662.6800L994.6200 706.6400Q994.6200 708.0400 993.6400 709.0200Q992.6600 710 991.2600 710L991.2600 710L979.9200 710Q978.3800 710 977.4700 709.0200Q976.5600 708.0400 976.5600 706.6400L976.5600 706.6400L976.5600 701.1800Q974.7400 703.7000 971.6600 706.0800Q968.5800 708.4600 964.1700 709.9300Q959.7600 711.4000 953.7400 711.4000ZM958.5000 698.1000L958.5000 698.1000Q963.4000 698.1000 967.3900 696Q971.3800 693.9000 973.6900 689.4900Q976.0000 685.0800 976.0000 678.3600L976.0000 678.3600L976.0000 675.4200L962.0000 677.6600Q953.7400 678.9200 949.6800 681.7200Q945.6200 684.5200 945.6200 688.5800L945.6200 688.5800Q945.6200 691.6600 947.5100 693.8300Q949.4000 696 952.3400 697.0500Q955.2800 698.1000 958.5000 698.1000ZM1028.2200 710L1015.9000 710Q1014.5000 710 1013.5200 709.0200Q1012.5400 708.0400 1012.5400 706.6400L1012.5400 706.6400L1012.5400 640.5600Q1012.5400 639.1600 1013.5200 638.1800Q1014.5000 637.2000 1015.9000 637.2000L1015.9000 637.2000L1027.3800 637.2000Q1028.7800 637.2000 1029.7600 638.1800Q1030.7400 639.1600 1030.7400 640.5600L1030.7400 640.5600L1030.7400 646.3000Q1034.3800 641.8200 1040.0500 638.8100Q1045.7200 635.8000 1054.1200 635.8000L1054.1200 635.8000Q1062.6600 635.8000 1068.9600 639.6500Q1075.2600 643.5000 1078.6900 650.5000Q1082.1200 657.5000 1082.1200 667.3000L1082.1200 667.3000L1082.1200 706.6400Q1082.1200 708.0400 1081.1400 709.0200Q1080.1600 710 1078.7600 710L1078.7600 710L1066.4400 710Q1065.0400 710 1064.0600 709.0200Q1063.0800 708.0400 1063.0800 706.6400L1063.0800 706.6400L1063.0800 668.1400Q1063.0800 660.0200 1059.0900 655.4000Q1055.1000 650.7800 1047.5400 650.7800L1047.5400 650.7800Q1040.2600 650.7800 1035.9200 655.4000Q1031.5800 660.0200 1031.5800 668.1400L1031.5800 668.1400L1031.5800 706.6400Q1031.5800 708.0400 1030.6000 709.0200Q1029.6200 710 1028.2200 710L1028.2200 710ZM1126.9200 711.4000L1126.9200 711.4000Q1119.6400 711.4000 1114.1100 708.9500Q1108.5800 706.5000 1104.9400 702.0200Q1101.3000 697.5400 1099.3400 691.4500Q1097.3800 685.3600 1097.1000 678.0800L1097.1000 678.0800Q1096.9600 675.5600 1096.9600 673.5300Q1096.9600 671.5000 1097.1000 668.9800L1097.1000 668.9800Q1097.3800 661.9800 1099.2700 655.9600Q1101.1600 649.9400 1104.8700 645.3900Q1108.5800 640.8400 1114.1100 638.3200Q1119.6400 635.8000 1126.9200 635.8000L1126.9200 635.8000Q1134.4800 635.8000 1139.7300 638.3900Q1144.9800 640.9800 1148.4800 645.0400L1148.4800 645.0400L1148.4800 613.9600Q1148.4800 612.5600 1149.3900 611.5800Q1150.3000 610.6000 1151.8400 610.6000L1151.8400 610.6000L1163.7400 610.6000Q1165.1400 610.6000 1166.1200 611.5800Q1167.1000 612.5600 1167.1000 613.9600L1167.1000 613.9600L1167.1000 706.6400Q1167.1000 708.0400 1166.1200 709.0200Q1165.1400 710 1163.7400 710L1163.7400 710L1152.6800 710Q1151.1400 710 1150.2300 709.0200Q1149.3200 708.0400 1149.3200 706.6400L1149.3200 706.6400L1149.3200 701.4600Q1145.8200 705.8000 1140.4300 708.6000Q1135.0400 711.4000 1126.9200 711.4000ZM1132.1000 696.4200L1132.1000 696.4200Q1137.9800 696.4200 1141.4800 693.7600Q1144.9800 691.1000 1146.6600 686.9700Q1148.3400 682.8400 1148.4800 678.5000L1148.4800 678.5000Q1148.6200 675.9800 1148.6200 673.1100Q1148.6200 670.2400 1148.4800 667.7200L1148.4800 667.7200Q1148.3400 663.5200 1146.5200 659.6700Q1144.7000 655.8200 1141.2000 653.3000Q1137.7000 650.7800 1132.1000 650.7800L1132.1000 650.7800Q1126.2200 650.7800 1122.7900 653.3700Q1119.3600 655.9600 1117.8200 660.1600Q1116.2800 664.3600 1116.0000 669.4000L1116.0000 669.4000Q1115.8600 673.6000 1116.0000 677.8000L1116.0000 677.8000Q1116.2800 682.8400 1117.8200 687.0400Q1119.3600 691.2400 1122.7900 693.8300Q1126.2200 696.4200 1132.1000 696.4200ZM1217.9200 711.4000L1217.9200 711.4000Q1206.7200 711.4000 1199.0900 707.4800Q1191.4600 703.5600 1187.4700 696.4200Q1183.4800 689.2800 1182.9200 679.7600L1182.9200 679.7600Q1182.7800 677.2400 1182.7800 673.6000Q1182.7800 669.9600 1182.9200 667.4400L1182.9200 667.4400Q1183.4800 657.7800 1187.6100 650.7100Q1191.7400 643.6400 1199.3700 639.7200Q1207.0000 635.8000 1217.9200 635.8000L1217.9200 635.8000Q1228.8400 635.8000 1236.4700 639.7200Q1244.1000 643.6400 1248.2300 650.7100Q1252.3600 657.7800 1252.9200 667.4400L1252.9200 667.4400Q1253.0600 669.9600 1253.0600 673.6000Q1253.0600 677.2400 1252.9200 679.7600L1252.9200 679.7600Q1252.3600 689.2800 1248.3700 696.4200Q1244.3800 703.5600 1236.7500 707.4800Q1229.1200 711.4000 1217.9200 711.4000ZM1217.9200 697.5400L1217.9200 697.5400Q1225.3400 697.5400 1229.4000 692.8500Q1233.4600 688.1600 1233.8800 679.0600L1233.8800 679.0600Q1234.0200 676.9600 1234.0200 673.6000Q1234.0200 670.2400 1233.8800 668.1400L1233.8800 668.1400Q1233.4600 659.0400 1229.4000 654.3500Q1225.3400 649.6600 1217.9200 649.6600L1217.9200 649.6600Q1210.5000 649.6600 1206.4400 654.3500Q1202.3800 659.0400 1201.9600 668.1400L1201.9600 668.1400Q1201.8200 670.2400 1201.8200 673.6000Q1201.8200 676.9600 1201.9600 679.0600L1201.9600 679.0600Q1202.3800 688.1600 1206.4400 692.8500Q1210.5000 697.5400 1217.9200 697.5400ZM1321.8000 711.4000L1321.8000 711.4000Q1314.5200 711.4000 1308.6400 708.5300Q1302.7600 705.6600 1299.3300 700.8300Q1295.9000 696 1295.9000 689.9800L1295.9000 689.9800Q1295.9000 680.1800 1303.8800 674.3700Q1311.8600 668.5600 1324.7400 666.6000L1324.7400 666.6000L1343.9200 663.8000L1343.9200 660.8600Q1343.9200 654.9800 1340.9800 651.7600Q1338.0400 648.5400 1330.9000 648.5400L1330.9000 648.5400Q1325.8600 648.5400 1322.7100 650.5700Q1319.5600 652.6000 1318.0200 655.9600L1318.0200 655.9600Q1316.9000 657.7800 1314.8000 657.7800L1314.8000 657.7800L1303.7400 657.7800Q1302.2000 657.7800 1301.4300 656.9400Q1300.6600 656.1000 1300.6600 654.7000L1300.6600 654.7000Q1300.8000 652.4600 1302.5500 649.2400Q1304.3000 646.0200 1307.8700 643.0100Q1311.4400 640 1317.1800 637.9000Q1322.9200 635.8000 1331.0400 635.8000L1331.0400 635.8000Q1339.8600 635.8000 1345.9500 637.9700Q1352.0400 640.1400 1355.6800 643.7800Q1359.3200 647.4200 1361.0000 652.3200Q1362.6800 657.2200 1362.6800 662.6800L1362.6800 662.6800L1362.6800 706.6400Q1362.6800 708.0400 1361.7000 709.0200Q1360.7200 710 1359.3200 710L1359.3200 710L1347.9800 710Q1346.4400 710 1345.5300 709.0200Q1344.6200 708.0400 1344.6200 706.6400L1344.6200 706.6400L1344.6200 701.1800Q1342.8000 703.7000 1339.7200 706.0800Q1336.6400 708.4600 1332.2300 709.9300Q1327.8200 711.4000 1321.8000 711.4000ZM1326.5600 698.1000L1326.5600 698.1000Q1331.4600 698.1000 1335.4500 696Q1339.4400 693.9000 1341.7500 689.4900Q1344.0600 685.0800 1344.0600 678.3600L1344.0600 678.3600L1344.0600 675.4200L1330.0600 677.6600Q1321.8000 678.9200 1317.7400 681.7200Q1313.6800 684.5200 1313.6800 688.5800L1313.6800 688.5800Q1313.6800 691.6600 1315.5700 693.8300Q1317.4600 696 1320.4000 697.0500Q1323.3400 698.1000 1326.5600 698.1000ZM174.3600 850L162.7400 850Q161.3400 850 160.3600 849.0200Q159.3800 848.0400 159.3800 846.6400L159.3800 846.6400L159.3800 753.9600Q159.3800 752.5600 160.3600 751.5800Q161.3400 750.6000 162.7400 750.6000L162.7400 750.6000L174.3600 750.6000Q175.7600 750.6000 176.7400 751.5800Q177.7200 752.5600 177.7200 753.9600L177.7200 753.9600L177.7200 846.6400Q177.7200 848.0400 176.7400 849.0200Q175.7600 850 174.3600 850L174.3600 850ZM211.3200 850L199.7000 850Q198.3000 850 197.3200 849.0200Q196.3400 848.0400 196.3400 846.6400L196.3400 846.6400L196.3400 780.5600Q196.3400 779.1600 197.3200 778.1800Q198.3000 777.2000 199.7000 777.2000L199.7000 777.2000L211.3200 777.2000Q212.8600 777.2000 213.7700 778.1800Q214.6800 779.1600 214.6800 780.5600L214.6800 780.5600L214.6800 846.6400Q214.6800 848.0400 213.7700 849.0200Q212.8600 850 211.3200 850L211.3200 850ZM211.8800 765.1600L199.1400 765.1600Q197.7400 765.1600 196.7600 764.1800Q195.7800 763.2000 195.7800 761.8000L195.7800 761.8000L195.7800 751.7200Q195.7800 750.3200 196.7600 749.3400Q197.7400 748.3600 199.1400 748.3600L199.1400 748.3600L211.8800 748.3600Q213.4200 748.3600 214.4000 749.3400Q215.3800 750.3200 215.3800 751.7200L215.3800 751.7200L215.3800 761.8000Q215.3800 763.2000 214.4000 764.1800Q213.4200 765.1600 211.8800 765.1600L211.8800 765.1600ZM248.9800 850L236.6600 850Q235.2600 850 234.2800 849.0200Q233.3000 848.0400 233.3000 846.6400L233.3000 846.6400L233.3000 780.5600Q233.3000 779.1600 234.2800 778.1800Q235.2600 777.2000 236.6600 777.2000L236.6600 777.2000L248.1400 777.2000Q249.5400 777.2000 250.5200 778.1800Q251.5000 779.1600 251.5000 780.5600L251.5000 780.5600L251.5000 786.3000Q255.1400 781.8200 260.8100 778.8100Q266.4800 775.8000 274.8800 775.8000L274.8800 775.8000Q283.4200 775.8000 289.7200 779.6500Q296.0200 783.5000 299.4500 790.5000Q302.8800 797.5000 302.8800 807.3000L302.8800 807.3000L302.8800 846.6400Q302.8800 848.0400 301.9000 849.0200Q300.9200 850 299.5200 850L299.5200 850L287.2000 850Q285.8000 850 284.8200 849.0200Q283.8400 848.0400 283.8400 846.6400L283.8400 846.6400L283.8400 808.1400Q283.8400 800.0200 279.8500 795.4000Q275.8600 790.7800 268.3000 790.7800L268.3000 790.7800Q261.0200 790.7800 256.6800 795.4000Q252.3400 800.0200 252.3400 808.1400L252.3400 808.1400L252.3400 846.6400Q252.3400 848.0400 251.3600 849.0200Q250.3800 850 248.9800 850L248.9800 850ZM336.6200 850L324.1600 850Q322.7600 850 321.7800 849.0200Q320.8000 848.0400 320.8000 846.6400L320.8000 846.6400L320.8000 753.9600Q320.8000 752.5600 321.7800 751.5800Q322.7600 750.6000 324.1600 750.6000L324.1600 750.6000L336.6200 750.6000Q338.1600 750.6000 339.0700 751.5800Q339.9800 752.5600 339.9800 753.9600L339.9800 753.9600L339.9800 785.8800Q343.7600 781.4000 349.2200 778.6000Q354.6800 775.8000 362.6600 775.8000L362.6600 775.8000Q371.2000 775.8000 377.5700 779.6500Q383.9400 783.5000 387.4400 790.5000Q390.9400 797.5000 390.9400 807.3000L390.9400 807.3000L390.9400 846.6400Q390.9400 848.0400 389.9600 849.0200Q388.9800 850 387.5800 850L387.5800 850L374.9800 850Q373.5800 850 372.6000 849.0200Q371.6200 848.0400 371.6200 846.6400L371.6200 846.6400L371.6200 808.1400Q371.6200 800.0200 367.6300 795.4000Q363.6400 790.7800 356.0800 790.7800L356.0800 790.7800Q348.8000 790.7800 344.3900 795.4000Q339.9800 800.0200 339.9800 808.1400L339.9800 808.1400L339.9800 846.6400Q339.9800 848.0400 339.0700 849.0200Q338.1600 850 336.6200 850L336.6200 850ZM429.8600 851.4000L429.8600 851.4000Q422.5800 851.4000 416.7000 848.5300Q410.8200 845.6600 407.3900 840.8300Q403.9600 836 403.9600 829.9800L403.9600 829.9800Q403.9600 820.1800 411.9400 814.3700Q419.9200 808.5600 432.8000 806.6000L432.8000 806.6000L451.9800 803.8000L451.9800 800.8600Q451.9800 794.9800 449.0400 791.7600Q446.1000 788.5400 438.9600 788.5400L438.9600 788.5400Q433.9200 788.5400 430.7700 790.5700Q427.6200 792.6000 426.0800 795.9600L426.0800 795.9600Q424.9600 797.7800 422.8600 797.7800L422.8600 797.7800L411.8000 797.7800Q410.2600 797.7800 409.4900 796.9400Q408.7200 796.1000 408.7200 794.7000L408.7200 794.7000Q408.8600 792.4600 410.6100 789.2400Q412.3600 786.0200 415.9300 783.0100Q419.5000 780 425.2400 777.9000Q430.9800 775.8000 439.1000 775.8000L439.1000 775.8000Q447.9200 775.8000 454.0100 777.9700Q460.1000 780.1400 463.7400 783.7800Q467.3800 787.4200 469.0600 792.3200Q470.7400 797.2200 470.7400 802.6800L470.7400 802.6800L470.7400 846.6400Q470.7400 848.0400 469.7600 849.0200Q468.7800 850 467.3800 850L467.3800 850L456.0400 850Q454.5000 850 453.5900 849.0200Q452.6800 848.0400 452.6800 846.6400L452.6800 846.6400L452.6800 841.1800Q450.8600 843.7000 447.7800 846.0800Q444.7000 848.4600 440.2900 849.9300Q435.8800 851.4000 429.8600 851.4000ZM434.6200 838.1000L434.6200 838.1000Q439.5200 838.1000 443.5100 836Q447.5000 833.9000 449.8100 829.4900Q452.1200 825.0800 452.1200 818.3600L452.1200 818.3600L452.1200 815.4200L438.1200 817.6600Q429.8600 818.9200 425.8000 821.7200Q421.7400 824.5200 421.7400 828.5800L421.7400 828.5800Q421.7400 831.6600 423.6300 833.8300Q425.5200 836 428.4600 837.0500Q431.4000 838.1000 434.6200 838.1000ZM547.7400 851.4000L547.7400 851.4000Q540.4600 851.4000 534.9300 848.9500Q529.4000 846.5000 525.7600 842.0200Q522.1200 837.5400 520.1600 831.4500Q518.2000 825.3600 517.9200 818.0800L517.9200 818.0800Q517.7800 815.5600 517.7800 813.5300Q517.7800 811.5000 517.9200 808.9800L517.9200 808.9800Q518.2000 801.9800 520.0900 795.9600Q521.9800 789.9400 525.6900 785.3900Q529.4000 780.8400 534.9300 778.3200Q540.4600 775.8000 547.7400 775.8000L547.7400 775.8000Q555.3000 775.8000 560.5500 778.3900Q565.8000 780.9800 569.3000 785.0400L569.3000 785.0400L569.3000 753.9600Q569.3000 752.5600 570.2100 751.5800Q571.1200 750.6000 572.6600 750.6000L572.6600 750.6000L584.5600 750.6000Q585.9600 750.6000 586.9400 751.5800Q587.9200 752.5600 587.9200 753.9600L587.9200 753.9600L587.9200 846.6400Q587.9200 848.0400 586.9400 849.0200Q585.9600 850 584.5600 850L584.5600 850L573.5000 850Q571.9600 850 571.0500 849.0200Q570.1400 848.0400 570.1400 846.6400L570.1400 846.6400L570.1400 841.4600Q566.6400 845.8000 561.2500 848.6000Q555.8600 851.4000 547.7400 851.4000ZM552.9200 836.4200L552.9200 836.4200Q558.8000 836.4200 562.3000 833.7600Q565.8000 831.1000 567.4800 826.9700Q569.1600 822.8400 569.3000 818.5000L569.3000 818.5000Q569.4400 815.9800 569.4400 813.1100Q569.4400 810.2400 569.3000 807.7200L569.3000 807.7200Q569.1600 803.5200 567.3400 799.6700Q565.5200 795.8200 562.0200 793.3000Q558.5200 790.7800 552.9200 790.7800L552.9200 790.7800Q547.0400 790.7800 543.6100 793.3700Q540.1800 795.9600 538.6400 800.1600Q537.1000 804.3600 536.8200 809.4000L536.8200 809.4000Q536.6800 813.6000 536.8200 817.8000L536.8200 817.8000Q537.1000 822.8400 538.6400 827.0400Q540.1800 831.2400 543.6100 833.8300Q547.0400 836.4200 552.9200 836.4200ZM637.9000 851.4000L637.9000 851.4000Q622.3600 851.4000 613.2600 842.4400Q604.1600 833.4800 603.4600 816.9600L603.4600 816.9600Q603.3200 815.5600 603.3200 813.3900Q603.3200 811.2200 603.4600 809.9600L603.4600 809.9600Q604.0200 799.3200 608.2900 791.6900Q612.5600 784.0600 620.1200 779.9300Q627.6800 775.8000 637.9000 775.8000L637.9000 775.8000Q649.2400 775.8000 656.9400 780.4900Q664.6400 785.1800 668.5600 793.5100Q672.4800 801.8400 672.4800 812.7600L672.4800 812.7600L672.4800 815.7000Q672.4800 817.1000 671.5000 818.0800Q670.5200 819.0600 668.9800 819.0600L668.9800 819.0600L622.5000 819.0600Q622.5000 819.0600 622.5000 819.4800Q622.5000 819.9000 622.5000 820.1800L622.5000 820.1800Q622.6400 825.0800 624.3900 829.2100Q626.1400 833.3400 629.5700 835.8600Q633.0000 838.3800 637.7600 838.3800L637.7600 838.3800Q641.6800 838.3800 644.3400 837.1900Q647.0000 836 648.6800 834.4600Q650.3600 832.9200 651.0600 831.9400L651.0600 831.9400Q652.3200 830.2600 653.0900 829.9100Q653.8600 829.5600 655.4000 829.5600L655.4000 829.5600L667.4400 829.5600Q668.8400 829.5600 669.7500 830.4000Q670.6600 831.2400 670.5200 832.5000L670.5200 832.5000Q670.3800 834.7400 668.2100 837.9600Q666.0400 841.1800 661.9800 844.2600Q657.9200 847.3400 651.8300 849.3700Q645.7400 851.4000 637.9000 851.4000ZM622.5000 806.8800L622.5000 807.3000L653.4400 807.3000L653.4400 806.8800Q653.4400 801.4200 651.6200 797.2900Q649.8000 793.1600 646.3000 790.8500Q642.8000 788.5400 637.9000 788.5400L637.9000 788.5400Q633.0000 788.5400 629.5000 790.8500Q626.0000 793.1600 624.2500 797.2900Q622.5000 801.4200 622.5000 806.8800L622.5000 806.8800ZM750.8800 851.4000L750.8800 851.4000Q740.8000 851.4000 733.1700 847.6200Q725.5400 843.8400 721.2700 836.6300Q717.0000 829.4200 716.5800 819.2000L716.5800 819.2000Q716.4400 817.1000 716.4400 813.6700Q716.4400 810.2400 716.5800 808L716.5800 808Q717.0000 797.7800 721.2700 790.5700Q725.5400 783.3600 733.1700 779.5800Q740.8000 775.8000 750.8800 775.8000L750.8800 775.8000Q759.8400 775.8000 766.1400 778.2500Q772.4400 780.7000 776.5000 784.5500Q780.5600 788.4000 782.5900 792.5300Q784.6200 796.6600 784.7600 800.0200L784.7600 800.0200Q784.9000 801.5600 783.8500 802.4700Q782.8000 803.3800 781.4000 803.3800L781.4000 803.3800L769.0800 803.3800Q767.6800 803.3800 766.9100 802.6800Q766.1400 801.9800 765.4400 800.5800L765.4400 800.5800Q763.3400 794.9800 759.9100 792.6700Q756.4800 790.3600 751.1600 790.3600L751.1600 790.3600Q744.1600 790.3600 740.0300 794.7700Q735.9000 799.1800 735.6200 808.7000L735.6200 808.7000Q735.3400 814.0200 735.6200 818.5000L735.6200 818.5000Q735.9000 828.1600 740.0300 832.5000Q744.1600 836.8400 751.1600 836.8400L751.1600 836.8400Q756.6200 836.8400 759.9800 834.5300Q763.3400 832.2200 765.4400 826.6200L765.4400 826.6200Q766.1400 825.2200 766.9100 824.5200Q767.6800 823.8200 769.0800 823.8200L769.0800 823.8200L781.4000 823.8200Q782.8000 823.8200 783.8500 824.7300Q784.9000 825.6400 784.7600 827.1800L784.7600 827.1800Q784.6200 829.7000 783.4300 832.8500Q782.2400 836 779.6500 839.2900Q777.0600 842.5800 773.1400 845.3100Q769.2200 848.0400 763.6900 849.7200Q758.1600 851.4000 750.8800 851.4000ZM831.5200 851.4000L831.5200 851.4000Q820.3200 851.4000 812.6900 847.4800Q805.0600 843.5600 801.0700 836.4200Q797.0800 829.2800 796.5200 819.7600L796.5200 819.7600Q796.3800 817.2400 796.3800 813.6000Q796.3800 809.9600 796.5200 807.4400L796.5200 807.4400Q797.0800 797.7800 801.2100 790.7100Q805.3400 783.6400 812.9700 779.7200Q820.6000 775.8000 831.5200 775.8000L831.5200 775.8000Q842.4400 775.8000 850.0700 779.7200Q857.7000 783.6400 861.8300 790.7100Q865.9600 797.7800 866.5200 807.4400L866.5200 807.4400Q866.6600 809.9600 866.6600 813.6000Q866.6600 817.2400 866.5200 819.7600L866.5200 819.7600Q865.9600 829.2800 861.9700 836.4200Q857.9800 843.5600 850.3500 847.4800Q842.7200 851.4000 831.5200 851.4000ZM831.5200 837.5400L831.5200 837.5400Q838.9400 837.5400 843.0000 832.8500Q847.0600 828.1600 847.4800 819.0600L847.4800 819.0600Q847.6200 816.9600 847.6200 813.6000Q847.6200 810.2400 847.4800 808.1400L847.4800 808.1400Q847.0600 799.0400 843.0000 794.3500Q838.9400 789.6600 831.5200 789.6600L831.5200 789.6600Q824.1000 789.6600 820.0400 794.3500Q815.9800 799.0400 815.5600 808.1400L815.5600 808.1400Q815.4200 810.2400 815.4200 813.6000Q815.4200 816.9600 815.5600 819.0600L815.5600 819.0600Q815.9800 828.1600 820.0400 832.8500Q824.1000 837.5400 831.5200 837.5400ZM897.3200 850L885.5600 850Q884.1600 850 883.1800 849.0200Q882.2000 848.0400 882.2000 846.6400L882.2000 846.6400L882.2000 780.5600Q882.2000 779.1600 883.1800 778.1800Q884.1600 777.2000 885.5600 777.2000L885.5600 777.2000L896.4800 777.2000Q897.8800 777.2000 898.8600 778.1800Q899.8400 779.1600 899.8400 780.5600L899.8400 780.5600L899.8400 785.3200Q902.7800 781.4000 907.7500 778.6700Q912.7200 775.9400 919.5800 775.8000L919.5800 775.8000Q935.5400 775.5200 941.8400 788.2600L941.8400 788.2600Q945.0600 782.6600 951.1500 779.2300Q957.2400 775.8000 964.6600 775.8000L964.6600 775.8000Q971.9400 775.8000 977.8900 779.1600Q983.8400 782.5200 987.2700 789.3100Q990.7000 796.1000 990.7000 806.4600L990.7000 806.4600L990.7000 846.6400Q990.7000 848.0400 989.7200 849.0200Q988.7400 850 987.3400 850L987.3400 850L975.8600 850Q974.4600 850 973.4800 849.0200Q972.5000 848.0400 972.5000 846.6400L972.5000 846.6400L972.5000 807.5800Q972.5000 801.2800 970.6800 797.5700Q968.8600 793.8600 965.7800 792.3200Q962.7000 790.7800 958.9200 790.7800L958.9200 790.7800Q955.8400 790.7800 952.7600 792.3200Q949.6800 793.8600 947.7200 797.5700Q945.7600 801.2800 945.7600 807.5800L945.7600 807.5800L945.7600 846.6400Q945.7600 848.0400 944.7800 849.0200Q943.8000 850 942.4000 850L942.4000 850L930.9200 850Q929.5200 850 928.5400 849.0200Q927.5600 848.0400 927.5600 846.6400L927.5600 846.6400L927.5600 807.5800Q927.5600 801.2800 925.6000 797.5700Q923.6400 793.8600 920.5600 792.3200Q917.4800 790.7800 913.9800 790.7800L913.9800 790.7800Q910.7600 790.7800 907.6800 792.3900Q904.6000 794 902.6400 797.6400Q900.6800 801.2800 900.6800 807.5800L900.6800 807.5800L900.6800 846.6400Q900.6800 848.0400 899.7000 849.0200Q898.7200 850 897.3200 850L897.3200 850ZM1029.6200 851.4000L1029.6200 851.4000Q1022.3400 851.4000 1016.4600 848.5300Q1010.5800 845.6600 1007.1500 840.8300Q1003.7200 836 1003.7200 829.9800L1003.7200 829.9800Q1003.7200 820.1800 1011.7000 814.3700Q1019.6800 808.5600 1032.5600 806.6000L1032.5600 806.6000L1051.7400 803.8000L1051.7400 800.8600Q1051.7400 794.9800 1048.8000 791.7600Q1045.8600 788.5400 1038.7200 788.5400L1038.7200 788.5400Q1033.6800 788.5400 1030.5300 790.5700Q1027.3800 792.6000 1025.8400 795.9600L1025.8400 795.9600Q1024.7200 797.7800 1022.6200 797.7800L1022.6200 797.7800L1011.5600 797.7800Q1010.0200 797.7800 1009.2500 796.9400Q1008.4800 796.1000 1008.4800 794.7000L1008.4800 794.7000Q1008.6200 792.4600 1010.3700 789.2400Q1012.1200 786.0200 1015.6900 783.0100Q1019.2600 780 1025.0000 777.9000Q1030.7400 775.8000 1038.8600 775.8000L1038.8600 775.8000Q1047.6800 775.8000 1053.7700 777.9700Q1059.8600 780.1400 1063.5000 783.7800Q1067.1400 787.4200 1068.8200 792.3200Q1070.5000 797.2200 1070.5000 802.6800L1070.5000 802.6800L1070.5000 846.6400Q1070.5000 848.0400 1069.5200 849.0200Q1068.5400 850 1067.1400 850L1067.1400 850L1055.8000 850Q1054.2600 850 1053.3500 849.0200Q1052.4400 848.0400 1052.4400 846.6400L1052.4400 846.6400L1052.4400 841.1800Q1050.6200 843.7000 1047.5400 846.0800Q1044.4600 848.4600 1040.0500 849.9300Q1035.6400 851.4000 1029.6200 851.4000ZM1034.3800 838.1000L1034.3800 838.1000Q1039.2800 838.1000 1043.2700 836Q1047.2600 833.9000 1049.5700 829.4900Q1051.8800 825.0800 1051.8800 818.3600L1051.8800 818.3600L1051.8800 815.4200L1037.8800 817.6600Q1029.6200 818.9200 1025.5600 821.7200Q1021.5000 824.5200 1021.5000 828.5800L1021.5000 828.5800Q1021.5000 831.6600 1023.3900 833.8300Q1025.2800 836 1028.2200 837.0500Q1031.1600 838.1000 1034.3800 838.1000ZM1104.1000 850L1091.7800 850Q1090.3800 850 1089.4000 849.0200Q1088.4200 848.0400 1088.4200 846.6400L1088.4200 846.6400L1088.4200 780.5600Q1088.4200 779.1600 1089.4000 778.1800Q1090.3800 777.2000 1091.7800 777.2000L1091.7800 777.2000L1103.2600 777.2000Q1104.6600 777.2000 1105.6400 778.1800Q1106.6200 779.1600 1106.6200 780.5600L1106.6200 780.5600L1106.6200 786.3000Q1110.2600 781.8200 1115.9300 778.8100Q1121.6000 775.8000 1130 775.8000L1130 775.8000Q1138.5400 775.8000 1144.8400 779.6500Q1151.1400 783.5000 1154.5700 790.5000Q1158 797.5000 1158 807.3000L1158 807.3000L1158 846.6400Q1158 848.0400 1157.0200 849.0200Q1156.0400 850 1154.6400 850L1154.6400 850L1142.3200 850Q1140.9200 850 1139.9400 849.0200Q1138.9600 848.0400 1138.9600 846.6400L1138.9600 846.6400L1138.9600 808.1400Q1138.9600 800.0200 1134.9700 795.4000Q1130.9800 790.7800 1123.4200 790.7800L1123.4200 790.7800Q1116.1400 790.7800 1111.8000 795.4000Q1107.4600 800.0200 1107.4600 808.1400L1107.4600 808.1400L1107.4600 846.6400Q1107.4600 848.0400 1106.4800 849.0200Q1105.5000 850 1104.1000 850L1104.1000 850ZM1202.8000 851.4000L1202.8000 851.4000Q1195.5200 851.4000 1189.9900 848.9500Q1184.4600 846.5000 1180.8200 842.0200Q1177.1800 837.5400 1175.2200 831.4500Q1173.2600 825.3600 1172.9800 818.0800L1172.9800 818.0800Q1172.8400 815.5600 1172.8400 813.5300Q1172.8400 811.5000 1172.9800 808.9800L1172.9800 808.9800Q1173.2600 801.9800 1175.1500 795.9600Q1177.0400 789.9400 1180.7500 785.3900Q1184.4600 780.8400 1189.9900 778.3200Q1195.5200 775.8000 1202.8000 775.8000L1202.8000 775.8000Q1210.3600 775.8000 1215.6100 778.3900Q1220.8600 780.9800 1224.3600 785.0400L1224.3600 785.0400L1224.3600 753.9600Q1224.3600 752.5600 1225.2700 751.5800Q1226.1800 750.6000 1227.7200 750.6000L1227.7200 750.6000L1239.6200 750.6000Q1241.0200 750.6000 1242 751.5800Q1242.9800 752.5600 1242.9800 753.9600L1242.9800 753.9600L1242.9800 846.6400Q1242.9800 848.0400 1242 849.0200Q1241.0200 850 1239.6200 850L1239.6200 850L1228.5600 850Q1227.0200 850 1226.1100 849.0200Q1225.2000 848.0400 1225.2000 846.6400L1225.2000 846.6400L1225.2000 841.4600Q1221.7000 845.8000 1216.3100 848.6000Q1210.9200 851.4000 1202.8000 851.4000ZM1207.9800 836.4200L1207.9800 836.4200Q1213.8600 836.4200 1217.3600 833.7600Q1220.8600 831.1000 1222.5400 826.9700Q1224.2200 822.8400 1224.3600 818.5000L1224.3600 818.5000Q1224.5000 815.9800 1224.5000 813.1100Q1224.5000 810.2400 1224.3600 807.7200L1224.3600 807.7200Q1224.2200 803.5200 1222.4000 799.6700Q1220.5800 795.8200 1217.0800 793.3000Q1213.5800 790.7800 1207.9800 790.7800L1207.9800 790.7800Q1202.1000 790.7800 1198.6700 793.3700Q1195.2400 795.9600 1193.7000 800.1600Q1192.1600 804.3600 1191.8800 809.4000L1191.8800 809.4000Q1191.7400 813.6000 1191.8800 817.8000L1191.8800 817.8000Q1192.1600 822.8400 1193.7000 827.0400Q1195.2400 831.2400 1198.6700 833.8300Q1202.1000 836.4200 1207.9800 836.4200ZM1293.8000 851.4000L1293.8000 851.4000Q1282.6000 851.4000 1274.9700 847.4800Q1267.3400 843.5600 1263.3500 836.4200Q1259.3600 829.2800 1258.8000 819.7600L1258.8000 819.7600Q1258.6600 817.2400 1258.6600 813.6000Q1258.6600 809.9600 1258.8000 807.4400L1258.8000 807.4400Q1259.3600 797.7800 1263.4900 790.7100Q1267.6200 783.6400 1275.2500 779.7200Q1282.8800 775.8000 1293.8000 775.8000L1293.8000 775.8000Q1304.7200 775.8000 1312.3500 779.7200Q1319.9800 783.6400 1324.1100 790.7100Q1328.2400 797.7800 1328.8000 807.4400L1328.8000 807.4400Q1328.9400 809.9600 1328.9400 813.6000Q1328.9400 817.2400 1328.8000 819.7600L1328.8000 819.7600Q1328.2400 829.2800 1324.2500 836.4200Q1320.2600 843.5600 1312.6300 847.4800Q1305 851.4000 1293.8000 851.4000ZM1293.8000 837.5400L1293.8000 837.5400Q1301.2200 837.5400 1305.2800 832.8500Q1309.3400 828.1600 1309.7600 819.0600L1309.7600 819.0600Q1309.9000 816.9600 1309.9000 813.6000Q1309.9000 810.2400 1309.7600 808.1400L1309.7600 808.1400Q1309.3400 799.0400 1305.2800 794.3500Q1301.2200 789.6600 1293.8000 789.6600L1293.8000 789.6600Q1286.3800 789.6600 1282.3200 794.3500Q1278.2600 799.0400 1277.8400 808.1400L1277.8400 808.1400Q1277.7000 810.2400 1277.7000 813.6000Q1277.7000 816.9600 1277.8400 819.0600L1277.8400 819.0600Q1278.2600 828.1600 1282.3200 832.8500Q1286.3800 837.5400 1293.8000 837.5400Z" id="title"/></g></svg>