<svg xmlns="http://www.w3.org/2000/svg" version="1.1" xmlns:xlink="http://www.w3.org/1999/xlink" xmlns:svgjs="http://svgjs.dev/svgjs" viewBox="0 0 1920 1080" id="91bfb7f2-7997-418b-a45a-cf6938e7f809"><g><rect width="1920" height="1080" fill="#8ee3ef"/></g><g fill="#f0c975"><path d="M2118.71 322.496C1962.88 381.696 1840.11 286.062 1731.68 201.315C1619.52 113.904 1545.13 63.1995 1455.92 97.0926C1366.11 131.212 1344.15 218.52 1318.91 358.127C1294.11 493.487 1265.8 646.514 1109.97 705.714C954.144 764.914 831.375 669.28 722.951 584.533C610.793 497.122 536.401 446.418 447.185 480.311C357.375 514.43 335.414 601.738 310.18 741.346C285.375 876.706 257.072 1029.73 101.242 1088.93C-54.5876 1148.13 -177.357 1052.5 -285.78 967.751C-397.344 880.114 -471.736 829.41 -561.547 863.529L-602 757.045C-446.17 697.845 -323.401 793.479 -214.977 878.225C-102.819 965.637 -28.4265 1016.34 60.7891 982.448C150.6 948.329 172.56 861.02 197.794 721.413C222.599 586.053 250.307 433.253 406.732 373.827C562.562 314.627 685.331 410.261 793.754 495.007C905.913 582.419 980.305 633.123 1069.52 599.23C1159.33 565.111 1181.29 477.802 1206.53 338.195C1231.33 202.835 1259.04 50.0347 1415.46 -9.39121C1571.89 -68.8172 1694.06 27.043 1802.49 111.789C1914.64 199.201 1989.04 249.905 2078.25 216.012L2118.71 322.496Z"/></g><g fill="#ffffff" opacity="0.4"><path d="M960.041 79C960.041 79 971.953 194.974 981.699 214.484C992.529 237.245 1064 247 1064 247C1064 247 994.694 258.923 983.865 280.6C973.036 301.194 958.959 415 958.959 415C958.959 415 945.964 296.858 935.135 275.181C925.389 255.671 855 245.916 855 245.916C855 245.916 925.389 233.994 936.218 212.316C947.047 192.806 960.041 79 960.041 79Z"/><path d="M561.041 687C561.041 687 572.953 802.974 582.699 822.484C593.529 845.245 665 855 665 855C665 855 595.694 866.923 584.865 888.6C574.036 909.194 559.959 1023 559.959 1023C559.959 1023 546.964 904.858 536.135 883.181C526.389 863.671 456 853.916 456 853.916C456 853.916 526.389 841.994 537.218 820.316C548.047 800.806 561.041 687 561.041 687Z"/></g><g><path d="M178.635 139.281L184.422 144.246V166.626H215.704L219.958 172.147L215.69 177.397H184.422V198.795L178.635 203.747L173 198.795V144.232L178.635 139.281ZM195.554 195.68H219.406L223.397 200.915L219.143 206.45H195.554L191.7 201.342L195.554 195.68ZM196.382 138H219.129L223.383 143.52L219.129 148.77H196.659L192.115 143.677L196.382 138ZM323.155 148.628L328.251 154.291L323.155 159.968H246.13L241.172 154.291L246.13 148.628H323.155ZM237.043 172.147L241.849 167.893L246.669 172.147V178.393C246.669 188.879 249.417 197.515 261.668 197.515H264.14C275.147 197.515 281.197 189.86 281.197 177.952V172.005L285.879 167.75L290.699 171.862V178.379C290.699 189.007 293.723 196.946 305.56 196.946H307.618C319.178 196.946 321.235 187.869 321.373 177.952V171.578L326.056 167.608L331 171.72V178.094C330.862 191.838 327.285 207.574 308.032 207.574H305.974C294.552 207.574 288.365 202.324 285.892 195.808C283.006 202.466 275.299 208.286 264.844 208.286H262.358C242.553 208.286 237.194 195.964 237.056 178.663V172.147H237.043ZM276.391 274.744L273.642 267.089L280.796 264.969L305.974 276.721V252.491L311.07 248.095L316.291 252.491V281.829L325.641 286.226L328.251 293.311L320.959 296L276.391 274.744ZM321.235 223.011L328.113 226.27L325.917 233.497L264.002 263.119L256.571 260.146L259.596 252.776L321.235 223.011ZM231.905 263.404L237.954 268.512C237.402 286.51 222.403 296 204.669 296H202.874C194.062 296 183.759 292.6 177.157 286.083L177.834 278.855L184.298 278.002C189.118 282.256 195.858 285.229 202.183 285.229H204.117C216.091 285.229 225.303 280.136 226.27 268.085L231.905 263.404ZM226.256 251.638C225.704 239.16 216.629 234.209 204.103 234.209H202.169C194.739 234.209 189.104 237.182 184.284 241.436L177.834 240.583L177.143 233.355C183.745 226.696 192.957 223.58 202.597 223.58H204.517C222.403 223.58 237.402 232.942 237.94 251.211L231.891 256.176L226.256 251.638Z" fill="#000000"/></g><g fill="#000000" id="info-group"><path d="M167.0800 500L154.9000 500Q153.7800 500 152.8700 499.1600Q151.9600 498.3200 151.9600 497.0600L151.9600 497.0600Q151.9600 496.5000 152.2400 495.8000L152.2400 495.8000L185.9800 405.5000Q186.4000 404.1000 187.5900 403.0500Q188.7800 402 190.8800 402L190.8800 402L206.1400 402Q208.2400 402 209.3600 403.0500Q210.4800 404.1000 211.0400 405.5000L211.0400 405.5000L244.7800 495.8000Q244.9200 496.5000 244.9200 497.0600L244.9200 497.0600Q244.9200 498.3200 244.0800 499.1600Q243.2400 500 242.1200 500L242.1200 500L229.9400 500Q227.9800 500 227.0700 499.0900Q226.1600 498.1800 225.8800 497.3400L225.8800 497.3400L219.3000 480.2600L177.7200 480.2600L171.1400 497.3400Q170.8600 498.1800 169.9500 499.0900Q169.0400 500 167.0800 500L167.0800 500ZM198.4400 420.9000L182.6200 464.1600L214.4000 464.1600L198.4400 420.9000ZM283.2800 501.4000L283.2800 501.4000Q274.7400 501.4000 268.5100 497.5500Q262.2800 493.7000 258.9200 486.6300Q255.5600 479.5600 255.5600 469.9000L255.5600 469.9000L255.5600 430.5600Q255.5600 429.1600 256.5400 428.1800Q257.5200 427.2000 258.9200 427.2000L258.9200 427.2000L271.2400 427.2000Q272.7800 427.2000 273.6900 428.1800Q274.6000 429.1600 274.6000 430.5600L274.6000 430.5600L274.6000 469.0600Q274.6000 486.4200 289.8600 486.4200L289.8600 486.4200Q297.1400 486.4200 301.4100 481.8000Q305.6800 477.1800 305.6800 469.0600L305.6800 469.0600L305.6800 430.5600Q305.6800 429.1600 306.6600 428.1800Q307.6400 427.2000 309.0400 427.2000L309.0400 427.2000L321.3600 427.2000Q322.7600 427.2000 323.7400 428.1800Q324.7200 429.1600 324.7200 430.5600L324.7200 430.5600L324.7200 496.6400Q324.7200 498.0400 323.7400 499.0200Q322.7600 500 321.3600 500L321.3600 500L310.0200 500Q308.4800 500 307.5700 499.0200Q306.6600 498.0400 306.6600 496.6400L306.6600 496.6400L306.6600 490.9000Q302.8800 495.8000 297.2800 498.6000Q291.6800 501.4000 283.2800 501.4000ZM358.3200 500L346.7000 500Q345.3000 500 344.3200 499.0200Q343.3400 498.0400 343.3400 496.6400L343.3400 496.6400L343.3400 403.9600Q343.3400 402.5600 344.3200 401.5800Q345.3000 400.6000 346.7000 400.6000L346.7000 400.6000L358.3200 400.6000Q359.7200 400.6000 360.7000 401.5800Q361.6800 402.5600 361.6800 403.9600L361.6800 403.9600L361.6800 496.6400Q361.6800 498.0400 360.7000 499.0200Q359.7200 500 358.3200 500L358.3200 500ZM401.4400 501.4000L401.4400 501.4000Q394.1600 501.4000 388.2800 498.5300Q382.4000 495.6600 378.9700 490.8300Q375.5400 486 375.5400 479.9800L375.5400 479.9800Q375.5400 470.1800 383.5200 464.3700Q391.5000 458.5600 404.3800 456.6000L404.3800 456.6000L423.5600 453.8000L423.5600 450.8600Q423.5600 444.9800 420.6200 441.7600Q417.6800 438.5400 410.5400 438.5400L410.5400 438.5400Q405.5000 438.5400 402.3500 440.5700Q399.2000 442.6000 397.6600 445.9600L397.6600 445.9600Q396.5400 447.7800 394.4400 447.7800L394.4400 447.7800L383.3800 447.7800Q381.8400 447.7800 381.0700 446.9400Q380.3000 446.1000 380.3000 444.7000L380.3000 444.7000Q380.4400 442.4600 382.1900 439.2400Q383.9400 436.0200 387.5100 433.0100Q391.0800 430 396.8200 427.9000Q402.5600 425.8000 410.6800 425.8000L410.6800 425.8000Q419.5000 425.8000 425.5900 427.9700Q431.6800 430.1400 435.3200 433.7800Q438.9600 437.4200 440.6400 442.3200Q442.3200 447.2200 442.3200 452.6800L442.3200 452.6800L442.3200 496.6400Q442.3200 498.0400 441.3400 499.0200Q440.3600 500 438.9600 500L438.9600 500L427.6200 500Q426.0800 500 425.1700 499.0200Q424.2600 498.0400 424.2600 496.6400L424.2600 496.6400L424.2600 491.1800Q422.4400 493.7000 419.3600 496.0800Q416.2800 498.4600 411.8700 499.9300Q407.4600 501.4000 401.4400 501.4000ZM406.2000 488.1000L406.2000 488.1000Q411.1000 488.1000 415.0900 486Q419.0800 483.9000 421.3900 479.4900Q423.7000 475.0800 423.7000 468.3600L423.7000 468.3600L423.7000 465.4200L409.7000 467.6600Q401.4400 468.9200 397.3800 471.7200Q393.3200 474.5200 393.3200 478.5800L393.3200 478.5800Q393.3200 481.6600 395.2100 483.8300Q397.1000 486 400.0400 487.0500Q402.9800 488.1000 406.2000 488.1000ZM527.7200 501.4000L527.7200 501.4000Q515.6800 501.4000 507.0000 496.8500Q498.3200 492.3000 493.5600 484.5300Q488.8000 476.7600 488.8000 467.1000L488.8000 467.1000Q488.8000 462.7600 489.9200 458.7000Q491.0400 454.6400 492.8600 451Q494.6800 447.3600 496.4300 444.4900Q498.1800 441.6200 499.5800 439.9400L499.5800 439.9400L525.2000 404.8000Q525.7600 404.1000 526.8800 403.0500Q528.0000 402 529.9600 402L529.9600 402L542.9800 402Q544.2400 402 545.0800 402.9100Q545.9200 403.8200 545.9200 405.0800L545.9200 405.0800Q545.9200 405.6400 545.7100 406.1300Q545.5000 406.6200 545.2200 406.9000L545.2200 406.9000L525.6200 434.0600Q526.8800 433.6400 528.5600 433.5000Q530.2400 433.3600 531.6400 433.3600L531.6400 433.3600Q538.6400 433.5000 544.9400 436.0900Q551.2400 438.6800 556.0000 443.1600Q560.7600 447.6400 563.4900 453.6600Q566.2200 459.6800 566.2200 466.8200L566.2200 466.8200Q566.2200 476.0600 561.6000 483.9700Q556.9800 491.8800 548.3700 496.6400Q539.7600 501.4000 527.7200 501.4000ZM527.5800 485.3000L527.5800 485.3000Q532.6200 485.3000 536.8900 483.2000Q541.1600 481.1000 543.8200 477.0400Q546.4800 472.9800 546.4800 466.9600L546.4800 466.9600Q546.4800 461.0800 543.8200 457.0200Q541.1600 452.9600 536.8900 450.8600Q532.6200 448.7600 527.5800 448.7600L527.5800 448.7600Q522.5400 448.7600 518.2700 450.8600Q514.0000 452.9600 511.3400 457.0200Q508.6800 461.0800 508.6800 466.9600L508.6800 466.9600Q508.6800 472.9800 511.3400 477.0400Q514.0000 481.1000 518.2700 483.2000Q522.5400 485.3000 527.5800 485.3000ZM596.8800 451L583.0200 451Q581.6200 451 580.6400 450.0200Q579.6600 449.0400 579.6600 447.6400L579.6600 447.6400L579.6600 434.3400Q579.6600 432.8000 580.6400 431.8200Q581.6200 430.8400 583.0200 430.8400L583.0200 430.8400L596.8800 430.8400Q598.4200 430.8400 599.4000 431.8200Q600.3800 432.8000 600.3800 434.3400L600.3800 434.3400L600.3800 447.6400Q600.3800 449.0400 599.4000 450.0200Q598.4200 451 596.8800 451L596.8800 451ZM596.8800 500L583.0200 500Q581.6200 500 580.6400 499.0200Q579.6600 498.0400 579.6600 496.6400L579.6600 496.6400L579.6600 483.3400Q579.6600 481.8000 580.6400 480.8200Q581.6200 479.8400 583.0200 479.8400L583.0200 479.8400L596.8800 479.8400Q598.4200 479.8400 599.4000 480.8200Q600.3800 481.8000 600.3800 483.3400L600.3800 483.3400L600.3800 496.6400Q600.3800 498.0400 599.4000 499.0200Q598.4200 500 596.8800 500L596.8800 500ZM668.8400 500L655.5400 500Q654.1400 500 653.1600 499.0200Q652.1800 498.0400 652.1800 496.6400L652.1800 496.6400L652.1800 405.5000Q652.1800 403.9600 653.1600 402.9800Q654.1400 402 655.5400 402L655.5400 402L693.0600 402Q703.9800 402 712.1000 405.4300Q720.2200 408.8600 724.7000 415.7900Q729.1800 422.7200 729.1800 433.0800L729.1800 433.0800Q729.1800 443.5800 724.7000 450.3700Q720.2200 457.1600 712.1000 460.5200Q703.9800 463.8800 693.0600 463.8800L693.0600 463.8800L672.2000 463.8800L672.2000 496.6400Q672.2000 498.0400 671.2900 499.0200Q670.3800 500 668.8400 500L668.8400 500ZM671.9200 417.5400L671.9200 448.3400L692.3600 448.3400Q700.4800 448.3400 704.8200 444.4900Q709.1600 440.6400 709.1600 433.0800L709.1600 433.0800Q709.1600 426.0800 705.1000 421.8100Q701.0400 417.5400 692.3600 417.5400L692.3600 417.5400L671.9200 417.5400ZM774.9600 501.4000L774.9600 501.4000Q763.7600 501.4000 756.1300 497.4800Q748.5000 493.5600 744.5100 486.4200Q740.5200 479.2800 739.9600 469.7600L739.9600 469.7600Q739.8200 467.2400 739.8200 463.6000Q739.8200 459.9600 739.9600 457.4400L739.9600 457.4400Q740.5200 447.7800 744.6500 440.7100Q748.7800 433.6400 756.4100 429.7200Q764.0400 425.8000 774.9600 425.8000L774.9600 425.8000Q785.8800 425.8000 793.5100 429.7200Q801.1400 433.6400 805.2700 440.7100Q809.4000 447.7800 809.9600 457.4400L809.9600 457.4400Q810.1000 459.9600 810.1000 463.6000Q810.1000 467.2400 809.9600 469.7600L809.9600 469.7600Q809.4000 479.2800 805.4100 486.4200Q801.4200 493.5600 793.7900 497.4800Q786.1600 501.4000 774.9600 501.4000ZM774.9600 487.5400L774.9600 487.5400Q782.3800 487.5400 786.4400 482.8500Q790.5000 478.1600 790.9200 469.0600L790.9200 469.0600Q791.0600 466.9600 791.0600 463.6000Q791.0600 460.2400 790.9200 458.1400L790.9200 458.1400Q790.5000 449.0400 786.4400 444.3500Q782.3800 439.6600 774.9600 439.6600L774.9600 439.6600Q767.5400 439.6600 763.4800 444.3500Q759.4200 449.0400 759 458.1400L759 458.1400Q758.8600 460.2400 758.8600 463.6000Q758.8600 466.9600 759 469.0600L759 469.0600Q759.4200 478.1600 763.4800 482.8500Q767.5400 487.5400 774.9600 487.5400ZM841.3200 500L829 500Q827.6000 500 826.6200 499.0200Q825.6400 498.0400 825.6400 496.6400L825.6400 496.6400L825.6400 430.5600Q825.6400 429.1600 826.6200 428.1800Q827.6000 427.2000 829 427.2000L829 427.2000L840.4800 427.2000Q841.8800 427.2000 842.8600 428.1800Q843.8400 429.1600 843.8400 430.5600L843.8400 430.5600L843.8400 436.3000Q847.4800 431.8200 853.1500 428.8100Q858.8200 425.8000 867.2200 425.8000L867.2200 425.8000Q875.7600 425.8000 882.0600 429.6500Q888.3600 433.5000 891.7900 440.5000Q895.2200 447.5000 895.2200 457.3000L895.2200 457.3000L895.2200 496.6400Q895.2200 498.0400 894.2400 499.0200Q893.2600 500 891.8600 500L891.8600 500L879.5400 500Q878.1400 500 877.1600 499.0200Q876.1800 498.0400 876.1800 496.6400L876.1800 496.6400L876.1800 458.1400Q876.1800 450.0200 872.1900 445.4000Q868.2000 440.7800 860.6400 440.7800L860.6400 440.7800Q853.3600 440.7800 849.0200 445.4000Q844.6800 450.0200 844.6800 458.1400L844.6800 458.1400L844.6800 496.6400Q844.6800 498.0400 843.7000 499.0200Q842.7200 500 841.3200 500L841.3200 500ZM957.2400 500L945.9000 500Q937.5000 500 931.7600 497.0600Q926.0200 494.1200 923.2200 488.3100Q920.4200 482.5000 920.4200 473.8200L920.4200 473.8200L920.4200 442.0400L909.3600 442.0400Q907.9600 442.0400 906.9800 441.0600Q906 440.0800 906 438.5400L906 438.5400L906 430.5600Q906 429.1600 906.9800 428.1800Q907.9600 427.2000 909.3600 427.2000L909.3600 427.2000L920.4200 427.2000L920.4200 403.9600Q920.4200 402.5600 921.3300 401.5800Q922.2400 400.6000 923.7800 400.6000L923.7800 400.6000L935.1200 400.6000Q936.5200 400.6000 937.5000 401.5800Q938.4800 402.5600 938.4800 403.9600L938.4800 403.9600L938.4800 427.2000L955.9800 427.2000Q957.3800 427.2000 958.3600 428.1800Q959.3400 429.1600 959.3400 430.5600L959.3400 430.5600L959.3400 438.5400Q959.3400 440.0800 958.3600 441.0600Q957.3800 442.0400 955.9800 442.0400L955.9800 442.0400L938.4800 442.0400L938.4800 472.4200Q938.4800 478.1600 940.5100 481.3800Q942.5400 484.6000 947.5800 484.6000L947.5800 484.6000L957.2400 484.6000Q958.6400 484.6000 959.6200 485.5800Q960.6000 486.5600 960.6000 487.9600L960.6000 487.9600L960.6000 496.6400Q960.6000 498.0400 959.6200 499.0200Q958.6400 500 957.2400 500L957.2400 500ZM1005.2600 501.4000L1005.2600 501.4000Q994.0600 501.4000 986.4300 497.4800Q978.8000 493.5600 974.8100 486.4200Q970.8200 479.2800 970.2600 469.7600L970.2600 469.7600Q970.1200 467.2400 970.1200 463.6000Q970.1200 459.9600 970.2600 457.4400L970.2600 457.4400Q970.8200 447.7800 974.9500 440.7100Q979.0800 433.6400 986.7100 429.7200Q994.3400 425.8000 1005.2600 425.8000L1005.2600 425.8000Q1016.1800 425.8000 1023.8100 429.7200Q1031.4400 433.6400 1035.5700 440.7100Q1039.7000 447.7800 1040.2600 457.4400L1040.2600 457.4400Q1040.4000 459.9600 1040.4000 463.6000Q1040.4000 467.2400 1040.2600 469.7600L1040.2600 469.7600Q1039.7000 479.2800 1035.7100 486.4200Q1031.7200 493.5600 1024.0900 497.4800Q1016.4600 501.4000 1005.2600 501.4000ZM1005.2600 487.5400L1005.2600 487.5400Q1012.6800 487.5400 1016.7400 482.8500Q1020.8000 478.1600 1021.2200 469.0600L1021.2200 469.0600Q1021.3600 466.9600 1021.3600 463.6000Q1021.3600 460.2400 1021.2200 458.1400L1021.2200 458.1400Q1020.8000 449.0400 1016.7400 444.3500Q1012.6800 439.6600 1005.2600 439.6600L1005.2600 439.6600Q997.8400 439.6600 993.7800 444.3500Q989.7200 449.0400 989.3000 458.1400L989.3000 458.1400Q989.1600 460.2400 989.1600 463.6000Q989.1600 466.9600 989.3000 469.0600L989.3000 469.0600Q989.7200 478.1600 993.7800 482.8500Q997.8400 487.5400 1005.2600 487.5400ZM1083.5200 501.4000L1083.5200 501.4000Q1075.1200 501.4000 1069.1700 499.4400Q1063.2200 497.4800 1059.4400 494.5400Q1055.6600 491.6000 1053.8400 488.6600Q1052.0200 485.7200 1051.8800 483.7600L1051.8800 483.7600Q1051.7400 482.2200 1052.7900 481.3100Q1053.8400 480.4000 1055.1000 480.4000L1055.1000 480.4000L1066.1600 480.4000Q1066.7200 480.4000 1067.1400 480.5400Q1067.5600 480.6800 1068.2600 481.3800L1068.2600 481.3800Q1070.0800 482.9200 1072.1100 484.6000Q1074.1400 486.2800 1076.9400 487.4700Q1079.7400 488.6600 1083.9400 488.6600L1083.9400 488.6600Q1089.4000 488.6600 1093.1100 486.4900Q1096.8200 484.3200 1096.8200 480.2600L1096.8200 480.2600Q1096.8200 477.3200 1095.2100 475.5000Q1093.6000 473.6800 1089.2600 472.2100Q1084.9200 470.7400 1076.9400 469.0600L1076.9400 469.0600Q1069.1000 467.2400 1063.9200 464.4400Q1058.7400 461.6400 1056.2200 457.4400Q1053.7000 453.2400 1053.7000 447.6400L1053.7000 447.6400Q1053.7000 442.1800 1056.9900 437.2100Q1060.2800 432.2400 1066.7900 429.0200Q1073.3000 425.8000 1082.9600 425.8000L1082.9600 425.8000Q1090.5200 425.8000 1096.1200 427.6900Q1101.7200 429.5800 1105.4300 432.3800Q1109.1400 435.1800 1111.1000 438.0500Q1113.0600 440.9200 1113.2000 443.0200L1113.2000 443.0200Q1113.3400 444.5600 1112.3600 445.4700Q1111.3800 446.3800 1110.1200 446.3800L1110.1200 446.3800L1099.7600 446.3800Q1099.0600 446.3800 1098.5000 446.1000Q1097.9400 445.8200 1097.3800 445.4000L1097.3800 445.4000Q1095.8400 444 1094.0200 442.3900Q1092.2000 440.7800 1089.6100 439.6600Q1087.0200 438.5400 1082.8200 438.5400L1082.8200 438.5400Q1077.5000 438.5400 1074.7000 440.8500Q1071.9000 443.1600 1071.9000 446.6600L1071.9000 446.6600Q1071.9000 449.0400 1073.2300 450.7900Q1074.5600 452.5400 1078.6200 454.0800Q1082.6800 455.6200 1090.9400 457.3000L1090.9400 457.3000Q1100.3200 458.9800 1105.8500 462.2700Q1111.3800 465.5600 1113.6900 469.8300Q1116 474.1000 1116 479.2800L1116 479.2800Q1116 485.5800 1112.2900 490.6200Q1108.5800 495.6600 1101.3700 498.5300Q1094.1600 501.4000 1083.5200 501.4000ZM174.6400 666.6000L162.7400 666.6000Q161.3400 666.6000 160.3600 665.6200Q159.3800 664.6400 159.3800 663.2400L159.3800 663.2400L159.3800 570.5600Q159.3800 569.1600 160.3600 568.1800Q161.3400 567.2000 162.7400 567.2000L162.7400 567.2000L173.8000 567.2000Q175.3400 567.2000 176.2500 568.1800Q177.1600 569.1600 177.1600 570.5600L177.1600 570.5600L177.1600 576.1600Q180.5200 571.6800 185.9800 568.7400Q191.4400 565.8000 199.5600 565.8000L199.5600 565.8000Q206.9800 565.8000 212.4400 568.1800Q217.9000 570.5600 221.5400 574.9700Q225.1800 579.3800 227.1400 585.4000Q229.1000 591.4200 229.3800 598.7000L229.3800 598.7000Q229.5200 601.0800 229.5200 603.6000Q229.5200 606.1200 229.3800 608.6400L229.3800 608.6400Q229.2400 615.6400 227.2800 621.5900Q225.3200 627.5400 221.6100 631.9500Q217.9000 636.3600 212.4400 638.8800Q206.9800 641.4000 199.5600 641.4000L199.5600 641.4000Q192 641.4000 186.6800 638.6700Q181.3600 635.9400 178 631.4600L178 631.4600L178 663.2400Q178 664.6400 177.0900 665.6200Q176.1800 666.6000 174.6400 666.6000L174.6400 666.6000ZM194.3800 626.4200L194.3800 626.4200Q200.4000 626.4200 203.7600 623.8300Q207.1200 621.2400 208.6600 617.0400Q210.2000 612.8400 210.4800 607.8000L210.4800 607.8000Q210.6200 603.6000 210.4800 599.4000L210.4800 599.4000Q210.2000 594.3600 208.6600 590.1600Q207.1200 585.9600 203.7600 583.3700Q200.4000 580.7800 194.3800 580.7800L194.3800 580.7800Q188.6400 580.7800 185.0700 583.4400Q181.5000 586.1000 179.8900 590.2300Q178.2800 594.3600 178 598.7000L178 598.7000Q177.8600 601.2200 177.8600 604.0200Q177.8600 606.8200 178 609.4800L178 609.4800Q178.1400 613.6800 179.9600 617.5300Q181.7800 621.3800 185.2800 623.9000Q188.7800 626.4200 194.3800 626.4200ZM277.4000 641.4000L277.4000 641.4000Q266.2000 641.4000 258.5700 637.4800Q250.9400 633.5600 246.9500 626.4200Q242.9600 619.2800 242.4000 609.7600L242.4000 609.7600Q242.2600 607.2400 242.2600 603.6000Q242.2600 599.9600 242.4000 597.4400L242.4000 597.4400Q242.9600 587.7800 247.0900 580.7100Q251.2200 573.6400 258.8500 569.7200Q266.4800 565.8000 277.4000 565.8000L277.4000 565.8000Q288.3200 565.8000 295.9500 569.7200Q303.5800 573.6400 307.7100 580.7100Q311.8400 587.7800 312.4000 597.4400L312.4000 597.4400Q312.5400 599.9600 312.5400 603.6000Q312.5400 607.2400 312.4000 609.7600L312.4000 609.7600Q311.8400 619.2800 307.8500 626.4200Q303.8600 633.5600 296.2300 637.4800Q288.6000 641.4000 277.4000 641.4000ZM277.4000 627.5400L277.4000 627.5400Q284.8200 627.5400 288.8800 622.8500Q292.9400 618.1600 293.3600 609.0600L293.3600 609.0600Q293.5000 606.9600 293.5000 603.6000Q293.5000 600.2400 293.3600 598.1400L293.3600 598.1400Q292.9400 589.0400 288.8800 584.3500Q284.8200 579.6600 277.4000 579.6600L277.4000 579.6600Q269.9800 579.6600 265.9200 584.3500Q261.8600 589.0400 261.4400 598.1400L261.4400 598.1400Q261.3000 600.2400 261.3000 603.6000Q261.3000 606.9600 261.4400 609.0600L261.4400 609.0600Q261.8600 618.1600 265.9200 622.8500Q269.9800 627.5400 277.4000 627.5400ZM355.6600 641.4000L355.6600 641.4000Q347.2600 641.4000 341.3100 639.4400Q335.3600 637.4800 331.5800 634.5400Q327.8000 631.6000 325.9800 628.6600Q324.1600 625.7200 324.0200 623.7600L324.0200 623.7600Q323.8800 622.2200 324.9300 621.3100Q325.9800 620.4000 327.2400 620.4000L327.2400 620.4000L338.3000 620.4000Q338.8600 620.4000 339.2800 620.5400Q339.7000 620.6800 340.4000 621.3800L340.4000 621.3800Q342.2200 622.9200 344.2500 624.6000Q346.2800 626.2800 349.0800 627.4700Q351.8800 628.6600 356.0800 628.6600L356.0800 628.6600Q361.5400 628.6600 365.2500 626.4900Q368.9600 624.3200 368.9600 620.2600L368.9600 620.2600Q368.9600 617.3200 367.3500 615.5000Q365.7400 613.6800 361.4000 612.2100Q357.0600 610.7400 349.0800 609.0600L349.0800 609.0600Q341.2400 607.2400 336.0600 604.4400Q330.8800 601.6400 328.3600 597.4400Q325.8400 593.2400 325.8400 587.6400L325.8400 587.6400Q325.8400 582.1800 329.1300 577.2100Q332.4200 572.2400 338.9300 569.0200Q345.4400 565.8000 355.1000 565.8000L355.1000 565.8000Q362.6600 565.8000 368.2600 567.6900Q373.8600 569.5800 377.5700 572.3800Q381.2800 575.1800 383.2400 578.0500Q385.2000 580.9200 385.3400 583.0200L385.3400 583.0200Q385.4800 584.5600 384.5000 585.4700Q383.5200 586.3800 382.2600 586.3800L382.2600 586.3800L371.9000 586.3800Q371.2000 586.3800 370.6400 586.1000Q370.0800 585.8200 369.5200 585.4000L369.5200 585.4000Q367.9800 584 366.1600 582.3900Q364.3400 580.7800 361.7500 579.6600Q359.1600 578.5400 354.9600 578.5400L354.9600 578.5400Q349.6400 578.5400 346.8400 580.8500Q344.0400 583.1600 344.0400 586.6600L344.0400 586.6600Q344.0400 589.0400 345.3700 590.7900Q346.7000 592.5400 350.7600 594.0800Q354.8200 595.6200 363.0800 597.3000L363.0800 597.3000Q372.4600 598.9800 377.9900 602.2700Q383.5200 605.5600 385.8300 609.8300Q388.1400 614.1000 388.1400 619.2800L388.1400 619.2800Q388.1400 625.5800 384.4300 630.6200Q380.7200 635.6600 373.5100 638.5300Q366.3000 641.4000 355.6600 641.4000ZM417.5400 640L405.9200 640Q404.5200 640 403.5400 639.0200Q402.5600 638.0400 402.5600 636.6400L402.5600 636.6400L402.5600 570.5600Q402.5600 569.1600 403.5400 568.1800Q404.5200 567.2000 405.9200 567.2000L405.9200 567.2000L417.5400 567.2000Q419.0800 567.2000 419.9900 568.1800Q420.9000 569.1600 420.9000 570.5600L420.9000 570.5600L420.9000 636.6400Q420.9000 638.0400 419.9900 639.0200Q419.0800 640 417.5400 640L417.5400 640ZM418.1000 555.1600L405.3600 555.1600Q403.9600 555.1600 402.9800 554.1800Q402.0000 553.2000 402.0000 551.8000L402.0000 551.8000L402.0000 541.7200Q402.0000 540.3200 402.9800 539.3400Q403.9600 538.3600 405.3600 538.3600L405.3600 538.3600L418.1000 538.3600Q419.6400 538.3600 420.6200 539.3400Q421.6000 540.3200 421.6000 541.7200L421.6000 541.7200L421.6000 551.8000Q421.6000 553.2000 420.6200 554.1800Q419.6400 555.1600 418.1000 555.1600L418.1000 555.1600ZM483.7600 640L472.4200 640Q464.0200 640 458.2800 637.0600Q452.5400 634.1200 449.7400 628.3100Q446.9400 622.5000 446.9400 613.8200L446.9400 613.8200L446.9400 582.0400L435.8800 582.0400Q434.4800 582.0400 433.5000 581.0600Q432.5200 580.0800 432.5200 578.5400L432.5200 578.5400L432.5200 570.5600Q432.5200 569.1600 433.5000 568.1800Q434.4800 567.2000 435.8800 567.2000L435.8800 567.2000L446.9400 567.2000L446.9400 543.9600Q446.9400 542.5600 447.8500 541.5800Q448.7600 540.6000 450.3000 540.6000L450.3000 540.6000L461.6400 540.6000Q463.0400 540.6000 464.0200 541.5800Q465.0000 542.5600 465.0000 543.9600L465.0000 543.9600L465.0000 567.2000L482.5000 567.2000Q483.9000 567.2000 484.8800 568.1800Q485.8600 569.1600 485.8600 570.5600L485.8600 570.5600L485.8600 578.5400Q485.8600 580.0800 484.8800 581.0600Q483.9000 582.0400 482.5000 582.0400L482.5000 582.0400L465.0000 582.0400L465.0000 612.4200Q465.0000 618.1600 467.0300 621.3800Q469.0600 624.6000 474.1000 624.6000L474.1000 624.6000L483.7600 624.6000Q485.1600 624.6000 486.1400 625.5800Q487.1200 626.5600 487.1200 627.9600L487.1200 627.9600L487.1200 636.6400Q487.1200 638.0400 486.1400 639.0200Q485.1600 640 483.7600 640L483.7600 640ZM514.5600 640L502.9400 640Q501.5400 640 500.5600 639.0200Q499.5800 638.0400 499.5800 636.6400L499.5800 636.6400L499.5800 570.5600Q499.5800 569.1600 500.5600 568.1800Q501.5400 567.2000 502.9400 567.2000L502.9400 567.2000L514.5600 567.2000Q516.1000 567.2000 517.0100 568.1800Q517.9200 569.1600 517.9200 570.5600L517.9200 570.5600L517.9200 636.6400Q517.9200 638.0400 517.0100 639.0200Q516.1000 640 514.5600 640L514.5600 640ZM515.1200 555.1600L502.3800 555.1600Q500.9800 555.1600 500.0000 554.1800Q499.0200 553.2000 499.0200 551.8000L499.0200 551.8000L499.0200 541.7200Q499.0200 540.3200 500.0000 539.3400Q500.9800 538.3600 502.3800 538.3600L502.3800 538.3600L515.1200 538.3600Q516.6600 538.3600 517.6400 539.3400Q518.6200 540.3200 518.6200 541.7200L518.6200 541.7200L518.6200 551.8000Q518.6200 553.2000 517.6400 554.1800Q516.6600 555.1600 515.1200 555.1600L515.1200 555.1600ZM572.6600 640L562.3000 640Q560.0600 640 559.0100 638.9500Q557.9600 637.9000 557.2600 636.5000L557.2600 636.5000L531.0800 571.5400Q530.8000 570.8400 530.8000 570.2800L530.8000 570.2800Q530.8000 569.0200 531.7100 568.1100Q532.6200 567.2000 533.8800 567.2000L533.8800 567.2000L545.2200 567.2000Q546.9000 567.2000 547.7400 568.1100Q548.5800 569.0200 548.8600 569.8600L548.8600 569.8600L567.4800 619L586.1000 569.8600Q586.3800 569.0200 587.2200 568.1100Q588.0600 567.2000 589.7400 567.2000L589.7400 567.2000L601.2200 567.2000Q602.3400 567.2000 603.2500 568.1100Q604.1600 569.0200 604.1600 570.2800L604.1600 570.2800Q604.1600 570.8400 604.0200 571.5400L604.0200 571.5400L577.7000 636.5000Q577.1400 637.9000 576.0200 638.9500Q574.9000 640 572.6600 640L572.6600 640ZM649.1000 641.4000L649.1000 641.4000Q637.9000 641.4000 630.2700 637.4800Q622.6400 633.5600 618.6500 626.4200Q614.6600 619.2800 614.1000 609.7600L614.1000 609.7600Q613.9600 607.2400 613.9600 603.6000Q613.9600 599.9600 614.1000 597.4400L614.1000 597.4400Q614.6600 587.7800 618.7900 580.7100Q622.9200 573.6400 630.5500 569.7200Q638.1800 565.8000 649.1000 565.8000L649.1000 565.8000Q660.0200 565.8000 667.6500 569.7200Q675.2800 573.6400 679.4100 580.7100Q683.5400 587.7800 684.1000 597.4400L684.1000 597.4400Q684.2400 599.9600 684.2400 603.6000Q684.2400 607.2400 684.1000 609.7600L684.1000 609.7600Q683.5400 619.2800 679.5500 626.4200Q675.5600 633.5600 667.9300 637.4800Q660.3000 641.4000 649.1000 641.4000ZM649.1000 627.5400L649.1000 627.5400Q656.5200 627.5400 660.5800 622.8500Q664.6400 618.1600 665.0600 609.0600L665.0600 609.0600Q665.2000 606.9600 665.2000 603.6000Q665.2000 600.2400 665.0600 598.1400L665.0600 598.1400Q664.6400 589.0400 660.5800 584.3500Q656.5200 579.6600 649.1000 579.6600L649.1000 579.6600Q641.6800 579.6600 637.6200 584.3500Q633.5600 589.0400 633.1400 598.1400L633.1400 598.1400Q633.0000 600.2400 633.0000 603.6000Q633.0000 606.9600 633.1400 609.0600L633.1400 609.0600Q633.5600 618.1600 637.6200 622.8500Q641.6800 627.5400 649.1000 627.5400ZM727.3600 641.4000L727.3600 641.4000Q718.9600 641.4000 713.0100 639.4400Q707.0600 637.4800 703.2800 634.5400Q699.5000 631.6000 697.6800 628.6600Q695.8600 625.7200 695.7200 623.7600L695.7200 623.7600Q695.5800 622.2200 696.6300 621.3100Q697.6800 620.4000 698.9400 620.4000L698.9400 620.4000L710.0000 620.4000Q710.5600 620.4000 710.9800 620.5400Q711.4000 620.6800 712.1000 621.3800L712.1000 621.3800Q713.9200 622.9200 715.9500 624.6000Q717.9800 626.2800 720.7800 627.4700Q723.5800 628.6600 727.7800 628.6600L727.7800 628.6600Q733.2400 628.6600 736.9500 626.4900Q740.6600 624.3200 740.6600 620.2600L740.6600 620.2600Q740.6600 617.3200 739.0500 615.5000Q737.4400 613.6800 733.1000 612.2100Q728.7600 610.7400 720.7800 609.0600L720.7800 609.0600Q712.9400 607.2400 707.7600 604.4400Q702.5800 601.6400 700.0600 597.4400Q697.5400 593.2400 697.5400 587.6400L697.5400 587.6400Q697.5400 582.1800 700.8300 577.2100Q704.1200 572.2400 710.6300 569.0200Q717.1400 565.8000 726.8000 565.8000L726.8000 565.8000Q734.3600 565.8000 739.9600 567.6900Q745.5600 569.5800 749.2700 572.3800Q752.9800 575.1800 754.9400 578.0500Q756.9000 580.9200 757.0400 583.0200L757.0400 583.0200Q757.1800 584.5600 756.2000 585.4700Q755.2200 586.3800 753.9600 586.3800L753.9600 586.3800L743.6000 586.3800Q742.9000 586.3800 742.3400 586.1000Q741.7800 585.8200 741.2200 585.4000L741.2200 585.4000Q739.6800 584 737.8600 582.3900Q736.0400 580.7800 733.4500 579.6600Q730.8600 578.5400 726.6600 578.5400L726.6600 578.5400Q721.3400 578.5400 718.5400 580.8500Q715.7400 583.1600 715.7400 586.6600L715.7400 586.6600Q715.7400 589.0400 717.0700 590.7900Q718.4000 592.5400 722.4600 594.0800Q726.5200 595.6200 734.7800 597.3000L734.7800 597.3000Q744.1600 598.9800 749.6900 602.2700Q755.2200 605.5600 757.5300 609.8300Q759.8400 614.1000 759.8400 619.2800L759.8400 619.2800Q759.8400 625.5800 756.1300 630.6200Q752.4200 635.6600 745.2100 638.5300Q738.0000 641.4000 727.3600 641.4000ZM837.6800 641.4000L837.6800 641.4000Q822.1400 641.4000 813.0400 632.4400Q803.9400 623.4800 803.2400 606.9600L803.2400 606.9600Q803.1000 605.5600 803.1000 603.3900Q803.1000 601.2200 803.2400 599.9600L803.2400 599.9600Q803.8000 589.3200 808.0700 581.6900Q812.3400 574.0600 819.9000 569.9300Q827.4600 565.8000 837.6800 565.8000L837.6800 565.8000Q849.0200 565.8000 856.7200 570.4900Q864.4200 575.1800 868.3400 583.5100Q872.2600 591.8400 872.2600 602.7600L872.2600 602.7600L872.2600 605.7000Q872.2600 607.1000 871.2800 608.0800Q870.3000 609.0600 868.7600 609.0600L868.7600 609.0600L822.2800 609.0600Q822.2800 609.0600 822.2800 609.4800Q822.2800 609.9000 822.2800 610.1800L822.2800 610.1800Q822.4200 615.0800 824.1700 619.2100Q825.9200 623.3400 829.3500 625.8600Q832.7800 628.3800 837.5400 628.3800L837.5400 628.3800Q841.4600 628.3800 844.1200 627.1900Q846.7800 626 848.4600 624.4600Q850.1400 622.9200 850.8400 621.9400L850.8400 621.9400Q852.1000 620.2600 852.8700 619.9100Q853.6400 619.5600 855.1800 619.5600L855.1800 619.5600L867.2200 619.5600Q868.6200 619.5600 869.5300 620.4000Q870.4400 621.2400 870.3000 622.5000L870.3000 622.5000Q870.1600 624.7400 867.9900 627.9600Q865.8200 631.1800 861.7600 634.2600Q857.7000 637.3400 851.6100 639.3700Q845.5200 641.4000 837.6800 641.4000ZM822.2800 596.8800L822.2800 597.3000L853.2200 597.3000L853.2200 596.8800Q853.2200 591.4200 851.4000 587.2900Q849.5800 583.1600 846.0800 580.8500Q842.5800 578.5400 837.6800 578.5400L837.6800 578.5400Q832.7800 578.5400 829.2800 580.8500Q825.7800 583.1600 824.0300 587.2900Q822.2800 591.4200 822.2800 596.8800L822.2800 596.8800ZM176.0400 780L164.2800 780Q162.8800 780 161.9000 779.0200Q160.9200 778.0400 160.9200 776.6400L160.9200 776.6400L160.9200 685.5000Q160.9200 683.9600 161.9000 682.9800Q162.8800 682 164.2800 682L164.2800 682L175.0600 682Q177.0200 682 177.9300 682.9100Q178.8400 683.8200 179.1200 684.2400L179.1200 684.2400L219.4400 746.9600L219.4400 685.5000Q219.4400 683.9600 220.3500 682.9800Q221.2600 682 222.8000 682L222.8000 682L234.5600 682Q236.1000 682 237.0800 682.9800Q238.0600 683.9600 238.0600 685.5000L238.0600 685.5000L238.0600 776.5000Q238.0600 778.0400 237.0800 779.0200Q236.1000 780 234.7000 780L234.7000 780L223.7800 780Q221.8200 780 220.9800 779.0200Q220.1400 778.0400 219.7200 777.7600L219.7200 777.7600L179.5400 716.4400L179.5400 776.6400Q179.5400 778.0400 178.5600 779.0200Q177.5800 780 176.0400 780L176.0400 780ZM289.5800 781.4000L289.5800 781.4000Q274.0400 781.4000 264.9400 772.4400Q255.8400 763.4800 255.1400 746.9600L255.1400 746.9600Q255.0000 745.5600 255.0000 743.3900Q255.0000 741.2200 255.1400 739.9600L255.1400 739.9600Q255.7000 729.3200 259.9700 721.6900Q264.2400 714.0600 271.8000 709.9300Q279.3600 705.8000 289.5800 705.8000L289.5800 705.8000Q300.9200 705.8000 308.6200 710.4900Q316.3200 715.1800 320.2400 723.5100Q324.1600 731.8400 324.1600 742.7600L324.1600 742.7600L324.1600 745.7000Q324.1600 747.1000 323.1800 748.0800Q322.2000 749.0600 320.6600 749.0600L320.6600 749.0600L274.1800 749.0600Q274.1800 749.0600 274.1800 749.4800Q274.1800 749.9000 274.1800 750.1800L274.1800 750.1800Q274.3200 755.0800 276.0700 759.2100Q277.8200 763.3400 281.2500 765.8600Q284.6800 768.3800 289.4400 768.3800L289.4400 768.3800Q293.3600 768.3800 296.0200 767.1900Q298.6800 766 300.3600 764.4600Q302.0400 762.9200 302.7400 761.9400L302.7400 761.9400Q304 760.2600 304.7700 759.9100Q305.5400 759.5600 307.0800 759.5600L307.0800 759.5600L319.1200 759.5600Q320.5200 759.5600 321.4300 760.4000Q322.3400 761.2400 322.2000 762.5000L322.2000 762.5000Q322.0600 764.7400 319.8900 767.9600Q317.7200 771.1800 313.6600 774.2600Q309.6000 777.3400 303.5100 779.3700Q297.4200 781.4000 289.5800 781.4000ZM274.1800 736.8800L274.1800 737.3000L305.1200 737.3000L305.1200 736.8800Q305.1200 731.4200 303.3000 727.2900Q301.4800 723.1600 297.9800 720.8500Q294.4800 718.5400 289.5800 718.5400L289.5800 718.5400Q284.6800 718.5400 281.1800 720.8500Q277.6800 723.1600 275.9300 727.2900Q274.1800 731.4200 274.1800 736.8800L274.1800 736.8800ZM371.9000 810.8000L371.9000 810.8000Q361.6800 810.8000 355.1000 808.1400Q348.5200 805.4800 344.7400 801.7000Q340.9600 797.9200 339.3500 794.2100Q337.7400 790.5000 337.6000 788.4000L337.6000 788.4000Q337.4600 787 338.5100 785.9500Q339.5600 784.9000 340.9600 784.9000L340.9600 784.9000L353.1400 784.9000Q354.5400 784.9000 355.3800 785.5300Q356.2200 786.1600 356.7800 787.8400L356.7800 787.8400Q357.6200 789.6600 359.0200 791.7600Q360.4200 793.8600 363.2900 795.3300Q366.1600 796.8000 371.2000 796.8000L371.2000 796.8000Q376.5200 796.8000 380.1600 795.2600Q383.8000 793.7200 385.6900 790.0800Q387.5800 786.4400 387.5800 780L387.5800 780L387.5800 770.4800Q384.2200 774.5400 378.9700 777.0600Q373.7200 779.5800 366.0200 779.5800L366.0200 779.5800Q358.6000 779.5800 353.0700 777.1300Q347.5400 774.6800 343.9000 770.2700Q340.2600 765.8600 338.3700 759.8400Q336.4800 753.8200 336.2000 746.5400L336.2000 746.5400Q336.0600 742.7600 336.2000 738.9800L336.2000 738.9800Q336.4800 731.9800 338.3700 725.9600Q340.2600 719.9400 343.9000 715.3900Q347.5400 710.8400 353.0700 708.3200Q358.6000 705.8000 366.0200 705.8000L366.0200 705.8000Q374 705.8000 379.4600 708.8100Q384.9200 711.8200 388.4200 716.3000L388.4200 716.3000L388.4200 710.7000Q388.4200 709.1600 389.4000 708.1800Q390.3800 707.2000 391.7800 707.2000L391.7800 707.2000L403.1200 707.2000Q404.5200 707.2000 405.5000 708.1800Q406.4800 709.1600 406.4800 710.7000L406.4800 710.7000L406.6200 778.1800Q406.6200 788.2600 402.8400 795.5400Q399.0600 802.8200 391.4300 806.8100Q383.8000 810.8000 371.9000 810.8000ZM371.2000 764.7400L371.2000 764.7400Q376.9400 764.7400 380.4400 762.2200Q383.9400 759.7000 385.6200 755.6400Q387.3000 751.5800 387.5800 747.3800L387.5800 747.3800Q387.7200 745.5600 387.7200 742.7600Q387.7200 739.9600 387.5800 738.2800L387.5800 738.2800Q387.3000 733.9400 385.6200 729.9500Q383.9400 725.9600 380.4400 723.3700Q376.9400 720.7800 371.2000 720.7800L371.2000 720.7800Q365.4600 720.7800 361.9600 723.3700Q358.4600 725.9600 356.9900 730.1600Q355.5200 734.3600 355.2400 739.4000L355.2400 739.4000Q354.9600 742.7600 355.2400 746.2600L355.2400 746.2600Q355.5200 751.1600 356.9900 755.4300Q358.4600 759.7000 361.9600 762.2200Q365.4600 764.7400 371.2000 764.7400ZM446.3800 781.4000L446.3800 781.4000Q439.1000 781.4000 433.2200 778.5300Q427.3400 775.6600 423.9100 770.8300Q420.4800 766 420.4800 759.9800L420.4800 759.9800Q420.4800 750.1800 428.4600 744.3700Q436.4400 738.5600 449.3200 736.6000L449.3200 736.6000L468.5000 733.8000L468.5000 730.8600Q468.5000 724.9800 465.5600 721.7600Q462.6200 718.5400 455.4800 718.5400L455.4800 718.5400Q450.4400 718.5400 447.2900 720.5700Q444.1400 722.6000 442.6000 725.9600L442.6000 725.9600Q441.4800 727.7800 439.3800 727.7800L439.3800 727.7800L428.3200 727.7800Q426.7800 727.7800 426.0100 726.9400Q425.2400 726.1000 425.2400 724.7000L425.2400 724.7000Q425.3800 722.4600 427.1300 719.2400Q428.8800 716.0200 432.4500 713.0100Q436.0200 710 441.7600 707.9000Q447.5000 705.8000 455.6200 705.8000L455.6200 705.8000Q464.4400 705.8000 470.5300 707.9700Q476.6200 710.1400 480.2600 713.7800Q483.9000 717.4200 485.5800 722.3200Q487.2600 727.2200 487.2600 732.6800L487.2600 732.6800L487.2600 776.6400Q487.2600 778.0400 486.2800 779.0200Q485.3000 780 483.9000 780L483.9000 780L472.5600 780Q471.0200 780 470.1100 779.0200Q469.2000 778.0400 469.2000 776.6400L469.2000 776.6400L469.2000 771.1800Q467.3800 773.7000 464.3000 776.0800Q461.2200 778.4600 456.8100 779.9300Q452.4000 781.4000 446.3800 781.4000ZM451.1400 768.1000L451.1400 768.1000Q456.0400 768.1000 460.0300 766Q464.0200 763.9000 466.3300 759.4900Q468.6400 755.0800 468.6400 748.3600L468.6400 748.3600L468.6400 745.4200L454.6400 747.6600Q446.3800 748.9200 442.3200 751.7200Q438.2600 754.5200 438.2600 758.5800L438.2600 758.5800Q438.2600 761.6600 440.1500 763.8300Q442.0400 766 444.9800 767.0500Q447.9200 768.1000 451.1400 768.1000ZM549.4200 780L538.0800 780Q529.6800 780 523.9400 777.0600Q518.2000 774.1200 515.4000 768.3100Q512.6000 762.5000 512.6000 753.8200L512.6000 753.8200L512.6000 722.0400L501.5400 722.0400Q500.1400 722.0400 499.1600 721.0600Q498.1800 720.0800 498.1800 718.5400L498.1800 718.5400L498.1800 710.5600Q498.1800 709.1600 499.1600 708.1800Q500.1400 707.2000 501.5400 707.2000L501.5400 707.2000L512.6000 707.2000L512.6000 683.9600Q512.6000 682.5600 513.5100 681.5800Q514.4200 680.6000 515.9600 680.6000L515.9600 680.6000L527.3000 680.6000Q528.7000 680.6000 529.6800 681.5800Q530.6600 682.5600 530.6600 683.9600L530.6600 683.9600L530.6600 707.2000L548.1600 707.2000Q549.5600 707.2000 550.5400 708.1800Q551.5200 709.1600 551.5200 710.5600L551.5200 710.5600L551.5200 718.5400Q551.5200 720.0800 550.5400 721.0600Q549.5600 722.0400 548.1600 722.0400L548.1600 722.0400L530.6600 722.0400L530.6600 752.4200Q530.6600 758.1600 532.6900 761.3800Q534.7200 764.6000 539.7600 764.6000L539.7600 764.6000L549.4200 764.6000Q550.8200 764.6000 551.8000 765.5800Q552.7800 766.5600 552.7800 767.9600L552.7800 767.9600L552.7800 776.6400Q552.7800 778.0400 551.8000 779.0200Q550.8200 780 549.4200 780L549.4200 780ZM580.2200 780L568.6000 780Q567.2000 780 566.2200 779.0200Q565.2400 778.0400 565.2400 776.6400L565.2400 776.6400L565.2400 710.5600Q565.2400 709.1600 566.2200 708.1800Q567.2000 707.2000 568.6000 707.2000L568.6000 707.2000L580.2200 707.2000Q581.7600 707.2000 582.6700 708.1800Q583.5800 709.1600 583.5800 710.5600L583.5800 710.5600L583.5800 776.6400Q583.5800 778.0400 582.6700 779.0200Q581.7600 780 580.2200 780L580.2200 780ZM580.7800 695.1600L568.0400 695.1600Q566.6400 695.1600 565.6600 694.1800Q564.6800 693.2000 564.6800 691.8000L564.6800 691.8000L564.6800 681.7200Q564.6800 680.3200 565.6600 679.3400Q566.6400 678.3600 568.0400 678.3600L568.0400 678.3600L580.7800 678.3600Q582.3200 678.3600 583.3000 679.3400Q584.2800 680.3200 584.2800 681.7200L584.2800 681.7200L584.2800 691.8000Q584.2800 693.2000 583.3000 694.1800Q582.3200 695.1600 580.7800 695.1600L580.7800 695.1600ZM638.3200 780L627.9600 780Q625.7200 780 624.6700 778.9500Q623.6200 777.9000 622.9200 776.5000L622.9200 776.5000L596.7400 711.5400Q596.4600 710.8400 596.4600 710.2800L596.4600 710.2800Q596.4600 709.0200 597.3700 708.1100Q598.2800 707.2000 599.5400 707.2000L599.5400 707.2000L610.8800 707.2000Q612.5600 707.2000 613.4000 708.1100Q614.2400 709.0200 614.5200 709.8600L614.5200 709.8600L633.1400 759L651.7600 709.8600Q652.0400 709.0200 652.8800 708.1100Q653.7200 707.2000 655.4000 707.2000L655.4000 707.2000L666.8800 707.2000Q668 707.2000 668.9100 708.1100Q669.8200 709.0200 669.8200 710.2800L669.8200 710.2800Q669.8200 710.8400 669.6800 711.5400L669.6800 711.5400L643.3600 776.5000Q642.8000 777.9000 641.6800 778.9500Q640.5600 780 638.3200 780L638.3200 780ZM714.7600 781.4000L714.7600 781.4000Q703.5600 781.4000 695.9300 777.4800Q688.3000 773.5600 684.3100 766.4200Q680.3200 759.2800 679.7600 749.7600L679.7600 749.7600Q679.6200 747.2400 679.6200 743.6000Q679.6200 739.9600 679.7600 737.4400L679.7600 737.4400Q680.3200 727.7800 684.4500 720.7100Q688.5800 713.6400 696.2100 709.7200Q703.8400 705.8000 714.7600 705.8000L714.7600 705.8000Q725.6800 705.8000 733.3100 709.7200Q740.9400 713.6400 745.0700 720.7100Q749.2000 727.7800 749.7600 737.4400L749.7600 737.4400Q749.9000 739.9600 749.9000 743.6000Q749.9000 747.2400 749.7600 749.7600L749.7600 749.7600Q749.2000 759.2800 745.2100 766.4200Q741.2200 773.5600 733.5900 777.4800Q725.9600 781.4000 714.7600 781.4000ZM714.7600 767.5400L714.7600 767.5400Q722.1800 767.5400 726.2400 762.8500Q730.3000 758.1600 730.7200 749.0600L730.7200 749.0600Q730.8600 746.9600 730.8600 743.6000Q730.8600 740.2400 730.7200 738.1400L730.7200 738.1400Q730.3000 729.0400 726.2400 724.3500Q722.1800 719.6600 714.7600 719.6600L714.7600 719.6600Q707.3400 719.6600 703.2800 724.3500Q699.2200 729.0400 698.8000 738.1400L698.8000 738.1400Q698.6600 740.2400 698.6600 743.6000Q698.6600 746.9600 698.8000 749.0600L698.8000 749.0600Q699.2200 758.1600 703.2800 762.8500Q707.3400 767.5400 714.7600 767.5400ZM793.0200 781.4000L793.0200 781.4000Q784.6200 781.4000 778.6700 779.4400Q772.7200 777.4800 768.9400 774.5400Q765.1600 771.6000 763.3400 768.6600Q761.5200 765.7200 761.3800 763.7600L761.3800 763.7600Q761.2400 762.2200 762.2900 761.3100Q763.3400 760.4000 764.6000 760.4000L764.6000 760.4000L775.6600 760.4000Q776.2200 760.4000 776.6400 760.5400Q777.0600 760.6800 777.7600 761.3800L777.7600 761.3800Q779.5800 762.9200 781.6100 764.6000Q783.6400 766.2800 786.4400 767.4700Q789.2400 768.6600 793.4400 768.6600L793.4400 768.6600Q798.9000 768.6600 802.6100 766.4900Q806.3200 764.3200 806.3200 760.2600L806.3200 760.2600Q806.3200 757.3200 804.7100 755.5000Q803.1000 753.6800 798.7600 752.2100Q794.4200 750.7400 786.4400 749.0600L786.4400 749.0600Q778.6000 747.2400 773.4200 744.4400Q768.2400 741.6400 765.7200 737.4400Q763.2000 733.2400 763.2000 727.6400L763.2000 727.6400Q763.2000 722.1800 766.4900 717.2100Q769.7800 712.2400 776.2900 709.0200Q782.8000 705.8000 792.4600 705.8000L792.4600 705.8000Q800.0200 705.8000 805.6200 707.6900Q811.2200 709.5800 814.9300 712.3800Q818.6400 715.1800 820.6000 718.0500Q822.5600 720.9200 822.7000 723.0200L822.7000 723.0200Q822.8400 724.5600 821.8600 725.4700Q820.8800 726.3800 819.6200 726.3800L819.6200 726.3800L809.2600 726.3800Q808.5600 726.3800 808 726.1000Q807.4400 725.8200 806.8800 725.4000L806.8800 725.4000Q805.3400 724 803.5200 722.3900Q801.7000 720.7800 799.1100 719.6600Q796.5200 718.5400 792.3200 718.5400L792.3200 718.5400Q787 718.5400 784.2000 720.8500Q781.4000 723.1600 781.4000 726.6600L781.4000 726.6600Q781.4000 729.0400 782.7300 730.7900Q784.0600 732.5400 788.1200 734.0800Q792.1800 735.6200 800.4400 737.3000L800.4400 737.3000Q809.8200 738.9800 815.3500 742.2700Q820.8800 745.5600 823.1900 749.8300Q825.5000 754.1000 825.5000 759.2800L825.5000 759.2800Q825.5000 765.5800 821.7900 770.6200Q818.0800 775.6600 810.8700 778.5300Q803.6600 781.4000 793.0200 781.4000ZM899 781.4000L899 781.4000Q891.7200 781.4000 886.1900 778.9500Q880.6600 776.5000 877.0200 772.0200Q873.3800 767.5400 871.4200 761.4500Q869.4600 755.3600 869.1800 748.0800L869.1800 748.0800Q869.0400 745.5600 869.0400 743.5300Q869.0400 741.5000 869.1800 738.9800L869.1800 738.9800Q869.4600 731.9800 871.3500 725.9600Q873.2400 719.9400 876.9500 715.3900Q880.6600 710.8400 886.1900 708.3200Q891.7200 705.8000 899 705.8000L899 705.8000Q906.5600 705.8000 911.8100 708.3900Q917.0600 710.9800 920.5600 715.0400L920.5600 715.0400L920.5600 683.9600Q920.5600 682.5600 921.4700 681.5800Q922.3800 680.6000 923.9200 680.6000L923.9200 680.6000L935.8200 680.6000Q937.2200 680.6000 938.2000 681.5800Q939.1800 682.5600 939.1800 683.9600L939.1800 683.9600L939.1800 776.6400Q939.1800 778.0400 938.2000 779.0200Q937.2200 780 935.8200 780L935.8200 780L924.7600 780Q923.2200 780 922.3100 779.0200Q921.4000 778.0400 921.4000 776.6400L921.4000 776.6400L921.4000 771.4600Q917.9000 775.8000 912.5100 778.6000Q907.1200 781.4000 899 781.4000ZM904.1800 766.4200L904.1800 766.4200Q910.0600 766.4200 913.5600 763.7600Q917.0600 761.1000 918.7400 756.9700Q920.4200 752.8400 920.5600 748.5000L920.5600 748.5000Q920.7000 745.9800 920.7000 743.1100Q920.7000 740.2400 920.5600 737.7200L920.5600 737.7200Q920.4200 733.5200 918.6000 729.6700Q916.7800 725.8200 913.2800 723.3000Q909.7800 720.7800 904.1800 720.7800L904.1800 720.7800Q898.3000 720.7800 894.8700 723.3700Q891.4400 725.9600 889.9000 730.1600Q888.3600 734.3600 888.0800 739.4000L888.0800 739.4000Q887.9400 743.6000 888.0800 747.8000L888.0800 747.8000Q888.3600 752.8400 889.9000 757.0400Q891.4400 761.2400 894.8700 763.8300Q898.3000 766.4200 904.1800 766.4200ZM989.1600 781.4000L989.1600 781.4000Q973.6200 781.4000 964.5200 772.4400Q955.4200 763.4800 954.7200 746.9600L954.7200 746.9600Q954.5800 745.5600 954.5800 743.3900Q954.5800 741.2200 954.7200 739.9600L954.7200 739.9600Q955.2800 729.3200 959.5500 721.6900Q963.8200 714.0600 971.3800 709.9300Q978.9400 705.8000 989.1600 705.8000L989.1600 705.8000Q1000.5000 705.8000 1008.2000 710.4900Q1015.9000 715.1800 1019.8200 723.5100Q1023.7400 731.8400 1023.7400 742.7600L1023.7400 742.7600L1023.7400 745.7000Q1023.7400 747.1000 1022.7600 748.0800Q1021.7800 749.0600 1020.2400 749.0600L1020.2400 749.0600L973.7600 749.0600Q973.7600 749.0600 973.7600 749.4800Q973.7600 749.9000 973.7600 750.1800L973.7600 750.1800Q973.9000 755.0800 975.6500 759.2100Q977.4000 763.3400 980.8300 765.8600Q984.2600 768.3800 989.0200 768.3800L989.0200 768.3800Q992.9400 768.3800 995.6000 767.1900Q998.2600 766 999.9400 764.4600Q1001.6200 762.9200 1002.3200 761.9400L1002.3200 761.9400Q1003.5800 760.2600 1004.3500 759.9100Q1005.1200 759.5600 1006.6600 759.5600L1006.6600 759.5600L1018.7000 759.5600Q1020.1000 759.5600 1021.0100 760.4000Q1021.9200 761.2400 1021.7800 762.5000L1021.7800 762.5000Q1021.6400 764.7400 1019.4700 767.9600Q1017.3000 771.1800 1013.2400 774.2600Q1009.1800 777.3400 1003.0900 779.3700Q997.0000 781.4000 989.1600 781.4000ZM973.7600 736.8800L973.7600 737.3000L1004.7000 737.3000L1004.7000 736.8800Q1004.7000 731.4200 1002.8800 727.2900Q1001.0600 723.1600 997.5600 720.8500Q994.0600 718.5400 989.1600 718.5400L989.1600 718.5400Q984.2600 718.5400 980.7600 720.8500Q977.2600 723.1600 975.5100 727.2900Q973.7600 731.4200 973.7600 736.8800L973.7600 736.8800ZM1085.6200 780L1074 780Q1072.6000 780 1071.6200 779.0200Q1070.6400 778.0400 1070.6400 776.6400L1070.6400 776.6400L1070.6400 710.5600Q1070.6400 709.1600 1071.6200 708.1800Q1072.6000 707.2000 1074 707.2000L1074 707.2000L1085.6200 707.2000Q1087.1600 707.2000 1088.0700 708.1800Q1088.9800 709.1600 1088.9800 710.5600L1088.9800 710.5600L1088.9800 776.6400Q1088.9800 778.0400 1088.0700 779.0200Q1087.1600 780 1085.6200 780L1085.6200 780ZM1082.5400 696.7000L1074 696.7000Q1071.7600 696.7000 1071.7600 694.4600L1071.7600 694.4600Q1071.7600 693.3400 1072.4600 692.6400L1072.4600 692.6400L1083.8000 678.7800Q1085.2000 677.2400 1086.1800 676.7500Q1087.1600 676.2600 1088.9800 676.2600L1088.9800 676.2600L1102.9800 676.2600Q1105.6400 676.2600 1105.6400 678.9200L1105.6400 678.9200Q1105.6400 679.9000 1104.9400 680.6000L1104.9400 680.6000L1087.5800 694.8800Q1086.4600 695.8600 1085.4100 696.2800Q1084.3600 696.7000 1082.5400 696.7000L1082.5400 696.7000ZM1123.2800 780L1110.9600 780Q1109.5600 780 1108.5800 779.0200Q1107.6000 778.0400 1107.6000 776.6400L1107.6000 776.6400L1107.6000 710.5600Q1107.6000 709.1600 1108.5800 708.1800Q1109.5600 707.2000 1110.9600 707.2000L1110.9600 707.2000L1122.4400 707.2000Q1123.8400 707.2000 1124.8200 708.1800Q1125.8000 709.1600 1125.8000 710.5600L1125.8000 710.5600L1125.8000 716.3000Q1129.4400 711.8200 1135.1100 708.8100Q1140.7800 705.8000 1149.1800 705.8000L1149.1800 705.8000Q1157.7200 705.8000 1164.0200 709.6500Q1170.3200 713.5000 1173.7500 720.5000Q1177.1800 727.5000 1177.1800 737.3000L1177.1800 737.3000L1177.1800 776.6400Q1177.1800 778.0400 1176.2000 779.0200Q1175.2200 780 1173.8200 780L1173.8200 780L1161.5000 780Q1160.1000 780 1159.1200 779.0200Q1158.1400 778.0400 1158.1400 776.6400L1158.1400 776.6400L1158.1400 738.1400Q1158.1400 730.0200 1154.1500 725.4000Q1150.1600 720.7800 1142.6000 720.7800L1142.6000 720.7800Q1135.3200 720.7800 1130.9800 725.4000Q1126.6400 730.0200 1126.6400 738.1400L1126.6400 738.1400L1126.6400 776.6400Q1126.6400 778.0400 1125.6600 779.0200Q1124.6800 780 1123.2800 780L1123.2800 780ZM1221.9800 781.4000L1221.9800 781.4000Q1214.7000 781.4000 1209.1700 778.9500Q1203.6400 776.5000 1200.0000 772.0200Q1196.3600 767.5400 1194.4000 761.4500Q1192.4400 755.3600 1192.1600 748.0800L1192.1600 748.0800Q1192.0200 745.5600 1192.0200 743.5300Q1192.0200 741.5000 1192.1600 738.9800L1192.1600 738.9800Q1192.4400 731.9800 1194.3300 725.9600Q1196.2200 719.9400 1199.9300 715.3900Q1203.6400 710.8400 1209.1700 708.3200Q1214.7000 705.8000 1221.9800 705.8000L1221.9800 705.8000Q1229.5400 705.8000 1234.7900 708.3900Q1240.0400 710.9800 1243.5400 715.0400L1243.5400 715.0400L1243.5400 683.9600Q1243.5400 682.5600 1244.4500 681.5800Q1245.3600 680.6000 1246.9000 680.6000L1246.9000 680.6000L1258.8000 680.6000Q1260.2000 680.6000 1261.1800 681.5800Q1262.1600 682.5600 1262.1600 683.9600L1262.1600 683.9600L1262.1600 776.6400Q1262.1600 778.0400 1261.1800 779.0200Q1260.2000 780 1258.8000 780L1258.8000 780L1247.7400 780Q1246.2000 780 1245.2900 779.0200Q1244.3800 778.0400 1244.3800 776.6400L1244.3800 776.6400L1244.3800 771.4600Q1240.8800 775.8000 1235.4900 778.6000Q1230.1000 781.4000 1221.9800 781.4000ZM1227.1600 766.4200L1227.1600 766.4200Q1233.0400 766.4200 1236.5400 763.7600Q1240.0400 761.1000 1241.7200 756.9700Q1243.4000 752.8400 1243.5400 748.5000L1243.5400 748.5000Q1243.6800 745.9800 1243.6800 743.1100Q1243.6800 740.2400 1243.5400 737.7200L1243.5400 737.7200Q1243.4000 733.5200 1241.5800 729.6700Q1239.7600 725.8200 1236.2600 723.3000Q1232.7600 720.7800 1227.1600 720.7800L1227.1600 720.7800Q1221.2800 720.7800 1217.8500 723.3700Q1214.4200 725.9600 1212.8800 730.1600Q1211.3400 734.3600 1211.0600 739.4000L1211.0600 739.4000Q1210.9200 743.6000 1211.0600 747.8000L1211.0600 747.8000Q1211.3400 752.8400 1212.8800 757.0400Q1214.4200 761.2400 1217.8500 763.8300Q1221.2800 766.4200 1227.1600 766.4200ZM1295.7600 780L1284.1400 780Q1282.7400 780 1281.7600 779.0200Q1280.7800 778.0400 1280.7800 776.6400L1280.7800 776.6400L1280.7800 710.5600Q1280.7800 709.1600 1281.7600 708.1800Q1282.7400 707.2000 1284.1400 707.2000L1284.1400 707.2000L1295.7600 707.2000Q1297.3000 707.2000 1298.2100 708.1800Q1299.1200 709.1600 1299.1200 710.5600L1299.1200 710.5600L1299.1200 776.6400Q1299.1200 778.0400 1298.2100 779.0200Q1297.3000 780 1295.7600 780L1295.7600 780ZM1296.3200 695.1600L1283.5800 695.1600Q1282.1800 695.1600 1281.2000 694.1800Q1280.2200 693.2000 1280.2200 691.8000L1280.2200 691.8000L1280.2200 681.7200Q1280.2200 680.3200 1281.2000 679.3400Q1282.1800 678.3600 1283.5800 678.3600L1283.5800 678.3600L1296.3200 678.3600Q1297.8600 678.3600 1298.8400 679.3400Q1299.8200 680.3200 1299.8200 681.7200L1299.8200 681.7200L1299.8200 691.8000Q1299.8200 693.2000 1298.8400 694.1800Q1297.8600 695.1600 1296.3200 695.1600L1296.3200 695.1600ZM1349.2400 781.4000L1349.2400 781.4000Q1339.1600 781.4000 1331.5300 777.6200Q1323.9000 773.8400 1319.6300 766.6300Q1315.3600 759.4200 1314.9400 749.2000L1314.9400 749.2000Q1314.8000 747.1000 1314.8000 743.6700Q1314.8000 740.2400 1314.9400 738L1314.9400 738Q1315.3600 727.7800 1319.6300 720.5700Q1323.9000 713.3600 1331.5300 709.5800Q1339.1600 705.8000 1349.2400 705.8000L1349.2400 705.8000Q1358.2000 705.8000 1364.5000 708.2500Q1370.8000 710.7000 1374.8600 714.5500Q1378.9200 718.4000 1380.9500 722.5300Q1382.9800 726.6600 1383.1200 730.0200L1383.1200 730.0200Q1383.2600 731.5600 1382.2100 732.4700Q1381.1600 733.3800 1379.7600 733.3800L1379.7600 733.3800L1367.4400 733.3800Q1366.0400 733.3800 1365.2700 732.6800Q1364.5000 731.9800 1363.8000 730.5800L1363.8000 730.5800Q1361.7000 724.9800 1358.2700 722.6700Q1354.8400 720.3600 1349.5200 720.3600L1349.5200 720.3600Q1342.5200 720.3600 1338.3900 724.7700Q1334.2600 729.1800 1333.9800 738.7000L1333.9800 738.7000Q1333.7000 744.0200 1333.9800 748.5000L1333.9800 748.5000Q1334.2600 758.1600 1338.3900 762.5000Q1342.5200 766.8400 1349.5200 766.8400L1349.5200 766.8400Q1354.9800 766.8400 1358.3400 764.5300Q1361.7000 762.2200 1363.8000 756.6200L1363.8000 756.6200Q1364.5000 755.2200 1365.2700 754.5200Q1366.0400 753.8200 1367.4400 753.8200L1367.4400 753.8200L1379.7600 753.8200Q1381.1600 753.8200 1382.2100 754.7300Q1383.2600 755.6400 1383.1200 757.1800L1383.1200 757.1800Q1382.9800 759.7000 1381.7900 762.8500Q1380.6000 766 1378.0100 769.2900Q1375.4200 772.5800 1371.5000 775.3100Q1367.5800 778.0400 1362.0500 779.7200Q1356.5200 781.4000 1349.2400 781.4000ZM1429.0400 781.4000L1429.0400 781.4000Q1413.5000 781.4000 1404.4000 772.4400Q1395.3000 763.4800 1394.6000 746.9600L1394.6000 746.9600Q1394.4600 745.5600 1394.4600 743.3900Q1394.4600 741.2200 1394.6000 739.9600L1394.6000 739.9600Q1395.1600 729.3200 1399.4300 721.6900Q1403.7000 714.0600 1411.2600 709.9300Q1418.8200 705.8000 1429.0400 705.8000L1429.0400 705.8000Q1440.3800 705.8000 1448.0800 710.4900Q1455.7800 715.1800 1459.7000 723.5100Q1463.6200 731.8400 1463.6200 742.7600L1463.6200 742.7600L1463.6200 745.7000Q1463.6200 747.1000 1462.6400 748.0800Q1461.6600 749.0600 1460.1200 749.0600L1460.1200 749.0600L1413.6400 749.0600Q1413.6400 749.0600 1413.6400 749.4800Q1413.6400 749.9000 1413.6400 750.1800L1413.6400 750.1800Q1413.7800 755.0800 1415.5300 759.2100Q1417.2800 763.3400 1420.7100 765.8600Q1424.1400 768.3800 1428.9000 768.3800L1428.9000 768.3800Q1432.8200 768.3800 1435.4800 767.1900Q1438.1400 766 1439.8200 764.4600Q1441.5000 762.9200 1442.2000 761.9400L1442.2000 761.9400Q1443.4600 760.2600 1444.2300 759.9100Q1445.0000 759.5600 1446.5400 759.5600L1446.5400 759.5600L1458.5800 759.5600Q1459.9800 759.5600 1460.8900 760.4000Q1461.8000 761.2400 1461.6600 762.5000L1461.6600 762.5000Q1461.5200 764.7400 1459.3500 767.9600Q1457.1800 771.1800 1453.1200 774.2600Q1449.0600 777.3400 1442.9700 779.3700Q1436.8800 781.4000 1429.0400 781.4000ZM1413.6400 736.8800L1413.6400 737.3000L1444.5800 737.3000L1444.5800 736.8800Q1444.5800 731.4200 1442.7600 727.2900Q1440.9400 723.1600 1437.4400 720.8500Q1433.9400 718.5400 1429.0400 718.5400L1429.0400 718.5400Q1424.1400 718.5400 1420.6400 720.8500Q1417.1400 723.1600 1415.3900 727.2900Q1413.6400 731.4200 1413.6400 736.8800L1413.6400 736.8800ZM1506.0400 781.4000L1506.0400 781.4000Q1497.6400 781.4000 1491.6900 779.4400Q1485.7400 777.4800 1481.9600 774.5400Q1478.1800 771.6000 1476.3600 768.6600Q1474.5400 765.7200 1474.4000 763.7600L1474.4000 763.7600Q1474.2600 762.2200 1475.3100 761.3100Q1476.3600 760.4000 1477.6200 760.4000L1477.6200 760.4000L1488.6800 760.4000Q1489.2400 760.4000 1489.6600 760.5400Q1490.0800 760.6800 1490.7800 761.3800L1490.7800 761.3800Q1492.6000 762.9200 1494.6300 764.6000Q1496.6600 766.2800 1499.4600 767.4700Q1502.2600 768.6600 1506.4600 768.6600L1506.4600 768.6600Q1511.9200 768.6600 1515.6300 766.4900Q1519.3400 764.3200 1519.3400 760.2600L1519.3400 760.2600Q1519.3400 757.3200 1517.7300 755.5000Q1516.1200 753.6800 1511.7800 752.2100Q1507.4400 750.7400 1499.4600 749.0600L1499.4600 749.0600Q1491.6200 747.2400 1486.4400 744.4400Q1481.2600 741.6400 1478.7400 737.4400Q1476.2200 733.2400 1476.2200 727.6400L1476.2200 727.6400Q1476.2200 722.1800 1479.5100 717.2100Q1482.8000 712.2400 1489.3100 709.0200Q1495.8200 705.8000 1505.4800 705.8000L1505.4800 705.8000Q1513.0400 705.8000 1518.6400 707.6900Q1524.2400 709.5800 1527.9500 712.3800Q1531.6600 715.1800 1533.6200 718.0500Q1535.5800 720.9200 1535.7200 723.0200L1535.7200 723.0200Q1535.8600 724.5600 1534.8800 725.4700Q1533.9000 726.3800 1532.6400 726.3800L1532.6400 726.3800L1522.2800 726.3800Q1521.5800 726.3800 1521.0200 726.1000Q1520.4600 725.8200 1519.9000 725.4000L1519.9000 725.4000Q1518.3600 724 1516.5400 722.3900Q1514.7200 720.7800 1512.1300 719.6600Q1509.5400 718.5400 1505.3400 718.5400L1505.3400 718.5400Q1500.0200 718.5400 1497.2200 720.8500Q1494.4200 723.1600 1494.4200 726.6600L1494.4200 726.6600Q1494.4200 729.0400 1495.7500 730.7900Q1497.0800 732.5400 1501.1400 734.0800Q1505.2000 735.6200 1513.4600 737.3000L1513.4600 737.3000Q1522.8400 738.9800 1528.3700 742.2700Q1533.9000 745.5600 1536.2100 749.8300Q1538.5200 754.1000 1538.5200 759.2800L1538.5200 759.2800Q1538.5200 765.5800 1534.8100 770.6200Q1531.1000 775.6600 1523.8900 778.5300Q1516.6800 781.4000 1506.0400 781.4000Z" id="title"/></g></svg>