<svg xmlns="http://www.w3.org/2000/svg" version="1.1" xmlns:xlink="http://www.w3.org/1999/xlink" xmlns:svgjs="http://svgjs.dev/svgjs" viewBox="0 0 1920 1080" id="cb5726cd-d2c6-4577-ba71-cdbe56fec591"><g><rect width="1920" height="1080" fill="#9d9c62"/></g><g fill="#e06b49"><path d="M969.5 217C561.465 217 231 547.465 231 955.5C231 1363.53 561.465 1694 969.5 1694C1377.53 1694 1708 1363.53 1708 955.5C1708 547.465 1377.53 217 969.5 217ZM969.5 1309.34C773.983 1309.34 615.658 1151.02 615.658 955.5C615.658 759.983 773.983 601.658 969.5 601.658C1165.02 601.658 1323.34 759.983 1323.34 955.5C1323.34 1151.02 1165.02 1309.34 969.5 1309.34Z"/></g><g fill="#ffffff" opacity="0.2"><path d="M1432 918.479L1616.48 734V918.479H1432Z"/><path d="M1616.48 918.479L1800.52 734V918.479H1616.48Z"/><path d="M1800.52 918.479L1985 734V918.479H1800.52Z"/><path d="M1432 1102.52L1616.48 918.479V1102.52H1432Z"/><path d="M1616.48 1102.52L1800.52 918.479V1102.52H1616.48Z"/><path d="M1800.52 1102.52L1985 918.479V1102.52H1800.52Z"/><path d="M499 154.521L683.479 -29.5215V154.521H499Z"/><path d="M683.479 154.521L867.521 -29.5215V154.521H683.479Z"/><path d="M867.521 154.521L1052 -29.5215V154.521H867.521Z"/><path d="M499 339L683.479 154.521V339H499Z"/><path d="M683.479 339L867.521 154.521V339H683.479Z"/><path d="M867.521 339L1052 154.521V339H867.521Z"/></g><g><path d="M178.635 139.281L184.422 144.246V166.626H215.704L219.958 172.147L215.69 177.397H184.422V198.795L178.635 203.747L173 198.795V144.232L178.635 139.281ZM195.554 195.68H219.406L223.397 200.915L219.143 206.45H195.554L191.7 201.342L195.554 195.68ZM196.382 138H219.129L223.383 143.52L219.129 148.77H196.659L192.115 143.677L196.382 138ZM323.155 148.628L328.251 154.291L323.155 159.968H246.13L241.172 154.291L246.13 148.628H323.155ZM237.043 172.147L241.849 167.893L246.669 172.147V178.393C246.669 188.879 249.417 197.515 261.668 197.515H264.14C275.147 197.515 281.197 189.86 281.197 177.952V172.005L285.879 167.75L290.699 171.862V178.379C290.699 189.007 293.723 196.946 305.56 196.946H307.618C319.178 196.946 321.235 187.869 321.373 177.952V171.578L326.056 167.608L331 171.72V178.094C330.862 191.838 327.285 207.574 308.032 207.574H305.974C294.552 207.574 288.365 202.324 285.892 195.808C283.006 202.466 275.299 208.286 264.844 208.286H262.358C242.553 208.286 237.194 195.964 237.056 178.663V172.147H237.043ZM276.391 274.744L273.642 267.089L280.796 264.969L305.974 276.721V252.491L311.07 248.095L316.291 252.491V281.829L325.641 286.226L328.251 293.311L320.959 296L276.391 274.744ZM321.235 223.011L328.113 226.27L325.917 233.497L264.002 263.119L256.571 260.146L259.596 252.776L321.235 223.011ZM231.905 263.404L237.954 268.512C237.402 286.51 222.403 296 204.669 296H202.874C194.062 296 183.759 292.6 177.157 286.083L177.834 278.855L184.298 278.002C189.118 282.256 195.858 285.229 202.183 285.229H204.117C216.091 285.229 225.303 280.136 226.27 268.085L231.905 263.404ZM226.256 251.638C225.704 239.16 216.629 234.209 204.103 234.209H202.169C194.739 234.209 189.104 237.182 184.284 241.436L177.834 240.583L177.143 233.355C183.745 226.696 192.957 223.58 202.597 223.58H204.517C222.403 223.58 237.402 232.942 237.94 251.211L231.891 256.176L226.256 251.638Z" fill="#ffffff"/></g><g fill="#ffffff" id="info-group"><path d="M167.0800 430L154.9000 430Q153.7800 430 152.8700 429.1600Q151.9600 428.3200 151.9600 427.0600L151.9600 427.0600Q151.9600 426.5000 152.2400 425.8000L152.2400 425.8000L185.9800 335.5000Q186.4000 334.1000 187.5900 333.0500Q188.7800 332 190.8800 332L190.8800 332L206.1400 332Q208.2400 332 209.3600 333.0500Q210.4800 334.1000 211.0400 335.5000L211.0400 335.5000L244.7800 425.8000Q244.9200 426.5000 244.9200 427.0600L244.9200 427.0600Q244.9200 428.3200 244.0800 429.1600Q243.2400 430 242.1200 430L242.1200 430L229.9400 430Q227.9800 430 227.0700 429.0900Q226.1600 428.1800 225.8800 427.3400L225.8800 427.3400L219.3000 410.2600L177.7200 410.2600L171.1400 427.3400Q170.8600 428.1800 169.9500 429.0900Q169.0400 430 167.0800 430L167.0800 430ZM198.4400 350.9000L182.6200 394.1600L214.4000 394.1600L198.4400 350.9000ZM283.2800 431.4000L283.2800 431.4000Q274.7400 431.4000 268.5100 427.5500Q262.2800 423.7000 258.9200 416.6300Q255.5600 409.5600 255.5600 399.9000L255.5600 399.9000L255.5600 360.5600Q255.5600 359.1600 256.5400 358.1800Q257.5200 357.2000 258.9200 357.2000L258.9200 357.2000L271.2400 357.2000Q272.7800 357.2000 273.6900 358.1800Q274.6000 359.1600 274.6000 360.5600L274.6000 360.5600L274.6000 399.0600Q274.6000 416.4200 289.8600 416.4200L289.8600 416.4200Q297.1400 416.4200 301.4100 411.8000Q305.6800 407.1800 305.6800 399.0600L305.6800 399.0600L305.6800 360.5600Q305.6800 359.1600 306.6600 358.1800Q307.6400 357.2000 309.0400 357.2000L309.0400 357.2000L321.3600 357.2000Q322.7600 357.2000 323.7400 358.1800Q324.7200 359.1600 324.7200 360.5600L324.7200 360.5600L324.7200 426.6400Q324.7200 428.0400 323.7400 429.0200Q322.7600 430 321.3600 430L321.3600 430L310.0200 430Q308.4800 430 307.5700 429.0200Q306.6600 428.0400 306.6600 426.6400L306.6600 426.6400L306.6600 420.9000Q302.8800 425.8000 297.2800 428.6000Q291.6800 431.4000 283.2800 431.4000ZM358.3200 430L346.7000 430Q345.3000 430 344.3200 429.0200Q343.3400 428.0400 343.3400 426.6400L343.3400 426.6400L343.3400 333.9600Q343.3400 332.5600 344.3200 331.5800Q345.3000 330.6000 346.7000 330.6000L346.7000 330.6000L358.3200 330.6000Q359.7200 330.6000 360.7000 331.5800Q361.6800 332.5600 361.6800 333.9600L361.6800 333.9600L361.6800 426.6400Q361.6800 428.0400 360.7000 429.0200Q359.7200 430 358.3200 430L358.3200 430ZM401.4400 431.4000L401.4400 431.4000Q394.1600 431.4000 388.2800 428.5300Q382.4000 425.6600 378.9700 420.8300Q375.5400 416 375.5400 409.9800L375.5400 409.9800Q375.5400 400.1800 383.5200 394.3700Q391.5000 388.5600 404.3800 386.6000L404.3800 386.6000L423.5600 383.8000L423.5600 380.8600Q423.5600 374.9800 420.6200 371.7600Q417.6800 368.5400 410.5400 368.5400L410.5400 368.5400Q405.5000 368.5400 402.3500 370.5700Q399.2000 372.6000 397.6600 375.9600L397.6600 375.9600Q396.5400 377.7800 394.4400 377.7800L394.4400 377.7800L383.3800 377.7800Q381.8400 377.7800 381.0700 376.9400Q380.3000 376.1000 380.3000 374.7000L380.3000 374.7000Q380.4400 372.4600 382.1900 369.2400Q383.9400 366.0200 387.5100 363.0100Q391.0800 360 396.8200 357.9000Q402.5600 355.8000 410.6800 355.8000L410.6800 355.8000Q419.5000 355.8000 425.5900 357.9700Q431.6800 360.1400 435.3200 363.7800Q438.9600 367.4200 440.6400 372.3200Q442.3200 377.2200 442.3200 382.6800L442.3200 382.6800L442.3200 426.6400Q442.3200 428.0400 441.3400 429.0200Q440.3600 430 438.9600 430L438.9600 430L427.6200 430Q426.0800 430 425.1700 429.0200Q424.2600 428.0400 424.2600 426.6400L424.2600 426.6400L424.2600 421.1800Q422.4400 423.7000 419.3600 426.0800Q416.2800 428.4600 411.8700 429.9300Q407.4600 431.4000 401.4400 431.4000ZM406.2000 418.1000L406.2000 418.1000Q411.1000 418.1000 415.0900 416Q419.0800 413.9000 421.3900 409.4900Q423.7000 405.0800 423.7000 398.3600L423.7000 398.3600L423.7000 395.4200L409.7000 397.6600Q401.4400 398.9200 397.3800 401.7200Q393.3200 404.5200 393.3200 408.5800L393.3200 408.5800Q393.3200 411.6600 395.2100 413.8300Q397.1000 416 400.0400 417.0500Q402.9800 418.1000 406.2000 418.1000ZM550.5400 430L538.3600 430Q536.9600 430 535.9800 429.0200Q535.0000 428.0400 535.0000 426.6400L535.0000 426.6400L535.0000 408.7200L490.6200 408.7200Q489.0800 408.7200 488.1700 407.7400Q487.2600 406.7600 487.2600 405.3600L487.2600 405.3600L487.2600 395.8400Q487.2600 395 487.6100 393.8100Q487.9600 392.6200 488.8000 391.6400L488.8000 391.6400L530.1000 334.3800Q531.9200 332 535.2800 332L535.2800 332L550.5400 332Q551.9400 332 552.9200 332.9800Q553.9000 333.9600 553.9000 335.3600L553.9000 335.3600L553.9000 392.2000L566.3600 392.2000Q568.0400 392.2000 568.9500 393.1100Q569.8600 394.0200 569.8600 395.5600L569.8600 395.5600L569.8600 405.3600Q569.8600 406.7600 568.8800 407.7400Q567.9000 408.7200 566.5000 408.7200L566.5000 408.7200L553.9000 408.7200L553.9000 426.6400Q553.9000 428.0400 552.9200 429.0200Q551.9400 430 550.5400 430L550.5400 430ZM535.4200 352.3000L506.7200 392.7600L535.4200 392.7600L535.4200 352.3000ZM600.3800 381L586.5200 381Q585.1200 381 584.1400 380.0200Q583.1600 379.0400 583.1600 377.6400L583.1600 377.6400L583.1600 364.3400Q583.1600 362.8000 584.1400 361.8200Q585.1200 360.8400 586.5200 360.8400L586.5200 360.8400L600.3800 360.8400Q601.9200 360.8400 602.9000 361.8200Q603.8800 362.8000 603.8800 364.3400L603.8800 364.3400L603.8800 377.6400Q603.8800 379.0400 602.9000 380.0200Q601.9200 381 600.3800 381L600.3800 381ZM600.3800 430L586.5200 430Q585.1200 430 584.1400 429.0200Q583.1600 428.0400 583.1600 426.6400L583.1600 426.6400L583.1600 413.3400Q583.1600 411.8000 584.1400 410.8200Q585.1200 409.8400 586.5200 409.8400L586.5200 409.8400L600.3800 409.8400Q601.9200 409.8400 602.9000 410.8200Q603.8800 411.8000 603.8800 413.3400L603.8800 413.3400L603.8800 426.6400Q603.8800 428.0400 602.9000 429.0200Q601.9200 430 600.3800 430L600.3800 430ZM693.4800 431.4000L693.4800 431.4000Q680.4600 431.4000 671.4300 426.8500Q662.4000 422.3000 657.6400 413.8300Q652.8800 405.3600 652.3200 393.4600L652.3200 393.4600Q652.1800 387.7200 652.1800 381.1400Q652.1800 374.5600 652.3200 368.5400L652.3200 368.5400Q652.8800 356.7800 657.7100 348.2400Q662.5400 339.7000 671.5700 335.1500Q680.6000 330.6000 693.4800 330.6000L693.4800 330.6000Q703 330.6000 710.5600 333.1200Q718.1200 335.6400 723.4400 340.0500Q728.7600 344.4600 731.7000 350.3400Q734.6400 356.2200 734.7800 363.0800L734.7800 363.0800Q734.9200 364.3400 734.0100 365.1800Q733.1000 366.0200 731.8400 366.0200L731.8400 366.0200L718.5400 366.0200Q717 366.0200 716.0200 365.2500Q715.0400 364.4800 714.6200 362.6600L714.6200 362.6600Q712.3800 353.4200 706.9200 350.0600Q701.4600 346.7000 693.3400 346.7000L693.3400 346.7000Q683.9600 346.7000 678.3600 351.9500Q672.7600 357.2000 672.3400 369.2400L672.3400 369.2400Q671.9200 380.7200 672.3400 392.7600L672.3400 392.7600Q672.7600 404.8000 678.3600 410.0500Q683.9600 415.3000 693.3400 415.3000L693.3400 415.3000Q701.4600 415.3000 706.9900 411.8700Q712.5200 408.4400 714.6200 399.3400L714.6200 399.3400Q715.0400 397.3800 716.0200 396.6800Q717 395.9800 718.5400 395.9800L718.5400 395.9800L731.8400 395.9800Q733.1000 395.9800 734.0100 396.8200Q734.9200 397.6600 734.7800 398.9200L734.7800 398.9200Q734.6400 405.7800 731.7000 411.6600Q728.7600 417.5400 723.4400 421.9500Q718.1200 426.3600 710.5600 428.8800Q703 431.4000 693.4800 431.4000ZM781.9600 431.4000L781.9600 431.4000Q770.7600 431.4000 763.1300 427.4800Q755.5000 423.5600 751.5100 416.4200Q747.5200 409.2800 746.9600 399.7600L746.9600 399.7600Q746.8200 397.2400 746.8200 393.6000Q746.8200 389.9600 746.9600 387.4400L746.9600 387.4400Q747.5200 377.7800 751.6500 370.7100Q755.7800 363.6400 763.4100 359.7200Q771.0400 355.8000 781.9600 355.8000L781.9600 355.8000Q792.8800 355.8000 800.5100 359.7200Q808.1400 363.6400 812.2700 370.7100Q816.4000 377.7800 816.9600 387.4400L816.9600 387.4400Q817.1000 389.9600 817.1000 393.6000Q817.1000 397.2400 816.9600 399.7600L816.9600 399.7600Q816.4000 409.2800 812.4100 416.4200Q808.4200 423.5600 800.7900 427.4800Q793.1600 431.4000 781.9600 431.4000ZM781.9600 417.5400L781.9600 417.5400Q789.3800 417.5400 793.4400 412.8500Q797.5000 408.1600 797.9200 399.0600L797.9200 399.0600Q798.0600 396.9600 798.0600 393.6000Q798.0600 390.2400 797.9200 388.1400L797.9200 388.1400Q797.5000 379.0400 793.4400 374.3500Q789.3800 369.6600 781.9600 369.6600L781.9600 369.6600Q774.5400 369.6600 770.4800 374.3500Q766.4200 379.0400 766 388.1400L766 388.1400Q765.8600 390.2400 765.8600 393.6000Q765.8600 396.9600 766 399.0600L766 399.0600Q766.4200 408.1600 770.4800 412.8500Q774.5400 417.5400 781.9600 417.5400ZM847.7600 430L836 430Q834.6000 430 833.6200 429.0200Q832.6400 428.0400 832.6400 426.6400L832.6400 426.6400L832.6400 360.5600Q832.6400 359.1600 833.6200 358.1800Q834.6000 357.2000 836 357.2000L836 357.2000L846.9200 357.2000Q848.3200 357.2000 849.3000 358.1800Q850.2800 359.1600 850.2800 360.5600L850.2800 360.5600L850.2800 365.3200Q853.2200 361.4000 858.1900 358.6700Q863.1600 355.9400 870.0200 355.8000L870.0200 355.8000Q885.9800 355.5200 892.2800 368.2600L892.2800 368.2600Q895.5000 362.6600 901.5900 359.2300Q907.6800 355.8000 915.1000 355.8000L915.1000 355.8000Q922.3800 355.8000 928.3300 359.1600Q934.2800 362.5200 937.7100 369.3100Q941.1400 376.1000 941.1400 386.4600L941.1400 386.4600L941.1400 426.6400Q941.1400 428.0400 940.1600 429.0200Q939.1800 430 937.7800 430L937.7800 430L926.3000 430Q924.9000 430 923.9200 429.0200Q922.9400 428.0400 922.9400 426.6400L922.9400 426.6400L922.9400 387.5800Q922.9400 381.2800 921.1200 377.5700Q919.3000 373.8600 916.2200 372.3200Q913.1400 370.7800 909.3600 370.7800L909.3600 370.7800Q906.2800 370.7800 903.2000 372.3200Q900.1200 373.8600 898.1600 377.5700Q896.2000 381.2800 896.2000 387.5800L896.2000 387.5800L896.2000 426.6400Q896.2000 428.0400 895.2200 429.0200Q894.2400 430 892.8400 430L892.8400 430L881.3600 430Q879.9600 430 878.9800 429.0200Q878 428.0400 878 426.6400L878 426.6400L878 387.5800Q878 381.2800 876.0400 377.5700Q874.0800 373.8600 871 372.3200Q867.9200 370.7800 864.4200 370.7800L864.4200 370.7800Q861.2000 370.7800 858.1200 372.3900Q855.0400 374 853.0800 377.6400Q851.1200 381.2800 851.1200 387.5800L851.1200 387.5800L851.1200 426.6400Q851.1200 428.0400 850.1400 429.0200Q849.1600 430 847.7600 430L847.7600 430ZM991.1200 431.4000L991.1200 431.4000Q979.9200 431.4000 972.2900 427.4800Q964.6600 423.5600 960.6700 416.4200Q956.6800 409.2800 956.1200 399.7600L956.1200 399.7600Q955.9800 397.2400 955.9800 393.6000Q955.9800 389.9600 956.1200 387.4400L956.1200 387.4400Q956.6800 377.7800 960.8100 370.7100Q964.9400 363.6400 972.5700 359.7200Q980.2000 355.8000 991.1200 355.8000L991.1200 355.8000Q1002.0400 355.8000 1009.6700 359.7200Q1017.3000 363.6400 1021.4300 370.7100Q1025.5600 377.7800 1026.1200 387.4400L1026.1200 387.4400Q1026.2600 389.9600 1026.2600 393.6000Q1026.2600 397.2400 1026.1200 399.7600L1026.1200 399.7600Q1025.5600 409.2800 1021.5700 416.4200Q1017.5800 423.5600 1009.9500 427.4800Q1002.3200 431.4000 991.1200 431.4000ZM991.1200 417.5400L991.1200 417.5400Q998.5400 417.5400 1002.6000 412.8500Q1006.6600 408.1600 1007.0800 399.0600L1007.0800 399.0600Q1007.2200 396.9600 1007.2200 393.6000Q1007.2200 390.2400 1007.0800 388.1400L1007.0800 388.1400Q1006.6600 379.0400 1002.6000 374.3500Q998.5400 369.6600 991.1200 369.6600L991.1200 369.6600Q983.7000 369.6600 979.6400 374.3500Q975.5800 379.0400 975.1600 388.1400L975.1600 388.1400Q975.0200 390.2400 975.0200 393.6000Q975.0200 396.9600 975.1600 399.0600L975.1600 399.0600Q975.5800 408.1600 979.6400 412.8500Q983.7000 417.5400 991.1200 417.5400ZM1100.8800 431.4000L1100.8800 431.4000Q1092.3400 431.4000 1086.1100 427.5500Q1079.8800 423.7000 1076.5200 416.6300Q1073.1600 409.5600 1073.1600 399.9000L1073.1600 399.9000L1073.1600 360.5600Q1073.1600 359.1600 1074.1400 358.1800Q1075.1200 357.2000 1076.5200 357.2000L1076.5200 357.2000L1088.8400 357.2000Q1090.3800 357.2000 1091.2900 358.1800Q1092.2000 359.1600 1092.2000 360.5600L1092.2000 360.5600L1092.2000 399.0600Q1092.2000 416.4200 1107.4600 416.4200L1107.4600 416.4200Q1114.7400 416.4200 1119.0100 411.8000Q1123.2800 407.1800 1123.2800 399.0600L1123.2800 399.0600L1123.2800 360.5600Q1123.2800 359.1600 1124.2600 358.1800Q1125.2400 357.2000 1126.6400 357.2000L1126.6400 357.2000L1138.9600 357.2000Q1140.3600 357.2000 1141.3400 358.1800Q1142.3200 359.1600 1142.3200 360.5600L1142.3200 360.5600L1142.3200 426.6400Q1142.3200 428.0400 1141.3400 429.0200Q1140.3600 430 1138.9600 430L1138.9600 430L1127.6200 430Q1126.0800 430 1125.1700 429.0200Q1124.2600 428.0400 1124.2600 426.6400L1124.2600 426.6400L1124.2600 420.9000Q1120.4800 425.8000 1114.8800 428.6000Q1109.2800 431.4000 1100.8800 431.4000ZM1176.4800 430L1164.1600 430Q1162.7600 430 1161.7800 429.0200Q1160.8000 428.0400 1160.8000 426.6400L1160.8000 426.6400L1160.8000 360.5600Q1160.8000 359.1600 1161.7800 358.1800Q1162.7600 357.2000 1164.1600 357.2000L1164.1600 357.2000L1175.6400 357.2000Q1177.0400 357.2000 1178.0200 358.1800Q1179 359.1600 1179 360.5600L1179 360.5600L1179 366.3000Q1182.6400 361.8200 1188.3100 358.8100Q1193.9800 355.8000 1202.3800 355.8000L1202.3800 355.8000Q1210.9200 355.8000 1217.2200 359.6500Q1223.5200 363.5000 1226.9500 370.5000Q1230.3800 377.5000 1230.3800 387.3000L1230.3800 387.3000L1230.3800 426.6400Q1230.3800 428.0400 1229.4000 429.0200Q1228.4200 430 1227.0200 430L1227.0200 430L1214.7000 430Q1213.3000 430 1212.3200 429.0200Q1211.3400 428.0400 1211.3400 426.6400L1211.3400 426.6400L1211.3400 388.1400Q1211.3400 380.0200 1207.3500 375.4000Q1203.3600 370.7800 1195.8000 370.7800L1195.8000 370.7800Q1188.5200 370.7800 1184.1800 375.4000Q1179.8400 380.0200 1179.8400 388.1400L1179.8400 388.1400L1179.8400 426.6400Q1179.8400 428.0400 1178.8600 429.0200Q1177.8800 430 1176.4800 430L1176.4800 430ZM1263.1400 430L1251.5200 430Q1250.1200 430 1249.1400 429.0200Q1248.1600 428.0400 1248.1600 426.6400L1248.1600 426.6400L1248.1600 360.5600Q1248.1600 359.1600 1249.1400 358.1800Q1250.1200 357.2000 1251.5200 357.2000L1251.5200 357.2000L1263.1400 357.2000Q1264.6800 357.2000 1265.5900 358.1800Q1266.5000 359.1600 1266.5000 360.5600L1266.5000 360.5600L1266.5000 426.6400Q1266.5000 428.0400 1265.5900 429.0200Q1264.6800 430 1263.1400 430L1263.1400 430ZM1263.7000 345.1600L1250.9600 345.1600Q1249.5600 345.1600 1248.5800 344.1800Q1247.6000 343.2000 1247.6000 341.8000L1247.6000 341.8000L1247.6000 331.7200Q1247.6000 330.3200 1248.5800 329.3400Q1249.5600 328.3600 1250.9600 328.3600L1250.9600 328.3600L1263.7000 328.3600Q1265.2400 328.3600 1266.2200 329.3400Q1267.2000 330.3200 1267.2000 331.7200L1267.2000 331.7200L1267.2000 341.8000Q1267.2000 343.2000 1266.2200 344.1800Q1265.2400 345.1600 1263.7000 345.1600L1263.7000 345.1600ZM1300.6600 430L1288.4800 430Q1287.0800 430 1286.1000 429.0200Q1285.1200 428.0400 1285.1200 426.6400L1285.1200 426.6400L1285.1200 360.7000Q1285.1200 359.1600 1286.1000 358.1800Q1287.0800 357.2000 1288.4800 357.2000L1288.4800 357.2000L1299.8200 357.2000Q1301.2200 357.2000 1302.2700 358.1800Q1303.3200 359.1600 1303.3200 360.7000L1303.3200 360.7000L1303.3200 366.4400Q1306.5400 361.9600 1311.6500 359.5800Q1316.7600 357.2000 1323.4800 357.2000L1323.4800 357.2000L1329.2200 357.2000Q1330.7600 357.2000 1331.6700 358.1800Q1332.5800 359.1600 1332.5800 360.5600L1332.5800 360.5600L1332.5800 370.6400Q1332.5800 372.0400 1331.6700 373.0200Q1330.7600 374 1329.2200 374L1329.2200 374L1318.3000 374Q1311.5800 374 1307.8700 377.7100Q1304.1600 381.4200 1304.1600 388.1400L1304.1600 388.1400L1304.1600 426.6400Q1304.1600 428.0400 1303.1800 429.0200Q1302.2000 430 1300.6600 430L1300.6600 430ZM186.2600 571.4000L186.2600 571.4000Q178.9800 571.4000 173.4500 568.9500Q167.9200 566.5000 164.2800 562.0200Q160.6400 557.5400 158.6800 551.4500Q156.7200 545.3600 156.4400 538.0800L156.4400 538.0800Q156.3000 535.5600 156.3000 533.5300Q156.3000 531.5000 156.4400 528.9800L156.4400 528.9800Q156.7200 521.9800 158.6100 515.9600Q160.5000 509.9400 164.2100 505.3900Q167.9200 500.8400 173.4500 498.3200Q178.9800 495.8000 186.2600 495.8000L186.2600 495.8000Q193.8200 495.8000 199.0700 498.3900Q204.3200 500.9800 207.8200 505.0400L207.8200 505.0400L207.8200 473.9600Q207.8200 472.5600 208.7300 471.5800Q209.6400 470.6000 211.1800 470.6000L211.1800 470.6000L223.0800 470.6000Q224.4800 470.6000 225.4600 471.5800Q226.4400 472.5600 226.4400 473.9600L226.4400 473.9600L226.4400 566.6400Q226.4400 568.0400 225.4600 569.0200Q224.4800 570 223.0800 570L223.0800 570L212.0200 570Q210.4800 570 209.5700 569.0200Q208.6600 568.0400 208.6600 566.6400L208.6600 566.6400L208.6600 561.4600Q205.1600 565.8000 199.7700 568.6000Q194.3800 571.4000 186.2600 571.4000ZM191.4400 556.4200L191.4400 556.4200Q197.3200 556.4200 200.8200 553.7600Q204.3200 551.1000 206 546.9700Q207.6800 542.8400 207.8200 538.5000L207.8200 538.5000Q207.9600 535.9800 207.9600 533.1100Q207.9600 530.2400 207.8200 527.7200L207.8200 527.7200Q207.6800 523.5200 205.8600 519.6700Q204.0400 515.8200 200.5400 513.3000Q197.0400 510.7800 191.4400 510.7800L191.4400 510.7800Q185.5600 510.7800 182.1300 513.3700Q178.7000 515.9600 177.1600 520.1600Q175.6200 524.3600 175.3400 529.4000L175.3400 529.4000Q175.2000 533.6000 175.3400 537.8000L175.3400 537.8000Q175.6200 542.8400 177.1600 547.0400Q178.7000 551.2400 182.1300 553.8300Q185.5600 556.4200 191.4400 556.4200ZM266.2000 571.4000L266.2000 571.4000Q258.9200 571.4000 253.0400 568.5300Q247.1600 565.6600 243.7300 560.8300Q240.3000 556 240.3000 549.9800L240.3000 549.9800Q240.3000 540.1800 248.2800 534.3700Q256.2600 528.5600 269.1400 526.6000L269.1400 526.6000L288.3200 523.8000L288.3200 520.8600Q288.3200 514.9800 285.3800 511.7600Q282.4400 508.5400 275.3000 508.5400L275.3000 508.5400Q270.2600 508.5400 267.1100 510.5700Q263.9600 512.6000 262.4200 515.9600L262.4200 515.9600Q261.3000 517.7800 259.2000 517.7800L259.2000 517.7800L248.1400 517.7800Q246.6000 517.7800 245.8300 516.9400Q245.0600 516.1000 245.0600 514.7000L245.0600 514.7000Q245.2000 512.4600 246.9500 509.2400Q248.7000 506.0200 252.2700 503.0100Q255.8400 500 261.5800 497.9000Q267.3200 495.8000 275.4400 495.8000L275.4400 495.8000Q284.2600 495.8000 290.3500 497.9700Q296.4400 500.1400 300.0800 503.7800Q303.7200 507.4200 305.4000 512.3200Q307.0800 517.2200 307.0800 522.6800L307.0800 522.6800L307.0800 566.6400Q307.0800 568.0400 306.1000 569.0200Q305.1200 570 303.7200 570L303.7200 570L292.3800 570Q290.8400 570 289.9300 569.0200Q289.0200 568.0400 289.0200 566.6400L289.0200 566.6400L289.0200 561.1800Q287.2000 563.7000 284.1200 566.0800Q281.0400 568.4600 276.6300 569.9300Q272.2200 571.4000 266.2000 571.4000ZM270.9600 558.1000L270.9600 558.1000Q275.8600 558.1000 279.8500 556Q283.8400 553.9000 286.1500 549.4900Q288.4600 545.0800 288.4600 538.3600L288.4600 538.3600L288.4600 535.4200L274.4600 537.6600Q266.2000 538.9200 262.1400 541.7200Q258.0800 544.5200 258.0800 548.5800L258.0800 548.5800Q258.0800 551.6600 259.9700 553.8300Q261.8600 556 264.8000 557.0500Q267.7400 558.1000 270.9600 558.1000ZM352.0200 571.4000L352.0200 571.4000Q344.7400 571.4000 339.2100 568.9500Q333.6800 566.5000 330.0400 562.0200Q326.4000 557.5400 324.4400 551.4500Q322.4800 545.3600 322.2000 538.0800L322.2000 538.0800Q322.0600 535.5600 322.0600 533.5300Q322.0600 531.5000 322.2000 528.9800L322.2000 528.9800Q322.4800 521.9800 324.3700 515.9600Q326.2600 509.9400 329.9700 505.3900Q333.6800 500.8400 339.2100 498.3200Q344.7400 495.8000 352.0200 495.8000L352.0200 495.8000Q359.5800 495.8000 364.8300 498.3900Q370.0800 500.9800 373.5800 505.0400L373.5800 505.0400L373.5800 473.9600Q373.5800 472.5600 374.4900 471.5800Q375.4000 470.6000 376.9400 470.6000L376.9400 470.6000L388.8400 470.6000Q390.2400 470.6000 391.2200 471.5800Q392.2000 472.5600 392.2000 473.9600L392.2000 473.9600L392.2000 566.6400Q392.2000 568.0400 391.2200 569.0200Q390.2400 570 388.8400 570L388.8400 570L377.7800 570Q376.2400 570 375.3300 569.0200Q374.4200 568.0400 374.4200 566.6400L374.4200 566.6400L374.4200 561.4600Q370.9200 565.8000 365.5300 568.6000Q360.1400 571.4000 352.0200 571.4000ZM357.2000 556.4200L357.2000 556.4200Q363.0800 556.4200 366.5800 553.7600Q370.0800 551.1000 371.7600 546.9700Q373.4400 542.8400 373.5800 538.5000L373.5800 538.5000Q373.7200 535.9800 373.7200 533.1100Q373.7200 530.2400 373.5800 527.7200L373.5800 527.7200Q373.4400 523.5200 371.6200 519.6700Q369.8000 515.8200 366.3000 513.3000Q362.8000 510.7800 357.2000 510.7800L357.2000 510.7800Q351.3200 510.7800 347.8900 513.3700Q344.4600 515.9600 342.9200 520.1600Q341.3800 524.3600 341.1000 529.4000L341.1000 529.4000Q340.9600 533.6000 341.1000 537.8000L341.1000 537.8000Q341.3800 542.8400 342.9200 547.0400Q344.4600 551.2400 347.8900 553.8300Q351.3200 556.4200 357.2000 556.4200ZM443.0200 571.4000L443.0200 571.4000Q431.8200 571.4000 424.1900 567.4800Q416.5600 563.5600 412.5700 556.4200Q408.5800 549.2800 408.0200 539.7600L408.0200 539.7600Q407.8800 537.2400 407.8800 533.6000Q407.8800 529.9600 408.0200 527.4400L408.0200 527.4400Q408.5800 517.7800 412.7100 510.7100Q416.8400 503.6400 424.4700 499.7200Q432.1000 495.8000 443.0200 495.8000L443.0200 495.8000Q453.9400 495.8000 461.5700 499.7200Q469.2000 503.6400 473.3300 510.7100Q477.4600 517.7800 478.0200 527.4400L478.0200 527.4400Q478.1600 529.9600 478.1600 533.6000Q478.1600 537.2400 478.0200 539.7600L478.0200 539.7600Q477.4600 549.2800 473.4700 556.4200Q469.4800 563.5600 461.8500 567.4800Q454.2200 571.4000 443.0200 571.4000ZM443.0200 557.5400L443.0200 557.5400Q450.4400 557.5400 454.5000 552.8500Q458.5600 548.1600 458.9800 539.0600L458.9800 539.0600Q459.1200 536.9600 459.1200 533.6000Q459.1200 530.2400 458.9800 528.1400L458.9800 528.1400Q458.5600 519.0400 454.5000 514.3500Q450.4400 509.6600 443.0200 509.6600L443.0200 509.6600Q435.6000 509.6600 431.5400 514.3500Q427.4800 519.0400 427.0600 528.1400L427.0600 528.1400Q426.9200 530.2400 426.9200 533.6000Q426.9200 536.9600 427.0600 539.0600L427.0600 539.0600Q427.4800 548.1600 431.5400 552.8500Q435.6000 557.5400 443.0200 557.5400ZM521.2800 571.4000L521.2800 571.4000Q512.8800 571.4000 506.9300 569.4400Q500.9800 567.4800 497.2000 564.5400Q493.4200 561.6000 491.6000 558.6600Q489.7800 555.7200 489.6400 553.7600L489.6400 553.7600Q489.5000 552.2200 490.5500 551.3100Q491.6000 550.4000 492.8600 550.4000L492.8600 550.4000L503.9200 550.4000Q504.4800 550.4000 504.9000 550.5400Q505.3200 550.6800 506.0200 551.3800L506.0200 551.3800Q507.8400 552.9200 509.8700 554.6000Q511.9000 556.2800 514.7000 557.4700Q517.5000 558.6600 521.7000 558.6600L521.7000 558.6600Q527.1600 558.6600 530.8700 556.4900Q534.5800 554.3200 534.5800 550.2600L534.5800 550.2600Q534.5800 547.3200 532.9700 545.5000Q531.3600 543.6800 527.0200 542.2100Q522.6800 540.7400 514.7000 539.0600L514.7000 539.0600Q506.8600 537.2400 501.6800 534.4400Q496.5000 531.6400 493.9800 527.4400Q491.4600 523.2400 491.4600 517.6400L491.4600 517.6400Q491.4600 512.1800 494.7500 507.2100Q498.0400 502.2400 504.5500 499.0200Q511.0600 495.8000 520.7200 495.8000L520.7200 495.8000Q528.2800 495.8000 533.8800 497.6900Q539.4800 499.5800 543.1900 502.3800Q546.9000 505.1800 548.8600 508.0500Q550.8200 510.9200 550.9600 513.0200L550.9600 513.0200Q551.1000 514.5600 550.1200 515.4700Q549.1400 516.3800 547.8800 516.3800L547.8800 516.3800L537.5200 516.3800Q536.8200 516.3800 536.2600 516.1000Q535.7000 515.8200 535.1400 515.4000L535.1400 515.4000Q533.6000 514 531.7800 512.3900Q529.9600 510.7800 527.3700 509.6600Q524.7800 508.5400 520.5800 508.5400L520.5800 508.5400Q515.2600 508.5400 512.4600 510.8500Q509.6600 513.1600 509.6600 516.6600L509.6600 516.6600Q509.6600 519.0400 510.9900 520.7900Q512.3200 522.5400 516.3800 524.0800Q520.4400 525.6200 528.7000 527.3000L528.7000 527.3000Q538.0800 528.9800 543.6100 532.2700Q549.1400 535.5600 551.4500 539.8300Q553.7600 544.1000 553.7600 549.2800L553.7600 549.2800Q553.7600 555.5800 550.0500 560.6200Q546.3400 565.6600 539.1300 568.5300Q531.9200 571.4000 521.2800 571.4000ZM627.2600 571.4000L627.2600 571.4000Q619.9800 571.4000 614.4500 568.9500Q608.9200 566.5000 605.2800 562.0200Q601.6400 557.5400 599.6800 551.4500Q597.7200 545.3600 597.4400 538.0800L597.4400 538.0800Q597.3000 535.5600 597.3000 533.5300Q597.3000 531.5000 597.4400 528.9800L597.4400 528.9800Q597.7200 521.9800 599.6100 515.9600Q601.5000 509.9400 605.2100 505.3900Q608.9200 500.8400 614.4500 498.3200Q619.9800 495.8000 627.2600 495.8000L627.2600 495.8000Q634.8200 495.8000 640.0700 498.3900Q645.3200 500.9800 648.8200 505.0400L648.8200 505.0400L648.8200 473.9600Q648.8200 472.5600 649.7300 471.5800Q650.6400 470.6000 652.1800 470.6000L652.1800 470.6000L664.0800 470.6000Q665.4800 470.6000 666.4600 471.5800Q667.4400 472.5600 667.4400 473.9600L667.4400 473.9600L667.4400 566.6400Q667.4400 568.0400 666.4600 569.0200Q665.4800 570 664.0800 570L664.0800 570L653.0200 570Q651.4800 570 650.5700 569.0200Q649.6600 568.0400 649.6600 566.6400L649.6600 566.6400L649.6600 561.4600Q646.1600 565.8000 640.7700 568.6000Q635.3800 571.4000 627.2600 571.4000ZM632.4400 556.4200L632.4400 556.4200Q638.3200 556.4200 641.8200 553.7600Q645.3200 551.1000 647 546.9700Q648.6800 542.8400 648.8200 538.5000L648.8200 538.5000Q648.9600 535.9800 648.9600 533.1100Q648.9600 530.2400 648.8200 527.7200L648.8200 527.7200Q648.6800 523.5200 646.8600 519.6700Q645.0400 515.8200 641.5400 513.3000Q638.0400 510.7800 632.4400 510.7800L632.4400 510.7800Q626.5600 510.7800 623.1300 513.3700Q619.7000 515.9600 618.1600 520.1600Q616.6200 524.3600 616.3400 529.4000L616.3400 529.4000Q616.2000 533.6000 616.3400 537.8000L616.3400 537.8000Q616.6200 542.8400 618.1600 547.0400Q619.7000 551.2400 623.1300 553.8300Q626.5600 556.4200 632.4400 556.4200ZM717.4200 571.4000L717.4200 571.4000Q701.8800 571.4000 692.7800 562.4400Q683.6800 553.4800 682.9800 536.9600L682.9800 536.9600Q682.8400 535.5600 682.8400 533.3900Q682.8400 531.2200 682.9800 529.9600L682.9800 529.9600Q683.5400 519.3200 687.8100 511.6900Q692.0800 504.0600 699.6400 499.9300Q707.2000 495.8000 717.4200 495.8000L717.4200 495.8000Q728.7600 495.8000 736.4600 500.4900Q744.1600 505.1800 748.0800 513.5100Q752 521.8400 752 532.7600L752 532.7600L752 535.7000Q752 537.1000 751.0200 538.0800Q750.0400 539.0600 748.5000 539.0600L748.5000 539.0600L702.0200 539.0600Q702.0200 539.0600 702.0200 539.4800Q702.0200 539.9000 702.0200 540.1800L702.0200 540.1800Q702.1600 545.0800 703.9100 549.2100Q705.6600 553.3400 709.0900 555.8600Q712.5200 558.3800 717.2800 558.3800L717.2800 558.3800Q721.2000 558.3800 723.8600 557.1900Q726.5200 556 728.2000 554.4600Q729.8800 552.9200 730.5800 551.9400L730.5800 551.9400Q731.8400 550.2600 732.6100 549.9100Q733.3800 549.5600 734.9200 549.5600L734.9200 549.5600L746.9600 549.5600Q748.3600 549.5600 749.2700 550.4000Q750.1800 551.2400 750.0400 552.5000L750.0400 552.5000Q749.9000 554.7400 747.7300 557.9600Q745.5600 561.1800 741.5000 564.2600Q737.4400 567.3400 731.3500 569.3700Q725.2600 571.4000 717.4200 571.4000ZM702.0200 526.8800L702.0200 527.3000L732.9600 527.3000L732.9600 526.8800Q732.9600 521.4200 731.1400 517.2900Q729.3200 513.1600 725.8200 510.8500Q722.3200 508.5400 717.4200 508.5400L717.4200 508.5400Q712.5200 508.5400 709.0200 510.8500Q705.5200 513.1600 703.7700 517.2900Q702.0200 521.4200 702.0200 526.8800L702.0200 526.8800ZM825.9200 571.4000L825.9200 571.4000Q818.6400 571.4000 813.1100 568.9500Q807.5800 566.5000 803.9400 562.0200Q800.3000 557.5400 798.3400 551.4500Q796.3800 545.3600 796.1000 538.0800L796.1000 538.0800Q795.9600 535.5600 795.9600 533.5300Q795.9600 531.5000 796.1000 528.9800L796.1000 528.9800Q796.3800 521.9800 798.2700 515.9600Q800.1600 509.9400 803.8700 505.3900Q807.5800 500.8400 813.1100 498.3200Q818.6400 495.8000 825.9200 495.8000L825.9200 495.8000Q833.4800 495.8000 838.7300 498.3900Q843.9800 500.9800 847.4800 505.0400L847.4800 505.0400L847.4800 473.9600Q847.4800 472.5600 848.3900 471.5800Q849.3000 470.6000 850.8400 470.6000L850.8400 470.6000L862.7400 470.6000Q864.1400 470.6000 865.1200 471.5800Q866.1000 472.5600 866.1000 473.9600L866.1000 473.9600L866.1000 566.6400Q866.1000 568.0400 865.1200 569.0200Q864.1400 570 862.7400 570L862.7400 570L851.6800 570Q850.1400 570 849.2300 569.0200Q848.3200 568.0400 848.3200 566.6400L848.3200 566.6400L848.3200 561.4600Q844.8200 565.8000 839.4300 568.6000Q834.0400 571.4000 825.9200 571.4000ZM831.1000 556.4200L831.1000 556.4200Q836.9800 556.4200 840.4800 553.7600Q843.9800 551.1000 845.6600 546.9700Q847.3400 542.8400 847.4800 538.5000L847.4800 538.5000Q847.6200 535.9800 847.6200 533.1100Q847.6200 530.2400 847.4800 527.7200L847.4800 527.7200Q847.3400 523.5200 845.5200 519.6700Q843.7000 515.8200 840.2000 513.3000Q836.7000 510.7800 831.1000 510.7800L831.1000 510.7800Q825.2200 510.7800 821.7900 513.3700Q818.3600 515.9600 816.8200 520.1600Q815.2800 524.3600 815.0000 529.4000L815.0000 529.4000Q814.8600 533.6000 815.0000 537.8000L815.0000 537.8000Q815.2800 542.8400 816.8200 547.0400Q818.3600 551.2400 821.7900 553.8300Q825.2200 556.4200 831.1000 556.4200ZM899.7000 570L888.0800 570Q886.6800 570 885.7000 569.0200Q884.7200 568.0400 884.7200 566.6400L884.7200 566.6400L884.7200 500.5600Q884.7200 499.1600 885.7000 498.1800Q886.6800 497.2000 888.0800 497.2000L888.0800 497.2000L899.7000 497.2000Q901.2400 497.2000 902.1500 498.1800Q903.0600 499.1600 903.0600 500.5600L903.0600 500.5600L903.0600 566.6400Q903.0600 568.0400 902.1500 569.0200Q901.2400 570 899.7000 570L899.7000 570ZM900.2600 485.1600L887.5200 485.1600Q886.1200 485.1600 885.1400 484.1800Q884.1600 483.2000 884.1600 481.8000L884.1600 481.8000L884.1600 471.7200Q884.1600 470.3200 885.1400 469.3400Q886.1200 468.3600 887.5200 468.3600L887.5200 468.3600L900.2600 468.3600Q901.8000 468.3600 902.7800 469.3400Q903.7600 470.3200 903.7600 471.7200L903.7600 471.7200L903.7600 481.8000Q903.7600 483.2000 902.7800 484.1800Q901.8000 485.1600 900.2600 485.1600L900.2600 485.1600ZM944.3600 570L932.8800 570Q931.4800 570 930.5000 569.0200Q929.5200 568.0400 929.5200 566.6400L929.5200 566.6400L929.5200 512.0400L918.1800 512.0400Q916.7800 512.0400 915.8000 511.0600Q914.8200 510.0800 914.8200 508.5400L914.8200 508.5400L914.8200 500.5600Q914.8200 499.1600 915.8000 498.1800Q916.7800 497.2000 918.1800 497.2000L918.1800 497.2000L929.5200 497.2000L929.5200 491.4600Q929.5200 483.0600 932.6000 477.5300Q935.6800 472 941.7000 469.2000Q947.7200 466.4000 956.9600 466.4000L956.9600 466.4000L966.4800 466.4000Q968.0200 466.4000 968.9300 467.3800Q969.8400 468.3600 969.8400 469.7600L969.8400 469.7600L969.8400 477.7400Q969.8400 479.2800 968.9300 480.2600Q968.0200 481.2400 966.4800 481.2400L966.4800 481.2400L957.5200 481.2400Q951.9200 481.2400 949.8200 484.0400Q947.7200 486.8400 947.7200 492.1600L947.7200 492.1600L947.7200 497.2000L965.0800 497.2000Q966.6200 497.2000 967.5300 498.1800Q968.4400 499.1600 968.4400 500.5600L968.4400 500.5600L968.4400 508.5400Q968.4400 510.0800 967.5300 511.0600Q966.6200 512.0400 965.0800 512.0400L965.0800 512.0400L947.7200 512.0400L947.7200 566.6400Q947.7200 568.0400 946.7400 569.0200Q945.7600 570 944.3600 570L944.3600 570ZM1011.0000 571.4000L1011.0000 571.4000Q995.4600 571.4000 986.3600 562.4400Q977.2600 553.4800 976.5600 536.9600L976.5600 536.9600Q976.4200 535.5600 976.4200 533.3900Q976.4200 531.2200 976.5600 529.9600L976.5600 529.9600Q977.1200 519.3200 981.3900 511.6900Q985.6600 504.0600 993.2200 499.9300Q1000.7800 495.8000 1011.0000 495.8000L1011.0000 495.8000Q1022.3400 495.8000 1030.0400 500.4900Q1037.7400 505.1800 1041.6600 513.5100Q1045.5800 521.8400 1045.5800 532.7600L1045.5800 532.7600L1045.5800 535.7000Q1045.5800 537.1000 1044.6000 538.0800Q1043.6200 539.0600 1042.0800 539.0600L1042.0800 539.0600L995.6000 539.0600Q995.6000 539.0600 995.6000 539.4800Q995.6000 539.9000 995.6000 540.1800L995.6000 540.1800Q995.7400 545.0800 997.4900 549.2100Q999.2400 553.3400 1002.6700 555.8600Q1006.1000 558.3800 1010.8600 558.3800L1010.8600 558.3800Q1014.7800 558.3800 1017.4400 557.1900Q1020.1000 556 1021.7800 554.4600Q1023.4600 552.9200 1024.1600 551.9400L1024.1600 551.9400Q1025.4200 550.2600 1026.1900 549.9100Q1026.9600 549.5600 1028.5000 549.5600L1028.5000 549.5600L1040.5400 549.5600Q1041.9400 549.5600 1042.8500 550.4000Q1043.7600 551.2400 1043.6200 552.5000L1043.6200 552.5000Q1043.4800 554.7400 1041.3100 557.9600Q1039.1400 561.1800 1035.0800 564.2600Q1031.0200 567.3400 1024.9300 569.3700Q1018.8400 571.4000 1011.0000 571.4000ZM995.6000 526.8800L995.6000 527.3000L1026.5400 527.3000L1026.5400 526.8800Q1026.5400 521.4200 1024.7200 517.2900Q1022.9000 513.1600 1019.4000 510.8500Q1015.9000 508.5400 1011.0000 508.5400L1011.0000 508.5400Q1006.1000 508.5400 1002.6000 510.8500Q999.1000 513.1600 997.3500 517.2900Q995.6000 521.4200 995.6000 526.8800L995.6000 526.8800ZM1075.9600 570L1063.7800 570Q1062.3800 570 1061.4000 569.0200Q1060.4200 568.0400 1060.4200 566.6400L1060.4200 566.6400L1060.4200 500.7000Q1060.4200 499.1600 1061.4000 498.1800Q1062.3800 497.2000 1063.7800 497.2000L1063.7800 497.2000L1075.1200 497.2000Q1076.5200 497.2000 1077.5700 498.1800Q1078.6200 499.1600 1078.6200 500.7000L1078.6200 500.7000L1078.6200 506.4400Q1081.8400 501.9600 1086.9500 499.5800Q1092.0600 497.2000 1098.7800 497.2000L1098.7800 497.2000L1104.5200 497.2000Q1106.0600 497.2000 1106.9700 498.1800Q1107.8800 499.1600 1107.8800 500.5600L1107.8800 500.5600L1107.8800 510.6400Q1107.8800 512.0400 1106.9700 513.0200Q1106.0600 514 1104.5200 514L1104.5200 514L1093.6000 514Q1086.8800 514 1083.1700 517.7100Q1079.4600 521.4200 1079.4600 528.1400L1079.4600 528.1400L1079.4600 566.6400Q1079.4600 568.0400 1078.4800 569.0200Q1077.5000 570 1075.9600 570L1075.9600 570ZM1150.1600 571.4000L1150.1600 571.4000Q1134.6200 571.4000 1125.5200 562.4400Q1116.4200 553.4800 1115.7200 536.9600L1115.7200 536.9600Q1115.5800 535.5600 1115.5800 533.3900Q1115.5800 531.2200 1115.7200 529.9600L1115.7200 529.9600Q1116.2800 519.3200 1120.5500 511.6900Q1124.8200 504.0600 1132.3800 499.9300Q1139.9400 495.8000 1150.1600 495.8000L1150.1600 495.8000Q1161.5000 495.8000 1169.2000 500.4900Q1176.9000 505.1800 1180.8200 513.5100Q1184.7400 521.8400 1184.7400 532.7600L1184.7400 532.7600L1184.7400 535.7000Q1184.7400 537.1000 1183.7600 538.0800Q1182.7800 539.0600 1181.2400 539.0600L1181.2400 539.0600L1134.7600 539.0600Q1134.7600 539.0600 1134.7600 539.4800Q1134.7600 539.9000 1134.7600 540.1800L1134.7600 540.1800Q1134.9000 545.0800 1136.6500 549.2100Q1138.4000 553.3400 1141.8300 555.8600Q1145.2600 558.3800 1150.0200 558.3800L1150.0200 558.3800Q1153.9400 558.3800 1156.6000 557.1900Q1159.2600 556 1160.9400 554.4600Q1162.6200 552.9200 1163.3200 551.9400L1163.3200 551.9400Q1164.5800 550.2600 1165.3500 549.9100Q1166.1200 549.5600 1167.6600 549.5600L1167.6600 549.5600L1179.7000 549.5600Q1181.1000 549.5600 1182.0100 550.4000Q1182.9200 551.2400 1182.7800 552.5000L1182.7800 552.5000Q1182.6400 554.7400 1180.4700 557.9600Q1178.3000 561.1800 1174.2400 564.2600Q1170.1800 567.3400 1164.0900 569.3700Q1158.0000 571.4000 1150.1600 571.4000ZM1134.7600 526.8800L1134.7600 527.3000L1165.7000 527.3000L1165.7000 526.8800Q1165.7000 521.4200 1163.8800 517.2900Q1162.0600 513.1600 1158.5600 510.8500Q1155.0600 508.5400 1150.1600 508.5400L1150.1600 508.5400Q1145.2600 508.5400 1141.7600 510.8500Q1138.2600 513.1600 1136.5100 517.2900Q1134.7600 521.4200 1134.7600 526.8800L1134.7600 526.8800ZM1215.2600 570L1202.9400 570Q1201.5400 570 1200.5600 569.0200Q1199.5800 568.0400 1199.5800 566.6400L1199.5800 566.6400L1199.5800 500.5600Q1199.5800 499.1600 1200.5600 498.1800Q1201.5400 497.2000 1202.9400 497.2000L1202.9400 497.2000L1214.4200 497.2000Q1215.8200 497.2000 1216.8000 498.1800Q1217.7800 499.1600 1217.7800 500.5600L1217.7800 500.5600L1217.7800 506.3000Q1221.4200 501.8200 1227.0900 498.8100Q1232.7600 495.8000 1241.1600 495.8000L1241.1600 495.8000Q1249.7000 495.8000 1256.0000 499.6500Q1262.3000 503.5000 1265.7300 510.5000Q1269.1600 517.5000 1269.1600 527.3000L1269.1600 527.3000L1269.1600 566.6400Q1269.1600 568.0400 1268.1800 569.0200Q1267.2000 570 1265.8000 570L1265.8000 570L1253.4800 570Q1252.0800 570 1251.1000 569.0200Q1250.1200 568.0400 1250.1200 566.6400L1250.1200 566.6400L1250.1200 528.1400Q1250.1200 520.0200 1246.1300 515.4000Q1242.1400 510.7800 1234.5800 510.7800L1234.5800 510.7800Q1227.3000 510.7800 1222.9600 515.4000Q1218.6200 520.0200 1218.6200 528.1400L1218.6200 528.1400L1218.6200 566.6400Q1218.6200 568.0400 1217.6400 569.0200Q1216.6600 570 1215.2600 570L1215.2600 570ZM1331.1800 570L1319.8400 570Q1311.4400 570 1305.7000 567.0600Q1299.9600 564.1200 1297.1600 558.3100Q1294.3600 552.5000 1294.3600 543.8200L1294.3600 543.8200L1294.3600 512.0400L1283.3000 512.0400Q1281.9000 512.0400 1280.9200 511.0600Q1279.9400 510.0800 1279.9400 508.5400L1279.9400 508.5400L1279.9400 500.5600Q1279.9400 499.1600 1280.9200 498.1800Q1281.9000 497.2000 1283.3000 497.2000L1283.3000 497.2000L1294.3600 497.2000L1294.3600 473.9600Q1294.3600 472.5600 1295.2700 471.5800Q1296.1800 470.6000 1297.7200 470.6000L1297.7200 470.6000L1309.0600 470.6000Q1310.4600 470.6000 1311.4400 471.5800Q1312.4200 472.5600 1312.4200 473.9600L1312.4200 473.9600L1312.4200 497.2000L1329.9200 497.2000Q1331.3200 497.2000 1332.3000 498.1800Q1333.2800 499.1600 1333.2800 500.5600L1333.2800 500.5600L1333.2800 508.5400Q1333.2800 510.0800 1332.3000 511.0600Q1331.3200 512.0400 1329.9200 512.0400L1329.9200 512.0400L1312.4200 512.0400L1312.4200 542.4200Q1312.4200 548.1600 1314.4500 551.3800Q1316.4800 554.6000 1321.5200 554.6000L1321.5200 554.6000L1331.1800 554.6000Q1332.5800 554.6000 1333.5600 555.5800Q1334.5400 556.5600 1334.5400 557.9600L1334.5400 557.9600L1334.5400 566.6400Q1334.5400 568.0400 1333.5600 569.0200Q1332.5800 570 1331.1800 570L1331.1800 570ZM1378.3600 571.4000L1378.3600 571.4000Q1362.8200 571.4000 1353.7200 562.4400Q1344.6200 553.4800 1343.9200 536.9600L1343.9200 536.9600Q1343.7800 535.5600 1343.7800 533.3900Q1343.7800 531.2200 1343.9200 529.9600L1343.9200 529.9600Q1344.4800 519.3200 1348.7500 511.6900Q1353.0200 504.0600 1360.5800 499.9300Q1368.1400 495.8000 1378.3600 495.8000L1378.3600 495.8000Q1389.7000 495.8000 1397.4000 500.4900Q1405.1000 505.1800 1409.0200 513.5100Q1412.9400 521.8400 1412.9400 532.7600L1412.9400 532.7600L1412.9400 535.7000Q1412.9400 537.1000 1411.9600 538.0800Q1410.9800 539.0600 1409.4400 539.0600L1409.4400 539.0600L1362.9600 539.0600Q1362.9600 539.0600 1362.9600 539.4800Q1362.9600 539.9000 1362.9600 540.1800L1362.9600 540.1800Q1363.1000 545.0800 1364.8500 549.2100Q1366.6000 553.3400 1370.0300 555.8600Q1373.4600 558.3800 1378.2200 558.3800L1378.2200 558.3800Q1382.1400 558.3800 1384.8000 557.1900Q1387.4600 556 1389.1400 554.4600Q1390.8200 552.9200 1391.5200 551.9400L1391.5200 551.9400Q1392.7800 550.2600 1393.5500 549.9100Q1394.3200 549.5600 1395.8600 549.5600L1395.8600 549.5600L1407.9000 549.5600Q1409.3000 549.5600 1410.2100 550.4000Q1411.1200 551.2400 1410.9800 552.5000L1410.9800 552.5000Q1410.8400 554.7400 1408.6700 557.9600Q1406.5000 561.1800 1402.4400 564.2600Q1398.3800 567.3400 1392.2900 569.3700Q1386.2000 571.4000 1378.3600 571.4000ZM1362.9600 526.8800L1362.9600 527.3000L1393.9000 527.3000L1393.9000 526.8800Q1393.9000 521.4200 1392.0800 517.2900Q1390.2600 513.1600 1386.7600 510.8500Q1383.2600 508.5400 1378.3600 508.5400L1378.3600 508.5400Q1373.4600 508.5400 1369.9600 510.8500Q1366.4600 513.1600 1364.7100 517.2900Q1362.9600 521.4200 1362.9600 526.8800L1362.9600 526.8800ZM1455.3600 571.4000L1455.3600 571.4000Q1446.9600 571.4000 1441.0100 569.4400Q1435.0600 567.4800 1431.2800 564.5400Q1427.5000 561.6000 1425.6800 558.6600Q1423.8600 555.7200 1423.7200 553.7600L1423.7200 553.7600Q1423.5800 552.2200 1424.6300 551.3100Q1425.6800 550.4000 1426.9400 550.4000L1426.9400 550.4000L1438.0000 550.4000Q1438.5600 550.4000 1438.9800 550.5400Q1439.4000 550.6800 1440.1000 551.3800L1440.1000 551.3800Q1441.9200 552.9200 1443.9500 554.6000Q1445.9800 556.2800 1448.7800 557.4700Q1451.5800 558.6600 1455.7800 558.6600L1455.7800 558.6600Q1461.2400 558.6600 1464.9500 556.4900Q1468.6600 554.3200 1468.6600 550.2600L1468.6600 550.2600Q1468.6600 547.3200 1467.0500 545.5000Q1465.4400 543.6800 1461.1000 542.2100Q1456.7600 540.7400 1448.7800 539.0600L1448.7800 539.0600Q1440.9400 537.2400 1435.7600 534.4400Q1430.5800 531.6400 1428.0600 527.4400Q1425.5400 523.2400 1425.5400 517.6400L1425.5400 517.6400Q1425.5400 512.1800 1428.8300 507.2100Q1432.1200 502.2400 1438.6300 499.0200Q1445.1400 495.8000 1454.8000 495.8000L1454.8000 495.8000Q1462.3600 495.8000 1467.9600 497.6900Q1473.5600 499.5800 1477.2700 502.3800Q1480.9800 505.1800 1482.9400 508.0500Q1484.9000 510.9200 1485.0400 513.0200L1485.0400 513.0200Q1485.1800 514.5600 1484.2000 515.4700Q1483.2200 516.3800 1481.9600 516.3800L1481.9600 516.3800L1471.6000 516.3800Q1470.9000 516.3800 1470.3400 516.1000Q1469.7800 515.8200 1469.2200 515.4000L1469.2200 515.4000Q1467.6800 514 1465.8600 512.3900Q1464.0400 510.7800 1461.4500 509.6600Q1458.8600 508.5400 1454.6600 508.5400L1454.6600 508.5400Q1449.3400 508.5400 1446.5400 510.8500Q1443.7400 513.1600 1443.7400 516.6600L1443.7400 516.6600Q1443.7400 519.0400 1445.0700 520.7900Q1446.4000 522.5400 1450.4600 524.0800Q1454.5200 525.6200 1462.7800 527.3000L1462.7800 527.3000Q1472.1600 528.9800 1477.6900 532.2700Q1483.2200 535.5600 1485.5300 539.8300Q1487.8400 544.1000 1487.8400 549.2800L1487.8400 549.2800Q1487.8400 555.5800 1484.1300 560.6200Q1480.4200 565.6600 1473.2100 568.5300Q1466.0000 571.4000 1455.3600 571.4000ZM203.4800 710L192.1400 710Q183.7400 710 178 707.0600Q172.2600 704.1200 169.4600 698.3100Q166.6600 692.5000 166.6600 683.8200L166.6600 683.8200L166.6600 652.0400L155.6000 652.0400Q154.2000 652.0400 153.2200 651.0600Q152.2400 650.0800 152.2400 648.5400L152.2400 648.5400L152.2400 640.5600Q152.2400 639.1600 153.2200 638.1800Q154.2000 637.2000 155.6000 637.2000L155.6000 637.2000L166.6600 637.2000L166.6600 613.9600Q166.6600 612.5600 167.5700 611.5800Q168.4800 610.6000 170.0200 610.6000L170.0200 610.6000L181.3600 610.6000Q182.7600 610.6000 183.7400 611.5800Q184.7200 612.5600 184.7200 613.9600L184.7200 613.9600L184.7200 637.2000L202.2200 637.2000Q203.6200 637.2000 204.6000 638.1800Q205.5800 639.1600 205.5800 640.5600L205.5800 640.5600L205.5800 648.5400Q205.5800 650.0800 204.6000 651.0600Q203.6200 652.0400 202.2200 652.0400L202.2200 652.0400L184.7200 652.0400L184.7200 682.4200Q184.7200 688.1600 186.7500 691.3800Q188.7800 694.6000 193.8200 694.6000L193.8200 694.6000L203.4800 694.6000Q204.8800 694.6000 205.8600 695.5800Q206.8400 696.5600 206.8400 697.9600L206.8400 697.9600L206.8400 706.6400Q206.8400 708.0400 205.8600 709.0200Q204.8800 710 203.4800 710L203.4800 710ZM240.4400 711.4000L240.4400 711.4000Q233.1600 711.4000 227.2800 708.5300Q221.4000 705.6600 217.9700 700.8300Q214.5400 696 214.5400 689.9800L214.5400 689.9800Q214.5400 680.1800 222.5200 674.3700Q230.5000 668.5600 243.3800 666.6000L243.3800 666.6000L262.5600 663.8000L262.5600 660.8600Q262.5600 654.9800 259.6200 651.7600Q256.6800 648.5400 249.5400 648.5400L249.5400 648.5400Q244.5000 648.5400 241.3500 650.5700Q238.2000 652.6000 236.6600 655.9600L236.6600 655.9600Q235.5400 657.7800 233.4400 657.7800L233.4400 657.7800L222.3800 657.7800Q220.8400 657.7800 220.0700 656.9400Q219.3000 656.1000 219.3000 654.7000L219.3000 654.7000Q219.4400 652.4600 221.1900 649.2400Q222.9400 646.0200 226.5100 643.0100Q230.0800 640 235.8200 637.9000Q241.5600 635.8000 249.6800 635.8000L249.6800 635.8000Q258.5000 635.8000 264.5900 637.9700Q270.6800 640.1400 274.3200 643.7800Q277.9600 647.4200 279.6400 652.3200Q281.3200 657.2200 281.3200 662.6800L281.3200 662.6800L281.3200 706.6400Q281.3200 708.0400 280.3400 709.0200Q279.3600 710 277.9600 710L277.9600 710L266.6200 710Q265.0800 710 264.1700 709.0200Q263.2600 708.0400 263.2600 706.6400L263.2600 706.6400L263.2600 701.1800Q261.4400 703.7000 258.3600 706.0800Q255.2800 708.4600 250.8700 709.9300Q246.4600 711.4000 240.4400 711.4000ZM245.2000 698.1000L245.2000 698.1000Q250.1000 698.1000 254.0900 696Q258.0800 693.9000 260.3900 689.4900Q262.7000 685.0800 262.7000 678.3600L262.7000 678.3600L262.7000 675.4200L248.7000 677.6600Q240.4400 678.9200 236.3800 681.7200Q232.3200 684.5200 232.3200 688.5800L232.3200 688.5800Q232.3200 691.6600 234.2100 693.8300Q236.1000 696 239.0400 697.0500Q241.9800 698.1000 245.2000 698.1000ZM339.5600 711.4000L339.5600 711.4000Q331.4400 711.4000 326.0500 708.6000Q320.6600 705.8000 317.1600 701.4600L317.1600 701.4600L317.1600 706.6400Q317.1600 708.0400 316.2500 709.0200Q315.3400 710 313.8000 710L313.8000 710L302.7400 710Q301.3400 710 300.3600 709.0200Q299.3800 708.0400 299.3800 706.6400L299.3800 706.6400L299.3800 613.9600Q299.3800 612.5600 300.3600 611.5800Q301.3400 610.6000 302.7400 610.6000L302.7400 610.6000L314.6400 610.6000Q316.1800 610.6000 317.0900 611.5800Q318 612.5600 318 613.9600L318 613.9600L318 645.0400Q321.5000 640.9800 326.7500 638.3900Q332 635.8000 339.5600 635.8000L339.5600 635.8000Q346.9800 635.8000 352.4400 638.3200Q357.9000 640.8400 361.6100 645.3900Q365.3200 649.9400 367.2800 655.9600Q369.2400 661.9800 369.3800 668.9800L369.3800 668.9800Q369.5200 671.5000 369.5200 673.5300Q369.5200 675.5600 369.3800 678.0800L369.3800 678.0800Q369.1000 685.3600 367.1400 691.4500Q365.1800 697.5400 361.5400 702.0200Q357.9000 706.5000 352.4400 708.9500Q346.9800 711.4000 339.5600 711.4000ZM334.3800 696.4200L334.3800 696.4200Q340.4000 696.4200 343.7600 693.8300Q347.1200 691.2400 348.6600 687.0400Q350.2000 682.8400 350.4800 677.8000L350.4800 677.8000Q350.6200 673.6000 350.4800 669.4000L350.4800 669.4000Q350.2000 664.3600 348.6600 660.1600Q347.1200 655.9600 343.7600 653.3700Q340.4000 650.7800 334.3800 650.7800L334.3800 650.7800Q328.7800 650.7800 325.2800 653.3000Q321.7800 655.8200 319.9600 659.6700Q318.1400 663.5200 318 667.7200L318 667.7200Q317.8600 670.2400 317.8600 673.1100Q317.8600 675.9800 318 678.5000L318 678.5000Q318.2800 682.8400 319.8900 686.9700Q321.5000 691.1000 325.0700 693.7600Q328.6400 696.4200 334.3800 696.4200ZM416.4200 711.4000L416.4200 711.4000Q400.8800 711.4000 391.7800 702.4400Q382.6800 693.4800 381.9800 676.9600L381.9800 676.9600Q381.8400 675.5600 381.8400 673.3900Q381.8400 671.2200 381.9800 669.9600L381.9800 669.9600Q382.5400 659.3200 386.8100 651.6900Q391.0800 644.0600 398.6400 639.9300Q406.2000 635.8000 416.4200 635.8000L416.4200 635.8000Q427.7600 635.8000 435.4600 640.4900Q443.1600 645.1800 447.0800 653.5100Q451 661.8400 451 672.7600L451 672.7600L451 675.7000Q451 677.1000 450.0200 678.0800Q449.0400 679.0600 447.5000 679.0600L447.5000 679.0600L401.0200 679.0600Q401.0200 679.0600 401.0200 679.4800Q401.0200 679.9000 401.0200 680.1800L401.0200 680.1800Q401.1600 685.0800 402.9100 689.2100Q404.6600 693.3400 408.0900 695.8600Q411.5200 698.3800 416.2800 698.3800L416.2800 698.3800Q420.2000 698.3800 422.8600 697.1900Q425.5200 696 427.2000 694.4600Q428.8800 692.9200 429.5800 691.9400L429.5800 691.9400Q430.8400 690.2600 431.6100 689.9100Q432.3800 689.5600 433.9200 689.5600L433.9200 689.5600L445.9600 689.5600Q447.3600 689.5600 448.2700 690.4000Q449.1800 691.2400 449.0400 692.5000L449.0400 692.5000Q448.9000 694.7400 446.7300 697.9600Q444.5600 701.1800 440.5000 704.2600Q436.4400 707.3400 430.3500 709.3700Q424.2600 711.4000 416.4200 711.4000ZM401.0200 666.8800L401.0200 667.3000L431.9600 667.3000L431.9600 666.8800Q431.9600 661.4200 430.1400 657.2900Q428.3200 653.1600 424.8200 650.8500Q421.3200 648.5400 416.4200 648.5400L416.4200 648.5400Q411.5200 648.5400 408.0200 650.8500Q404.5200 653.1600 402.7700 657.2900Q401.0200 661.4200 401.0200 666.8800L401.0200 666.8800ZM480.9600 710L469.3400 710Q467.9400 710 466.9600 709.0200Q465.9800 708.0400 465.9800 706.6400L465.9800 706.6400L465.9800 613.9600Q465.9800 612.5600 466.9600 611.5800Q467.9400 610.6000 469.3400 610.6000L469.3400 610.6000L480.9600 610.6000Q482.3600 610.6000 483.3400 611.5800Q484.3200 612.5600 484.3200 613.9600L484.3200 613.9600L484.3200 706.6400Q484.3200 708.0400 483.3400 709.0200Q482.3600 710 480.9600 710L480.9600 710ZM524.0800 711.4000L524.0800 711.4000Q516.8000 711.4000 510.9200 708.5300Q505.0400 705.6600 501.6100 700.8300Q498.1800 696 498.1800 689.9800L498.1800 689.9800Q498.1800 680.1800 506.1600 674.3700Q514.1400 668.5600 527.0200 666.6000L527.0200 666.6000L546.2000 663.8000L546.2000 660.8600Q546.2000 654.9800 543.2600 651.7600Q540.3200 648.5400 533.1800 648.5400L533.1800 648.5400Q528.1400 648.5400 524.9900 650.5700Q521.8400 652.6000 520.3000 655.9600L520.3000 655.9600Q519.1800 657.7800 517.0800 657.7800L517.0800 657.7800L506.0200 657.7800Q504.4800 657.7800 503.7100 656.9400Q502.9400 656.1000 502.9400 654.7000L502.9400 654.7000Q503.0800 652.4600 504.8300 649.2400Q506.5800 646.0200 510.1500 643.0100Q513.7200 640 519.4600 637.9000Q525.2000 635.8000 533.3200 635.8000L533.3200 635.8000Q542.1400 635.8000 548.2300 637.9700Q554.3200 640.1400 557.9600 643.7800Q561.6000 647.4200 563.2800 652.3200Q564.9600 657.2200 564.9600 662.6800L564.9600 662.6800L564.9600 706.6400Q564.9600 708.0400 563.9800 709.0200Q563 710 561.6000 710L561.6000 710L550.2600 710Q548.7200 710 547.8100 709.0200Q546.9000 708.0400 546.9000 706.6400L546.9000 706.6400L546.9000 701.1800Q545.0800 703.7000 542 706.0800Q538.9200 708.4600 534.5100 709.9300Q530.1000 711.4000 524.0800 711.4000ZM528.8400 698.1000L528.8400 698.1000Q533.7400 698.1000 537.7300 696Q541.7200 693.9000 544.0300 689.4900Q546.3400 685.0800 546.3400 678.3600L546.3400 678.3600L546.3400 675.4200L532.3400 677.6600Q524.0800 678.9200 520.0200 681.7200Q515.9600 684.5200 515.9600 688.5800L515.9600 688.5800Q515.9600 691.6600 517.8500 693.8300Q519.7400 696 522.6800 697.0500Q525.6200 698.1000 528.8400 698.1000ZM610.4600 711.4000L610.4600 711.4000Q602.0600 711.4000 596.1100 709.4400Q590.1600 707.4800 586.3800 704.5400Q582.6000 701.6000 580.7800 698.6600Q578.9600 695.7200 578.8200 693.7600L578.8200 693.7600Q578.6800 692.2200 579.7300 691.3100Q580.7800 690.4000 582.0400 690.4000L582.0400 690.4000L593.1000 690.4000Q593.6600 690.4000 594.0800 690.5400Q594.5000 690.6800 595.2000 691.3800L595.2000 691.3800Q597.0200 692.9200 599.0500 694.6000Q601.0800 696.2800 603.8800 697.4700Q606.6800 698.6600 610.8800 698.6600L610.8800 698.6600Q616.3400 698.6600 620.0500 696.4900Q623.7600 694.3200 623.7600 690.2600L623.7600 690.2600Q623.7600 687.3200 622.1500 685.5000Q620.5400 683.6800 616.2000 682.2100Q611.8600 680.7400 603.8800 679.0600L603.8800 679.0600Q596.0400 677.2400 590.8600 674.4400Q585.6800 671.6400 583.1600 667.4400Q580.6400 663.2400 580.6400 657.6400L580.6400 657.6400Q580.6400 652.1800 583.9300 647.2100Q587.2200 642.2400 593.7300 639.0200Q600.2400 635.8000 609.9000 635.8000L609.9000 635.8000Q617.4600 635.8000 623.0600 637.6900Q628.6600 639.5800 632.3700 642.3800Q636.0800 645.1800 638.0400 648.0500Q640.0000 650.9200 640.1400 653.0200L640.1400 653.0200Q640.2800 654.5600 639.3000 655.4700Q638.3200 656.3800 637.0600 656.3800L637.0600 656.3800L626.7000 656.3800Q626.0000 656.3800 625.4400 656.1000Q624.8800 655.8200 624.3200 655.4000L624.3200 655.4000Q622.7800 654 620.9600 652.3900Q619.1400 650.7800 616.5500 649.6600Q613.9600 648.5400 609.7600 648.5400L609.7600 648.5400Q604.4400 648.5400 601.6400 650.8500Q598.8400 653.1600 598.8400 656.6600L598.8400 656.6600Q598.8400 659.0400 600.1700 660.7900Q601.5000 662.5400 605.5600 664.0800Q609.6200 665.6200 617.8800 667.3000L617.8800 667.3000Q627.2600 668.9800 632.7900 672.2700Q638.3200 675.5600 640.6300 679.8300Q642.9400 684.1000 642.9400 689.2800L642.9400 689.2800Q642.9400 695.5800 639.2300 700.6200Q635.5200 705.6600 628.3100 708.5300Q621.1000 711.4000 610.4600 711.4000ZM716.4400 711.4000L716.4400 711.4000Q707.9000 711.4000 701.6700 707.5500Q695.4400 703.7000 692.0800 696.6300Q688.7200 689.5600 688.7200 679.9000L688.7200 679.9000L688.7200 640.5600Q688.7200 639.1600 689.7000 638.1800Q690.6800 637.2000 692.0800 637.2000L692.0800 637.2000L704.4000 637.2000Q705.9400 637.2000 706.8500 638.1800Q707.7600 639.1600 707.7600 640.5600L707.7600 640.5600L707.7600 679.0600Q707.7600 696.4200 723.0200 696.4200L723.0200 696.4200Q730.3000 696.4200 734.5700 691.8000Q738.8400 687.1800 738.8400 679.0600L738.8400 679.0600L738.8400 640.5600Q738.8400 639.1600 739.8200 638.1800Q740.8000 637.2000 742.2000 637.2000L742.2000 637.2000L754.5200 637.2000Q755.9200 637.2000 756.9000 638.1800Q757.8800 639.1600 757.8800 640.5600L757.8800 640.5600L757.8800 706.6400Q757.8800 708.0400 756.9000 709.0200Q755.9200 710 754.5200 710L754.5200 710L743.1800 710Q741.6400 710 740.7300 709.0200Q739.8200 708.0400 739.8200 706.6400L739.8200 706.6400L739.8200 700.9000Q736.0400 705.8000 730.4400 708.6000Q724.8400 711.4000 716.4400 711.4000ZM820.6000 710L809.2600 710Q800.8600 710 795.1200 707.0600Q789.3800 704.1200 786.5800 698.3100Q783.7800 692.5000 783.7800 683.8200L783.7800 683.8200L783.7800 652.0400L772.7200 652.0400Q771.3200 652.0400 770.3400 651.0600Q769.3600 650.0800 769.3600 648.5400L769.3600 648.5400L769.3600 640.5600Q769.3600 639.1600 770.3400 638.1800Q771.3200 637.2000 772.7200 637.2000L772.7200 637.2000L783.7800 637.2000L783.7800 613.9600Q783.7800 612.5600 784.6900 611.5800Q785.6000 610.6000 787.1400 610.6000L787.1400 610.6000L798.4800 610.6000Q799.8800 610.6000 800.8600 611.5800Q801.8400 612.5600 801.8400 613.9600L801.8400 613.9600L801.8400 637.2000L819.3400 637.2000Q820.7400 637.2000 821.7200 638.1800Q822.7000 639.1600 822.7000 640.5600L822.7000 640.5600L822.7000 648.5400Q822.7000 650.0800 821.7200 651.0600Q820.7400 652.0400 819.3400 652.0400L819.3400 652.0400L801.8400 652.0400L801.8400 682.4200Q801.8400 688.1600 803.8700 691.3800Q805.9000 694.6000 810.9400 694.6000L810.9400 694.6000L820.6000 694.6000Q822.0000 694.6000 822.9800 695.5800Q823.9600 696.5600 823.9600 697.9600L823.9600 697.9600L823.9600 706.6400Q823.9600 708.0400 822.9800 709.0200Q822.0000 710 820.6000 710L820.6000 710ZM851.4000 710L839.7800 710Q838.3800 710 837.4000 709.0200Q836.4200 708.0400 836.4200 706.6400L836.4200 706.6400L836.4200 640.5600Q836.4200 639.1600 837.4000 638.1800Q838.3800 637.2000 839.7800 637.2000L839.7800 637.2000L851.4000 637.2000Q852.9400 637.2000 853.8500 638.1800Q854.7600 639.1600 854.7600 640.5600L854.7600 640.5600L854.7600 706.6400Q854.7600 708.0400 853.8500 709.0200Q852.9400 710 851.4000 710L851.4000 710ZM851.9600 625.1600L839.2200 625.1600Q837.8200 625.1600 836.8400 624.1800Q835.8600 623.2000 835.8600 621.8000L835.8600 621.8000L835.8600 611.7200Q835.8600 610.3200 836.8400 609.3400Q837.8200 608.3600 839.2200 608.3600L839.2200 608.3600L851.9600 608.3600Q853.5000 608.3600 854.4800 609.3400Q855.4600 610.3200 855.4600 611.7200L855.4600 611.7200L855.4600 621.8000Q855.4600 623.2000 854.4800 624.1800Q853.5000 625.1600 851.9600 625.1600L851.9600 625.1600ZM888.5000 710L876.8800 710Q875.4800 710 874.5000 709.0200Q873.5200 708.0400 873.5200 706.6400L873.5200 706.6400L873.5200 613.9600Q873.5200 612.5600 874.5000 611.5800Q875.4800 610.6000 876.8800 610.6000L876.8800 610.6000L888.5000 610.6000Q889.9000 610.6000 890.8800 611.5800Q891.8600 612.5600 891.8600 613.9600L891.8600 613.9600L891.8600 706.6400Q891.8600 708.0400 890.8800 709.0200Q889.9000 710 888.5000 710L888.5000 710ZM925.4600 710L913.8400 710Q912.4400 710 911.4600 709.0200Q910.4800 708.0400 910.4800 706.6400L910.4800 706.6400L910.4800 640.5600Q910.4800 639.1600 911.4600 638.1800Q912.4400 637.2000 913.8400 637.2000L913.8400 637.2000L925.4600 637.2000Q927.0000 637.2000 927.9100 638.1800Q928.8200 639.1600 928.8200 640.5600L928.8200 640.5600L928.8200 706.6400Q928.8200 708.0400 927.9100 709.0200Q927.0000 710 925.4600 710L925.4600 710ZM926.0200 625.1600L913.2800 625.1600Q911.8800 625.1600 910.9000 624.1800Q909.9200 623.2000 909.9200 621.8000L909.9200 621.8000L909.9200 611.7200Q909.9200 610.3200 910.9000 609.3400Q911.8800 608.3600 913.2800 608.3600L913.2800 608.3600L926.0200 608.3600Q927.5600 608.3600 928.5400 609.3400Q929.5200 610.3200 929.5200 611.7200L929.5200 611.7200L929.5200 621.8000Q929.5200 623.2000 928.5400 624.1800Q927.5600 625.1600 926.0200 625.1600L926.0200 625.1600ZM1004.2800 710L947.1600 710Q945.6200 710 944.7100 709.0200Q943.8000 708.0400 943.8000 706.6400L943.8000 706.6400L943.8000 698.6600Q943.8000 697.4000 944.4300 696.2100Q945.0600 695.0200 945.7600 694.1800L945.7600 694.1800L981.6000 651.7600L948.2800 651.7600Q946.8800 651.7600 945.9000 650.8500Q944.9200 649.9400 944.9200 648.4000L944.9200 648.4000L944.9200 640.5600Q944.9200 639.1600 945.9000 638.1800Q946.8800 637.2000 948.2800 637.2000L948.2800 637.2000L1001.3400 637.2000Q1002.8800 637.2000 1003.7900 638.1800Q1004.7000 639.1600 1004.7000 640.5600L1004.7000 640.5600L1004.7000 649.1000Q1004.7000 650.3600 1004.1400 651.3400Q1003.5800 652.3200 1002.7400 653.3000L1002.7400 653.3000L967.7400 695.4400L1004.2800 695.4400Q1005.6800 695.4400 1006.6600 696.3500Q1007.6400 697.2600 1007.6400 698.8000L1007.6400 698.8000L1007.6400 706.6400Q1007.6400 708.0400 1006.6600 709.0200Q1005.6800 710 1004.2800 710L1004.2800 710ZM1042.9200 711.4000L1042.9200 711.4000Q1035.6400 711.4000 1029.7600 708.5300Q1023.8800 705.6600 1020.4500 700.8300Q1017.0200 696 1017.0200 689.9800L1017.0200 689.9800Q1017.0200 680.1800 1025.0000 674.3700Q1032.9800 668.5600 1045.8600 666.6000L1045.8600 666.6000L1065.0400 663.8000L1065.0400 660.8600Q1065.0400 654.9800 1062.1000 651.7600Q1059.1600 648.5400 1052.0200 648.5400L1052.0200 648.5400Q1046.9800 648.5400 1043.8300 650.5700Q1040.6800 652.6000 1039.1400 655.9600L1039.1400 655.9600Q1038.0200 657.7800 1035.9200 657.7800L1035.9200 657.7800L1024.8600 657.7800Q1023.3200 657.7800 1022.5500 656.9400Q1021.7800 656.1000 1021.7800 654.7000L1021.7800 654.7000Q1021.9200 652.4600 1023.6700 649.2400Q1025.4200 646.0200 1028.9900 643.0100Q1032.5600 640 1038.3000 637.9000Q1044.0400 635.8000 1052.1600 635.8000L1052.1600 635.8000Q1060.9800 635.8000 1067.0700 637.9700Q1073.1600 640.1400 1076.8000 643.7800Q1080.4400 647.4200 1082.1200 652.3200Q1083.8000 657.2200 1083.8000 662.6800L1083.8000 662.6800L1083.8000 706.6400Q1083.8000 708.0400 1082.8200 709.0200Q1081.8400 710 1080.4400 710L1080.4400 710L1069.1000 710Q1067.5600 710 1066.6500 709.0200Q1065.7400 708.0400 1065.7400 706.6400L1065.7400 706.6400L1065.7400 701.1800Q1063.9200 703.7000 1060.8400 706.0800Q1057.7600 708.4600 1053.3500 709.9300Q1048.9400 711.4000 1042.9200 711.4000ZM1047.6800 698.1000L1047.6800 698.1000Q1052.5800 698.1000 1056.5700 696Q1060.5600 693.9000 1062.8700 689.4900Q1065.1800 685.0800 1065.1800 678.3600L1065.1800 678.3600L1065.1800 675.4200L1051.1800 677.6600Q1042.9200 678.9200 1038.8600 681.7200Q1034.8000 684.5200 1034.8000 688.5800L1034.8000 688.5800Q1034.8000 691.6600 1036.6900 693.8300Q1038.5800 696 1041.5200 697.0500Q1044.4600 698.1000 1047.6800 698.1000ZM1117.4000 710L1105.0800 710Q1103.6800 710 1102.7000 709.0200Q1101.7200 708.0400 1101.7200 706.6400L1101.7200 706.6400L1101.7200 640.5600Q1101.7200 639.1600 1102.7000 638.1800Q1103.6800 637.2000 1105.0800 637.2000L1105.0800 637.2000L1116.5600 637.2000Q1117.9600 637.2000 1118.9400 638.1800Q1119.9200 639.1600 1119.9200 640.5600L1119.9200 640.5600L1119.9200 646.3000Q1123.5600 641.8200 1129.2300 638.8100Q1134.9000 635.8000 1143.3000 635.8000L1143.3000 635.8000Q1151.8400 635.8000 1158.1400 639.6500Q1164.4400 643.5000 1167.8700 650.5000Q1171.3000 657.5000 1171.3000 667.3000L1171.3000 667.3000L1171.3000 706.6400Q1171.3000 708.0400 1170.3200 709.0200Q1169.3400 710 1167.9400 710L1167.9400 710L1155.6200 710Q1154.2200 710 1153.2400 709.0200Q1152.2600 708.0400 1152.2600 706.6400L1152.2600 706.6400L1152.2600 668.1400Q1152.2600 660.0200 1148.2700 655.4000Q1144.2800 650.7800 1136.7200 650.7800L1136.7200 650.7800Q1129.4400 650.7800 1125.1000 655.4000Q1120.7600 660.0200 1120.7600 668.1400L1120.7600 668.1400L1120.7600 706.6400Q1120.7600 708.0400 1119.7800 709.0200Q1118.8000 710 1117.4000 710L1117.4000 710ZM1216.1000 711.4000L1216.1000 711.4000Q1208.8200 711.4000 1203.2900 708.9500Q1197.7600 706.5000 1194.1200 702.0200Q1190.4800 697.5400 1188.5200 691.4500Q1186.5600 685.3600 1186.2800 678.0800L1186.2800 678.0800Q1186.1400 675.5600 1186.1400 673.5300Q1186.1400 671.5000 1186.2800 668.9800L1186.2800 668.9800Q1186.5600 661.9800 1188.4500 655.9600Q1190.3400 649.9400 1194.0500 645.3900Q1197.7600 640.8400 1203.2900 638.3200Q1208.8200 635.8000 1216.1000 635.8000L1216.1000 635.8000Q1223.6600 635.8000 1228.9100 638.3900Q1234.1600 640.9800 1237.6600 645.0400L1237.6600 645.0400L1237.6600 613.9600Q1237.6600 612.5600 1238.5700 611.5800Q1239.4800 610.6000 1241.0200 610.6000L1241.0200 610.6000L1252.9200 610.6000Q1254.3200 610.6000 1255.3000 611.5800Q1256.2800 612.5600 1256.2800 613.9600L1256.2800 613.9600L1256.2800 706.6400Q1256.2800 708.0400 1255.3000 709.0200Q1254.3200 710 1252.9200 710L1252.9200 710L1241.8600 710Q1240.3200 710 1239.4100 709.0200Q1238.5000 708.0400 1238.5000 706.6400L1238.5000 706.6400L1238.5000 701.4600Q1235.0000 705.8000 1229.6100 708.6000Q1224.2200 711.4000 1216.1000 711.4000ZM1221.2800 696.4200L1221.2800 696.4200Q1227.1600 696.4200 1230.6600 693.7600Q1234.1600 691.1000 1235.8400 686.9700Q1237.5200 682.8400 1237.6600 678.5000L1237.6600 678.5000Q1237.8000 675.9800 1237.8000 673.1100Q1237.8000 670.2400 1237.6600 667.7200L1237.6600 667.7200Q1237.5200 663.5200 1235.7000 659.6700Q1233.8800 655.8200 1230.3800 653.3000Q1226.8800 650.7800 1221.2800 650.7800L1221.2800 650.7800Q1215.4000 650.7800 1211.9700 653.3700Q1208.5400 655.9600 1207.0000 660.1600Q1205.4600 664.3600 1205.1800 669.4000L1205.1800 669.4000Q1205.0400 673.6000 1205.1800 677.8000L1205.1800 677.8000Q1205.4600 682.8400 1207.0000 687.0400Q1208.5400 691.2400 1211.9700 693.8300Q1215.4000 696.4200 1221.2800 696.4200ZM1307.1000 711.4000L1307.1000 711.4000Q1295.9000 711.4000 1288.2700 707.4800Q1280.6400 703.5600 1276.6500 696.4200Q1272.6600 689.2800 1272.1000 679.7600L1272.1000 679.7600Q1271.9600 677.2400 1271.9600 673.6000Q1271.9600 669.9600 1272.1000 667.4400L1272.1000 667.4400Q1272.6600 657.7800 1276.7900 650.7100Q1280.9200 643.6400 1288.5500 639.7200Q1296.1800 635.8000 1307.1000 635.8000L1307.1000 635.8000Q1318.0200 635.8000 1325.6500 639.7200Q1333.2800 643.6400 1337.4100 650.7100Q1341.5400 657.7800 1342.1000 667.4400L1342.1000 667.4400Q1342.2400 669.9600 1342.2400 673.6000Q1342.2400 677.2400 1342.1000 679.7600L1342.1000 679.7600Q1341.5400 689.2800 1337.5500 696.4200Q1333.5600 703.5600 1325.9300 707.4800Q1318.3000 711.4000 1307.1000 711.4000ZM1307.1000 697.5400L1307.1000 697.5400Q1314.5200 697.5400 1318.5800 692.8500Q1322.6400 688.1600 1323.0600 679.0600L1323.0600 679.0600Q1323.2000 676.9600 1323.2000 673.6000Q1323.2000 670.2400 1323.0600 668.1400L1323.0600 668.1400Q1322.6400 659.0400 1318.5800 654.3500Q1314.5200 649.6600 1307.1000 649.6600L1307.1000 649.6600Q1299.6800 649.6600 1295.6200 654.3500Q1291.5600 659.0400 1291.1400 668.1400L1291.1400 668.1400Q1291 670.2400 1291 673.6000Q1291 676.9600 1291.1400 679.0600L1291.1400 679.0600Q1291.5600 688.1600 1295.6200 692.8500Q1299.6800 697.5400 1307.1000 697.5400ZM1422.0400 711.4000L1422.0400 711.4000Q1410.8400 711.4000 1403.2100 707.4800Q1395.5800 703.5600 1391.5900 696.4200Q1387.6000 689.2800 1387.0400 679.7600L1387.0400 679.7600Q1386.9000 677.2400 1386.9000 673.6000Q1386.9000 669.9600 1387.0400 667.4400L1387.0400 667.4400Q1387.6000 657.7800 1391.7300 650.7100Q1395.8600 643.6400 1403.4900 639.7200Q1411.1200 635.8000 1422.0400 635.8000L1422.0400 635.8000Q1432.9600 635.8000 1440.5900 639.7200Q1448.2200 643.6400 1452.3500 650.7100Q1456.4800 657.7800 1457.0400 667.4400L1457.0400 667.4400Q1457.1800 669.9600 1457.1800 673.6000Q1457.1800 677.2400 1457.0400 679.7600L1457.0400 679.7600Q1456.4800 689.2800 1452.4900 696.4200Q1448.5000 703.5600 1440.8700 707.4800Q1433.2400 711.4000 1422.0400 711.4000ZM1422.0400 697.5400L1422.0400 697.5400Q1429.4600 697.5400 1433.5200 692.8500Q1437.5800 688.1600 1438.0000 679.0600L1438.0000 679.0600Q1438.1400 676.9600 1438.1400 673.6000Q1438.1400 670.2400 1438.0000 668.1400L1438.0000 668.1400Q1437.5800 659.0400 1433.5200 654.3500Q1429.4600 649.6600 1422.0400 649.6600L1422.0400 649.6600Q1414.6200 649.6600 1410.5600 654.3500Q1406.5000 659.0400 1406.0800 668.1400L1406.0800 668.1400Q1405.9400 670.2400 1405.9400 673.6000Q1405.9400 676.9600 1406.0800 679.0600L1406.0800 679.0600Q1406.5000 688.1600 1410.5600 692.8500Q1414.6200 697.5400 1422.0400 697.5400ZM194.9400 851.4000L194.9400 851.4000Q181.9200 851.4000 173.1700 847.5500Q164.4200 843.7000 159.8700 837.4700Q155.3200 831.2400 155.0400 824.3800L155.0400 824.3800Q155.0400 823.1200 155.8800 822.2800Q156.7200 821.4400 157.9800 821.4400L157.9800 821.4400L170.4400 821.4400Q172.2600 821.4400 173.1700 822.2100Q174.0800 822.9800 174.7800 824.1000L174.7800 824.1000Q175.6200 826.7600 178 829.3500Q180.3800 831.9400 184.5100 833.6200Q188.6400 835.3000 194.9400 835.3000L194.9400 835.3000Q205.0200 835.3000 209.9900 831.9400Q214.9600 828.5800 214.9600 822.8400L214.9600 822.8400Q214.9600 818.7800 212.3000 816.3300Q209.6400 813.8800 204.1100 811.8500Q198.5800 809.8200 189.4800 807.5800L189.4800 807.5800Q178.9800 805.0600 171.9100 801.4900Q164.8400 797.9200 161.2700 792.4600Q157.7000 787 157.7000 778.6000L157.7000 778.6000Q157.7000 770.4800 162.1100 764.1800Q166.5200 757.8800 174.7100 754.2400Q182.9000 750.6000 194.2400 750.6000L194.2400 750.6000Q203.3400 750.6000 210.3400 753.0500Q217.3400 755.5000 221.9600 759.4900Q226.5800 763.4800 229.0300 768.0300Q231.4800 772.5800 231.6200 776.9200L231.6200 776.9200Q231.6200 778.0400 230.8500 778.9500Q230.0800 779.8600 228.6800 779.8600L228.6800 779.8600L215.6600 779.8600Q214.5400 779.8600 213.4200 779.3000Q212.3000 778.7400 211.6000 777.2000L211.6000 777.2000Q210.7600 772.8600 206.1400 769.7800Q201.5200 766.7000 194.2400 766.7000L194.2400 766.7000Q186.6800 766.7000 182.0600 769.5000Q177.4400 772.3000 177.4400 778.1800L177.4400 778.1800Q177.4400 782.1000 179.7500 784.6900Q182.0600 787.2800 187.1700 789.2400Q192.2800 791.2000 200.6800 793.4400L200.6800 793.4400Q212.5800 796.1000 220.1400 799.6000Q227.7000 803.1000 231.2000 808.4900Q234.7000 813.8800 234.7000 822.1400L234.7000 822.1400Q234.7000 831.3800 229.7300 837.8900Q224.7600 844.4000 215.8000 847.9000Q206.8400 851.4000 194.9400 851.4000ZM326.6800 859.1000L313.6600 859.1000Q311.7000 859.1000 310.5100 857.9100Q309.3200 856.7200 308.6200 855.8800L308.6200 855.8800L303.4400 848.8800Q296.8600 851.4000 288.4600 851.4000L288.4600 851.4000Q276 851.4000 266.9700 847.2700Q257.9400 843.1400 252.9700 834.5300Q248 825.9200 247.4400 813.0400L247.4400 813.0400Q247.3000 807.0200 247.3000 801.1400Q247.3000 795.2600 247.4400 789.1000L247.4400 789.1000Q248 776.3600 253.1100 767.8200Q258.2200 759.2800 267.3200 754.9400Q276.4200 750.6000 288.4600 750.6000L288.4600 750.6000Q300.5000 750.6000 309.6000 754.9400Q318.7000 759.2800 323.8800 767.8200Q329.0600 776.3600 329.3400 789.1000L329.3400 789.1000Q329.6200 795.2600 329.6200 801.1400Q329.6200 807.0200 329.3400 813.0400L329.3400 813.0400Q328.6400 831.3800 319.2600 840.9000L319.2600 840.9000L329.0600 854.7600Q329.2000 854.9000 329.3400 855.2500Q329.4800 855.6000 329.4800 856.1600L329.4800 856.1600Q329.6200 857.4200 328.7100 858.2600Q327.8000 859.1000 326.6800 859.1000L326.6800 859.1000ZM288.4600 835.3000L288.4600 835.3000Q297.4200 835.3000 303.1600 829.9100Q308.9000 824.5200 309.3200 812.3400L309.3200 812.3400Q309.6000 806.1800 309.6000 800.9300Q309.6000 795.6800 309.3200 789.6600L309.3200 789.6600Q309.1800 781.5400 306.3800 776.4300Q303.5800 771.3200 299.0300 769.0100Q294.4800 766.7000 288.4600 766.7000L288.4600 766.7000Q282.5800 766.7000 277.9600 769.0100Q273.3400 771.3200 270.6100 776.4300Q267.8800 781.5400 267.4600 789.6600L267.4600 789.6600Q267.3200 795.6800 267.3200 800.9300Q267.3200 806.1800 267.4600 812.3400L267.4600 812.3400Q268.0200 824.5200 273.7600 829.9100Q279.5000 835.3000 288.4600 835.3000ZM412.2200 850L351.4600 850Q350.0600 850 349.0800 849.0200Q348.1000 848.0400 348.1000 846.6400L348.1000 846.6400L348.1000 755.3600Q348.1000 753.9600 349.0800 752.9800Q350.0600 752 351.4600 752L351.4600 752L364.4800 752Q365.8800 752 366.8600 752.9800Q367.8400 753.9600 367.8400 755.3600L367.8400 755.3600L367.8400 833.3400L412.2200 833.3400Q413.7600 833.3400 414.7400 834.3200Q415.7200 835.3000 415.7200 836.8400L415.7200 836.8400L415.7200 846.6400Q415.7200 848.0400 414.7400 849.0200Q413.7600 850 412.2200 850L412.2200 850ZM493 851.4000L493 851.4000Q485.4400 851.4000 478.6500 849.5100Q471.8600 847.6200 466.5400 843.7000Q461.2200 839.7800 458.0700 834.0400Q454.9200 828.3000 454.7800 820.4600L454.7800 820.4600Q454.7800 819.2000 455.6200 818.2900Q456.4600 817.3800 457.7200 817.3800L457.7200 817.3800L471.0200 817.3800Q472.8400 817.3800 473.7500 818.3600Q474.6600 819.3400 475.2200 821.0200L475.2200 821.0200Q475.9200 826.0600 478.4400 829.2100Q480.9600 832.3600 484.8100 833.8300Q488.6600 835.3000 493.4200 835.3000L493.4200 835.3000Q502.2400 835.3000 506.9300 829.5600Q511.6200 823.8200 511.6200 813.6000L511.6200 813.6000L511.6200 768.5200L464.1600 768.5200Q462.6200 768.5200 461.7100 767.5400Q460.8000 766.5600 460.8000 765.1600L460.8000 765.1600L460.8000 755.3600Q460.8000 753.9600 461.7100 752.9800Q462.6200 752 464.1600 752L464.1600 752L528.1400 752Q529.6800 752 530.6600 752.9800Q531.6400 753.9600 531.6400 755.5000L531.6400 755.5000L531.6400 814.1600Q531.6400 825.7800 526.8100 834.1800Q521.9800 842.5800 513.3700 846.9900Q504.7600 851.4000 493 851.4000ZM583.1600 851.4000L583.1600 851.4000Q571.9600 851.4000 564.3300 847.4800Q556.7000 843.5600 552.7100 836.4200Q548.7200 829.2800 548.1600 819.7600L548.1600 819.7600Q548.0200 817.2400 548.0200 813.6000Q548.0200 809.9600 548.1600 807.4400L548.1600 807.4400Q548.7200 797.7800 552.8500 790.7100Q556.9800 783.6400 564.6100 779.7200Q572.2400 775.8000 583.1600 775.8000L583.1600 775.8000Q594.0800 775.8000 601.7100 779.7200Q609.3400 783.6400 613.4700 790.7100Q617.6000 797.7800 618.1600 807.4400L618.1600 807.4400Q618.3000 809.9600 618.3000 813.6000Q618.3000 817.2400 618.1600 819.7600L618.1600 819.7600Q617.6000 829.2800 613.6100 836.4200Q609.6200 843.5600 601.9900 847.4800Q594.3600 851.4000 583.1600 851.4000ZM583.1600 837.5400L583.1600 837.5400Q590.5800 837.5400 594.6400 832.8500Q598.7000 828.1600 599.1200 819.0600L599.1200 819.0600Q599.2600 816.9600 599.2600 813.6000Q599.2600 810.2400 599.1200 808.1400L599.1200 808.1400Q598.7000 799.0400 594.6400 794.3500Q590.5800 789.6600 583.1600 789.6600L583.1600 789.6600Q575.7400 789.6600 571.6800 794.3500Q567.6200 799.0400 567.2000 808.1400L567.2000 808.1400Q567.0600 810.2400 567.0600 813.6000Q567.0600 816.9600 567.2000 819.0600L567.2000 819.0600Q567.6200 828.1600 571.6800 832.8500Q575.7400 837.5400 583.1600 837.5400ZM648.8200 850L637.2000 850Q635.8000 850 634.8200 849.0200Q633.8400 848.0400 633.8400 846.6400L633.8400 846.6400L633.8400 780.5600Q633.8400 779.1600 634.8200 778.1800Q635.8000 777.2000 637.2000 777.2000L637.2000 777.2000L648.8200 777.2000Q650.3600 777.2000 651.2700 778.1800Q652.1800 779.1600 652.1800 780.5600L652.1800 780.5600L652.1800 846.6400Q652.1800 848.0400 651.2700 849.0200Q650.3600 850 648.8200 850L648.8200 850ZM649.3800 765.1600L636.6400 765.1600Q635.2400 765.1600 634.2600 764.1800Q633.2800 763.2000 633.2800 761.8000L633.2800 761.8000L633.2800 751.7200Q633.2800 750.3200 634.2600 749.3400Q635.2400 748.3600 636.6400 748.3600L636.6400 748.3600L649.3800 748.3600Q650.9200 748.3600 651.9000 749.3400Q652.8800 750.3200 652.8800 751.7200L652.8800 751.7200L652.8800 761.8000Q652.8800 763.2000 651.9000 764.1800Q650.9200 765.1600 649.3800 765.1600L649.3800 765.1600ZM686.4800 850L674.1600 850Q672.7600 850 671.7800 849.0200Q670.8000 848.0400 670.8000 846.6400L670.8000 846.6400L670.8000 780.5600Q670.8000 779.1600 671.7800 778.1800Q672.7600 777.2000 674.1600 777.2000L674.1600 777.2000L685.6400 777.2000Q687.0400 777.2000 688.0200 778.1800Q689.0000 779.1600 689.0000 780.5600L689.0000 780.5600L689.0000 786.3000Q692.6400 781.8200 698.3100 778.8100Q703.9800 775.8000 712.3800 775.8000L712.3800 775.8000Q720.9200 775.8000 727.2200 779.6500Q733.5200 783.5000 736.9500 790.5000Q740.3800 797.5000 740.3800 807.3000L740.3800 807.3000L740.3800 846.6400Q740.3800 848.0400 739.4000 849.0200Q738.4200 850 737.0200 850L737.0200 850L724.7000 850Q723.3000 850 722.3200 849.0200Q721.3400 848.0400 721.3400 846.6400L721.3400 846.6400L721.3400 808.1400Q721.3400 800.0200 717.3500 795.4000Q713.3600 790.7800 705.8000 790.7800L705.8000 790.7800Q698.5200 790.7800 694.1800 795.4000Q689.8400 800.0200 689.8400 808.1400L689.8400 808.1400L689.8400 846.6400Q689.8400 848.0400 688.8600 849.0200Q687.8800 850 686.4800 850L686.4800 850Z" id="title"/></g></svg>