<svg xmlns="http://www.w3.org/2000/svg" version="1.1" xmlns:xlink="http://www.w3.org/1999/xlink" xmlns:svgjs="http://svgjs.dev/svgjs" viewBox="0 0 1920 1080" id="81b0c49b-061d-49e9-b93e-bb2a999b8d86"><g><rect width="1920" height="1080" fill="#b96517"/></g><g fill="#5c4796"><path d="M528.139 1441.91C839.399 1514.3 1150.41 1320.65 1222.8 1009.39C1295.18 698.133 1101.54 387.125 790.279 314.737C479.019 242.349 168.011 435.993 95.6227 747.253C23.2348 1058.51 216.879 1369.52 528.139 1441.91Z"/></g><g fill="#ffffff" opacity="0.2"><path d="M1291.25 885.139C1353.46 858.886 1407.46 821.623 1452.27 776.616L1100.97 924.875C1164.47 924.172 1229.05 911.392 1291.25 885.139Z"/><path d="M1040.15 921.833L1492.72 730.839C1508.41 710.694 1522.29 689.649 1534.78 667.535L965.455 907.808C989.724 914.173 1014.78 919.021 1040.15 921.833Z"/><path d="M926.298 895.39L1553.2 630.818C1561.39 613.128 1568.35 594.771 1574.33 576.351L872.535 872.528C889.905 881.093 907.826 888.714 926.298 895.39Z"/><path d="M842.437 856.285L1583.49 543.54C1587.48 527.146 1590.7 510.604 1593.14 493.915L800.149 828.58C813.811 838.473 827.907 847.708 842.437 856.285Z"/><path d="M776.091 809.791L1596.46 463.571C1597.55 448.165 1598.15 432.728 1598.06 417.344L741.856 778.688C752.816 789.483 764.093 799.908 776.091 809.791Z"/><path d="M722.429 757.94L1596.95 388.865C1595.83 374.394 1594.21 359.891 1591.91 345.442L694.837 724.033C703.498 735.562 712.645 747.122 722.429 757.94Z"/><path d="M679.234 701.675L1586.78 318.666C1583.84 304.959 1580.21 291.306 1575.89 277.707L657.28 665.389C664.128 677.682 671.379 689.806 679.234 701.675Z"/><path d="M635.858 620.812C638.832 627.86 642.008 634.824 645.099 641.586L1567.14 252.46C1564.65 245.443 1561.67 238.395 1558.7 231.346C1556.15 225.305 1553.48 219.55 1550.82 213.795L628.781 602.921C631.045 608.846 633.308 614.771 635.858 620.812Z"/><path d="M620.023 577.674L1539.24 189.737C1532.51 177.157 1525.26 165.034 1517.69 153.281L608.94 536.8C611.793 550.305 615.707 564.074 620.023 577.674Z"/><path d="M603.604 510.106L1502.09 130.921C1493.54 119.106 1484.28 107.832 1474.7 96.9289L598.359 466.768C599.401 481.038 601.015 495.541 603.604 510.106Z"/><path d="M596.849 438.462L1455.67 76.0138C1444.83 64.9317 1433.55 54.5073 1421.84 44.7406L598.046 392.405C596.873 407.609 596.474 422.962 596.849 438.462Z"/><path d="M601.165 362.145L1397.98 25.8656C1384.52 15.8881 1370.34 6.4518 1356.1 -2.00908L610.415 312.69C606.339 328.883 603.323 345.339 601.165 362.145Z"/><path d="M619.172 280.05L1326.2 -18.3369C1308.95 -27.1879 1291.23 -34.8935 1273.24 -41.5387L639.695 225.837C631.709 243.442 625.069 261.428 619.172 280.05Z"/><path d="M1161.52 -69.119L697.88 126.549C682.794 146.438 669.394 167.514 657.426 189.173L1234.4 -54.3285C1210.74 -60.9484 1186.29 -66.0517 1161.52 -69.119Z"/><path d="M903.623 -33.3525C838.597 -5.90982 782.285 33.7509 736.316 81.6209L1102.51 -72.9251C1036.15 -73.3862 968.648 -60.7953 903.623 -33.3525Z"/></g><g><path d="M178.635 139.281L184.422 144.246V166.626H215.704L219.958 172.147L215.69 177.397H184.422V198.795L178.635 203.747L173 198.795V144.232L178.635 139.281ZM195.554 195.68H219.406L223.397 200.915L219.143 206.45H195.554L191.7 201.342L195.554 195.68ZM196.382 138H219.129L223.383 143.52L219.129 148.77H196.659L192.115 143.677L196.382 138ZM323.155 148.628L328.251 154.291L323.155 159.968H246.13L241.172 154.291L246.13 148.628H323.155ZM237.043 172.147L241.849 167.893L246.669 172.147V178.393C246.669 188.879 249.417 197.515 261.668 197.515H264.14C275.147 197.515 281.197 189.86 281.197 177.952V172.005L285.879 167.75L290.699 171.862V178.379C290.699 189.007 293.723 196.946 305.56 196.946H307.618C319.178 196.946 321.235 187.869 321.373 177.952V171.578L326.056 167.608L331 171.72V178.094C330.862 191.838 327.285 207.574 308.032 207.574H305.974C294.552 207.574 288.365 202.324 285.892 195.808C283.006 202.466 275.299 208.286 264.844 208.286H262.358C242.553 208.286 237.194 195.964 237.056 178.663V172.147H237.043ZM276.391 274.744L273.642 267.089L280.796 264.969L305.974 276.721V252.491L311.07 248.095L316.291 252.491V281.829L325.641 286.226L328.251 293.311L320.959 296L276.391 274.744ZM321.235 223.011L328.113 226.27L325.917 233.497L264.002 263.119L256.571 260.146L259.596 252.776L321.235 223.011ZM231.905 263.404L237.954 268.512C237.402 286.51 222.403 296 204.669 296H202.874C194.062 296 183.759 292.6 177.157 286.083L177.834 278.855L184.298 278.002C189.118 282.256 195.858 285.229 202.183 285.229H204.117C216.091 285.229 225.303 280.136 226.27 268.085L231.905 263.404ZM226.256 251.638C225.704 239.16 216.629 234.209 204.103 234.209H202.169C194.739 234.209 189.104 237.182 184.284 241.436L177.834 240.583L177.143 233.355C183.745 226.696 192.957 223.58 202.597 223.58H204.517C222.403 223.58 237.402 232.942 237.94 251.211L231.891 256.176L226.256 251.638Z" fill="#ffffff"/></g><path d="M1171 781L1171 339L1187 339L1187 781L1171 781Z" fill="#ffffff"/><g fill="#ffffff" id="info-group"><path d="M181.3200 510.9000L181.3200 510.9000Q172.9500 510.9000 167.1450 507.9750Q161.3400 505.0500 158.2800 499.6050Q155.2200 494.1600 154.8600 486.5100L154.8600 486.5100Q154.7700 482.8200 154.7700 478.5900Q154.7700 474.3600 154.8600 470.4900L154.8600 470.4900Q155.2200 462.9300 158.3250 457.4400Q161.4300 451.9500 167.2350 449.0250Q173.0400 446.1000 181.3200 446.1000L181.3200 446.1000Q187.4400 446.1000 192.3000 447.7200Q197.1600 449.3400 200.5800 452.1750Q204 455.0100 205.8900 458.7900Q207.7800 462.5700 207.8700 466.9800L207.8700 466.9800Q207.9600 467.7900 207.3750 468.3300Q206.7900 468.8700 205.9800 468.8700L205.9800 468.8700L197.4300 468.8700Q196.4400 468.8700 195.8100 468.3750Q195.1800 467.8800 194.9100 466.7100L194.9100 466.7100Q193.4700 460.7700 189.9600 458.6100Q186.4500 456.4500 181.2300 456.4500L181.2300 456.4500Q175.2000 456.4500 171.6000 459.8250Q168 463.2000 167.7300 470.9400L167.7300 470.9400Q167.4600 478.3200 167.7300 486.0600L167.7300 486.0600Q168 493.8000 171.6000 497.1750Q175.2000 500.5500 181.2300 500.5500L181.2300 500.5500Q186.4500 500.5500 190.0050 498.3450Q193.5600 496.1400 194.9100 490.2900L194.9100 490.2900Q195.1800 489.0300 195.8100 488.5800Q196.4400 488.1300 197.4300 488.1300L197.4300 488.1300L205.9800 488.1300Q206.7900 488.1300 207.3750 488.6700Q207.9600 489.2100 207.8700 490.0200L207.8700 490.0200Q207.7800 494.4300 205.8900 498.2100Q204 501.9900 200.5800 504.8250Q197.1600 507.6600 192.3000 509.2800Q187.4400 510.9000 181.3200 510.9000ZM238.2000 510.9000L238.2000 510.9000Q231 510.9000 226.0950 508.3800Q221.1900 505.8600 218.6250 501.2700Q216.0600 496.6800 215.7000 490.5600L215.7000 490.5600Q215.6100 488.9400 215.6100 486.6000Q215.6100 484.2600 215.7000 482.6400L215.7000 482.6400Q216.0600 476.4300 218.7150 471.8850Q221.3700 467.3400 226.2750 464.8200Q231.1800 462.3000 238.2000 462.3000L238.2000 462.3000Q245.2200 462.3000 250.1250 464.8200Q255.0300 467.3400 257.6850 471.8850Q260.3400 476.4300 260.7000 482.6400L260.7000 482.6400Q260.7900 484.2600 260.7900 486.6000Q260.7900 488.9400 260.7000 490.5600L260.7000 490.5600Q260.3400 496.6800 257.7750 501.2700Q255.2100 505.8600 250.3050 508.3800Q245.4000 510.9000 238.2000 510.9000ZM238.2000 501.9900L238.2000 501.9900Q242.9700 501.9900 245.5800 498.9750Q248.1900 495.9600 248.4600 490.1100L248.4600 490.1100Q248.5500 488.7600 248.5500 486.6000Q248.5500 484.4400 248.4600 483.0900L248.4600 483.0900Q248.1900 477.2400 245.5800 474.2250Q242.9700 471.2100 238.2000 471.2100L238.2000 471.2100Q233.4300 471.2100 230.8200 474.2250Q228.2100 477.2400 227.9400 483.0900L227.9400 483.0900Q227.8500 484.4400 227.8500 486.6000Q227.8500 488.7600 227.9400 490.1100L227.9400 490.1100Q228.2100 495.9600 230.8200 498.9750Q233.4300 501.9900 238.2000 501.9900ZM280.8600 510L272.9400 510Q272.0400 510 271.4100 509.3700Q270.7800 508.7400 270.7800 507.8400L270.7800 507.8400L270.7800 465.3600Q270.7800 464.4600 271.4100 463.8300Q272.0400 463.2000 272.9400 463.2000L272.9400 463.2000L280.3200 463.2000Q281.2200 463.2000 281.8500 463.8300Q282.4800 464.4600 282.4800 465.3600L282.4800 465.3600L282.4800 469.0500Q284.8200 466.1700 288.4650 464.2350Q292.1100 462.3000 297.5100 462.3000L297.5100 462.3000Q303 462.3000 307.0500 464.7750Q311.1000 467.2500 313.3050 471.7500Q315.5100 476.2500 315.5100 482.5500L315.5100 482.5500L315.5100 507.8400Q315.5100 508.7400 314.8800 509.3700Q314.2500 510 313.3500 510L313.3500 510L305.4300 510Q304.5300 510 303.9000 509.3700Q303.2700 508.7400 303.2700 507.8400L303.2700 507.8400L303.2700 483.0900Q303.2700 477.8700 300.7050 474.9000Q298.1400 471.9300 293.2800 471.9300L293.2800 471.9300Q288.6000 471.9300 285.8100 474.9000Q283.0200 477.8700 283.0200 483.0900L283.0200 483.0900L283.0200 507.8400Q283.0200 508.7400 282.3900 509.3700Q281.7600 510 280.8600 510L280.8600 510ZM344.6700 510.9000L344.6700 510.9000Q339.2700 510.9000 335.4450 509.6400Q331.6200 508.3800 329.1900 506.4900Q326.7600 504.6000 325.5900 502.7100Q324.4200 500.8200 324.3300 499.5600L324.3300 499.5600Q324.2400 498.5700 324.9150 497.9850Q325.5900 497.4000 326.4000 497.4000L326.4000 497.4000L333.5100 497.4000Q333.8700 497.4000 334.1400 497.4900Q334.4100 497.5800 334.8600 498.0300L334.8600 498.0300Q336.0300 499.0200 337.3350 500.1000Q338.6400 501.1800 340.4400 501.9450Q342.2400 502.7100 344.9400 502.7100L344.9400 502.7100Q348.4500 502.7100 350.8350 501.3150Q353.2200 499.9200 353.2200 497.3100L353.2200 497.3100Q353.2200 495.4200 352.1850 494.2500Q351.1500 493.0800 348.3600 492.1350Q345.5700 491.1900 340.4400 490.1100L340.4400 490.1100Q335.4000 488.9400 332.0700 487.1400Q328.7400 485.3400 327.1200 482.6400Q325.5000 479.9400 325.5000 476.3400L325.5000 476.3400Q325.5000 472.8300 327.6150 469.6350Q329.7300 466.4400 333.9150 464.3700Q338.1000 462.3000 344.3100 462.3000L344.3100 462.3000Q349.1700 462.3000 352.7700 463.5150Q356.3700 464.7300 358.7550 466.5300Q361.1400 468.3300 362.4000 470.1750Q363.6600 472.0200 363.7500 473.3700L363.7500 473.3700Q363.8400 474.3600 363.2100 474.9450Q362.5800 475.5300 361.7700 475.5300L361.7700 475.5300L355.1100 475.5300Q354.6600 475.5300 354.3000 475.3500Q353.9400 475.1700 353.5800 474.9000L353.5800 474.9000Q352.5900 474 351.4200 472.9650Q350.2500 471.9300 348.5850 471.2100Q346.9200 470.4900 344.2200 470.4900L344.2200 470.4900Q340.8000 470.4900 339 471.9750Q337.2000 473.4600 337.2000 475.7100L337.2000 475.7100Q337.2000 477.2400 338.0550 478.3650Q338.9100 479.4900 341.5200 480.4800Q344.1300 481.4700 349.4400 482.5500L349.4400 482.5500Q355.4700 483.6300 359.0250 485.7450Q362.5800 487.8600 364.0650 490.6050Q365.5500 493.3500 365.5500 496.6800L365.5500 496.6800Q365.5500 500.7300 363.1650 503.9700Q360.7800 507.2100 356.1450 509.0550Q351.5100 510.9000 344.6700 510.9000ZM403.2600 510L395.9700 510Q390.5700 510 386.8800 508.1100Q383.1900 506.2200 381.3900 502.4850Q379.5900 498.7500 379.5900 493.1700L379.5900 493.1700L379.5900 472.7400L372.4800 472.7400Q371.5800 472.7400 370.9500 472.1100Q370.3200 471.4800 370.3200 470.4900L370.3200 470.4900L370.3200 465.3600Q370.3200 464.4600 370.9500 463.8300Q371.5800 463.2000 372.4800 463.2000L372.4800 463.2000L379.5900 463.2000L379.5900 448.2600Q379.5900 447.3600 380.1750 446.7300Q380.7600 446.1000 381.7500 446.1000L381.7500 446.1000L389.0400 446.1000Q389.9400 446.1000 390.5700 446.7300Q391.2000 447.3600 391.2000 448.2600L391.2000 448.2600L391.2000 463.2000L402.4500 463.2000Q403.3500 463.2000 403.9800 463.8300Q404.6100 464.4600 404.6100 465.3600L404.6100 465.3600L404.6100 470.4900Q404.6100 471.4800 403.9800 472.1100Q403.3500 472.7400 402.4500 472.7400L402.4500 472.7400L391.2000 472.7400L391.2000 492.2700Q391.2000 495.9600 392.5050 498.0300Q393.8100 500.1000 397.0500 500.1000L397.0500 500.1000L403.2600 500.1000Q404.1600 500.1000 404.7900 500.7300Q405.4200 501.3600 405.4200 502.2600L405.4200 502.2600L405.4200 507.8400Q405.4200 508.7400 404.7900 509.3700Q404.1600 510 403.2600 510L403.2600 510ZM423.4200 510L415.5900 510Q414.6900 510 414.0600 509.3700Q413.4300 508.7400 413.4300 507.8400L413.4300 507.8400L413.4300 465.4500Q413.4300 464.4600 414.0600 463.8300Q414.6900 463.2000 415.5900 463.2000L415.5900 463.2000L422.8800 463.2000Q423.7800 463.2000 424.4550 463.8300Q425.1300 464.4600 425.1300 465.4500L425.1300 465.4500L425.1300 469.1400Q427.2000 466.2600 430.4850 464.7300Q433.7700 463.2000 438.0900 463.2000L438.0900 463.2000L441.7800 463.2000Q442.7700 463.2000 443.3550 463.8300Q443.9400 464.4600 443.9400 465.3600L443.9400 465.3600L443.9400 471.8400Q443.9400 472.7400 443.3550 473.3700Q442.7700 474 441.7800 474L441.7800 474L434.7600 474Q430.4400 474 428.0550 476.3850Q425.6700 478.7700 425.6700 483.0900L425.6700 483.0900L425.6700 507.8400Q425.6700 508.7400 425.0400 509.3700Q424.4100 510 423.4200 510L423.4200 510ZM468.3300 510.9000L468.3300 510.9000Q462.8400 510.9000 458.8350 508.4250Q454.8300 505.9500 452.6700 501.4050Q450.5100 496.8600 450.5100 490.6500L450.5100 490.6500L450.5100 465.3600Q450.5100 464.4600 451.1400 463.8300Q451.7700 463.2000 452.6700 463.2000L452.6700 463.2000L460.5900 463.2000Q461.5800 463.2000 462.1650 463.8300Q462.7500 464.4600 462.7500 465.3600L462.7500 465.3600L462.7500 490.1100Q462.7500 501.2700 472.5600 501.2700L472.5600 501.2700Q477.2400 501.2700 479.9850 498.3000Q482.7300 495.3300 482.7300 490.1100L482.7300 490.1100L482.7300 465.3600Q482.7300 464.4600 483.3600 463.8300Q483.9900 463.2000 484.8900 463.2000L484.8900 463.2000L492.8100 463.2000Q493.7100 463.2000 494.3400 463.8300Q494.9700 464.4600 494.9700 465.3600L494.9700 465.3600L494.9700 507.8400Q494.9700 508.7400 494.3400 509.3700Q493.7100 510 492.8100 510L492.8100 510L485.5200 510Q484.5300 510 483.9450 509.3700Q483.3600 508.7400 483.3600 507.8400L483.3600 507.8400L483.3600 504.1500Q480.9300 507.3000 477.3300 509.1000Q473.7300 510.9000 468.3300 510.9000ZM516.4800 510L509.0100 510Q508.1100 510 507.4800 509.3700Q506.8500 508.7400 506.8500 507.8400L506.8500 507.8400L506.8500 465.3600Q506.8500 464.4600 507.4800 463.8300Q508.1100 463.2000 509.0100 463.2000L509.0100 463.2000L516.4800 463.2000Q517.4700 463.2000 518.0550 463.8300Q518.6400 464.4600 518.6400 465.3600L518.6400 465.3600L518.6400 507.8400Q518.6400 508.7400 518.0550 509.3700Q517.4700 510 516.4800 510L516.4800 510ZM516.8400 455.4600L508.6500 455.4600Q507.7500 455.4600 507.1200 454.8300Q506.4900 454.2000 506.4900 453.3000L506.4900 453.3000L506.4900 446.8200Q506.4900 445.9200 507.1200 445.2900Q507.7500 444.6600 508.6500 444.6600L508.6500 444.6600L516.8400 444.6600Q517.8300 444.6600 518.4600 445.2900Q519.0900 445.9200 519.0900 446.8200L519.0900 446.8200L519.0900 453.3000Q519.0900 454.2000 518.4600 454.8300Q517.8300 455.4600 516.8400 455.4600L516.8400 455.4600ZM540.6900 510L532.7700 510Q531.8700 510 531.2400 509.3700Q530.6100 508.7400 530.6100 507.8400L530.6100 507.8400L530.6100 465.3600Q530.6100 464.4600 531.2400 463.8300Q531.8700 463.2000 532.7700 463.2000L532.7700 463.2000L540.1500 463.2000Q541.0500 463.2000 541.6800 463.8300Q542.3100 464.4600 542.3100 465.3600L542.3100 465.3600L542.3100 469.0500Q544.6500 466.1700 548.2950 464.2350Q551.9400 462.3000 557.3400 462.3000L557.3400 462.3000Q562.8300 462.3000 566.8800 464.7750Q570.9300 467.2500 573.1350 471.7500Q575.3400 476.2500 575.3400 482.5500L575.3400 482.5500L575.3400 507.8400Q575.3400 508.7400 574.7100 509.3700Q574.0800 510 573.1800 510L573.1800 510L565.2600 510Q564.3600 510 563.7300 509.3700Q563.1000 508.7400 563.1000 507.8400L563.1000 507.8400L563.1000 483.0900Q563.1000 477.8700 560.5350 474.9000Q557.9700 471.9300 553.1100 471.9300L553.1100 471.9300Q548.4300 471.9300 545.6400 474.9000Q542.8500 477.8700 542.8500 483.0900L542.8500 483.0900L542.8500 507.8400Q542.8500 508.7400 542.2200 509.3700Q541.5900 510 540.6900 510L540.6900 510ZM604.1400 510.9000L604.1400 510.9000Q599.4600 510.9000 595.9050 509.3250Q592.3500 507.7500 590.0100 504.8700Q587.6700 501.9900 586.4100 498.0750Q585.1500 494.1600 584.9700 489.4800L584.9700 489.4800Q584.8800 487.8600 584.8800 486.5550Q584.8800 485.2500 584.9700 483.6300L584.9700 483.6300Q585.1500 479.1300 586.3650 475.2600Q587.5800 471.3900 589.9650 468.4650Q592.3500 465.5400 595.9050 463.9200Q599.4600 462.3000 604.1400 462.3000L604.1400 462.3000Q609.0000 462.3000 612.3750 463.9650Q615.7500 465.6300 618.0000 468.2400L618.0000 468.2400L618.0000 448.2600Q618.0000 447.3600 618.5850 446.7300Q619.1700 446.1000 620.1600 446.1000L620.1600 446.1000L627.8100 446.1000Q628.7100 446.1000 629.3400 446.7300Q629.9700 447.3600 629.9700 448.2600L629.9700 448.2600L629.9700 507.8400Q629.9700 508.7400 629.3400 509.3700Q628.7100 510 627.8100 510L627.8100 510L620.7000 510Q619.7100 510 619.1250 509.3700Q618.5400 508.7400 618.5400 507.8400L618.5400 507.8400L618.5400 504.5100Q616.2900 507.3000 612.8250 509.1000Q609.3600 510.9000 604.1400 510.9000ZM607.4700 501.2700L607.4700 501.2700Q611.2500 501.2700 613.5000 499.5600Q615.7500 497.8500 616.8300 495.1950Q617.9100 492.5400 618.0000 489.7500L618.0000 489.7500Q618.0900 488.1300 618.0900 486.2850Q618.0900 484.4400 618.0000 482.8200L618.0000 482.8200Q617.9100 480.1200 616.7400 477.6450Q615.5700 475.1700 613.3200 473.5500Q611.0700 471.9300 607.4700 471.9300L607.4700 471.9300Q603.6900 471.9300 601.4850 473.5950Q599.2800 475.2600 598.2900 477.9600Q597.3000 480.6600 597.1200 483.9000L597.1200 483.9000Q597.0300 486.6000 597.1200 489.3000L597.1200 489.3000Q597.3000 492.5400 598.2900 495.2400Q599.2800 497.9400 601.4850 499.6050Q603.6900 501.2700 607.4700 501.2700ZM662.6400 510.9000L662.6400 510.9000Q655.4400 510.9000 650.5350 508.3800Q645.6300 505.8600 643.0650 501.2700Q640.5000 496.6800 640.1400 490.5600L640.1400 490.5600Q640.0500 488.9400 640.0500 486.6000Q640.0500 484.2600 640.1400 482.6400L640.1400 482.6400Q640.5000 476.4300 643.1550 471.8850Q645.8100 467.3400 650.7150 464.8200Q655.6200 462.3000 662.6400 462.3000L662.6400 462.3000Q669.6600 462.3000 674.5650 464.8200Q679.4700 467.3400 682.1250 471.8850Q684.7800 476.4300 685.1400 482.6400L685.1400 482.6400Q685.2300 484.2600 685.2300 486.6000Q685.2300 488.9400 685.1400 490.5600L685.1400 490.5600Q684.7800 496.6800 682.2150 501.2700Q679.6500 505.8600 674.7450 508.3800Q669.8400 510.9000 662.6400 510.9000ZM662.6400 501.9900L662.6400 501.9900Q667.4100 501.9900 670.0200 498.9750Q672.6300 495.9600 672.9000 490.1100L672.9000 490.1100Q672.9900 488.7600 672.9900 486.6000Q672.9900 484.4400 672.9000 483.0900L672.9000 483.0900Q672.6300 477.2400 670.0200 474.2250Q667.4100 471.2100 662.6400 471.2100L662.6400 471.2100Q657.8700 471.2100 655.2600 474.2250Q652.6500 477.2400 652.3800 483.0900L652.3800 483.0900Q652.2900 484.4400 652.2900 486.6000Q652.2900 488.7600 652.3800 490.1100L652.3800 490.1100Q652.6500 495.9600 655.2600 498.9750Q657.8700 501.9900 662.6400 501.9900ZM733.2000 510.9000L733.2000 510.9000Q727.7100 510.9000 723.7050 508.4250Q719.7000 505.9500 717.5400 501.4050Q715.3800 496.8600 715.3800 490.6500L715.3800 490.6500L715.3800 465.3600Q715.3800 464.4600 716.0100 463.8300Q716.6400 463.2000 717.5400 463.2000L717.5400 463.2000L725.4600 463.2000Q726.4500 463.2000 727.0350 463.8300Q727.6200 464.4600 727.6200 465.3600L727.6200 465.3600L727.6200 490.1100Q727.6200 501.2700 737.4300 501.2700L737.4300 501.2700Q742.1100 501.2700 744.8550 498.3000Q747.6000 495.3300 747.6000 490.1100L747.6000 490.1100L747.6000 465.3600Q747.6000 464.4600 748.2300 463.8300Q748.8600 463.2000 749.7600 463.2000L749.7600 463.2000L757.6800 463.2000Q758.5800 463.2000 759.2100 463.8300Q759.8400 464.4600 759.8400 465.3600L759.8400 465.3600L759.8400 507.8400Q759.8400 508.7400 759.2100 509.3700Q758.5800 510 757.6800 510L757.6800 510L750.3900 510Q749.4000 510 748.8150 509.3700Q748.2300 508.7400 748.2300 507.8400L748.2300 507.8400L748.2300 504.1500Q745.8000 507.3000 742.2000 509.1000Q738.6000 510.9000 733.2000 510.9000ZM781.4400 510L773.8800 510Q772.9800 510 772.3500 509.3700Q771.7200 508.7400 771.7200 507.8400L771.7200 507.8400L771.7200 465.3600Q771.7200 464.4600 772.3500 463.8300Q772.9800 463.2000 773.8800 463.2000L773.8800 463.2000L780.9000 463.2000Q781.8000 463.2000 782.4300 463.8300Q783.0600 464.4600 783.0600 465.3600L783.0600 465.3600L783.0600 468.4200Q784.9500 465.9000 788.1450 464.1450Q791.3400 462.3900 795.7500 462.3000L795.7500 462.3000Q806.0100 462.1200 810.0600 470.3100L810.0600 470.3100Q812.1300 466.7100 816.0450 464.5050Q819.9600 462.3000 824.7300 462.3000L824.7300 462.3000Q829.4100 462.3000 833.2350 464.4600Q837.0600 466.6200 839.2650 470.9850Q841.4700 475.3500 841.4700 482.0100L841.4700 482.0100L841.4700 507.8400Q841.4700 508.7400 840.8400 509.3700Q840.2100 510 839.3100 510L839.3100 510L831.9300 510Q831.0300 510 830.4000 509.3700Q829.7700 508.7400 829.7700 507.8400L829.7700 507.8400L829.7700 482.7300Q829.7700 478.6800 828.6000 476.2950Q827.4300 473.9100 825.4500 472.9200Q823.4700 471.9300 821.0400 471.9300L821.0400 471.9300Q819.0600 471.9300 817.0800 472.9200Q815.1000 473.9100 813.8400 476.2950Q812.5800 478.6800 812.5800 482.7300L812.5800 482.7300L812.5800 507.8400Q812.5800 508.7400 811.9500 509.3700Q811.3200 510 810.4200 510L810.4200 510L803.0400 510Q802.1400 510 801.5100 509.3700Q800.8800 508.7400 800.8800 507.8400L800.8800 507.8400L800.8800 482.7300Q800.8800 478.6800 799.6200 476.2950Q798.3600 473.9100 796.3800 472.9200Q794.4000 471.9300 792.1500 471.9300L792.1500 471.9300Q790.0800 471.9300 788.1000 472.9650Q786.1200 474 784.8600 476.3400Q783.6000 478.6800 783.6000 482.7300L783.6000 482.7300L783.6000 507.8400Q783.6000 508.7400 782.9700 509.3700Q782.3400 510 781.4400 510L781.4400 510ZM866.4900 510.9000L866.4900 510.9000Q861.8100 510.9000 858.0300 509.0550Q854.2500 507.2100 852.0450 504.1050Q849.8400 501 849.8400 497.1300L849.8400 497.1300Q849.8400 490.8300 854.9700 487.0950Q860.1000 483.3600 868.3800 482.1000L868.3800 482.1000L880.7100 480.3000L880.7100 478.4100Q880.7100 474.6300 878.8200 472.5600Q876.9300 470.4900 872.3400 470.4900L872.3400 470.4900Q869.1000 470.4900 867.0750 471.7950Q865.0500 473.1000 864.0600 475.2600L864.0600 475.2600Q863.3400 476.4300 861.9900 476.4300L861.9900 476.4300L854.8800 476.4300Q853.8900 476.4300 853.3950 475.8900Q852.9000 475.3500 852.9000 474.4500L852.9000 474.4500Q852.9900 473.0100 854.1150 470.9400Q855.2400 468.8700 857.5350 466.9350Q859.8300 465 863.5200 463.6500Q867.2100 462.3000 872.4300 462.3000L872.4300 462.3000Q878.1000 462.3000 882.0150 463.6950Q885.9300 465.0900 888.2700 467.4300Q890.6100 469.7700 891.6900 472.9200Q892.7700 476.0700 892.7700 479.5800L892.7700 479.5800L892.7700 507.8400Q892.7700 508.7400 892.1400 509.3700Q891.5100 510 890.6100 510L890.6100 510L883.3200 510Q882.3300 510 881.7450 509.3700Q881.1600 508.7400 881.1600 507.8400L881.1600 507.8400L881.1600 504.3300Q879.9900 505.9500 878.0100 507.4800Q876.0300 509.0100 873.1950 509.9550Q870.3600 510.9000 866.4900 510.9000ZM869.5500 502.3500L869.5500 502.3500Q872.7000 502.3500 875.2650 501Q877.8300 499.6500 879.3150 496.8150Q880.8000 493.9800 880.8000 489.6600L880.8000 489.6600L880.8000 487.7700L871.8000 489.2100Q866.4900 490.0200 863.8800 491.8200Q861.2700 493.6200 861.2700 496.2300L861.2700 496.2300Q861.2700 498.2100 862.4850 499.6050Q863.7000 501 865.5900 501.6750Q867.4800 502.3500 869.5500 502.3500ZM934.6200 510L927.1500 510Q926.2500 510 925.6200 509.3700Q924.9900 508.7400 924.9900 507.8400L924.9900 507.8400L924.9900 448.2600Q924.9900 447.3600 925.6200 446.7300Q926.2500 446.1000 927.1500 446.1000L927.1500 446.1000L934.6200 446.1000Q935.5200 446.1000 936.1500 446.7300Q936.7800 447.3600 936.7800 448.2600L936.7800 448.2600L936.7800 507.8400Q936.7800 508.7400 936.1500 509.3700Q935.5200 510 934.6200 510L934.6200 510ZM969.4500 510.9000L969.4500 510.9000Q962.2500 510.9000 957.3450 508.3800Q952.4400 505.8600 949.8750 501.2700Q947.3100 496.6800 946.9500 490.5600L946.9500 490.5600Q946.8600 488.9400 946.8600 486.6000Q946.8600 484.2600 946.9500 482.6400L946.9500 482.6400Q947.3100 476.4300 949.9650 471.8850Q952.6200 467.3400 957.5250 464.8200Q962.4300 462.3000 969.4500 462.3000L969.4500 462.3000Q976.4700 462.3000 981.3750 464.8200Q986.2800 467.3400 988.9350 471.8850Q991.5900 476.4300 991.9500 482.6400L991.9500 482.6400Q992.0400 484.2600 992.0400 486.6000Q992.0400 488.9400 991.9500 490.5600L991.9500 490.5600Q991.5900 496.6800 989.0250 501.2700Q986.4600 505.8600 981.5550 508.3800Q976.6500 510.9000 969.4500 510.9000ZM969.4500 501.9900L969.4500 501.9900Q974.2200 501.9900 976.8300 498.9750Q979.4400 495.9600 979.7100 490.1100L979.7100 490.1100Q979.8000 488.7600 979.8000 486.6000Q979.8000 484.4400 979.7100 483.0900L979.7100 483.0900Q979.4400 477.2400 976.8300 474.2250Q974.2200 471.2100 969.4500 471.2100L969.4500 471.2100Q964.6800 471.2100 962.0700 474.2250Q959.4600 477.2400 959.1900 483.0900L959.1900 483.0900Q959.1000 484.4400 959.1000 486.6000Q959.1000 488.7600 959.1900 490.1100L959.1900 490.1100Q959.4600 495.9600 962.0700 498.9750Q964.6800 501.9900 969.4500 501.9900ZM997.7100 527.1000L994.2900 527.1000Q993.3900 527.1000 992.7600 526.4700Q992.1300 525.8400 992.1300 524.9400L992.1300 524.9400L992.1300 519.7200Q992.1300 518.8200 992.7600 518.1900Q993.3900 517.5600 994.2900 517.5600L994.2900 517.5600L996.6300 517.5600Q999.4200 517.5600 1000.7700 516.5700Q1002.1200 515.5800 1002.5700 513.8250Q1003.0200 512.0700 1003.0200 509.9100L1003.0200 509.9100L1003.0200 465.3600Q1003.0200 464.4600 1003.6500 463.8300Q1004.2800 463.2000 1005.1800 463.2000L1005.1800 463.2000L1013.0100 463.2000Q1013.9100 463.2000 1014.5400 463.8300Q1015.1700 464.4600 1015.1700 465.3600L1015.1700 465.3600L1015.1700 510.0900Q1015.1700 515.4000 1013.2350 519.1800Q1011.3000 522.9600 1007.4750 525.0300Q1003.6500 527.1000 997.7100 527.1000L997.7100 527.1000ZM1013.2800 455.4600L1004.8200 455.4600Q1003.8300 455.4600 1003.2450 454.8300Q1002.6600 454.2000 1002.6600 453.3000L1002.6600 453.3000L1002.6600 446.8200Q1002.6600 445.9200 1003.2450 445.2900Q1003.8300 444.6600 1004.8200 444.6600L1004.8200 444.6600L1013.2800 444.6600Q1014.2700 444.6600 1014.9000 445.2900Q1015.5300 445.9200 1015.5300 446.8200L1015.5300 446.8200L1015.5300 453.3000Q1015.5300 454.2000 1014.9000 454.8300Q1014.2700 455.4600 1013.2800 455.4600L1013.2800 455.4600ZM1040.7300 510.9000L1040.7300 510.9000Q1036.0500 510.9000 1032.2700 509.0550Q1028.4900 507.2100 1026.2850 504.1050Q1024.0800 501 1024.0800 497.1300L1024.0800 497.1300Q1024.0800 490.8300 1029.2100 487.0950Q1034.3400 483.3600 1042.6200 482.1000L1042.6200 482.1000L1054.9500 480.3000L1054.9500 478.4100Q1054.9500 474.6300 1053.0600 472.5600Q1051.1700 470.4900 1046.5800 470.4900L1046.5800 470.4900Q1043.3400 470.4900 1041.3150 471.7950Q1039.2900 473.1000 1038.3000 475.2600L1038.3000 475.2600Q1037.5800 476.4300 1036.2300 476.4300L1036.2300 476.4300L1029.1200 476.4300Q1028.1300 476.4300 1027.6350 475.8900Q1027.1400 475.3500 1027.1400 474.4500L1027.1400 474.4500Q1027.2300 473.0100 1028.3550 470.9400Q1029.4800 468.8700 1031.7750 466.9350Q1034.0700 465 1037.7600 463.6500Q1041.4500 462.3000 1046.6700 462.3000L1046.6700 462.3000Q1052.3400 462.3000 1056.2550 463.6950Q1060.1700 465.0900 1062.5100 467.4300Q1064.8500 469.7700 1065.9300 472.9200Q1067.0100 476.0700 1067.0100 479.5800L1067.0100 479.5800L1067.0100 507.8400Q1067.0100 508.7400 1066.3800 509.3700Q1065.7500 510 1064.8500 510L1064.8500 510L1057.5600 510Q1056.5700 510 1055.9850 509.3700Q1055.4000 508.7400 1055.4000 507.8400L1055.4000 507.8400L1055.4000 504.3300Q1054.2300 505.9500 1052.2500 507.4800Q1050.2700 509.0100 1047.4350 509.9550Q1044.6000 510.9000 1040.7300 510.9000ZM1043.7900 502.3500L1043.7900 502.3500Q1046.9400 502.3500 1049.5050 501Q1052.0700 499.6500 1053.5550 496.8150Q1055.0400 493.9800 1055.0400 489.6600L1055.0400 489.6600L1055.0400 487.7700L1046.0400 489.2100Q1040.7300 490.0200 1038.1200 491.8200Q1035.5100 493.6200 1035.5100 496.2300L1035.5100 496.2300Q1035.5100 498.2100 1036.7250 499.6050Q1037.9400 501 1039.8300 501.6750Q1041.7200 502.3500 1043.7900 502.3500ZM179.1600 600L172.5000 600Q171.0600 600 170.3850 599.3250Q169.7100 598.6500 169.2600 597.7500L169.2600 597.7500L152.4300 555.9900Q152.2500 555.5400 152.2500 555.1800L152.2500 555.1800Q152.2500 554.3700 152.8350 553.7850Q153.4200 553.2000 154.2300 553.2000L154.2300 553.2000L161.5200 553.2000Q162.6000 553.2000 163.1400 553.7850Q163.6800 554.3700 163.8600 554.9100L163.8600 554.9100L175.8300 586.5000L187.8000 554.9100Q187.9800 554.3700 188.5200 553.7850Q189.0600 553.2000 190.1400 553.2000L190.1400 553.2000L197.5200 553.2000Q198.2400 553.2000 198.8250 553.7850Q199.4100 554.3700 199.4100 555.1800L199.4100 555.1800Q199.4100 555.5400 199.3200 555.9900L199.3200 555.9900L182.4000 597.7500Q182.0400 598.6500 181.3200 599.3250Q180.6000 600 179.1600 600L179.1600 600ZM217.2300 600L209.7600 600Q208.8600 600 208.2300 599.3700Q207.6000 598.7400 207.6000 597.8400L207.6000 597.8400L207.6000 555.3600Q207.6000 554.4600 208.2300 553.8300Q208.8600 553.2000 209.7600 553.2000L209.7600 553.2000L217.2300 553.2000Q218.2200 553.2000 218.8050 553.8300Q219.3900 554.4600 219.3900 555.3600L219.3900 555.3600L219.3900 597.8400Q219.3900 598.7400 218.8050 599.3700Q218.2200 600 217.2300 600L217.2300 600ZM217.5900 545.4600L209.4000 545.4600Q208.5000 545.4600 207.8700 544.8300Q207.2400 544.2000 207.2400 543.3000L207.2400 543.3000L207.2400 536.8200Q207.2400 535.9200 207.8700 535.2900Q208.5000 534.6600 209.4000 534.6600L209.4000 534.6600L217.5900 534.6600Q218.5800 534.6600 219.2100 535.2900Q219.8400 535.9200 219.8400 536.8200L219.8400 536.8200L219.8400 543.3000Q219.8400 544.2000 219.2100 544.8300Q218.5800 545.4600 217.5900 545.4600L217.5900 545.4600ZM241.3500 600L233.5200 600Q232.6200 600 231.9900 599.3700Q231.3600 598.7400 231.3600 597.8400L231.3600 597.8400L231.3600 555.4500Q231.3600 554.4600 231.9900 553.8300Q232.6200 553.2000 233.5200 553.2000L233.5200 553.2000L240.8100 553.2000Q241.7100 553.2000 242.3850 553.8300Q243.0600 554.4600 243.0600 555.4500L243.0600 555.4500L243.0600 559.1400Q245.1300 556.2600 248.4150 554.7300Q251.7000 553.2000 256.0200 553.2000L256.0200 553.2000L259.7100 553.2000Q260.7000 553.2000 261.2850 553.8300Q261.8700 554.4600 261.8700 555.3600L261.8700 555.3600L261.8700 561.8400Q261.8700 562.7400 261.2850 563.3700Q260.7000 564 259.7100 564L259.7100 564L252.6900 564Q248.3700 564 245.9850 566.3850Q243.6000 568.7700 243.6000 573.0900L243.6000 573.0900L243.6000 597.8400Q243.6000 598.7400 242.9700 599.3700Q242.3400 600 241.3500 600L241.3500 600ZM297.3300 600L290.0400 600Q284.6400 600 280.9500 598.1100Q277.2600 596.2200 275.4600 592.4850Q273.6600 588.7500 273.6600 583.1700L273.6600 583.1700L273.6600 562.7400L266.5500 562.7400Q265.6500 562.7400 265.0200 562.1100Q264.3900 561.4800 264.3900 560.4900L264.3900 560.4900L264.3900 555.3600Q264.3900 554.4600 265.0200 553.8300Q265.6500 553.2000 266.5500 553.2000L266.5500 553.2000L273.6600 553.2000L273.6600 538.2600Q273.6600 537.3600 274.2450 536.7300Q274.8300 536.1000 275.8200 536.1000L275.8200 536.1000L283.1100 536.1000Q284.0100 536.1000 284.6400 536.7300Q285.2700 537.3600 285.2700 538.2600L285.2700 538.2600L285.2700 553.2000L296.5200 553.2000Q297.4200 553.2000 298.0500 553.8300Q298.6800 554.4600 298.6800 555.3600L298.6800 555.3600L298.6800 560.4900Q298.6800 561.4800 298.0500 562.1100Q297.4200 562.7400 296.5200 562.7400L296.5200 562.7400L285.2700 562.7400L285.2700 582.2700Q285.2700 585.9600 286.5750 588.0300Q287.8800 590.1000 291.1200 590.1000L291.1200 590.1000L297.3300 590.1000Q298.2300 590.1000 298.8600 590.7300Q299.4900 591.3600 299.4900 592.2600L299.4900 592.2600L299.4900 597.8400Q299.4900 598.7400 298.8600 599.3700Q298.2300 600 297.3300 600L297.3300 600ZM324.8700 600.9000L324.8700 600.9000Q319.3800 600.9000 315.3750 598.4250Q311.3700 595.9500 309.2100 591.4050Q307.0500 586.8600 307.0500 580.6500L307.0500 580.6500L307.0500 555.3600Q307.0500 554.4600 307.6800 553.8300Q308.3100 553.2000 309.2100 553.2000L309.2100 553.2000L317.1300 553.2000Q318.1200 553.2000 318.7050 553.8300Q319.2900 554.4600 319.2900 555.3600L319.2900 555.3600L319.2900 580.1100Q319.2900 591.2700 329.1000 591.2700L329.1000 591.2700Q333.7800 591.2700 336.5250 588.3000Q339.2700 585.3300 339.2700 580.1100L339.2700 580.1100L339.2700 555.3600Q339.2700 554.4600 339.9000 553.8300Q340.5300 553.2000 341.4300 553.2000L341.4300 553.2000L349.3500 553.2000Q350.2500 553.2000 350.8800 553.8300Q351.5100 554.4600 351.5100 555.3600L351.5100 555.3600L351.5100 597.8400Q351.5100 598.7400 350.8800 599.3700Q350.2500 600 349.3500 600L349.3500 600L342.0600 600Q341.0700 600 340.4850 599.3700Q339.9000 598.7400 339.9000 597.8400L339.9000 597.8400L339.9000 594.1500Q337.4700 597.3000 333.8700 599.1000Q330.2700 600.9000 324.8700 600.9000ZM376.9800 600.9000L376.9800 600.9000Q372.3000 600.9000 368.5200 599.0550Q364.7400 597.2100 362.5350 594.1050Q360.3300 591 360.3300 587.1300L360.3300 587.1300Q360.3300 580.8300 365.4600 577.0950Q370.5900 573.3600 378.8700 572.1000L378.8700 572.1000L391.2000 570.3000L391.2000 568.4100Q391.2000 564.6300 389.3100 562.5600Q387.4200 560.4900 382.8300 560.4900L382.8300 560.4900Q379.5900 560.4900 377.5650 561.7950Q375.5400 563.1000 374.5500 565.2600L374.5500 565.2600Q373.8300 566.4300 372.4800 566.4300L372.4800 566.4300L365.3700 566.4300Q364.3800 566.4300 363.8850 565.8900Q363.3900 565.3500 363.3900 564.4500L363.3900 564.4500Q363.4800 563.0100 364.6050 560.9400Q365.7300 558.8700 368.0250 556.9350Q370.3200 555 374.0100 553.6500Q377.7000 552.3000 382.9200 552.3000L382.9200 552.3000Q388.5900 552.3000 392.5050 553.6950Q396.4200 555.0900 398.7600 557.4300Q401.1000 559.7700 402.1800 562.9200Q403.2600 566.0700 403.2600 569.5800L403.2600 569.5800L403.2600 597.8400Q403.2600 598.7400 402.6300 599.3700Q402 600 401.1000 600L401.1000 600L393.8100 600Q392.8200 600 392.2350 599.3700Q391.6500 598.7400 391.6500 597.8400L391.6500 597.8400L391.6500 594.3300Q390.4800 595.9500 388.5000 597.4800Q386.5200 599.0100 383.6850 599.9550Q380.8500 600.9000 376.9800 600.9000ZM380.0400 592.3500L380.0400 592.3500Q383.1900 592.3500 385.7550 591Q388.3200 589.6500 389.8050 586.8150Q391.2900 583.9800 391.2900 579.6600L391.2900 579.6600L391.2900 577.7700L382.2900 579.2100Q376.9800 580.0200 374.3700 581.8200Q371.7600 583.6200 371.7600 586.2300L371.7600 586.2300Q371.7600 588.2100 372.9750 589.6050Q374.1900 591 376.0800 591.6750Q377.9700 592.3500 380.0400 592.3500ZM424.5000 600L417.0300 600Q416.1300 600 415.5000 599.3700Q414.8700 598.7400 414.8700 597.8400L414.8700 597.8400L414.8700 538.2600Q414.8700 537.3600 415.5000 536.7300Q416.1300 536.1000 417.0300 536.1000L417.0300 536.1000L424.5000 536.1000Q425.4000 536.1000 426.0300 536.7300Q426.6600 537.3600 426.6600 538.2600L426.6600 538.2600L426.6600 597.8400Q426.6600 598.7400 426.0300 599.3700Q425.4000 600 424.5000 600L424.5000 600ZM479.4900 600.9000L479.4900 600.9000Q473.0100 600.9000 468.1050 598.4700Q463.2000 596.0400 460.4550 591.4050Q457.7100 586.7700 457.4400 580.2000L457.4400 580.2000Q457.3500 578.8500 457.3500 576.6450Q457.3500 574.4400 457.4400 573L457.4400 573Q457.7100 566.4300 460.4550 561.7950Q463.2000 557.1600 468.1050 554.7300Q473.0100 552.3000 479.4900 552.3000L479.4900 552.3000Q485.2500 552.3000 489.3000 553.8750Q493.3500 555.4500 495.9600 557.9250Q498.5700 560.4000 499.8750 563.0550Q501.1800 565.7100 501.2700 567.8700L501.2700 567.8700Q501.3600 568.8600 500.6850 569.4450Q500.0100 570.0300 499.1100 570.0300L499.1100 570.0300L491.1900 570.0300Q490.2900 570.0300 489.7950 569.5800Q489.3000 569.1300 488.8500 568.2300L488.8500 568.2300Q487.5000 564.6300 485.2950 563.1450Q483.0900 561.6600 479.6700 561.6600L479.6700 561.6600Q475.1700 561.6600 472.5150 564.4950Q469.8600 567.3300 469.6800 573.4500L469.6800 573.4500Q469.5000 576.8700 469.6800 579.7500L469.6800 579.7500Q469.8600 585.9600 472.5150 588.7500Q475.1700 591.5400 479.6700 591.5400L479.6700 591.5400Q483.1800 591.5400 485.3400 590.0550Q487.5000 588.5700 488.8500 584.9700L488.8500 584.9700Q489.3000 584.0700 489.7950 583.6200Q490.2900 583.1700 491.1900 583.1700L491.1900 583.1700L499.1100 583.1700Q500.0100 583.1700 500.6850 583.7550Q501.3600 584.3400 501.2700 585.3300L501.2700 585.3300Q501.1800 586.9500 500.4150 588.9750Q499.6500 591 497.9850 593.1150Q496.3200 595.2300 493.8000 596.9850Q491.2800 598.7400 487.7250 599.8200Q484.1700 600.9000 479.4900 600.9000ZM531.3300 600.9000L531.3300 600.9000Q524.1300 600.9000 519.2250 598.3800Q514.3200 595.8600 511.7550 591.2700Q509.1900 586.6800 508.8300 580.5600L508.8300 580.5600Q508.7400 578.9400 508.7400 576.6000Q508.7400 574.2600 508.8300 572.6400L508.8300 572.6400Q509.1900 566.4300 511.8450 561.8850Q514.5000 557.3400 519.4050 554.8200Q524.3100 552.3000 531.3300 552.3000L531.3300 552.3000Q538.3500 552.3000 543.2550 554.8200Q548.1600 557.3400 550.8150 561.8850Q553.4700 566.4300 553.8300 572.6400L553.8300 572.6400Q553.9200 574.2600 553.9200 576.6000Q553.9200 578.9400 553.8300 580.5600L553.8300 580.5600Q553.4700 586.6800 550.9050 591.2700Q548.3400 595.8600 543.4350 598.3800Q538.5300 600.9000 531.3300 600.9000ZM531.3300 591.9900L531.3300 591.9900Q536.1000 591.9900 538.7100 588.9750Q541.3200 585.9600 541.5900 580.1100L541.5900 580.1100Q541.6800 578.7600 541.6800 576.6000Q541.6800 574.4400 541.5900 573.0900L541.5900 573.0900Q541.3200 567.2400 538.7100 564.2250Q536.1000 561.2100 531.3300 561.2100L531.3300 561.2100Q526.5600 561.2100 523.9500 564.2250Q521.3400 567.2400 521.0700 573.0900L521.0700 573.0900Q520.9800 574.4400 520.9800 576.6000Q520.9800 578.7600 521.0700 580.1100L521.0700 580.1100Q521.3400 585.9600 523.9500 588.9750Q526.5600 591.9900 531.3300 591.9900ZM573.6300 600L566.0700 600Q565.1700 600 564.5400 599.3700Q563.9100 598.7400 563.9100 597.8400L563.9100 597.8400L563.9100 555.3600Q563.9100 554.4600 564.5400 553.8300Q565.1700 553.2000 566.0700 553.2000L566.0700 553.2000L573.0900 553.2000Q573.9900 553.2000 574.6200 553.8300Q575.2500 554.4600 575.2500 555.3600L575.2500 555.3600L575.2500 558.4200Q577.1400 555.9000 580.3350 554.1450Q583.5300 552.3900 587.9400 552.3000L587.9400 552.3000Q598.2000 552.1200 602.2500 560.3100L602.2500 560.3100Q604.3200 556.7100 608.2350 554.5050Q612.1500 552.3000 616.9200 552.3000L616.9200 552.3000Q621.6000 552.3000 625.4250 554.4600Q629.2500 556.6200 631.4550 560.9850Q633.6600 565.3500 633.6600 572.0100L633.6600 572.0100L633.6600 597.8400Q633.6600 598.7400 633.0300 599.3700Q632.4000 600 631.5000 600L631.5000 600L624.1200 600Q623.2200 600 622.5900 599.3700Q621.9600 598.7400 621.9600 597.8400L621.9600 597.8400L621.9600 572.7300Q621.9600 568.6800 620.7900 566.2950Q619.6200 563.9100 617.6400 562.9200Q615.6600 561.9300 613.2300 561.9300L613.2300 561.9300Q611.2500 561.9300 609.2700 562.9200Q607.2900 563.9100 606.0300 566.2950Q604.7700 568.6800 604.7700 572.7300L604.7700 572.7300L604.7700 597.8400Q604.7700 598.7400 604.1400 599.3700Q603.5100 600 602.6100 600L602.6100 600L595.2300 600Q594.3300 600 593.7000 599.3700Q593.0700 598.7400 593.0700 597.8400L593.0700 597.8400L593.0700 572.7300Q593.0700 568.6800 591.8100 566.2950Q590.5500 563.9100 588.5700 562.9200Q586.5900 561.9300 584.3400 561.9300L584.3400 561.9300Q582.2700 561.9300 580.2900 562.9650Q578.3100 564 577.0500 566.3400Q575.7900 568.6800 575.7900 572.7300L575.7900 572.7300L575.7900 597.8400Q575.7900 598.7400 575.1600 599.3700Q574.5300 600 573.6300 600L573.6300 600ZM677.1300 600L668.9400 600Q668.0400 600 667.4100 599.3700Q666.7800 598.7400 666.7800 597.8400L666.7800 597.8400L666.7800 539.2500Q666.7800 538.2600 667.4100 537.6300Q668.0400 537 668.9400 537L668.9400 537L692.2500 537Q703.1400 537 709.4400 542.0400Q715.7400 547.0800 715.7400 556.7100L715.7400 556.7100Q715.7400 563.3700 712.4550 567.7800Q709.1700 572.1900 703.6800 574.1700L703.6800 574.1700L716.8200 597.1200Q717.0900 597.6600 717.0900 598.1100L717.0900 598.1100Q717.0900 598.9200 716.5050 599.4600Q715.9200 600 715.2000 600L715.2000 600L707.0100 600Q705.4800 600 704.6700 599.1900Q703.8600 598.3800 703.4100 597.5700L703.4100 597.5700L691.8000 576.2400L679.2900 576.2400L679.2900 597.8400Q679.2900 598.7400 678.7050 599.3700Q678.1200 600 677.1300 600L677.1300 600ZM679.2900 546.9900L679.2900 566.0700L691.9800 566.0700Q697.4700 566.0700 700.1700 563.5950Q702.8700 561.1200 702.8700 556.6200L702.8700 556.6200Q702.8700 552.1200 700.2150 549.5550Q697.5600 546.9900 691.9800 546.9900L691.9800 546.9900L679.2900 546.9900ZM746.4300 600.9000L746.4300 600.9000Q736.4400 600.9000 730.5900 595.1400Q724.7400 589.3800 724.2900 578.7600L724.2900 578.7600Q724.2000 577.8600 724.2000 576.4650Q724.2000 575.0700 724.2900 574.2600L724.2900 574.2600Q724.6500 567.4200 727.3950 562.5150Q730.1400 557.6100 735 554.9550Q739.8600 552.3000 746.4300 552.3000L746.4300 552.3000Q753.7200 552.3000 758.6700 555.3150Q763.6200 558.3300 766.1400 563.6850Q768.6600 569.0400 768.6600 576.0600L768.6600 576.0600L768.6600 577.9500Q768.6600 578.8500 768.0300 579.4800Q767.4000 580.1100 766.4100 580.1100L766.4100 580.1100L736.5300 580.1100Q736.5300 580.1100 736.5300 580.3800Q736.5300 580.6500 736.5300 580.8300L736.5300 580.8300Q736.6200 583.9800 737.7450 586.6350Q738.8700 589.2900 741.0750 590.9100Q743.2800 592.5300 746.3400 592.5300L746.3400 592.5300Q748.8600 592.5300 750.5700 591.7650Q752.2800 591 753.3600 590.0100Q754.4400 589.0200 754.8900 588.3900L754.8900 588.3900Q755.7000 587.3100 756.1950 587.0850Q756.6900 586.8600 757.6800 586.8600L757.6800 586.8600L765.4200 586.8600Q766.3200 586.8600 766.9050 587.4000Q767.4900 587.9400 767.4000 588.7500L767.4000 588.7500Q767.3100 590.1900 765.9150 592.2600Q764.5200 594.3300 761.9100 596.3100Q759.3000 598.2900 755.3850 599.5950Q751.4700 600.9000 746.4300 600.9000ZM736.5300 572.2800L736.5300 572.5500L756.4200 572.5500L756.4200 572.2800Q756.4200 568.7700 755.2500 566.1150Q754.0800 563.4600 751.8300 561.9750Q749.5800 560.4900 746.4300 560.4900L746.4300 560.4900Q743.2800 560.4900 741.0300 561.9750Q738.7800 563.4600 737.6550 566.1150Q736.5300 568.7700 736.5300 572.2800L736.5300 572.2800ZM791.7900 600.9000L791.7900 600.9000Q787.1100 600.9000 783.3300 599.0550Q779.5500 597.2100 777.3450 594.1050Q775.1400 591 775.1400 587.1300L775.1400 587.1300Q775.1400 580.8300 780.2700 577.0950Q785.4000 573.3600 793.6800 572.1000L793.6800 572.1000L806.0100 570.3000L806.0100 568.4100Q806.0100 564.6300 804.1200 562.5600Q802.2300 560.4900 797.6400 560.4900L797.6400 560.4900Q794.4000 560.4900 792.3750 561.7950Q790.3500 563.1000 789.3600 565.2600L789.3600 565.2600Q788.6400 566.4300 787.2900 566.4300L787.2900 566.4300L780.1800 566.4300Q779.1900 566.4300 778.6950 565.8900Q778.2000 565.3500 778.2000 564.4500L778.2000 564.4500Q778.2900 563.0100 779.4150 560.9400Q780.5400 558.8700 782.8350 556.9350Q785.1300 555 788.8200 553.6500Q792.5100 552.3000 797.7300 552.3000L797.7300 552.3000Q803.4000 552.3000 807.3150 553.6950Q811.2300 555.0900 813.5700 557.4300Q815.9100 559.7700 816.9900 562.9200Q818.0700 566.0700 818.0700 569.5800L818.0700 569.5800L818.0700 597.8400Q818.0700 598.7400 817.4400 599.3700Q816.8100 600 815.9100 600L815.9100 600L808.6200 600Q807.6300 600 807.0450 599.3700Q806.4600 598.7400 806.4600 597.8400L806.4600 597.8400L806.4600 594.3300Q805.2900 595.9500 803.3100 597.4800Q801.3300 599.0100 798.4950 599.9550Q795.6600 600.9000 791.7900 600.9000ZM794.8500 592.3500L794.8500 592.3500Q798 592.3500 800.5650 591Q803.1300 589.6500 804.6150 586.8150Q806.1000 583.9800 806.1000 579.6600L806.1000 579.6600L806.1000 577.7700L797.1000 579.2100Q791.7900 580.0200 789.1800 581.8200Q786.5700 583.6200 786.5700 586.2300L786.5700 586.2300Q786.5700 588.2100 787.7850 589.6050Q789 591 790.8900 591.6750Q792.7800 592.3500 794.8500 592.3500ZM849.8400 600.9000L849.8400 600.9000Q843.3600 600.9000 838.4550 598.4700Q833.5500 596.0400 830.8050 591.4050Q828.0600 586.7700 827.7900 580.2000L827.7900 580.2000Q827.7000 578.8500 827.7000 576.6450Q827.7000 574.4400 827.7900 573L827.7900 573Q828.0600 566.4300 830.8050 561.7950Q833.5500 557.1600 838.4550 554.7300Q843.3600 552.3000 849.8400 552.3000L849.8400 552.3000Q855.6000 552.3000 859.6500 553.8750Q863.7000 555.4500 866.3100 557.9250Q868.9200 560.4000 870.2250 563.0550Q871.5300 565.7100 871.6200 567.8700L871.6200 567.8700Q871.7100 568.8600 871.0350 569.4450Q870.3600 570.0300 869.4600 570.0300L869.4600 570.0300L861.5400 570.0300Q860.6400 570.0300 860.1450 569.5800Q859.6500 569.1300 859.2000 568.2300L859.2000 568.2300Q857.8500 564.6300 855.6450 563.1450Q853.4400 561.6600 850.0200 561.6600L850.0200 561.6600Q845.5200 561.6600 842.8650 564.4950Q840.2100 567.3300 840.0300 573.4500L840.0300 573.4500Q839.8500 576.8700 840.0300 579.7500L840.0300 579.7500Q840.2100 585.9600 842.8650 588.7500Q845.5200 591.5400 850.0200 591.5400L850.0200 591.5400Q853.5300 591.5400 855.6900 590.0550Q857.8500 588.5700 859.2000 584.9700L859.2000 584.9700Q859.6500 584.0700 860.1450 583.6200Q860.6400 583.1700 861.5400 583.1700L861.5400 583.1700L869.4600 583.1700Q870.3600 583.1700 871.0350 583.7550Q871.7100 584.3400 871.6200 585.3300L871.6200 585.3300Q871.5300 586.9500 870.7650 588.9750Q870 591 868.3350 593.1150Q866.6700 595.2300 864.1500 596.9850Q861.6300 598.7400 858.0750 599.8200Q854.5200 600.9000 849.8400 600.9000ZM909.4200 600L902.1300 600Q896.7300 600 893.0400 598.1100Q889.3500 596.2200 887.5500 592.4850Q885.7500 588.7500 885.7500 583.1700L885.7500 583.1700L885.7500 562.7400L878.6400 562.7400Q877.7400 562.7400 877.1100 562.1100Q876.4800 561.4800 876.4800 560.4900L876.4800 560.4900L876.4800 555.3600Q876.4800 554.4600 877.1100 553.8300Q877.7400 553.2000 878.6400 553.2000L878.6400 553.2000L885.7500 553.2000L885.7500 538.2600Q885.7500 537.3600 886.3350 536.7300Q886.9200 536.1000 887.9100 536.1000L887.9100 536.1000L895.2000 536.1000Q896.1000 536.1000 896.7300 536.7300Q897.3600 537.3600 897.3600 538.2600L897.3600 538.2600L897.3600 553.2000L908.6100 553.2000Q909.5100 553.2000 910.1400 553.8300Q910.7700 554.4600 910.7700 555.3600L910.7700 555.3600L910.7700 560.4900Q910.7700 561.4800 910.1400 562.1100Q909.5100 562.7400 908.6100 562.7400L908.6100 562.7400L897.3600 562.7400L897.3600 582.2700Q897.3600 585.9600 898.6650 588.0300Q899.9700 590.1000 903.2100 590.1000L903.2100 590.1000L909.4200 590.1000Q910.3200 590.1000 910.9500 590.7300Q911.5800 591.3600 911.5800 592.2600L911.5800 592.2600L911.5800 597.8400Q911.5800 598.7400 910.9500 599.3700Q910.3200 600 909.4200 600L909.4200 600ZM969.7200 578.1300L942.0900 578.1300Q941.1000 578.1300 940.5150 577.5000Q939.9300 576.8700 939.9300 575.9700L939.9300 575.9700L939.9300 570.0300Q939.9300 569.1300 940.5150 568.5000Q941.1000 567.8700 942.0900 567.8700L942.0900 567.8700L969.7200 567.8700Q970.6200 567.8700 971.2500 568.5000Q971.8800 569.1300 971.8800 570.0300L971.8800 570.0300L971.8800 575.9700Q971.8800 576.8700 971.2500 577.5000Q970.6200 578.1300 969.7200 578.1300L969.7200 578.1300ZM167.7300 690L159.1800 690Q158.2800 690 157.6500 689.3700Q157.0200 688.7400 157.0200 687.8400L157.0200 687.8400L157.0200 629.2500Q157.0200 628.2600 157.6500 627.6300Q158.2800 627 159.1800 627L159.1800 627L183.3000 627Q190.3200 627 195.5400 629.2050Q200.7600 631.4100 203.6400 635.8650Q206.5200 640.3200 206.5200 646.9800L206.5200 646.9800Q206.5200 653.7300 203.6400 658.0950Q200.7600 662.4600 195.5400 664.6200Q190.3200 666.7800 183.3000 666.7800L183.3000 666.7800L169.8900 666.7800L169.8900 687.8400Q169.8900 688.7400 169.3050 689.3700Q168.7200 690 167.7300 690L167.7300 690ZM169.7100 636.9900L169.7100 656.7900L182.8500 656.7900Q188.0700 656.7900 190.8600 654.3150Q193.6500 651.8400 193.6500 646.9800L193.6500 646.9800Q193.6500 642.4800 191.0400 639.7350Q188.4300 636.9900 182.8500 636.9900L182.8500 636.9900L169.7100 636.9900ZM228.8400 690.9000L228.8400 690.9000Q224.1600 690.9000 220.3800 689.0550Q216.6000 687.2100 214.3950 684.1050Q212.1900 681 212.1900 677.1300L212.1900 677.1300Q212.1900 670.8300 217.3200 667.0950Q222.4500 663.3600 230.7300 662.1000L230.7300 662.1000L243.0600 660.3000L243.0600 658.4100Q243.0600 654.6300 241.1700 652.5600Q239.2800 650.4900 234.6900 650.4900L234.6900 650.4900Q231.4500 650.4900 229.4250 651.7950Q227.4000 653.1000 226.4100 655.2600L226.4100 655.2600Q225.6900 656.4300 224.3400 656.4300L224.3400 656.4300L217.2300 656.4300Q216.2400 656.4300 215.7450 655.8900Q215.2500 655.3500 215.2500 654.4500L215.2500 654.4500Q215.3400 653.0100 216.4650 650.9400Q217.5900 648.8700 219.8850 646.9350Q222.1800 645 225.8700 643.6500Q229.5600 642.3000 234.7800 642.3000L234.7800 642.3000Q240.4500 642.3000 244.3650 643.6950Q248.2800 645.0900 250.6200 647.4300Q252.9600 649.7700 254.0400 652.9200Q255.1200 656.0700 255.1200 659.5800L255.1200 659.5800L255.1200 687.8400Q255.1200 688.7400 254.4900 689.3700Q253.8600 690 252.9600 690L252.9600 690L245.6700 690Q244.6800 690 244.0950 689.3700Q243.5100 688.7400 243.5100 687.8400L243.5100 687.8400L243.5100 684.3300Q242.3400 685.9500 240.3600 687.4800Q238.3800 689.0100 235.5450 689.9550Q232.7100 690.9000 228.8400 690.9000ZM231.9000 682.3500L231.9000 682.3500Q235.0500 682.3500 237.6150 681Q240.1800 679.6500 241.6650 676.8150Q243.1500 673.9800 243.1500 669.6600L243.1500 669.6600L243.1500 667.7700L234.1500 669.2100Q228.8400 670.0200 226.2300 671.8200Q223.6200 673.6200 223.6200 676.2300L223.6200 676.2300Q223.6200 678.2100 224.8350 679.6050Q226.0500 681 227.9400 681.6750Q229.8300 682.3500 231.9000 682.3500ZM276.6300 690L268.8000 690Q267.9000 690 267.2700 689.3700Q266.6400 688.7400 266.6400 687.8400L266.6400 687.8400L266.6400 645.4500Q266.6400 644.4600 267.2700 643.8300Q267.9000 643.2000 268.8000 643.2000L268.8000 643.2000L276.0900 643.2000Q276.9900 643.2000 277.6650 643.8300Q278.3400 644.4600 278.3400 645.4500L278.3400 645.4500L278.3400 649.1400Q280.4100 646.2600 283.6950 644.7300Q286.9800 643.2000 291.3000 643.2000L291.3000 643.2000L294.9900 643.2000Q295.9800 643.2000 296.5650 643.8300Q297.1500 644.4600 297.1500 645.3600L297.1500 645.3600L297.1500 651.8400Q297.1500 652.7400 296.5650 653.3700Q295.9800 654 294.9900 654L294.9900 654L287.9700 654Q283.6500 654 281.2650 656.3850Q278.8800 658.7700 278.8800 663.0900L278.8800 663.0900L278.8800 687.8400Q278.8800 688.7400 278.2500 689.3700Q277.6200 690 276.6300 690L276.6300 690ZM332.6100 690L325.3200 690Q319.9200 690 316.2300 688.1100Q312.5400 686.2200 310.7400 682.4850Q308.9400 678.7500 308.9400 673.1700L308.9400 673.1700L308.9400 652.7400L301.8300 652.7400Q300.9300 652.7400 300.3000 652.1100Q299.6700 651.4800 299.6700 650.4900L299.6700 650.4900L299.6700 645.3600Q299.6700 644.4600 300.3000 643.8300Q300.9300 643.2000 301.8300 643.2000L301.8300 643.2000L308.9400 643.2000L308.9400 628.2600Q308.9400 627.3600 309.5250 626.7300Q310.1100 626.1000 311.1000 626.1000L311.1000 626.1000L318.3900 626.1000Q319.2900 626.1000 319.9200 626.7300Q320.5500 627.3600 320.5500 628.2600L320.5500 628.2600L320.5500 643.2000L331.8000 643.2000Q332.7000 643.2000 333.3300 643.8300Q333.9600 644.4600 333.9600 645.3600L333.9600 645.3600L333.9600 650.4900Q333.9600 651.4800 333.3300 652.1100Q332.7000 652.7400 331.8000 652.7400L331.8000 652.7400L320.5500 652.7400L320.5500 672.2700Q320.5500 675.9600 321.8550 678.0300Q323.1600 680.1000 326.4000 680.1000L326.4000 680.1000L332.6100 680.1000Q333.5100 680.1000 334.1400 680.7300Q334.7700 681.3600 334.7700 682.2600L334.7700 682.2600L334.7700 687.8400Q334.7700 688.7400 334.1400 689.3700Q333.5100 690 332.6100 690L332.6100 690ZM362.9400 690.9000L362.9400 690.9000Q352.9500 690.9000 347.1000 685.1400Q341.2500 679.3800 340.8000 668.7600L340.8000 668.7600Q340.7100 667.8600 340.7100 666.4650Q340.7100 665.0700 340.8000 664.2600L340.8000 664.2600Q341.1600 657.4200 343.9050 652.5150Q346.6500 647.6100 351.5100 644.9550Q356.3700 642.3000 362.9400 642.3000L362.9400 642.3000Q370.2300 642.3000 375.1800 645.3150Q380.1300 648.3300 382.6500 653.6850Q385.1700 659.0400 385.1700 666.0600L385.1700 666.0600L385.1700 667.9500Q385.1700 668.8500 384.5400 669.4800Q383.9100 670.1100 382.9200 670.1100L382.9200 670.1100L353.0400 670.1100Q353.0400 670.1100 353.0400 670.3800Q353.0400 670.6500 353.0400 670.8300L353.0400 670.8300Q353.1300 673.9800 354.2550 676.6350Q355.3800 679.2900 357.5850 680.9100Q359.7900 682.5300 362.8500 682.5300L362.8500 682.5300Q365.3700 682.5300 367.0800 681.7650Q368.7900 681 369.8700 680.0100Q370.9500 679.0200 371.4000 678.3900L371.4000 678.3900Q372.2100 677.3100 372.7050 677.0850Q373.2000 676.8600 374.1900 676.8600L374.1900 676.8600L381.9300 676.8600Q382.8300 676.8600 383.4150 677.4000Q384 677.9400 383.9100 678.7500L383.9100 678.7500Q383.8200 680.1900 382.4250 682.2600Q381.0300 684.3300 378.4200 686.3100Q375.8100 688.2900 371.8950 689.5950Q367.9800 690.9000 362.9400 690.9000ZM353.0400 662.2800L353.0400 662.5500L372.9300 662.5500L372.9300 662.2800Q372.9300 658.7700 371.7600 656.1150Q370.5900 653.4600 368.3400 651.9750Q366.0900 650.4900 362.9400 650.4900L362.9400 650.4900Q359.7900 650.4900 357.5400 651.9750Q355.2900 653.4600 354.1650 656.1150Q353.0400 658.7700 353.0400 662.2800L353.0400 662.2800ZM427.0200 690L418.5600 690Q417.6600 690 417.0300 689.3700Q416.4000 688.7400 416.4000 687.8400L416.4000 687.8400L416.4000 629.1600Q416.4000 628.2600 417.0300 627.6300Q417.6600 627 418.5600 627L418.5600 627L427.0200 627Q428.0100 627 428.5950 627.6300Q429.1800 628.2600 429.1800 629.1600L429.1800 629.1600L429.1800 687.8400Q429.1800 688.7400 428.5950 689.3700Q428.0100 690 427.0200 690L427.0200 690Z" id="title"/><path d="M1396.4200 642.2000L1396.4200 642.2000Q1381.0200 642.2000 1369.8000 638.4600Q1358.5800 634.7200 1351.2100 628.6700Q1343.8400 622.6200 1340.1000 615.4700Q1336.3600 608.3200 1336.1400 601.2800L1336.1400 601.2800Q1336.1400 599.3000 1337.5700 598.0900Q1339 596.8800 1340.9800 596.8800L1340.9800 596.8800L1360.7800 596.8800Q1362.9800 596.8800 1364.5200 597.7600Q1366.0600 598.6400 1367.1600 601.2800L1367.1600 601.2800Q1369.1400 607.2200 1373.6500 610.7400Q1378.1600 614.2600 1384.1000 615.6900Q1390.0400 617.1200 1396.6400 617.1200L1396.6400 617.1200Q1409.8400 617.1200 1417.6500 610.8500Q1425.4600 604.5800 1425.4600 592.9200L1425.4600 592.9200Q1425.4600 581.2600 1418.2000 576.0900Q1410.9400 570.9200 1397.9600 570.9200L1397.9600 570.9200L1375.3000 570.9200Q1372.8800 570.9200 1371.3400 569.4900Q1369.8000 568.0600 1369.8000 565.6400L1369.8000 565.6400L1369.8000 556.4000Q1369.8000 554.2000 1370.7900 552.5500Q1371.7800 550.9000 1372.8800 549.8000L1372.8800 549.8000L1412.2600 511.3000L1349.3400 511.3000Q1346.9200 511.3000 1345.4900 509.7600Q1344.0600 508.2200 1344.0600 506.0200L1344.0600 506.0200L1344.0600 491.5000Q1344.0600 489.0800 1345.4900 487.5400Q1346.9200 486 1349.3400 486L1349.3400 486L1443.7200 486Q1446.1400 486 1447.6800 487.5400Q1449.2200 489.0800 1449.2200 491.5000L1449.2200 491.5000L1449.2200 504.7000Q1449.2200 506.6800 1448.3400 508.2200Q1447.4600 509.7600 1446.3600 510.8600L1446.3600 510.8600L1408.3000 550.0200L1410.9400 550.2400Q1424.3600 551.3400 1434.8100 556.2900Q1445.2600 561.2400 1451.0900 570.7000Q1456.9200 580.1600 1456.9200 594.4600L1456.9200 594.4600Q1456.9200 609.4200 1449.1100 620.0900Q1441.3000 630.7600 1427.6600 636.4800Q1414.0200 642.2000 1396.4200 642.2000ZM1533.9200 642.4200L1533.9200 642.4200Q1515 642.4200 1502.0200 636.1500Q1489.0400 629.8800 1482.3300 619.7600Q1475.6200 609.6400 1475.1800 598.2000L1475.1800 598.2000Q1474.9600 596.2200 1476.3900 595.0100Q1477.8200 593.8000 1479.8000 593.8000L1479.8000 593.8000L1500.2600 593.8000Q1502.6800 593.8000 1504.3300 594.7900Q1505.9800 595.7800 1506.8600 598.2000L1506.8600 598.2000Q1509.0600 604.8000 1513.1300 608.9800Q1517.2000 613.1600 1522.5900 615.1400Q1527.9800 617.1200 1533.9200 617.1200L1533.9200 617.1200Q1541.8400 617.1200 1548.3300 613.9300Q1554.8200 610.7400 1558.7800 604.3600Q1562.7400 597.9800 1562.7400 588.7400L1562.7400 588.7400Q1562.7400 580.6000 1559 574.6600Q1555.2600 568.7200 1548.7700 565.3100Q1542.2800 561.9000 1533.9200 561.9000L1533.9200 561.9000Q1527.7600 561.9000 1523.8000 563.4400Q1519.8400 564.9800 1517.0900 566.9600Q1514.3400 568.9400 1512.2500 570.4800Q1510.1600 572.0200 1507.5200 572.0200L1507.5200 572.0200L1487.2800 572.0200Q1485.3000 572.0200 1483.8700 570.5900Q1482.4400 569.1600 1482.4400 567.1800L1482.4400 567.1800L1490.1400 491.9400Q1490.3600 489.0800 1492.1200 487.5400Q1493.8800 486 1496.3000 486L1496.3000 486L1579.0200 486Q1581.2200 486 1582.7600 487.5400Q1584.3000 489.0800 1584.3000 491.2800L1584.3000 491.2800L1584.3000 506.0200Q1584.3000 508.2200 1582.7600 509.7600Q1581.2200 511.3000 1579.0200 511.3000L1579.0200 511.3000L1515.4400 511.3000L1511.9200 547.1600Q1515.8800 544.5200 1522.4800 542.1000Q1529.0800 539.6800 1540.7400 539.6800L1540.7400 539.6800Q1551.3000 539.6800 1560.8700 543.0900Q1570.4400 546.5000 1577.9200 552.9900Q1585.4000 559.4800 1589.6900 568.6100Q1593.9800 577.7400 1593.9800 589.4000L1593.9800 589.4000Q1593.9800 605.4600 1586.5000 617.3400Q1579.0200 629.2200 1565.6000 635.8200Q1552.1800 642.4200 1533.9200 642.4200ZM1641.9400 640L1619.9400 640Q1617.7400 640 1616.2000 638.4600Q1614.6600 636.9200 1614.6600 634.7200L1614.6600 634.7200L1614.6600 612.9400Q1614.6600 610.5200 1616.2000 608.9800Q1617.7400 607.4400 1619.9400 607.4400L1619.9400 607.4400L1641.9400 607.4400Q1644.1400 607.4400 1645.6800 608.9800Q1647.2200 610.5200 1647.2200 612.9400L1647.2200 612.9400L1647.2200 634.7200Q1647.2200 636.9200 1645.6800 638.4600Q1644.1400 640 1641.9400 640L1641.9400 640ZM1727.7400 642.4200L1727.7400 642.4200Q1708.8200 642.4200 1695.8400 636.1500Q1682.8600 629.8800 1676.1500 619.7600Q1669.4400 609.6400 1669 598.2000L1669 598.2000Q1668.7800 596.2200 1670.2100 595.0100Q1671.6400 593.8000 1673.6200 593.8000L1673.6200 593.8000L1694.0800 593.8000Q1696.5000 593.8000 1698.1500 594.7900Q1699.8000 595.7800 1700.6800 598.2000L1700.6800 598.2000Q1702.8800 604.8000 1706.9500 608.9800Q1711.0200 613.1600 1716.4100 615.1400Q1721.8000 617.1200 1727.7400 617.1200L1727.7400 617.1200Q1735.6600 617.1200 1742.1500 613.9300Q1748.6400 610.7400 1752.6000 604.3600Q1756.5600 597.9800 1756.5600 588.7400L1756.5600 588.7400Q1756.5600 580.6000 1752.8200 574.6600Q1749.0800 568.7200 1742.5900 565.3100Q1736.1000 561.9000 1727.7400 561.9000L1727.7400 561.9000Q1721.5800 561.9000 1717.6200 563.4400Q1713.6600 564.9800 1710.9100 566.9600Q1708.1600 568.9400 1706.0700 570.4800Q1703.9800 572.0200 1701.3400 572.0200L1701.3400 572.0200L1681.1000 572.0200Q1679.1200 572.0200 1677.6900 570.5900Q1676.2600 569.1600 1676.2600 567.1800L1676.2600 567.1800L1683.9600 491.9400Q1684.1800 489.0800 1685.9400 487.5400Q1687.7000 486 1690.1200 486L1690.1200 486L1772.8400 486Q1775.0400 486 1776.5800 487.5400Q1778.1200 489.0800 1778.1200 491.2800L1778.1200 491.2800L1778.1200 506.0200Q1778.1200 508.2200 1776.5800 509.7600Q1775.0400 511.3000 1772.8400 511.3000L1772.8400 511.3000L1709.2600 511.3000L1705.7400 547.1600Q1709.7000 544.5200 1716.3000 542.1000Q1722.9000 539.6800 1734.5600 539.6800L1734.5600 539.6800Q1745.1200 539.6800 1754.6900 543.0900Q1764.2600 546.5000 1771.7400 552.9900Q1779.2200 559.4800 1783.5100 568.6100Q1787.8000 577.7400 1787.8000 589.4000L1787.8000 589.4000Q1787.8000 605.4600 1780.3200 617.3400Q1772.8400 629.2200 1759.4200 635.8200Q1746 642.4200 1727.7400 642.4200Z" id="lecture-full-number"/></g></svg>