<svg xmlns="http://www.w3.org/2000/svg" version="1.1" xmlns:xlink="http://www.w3.org/1999/xlink" xmlns:svgjs="http://svgjs.dev/svgjs" viewBox="0 0 1920 1080" id="43c175fa-e2ae-4a9f-81d5-51e2d655e927"><g><rect width="1920" height="1080" fill="#4e0250"/></g><g fill="#645986"><path d="M2118.71 322.496C1962.88 381.696 1840.11 286.062 1731.68 201.315C1619.52 113.904 1545.13 63.1995 1455.92 97.0926C1366.11 131.212 1344.15 218.52 1318.91 358.127C1294.11 493.487 1265.8 646.514 1109.97 705.714C954.144 764.914 831.375 669.28 722.951 584.533C610.793 497.122 536.401 446.418 447.185 480.311C357.375 514.43 335.414 601.738 310.18 741.346C285.375 876.706 257.072 1029.73 101.242 1088.93C-54.5876 1148.13 -177.357 1052.5 -285.78 967.751C-397.344 880.114 -471.736 829.41 -561.547 863.529L-602 757.045C-446.17 697.845 -323.401 793.479 -214.977 878.225C-102.819 965.637 -28.4265 1016.34 60.7891 982.448C150.6 948.329 172.56 861.02 197.794 721.413C222.599 586.053 250.307 433.253 406.732 373.827C562.562 314.627 685.331 410.261 793.754 495.007C905.913 582.419 980.305 633.123 1069.52 599.23C1159.33 565.111 1181.29 477.802 1206.53 338.195C1231.33 202.835 1259.04 50.0347 1415.46 -9.39121C1571.89 -68.8172 1694.06 27.043 1802.49 111.789C1914.64 199.201 1989.04 249.905 2078.25 216.012L2118.71 322.496Z"/></g><g fill="#ffffff" opacity="0.2"><path d="M960.041 79C960.041 79 971.953 194.974 981.699 214.484C992.529 237.245 1064 247 1064 247C1064 247 994.694 258.923 983.865 280.6C973.036 301.194 958.959 415 958.959 415C958.959 415 945.964 296.858 935.135 275.181C925.389 255.671 855 245.916 855 245.916C855 245.916 925.389 233.994 936.218 212.316C947.047 192.806 960.041 79 960.041 79Z"/><path d="M561.041 687C561.041 687 572.953 802.974 582.699 822.484C593.529 845.245 665 855 665 855C665 855 595.694 866.923 584.865 888.6C574.036 909.194 559.959 1023 559.959 1023C559.959 1023 546.964 904.858 536.135 883.181C526.389 863.671 456 853.916 456 853.916C456 853.916 526.389 841.994 537.218 820.316C548.047 800.806 561.041 687 561.041 687Z"/></g><g><path d="M178.635 139.281L184.422 144.246V166.626H215.704L219.958 172.147L215.69 177.397H184.422V198.795L178.635 203.747L173 198.795V144.232L178.635 139.281ZM195.554 195.68H219.406L223.397 200.915L219.143 206.45H195.554L191.7 201.342L195.554 195.68ZM196.382 138H219.129L223.383 143.52L219.129 148.77H196.659L192.115 143.677L196.382 138ZM323.155 148.628L328.251 154.291L323.155 159.968H246.13L241.172 154.291L246.13 148.628H323.155ZM237.043 172.147L241.849 167.893L246.669 172.147V178.393C246.669 188.879 249.417 197.515 261.668 197.515H264.14C275.147 197.515 281.197 189.86 281.197 177.952V172.005L285.879 167.75L290.699 171.862V178.379C290.699 189.007 293.723 196.946 305.56 196.946H307.618C319.178 196.946 321.235 187.869 321.373 177.952V171.578L326.056 167.608L331 171.72V178.094C330.862 191.838 327.285 207.574 308.032 207.574H305.974C294.552 207.574 288.365 202.324 285.892 195.808C283.006 202.466 275.299 208.286 264.844 208.286H262.358C242.553 208.286 237.194 195.964 237.056 178.663V172.147H237.043ZM276.391 274.744L273.642 267.089L280.796 264.969L305.974 276.721V252.491L311.07 248.095L316.291 252.491V281.829L325.641 286.226L328.251 293.311L320.959 296L276.391 274.744ZM321.235 223.011L328.113 226.27L325.917 233.497L264.002 263.119L256.571 260.146L259.596 252.776L321.235 223.011ZM231.905 263.404L237.954 268.512C237.402 286.51 222.403 296 204.669 296H202.874C194.062 296 183.759 292.6 177.157 286.083L177.834 278.855L184.298 278.002C189.118 282.256 195.858 285.229 202.183 285.229H204.117C216.091 285.229 225.303 280.136 226.27 268.085L231.905 263.404ZM226.256 251.638C225.704 239.16 216.629 234.209 204.103 234.209H202.169C194.739 234.209 189.104 237.182 184.284 241.436L177.834 240.583L177.143 233.355C183.745 226.696 192.957 223.58 202.597 223.58H204.517C222.403 223.58 237.402 232.942 237.94 251.211L231.891 256.176L226.256 251.638Z" fill="#ffffff"/></g><g fill="#ffffff" id="info-group"><path d="M167.0800 640L154.9000 640Q153.7800 640 152.8700 639.1600Q151.9600 638.3200 151.9600 637.0600L151.9600 637.0600Q151.9600 636.5000 152.2400 635.8000L152.2400 635.8000L185.9800 545.5000Q186.4000 544.1000 187.5900 543.0500Q188.7800 542 190.8800 542L190.8800 542L206.1400 542Q208.2400 542 209.3600 543.0500Q210.4800 544.1000 211.0400 545.5000L211.0400 545.5000L244.7800 635.8000Q244.9200 636.5000 244.9200 637.0600L244.9200 637.0600Q244.9200 638.3200 244.0800 639.1600Q243.2400 640 242.1200 640L242.1200 640L229.9400 640Q227.9800 640 227.0700 639.0900Q226.1600 638.1800 225.8800 637.3400L225.8800 637.3400L219.3000 620.2600L177.7200 620.2600L171.1400 637.3400Q170.8600 638.1800 169.9500 639.0900Q169.0400 640 167.0800 640L167.0800 640ZM198.4400 560.9000L182.6200 604.1600L214.4000 604.1600L198.4400 560.9000ZM283.2800 641.4000L283.2800 641.4000Q274.7400 641.4000 268.5100 637.5500Q262.2800 633.7000 258.9200 626.6300Q255.5600 619.5600 255.5600 609.9000L255.5600 609.9000L255.5600 570.5600Q255.5600 569.1600 256.5400 568.1800Q257.5200 567.2000 258.9200 567.2000L258.9200 567.2000L271.2400 567.2000Q272.7800 567.2000 273.6900 568.1800Q274.6000 569.1600 274.6000 570.5600L274.6000 570.5600L274.6000 609.0600Q274.6000 626.4200 289.8600 626.4200L289.8600 626.4200Q297.1400 626.4200 301.4100 621.8000Q305.6800 617.1800 305.6800 609.0600L305.6800 609.0600L305.6800 570.5600Q305.6800 569.1600 306.6600 568.1800Q307.6400 567.2000 309.0400 567.2000L309.0400 567.2000L321.3600 567.2000Q322.7600 567.2000 323.7400 568.1800Q324.7200 569.1600 324.7200 570.5600L324.7200 570.5600L324.7200 636.6400Q324.7200 638.0400 323.7400 639.0200Q322.7600 640 321.3600 640L321.3600 640L310.0200 640Q308.4800 640 307.5700 639.0200Q306.6600 638.0400 306.6600 636.6400L306.6600 636.6400L306.6600 630.9000Q302.8800 635.8000 297.2800 638.6000Q291.6800 641.4000 283.2800 641.4000ZM358.3200 640L346.7000 640Q345.3000 640 344.3200 639.0200Q343.3400 638.0400 343.3400 636.6400L343.3400 636.6400L343.3400 543.9600Q343.3400 542.5600 344.3200 541.5800Q345.3000 540.6000 346.7000 540.6000L346.7000 540.6000L358.3200 540.6000Q359.7200 540.6000 360.7000 541.5800Q361.6800 542.5600 361.6800 543.9600L361.6800 543.9600L361.6800 636.6400Q361.6800 638.0400 360.7000 639.0200Q359.7200 640 358.3200 640L358.3200 640ZM401.4400 641.4000L401.4400 641.4000Q394.1600 641.4000 388.2800 638.5300Q382.4000 635.6600 378.9700 630.8300Q375.5400 626 375.5400 619.9800L375.5400 619.9800Q375.5400 610.1800 383.5200 604.3700Q391.5000 598.5600 404.3800 596.6000L404.3800 596.6000L423.5600 593.8000L423.5600 590.8600Q423.5600 584.9800 420.6200 581.7600Q417.6800 578.5400 410.5400 578.5400L410.5400 578.5400Q405.5000 578.5400 402.3500 580.5700Q399.2000 582.6000 397.6600 585.9600L397.6600 585.9600Q396.5400 587.7800 394.4400 587.7800L394.4400 587.7800L383.3800 587.7800Q381.8400 587.7800 381.0700 586.9400Q380.3000 586.1000 380.3000 584.7000L380.3000 584.7000Q380.4400 582.4600 382.1900 579.2400Q383.9400 576.0200 387.5100 573.0100Q391.0800 570 396.8200 567.9000Q402.5600 565.8000 410.6800 565.8000L410.6800 565.8000Q419.5000 565.8000 425.5900 567.9700Q431.6800 570.1400 435.3200 573.7800Q438.9600 577.4200 440.6400 582.3200Q442.3200 587.2200 442.3200 592.6800L442.3200 592.6800L442.3200 636.6400Q442.3200 638.0400 441.3400 639.0200Q440.3600 640 438.9600 640L438.9600 640L427.6200 640Q426.0800 640 425.1700 639.0200Q424.2600 638.0400 424.2600 636.6400L424.2600 636.6400L424.2600 631.1800Q422.4400 633.7000 419.3600 636.0800Q416.2800 638.4600 411.8700 639.9300Q407.4600 641.4000 401.4400 641.4000ZM406.2000 628.1000L406.2000 628.1000Q411.1000 628.1000 415.0900 626Q419.0800 623.9000 421.3900 619.4900Q423.7000 615.0800 423.7000 608.3600L423.7000 608.3600L423.7000 605.4200L409.7000 607.6600Q401.4400 608.9200 397.3800 611.7200Q393.3200 614.5200 393.3200 618.5800L393.3200 618.5800Q393.3200 621.6600 395.2100 623.8300Q397.1000 626 400.0400 627.0500Q402.9800 628.1000 406.2000 628.1000ZM550.5400 640L538.3600 640Q536.9600 640 535.9800 639.0200Q535.0000 638.0400 535.0000 636.6400L535.0000 636.6400L535.0000 618.7200L490.6200 618.7200Q489.0800 618.7200 488.1700 617.7400Q487.2600 616.7600 487.2600 615.3600L487.2600 615.3600L487.2600 605.8400Q487.2600 605 487.6100 603.8100Q487.9600 602.6200 488.8000 601.6400L488.8000 601.6400L530.1000 544.3800Q531.9200 542 535.2800 542L535.2800 542L550.5400 542Q551.9400 542 552.9200 542.9800Q553.9000 543.9600 553.9000 545.3600L553.9000 545.3600L553.9000 602.2000L566.3600 602.2000Q568.0400 602.2000 568.9500 603.1100Q569.8600 604.0200 569.8600 605.5600L569.8600 605.5600L569.8600 615.3600Q569.8600 616.7600 568.8800 617.7400Q567.9000 618.7200 566.5000 618.7200L566.5000 618.7200L553.9000 618.7200L553.9000 636.6400Q553.9000 638.0400 552.9200 639.0200Q551.9400 640 550.5400 640L550.5400 640ZM535.4200 562.3000L506.7200 602.7600L535.4200 602.7600L535.4200 562.3000ZM600.3800 591L586.5200 591Q585.1200 591 584.1400 590.0200Q583.1600 589.0400 583.1600 587.6400L583.1600 587.6400L583.1600 574.3400Q583.1600 572.8000 584.1400 571.8200Q585.1200 570.8400 586.5200 570.8400L586.5200 570.8400L600.3800 570.8400Q601.9200 570.8400 602.9000 571.8200Q603.8800 572.8000 603.8800 574.3400L603.8800 574.3400L603.8800 587.6400Q603.8800 589.0400 602.9000 590.0200Q601.9200 591 600.3800 591L600.3800 591ZM600.3800 640L586.5200 640Q585.1200 640 584.1400 639.0200Q583.1600 638.0400 583.1600 636.6400L583.1600 636.6400L583.1600 623.3400Q583.1600 621.8000 584.1400 620.8200Q585.1200 619.8400 586.5200 619.8400L586.5200 619.8400L600.3800 619.8400Q601.9200 619.8400 602.9000 620.8200Q603.8800 621.8000 603.8800 623.3400L603.8800 623.3400L603.8800 636.6400Q603.8800 638.0400 602.9000 639.0200Q601.9200 640 600.3800 640L600.3800 640ZM693.4800 641.4000L693.4800 641.4000Q680.4600 641.4000 671.4300 636.8500Q662.4000 632.3000 657.6400 623.8300Q652.8800 615.3600 652.3200 603.4600L652.3200 603.4600Q652.1800 597.7200 652.1800 591.1400Q652.1800 584.5600 652.3200 578.5400L652.3200 578.5400Q652.8800 566.7800 657.7100 558.2400Q662.5400 549.7000 671.5700 545.1500Q680.6000 540.6000 693.4800 540.6000L693.4800 540.6000Q703 540.6000 710.5600 543.1200Q718.1200 545.6400 723.4400 550.0500Q728.7600 554.4600 731.7000 560.3400Q734.6400 566.2200 734.7800 573.0800L734.7800 573.0800Q734.9200 574.3400 734.0100 575.1800Q733.1000 576.0200 731.8400 576.0200L731.8400 576.0200L718.5400 576.0200Q717 576.0200 716.0200 575.2500Q715.0400 574.4800 714.6200 572.6600L714.6200 572.6600Q712.3800 563.4200 706.9200 560.0600Q701.4600 556.7000 693.3400 556.7000L693.3400 556.7000Q683.9600 556.7000 678.3600 561.9500Q672.7600 567.2000 672.3400 579.2400L672.3400 579.2400Q671.9200 590.7200 672.3400 602.7600L672.3400 602.7600Q672.7600 614.8000 678.3600 620.0500Q683.9600 625.3000 693.3400 625.3000L693.3400 625.3000Q701.4600 625.3000 706.9900 621.8700Q712.5200 618.4400 714.6200 609.3400L714.6200 609.3400Q715.0400 607.3800 716.0200 606.6800Q717 605.9800 718.5400 605.9800L718.5400 605.9800L731.8400 605.9800Q733.1000 605.9800 734.0100 606.8200Q734.9200 607.6600 734.7800 608.9200L734.7800 608.9200Q734.6400 615.7800 731.7000 621.6600Q728.7600 627.5400 723.4400 631.9500Q718.1200 636.3600 710.5600 638.8800Q703 641.4000 693.4800 641.4000ZM768.1000 640L754.8000 640Q753.4000 640 752.4200 639.0200Q751.4400 638.0400 751.4400 636.6400L751.4400 636.6400L751.4400 545.5000Q751.4400 543.9600 752.4200 542.9800Q753.4000 542 754.8000 542L754.8000 542L792.3200 542Q803.2400 542 811.3600 545.4300Q819.4800 548.8600 823.9600 555.7900Q828.4400 562.7200 828.4400 573.0800L828.4400 573.0800Q828.4400 583.5800 823.9600 590.3700Q819.4800 597.1600 811.3600 600.5200Q803.2400 603.8800 792.3200 603.8800L792.3200 603.8800L771.4600 603.8800L771.4600 636.6400Q771.4600 638.0400 770.5500 639.0200Q769.6400 640 768.1000 640L768.1000 640ZM771.1800 557.5400L771.1800 588.3400L791.6200 588.3400Q799.7400 588.3400 804.0800 584.4900Q808.4200 580.6400 808.4200 573.0800L808.4200 573.0800Q808.4200 566.0800 804.3600 561.8100Q800.3000 557.5400 791.6200 557.5400L791.6200 557.5400L771.1800 557.5400ZM882.7600 641.4000L882.7600 641.4000Q870.5800 641.4000 861.6200 637.2700Q852.6600 633.1400 847.7600 624.5300Q842.8600 615.9200 842.8600 602.4800L842.8600 602.4800L842.8600 545.5000Q842.8600 543.9600 843.8400 542.9800Q844.8200 542 846.2200 542L846.2200 542L858.9600 542Q860.5000 542 861.4100 542.9800Q862.3200 543.9600 862.3200 545.5000L862.3200 545.5000L862.3200 602.4800Q862.3200 613.9600 867.7800 619.4900Q873.2400 625.0200 882.7600 625.0200L882.7600 625.0200Q892.2800 625.0200 897.6700 619.4900Q903.0600 613.9600 903.0600 602.4800L903.0600 602.4800L903.0600 545.5000Q903.0600 543.9600 904.0400 542.9800Q905.0200 542 906.5600 542L906.5600 542L919.1600 542Q920.7000 542 921.6100 542.9800Q922.5200 543.9600 922.5200 545.5000L922.5200 545.5000L922.5200 602.4800Q922.5200 615.9200 917.6900 624.5300Q912.8600 633.1400 903.9700 637.2700Q895.0800 641.4000 882.7600 641.4000ZM989.3000 666.6000L977.4000 666.6000Q976.0000 666.6000 975.0200 665.6200Q974.0400 664.6400 974.0400 663.2400L974.0400 663.2400L974.0400 570.5600Q974.0400 569.1600 975.0200 568.1800Q976.0000 567.2000 977.4000 567.2000L977.4000 567.2000L988.4600 567.2000Q990.0000 567.2000 990.9100 568.1800Q991.8200 569.1600 991.8200 570.5600L991.8200 570.5600L991.8200 576.1600Q995.1800 571.6800 1000.6400 568.7400Q1006.1000 565.8000 1014.2200 565.8000L1014.2200 565.8000Q1021.6400 565.8000 1027.1000 568.1800Q1032.5600 570.5600 1036.2000 574.9700Q1039.8400 579.3800 1041.8000 585.4000Q1043.7600 591.4200 1044.0400 598.7000L1044.0400 598.7000Q1044.1800 601.0800 1044.1800 603.6000Q1044.1800 606.1200 1044.0400 608.6400L1044.0400 608.6400Q1043.9000 615.6400 1041.9400 621.5900Q1039.9800 627.5400 1036.2700 631.9500Q1032.5600 636.3600 1027.1000 638.8800Q1021.6400 641.4000 1014.2200 641.4000L1014.2200 641.4000Q1006.6600 641.4000 1001.3400 638.6700Q996.0200 635.9400 992.6600 631.4600L992.6600 631.4600L992.6600 663.2400Q992.6600 664.6400 991.7500 665.6200Q990.8400 666.6000 989.3000 666.6000L989.3000 666.6000ZM1009.0400 626.4200L1009.0400 626.4200Q1015.0600 626.4200 1018.4200 623.8300Q1021.7800 621.2400 1023.3200 617.0400Q1024.8600 612.8400 1025.1400 607.8000L1025.1400 607.8000Q1025.2800 603.6000 1025.1400 599.4000L1025.1400 599.4000Q1024.8600 594.3600 1023.3200 590.1600Q1021.7800 585.9600 1018.4200 583.3700Q1015.0600 580.7800 1009.0400 580.7800L1009.0400 580.7800Q1003.3000 580.7800 999.7300 583.4400Q996.1600 586.1000 994.5500 590.2300Q992.9400 594.3600 992.6600 598.7000L992.6600 598.7000Q992.5200 601.2200 992.5200 604.0200Q992.5200 606.8200 992.6600 609.4800L992.6600 609.4800Q992.8000 613.6800 994.6200 617.5300Q996.4400 621.3800 999.9400 623.9000Q1003.4400 626.4200 1009.0400 626.4200ZM1081.0000 641.4000L1081.0000 641.4000Q1073.7200 641.4000 1067.8400 638.5300Q1061.9600 635.6600 1058.5300 630.8300Q1055.1000 626 1055.1000 619.9800L1055.1000 619.9800Q1055.1000 610.1800 1063.0800 604.3700Q1071.0600 598.5600 1083.9400 596.6000L1083.9400 596.6000L1103.1200 593.8000L1103.1200 590.8600Q1103.1200 584.9800 1100.1800 581.7600Q1097.2400 578.5400 1090.1000 578.5400L1090.1000 578.5400Q1085.0600 578.5400 1081.9100 580.5700Q1078.7600 582.6000 1077.2200 585.9600L1077.2200 585.9600Q1076.1000 587.7800 1074.0000 587.7800L1074.0000 587.7800L1062.9400 587.7800Q1061.4000 587.7800 1060.6300 586.9400Q1059.8600 586.1000 1059.8600 584.7000L1059.8600 584.7000Q1060.0000 582.4600 1061.7500 579.2400Q1063.5000 576.0200 1067.0700 573.0100Q1070.6400 570 1076.3800 567.9000Q1082.1200 565.8000 1090.2400 565.8000L1090.2400 565.8000Q1099.0600 565.8000 1105.1500 567.9700Q1111.2400 570.1400 1114.8800 573.7800Q1118.5200 577.4200 1120.2000 582.3200Q1121.8800 587.2200 1121.8800 592.6800L1121.8800 592.6800L1121.8800 636.6400Q1121.8800 638.0400 1120.9000 639.0200Q1119.9200 640 1118.5200 640L1118.5200 640L1107.1800 640Q1105.6400 640 1104.7300 639.0200Q1103.8200 638.0400 1103.8200 636.6400L1103.8200 636.6400L1103.8200 631.1800Q1102.0000 633.7000 1098.9200 636.0800Q1095.8400 638.4600 1091.4300 639.9300Q1087.0200 641.4000 1081.0000 641.4000ZM1085.7600 628.1000L1085.7600 628.1000Q1090.6600 628.1000 1094.6500 626Q1098.6400 623.9000 1100.9500 619.4900Q1103.2600 615.0800 1103.2600 608.3600L1103.2600 608.3600L1103.2600 605.4200L1089.2600 607.6600Q1081.0000 608.9200 1076.9400 611.7200Q1072.8800 614.5200 1072.8800 618.5800L1072.8800 618.5800Q1072.8800 621.6600 1074.7700 623.8300Q1076.6600 626 1079.6000 627.0500Q1082.5400 628.1000 1085.7600 628.1000ZM1155.3400 640L1143.1600 640Q1141.7600 640 1140.7800 639.0200Q1139.8000 638.0400 1139.8000 636.6400L1139.8000 636.6400L1139.8000 570.7000Q1139.8000 569.1600 1140.7800 568.1800Q1141.7600 567.2000 1143.1600 567.2000L1143.1600 567.2000L1154.5000 567.2000Q1155.9000 567.2000 1156.9500 568.1800Q1158.0000 569.1600 1158.0000 570.7000L1158.0000 570.7000L1158.0000 576.4400Q1161.2200 571.9600 1166.3300 569.5800Q1171.4400 567.2000 1178.1600 567.2000L1178.1600 567.2000L1183.9000 567.2000Q1185.4400 567.2000 1186.3500 568.1800Q1187.2600 569.1600 1187.2600 570.5600L1187.2600 570.5600L1187.2600 580.6400Q1187.2600 582.0400 1186.3500 583.0200Q1185.4400 584 1183.9000 584L1183.9000 584L1172.9800 584Q1166.2600 584 1162.5500 587.7100Q1158.8400 591.4200 1158.8400 598.1400L1158.8400 598.1400L1158.8400 636.6400Q1158.8400 638.0400 1157.8600 639.0200Q1156.8800 640 1155.3400 640L1155.3400 640ZM1242.4200 640L1231.0800 640Q1222.6800 640 1216.9400 637.0600Q1211.2000 634.1200 1208.4000 628.3100Q1205.6000 622.5000 1205.6000 613.8200L1205.6000 613.8200L1205.6000 582.0400L1194.5400 582.0400Q1193.1400 582.0400 1192.1600 581.0600Q1191.1800 580.0800 1191.1800 578.5400L1191.1800 578.5400L1191.1800 570.5600Q1191.1800 569.1600 1192.1600 568.1800Q1193.1400 567.2000 1194.5400 567.2000L1194.5400 567.2000L1205.6000 567.2000L1205.6000 543.9600Q1205.6000 542.5600 1206.5100 541.5800Q1207.4200 540.6000 1208.9600 540.6000L1208.9600 540.6000L1220.3000 540.6000Q1221.7000 540.6000 1222.6800 541.5800Q1223.6600 542.5600 1223.6600 543.9600L1223.6600 543.9600L1223.6600 567.2000L1241.1600 567.2000Q1242.5600 567.2000 1243.5400 568.1800Q1244.5200 569.1600 1244.5200 570.5600L1244.5200 570.5600L1244.5200 578.5400Q1244.5200 580.0800 1243.5400 581.0600Q1242.5600 582.0400 1241.1600 582.0400L1241.1600 582.0400L1223.6600 582.0400L1223.6600 612.4200Q1223.6600 618.1600 1225.6900 621.3800Q1227.7200 624.6000 1232.7600 624.6000L1232.7600 624.6000L1242.4200 624.6000Q1243.8200 624.6000 1244.8000 625.5800Q1245.7800 626.5600 1245.7800 627.9600L1245.7800 627.9600L1245.7800 636.6400Q1245.7800 638.0400 1244.8000 639.0200Q1243.8200 640 1242.4200 640L1242.4200 640ZM1289.6000 641.4000L1289.6000 641.4000Q1274.0600 641.4000 1264.9600 632.4400Q1255.8600 623.4800 1255.1600 606.9600L1255.1600 606.9600Q1255.0200 605.5600 1255.0200 603.3900Q1255.0200 601.2200 1255.1600 599.9600L1255.1600 599.9600Q1255.7200 589.3200 1259.9900 581.6900Q1264.2600 574.0600 1271.8200 569.9300Q1279.3800 565.8000 1289.6000 565.8000L1289.6000 565.8000Q1300.9400 565.8000 1308.6400 570.4900Q1316.3400 575.1800 1320.2600 583.5100Q1324.1800 591.8400 1324.1800 602.7600L1324.1800 602.7600L1324.1800 605.7000Q1324.1800 607.1000 1323.2000 608.0800Q1322.2200 609.0600 1320.6800 609.0600L1320.6800 609.0600L1274.2000 609.0600Q1274.2000 609.0600 1274.2000 609.4800Q1274.2000 609.9000 1274.2000 610.1800L1274.2000 610.1800Q1274.3400 615.0800 1276.0900 619.2100Q1277.8400 623.3400 1281.2700 625.8600Q1284.7000 628.3800 1289.4600 628.3800L1289.4600 628.3800Q1293.3800 628.3800 1296.0400 627.1900Q1298.7000 626 1300.3800 624.4600Q1302.0600 622.9200 1302.7600 621.9400L1302.7600 621.9400Q1304.0200 620.2600 1304.7900 619.9100Q1305.5600 619.5600 1307.1000 619.5600L1307.1000 619.5600L1319.1400 619.5600Q1320.5400 619.5600 1321.4500 620.4000Q1322.3600 621.2400 1322.2200 622.5000L1322.2200 622.5000Q1322.0800 624.7400 1319.9100 627.9600Q1317.7400 631.1800 1313.6800 634.2600Q1309.6200 637.3400 1303.5300 639.3700Q1297.4400 641.4000 1289.6000 641.4000ZM1274.2000 596.8800L1274.2000 597.3000L1305.1400 597.3000L1305.1400 596.8800Q1305.1400 591.4200 1303.3200 587.2900Q1301.5000 583.1600 1298.0000 580.8500Q1294.5000 578.5400 1289.6000 578.5400L1289.6000 578.5400Q1284.7000 578.5400 1281.2000 580.8500Q1277.7000 583.1600 1275.9500 587.2900Q1274.2000 591.4200 1274.2000 596.8800L1274.2000 596.8800ZM1413.3600 640L1400.6200 640Q1399.0800 640 1398.1700 639.0200Q1397.2600 638.0400 1397.2600 636.6400L1397.2600 636.6400L1397.2600 564.1200L1375.9800 580.5000Q1374.7200 581.3400 1373.4600 581.1300Q1372.2000 580.9200 1371.2200 579.6600L1371.2200 579.6600L1365.3400 572.1000Q1364.5000 570.8400 1364.7100 569.4400Q1364.9200 568.0400 1366.1800 567.2000L1366.1800 567.2000L1397.5400 542.9800Q1398.3800 542.2800 1399.2200 542.1400Q1400.0600 542 1401.0400 542L1401.0400 542L1413.3600 542Q1414.7600 542 1415.7400 542.9800Q1416.7200 543.9600 1416.7200 545.3600L1416.7200 545.3600L1416.7200 636.6400Q1416.7200 638.0400 1415.7400 639.0200Q1414.7600 640 1413.3600 640L1413.3600 640Z" id="title"/></g></svg>