<svg xmlns="http://www.w3.org/2000/svg" version="1.1" xmlns:xlink="http://www.w3.org/1999/xlink" xmlns:svgjs="http://svgjs.dev/svgjs" viewBox="0 0 1920 1080" id="00f919c4-39c9-4f6f-a8cb-a3262ed8cbad"><g><rect width="1920" height="1080" fill="#3e517a"/></g><g fill="#865070"><path d="M2118.71 322.496C1962.88 381.696 1840.11 286.062 1731.68 201.315C1619.52 113.904 1545.13 63.1995 1455.92 97.0926C1366.11 131.212 1344.15 218.52 1318.91 358.127C1294.11 493.487 1265.8 646.514 1109.97 705.714C954.144 764.914 831.375 669.28 722.951 584.533C610.793 497.122 536.401 446.418 447.185 480.311C357.375 514.43 335.414 601.738 310.18 741.346C285.375 876.706 257.072 1029.73 101.242 1088.93C-54.5876 1148.13 -177.357 1052.5 -285.78 967.751C-397.344 880.114 -471.736 829.41 -561.547 863.529L-602 757.045C-446.17 697.845 -323.401 793.479 -214.977 878.225C-102.819 965.637 -28.4265 1016.34 60.7891 982.448C150.6 948.329 172.56 861.02 197.794 721.413C222.599 586.053 250.307 433.253 406.732 373.827C562.562 314.627 685.331 410.261 793.754 495.007C905.913 582.419 980.305 633.123 1069.52 599.23C1159.33 565.111 1181.29 477.802 1206.53 338.195C1231.33 202.835 1259.04 50.0347 1415.46 -9.39121C1571.89 -68.8172 1694.06 27.043 1802.49 111.789C1914.64 199.201 1989.04 249.905 2078.25 216.012L2118.71 322.496Z"/></g><g fill="#ffffff" opacity="0.2"><path d="M960.041 79C960.041 79 971.953 194.974 981.699 214.484C992.529 237.245 1064 247 1064 247C1064 247 994.694 258.923 983.865 280.6C973.036 301.194 958.959 415 958.959 415C958.959 415 945.964 296.858 935.135 275.181C925.389 255.671 855 245.916 855 245.916C855 245.916 925.389 233.994 936.218 212.316C947.047 192.806 960.041 79 960.041 79Z"/><path d="M561.041 687C561.041 687 572.953 802.974 582.699 822.484C593.529 845.245 665 855 665 855C665 855 595.694 866.923 584.865 888.6C574.036 909.194 559.959 1023 559.959 1023C559.959 1023 546.964 904.858 536.135 883.181C526.389 863.671 456 853.916 456 853.916C456 853.916 526.389 841.994 537.218 820.316C548.047 800.806 561.041 687 561.041 687Z"/></g><g><path d="M178.635 139.281L184.422 144.246V166.626H215.704L219.958 172.147L215.69 177.397H184.422V198.795L178.635 203.747L173 198.795V144.232L178.635 139.281ZM195.554 195.68H219.406L223.397 200.915L219.143 206.45H195.554L191.7 201.342L195.554 195.68ZM196.382 138H219.129L223.383 143.52L219.129 148.77H196.659L192.115 143.677L196.382 138ZM323.155 148.628L328.251 154.291L323.155 159.968H246.13L241.172 154.291L246.13 148.628H323.155ZM237.043 172.147L241.849 167.893L246.669 172.147V178.393C246.669 188.879 249.417 197.515 261.668 197.515H264.14C275.147 197.515 281.197 189.86 281.197 177.952V172.005L285.879 167.75L290.699 171.862V178.379C290.699 189.007 293.723 196.946 305.56 196.946H307.618C319.178 196.946 321.235 187.869 321.373 177.952V171.578L326.056 167.608L331 171.72V178.094C330.862 191.838 327.285 207.574 308.032 207.574H305.974C294.552 207.574 288.365 202.324 285.892 195.808C283.006 202.466 275.299 208.286 264.844 208.286H262.358C242.553 208.286 237.194 195.964 237.056 178.663V172.147H237.043ZM276.391 274.744L273.642 267.089L280.796 264.969L305.974 276.721V252.491L311.07 248.095L316.291 252.491V281.829L325.641 286.226L328.251 293.311L320.959 296L276.391 274.744ZM321.235 223.011L328.113 226.27L325.917 233.497L264.002 263.119L256.571 260.146L259.596 252.776L321.235 223.011ZM231.905 263.404L237.954 268.512C237.402 286.51 222.403 296 204.669 296H202.874C194.062 296 183.759 292.6 177.157 286.083L177.834 278.855L184.298 278.002C189.118 282.256 195.858 285.229 202.183 285.229H204.117C216.091 285.229 225.303 280.136 226.27 268.085L231.905 263.404ZM226.256 251.638C225.704 239.16 216.629 234.209 204.103 234.209H202.169C194.739 234.209 189.104 237.182 184.284 241.436L177.834 240.583L177.143 233.355C183.745 226.696 192.957 223.58 202.597 223.58H204.517C222.403 223.58 237.402 232.942 237.94 251.211L231.891 256.176L226.256 251.638Z" fill="#ffffff"/></g><g fill="#ffffff" id="info-group"><path d="M167.0800 500L154.9000 500Q153.7800 500 152.8700 499.1600Q151.9600 498.3200 151.9600 497.0600L151.9600 497.0600Q151.9600 496.5000 152.2400 495.8000L152.2400 495.8000L185.9800 405.5000Q186.4000 404.1000 187.5900 403.0500Q188.7800 402 190.8800 402L190.8800 402L206.1400 402Q208.2400 402 209.3600 403.0500Q210.4800 404.1000 211.0400 405.5000L211.0400 405.5000L244.7800 495.8000Q244.9200 496.5000 244.9200 497.0600L244.9200 497.0600Q244.9200 498.3200 244.0800 499.1600Q243.2400 500 242.1200 500L242.1200 500L229.9400 500Q227.9800 500 227.0700 499.0900Q226.1600 498.1800 225.8800 497.3400L225.8800 497.3400L219.3000 480.2600L177.7200 480.2600L171.1400 497.3400Q170.8600 498.1800 169.9500 499.0900Q169.0400 500 167.0800 500L167.0800 500ZM198.4400 420.9000L182.6200 464.1600L214.4000 464.1600L198.4400 420.9000ZM283.2800 501.4000L283.2800 501.4000Q274.7400 501.4000 268.5100 497.5500Q262.2800 493.7000 258.9200 486.6300Q255.5600 479.5600 255.5600 469.9000L255.5600 469.9000L255.5600 430.5600Q255.5600 429.1600 256.5400 428.1800Q257.5200 427.2000 258.9200 427.2000L258.9200 427.2000L271.2400 427.2000Q272.7800 427.2000 273.6900 428.1800Q274.6000 429.1600 274.6000 430.5600L274.6000 430.5600L274.6000 469.0600Q274.6000 486.4200 289.8600 486.4200L289.8600 486.4200Q297.1400 486.4200 301.4100 481.8000Q305.6800 477.1800 305.6800 469.0600L305.6800 469.0600L305.6800 430.5600Q305.6800 429.1600 306.6600 428.1800Q307.6400 427.2000 309.0400 427.2000L309.0400 427.2000L321.3600 427.2000Q322.7600 427.2000 323.7400 428.1800Q324.7200 429.1600 324.7200 430.5600L324.7200 430.5600L324.7200 496.6400Q324.7200 498.0400 323.7400 499.0200Q322.7600 500 321.3600 500L321.3600 500L310.0200 500Q308.4800 500 307.5700 499.0200Q306.6600 498.0400 306.6600 496.6400L306.6600 496.6400L306.6600 490.9000Q302.8800 495.8000 297.2800 498.6000Q291.6800 501.4000 283.2800 501.4000ZM358.3200 500L346.7000 500Q345.3000 500 344.3200 499.0200Q343.3400 498.0400 343.3400 496.6400L343.3400 496.6400L343.3400 403.9600Q343.3400 402.5600 344.3200 401.5800Q345.3000 400.6000 346.7000 400.6000L346.7000 400.6000L358.3200 400.6000Q359.7200 400.6000 360.7000 401.5800Q361.6800 402.5600 361.6800 403.9600L361.6800 403.9600L361.6800 496.6400Q361.6800 498.0400 360.7000 499.0200Q359.7200 500 358.3200 500L358.3200 500ZM401.4400 501.4000L401.4400 501.4000Q394.1600 501.4000 388.2800 498.5300Q382.4000 495.6600 378.9700 490.8300Q375.5400 486 375.5400 479.9800L375.5400 479.9800Q375.5400 470.1800 383.5200 464.3700Q391.5000 458.5600 404.3800 456.6000L404.3800 456.6000L423.5600 453.8000L423.5600 450.8600Q423.5600 444.9800 420.6200 441.7600Q417.6800 438.5400 410.5400 438.5400L410.5400 438.5400Q405.5000 438.5400 402.3500 440.5700Q399.2000 442.6000 397.6600 445.9600L397.6600 445.9600Q396.5400 447.7800 394.4400 447.7800L394.4400 447.7800L383.3800 447.7800Q381.8400 447.7800 381.0700 446.9400Q380.3000 446.1000 380.3000 444.7000L380.3000 444.7000Q380.4400 442.4600 382.1900 439.2400Q383.9400 436.0200 387.5100 433.0100Q391.0800 430 396.8200 427.9000Q402.5600 425.8000 410.6800 425.8000L410.6800 425.8000Q419.5000 425.8000 425.5900 427.9700Q431.6800 430.1400 435.3200 433.7800Q438.9600 437.4200 440.6400 442.3200Q442.3200 447.2200 442.3200 452.6800L442.3200 452.6800L442.3200 496.6400Q442.3200 498.0400 441.3400 499.0200Q440.3600 500 438.9600 500L438.9600 500L427.6200 500Q426.0800 500 425.1700 499.0200Q424.2600 498.0400 424.2600 496.6400L424.2600 496.6400L424.2600 491.1800Q422.4400 493.7000 419.3600 496.0800Q416.2800 498.4600 411.8700 499.9300Q407.4600 501.4000 401.4400 501.4000ZM406.2000 488.1000L406.2000 488.1000Q411.1000 488.1000 415.0900 486Q419.0800 483.9000 421.3900 479.4900Q423.7000 475.0800 423.7000 468.3600L423.7000 468.3600L423.7000 465.4200L409.7000 467.6600Q401.4400 468.9200 397.3800 471.7200Q393.3200 474.5200 393.3200 478.5800L393.3200 478.5800Q393.3200 481.6600 395.2100 483.8300Q397.1000 486 400.0400 487.0500Q402.9800 488.1000 406.2000 488.1000ZM534.5800 500L521.8400 500Q520.3000 500 519.3900 499.0200Q518.4800 498.0400 518.4800 496.6400L518.4800 496.6400L518.4800 424.1200L497.2000 440.5000Q495.9400 441.3400 494.6800 441.1300Q493.4200 440.9200 492.4400 439.6600L492.4400 439.6600L486.5600 432.1000Q485.7200 430.8400 485.9300 429.4400Q486.1400 428.0400 487.4000 427.2000L487.4000 427.2000L518.7600 402.9800Q519.6000 402.2800 520.4400 402.1400Q521.2800 402 522.2600 402L522.2600 402L534.5800 402Q535.9800 402 536.9600 402.9800Q537.9400 403.9600 537.9400 405.3600L537.9400 405.3600L537.9400 496.6400Q537.9400 498.0400 536.9600 499.0200Q535.9800 500 534.5800 500L534.5800 500ZM573.9200 451L560.0600 451Q558.6600 451 557.6800 450.0200Q556.7000 449.0400 556.7000 447.6400L556.7000 447.6400L556.7000 434.3400Q556.7000 432.8000 557.6800 431.8200Q558.6600 430.8400 560.0600 430.8400L560.0600 430.8400L573.9200 430.8400Q575.4600 430.8400 576.4400 431.8200Q577.4200 432.8000 577.4200 434.3400L577.4200 434.3400L577.4200 447.6400Q577.4200 449.0400 576.4400 450.0200Q575.4600 451 573.9200 451L573.9200 451ZM573.9200 500L560.0600 500Q558.6600 500 557.6800 499.0200Q556.7000 498.0400 556.7000 496.6400L556.7000 496.6400L556.7000 483.3400Q556.7000 481.8000 557.6800 480.8200Q558.6600 479.8400 560.0600 479.8400L560.0600 479.8400L573.9200 479.8400Q575.4600 479.8400 576.4400 480.8200Q577.4200 481.8000 577.4200 483.3400L577.4200 483.3400L577.4200 496.6400Q577.4200 498.0400 576.4400 499.0200Q575.4600 500 573.9200 500L573.9200 500ZM645.7400 500L632.5800 500Q631.1800 500 630.2000 499.0200Q629.2200 498.0400 629.2200 496.6400L629.2200 496.6400L629.2200 405.3600Q629.2200 403.9600 630.2000 402.9800Q631.1800 402 632.5800 402L632.5800 402L645.7400 402Q647.2800 402 648.1900 402.9800Q649.1000 403.9600 649.1000 405.3600L649.1000 405.3600L649.1000 496.6400Q649.1000 498.0400 648.1900 499.0200Q647.2800 500 645.7400 500L645.7400 500ZM685.0800 500L672.7600 500Q671.3600 500 670.3800 499.0200Q669.4000 498.0400 669.4000 496.6400L669.4000 496.6400L669.4000 430.5600Q669.4000 429.1600 670.3800 428.1800Q671.3600 427.2000 672.7600 427.2000L672.7600 427.2000L684.2400 427.2000Q685.6400 427.2000 686.6200 428.1800Q687.6000 429.1600 687.6000 430.5600L687.6000 430.5600L687.6000 436.3000Q691.2400 431.8200 696.9100 428.8100Q702.5800 425.8000 710.9800 425.8000L710.9800 425.8000Q719.5200 425.8000 725.8200 429.6500Q732.1200 433.5000 735.5500 440.5000Q738.9800 447.5000 738.9800 457.3000L738.9800 457.3000L738.9800 496.6400Q738.9800 498.0400 738.0000 499.0200Q737.0200 500 735.6200 500L735.6200 500L723.3000 500Q721.9000 500 720.9200 499.0200Q719.9400 498.0400 719.9400 496.6400L719.9400 496.6400L719.9400 458.1400Q719.9400 450.0200 715.9500 445.4000Q711.9600 440.7800 704.4000 440.7800L704.4000 440.7800Q697.1200 440.7800 692.7800 445.4000Q688.4400 450.0200 688.4400 458.1400L688.4400 458.1400L688.4400 496.6400Q688.4400 498.0400 687.4600 499.0200Q686.4800 500 685.0800 500L685.0800 500ZM801.0000 500L789.6600 500Q781.2600 500 775.5200 497.0600Q769.7800 494.1200 766.9800 488.3100Q764.1800 482.5000 764.1800 473.8200L764.1800 473.8200L764.1800 442.0400L753.1200 442.0400Q751.7200 442.0400 750.7400 441.0600Q749.7600 440.0800 749.7600 438.5400L749.7600 438.5400L749.7600 430.5600Q749.7600 429.1600 750.7400 428.1800Q751.7200 427.2000 753.1200 427.2000L753.1200 427.2000L764.1800 427.2000L764.1800 403.9600Q764.1800 402.5600 765.0900 401.5800Q766.0000 400.6000 767.5400 400.6000L767.5400 400.6000L778.8800 400.6000Q780.2800 400.6000 781.2600 401.5800Q782.2400 402.5600 782.2400 403.9600L782.2400 403.9600L782.2400 427.2000L799.7400 427.2000Q801.1400 427.2000 802.1200 428.1800Q803.1000 429.1600 803.1000 430.5600L803.1000 430.5600L803.1000 438.5400Q803.1000 440.0800 802.1200 441.0600Q801.1400 442.0400 799.7400 442.0400L799.7400 442.0400L782.2400 442.0400L782.2400 472.4200Q782.2400 478.1600 784.2700 481.3800Q786.3000 484.6000 791.3400 484.6000L791.3400 484.6000L801.0000 484.6000Q802.4000 484.6000 803.3800 485.5800Q804.3600 486.5600 804.3600 487.9600L804.3600 487.9600L804.3600 496.6400Q804.3600 498.0400 803.3800 499.0200Q802.4000 500 801.0000 500L801.0000 500ZM832.3600 500L820.1800 500Q818.7800 500 817.8000 499.0200Q816.8200 498.0400 816.8200 496.6400L816.8200 496.6400L816.8200 430.7000Q816.8200 429.1600 817.8000 428.1800Q818.7800 427.2000 820.1800 427.2000L820.1800 427.2000L831.5200 427.2000Q832.9200 427.2000 833.9700 428.1800Q835.0200 429.1600 835.0200 430.7000L835.0200 430.7000L835.0200 436.4400Q838.2400 431.9600 843.3500 429.5800Q848.4600 427.2000 855.1800 427.2000L855.1800 427.2000L860.9200 427.2000Q862.4600 427.2000 863.3700 428.1800Q864.2800 429.1600 864.2800 430.5600L864.2800 430.5600L864.2800 440.6400Q864.2800 442.0400 863.3700 443.0200Q862.4600 444 860.9200 444L860.9200 444L850.0000 444Q843.2800 444 839.5700 447.7100Q835.8600 451.4200 835.8600 458.1400L835.8600 458.1400L835.8600 496.6400Q835.8600 498.0400 834.8800 499.0200Q833.9000 500 832.3600 500L832.3600 500ZM907.4000 501.4000L907.4000 501.4000Q896.2000 501.4000 888.5700 497.4800Q880.9400 493.5600 876.9500 486.4200Q872.9600 479.2800 872.4000 469.7600L872.4000 469.7600Q872.2600 467.2400 872.2600 463.6000Q872.2600 459.9600 872.4000 457.4400L872.4000 457.4400Q872.9600 447.7800 877.0900 440.7100Q881.2200 433.6400 888.8500 429.7200Q896.4800 425.8000 907.4000 425.8000L907.4000 425.8000Q918.3200 425.8000 925.9500 429.7200Q933.5800 433.6400 937.7100 440.7100Q941.8400 447.7800 942.4000 457.4400L942.4000 457.4400Q942.5400 459.9600 942.5400 463.6000Q942.5400 467.2400 942.4000 469.7600L942.4000 469.7600Q941.8400 479.2800 937.8500 486.4200Q933.8600 493.5600 926.2300 497.4800Q918.6000 501.4000 907.4000 501.4000ZM907.4000 487.5400L907.4000 487.5400Q914.8200 487.5400 918.8800 482.8500Q922.9400 478.1600 923.3600 469.0600L923.3600 469.0600Q923.5000 466.9600 923.5000 463.6000Q923.5000 460.2400 923.3600 458.1400L923.3600 458.1400Q922.9400 449.0400 918.8800 444.3500Q914.8200 439.6600 907.4000 439.6600L907.4000 439.6600Q899.9800 439.6600 895.9200 444.3500Q891.8600 449.0400 891.4400 458.1400L891.4400 458.1400Q891.3000 460.2400 891.3000 463.6000Q891.3000 466.9600 891.4400 469.0600L891.4400 469.0600Q891.8600 478.1600 895.9200 482.8500Q899.9800 487.5400 907.4000 487.5400ZM985.1000 501.4000L985.1000 501.4000Q977.8200 501.4000 972.2900 498.9500Q966.7600 496.5000 963.1200 492.0200Q959.4800 487.5400 957.5200 481.4500Q955.5600 475.3600 955.2800 468.0800L955.2800 468.0800Q955.1400 465.5600 955.1400 463.5300Q955.1400 461.5000 955.2800 458.9800L955.2800 458.9800Q955.5600 451.9800 957.4500 445.9600Q959.3400 439.9400 963.0500 435.3900Q966.7600 430.8400 972.2900 428.3200Q977.8200 425.8000 985.1000 425.8000L985.1000 425.8000Q992.6600 425.8000 997.9100 428.3900Q1003.1600 430.9800 1006.6600 435.0400L1006.6600 435.0400L1006.6600 403.9600Q1006.6600 402.5600 1007.5700 401.5800Q1008.4800 400.6000 1010.0200 400.6000L1010.0200 400.6000L1021.9200 400.6000Q1023.3200 400.6000 1024.3000 401.5800Q1025.2800 402.5600 1025.2800 403.9600L1025.2800 403.9600L1025.2800 496.6400Q1025.2800 498.0400 1024.3000 499.0200Q1023.3200 500 1021.9200 500L1021.9200 500L1010.8600 500Q1009.3200 500 1008.4100 499.0200Q1007.5000 498.0400 1007.5000 496.6400L1007.5000 496.6400L1007.5000 491.4600Q1004.0000 495.8000 998.6100 498.6000Q993.2200 501.4000 985.1000 501.4000ZM990.2800 486.4200L990.2800 486.4200Q996.1600 486.4200 999.6600 483.7600Q1003.1600 481.1000 1004.8400 476.9700Q1006.5200 472.8400 1006.6600 468.5000L1006.6600 468.5000Q1006.8000 465.9800 1006.8000 463.1100Q1006.8000 460.2400 1006.6600 457.7200L1006.6600 457.7200Q1006.5200 453.5200 1004.7000 449.6700Q1002.8800 445.8200 999.3800 443.3000Q995.8800 440.7800 990.2800 440.7800L990.2800 440.7800Q984.4000 440.7800 980.9700 443.3700Q977.5400 445.9600 976.0000 450.1600Q974.4600 454.3600 974.1800 459.4000L974.1800 459.4000Q974.0400 463.6000 974.1800 467.8000L974.1800 467.8000Q974.4600 472.8400 976.0000 477.0400Q977.5400 481.2400 980.9700 483.8300Q984.4000 486.4200 990.2800 486.4200ZM1070.9200 501.4000L1070.9200 501.4000Q1062.3800 501.4000 1056.1500 497.5500Q1049.9200 493.7000 1046.5600 486.6300Q1043.2000 479.5600 1043.2000 469.9000L1043.2000 469.9000L1043.2000 430.5600Q1043.2000 429.1600 1044.1800 428.1800Q1045.1600 427.2000 1046.5600 427.2000L1046.5600 427.2000L1058.8800 427.2000Q1060.4200 427.2000 1061.3300 428.1800Q1062.2400 429.1600 1062.2400 430.5600L1062.2400 430.5600L1062.2400 469.0600Q1062.2400 486.4200 1077.5000 486.4200L1077.5000 486.4200Q1084.7800 486.4200 1089.0500 481.8000Q1093.3200 477.1800 1093.3200 469.0600L1093.3200 469.0600L1093.3200 430.5600Q1093.3200 429.1600 1094.3000 428.1800Q1095.2800 427.2000 1096.6800 427.2000L1096.6800 427.2000L1109 427.2000Q1110.4000 427.2000 1111.3800 428.1800Q1112.3600 429.1600 1112.3600 430.5600L1112.3600 430.5600L1112.3600 496.6400Q1112.3600 498.0400 1111.3800 499.0200Q1110.4000 500 1109 500L1109 500L1097.6600 500Q1096.1200 500 1095.2100 499.0200Q1094.3000 498.0400 1094.3000 496.6400L1094.3000 496.6400L1094.3000 490.9000Q1090.5200 495.8000 1084.9200 498.6000Q1079.3200 501.4000 1070.9200 501.4000ZM1162.2000 530.8000L1162.2000 530.8000Q1158.2800 530.6600 1155.2700 529.4000Q1152.2600 528.1400 1150.9300 526.4600Q1149.6000 524.7800 1151.0000 523.6600L1151.0000 523.6600L1153.3800 521.5600Q1154.6400 520.4400 1155.5500 520.9300Q1156.4600 521.4200 1157.9300 522.3300Q1159.4000 523.2400 1162.2000 523.2400L1162.2000 523.2400Q1164.3000 523.2400 1165.8400 521.9100Q1167.3800 520.5800 1167.3800 518.4800L1167.3800 518.4800Q1167.3800 516.5200 1165.9100 515.2600Q1164.4400 514 1162.2000 514L1162.2000 514Q1160.2400 514 1158.8400 514.4900Q1157.4400 514.9800 1156.3200 515.1900Q1155.2000 515.4000 1154.0800 514.2800L1154.0800 514.2800L1151.5600 511.7600Q1150.7200 510.7800 1151.0000 509.7300Q1151.2800 508.6800 1151.8400 507.4200L1151.8400 507.4200L1154.7800 500.7000Q1142.7400 498.8800 1135.6000 490.6900Q1128.4600 482.5000 1128.0400 469.2000L1128.0400 469.2000Q1127.9000 467.1000 1127.9000 463.6700Q1127.9000 460.2400 1128.0400 458L1128.0400 458Q1128.4600 447.7800 1132.7300 440.5700Q1137.0000 433.3600 1144.6300 429.5800Q1152.2600 425.8000 1162.3400 425.8000L1162.3400 425.8000Q1171.3000 425.8000 1177.6000 428.2500Q1183.9000 430.7000 1187.9600 434.5500Q1192.0200 438.4000 1194.0500 442.5300Q1196.0800 446.6600 1196.2200 450.0200L1196.2200 450.0200Q1196.3600 451.5600 1195.3100 452.4700Q1194.2600 453.3800 1192.8600 453.3800L1192.8600 453.3800L1180.5400 453.3800Q1179.1400 453.3800 1178.3700 452.6800Q1177.6000 451.9800 1176.9000 450.5800L1176.9000 450.5800Q1174.8000 444.9800 1171.3700 442.6700Q1167.9400 440.3600 1162.6200 440.3600L1162.6200 440.3600Q1155.6200 440.3600 1151.4900 444.7700Q1147.3600 449.1800 1147.0800 458.7000L1147.0800 458.7000Q1146.8000 464.0200 1147.0800 468.5000L1147.0800 468.5000Q1147.3600 478.1600 1151.4900 482.5000Q1155.6200 486.8400 1162.6200 486.8400L1162.6200 486.8400Q1168.0800 486.8400 1171.4400 484.5300Q1174.8000 482.2200 1176.9000 476.6200L1176.9000 476.6200Q1177.6000 475.2200 1178.3700 474.5200Q1179.1400 473.8200 1180.5400 473.8200L1180.5400 473.8200L1192.8600 473.8200Q1194.2600 473.8200 1195.3100 474.7300Q1196.3600 475.6400 1196.2200 477.1800L1196.2200 477.1800Q1196.0800 480.2600 1194.1200 484.3900Q1192.1600 488.5200 1188.2400 492.3700Q1184.3200 496.2200 1178.0200 498.8100Q1171.7200 501.4000 1162.7600 501.4000L1162.7600 501.4000L1159.8200 507.4200Q1160.6600 507 1162.1300 506.7200Q1163.6000 506.4400 1164.7200 506.4400L1164.7200 506.4400Q1169.6200 506.4400 1172.6300 509.8000Q1175.6400 513.1600 1175.6400 518.3400L1175.6400 518.3400Q1175.6400 523.6600 1172.1400 527.3000Q1168.6400 530.9400 1162.2000 530.8000ZM1231.9200 501.4000L1231.9200 501.4000Q1224.6400 501.4000 1218.7600 498.5300Q1212.8800 495.6600 1209.4500 490.8300Q1206.0200 486 1206.0200 479.9800L1206.0200 479.9800Q1206.0200 470.1800 1214.0000 464.3700Q1221.9800 458.5600 1234.8600 456.6000L1234.8600 456.6000L1254.0400 453.8000L1254.0400 450.8600Q1254.0400 444.9800 1251.1000 441.7600Q1248.1600 438.5400 1241.0200 438.5400L1241.0200 438.5400Q1235.9800 438.5400 1232.8300 440.5700Q1229.6800 442.6000 1228.1400 445.9600L1228.1400 445.9600Q1227.0200 447.7800 1224.9200 447.7800L1224.9200 447.7800L1213.8600 447.7800Q1212.3200 447.7800 1211.5500 446.9400Q1210.7800 446.1000 1210.7800 444.7000L1210.7800 444.7000Q1210.9200 442.4600 1212.6700 439.2400Q1214.4200 436.0200 1217.9900 433.0100Q1221.5600 430 1227.3000 427.9000Q1233.0400 425.8000 1241.1600 425.8000L1241.1600 425.8000Q1249.9800 425.8000 1256.0700 427.9700Q1262.1600 430.1400 1265.8000 433.7800Q1269.4400 437.4200 1271.1200 442.3200Q1272.8000 447.2200 1272.8000 452.6800L1272.8000 452.6800L1272.8000 496.6400Q1272.8000 498.0400 1271.8200 499.0200Q1270.8400 500 1269.4400 500L1269.4400 500L1258.1000 500Q1256.5600 500 1255.6500 499.0200Q1254.7400 498.0400 1254.7400 496.6400L1254.7400 496.6400L1254.7400 491.1800Q1252.9200 493.7000 1249.8400 496.0800Q1246.7600 498.4600 1242.3500 499.9300Q1237.9400 501.4000 1231.9200 501.4000ZM1236.6800 488.1000L1236.6800 488.1000Q1241.5800 488.1000 1245.5700 486Q1249.5600 483.9000 1251.8700 479.4900Q1254.1800 475.0800 1254.1800 468.3600L1254.1800 468.3600L1254.1800 465.4200L1240.1800 467.6600Q1231.9200 468.9200 1227.8600 471.7200Q1223.8000 474.5200 1223.8000 478.5800L1223.8000 478.5800Q1223.8000 481.6600 1225.6900 483.8300Q1227.5800 486 1230.5200 487.0500Q1233.4600 488.1000 1236.6800 488.1000ZM1248.8600 417.4000L1248.8600 417.4000Q1245.2200 417.4000 1242.9800 416.2100Q1240.7400 415.0200 1238.8500 413.7600Q1236.9600 412.5000 1234.7200 412.5000L1234.7200 412.5000Q1232.9000 412.5000 1232.1300 413.5500Q1231.3600 414.6000 1230.6600 415.6500Q1229.9600 416.7000 1228.4200 416.7000L1228.4200 416.7000L1221.9800 416.7000Q1221.0000 416.7000 1220.3000 416Q1219.6000 415.3000 1219.6000 414.3200L1219.6000 414.3200Q1219.6000 412.2200 1220.3700 409.6300Q1221.1400 407.0400 1222.8200 404.6600Q1224.5000 402.2800 1227.0900 400.8100Q1229.6800 399.3400 1233.1800 399.3400L1233.1800 399.3400Q1236.9600 399.3400 1239.2000 400.5300Q1241.4400 401.7200 1243.3300 402.9800Q1245.2200 404.2400 1247.4600 404.2400L1247.4600 404.2400Q1249.2800 404.2400 1250.0500 403.1200Q1250.8200 402 1251.5200 400.9500Q1252.2200 399.9000 1253.7600 399.9000L1253.7600 399.9000L1260.2000 399.9000Q1261.3200 399.9000 1261.9500 400.6700Q1262.5800 401.4400 1262.5800 402.4200L1262.5800 402.4200Q1262.5800 404.5200 1261.8100 407.1100Q1261.0400 409.7000 1259.3600 412.0800Q1257.6800 414.4600 1255.0900 415.9300Q1252.5000 417.4000 1248.8600 417.4000ZM1322.9200 501.4000L1322.9200 501.4000Q1311.7200 501.4000 1304.0900 497.4800Q1296.4600 493.5600 1292.4700 486.4200Q1288.4800 479.2800 1287.9200 469.7600L1287.9200 469.7600Q1287.7800 467.2400 1287.7800 463.6000Q1287.7800 459.9600 1287.9200 457.4400L1287.9200 457.4400Q1288.4800 447.7800 1292.6100 440.7100Q1296.7400 433.6400 1304.3700 429.7200Q1312.0000 425.8000 1322.9200 425.8000L1322.9200 425.8000Q1333.8400 425.8000 1341.4700 429.7200Q1349.1000 433.6400 1353.2300 440.7100Q1357.3600 447.7800 1357.9200 457.4400L1357.9200 457.4400Q1358.0600 459.9600 1358.0600 463.6000Q1358.0600 467.2400 1357.9200 469.7600L1357.9200 469.7600Q1357.3600 479.2800 1353.3700 486.4200Q1349.3800 493.5600 1341.7500 497.4800Q1334.1200 501.4000 1322.9200 501.4000ZM1322.9200 487.5400L1322.9200 487.5400Q1330.3400 487.5400 1334.4000 482.8500Q1338.4600 478.1600 1338.8800 469.0600L1338.8800 469.0600Q1339.0200 466.9600 1339.0200 463.6000Q1339.0200 460.2400 1338.8800 458.1400L1338.8800 458.1400Q1338.4600 449.0400 1334.4000 444.3500Q1330.3400 439.6600 1322.9200 439.6600L1322.9200 439.6600Q1315.5000 439.6600 1311.4400 444.3500Q1307.3800 449.0400 1306.9600 458.1400L1306.9600 458.1400Q1306.8200 460.2400 1306.8200 463.6000Q1306.8200 466.9600 1306.9600 469.0600L1306.9600 469.0600Q1307.3800 478.1600 1311.4400 482.8500Q1315.5000 487.5400 1322.9200 487.5400ZM180.3800 641.4000L180.3800 641.4000Q173.1000 641.4000 167.2200 638.5300Q161.3400 635.6600 157.9100 630.8300Q154.4800 626 154.4800 619.9800L154.4800 619.9800Q154.4800 610.1800 162.4600 604.3700Q170.4400 598.5600 183.3200 596.6000L183.3200 596.6000L202.5000 593.8000L202.5000 590.8600Q202.5000 584.9800 199.5600 581.7600Q196.6200 578.5400 189.4800 578.5400L189.4800 578.5400Q184.4400 578.5400 181.2900 580.5700Q178.1400 582.6000 176.6000 585.9600L176.6000 585.9600Q175.4800 587.7800 173.3800 587.7800L173.3800 587.7800L162.3200 587.7800Q160.7800 587.7800 160.0100 586.9400Q159.2400 586.1000 159.2400 584.7000L159.2400 584.7000Q159.3800 582.4600 161.1300 579.2400Q162.8800 576.0200 166.4500 573.0100Q170.0200 570 175.7600 567.9000Q181.5000 565.8000 189.6200 565.8000L189.6200 565.8000Q198.4400 565.8000 204.5300 567.9700Q210.6200 570.1400 214.2600 573.7800Q217.9000 577.4200 219.5800 582.3200Q221.2600 587.2200 221.2600 592.6800L221.2600 592.6800L221.2600 636.6400Q221.2600 638.0400 220.2800 639.0200Q219.3000 640 217.9000 640L217.9000 640L206.5600 640Q205.0200 640 204.1100 639.0200Q203.2000 638.0400 203.2000 636.6400L203.2000 636.6400L203.2000 631.1800Q201.3800 633.7000 198.3000 636.0800Q195.2200 638.4600 190.8100 639.9300Q186.4000 641.4000 180.3800 641.4000ZM185.1400 628.1000L185.1400 628.1000Q190.0400 628.1000 194.0300 626Q198.0200 623.9000 200.3300 619.4900Q202.6400 615.0800 202.6400 608.3600L202.6400 608.3600L202.6400 605.4200L188.6400 607.6600Q180.3800 608.9200 176.3200 611.7200Q172.2600 614.5200 172.2600 618.5800L172.2600 618.5800Q172.2600 621.6600 174.1500 623.8300Q176.0400 626 178.9800 627.0500Q181.9200 628.1000 185.1400 628.1000ZM271.3800 641.4000L271.3800 641.4000Q260.1800 641.4000 252.5500 637.4800Q244.9200 633.5600 240.9300 626.4200Q236.9400 619.2800 236.3800 609.7600L236.3800 609.7600Q236.2400 607.2400 236.2400 603.6000Q236.2400 599.9600 236.3800 597.4400L236.3800 597.4400Q236.9400 587.7800 241.0700 580.7100Q245.2000 573.6400 252.8300 569.7200Q260.4600 565.8000 271.3800 565.8000L271.3800 565.8000Q282.3000 565.8000 289.9300 569.7200Q297.5600 573.6400 301.6900 580.7100Q305.8200 587.7800 306.3800 597.4400L306.3800 597.4400Q306.5200 599.9600 306.5200 603.6000Q306.5200 607.2400 306.3800 609.7600L306.3800 609.7600Q305.8200 619.2800 301.8300 626.4200Q297.8400 633.5600 290.2100 637.4800Q282.5800 641.4000 271.3800 641.4000ZM271.3800 627.5400L271.3800 627.5400Q278.8000 627.5400 282.8600 622.8500Q286.9200 618.1600 287.3400 609.0600L287.3400 609.0600Q287.4800 606.9600 287.4800 603.6000Q287.4800 600.2400 287.3400 598.1400L287.3400 598.1400Q286.9200 589.0400 282.8600 584.3500Q278.8000 579.6600 271.3800 579.6600L271.3800 579.6600Q263.9600 579.6600 259.9000 584.3500Q255.8400 589.0400 255.4200 598.1400L255.4200 598.1400Q255.2800 600.2400 255.2800 603.6000Q255.2800 606.9600 255.4200 609.0600L255.4200 609.0600Q255.8400 618.1600 259.9000 622.8500Q263.9600 627.5400 271.3800 627.5400ZM385.6200 641.4000L385.6200 641.4000Q375.5400 641.4000 367.9100 637.6200Q360.2800 633.8400 356.0100 626.6300Q351.7400 619.4200 351.3200 609.2000L351.3200 609.2000Q351.1800 607.1000 351.1800 603.6700Q351.1800 600.2400 351.3200 598L351.3200 598Q351.7400 587.7800 356.0100 580.5700Q360.2800 573.3600 367.9100 569.5800Q375.5400 565.8000 385.6200 565.8000L385.6200 565.8000Q394.5800 565.8000 400.8800 568.2500Q407.1800 570.7000 411.2400 574.5500Q415.3000 578.4000 417.3300 582.5300Q419.3600 586.6600 419.5000 590.0200L419.5000 590.0200Q419.6400 591.5600 418.5900 592.4700Q417.5400 593.3800 416.1400 593.3800L416.1400 593.3800L403.8200 593.3800Q402.4200 593.3800 401.6500 592.6800Q400.8800 591.9800 400.1800 590.5800L400.1800 590.5800Q398.0800 584.9800 394.6500 582.6700Q391.2200 580.3600 385.9000 580.3600L385.9000 580.3600Q378.9000 580.3600 374.7700 584.7700Q370.6400 589.1800 370.3600 598.7000L370.3600 598.7000Q370.0800 604.0200 370.3600 608.5000L370.3600 608.5000Q370.6400 618.1600 374.7700 622.5000Q378.9000 626.8400 385.9000 626.8400L385.9000 626.8400Q391.3600 626.8400 394.7200 624.5300Q398.0800 622.2200 400.1800 616.6200L400.1800 616.6200Q400.8800 615.2200 401.6500 614.5200Q402.4200 613.8200 403.8200 613.8200L403.8200 613.8200L416.1400 613.8200Q417.5400 613.8200 418.5900 614.7300Q419.6400 615.6400 419.5000 617.1800L419.5000 617.1800Q419.3600 619.7000 418.1700 622.8500Q416.9800 626 414.3900 629.2900Q411.8000 632.5800 407.8800 635.3100Q403.9600 638.0400 398.4300 639.7200Q392.9000 641.4000 385.6200 641.4000ZM466.2600 641.4000L466.2600 641.4000Q455.0600 641.4000 447.4300 637.4800Q439.8000 633.5600 435.8100 626.4200Q431.8200 619.2800 431.2600 609.7600L431.2600 609.7600Q431.1200 607.2400 431.1200 603.6000Q431.1200 599.9600 431.2600 597.4400L431.2600 597.4400Q431.8200 587.7800 435.9500 580.7100Q440.0800 573.6400 447.7100 569.7200Q455.3400 565.8000 466.2600 565.8000L466.2600 565.8000Q477.1800 565.8000 484.8100 569.7200Q492.4400 573.6400 496.5700 580.7100Q500.7000 587.7800 501.2600 597.4400L501.2600 597.4400Q501.4000 599.9600 501.4000 603.6000Q501.4000 607.2400 501.2600 609.7600L501.2600 609.7600Q500.7000 619.2800 496.7100 626.4200Q492.7200 633.5600 485.0900 637.4800Q477.4600 641.4000 466.2600 641.4000ZM466.2600 627.5400L466.2600 627.5400Q473.6800 627.5400 477.7400 622.8500Q481.8000 618.1600 482.2200 609.0600L482.2200 609.0600Q482.3600 606.9600 482.3600 603.6000Q482.3600 600.2400 482.2200 598.1400L482.2200 598.1400Q481.8000 589.0400 477.7400 584.3500Q473.6800 579.6600 466.2600 579.6600L466.2600 579.6600Q458.8400 579.6600 454.7800 584.3500Q450.7200 589.0400 450.3000 598.1400L450.3000 598.1400Q450.1600 600.2400 450.1600 603.6000Q450.1600 606.9600 450.3000 609.0600L450.3000 609.0600Q450.7200 618.1600 454.7800 622.8500Q458.8400 627.5400 466.2600 627.5400ZM532.6200 640L520.3000 640Q518.9000 640 517.9200 639.0200Q516.9400 638.0400 516.9400 636.6400L516.9400 636.6400L516.9400 570.5600Q516.9400 569.1600 517.9200 568.1800Q518.9000 567.2000 520.3000 567.2000L520.3000 567.2000L531.7800 567.2000Q533.1800 567.2000 534.1600 568.1800Q535.1400 569.1600 535.1400 570.5600L535.1400 570.5600L535.1400 576.3000Q538.7800 571.8200 544.4500 568.8100Q550.1200 565.8000 558.5200 565.8000L558.5200 565.8000Q567.0600 565.8000 573.3600 569.6500Q579.6600 573.5000 583.0900 580.5000Q586.5200 587.5000 586.5200 597.3000L586.5200 597.3000L586.5200 636.6400Q586.5200 638.0400 585.5400 639.0200Q584.5600 640 583.1600 640L583.1600 640L570.8400 640Q569.4400 640 568.4600 639.0200Q567.4800 638.0400 567.4800 636.6400L567.4800 636.6400L567.4800 598.1400Q567.4800 590.0200 563.4900 585.4000Q559.5000 580.7800 551.9400 580.7800L551.9400 580.7800Q544.6600 580.7800 540.3200 585.4000Q535.9800 590.0200 535.9800 598.1400L535.9800 598.1400L535.9800 636.6400Q535.9800 638.0400 535 639.0200Q534.0200 640 532.6200 640L532.6200 640ZM648.5400 640L637.2000 640Q628.8000 640 623.0600 637.0600Q617.3200 634.1200 614.5200 628.3100Q611.7200 622.5000 611.7200 613.8200L611.7200 613.8200L611.7200 582.0400L600.6600 582.0400Q599.2600 582.0400 598.2800 581.0600Q597.3000 580.0800 597.3000 578.5400L597.3000 578.5400L597.3000 570.5600Q597.3000 569.1600 598.2800 568.1800Q599.2600 567.2000 600.6600 567.2000L600.6600 567.2000L611.7200 567.2000L611.7200 543.9600Q611.7200 542.5600 612.6300 541.5800Q613.5400 540.6000 615.0800 540.6000L615.0800 540.6000L626.4200 540.6000Q627.8200 540.6000 628.8000 541.5800Q629.7800 542.5600 629.7800 543.9600L629.7800 543.9600L629.7800 567.2000L647.2800 567.2000Q648.6800 567.2000 649.6600 568.1800Q650.6400 569.1600 650.6400 570.5600L650.6400 570.5600L650.6400 578.5400Q650.6400 580.0800 649.6600 581.0600Q648.6800 582.0400 647.2800 582.0400L647.2800 582.0400L629.7800 582.0400L629.7800 612.4200Q629.7800 618.1600 631.8100 621.3800Q633.8400 624.6000 638.8800 624.6000L638.8800 624.6000L648.5400 624.6000Q649.9400 624.6000 650.9200 625.5800Q651.9000 626.5600 651.9000 627.9600L651.9000 627.9600L651.9000 636.6400Q651.9000 638.0400 650.9200 639.0200Q649.9400 640 648.5400 640L648.5400 640ZM679.9000 640L667.7200 640Q666.3200 640 665.3400 639.0200Q664.3600 638.0400 664.3600 636.6400L664.3600 636.6400L664.3600 570.7000Q664.3600 569.1600 665.3400 568.1800Q666.3200 567.2000 667.7200 567.2000L667.7200 567.2000L679.0600 567.2000Q680.4600 567.2000 681.5100 568.1800Q682.5600 569.1600 682.5600 570.7000L682.5600 570.7000L682.5600 576.4400Q685.7800 571.9600 690.8900 569.5800Q696.0000 567.2000 702.7200 567.2000L702.7200 567.2000L708.4600 567.2000Q710.0000 567.2000 710.9100 568.1800Q711.8200 569.1600 711.8200 570.5600L711.8200 570.5600L711.8200 580.6400Q711.8200 582.0400 710.9100 583.0200Q710.0000 584 708.4600 584L708.4600 584L697.5400 584Q690.8200 584 687.1100 587.7100Q683.4000 591.4200 683.4000 598.1400L683.4000 598.1400L683.4000 636.6400Q683.4000 638.0400 682.4200 639.0200Q681.4400 640 679.9000 640L679.9000 640ZM754.9400 641.4000L754.9400 641.4000Q743.7400 641.4000 736.1100 637.4800Q728.4800 633.5600 724.4900 626.4200Q720.5000 619.2800 719.9400 609.7600L719.9400 609.7600Q719.8000 607.2400 719.8000 603.6000Q719.8000 599.9600 719.9400 597.4400L719.9400 597.4400Q720.5000 587.7800 724.6300 580.7100Q728.7600 573.6400 736.3900 569.7200Q744.0200 565.8000 754.9400 565.8000L754.9400 565.8000Q765.8600 565.8000 773.4900 569.7200Q781.1200 573.6400 785.2500 580.7100Q789.3800 587.7800 789.9400 597.4400L789.9400 597.4400Q790.0800 599.9600 790.0800 603.6000Q790.0800 607.2400 789.9400 609.7600L789.9400 609.7600Q789.3800 619.2800 785.3900 626.4200Q781.4000 633.5600 773.7700 637.4800Q766.1400 641.4000 754.9400 641.4000ZM754.9400 627.5400L754.9400 627.5400Q762.3600 627.5400 766.4200 622.8500Q770.4800 618.1600 770.9000 609.0600L770.9000 609.0600Q771.0400 606.9600 771.0400 603.6000Q771.0400 600.2400 770.9000 598.1400L770.9000 598.1400Q770.4800 589.0400 766.4200 584.3500Q762.3600 579.6600 754.9400 579.6600L754.9400 579.6600Q747.5200 579.6600 743.4600 584.3500Q739.4000 589.0400 738.9800 598.1400L738.9800 598.1400Q738.8400 600.2400 738.8400 603.6000Q738.8400 606.9600 738.9800 609.0600L738.9800 609.0600Q739.4000 618.1600 743.4600 622.8500Q747.5200 627.5400 754.9400 627.5400ZM820.7400 640L809.1200 640Q807.7200 640 806.7400 639.0200Q805.7600 638.0400 805.7600 636.6400L805.7600 636.6400L805.7600 543.9600Q805.7600 542.5600 806.7400 541.5800Q807.7200 540.6000 809.1200 540.6000L809.1200 540.6000L820.7400 540.6000Q822.1400 540.6000 823.1200 541.5800Q824.1000 542.5600 824.1000 543.9600L824.1000 543.9600L824.1000 636.6400Q824.1000 638.0400 823.1200 639.0200Q822.1400 640 820.7400 640L820.7400 640ZM874.0800 641.4000L874.0800 641.4000Q858.5400 641.4000 849.4400 632.4400Q840.3400 623.4800 839.6400 606.9600L839.6400 606.9600Q839.5000 605.5600 839.5000 603.3900Q839.5000 601.2200 839.6400 599.9600L839.6400 599.9600Q840.2000 589.3200 844.4700 581.6900Q848.7400 574.0600 856.3000 569.9300Q863.8600 565.8000 874.0800 565.8000L874.0800 565.8000Q885.4200 565.8000 893.1200 570.4900Q900.8200 575.1800 904.7400 583.5100Q908.6600 591.8400 908.6600 602.7600L908.6600 602.7600L908.6600 605.7000Q908.6600 607.1000 907.6800 608.0800Q906.7000 609.0600 905.1600 609.0600L905.1600 609.0600L858.6800 609.0600Q858.6800 609.0600 858.6800 609.4800Q858.6800 609.9000 858.6800 610.1800L858.6800 610.1800Q858.8200 615.0800 860.5700 619.2100Q862.3200 623.3400 865.7500 625.8600Q869.1800 628.3800 873.9400 628.3800L873.9400 628.3800Q877.8600 628.3800 880.5200 627.1900Q883.1800 626 884.8600 624.4600Q886.5400 622.9200 887.2400 621.9400L887.2400 621.9400Q888.5000 620.2600 889.2700 619.9100Q890.0400 619.5600 891.5800 619.5600L891.5800 619.5600L903.6200 619.5600Q905.0200 619.5600 905.9300 620.4000Q906.8400 621.2400 906.7000 622.5000L906.7000 622.5000Q906.5600 624.7400 904.3900 627.9600Q902.2200 631.1800 898.1600 634.2600Q894.1000 637.3400 888.0100 639.3700Q881.9200 641.4000 874.0800 641.4000ZM858.6800 596.8800L858.6800 597.3000L889.6200 597.3000L889.6200 596.8800Q889.6200 591.4200 887.8000 587.2900Q885.9800 583.1600 882.4800 580.8500Q878.9800 578.5400 874.0800 578.5400L874.0800 578.5400Q869.1800 578.5400 865.6800 580.8500Q862.1800 583.1600 860.4300 587.2900Q858.6800 591.4200 858.6800 596.8800L858.6800 596.8800ZM982.5800 641.4000L982.5800 641.4000Q975.3000 641.4000 969.7700 638.9500Q964.2400 636.5000 960.6000 632.0200Q956.9600 627.5400 955.0000 621.4500Q953.0400 615.3600 952.7600 608.0800L952.7600 608.0800Q952.6200 605.5600 952.6200 603.5300Q952.6200 601.5000 952.7600 598.9800L952.7600 598.9800Q953.0400 591.9800 954.9300 585.9600Q956.8200 579.9400 960.5300 575.3900Q964.2400 570.8400 969.7700 568.3200Q975.3000 565.8000 982.5800 565.8000L982.5800 565.8000Q990.1400 565.8000 995.3900 568.3900Q1000.6400 570.9800 1004.1400 575.0400L1004.1400 575.0400L1004.1400 543.9600Q1004.1400 542.5600 1005.0500 541.5800Q1005.9600 540.6000 1007.5000 540.6000L1007.5000 540.6000L1019.4000 540.6000Q1020.8000 540.6000 1021.7800 541.5800Q1022.7600 542.5600 1022.7600 543.9600L1022.7600 543.9600L1022.7600 636.6400Q1022.7600 638.0400 1021.7800 639.0200Q1020.8000 640 1019.4000 640L1019.4000 640L1008.3400 640Q1006.8000 640 1005.8900 639.0200Q1004.9800 638.0400 1004.9800 636.6400L1004.9800 636.6400L1004.9800 631.4600Q1001.4800 635.8000 996.0900 638.6000Q990.7000 641.4000 982.5800 641.4000ZM987.7600 626.4200L987.7600 626.4200Q993.6400 626.4200 997.1400 623.7600Q1000.6400 621.1000 1002.3200 616.9700Q1004 612.8400 1004.1400 608.5000L1004.1400 608.5000Q1004.2800 605.9800 1004.2800 603.1100Q1004.2800 600.2400 1004.1400 597.7200L1004.1400 597.7200Q1004 593.5200 1002.1800 589.6700Q1000.3600 585.8200 996.8600 583.3000Q993.3600 580.7800 987.7600 580.7800L987.7600 580.7800Q981.8800 580.7800 978.4500 583.3700Q975.0200 585.9600 973.4800 590.1600Q971.9400 594.3600 971.6600 599.4000L971.6600 599.4000Q971.5200 603.6000 971.6600 607.8000L971.6600 607.8000Q971.9400 612.8400 973.4800 617.0400Q975.0200 621.2400 978.4500 623.8300Q981.8800 626.4200 987.7600 626.4200ZM1072.7400 641.4000L1072.7400 641.4000Q1057.2000 641.4000 1048.1000 632.4400Q1039.0000 623.4800 1038.3000 606.9600L1038.3000 606.9600Q1038.1600 605.5600 1038.1600 603.3900Q1038.1600 601.2200 1038.3000 599.9600L1038.3000 599.9600Q1038.8600 589.3200 1043.1300 581.6900Q1047.4000 574.0600 1054.9600 569.9300Q1062.5200 565.8000 1072.7400 565.8000L1072.7400 565.8000Q1084.0800 565.8000 1091.7800 570.4900Q1099.4800 575.1800 1103.4000 583.5100Q1107.3200 591.8400 1107.3200 602.7600L1107.3200 602.7600L1107.3200 605.7000Q1107.3200 607.1000 1106.3400 608.0800Q1105.3600 609.0600 1103.8200 609.0600L1103.8200 609.0600L1057.3400 609.0600Q1057.3400 609.0600 1057.3400 609.4800Q1057.3400 609.9000 1057.3400 610.1800L1057.3400 610.1800Q1057.4800 615.0800 1059.2300 619.2100Q1060.9800 623.3400 1064.4100 625.8600Q1067.8400 628.3800 1072.6000 628.3800L1072.6000 628.3800Q1076.5200 628.3800 1079.1800 627.1900Q1081.8400 626 1083.5200 624.4600Q1085.2000 622.9200 1085.9000 621.9400L1085.9000 621.9400Q1087.1600 620.2600 1087.9300 619.9100Q1088.7000 619.5600 1090.2400 619.5600L1090.2400 619.5600L1102.2800 619.5600Q1103.6800 619.5600 1104.5900 620.4000Q1105.5000 621.2400 1105.3600 622.5000L1105.3600 622.5000Q1105.2200 624.7400 1103.0500 627.9600Q1100.8800 631.1800 1096.8200 634.2600Q1092.7600 637.3400 1086.6700 639.3700Q1080.5800 641.4000 1072.7400 641.4000ZM1057.3400 596.8800L1057.3400 597.3000L1088.2800 597.3000L1088.2800 596.8800Q1088.2800 591.4200 1086.4600 587.2900Q1084.6400 583.1600 1081.1400 580.8500Q1077.6400 578.5400 1072.7400 578.5400L1072.7400 578.5400Q1067.8400 578.5400 1064.3400 580.8500Q1060.8400 583.1600 1059.0900 587.2900Q1057.3400 591.4200 1057.3400 596.8800L1057.3400 596.8800ZM195.3600 780L185 780Q182.7600 780 181.7100 778.9500Q180.6600 777.9000 179.9600 776.5000L179.9600 776.5000L153.7800 711.5400Q153.5000 710.8400 153.5000 710.2800L153.5000 710.2800Q153.5000 709.0200 154.4100 708.1100Q155.3200 707.2000 156.5800 707.2000L156.5800 707.2000L167.9200 707.2000Q169.6000 707.2000 170.4400 708.1100Q171.2800 709.0200 171.5600 709.8600L171.5600 709.8600L190.1800 759L208.8000 709.8600Q209.0800 709.0200 209.9200 708.1100Q210.7600 707.2000 212.4400 707.2000L212.4400 707.2000L223.9200 707.2000Q225.0400 707.2000 225.9500 708.1100Q226.8600 709.0200 226.8600 710.2800L226.8600 710.2800Q226.8600 710.8400 226.7200 711.5400L226.7200 711.5400L200.4000 776.5000Q199.8400 777.9000 198.7200 778.9500Q197.6000 780 195.3600 780L195.3600 780ZM270.9600 781.4000L270.9600 781.4000Q255.4200 781.4000 246.3200 772.4400Q237.2200 763.4800 236.5200 746.9600L236.5200 746.9600Q236.3800 745.5600 236.3800 743.3900Q236.3800 741.2200 236.5200 739.9600L236.5200 739.9600Q237.0800 729.3200 241.3500 721.6900Q245.6200 714.0600 253.1800 709.9300Q260.7400 705.8000 270.9600 705.8000L270.9600 705.8000Q282.3000 705.8000 290 710.4900Q297.7000 715.1800 301.6200 723.5100Q305.5400 731.8400 305.5400 742.7600L305.5400 742.7600L305.5400 745.7000Q305.5400 747.1000 304.5600 748.0800Q303.5800 749.0600 302.0400 749.0600L302.0400 749.0600L255.5600 749.0600Q255.5600 749.0600 255.5600 749.4800Q255.5600 749.9000 255.5600 750.1800L255.5600 750.1800Q255.7000 755.0800 257.4500 759.2100Q259.2000 763.3400 262.6300 765.8600Q266.0600 768.3800 270.8200 768.3800L270.8200 768.3800Q274.7400 768.3800 277.4000 767.1900Q280.0600 766 281.7400 764.4600Q283.4200 762.9200 284.1200 761.9400L284.1200 761.9400Q285.3800 760.2600 286.1500 759.9100Q286.9200 759.5600 288.4600 759.5600L288.4600 759.5600L300.5000 759.5600Q301.9000 759.5600 302.8100 760.4000Q303.7200 761.2400 303.5800 762.5000L303.5800 762.5000Q303.4400 764.7400 301.2700 767.9600Q299.1000 771.1800 295.0400 774.2600Q290.9800 777.3400 284.8900 779.3700Q278.8000 781.4000 270.9600 781.4000ZM255.5600 736.8800L255.5600 737.3000L286.5000 737.3000L286.5000 736.8800Q286.5000 731.4200 284.6800 727.2900Q282.8600 723.1600 279.3600 720.8500Q275.8600 718.5400 270.9600 718.5400L270.9600 718.5400Q266.0600 718.5400 262.5600 720.8500Q259.0600 723.1600 257.3100 727.2900Q255.5600 731.4200 255.5600 736.8800L255.5600 736.8800ZM335.9200 780L323.7400 780Q322.3400 780 321.3600 779.0200Q320.3800 778.0400 320.3800 776.6400L320.3800 776.6400L320.3800 710.7000Q320.3800 709.1600 321.3600 708.1800Q322.3400 707.2000 323.7400 707.2000L323.7400 707.2000L335.0800 707.2000Q336.4800 707.2000 337.5300 708.1800Q338.5800 709.1600 338.5800 710.7000L338.5800 710.7000L338.5800 716.4400Q341.8000 711.9600 346.9100 709.5800Q352.0200 707.2000 358.7400 707.2000L358.7400 707.2000L364.4800 707.2000Q366.0200 707.2000 366.9300 708.1800Q367.8400 709.1600 367.8400 710.5600L367.8400 710.5600L367.8400 720.6400Q367.8400 722.0400 366.9300 723.0200Q366.0200 724 364.4800 724L364.4800 724L353.5600 724Q346.8400 724 343.1300 727.7100Q339.4200 731.4200 339.4200 738.1400L339.4200 738.1400L339.4200 776.6400Q339.4200 778.0400 338.4400 779.0200Q337.4600 780 335.9200 780L335.9200 780ZM406.3400 781.4000L406.3400 781.4000Q397.9400 781.4000 391.9900 779.4400Q386.0400 777.4800 382.2600 774.5400Q378.4800 771.6000 376.6600 768.6600Q374.8400 765.7200 374.7000 763.7600L374.7000 763.7600Q374.5600 762.2200 375.6100 761.3100Q376.6600 760.4000 377.9200 760.4000L377.9200 760.4000L388.9800 760.4000Q389.5400 760.4000 389.9600 760.5400Q390.3800 760.6800 391.0800 761.3800L391.0800 761.3800Q392.9000 762.9200 394.9300 764.6000Q396.9600 766.2800 399.7600 767.4700Q402.5600 768.6600 406.7600 768.6600L406.7600 768.6600Q412.2200 768.6600 415.9300 766.4900Q419.6400 764.3200 419.6400 760.2600L419.6400 760.2600Q419.6400 757.3200 418.0300 755.5000Q416.4200 753.6800 412.0800 752.2100Q407.7400 750.7400 399.7600 749.0600L399.7600 749.0600Q391.9200 747.2400 386.7400 744.4400Q381.5600 741.6400 379.0400 737.4400Q376.5200 733.2400 376.5200 727.6400L376.5200 727.6400Q376.5200 722.1800 379.8100 717.2100Q383.1000 712.2400 389.6100 709.0200Q396.1200 705.8000 405.7800 705.8000L405.7800 705.8000Q413.3400 705.8000 418.9400 707.6900Q424.5400 709.5800 428.2500 712.3800Q431.9600 715.1800 433.9200 718.0500Q435.8800 720.9200 436.0200 723.0200L436.0200 723.0200Q436.1600 724.5600 435.1800 725.4700Q434.2000 726.3800 432.9400 726.3800L432.9400 726.3800L422.5800 726.3800Q421.8800 726.3800 421.3200 726.1000Q420.7600 725.8200 420.2000 725.4000L420.2000 725.4000Q418.6600 724 416.8400 722.3900Q415.0200 720.7800 412.4300 719.6600Q409.8400 718.5400 405.6400 718.5400L405.6400 718.5400Q400.3200 718.5400 397.5200 720.8500Q394.7200 723.1600 394.7200 726.6600L394.7200 726.6600Q394.7200 729.0400 396.0500 730.7900Q397.3800 732.5400 401.4400 734.0800Q405.5000 735.6200 413.7600 737.3000L413.7600 737.3000Q423.1400 738.9800 428.6700 742.2700Q434.2000 745.5600 436.5100 749.8300Q438.8200 754.1000 438.8200 759.2800L438.8200 759.2800Q438.8200 765.5800 435.1100 770.6200Q431.4000 775.6600 424.1900 778.5300Q416.9800 781.4000 406.3400 781.4000ZM474.3800 781.4000L474.3800 781.4000Q467.1000 781.4000 461.2200 778.5300Q455.3400 775.6600 451.9100 770.8300Q448.4800 766 448.4800 759.9800L448.4800 759.9800Q448.4800 750.1800 456.4600 744.3700Q464.4400 738.5600 477.3200 736.6000L477.3200 736.6000L496.5000 733.8000L496.5000 730.8600Q496.5000 724.9800 493.5600 721.7600Q490.6200 718.5400 483.4800 718.5400L483.4800 718.5400Q478.4400 718.5400 475.2900 720.5700Q472.1400 722.6000 470.6000 725.9600L470.6000 725.9600Q469.4800 727.7800 467.3800 727.7800L467.3800 727.7800L456.3200 727.7800Q454.7800 727.7800 454.0100 726.9400Q453.2400 726.1000 453.2400 724.7000L453.2400 724.7000Q453.3800 722.4600 455.1300 719.2400Q456.8800 716.0200 460.4500 713.0100Q464.0200 710 469.7600 707.9000Q475.5000 705.8000 483.6200 705.8000L483.6200 705.8000Q492.4400 705.8000 498.5300 707.9700Q504.6200 710.1400 508.2600 713.7800Q511.9000 717.4200 513.5800 722.3200Q515.2600 727.2200 515.2600 732.6800L515.2600 732.6800L515.2600 776.6400Q515.2600 778.0400 514.2800 779.0200Q513.3000 780 511.9000 780L511.9000 780L500.5600 780Q499.0200 780 498.1100 779.0200Q497.2000 778.0400 497.2000 776.6400L497.2000 776.6400L497.2000 771.1800Q495.3800 773.7000 492.3000 776.0800Q489.2200 778.4600 484.8100 779.9300Q480.4000 781.4000 474.3800 781.4000ZM479.1400 768.1000L479.1400 768.1000Q484.0400 768.1000 488.0300 766Q492.0200 763.9000 494.3300 759.4900Q496.6400 755.0800 496.6400 748.3600L496.6400 748.3600L496.6400 745.4200L482.6400 747.6600Q474.3800 748.9200 470.3200 751.7200Q466.2600 754.5200 466.2600 758.5800L466.2600 758.5800Q466.2600 761.6600 468.1500 763.8300Q470.0400 766 472.9800 767.0500Q475.9200 768.1000 479.1400 768.1000ZM491.3200 697.4000L491.3200 697.4000Q487.6800 697.4000 485.4400 696.2100Q483.2000 695.0200 481.3100 693.7600Q479.4200 692.5000 477.1800 692.5000L477.1800 692.5000Q475.3600 692.5000 474.5900 693.5500Q473.8200 694.6000 473.1200 695.6500Q472.4200 696.7000 470.8800 696.7000L470.8800 696.7000L464.4400 696.7000Q463.4600 696.7000 462.7600 696Q462.0600 695.3000 462.0600 694.3200L462.0600 694.3200Q462.0600 692.2200 462.8300 689.6300Q463.6000 687.0400 465.2800 684.6600Q466.9600 682.2800 469.5500 680.8100Q472.1400 679.3400 475.6400 679.3400L475.6400 679.3400Q479.4200 679.3400 481.6600 680.5300Q483.9000 681.7200 485.7900 682.9800Q487.6800 684.2400 489.9200 684.2400L489.9200 684.2400Q491.7400 684.2400 492.5100 683.1200Q493.2800 682 493.9800 680.9500Q494.6800 679.9000 496.2200 679.9000L496.2200 679.9000L502.6600 679.9000Q503.7800 679.9000 504.4100 680.6700Q505.0400 681.4400 505.0400 682.4200L505.0400 682.4200Q505.0400 684.5200 504.2700 687.1100Q503.5000 689.7000 501.8200 692.0800Q500.1400 694.4600 497.5500 695.9300Q494.9600 697.4000 491.3200 697.4000ZM565.3800 781.4000L565.3800 781.4000Q554.1800 781.4000 546.5500 777.4800Q538.9200 773.5600 534.9300 766.4200Q530.9400 759.2800 530.3800 749.7600L530.3800 749.7600Q530.2400 747.2400 530.2400 743.6000Q530.2400 739.9600 530.3800 737.4400L530.3800 737.4400Q530.9400 727.7800 535.0700 720.7100Q539.2000 713.6400 546.8300 709.7200Q554.4600 705.8000 565.3800 705.8000L565.3800 705.8000Q576.3000 705.8000 583.9300 709.7200Q591.5600 713.6400 595.6900 720.7100Q599.8200 727.7800 600.3800 737.4400L600.3800 737.4400Q600.5200 739.9600 600.5200 743.6000Q600.5200 747.2400 600.3800 749.7600L600.3800 749.7600Q599.8200 759.2800 595.8300 766.4200Q591.8400 773.5600 584.2100 777.4800Q576.5800 781.4000 565.3800 781.4000ZM565.3800 767.5400L565.3800 767.5400Q572.8000 767.5400 576.8600 762.8500Q580.9200 758.1600 581.3400 749.0600L581.3400 749.0600Q581.4800 746.9600 581.4800 743.6000Q581.4800 740.2400 581.3400 738.1400L581.3400 738.1400Q580.9200 729.0400 576.8600 724.3500Q572.8000 719.6600 565.3800 719.6600L565.3800 719.6600Q557.9600 719.6600 553.9000 724.3500Q549.8400 729.0400 549.4200 738.1400L549.4200 738.1400Q549.2800 740.2400 549.2800 743.6000Q549.2800 746.9600 549.4200 749.0600L549.4200 749.0600Q549.8400 758.1600 553.9000 762.8500Q557.9600 767.5400 565.3800 767.5400ZM687.8800 781.4000L687.8800 781.4000Q675.0000 781.4000 665.9700 776.9200Q656.9400 772.4400 651.9700 763.9700Q647.0000 755.5000 646.5800 743.7400L646.5800 743.7400Q646.4400 737.7200 646.4400 730.7900Q646.4400 723.8600 646.5800 717.7000L646.5800 717.7000Q647.0000 706.0800 651.9700 697.8200Q656.9400 689.5600 666.1100 685.0800Q675.2800 680.6000 687.8800 680.6000L687.8800 680.6000Q698.1000 680.6000 705.8000 683.3300Q713.5000 686.0600 718.6100 690.3300Q723.7200 694.6000 726.3100 699.5000Q728.9000 704.4000 729.0400 708.6000L729.0400 708.6000Q729.1800 709.8600 728.3400 710.7000Q727.5000 711.5400 726.1000 711.5400L726.1000 711.5400L711.6800 711.5400Q710.2800 711.5400 709.5800 710.9800Q708.8800 710.4200 708.3200 709.3000L708.3200 709.3000Q707.2000 706.3600 704.8200 703.4900Q702.4400 700.6200 698.3800 698.6600Q694.3200 696.7000 687.8800 696.7000L687.8800 696.7000Q678.3600 696.7000 672.6900 701.7400Q667.0200 706.7800 666.6000 718.4000L666.6000 718.4000Q666.1800 730.5800 666.6000 743.0400L666.6000 743.0400Q667.0200 754.9400 672.8300 760.1200Q678.6400 765.3000 688.1600 765.3000L688.1600 765.3000Q694.4600 765.3000 699.4300 763.0600Q704.4000 760.8200 707.2700 756.0600Q710.1400 751.3000 710.1400 743.8800L710.1400 743.8800L710.1400 739.5400L693.0600 739.5400Q691.6600 739.5400 690.6800 738.5600Q689.7000 737.5800 689.7000 736.0400L689.7000 736.0400L689.7000 728.6200Q689.7000 727.0800 690.6800 726.1000Q691.6600 725.1200 693.0600 725.1200L693.0600 725.1200L726.5200 725.1200Q728.0600 725.1200 728.9700 726.1000Q729.8800 727.0800 729.8800 728.6200L729.8800 728.6200L729.8800 743.3200Q729.8800 755.0800 724.7700 763.6200Q719.6600 772.1600 710.2100 776.7800Q700.7600 781.4000 687.8800 781.4000ZM761.1000 780L749.4800 780Q748.0800 780 747.1000 779.0200Q746.1200 778.0400 746.1200 776.6400L746.1200 776.6400L746.1200 710.5600Q746.1200 709.1600 747.1000 708.1800Q748.0800 707.2000 749.4800 707.2000L749.4800 707.2000L761.1000 707.2000Q762.6400 707.2000 763.5500 708.1800Q764.4600 709.1600 764.4600 710.5600L764.4600 710.5600L764.4600 776.6400Q764.4600 778.0400 763.5500 779.0200Q762.6400 780 761.1000 780L761.1000 780ZM761.6600 695.1600L748.9200 695.1600Q747.5200 695.1600 746.5400 694.1800Q745.5600 693.2000 745.5600 691.8000L745.5600 691.8000L745.5600 681.7200Q745.5600 680.3200 746.5400 679.3400Q747.5200 678.3600 748.9200 678.3600L748.9200 678.3600L761.6600 678.3600Q763.2000 678.3600 764.1800 679.3400Q765.1600 680.3200 765.1600 681.7200L765.1600 681.7200L765.1600 691.8000Q765.1600 693.2000 764.1800 694.1800Q763.2000 695.1600 761.6600 695.1600L761.6600 695.1600ZM827.3200 780L815.9800 780Q807.5800 780 801.8400 777.0600Q796.1000 774.1200 793.3000 768.3100Q790.5000 762.5000 790.5000 753.8200L790.5000 753.8200L790.5000 722.0400L779.4400 722.0400Q778.0400 722.0400 777.0600 721.0600Q776.0800 720.0800 776.0800 718.5400L776.0800 718.5400L776.0800 710.5600Q776.0800 709.1600 777.0600 708.1800Q778.0400 707.2000 779.4400 707.2000L779.4400 707.2000L790.5000 707.2000L790.5000 683.9600Q790.5000 682.5600 791.4100 681.5800Q792.3200 680.6000 793.8600 680.6000L793.8600 680.6000L805.2000 680.6000Q806.6000 680.6000 807.5800 681.5800Q808.5600 682.5600 808.5600 683.9600L808.5600 683.9600L808.5600 707.2000L826.0600 707.2000Q827.4600 707.2000 828.4400 708.1800Q829.4200 709.1600 829.4200 710.5600L829.4200 710.5600L829.4200 718.5400Q829.4200 720.0800 828.4400 721.0600Q827.4600 722.0400 826.0600 722.0400L826.0600 722.0400L808.5600 722.0400L808.5600 752.4200Q808.5600 758.1600 810.5900 761.3800Q812.6200 764.6000 817.6600 764.6000L817.6600 764.6000L827.3200 764.6000Q828.7200 764.6000 829.7000 765.5800Q830.6800 766.5600 830.6800 767.9600L830.6800 767.9600L830.6800 776.6400Q830.6800 778.0400 829.7000 779.0200Q828.7200 780 827.3200 780L827.3200 780Z" id="title"/></g></svg>