<svg xmlns="http://www.w3.org/2000/svg" version="1.1" xmlns:xlink="http://www.w3.org/1999/xlink" xmlns:svgjs="http://svgjs.dev/svgjs" viewBox="0 0 1920 1080" id="7ca78525-7769-4325-8c44-4cefccbe7cdd"><g><rect width="1920" height="1080" fill="#798086"/></g><g fill="#b949a4"><path d="M969.5 217C561.465 217 231 547.465 231 955.5C231 1363.53 561.465 1694 969.5 1694C1377.53 1694 1708 1363.53 1708 955.5C1708 547.465 1377.53 217 969.5 217ZM969.5 1309.34C773.983 1309.34 615.658 1151.02 615.658 955.5C615.658 759.983 773.983 601.658 969.5 601.658C1165.02 601.658 1323.34 759.983 1323.34 955.5C1323.34 1151.02 1165.02 1309.34 969.5 1309.34Z"/></g><g fill="#ffffff" opacity="0.2"><path d="M1432 918.479L1616.48 734V918.479H1432Z"/><path d="M1616.48 918.479L1800.52 734V918.479H1616.48Z"/><path d="M1800.52 918.479L1985 734V918.479H1800.52Z"/><path d="M1432 1102.52L1616.48 918.479V1102.52H1432Z"/><path d="M1616.48 1102.52L1800.52 918.479V1102.52H1616.48Z"/><path d="M1800.52 1102.52L1985 918.479V1102.52H1800.52Z"/><path d="M499 154.521L683.479 -29.5215V154.521H499Z"/><path d="M683.479 154.521L867.521 -29.5215V154.521H683.479Z"/><path d="M867.521 154.521L1052 -29.5215V154.521H867.521Z"/><path d="M499 339L683.479 154.521V339H499Z"/><path d="M683.479 339L867.521 154.521V339H683.479Z"/><path d="M867.521 339L1052 154.521V339H867.521Z"/></g><g><path d="M178.635 139.281L184.422 144.246V166.626H215.704L219.958 172.147L215.69 177.397H184.422V198.795L178.635 203.747L173 198.795V144.232L178.635 139.281ZM195.554 195.68H219.406L223.397 200.915L219.143 206.45H195.554L191.7 201.342L195.554 195.68ZM196.382 138H219.129L223.383 143.52L219.129 148.77H196.659L192.115 143.677L196.382 138ZM323.155 148.628L328.251 154.291L323.155 159.968H246.13L241.172 154.291L246.13 148.628H323.155ZM237.043 172.147L241.849 167.893L246.669 172.147V178.393C246.669 188.879 249.417 197.515 261.668 197.515H264.14C275.147 197.515 281.197 189.86 281.197 177.952V172.005L285.879 167.75L290.699 171.862V178.379C290.699 189.007 293.723 196.946 305.56 196.946H307.618C319.178 196.946 321.235 187.869 321.373 177.952V171.578L326.056 167.608L331 171.72V178.094C330.862 191.838 327.285 207.574 308.032 207.574H305.974C294.552 207.574 288.365 202.324 285.892 195.808C283.006 202.466 275.299 208.286 264.844 208.286H262.358C242.553 208.286 237.194 195.964 237.056 178.663V172.147H237.043ZM276.391 274.744L273.642 267.089L280.796 264.969L305.974 276.721V252.491L311.07 248.095L316.291 252.491V281.829L325.641 286.226L328.251 293.311L320.959 296L276.391 274.744ZM321.235 223.011L328.113 226.27L325.917 233.497L264.002 263.119L256.571 260.146L259.596 252.776L321.235 223.011ZM231.905 263.404L237.954 268.512C237.402 286.51 222.403 296 204.669 296H202.874C194.062 296 183.759 292.6 177.157 286.083L177.834 278.855L184.298 278.002C189.118 282.256 195.858 285.229 202.183 285.229H204.117C216.091 285.229 225.303 280.136 226.27 268.085L231.905 263.404ZM226.256 251.638C225.704 239.16 216.629 234.209 204.103 234.209H202.169C194.739 234.209 189.104 237.182 184.284 241.436L177.834 240.583L177.143 233.355C183.745 226.696 192.957 223.58 202.597 223.58H204.517C222.403 223.58 237.402 232.942 237.94 251.211L231.891 256.176L226.256 251.638Z" fill="#ffffff"/></g><g fill="#ffffff" id="info-group"><path d="M167.0800 430L154.9000 430Q153.7800 430 152.8700 429.1600Q151.9600 428.3200 151.9600 427.0600L151.9600 427.0600Q151.9600 426.5000 152.2400 425.8000L152.2400 425.8000L185.9800 335.5000Q186.4000 334.1000 187.5900 333.0500Q188.7800 332 190.8800 332L190.8800 332L206.1400 332Q208.2400 332 209.3600 333.0500Q210.4800 334.1000 211.0400 335.5000L211.0400 335.5000L244.7800 425.8000Q244.9200 426.5000 244.9200 427.0600L244.9200 427.0600Q244.9200 428.3200 244.0800 429.1600Q243.2400 430 242.1200 430L242.1200 430L229.9400 430Q227.9800 430 227.0700 429.0900Q226.1600 428.1800 225.8800 427.3400L225.8800 427.3400L219.3000 410.2600L177.7200 410.2600L171.1400 427.3400Q170.8600 428.1800 169.9500 429.0900Q169.0400 430 167.0800 430L167.0800 430ZM198.4400 350.9000L182.6200 394.1600L214.4000 394.1600L198.4400 350.9000ZM283.2800 431.4000L283.2800 431.4000Q274.7400 431.4000 268.5100 427.5500Q262.2800 423.7000 258.9200 416.6300Q255.5600 409.5600 255.5600 399.9000L255.5600 399.9000L255.5600 360.5600Q255.5600 359.1600 256.5400 358.1800Q257.5200 357.2000 258.9200 357.2000L258.9200 357.2000L271.2400 357.2000Q272.7800 357.2000 273.6900 358.1800Q274.6000 359.1600 274.6000 360.5600L274.6000 360.5600L274.6000 399.0600Q274.6000 416.4200 289.8600 416.4200L289.8600 416.4200Q297.1400 416.4200 301.4100 411.8000Q305.6800 407.1800 305.6800 399.0600L305.6800 399.0600L305.6800 360.5600Q305.6800 359.1600 306.6600 358.1800Q307.6400 357.2000 309.0400 357.2000L309.0400 357.2000L321.3600 357.2000Q322.7600 357.2000 323.7400 358.1800Q324.7200 359.1600 324.7200 360.5600L324.7200 360.5600L324.7200 426.6400Q324.7200 428.0400 323.7400 429.0200Q322.7600 430 321.3600 430L321.3600 430L310.0200 430Q308.4800 430 307.5700 429.0200Q306.6600 428.0400 306.6600 426.6400L306.6600 426.6400L306.6600 420.9000Q302.8800 425.8000 297.2800 428.6000Q291.6800 431.4000 283.2800 431.4000ZM358.3200 430L346.7000 430Q345.3000 430 344.3200 429.0200Q343.3400 428.0400 343.3400 426.6400L343.3400 426.6400L343.3400 333.9600Q343.3400 332.5600 344.3200 331.5800Q345.3000 330.6000 346.7000 330.6000L346.7000 330.6000L358.3200 330.6000Q359.7200 330.6000 360.7000 331.5800Q361.6800 332.5600 361.6800 333.9600L361.6800 333.9600L361.6800 426.6400Q361.6800 428.0400 360.7000 429.0200Q359.7200 430 358.3200 430L358.3200 430ZM401.4400 431.4000L401.4400 431.4000Q394.1600 431.4000 388.2800 428.5300Q382.4000 425.6600 378.9700 420.8300Q375.5400 416 375.5400 409.9800L375.5400 409.9800Q375.5400 400.1800 383.5200 394.3700Q391.5000 388.5600 404.3800 386.6000L404.3800 386.6000L423.5600 383.8000L423.5600 380.8600Q423.5600 374.9800 420.6200 371.7600Q417.6800 368.5400 410.5400 368.5400L410.5400 368.5400Q405.5000 368.5400 402.3500 370.5700Q399.2000 372.6000 397.6600 375.9600L397.6600 375.9600Q396.5400 377.7800 394.4400 377.7800L394.4400 377.7800L383.3800 377.7800Q381.8400 377.7800 381.0700 376.9400Q380.3000 376.1000 380.3000 374.7000L380.3000 374.7000Q380.4400 372.4600 382.1900 369.2400Q383.9400 366.0200 387.5100 363.0100Q391.0800 360 396.8200 357.9000Q402.5600 355.8000 410.6800 355.8000L410.6800 355.8000Q419.5000 355.8000 425.5900 357.9700Q431.6800 360.1400 435.3200 363.7800Q438.9600 367.4200 440.6400 372.3200Q442.3200 377.2200 442.3200 382.6800L442.3200 382.6800L442.3200 426.6400Q442.3200 428.0400 441.3400 429.0200Q440.3600 430 438.9600 430L438.9600 430L427.6200 430Q426.0800 430 425.1700 429.0200Q424.2600 428.0400 424.2600 426.6400L424.2600 426.6400L424.2600 421.1800Q422.4400 423.7000 419.3600 426.0800Q416.2800 428.4600 411.8700 429.9300Q407.4600 431.4000 401.4400 431.4000ZM406.2000 418.1000L406.2000 418.1000Q411.1000 418.1000 415.0900 416Q419.0800 413.9000 421.3900 409.4900Q423.7000 405.0800 423.7000 398.3600L423.7000 398.3600L423.7000 395.4200L409.7000 397.6600Q401.4400 398.9200 397.3800 401.7200Q393.3200 404.5200 393.3200 408.5800L393.3200 408.5800Q393.3200 411.6600 395.2100 413.8300Q397.1000 416 400.0400 417.0500Q402.9800 418.1000 406.2000 418.1000ZM526.6000 431.4000L526.6000 431.4000Q516.8000 431.4000 509.6600 429.0200Q502.5200 426.6400 497.8300 422.7900Q493.1400 418.9400 490.7600 414.3900Q488.3800 409.8400 488.2400 405.3600L488.2400 405.3600Q488.2400 404.1000 489.1500 403.3300Q490.0600 402.5600 491.3200 402.5600L491.3200 402.5600L503.9200 402.5600Q505.3200 402.5600 506.3000 403.1200Q507.2800 403.6800 507.9800 405.3600L507.9800 405.3600Q509.2400 409.1400 512.1100 411.3800Q514.9800 413.6200 518.7600 414.5300Q522.5400 415.4400 526.7400 415.4400L526.7400 415.4400Q535.1400 415.4400 540.1100 411.4500Q545.0800 407.4600 545.0800 400.0400L545.0800 400.0400Q545.0800 392.6200 540.4600 389.3300Q535.8400 386.0400 527.5800 386.0400L527.5800 386.0400L513.1600 386.0400Q511.6200 386.0400 510.6400 385.1300Q509.6600 384.2200 509.6600 382.6800L509.6600 382.6800L509.6600 376.8000Q509.6600 375.4000 510.2900 374.3500Q510.9200 373.3000 511.6200 372.6000L511.6200 372.6000L536.6800 348.1000L496.6400 348.1000Q495.1000 348.1000 494.1900 347.1200Q493.2800 346.1400 493.2800 344.7400L493.2800 344.7400L493.2800 335.5000Q493.2800 333.9600 494.1900 332.9800Q495.1000 332 496.6400 332L496.6400 332L556.7000 332Q558.2400 332 559.2200 332.9800Q560.2000 333.9600 560.2000 335.5000L560.2000 335.5000L560.2000 343.9000Q560.2000 345.1600 559.6400 346.1400Q559.0800 347.1200 558.3800 347.8200L558.3800 347.8200L534.1600 372.7400L535.8400 372.8800Q544.3800 373.5800 551.0300 376.7300Q557.6800 379.8800 561.3900 385.9000Q565.1000 391.9200 565.1000 401.0200L565.1000 401.0200Q565.1000 410.5400 560.1300 417.3300Q555.1600 424.1200 546.4800 427.7600Q537.8000 431.4000 526.6000 431.4000ZM597.3000 381L583.4400 381Q582.0400 381 581.0600 380.0200Q580.0800 379.0400 580.0800 377.6400L580.0800 377.6400L580.0800 364.3400Q580.0800 362.8000 581.0600 361.8200Q582.0400 360.8400 583.4400 360.8400L583.4400 360.8400L597.3000 360.8400Q598.8400 360.8400 599.8200 361.8200Q600.8000 362.8000 600.8000 364.3400L600.8000 364.3400L600.8000 377.6400Q600.8000 379.0400 599.8200 380.0200Q598.8400 381 597.3000 381L597.3000 381ZM597.3000 430L583.4400 430Q582.0400 430 581.0600 429.0200Q580.0800 428.0400 580.0800 426.6400L580.0800 426.6400L580.0800 413.3400Q580.0800 411.8000 581.0600 410.8200Q582.0400 409.8400 583.4400 409.8400L583.4400 409.8400L597.3000 409.8400Q598.8400 409.8400 599.8200 410.8200Q600.8000 411.8000 600.8000 413.3400L600.8000 413.3400L600.8000 426.6400Q600.8000 428.0400 599.8200 429.0200Q598.8400 430 597.3000 430L597.3000 430ZM728.4800 439.1000L715.4600 439.1000Q713.5000 439.1000 712.3100 437.9100Q711.1200 436.7200 710.4200 435.8800L710.4200 435.8800L705.2400 428.8800Q698.6600 431.4000 690.2600 431.4000L690.2600 431.4000Q677.8000 431.4000 668.7700 427.2700Q659.7400 423.1400 654.7700 414.5300Q649.8000 405.9200 649.2400 393.0400L649.2400 393.0400Q649.1000 387.0200 649.1000 381.1400Q649.1000 375.2600 649.2400 369.1000L649.2400 369.1000Q649.8000 356.3600 654.9100 347.8200Q660.0200 339.2800 669.1200 334.9400Q678.2200 330.6000 690.2600 330.6000L690.2600 330.6000Q702.3000 330.6000 711.4000 334.9400Q720.5000 339.2800 725.6800 347.8200Q730.8600 356.3600 731.1400 369.1000L731.1400 369.1000Q731.4200 375.2600 731.4200 381.1400Q731.4200 387.0200 731.1400 393.0400L731.1400 393.0400Q730.4400 411.3800 721.0600 420.9000L721.0600 420.9000L730.8600 434.7600Q731.0000 434.9000 731.1400 435.2500Q731.2800 435.6000 731.2800 436.1600L731.2800 436.1600Q731.4200 437.4200 730.5100 438.2600Q729.6000 439.1000 728.4800 439.1000L728.4800 439.1000ZM690.2600 415.3000L690.2600 415.3000Q699.2200 415.3000 704.9600 409.9100Q710.7000 404.5200 711.1200 392.3400L711.1200 392.3400Q711.4000 386.1800 711.4000 380.9300Q711.4000 375.6800 711.1200 369.6600L711.1200 369.6600Q710.9800 361.5400 708.1800 356.4300Q705.3800 351.3200 700.8300 349.0100Q696.2800 346.7000 690.2600 346.7000L690.2600 346.7000Q684.3800 346.7000 679.7600 349.0100Q675.1400 351.3200 672.4100 356.4300Q669.6800 361.5400 669.2600 369.6600L669.2600 369.6600Q669.1200 375.6800 669.1200 380.9300Q669.1200 386.1800 669.2600 392.3400L669.2600 392.3400Q669.8200 404.5200 675.5600 409.9100Q681.3000 415.3000 690.2600 415.3000ZM775.2400 431.4000L775.2400 431.4000Q766.7000 431.4000 760.4700 427.5500Q754.2400 423.7000 750.8800 416.6300Q747.5200 409.5600 747.5200 399.9000L747.5200 399.9000L747.5200 360.5600Q747.5200 359.1600 748.5000 358.1800Q749.4800 357.2000 750.8800 357.2000L750.8800 357.2000L763.2000 357.2000Q764.7400 357.2000 765.6500 358.1800Q766.5600 359.1600 766.5600 360.5600L766.5600 360.5600L766.5600 399.0600Q766.5600 416.4200 781.8200 416.4200L781.8200 416.4200Q789.1000 416.4200 793.3700 411.8000Q797.6400 407.1800 797.6400 399.0600L797.6400 399.0600L797.6400 360.5600Q797.6400 359.1600 798.6200 358.1800Q799.6000 357.2000 801 357.2000L801 357.2000L813.3200 357.2000Q814.7200 357.2000 815.7000 358.1800Q816.6800 359.1600 816.6800 360.5600L816.6800 360.5600L816.6800 426.6400Q816.6800 428.0400 815.7000 429.0200Q814.7200 430 813.3200 430L813.3200 430L801.9800 430Q800.4400 430 799.5300 429.0200Q798.6200 428.0400 798.6200 426.6400L798.6200 426.6400L798.6200 420.9000Q794.8400 425.8000 789.2400 428.6000Q783.6400 431.4000 775.2400 431.4000ZM856.3000 431.4000L856.3000 431.4000Q849.0200 431.4000 843.1400 428.5300Q837.2600 425.6600 833.8300 420.8300Q830.4000 416 830.4000 409.9800L830.4000 409.9800Q830.4000 400.1800 838.3800 394.3700Q846.3600 388.5600 859.2400 386.6000L859.2400 386.6000L878.4200 383.8000L878.4200 380.8600Q878.4200 374.9800 875.4800 371.7600Q872.5400 368.5400 865.4000 368.5400L865.4000 368.5400Q860.3600 368.5400 857.2100 370.5700Q854.0600 372.6000 852.5200 375.9600L852.5200 375.9600Q851.4000 377.7800 849.3000 377.7800L849.3000 377.7800L838.2400 377.7800Q836.7000 377.7800 835.9300 376.9400Q835.1600 376.1000 835.1600 374.7000L835.1600 374.7000Q835.3000 372.4600 837.0500 369.2400Q838.8000 366.0200 842.3700 363.0100Q845.9400 360 851.6800 357.9000Q857.4200 355.8000 865.5400 355.8000L865.5400 355.8000Q874.3600 355.8000 880.4500 357.9700Q886.5400 360.1400 890.1800 363.7800Q893.8200 367.4200 895.5000 372.3200Q897.1800 377.2200 897.1800 382.6800L897.1800 382.6800L897.1800 426.6400Q897.1800 428.0400 896.2000 429.0200Q895.2200 430 893.8200 430L893.8200 430L882.4800 430Q880.9400 430 880.0300 429.0200Q879.1200 428.0400 879.1200 426.6400L879.1200 426.6400L879.1200 421.1800Q877.3000 423.7000 874.2200 426.0800Q871.1400 428.4600 866.7300 429.9300Q862.3200 431.4000 856.3000 431.4000ZM861.0600 418.1000L861.0600 418.1000Q865.9600 418.1000 869.9500 416Q873.9400 413.9000 876.2500 409.4900Q878.5600 405.0800 878.5600 398.3600L878.5600 398.3600L878.5600 395.4200L864.5600 397.6600Q856.3000 398.9200 852.2400 401.7200Q848.1800 404.5200 848.1800 408.5800L848.1800 408.5800Q848.1800 411.6600 850.0700 413.8300Q851.9600 416 854.9000 417.0500Q857.8400 418.1000 861.0600 418.1000ZM930.0800 430L918.4600 430Q917.0600 430 916.0800 429.0200Q915.1000 428.0400 915.1000 426.6400L915.1000 426.6400L915.1000 360.5600Q915.1000 359.1600 916.0800 358.1800Q917.0600 357.2000 918.4600 357.2000L918.4600 357.2000L930.0800 357.2000Q931.6200 357.2000 932.5300 358.1800Q933.4400 359.1600 933.4400 360.5600L933.4400 360.5600L933.4400 426.6400Q933.4400 428.0400 932.5300 429.0200Q931.6200 430 930.0800 430L930.0800 430ZM930.6400 345.1600L917.9000 345.1600Q916.5000 345.1600 915.5200 344.1800Q914.5400 343.2000 914.5400 341.8000L914.5400 341.8000L914.5400 331.7200Q914.5400 330.3200 915.5200 329.3400Q916.5000 328.3600 917.9000 328.3600L917.9000 328.3600L930.6400 328.3600Q932.1800 328.3600 933.1600 329.3400Q934.1400 330.3200 934.1400 331.7200L934.1400 331.7200L934.1400 341.8000Q934.1400 343.2000 933.1600 344.1800Q932.1800 345.1600 930.6400 345.1600L930.6400 345.1600ZM979.6400 431.4000L979.6400 431.4000Q971.2400 431.4000 965.2900 429.4400Q959.3400 427.4800 955.5600 424.5400Q951.7800 421.6000 949.9600 418.6600Q948.1400 415.7200 948.0000 413.7600L948.0000 413.7600Q947.8600 412.2200 948.9100 411.3100Q949.9600 410.4000 951.2200 410.4000L951.2200 410.4000L962.2800 410.4000Q962.8400 410.4000 963.2600 410.5400Q963.6800 410.6800 964.3800 411.3800L964.3800 411.3800Q966.2000 412.9200 968.2300 414.6000Q970.2600 416.2800 973.0600 417.4700Q975.8600 418.6600 980.0600 418.6600L980.0600 418.6600Q985.5200 418.6600 989.2300 416.4900Q992.9400 414.3200 992.9400 410.2600L992.9400 410.2600Q992.9400 407.3200 991.3300 405.5000Q989.7200 403.6800 985.3800 402.2100Q981.0400 400.7400 973.0600 399.0600L973.0600 399.0600Q965.2200 397.2400 960.0400 394.4400Q954.8600 391.6400 952.3400 387.4400Q949.8200 383.2400 949.8200 377.6400L949.8200 377.6400Q949.8200 372.1800 953.1100 367.2100Q956.4000 362.2400 962.9100 359.0200Q969.4200 355.8000 979.0800 355.8000L979.0800 355.8000Q986.6400 355.8000 992.2400 357.6900Q997.8400 359.5800 1001.5500 362.3800Q1005.2600 365.1800 1007.2200 368.0500Q1009.1800 370.9200 1009.3200 373.0200L1009.3200 373.0200Q1009.4600 374.5600 1008.4800 375.4700Q1007.5000 376.3800 1006.2400 376.3800L1006.2400 376.3800L995.8800 376.3800Q995.1800 376.3800 994.6200 376.1000Q994.0600 375.8200 993.5000 375.4000L993.5000 375.4000Q991.9600 374 990.1400 372.3900Q988.3200 370.7800 985.7300 369.6600Q983.1400 368.5400 978.9400 368.5400L978.9400 368.5400Q973.6200 368.5400 970.8200 370.8500Q968.0200 373.1600 968.0200 376.6600L968.0200 376.6600Q968.0200 379.0400 969.3500 380.7900Q970.6800 382.5400 974.7400 384.0800Q978.8000 385.6200 987.0600 387.3000L987.0600 387.3000Q996.4400 388.9800 1001.9700 392.2700Q1007.5000 395.5600 1009.8100 399.8300Q1012.1200 404.1000 1012.1200 409.2800L1012.1200 409.2800Q1012.1200 415.5800 1008.4100 420.6200Q1004.7000 425.6600 997.4900 428.5300Q990.2800 431.4000 979.6400 431.4000ZM1086.1800 431.4000L1086.1800 431.4000Q1077.7800 431.4000 1071.8300 429.4400Q1065.8800 427.4800 1062.1000 424.5400Q1058.3200 421.6000 1056.5000 418.6600Q1054.6800 415.7200 1054.5400 413.7600L1054.5400 413.7600Q1054.4000 412.2200 1055.4500 411.3100Q1056.5000 410.4000 1057.7600 410.4000L1057.7600 410.4000L1068.8200 410.4000Q1069.3800 410.4000 1069.8000 410.5400Q1070.2200 410.6800 1070.9200 411.3800L1070.9200 411.3800Q1072.7400 412.9200 1074.7700 414.6000Q1076.8000 416.2800 1079.6000 417.4700Q1082.4000 418.6600 1086.6000 418.6600L1086.6000 418.6600Q1092.0600 418.6600 1095.7700 416.4900Q1099.4800 414.3200 1099.4800 410.2600L1099.4800 410.2600Q1099.4800 407.3200 1097.8700 405.5000Q1096.2600 403.6800 1091.9200 402.2100Q1087.5800 400.7400 1079.6000 399.0600L1079.6000 399.0600Q1071.7600 397.2400 1066.5800 394.4400Q1061.4000 391.6400 1058.8800 387.4400Q1056.3600 383.2400 1056.3600 377.6400L1056.3600 377.6400Q1056.3600 372.1800 1059.6500 367.2100Q1062.9400 362.2400 1069.4500 359.0200Q1075.9600 355.8000 1085.6200 355.8000L1085.6200 355.8000Q1093.1800 355.8000 1098.7800 357.6900Q1104.3800 359.5800 1108.0900 362.3800Q1111.8000 365.1800 1113.7600 368.0500Q1115.7200 370.9200 1115.8600 373.0200L1115.8600 373.0200Q1116.0000 374.5600 1115.0200 375.4700Q1114.0400 376.3800 1112.7800 376.3800L1112.7800 376.3800L1102.4200 376.3800Q1101.7200 376.3800 1101.1600 376.1000Q1100.6000 375.8200 1100.0400 375.4000L1100.0400 375.4000Q1098.5000 374 1096.6800 372.3900Q1094.8600 370.7800 1092.2700 369.6600Q1089.6800 368.5400 1085.4800 368.5400L1085.4800 368.5400Q1080.1600 368.5400 1077.3600 370.8500Q1074.5600 373.1600 1074.5600 376.6600L1074.5600 376.6600Q1074.5600 379.0400 1075.8900 380.7900Q1077.2200 382.5400 1081.2800 384.0800Q1085.3400 385.6200 1093.6000 387.3000L1093.6000 387.3000Q1102.9800 388.9800 1108.5100 392.2700Q1114.0400 395.5600 1116.3500 399.8300Q1118.6600 404.1000 1118.6600 409.2800L1118.6600 409.2800Q1118.6600 415.5800 1114.9500 420.6200Q1111.2400 425.6600 1104.0300 428.5300Q1096.8200 431.4000 1086.1800 431.4000ZM1154.2200 431.4000L1154.2200 431.4000Q1146.9400 431.4000 1141.0600 428.5300Q1135.1800 425.6600 1131.7500 420.8300Q1128.3200 416 1128.3200 409.9800L1128.3200 409.9800Q1128.3200 400.1800 1136.3000 394.3700Q1144.2800 388.5600 1157.1600 386.6000L1157.1600 386.6000L1176.3400 383.8000L1176.3400 380.8600Q1176.3400 374.9800 1173.4000 371.7600Q1170.4600 368.5400 1163.3200 368.5400L1163.3200 368.5400Q1158.2800 368.5400 1155.1300 370.5700Q1151.9800 372.6000 1150.4400 375.9600L1150.4400 375.9600Q1149.3200 377.7800 1147.2200 377.7800L1147.2200 377.7800L1136.1600 377.7800Q1134.6200 377.7800 1133.8500 376.9400Q1133.0800 376.1000 1133.0800 374.7000L1133.0800 374.7000Q1133.2200 372.4600 1134.9700 369.2400Q1136.7200 366.0200 1140.2900 363.0100Q1143.8600 360 1149.6000 357.9000Q1155.3400 355.8000 1163.4600 355.8000L1163.4600 355.8000Q1172.2800 355.8000 1178.3700 357.9700Q1184.4600 360.1400 1188.1000 363.7800Q1191.7400 367.4200 1193.4200 372.3200Q1195.1000 377.2200 1195.1000 382.6800L1195.1000 382.6800L1195.1000 426.6400Q1195.1000 428.0400 1194.1200 429.0200Q1193.1400 430 1191.7400 430L1191.7400 430L1180.4000 430Q1178.8600 430 1177.9500 429.0200Q1177.0400 428.0400 1177.0400 426.6400L1177.0400 426.6400L1177.0400 421.1800Q1175.2200 423.7000 1172.1400 426.0800Q1169.0600 428.4600 1164.6500 429.9300Q1160.2400 431.4000 1154.2200 431.4000ZM1158.9800 418.1000L1158.9800 418.1000Q1163.8800 418.1000 1167.8700 416Q1171.8600 413.9000 1174.1700 409.4900Q1176.4800 405.0800 1176.4800 398.3600L1176.4800 398.3600L1176.4800 395.4200L1162.4800 397.6600Q1154.2200 398.9200 1150.1600 401.7200Q1146.1000 404.5200 1146.1000 408.5800L1146.1000 408.5800Q1146.1000 411.6600 1147.9900 413.8300Q1149.8800 416 1152.8200 417.0500Q1155.7600 418.1000 1158.9800 418.1000ZM1171.1600 347.4000L1171.1600 347.4000Q1167.5200 347.4000 1165.2800 346.2100Q1163.0400 345.0200 1161.1500 343.7600Q1159.2600 342.5000 1157.0200 342.5000L1157.0200 342.5000Q1155.2000 342.5000 1154.4300 343.5500Q1153.6600 344.6000 1152.9600 345.6500Q1152.2600 346.7000 1150.7200 346.7000L1150.7200 346.7000L1144.2800 346.7000Q1143.3000 346.7000 1142.6000 346Q1141.9000 345.3000 1141.9000 344.3200L1141.9000 344.3200Q1141.9000 342.2200 1142.6700 339.6300Q1143.4400 337.0400 1145.1200 334.6600Q1146.8000 332.2800 1149.3900 330.8100Q1151.9800 329.3400 1155.4800 329.3400L1155.4800 329.3400Q1159.2600 329.3400 1161.5000 330.5300Q1163.7400 331.7200 1165.6300 332.9800Q1167.5200 334.2400 1169.7600 334.2400L1169.7600 334.2400Q1171.5800 334.2400 1172.3500 333.1200Q1173.1200 332 1173.8200 330.9500Q1174.5200 329.9000 1176.0600 329.9000L1176.0600 329.9000L1182.5000 329.9000Q1183.6200 329.9000 1184.2500 330.6700Q1184.8800 331.4400 1184.8800 332.4200L1184.8800 332.4200Q1184.8800 334.5200 1184.1100 337.1100Q1183.3400 339.7000 1181.6600 342.0800Q1179.9800 344.4600 1177.3900 345.9300Q1174.8000 347.4000 1171.1600 347.4000ZM1245.2200 431.4000L1245.2200 431.4000Q1234.0200 431.4000 1226.3900 427.4800Q1218.7600 423.5600 1214.7700 416.4200Q1210.7800 409.2800 1210.2200 399.7600L1210.2200 399.7600Q1210.0800 397.2400 1210.0800 393.6000Q1210.0800 389.9600 1210.2200 387.4400L1210.2200 387.4400Q1210.7800 377.7800 1214.9100 370.7100Q1219.0400 363.6400 1226.6700 359.7200Q1234.3000 355.8000 1245.2200 355.8000L1245.2200 355.8000Q1256.1400 355.8000 1263.7700 359.7200Q1271.4000 363.6400 1275.5300 370.7100Q1279.6600 377.7800 1280.2200 387.4400L1280.2200 387.4400Q1280.3600 389.9600 1280.3600 393.6000Q1280.3600 397.2400 1280.2200 399.7600L1280.2200 399.7600Q1279.6600 409.2800 1275.6700 416.4200Q1271.6800 423.5600 1264.0500 427.4800Q1256.4200 431.4000 1245.2200 431.4000ZM1245.2200 417.5400L1245.2200 417.5400Q1252.6400 417.5400 1256.7000 412.8500Q1260.7600 408.1600 1261.1800 399.0600L1261.1800 399.0600Q1261.3200 396.9600 1261.3200 393.6000Q1261.3200 390.2400 1261.1800 388.1400L1261.1800 388.1400Q1260.7600 379.0400 1256.7000 374.3500Q1252.6400 369.6600 1245.2200 369.6600L1245.2200 369.6600Q1237.8000 369.6600 1233.7400 374.3500Q1229.6800 379.0400 1229.2600 388.1400L1229.2600 388.1400Q1229.1200 390.2400 1229.1200 393.6000Q1229.1200 396.9600 1229.2600 399.0600L1229.2600 399.0600Q1229.6800 408.1600 1233.7400 412.8500Q1237.8000 417.5400 1245.2200 417.5400ZM1349.1000 431.4000L1349.1000 431.4000Q1341.8200 431.4000 1335.9400 428.5300Q1330.0600 425.6600 1326.6300 420.8300Q1323.2000 416 1323.2000 409.9800L1323.2000 409.9800Q1323.2000 400.1800 1331.1800 394.3700Q1339.1600 388.5600 1352.0400 386.6000L1352.0400 386.6000L1371.2200 383.8000L1371.2200 380.8600Q1371.2200 374.9800 1368.2800 371.7600Q1365.3400 368.5400 1358.2000 368.5400L1358.2000 368.5400Q1353.1600 368.5400 1350.0100 370.5700Q1346.8600 372.6000 1345.3200 375.9600L1345.3200 375.9600Q1344.2000 377.7800 1342.1000 377.7800L1342.1000 377.7800L1331.0400 377.7800Q1329.5000 377.7800 1328.7300 376.9400Q1327.9600 376.1000 1327.9600 374.7000L1327.9600 374.7000Q1328.1000 372.4600 1329.8500 369.2400Q1331.6000 366.0200 1335.1700 363.0100Q1338.7400 360 1344.4800 357.9000Q1350.2200 355.8000 1358.3400 355.8000L1358.3400 355.8000Q1367.1600 355.8000 1373.2500 357.9700Q1379.3400 360.1400 1382.9800 363.7800Q1386.6200 367.4200 1388.3000 372.3200Q1389.9800 377.2200 1389.9800 382.6800L1389.9800 382.6800L1389.9800 426.6400Q1389.9800 428.0400 1389.0000 429.0200Q1388.0200 430 1386.6200 430L1386.6200 430L1375.2800 430Q1373.7400 430 1372.8300 429.0200Q1371.9200 428.0400 1371.9200 426.6400L1371.9200 426.6400L1371.9200 421.1800Q1370.1000 423.7000 1367.0200 426.0800Q1363.9400 428.4600 1359.5300 429.9300Q1355.1200 431.4000 1349.1000 431.4000ZM1353.8600 418.1000L1353.8600 418.1000Q1358.7600 418.1000 1362.7500 416Q1366.7400 413.9000 1369.0500 409.4900Q1371.3600 405.0800 1371.3600 398.3600L1371.3600 398.3600L1371.3600 395.4200L1357.3600 397.6600Q1349.1000 398.9200 1345.0400 401.7200Q1340.9800 404.5200 1340.9800 408.5800L1340.9800 408.5800Q1340.9800 411.6600 1342.8700 413.8300Q1344.7600 416 1347.7000 417.0500Q1350.6400 418.1000 1353.8600 418.1000ZM1435.4800 431.4000L1435.4800 431.4000Q1427.0800 431.4000 1421.1300 429.4400Q1415.1800 427.4800 1411.4000 424.5400Q1407.6200 421.6000 1405.8000 418.6600Q1403.9800 415.7200 1403.8400 413.7600L1403.8400 413.7600Q1403.7000 412.2200 1404.7500 411.3100Q1405.8000 410.4000 1407.0600 410.4000L1407.0600 410.4000L1418.1200 410.4000Q1418.6800 410.4000 1419.1000 410.5400Q1419.5200 410.6800 1420.2200 411.3800L1420.2200 411.3800Q1422.0400 412.9200 1424.0700 414.6000Q1426.1000 416.2800 1428.9000 417.4700Q1431.7000 418.6600 1435.9000 418.6600L1435.9000 418.6600Q1441.3600 418.6600 1445.0700 416.4900Q1448.7800 414.3200 1448.7800 410.2600L1448.7800 410.2600Q1448.7800 407.3200 1447.1700 405.5000Q1445.5600 403.6800 1441.2200 402.2100Q1436.8800 400.7400 1428.9000 399.0600L1428.9000 399.0600Q1421.0600 397.2400 1415.8800 394.4400Q1410.7000 391.6400 1408.1800 387.4400Q1405.6600 383.2400 1405.6600 377.6400L1405.6600 377.6400Q1405.6600 372.1800 1408.9500 367.2100Q1412.2400 362.2400 1418.7500 359.0200Q1425.2600 355.8000 1434.9200 355.8000L1434.9200 355.8000Q1442.4800 355.8000 1448.0800 357.6900Q1453.6800 359.5800 1457.3900 362.3800Q1461.1000 365.1800 1463.0600 368.0500Q1465.0200 370.9200 1465.1600 373.0200L1465.1600 373.0200Q1465.3000 374.5600 1464.3200 375.4700Q1463.3400 376.3800 1462.0800 376.3800L1462.0800 376.3800L1451.7200 376.3800Q1451.0200 376.3800 1450.4600 376.1000Q1449.9000 375.8200 1449.3400 375.4000L1449.3400 375.4000Q1447.8000 374 1445.9800 372.3900Q1444.1600 370.7800 1441.5700 369.6600Q1438.9800 368.5400 1434.7800 368.5400L1434.7800 368.5400Q1429.4600 368.5400 1426.6600 370.8500Q1423.8600 373.1600 1423.8600 376.6600L1423.8600 376.6600Q1423.8600 379.0400 1425.1900 380.7900Q1426.5200 382.5400 1430.5800 384.0800Q1434.6400 385.6200 1442.9000 387.3000L1442.9000 387.3000Q1452.2800 388.9800 1457.8100 392.2700Q1463.3400 395.5600 1465.6500 399.8300Q1467.9600 404.1000 1467.9600 409.2800L1467.9600 409.2800Q1467.9600 415.5800 1464.2500 420.6200Q1460.5400 425.6600 1453.3300 428.5300Q1446.1200 431.4000 1435.4800 431.4000ZM186.2600 571.4000L186.2600 571.4000Q178.9800 571.4000 173.4500 568.9500Q167.9200 566.5000 164.2800 562.0200Q160.6400 557.5400 158.6800 551.4500Q156.7200 545.3600 156.4400 538.0800L156.4400 538.0800Q156.3000 535.5600 156.3000 533.5300Q156.3000 531.5000 156.4400 528.9800L156.4400 528.9800Q156.7200 521.9800 158.6100 515.9600Q160.5000 509.9400 164.2100 505.3900Q167.9200 500.8400 173.4500 498.3200Q178.9800 495.8000 186.2600 495.8000L186.2600 495.8000Q193.8200 495.8000 199.0700 498.3900Q204.3200 500.9800 207.8200 505.0400L207.8200 505.0400L207.8200 473.9600Q207.8200 472.5600 208.7300 471.5800Q209.6400 470.6000 211.1800 470.6000L211.1800 470.6000L223.0800 470.6000Q224.4800 470.6000 225.4600 471.5800Q226.4400 472.5600 226.4400 473.9600L226.4400 473.9600L226.4400 566.6400Q226.4400 568.0400 225.4600 569.0200Q224.4800 570 223.0800 570L223.0800 570L212.0200 570Q210.4800 570 209.5700 569.0200Q208.6600 568.0400 208.6600 566.6400L208.6600 566.6400L208.6600 561.4600Q205.1600 565.8000 199.7700 568.6000Q194.3800 571.4000 186.2600 571.4000ZM191.4400 556.4200L191.4400 556.4200Q197.3200 556.4200 200.8200 553.7600Q204.3200 551.1000 206 546.9700Q207.6800 542.8400 207.8200 538.5000L207.8200 538.5000Q207.9600 535.9800 207.9600 533.1100Q207.9600 530.2400 207.8200 527.7200L207.8200 527.7200Q207.6800 523.5200 205.8600 519.6700Q204.0400 515.8200 200.5400 513.3000Q197.0400 510.7800 191.4400 510.7800L191.4400 510.7800Q185.5600 510.7800 182.1300 513.3700Q178.7000 515.9600 177.1600 520.1600Q175.6200 524.3600 175.3400 529.4000L175.3400 529.4000Q175.2000 533.6000 175.3400 537.8000L175.3400 537.8000Q175.6200 542.8400 177.1600 547.0400Q178.7000 551.2400 182.1300 553.8300Q185.5600 556.4200 191.4400 556.4200ZM260.0400 570L248.4200 570Q247.0200 570 246.0400 569.0200Q245.0600 568.0400 245.0600 566.6400L245.0600 566.6400L245.0600 500.5600Q245.0600 499.1600 246.0400 498.1800Q247.0200 497.2000 248.4200 497.2000L248.4200 497.2000L260.0400 497.2000Q261.5800 497.2000 262.4900 498.1800Q263.4000 499.1600 263.4000 500.5600L263.4000 500.5600L263.4000 566.6400Q263.4000 568.0400 262.4900 569.0200Q261.5800 570 260.0400 570L260.0400 570ZM260.6000 485.1600L247.8600 485.1600Q246.4600 485.1600 245.4800 484.1800Q244.5000 483.2000 244.5000 481.8000L244.5000 481.8000L244.5000 471.7200Q244.5000 470.3200 245.4800 469.3400Q246.4600 468.3600 247.8600 468.3600L247.8600 468.3600L260.6000 468.3600Q262.1400 468.3600 263.1200 469.3400Q264.1000 470.3200 264.1000 471.7200L264.1000 471.7200L264.1000 481.8000Q264.1000 483.2000 263.1200 484.1800Q262.1400 485.1600 260.6000 485.1600L260.6000 485.1600ZM304.7000 570L293.2200 570Q291.8200 570 290.8400 569.0200Q289.8600 568.0400 289.8600 566.6400L289.8600 566.6400L289.8600 512.0400L278.5200 512.0400Q277.1200 512.0400 276.1400 511.0600Q275.1600 510.0800 275.1600 508.5400L275.1600 508.5400L275.1600 500.5600Q275.1600 499.1600 276.1400 498.1800Q277.1200 497.2000 278.5200 497.2000L278.5200 497.2000L289.8600 497.2000L289.8600 491.4600Q289.8600 483.0600 292.9400 477.5300Q296.0200 472 302.0400 469.2000Q308.0600 466.4000 317.3000 466.4000L317.3000 466.4000L326.8200 466.4000Q328.3600 466.4000 329.2700 467.3800Q330.1800 468.3600 330.1800 469.7600L330.1800 469.7600L330.1800 477.7400Q330.1800 479.2800 329.2700 480.2600Q328.3600 481.2400 326.8200 481.2400L326.8200 481.2400L317.8600 481.2400Q312.2600 481.2400 310.1600 484.0400Q308.0600 486.8400 308.0600 492.1600L308.0600 492.1600L308.0600 497.2000L325.4200 497.2000Q326.9600 497.2000 327.8700 498.1800Q328.7800 499.1600 328.7800 500.5600L328.7800 500.5600L328.7800 508.5400Q328.7800 510.0800 327.8700 511.0600Q326.9600 512.0400 325.4200 512.0400L325.4200 512.0400L308.0600 512.0400L308.0600 566.6400Q308.0600 568.0400 307.0800 569.0200Q306.1000 570 304.7000 570L304.7000 570ZM371.3400 571.4000L371.3400 571.4000Q355.8000 571.4000 346.7000 562.4400Q337.6000 553.4800 336.9000 536.9600L336.9000 536.9600Q336.7600 535.5600 336.7600 533.3900Q336.7600 531.2200 336.9000 529.9600L336.9000 529.9600Q337.4600 519.3200 341.7300 511.6900Q346 504.0600 353.5600 499.9300Q361.1200 495.8000 371.3400 495.8000L371.3400 495.8000Q382.6800 495.8000 390.3800 500.4900Q398.0800 505.1800 402 513.5100Q405.9200 521.8400 405.9200 532.7600L405.9200 532.7600L405.9200 535.7000Q405.9200 537.1000 404.9400 538.0800Q403.9600 539.0600 402.4200 539.0600L402.4200 539.0600L355.9400 539.0600Q355.9400 539.0600 355.9400 539.4800Q355.9400 539.9000 355.9400 540.1800L355.9400 540.1800Q356.0800 545.0800 357.8300 549.2100Q359.5800 553.3400 363.0100 555.8600Q366.4400 558.3800 371.2000 558.3800L371.2000 558.3800Q375.1200 558.3800 377.7800 557.1900Q380.4400 556 382.1200 554.4600Q383.8000 552.9200 384.5000 551.9400L384.5000 551.9400Q385.7600 550.2600 386.5300 549.9100Q387.3000 549.5600 388.8400 549.5600L388.8400 549.5600L400.8800 549.5600Q402.2800 549.5600 403.1900 550.4000Q404.1000 551.2400 403.9600 552.5000L403.9600 552.5000Q403.8200 554.7400 401.6500 557.9600Q399.4800 561.1800 395.4200 564.2600Q391.3600 567.3400 385.2700 569.3700Q379.1800 571.4000 371.3400 571.4000ZM355.9400 526.8800L355.9400 527.3000L386.8800 527.3000L386.8800 526.8800Q386.8800 521.4200 385.0600 517.2900Q383.2400 513.1600 379.7400 510.8500Q376.2400 508.5400 371.3400 508.5400L371.3400 508.5400Q366.4400 508.5400 362.9400 510.8500Q359.4400 513.1600 357.6900 517.2900Q355.9400 521.4200 355.9400 526.8800L355.9400 526.8800ZM436.3000 570L424.1200 570Q422.7200 570 421.7400 569.0200Q420.7600 568.0400 420.7600 566.6400L420.7600 566.6400L420.7600 500.7000Q420.7600 499.1600 421.7400 498.1800Q422.7200 497.2000 424.1200 497.2000L424.1200 497.2000L435.4600 497.2000Q436.8600 497.2000 437.9100 498.1800Q438.9600 499.1600 438.9600 500.7000L438.9600 500.7000L438.9600 506.4400Q442.1800 501.9600 447.2900 499.5800Q452.4000 497.2000 459.1200 497.2000L459.1200 497.2000L464.8600 497.2000Q466.4000 497.2000 467.3100 498.1800Q468.2200 499.1600 468.2200 500.5600L468.2200 500.5600L468.2200 510.6400Q468.2200 512.0400 467.3100 513.0200Q466.4000 514 464.8600 514L464.8600 514L453.9400 514Q447.2200 514 443.5100 517.7100Q439.8000 521.4200 439.8000 528.1400L439.8000 528.1400L439.8000 566.6400Q439.8000 568.0400 438.8200 569.0200Q437.8400 570 436.3000 570L436.3000 570ZM510.5000 571.4000L510.5000 571.4000Q494.9600 571.4000 485.8600 562.4400Q476.7600 553.4800 476.0600 536.9600L476.0600 536.9600Q475.9200 535.5600 475.9200 533.3900Q475.9200 531.2200 476.0600 529.9600L476.0600 529.9600Q476.6200 519.3200 480.8900 511.6900Q485.1600 504.0600 492.7200 499.9300Q500.2800 495.8000 510.5000 495.8000L510.5000 495.8000Q521.8400 495.8000 529.5400 500.4900Q537.2400 505.1800 541.1600 513.5100Q545.0800 521.8400 545.0800 532.7600L545.0800 532.7600L545.0800 535.7000Q545.0800 537.1000 544.1000 538.0800Q543.1200 539.0600 541.5800 539.0600L541.5800 539.0600L495.1000 539.0600Q495.1000 539.0600 495.1000 539.4800Q495.1000 539.9000 495.1000 540.1800L495.1000 540.1800Q495.2400 545.0800 496.9900 549.2100Q498.7400 553.3400 502.1700 555.8600Q505.6000 558.3800 510.3600 558.3800L510.3600 558.3800Q514.2800 558.3800 516.9400 557.1900Q519.6000 556 521.2800 554.4600Q522.9600 552.9200 523.6600 551.9400L523.6600 551.9400Q524.9200 550.2600 525.6900 549.9100Q526.4600 549.5600 528 549.5600L528 549.5600L540.0400 549.5600Q541.4400 549.5600 542.3500 550.4000Q543.2600 551.2400 543.1200 552.5000L543.1200 552.5000Q542.9800 554.7400 540.8100 557.9600Q538.6400 561.1800 534.5800 564.2600Q530.5200 567.3400 524.4300 569.3700Q518.3400 571.4000 510.5000 571.4000ZM495.1000 526.8800L495.1000 527.3000L526.0400 527.3000L526.0400 526.8800Q526.0400 521.4200 524.2200 517.2900Q522.4000 513.1600 518.9000 510.8500Q515.4000 508.5400 510.5000 508.5400L510.5000 508.5400Q505.6000 508.5400 502.1000 510.8500Q498.6000 513.1600 496.8500 517.2900Q495.1000 521.4200 495.1000 526.8800L495.1000 526.8800ZM575.6000 570L563.2800 570Q561.8800 570 560.9000 569.0200Q559.9200 568.0400 559.9200 566.6400L559.9200 566.6400L559.9200 500.5600Q559.9200 499.1600 560.9000 498.1800Q561.8800 497.2000 563.2800 497.2000L563.2800 497.2000L574.7600 497.2000Q576.1600 497.2000 577.1400 498.1800Q578.1200 499.1600 578.1200 500.5600L578.1200 500.5600L578.1200 506.3000Q581.7600 501.8200 587.4300 498.8100Q593.1000 495.8000 601.5000 495.8000L601.5000 495.8000Q610.0400 495.8000 616.3400 499.6500Q622.6400 503.5000 626.0700 510.5000Q629.5000 517.5000 629.5000 527.3000L629.5000 527.3000L629.5000 566.6400Q629.5000 568.0400 628.5200 569.0200Q627.5400 570 626.1400 570L626.1400 570L613.8200 570Q612.4200 570 611.4400 569.0200Q610.4600 568.0400 610.4600 566.6400L610.4600 566.6400L610.4600 528.1400Q610.4600 520.0200 606.4700 515.4000Q602.4800 510.7800 594.9200 510.7800L594.9200 510.7800Q587.6400 510.7800 583.3000 515.4000Q578.9600 520.0200 578.9600 528.1400L578.9600 528.1400L578.9600 566.6400Q578.9600 568.0400 577.9800 569.0200Q577 570 575.6000 570L575.6000 570ZM678.6400 600.8000L678.6400 600.8000Q674.7200 600.6600 671.7100 599.4000Q668.7000 598.1400 667.3700 596.4600Q666.0400 594.7800 667.4400 593.6600L667.4400 593.6600L669.8200 591.5600Q671.0800 590.4400 671.9900 590.9300Q672.9000 591.4200 674.3700 592.3300Q675.8400 593.2400 678.6400 593.2400L678.6400 593.2400Q680.7400 593.2400 682.2800 591.9100Q683.8200 590.5800 683.8200 588.4800L683.8200 588.4800Q683.8200 586.5200 682.3500 585.2600Q680.8800 584 678.6400 584L678.6400 584Q676.6800 584 675.2800 584.4900Q673.8800 584.9800 672.7600 585.1900Q671.6400 585.4000 670.5200 584.2800L670.5200 584.2800L668 581.7600Q667.1600 580.7800 667.4400 579.7300Q667.7200 578.6800 668.2800 577.4200L668.2800 577.4200L671.2200 570.7000Q659.1800 568.8800 652.0400 560.6900Q644.9000 552.5000 644.4800 539.2000L644.4800 539.2000Q644.3400 537.1000 644.3400 533.6700Q644.3400 530.2400 644.4800 528L644.4800 528Q644.9000 517.7800 649.1700 510.5700Q653.4400 503.3600 661.0700 499.5800Q668.7000 495.8000 678.7800 495.8000L678.7800 495.8000Q687.7400 495.8000 694.0400 498.2500Q700.3400 500.7000 704.4000 504.5500Q708.4600 508.4000 710.4900 512.5300Q712.5200 516.6600 712.6600 520.0200L712.6600 520.0200Q712.8000 521.5600 711.7500 522.4700Q710.7000 523.3800 709.3000 523.3800L709.3000 523.3800L696.9800 523.3800Q695.5800 523.3800 694.8100 522.6800Q694.0400 521.9800 693.3400 520.5800L693.3400 520.5800Q691.2400 514.9800 687.8100 512.6700Q684.3800 510.3600 679.0600 510.3600L679.0600 510.3600Q672.0600 510.3600 667.9300 514.7700Q663.8000 519.1800 663.5200 528.7000L663.5200 528.7000Q663.2400 534.0200 663.5200 538.5000L663.5200 538.5000Q663.8000 548.1600 667.9300 552.5000Q672.0600 556.8400 679.0600 556.8400L679.0600 556.8400Q684.5200 556.8400 687.8800 554.5300Q691.2400 552.2200 693.3400 546.6200L693.3400 546.6200Q694.0400 545.2200 694.8100 544.5200Q695.5800 543.8200 696.9800 543.8200L696.9800 543.8200L709.3000 543.8200Q710.7000 543.8200 711.7500 544.7300Q712.8000 545.6400 712.6600 547.1800L712.6600 547.1800Q712.5200 550.2600 710.5600 554.3900Q708.6000 558.5200 704.6800 562.3700Q700.7600 566.2200 694.4600 568.8100Q688.1600 571.4000 679.2000 571.4000L679.2000 571.4000L676.2600 577.4200Q677.1000 577 678.5700 576.7200Q680.0400 576.4400 681.1600 576.4400L681.1600 576.4400Q686.0600 576.4400 689.0700 579.8000Q692.0800 583.1600 692.0800 588.3400L692.0800 588.3400Q692.0800 593.6600 688.5800 597.3000Q685.0800 600.9400 678.6400 600.8000ZM748.3600 571.4000L748.3600 571.4000Q741.0800 571.4000 735.2000 568.5300Q729.3200 565.6600 725.8900 560.8300Q722.4600 556 722.4600 549.9800L722.4600 549.9800Q722.4600 540.1800 730.4400 534.3700Q738.4200 528.5600 751.3000 526.6000L751.3000 526.6000L770.4800 523.8000L770.4800 520.8600Q770.4800 514.9800 767.5400 511.7600Q764.6000 508.5400 757.4600 508.5400L757.4600 508.5400Q752.4200 508.5400 749.2700 510.5700Q746.1200 512.6000 744.5800 515.9600L744.5800 515.9600Q743.4600 517.7800 741.3600 517.7800L741.3600 517.7800L730.3000 517.7800Q728.7600 517.7800 727.9900 516.9400Q727.2200 516.1000 727.2200 514.7000L727.2200 514.7000Q727.3600 512.4600 729.1100 509.2400Q730.8600 506.0200 734.4300 503.0100Q738 500 743.7400 497.9000Q749.4800 495.8000 757.6000 495.8000L757.6000 495.8000Q766.4200 495.8000 772.5100 497.9700Q778.6000 500.1400 782.2400 503.7800Q785.8800 507.4200 787.5600 512.3200Q789.2400 517.2200 789.2400 522.6800L789.2400 522.6800L789.2400 566.6400Q789.2400 568.0400 788.2600 569.0200Q787.2800 570 785.8800 570L785.8800 570L774.5400 570Q773 570 772.0900 569.0200Q771.1800 568.0400 771.1800 566.6400L771.1800 566.6400L771.1800 561.1800Q769.3600 563.7000 766.2800 566.0800Q763.2000 568.4600 758.7900 569.9300Q754.3800 571.4000 748.3600 571.4000ZM753.1200 558.1000L753.1200 558.1000Q758.0200 558.1000 762.0100 556Q766 553.9000 768.3100 549.4900Q770.6200 545.0800 770.6200 538.3600L770.6200 538.3600L770.6200 535.4200L756.6200 537.6600Q748.3600 538.9200 744.3000 541.7200Q740.2400 544.5200 740.2400 548.5800L740.2400 548.5800Q740.2400 551.6600 742.1300 553.8300Q744.0200 556 746.9600 557.0500Q749.9000 558.1000 753.1200 558.1000ZM834.7400 571.4000L834.7400 571.4000Q826.3400 571.4000 820.3900 569.4400Q814.4400 567.4800 810.6600 564.5400Q806.8800 561.6000 805.0600 558.6600Q803.2400 555.7200 803.1000 553.7600L803.1000 553.7600Q802.9600 552.2200 804.0100 551.3100Q805.0600 550.4000 806.3200 550.4000L806.3200 550.4000L817.3800 550.4000Q817.9400 550.4000 818.3600 550.5400Q818.7800 550.6800 819.4800 551.3800L819.4800 551.3800Q821.3000 552.9200 823.3300 554.6000Q825.3600 556.2800 828.1600 557.4700Q830.9600 558.6600 835.1600 558.6600L835.1600 558.6600Q840.6200 558.6600 844.3300 556.4900Q848.0400 554.3200 848.0400 550.2600L848.0400 550.2600Q848.0400 547.3200 846.4300 545.5000Q844.8200 543.6800 840.4800 542.2100Q836.1400 540.7400 828.1600 539.0600L828.1600 539.0600Q820.3200 537.2400 815.1400 534.4400Q809.9600 531.6400 807.4400 527.4400Q804.9200 523.2400 804.9200 517.6400L804.9200 517.6400Q804.9200 512.1800 808.2100 507.2100Q811.5000 502.2400 818.0100 499.0200Q824.5200 495.8000 834.1800 495.8000L834.1800 495.8000Q841.7400 495.8000 847.3400 497.6900Q852.9400 499.5800 856.6500 502.3800Q860.3600 505.1800 862.3200 508.0500Q864.2800 510.9200 864.4200 513.0200L864.4200 513.0200Q864.5600 514.5600 863.5800 515.4700Q862.6000 516.3800 861.3400 516.3800L861.3400 516.3800L850.9800 516.3800Q850.2800 516.3800 849.7200 516.1000Q849.1600 515.8200 848.6000 515.4000L848.6000 515.4000Q847.0600 514 845.2400 512.3900Q843.4200 510.7800 840.8300 509.6600Q838.2400 508.5400 834.0400 508.5400L834.0400 508.5400Q828.7200 508.5400 825.9200 510.8500Q823.1200 513.1600 823.1200 516.6600L823.1200 516.6600Q823.1200 519.0400 824.4500 520.7900Q825.7800 522.5400 829.8400 524.0800Q833.9000 525.6200 842.1600 527.3000L842.1600 527.3000Q851.5400 528.9800 857.0700 532.2700Q862.6000 535.5600 864.9100 539.8300Q867.2200 544.1000 867.2200 549.2800L867.2200 549.2800Q867.2200 555.5800 863.5100 560.6200Q859.8000 565.6600 852.5900 568.5300Q845.3800 571.4000 834.7400 571.4000ZM945.0600 571.4000L945.0600 571.4000Q929.5200 571.4000 920.4200 562.4400Q911.3200 553.4800 910.6200 536.9600L910.6200 536.9600Q910.4800 535.5600 910.4800 533.3900Q910.4800 531.2200 910.6200 529.9600L910.6200 529.9600Q911.1800 519.3200 915.4500 511.6900Q919.7200 504.0600 927.2800 499.9300Q934.8400 495.8000 945.0600 495.8000L945.0600 495.8000Q956.4000 495.8000 964.1000 500.4900Q971.8000 505.1800 975.7200 513.5100Q979.6400 521.8400 979.6400 532.7600L979.6400 532.7600L979.6400 535.7000Q979.6400 537.1000 978.6600 538.0800Q977.6800 539.0600 976.1400 539.0600L976.1400 539.0600L929.6600 539.0600Q929.6600 539.0600 929.6600 539.4800Q929.6600 539.9000 929.6600 540.1800L929.6600 540.1800Q929.8000 545.0800 931.5500 549.2100Q933.3000 553.3400 936.7300 555.8600Q940.1600 558.3800 944.9200 558.3800L944.9200 558.3800Q948.8400 558.3800 951.5000 557.1900Q954.1600 556 955.8400 554.4600Q957.5200 552.9200 958.2200 551.9400L958.2200 551.9400Q959.4800 550.2600 960.2500 549.9100Q961.0200 549.5600 962.5600 549.5600L962.5600 549.5600L974.6000 549.5600Q976 549.5600 976.9100 550.4000Q977.8200 551.2400 977.6800 552.5000L977.6800 552.5000Q977.5400 554.7400 975.3700 557.9600Q973.2000 561.1800 969.1400 564.2600Q965.0800 567.3400 958.9900 569.3700Q952.9000 571.4000 945.0600 571.4000ZM929.6600 526.8800L929.6600 527.3000L960.6000 527.3000L960.6000 526.8800Q960.6000 521.4200 958.7800 517.2900Q956.9600 513.1600 953.4600 510.8500Q949.9600 508.5400 945.0600 508.5400L945.0600 508.5400Q940.1600 508.5400 936.6600 510.8500Q933.1600 513.1600 931.4100 517.2900Q929.6600 521.4200 929.6600 526.8800L929.6600 526.8800ZM1010.1600 570L997.8400 570Q996.4400 570 995.4600 569.0200Q994.4800 568.0400 994.4800 566.6400L994.4800 566.6400L994.4800 500.5600Q994.4800 499.1600 995.4600 498.1800Q996.4400 497.2000 997.8400 497.2000L997.8400 497.2000L1009.3200 497.2000Q1010.7200 497.2000 1011.7000 498.1800Q1012.6800 499.1600 1012.6800 500.5600L1012.6800 500.5600L1012.6800 506.3000Q1016.3200 501.8200 1021.9900 498.8100Q1027.6600 495.8000 1036.0600 495.8000L1036.0600 495.8000Q1044.6000 495.8000 1050.9000 499.6500Q1057.2000 503.5000 1060.6300 510.5000Q1064.0600 517.5000 1064.0600 527.3000L1064.0600 527.3000L1064.0600 566.6400Q1064.0600 568.0400 1063.0800 569.0200Q1062.1000 570 1060.7000 570L1060.7000 570L1048.3800 570Q1046.9800 570 1046 569.0200Q1045.0200 568.0400 1045.0200 566.6400L1045.0200 566.6400L1045.0200 528.1400Q1045.0200 520.0200 1041.0300 515.4000Q1037.0400 510.7800 1029.4800 510.7800L1029.4800 510.7800Q1022.2000 510.7800 1017.8600 515.4000Q1013.5200 520.0200 1013.5200 528.1400L1013.5200 528.1400L1013.5200 566.6400Q1013.5200 568.0400 1012.5400 569.0200Q1011.5600 570 1010.1600 570L1010.1600 570ZM1126.0800 570L1114.7400 570Q1106.3400 570 1100.6000 567.0600Q1094.8600 564.1200 1092.0600 558.3100Q1089.2600 552.5000 1089.2600 543.8200L1089.2600 543.8200L1089.2600 512.0400L1078.2000 512.0400Q1076.8000 512.0400 1075.8200 511.0600Q1074.8400 510.0800 1074.8400 508.5400L1074.8400 508.5400L1074.8400 500.5600Q1074.8400 499.1600 1075.8200 498.1800Q1076.8000 497.2000 1078.2000 497.2000L1078.2000 497.2000L1089.2600 497.2000L1089.2600 473.9600Q1089.2600 472.5600 1090.1700 471.5800Q1091.0800 470.6000 1092.6200 470.6000L1092.6200 470.6000L1103.9600 470.6000Q1105.3600 470.6000 1106.3400 471.5800Q1107.3200 472.5600 1107.3200 473.9600L1107.3200 473.9600L1107.3200 497.2000L1124.8200 497.2000Q1126.2200 497.2000 1127.2000 498.1800Q1128.1800 499.1600 1128.1800 500.5600L1128.1800 500.5600L1128.1800 508.5400Q1128.1800 510.0800 1127.2000 511.0600Q1126.2200 512.0400 1124.8200 512.0400L1124.8200 512.0400L1107.3200 512.0400L1107.3200 542.4200Q1107.3200 548.1600 1109.3500 551.3800Q1111.3800 554.6000 1116.4200 554.6000L1116.4200 554.6000L1126.0800 554.6000Q1127.4800 554.6000 1128.4600 555.5800Q1129.4400 556.5600 1129.4400 557.9600L1129.4400 557.9600L1129.4400 566.6400Q1129.4400 568.0400 1128.4600 569.0200Q1127.4800 570 1126.0800 570L1126.0800 570ZM1157.4400 570L1145.2600 570Q1143.8600 570 1142.8800 569.0200Q1141.9000 568.0400 1141.9000 566.6400L1141.9000 566.6400L1141.9000 500.7000Q1141.9000 499.1600 1142.8800 498.1800Q1143.8600 497.2000 1145.2600 497.2000L1145.2600 497.2000L1156.6000 497.2000Q1158.0000 497.2000 1159.0500 498.1800Q1160.1000 499.1600 1160.1000 500.7000L1160.1000 500.7000L1160.1000 506.4400Q1163.3200 501.9600 1168.4300 499.5800Q1173.5400 497.2000 1180.2600 497.2000L1180.2600 497.2000L1186.0000 497.2000Q1187.5400 497.2000 1188.4500 498.1800Q1189.3600 499.1600 1189.3600 500.5600L1189.3600 500.5600L1189.3600 510.6400Q1189.3600 512.0400 1188.4500 513.0200Q1187.5400 514 1186.0000 514L1186.0000 514L1175.0800 514Q1168.3600 514 1164.6500 517.7100Q1160.9400 521.4200 1160.9400 528.1400L1160.9400 528.1400L1160.9400 566.6400Q1160.9400 568.0400 1159.9600 569.0200Q1158.9800 570 1157.4400 570L1157.4400 570ZM1231.6400 571.4000L1231.6400 571.4000Q1216.1000 571.4000 1207 562.4400Q1197.9000 553.4800 1197.2000 536.9600L1197.2000 536.9600Q1197.0600 535.5600 1197.0600 533.3900Q1197.0600 531.2200 1197.2000 529.9600L1197.2000 529.9600Q1197.7600 519.3200 1202.0300 511.6900Q1206.3000 504.0600 1213.8600 499.9300Q1221.4200 495.8000 1231.6400 495.8000L1231.6400 495.8000Q1242.9800 495.8000 1250.6800 500.4900Q1258.3800 505.1800 1262.3000 513.5100Q1266.2200 521.8400 1266.2200 532.7600L1266.2200 532.7600L1266.2200 535.7000Q1266.2200 537.1000 1265.2400 538.0800Q1264.2600 539.0600 1262.7200 539.0600L1262.7200 539.0600L1216.2400 539.0600Q1216.2400 539.0600 1216.2400 539.4800Q1216.2400 539.9000 1216.2400 540.1800L1216.2400 540.1800Q1216.3800 545.0800 1218.1300 549.2100Q1219.8800 553.3400 1223.3100 555.8600Q1226.7400 558.3800 1231.5000 558.3800L1231.5000 558.3800Q1235.4200 558.3800 1238.0800 557.1900Q1240.7400 556 1242.4200 554.4600Q1244.1000 552.9200 1244.8000 551.9400L1244.8000 551.9400Q1246.0600 550.2600 1246.8300 549.9100Q1247.6000 549.5600 1249.1400 549.5600L1249.1400 549.5600L1261.1800 549.5600Q1262.5800 549.5600 1263.4900 550.4000Q1264.4000 551.2400 1264.2600 552.5000L1264.2600 552.5000Q1264.1200 554.7400 1261.9500 557.9600Q1259.7800 561.1800 1255.7200 564.2600Q1251.6600 567.3400 1245.5700 569.3700Q1239.4800 571.4000 1231.6400 571.4000ZM1216.2400 526.8800L1216.2400 527.3000L1247.1800 527.3000L1247.1800 526.8800Q1247.1800 521.4200 1245.3600 517.2900Q1243.5400 513.1600 1240.0400 510.8500Q1236.5400 508.5400 1231.6400 508.5400L1231.6400 508.5400Q1226.7400 508.5400 1223.2400 510.8500Q1219.7400 513.1600 1217.9900 517.2900Q1216.2400 521.4200 1216.2400 526.8800L1216.2400 526.8800ZM1345.3200 571.4000L1345.3200 571.4000Q1334.1200 571.4000 1326.4900 567.4800Q1318.8600 563.5600 1314.8700 556.4200Q1310.8800 549.2800 1310.3200 539.7600L1310.3200 539.7600Q1310.1800 537.2400 1310.1800 533.6000Q1310.1800 529.9600 1310.3200 527.4400L1310.3200 527.4400Q1310.8800 517.7800 1315.0100 510.7100Q1319.1400 503.6400 1326.7700 499.7200Q1334.4000 495.8000 1345.3200 495.8000L1345.3200 495.8000Q1356.2400 495.8000 1363.8700 499.7200Q1371.5000 503.6400 1375.6300 510.7100Q1379.7600 517.7800 1380.3200 527.4400L1380.3200 527.4400Q1380.4600 529.9600 1380.4600 533.6000Q1380.4600 537.2400 1380.3200 539.7600L1380.3200 539.7600Q1379.7600 549.2800 1375.7700 556.4200Q1371.7800 563.5600 1364.1500 567.4800Q1356.5200 571.4000 1345.3200 571.4000ZM1345.3200 557.5400L1345.3200 557.5400Q1352.7400 557.5400 1356.8000 552.8500Q1360.8600 548.1600 1361.2800 539.0600L1361.2800 539.0600Q1361.4200 536.9600 1361.4200 533.6000Q1361.4200 530.2400 1361.2800 528.1400L1361.2800 528.1400Q1360.8600 519.0400 1356.8000 514.3500Q1352.7400 509.6600 1345.3200 509.6600L1345.3200 509.6600Q1337.9000 509.6600 1333.8400 514.3500Q1329.7800 519.0400 1329.3600 528.1400L1329.3600 528.1400Q1329.2200 530.2400 1329.2200 533.6000Q1329.2200 536.9600 1329.3600 539.0600L1329.3600 539.0600Q1329.7800 548.1600 1333.8400 552.8500Q1337.9000 557.5400 1345.3200 557.5400ZM1423.5800 571.4000L1423.5800 571.4000Q1415.1800 571.4000 1409.2300 569.4400Q1403.2800 567.4800 1399.5000 564.5400Q1395.7200 561.6000 1393.9000 558.6600Q1392.0800 555.7200 1391.9400 553.7600L1391.9400 553.7600Q1391.8000 552.2200 1392.8500 551.3100Q1393.9000 550.4000 1395.1600 550.4000L1395.1600 550.4000L1406.2200 550.4000Q1406.7800 550.4000 1407.2000 550.5400Q1407.6200 550.6800 1408.3200 551.3800L1408.3200 551.3800Q1410.1400 552.9200 1412.1700 554.6000Q1414.2000 556.2800 1417 557.4700Q1419.8000 558.6600 1424 558.6600L1424 558.6600Q1429.4600 558.6600 1433.1700 556.4900Q1436.8800 554.3200 1436.8800 550.2600L1436.8800 550.2600Q1436.8800 547.3200 1435.2700 545.5000Q1433.6600 543.6800 1429.3200 542.2100Q1424.9800 540.7400 1417 539.0600L1417 539.0600Q1409.1600 537.2400 1403.9800 534.4400Q1398.8000 531.6400 1396.2800 527.4400Q1393.7600 523.2400 1393.7600 517.6400L1393.7600 517.6400Q1393.7600 512.1800 1397.0500 507.2100Q1400.3400 502.2400 1406.8500 499.0200Q1413.3600 495.8000 1423.0200 495.8000L1423.0200 495.8000Q1430.5800 495.8000 1436.1800 497.6900Q1441.7800 499.5800 1445.4900 502.3800Q1449.2000 505.1800 1451.1600 508.0500Q1453.1200 510.9200 1453.2600 513.0200L1453.2600 513.0200Q1453.4000 514.5600 1452.4200 515.4700Q1451.4400 516.3800 1450.1800 516.3800L1450.1800 516.3800L1439.8200 516.3800Q1439.1200 516.3800 1438.5600 516.1000Q1438 515.8200 1437.4400 515.4000L1437.4400 515.4000Q1435.9000 514 1434.0800 512.3900Q1432.2600 510.7800 1429.6700 509.6600Q1427.0800 508.5400 1422.8800 508.5400L1422.8800 508.5400Q1417.5600 508.5400 1414.7600 510.8500Q1411.9600 513.1600 1411.9600 516.6600L1411.9600 516.6600Q1411.9600 519.0400 1413.2900 520.7900Q1414.6200 522.5400 1418.6800 524.0800Q1422.7400 525.6200 1431 527.3000L1431 527.3000Q1440.3800 528.9800 1445.9100 532.2700Q1451.4400 535.5600 1453.7500 539.8300Q1456.0600 544.1000 1456.0600 549.2800L1456.0600 549.2800Q1456.0600 555.5800 1452.3500 560.6200Q1448.6400 565.6600 1441.4300 568.5300Q1434.2200 571.4000 1423.5800 571.4000ZM199.5600 711.4000L199.5600 711.4000Q191.4400 711.4000 186.0500 708.6000Q180.6600 705.8000 177.1600 701.4600L177.1600 701.4600L177.1600 706.6400Q177.1600 708.0400 176.2500 709.0200Q175.3400 710 173.8000 710L173.8000 710L162.7400 710Q161.3400 710 160.3600 709.0200Q159.3800 708.0400 159.3800 706.6400L159.3800 706.6400L159.3800 613.9600Q159.3800 612.5600 160.3600 611.5800Q161.3400 610.6000 162.7400 610.6000L162.7400 610.6000L174.6400 610.6000Q176.1800 610.6000 177.0900 611.5800Q178 612.5600 178 613.9600L178 613.9600L178 645.0400Q181.5000 640.9800 186.7500 638.3900Q192 635.8000 199.5600 635.8000L199.5600 635.8000Q206.9800 635.8000 212.4400 638.3200Q217.9000 640.8400 221.6100 645.3900Q225.3200 649.9400 227.2800 655.9600Q229.2400 661.9800 229.3800 668.9800L229.3800 668.9800Q229.5200 671.5000 229.5200 673.5300Q229.5200 675.5600 229.3800 678.0800L229.3800 678.0800Q229.1000 685.3600 227.1400 691.4500Q225.1800 697.5400 221.5400 702.0200Q217.9000 706.5000 212.4400 708.9500Q206.9800 711.4000 199.5600 711.4000ZM194.3800 696.4200L194.3800 696.4200Q200.4000 696.4200 203.7600 693.8300Q207.1200 691.2400 208.6600 687.0400Q210.2000 682.8400 210.4800 677.8000L210.4800 677.8000Q210.6200 673.6000 210.4800 669.4000L210.4800 669.4000Q210.2000 664.3600 208.6600 660.1600Q207.1200 655.9600 203.7600 653.3700Q200.4000 650.7800 194.3800 650.7800L194.3800 650.7800Q188.7800 650.7800 185.2800 653.3000Q181.7800 655.8200 179.9600 659.6700Q178.1400 663.5200 178 667.7200L178 667.7200Q177.8600 670.2400 177.8600 673.1100Q177.8600 675.9800 178 678.5000L178 678.5000Q178.2800 682.8400 179.8900 686.9700Q181.5000 691.1000 185.0700 693.7600Q188.6400 696.4200 194.3800 696.4200ZM266.2000 711.4000L266.2000 711.4000Q258.9200 711.4000 253.0400 708.5300Q247.1600 705.6600 243.7300 700.8300Q240.3000 696 240.3000 689.9800L240.3000 689.9800Q240.3000 680.1800 248.2800 674.3700Q256.2600 668.5600 269.1400 666.6000L269.1400 666.6000L288.3200 663.8000L288.3200 660.8600Q288.3200 654.9800 285.3800 651.7600Q282.4400 648.5400 275.3000 648.5400L275.3000 648.5400Q270.2600 648.5400 267.1100 650.5700Q263.9600 652.6000 262.4200 655.9600L262.4200 655.9600Q261.3000 657.7800 259.2000 657.7800L259.2000 657.7800L248.1400 657.7800Q246.6000 657.7800 245.8300 656.9400Q245.0600 656.1000 245.0600 654.7000L245.0600 654.7000Q245.2000 652.4600 246.9500 649.2400Q248.7000 646.0200 252.2700 643.0100Q255.8400 640 261.5800 637.9000Q267.3200 635.8000 275.4400 635.8000L275.4400 635.8000Q284.2600 635.8000 290.3500 637.9700Q296.4400 640.1400 300.0800 643.7800Q303.7200 647.4200 305.4000 652.3200Q307.0800 657.2200 307.0800 662.6800L307.0800 662.6800L307.0800 706.6400Q307.0800 708.0400 306.1000 709.0200Q305.1200 710 303.7200 710L303.7200 710L292.3800 710Q290.8400 710 289.9300 709.0200Q289.0200 708.0400 289.0200 706.6400L289.0200 706.6400L289.0200 701.1800Q287.2000 703.7000 284.1200 706.0800Q281.0400 708.4600 276.6300 709.9300Q272.2200 711.4000 266.2000 711.4000ZM270.9600 698.1000L270.9600 698.1000Q275.8600 698.1000 279.8500 696Q283.8400 693.9000 286.1500 689.4900Q288.4600 685.0800 288.4600 678.3600L288.4600 678.3600L288.4600 675.4200L274.4600 677.6600Q266.2000 678.9200 262.1400 681.7200Q258.0800 684.5200 258.0800 688.5800L258.0800 688.5800Q258.0800 691.6600 259.9700 693.8300Q261.8600 696 264.8000 697.0500Q267.7400 698.1000 270.9600 698.1000ZM340.6800 710L328.3600 710Q326.9600 710 325.9800 709.0200Q325 708.0400 325 706.6400L325 706.6400L325 640.5600Q325 639.1600 325.9800 638.1800Q326.9600 637.2000 328.3600 637.2000L328.3600 637.2000L339.8400 637.2000Q341.2400 637.2000 342.2200 638.1800Q343.2000 639.1600 343.2000 640.5600L343.2000 640.5600L343.2000 646.3000Q346.8400 641.8200 352.5100 638.8100Q358.1800 635.8000 366.5800 635.8000L366.5800 635.8000Q375.1200 635.8000 381.4200 639.6500Q387.7200 643.5000 391.1500 650.5000Q394.5800 657.5000 394.5800 667.3000L394.5800 667.3000L394.5800 706.6400Q394.5800 708.0400 393.6000 709.0200Q392.6200 710 391.2200 710L391.2200 710L378.9000 710Q377.5000 710 376.5200 709.0200Q375.5400 708.0400 375.5400 706.6400L375.5400 706.6400L375.5400 668.1400Q375.5400 660.0200 371.5500 655.4000Q367.5600 650.7800 360 650.7800L360 650.7800Q352.7200 650.7800 348.3800 655.4000Q344.0400 660.0200 344.0400 668.1400L344.0400 668.1400L344.0400 706.6400Q344.0400 708.0400 343.0600 709.0200Q342.0800 710 340.6800 710L340.6800 710ZM443.8600 711.4000L443.8600 711.4000Q433.7800 711.4000 426.1500 707.6200Q418.5200 703.8400 414.2500 696.6300Q409.9800 689.4200 409.5600 679.2000L409.5600 679.2000Q409.4200 677.1000 409.4200 673.6700Q409.4200 670.2400 409.5600 668L409.5600 668Q409.9800 657.7800 414.2500 650.5700Q418.5200 643.3600 426.1500 639.5800Q433.7800 635.8000 443.8600 635.8000L443.8600 635.8000Q452.8200 635.8000 459.1200 638.2500Q465.4200 640.7000 469.4800 644.5500Q473.5400 648.4000 475.5700 652.5300Q477.6000 656.6600 477.7400 660.0200L477.7400 660.0200Q477.8800 661.5600 476.8300 662.4700Q475.7800 663.3800 474.3800 663.3800L474.3800 663.3800L462.0600 663.3800Q460.6600 663.3800 459.8900 662.6800Q459.1200 661.9800 458.4200 660.5800L458.4200 660.5800Q456.3200 654.9800 452.8900 652.6700Q449.4600 650.3600 444.1400 650.3600L444.1400 650.3600Q437.1400 650.3600 433.0100 654.7700Q428.8800 659.1800 428.6000 668.7000L428.6000 668.7000Q428.3200 674.0200 428.6000 678.5000L428.6000 678.5000Q428.8800 688.1600 433.0100 692.5000Q437.1400 696.8400 444.1400 696.8400L444.1400 696.8400Q449.6000 696.8400 452.9600 694.5300Q456.3200 692.2200 458.4200 686.6200L458.4200 686.6200Q459.1200 685.2200 459.8900 684.5200Q460.6600 683.8200 462.0600 683.8200L462.0600 683.8200L474.3800 683.8200Q475.7800 683.8200 476.8300 684.7300Q477.8800 685.6400 477.7400 687.1800L477.7400 687.1800Q477.6000 689.7000 476.4100 692.8500Q475.2200 696 472.6300 699.2900Q470.0400 702.5800 466.1200 705.3100Q462.2000 708.0400 456.6700 709.7200Q451.1400 711.4000 443.8600 711.4000ZM524.5000 711.4000L524.5000 711.4000Q513.3000 711.4000 505.6700 707.4800Q498.0400 703.5600 494.0500 696.4200Q490.0600 689.2800 489.5000 679.7600L489.5000 679.7600Q489.3600 677.2400 489.3600 673.6000Q489.3600 669.9600 489.5000 667.4400L489.5000 667.4400Q490.0600 657.7800 494.1900 650.7100Q498.3200 643.6400 505.9500 639.7200Q513.5800 635.8000 524.5000 635.8000L524.5000 635.8000Q535.4200 635.8000 543.0500 639.7200Q550.6800 643.6400 554.8100 650.7100Q558.9400 657.7800 559.5000 667.4400L559.5000 667.4400Q559.6400 669.9600 559.6400 673.6000Q559.6400 677.2400 559.5000 679.7600L559.5000 679.7600Q558.9400 689.2800 554.9500 696.4200Q550.9600 703.5600 543.3300 707.4800Q535.7000 711.4000 524.5000 711.4000ZM524.5000 697.5400L524.5000 697.5400Q531.9200 697.5400 535.9800 692.8500Q540.0400 688.1600 540.4600 679.0600L540.4600 679.0600Q540.6000 676.9600 540.6000 673.6000Q540.6000 670.2400 540.4600 668.1400L540.4600 668.1400Q540.0400 659.0400 535.9800 654.3500Q531.9200 649.6600 524.5000 649.6600L524.5000 649.6600Q517.0800 649.6600 513.0200 654.3500Q508.9600 659.0400 508.5400 668.1400L508.5400 668.1400Q508.4000 670.2400 508.4000 673.6000Q508.4000 676.9600 508.5400 679.0600L508.5400 679.0600Q508.9600 688.1600 513.0200 692.8500Q517.0800 697.5400 524.5000 697.5400ZM602.7600 711.4000L602.7600 711.4000Q594.3600 711.4000 588.4100 709.4400Q582.4600 707.4800 578.6800 704.5400Q574.9000 701.6000 573.0800 698.6600Q571.2600 695.7200 571.1200 693.7600L571.1200 693.7600Q570.9800 692.2200 572.0300 691.3100Q573.0800 690.4000 574.3400 690.4000L574.3400 690.4000L585.4000 690.4000Q585.9600 690.4000 586.3800 690.5400Q586.8000 690.6800 587.5000 691.3800L587.5000 691.3800Q589.3200 692.9200 591.3500 694.6000Q593.3800 696.2800 596.1800 697.4700Q598.9800 698.6600 603.1800 698.6600L603.1800 698.6600Q608.6400 698.6600 612.3500 696.4900Q616.0600 694.3200 616.0600 690.2600L616.0600 690.2600Q616.0600 687.3200 614.4500 685.5000Q612.8400 683.6800 608.5000 682.2100Q604.1600 680.7400 596.1800 679.0600L596.1800 679.0600Q588.3400 677.2400 583.1600 674.4400Q577.9800 671.6400 575.4600 667.4400Q572.9400 663.2400 572.9400 657.6400L572.9400 657.6400Q572.9400 652.1800 576.2300 647.2100Q579.5200 642.2400 586.0300 639.0200Q592.5400 635.8000 602.2000 635.8000L602.2000 635.8000Q609.7600 635.8000 615.3600 637.6900Q620.9600 639.5800 624.6700 642.3800Q628.3800 645.1800 630.3400 648.0500Q632.3000 650.9200 632.4400 653.0200L632.4400 653.0200Q632.5800 654.5600 631.6000 655.4700Q630.6200 656.3800 629.3600 656.3800L629.3600 656.3800L619 656.3800Q618.3000 656.3800 617.7400 656.1000Q617.1800 655.8200 616.6200 655.4000L616.6200 655.4000Q615.0800 654 613.2600 652.3900Q611.4400 650.7800 608.8500 649.6600Q606.2600 648.5400 602.0600 648.5400L602.0600 648.5400Q596.7400 648.5400 593.9400 650.8500Q591.1400 653.1600 591.1400 656.6600L591.1400 656.6600Q591.1400 659.0400 592.4700 660.7900Q593.8000 662.5400 597.8600 664.0800Q601.9200 665.6200 610.1800 667.3000L610.1800 667.3000Q619.5600 668.9800 625.0900 672.2700Q630.6200 675.5600 632.9300 679.8300Q635.2400 684.1000 635.2400 689.2800L635.2400 689.2800Q635.2400 695.5800 631.5300 700.6200Q627.8200 705.6600 620.6100 708.5300Q613.4000 711.4000 602.7600 711.4000ZM708.7400 711.4000L708.7400 711.4000Q701.4600 711.4000 695.9300 708.9500Q690.4000 706.5000 686.7600 702.0200Q683.1200 697.5400 681.1600 691.4500Q679.2000 685.3600 678.9200 678.0800L678.9200 678.0800Q678.7800 675.5600 678.7800 673.5300Q678.7800 671.5000 678.9200 668.9800L678.9200 668.9800Q679.2000 661.9800 681.0900 655.9600Q682.9800 649.9400 686.6900 645.3900Q690.4000 640.8400 695.9300 638.3200Q701.4600 635.8000 708.7400 635.8000L708.7400 635.8000Q716.3000 635.8000 721.5500 638.3900Q726.8000 640.9800 730.3000 645.0400L730.3000 645.0400L730.3000 613.9600Q730.3000 612.5600 731.2100 611.5800Q732.1200 610.6000 733.6600 610.6000L733.6600 610.6000L745.5600 610.6000Q746.9600 610.6000 747.9400 611.5800Q748.9200 612.5600 748.9200 613.9600L748.9200 613.9600L748.9200 706.6400Q748.9200 708.0400 747.9400 709.0200Q746.9600 710 745.5600 710L745.5600 710L734.5000 710Q732.9600 710 732.0500 709.0200Q731.1400 708.0400 731.1400 706.6400L731.1400 706.6400L731.1400 701.4600Q727.6400 705.8000 722.2500 708.6000Q716.8600 711.4000 708.7400 711.4000ZM713.9200 696.4200L713.9200 696.4200Q719.8000 696.4200 723.3000 693.7600Q726.8000 691.1000 728.4800 686.9700Q730.1600 682.8400 730.3000 678.5000L730.3000 678.5000Q730.4400 675.9800 730.4400 673.1100Q730.4400 670.2400 730.3000 667.7200L730.3000 667.7200Q730.1600 663.5200 728.3400 659.6700Q726.5200 655.8200 723.0200 653.3000Q719.5200 650.7800 713.9200 650.7800L713.9200 650.7800Q708.0400 650.7800 704.6100 653.3700Q701.1800 655.9600 699.6400 660.1600Q698.1000 664.3600 697.8200 669.4000L697.8200 669.4000Q697.6800 673.6000 697.8200 677.8000L697.8200 677.8000Q698.1000 682.8400 699.6400 687.0400Q701.1800 691.2400 704.6100 693.8300Q708.0400 696.4200 713.9200 696.4200ZM798.9000 711.4000L798.9000 711.4000Q783.3600 711.4000 774.2600 702.4400Q765.1600 693.4800 764.4600 676.9600L764.4600 676.9600Q764.3200 675.5600 764.3200 673.3900Q764.3200 671.2200 764.4600 669.9600L764.4600 669.9600Q765.0200 659.3200 769.2900 651.6900Q773.5600 644.0600 781.1200 639.9300Q788.6800 635.8000 798.9000 635.8000L798.9000 635.8000Q810.2400 635.8000 817.9400 640.4900Q825.6400 645.1800 829.5600 653.5100Q833.4800 661.8400 833.4800 672.7600L833.4800 672.7600L833.4800 675.7000Q833.4800 677.1000 832.5000 678.0800Q831.5200 679.0600 829.9800 679.0600L829.9800 679.0600L783.5000 679.0600Q783.5000 679.0600 783.5000 679.4800Q783.5000 679.9000 783.5000 680.1800L783.5000 680.1800Q783.6400 685.0800 785.3900 689.2100Q787.1400 693.3400 790.5700 695.8600Q794.0000 698.3800 798.7600 698.3800L798.7600 698.3800Q802.6800 698.3800 805.3400 697.1900Q808.0000 696 809.6800 694.4600Q811.3600 692.9200 812.0600 691.9400L812.0600 691.9400Q813.3200 690.2600 814.0900 689.9100Q814.8600 689.5600 816.4000 689.5600L816.4000 689.5600L828.4400 689.5600Q829.8400 689.5600 830.7500 690.4000Q831.6600 691.2400 831.5200 692.5000L831.5200 692.5000Q831.3800 694.7400 829.2100 697.9600Q827.0400 701.1800 822.9800 704.2600Q818.9200 707.3400 812.8300 709.3700Q806.7400 711.4000 798.9000 711.4000ZM783.5000 666.8800L783.5000 667.3000L814.4400 667.3000L814.4400 666.8800Q814.4400 661.4200 812.6200 657.2900Q810.8000 653.1600 807.3000 650.8500Q803.8000 648.5400 798.9000 648.5400L798.9000 648.5400Q794.0000 648.5400 790.5000 650.8500Q787.0000 653.1600 785.2500 657.2900Q783.5000 661.4200 783.5000 666.8800L783.5000 666.8800ZM907.4000 711.4000L907.4000 711.4000Q900.1200 711.4000 894.5900 708.9500Q889.0600 706.5000 885.4200 702.0200Q881.7800 697.5400 879.8200 691.4500Q877.8600 685.3600 877.5800 678.0800L877.5800 678.0800Q877.4400 675.5600 877.4400 673.5300Q877.4400 671.5000 877.5800 668.9800L877.5800 668.9800Q877.8600 661.9800 879.7500 655.9600Q881.6400 649.9400 885.3500 645.3900Q889.0600 640.8400 894.5900 638.3200Q900.1200 635.8000 907.4000 635.8000L907.4000 635.8000Q914.9600 635.8000 920.2100 638.3900Q925.4600 640.9800 928.9600 645.0400L928.9600 645.0400L928.9600 613.9600Q928.9600 612.5600 929.8700 611.5800Q930.7800 610.6000 932.3200 610.6000L932.3200 610.6000L944.2200 610.6000Q945.6200 610.6000 946.6000 611.5800Q947.5800 612.5600 947.5800 613.9600L947.5800 613.9600L947.5800 706.6400Q947.5800 708.0400 946.6000 709.0200Q945.6200 710 944.2200 710L944.2200 710L933.1600 710Q931.6200 710 930.7100 709.0200Q929.8000 708.0400 929.8000 706.6400L929.8000 706.6400L929.8000 701.4600Q926.3000 705.8000 920.9100 708.6000Q915.5200 711.4000 907.4000 711.4000ZM912.5800 696.4200L912.5800 696.4200Q918.4600 696.4200 921.9600 693.7600Q925.4600 691.1000 927.1400 686.9700Q928.8200 682.8400 928.9600 678.5000L928.9600 678.5000Q929.1000 675.9800 929.1000 673.1100Q929.1000 670.2400 928.9600 667.7200L928.9600 667.7200Q928.8200 663.5200 927.0000 659.6700Q925.1800 655.8200 921.6800 653.3000Q918.1800 650.7800 912.5800 650.7800L912.5800 650.7800Q906.7000 650.7800 903.2700 653.3700Q899.8400 655.9600 898.3000 660.1600Q896.7600 664.3600 896.4800 669.4000L896.4800 669.4000Q896.3400 673.6000 896.4800 677.8000L896.4800 677.8000Q896.7600 682.8400 898.3000 687.0400Q899.8400 691.2400 903.2700 693.8300Q906.7000 696.4200 912.5800 696.4200ZM987.3400 711.4000L987.3400 711.4000Q980.0600 711.4000 974.1800 708.5300Q968.3000 705.6600 964.8700 700.8300Q961.4400 696 961.4400 689.9800L961.4400 689.9800Q961.4400 680.1800 969.4200 674.3700Q977.4000 668.5600 990.2800 666.6000L990.2800 666.6000L1009.4600 663.8000L1009.4600 660.8600Q1009.4600 654.9800 1006.5200 651.7600Q1003.5800 648.5400 996.4400 648.5400L996.4400 648.5400Q991.4000 648.5400 988.2500 650.5700Q985.1000 652.6000 983.5600 655.9600L983.5600 655.9600Q982.4400 657.7800 980.3400 657.7800L980.3400 657.7800L969.2800 657.7800Q967.7400 657.7800 966.9700 656.9400Q966.2000 656.1000 966.2000 654.7000L966.2000 654.7000Q966.3400 652.4600 968.0900 649.2400Q969.8400 646.0200 973.4100 643.0100Q976.9800 640 982.7200 637.9000Q988.4600 635.8000 996.5800 635.8000L996.5800 635.8000Q1005.4000 635.8000 1011.4900 637.9700Q1017.5800 640.1400 1021.2200 643.7800Q1024.8600 647.4200 1026.5400 652.3200Q1028.2200 657.2200 1028.2200 662.6800L1028.2200 662.6800L1028.2200 706.6400Q1028.2200 708.0400 1027.2400 709.0200Q1026.2600 710 1024.8600 710L1024.8600 710L1013.5200 710Q1011.9800 710 1011.0700 709.0200Q1010.1600 708.0400 1010.1600 706.6400L1010.1600 706.6400L1010.1600 701.1800Q1008.3400 703.7000 1005.2600 706.0800Q1002.1800 708.4600 997.7700 709.9300Q993.3600 711.4000 987.3400 711.4000ZM992.1000 698.1000L992.1000 698.1000Q997.0000 698.1000 1000.9900 696Q1004.9800 693.9000 1007.2900 689.4900Q1009.6000 685.0800 1009.6000 678.3600L1009.6000 678.3600L1009.6000 675.4200L995.6000 677.6600Q987.3400 678.9200 983.2800 681.7200Q979.2200 684.5200 979.2200 688.5800L979.2200 688.5800Q979.2200 691.6600 981.1100 693.8300Q983.0000 696 985.9400 697.0500Q988.8800 698.1000 992.1000 698.1000ZM1073.1600 711.4000L1073.1600 711.4000Q1065.8800 711.4000 1060.3500 708.9500Q1054.8200 706.5000 1051.1800 702.0200Q1047.5400 697.5400 1045.5800 691.4500Q1043.6200 685.3600 1043.3400 678.0800L1043.3400 678.0800Q1043.2000 675.5600 1043.2000 673.5300Q1043.2000 671.5000 1043.3400 668.9800L1043.3400 668.9800Q1043.6200 661.9800 1045.5100 655.9600Q1047.4000 649.9400 1051.1100 645.3900Q1054.8200 640.8400 1060.3500 638.3200Q1065.8800 635.8000 1073.1600 635.8000L1073.1600 635.8000Q1080.7200 635.8000 1085.9700 638.3900Q1091.2200 640.9800 1094.7200 645.0400L1094.7200 645.0400L1094.7200 613.9600Q1094.7200 612.5600 1095.6300 611.5800Q1096.5400 610.6000 1098.0800 610.6000L1098.0800 610.6000L1109.9800 610.6000Q1111.3800 610.6000 1112.3600 611.5800Q1113.3400 612.5600 1113.3400 613.9600L1113.3400 613.9600L1113.3400 706.6400Q1113.3400 708.0400 1112.3600 709.0200Q1111.3800 710 1109.9800 710L1109.9800 710L1098.9200 710Q1097.3800 710 1096.4700 709.0200Q1095.5600 708.0400 1095.5600 706.6400L1095.5600 706.6400L1095.5600 701.4600Q1092.0600 705.8000 1086.6700 708.6000Q1081.2800 711.4000 1073.1600 711.4000ZM1078.3400 696.4200L1078.3400 696.4200Q1084.2200 696.4200 1087.7200 693.7600Q1091.2200 691.1000 1092.9000 686.9700Q1094.5800 682.8400 1094.7200 678.5000L1094.7200 678.5000Q1094.8600 675.9800 1094.8600 673.1100Q1094.8600 670.2400 1094.7200 667.7200L1094.7200 667.7200Q1094.5800 663.5200 1092.7600 659.6700Q1090.9400 655.8200 1087.4400 653.3000Q1083.9400 650.7800 1078.3400 650.7800L1078.3400 650.7800Q1072.4600 650.7800 1069.0300 653.3700Q1065.6000 655.9600 1064.0600 660.1600Q1062.5200 664.3600 1062.2400 669.4000L1062.2400 669.4000Q1062.1000 673.6000 1062.2400 677.8000L1062.2400 677.8000Q1062.5200 682.8400 1064.0600 687.0400Q1065.6000 691.2400 1069.0300 693.8300Q1072.4600 696.4200 1078.3400 696.4200ZM1164.1600 711.4000L1164.1600 711.4000Q1152.9600 711.4000 1145.3300 707.4800Q1137.7000 703.5600 1133.7100 696.4200Q1129.7200 689.2800 1129.1600 679.7600L1129.1600 679.7600Q1129.0200 677.2400 1129.0200 673.6000Q1129.0200 669.9600 1129.1600 667.4400L1129.1600 667.4400Q1129.7200 657.7800 1133.8500 650.7100Q1137.9800 643.6400 1145.6100 639.7200Q1153.2400 635.8000 1164.1600 635.8000L1164.1600 635.8000Q1175.0800 635.8000 1182.7100 639.7200Q1190.3400 643.6400 1194.4700 650.7100Q1198.6000 657.7800 1199.1600 667.4400L1199.1600 667.4400Q1199.3000 669.9600 1199.3000 673.6000Q1199.3000 677.2400 1199.1600 679.7600L1199.1600 679.7600Q1198.6000 689.2800 1194.6100 696.4200Q1190.6200 703.5600 1182.9900 707.4800Q1175.3600 711.4000 1164.1600 711.4000ZM1164.1600 697.5400L1164.1600 697.5400Q1171.5800 697.5400 1175.6400 692.8500Q1179.7000 688.1600 1180.1200 679.0600L1180.1200 679.0600Q1180.2600 676.9600 1180.2600 673.6000Q1180.2600 670.2400 1180.1200 668.1400L1180.1200 668.1400Q1179.7000 659.0400 1175.6400 654.3500Q1171.5800 649.6600 1164.1600 649.6600L1164.1600 649.6600Q1156.7400 649.6600 1152.6800 654.3500Q1148.6200 659.0400 1148.2000 668.1400L1148.2000 668.1400Q1148.0600 670.2400 1148.0600 673.6000Q1148.0600 676.9600 1148.2000 679.0600L1148.2000 679.0600Q1148.6200 688.1600 1152.6800 692.8500Q1156.7400 697.5400 1164.1600 697.5400ZM1242.4200 711.4000L1242.4200 711.4000Q1234.0200 711.4000 1228.0700 709.4400Q1222.1200 707.4800 1218.3400 704.5400Q1214.5600 701.6000 1212.7400 698.6600Q1210.9200 695.7200 1210.7800 693.7600L1210.7800 693.7600Q1210.6400 692.2200 1211.6900 691.3100Q1212.7400 690.4000 1214.0000 690.4000L1214.0000 690.4000L1225.0600 690.4000Q1225.6200 690.4000 1226.0400 690.5400Q1226.4600 690.6800 1227.1600 691.3800L1227.1600 691.3800Q1228.9800 692.9200 1231.0100 694.6000Q1233.0400 696.2800 1235.8400 697.4700Q1238.6400 698.6600 1242.8400 698.6600L1242.8400 698.6600Q1248.3000 698.6600 1252.0100 696.4900Q1255.7200 694.3200 1255.7200 690.2600L1255.7200 690.2600Q1255.7200 687.3200 1254.1100 685.5000Q1252.5000 683.6800 1248.1600 682.2100Q1243.8200 680.7400 1235.8400 679.0600L1235.8400 679.0600Q1228.0000 677.2400 1222.8200 674.4400Q1217.6400 671.6400 1215.1200 667.4400Q1212.6000 663.2400 1212.6000 657.6400L1212.6000 657.6400Q1212.6000 652.1800 1215.8900 647.2100Q1219.1800 642.2400 1225.6900 639.0200Q1232.2000 635.8000 1241.8600 635.8000L1241.8600 635.8000Q1249.4200 635.8000 1255.0200 637.6900Q1260.6200 639.5800 1264.3300 642.3800Q1268.0400 645.1800 1270.0000 648.0500Q1271.9600 650.9200 1272.1000 653.0200L1272.1000 653.0200Q1272.2400 654.5600 1271.2600 655.4700Q1270.2800 656.3800 1269.0200 656.3800L1269.0200 656.3800L1258.6600 656.3800Q1257.9600 656.3800 1257.4000 656.1000Q1256.8400 655.8200 1256.2800 655.4000L1256.2800 655.4000Q1254.7400 654 1252.9200 652.3900Q1251.1000 650.7800 1248.5100 649.6600Q1245.9200 648.5400 1241.7200 648.5400L1241.7200 648.5400Q1236.4000 648.5400 1233.6000 650.8500Q1230.8000 653.1600 1230.8000 656.6600L1230.8000 656.6600Q1230.8000 659.0400 1232.1300 660.7900Q1233.4600 662.5400 1237.5200 664.0800Q1241.5800 665.6200 1249.8400 667.3000L1249.8400 667.3000Q1259.2200 668.9800 1264.7500 672.2700Q1270.2800 675.5600 1272.5900 679.8300Q1274.9000 684.1000 1274.9000 689.2800L1274.9000 689.2800Q1274.9000 695.5800 1271.1900 700.6200Q1267.4800 705.6600 1260.2700 708.5300Q1253.0600 711.4000 1242.4200 711.4000ZM1336.5000 710L1324.7400 710Q1323.3400 710 1322.3600 709.0200Q1321.3800 708.0400 1321.3800 706.6400L1321.3800 706.6400L1321.3800 640.5600Q1321.3800 639.1600 1322.3600 638.1800Q1323.3400 637.2000 1324.7400 637.2000L1324.7400 637.2000L1335.6600 637.2000Q1337.0600 637.2000 1338.0400 638.1800Q1339.0200 639.1600 1339.0200 640.5600L1339.0200 640.5600L1339.0200 645.3200Q1341.9600 641.4000 1346.9300 638.6700Q1351.9000 635.9400 1358.7600 635.8000L1358.7600 635.8000Q1374.7200 635.5200 1381.0200 648.2600L1381.0200 648.2600Q1384.2400 642.6600 1390.3300 639.2300Q1396.4200 635.8000 1403.8400 635.8000L1403.8400 635.8000Q1411.1200 635.8000 1417.0700 639.1600Q1423.0200 642.5200 1426.4500 649.3100Q1429.8800 656.1000 1429.8800 666.4600L1429.8800 666.4600L1429.8800 706.6400Q1429.8800 708.0400 1428.9000 709.0200Q1427.9200 710 1426.5200 710L1426.5200 710L1415.0400 710Q1413.6400 710 1412.6600 709.0200Q1411.6800 708.0400 1411.6800 706.6400L1411.6800 706.6400L1411.6800 667.5800Q1411.6800 661.2800 1409.8600 657.5700Q1408.0400 653.8600 1404.9600 652.3200Q1401.8800 650.7800 1398.1000 650.7800L1398.1000 650.7800Q1395.0200 650.7800 1391.9400 652.3200Q1388.8600 653.8600 1386.9000 657.5700Q1384.9400 661.2800 1384.9400 667.5800L1384.9400 667.5800L1384.9400 706.6400Q1384.9400 708.0400 1383.9600 709.0200Q1382.9800 710 1381.5800 710L1381.5800 710L1370.1000 710Q1368.7000 710 1367.7200 709.0200Q1366.7400 708.0400 1366.7400 706.6400L1366.7400 706.6400L1366.7400 667.5800Q1366.7400 661.2800 1364.7800 657.5700Q1362.8200 653.8600 1359.7400 652.3200Q1356.6600 650.7800 1353.1600 650.7800L1353.1600 650.7800Q1349.9400 650.7800 1346.8600 652.3900Q1343.7800 654 1341.8200 657.6400Q1339.8600 661.2800 1339.8600 667.5800L1339.8600 667.5800L1339.8600 706.6400Q1339.8600 708.0400 1338.8800 709.0200Q1337.9000 710 1336.5000 710L1336.5000 710ZM1468.8000 711.4000L1468.8000 711.4000Q1461.5200 711.4000 1455.6400 708.5300Q1449.7600 705.6600 1446.3300 700.8300Q1442.9000 696 1442.9000 689.9800L1442.9000 689.9800Q1442.9000 680.1800 1450.8800 674.3700Q1458.8600 668.5600 1471.7400 666.6000L1471.7400 666.6000L1490.9200 663.8000L1490.9200 660.8600Q1490.9200 654.9800 1487.9800 651.7600Q1485.0400 648.5400 1477.9000 648.5400L1477.9000 648.5400Q1472.8600 648.5400 1469.7100 650.5700Q1466.5600 652.6000 1465.0200 655.9600L1465.0200 655.9600Q1463.9000 657.7800 1461.8000 657.7800L1461.8000 657.7800L1450.7400 657.7800Q1449.2000 657.7800 1448.4300 656.9400Q1447.6600 656.1000 1447.6600 654.7000L1447.6600 654.7000Q1447.8000 652.4600 1449.5500 649.2400Q1451.3000 646.0200 1454.8700 643.0100Q1458.4400 640 1464.1800 637.9000Q1469.9200 635.8000 1478.0400 635.8000L1478.0400 635.8000Q1486.8600 635.8000 1492.9500 637.9700Q1499.0400 640.1400 1502.6800 643.7800Q1506.3200 647.4200 1508 652.3200Q1509.6800 657.2200 1509.6800 662.6800L1509.6800 662.6800L1509.6800 706.6400Q1509.6800 708.0400 1508.7000 709.0200Q1507.7200 710 1506.3200 710L1506.3200 710L1494.9800 710Q1493.4400 710 1492.5300 709.0200Q1491.6200 708.0400 1491.6200 706.6400L1491.6200 706.6400L1491.6200 701.1800Q1489.8000 703.7000 1486.7200 706.0800Q1483.6400 708.4600 1479.2300 709.9300Q1474.8200 711.4000 1468.8000 711.4000ZM1473.5600 698.1000L1473.5600 698.1000Q1478.4600 698.1000 1482.4500 696Q1486.4400 693.9000 1488.7500 689.4900Q1491.0600 685.0800 1491.0600 678.3600L1491.0600 678.3600L1491.0600 675.4200L1477.0600 677.6600Q1468.8000 678.9200 1464.7400 681.7200Q1460.6800 684.5200 1460.6800 688.5800L1460.6800 688.5800Q1460.6800 691.6600 1462.5700 693.8300Q1464.4600 696 1467.4000 697.0500Q1470.3400 698.1000 1473.5600 698.1000ZM1542.5800 710L1530.9600 710Q1529.5600 710 1528.5800 709.0200Q1527.6000 708.0400 1527.6000 706.6400L1527.6000 706.6400L1527.6000 640.5600Q1527.6000 639.1600 1528.5800 638.1800Q1529.5600 637.2000 1530.9600 637.2000L1530.9600 637.2000L1542.5800 637.2000Q1544.1200 637.2000 1545.0300 638.1800Q1545.9400 639.1600 1545.9400 640.5600L1545.9400 640.5600L1545.9400 706.6400Q1545.9400 708.0400 1545.0300 709.0200Q1544.1200 710 1542.5800 710L1542.5800 710ZM1543.1400 625.1600L1530.4000 625.1600Q1529.0000 625.1600 1528.0200 624.1800Q1527.0400 623.2000 1527.0400 621.8000L1527.0400 621.8000L1527.0400 611.7200Q1527.0400 610.3200 1528.0200 609.3400Q1529.0000 608.3600 1530.4000 608.3600L1530.4000 608.3600L1543.1400 608.3600Q1544.6800 608.3600 1545.6600 609.3400Q1546.6400 610.3200 1546.6400 611.7200L1546.6400 611.7200L1546.6400 621.8000Q1546.6400 623.2000 1545.6600 624.1800Q1544.6800 625.1600 1543.1400 625.1600L1543.1400 625.1600ZM1592.1400 711.4000L1592.1400 711.4000Q1583.7400 711.4000 1577.7900 709.4400Q1571.8400 707.4800 1568.0600 704.5400Q1564.2800 701.6000 1562.4600 698.6600Q1560.6400 695.7200 1560.5000 693.7600L1560.5000 693.7600Q1560.3600 692.2200 1561.4100 691.3100Q1562.4600 690.4000 1563.7200 690.4000L1563.7200 690.4000L1574.7800 690.4000Q1575.3400 690.4000 1575.7600 690.5400Q1576.1800 690.6800 1576.8800 691.3800L1576.8800 691.3800Q1578.7000 692.9200 1580.7300 694.6000Q1582.7600 696.2800 1585.5600 697.4700Q1588.3600 698.6600 1592.5600 698.6600L1592.5600 698.6600Q1598.0200 698.6600 1601.7300 696.4900Q1605.4400 694.3200 1605.4400 690.2600L1605.4400 690.2600Q1605.4400 687.3200 1603.8300 685.5000Q1602.2200 683.6800 1597.8800 682.2100Q1593.5400 680.7400 1585.5600 679.0600L1585.5600 679.0600Q1577.7200 677.2400 1572.5400 674.4400Q1567.3600 671.6400 1564.8400 667.4400Q1562.3200 663.2400 1562.3200 657.6400L1562.3200 657.6400Q1562.3200 652.1800 1565.6100 647.2100Q1568.9000 642.2400 1575.4100 639.0200Q1581.9200 635.8000 1591.5800 635.8000L1591.5800 635.8000Q1599.1400 635.8000 1604.7400 637.6900Q1610.3400 639.5800 1614.0500 642.3800Q1617.7600 645.1800 1619.7200 648.0500Q1621.6800 650.9200 1621.8200 653.0200L1621.8200 653.0200Q1621.9600 654.5600 1620.9800 655.4700Q1620.0000 656.3800 1618.7400 656.3800L1618.7400 656.3800L1608.3800 656.3800Q1607.6800 656.3800 1607.1200 656.1000Q1606.5600 655.8200 1606.0000 655.4000L1606.0000 655.4000Q1604.4600 654 1602.6400 652.3900Q1600.8200 650.7800 1598.2300 649.6600Q1595.6400 648.5400 1591.4400 648.5400L1591.4400 648.5400Q1586.1200 648.5400 1583.3200 650.8500Q1580.5200 653.1600 1580.5200 656.6600L1580.5200 656.6600Q1580.5200 659.0400 1581.8500 660.7900Q1583.1800 662.5400 1587.2400 664.0800Q1591.3000 665.6200 1599.5600 667.3000L1599.5600 667.3000Q1608.9400 668.9800 1614.4700 672.2700Q1620.0000 675.5600 1622.3100 679.8300Q1624.6200 684.1000 1624.6200 689.2800L1624.6200 689.2800Q1624.6200 695.5800 1620.9100 700.6200Q1617.2000 705.6600 1609.9900 708.5300Q1602.7800 711.4000 1592.1400 711.4000ZM174.6400 876.6000L162.7400 876.6000Q161.3400 876.6000 160.3600 875.6200Q159.3800 874.6400 159.3800 873.2400L159.3800 873.2400L159.3800 780.5600Q159.3800 779.1600 160.3600 778.1800Q161.3400 777.2000 162.7400 777.2000L162.7400 777.2000L173.8000 777.2000Q175.3400 777.2000 176.2500 778.1800Q177.1600 779.1600 177.1600 780.5600L177.1600 780.5600L177.1600 786.1600Q180.5200 781.6800 185.9800 778.7400Q191.4400 775.8000 199.5600 775.8000L199.5600 775.8000Q206.9800 775.8000 212.4400 778.1800Q217.9000 780.5600 221.5400 784.9700Q225.1800 789.3800 227.1400 795.4000Q229.1000 801.4200 229.3800 808.7000L229.3800 808.7000Q229.5200 811.0800 229.5200 813.6000Q229.5200 816.1200 229.3800 818.6400L229.3800 818.6400Q229.2400 825.6400 227.2800 831.5900Q225.3200 837.5400 221.6100 841.9500Q217.9000 846.3600 212.4400 848.8800Q206.9800 851.4000 199.5600 851.4000L199.5600 851.4000Q192 851.4000 186.6800 848.6700Q181.3600 845.9400 178 841.4600L178 841.4600L178 873.2400Q178 874.6400 177.0900 875.6200Q176.1800 876.6000 174.6400 876.6000L174.6400 876.6000ZM194.3800 836.4200L194.3800 836.4200Q200.4000 836.4200 203.7600 833.8300Q207.1200 831.2400 208.6600 827.0400Q210.2000 822.8400 210.4800 817.8000L210.4800 817.8000Q210.6200 813.6000 210.4800 809.4000L210.4800 809.4000Q210.2000 804.3600 208.6600 800.1600Q207.1200 795.9600 203.7600 793.3700Q200.4000 790.7800 194.3800 790.7800L194.3800 790.7800Q188.6400 790.7800 185.0700 793.4400Q181.5000 796.1000 179.8900 800.2300Q178.2800 804.3600 178 808.7000L178 808.7000Q177.8600 811.2200 177.8600 814.0200Q177.8600 816.8200 178 819.4800L178 819.4800Q178.1400 823.6800 179.9600 827.5300Q181.7800 831.3800 185.2800 833.9000Q188.7800 836.4200 194.3800 836.4200ZM277.4000 851.4000L277.4000 851.4000Q266.2000 851.4000 258.5700 847.4800Q250.9400 843.5600 246.9500 836.4200Q242.9600 829.2800 242.4000 819.7600L242.4000 819.7600Q242.2600 817.2400 242.2600 813.6000Q242.2600 809.9600 242.4000 807.4400L242.4000 807.4400Q242.9600 797.7800 247.0900 790.7100Q251.2200 783.6400 258.8500 779.7200Q266.4800 775.8000 277.4000 775.8000L277.4000 775.8000Q288.3200 775.8000 295.9500 779.7200Q303.5800 783.6400 307.7100 790.7100Q311.8400 797.7800 312.4000 807.4400L312.4000 807.4400Q312.5400 809.9600 312.5400 813.6000Q312.5400 817.2400 312.4000 819.7600L312.4000 819.7600Q311.8400 829.2800 307.8500 836.4200Q303.8600 843.5600 296.2300 847.4800Q288.6000 851.4000 277.4000 851.4000ZM277.4000 837.5400L277.4000 837.5400Q284.8200 837.5400 288.8800 832.8500Q292.9400 828.1600 293.3600 819.0600L293.3600 819.0600Q293.5000 816.9600 293.5000 813.6000Q293.5000 810.2400 293.3600 808.1400L293.3600 808.1400Q292.9400 799.0400 288.8800 794.3500Q284.8200 789.6600 277.4000 789.6600L277.4000 789.6600Q269.9800 789.6600 265.9200 794.3500Q261.8600 799.0400 261.4400 808.1400L261.4400 808.1400Q261.3000 810.2400 261.3000 813.6000Q261.3000 816.9600 261.4400 819.0600L261.4400 819.0600Q261.8600 828.1600 265.9200 832.8500Q269.9800 837.5400 277.4000 837.5400ZM343.4800 876.6000L331.5800 876.6000Q330.1800 876.6000 329.2000 875.6200Q328.2200 874.6400 328.2200 873.2400L328.2200 873.2400L328.2200 780.5600Q328.2200 779.1600 329.2000 778.1800Q330.1800 777.2000 331.5800 777.2000L331.5800 777.2000L342.6400 777.2000Q344.1800 777.2000 345.0900 778.1800Q346.0000 779.1600 346.0000 780.5600L346.0000 780.5600L346.0000 786.1600Q349.3600 781.6800 354.8200 778.7400Q360.2800 775.8000 368.4000 775.8000L368.4000 775.8000Q375.8200 775.8000 381.2800 778.1800Q386.7400 780.5600 390.3800 784.9700Q394.0200 789.3800 395.9800 795.4000Q397.9400 801.4200 398.2200 808.7000L398.2200 808.7000Q398.3600 811.0800 398.3600 813.6000Q398.3600 816.1200 398.2200 818.6400L398.2200 818.6400Q398.0800 825.6400 396.1200 831.5900Q394.1600 837.5400 390.4500 841.9500Q386.7400 846.3600 381.2800 848.8800Q375.8200 851.4000 368.4000 851.4000L368.4000 851.4000Q360.8400 851.4000 355.5200 848.6700Q350.2000 845.9400 346.8400 841.4600L346.8400 841.4600L346.8400 873.2400Q346.8400 874.6400 345.9300 875.6200Q345.0200 876.6000 343.4800 876.6000L343.4800 876.6000ZM363.2200 836.4200L363.2200 836.4200Q369.2400 836.4200 372.6000 833.8300Q375.9600 831.2400 377.5000 827.0400Q379.0400 822.8400 379.3200 817.8000L379.3200 817.8000Q379.4600 813.6000 379.3200 809.4000L379.3200 809.4000Q379.0400 804.3600 377.5000 800.1600Q375.9600 795.9600 372.6000 793.3700Q369.2400 790.7800 363.2200 790.7800L363.2200 790.7800Q357.4800 790.7800 353.9100 793.4400Q350.3400 796.1000 348.7300 800.2300Q347.1200 804.3600 346.8400 808.7000L346.8400 808.7000Q346.7000 811.2200 346.7000 814.0200Q346.7000 816.8200 346.8400 819.4800L346.8400 819.4800Q346.9800 823.6800 348.8000 827.5300Q350.6200 831.3800 354.1200 833.9000Q357.6200 836.4200 363.2200 836.4200ZM441.0600 851.4000L441.0600 851.4000Q432.5200 851.4000 426.2900 847.5500Q420.0600 843.7000 416.7000 836.6300Q413.3400 829.5600 413.3400 819.9000L413.3400 819.9000L413.3400 780.5600Q413.3400 779.1600 414.3200 778.1800Q415.3000 777.2000 416.7000 777.2000L416.7000 777.2000L429.0200 777.2000Q430.5600 777.2000 431.4700 778.1800Q432.3800 779.1600 432.3800 780.5600L432.3800 780.5600L432.3800 819.0600Q432.3800 836.4200 447.6400 836.4200L447.6400 836.4200Q454.9200 836.4200 459.1900 831.8000Q463.4600 827.1800 463.4600 819.0600L463.4600 819.0600L463.4600 780.5600Q463.4600 779.1600 464.4400 778.1800Q465.4200 777.2000 466.8200 777.2000L466.8200 777.2000L479.1400 777.2000Q480.5400 777.2000 481.5200 778.1800Q482.5000 779.1600 482.5000 780.5600L482.5000 780.5600L482.5000 846.6400Q482.5000 848.0400 481.5200 849.0200Q480.5400 850 479.1400 850L479.1400 850L467.8000 850Q466.2600 850 465.3500 849.0200Q464.4400 848.0400 464.4400 846.6400L464.4400 846.6400L464.4400 840.9000Q460.6600 845.8000 455.0600 848.6000Q449.4600 851.4000 441.0600 851.4000ZM516.1000 850L504.4800 850Q503.0800 850 502.1000 849.0200Q501.1200 848.0400 501.1200 846.6400L501.1200 846.6400L501.1200 753.9600Q501.1200 752.5600 502.1000 751.5800Q503.0800 750.6000 504.4800 750.6000L504.4800 750.6000L516.1000 750.6000Q517.5000 750.6000 518.4800 751.5800Q519.4600 752.5600 519.4600 753.9600L519.4600 753.9600L519.4600 846.6400Q519.4600 848.0400 518.4800 849.0200Q517.5000 850 516.1000 850L516.1000 850ZM559.2200 851.4000L559.2200 851.4000Q551.9400 851.4000 546.0600 848.5300Q540.1800 845.6600 536.7500 840.8300Q533.3200 836 533.3200 829.9800L533.3200 829.9800Q533.3200 820.1800 541.3000 814.3700Q549.2800 808.5600 562.1600 806.6000L562.1600 806.6000L581.3400 803.8000L581.3400 800.8600Q581.3400 794.9800 578.4000 791.7600Q575.4600 788.5400 568.3200 788.5400L568.3200 788.5400Q563.2800 788.5400 560.1300 790.5700Q556.9800 792.6000 555.4400 795.9600L555.4400 795.9600Q554.3200 797.7800 552.2200 797.7800L552.2200 797.7800L541.1600 797.7800Q539.6200 797.7800 538.8500 796.9400Q538.0800 796.1000 538.0800 794.7000L538.0800 794.7000Q538.2200 792.4600 539.9700 789.2400Q541.7200 786.0200 545.2900 783.0100Q548.8600 780 554.6000 777.9000Q560.3400 775.8000 568.4600 775.8000L568.4600 775.8000Q577.2800 775.8000 583.3700 777.9700Q589.4600 780.1400 593.1000 783.7800Q596.7400 787.4200 598.4200 792.3200Q600.1000 797.2200 600.1000 802.6800L600.1000 802.6800L600.1000 846.6400Q600.1000 848.0400 599.1200 849.0200Q598.1400 850 596.7400 850L596.7400 850L585.4000 850Q583.8600 850 582.9500 849.0200Q582.0400 848.0400 582.0400 846.6400L582.0400 846.6400L582.0400 841.1800Q580.2200 843.7000 577.1400 846.0800Q574.0600 848.4600 569.6500 849.9300Q565.2400 851.4000 559.2200 851.4000ZM563.9800 838.1000L563.9800 838.1000Q568.8800 838.1000 572.8700 836Q576.8600 833.9000 579.1700 829.4900Q581.4800 825.0800 581.4800 818.3600L581.4800 818.3600L581.4800 815.4200L567.4800 817.6600Q559.2200 818.9200 555.1600 821.7200Q551.1000 824.5200 551.1000 828.5800L551.1000 828.5800Q551.1000 831.6600 552.9900 833.8300Q554.8800 836 557.8200 837.0500Q560.7600 838.1000 563.9800 838.1000ZM633.5600 850L621.3800 850Q619.9800 850 619.0000 849.0200Q618.0200 848.0400 618.0200 846.6400L618.0200 846.6400L618.0200 780.7000Q618.0200 779.1600 619.0000 778.1800Q619.9800 777.2000 621.3800 777.2000L621.3800 777.2000L632.7200 777.2000Q634.1200 777.2000 635.1700 778.1800Q636.2200 779.1600 636.2200 780.7000L636.2200 780.7000L636.2200 786.4400Q639.4400 781.9600 644.5500 779.5800Q649.6600 777.2000 656.3800 777.2000L656.3800 777.2000L662.1200 777.2000Q663.6600 777.2000 664.5700 778.1800Q665.4800 779.1600 665.4800 780.5600L665.4800 780.5600L665.4800 790.6400Q665.4800 792.0400 664.5700 793.0200Q663.6600 794 662.1200 794L662.1200 794L651.2000 794Q644.4800 794 640.7700 797.7100Q637.0600 801.4200 637.0600 808.1400L637.0600 808.1400L637.0600 846.6400Q637.0600 848.0400 636.0800 849.0200Q635.1000 850 633.5600 850L633.5600 850ZM707.7600 851.4000L707.7600 851.4000Q692.2200 851.4000 683.1200 842.4400Q674.0200 833.4800 673.3200 816.9600L673.3200 816.9600Q673.1800 815.5600 673.1800 813.3900Q673.1800 811.2200 673.3200 809.9600L673.3200 809.9600Q673.8800 799.3200 678.1500 791.6900Q682.4200 784.0600 689.9800 779.9300Q697.5400 775.8000 707.7600 775.8000L707.7600 775.8000Q719.1000 775.8000 726.8000 780.4900Q734.5000 785.1800 738.4200 793.5100Q742.3400 801.8400 742.3400 812.7600L742.3400 812.7600L742.3400 815.7000Q742.3400 817.1000 741.3600 818.0800Q740.3800 819.0600 738.8400 819.0600L738.8400 819.0600L692.3600 819.0600Q692.3600 819.0600 692.3600 819.4800Q692.3600 819.9000 692.3600 820.1800L692.3600 820.1800Q692.5000 825.0800 694.2500 829.2100Q696.0000 833.3400 699.4300 835.8600Q702.8600 838.3800 707.6200 838.3800L707.6200 838.3800Q711.5400 838.3800 714.2000 837.1900Q716.8600 836 718.5400 834.4600Q720.2200 832.9200 720.9200 831.9400L720.9200 831.9400Q722.1800 830.2600 722.9500 829.9100Q723.7200 829.5600 725.2600 829.5600L725.2600 829.5600L737.3000 829.5600Q738.7000 829.5600 739.6100 830.4000Q740.5200 831.2400 740.3800 832.5000L740.3800 832.5000Q740.2400 834.7400 738.0700 837.9600Q735.9000 841.1800 731.8400 844.2600Q727.7800 847.3400 721.6900 849.3700Q715.6000 851.4000 707.7600 851.4000ZM692.3600 806.8800L692.3600 807.3000L723.3000 807.3000L723.3000 806.8800Q723.3000 801.4200 721.4800 797.2900Q719.6600 793.1600 716.1600 790.8500Q712.6600 788.5400 707.7600 788.5400L707.7600 788.5400Q702.8600 788.5400 699.3600 790.8500Q695.8600 793.1600 694.1100 797.2900Q692.3600 801.4200 692.3600 806.8800L692.3600 806.8800ZM784.7600 851.4000L784.7600 851.4000Q776.3600 851.4000 770.4100 849.4400Q764.4600 847.4800 760.6800 844.5400Q756.9000 841.6000 755.0800 838.6600Q753.2600 835.7200 753.1200 833.7600L753.1200 833.7600Q752.9800 832.2200 754.0300 831.3100Q755.0800 830.4000 756.3400 830.4000L756.3400 830.4000L767.4000 830.4000Q767.9600 830.4000 768.3800 830.5400Q768.8000 830.6800 769.5000 831.3800L769.5000 831.3800Q771.3200 832.9200 773.3500 834.6000Q775.3800 836.2800 778.1800 837.4700Q780.9800 838.6600 785.1800 838.6600L785.1800 838.6600Q790.6400 838.6600 794.3500 836.4900Q798.0600 834.3200 798.0600 830.2600L798.0600 830.2600Q798.0600 827.3200 796.4500 825.5000Q794.8400 823.6800 790.5000 822.2100Q786.1600 820.7400 778.1800 819.0600L778.1800 819.0600Q770.3400 817.2400 765.1600 814.4400Q759.9800 811.6400 757.4600 807.4400Q754.9400 803.2400 754.9400 797.6400L754.9400 797.6400Q754.9400 792.1800 758.2300 787.2100Q761.5200 782.2400 768.0300 779.0200Q774.5400 775.8000 784.2000 775.8000L784.2000 775.8000Q791.7600 775.8000 797.3600 777.6900Q802.9600 779.5800 806.6700 782.3800Q810.3800 785.1800 812.3400 788.0500Q814.3000 790.9200 814.4400 793.0200L814.4400 793.0200Q814.5800 794.5600 813.6000 795.4700Q812.6200 796.3800 811.3600 796.3800L811.3600 796.3800L801 796.3800Q800.3000 796.3800 799.7400 796.1000Q799.1800 795.8200 798.6200 795.4000L798.6200 795.4000Q797.0800 794 795.2600 792.3900Q793.4400 790.7800 790.8500 789.6600Q788.2600 788.5400 784.0600 788.5400L784.0600 788.5400Q778.7400 788.5400 775.9400 790.8500Q773.1400 793.1600 773.1400 796.6600L773.1400 796.6600Q773.1400 799.0400 774.4700 800.7900Q775.8000 802.5400 779.8600 804.0800Q783.9200 805.6200 792.1800 807.3000L792.1800 807.3000Q801.5600 808.9800 807.0900 812.2700Q812.6200 815.5600 814.9300 819.8300Q817.2400 824.1000 817.2400 829.2800L817.2400 829.2800Q817.2400 835.5800 813.5300 840.6200Q809.8200 845.6600 802.6100 848.5300Q795.4000 851.4000 784.7600 851.4000Z" id="title"/></g></svg>