<svg xmlns="http://www.w3.org/2000/svg" version="1.1" xmlns:xlink="http://www.w3.org/1999/xlink" xmlns:svgjs="http://svgjs.dev/svgjs" viewBox="0 0 1920 1080" id="2da502d1-9377-4a4e-8bb9-17fb52921396"><g><rect width="1920" height="1080" fill="#63264a"/></g><g fill="#6e8530"><path d="M969.5 217C561.465 217 231 547.465 231 955.5C231 1363.53 561.465 1694 969.5 1694C1377.53 1694 1708 1363.53 1708 955.5C1708 547.465 1377.53 217 969.5 217ZM969.5 1309.34C773.983 1309.34 615.658 1151.02 615.658 955.5C615.658 759.983 773.983 601.658 969.5 601.658C1165.02 601.658 1323.34 759.983 1323.34 955.5C1323.34 1151.02 1165.02 1309.34 969.5 1309.34Z"/></g><g fill="#ffffff" opacity="0.2"><path d="M1432 918.479L1616.48 734V918.479H1432Z"/><path d="M1616.48 918.479L1800.52 734V918.479H1616.48Z"/><path d="M1800.52 918.479L1985 734V918.479H1800.52Z"/><path d="M1432 1102.52L1616.48 918.479V1102.52H1432Z"/><path d="M1616.48 1102.52L1800.52 918.479V1102.52H1616.48Z"/><path d="M1800.52 1102.52L1985 918.479V1102.52H1800.52Z"/><path d="M499 154.521L683.479 -29.5215V154.521H499Z"/><path d="M683.479 154.521L867.521 -29.5215V154.521H683.479Z"/><path d="M867.521 154.521L1052 -29.5215V154.521H867.521Z"/><path d="M499 339L683.479 154.521V339H499Z"/><path d="M683.479 339L867.521 154.521V339H683.479Z"/><path d="M867.521 339L1052 154.521V339H867.521Z"/></g><g><path d="M178.635 139.281L184.422 144.246V166.626H215.704L219.958 172.147L215.69 177.397H184.422V198.795L178.635 203.747L173 198.795V144.232L178.635 139.281ZM195.554 195.68H219.406L223.397 200.915L219.143 206.45H195.554L191.7 201.342L195.554 195.68ZM196.382 138H219.129L223.383 143.52L219.129 148.77H196.659L192.115 143.677L196.382 138ZM323.155 148.628L328.251 154.291L323.155 159.968H246.13L241.172 154.291L246.13 148.628H323.155ZM237.043 172.147L241.849 167.893L246.669 172.147V178.393C246.669 188.879 249.417 197.515 261.668 197.515H264.14C275.147 197.515 281.197 189.86 281.197 177.952V172.005L285.879 167.75L290.699 171.862V178.379C290.699 189.007 293.723 196.946 305.56 196.946H307.618C319.178 196.946 321.235 187.869 321.373 177.952V171.578L326.056 167.608L331 171.72V178.094C330.862 191.838 327.285 207.574 308.032 207.574H305.974C294.552 207.574 288.365 202.324 285.892 195.808C283.006 202.466 275.299 208.286 264.844 208.286H262.358C242.553 208.286 237.194 195.964 237.056 178.663V172.147H237.043ZM276.391 274.744L273.642 267.089L280.796 264.969L305.974 276.721V252.491L311.07 248.095L316.291 252.491V281.829L325.641 286.226L328.251 293.311L320.959 296L276.391 274.744ZM321.235 223.011L328.113 226.27L325.917 233.497L264.002 263.119L256.571 260.146L259.596 252.776L321.235 223.011ZM231.905 263.404L237.954 268.512C237.402 286.51 222.403 296 204.669 296H202.874C194.062 296 183.759 292.6 177.157 286.083L177.834 278.855L184.298 278.002C189.118 282.256 195.858 285.229 202.183 285.229H204.117C216.091 285.229 225.303 280.136 226.27 268.085L231.905 263.404ZM226.256 251.638C225.704 239.16 216.629 234.209 204.103 234.209H202.169C194.739 234.209 189.104 237.182 184.284 241.436L177.834 240.583L177.143 233.355C183.745 226.696 192.957 223.58 202.597 223.58H204.517C222.403 223.58 237.402 232.942 237.94 251.211L231.891 256.176L226.256 251.638Z" fill="#ffffff"/></g><g fill="#ffffff" id="info-group"><path d="M167.0800 500L154.9000 500Q153.7800 500 152.8700 499.1600Q151.9600 498.3200 151.9600 497.0600L151.9600 497.0600Q151.9600 496.5000 152.2400 495.8000L152.2400 495.8000L185.9800 405.5000Q186.4000 404.1000 187.5900 403.0500Q188.7800 402 190.8800 402L190.8800 402L206.1400 402Q208.2400 402 209.3600 403.0500Q210.4800 404.1000 211.0400 405.5000L211.0400 405.5000L244.7800 495.8000Q244.9200 496.5000 244.9200 497.0600L244.9200 497.0600Q244.9200 498.3200 244.0800 499.1600Q243.2400 500 242.1200 500L242.1200 500L229.9400 500Q227.9800 500 227.0700 499.0900Q226.1600 498.1800 225.8800 497.3400L225.8800 497.3400L219.3000 480.2600L177.7200 480.2600L171.1400 497.3400Q170.8600 498.1800 169.9500 499.0900Q169.0400 500 167.0800 500L167.0800 500ZM198.4400 420.9000L182.6200 464.1600L214.4000 464.1600L198.4400 420.9000ZM283.2800 501.4000L283.2800 501.4000Q274.7400 501.4000 268.5100 497.5500Q262.2800 493.7000 258.9200 486.6300Q255.5600 479.5600 255.5600 469.9000L255.5600 469.9000L255.5600 430.5600Q255.5600 429.1600 256.5400 428.1800Q257.5200 427.2000 258.9200 427.2000L258.9200 427.2000L271.2400 427.2000Q272.7800 427.2000 273.6900 428.1800Q274.6000 429.1600 274.6000 430.5600L274.6000 430.5600L274.6000 469.0600Q274.6000 486.4200 289.8600 486.4200L289.8600 486.4200Q297.1400 486.4200 301.4100 481.8000Q305.6800 477.1800 305.6800 469.0600L305.6800 469.0600L305.6800 430.5600Q305.6800 429.1600 306.6600 428.1800Q307.6400 427.2000 309.0400 427.2000L309.0400 427.2000L321.3600 427.2000Q322.7600 427.2000 323.7400 428.1800Q324.7200 429.1600 324.7200 430.5600L324.7200 430.5600L324.7200 496.6400Q324.7200 498.0400 323.7400 499.0200Q322.7600 500 321.3600 500L321.3600 500L310.0200 500Q308.4800 500 307.5700 499.0200Q306.6600 498.0400 306.6600 496.6400L306.6600 496.6400L306.6600 490.9000Q302.8800 495.8000 297.2800 498.6000Q291.6800 501.4000 283.2800 501.4000ZM358.3200 500L346.7000 500Q345.3000 500 344.3200 499.0200Q343.3400 498.0400 343.3400 496.6400L343.3400 496.6400L343.3400 403.9600Q343.3400 402.5600 344.3200 401.5800Q345.3000 400.6000 346.7000 400.6000L346.7000 400.6000L358.3200 400.6000Q359.7200 400.6000 360.7000 401.5800Q361.6800 402.5600 361.6800 403.9600L361.6800 403.9600L361.6800 496.6400Q361.6800 498.0400 360.7000 499.0200Q359.7200 500 358.3200 500L358.3200 500ZM401.4400 501.4000L401.4400 501.4000Q394.1600 501.4000 388.2800 498.5300Q382.4000 495.6600 378.9700 490.8300Q375.5400 486 375.5400 479.9800L375.5400 479.9800Q375.5400 470.1800 383.5200 464.3700Q391.5000 458.5600 404.3800 456.6000L404.3800 456.6000L423.5600 453.8000L423.5600 450.8600Q423.5600 444.9800 420.6200 441.7600Q417.6800 438.5400 410.5400 438.5400L410.5400 438.5400Q405.5000 438.5400 402.3500 440.5700Q399.2000 442.6000 397.6600 445.9600L397.6600 445.9600Q396.5400 447.7800 394.4400 447.7800L394.4400 447.7800L383.3800 447.7800Q381.8400 447.7800 381.0700 446.9400Q380.3000 446.1000 380.3000 444.7000L380.3000 444.7000Q380.4400 442.4600 382.1900 439.2400Q383.9400 436.0200 387.5100 433.0100Q391.0800 430 396.8200 427.9000Q402.5600 425.8000 410.6800 425.8000L410.6800 425.8000Q419.5000 425.8000 425.5900 427.9700Q431.6800 430.1400 435.3200 433.7800Q438.9600 437.4200 440.6400 442.3200Q442.3200 447.2200 442.3200 452.6800L442.3200 452.6800L442.3200 496.6400Q442.3200 498.0400 441.3400 499.0200Q440.3600 500 438.9600 500L438.9600 500L427.6200 500Q426.0800 500 425.1700 499.0200Q424.2600 498.0400 424.2600 496.6400L424.2600 496.6400L424.2600 491.1800Q422.4400 493.7000 419.3600 496.0800Q416.2800 498.4600 411.8700 499.9300Q407.4600 501.4000 401.4400 501.4000ZM406.2000 488.1000L406.2000 488.1000Q411.1000 488.1000 415.0900 486Q419.0800 483.9000 421.3900 479.4900Q423.7000 475.0800 423.7000 468.3600L423.7000 468.3600L423.7000 465.4200L409.7000 467.6600Q401.4400 468.9200 397.3800 471.7200Q393.3200 474.5200 393.3200 478.5800L393.3200 478.5800Q393.3200 481.6600 395.2100 483.8300Q397.1000 486 400.0400 487.0500Q402.9800 488.1000 406.2000 488.1000ZM534.5800 500L521.8400 500Q520.3000 500 519.3900 499.0200Q518.4800 498.0400 518.4800 496.6400L518.4800 496.6400L518.4800 424.1200L497.2000 440.5000Q495.9400 441.3400 494.6800 441.1300Q493.4200 440.9200 492.4400 439.6600L492.4400 439.6600L486.5600 432.1000Q485.7200 430.8400 485.9300 429.4400Q486.1400 428.0400 487.4000 427.2000L487.4000 427.2000L518.7600 402.9800Q519.6000 402.2800 520.4400 402.1400Q521.2800 402 522.2600 402L522.2600 402L534.5800 402Q535.9800 402 536.9600 402.9800Q537.9400 403.9600 537.9400 405.3600L537.9400 405.3600L537.9400 496.6400Q537.9400 498.0400 536.9600 499.0200Q535.9800 500 534.5800 500L534.5800 500ZM573.9200 451L560.0600 451Q558.6600 451 557.6800 450.0200Q556.7000 449.0400 556.7000 447.6400L556.7000 447.6400L556.7000 434.3400Q556.7000 432.8000 557.6800 431.8200Q558.6600 430.8400 560.0600 430.8400L560.0600 430.8400L573.9200 430.8400Q575.4600 430.8400 576.4400 431.8200Q577.4200 432.8000 577.4200 434.3400L577.4200 434.3400L577.4200 447.6400Q577.4200 449.0400 576.4400 450.0200Q575.4600 451 573.9200 451L573.9200 451ZM573.9200 500L560.0600 500Q558.6600 500 557.6800 499.0200Q556.7000 498.0400 556.7000 496.6400L556.7000 496.6400L556.7000 483.3400Q556.7000 481.8000 557.6800 480.8200Q558.6600 479.8400 560.0600 479.8400L560.0600 479.8400L573.9200 479.8400Q575.4600 479.8400 576.4400 480.8200Q577.4200 481.8000 577.4200 483.3400L577.4200 483.3400L577.4200 496.6400Q577.4200 498.0400 576.4400 499.0200Q575.4600 500 573.9200 500L573.9200 500ZM645.7400 500L632.5800 500Q631.1800 500 630.2000 499.0200Q629.2200 498.0400 629.2200 496.6400L629.2200 496.6400L629.2200 405.3600Q629.2200 403.9600 630.2000 402.9800Q631.1800 402 632.5800 402L632.5800 402L645.7400 402Q647.2800 402 648.1900 402.9800Q649.1000 403.9600 649.1000 405.3600L649.1000 405.3600L649.1000 496.6400Q649.1000 498.0400 648.1900 499.0200Q647.2800 500 645.7400 500L645.7400 500ZM685.0800 500L672.7600 500Q671.3600 500 670.3800 499.0200Q669.4000 498.0400 669.4000 496.6400L669.4000 496.6400L669.4000 430.5600Q669.4000 429.1600 670.3800 428.1800Q671.3600 427.2000 672.7600 427.2000L672.7600 427.2000L684.2400 427.2000Q685.6400 427.2000 686.6200 428.1800Q687.6000 429.1600 687.6000 430.5600L687.6000 430.5600L687.6000 436.3000Q691.2400 431.8200 696.9100 428.8100Q702.5800 425.8000 710.9800 425.8000L710.9800 425.8000Q719.5200 425.8000 725.8200 429.6500Q732.1200 433.5000 735.5500 440.5000Q738.9800 447.5000 738.9800 457.3000L738.9800 457.3000L738.9800 496.6400Q738.9800 498.0400 738.0000 499.0200Q737.0200 500 735.6200 500L735.6200 500L723.3000 500Q721.9000 500 720.9200 499.0200Q719.9400 498.0400 719.9400 496.6400L719.9400 496.6400L719.9400 458.1400Q719.9400 450.0200 715.9500 445.4000Q711.9600 440.7800 704.4000 440.7800L704.4000 440.7800Q697.1200 440.7800 692.7800 445.4000Q688.4400 450.0200 688.4400 458.1400L688.4400 458.1400L688.4400 496.6400Q688.4400 498.0400 687.4600 499.0200Q686.4800 500 685.0800 500L685.0800 500ZM801.0000 500L789.6600 500Q781.2600 500 775.5200 497.0600Q769.7800 494.1200 766.9800 488.3100Q764.1800 482.5000 764.1800 473.8200L764.1800 473.8200L764.1800 442.0400L753.1200 442.0400Q751.7200 442.0400 750.7400 441.0600Q749.7600 440.0800 749.7600 438.5400L749.7600 438.5400L749.7600 430.5600Q749.7600 429.1600 750.7400 428.1800Q751.7200 427.2000 753.1200 427.2000L753.1200 427.2000L764.1800 427.2000L764.1800 403.9600Q764.1800 402.5600 765.0900 401.5800Q766.0000 400.6000 767.5400 400.6000L767.5400 400.6000L778.8800 400.6000Q780.2800 400.6000 781.2600 401.5800Q782.2400 402.5600 782.2400 403.9600L782.2400 403.9600L782.2400 427.2000L799.7400 427.2000Q801.1400 427.2000 802.1200 428.1800Q803.1000 429.1600 803.1000 430.5600L803.1000 430.5600L803.1000 438.5400Q803.1000 440.0800 802.1200 441.0600Q801.1400 442.0400 799.7400 442.0400L799.7400 442.0400L782.2400 442.0400L782.2400 472.4200Q782.2400 478.1600 784.2700 481.3800Q786.3000 484.6000 791.3400 484.6000L791.3400 484.6000L801.0000 484.6000Q802.4000 484.6000 803.3800 485.5800Q804.3600 486.5600 804.3600 487.9600L804.3600 487.9600L804.3600 496.6400Q804.3600 498.0400 803.3800 499.0200Q802.4000 500 801.0000 500L801.0000 500ZM832.3600 500L820.1800 500Q818.7800 500 817.8000 499.0200Q816.8200 498.0400 816.8200 496.6400L816.8200 496.6400L816.8200 430.7000Q816.8200 429.1600 817.8000 428.1800Q818.7800 427.2000 820.1800 427.2000L820.1800 427.2000L831.5200 427.2000Q832.9200 427.2000 833.9700 428.1800Q835.0200 429.1600 835.0200 430.7000L835.0200 430.7000L835.0200 436.4400Q838.2400 431.9600 843.3500 429.5800Q848.4600 427.2000 855.1800 427.2000L855.1800 427.2000L860.9200 427.2000Q862.4600 427.2000 863.3700 428.1800Q864.2800 429.1600 864.2800 430.5600L864.2800 430.5600L864.2800 440.6400Q864.2800 442.0400 863.3700 443.0200Q862.4600 444 860.9200 444L860.9200 444L850.0000 444Q843.2800 444 839.5700 447.7100Q835.8600 451.4200 835.8600 458.1400L835.8600 458.1400L835.8600 496.6400Q835.8600 498.0400 834.8800 499.0200Q833.9000 500 832.3600 500L832.3600 500ZM907.4000 501.4000L907.4000 501.4000Q896.2000 501.4000 888.5700 497.4800Q880.9400 493.5600 876.9500 486.4200Q872.9600 479.2800 872.4000 469.7600L872.4000 469.7600Q872.2600 467.2400 872.2600 463.6000Q872.2600 459.9600 872.4000 457.4400L872.4000 457.4400Q872.9600 447.7800 877.0900 440.7100Q881.2200 433.6400 888.8500 429.7200Q896.4800 425.8000 907.4000 425.8000L907.4000 425.8000Q918.3200 425.8000 925.9500 429.7200Q933.5800 433.6400 937.7100 440.7100Q941.8400 447.7800 942.4000 457.4400L942.4000 457.4400Q942.5400 459.9600 942.5400 463.6000Q942.5400 467.2400 942.4000 469.7600L942.4000 469.7600Q941.8400 479.2800 937.8500 486.4200Q933.8600 493.5600 926.2300 497.4800Q918.6000 501.4000 907.4000 501.4000ZM907.4000 487.5400L907.4000 487.5400Q914.8200 487.5400 918.8800 482.8500Q922.9400 478.1600 923.3600 469.0600L923.3600 469.0600Q923.5000 466.9600 923.5000 463.6000Q923.5000 460.2400 923.3600 458.1400L923.3600 458.1400Q922.9400 449.0400 918.8800 444.3500Q914.8200 439.6600 907.4000 439.6600L907.4000 439.6600Q899.9800 439.6600 895.9200 444.3500Q891.8600 449.0400 891.4400 458.1400L891.4400 458.1400Q891.3000 460.2400 891.3000 463.6000Q891.3000 466.9600 891.4400 469.0600L891.4400 469.0600Q891.8600 478.1600 895.9200 482.8500Q899.9800 487.5400 907.4000 487.5400ZM985.1000 501.4000L985.1000 501.4000Q977.8200 501.4000 972.2900 498.9500Q966.7600 496.5000 963.1200 492.0200Q959.4800 487.5400 957.5200 481.4500Q955.5600 475.3600 955.2800 468.0800L955.2800 468.0800Q955.1400 465.5600 955.1400 463.5300Q955.1400 461.5000 955.2800 458.9800L955.2800 458.9800Q955.5600 451.9800 957.4500 445.9600Q959.3400 439.9400 963.0500 435.3900Q966.7600 430.8400 972.2900 428.3200Q977.8200 425.8000 985.1000 425.8000L985.1000 425.8000Q992.6600 425.8000 997.9100 428.3900Q1003.1600 430.9800 1006.6600 435.0400L1006.6600 435.0400L1006.6600 403.9600Q1006.6600 402.5600 1007.5700 401.5800Q1008.4800 400.6000 1010.0200 400.6000L1010.0200 400.6000L1021.9200 400.6000Q1023.3200 400.6000 1024.3000 401.5800Q1025.2800 402.5600 1025.2800 403.9600L1025.2800 403.9600L1025.2800 496.6400Q1025.2800 498.0400 1024.3000 499.0200Q1023.3200 500 1021.9200 500L1021.9200 500L1010.8600 500Q1009.3200 500 1008.4100 499.0200Q1007.5000 498.0400 1007.5000 496.6400L1007.5000 496.6400L1007.5000 491.4600Q1004.0000 495.8000 998.6100 498.6000Q993.2200 501.4000 985.1000 501.4000ZM990.2800 486.4200L990.2800 486.4200Q996.1600 486.4200 999.6600 483.7600Q1003.1600 481.1000 1004.8400 476.9700Q1006.5200 472.8400 1006.6600 468.5000L1006.6600 468.5000Q1006.8000 465.9800 1006.8000 463.1100Q1006.8000 460.2400 1006.6600 457.7200L1006.6600 457.7200Q1006.5200 453.5200 1004.7000 449.6700Q1002.8800 445.8200 999.3800 443.3000Q995.8800 440.7800 990.2800 440.7800L990.2800 440.7800Q984.4000 440.7800 980.9700 443.3700Q977.5400 445.9600 976.0000 450.1600Q974.4600 454.3600 974.1800 459.4000L974.1800 459.4000Q974.0400 463.6000 974.1800 467.8000L974.1800 467.8000Q974.4600 472.8400 976.0000 477.0400Q977.5400 481.2400 980.9700 483.8300Q984.4000 486.4200 990.2800 486.4200ZM1070.9200 501.4000L1070.9200 501.4000Q1062.3800 501.4000 1056.1500 497.5500Q1049.9200 493.7000 1046.5600 486.6300Q1043.2000 479.5600 1043.2000 469.9000L1043.2000 469.9000L1043.2000 430.5600Q1043.2000 429.1600 1044.1800 428.1800Q1045.1600 427.2000 1046.5600 427.2000L1046.5600 427.2000L1058.8800 427.2000Q1060.4200 427.2000 1061.3300 428.1800Q1062.2400 429.1600 1062.2400 430.5600L1062.2400 430.5600L1062.2400 469.0600Q1062.2400 486.4200 1077.5000 486.4200L1077.5000 486.4200Q1084.7800 486.4200 1089.0500 481.8000Q1093.3200 477.1800 1093.3200 469.0600L1093.3200 469.0600L1093.3200 430.5600Q1093.3200 429.1600 1094.3000 428.1800Q1095.2800 427.2000 1096.6800 427.2000L1096.6800 427.2000L1109 427.2000Q1110.4000 427.2000 1111.3800 428.1800Q1112.3600 429.1600 1112.3600 430.5600L1112.3600 430.5600L1112.3600 496.6400Q1112.3600 498.0400 1111.3800 499.0200Q1110.4000 500 1109 500L1109 500L1097.6600 500Q1096.1200 500 1095.2100 499.0200Q1094.3000 498.0400 1094.3000 496.6400L1094.3000 496.6400L1094.3000 490.9000Q1090.5200 495.8000 1084.9200 498.6000Q1079.3200 501.4000 1070.9200 501.4000ZM1162.2000 530.8000L1162.2000 530.8000Q1158.2800 530.6600 1155.2700 529.4000Q1152.2600 528.1400 1150.9300 526.4600Q1149.6000 524.7800 1151.0000 523.6600L1151.0000 523.6600L1153.3800 521.5600Q1154.6400 520.4400 1155.5500 520.9300Q1156.4600 521.4200 1157.9300 522.3300Q1159.4000 523.2400 1162.2000 523.2400L1162.2000 523.2400Q1164.3000 523.2400 1165.8400 521.9100Q1167.3800 520.5800 1167.3800 518.4800L1167.3800 518.4800Q1167.3800 516.5200 1165.9100 515.2600Q1164.4400 514 1162.2000 514L1162.2000 514Q1160.2400 514 1158.8400 514.4900Q1157.4400 514.9800 1156.3200 515.1900Q1155.2000 515.4000 1154.0800 514.2800L1154.0800 514.2800L1151.5600 511.7600Q1150.7200 510.7800 1151.0000 509.7300Q1151.2800 508.6800 1151.8400 507.4200L1151.8400 507.4200L1154.7800 500.7000Q1142.7400 498.8800 1135.6000 490.6900Q1128.4600 482.5000 1128.0400 469.2000L1128.0400 469.2000Q1127.9000 467.1000 1127.9000 463.6700Q1127.9000 460.2400 1128.0400 458L1128.0400 458Q1128.4600 447.7800 1132.7300 440.5700Q1137.0000 433.3600 1144.6300 429.5800Q1152.2600 425.8000 1162.3400 425.8000L1162.3400 425.8000Q1171.3000 425.8000 1177.6000 428.2500Q1183.9000 430.7000 1187.9600 434.5500Q1192.0200 438.4000 1194.0500 442.5300Q1196.0800 446.6600 1196.2200 450.0200L1196.2200 450.0200Q1196.3600 451.5600 1195.3100 452.4700Q1194.2600 453.3800 1192.8600 453.3800L1192.8600 453.3800L1180.5400 453.3800Q1179.1400 453.3800 1178.3700 452.6800Q1177.6000 451.9800 1176.9000 450.5800L1176.9000 450.5800Q1174.8000 444.9800 1171.3700 442.6700Q1167.9400 440.3600 1162.6200 440.3600L1162.6200 440.3600Q1155.6200 440.3600 1151.4900 444.7700Q1147.3600 449.1800 1147.0800 458.7000L1147.0800 458.7000Q1146.8000 464.0200 1147.0800 468.5000L1147.0800 468.5000Q1147.3600 478.1600 1151.4900 482.5000Q1155.6200 486.8400 1162.6200 486.8400L1162.6200 486.8400Q1168.0800 486.8400 1171.4400 484.5300Q1174.8000 482.2200 1176.9000 476.6200L1176.9000 476.6200Q1177.6000 475.2200 1178.3700 474.5200Q1179.1400 473.8200 1180.5400 473.8200L1180.5400 473.8200L1192.8600 473.8200Q1194.2600 473.8200 1195.3100 474.7300Q1196.3600 475.6400 1196.2200 477.1800L1196.2200 477.1800Q1196.0800 480.2600 1194.1200 484.3900Q1192.1600 488.5200 1188.2400 492.3700Q1184.3200 496.2200 1178.0200 498.8100Q1171.7200 501.4000 1162.7600 501.4000L1162.7600 501.4000L1159.8200 507.4200Q1160.6600 507 1162.1300 506.7200Q1163.6000 506.4400 1164.7200 506.4400L1164.7200 506.4400Q1169.6200 506.4400 1172.6300 509.8000Q1175.6400 513.1600 1175.6400 518.3400L1175.6400 518.3400Q1175.6400 523.6600 1172.1400 527.3000Q1168.6400 530.9400 1162.2000 530.8000ZM1231.9200 501.4000L1231.9200 501.4000Q1224.6400 501.4000 1218.7600 498.5300Q1212.8800 495.6600 1209.4500 490.8300Q1206.0200 486 1206.0200 479.9800L1206.0200 479.9800Q1206.0200 470.1800 1214.0000 464.3700Q1221.9800 458.5600 1234.8600 456.6000L1234.8600 456.6000L1254.0400 453.8000L1254.0400 450.8600Q1254.0400 444.9800 1251.1000 441.7600Q1248.1600 438.5400 1241.0200 438.5400L1241.0200 438.5400Q1235.9800 438.5400 1232.8300 440.5700Q1229.6800 442.6000 1228.1400 445.9600L1228.1400 445.9600Q1227.0200 447.7800 1224.9200 447.7800L1224.9200 447.7800L1213.8600 447.7800Q1212.3200 447.7800 1211.5500 446.9400Q1210.7800 446.1000 1210.7800 444.7000L1210.7800 444.7000Q1210.9200 442.4600 1212.6700 439.2400Q1214.4200 436.0200 1217.9900 433.0100Q1221.5600 430 1227.3000 427.9000Q1233.0400 425.8000 1241.1600 425.8000L1241.1600 425.8000Q1249.9800 425.8000 1256.0700 427.9700Q1262.1600 430.1400 1265.8000 433.7800Q1269.4400 437.4200 1271.1200 442.3200Q1272.8000 447.2200 1272.8000 452.6800L1272.8000 452.6800L1272.8000 496.6400Q1272.8000 498.0400 1271.8200 499.0200Q1270.8400 500 1269.4400 500L1269.4400 500L1258.1000 500Q1256.5600 500 1255.6500 499.0200Q1254.7400 498.0400 1254.7400 496.6400L1254.7400 496.6400L1254.7400 491.1800Q1252.9200 493.7000 1249.8400 496.0800Q1246.7600 498.4600 1242.3500 499.9300Q1237.9400 501.4000 1231.9200 501.4000ZM1236.6800 488.1000L1236.6800 488.1000Q1241.5800 488.1000 1245.5700 486Q1249.5600 483.9000 1251.8700 479.4900Q1254.1800 475.0800 1254.1800 468.3600L1254.1800 468.3600L1254.1800 465.4200L1240.1800 467.6600Q1231.9200 468.9200 1227.8600 471.7200Q1223.8000 474.5200 1223.8000 478.5800L1223.8000 478.5800Q1223.8000 481.6600 1225.6900 483.8300Q1227.5800 486 1230.5200 487.0500Q1233.4600 488.1000 1236.6800 488.1000ZM1248.8600 417.4000L1248.8600 417.4000Q1245.2200 417.4000 1242.9800 416.2100Q1240.7400 415.0200 1238.8500 413.7600Q1236.9600 412.5000 1234.7200 412.5000L1234.7200 412.5000Q1232.9000 412.5000 1232.1300 413.5500Q1231.3600 414.6000 1230.6600 415.6500Q1229.9600 416.7000 1228.4200 416.7000L1228.4200 416.7000L1221.9800 416.7000Q1221.0000 416.7000 1220.3000 416Q1219.6000 415.3000 1219.6000 414.3200L1219.6000 414.3200Q1219.6000 412.2200 1220.3700 409.6300Q1221.1400 407.0400 1222.8200 404.6600Q1224.5000 402.2800 1227.0900 400.8100Q1229.6800 399.3400 1233.1800 399.3400L1233.1800 399.3400Q1236.9600 399.3400 1239.2000 400.5300Q1241.4400 401.7200 1243.3300 402.9800Q1245.2200 404.2400 1247.4600 404.2400L1247.4600 404.2400Q1249.2800 404.2400 1250.0500 403.1200Q1250.8200 402 1251.5200 400.9500Q1252.2200 399.9000 1253.7600 399.9000L1253.7600 399.9000L1260.2000 399.9000Q1261.3200 399.9000 1261.9500 400.6700Q1262.5800 401.4400 1262.5800 402.4200L1262.5800 402.4200Q1262.5800 404.5200 1261.8100 407.1100Q1261.0400 409.7000 1259.3600 412.0800Q1257.6800 414.4600 1255.0900 415.9300Q1252.5000 417.4000 1248.8600 417.4000ZM1322.9200 501.4000L1322.9200 501.4000Q1311.7200 501.4000 1304.0900 497.4800Q1296.4600 493.5600 1292.4700 486.4200Q1288.4800 479.2800 1287.9200 469.7600L1287.9200 469.7600Q1287.7800 467.2400 1287.7800 463.6000Q1287.7800 459.9600 1287.9200 457.4400L1287.9200 457.4400Q1288.4800 447.7800 1292.6100 440.7100Q1296.7400 433.6400 1304.3700 429.7200Q1312.0000 425.8000 1322.9200 425.8000L1322.9200 425.8000Q1333.8400 425.8000 1341.4700 429.7200Q1349.1000 433.6400 1353.2300 440.7100Q1357.3600 447.7800 1357.9200 457.4400L1357.9200 457.4400Q1358.0600 459.9600 1358.0600 463.6000Q1358.0600 467.2400 1357.9200 469.7600L1357.9200 469.7600Q1357.3600 479.2800 1353.3700 486.4200Q1349.3800 493.5600 1341.7500 497.4800Q1334.1200 501.4000 1322.9200 501.4000ZM1322.9200 487.5400L1322.9200 487.5400Q1330.3400 487.5400 1334.4000 482.8500Q1338.4600 478.1600 1338.8800 469.0600L1338.8800 469.0600Q1339.0200 466.9600 1339.0200 463.6000Q1339.0200 460.2400 1338.8800 458.1400L1338.8800 458.1400Q1338.4600 449.0400 1334.4000 444.3500Q1330.3400 439.6600 1322.9200 439.6600L1322.9200 439.6600Q1315.5000 439.6600 1311.4400 444.3500Q1307.3800 449.0400 1306.9600 458.1400L1306.9600 458.1400Q1306.8200 460.2400 1306.8200 463.6000Q1306.8200 466.9600 1306.9600 469.0600L1306.9600 469.0600Q1307.3800 478.1600 1311.4400 482.8500Q1315.5000 487.5400 1322.9200 487.5400ZM180.3800 641.4000L180.3800 641.4000Q173.1000 641.4000 167.2200 638.5300Q161.3400 635.6600 157.9100 630.8300Q154.4800 626 154.4800 619.9800L154.4800 619.9800Q154.4800 610.1800 162.4600 604.3700Q170.4400 598.5600 183.3200 596.6000L183.3200 596.6000L202.5000 593.8000L202.5000 590.8600Q202.5000 584.9800 199.5600 581.7600Q196.6200 578.5400 189.4800 578.5400L189.4800 578.5400Q184.4400 578.5400 181.2900 580.5700Q178.1400 582.6000 176.6000 585.9600L176.6000 585.9600Q175.4800 587.7800 173.3800 587.7800L173.3800 587.7800L162.3200 587.7800Q160.7800 587.7800 160.0100 586.9400Q159.2400 586.1000 159.2400 584.7000L159.2400 584.7000Q159.3800 582.4600 161.1300 579.2400Q162.8800 576.0200 166.4500 573.0100Q170.0200 570 175.7600 567.9000Q181.5000 565.8000 189.6200 565.8000L189.6200 565.8000Q198.4400 565.8000 204.5300 567.9700Q210.6200 570.1400 214.2600 573.7800Q217.9000 577.4200 219.5800 582.3200Q221.2600 587.2200 221.2600 592.6800L221.2600 592.6800L221.2600 636.6400Q221.2600 638.0400 220.2800 639.0200Q219.3000 640 217.9000 640L217.9000 640L206.5600 640Q205.0200 640 204.1100 639.0200Q203.2000 638.0400 203.2000 636.6400L203.2000 636.6400L203.2000 631.1800Q201.3800 633.7000 198.3000 636.0800Q195.2200 638.4600 190.8100 639.9300Q186.4000 641.4000 180.3800 641.4000ZM185.1400 628.1000L185.1400 628.1000Q190.0400 628.1000 194.0300 626Q198.0200 623.9000 200.3300 619.4900Q202.6400 615.0800 202.6400 608.3600L202.6400 608.3600L202.6400 605.4200L188.6400 607.6600Q180.3800 608.9200 176.3200 611.7200Q172.2600 614.5200 172.2600 618.5800L172.2600 618.5800Q172.2600 621.6600 174.1500 623.8300Q176.0400 626 178.9800 627.0500Q181.9200 628.1000 185.1400 628.1000ZM271.3800 641.4000L271.3800 641.4000Q260.1800 641.4000 252.5500 637.4800Q244.9200 633.5600 240.9300 626.4200Q236.9400 619.2800 236.3800 609.7600L236.3800 609.7600Q236.2400 607.2400 236.2400 603.6000Q236.2400 599.9600 236.3800 597.4400L236.3800 597.4400Q236.9400 587.7800 241.0700 580.7100Q245.2000 573.6400 252.8300 569.7200Q260.4600 565.8000 271.3800 565.8000L271.3800 565.8000Q282.3000 565.8000 289.9300 569.7200Q297.5600 573.6400 301.6900 580.7100Q305.8200 587.7800 306.3800 597.4400L306.3800 597.4400Q306.5200 599.9600 306.5200 603.6000Q306.5200 607.2400 306.3800 609.7600L306.3800 609.7600Q305.8200 619.2800 301.8300 626.4200Q297.8400 633.5600 290.2100 637.4800Q282.5800 641.4000 271.3800 641.4000ZM271.3800 627.5400L271.3800 627.5400Q278.8000 627.5400 282.8600 622.8500Q286.9200 618.1600 287.3400 609.0600L287.3400 609.0600Q287.4800 606.9600 287.4800 603.6000Q287.4800 600.2400 287.3400 598.1400L287.3400 598.1400Q286.9200 589.0400 282.8600 584.3500Q278.8000 579.6600 271.3800 579.6600L271.3800 579.6600Q263.9600 579.6600 259.9000 584.3500Q255.8400 589.0400 255.4200 598.1400L255.4200 598.1400Q255.2800 600.2400 255.2800 603.6000Q255.2800 606.9600 255.4200 609.0600L255.4200 609.0600Q255.8400 618.1600 259.9000 622.8500Q263.9600 627.5400 271.3800 627.5400ZM369.2400 640L357.4800 640Q356.0800 640 355.1000 639.0200Q354.1200 638.0400 354.1200 636.6400L354.1200 636.6400L354.1200 570.5600Q354.1200 569.1600 355.1000 568.1800Q356.0800 567.2000 357.4800 567.2000L357.4800 567.2000L368.4000 567.2000Q369.8000 567.2000 370.7800 568.1800Q371.7600 569.1600 371.7600 570.5600L371.7600 570.5600L371.7600 575.3200Q374.7000 571.4000 379.6700 568.6700Q384.6400 565.9400 391.5000 565.8000L391.5000 565.8000Q407.4600 565.5200 413.7600 578.2600L413.7600 578.2600Q416.9800 572.6600 423.0700 569.2300Q429.1600 565.8000 436.5800 565.8000L436.5800 565.8000Q443.8600 565.8000 449.8100 569.1600Q455.7600 572.5200 459.1900 579.3100Q462.6200 586.1000 462.6200 596.4600L462.6200 596.4600L462.6200 636.6400Q462.6200 638.0400 461.6400 639.0200Q460.6600 640 459.2600 640L459.2600 640L447.7800 640Q446.3800 640 445.4000 639.0200Q444.4200 638.0400 444.4200 636.6400L444.4200 636.6400L444.4200 597.5800Q444.4200 591.2800 442.6000 587.5700Q440.7800 583.8600 437.7000 582.3200Q434.6200 580.7800 430.8400 580.7800L430.8400 580.7800Q427.7600 580.7800 424.6800 582.3200Q421.6000 583.8600 419.6400 587.5700Q417.6800 591.2800 417.6800 597.5800L417.6800 597.5800L417.6800 636.6400Q417.6800 638.0400 416.7000 639.0200Q415.7200 640 414.3200 640L414.3200 640L402.8400 640Q401.4400 640 400.4600 639.0200Q399.4800 638.0400 399.4800 636.6400L399.4800 636.6400L399.4800 597.5800Q399.4800 591.2800 397.5200 587.5700Q395.5600 583.8600 392.4800 582.3200Q389.4000 580.7800 385.9000 580.7800L385.9000 580.7800Q382.6800 580.7800 379.6000 582.3900Q376.5200 584 374.5600 587.6400Q372.6000 591.2800 372.6000 597.5800L372.6000 597.5800L372.6000 636.6400Q372.6000 638.0400 371.6200 639.0200Q370.6400 640 369.2400 640L369.2400 640ZM512.6000 641.4000L512.6000 641.4000Q501.4000 641.4000 493.7700 637.4800Q486.1400 633.5600 482.1500 626.4200Q478.1600 619.2800 477.6000 609.7600L477.6000 609.7600Q477.4600 607.2400 477.4600 603.6000Q477.4600 599.9600 477.6000 597.4400L477.6000 597.4400Q478.1600 587.7800 482.2900 580.7100Q486.4200 573.6400 494.0500 569.7200Q501.6800 565.8000 512.6000 565.8000L512.6000 565.8000Q523.5200 565.8000 531.1500 569.7200Q538.7800 573.6400 542.9100 580.7100Q547.0400 587.7800 547.6000 597.4400L547.6000 597.4400Q547.7400 599.9600 547.7400 603.6000Q547.7400 607.2400 547.6000 609.7600L547.6000 609.7600Q547.0400 619.2800 543.0500 626.4200Q539.0600 633.5600 531.4300 637.4800Q523.8000 641.4000 512.6000 641.4000ZM512.6000 627.5400L512.6000 627.5400Q520.0200 627.5400 524.0800 622.8500Q528.1400 618.1600 528.5600 609.0600L528.5600 609.0600Q528.7000 606.9600 528.7000 603.6000Q528.7000 600.2400 528.5600 598.1400L528.5600 598.1400Q528.1400 589.0400 524.0800 584.3500Q520.0200 579.6600 512.6000 579.6600L512.6000 579.6600Q505.1800 579.6600 501.1200 584.3500Q497.0600 589.0400 496.6400 598.1400L496.6400 598.1400Q496.5000 600.2400 496.5000 603.6000Q496.5000 606.9600 496.6400 609.0600L496.6400 609.0600Q497.0600 618.1600 501.1200 622.8500Q505.1800 627.5400 512.6000 627.5400ZM515.1200 556.7000L506.5800 556.7000Q504.3400 556.7000 504.3400 554.4600L504.3400 554.4600Q504.3400 553.3400 505.0400 552.6400L505.0400 552.6400L516.3800 538.7800Q517.7800 537.2400 518.7600 536.7500Q519.7400 536.2600 521.5600 536.2600L521.5600 536.2600L535.5600 536.2600Q538.2200 536.2600 538.2200 538.9200L538.2200 538.9200Q538.2200 539.9000 537.5200 540.6000L537.5200 540.6000L520.1600 554.8800Q519.0400 555.8600 517.9900 556.2800Q516.9400 556.7000 515.1200 556.7000L515.1200 556.7000ZM590.3000 641.4000L590.3000 641.4000Q583.0200 641.4000 577.4900 638.9500Q571.9600 636.5000 568.3200 632.0200Q564.6800 627.5400 562.7200 621.4500Q560.7600 615.3600 560.4800 608.0800L560.4800 608.0800Q560.3400 605.5600 560.3400 603.5300Q560.3400 601.5000 560.4800 598.9800L560.4800 598.9800Q560.7600 591.9800 562.6500 585.9600Q564.5400 579.9400 568.2500 575.3900Q571.9600 570.8400 577.4900 568.3200Q583.0200 565.8000 590.3000 565.8000L590.3000 565.8000Q597.8600 565.8000 603.1100 568.3900Q608.3600 570.9800 611.8600 575.0400L611.8600 575.0400L611.8600 543.9600Q611.8600 542.5600 612.7700 541.5800Q613.6800 540.6000 615.2200 540.6000L615.2200 540.6000L627.1200 540.6000Q628.5200 540.6000 629.5000 541.5800Q630.4800 542.5600 630.4800 543.9600L630.4800 543.9600L630.4800 636.6400Q630.4800 638.0400 629.5000 639.0200Q628.5200 640 627.1200 640L627.1200 640L616.0600 640Q614.5200 640 613.6100 639.0200Q612.7000 638.0400 612.7000 636.6400L612.7000 636.6400L612.7000 631.4600Q609.2000 635.8000 603.8100 638.6000Q598.4200 641.4000 590.3000 641.4000ZM595.4800 626.4200L595.4800 626.4200Q601.3600 626.4200 604.8600 623.7600Q608.3600 621.1000 610.0400 616.9700Q611.7200 612.8400 611.8600 608.5000L611.8600 608.5000Q612.0000 605.9800 612.0000 603.1100Q612.0000 600.2400 611.8600 597.7200L611.8600 597.7200Q611.7200 593.5200 609.9000 589.6700Q608.0800 585.8200 604.5800 583.3000Q601.0800 580.7800 595.4800 580.7800L595.4800 580.7800Q589.6000 580.7800 586.1700 583.3700Q582.7400 585.9600 581.2000 590.1600Q579.6600 594.3600 579.3800 599.4000L579.3800 599.4000Q579.2400 603.6000 579.3800 607.8000L579.3800 607.8000Q579.6600 612.8400 581.2000 617.0400Q582.7400 621.2400 586.1700 623.8300Q589.6000 626.4200 595.4800 626.4200ZM676.1200 641.4000L676.1200 641.4000Q667.5800 641.4000 661.3500 637.5500Q655.1200 633.7000 651.7600 626.6300Q648.4000 619.5600 648.4000 609.9000L648.4000 609.9000L648.4000 570.5600Q648.4000 569.1600 649.3800 568.1800Q650.3600 567.2000 651.7600 567.2000L651.7600 567.2000L664.0800 567.2000Q665.6200 567.2000 666.5300 568.1800Q667.4400 569.1600 667.4400 570.5600L667.4400 570.5600L667.4400 609.0600Q667.4400 626.4200 682.7000 626.4200L682.7000 626.4200Q689.9800 626.4200 694.2500 621.8000Q698.5200 617.1800 698.5200 609.0600L698.5200 609.0600L698.5200 570.5600Q698.5200 569.1600 699.5000 568.1800Q700.4800 567.2000 701.8800 567.2000L701.8800 567.2000L714.2000 567.2000Q715.6000 567.2000 716.5800 568.1800Q717.5600 569.1600 717.5600 570.5600L717.5600 570.5600L717.5600 636.6400Q717.5600 638.0400 716.5800 639.0200Q715.6000 640 714.2000 640L714.2000 640L702.8600 640Q701.3200 640 700.4100 639.0200Q699.5000 638.0400 699.5000 636.6400L699.5000 636.6400L699.5000 630.9000Q695.7200 635.8000 690.1200 638.6000Q684.5200 641.4000 676.1200 641.4000ZM751.1600 640L739.5400 640Q738.1400 640 737.1600 639.0200Q736.1800 638.0400 736.1800 636.6400L736.1800 636.6400L736.1800 543.9600Q736.1800 542.5600 737.1600 541.5800Q738.1400 540.6000 739.5400 540.6000L739.5400 540.6000L751.1600 540.6000Q752.5600 540.6000 753.5400 541.5800Q754.5200 542.5600 754.5200 543.9600L754.5200 543.9600L754.5200 636.6400Q754.5200 638.0400 753.5400 639.0200Q752.5600 640 751.1600 640L751.1600 640ZM805.3400 641.4000L805.3400 641.4000Q794.1400 641.4000 786.5100 637.4800Q778.8800 633.5600 774.8900 626.4200Q770.9000 619.2800 770.3400 609.7600L770.3400 609.7600Q770.2000 607.2400 770.2000 603.6000Q770.2000 599.9600 770.3400 597.4400L770.3400 597.4400Q770.9000 587.7800 775.0300 580.7100Q779.1600 573.6400 786.7900 569.7200Q794.4200 565.8000 805.3400 565.8000L805.3400 565.8000Q816.2600 565.8000 823.8900 569.7200Q831.5200 573.6400 835.6500 580.7100Q839.7800 587.7800 840.3400 597.4400L840.3400 597.4400Q840.4800 599.9600 840.4800 603.6000Q840.4800 607.2400 840.3400 609.7600L840.3400 609.7600Q839.7800 619.2800 835.7900 626.4200Q831.8000 633.5600 824.1700 637.4800Q816.5400 641.4000 805.3400 641.4000ZM805.3400 627.5400L805.3400 627.5400Q812.7600 627.5400 816.8200 622.8500Q820.8800 618.1600 821.3000 609.0600L821.3000 609.0600Q821.4400 606.9600 821.4400 603.6000Q821.4400 600.2400 821.3000 598.1400L821.3000 598.1400Q820.8800 589.0400 816.8200 584.3500Q812.7600 579.6600 805.3400 579.6600L805.3400 579.6600Q797.9200 579.6600 793.8600 584.3500Q789.8000 589.0400 789.3800 598.1400L789.3800 598.1400Q789.2400 600.2400 789.2400 603.6000Q789.2400 606.9600 789.3800 609.0600L789.3800 609.0600Q789.8000 618.1600 793.8600 622.8500Q797.9200 627.5400 805.3400 627.5400ZM915.1000 641.4000L915.1000 641.4000Q907.8200 641.4000 902.2900 638.9500Q896.7600 636.5000 893.1200 632.0200Q889.4800 627.5400 887.5200 621.4500Q885.5600 615.3600 885.2800 608.0800L885.2800 608.0800Q885.1400 605.5600 885.1400 603.5300Q885.1400 601.5000 885.2800 598.9800L885.2800 598.9800Q885.5600 591.9800 887.4500 585.9600Q889.3400 579.9400 893.0500 575.3900Q896.7600 570.8400 902.2900 568.3200Q907.8200 565.8000 915.1000 565.8000L915.1000 565.8000Q922.6600 565.8000 927.9100 568.3900Q933.1600 570.9800 936.6600 575.0400L936.6600 575.0400L936.6600 543.9600Q936.6600 542.5600 937.5700 541.5800Q938.4800 540.6000 940.0200 540.6000L940.0200 540.6000L951.9200 540.6000Q953.3200 540.6000 954.3000 541.5800Q955.2800 542.5600 955.2800 543.9600L955.2800 543.9600L955.2800 636.6400Q955.2800 638.0400 954.3000 639.0200Q953.3200 640 951.9200 640L951.9200 640L940.8600 640Q939.3200 640 938.4100 639.0200Q937.5000 638.0400 937.5000 636.6400L937.5000 636.6400L937.5000 631.4600Q934.0000 635.8000 928.6100 638.6000Q923.2200 641.4000 915.1000 641.4000ZM920.2800 626.4200L920.2800 626.4200Q926.1600 626.4200 929.6600 623.7600Q933.1600 621.1000 934.8400 616.9700Q936.5200 612.8400 936.6600 608.5000L936.6600 608.5000Q936.8000 605.9800 936.8000 603.1100Q936.8000 600.2400 936.6600 597.7200L936.6600 597.7200Q936.5200 593.5200 934.7000 589.6700Q932.8800 585.8200 929.3800 583.3000Q925.8800 580.7800 920.2800 580.7800L920.2800 580.7800Q914.4000 580.7800 910.9700 583.3700Q907.5400 585.9600 906.0000 590.1600Q904.4600 594.3600 904.1800 599.4000L904.1800 599.4000Q904.0400 603.6000 904.1800 607.8000L904.1800 607.8000Q904.4600 612.8400 906.0000 617.0400Q907.5400 621.2400 910.9700 623.8300Q914.4000 626.4200 920.2800 626.4200ZM1005.2600 641.4000L1005.2600 641.4000Q989.7200 641.4000 980.6200 632.4400Q971.5200 623.4800 970.8200 606.9600L970.8200 606.9600Q970.6800 605.5600 970.6800 603.3900Q970.6800 601.2200 970.8200 599.9600L970.8200 599.9600Q971.3800 589.3200 975.6500 581.6900Q979.9200 574.0600 987.4800 569.9300Q995.0400 565.8000 1005.2600 565.8000L1005.2600 565.8000Q1016.6000 565.8000 1024.3000 570.4900Q1032.0000 575.1800 1035.9200 583.5100Q1039.8400 591.8400 1039.8400 602.7600L1039.8400 602.7600L1039.8400 605.7000Q1039.8400 607.1000 1038.8600 608.0800Q1037.8800 609.0600 1036.3400 609.0600L1036.3400 609.0600L989.8600 609.0600Q989.8600 609.0600 989.8600 609.4800Q989.8600 609.9000 989.8600 610.1800L989.8600 610.1800Q990.0000 615.0800 991.7500 619.2100Q993.5000 623.3400 996.9300 625.8600Q1000.3600 628.3800 1005.1200 628.3800L1005.1200 628.3800Q1009.0400 628.3800 1011.7000 627.1900Q1014.3600 626 1016.0400 624.4600Q1017.7200 622.9200 1018.4200 621.9400L1018.4200 621.9400Q1019.6800 620.2600 1020.4500 619.9100Q1021.2200 619.5600 1022.7600 619.5600L1022.7600 619.5600L1034.8000 619.5600Q1036.2000 619.5600 1037.1100 620.4000Q1038.0200 621.2400 1037.8800 622.5000L1037.8800 622.5000Q1037.7400 624.7400 1035.5700 627.9600Q1033.4000 631.1800 1029.3400 634.2600Q1025.2800 637.3400 1019.1900 639.3700Q1013.1000 641.4000 1005.2600 641.4000ZM989.8600 596.8800L989.8600 597.3000L1020.8000 597.3000L1020.8000 596.8800Q1020.8000 591.4200 1018.9800 587.2900Q1017.1600 583.1600 1013.6600 580.8500Q1010.1600 578.5400 1005.2600 578.5400L1005.2600 578.5400Q1000.3600 578.5400 996.8600 580.8500Q993.3600 583.1600 991.6100 587.2900Q989.8600 591.4200 989.8600 596.8800L989.8600 596.8800ZM180.3800 781.4000L180.3800 781.4000Q173.1000 781.4000 167.2200 778.5300Q161.3400 775.6600 157.9100 770.8300Q154.4800 766 154.4800 759.9800L154.4800 759.9800Q154.4800 750.1800 162.4600 744.3700Q170.4400 738.5600 183.3200 736.6000L183.3200 736.6000L202.5000 733.8000L202.5000 730.8600Q202.5000 724.9800 199.5600 721.7600Q196.6200 718.5400 189.4800 718.5400L189.4800 718.5400Q184.4400 718.5400 181.2900 720.5700Q178.1400 722.6000 176.6000 725.9600L176.6000 725.9600Q175.4800 727.7800 173.3800 727.7800L173.3800 727.7800L162.3200 727.7800Q160.7800 727.7800 160.0100 726.9400Q159.2400 726.1000 159.2400 724.7000L159.2400 724.7000Q159.3800 722.4600 161.1300 719.2400Q162.8800 716.0200 166.4500 713.0100Q170.0200 710 175.7600 707.9000Q181.5000 705.8000 189.6200 705.8000L189.6200 705.8000Q198.4400 705.8000 204.5300 707.9700Q210.6200 710.1400 214.2600 713.7800Q217.9000 717.4200 219.5800 722.3200Q221.2600 727.2200 221.2600 732.6800L221.2600 732.6800L221.2600 776.6400Q221.2600 778.0400 220.2800 779.0200Q219.3000 780 217.9000 780L217.9000 780L206.5600 780Q205.0200 780 204.1100 779.0200Q203.2000 778.0400 203.2000 776.6400L203.2000 776.6400L203.2000 771.1800Q201.3800 773.7000 198.3000 776.0800Q195.2200 778.4600 190.8100 779.9300Q186.4000 781.4000 180.3800 781.4000ZM185.1400 768.1000L185.1400 768.1000Q190.0400 768.1000 194.0300 766Q198.0200 763.9000 200.3300 759.4900Q202.6400 755.0800 202.6400 748.3600L202.6400 748.3600L202.6400 745.4200L188.6400 747.6600Q180.3800 748.9200 176.3200 751.7200Q172.2600 754.5200 172.2600 758.5800L172.2600 758.5800Q172.2600 761.6600 174.1500 763.8300Q176.0400 766 178.9800 767.0500Q181.9200 768.1000 185.1400 768.1000ZM272.0800 810.8000L272.0800 810.8000Q261.8600 810.8000 255.2800 808.1400Q248.7000 805.4800 244.9200 801.7000Q241.1400 797.9200 239.5300 794.2100Q237.9200 790.5000 237.7800 788.4000L237.7800 788.4000Q237.6400 787 238.6900 785.9500Q239.7400 784.9000 241.1400 784.9000L241.1400 784.9000L253.3200 784.9000Q254.7200 784.9000 255.5600 785.5300Q256.4000 786.1600 256.9600 787.8400L256.9600 787.8400Q257.8000 789.6600 259.2000 791.7600Q260.6000 793.8600 263.4700 795.3300Q266.3400 796.8000 271.3800 796.8000L271.3800 796.8000Q276.7000 796.8000 280.3400 795.2600Q283.9800 793.7200 285.8700 790.0800Q287.7600 786.4400 287.7600 780L287.7600 780L287.7600 770.4800Q284.4000 774.5400 279.1500 777.0600Q273.9000 779.5800 266.2000 779.5800L266.2000 779.5800Q258.7800 779.5800 253.2500 777.1300Q247.7200 774.6800 244.0800 770.2700Q240.4400 765.8600 238.5500 759.8400Q236.6600 753.8200 236.3800 746.5400L236.3800 746.5400Q236.2400 742.7600 236.3800 738.9800L236.3800 738.9800Q236.6600 731.9800 238.5500 725.9600Q240.4400 719.9400 244.0800 715.3900Q247.7200 710.8400 253.2500 708.3200Q258.7800 705.8000 266.2000 705.8000L266.2000 705.8000Q274.1800 705.8000 279.6400 708.8100Q285.1000 711.8200 288.6000 716.3000L288.6000 716.3000L288.6000 710.7000Q288.6000 709.1600 289.5800 708.1800Q290.5600 707.2000 291.9600 707.2000L291.9600 707.2000L303.3000 707.2000Q304.7000 707.2000 305.6800 708.1800Q306.6600 709.1600 306.6600 710.7000L306.6600 710.7000L306.8000 778.1800Q306.8000 788.2600 303.0200 795.5400Q299.2400 802.8200 291.6100 806.8100Q283.9800 810.8000 272.0800 810.8000ZM271.3800 764.7400L271.3800 764.7400Q277.1200 764.7400 280.6200 762.2200Q284.1200 759.7000 285.8000 755.6400Q287.4800 751.5800 287.7600 747.3800L287.7600 747.3800Q287.9000 745.5600 287.9000 742.7600Q287.9000 739.9600 287.7600 738.2800L287.7600 738.2800Q287.4800 733.9400 285.8000 729.9500Q284.1200 725.9600 280.6200 723.3700Q277.1200 720.7800 271.3800 720.7800L271.3800 720.7800Q265.6400 720.7800 262.1400 723.3700Q258.6400 725.9600 257.1700 730.1600Q255.7000 734.3600 255.4200 739.4000L255.4200 739.4000Q255.1400 742.7600 255.4200 746.2600L255.4200 746.2600Q255.7000 751.1600 257.1700 755.4300Q258.6400 759.7000 262.1400 762.2200Q265.6400 764.7400 271.3800 764.7400ZM340.9600 780L328.7800 780Q327.3800 780 326.4000 779.0200Q325.4200 778.0400 325.4200 776.6400L325.4200 776.6400L325.4200 710.7000Q325.4200 709.1600 326.4000 708.1800Q327.3800 707.2000 328.7800 707.2000L328.7800 707.2000L340.1200 707.2000Q341.5200 707.2000 342.5700 708.1800Q343.6200 709.1600 343.6200 710.7000L343.6200 710.7000L343.6200 716.4400Q346.8400 711.9600 351.9500 709.5800Q357.0600 707.2000 363.7800 707.2000L363.7800 707.2000L369.5200 707.2000Q371.0600 707.2000 371.9700 708.1800Q372.8800 709.1600 372.8800 710.5600L372.8800 710.5600L372.8800 720.6400Q372.8800 722.0400 371.9700 723.0200Q371.0600 724 369.5200 724L369.5200 724L358.6000 724Q351.8800 724 348.1700 727.7100Q344.4600 731.4200 344.4600 738.1400L344.4600 738.1400L344.4600 776.6400Q344.4600 778.0400 343.4800 779.0200Q342.5000 780 340.9600 780L340.9600 780ZM415.1600 781.4000L415.1600 781.4000Q399.6200 781.4000 390.5200 772.4400Q381.4200 763.4800 380.7200 746.9600L380.7200 746.9600Q380.5800 745.5600 380.5800 743.3900Q380.5800 741.2200 380.7200 739.9600L380.7200 739.9600Q381.2800 729.3200 385.5500 721.6900Q389.8200 714.0600 397.3800 709.9300Q404.9400 705.8000 415.1600 705.8000L415.1600 705.8000Q426.5000 705.8000 434.2000 710.4900Q441.9000 715.1800 445.8200 723.5100Q449.7400 731.8400 449.7400 742.7600L449.7400 742.7600L449.7400 745.7000Q449.7400 747.1000 448.7600 748.0800Q447.7800 749.0600 446.2400 749.0600L446.2400 749.0600L399.7600 749.0600Q399.7600 749.0600 399.7600 749.4800Q399.7600 749.9000 399.7600 750.1800L399.7600 750.1800Q399.9000 755.0800 401.6500 759.2100Q403.4000 763.3400 406.8300 765.8600Q410.2600 768.3800 415.0200 768.3800L415.0200 768.3800Q418.9400 768.3800 421.6000 767.1900Q424.2600 766 425.9400 764.4600Q427.6200 762.9200 428.3200 761.9400L428.3200 761.9400Q429.5800 760.2600 430.3500 759.9100Q431.1200 759.5600 432.6600 759.5600L432.6600 759.5600L444.7000 759.5600Q446.1000 759.5600 447.0100 760.4000Q447.9200 761.2400 447.7800 762.5000L447.7800 762.5000Q447.6400 764.7400 445.4700 767.9600Q443.3000 771.1800 439.2400 774.2600Q435.1800 777.3400 429.0900 779.3700Q423 781.4000 415.1600 781.4000ZM399.7600 736.8800L399.7600 737.3000L430.7000 737.3000L430.7000 736.8800Q430.7000 731.4200 428.8800 727.2900Q427.0600 723.1600 423.5600 720.8500Q420.0600 718.5400 415.1600 718.5400L415.1600 718.5400Q410.2600 718.5400 406.7600 720.8500Q403.2600 723.1600 401.5100 727.2900Q399.7600 731.4200 399.7600 736.8800L399.7600 736.8800ZM497.4800 810.8000L497.4800 810.8000Q487.2600 810.8000 480.6800 808.1400Q474.1000 805.4800 470.3200 801.7000Q466.5400 797.9200 464.9300 794.2100Q463.3200 790.5000 463.1800 788.4000L463.1800 788.4000Q463.0400 787 464.0900 785.9500Q465.1400 784.9000 466.5400 784.9000L466.5400 784.9000L478.7200 784.9000Q480.1200 784.9000 480.9600 785.5300Q481.8000 786.1600 482.3600 787.8400L482.3600 787.8400Q483.2000 789.6600 484.6000 791.7600Q486.0000 793.8600 488.8700 795.3300Q491.7400 796.8000 496.7800 796.8000L496.7800 796.8000Q502.1000 796.8000 505.7400 795.2600Q509.3800 793.7200 511.2700 790.0800Q513.1600 786.4400 513.1600 780L513.1600 780L513.1600 770.4800Q509.8000 774.5400 504.5500 777.0600Q499.3000 779.5800 491.6000 779.5800L491.6000 779.5800Q484.1800 779.5800 478.6500 777.1300Q473.1200 774.6800 469.4800 770.2700Q465.8400 765.8600 463.9500 759.8400Q462.0600 753.8200 461.7800 746.5400L461.7800 746.5400Q461.6400 742.7600 461.7800 738.9800L461.7800 738.9800Q462.0600 731.9800 463.9500 725.9600Q465.8400 719.9400 469.4800 715.3900Q473.1200 710.8400 478.6500 708.3200Q484.1800 705.8000 491.6000 705.8000L491.6000 705.8000Q499.5800 705.8000 505.0400 708.8100Q510.5000 711.8200 514 716.3000L514 716.3000L514 710.7000Q514 709.1600 514.9800 708.1800Q515.9600 707.2000 517.3600 707.2000L517.3600 707.2000L528.7000 707.2000Q530.1000 707.2000 531.0800 708.1800Q532.0600 709.1600 532.0600 710.7000L532.0600 710.7000L532.2000 778.1800Q532.2000 788.2600 528.4200 795.5400Q524.6400 802.8200 517.0100 806.8100Q509.3800 810.8000 497.4800 810.8000ZM496.7800 764.7400L496.7800 764.7400Q502.5200 764.7400 506.0200 762.2200Q509.5200 759.7000 511.2000 755.6400Q512.8800 751.5800 513.1600 747.3800L513.1600 747.3800Q513.3000 745.5600 513.3000 742.7600Q513.3000 739.9600 513.1600 738.2800L513.1600 738.2800Q512.8800 733.9400 511.2000 729.9500Q509.5200 725.9600 506.0200 723.3700Q502.5200 720.7800 496.7800 720.7800L496.7800 720.7800Q491.0400 720.7800 487.5400 723.3700Q484.0400 725.9600 482.5700 730.1600Q481.1000 734.3600 480.8200 739.4000L480.8200 739.4000Q480.5400 742.7600 480.8200 746.2600L480.8200 746.2600Q481.1000 751.1600 482.5700 755.4300Q484.0400 759.7000 487.5400 762.2200Q491.0400 764.7400 496.7800 764.7400ZM571.9600 781.4000L571.9600 781.4000Q564.6800 781.4000 558.8000 778.5300Q552.9200 775.6600 549.4900 770.8300Q546.0600 766 546.0600 759.9800L546.0600 759.9800Q546.0600 750.1800 554.0400 744.3700Q562.0200 738.5600 574.9000 736.6000L574.9000 736.6000L594.0800 733.8000L594.0800 730.8600Q594.0800 724.9800 591.1400 721.7600Q588.2000 718.5400 581.0600 718.5400L581.0600 718.5400Q576.0200 718.5400 572.8700 720.5700Q569.7200 722.6000 568.1800 725.9600L568.1800 725.9600Q567.0600 727.7800 564.9600 727.7800L564.9600 727.7800L553.9000 727.7800Q552.3600 727.7800 551.5900 726.9400Q550.8200 726.1000 550.8200 724.7000L550.8200 724.7000Q550.9600 722.4600 552.7100 719.2400Q554.4600 716.0200 558.0300 713.0100Q561.6000 710 567.3400 707.9000Q573.0800 705.8000 581.2000 705.8000L581.2000 705.8000Q590.0200 705.8000 596.1100 707.9700Q602.2000 710.1400 605.8400 713.7800Q609.4800 717.4200 611.1600 722.3200Q612.8400 727.2200 612.8400 732.6800L612.8400 732.6800L612.8400 776.6400Q612.8400 778.0400 611.8600 779.0200Q610.8800 780 609.4800 780L609.4800 780L598.1400 780Q596.6000 780 595.6900 779.0200Q594.7800 778.0400 594.7800 776.6400L594.7800 776.6400L594.7800 771.1800Q592.9600 773.7000 589.8800 776.0800Q586.8000 778.4600 582.3900 779.9300Q577.9800 781.4000 571.9600 781.4000ZM576.7200 768.1000L576.7200 768.1000Q581.6200 768.1000 585.6100 766Q589.6000 763.9000 591.9100 759.4900Q594.2200 755.0800 594.2200 748.3600L594.2200 748.3600L594.2200 745.4200L580.2200 747.6600Q571.9600 748.9200 567.9000 751.7200Q563.8400 754.5200 563.8400 758.5800L563.8400 758.5800Q563.8400 761.6600 565.7300 763.8300Q567.6200 766 570.5600 767.0500Q573.5000 768.1000 576.7200 768.1000ZM662.1200 810.8000L662.1200 810.8000Q658.2000 810.6600 655.1900 809.4000Q652.1800 808.1400 650.8500 806.4600Q649.5200 804.7800 650.9200 803.6600L650.9200 803.6600L653.3000 801.5600Q654.5600 800.4400 655.4700 800.9300Q656.3800 801.4200 657.8500 802.3300Q659.3200 803.2400 662.1200 803.2400L662.1200 803.2400Q664.2200 803.2400 665.7600 801.9100Q667.3000 800.5800 667.3000 798.4800L667.3000 798.4800Q667.3000 796.5200 665.8300 795.2600Q664.3600 794 662.1200 794L662.1200 794Q660.1600 794 658.7600 794.4900Q657.3600 794.9800 656.2400 795.1900Q655.1200 795.4000 654.0000 794.2800L654.0000 794.2800L651.4800 791.7600Q650.6400 790.7800 650.9200 789.7300Q651.2000 788.6800 651.7600 787.4200L651.7600 787.4200L654.7000 780.7000Q642.6600 778.8800 635.5200 770.6900Q628.3800 762.5000 627.9600 749.2000L627.9600 749.2000Q627.8200 747.1000 627.8200 743.6700Q627.8200 740.2400 627.9600 738L627.9600 738Q628.3800 727.7800 632.6500 720.5700Q636.9200 713.3600 644.5500 709.5800Q652.1800 705.8000 662.2600 705.8000L662.2600 705.8000Q671.2200 705.8000 677.5200 708.2500Q683.8200 710.7000 687.8800 714.5500Q691.9400 718.4000 693.9700 722.5300Q696.0000 726.6600 696.1400 730.0200L696.1400 730.0200Q696.2800 731.5600 695.2300 732.4700Q694.1800 733.3800 692.7800 733.3800L692.7800 733.3800L680.4600 733.3800Q679.0600 733.3800 678.2900 732.6800Q677.5200 731.9800 676.8200 730.5800L676.8200 730.5800Q674.7200 724.9800 671.2900 722.6700Q667.8600 720.3600 662.5400 720.3600L662.5400 720.3600Q655.5400 720.3600 651.4100 724.7700Q647.2800 729.1800 647.0000 738.7000L647.0000 738.7000Q646.7200 744.0200 647.0000 748.5000L647.0000 748.5000Q647.2800 758.1600 651.4100 762.5000Q655.5400 766.8400 662.5400 766.8400L662.5400 766.8400Q668.0000 766.8400 671.3600 764.5300Q674.7200 762.2200 676.8200 756.6200L676.8200 756.6200Q677.5200 755.2200 678.2900 754.5200Q679.0600 753.8200 680.4600 753.8200L680.4600 753.8200L692.7800 753.8200Q694.1800 753.8200 695.2300 754.7300Q696.2800 755.6400 696.1400 757.1800L696.1400 757.1800Q696.0000 760.2600 694.0400 764.3900Q692.0800 768.5200 688.1600 772.3700Q684.2400 776.2200 677.9400 778.8100Q671.6400 781.4000 662.6800 781.4000L662.6800 781.4000L659.7400 787.4200Q660.5800 787 662.0500 786.7200Q663.5200 786.4400 664.6400 786.4400L664.6400 786.4400Q669.5400 786.4400 672.5500 789.8000Q675.5600 793.1600 675.5600 798.3400L675.5600 798.3400Q675.5600 803.6600 672.0600 807.3000Q668.5600 810.9400 662.1200 810.8000ZM731.8400 781.4000L731.8400 781.4000Q724.5600 781.4000 718.6800 778.5300Q712.8000 775.6600 709.3700 770.8300Q705.9400 766 705.9400 759.9800L705.9400 759.9800Q705.9400 750.1800 713.9200 744.3700Q721.9000 738.5600 734.7800 736.6000L734.7800 736.6000L753.9600 733.8000L753.9600 730.8600Q753.9600 724.9800 751.0200 721.7600Q748.0800 718.5400 740.9400 718.5400L740.9400 718.5400Q735.9000 718.5400 732.7500 720.5700Q729.6000 722.6000 728.0600 725.9600L728.0600 725.9600Q726.9400 727.7800 724.8400 727.7800L724.8400 727.7800L713.7800 727.7800Q712.2400 727.7800 711.4700 726.9400Q710.7000 726.1000 710.7000 724.7000L710.7000 724.7000Q710.8400 722.4600 712.5900 719.2400Q714.3400 716.0200 717.9100 713.0100Q721.4800 710 727.2200 707.9000Q732.9600 705.8000 741.0800 705.8000L741.0800 705.8000Q749.9000 705.8000 755.9900 707.9700Q762.0800 710.1400 765.7200 713.7800Q769.3600 717.4200 771.0400 722.3200Q772.7200 727.2200 772.7200 732.6800L772.7200 732.6800L772.7200 776.6400Q772.7200 778.0400 771.7400 779.0200Q770.7600 780 769.3600 780L769.3600 780L758.0200 780Q756.4800 780 755.5700 779.0200Q754.6600 778.0400 754.6600 776.6400L754.6600 776.6400L754.6600 771.1800Q752.8400 773.7000 749.7600 776.0800Q746.6800 778.4600 742.2700 779.9300Q737.8600 781.4000 731.8400 781.4000ZM736.6000 768.1000L736.6000 768.1000Q741.5000 768.1000 745.4900 766Q749.4800 763.9000 751.7900 759.4900Q754.1000 755.0800 754.1000 748.3600L754.1000 748.3600L754.1000 745.4200L740.1000 747.6600Q731.8400 748.9200 727.7800 751.7200Q723.7200 754.5200 723.7200 758.5800L723.7200 758.5800Q723.7200 761.6600 725.6100 763.8300Q727.5000 766 730.4400 767.0500Q733.3800 768.1000 736.6000 768.1000ZM748.7800 697.4000L748.7800 697.4000Q745.1400 697.4000 742.9000 696.2100Q740.6600 695.0200 738.7700 693.7600Q736.8800 692.5000 734.6400 692.5000L734.6400 692.5000Q732.8200 692.5000 732.0500 693.5500Q731.2800 694.6000 730.5800 695.6500Q729.8800 696.7000 728.3400 696.7000L728.3400 696.7000L721.9000 696.7000Q720.9200 696.7000 720.2200 696Q719.5200 695.3000 719.5200 694.3200L719.5200 694.3200Q719.5200 692.2200 720.2900 689.6300Q721.0600 687.0400 722.7400 684.6600Q724.4200 682.2800 727.0100 680.8100Q729.6000 679.3400 733.1000 679.3400L733.1000 679.3400Q736.8800 679.3400 739.1200 680.5300Q741.3600 681.7200 743.2500 682.9800Q745.1400 684.2400 747.3800 684.2400L747.3800 684.2400Q749.2000 684.2400 749.9700 683.1200Q750.7400 682 751.4400 680.9500Q752.1400 679.9000 753.6800 679.9000L753.6800 679.9000L760.1200 679.9000Q761.2400 679.9000 761.8700 680.6700Q762.5000 681.4400 762.5000 682.4200L762.5000 682.4200Q762.5000 684.5200 761.7300 687.1100Q760.9600 689.7000 759.2800 692.0800Q757.6000 694.4600 755.0100 695.9300Q752.4200 697.4000 748.7800 697.4000ZM822.8400 781.4000L822.8400 781.4000Q811.6400 781.4000 804.0100 777.4800Q796.3800 773.5600 792.3900 766.4200Q788.4000 759.2800 787.8400 749.7600L787.8400 749.7600Q787.7000 747.2400 787.7000 743.6000Q787.7000 739.9600 787.8400 737.4400L787.8400 737.4400Q788.4000 727.7800 792.5300 720.7100Q796.6600 713.6400 804.2900 709.7200Q811.9200 705.8000 822.8400 705.8000L822.8400 705.8000Q833.7600 705.8000 841.3900 709.7200Q849.0200 713.6400 853.1500 720.7100Q857.2800 727.7800 857.8400 737.4400L857.8400 737.4400Q857.9800 739.9600 857.9800 743.6000Q857.9800 747.2400 857.8400 749.7600L857.8400 749.7600Q857.2800 759.2800 853.2900 766.4200Q849.3000 773.5600 841.6700 777.4800Q834.0400 781.4000 822.8400 781.4000ZM822.8400 767.5400L822.8400 767.5400Q830.2600 767.5400 834.3200 762.8500Q838.3800 758.1600 838.8000 749.0600L838.8000 749.0600Q838.9400 746.9600 838.9400 743.6000Q838.9400 740.2400 838.8000 738.1400L838.8000 738.1400Q838.3800 729.0400 834.3200 724.3500Q830.2600 719.6600 822.8400 719.6600L822.8400 719.6600Q815.4200 719.6600 811.3600 724.3500Q807.3000 729.0400 806.8800 738.1400L806.8800 738.1400Q806.7400 740.2400 806.7400 743.6000Q806.7400 746.9600 806.8800 749.0600L806.8800 749.0600Q807.3000 758.1600 811.3600 762.8500Q815.4200 767.5400 822.8400 767.5400Z" id="title"/></g></svg>