<svg xmlns="http://www.w3.org/2000/svg" version="1.1" xmlns:xlink="http://www.w3.org/1999/xlink" xmlns:svgjs="http://svgjs.dev/svgjs" viewBox="0 0 1920 1080" id="12f15baf-d4b0-4aea-bec3-65bade745cc4"><g><rect width="1920" height="1080" fill="#3e517a"/></g><g fill="#865070"><path d="M2118.71 322.496C1962.88 381.696 1840.11 286.062 1731.68 201.315C1619.52 113.904 1545.13 63.1995 1455.92 97.0926C1366.11 131.212 1344.15 218.52 1318.91 358.127C1294.11 493.487 1265.8 646.514 1109.97 705.714C954.144 764.914 831.375 669.28 722.951 584.533C610.793 497.122 536.401 446.418 447.185 480.311C357.375 514.43 335.414 601.738 310.18 741.346C285.375 876.706 257.072 1029.73 101.242 1088.93C-54.5876 1148.13 -177.357 1052.5 -285.78 967.751C-397.344 880.114 -471.736 829.41 -561.547 863.529L-602 757.045C-446.17 697.845 -323.401 793.479 -214.977 878.225C-102.819 965.637 -28.4265 1016.34 60.7891 982.448C150.6 948.329 172.56 861.02 197.794 721.413C222.599 586.053 250.307 433.253 406.732 373.827C562.562 314.627 685.331 410.261 793.754 495.007C905.913 582.419 980.305 633.123 1069.52 599.23C1159.33 565.111 1181.29 477.802 1206.53 338.195C1231.33 202.835 1259.04 50.0347 1415.46 -9.39121C1571.89 -68.8172 1694.06 27.043 1802.49 111.789C1914.64 199.201 1989.04 249.905 2078.25 216.012L2118.71 322.496Z"/></g><g fill="#ffffff" opacity="0.2"><path d="M960.041 79C960.041 79 971.953 194.974 981.699 214.484C992.529 237.245 1064 247 1064 247C1064 247 994.694 258.923 983.865 280.6C973.036 301.194 958.959 415 958.959 415C958.959 415 945.964 296.858 935.135 275.181C925.389 255.671 855 245.916 855 245.916C855 245.916 925.389 233.994 936.218 212.316C947.047 192.806 960.041 79 960.041 79Z"/><path d="M561.041 687C561.041 687 572.953 802.974 582.699 822.484C593.529 845.245 665 855 665 855C665 855 595.694 866.923 584.865 888.6C574.036 909.194 559.959 1023 559.959 1023C559.959 1023 546.964 904.858 536.135 883.181C526.389 863.671 456 853.916 456 853.916C456 853.916 526.389 841.994 537.218 820.316C548.047 800.806 561.041 687 561.041 687Z"/></g><g><path d="M178.635 139.281L184.422 144.246V166.626H215.704L219.958 172.147L215.69 177.397H184.422V198.795L178.635 203.747L173 198.795V144.232L178.635 139.281ZM195.554 195.68H219.406L223.397 200.915L219.143 206.45H195.554L191.7 201.342L195.554 195.68ZM196.382 138H219.129L223.383 143.52L219.129 148.77H196.659L192.115 143.677L196.382 138ZM323.155 148.628L328.251 154.291L323.155 159.968H246.13L241.172 154.291L246.13 148.628H323.155ZM237.043 172.147L241.849 167.893L246.669 172.147V178.393C246.669 188.879 249.417 197.515 261.668 197.515H264.14C275.147 197.515 281.197 189.86 281.197 177.952V172.005L285.879 167.75L290.699 171.862V178.379C290.699 189.007 293.723 196.946 305.56 196.946H307.618C319.178 196.946 321.235 187.869 321.373 177.952V171.578L326.056 167.608L331 171.72V178.094C330.862 191.838 327.285 207.574 308.032 207.574H305.974C294.552 207.574 288.365 202.324 285.892 195.808C283.006 202.466 275.299 208.286 264.844 208.286H262.358C242.553 208.286 237.194 195.964 237.056 178.663V172.147H237.043ZM276.391 274.744L273.642 267.089L280.796 264.969L305.974 276.721V252.491L311.07 248.095L316.291 252.491V281.829L325.641 286.226L328.251 293.311L320.959 296L276.391 274.744ZM321.235 223.011L328.113 226.27L325.917 233.497L264.002 263.119L256.571 260.146L259.596 252.776L321.235 223.011ZM231.905 263.404L237.954 268.512C237.402 286.51 222.403 296 204.669 296H202.874C194.062 296 183.759 292.6 177.157 286.083L177.834 278.855L184.298 278.002C189.118 282.256 195.858 285.229 202.183 285.229H204.117C216.091 285.229 225.303 280.136 226.27 268.085L231.905 263.404ZM226.256 251.638C225.704 239.16 216.629 234.209 204.103 234.209H202.169C194.739 234.209 189.104 237.182 184.284 241.436L177.834 240.583L177.143 233.355C183.745 226.696 192.957 223.58 202.597 223.58H204.517C222.403 223.58 237.402 232.942 237.94 251.211L231.891 256.176L226.256 251.638Z" fill="#ffffff"/></g><g fill="#ffffff" id="info-group"><path d="M167.0800 500L154.9000 500Q153.7800 500 152.8700 499.1600Q151.9600 498.3200 151.9600 497.0600L151.9600 497.0600Q151.9600 496.5000 152.2400 495.8000L152.2400 495.8000L185.9800 405.5000Q186.4000 404.1000 187.5900 403.0500Q188.7800 402 190.8800 402L190.8800 402L206.1400 402Q208.2400 402 209.3600 403.0500Q210.4800 404.1000 211.0400 405.5000L211.0400 405.5000L244.7800 495.8000Q244.9200 496.5000 244.9200 497.0600L244.9200 497.0600Q244.9200 498.3200 244.0800 499.1600Q243.2400 500 242.1200 500L242.1200 500L229.9400 500Q227.9800 500 227.0700 499.0900Q226.1600 498.1800 225.8800 497.3400L225.8800 497.3400L219.3000 480.2600L177.7200 480.2600L171.1400 497.3400Q170.8600 498.1800 169.9500 499.0900Q169.0400 500 167.0800 500L167.0800 500ZM198.4400 420.9000L182.6200 464.1600L214.4000 464.1600L198.4400 420.9000ZM283.2800 501.4000L283.2800 501.4000Q274.7400 501.4000 268.5100 497.5500Q262.2800 493.7000 258.9200 486.6300Q255.5600 479.5600 255.5600 469.9000L255.5600 469.9000L255.5600 430.5600Q255.5600 429.1600 256.5400 428.1800Q257.5200 427.2000 258.9200 427.2000L258.9200 427.2000L271.2400 427.2000Q272.7800 427.2000 273.6900 428.1800Q274.6000 429.1600 274.6000 430.5600L274.6000 430.5600L274.6000 469.0600Q274.6000 486.4200 289.8600 486.4200L289.8600 486.4200Q297.1400 486.4200 301.4100 481.8000Q305.6800 477.1800 305.6800 469.0600L305.6800 469.0600L305.6800 430.5600Q305.6800 429.1600 306.6600 428.1800Q307.6400 427.2000 309.0400 427.2000L309.0400 427.2000L321.3600 427.2000Q322.7600 427.2000 323.7400 428.1800Q324.7200 429.1600 324.7200 430.5600L324.7200 430.5600L324.7200 496.6400Q324.7200 498.0400 323.7400 499.0200Q322.7600 500 321.3600 500L321.3600 500L310.0200 500Q308.4800 500 307.5700 499.0200Q306.6600 498.0400 306.6600 496.6400L306.6600 496.6400L306.6600 490.9000Q302.8800 495.8000 297.2800 498.6000Q291.6800 501.4000 283.2800 501.4000ZM358.3200 500L346.7000 500Q345.3000 500 344.3200 499.0200Q343.3400 498.0400 343.3400 496.6400L343.3400 496.6400L343.3400 403.9600Q343.3400 402.5600 344.3200 401.5800Q345.3000 400.6000 346.7000 400.6000L346.7000 400.6000L358.3200 400.6000Q359.7200 400.6000 360.7000 401.5800Q361.6800 402.5600 361.6800 403.9600L361.6800 403.9600L361.6800 496.6400Q361.6800 498.0400 360.7000 499.0200Q359.7200 500 358.3200 500L358.3200 500ZM401.4400 501.4000L401.4400 501.4000Q394.1600 501.4000 388.2800 498.5300Q382.4000 495.6600 378.9700 490.8300Q375.5400 486 375.5400 479.9800L375.5400 479.9800Q375.5400 470.1800 383.5200 464.3700Q391.5000 458.5600 404.3800 456.6000L404.3800 456.6000L423.5600 453.8000L423.5600 450.8600Q423.5600 444.9800 420.6200 441.7600Q417.6800 438.5400 410.5400 438.5400L410.5400 438.5400Q405.5000 438.5400 402.3500 440.5700Q399.2000 442.6000 397.6600 445.9600L397.6600 445.9600Q396.5400 447.7800 394.4400 447.7800L394.4400 447.7800L383.3800 447.7800Q381.8400 447.7800 381.0700 446.9400Q380.3000 446.1000 380.3000 444.7000L380.3000 444.7000Q380.4400 442.4600 382.1900 439.2400Q383.9400 436.0200 387.5100 433.0100Q391.0800 430 396.8200 427.9000Q402.5600 425.8000 410.6800 425.8000L410.6800 425.8000Q419.5000 425.8000 425.5900 427.9700Q431.6800 430.1400 435.3200 433.7800Q438.9600 437.4200 440.6400 442.3200Q442.3200 447.2200 442.3200 452.6800L442.3200 452.6800L442.3200 496.6400Q442.3200 498.0400 441.3400 499.0200Q440.3600 500 438.9600 500L438.9600 500L427.6200 500Q426.0800 500 425.1700 499.0200Q424.2600 498.0400 424.2600 496.6400L424.2600 496.6400L424.2600 491.1800Q422.4400 493.7000 419.3600 496.0800Q416.2800 498.4600 411.8700 499.9300Q407.4600 501.4000 401.4400 501.4000ZM406.2000 488.1000L406.2000 488.1000Q411.1000 488.1000 415.0900 486Q419.0800 483.9000 421.3900 479.4900Q423.7000 475.0800 423.7000 468.3600L423.7000 468.3600L423.7000 465.4200L409.7000 467.6600Q401.4400 468.9200 397.3800 471.7200Q393.3200 474.5200 393.3200 478.5800L393.3200 478.5800Q393.3200 481.6600 395.2100 483.8300Q397.1000 486 400.0400 487.0500Q402.9800 488.1000 406.2000 488.1000ZM550.5400 500L538.3600 500Q536.9600 500 535.9800 499.0200Q535.0000 498.0400 535.0000 496.6400L535.0000 496.6400L535.0000 478.7200L490.6200 478.7200Q489.0800 478.7200 488.1700 477.7400Q487.2600 476.7600 487.2600 475.3600L487.2600 475.3600L487.2600 465.8400Q487.2600 465 487.6100 463.8100Q487.9600 462.6200 488.8000 461.6400L488.8000 461.6400L530.1000 404.3800Q531.9200 402 535.2800 402L535.2800 402L550.5400 402Q551.9400 402 552.9200 402.9800Q553.9000 403.9600 553.9000 405.3600L553.9000 405.3600L553.9000 462.2000L566.3600 462.2000Q568.0400 462.2000 568.9500 463.1100Q569.8600 464.0200 569.8600 465.5600L569.8600 465.5600L569.8600 475.3600Q569.8600 476.7600 568.8800 477.7400Q567.9000 478.7200 566.5000 478.7200L566.5000 478.7200L553.9000 478.7200L553.9000 496.6400Q553.9000 498.0400 552.9200 499.0200Q551.9400 500 550.5400 500L550.5400 500ZM535.4200 422.3000L506.7200 462.7600L535.4200 462.7600L535.4200 422.3000ZM600.3800 451L586.5200 451Q585.1200 451 584.1400 450.0200Q583.1600 449.0400 583.1600 447.6400L583.1600 447.6400L583.1600 434.3400Q583.1600 432.8000 584.1400 431.8200Q585.1200 430.8400 586.5200 430.8400L586.5200 430.8400L600.3800 430.8400Q601.9200 430.8400 602.9000 431.8200Q603.8800 432.8000 603.8800 434.3400L603.8800 434.3400L603.8800 447.6400Q603.8800 449.0400 602.9000 450.0200Q601.9200 451 600.3800 451L600.3800 451ZM600.3800 500L586.5200 500Q585.1200 500 584.1400 499.0200Q583.1600 498.0400 583.1600 496.6400L583.1600 496.6400L583.1600 483.3400Q583.1600 481.8000 584.1400 480.8200Q585.1200 479.8400 586.5200 479.8400L586.5200 479.8400L600.3800 479.8400Q601.9200 479.8400 602.9000 480.8200Q603.8800 481.8000 603.8800 483.3400L603.8800 483.3400L603.8800 496.6400Q603.8800 498.0400 602.9000 499.0200Q601.9200 500 600.3800 500L600.3800 500ZM693.7600 501.4000L693.7600 501.4000Q680.8800 501.4000 671.8500 496.9200Q662.8200 492.4400 657.8500 483.9700Q652.8800 475.5000 652.4600 463.7400L652.4600 463.7400Q652.3200 457.7200 652.3200 450.7900Q652.3200 443.8600 652.4600 437.7000L652.4600 437.7000Q652.8800 426.0800 657.8500 417.8200Q662.8200 409.5600 671.9900 405.0800Q681.1600 400.6000 693.7600 400.6000L693.7600 400.6000Q703.9800 400.6000 711.6800 403.3300Q719.3800 406.0600 724.4900 410.3300Q729.6000 414.6000 732.1900 419.5000Q734.7800 424.4000 734.9200 428.6000L734.9200 428.6000Q735.0600 429.8600 734.2200 430.7000Q733.3800 431.5400 731.9800 431.5400L731.9800 431.5400L717.5600 431.5400Q716.1600 431.5400 715.4600 430.9800Q714.7600 430.4200 714.2000 429.3000L714.2000 429.3000Q713.0800 426.3600 710.7000 423.4900Q708.3200 420.6200 704.2600 418.6600Q700.2000 416.7000 693.7600 416.7000L693.7600 416.7000Q684.2400 416.7000 678.5700 421.7400Q672.9000 426.7800 672.4800 438.4000L672.4800 438.4000Q672.0600 450.5800 672.4800 463.0400L672.4800 463.0400Q672.9000 474.9400 678.7100 480.1200Q684.5200 485.3000 694.0400 485.3000L694.0400 485.3000Q700.3400 485.3000 705.3100 483.0600Q710.2800 480.8200 713.1500 476.0600Q716.0200 471.3000 716.0200 463.8800L716.0200 463.8800L716.0200 459.5400L698.9400 459.5400Q697.5400 459.5400 696.5600 458.5600Q695.5800 457.5800 695.5800 456.0400L695.5800 456.0400L695.5800 448.6200Q695.5800 447.0800 696.5600 446.1000Q697.5400 445.1200 698.9400 445.1200L698.9400 445.1200L732.4000 445.1200Q733.9400 445.1200 734.8500 446.1000Q735.7600 447.0800 735.7600 448.6200L735.7600 448.6200L735.7600 463.3200Q735.7600 475.0800 730.6500 483.6200Q725.5400 492.1600 716.0900 496.7800Q706.6400 501.4000 693.7600 501.4000ZM783.3600 501.4000L783.3600 501.4000Q767.8200 501.4000 758.7200 492.4400Q749.6200 483.4800 748.9200 466.9600L748.9200 466.9600Q748.7800 465.5600 748.7800 463.3900Q748.7800 461.2200 748.9200 459.9600L748.9200 459.9600Q749.4800 449.3200 753.7500 441.6900Q758.0200 434.0600 765.5800 429.9300Q773.1400 425.8000 783.3600 425.8000L783.3600 425.8000Q794.7000 425.8000 802.4000 430.4900Q810.1000 435.1800 814.0200 443.5100Q817.9400 451.8400 817.9400 462.7600L817.9400 462.7600L817.9400 465.7000Q817.9400 467.1000 816.9600 468.0800Q815.9800 469.0600 814.4400 469.0600L814.4400 469.0600L767.9600 469.0600Q767.9600 469.0600 767.9600 469.4800Q767.9600 469.9000 767.9600 470.1800L767.9600 470.1800Q768.1000 475.0800 769.8500 479.2100Q771.6000 483.3400 775.0300 485.8600Q778.4600 488.3800 783.2200 488.3800L783.2200 488.3800Q787.1400 488.3800 789.8000 487.1900Q792.4600 486 794.1400 484.4600Q795.8200 482.9200 796.5200 481.9400L796.5200 481.9400Q797.7800 480.2600 798.5500 479.9100Q799.3200 479.5600 800.8600 479.5600L800.8600 479.5600L812.9000 479.5600Q814.3000 479.5600 815.2100 480.4000Q816.1200 481.2400 815.9800 482.5000L815.9800 482.5000Q815.8400 484.7400 813.6700 487.9600Q811.5000 491.1800 807.4400 494.2600Q803.3800 497.3400 797.2900 499.3700Q791.2000 501.4000 783.3600 501.4000ZM767.9600 456.8800L767.9600 457.3000L798.9000 457.3000L798.9000 456.8800Q798.9000 451.4200 797.0800 447.2900Q795.2600 443.1600 791.7600 440.8500Q788.2600 438.5400 783.3600 438.5400L783.3600 438.5400Q778.4600 438.5400 774.9600 440.8500Q771.4600 443.1600 769.7100 447.2900Q767.9600 451.4200 767.9600 456.8800L767.9600 456.8800ZM848.3200 500L836.1400 500Q834.7400 500 833.7600 499.0200Q832.7800 498.0400 832.7800 496.6400L832.7800 496.6400L832.7800 430.7000Q832.7800 429.1600 833.7600 428.1800Q834.7400 427.2000 836.1400 427.2000L836.1400 427.2000L847.4800 427.2000Q848.8800 427.2000 849.9300 428.1800Q850.9800 429.1600 850.9800 430.7000L850.9800 430.7000L850.9800 436.4400Q854.2000 431.9600 859.3100 429.5800Q864.4200 427.2000 871.1400 427.2000L871.1400 427.2000L876.8800 427.2000Q878.4200 427.2000 879.3300 428.1800Q880.2400 429.1600 880.2400 430.5600L880.2400 430.5600L880.2400 440.6400Q880.2400 442.0400 879.3300 443.0200Q878.4200 444 876.8800 444L876.8800 444L865.9600 444Q859.2400 444 855.5300 447.7100Q851.8200 451.4200 851.8200 458.1400L851.8200 458.1400L851.8200 496.6400Q851.8200 498.0400 850.8400 499.0200Q849.8600 500 848.3200 500L848.3200 500ZM922.5200 501.4000L922.5200 501.4000Q906.9800 501.4000 897.8800 492.4400Q888.7800 483.4800 888.0800 466.9600L888.0800 466.9600Q887.9400 465.5600 887.9400 463.3900Q887.9400 461.2200 888.0800 459.9600L888.0800 459.9600Q888.6400 449.3200 892.9100 441.6900Q897.1800 434.0600 904.7400 429.9300Q912.3000 425.8000 922.5200 425.8000L922.5200 425.8000Q933.8600 425.8000 941.5600 430.4900Q949.2600 435.1800 953.1800 443.5100Q957.1000 451.8400 957.1000 462.7600L957.1000 462.7600L957.1000 465.7000Q957.1000 467.1000 956.1200 468.0800Q955.1400 469.0600 953.6000 469.0600L953.6000 469.0600L907.1200 469.0600Q907.1200 469.0600 907.1200 469.4800Q907.1200 469.9000 907.1200 470.1800L907.1200 470.1800Q907.2600 475.0800 909.0100 479.2100Q910.7600 483.3400 914.1900 485.8600Q917.6200 488.3800 922.3800 488.3800L922.3800 488.3800Q926.3000 488.3800 928.9600 487.1900Q931.6200 486 933.3000 484.4600Q934.9800 482.9200 935.6800 481.9400L935.6800 481.9400Q936.9400 480.2600 937.7100 479.9100Q938.4800 479.5600 940.0200 479.5600L940.0200 479.5600L952.0600 479.5600Q953.4600 479.5600 954.3700 480.4000Q955.2800 481.2400 955.1400 482.5000L955.1400 482.5000Q955 484.7400 952.8300 487.9600Q950.6600 491.1800 946.6000 494.2600Q942.5400 497.3400 936.4500 499.3700Q930.3600 501.4000 922.5200 501.4000ZM907.1200 456.8800L907.1200 457.3000L938.0600 457.3000L938.0600 456.8800Q938.0600 451.4200 936.2400 447.2900Q934.4200 443.1600 930.9200 440.8500Q927.4200 438.5400 922.5200 438.5400L922.5200 438.5400Q917.6200 438.5400 914.1200 440.8500Q910.6200 443.1600 908.8700 447.2900Q907.1200 451.4200 907.1200 456.8800L907.1200 456.8800ZM987.6200 500L975.3000 500Q973.9000 500 972.9200 499.0200Q971.9400 498.0400 971.9400 496.6400L971.9400 496.6400L971.9400 430.5600Q971.9400 429.1600 972.9200 428.1800Q973.9000 427.2000 975.3000 427.2000L975.3000 427.2000L986.7800 427.2000Q988.1800 427.2000 989.1600 428.1800Q990.1400 429.1600 990.1400 430.5600L990.1400 430.5600L990.1400 436.3000Q993.7800 431.8200 999.4500 428.8100Q1005.1200 425.8000 1013.5200 425.8000L1013.5200 425.8000Q1022.0600 425.8000 1028.3600 429.6500Q1034.6600 433.5000 1038.0900 440.5000Q1041.5200 447.5000 1041.5200 457.3000L1041.5200 457.3000L1041.5200 496.6400Q1041.5200 498.0400 1040.5400 499.0200Q1039.5600 500 1038.1600 500L1038.1600 500L1025.8400 500Q1024.4400 500 1023.4600 499.0200Q1022.4800 498.0400 1022.4800 496.6400L1022.4800 496.6400L1022.4800 458.1400Q1022.4800 450.0200 1018.4900 445.4000Q1014.5000 440.7800 1006.9400 440.7800L1006.9400 440.7800Q999.6600 440.7800 995.3200 445.4000Q990.9800 450.0200 990.9800 458.1400L990.9800 458.1400L990.9800 496.6400Q990.9800 498.0400 990.0000 499.0200Q989.0200 500 987.6200 500L987.6200 500ZM1090.8000 501.4000L1090.8000 501.4000Q1080.7200 501.4000 1073.0900 497.6200Q1065.4600 493.8400 1061.1900 486.6300Q1056.9200 479.4200 1056.5000 469.2000L1056.5000 469.2000Q1056.3600 467.1000 1056.3600 463.6700Q1056.3600 460.2400 1056.5000 458L1056.5000 458Q1056.9200 447.7800 1061.1900 440.5700Q1065.4600 433.3600 1073.0900 429.5800Q1080.7200 425.8000 1090.8000 425.8000L1090.8000 425.8000Q1099.7600 425.8000 1106.0600 428.2500Q1112.3600 430.7000 1116.4200 434.5500Q1120.4800 438.4000 1122.5100 442.5300Q1124.5400 446.6600 1124.6800 450.0200L1124.6800 450.0200Q1124.8200 451.5600 1123.7700 452.4700Q1122.7200 453.3800 1121.3200 453.3800L1121.3200 453.3800L1109 453.3800Q1107.6000 453.3800 1106.8300 452.6800Q1106.0600 451.9800 1105.3600 450.5800L1105.3600 450.5800Q1103.2600 444.9800 1099.8300 442.6700Q1096.4000 440.3600 1091.0800 440.3600L1091.0800 440.3600Q1084.0800 440.3600 1079.9500 444.7700Q1075.8200 449.1800 1075.5400 458.7000L1075.5400 458.7000Q1075.2600 464.0200 1075.5400 468.5000L1075.5400 468.5000Q1075.8200 478.1600 1079.9500 482.5000Q1084.0800 486.8400 1091.0800 486.8400L1091.0800 486.8400Q1096.5400 486.8400 1099.9000 484.5300Q1103.2600 482.2200 1105.3600 476.6200L1105.3600 476.6200Q1106.0600 475.2200 1106.8300 474.5200Q1107.6000 473.8200 1109 473.8200L1109 473.8200L1121.3200 473.8200Q1122.7200 473.8200 1123.7700 474.7300Q1124.8200 475.6400 1124.6800 477.1800L1124.6800 477.1800Q1124.5400 479.7000 1123.3500 482.8500Q1122.1600 486 1119.5700 489.2900Q1116.9800 492.5800 1113.0600 495.3100Q1109.1400 498.0400 1103.6100 499.7200Q1098.0800 501.4000 1090.8000 501.4000ZM1154.2200 500L1142.6000 500Q1141.2000 500 1140.2200 499.0200Q1139.2400 498.0400 1139.2400 496.6400L1139.2400 496.6400L1139.2400 430.5600Q1139.2400 429.1600 1140.2200 428.1800Q1141.2000 427.2000 1142.6000 427.2000L1142.6000 427.2000L1154.2200 427.2000Q1155.7600 427.2000 1156.6700 428.1800Q1157.5800 429.1600 1157.5800 430.5600L1157.5800 430.5600L1157.5800 496.6400Q1157.5800 498.0400 1156.6700 499.0200Q1155.7600 500 1154.2200 500L1154.2200 500ZM1154.7800 415.1600L1142.0400 415.1600Q1140.6400 415.1600 1139.6600 414.1800Q1138.6800 413.2000 1138.6800 411.8000L1138.6800 411.8000L1138.6800 401.7200Q1138.6800 400.3200 1139.6600 399.3400Q1140.6400 398.3600 1142.0400 398.3600L1142.0400 398.3600L1154.7800 398.3600Q1156.3200 398.3600 1157.3000 399.3400Q1158.2800 400.3200 1158.2800 401.7200L1158.2800 401.7200L1158.2800 411.8000Q1158.2800 413.2000 1157.3000 414.1800Q1156.3200 415.1600 1154.7800 415.1600L1154.7800 415.1600ZM1197.3400 501.4000L1197.3400 501.4000Q1190.0600 501.4000 1184.1800 498.5300Q1178.3000 495.6600 1174.8700 490.8300Q1171.4400 486 1171.4400 479.9800L1171.4400 479.9800Q1171.4400 470.1800 1179.4200 464.3700Q1187.4000 458.5600 1200.2800 456.6000L1200.2800 456.6000L1219.4600 453.8000L1219.4600 450.8600Q1219.4600 444.9800 1216.5200 441.7600Q1213.5800 438.5400 1206.4400 438.5400L1206.4400 438.5400Q1201.4000 438.5400 1198.2500 440.5700Q1195.1000 442.6000 1193.5600 445.9600L1193.5600 445.9600Q1192.4400 447.7800 1190.3400 447.7800L1190.3400 447.7800L1179.2800 447.7800Q1177.7400 447.7800 1176.9700 446.9400Q1176.2000 446.1000 1176.2000 444.7000L1176.2000 444.7000Q1176.3400 442.4600 1178.0900 439.2400Q1179.8400 436.0200 1183.4100 433.0100Q1186.9800 430 1192.7200 427.9000Q1198.4600 425.8000 1206.5800 425.8000L1206.5800 425.8000Q1215.4000 425.8000 1221.4900 427.9700Q1227.5800 430.1400 1231.2200 433.7800Q1234.8600 437.4200 1236.5400 442.3200Q1238.2200 447.2200 1238.2200 452.6800L1238.2200 452.6800L1238.2200 496.6400Q1238.2200 498.0400 1237.2400 499.0200Q1236.2600 500 1234.8600 500L1234.8600 500L1223.5200 500Q1221.9800 500 1221.0700 499.0200Q1220.1600 498.0400 1220.1600 496.6400L1220.1600 496.6400L1220.1600 491.1800Q1218.3400 493.7000 1215.2600 496.0800Q1212.1800 498.4600 1207.7700 499.9300Q1203.3600 501.4000 1197.3400 501.4000ZM1202.1000 488.1000L1202.1000 488.1000Q1207 488.1000 1210.9900 486Q1214.9800 483.9000 1217.2900 479.4900Q1219.6000 475.0800 1219.6000 468.3600L1219.6000 468.3600L1219.6000 465.4200L1205.6000 467.6600Q1197.3400 468.9200 1193.2800 471.7200Q1189.2200 474.5200 1189.2200 478.5800L1189.2200 478.5800Q1189.2200 481.6600 1191.1100 483.8300Q1193 486 1195.9400 487.0500Q1198.8800 488.1000 1202.1000 488.1000ZM1271.8200 500L1259.5000 500Q1258.1000 500 1257.1200 499.0200Q1256.1400 498.0400 1256.1400 496.6400L1256.1400 496.6400L1256.1400 430.5600Q1256.1400 429.1600 1257.1200 428.1800Q1258.1000 427.2000 1259.5000 427.2000L1259.5000 427.2000L1270.9800 427.2000Q1272.3800 427.2000 1273.3600 428.1800Q1274.3400 429.1600 1274.3400 430.5600L1274.3400 430.5600L1274.3400 436.3000Q1277.9800 431.8200 1283.6500 428.8100Q1289.3200 425.8000 1297.7200 425.8000L1297.7200 425.8000Q1306.2600 425.8000 1312.5600 429.6500Q1318.8600 433.5000 1322.2900 440.5000Q1325.7200 447.5000 1325.7200 457.3000L1325.7200 457.3000L1325.7200 496.6400Q1325.7200 498.0400 1324.7400 499.0200Q1323.7600 500 1322.3600 500L1322.3600 500L1310.0400 500Q1308.6400 500 1307.6600 499.0200Q1306.6800 498.0400 1306.6800 496.6400L1306.6800 496.6400L1306.6800 458.1400Q1306.6800 450.0200 1302.6900 445.4000Q1298.7000 440.7800 1291.1400 440.7800L1291.1400 440.7800Q1283.8600 440.7800 1279.5200 445.4000Q1275.1800 450.0200 1275.1800 458.1400L1275.1800 458.1400L1275.1800 496.6400Q1275.1800 498.0400 1274.2000 499.0200Q1273.2200 500 1271.8200 500L1271.8200 500ZM1370.5200 501.4000L1370.5200 501.4000Q1363.2400 501.4000 1357.7100 498.9500Q1352.1800 496.5000 1348.5400 492.0200Q1344.9000 487.5400 1342.9400 481.4500Q1340.9800 475.3600 1340.7000 468.0800L1340.7000 468.0800Q1340.5600 465.5600 1340.5600 463.5300Q1340.5600 461.5000 1340.7000 458.9800L1340.7000 458.9800Q1340.9800 451.9800 1342.8700 445.9600Q1344.7600 439.9400 1348.4700 435.3900Q1352.1800 430.8400 1357.7100 428.3200Q1363.2400 425.8000 1370.5200 425.8000L1370.5200 425.8000Q1378.0800 425.8000 1383.3300 428.3900Q1388.5800 430.9800 1392.0800 435.0400L1392.0800 435.0400L1392.0800 403.9600Q1392.0800 402.5600 1392.9900 401.5800Q1393.9000 400.6000 1395.4400 400.6000L1395.4400 400.6000L1407.3400 400.6000Q1408.7400 400.6000 1409.7200 401.5800Q1410.7000 402.5600 1410.7000 403.9600L1410.7000 403.9600L1410.7000 496.6400Q1410.7000 498.0400 1409.7200 499.0200Q1408.7400 500 1407.3400 500L1407.3400 500L1396.2800 500Q1394.7400 500 1393.8300 499.0200Q1392.9200 498.0400 1392.9200 496.6400L1392.9200 496.6400L1392.9200 491.4600Q1389.4200 495.8000 1384.0300 498.6000Q1378.6400 501.4000 1370.5200 501.4000ZM1375.7000 486.4200L1375.7000 486.4200Q1381.5800 486.4200 1385.0800 483.7600Q1388.5800 481.1000 1390.2600 476.9700Q1391.9400 472.8400 1392.0800 468.5000L1392.0800 468.5000Q1392.2200 465.9800 1392.2200 463.1100Q1392.2200 460.2400 1392.0800 457.7200L1392.0800 457.7200Q1391.9400 453.5200 1390.1200 449.6700Q1388.3000 445.8200 1384.8000 443.3000Q1381.3000 440.7800 1375.7000 440.7800L1375.7000 440.7800Q1369.8200 440.7800 1366.3900 443.3700Q1362.9600 445.9600 1361.4200 450.1600Q1359.8800 454.3600 1359.6000 459.4000L1359.6000 459.4000Q1359.4600 463.6000 1359.6000 467.8000L1359.6000 467.8000Q1359.8800 472.8400 1361.4200 477.0400Q1362.9600 481.2400 1366.3900 483.8300Q1369.8200 486.4200 1375.7000 486.4200ZM1461.5200 501.4000L1461.5200 501.4000Q1450.3200 501.4000 1442.6900 497.4800Q1435.0600 493.5600 1431.0700 486.4200Q1427.0800 479.2800 1426.5200 469.7600L1426.5200 469.7600Q1426.3800 467.2400 1426.3800 463.6000Q1426.3800 459.9600 1426.5200 457.4400L1426.5200 457.4400Q1427.0800 447.7800 1431.2100 440.7100Q1435.3400 433.6400 1442.9700 429.7200Q1450.6000 425.8000 1461.5200 425.8000L1461.5200 425.8000Q1472.4400 425.8000 1480.0700 429.7200Q1487.7000 433.6400 1491.8300 440.7100Q1495.9600 447.7800 1496.5200 457.4400L1496.5200 457.4400Q1496.6600 459.9600 1496.6600 463.6000Q1496.6600 467.2400 1496.5200 469.7600L1496.5200 469.7600Q1495.9600 479.2800 1491.9700 486.4200Q1487.9800 493.5600 1480.3500 497.4800Q1472.7200 501.4000 1461.5200 501.4000ZM1461.5200 487.5400L1461.5200 487.5400Q1468.9400 487.5400 1473.0000 482.8500Q1477.0600 478.1600 1477.4800 469.0600L1477.4800 469.0600Q1477.6200 466.9600 1477.6200 463.6000Q1477.6200 460.2400 1477.4800 458.1400L1477.4800 458.1400Q1477.0600 449.0400 1473.0000 444.3500Q1468.9400 439.6600 1461.5200 439.6600L1461.5200 439.6600Q1454.1000 439.6600 1450.0400 444.3500Q1445.9800 449.0400 1445.5600 458.1400L1445.5600 458.1400Q1445.4200 460.2400 1445.4200 463.6000Q1445.4200 466.9600 1445.5600 469.0600L1445.5600 469.0600Q1445.9800 478.1600 1450.0400 482.8500Q1454.1000 487.5400 1461.5200 487.5400ZM174.3600 640L162.6000 640Q161.2000 640 160.2200 639.0200Q159.2400 638.0400 159.2400 636.6400L159.2400 636.6400L159.2400 570.5600Q159.2400 569.1600 160.2200 568.1800Q161.2000 567.2000 162.6000 567.2000L162.6000 567.2000L173.5200 567.2000Q174.9200 567.2000 175.9000 568.1800Q176.8800 569.1600 176.8800 570.5600L176.8800 570.5600L176.8800 575.3200Q179.8200 571.4000 184.7900 568.6700Q189.7600 565.9400 196.6200 565.8000L196.6200 565.8000Q212.5800 565.5200 218.8800 578.2600L218.8800 578.2600Q222.1000 572.6600 228.1900 569.2300Q234.2800 565.8000 241.7000 565.8000L241.7000 565.8000Q248.9800 565.8000 254.9300 569.1600Q260.8800 572.5200 264.3100 579.3100Q267.7400 586.1000 267.7400 596.4600L267.7400 596.4600L267.7400 636.6400Q267.7400 638.0400 266.7600 639.0200Q265.7800 640 264.3800 640L264.3800 640L252.9000 640Q251.5000 640 250.5200 639.0200Q249.5400 638.0400 249.5400 636.6400L249.5400 636.6400L249.5400 597.5800Q249.5400 591.2800 247.7200 587.5700Q245.9000 583.8600 242.8200 582.3200Q239.7400 580.7800 235.9600 580.7800L235.9600 580.7800Q232.8800 580.7800 229.8000 582.3200Q226.7200 583.8600 224.7600 587.5700Q222.8000 591.2800 222.8000 597.5800L222.8000 597.5800L222.8000 636.6400Q222.8000 638.0400 221.8200 639.0200Q220.8400 640 219.4400 640L219.4400 640L207.9600 640Q206.5600 640 205.5800 639.0200Q204.6000 638.0400 204.6000 636.6400L204.6000 636.6400L204.6000 597.5800Q204.6000 591.2800 202.6400 587.5700Q200.6800 583.8600 197.6000 582.3200Q194.5200 580.7800 191.0200 580.7800L191.0200 580.7800Q187.8000 580.7800 184.7200 582.3900Q181.6400 584 179.6800 587.6400Q177.7200 591.2800 177.7200 597.5800L177.7200 597.5800L177.7200 636.6400Q177.7200 638.0400 176.7400 639.0200Q175.7600 640 174.3600 640L174.3600 640ZM312.5400 641.4000L312.5400 641.4000Q304.0000 641.4000 297.7700 637.5500Q291.5400 633.7000 288.1800 626.6300Q284.8200 619.5600 284.8200 609.9000L284.8200 609.9000L284.8200 570.5600Q284.8200 569.1600 285.8000 568.1800Q286.7800 567.2000 288.1800 567.2000L288.1800 567.2000L300.5000 567.2000Q302.0400 567.2000 302.9500 568.1800Q303.8600 569.1600 303.8600 570.5600L303.8600 570.5600L303.8600 609.0600Q303.8600 626.4200 319.1200 626.4200L319.1200 626.4200Q326.4000 626.4200 330.6700 621.8000Q334.9400 617.1800 334.9400 609.0600L334.9400 609.0600L334.9400 570.5600Q334.9400 569.1600 335.9200 568.1800Q336.9000 567.2000 338.3000 567.2000L338.3000 567.2000L350.6200 567.2000Q352.0200 567.2000 353.0000 568.1800Q353.9800 569.1600 353.9800 570.5600L353.9800 570.5600L353.9800 636.6400Q353.9800 638.0400 353.0000 639.0200Q352.0200 640 350.6200 640L350.6200 640L339.2800 640Q337.7400 640 336.8300 639.0200Q335.9200 638.0400 335.9200 636.6400L335.9200 636.6400L335.9200 630.9000Q332.1400 635.8000 326.5400 638.6000Q320.9400 641.4000 312.5400 641.4000ZM399.4800 641.4000L399.4800 641.4000Q392.2000 641.4000 386.6700 638.9500Q381.1400 636.5000 377.5000 632.0200Q373.8600 627.5400 371.9000 621.4500Q369.9400 615.3600 369.6600 608.0800L369.6600 608.0800Q369.5200 605.5600 369.5200 603.5300Q369.5200 601.5000 369.6600 598.9800L369.6600 598.9800Q369.9400 591.9800 371.8300 585.9600Q373.7200 579.9400 377.4300 575.3900Q381.1400 570.8400 386.6700 568.3200Q392.2000 565.8000 399.4800 565.8000L399.4800 565.8000Q407.0400 565.8000 412.2900 568.3900Q417.5400 570.9800 421.0400 575.0400L421.0400 575.0400L421.0400 543.9600Q421.0400 542.5600 421.9500 541.5800Q422.8600 540.6000 424.4000 540.6000L424.4000 540.6000L436.3000 540.6000Q437.7000 540.6000 438.6800 541.5800Q439.6600 542.5600 439.6600 543.9600L439.6600 543.9600L439.6600 636.6400Q439.6600 638.0400 438.6800 639.0200Q437.7000 640 436.3000 640L436.3000 640L425.2400 640Q423.7000 640 422.7900 639.0200Q421.8800 638.0400 421.8800 636.6400L421.8800 636.6400L421.8800 631.4600Q418.3800 635.8000 412.9900 638.6000Q407.6000 641.4000 399.4800 641.4000ZM404.6600 626.4200L404.6600 626.4200Q410.5400 626.4200 414.0400 623.7600Q417.5400 621.1000 419.2200 616.9700Q420.9000 612.8400 421.0400 608.5000L421.0400 608.5000Q421.1800 605.9800 421.1800 603.1100Q421.1800 600.2400 421.0400 597.7200L421.0400 597.7200Q420.9000 593.5200 419.0800 589.6700Q417.2600 585.8200 413.7600 583.3000Q410.2600 580.7800 404.6600 580.7800L404.6600 580.7800Q398.7800 580.7800 395.3500 583.3700Q391.9200 585.9600 390.3800 590.1600Q388.8400 594.3600 388.5600 599.4000L388.5600 599.4000Q388.4200 603.6000 388.5600 607.8000L388.5600 607.8000Q388.8400 612.8400 390.3800 617.0400Q391.9200 621.2400 395.3500 623.8300Q398.7800 626.4200 404.6600 626.4200ZM479.4200 641.4000L479.4200 641.4000Q472.1400 641.4000 466.2600 638.5300Q460.3800 635.6600 456.9500 630.8300Q453.5200 626 453.5200 619.9800L453.5200 619.9800Q453.5200 610.1800 461.5000 604.3700Q469.4800 598.5600 482.3600 596.6000L482.3600 596.6000L501.5400 593.8000L501.5400 590.8600Q501.5400 584.9800 498.6000 581.7600Q495.6600 578.5400 488.5200 578.5400L488.5200 578.5400Q483.4800 578.5400 480.3300 580.5700Q477.1800 582.6000 475.6400 585.9600L475.6400 585.9600Q474.5200 587.7800 472.4200 587.7800L472.4200 587.7800L461.3600 587.7800Q459.8200 587.7800 459.0500 586.9400Q458.2800 586.1000 458.2800 584.7000L458.2800 584.7000Q458.4200 582.4600 460.1700 579.2400Q461.9200 576.0200 465.4900 573.0100Q469.0600 570 474.8000 567.9000Q480.5400 565.8000 488.6600 565.8000L488.6600 565.8000Q497.4800 565.8000 503.5700 567.9700Q509.6600 570.1400 513.3000 573.7800Q516.9400 577.4200 518.6200 582.3200Q520.3000 587.2200 520.3000 592.6800L520.3000 592.6800L520.3000 636.6400Q520.3000 638.0400 519.3200 639.0200Q518.3400 640 516.9400 640L516.9400 640L505.6000 640Q504.0600 640 503.1500 639.0200Q502.2400 638.0400 502.2400 636.6400L502.2400 636.6400L502.2400 631.1800Q500.4200 633.7000 497.3400 636.0800Q494.2600 638.4600 489.8500 639.9300Q485.4400 641.4000 479.4200 641.4000ZM484.1800 628.1000L484.1800 628.1000Q489.0800 628.1000 493.0700 626Q497.0600 623.9000 499.3700 619.4900Q501.6800 615.0800 501.6800 608.3600L501.6800 608.3600L501.6800 605.4200L487.6800 607.6600Q479.4200 608.9200 475.3600 611.7200Q471.3000 614.5200 471.3000 618.5800L471.3000 618.5800Q471.3000 621.6600 473.1900 623.8300Q475.0800 626 478.0200 627.0500Q480.9600 628.1000 484.1800 628.1000ZM553.9000 640L541.5800 640Q540.1800 640 539.2000 639.0200Q538.2200 638.0400 538.2200 636.6400L538.2200 636.6400L538.2200 570.5600Q538.2200 569.1600 539.2000 568.1800Q540.1800 567.2000 541.5800 567.2000L541.5800 567.2000L553.0600 567.2000Q554.4600 567.2000 555.4400 568.1800Q556.4200 569.1600 556.4200 570.5600L556.4200 570.5600L556.4200 576.3000Q560.0600 571.8200 565.7300 568.8100Q571.4000 565.8000 579.8000 565.8000L579.8000 565.8000Q588.3400 565.8000 594.6400 569.6500Q600.9400 573.5000 604.3700 580.5000Q607.8000 587.5000 607.8000 597.3000L607.8000 597.3000L607.8000 636.6400Q607.8000 638.0400 606.8200 639.0200Q605.8400 640 604.4400 640L604.4400 640L592.1200 640Q590.7200 640 589.7400 639.0200Q588.7600 638.0400 588.7600 636.6400L588.7600 636.6400L588.7600 598.1400Q588.7600 590.0200 584.7700 585.4000Q580.7800 580.7800 573.2200 580.7800L573.2200 580.7800Q565.9400 580.7800 561.6000 585.4000Q557.2600 590.0200 557.2600 598.1400L557.2600 598.1400L557.2600 636.6400Q557.2600 638.0400 556.2800 639.0200Q555.3000 640 553.9000 640L553.9000 640ZM656.9400 670.8000L656.9400 670.8000Q653.0200 670.6600 650.0100 669.4000Q647 668.1400 645.6700 666.4600Q644.3400 664.7800 645.7400 663.6600L645.7400 663.6600L648.1200 661.5600Q649.3800 660.4400 650.2900 660.9300Q651.2000 661.4200 652.6700 662.3300Q654.1400 663.2400 656.9400 663.2400L656.9400 663.2400Q659.0400 663.2400 660.5800 661.9100Q662.1200 660.5800 662.1200 658.4800L662.1200 658.4800Q662.1200 656.5200 660.6500 655.2600Q659.1800 654 656.9400 654L656.9400 654Q654.9800 654 653.5800 654.4900Q652.1800 654.9800 651.0600 655.1900Q649.9400 655.4000 648.8200 654.2800L648.8200 654.2800L646.3000 651.7600Q645.4600 650.7800 645.7400 649.7300Q646.0200 648.6800 646.5800 647.4200L646.5800 647.4200L649.5200 640.7000Q637.4800 638.8800 630.3400 630.6900Q623.2000 622.5000 622.7800 609.2000L622.7800 609.2000Q622.6400 607.1000 622.6400 603.6700Q622.6400 600.2400 622.7800 598L622.7800 598Q623.2000 587.7800 627.4700 580.5700Q631.7400 573.3600 639.3700 569.5800Q647 565.8000 657.0800 565.8000L657.0800 565.8000Q666.0400 565.8000 672.3400 568.2500Q678.6400 570.7000 682.7000 574.5500Q686.7600 578.4000 688.7900 582.5300Q690.8200 586.6600 690.9600 590.0200L690.9600 590.0200Q691.1000 591.5600 690.0500 592.4700Q689 593.3800 687.6000 593.3800L687.6000 593.3800L675.2800 593.3800Q673.8800 593.3800 673.1100 592.6800Q672.3400 591.9800 671.6400 590.5800L671.6400 590.5800Q669.5400 584.9800 666.1100 582.6700Q662.6800 580.3600 657.3600 580.3600L657.3600 580.3600Q650.3600 580.3600 646.2300 584.7700Q642.1000 589.1800 641.8200 598.7000L641.8200 598.7000Q641.5400 604.0200 641.8200 608.5000L641.8200 608.5000Q642.1000 618.1600 646.2300 622.5000Q650.3600 626.8400 657.3600 626.8400L657.3600 626.8400Q662.8200 626.8400 666.1800 624.5300Q669.5400 622.2200 671.6400 616.6200L671.6400 616.6200Q672.3400 615.2200 673.1100 614.5200Q673.8800 613.8200 675.2800 613.8200L675.2800 613.8200L687.6000 613.8200Q689 613.8200 690.0500 614.7300Q691.1000 615.6400 690.9600 617.1800L690.9600 617.1800Q690.8200 620.2600 688.8600 624.3900Q686.9000 628.5200 682.9800 632.3700Q679.0600 636.2200 672.7600 638.8100Q666.4600 641.4000 657.5000 641.4000L657.5000 641.4000L654.5600 647.4200Q655.4000 647 656.8700 646.7200Q658.3400 646.4400 659.4600 646.4400L659.4600 646.4400Q664.3600 646.4400 667.3700 649.8000Q670.3800 653.1600 670.3800 658.3400L670.3800 658.3400Q670.3800 663.6600 666.8800 667.3000Q663.3800 670.9400 656.9400 670.8000ZM726.6600 641.4000L726.6600 641.4000Q719.3800 641.4000 713.5000 638.5300Q707.6200 635.6600 704.1900 630.8300Q700.7600 626 700.7600 619.9800L700.7600 619.9800Q700.7600 610.1800 708.7400 604.3700Q716.7200 598.5600 729.6000 596.6000L729.6000 596.6000L748.7800 593.8000L748.7800 590.8600Q748.7800 584.9800 745.8400 581.7600Q742.9000 578.5400 735.7600 578.5400L735.7600 578.5400Q730.7200 578.5400 727.5700 580.5700Q724.4200 582.6000 722.8800 585.9600L722.8800 585.9600Q721.7600 587.7800 719.6600 587.7800L719.6600 587.7800L708.6000 587.7800Q707.0600 587.7800 706.2900 586.9400Q705.5200 586.1000 705.5200 584.7000L705.5200 584.7000Q705.6600 582.4600 707.4100 579.2400Q709.1600 576.0200 712.7300 573.0100Q716.3000 570 722.0400 567.9000Q727.7800 565.8000 735.9000 565.8000L735.9000 565.8000Q744.7200 565.8000 750.8100 567.9700Q756.9000 570.1400 760.5400 573.7800Q764.1800 577.4200 765.8600 582.3200Q767.5400 587.2200 767.5400 592.6800L767.5400 592.6800L767.5400 636.6400Q767.5400 638.0400 766.5600 639.0200Q765.5800 640 764.1800 640L764.1800 640L752.8400 640Q751.3000 640 750.3900 639.0200Q749.4800 638.0400 749.4800 636.6400L749.4800 636.6400L749.4800 631.1800Q747.6600 633.7000 744.5800 636.0800Q741.5000 638.4600 737.0900 639.9300Q732.6800 641.4000 726.6600 641.4000ZM731.4200 628.1000L731.4200 628.1000Q736.3200 628.1000 740.3100 626Q744.3000 623.9000 746.6100 619.4900Q748.9200 615.0800 748.9200 608.3600L748.9200 608.3600L748.9200 605.4200L734.9200 607.6600Q726.6600 608.9200 722.6000 611.7200Q718.5400 614.5200 718.5400 618.5800L718.5400 618.5800Q718.5400 621.6600 720.4300 623.8300Q722.3200 626 725.2600 627.0500Q728.2000 628.1000 731.4200 628.1000ZM813.0400 641.4000L813.0400 641.4000Q804.6400 641.4000 798.6900 639.4400Q792.7400 637.4800 788.9600 634.5400Q785.1800 631.6000 783.3600 628.6600Q781.5400 625.7200 781.4000 623.7600L781.4000 623.7600Q781.2600 622.2200 782.3100 621.3100Q783.3600 620.4000 784.6200 620.4000L784.6200 620.4000L795.6800 620.4000Q796.2400 620.4000 796.6600 620.5400Q797.0800 620.6800 797.7800 621.3800L797.7800 621.3800Q799.6000 622.9200 801.6300 624.6000Q803.6600 626.2800 806.4600 627.4700Q809.2600 628.6600 813.4600 628.6600L813.4600 628.6600Q818.9200 628.6600 822.6300 626.4900Q826.3400 624.3200 826.3400 620.2600L826.3400 620.2600Q826.3400 617.3200 824.7300 615.5000Q823.1200 613.6800 818.7800 612.2100Q814.4400 610.7400 806.4600 609.0600L806.4600 609.0600Q798.6200 607.2400 793.4400 604.4400Q788.2600 601.6400 785.7400 597.4400Q783.2200 593.2400 783.2200 587.6400L783.2200 587.6400Q783.2200 582.1800 786.5100 577.2100Q789.8000 572.2400 796.3100 569.0200Q802.8200 565.8000 812.4800 565.8000L812.4800 565.8000Q820.0400 565.8000 825.6400 567.6900Q831.2400 569.5800 834.9500 572.3800Q838.6600 575.1800 840.6200 578.0500Q842.5800 580.9200 842.7200 583.0200L842.7200 583.0200Q842.8600 584.5600 841.8800 585.4700Q840.9000 586.3800 839.6400 586.3800L839.6400 586.3800L829.2800 586.3800Q828.5800 586.3800 828.0200 586.1000Q827.4600 585.8200 826.9000 585.4000L826.9000 585.4000Q825.3600 584 823.5400 582.3900Q821.7200 580.7800 819.1300 579.6600Q816.5400 578.5400 812.3400 578.5400L812.3400 578.5400Q807.0200 578.5400 804.2200 580.8500Q801.4200 583.1600 801.4200 586.6600L801.4200 586.6600Q801.4200 589.0400 802.7500 590.7900Q804.0800 592.5400 808.1400 594.0800Q812.2000 595.6200 820.4600 597.3000L820.4600 597.3000Q829.8400 598.9800 835.3700 602.2700Q840.9000 605.5600 843.2100 609.8300Q845.5200 614.1000 845.5200 619.2800L845.5200 619.2800Q845.5200 625.5800 841.8100 630.6200Q838.1000 635.6600 830.8900 638.5300Q823.6800 641.4000 813.0400 641.4000ZM923.5000 641.4000L923.5000 641.4000Q913.4200 641.4000 905.7900 637.6200Q898.1600 633.8400 893.8900 626.6300Q889.6200 619.4200 889.2000 609.2000L889.2000 609.2000Q889.0600 607.1000 889.0600 603.6700Q889.0600 600.2400 889.2000 598L889.2000 598Q889.6200 587.7800 893.8900 580.5700Q898.1600 573.3600 905.7900 569.5800Q913.4200 565.8000 923.5000 565.8000L923.5000 565.8000Q932.4600 565.8000 938.7600 568.2500Q945.0600 570.7000 949.1200 574.5500Q953.1800 578.4000 955.2100 582.5300Q957.2400 586.6600 957.3800 590.0200L957.3800 590.0200Q957.5200 591.5600 956.4700 592.4700Q955.4200 593.3800 954.0200 593.3800L954.0200 593.3800L941.7000 593.3800Q940.3000 593.3800 939.5300 592.6800Q938.7600 591.9800 938.0600 590.5800L938.0600 590.5800Q935.9600 584.9800 932.5300 582.6700Q929.1000 580.3600 923.7800 580.3600L923.7800 580.3600Q916.7800 580.3600 912.6500 584.7700Q908.5200 589.1800 908.2400 598.7000L908.2400 598.7000Q907.9600 604.0200 908.2400 608.5000L908.2400 608.5000Q908.5200 618.1600 912.6500 622.5000Q916.7800 626.8400 923.7800 626.8400L923.7800 626.8400Q929.2400 626.8400 932.6000 624.5300Q935.9600 622.2200 938.0600 616.6200L938.0600 616.6200Q938.7600 615.2200 939.5300 614.5200Q940.3000 613.8200 941.7000 613.8200L941.7000 613.8200L954.0200 613.8200Q955.4200 613.8200 956.4700 614.7300Q957.5200 615.6400 957.3800 617.1800L957.3800 617.1800Q957.2400 619.7000 956.0500 622.8500Q954.8600 626 952.2700 629.2900Q949.6800 632.5800 945.7600 635.3100Q941.8400 638.0400 936.3100 639.7200Q930.7800 641.4000 923.5000 641.4000ZM1004.1400 641.4000L1004.1400 641.4000Q992.9400 641.4000 985.3100 637.4800Q977.6800 633.5600 973.6900 626.4200Q969.7000 619.2800 969.1400 609.7600L969.1400 609.7600Q969.0000 607.2400 969.0000 603.6000Q969.0000 599.9600 969.1400 597.4400L969.1400 597.4400Q969.7000 587.7800 973.8300 580.7100Q977.9600 573.6400 985.5900 569.7200Q993.2200 565.8000 1004.1400 565.8000L1004.1400 565.8000Q1015.0600 565.8000 1022.6900 569.7200Q1030.3200 573.6400 1034.4500 580.7100Q1038.5800 587.7800 1039.1400 597.4400L1039.1400 597.4400Q1039.2800 599.9600 1039.2800 603.6000Q1039.2800 607.2400 1039.1400 609.7600L1039.1400 609.7600Q1038.5800 619.2800 1034.5900 626.4200Q1030.6000 633.5600 1022.9700 637.4800Q1015.3400 641.4000 1004.1400 641.4000ZM1004.1400 627.5400L1004.1400 627.5400Q1011.5600 627.5400 1015.6200 622.8500Q1019.6800 618.1600 1020.1000 609.0600L1020.1000 609.0600Q1020.2400 606.9600 1020.2400 603.6000Q1020.2400 600.2400 1020.1000 598.1400L1020.1000 598.1400Q1019.6800 589.0400 1015.6200 584.3500Q1011.5600 579.6600 1004.1400 579.6600L1004.1400 579.6600Q996.7200 579.6600 992.6600 584.3500Q988.6000 589.0400 988.1800 598.1400L988.1800 598.1400Q988.0400 600.2400 988.0400 603.6000Q988.0400 606.9600 988.1800 609.0600L988.1800 609.0600Q988.6000 618.1600 992.6600 622.8500Q996.7200 627.5400 1004.1400 627.5400ZM1069.9400 640L1058.1800 640Q1056.7800 640 1055.8000 639.0200Q1054.8200 638.0400 1054.8200 636.6400L1054.8200 636.6400L1054.8200 570.5600Q1054.8200 569.1600 1055.8000 568.1800Q1056.7800 567.2000 1058.1800 567.2000L1058.1800 567.2000L1069.1000 567.2000Q1070.5000 567.2000 1071.4800 568.1800Q1072.4600 569.1600 1072.4600 570.5600L1072.4600 570.5600L1072.4600 575.3200Q1075.4000 571.4000 1080.3700 568.6700Q1085.3400 565.9400 1092.2000 565.8000L1092.2000 565.8000Q1108.1600 565.5200 1114.4600 578.2600L1114.4600 578.2600Q1117.6800 572.6600 1123.7700 569.2300Q1129.8600 565.8000 1137.2800 565.8000L1137.2800 565.8000Q1144.5600 565.8000 1150.5100 569.1600Q1156.4600 572.5200 1159.8900 579.3100Q1163.3200 586.1000 1163.3200 596.4600L1163.3200 596.4600L1163.3200 636.6400Q1163.3200 638.0400 1162.3400 639.0200Q1161.3600 640 1159.9600 640L1159.9600 640L1148.4800 640Q1147.0800 640 1146.1000 639.0200Q1145.1200 638.0400 1145.1200 636.6400L1145.1200 636.6400L1145.1200 597.5800Q1145.1200 591.2800 1143.3000 587.5700Q1141.4800 583.8600 1138.4000 582.3200Q1135.3200 580.7800 1131.5400 580.7800L1131.5400 580.7800Q1128.4600 580.7800 1125.3800 582.3200Q1122.3000 583.8600 1120.3400 587.5700Q1118.3800 591.2800 1118.3800 597.5800L1118.3800 597.5800L1118.3800 636.6400Q1118.3800 638.0400 1117.4000 639.0200Q1116.4200 640 1115.0200 640L1115.0200 640L1103.5400 640Q1102.1400 640 1101.1600 639.0200Q1100.1800 638.0400 1100.1800 636.6400L1100.1800 636.6400L1100.1800 597.5800Q1100.1800 591.2800 1098.2200 587.5700Q1096.2600 583.8600 1093.1800 582.3200Q1090.1000 580.7800 1086.6000 580.7800L1086.6000 580.7800Q1083.3800 580.7800 1080.3000 582.3900Q1077.2200 584 1075.2600 587.6400Q1073.3000 591.2800 1073.3000 597.5800L1073.3000 597.5800L1073.3000 636.6400Q1073.3000 638.0400 1072.3200 639.0200Q1071.3400 640 1069.9400 640L1069.9400 640ZM1246.0600 670.8000L1246.0600 670.8000Q1235.8400 670.8000 1229.2600 668.1400Q1222.6800 665.4800 1218.9000 661.7000Q1215.1200 657.9200 1213.5100 654.2100Q1211.9000 650.5000 1211.7600 648.4000L1211.7600 648.4000Q1211.6200 647 1212.6700 645.9500Q1213.7200 644.9000 1215.1200 644.9000L1215.1200 644.9000L1227.3000 644.9000Q1228.7000 644.9000 1229.5400 645.5300Q1230.3800 646.1600 1230.9400 647.8400L1230.9400 647.8400Q1231.7800 649.6600 1233.1800 651.7600Q1234.5800 653.8600 1237.4500 655.3300Q1240.3200 656.8000 1245.3600 656.8000L1245.3600 656.8000Q1250.6800 656.8000 1254.3200 655.2600Q1257.9600 653.7200 1259.8500 650.0800Q1261.7400 646.4400 1261.7400 640L1261.7400 640L1261.7400 630.4800Q1258.3800 634.5400 1253.1300 637.0600Q1247.8800 639.5800 1240.1800 639.5800L1240.1800 639.5800Q1232.7600 639.5800 1227.2300 637.1300Q1221.7000 634.6800 1218.0600 630.2700Q1214.4200 625.8600 1212.5300 619.8400Q1210.6400 613.8200 1210.3600 606.5400L1210.3600 606.5400Q1210.2200 602.7600 1210.3600 598.9800L1210.3600 598.9800Q1210.6400 591.9800 1212.5300 585.9600Q1214.4200 579.9400 1218.0600 575.3900Q1221.7000 570.8400 1227.2300 568.3200Q1232.7600 565.8000 1240.1800 565.8000L1240.1800 565.8000Q1248.1600 565.8000 1253.6200 568.8100Q1259.0800 571.8200 1262.5800 576.3000L1262.5800 576.3000L1262.5800 570.7000Q1262.5800 569.1600 1263.5600 568.1800Q1264.5400 567.2000 1265.9400 567.2000L1265.9400 567.2000L1277.2800 567.2000Q1278.6800 567.2000 1279.6600 568.1800Q1280.6400 569.1600 1280.6400 570.7000L1280.6400 570.7000L1280.7800 638.1800Q1280.7800 648.2600 1277.0000 655.5400Q1273.2200 662.8200 1265.5900 666.8100Q1257.9600 670.8000 1246.0600 670.8000ZM1245.3600 624.7400L1245.3600 624.7400Q1251.1000 624.7400 1254.6000 622.2200Q1258.1000 619.7000 1259.7800 615.6400Q1261.4600 611.5800 1261.7400 607.3800L1261.7400 607.3800Q1261.8800 605.5600 1261.8800 602.7600Q1261.8800 599.9600 1261.7400 598.2800L1261.7400 598.2800Q1261.4600 593.9400 1259.7800 589.9500Q1258.1000 585.9600 1254.6000 583.3700Q1251.1000 580.7800 1245.3600 580.7800L1245.3600 580.7800Q1239.6200 580.7800 1236.1200 583.3700Q1232.6200 585.9600 1231.1500 590.1600Q1229.6800 594.3600 1229.4000 599.4000L1229.4000 599.4000Q1229.1200 602.7600 1229.4000 606.2600L1229.4000 606.2600Q1229.6800 611.1600 1231.1500 615.4300Q1232.6200 619.7000 1236.1200 622.2200Q1239.6200 624.7400 1245.3600 624.7400ZM1314.3800 640L1302.7600 640Q1301.3600 640 1300.3800 639.0200Q1299.4000 638.0400 1299.4000 636.6400L1299.4000 636.6400L1299.4000 570.5600Q1299.4000 569.1600 1300.3800 568.1800Q1301.3600 567.2000 1302.7600 567.2000L1302.7600 567.2000L1314.3800 567.2000Q1315.9200 567.2000 1316.8300 568.1800Q1317.7400 569.1600 1317.7400 570.5600L1317.7400 570.5600L1317.7400 636.6400Q1317.7400 638.0400 1316.8300 639.0200Q1315.9200 640 1314.3800 640L1314.3800 640ZM1314.9400 555.1600L1302.2000 555.1600Q1300.8000 555.1600 1299.8200 554.1800Q1298.8400 553.2000 1298.8400 551.8000L1298.8400 551.8000L1298.8400 541.7200Q1298.8400 540.3200 1299.8200 539.3400Q1300.8000 538.3600 1302.2000 538.3600L1302.2000 538.3600L1314.9400 538.3600Q1316.4800 538.3600 1317.4600 539.3400Q1318.4400 540.3200 1318.4400 541.7200L1318.4400 541.7200L1318.4400 551.8000Q1318.4400 553.2000 1317.4600 554.1800Q1316.4800 555.1600 1314.9400 555.1600L1314.9400 555.1600ZM1380.6000 640L1369.2600 640Q1360.8600 640 1355.1200 637.0600Q1349.3800 634.1200 1346.5800 628.3100Q1343.7800 622.5000 1343.7800 613.8200L1343.7800 613.8200L1343.7800 582.0400L1332.7200 582.0400Q1331.3200 582.0400 1330.3400 581.0600Q1329.3600 580.0800 1329.3600 578.5400L1329.3600 578.5400L1329.3600 570.5600Q1329.3600 569.1600 1330.3400 568.1800Q1331.3200 567.2000 1332.7200 567.2000L1332.7200 567.2000L1343.7800 567.2000L1343.7800 543.9600Q1343.7800 542.5600 1344.6900 541.5800Q1345.6000 540.6000 1347.1400 540.6000L1347.1400 540.6000L1358.4800 540.6000Q1359.8800 540.6000 1360.8600 541.5800Q1361.8400 542.5600 1361.8400 543.9600L1361.8400 543.9600L1361.8400 567.2000L1379.3400 567.2000Q1380.7400 567.2000 1381.7200 568.1800Q1382.7000 569.1600 1382.7000 570.5600L1382.7000 570.5600L1382.7000 578.5400Q1382.7000 580.0800 1381.7200 581.0600Q1380.7400 582.0400 1379.3400 582.0400L1379.3400 582.0400L1361.8400 582.0400L1361.8400 612.4200Q1361.8400 618.1600 1363.8700 621.3800Q1365.9000 624.6000 1370.9400 624.6000L1370.9400 624.6000L1380.6000 624.6000Q1382.0000 624.6000 1382.9800 625.5800Q1383.9600 626.5600 1383.9600 627.9600L1383.9600 627.9600L1383.9600 636.6400Q1383.9600 638.0400 1382.9800 639.0200Q1382.0000 640 1380.6000 640L1380.6000 640ZM199.5600 781.4000L199.5600 781.4000Q191.4400 781.4000 186.0500 778.6000Q180.6600 775.8000 177.1600 771.4600L177.1600 771.4600L177.1600 776.6400Q177.1600 778.0400 176.2500 779.0200Q175.3400 780 173.8000 780L173.8000 780L162.7400 780Q161.3400 780 160.3600 779.0200Q159.3800 778.0400 159.3800 776.6400L159.3800 776.6400L159.3800 683.9600Q159.3800 682.5600 160.3600 681.5800Q161.3400 680.6000 162.7400 680.6000L162.7400 680.6000L174.6400 680.6000Q176.1800 680.6000 177.0900 681.5800Q178 682.5600 178 683.9600L178 683.9600L178 715.0400Q181.5000 710.9800 186.7500 708.3900Q192 705.8000 199.5600 705.8000L199.5600 705.8000Q206.9800 705.8000 212.4400 708.3200Q217.9000 710.8400 221.6100 715.3900Q225.3200 719.9400 227.2800 725.9600Q229.2400 731.9800 229.3800 738.9800L229.3800 738.9800Q229.5200 741.5000 229.5200 743.5300Q229.5200 745.5600 229.3800 748.0800L229.3800 748.0800Q229.1000 755.3600 227.1400 761.4500Q225.1800 767.5400 221.5400 772.0200Q217.9000 776.5000 212.4400 778.9500Q206.9800 781.4000 199.5600 781.4000ZM194.3800 766.4200L194.3800 766.4200Q200.4000 766.4200 203.7600 763.8300Q207.1200 761.2400 208.6600 757.0400Q210.2000 752.8400 210.4800 747.8000L210.4800 747.8000Q210.6200 743.6000 210.4800 739.4000L210.4800 739.4000Q210.2000 734.3600 208.6600 730.1600Q207.1200 725.9600 203.7600 723.3700Q200.4000 720.7800 194.3800 720.7800L194.3800 720.7800Q188.7800 720.7800 185.2800 723.3000Q181.7800 725.8200 179.9600 729.6700Q178.1400 733.5200 178 737.7200L178 737.7200Q177.8600 740.2400 177.8600 743.1100Q177.8600 745.9800 178 748.5000L178 748.5000Q178.2800 752.8400 179.8900 756.9700Q181.5000 761.1000 185.0700 763.7600Q188.6400 766.4200 194.3800 766.4200ZM260.6000 780L248.4200 780Q247.0200 780 246.0400 779.0200Q245.0600 778.0400 245.0600 776.6400L245.0600 776.6400L245.0600 710.7000Q245.0600 709.1600 246.0400 708.1800Q247.0200 707.2000 248.4200 707.2000L248.4200 707.2000L259.7600 707.2000Q261.1600 707.2000 262.2100 708.1800Q263.2600 709.1600 263.2600 710.7000L263.2600 710.7000L263.2600 716.4400Q266.4800 711.9600 271.5900 709.5800Q276.7000 707.2000 283.4200 707.2000L283.4200 707.2000L289.1600 707.2000Q290.7000 707.2000 291.6100 708.1800Q292.5200 709.1600 292.5200 710.5600L292.5200 710.5600L292.5200 720.6400Q292.5200 722.0400 291.6100 723.0200Q290.7000 724 289.1600 724L289.1600 724L278.2400 724Q271.5200 724 267.8100 727.7100Q264.1000 731.4200 264.1000 738.1400L264.1000 738.1400L264.1000 776.6400Q264.1000 778.0400 263.1200 779.0200Q262.1400 780 260.6000 780L260.6000 780ZM324.5800 781.4000L324.5800 781.4000Q317.3000 781.4000 311.4200 778.5300Q305.5400 775.6600 302.1100 770.8300Q298.6800 766 298.6800 759.9800L298.6800 759.9800Q298.6800 750.1800 306.6600 744.3700Q314.6400 738.5600 327.5200 736.6000L327.5200 736.6000L346.7000 733.8000L346.7000 730.8600Q346.7000 724.9800 343.7600 721.7600Q340.8200 718.5400 333.6800 718.5400L333.6800 718.5400Q328.6400 718.5400 325.4900 720.5700Q322.3400 722.6000 320.8000 725.9600L320.8000 725.9600Q319.6800 727.7800 317.5800 727.7800L317.5800 727.7800L306.5200 727.7800Q304.9800 727.7800 304.2100 726.9400Q303.4400 726.1000 303.4400 724.7000L303.4400 724.7000Q303.5800 722.4600 305.3300 719.2400Q307.0800 716.0200 310.6500 713.0100Q314.2200 710 319.9600 707.9000Q325.7000 705.8000 333.8200 705.8000L333.8200 705.8000Q342.6400 705.8000 348.7300 707.9700Q354.8200 710.1400 358.4600 713.7800Q362.1000 717.4200 363.7800 722.3200Q365.4600 727.2200 365.4600 732.6800L365.4600 732.6800L365.4600 776.6400Q365.4600 778.0400 364.4800 779.0200Q363.5000 780 362.1000 780L362.1000 780L350.7600 780Q349.2200 780 348.3100 779.0200Q347.4000 778.0400 347.4000 776.6400L347.4000 776.6400L347.4000 771.1800Q345.5800 773.7000 342.5000 776.0800Q339.4200 778.4600 335.0100 779.9300Q330.6000 781.4000 324.5800 781.4000ZM329.3400 768.1000L329.3400 768.1000Q334.2400 768.1000 338.2300 766Q342.2200 763.9000 344.5300 759.4900Q346.8400 755.0800 346.8400 748.3600L346.8400 748.3600L346.8400 745.4200L332.8400 747.6600Q324.5800 748.9200 320.5200 751.7200Q316.4600 754.5200 316.4600 758.5800L316.4600 758.5800Q316.4600 761.6600 318.3500 763.8300Q320.2400 766 323.1800 767.0500Q326.1200 768.1000 329.3400 768.1000ZM399.0600 780L386.7400 780Q385.3400 780 384.3600 779.0200Q383.3800 778.0400 383.3800 776.6400L383.3800 776.6400L383.3800 710.5600Q383.3800 709.1600 384.3600 708.1800Q385.3400 707.2000 386.7400 707.2000L386.7400 707.2000L398.2200 707.2000Q399.6200 707.2000 400.6000 708.1800Q401.5800 709.1600 401.5800 710.5600L401.5800 710.5600L401.5800 716.3000Q405.2200 711.8200 410.8900 708.8100Q416.5600 705.8000 424.9600 705.8000L424.9600 705.8000Q433.5000 705.8000 439.8000 709.6500Q446.1000 713.5000 449.5300 720.5000Q452.9600 727.5000 452.9600 737.3000L452.9600 737.3000L452.9600 776.6400Q452.9600 778.0400 451.9800 779.0200Q451 780 449.6000 780L449.6000 780L437.2800 780Q435.8800 780 434.9000 779.0200Q433.9200 778.0400 433.9200 776.6400L433.9200 776.6400L433.9200 738.1400Q433.9200 730.0200 429.9300 725.4000Q425.9400 720.7800 418.3800 720.7800L418.3800 720.7800Q411.1000 720.7800 406.7600 725.4000Q402.4200 730.0200 402.4200 738.1400L402.4200 738.1400L402.4200 776.6400Q402.4200 778.0400 401.4400 779.0200Q400.4600 780 399.0600 780L399.0600 780ZM502.2400 781.4000L502.2400 781.4000Q492.1600 781.4000 484.5300 777.6200Q476.9000 773.8400 472.6300 766.6300Q468.3600 759.4200 467.9400 749.2000L467.9400 749.2000Q467.8000 747.1000 467.8000 743.6700Q467.8000 740.2400 467.9400 738L467.9400 738Q468.3600 727.7800 472.6300 720.5700Q476.9000 713.3600 484.5300 709.5800Q492.1600 705.8000 502.2400 705.8000L502.2400 705.8000Q511.2000 705.8000 517.5000 708.2500Q523.8000 710.7000 527.8600 714.5500Q531.9200 718.4000 533.9500 722.5300Q535.9800 726.6600 536.1200 730.0200L536.1200 730.0200Q536.2600 731.5600 535.2100 732.4700Q534.1600 733.3800 532.7600 733.3800L532.7600 733.3800L520.4400 733.3800Q519.0400 733.3800 518.2700 732.6800Q517.5000 731.9800 516.8000 730.5800L516.8000 730.5800Q514.7000 724.9800 511.2700 722.6700Q507.8400 720.3600 502.5200 720.3600L502.5200 720.3600Q495.5200 720.3600 491.3900 724.7700Q487.2600 729.1800 486.9800 738.7000L486.9800 738.7000Q486.7000 744.0200 486.9800 748.5000L486.9800 748.5000Q487.2600 758.1600 491.3900 762.5000Q495.5200 766.8400 502.5200 766.8400L502.5200 766.8400Q507.9800 766.8400 511.3400 764.5300Q514.7000 762.2200 516.8000 756.6200L516.8000 756.6200Q517.5000 755.2200 518.2700 754.5200Q519.0400 753.8200 520.4400 753.8200L520.4400 753.8200L532.7600 753.8200Q534.1600 753.8200 535.2100 754.7300Q536.2600 755.6400 536.1200 757.1800L536.1200 757.1800Q535.9800 759.7000 534.7900 762.8500Q533.6000 766 531.0100 769.2900Q528.4200 772.5800 524.5000 775.3100Q520.5800 778.0400 515.0500 779.7200Q509.5200 781.4000 502.2400 781.4000ZM566.6400 780L554.1800 780Q552.7800 780 551.8000 779.0200Q550.8200 778.0400 550.8200 776.6400L550.8200 776.6400L550.8200 683.9600Q550.8200 682.5600 551.8000 681.5800Q552.7800 680.6000 554.1800 680.6000L554.1800 680.6000L566.6400 680.6000Q568.1800 680.6000 569.0900 681.5800Q570 682.5600 570 683.9600L570 683.9600L570 715.8800Q573.7800 711.4000 579.2400 708.6000Q584.7000 705.8000 592.6800 705.8000L592.6800 705.8000Q601.2200 705.8000 607.5900 709.6500Q613.9600 713.5000 617.4600 720.5000Q620.9600 727.5000 620.9600 737.3000L620.9600 737.3000L620.9600 776.6400Q620.9600 778.0400 619.9800 779.0200Q619 780 617.6000 780L617.6000 780L605.0000 780Q603.6000 780 602.6200 779.0200Q601.6400 778.0400 601.6400 776.6400L601.6400 776.6400L601.6400 738.1400Q601.6400 730.0200 597.6500 725.4000Q593.6600 720.7800 586.1000 720.7800L586.1000 720.7800Q578.8200 720.7800 574.4100 725.4000Q570 730.0200 570 738.1400L570 738.1400L570 776.6400Q570 778.0400 569.0900 779.0200Q568.1800 780 566.6400 780L566.6400 780ZM670.1000 781.4000L670.1000 781.4000Q654.5600 781.4000 645.4600 772.4400Q636.3600 763.4800 635.6600 746.9600L635.6600 746.9600Q635.5200 745.5600 635.5200 743.3900Q635.5200 741.2200 635.6600 739.9600L635.6600 739.9600Q636.2200 729.3200 640.4900 721.6900Q644.7600 714.0600 652.3200 709.9300Q659.8800 705.8000 670.1000 705.8000L670.1000 705.8000Q681.4400 705.8000 689.1400 710.4900Q696.8400 715.1800 700.7600 723.5100Q704.6800 731.8400 704.6800 742.7600L704.6800 742.7600L704.6800 745.7000Q704.6800 747.1000 703.7000 748.0800Q702.7200 749.0600 701.1800 749.0600L701.1800 749.0600L654.7000 749.0600Q654.7000 749.0600 654.7000 749.4800Q654.7000 749.9000 654.7000 750.1800L654.7000 750.1800Q654.8400 755.0800 656.5900 759.2100Q658.3400 763.3400 661.7700 765.8600Q665.2000 768.3800 669.9600 768.3800L669.9600 768.3800Q673.8800 768.3800 676.5400 767.1900Q679.2000 766 680.8800 764.4600Q682.5600 762.9200 683.2600 761.9400L683.2600 761.9400Q684.5200 760.2600 685.2900 759.9100Q686.0600 759.5600 687.6000 759.5600L687.6000 759.5600L699.6400 759.5600Q701.0400 759.5600 701.9500 760.4000Q702.8600 761.2400 702.7200 762.5000L702.7200 762.5000Q702.5800 764.7400 700.4100 767.9600Q698.2400 771.1800 694.1800 774.2600Q690.1200 777.3400 684.0300 779.3700Q677.9400 781.4000 670.1000 781.4000ZM654.7000 736.8800L654.7000 737.3000L685.6400 737.3000L685.6400 736.8800Q685.6400 731.4200 683.8200 727.2900Q682 723.1600 678.5000 720.8500Q675 718.5400 670.1000 718.5400L670.1000 718.5400Q665.2000 718.5400 661.7000 720.8500Q658.2000 723.1600 656.4500 727.2900Q654.7000 731.4200 654.7000 736.8800L654.7000 736.8800ZM747.1000 781.4000L747.1000 781.4000Q738.7000 781.4000 732.7500 779.4400Q726.8000 777.4800 723.0200 774.5400Q719.2400 771.6000 717.4200 768.6600Q715.6000 765.7200 715.4600 763.7600L715.4600 763.7600Q715.3200 762.2200 716.3700 761.3100Q717.4200 760.4000 718.6800 760.4000L718.6800 760.4000L729.7400 760.4000Q730.3000 760.4000 730.7200 760.5400Q731.1400 760.6800 731.8400 761.3800L731.8400 761.3800Q733.6600 762.9200 735.6900 764.6000Q737.7200 766.2800 740.5200 767.4700Q743.3200 768.6600 747.5200 768.6600L747.5200 768.6600Q752.9800 768.6600 756.6900 766.4900Q760.4000 764.3200 760.4000 760.2600L760.4000 760.2600Q760.4000 757.3200 758.7900 755.5000Q757.1800 753.6800 752.8400 752.2100Q748.5000 750.7400 740.5200 749.0600L740.5200 749.0600Q732.6800 747.2400 727.5000 744.4400Q722.3200 741.6400 719.8000 737.4400Q717.2800 733.2400 717.2800 727.6400L717.2800 727.6400Q717.2800 722.1800 720.5700 717.2100Q723.8600 712.2400 730.3700 709.0200Q736.8800 705.8000 746.5400 705.8000L746.5400 705.8000Q754.1000 705.8000 759.7000 707.6900Q765.3000 709.5800 769.0100 712.3800Q772.7200 715.1800 774.6800 718.0500Q776.6400 720.9200 776.7800 723.0200L776.7800 723.0200Q776.9200 724.5600 775.9400 725.4700Q774.9600 726.3800 773.7000 726.3800L773.7000 726.3800L763.3400 726.3800Q762.6400 726.3800 762.0800 726.1000Q761.5200 725.8200 760.9600 725.4000L760.9600 725.4000Q759.4200 724 757.6000 722.3900Q755.7800 720.7800 753.1900 719.6600Q750.6000 718.5400 746.4000 718.5400L746.4000 718.5400Q741.0800 718.5400 738.2800 720.8500Q735.4800 723.1600 735.4800 726.6600L735.4800 726.6600Q735.4800 729.0400 736.8100 730.7900Q738.1400 732.5400 742.2000 734.0800Q746.2600 735.6200 754.5200 737.3000L754.5200 737.3000Q763.9000 738.9800 769.4300 742.2700Q774.9600 745.5600 777.2700 749.8300Q779.5800 754.1000 779.5800 759.2800L779.5800 759.2800Q779.5800 765.5800 775.8700 770.6200Q772.1600 775.6600 764.9500 778.5300Q757.7400 781.4000 747.1000 781.4000ZM857.4200 781.4000L857.4200 781.4000Q841.8800 781.4000 832.7800 772.4400Q823.6800 763.4800 822.9800 746.9600L822.9800 746.9600Q822.8400 745.5600 822.8400 743.3900Q822.8400 741.2200 822.9800 739.9600L822.9800 739.9600Q823.5400 729.3200 827.8100 721.6900Q832.0800 714.0600 839.6400 709.9300Q847.2000 705.8000 857.4200 705.8000L857.4200 705.8000Q868.7600 705.8000 876.4600 710.4900Q884.1600 715.1800 888.0800 723.5100Q892 731.8400 892 742.7600L892 742.7600L892 745.7000Q892 747.1000 891.0200 748.0800Q890.0400 749.0600 888.5000 749.0600L888.5000 749.0600L842.0200 749.0600Q842.0200 749.0600 842.0200 749.4800Q842.0200 749.9000 842.0200 750.1800L842.0200 750.1800Q842.1600 755.0800 843.9100 759.2100Q845.6600 763.3400 849.0900 765.8600Q852.5200 768.3800 857.2800 768.3800L857.2800 768.3800Q861.2000 768.3800 863.8600 767.1900Q866.5200 766 868.2000 764.4600Q869.8800 762.9200 870.5800 761.9400L870.5800 761.9400Q871.8400 760.2600 872.6100 759.9100Q873.3800 759.5600 874.9200 759.5600L874.9200 759.5600L886.9600 759.5600Q888.3600 759.5600 889.2700 760.4000Q890.1800 761.2400 890.0400 762.5000L890.0400 762.5000Q889.9000 764.7400 887.7300 767.9600Q885.5600 771.1800 881.5000 774.2600Q877.4400 777.3400 871.3500 779.3700Q865.2600 781.4000 857.4200 781.4000ZM842.0200 736.8800L842.0200 737.3000L872.9600 737.3000L872.9600 736.8800Q872.9600 731.4200 871.1400 727.2900Q869.3200 723.1600 865.8200 720.8500Q862.3200 718.5400 857.4200 718.5400L857.4200 718.5400Q852.5200 718.5400 849.0200 720.8500Q845.5200 723.1600 843.7700 727.2900Q842.0200 731.4200 842.0200 736.8800L842.0200 736.8800ZM971.8000 810.8000L971.8000 810.8000Q961.5800 810.8000 955.0000 808.1400Q948.4200 805.4800 944.6400 801.7000Q940.8600 797.9200 939.2500 794.2100Q937.6400 790.5000 937.5000 788.4000L937.5000 788.4000Q937.3600 787 938.4100 785.9500Q939.4600 784.9000 940.8600 784.9000L940.8600 784.9000L953.0400 784.9000Q954.4400 784.9000 955.2800 785.5300Q956.1200 786.1600 956.6800 787.8400L956.6800 787.8400Q957.5200 789.6600 958.9200 791.7600Q960.3200 793.8600 963.1900 795.3300Q966.0600 796.8000 971.1000 796.8000L971.1000 796.8000Q976.4200 796.8000 980.0600 795.2600Q983.7000 793.7200 985.5900 790.0800Q987.4800 786.4400 987.4800 780L987.4800 780L987.4800 770.4800Q984.1200 774.5400 978.8700 777.0600Q973.6200 779.5800 965.9200 779.5800L965.9200 779.5800Q958.5000 779.5800 952.9700 777.1300Q947.4400 774.6800 943.8000 770.2700Q940.1600 765.8600 938.2700 759.8400Q936.3800 753.8200 936.1000 746.5400L936.1000 746.5400Q935.9600 742.7600 936.1000 738.9800L936.1000 738.9800Q936.3800 731.9800 938.2700 725.9600Q940.1600 719.9400 943.8000 715.3900Q947.4400 710.8400 952.9700 708.3200Q958.5000 705.8000 965.9200 705.8000L965.9200 705.8000Q973.9000 705.8000 979.3600 708.8100Q984.8200 711.8200 988.3200 716.3000L988.3200 716.3000L988.3200 710.7000Q988.3200 709.1600 989.3000 708.1800Q990.2800 707.2000 991.6800 707.2000L991.6800 707.2000L1003.0200 707.2000Q1004.4200 707.2000 1005.4000 708.1800Q1006.3800 709.1600 1006.3800 710.7000L1006.3800 710.7000L1006.5200 778.1800Q1006.5200 788.2600 1002.7400 795.5400Q998.9600 802.8200 991.3300 806.8100Q983.7000 810.8000 971.8000 810.8000ZM971.1000 764.7400L971.1000 764.7400Q976.8400 764.7400 980.3400 762.2200Q983.8400 759.7000 985.5200 755.6400Q987.2000 751.5800 987.4800 747.3800L987.4800 747.3800Q987.6200 745.5600 987.6200 742.7600Q987.6200 739.9600 987.4800 738.2800L987.4800 738.2800Q987.2000 733.9400 985.5200 729.9500Q983.8400 725.9600 980.3400 723.3700Q976.8400 720.7800 971.1000 720.7800L971.1000 720.7800Q965.3600 720.7800 961.8600 723.3700Q958.3600 725.9600 956.8900 730.1600Q955.4200 734.3600 955.1400 739.4000L955.1400 739.4000Q954.8600 742.7600 955.1400 746.2600L955.1400 746.2600Q955.4200 751.1600 956.8900 755.4300Q958.3600 759.7000 961.8600 762.2200Q965.3600 764.7400 971.1000 764.7400ZM1040.1200 780L1028.5000 780Q1027.1000 780 1026.1200 779.0200Q1025.1400 778.0400 1025.1400 776.6400L1025.1400 776.6400L1025.1400 710.5600Q1025.1400 709.1600 1026.1200 708.1800Q1027.1000 707.2000 1028.5000 707.2000L1028.5000 707.2000L1040.1200 707.2000Q1041.6600 707.2000 1042.5700 708.1800Q1043.4800 709.1600 1043.4800 710.5600L1043.4800 710.5600L1043.4800 776.6400Q1043.4800 778.0400 1042.5700 779.0200Q1041.6600 780 1040.1200 780L1040.1200 780ZM1040.6800 695.1600L1027.9400 695.1600Q1026.5400 695.1600 1025.5600 694.1800Q1024.5800 693.2000 1024.5800 691.8000L1024.5800 691.8000L1024.5800 681.7200Q1024.5800 680.3200 1025.5600 679.3400Q1026.5400 678.3600 1027.9400 678.3600L1027.9400 678.3600L1040.6800 678.3600Q1042.2200 678.3600 1043.2000 679.3400Q1044.1800 680.3200 1044.1800 681.7200L1044.1800 681.7200L1044.1800 691.8000Q1044.1800 693.2000 1043.2000 694.1800Q1042.2200 695.1600 1040.6800 695.1600L1040.6800 695.1600ZM1106.3400 780L1095 780Q1086.6000 780 1080.8600 777.0600Q1075.1200 774.1200 1072.3200 768.3100Q1069.5200 762.5000 1069.5200 753.8200L1069.5200 753.8200L1069.5200 722.0400L1058.4600 722.0400Q1057.0600 722.0400 1056.0800 721.0600Q1055.1000 720.0800 1055.1000 718.5400L1055.1000 718.5400L1055.1000 710.5600Q1055.1000 709.1600 1056.0800 708.1800Q1057.0600 707.2000 1058.4600 707.2000L1058.4600 707.2000L1069.5200 707.2000L1069.5200 683.9600Q1069.5200 682.5600 1070.4300 681.5800Q1071.3400 680.6000 1072.8800 680.6000L1072.8800 680.6000L1084.2200 680.6000Q1085.6200 680.6000 1086.6000 681.5800Q1087.5800 682.5600 1087.5800 683.9600L1087.5800 683.9600L1087.5800 707.2000L1105.0800 707.2000Q1106.4800 707.2000 1107.4600 708.1800Q1108.4400 709.1600 1108.4400 710.5600L1108.4400 710.5600L1108.4400 718.5400Q1108.4400 720.0800 1107.4600 721.0600Q1106.4800 722.0400 1105.0800 722.0400L1105.0800 722.0400L1087.5800 722.0400L1087.5800 752.4200Q1087.5800 758.1600 1089.6100 761.3800Q1091.6400 764.6000 1096.6800 764.6000L1096.6800 764.6000L1106.3400 764.6000Q1107.7400 764.6000 1108.7200 765.5800Q1109.7000 766.5600 1109.7000 767.9600L1109.7000 767.9600L1109.7000 776.6400Q1109.7000 778.0400 1108.7200 779.0200Q1107.7400 780 1106.3400 780L1106.3400 780ZM1198.4600 780L1187.1200 780Q1178.7200 780 1172.9800 777.0600Q1167.2400 774.1200 1164.4400 768.3100Q1161.6400 762.5000 1161.6400 753.8200L1161.6400 753.8200L1161.6400 722.0400L1150.5800 722.0400Q1149.1800 722.0400 1148.2000 721.0600Q1147.2200 720.0800 1147.2200 718.5400L1147.2200 718.5400L1147.2200 710.5600Q1147.2200 709.1600 1148.2000 708.1800Q1149.1800 707.2000 1150.5800 707.2000L1150.5800 707.2000L1161.6400 707.2000L1161.6400 683.9600Q1161.6400 682.5600 1162.5500 681.5800Q1163.4600 680.6000 1165.0000 680.6000L1165.0000 680.6000L1176.3400 680.6000Q1177.7400 680.6000 1178.7200 681.5800Q1179.7000 682.5600 1179.7000 683.9600L1179.7000 683.9600L1179.7000 707.2000L1197.2000 707.2000Q1198.6000 707.2000 1199.5800 708.1800Q1200.5600 709.1600 1200.5600 710.5600L1200.5600 710.5600L1200.5600 718.5400Q1200.5600 720.0800 1199.5800 721.0600Q1198.6000 722.0400 1197.2000 722.0400L1197.2000 722.0400L1179.7000 722.0400L1179.7000 752.4200Q1179.7000 758.1600 1181.7300 761.3800Q1183.7600 764.6000 1188.8000 764.6000L1188.8000 764.6000L1198.4600 764.6000Q1199.8600 764.6000 1200.8400 765.5800Q1201.8200 766.5600 1201.8200 767.9600L1201.8200 767.9600L1201.8200 776.6400Q1201.8200 778.0400 1200.8400 779.0200Q1199.8600 780 1198.4600 780L1198.4600 780ZM1235.4200 781.4000L1235.4200 781.4000Q1228.1400 781.4000 1222.2600 778.5300Q1216.3800 775.6600 1212.9500 770.8300Q1209.5200 766 1209.5200 759.9800L1209.5200 759.9800Q1209.5200 750.1800 1217.5000 744.3700Q1225.4800 738.5600 1238.3600 736.6000L1238.3600 736.6000L1257.5400 733.8000L1257.5400 730.8600Q1257.5400 724.9800 1254.6000 721.7600Q1251.6600 718.5400 1244.5200 718.5400L1244.5200 718.5400Q1239.4800 718.5400 1236.3300 720.5700Q1233.1800 722.6000 1231.6400 725.9600L1231.6400 725.9600Q1230.5200 727.7800 1228.4200 727.7800L1228.4200 727.7800L1217.3600 727.7800Q1215.8200 727.7800 1215.0500 726.9400Q1214.2800 726.1000 1214.2800 724.7000L1214.2800 724.7000Q1214.4200 722.4600 1216.1700 719.2400Q1217.9200 716.0200 1221.4900 713.0100Q1225.0600 710 1230.8000 707.9000Q1236.5400 705.8000 1244.6600 705.8000L1244.6600 705.8000Q1253.4800 705.8000 1259.5700 707.9700Q1265.6600 710.1400 1269.3000 713.7800Q1272.9400 717.4200 1274.6200 722.3200Q1276.3000 727.2200 1276.3000 732.6800L1276.3000 732.6800L1276.3000 776.6400Q1276.3000 778.0400 1275.3200 779.0200Q1274.3400 780 1272.9400 780L1272.9400 780L1261.6000 780Q1260.0600 780 1259.1500 779.0200Q1258.2400 778.0400 1258.2400 776.6400L1258.2400 776.6400L1258.2400 771.1800Q1256.4200 773.7000 1253.3400 776.0800Q1250.2600 778.4600 1245.8500 779.9300Q1241.4400 781.4000 1235.4200 781.4000ZM1240.1800 768.1000L1240.1800 768.1000Q1245.0800 768.1000 1249.0700 766Q1253.0600 763.9000 1255.3700 759.4900Q1257.6800 755.0800 1257.6800 748.3600L1257.6800 748.3600L1257.6800 745.4200L1243.6800 747.6600Q1235.4200 748.9200 1231.3600 751.7200Q1227.3000 754.5200 1227.3000 758.5800L1227.3000 758.5800Q1227.3000 761.6600 1229.1900 763.8300Q1231.0800 766 1234.0200 767.0500Q1236.9600 768.1000 1240.1800 768.1000ZM1327.1200 810.8000L1327.1200 810.8000Q1316.9000 810.8000 1310.3200 808.1400Q1303.7400 805.4800 1299.9600 801.7000Q1296.1800 797.9200 1294.5700 794.2100Q1292.9600 790.5000 1292.8200 788.4000L1292.8200 788.4000Q1292.6800 787 1293.7300 785.9500Q1294.7800 784.9000 1296.1800 784.9000L1296.1800 784.9000L1308.3600 784.9000Q1309.7600 784.9000 1310.6000 785.5300Q1311.4400 786.1600 1312.0000 787.8400L1312.0000 787.8400Q1312.8400 789.6600 1314.2400 791.7600Q1315.6400 793.8600 1318.5100 795.3300Q1321.3800 796.8000 1326.4200 796.8000L1326.4200 796.8000Q1331.7400 796.8000 1335.3800 795.2600Q1339.0200 793.7200 1340.9100 790.0800Q1342.8000 786.4400 1342.8000 780L1342.8000 780L1342.8000 770.4800Q1339.4400 774.5400 1334.1900 777.0600Q1328.9400 779.5800 1321.2400 779.5800L1321.2400 779.5800Q1313.8200 779.5800 1308.2900 777.1300Q1302.7600 774.6800 1299.1200 770.2700Q1295.4800 765.8600 1293.5900 759.8400Q1291.7000 753.8200 1291.4200 746.5400L1291.4200 746.5400Q1291.2800 742.7600 1291.4200 738.9800L1291.4200 738.9800Q1291.7000 731.9800 1293.5900 725.9600Q1295.4800 719.9400 1299.1200 715.3900Q1302.7600 710.8400 1308.2900 708.3200Q1313.8200 705.8000 1321.2400 705.8000L1321.2400 705.8000Q1329.2200 705.8000 1334.6800 708.8100Q1340.1400 711.8200 1343.6400 716.3000L1343.6400 716.3000L1343.6400 710.7000Q1343.6400 709.1600 1344.6200 708.1800Q1345.6000 707.2000 1347.0000 707.2000L1347.0000 707.2000L1358.3400 707.2000Q1359.7400 707.2000 1360.7200 708.1800Q1361.7000 709.1600 1361.7000 710.7000L1361.7000 710.7000L1361.8400 778.1800Q1361.8400 788.2600 1358.0600 795.5400Q1354.2800 802.8200 1346.6500 806.8100Q1339.0200 810.8000 1327.1200 810.8000ZM1326.4200 764.7400L1326.4200 764.7400Q1332.1600 764.7400 1335.6600 762.2200Q1339.1600 759.7000 1340.8400 755.6400Q1342.5200 751.5800 1342.8000 747.3800L1342.8000 747.3800Q1342.9400 745.5600 1342.9400 742.7600Q1342.9400 739.9600 1342.8000 738.2800L1342.8000 738.2800Q1342.5200 733.9400 1340.8400 729.9500Q1339.1600 725.9600 1335.6600 723.3700Q1332.1600 720.7800 1326.4200 720.7800L1326.4200 720.7800Q1320.6800 720.7800 1317.1800 723.3700Q1313.6800 725.9600 1312.2100 730.1600Q1310.7400 734.3600 1310.4600 739.4000L1310.4600 739.4000Q1310.1800 742.7600 1310.4600 746.2600L1310.4600 746.2600Q1310.7400 751.1600 1312.2100 755.4300Q1313.6800 759.7000 1317.1800 762.2200Q1320.6800 764.7400 1326.4200 764.7400ZM1408.0400 781.4000L1408.0400 781.4000Q1399.6400 781.4000 1393.6900 779.4400Q1387.7400 777.4800 1383.9600 774.5400Q1380.1800 771.6000 1378.3600 768.6600Q1376.5400 765.7200 1376.4000 763.7600L1376.4000 763.7600Q1376.2600 762.2200 1377.3100 761.3100Q1378.3600 760.4000 1379.6200 760.4000L1379.6200 760.4000L1390.6800 760.4000Q1391.2400 760.4000 1391.6600 760.5400Q1392.0800 760.6800 1392.7800 761.3800L1392.7800 761.3800Q1394.6000 762.9200 1396.6300 764.6000Q1398.6600 766.2800 1401.4600 767.4700Q1404.2600 768.6600 1408.4600 768.6600L1408.4600 768.6600Q1413.9200 768.6600 1417.6300 766.4900Q1421.3400 764.3200 1421.3400 760.2600L1421.3400 760.2600Q1421.3400 757.3200 1419.7300 755.5000Q1418.1200 753.6800 1413.7800 752.2100Q1409.4400 750.7400 1401.4600 749.0600L1401.4600 749.0600Q1393.6200 747.2400 1388.4400 744.4400Q1383.2600 741.6400 1380.7400 737.4400Q1378.2200 733.2400 1378.2200 727.6400L1378.2200 727.6400Q1378.2200 722.1800 1381.5100 717.2100Q1384.8000 712.2400 1391.3100 709.0200Q1397.8200 705.8000 1407.4800 705.8000L1407.4800 705.8000Q1415.0400 705.8000 1420.6400 707.6900Q1426.2400 709.5800 1429.9500 712.3800Q1433.6600 715.1800 1435.6200 718.0500Q1437.5800 720.9200 1437.7200 723.0200L1437.7200 723.0200Q1437.8600 724.5600 1436.8800 725.4700Q1435.9000 726.3800 1434.6400 726.3800L1434.6400 726.3800L1424.2800 726.3800Q1423.5800 726.3800 1423.0200 726.1000Q1422.4600 725.8200 1421.9000 725.4000L1421.9000 725.4000Q1420.3600 724 1418.5400 722.3900Q1416.7200 720.7800 1414.1300 719.6600Q1411.5400 718.5400 1407.3400 718.5400L1407.3400 718.5400Q1402.0200 718.5400 1399.2200 720.8500Q1396.4200 723.1600 1396.4200 726.6600L1396.4200 726.6600Q1396.4200 729.0400 1397.7500 730.7900Q1399.0800 732.5400 1403.1400 734.0800Q1407.2000 735.6200 1415.4600 737.3000L1415.4600 737.3000Q1424.8400 738.9800 1430.3700 742.2700Q1435.9000 745.5600 1438.2100 749.8300Q1440.5200 754.1000 1440.5200 759.2800L1440.5200 759.2800Q1440.5200 765.5800 1436.8100 770.6200Q1433.1000 775.6600 1425.8900 778.5300Q1418.6800 781.4000 1408.0400 781.4000Z" id="title"/></g></svg>