<svg xmlns="http://www.w3.org/2000/svg" version="1.1" xmlns:xlink="http://www.w3.org/1999/xlink" xmlns:svgjs="http://svgjs.dev/svgjs" viewBox="0 0 1920 1080" id="da875a47-53c4-4eac-8873-adad3f53cbef"><g><rect width="1920" height="1080" fill="#798086"/></g><g fill="#b949a4"><path d="M969.5 217C561.465 217 231 547.465 231 955.5C231 1363.53 561.465 1694 969.5 1694C1377.53 1694 1708 1363.53 1708 955.5C1708 547.465 1377.53 217 969.5 217ZM969.5 1309.34C773.983 1309.34 615.658 1151.02 615.658 955.5C615.658 759.983 773.983 601.658 969.5 601.658C1165.02 601.658 1323.34 759.983 1323.34 955.5C1323.34 1151.02 1165.02 1309.34 969.5 1309.34Z"/></g><g fill="#ffffff" opacity="0.2"><path d="M1432 918.479L1616.48 734V918.479H1432Z"/><path d="M1616.48 918.479L1800.52 734V918.479H1616.48Z"/><path d="M1800.52 918.479L1985 734V918.479H1800.52Z"/><path d="M1432 1102.52L1616.48 918.479V1102.52H1432Z"/><path d="M1616.48 1102.52L1800.52 918.479V1102.52H1616.48Z"/><path d="M1800.52 1102.52L1985 918.479V1102.52H1800.52Z"/><path d="M499 154.521L683.479 -29.5215V154.521H499Z"/><path d="M683.479 154.521L867.521 -29.5215V154.521H683.479Z"/><path d="M867.521 154.521L1052 -29.5215V154.521H867.521Z"/><path d="M499 339L683.479 154.521V339H499Z"/><path d="M683.479 339L867.521 154.521V339H683.479Z"/><path d="M867.521 339L1052 154.521V339H867.521Z"/></g><g><path d="M178.635 139.281L184.422 144.246V166.626H215.704L219.958 172.147L215.69 177.397H184.422V198.795L178.635 203.747L173 198.795V144.232L178.635 139.281ZM195.554 195.68H219.406L223.397 200.915L219.143 206.45H195.554L191.7 201.342L195.554 195.68ZM196.382 138H219.129L223.383 143.52L219.129 148.77H196.659L192.115 143.677L196.382 138ZM323.155 148.628L328.251 154.291L323.155 159.968H246.13L241.172 154.291L246.13 148.628H323.155ZM237.043 172.147L241.849 167.893L246.669 172.147V178.393C246.669 188.879 249.417 197.515 261.668 197.515H264.14C275.147 197.515 281.197 189.86 281.197 177.952V172.005L285.879 167.75L290.699 171.862V178.379C290.699 189.007 293.723 196.946 305.56 196.946H307.618C319.178 196.946 321.235 187.869 321.373 177.952V171.578L326.056 167.608L331 171.72V178.094C330.862 191.838 327.285 207.574 308.032 207.574H305.974C294.552 207.574 288.365 202.324 285.892 195.808C283.006 202.466 275.299 208.286 264.844 208.286H262.358C242.553 208.286 237.194 195.964 237.056 178.663V172.147H237.043ZM276.391 274.744L273.642 267.089L280.796 264.969L305.974 276.721V252.491L311.07 248.095L316.291 252.491V281.829L325.641 286.226L328.251 293.311L320.959 296L276.391 274.744ZM321.235 223.011L328.113 226.27L325.917 233.497L264.002 263.119L256.571 260.146L259.596 252.776L321.235 223.011ZM231.905 263.404L237.954 268.512C237.402 286.51 222.403 296 204.669 296H202.874C194.062 296 183.759 292.6 177.157 286.083L177.834 278.855L184.298 278.002C189.118 282.256 195.858 285.229 202.183 285.229H204.117C216.091 285.229 225.303 280.136 226.27 268.085L231.905 263.404ZM226.256 251.638C225.704 239.16 216.629 234.209 204.103 234.209H202.169C194.739 234.209 189.104 237.182 184.284 241.436L177.834 240.583L177.143 233.355C183.745 226.696 192.957 223.58 202.597 223.58H204.517C222.403 223.58 237.402 232.942 237.94 251.211L231.891 256.176L226.256 251.638Z" fill="#ffffff"/></g><g fill="#ffffff" id="info-group"><path d="M167.0800 570L154.9000 570Q153.7800 570 152.8700 569.1600Q151.9600 568.3200 151.9600 567.0600L151.9600 567.0600Q151.9600 566.5000 152.2400 565.8000L152.2400 565.8000L185.9800 475.5000Q186.4000 474.1000 187.5900 473.0500Q188.7800 472 190.8800 472L190.8800 472L206.1400 472Q208.2400 472 209.3600 473.0500Q210.4800 474.1000 211.0400 475.5000L211.0400 475.5000L244.7800 565.8000Q244.9200 566.5000 244.9200 567.0600L244.9200 567.0600Q244.9200 568.3200 244.0800 569.1600Q243.2400 570 242.1200 570L242.1200 570L229.9400 570Q227.9800 570 227.0700 569.0900Q226.1600 568.1800 225.8800 567.3400L225.8800 567.3400L219.3000 550.2600L177.7200 550.2600L171.1400 567.3400Q170.8600 568.1800 169.9500 569.0900Q169.0400 570 167.0800 570L167.0800 570ZM198.4400 490.9000L182.6200 534.1600L214.4000 534.1600L198.4400 490.9000ZM283.2800 571.4000L283.2800 571.4000Q274.7400 571.4000 268.5100 567.5500Q262.2800 563.7000 258.9200 556.6300Q255.5600 549.5600 255.5600 539.9000L255.5600 539.9000L255.5600 500.5600Q255.5600 499.1600 256.5400 498.1800Q257.5200 497.2000 258.9200 497.2000L258.9200 497.2000L271.2400 497.2000Q272.7800 497.2000 273.6900 498.1800Q274.6000 499.1600 274.6000 500.5600L274.6000 500.5600L274.6000 539.0600Q274.6000 556.4200 289.8600 556.4200L289.8600 556.4200Q297.1400 556.4200 301.4100 551.8000Q305.6800 547.1800 305.6800 539.0600L305.6800 539.0600L305.6800 500.5600Q305.6800 499.1600 306.6600 498.1800Q307.6400 497.2000 309.0400 497.2000L309.0400 497.2000L321.3600 497.2000Q322.7600 497.2000 323.7400 498.1800Q324.7200 499.1600 324.7200 500.5600L324.7200 500.5600L324.7200 566.6400Q324.7200 568.0400 323.7400 569.0200Q322.7600 570 321.3600 570L321.3600 570L310.0200 570Q308.4800 570 307.5700 569.0200Q306.6600 568.0400 306.6600 566.6400L306.6600 566.6400L306.6600 560.9000Q302.8800 565.8000 297.2800 568.6000Q291.6800 571.4000 283.2800 571.4000ZM358.3200 570L346.7000 570Q345.3000 570 344.3200 569.0200Q343.3400 568.0400 343.3400 566.6400L343.3400 566.6400L343.3400 473.9600Q343.3400 472.5600 344.3200 471.5800Q345.3000 470.6000 346.7000 470.6000L346.7000 470.6000L358.3200 470.6000Q359.7200 470.6000 360.7000 471.5800Q361.6800 472.5600 361.6800 473.9600L361.6800 473.9600L361.6800 566.6400Q361.6800 568.0400 360.7000 569.0200Q359.7200 570 358.3200 570L358.3200 570ZM401.4400 571.4000L401.4400 571.4000Q394.1600 571.4000 388.2800 568.5300Q382.4000 565.6600 378.9700 560.8300Q375.5400 556 375.5400 549.9800L375.5400 549.9800Q375.5400 540.1800 383.5200 534.3700Q391.5000 528.5600 404.3800 526.6000L404.3800 526.6000L423.5600 523.8000L423.5600 520.8600Q423.5600 514.9800 420.6200 511.7600Q417.6800 508.5400 410.5400 508.5400L410.5400 508.5400Q405.5000 508.5400 402.3500 510.5700Q399.2000 512.6000 397.6600 515.9600L397.6600 515.9600Q396.5400 517.7800 394.4400 517.7800L394.4400 517.7800L383.3800 517.7800Q381.8400 517.7800 381.0700 516.9400Q380.3000 516.1000 380.3000 514.7000L380.3000 514.7000Q380.4400 512.4600 382.1900 509.2400Q383.9400 506.0200 387.5100 503.0100Q391.0800 500 396.8200 497.9000Q402.5600 495.8000 410.6800 495.8000L410.6800 495.8000Q419.5000 495.8000 425.5900 497.9700Q431.6800 500.1400 435.3200 503.7800Q438.9600 507.4200 440.6400 512.3200Q442.3200 517.2200 442.3200 522.6800L442.3200 522.6800L442.3200 566.6400Q442.3200 568.0400 441.3400 569.0200Q440.3600 570 438.9600 570L438.9600 570L427.6200 570Q426.0800 570 425.1700 569.0200Q424.2600 568.0400 424.2600 566.6400L424.2600 566.6400L424.2600 561.1800Q422.4400 563.7000 419.3600 566.0800Q416.2800 568.4600 411.8700 569.9300Q407.4600 571.4000 401.4400 571.4000ZM406.2000 558.1000L406.2000 558.1000Q411.1000 558.1000 415.0900 556Q419.0800 553.9000 421.3900 549.4900Q423.7000 545.0800 423.7000 538.3600L423.7000 538.3600L423.7000 535.4200L409.7000 537.6600Q401.4400 538.9200 397.3800 541.7200Q393.3200 544.5200 393.3200 548.5800L393.3200 548.5800Q393.3200 551.6600 395.2100 553.8300Q397.1000 556 400.0400 557.0500Q402.9800 558.1000 406.2000 558.1000ZM534.5800 570L521.8400 570Q520.3000 570 519.3900 569.0200Q518.4800 568.0400 518.4800 566.6400L518.4800 566.6400L518.4800 494.1200L497.2000 510.5000Q495.9400 511.3400 494.6800 511.1300Q493.4200 510.9200 492.4400 509.6600L492.4400 509.6600L486.5600 502.1000Q485.7200 500.8400 485.9300 499.4400Q486.1400 498.0400 487.4000 497.2000L487.4000 497.2000L518.7600 472.9800Q519.6000 472.2800 520.4400 472.1400Q521.2800 472 522.2600 472L522.2600 472L534.5800 472Q535.9800 472 536.9600 472.9800Q537.9400 473.9600 537.9400 475.3600L537.9400 475.3600L537.9400 566.6400Q537.9400 568.0400 536.9600 569.0200Q535.9800 570 534.5800 570L534.5800 570ZM573.9200 521L560.0600 521Q558.6600 521 557.6800 520.0200Q556.7000 519.0400 556.7000 517.6400L556.7000 517.6400L556.7000 504.3400Q556.7000 502.8000 557.6800 501.8200Q558.6600 500.8400 560.0600 500.8400L560.0600 500.8400L573.9200 500.8400Q575.4600 500.8400 576.4400 501.8200Q577.4200 502.8000 577.4200 504.3400L577.4200 504.3400L577.4200 517.6400Q577.4200 519.0400 576.4400 520.0200Q575.4600 521 573.9200 521L573.9200 521ZM573.9200 570L560.0600 570Q558.6600 570 557.6800 569.0200Q556.7000 568.0400 556.7000 566.6400L556.7000 566.6400L556.7000 553.3400Q556.7000 551.8000 557.6800 550.8200Q558.6600 549.8400 560.0600 549.8400L560.0600 549.8400L573.9200 549.8400Q575.4600 549.8400 576.4400 550.8200Q577.4200 551.8000 577.4200 553.3400L577.4200 553.3400L577.4200 566.6400Q577.4200 568.0400 576.4400 569.0200Q575.4600 570 573.9200 570L573.9200 570ZM645.7400 570L632.5800 570Q631.1800 570 630.2000 569.0200Q629.2200 568.0400 629.2200 566.6400L629.2200 566.6400L629.2200 475.3600Q629.2200 473.9600 630.2000 472.9800Q631.1800 472 632.5800 472L632.5800 472L645.7400 472Q647.2800 472 648.1900 472.9800Q649.1000 473.9600 649.1000 475.3600L649.1000 475.3600L649.1000 566.6400Q649.1000 568.0400 648.1900 569.0200Q647.2800 570 645.7400 570L645.7400 570ZM685.0800 570L672.7600 570Q671.3600 570 670.3800 569.0200Q669.4000 568.0400 669.4000 566.6400L669.4000 566.6400L669.4000 500.5600Q669.4000 499.1600 670.3800 498.1800Q671.3600 497.2000 672.7600 497.2000L672.7600 497.2000L684.2400 497.2000Q685.6400 497.2000 686.6200 498.1800Q687.6000 499.1600 687.6000 500.5600L687.6000 500.5600L687.6000 506.3000Q691.2400 501.8200 696.9100 498.8100Q702.5800 495.8000 710.9800 495.8000L710.9800 495.8000Q719.5200 495.8000 725.8200 499.6500Q732.1200 503.5000 735.5500 510.5000Q738.9800 517.5000 738.9800 527.3000L738.9800 527.3000L738.9800 566.6400Q738.9800 568.0400 738.0000 569.0200Q737.0200 570 735.6200 570L735.6200 570L723.3000 570Q721.9000 570 720.9200 569.0200Q719.9400 568.0400 719.9400 566.6400L719.9400 566.6400L719.9400 528.1400Q719.9400 520.0200 715.9500 515.4000Q711.9600 510.7800 704.4000 510.7800L704.4000 510.7800Q697.1200 510.7800 692.7800 515.4000Q688.4400 520.0200 688.4400 528.1400L688.4400 528.1400L688.4400 566.6400Q688.4400 568.0400 687.4600 569.0200Q686.4800 570 685.0800 570L685.0800 570ZM801.0000 570L789.6600 570Q781.2600 570 775.5200 567.0600Q769.7800 564.1200 766.9800 558.3100Q764.1800 552.5000 764.1800 543.8200L764.1800 543.8200L764.1800 512.0400L753.1200 512.0400Q751.7200 512.0400 750.7400 511.0600Q749.7600 510.0800 749.7600 508.5400L749.7600 508.5400L749.7600 500.5600Q749.7600 499.1600 750.7400 498.1800Q751.7200 497.2000 753.1200 497.2000L753.1200 497.2000L764.1800 497.2000L764.1800 473.9600Q764.1800 472.5600 765.0900 471.5800Q766.0000 470.6000 767.5400 470.6000L767.5400 470.6000L778.8800 470.6000Q780.2800 470.6000 781.2600 471.5800Q782.2400 472.5600 782.2400 473.9600L782.2400 473.9600L782.2400 497.2000L799.7400 497.2000Q801.1400 497.2000 802.1200 498.1800Q803.1000 499.1600 803.1000 500.5600L803.1000 500.5600L803.1000 508.5400Q803.1000 510.0800 802.1200 511.0600Q801.1400 512.0400 799.7400 512.0400L799.7400 512.0400L782.2400 512.0400L782.2400 542.4200Q782.2400 548.1600 784.2700 551.3800Q786.3000 554.6000 791.3400 554.6000L791.3400 554.6000L801.0000 554.6000Q802.4000 554.6000 803.3800 555.5800Q804.3600 556.5600 804.3600 557.9600L804.3600 557.9600L804.3600 566.6400Q804.3600 568.0400 803.3800 569.0200Q802.4000 570 801.0000 570L801.0000 570ZM832.3600 570L820.1800 570Q818.7800 570 817.8000 569.0200Q816.8200 568.0400 816.8200 566.6400L816.8200 566.6400L816.8200 500.7000Q816.8200 499.1600 817.8000 498.1800Q818.7800 497.2000 820.1800 497.2000L820.1800 497.2000L831.5200 497.2000Q832.9200 497.2000 833.9700 498.1800Q835.0200 499.1600 835.0200 500.7000L835.0200 500.7000L835.0200 506.4400Q838.2400 501.9600 843.3500 499.5800Q848.4600 497.2000 855.1800 497.2000L855.1800 497.2000L860.9200 497.2000Q862.4600 497.2000 863.3700 498.1800Q864.2800 499.1600 864.2800 500.5600L864.2800 500.5600L864.2800 510.6400Q864.2800 512.0400 863.3700 513.0200Q862.4600 514 860.9200 514L860.9200 514L850.0000 514Q843.2800 514 839.5700 517.7100Q835.8600 521.4200 835.8600 528.1400L835.8600 528.1400L835.8600 566.6400Q835.8600 568.0400 834.8800 569.0200Q833.9000 570 832.3600 570L832.3600 570ZM907.4000 571.4000L907.4000 571.4000Q896.2000 571.4000 888.5700 567.4800Q880.9400 563.5600 876.9500 556.4200Q872.9600 549.2800 872.4000 539.7600L872.4000 539.7600Q872.2600 537.2400 872.2600 533.6000Q872.2600 529.9600 872.4000 527.4400L872.4000 527.4400Q872.9600 517.7800 877.0900 510.7100Q881.2200 503.6400 888.8500 499.7200Q896.4800 495.8000 907.4000 495.8000L907.4000 495.8000Q918.3200 495.8000 925.9500 499.7200Q933.5800 503.6400 937.7100 510.7100Q941.8400 517.7800 942.4000 527.4400L942.4000 527.4400Q942.5400 529.9600 942.5400 533.6000Q942.5400 537.2400 942.4000 539.7600L942.4000 539.7600Q941.8400 549.2800 937.8500 556.4200Q933.8600 563.5600 926.2300 567.4800Q918.6000 571.4000 907.4000 571.4000ZM907.4000 557.5400L907.4000 557.5400Q914.8200 557.5400 918.8800 552.8500Q922.9400 548.1600 923.3600 539.0600L923.3600 539.0600Q923.5000 536.9600 923.5000 533.6000Q923.5000 530.2400 923.3600 528.1400L923.3600 528.1400Q922.9400 519.0400 918.8800 514.3500Q914.8200 509.6600 907.4000 509.6600L907.4000 509.6600Q899.9800 509.6600 895.9200 514.3500Q891.8600 519.0400 891.4400 528.1400L891.4400 528.1400Q891.3000 530.2400 891.3000 533.6000Q891.3000 536.9600 891.4400 539.0600L891.4400 539.0600Q891.8600 548.1600 895.9200 552.8500Q899.9800 557.5400 907.4000 557.5400ZM985.1000 571.4000L985.1000 571.4000Q977.8200 571.4000 972.2900 568.9500Q966.7600 566.5000 963.1200 562.0200Q959.4800 557.5400 957.5200 551.4500Q955.5600 545.3600 955.2800 538.0800L955.2800 538.0800Q955.1400 535.5600 955.1400 533.5300Q955.1400 531.5000 955.2800 528.9800L955.2800 528.9800Q955.5600 521.9800 957.4500 515.9600Q959.3400 509.9400 963.0500 505.3900Q966.7600 500.8400 972.2900 498.3200Q977.8200 495.8000 985.1000 495.8000L985.1000 495.8000Q992.6600 495.8000 997.9100 498.3900Q1003.1600 500.9800 1006.6600 505.0400L1006.6600 505.0400L1006.6600 473.9600Q1006.6600 472.5600 1007.5700 471.5800Q1008.4800 470.6000 1010.0200 470.6000L1010.0200 470.6000L1021.9200 470.6000Q1023.3200 470.6000 1024.3000 471.5800Q1025.2800 472.5600 1025.2800 473.9600L1025.2800 473.9600L1025.2800 566.6400Q1025.2800 568.0400 1024.3000 569.0200Q1023.3200 570 1021.9200 570L1021.9200 570L1010.8600 570Q1009.3200 570 1008.4100 569.0200Q1007.5000 568.0400 1007.5000 566.6400L1007.5000 566.6400L1007.5000 561.4600Q1004.0000 565.8000 998.6100 568.6000Q993.2200 571.4000 985.1000 571.4000ZM990.2800 556.4200L990.2800 556.4200Q996.1600 556.4200 999.6600 553.7600Q1003.1600 551.1000 1004.8400 546.9700Q1006.5200 542.8400 1006.6600 538.5000L1006.6600 538.5000Q1006.8000 535.9800 1006.8000 533.1100Q1006.8000 530.2400 1006.6600 527.7200L1006.6600 527.7200Q1006.5200 523.5200 1004.7000 519.6700Q1002.8800 515.8200 999.3800 513.3000Q995.8800 510.7800 990.2800 510.7800L990.2800 510.7800Q984.4000 510.7800 980.9700 513.3700Q977.5400 515.9600 976.0000 520.1600Q974.4600 524.3600 974.1800 529.4000L974.1800 529.4000Q974.0400 533.6000 974.1800 537.8000L974.1800 537.8000Q974.4600 542.8400 976.0000 547.0400Q977.5400 551.2400 980.9700 553.8300Q984.4000 556.4200 990.2800 556.4200ZM1070.9200 571.4000L1070.9200 571.4000Q1062.3800 571.4000 1056.1500 567.5500Q1049.9200 563.7000 1046.5600 556.6300Q1043.2000 549.5600 1043.2000 539.9000L1043.2000 539.9000L1043.2000 500.5600Q1043.2000 499.1600 1044.1800 498.1800Q1045.1600 497.2000 1046.5600 497.2000L1046.5600 497.2000L1058.8800 497.2000Q1060.4200 497.2000 1061.3300 498.1800Q1062.2400 499.1600 1062.2400 500.5600L1062.2400 500.5600L1062.2400 539.0600Q1062.2400 556.4200 1077.5000 556.4200L1077.5000 556.4200Q1084.7800 556.4200 1089.0500 551.8000Q1093.3200 547.1800 1093.3200 539.0600L1093.3200 539.0600L1093.3200 500.5600Q1093.3200 499.1600 1094.3000 498.1800Q1095.2800 497.2000 1096.6800 497.2000L1096.6800 497.2000L1109 497.2000Q1110.4000 497.2000 1111.3800 498.1800Q1112.3600 499.1600 1112.3600 500.5600L1112.3600 500.5600L1112.3600 566.6400Q1112.3600 568.0400 1111.3800 569.0200Q1110.4000 570 1109 570L1109 570L1097.6600 570Q1096.1200 570 1095.2100 569.0200Q1094.3000 568.0400 1094.3000 566.6400L1094.3000 566.6400L1094.3000 560.9000Q1090.5200 565.8000 1084.9200 568.6000Q1079.3200 571.4000 1070.9200 571.4000ZM1162.2000 600.8000L1162.2000 600.8000Q1158.2800 600.6600 1155.2700 599.4000Q1152.2600 598.1400 1150.9300 596.4600Q1149.6000 594.7800 1151.0000 593.6600L1151.0000 593.6600L1153.3800 591.5600Q1154.6400 590.4400 1155.5500 590.9300Q1156.4600 591.4200 1157.9300 592.3300Q1159.4000 593.2400 1162.2000 593.2400L1162.2000 593.2400Q1164.3000 593.2400 1165.8400 591.9100Q1167.3800 590.5800 1167.3800 588.4800L1167.3800 588.4800Q1167.3800 586.5200 1165.9100 585.2600Q1164.4400 584 1162.2000 584L1162.2000 584Q1160.2400 584 1158.8400 584.4900Q1157.4400 584.9800 1156.3200 585.1900Q1155.2000 585.4000 1154.0800 584.2800L1154.0800 584.2800L1151.5600 581.7600Q1150.7200 580.7800 1151.0000 579.7300Q1151.2800 578.6800 1151.8400 577.4200L1151.8400 577.4200L1154.7800 570.7000Q1142.7400 568.8800 1135.6000 560.6900Q1128.4600 552.5000 1128.0400 539.2000L1128.0400 539.2000Q1127.9000 537.1000 1127.9000 533.6700Q1127.9000 530.2400 1128.0400 528L1128.0400 528Q1128.4600 517.7800 1132.7300 510.5700Q1137.0000 503.3600 1144.6300 499.5800Q1152.2600 495.8000 1162.3400 495.8000L1162.3400 495.8000Q1171.3000 495.8000 1177.6000 498.2500Q1183.9000 500.7000 1187.9600 504.5500Q1192.0200 508.4000 1194.0500 512.5300Q1196.0800 516.6600 1196.2200 520.0200L1196.2200 520.0200Q1196.3600 521.5600 1195.3100 522.4700Q1194.2600 523.3800 1192.8600 523.3800L1192.8600 523.3800L1180.5400 523.3800Q1179.1400 523.3800 1178.3700 522.6800Q1177.6000 521.9800 1176.9000 520.5800L1176.9000 520.5800Q1174.8000 514.9800 1171.3700 512.6700Q1167.9400 510.3600 1162.6200 510.3600L1162.6200 510.3600Q1155.6200 510.3600 1151.4900 514.7700Q1147.3600 519.1800 1147.0800 528.7000L1147.0800 528.7000Q1146.8000 534.0200 1147.0800 538.5000L1147.0800 538.5000Q1147.3600 548.1600 1151.4900 552.5000Q1155.6200 556.8400 1162.6200 556.8400L1162.6200 556.8400Q1168.0800 556.8400 1171.4400 554.5300Q1174.8000 552.2200 1176.9000 546.6200L1176.9000 546.6200Q1177.6000 545.2200 1178.3700 544.5200Q1179.1400 543.8200 1180.5400 543.8200L1180.5400 543.8200L1192.8600 543.8200Q1194.2600 543.8200 1195.3100 544.7300Q1196.3600 545.6400 1196.2200 547.1800L1196.2200 547.1800Q1196.0800 550.2600 1194.1200 554.3900Q1192.1600 558.5200 1188.2400 562.3700Q1184.3200 566.2200 1178.0200 568.8100Q1171.7200 571.4000 1162.7600 571.4000L1162.7600 571.4000L1159.8200 577.4200Q1160.6600 577 1162.1300 576.7200Q1163.6000 576.4400 1164.7200 576.4400L1164.7200 576.4400Q1169.6200 576.4400 1172.6300 579.8000Q1175.6400 583.1600 1175.6400 588.3400L1175.6400 588.3400Q1175.6400 593.6600 1172.1400 597.3000Q1168.6400 600.9400 1162.2000 600.8000ZM1231.9200 571.4000L1231.9200 571.4000Q1224.6400 571.4000 1218.7600 568.5300Q1212.8800 565.6600 1209.4500 560.8300Q1206.0200 556 1206.0200 549.9800L1206.0200 549.9800Q1206.0200 540.1800 1214.0000 534.3700Q1221.9800 528.5600 1234.8600 526.6000L1234.8600 526.6000L1254.0400 523.8000L1254.0400 520.8600Q1254.0400 514.9800 1251.1000 511.7600Q1248.1600 508.5400 1241.0200 508.5400L1241.0200 508.5400Q1235.9800 508.5400 1232.8300 510.5700Q1229.6800 512.6000 1228.1400 515.9600L1228.1400 515.9600Q1227.0200 517.7800 1224.9200 517.7800L1224.9200 517.7800L1213.8600 517.7800Q1212.3200 517.7800 1211.5500 516.9400Q1210.7800 516.1000 1210.7800 514.7000L1210.7800 514.7000Q1210.9200 512.4600 1212.6700 509.2400Q1214.4200 506.0200 1217.9900 503.0100Q1221.5600 500 1227.3000 497.9000Q1233.0400 495.8000 1241.1600 495.8000L1241.1600 495.8000Q1249.9800 495.8000 1256.0700 497.9700Q1262.1600 500.1400 1265.8000 503.7800Q1269.4400 507.4200 1271.1200 512.3200Q1272.8000 517.2200 1272.8000 522.6800L1272.8000 522.6800L1272.8000 566.6400Q1272.8000 568.0400 1271.8200 569.0200Q1270.8400 570 1269.4400 570L1269.4400 570L1258.1000 570Q1256.5600 570 1255.6500 569.0200Q1254.7400 568.0400 1254.7400 566.6400L1254.7400 566.6400L1254.7400 561.1800Q1252.9200 563.7000 1249.8400 566.0800Q1246.7600 568.4600 1242.3500 569.9300Q1237.9400 571.4000 1231.9200 571.4000ZM1236.6800 558.1000L1236.6800 558.1000Q1241.5800 558.1000 1245.5700 556Q1249.5600 553.9000 1251.8700 549.4900Q1254.1800 545.0800 1254.1800 538.3600L1254.1800 538.3600L1254.1800 535.4200L1240.1800 537.6600Q1231.9200 538.9200 1227.8600 541.7200Q1223.8000 544.5200 1223.8000 548.5800L1223.8000 548.5800Q1223.8000 551.6600 1225.6900 553.8300Q1227.5800 556 1230.5200 557.0500Q1233.4600 558.1000 1236.6800 558.1000ZM1248.8600 487.4000L1248.8600 487.4000Q1245.2200 487.4000 1242.9800 486.2100Q1240.7400 485.0200 1238.8500 483.7600Q1236.9600 482.5000 1234.7200 482.5000L1234.7200 482.5000Q1232.9000 482.5000 1232.1300 483.5500Q1231.3600 484.6000 1230.6600 485.6500Q1229.9600 486.7000 1228.4200 486.7000L1228.4200 486.7000L1221.9800 486.7000Q1221.0000 486.7000 1220.3000 486Q1219.6000 485.3000 1219.6000 484.3200L1219.6000 484.3200Q1219.6000 482.2200 1220.3700 479.6300Q1221.1400 477.0400 1222.8200 474.6600Q1224.5000 472.2800 1227.0900 470.8100Q1229.6800 469.3400 1233.1800 469.3400L1233.1800 469.3400Q1236.9600 469.3400 1239.2000 470.5300Q1241.4400 471.7200 1243.3300 472.9800Q1245.2200 474.2400 1247.4600 474.2400L1247.4600 474.2400Q1249.2800 474.2400 1250.0500 473.1200Q1250.8200 472 1251.5200 470.9500Q1252.2200 469.9000 1253.7600 469.9000L1253.7600 469.9000L1260.2000 469.9000Q1261.3200 469.9000 1261.9500 470.6700Q1262.5800 471.4400 1262.5800 472.4200L1262.5800 472.4200Q1262.5800 474.5200 1261.8100 477.1100Q1261.0400 479.7000 1259.3600 482.0800Q1257.6800 484.4600 1255.0900 485.9300Q1252.5000 487.4000 1248.8600 487.4000ZM1322.9200 571.4000L1322.9200 571.4000Q1311.7200 571.4000 1304.0900 567.4800Q1296.4600 563.5600 1292.4700 556.4200Q1288.4800 549.2800 1287.9200 539.7600L1287.9200 539.7600Q1287.7800 537.2400 1287.7800 533.6000Q1287.7800 529.9600 1287.9200 527.4400L1287.9200 527.4400Q1288.4800 517.7800 1292.6100 510.7100Q1296.7400 503.6400 1304.3700 499.7200Q1312.0000 495.8000 1322.9200 495.8000L1322.9200 495.8000Q1333.8400 495.8000 1341.4700 499.7200Q1349.1000 503.6400 1353.2300 510.7100Q1357.3600 517.7800 1357.9200 527.4400L1357.9200 527.4400Q1358.0600 529.9600 1358.0600 533.6000Q1358.0600 537.2400 1357.9200 539.7600L1357.9200 539.7600Q1357.3600 549.2800 1353.3700 556.4200Q1349.3800 563.5600 1341.7500 567.4800Q1334.1200 571.4000 1322.9200 571.4000ZM1322.9200 557.5400L1322.9200 557.5400Q1330.3400 557.5400 1334.4000 552.8500Q1338.4600 548.1600 1338.8800 539.0600L1338.8800 539.0600Q1339.0200 536.9600 1339.0200 533.6000Q1339.0200 530.2400 1338.8800 528.1400L1338.8800 528.1400Q1338.4600 519.0400 1334.4000 514.3500Q1330.3400 509.6600 1322.9200 509.6600L1322.9200 509.6600Q1315.5000 509.6600 1311.4400 514.3500Q1307.3800 519.0400 1306.9600 528.1400L1306.9600 528.1400Q1306.8200 530.2400 1306.8200 533.6000Q1306.8200 536.9600 1306.9600 539.0600L1306.9600 539.0600Q1307.3800 548.1600 1311.4400 552.8500Q1315.5000 557.5400 1322.9200 557.5400ZM1426.8000 571.4000L1426.8000 571.4000Q1419.5200 571.4000 1413.6400 568.5300Q1407.7600 565.6600 1404.3300 560.8300Q1400.9000 556 1400.9000 549.9800L1400.9000 549.9800Q1400.9000 540.1800 1408.8800 534.3700Q1416.8600 528.5600 1429.7400 526.6000L1429.7400 526.6000L1448.9200 523.8000L1448.9200 520.8600Q1448.9200 514.9800 1445.9800 511.7600Q1443.0400 508.5400 1435.9000 508.5400L1435.9000 508.5400Q1430.8600 508.5400 1427.7100 510.5700Q1424.5600 512.6000 1423.0200 515.9600L1423.0200 515.9600Q1421.9000 517.7800 1419.8000 517.7800L1419.8000 517.7800L1408.7400 517.7800Q1407.2000 517.7800 1406.4300 516.9400Q1405.6600 516.1000 1405.6600 514.7000L1405.6600 514.7000Q1405.8000 512.4600 1407.5500 509.2400Q1409.3000 506.0200 1412.8700 503.0100Q1416.4400 500 1422.1800 497.9000Q1427.9200 495.8000 1436.0400 495.8000L1436.0400 495.8000Q1444.8600 495.8000 1450.9500 497.9700Q1457.0400 500.1400 1460.6800 503.7800Q1464.3200 507.4200 1466.0000 512.3200Q1467.6800 517.2200 1467.6800 522.6800L1467.6800 522.6800L1467.6800 566.6400Q1467.6800 568.0400 1466.7000 569.0200Q1465.7200 570 1464.3200 570L1464.3200 570L1452.9800 570Q1451.4400 570 1450.5300 569.0200Q1449.6200 568.0400 1449.6200 566.6400L1449.6200 566.6400L1449.6200 561.1800Q1447.8000 563.7000 1444.7200 566.0800Q1441.6400 568.4600 1437.2300 569.9300Q1432.8200 571.4000 1426.8000 571.4000ZM1431.5600 558.1000L1431.5600 558.1000Q1436.4600 558.1000 1440.4500 556Q1444.4400 553.9000 1446.7500 549.4900Q1449.0600 545.0800 1449.0600 538.3600L1449.0600 538.3600L1449.0600 535.4200L1435.0600 537.6600Q1426.8000 538.9200 1422.7400 541.7200Q1418.6800 544.5200 1418.6800 548.5800L1418.6800 548.5800Q1418.6800 551.6600 1420.5700 553.8300Q1422.4600 556 1425.4000 557.0500Q1428.3400 558.1000 1431.5600 558.1000ZM194.9400 711.4000L194.9400 711.4000Q181.9200 711.4000 173.1700 707.5500Q164.4200 703.7000 159.8700 697.4700Q155.3200 691.2400 155.0400 684.3800L155.0400 684.3800Q155.0400 683.1200 155.8800 682.2800Q156.7200 681.4400 157.9800 681.4400L157.9800 681.4400L170.4400 681.4400Q172.2600 681.4400 173.1700 682.2100Q174.0800 682.9800 174.7800 684.1000L174.7800 684.1000Q175.6200 686.7600 178 689.3500Q180.3800 691.9400 184.5100 693.6200Q188.6400 695.3000 194.9400 695.3000L194.9400 695.3000Q205.0200 695.3000 209.9900 691.9400Q214.9600 688.5800 214.9600 682.8400L214.9600 682.8400Q214.9600 678.7800 212.3000 676.3300Q209.6400 673.8800 204.1100 671.8500Q198.5800 669.8200 189.4800 667.5800L189.4800 667.5800Q178.9800 665.0600 171.9100 661.4900Q164.8400 657.9200 161.2700 652.4600Q157.7000 647 157.7000 638.6000L157.7000 638.6000Q157.7000 630.4800 162.1100 624.1800Q166.5200 617.8800 174.7100 614.2400Q182.9000 610.6000 194.2400 610.6000L194.2400 610.6000Q203.3400 610.6000 210.3400 613.0500Q217.3400 615.5000 221.9600 619.4900Q226.5800 623.4800 229.0300 628.0300Q231.4800 632.5800 231.6200 636.9200L231.6200 636.9200Q231.6200 638.0400 230.8500 638.9500Q230.0800 639.8600 228.6800 639.8600L228.6800 639.8600L215.6600 639.8600Q214.5400 639.8600 213.4200 639.3000Q212.3000 638.7400 211.6000 637.2000L211.6000 637.2000Q210.7600 632.8600 206.1400 629.7800Q201.5200 626.7000 194.2400 626.7000L194.2400 626.7000Q186.6800 626.7000 182.0600 629.5000Q177.4400 632.3000 177.4400 638.1800L177.4400 638.1800Q177.4400 642.1000 179.7500 644.6900Q182.0600 647.2800 187.1700 649.2400Q192.2800 651.2000 200.6800 653.4400L200.6800 653.4400Q212.5800 656.1000 220.1400 659.6000Q227.7000 663.1000 231.2000 668.4900Q234.7000 673.8800 234.7000 682.1400L234.7000 682.1400Q234.7000 691.3800 229.7300 697.8900Q224.7600 704.4000 215.8000 707.9000Q206.8400 711.4000 194.9400 711.4000ZM326.6800 719.1000L313.6600 719.1000Q311.7000 719.1000 310.5100 717.9100Q309.3200 716.7200 308.6200 715.8800L308.6200 715.8800L303.4400 708.8800Q296.8600 711.4000 288.4600 711.4000L288.4600 711.4000Q276 711.4000 266.9700 707.2700Q257.9400 703.1400 252.9700 694.5300Q248 685.9200 247.4400 673.0400L247.4400 673.0400Q247.3000 667.0200 247.3000 661.1400Q247.3000 655.2600 247.4400 649.1000L247.4400 649.1000Q248 636.3600 253.1100 627.8200Q258.2200 619.2800 267.3200 614.9400Q276.4200 610.6000 288.4600 610.6000L288.4600 610.6000Q300.5000 610.6000 309.6000 614.9400Q318.7000 619.2800 323.8800 627.8200Q329.0600 636.3600 329.3400 649.1000L329.3400 649.1000Q329.6200 655.2600 329.6200 661.1400Q329.6200 667.0200 329.3400 673.0400L329.3400 673.0400Q328.6400 691.3800 319.2600 700.9000L319.2600 700.9000L329.0600 714.7600Q329.2000 714.9000 329.3400 715.2500Q329.4800 715.6000 329.4800 716.1600L329.4800 716.1600Q329.6200 717.4200 328.7100 718.2600Q327.8000 719.1000 326.6800 719.1000L326.6800 719.1000ZM288.4600 695.3000L288.4600 695.3000Q297.4200 695.3000 303.1600 689.9100Q308.9000 684.5200 309.3200 672.3400L309.3200 672.3400Q309.6000 666.1800 309.6000 660.9300Q309.6000 655.6800 309.3200 649.6600L309.3200 649.6600Q309.1800 641.5400 306.3800 636.4300Q303.5800 631.3200 299.0300 629.0100Q294.4800 626.7000 288.4600 626.7000L288.4600 626.7000Q282.5800 626.7000 277.9600 629.0100Q273.3400 631.3200 270.6100 636.4300Q267.8800 641.5400 267.4600 649.6600L267.4600 649.6600Q267.3200 655.6800 267.3200 660.9300Q267.3200 666.1800 267.4600 672.3400L267.4600 672.3400Q268.0200 684.5200 273.7600 689.9100Q279.5000 695.3000 288.4600 695.3000ZM412.2200 710L351.4600 710Q350.0600 710 349.0800 709.0200Q348.1000 708.0400 348.1000 706.6400L348.1000 706.6400L348.1000 615.3600Q348.1000 613.9600 349.0800 612.9800Q350.0600 612 351.4600 612L351.4600 612L364.4800 612Q365.8800 612 366.8600 612.9800Q367.8400 613.9600 367.8400 615.3600L367.8400 615.3600L367.8400 693.3400L412.2200 693.3400Q413.7600 693.3400 414.7400 694.3200Q415.7200 695.3000 415.7200 696.8400L415.7200 696.8400L415.7200 706.6400Q415.7200 708.0400 414.7400 709.0200Q413.7600 710 412.2200 710L412.2200 710Z" id="title"/></g></svg>