<svg xmlns="http://www.w3.org/2000/svg" version="1.1" xmlns:xlink="http://www.w3.org/1999/xlink" xmlns:svgjs="http://svgjs.dev/svgjs" viewBox="0 0 1920 1080" id="b3915cc9-acc7-4f8e-bb24-c438f30143c1"><g><rect width="1920" height="1080" fill="#9d9c62"/></g><g fill="#e06b49"><path d="M969.5 217C561.465 217 231 547.465 231 955.5C231 1363.53 561.465 1694 969.5 1694C1377.53 1694 1708 1363.53 1708 955.5C1708 547.465 1377.53 217 969.5 217ZM969.5 1309.34C773.983 1309.34 615.658 1151.02 615.658 955.5C615.658 759.983 773.983 601.658 969.5 601.658C1165.02 601.658 1323.34 759.983 1323.34 955.5C1323.34 1151.02 1165.02 1309.34 969.5 1309.34Z"/></g><g fill="#ffffff" opacity="0.2"><path d="M1432 918.479L1616.48 734V918.479H1432Z"/><path d="M1616.48 918.479L1800.52 734V918.479H1616.48Z"/><path d="M1800.52 918.479L1985 734V918.479H1800.52Z"/><path d="M1432 1102.52L1616.48 918.479V1102.52H1432Z"/><path d="M1616.48 1102.52L1800.52 918.479V1102.52H1616.48Z"/><path d="M1800.52 1102.52L1985 918.479V1102.52H1800.52Z"/><path d="M499 154.521L683.479 -29.5215V154.521H499Z"/><path d="M683.479 154.521L867.521 -29.5215V154.521H683.479Z"/><path d="M867.521 154.521L1052 -29.5215V154.521H867.521Z"/><path d="M499 339L683.479 154.521V339H499Z"/><path d="M683.479 339L867.521 154.521V339H683.479Z"/><path d="M867.521 339L1052 154.521V339H867.521Z"/></g><g><path d="M178.635 139.281L184.422 144.246V166.626H215.704L219.958 172.147L215.69 177.397H184.422V198.795L178.635 203.747L173 198.795V144.232L178.635 139.281ZM195.554 195.68H219.406L223.397 200.915L219.143 206.45H195.554L191.7 201.342L195.554 195.68ZM196.382 138H219.129L223.383 143.52L219.129 148.77H196.659L192.115 143.677L196.382 138ZM323.155 148.628L328.251 154.291L323.155 159.968H246.13L241.172 154.291L246.13 148.628H323.155ZM237.043 172.147L241.849 167.893L246.669 172.147V178.393C246.669 188.879 249.417 197.515 261.668 197.515H264.14C275.147 197.515 281.197 189.86 281.197 177.952V172.005L285.879 167.75L290.699 171.862V178.379C290.699 189.007 293.723 196.946 305.56 196.946H307.618C319.178 196.946 321.235 187.869 321.373 177.952V171.578L326.056 167.608L331 171.72V178.094C330.862 191.838 327.285 207.574 308.032 207.574H305.974C294.552 207.574 288.365 202.324 285.892 195.808C283.006 202.466 275.299 208.286 264.844 208.286H262.358C242.553 208.286 237.194 195.964 237.056 178.663V172.147H237.043ZM276.391 274.744L273.642 267.089L280.796 264.969L305.974 276.721V252.491L311.07 248.095L316.291 252.491V281.829L325.641 286.226L328.251 293.311L320.959 296L276.391 274.744ZM321.235 223.011L328.113 226.27L325.917 233.497L264.002 263.119L256.571 260.146L259.596 252.776L321.235 223.011ZM231.905 263.404L237.954 268.512C237.402 286.51 222.403 296 204.669 296H202.874C194.062 296 183.759 292.6 177.157 286.083L177.834 278.855L184.298 278.002C189.118 282.256 195.858 285.229 202.183 285.229H204.117C216.091 285.229 225.303 280.136 226.27 268.085L231.905 263.404ZM226.256 251.638C225.704 239.16 216.629 234.209 204.103 234.209H202.169C194.739 234.209 189.104 237.182 184.284 241.436L177.834 240.583L177.143 233.355C183.745 226.696 192.957 223.58 202.597 223.58H204.517C222.403 223.58 237.402 232.942 237.94 251.211L231.891 256.176L226.256 251.638Z" fill="#ffffff"/></g><g fill="#ffffff" id="info-group"><path d="M167.0800 500L154.9000 500Q153.7800 500 152.8700 499.1600Q151.9600 498.3200 151.9600 497.0600L151.9600 497.0600Q151.9600 496.5000 152.2400 495.8000L152.2400 495.8000L185.9800 405.5000Q186.4000 404.1000 187.5900 403.0500Q188.7800 402 190.8800 402L190.8800 402L206.1400 402Q208.2400 402 209.3600 403.0500Q210.4800 404.1000 211.0400 405.5000L211.0400 405.5000L244.7800 495.8000Q244.9200 496.5000 244.9200 497.0600L244.9200 497.0600Q244.9200 498.3200 244.0800 499.1600Q243.2400 500 242.1200 500L242.1200 500L229.9400 500Q227.9800 500 227.0700 499.0900Q226.1600 498.1800 225.8800 497.3400L225.8800 497.3400L219.3000 480.2600L177.7200 480.2600L171.1400 497.3400Q170.8600 498.1800 169.9500 499.0900Q169.0400 500 167.0800 500L167.0800 500ZM198.4400 420.9000L182.6200 464.1600L214.4000 464.1600L198.4400 420.9000ZM283.2800 501.4000L283.2800 501.4000Q274.7400 501.4000 268.5100 497.5500Q262.2800 493.7000 258.9200 486.6300Q255.5600 479.5600 255.5600 469.9000L255.5600 469.9000L255.5600 430.5600Q255.5600 429.1600 256.5400 428.1800Q257.5200 427.2000 258.9200 427.2000L258.9200 427.2000L271.2400 427.2000Q272.7800 427.2000 273.6900 428.1800Q274.6000 429.1600 274.6000 430.5600L274.6000 430.5600L274.6000 469.0600Q274.6000 486.4200 289.8600 486.4200L289.8600 486.4200Q297.1400 486.4200 301.4100 481.8000Q305.6800 477.1800 305.6800 469.0600L305.6800 469.0600L305.6800 430.5600Q305.6800 429.1600 306.6600 428.1800Q307.6400 427.2000 309.0400 427.2000L309.0400 427.2000L321.3600 427.2000Q322.7600 427.2000 323.7400 428.1800Q324.7200 429.1600 324.7200 430.5600L324.7200 430.5600L324.7200 496.6400Q324.7200 498.0400 323.7400 499.0200Q322.7600 500 321.3600 500L321.3600 500L310.0200 500Q308.4800 500 307.5700 499.0200Q306.6600 498.0400 306.6600 496.6400L306.6600 496.6400L306.6600 490.9000Q302.8800 495.8000 297.2800 498.6000Q291.6800 501.4000 283.2800 501.4000ZM358.3200 500L346.7000 500Q345.3000 500 344.3200 499.0200Q343.3400 498.0400 343.3400 496.6400L343.3400 496.6400L343.3400 403.9600Q343.3400 402.5600 344.3200 401.5800Q345.3000 400.6000 346.7000 400.6000L346.7000 400.6000L358.3200 400.6000Q359.7200 400.6000 360.7000 401.5800Q361.6800 402.5600 361.6800 403.9600L361.6800 403.9600L361.6800 496.6400Q361.6800 498.0400 360.7000 499.0200Q359.7200 500 358.3200 500L358.3200 500ZM401.4400 501.4000L401.4400 501.4000Q394.1600 501.4000 388.2800 498.5300Q382.4000 495.6600 378.9700 490.8300Q375.5400 486 375.5400 479.9800L375.5400 479.9800Q375.5400 470.1800 383.5200 464.3700Q391.5000 458.5600 404.3800 456.6000L404.3800 456.6000L423.5600 453.8000L423.5600 450.8600Q423.5600 444.9800 420.6200 441.7600Q417.6800 438.5400 410.5400 438.5400L410.5400 438.5400Q405.5000 438.5400 402.3500 440.5700Q399.2000 442.6000 397.6600 445.9600L397.6600 445.9600Q396.5400 447.7800 394.4400 447.7800L394.4400 447.7800L383.3800 447.7800Q381.8400 447.7800 381.0700 446.9400Q380.3000 446.1000 380.3000 444.7000L380.3000 444.7000Q380.4400 442.4600 382.1900 439.2400Q383.9400 436.0200 387.5100 433.0100Q391.0800 430 396.8200 427.9000Q402.5600 425.8000 410.6800 425.8000L410.6800 425.8000Q419.5000 425.8000 425.5900 427.9700Q431.6800 430.1400 435.3200 433.7800Q438.9600 437.4200 440.6400 442.3200Q442.3200 447.2200 442.3200 452.6800L442.3200 452.6800L442.3200 496.6400Q442.3200 498.0400 441.3400 499.0200Q440.3600 500 438.9600 500L438.9600 500L427.6200 500Q426.0800 500 425.1700 499.0200Q424.2600 498.0400 424.2600 496.6400L424.2600 496.6400L424.2600 491.1800Q422.4400 493.7000 419.3600 496.0800Q416.2800 498.4600 411.8700 499.9300Q407.4600 501.4000 401.4400 501.4000ZM406.2000 488.1000L406.2000 488.1000Q411.1000 488.1000 415.0900 486Q419.0800 483.9000 421.3900 479.4900Q423.7000 475.0800 423.7000 468.3600L423.7000 468.3600L423.7000 465.4200L409.7000 467.6600Q401.4400 468.9200 397.3800 471.7200Q393.3200 474.5200 393.3200 478.5800L393.3200 478.5800Q393.3200 481.6600 395.2100 483.8300Q397.1000 486 400.0400 487.0500Q402.9800 488.1000 406.2000 488.1000ZM534.5800 500L521.8400 500Q520.3000 500 519.3900 499.0200Q518.4800 498.0400 518.4800 496.6400L518.4800 496.6400L518.4800 424.1200L497.2000 440.5000Q495.9400 441.3400 494.6800 441.1300Q493.4200 440.9200 492.4400 439.6600L492.4400 439.6600L486.5600 432.1000Q485.7200 430.8400 485.9300 429.4400Q486.1400 428.0400 487.4000 427.2000L487.4000 427.2000L518.7600 402.9800Q519.6000 402.2800 520.4400 402.1400Q521.2800 402 522.2600 402L522.2600 402L534.5800 402Q535.9800 402 536.9600 402.9800Q537.9400 403.9600 537.9400 405.3600L537.9400 405.3600L537.9400 496.6400Q537.9400 498.0400 536.9600 499.0200Q535.9800 500 534.5800 500L534.5800 500ZM573.9200 451L560.0600 451Q558.6600 451 557.6800 450.0200Q556.7000 449.0400 556.7000 447.6400L556.7000 447.6400L556.7000 434.3400Q556.7000 432.8000 557.6800 431.8200Q558.6600 430.8400 560.0600 430.8400L560.0600 430.8400L573.9200 430.8400Q575.4600 430.8400 576.4400 431.8200Q577.4200 432.8000 577.4200 434.3400L577.4200 434.3400L577.4200 447.6400Q577.4200 449.0400 576.4400 450.0200Q575.4600 451 573.9200 451L573.9200 451ZM573.9200 500L560.0600 500Q558.6600 500 557.6800 499.0200Q556.7000 498.0400 556.7000 496.6400L556.7000 496.6400L556.7000 483.3400Q556.7000 481.8000 557.6800 480.8200Q558.6600 479.8400 560.0600 479.8400L560.0600 479.8400L573.9200 479.8400Q575.4600 479.8400 576.4400 480.8200Q577.4200 481.8000 577.4200 483.3400L577.4200 483.3400L577.4200 496.6400Q577.4200 498.0400 576.4400 499.0200Q575.4600 500 573.9200 500L573.9200 500ZM645.7400 500L632.5800 500Q631.1800 500 630.2000 499.0200Q629.2200 498.0400 629.2200 496.6400L629.2200 496.6400L629.2200 405.3600Q629.2200 403.9600 630.2000 402.9800Q631.1800 402 632.5800 402L632.5800 402L645.7400 402Q647.2800 402 648.1900 402.9800Q649.1000 403.9600 649.1000 405.3600L649.1000 405.3600L649.1000 496.6400Q649.1000 498.0400 648.1900 499.0200Q647.2800 500 645.7400 500L645.7400 500ZM685.0800 500L672.7600 500Q671.3600 500 670.3800 499.0200Q669.4000 498.0400 669.4000 496.6400L669.4000 496.6400L669.4000 430.5600Q669.4000 429.1600 670.3800 428.1800Q671.3600 427.2000 672.7600 427.2000L672.7600 427.2000L684.2400 427.2000Q685.6400 427.2000 686.6200 428.1800Q687.6000 429.1600 687.6000 430.5600L687.6000 430.5600L687.6000 436.3000Q691.2400 431.8200 696.9100 428.8100Q702.5800 425.8000 710.9800 425.8000L710.9800 425.8000Q719.5200 425.8000 725.8200 429.6500Q732.1200 433.5000 735.5500 440.5000Q738.9800 447.5000 738.9800 457.3000L738.9800 457.3000L738.9800 496.6400Q738.9800 498.0400 738.0000 499.0200Q737.0200 500 735.6200 500L735.6200 500L723.3000 500Q721.9000 500 720.9200 499.0200Q719.9400 498.0400 719.9400 496.6400L719.9400 496.6400L719.9400 458.1400Q719.9400 450.0200 715.9500 445.4000Q711.9600 440.7800 704.4000 440.7800L704.4000 440.7800Q697.1200 440.7800 692.7800 445.4000Q688.4400 450.0200 688.4400 458.1400L688.4400 458.1400L688.4400 496.6400Q688.4400 498.0400 687.4600 499.0200Q686.4800 500 685.0800 500L685.0800 500ZM801.0000 500L789.6600 500Q781.2600 500 775.5200 497.0600Q769.7800 494.1200 766.9800 488.3100Q764.1800 482.5000 764.1800 473.8200L764.1800 473.8200L764.1800 442.0400L753.1200 442.0400Q751.7200 442.0400 750.7400 441.0600Q749.7600 440.0800 749.7600 438.5400L749.7600 438.5400L749.7600 430.5600Q749.7600 429.1600 750.7400 428.1800Q751.7200 427.2000 753.1200 427.2000L753.1200 427.2000L764.1800 427.2000L764.1800 403.9600Q764.1800 402.5600 765.0900 401.5800Q766.0000 400.6000 767.5400 400.6000L767.5400 400.6000L778.8800 400.6000Q780.2800 400.6000 781.2600 401.5800Q782.2400 402.5600 782.2400 403.9600L782.2400 403.9600L782.2400 427.2000L799.7400 427.2000Q801.1400 427.2000 802.1200 428.1800Q803.1000 429.1600 803.1000 430.5600L803.1000 430.5600L803.1000 438.5400Q803.1000 440.0800 802.1200 441.0600Q801.1400 442.0400 799.7400 442.0400L799.7400 442.0400L782.2400 442.0400L782.2400 472.4200Q782.2400 478.1600 784.2700 481.3800Q786.3000 484.6000 791.3400 484.6000L791.3400 484.6000L801.0000 484.6000Q802.4000 484.6000 803.3800 485.5800Q804.3600 486.5600 804.3600 487.9600L804.3600 487.9600L804.3600 496.6400Q804.3600 498.0400 803.3800 499.0200Q802.4000 500 801.0000 500L801.0000 500ZM832.3600 500L820.1800 500Q818.7800 500 817.8000 499.0200Q816.8200 498.0400 816.8200 496.6400L816.8200 496.6400L816.8200 430.7000Q816.8200 429.1600 817.8000 428.1800Q818.7800 427.2000 820.1800 427.2000L820.1800 427.2000L831.5200 427.2000Q832.9200 427.2000 833.9700 428.1800Q835.0200 429.1600 835.0200 430.7000L835.0200 430.7000L835.0200 436.4400Q838.2400 431.9600 843.3500 429.5800Q848.4600 427.2000 855.1800 427.2000L855.1800 427.2000L860.9200 427.2000Q862.4600 427.2000 863.3700 428.1800Q864.2800 429.1600 864.2800 430.5600L864.2800 430.5600L864.2800 440.6400Q864.2800 442.0400 863.3700 443.0200Q862.4600 444 860.9200 444L860.9200 444L850.0000 444Q843.2800 444 839.5700 447.7100Q835.8600 451.4200 835.8600 458.1400L835.8600 458.1400L835.8600 496.6400Q835.8600 498.0400 834.8800 499.0200Q833.9000 500 832.3600 500L832.3600 500ZM907.4000 501.4000L907.4000 501.4000Q896.2000 501.4000 888.5700 497.4800Q880.9400 493.5600 876.9500 486.4200Q872.9600 479.2800 872.4000 469.7600L872.4000 469.7600Q872.2600 467.2400 872.2600 463.6000Q872.2600 459.9600 872.4000 457.4400L872.4000 457.4400Q872.9600 447.7800 877.0900 440.7100Q881.2200 433.6400 888.8500 429.7200Q896.4800 425.8000 907.4000 425.8000L907.4000 425.8000Q918.3200 425.8000 925.9500 429.7200Q933.5800 433.6400 937.7100 440.7100Q941.8400 447.7800 942.4000 457.4400L942.4000 457.4400Q942.5400 459.9600 942.5400 463.6000Q942.5400 467.2400 942.4000 469.7600L942.4000 469.7600Q941.8400 479.2800 937.8500 486.4200Q933.8600 493.5600 926.2300 497.4800Q918.6000 501.4000 907.4000 501.4000ZM907.4000 487.5400L907.4000 487.5400Q914.8200 487.5400 918.8800 482.8500Q922.9400 478.1600 923.3600 469.0600L923.3600 469.0600Q923.5000 466.9600 923.5000 463.6000Q923.5000 460.2400 923.3600 458.1400L923.3600 458.1400Q922.9400 449.0400 918.8800 444.3500Q914.8200 439.6600 907.4000 439.6600L907.4000 439.6600Q899.9800 439.6600 895.9200 444.3500Q891.8600 449.0400 891.4400 458.1400L891.4400 458.1400Q891.3000 460.2400 891.3000 463.6000Q891.3000 466.9600 891.4400 469.0600L891.4400 469.0600Q891.8600 478.1600 895.9200 482.8500Q899.9800 487.5400 907.4000 487.5400ZM985.1000 501.4000L985.1000 501.4000Q977.8200 501.4000 972.2900 498.9500Q966.7600 496.5000 963.1200 492.0200Q959.4800 487.5400 957.5200 481.4500Q955.5600 475.3600 955.2800 468.0800L955.2800 468.0800Q955.1400 465.5600 955.1400 463.5300Q955.1400 461.5000 955.2800 458.9800L955.2800 458.9800Q955.5600 451.9800 957.4500 445.9600Q959.3400 439.9400 963.0500 435.3900Q966.7600 430.8400 972.2900 428.3200Q977.8200 425.8000 985.1000 425.8000L985.1000 425.8000Q992.6600 425.8000 997.9100 428.3900Q1003.1600 430.9800 1006.6600 435.0400L1006.6600 435.0400L1006.6600 403.9600Q1006.6600 402.5600 1007.5700 401.5800Q1008.4800 400.6000 1010.0200 400.6000L1010.0200 400.6000L1021.9200 400.6000Q1023.3200 400.6000 1024.3000 401.5800Q1025.2800 402.5600 1025.2800 403.9600L1025.2800 403.9600L1025.2800 496.6400Q1025.2800 498.0400 1024.3000 499.0200Q1023.3200 500 1021.9200 500L1021.9200 500L1010.8600 500Q1009.3200 500 1008.4100 499.0200Q1007.5000 498.0400 1007.5000 496.6400L1007.5000 496.6400L1007.5000 491.4600Q1004.0000 495.8000 998.6100 498.6000Q993.2200 501.4000 985.1000 501.4000ZM990.2800 486.4200L990.2800 486.4200Q996.1600 486.4200 999.6600 483.7600Q1003.1600 481.1000 1004.8400 476.9700Q1006.5200 472.8400 1006.6600 468.5000L1006.6600 468.5000Q1006.8000 465.9800 1006.8000 463.1100Q1006.8000 460.2400 1006.6600 457.7200L1006.6600 457.7200Q1006.5200 453.5200 1004.7000 449.6700Q1002.8800 445.8200 999.3800 443.3000Q995.8800 440.7800 990.2800 440.7800L990.2800 440.7800Q984.4000 440.7800 980.9700 443.3700Q977.5400 445.9600 976.0000 450.1600Q974.4600 454.3600 974.1800 459.4000L974.1800 459.4000Q974.0400 463.6000 974.1800 467.8000L974.1800 467.8000Q974.4600 472.8400 976.0000 477.0400Q977.5400 481.2400 980.9700 483.8300Q984.4000 486.4200 990.2800 486.4200ZM1070.9200 501.4000L1070.9200 501.4000Q1062.3800 501.4000 1056.1500 497.5500Q1049.9200 493.7000 1046.5600 486.6300Q1043.2000 479.5600 1043.2000 469.9000L1043.2000 469.9000L1043.2000 430.5600Q1043.2000 429.1600 1044.1800 428.1800Q1045.1600 427.2000 1046.5600 427.2000L1046.5600 427.2000L1058.8800 427.2000Q1060.4200 427.2000 1061.3300 428.1800Q1062.2400 429.1600 1062.2400 430.5600L1062.2400 430.5600L1062.2400 469.0600Q1062.2400 486.4200 1077.5000 486.4200L1077.5000 486.4200Q1084.7800 486.4200 1089.0500 481.8000Q1093.3200 477.1800 1093.3200 469.0600L1093.3200 469.0600L1093.3200 430.5600Q1093.3200 429.1600 1094.3000 428.1800Q1095.2800 427.2000 1096.6800 427.2000L1096.6800 427.2000L1109 427.2000Q1110.4000 427.2000 1111.3800 428.1800Q1112.3600 429.1600 1112.3600 430.5600L1112.3600 430.5600L1112.3600 496.6400Q1112.3600 498.0400 1111.3800 499.0200Q1110.4000 500 1109 500L1109 500L1097.6600 500Q1096.1200 500 1095.2100 499.0200Q1094.3000 498.0400 1094.3000 496.6400L1094.3000 496.6400L1094.3000 490.9000Q1090.5200 495.8000 1084.9200 498.6000Q1079.3200 501.4000 1070.9200 501.4000ZM1162.2000 530.8000L1162.2000 530.8000Q1158.2800 530.6600 1155.2700 529.4000Q1152.2600 528.1400 1150.9300 526.4600Q1149.6000 524.7800 1151.0000 523.6600L1151.0000 523.6600L1153.3800 521.5600Q1154.6400 520.4400 1155.5500 520.9300Q1156.4600 521.4200 1157.9300 522.3300Q1159.4000 523.2400 1162.2000 523.2400L1162.2000 523.2400Q1164.3000 523.2400 1165.8400 521.9100Q1167.3800 520.5800 1167.3800 518.4800L1167.3800 518.4800Q1167.3800 516.5200 1165.9100 515.2600Q1164.4400 514 1162.2000 514L1162.2000 514Q1160.2400 514 1158.8400 514.4900Q1157.4400 514.9800 1156.3200 515.1900Q1155.2000 515.4000 1154.0800 514.2800L1154.0800 514.2800L1151.5600 511.7600Q1150.7200 510.7800 1151.0000 509.7300Q1151.2800 508.6800 1151.8400 507.4200L1151.8400 507.4200L1154.7800 500.7000Q1142.7400 498.8800 1135.6000 490.6900Q1128.4600 482.5000 1128.0400 469.2000L1128.0400 469.2000Q1127.9000 467.1000 1127.9000 463.6700Q1127.9000 460.2400 1128.0400 458L1128.0400 458Q1128.4600 447.7800 1132.7300 440.5700Q1137.0000 433.3600 1144.6300 429.5800Q1152.2600 425.8000 1162.3400 425.8000L1162.3400 425.8000Q1171.3000 425.8000 1177.6000 428.2500Q1183.9000 430.7000 1187.9600 434.5500Q1192.0200 438.4000 1194.0500 442.5300Q1196.0800 446.6600 1196.2200 450.0200L1196.2200 450.0200Q1196.3600 451.5600 1195.3100 452.4700Q1194.2600 453.3800 1192.8600 453.3800L1192.8600 453.3800L1180.5400 453.3800Q1179.1400 453.3800 1178.3700 452.6800Q1177.6000 451.9800 1176.9000 450.5800L1176.9000 450.5800Q1174.8000 444.9800 1171.3700 442.6700Q1167.9400 440.3600 1162.6200 440.3600L1162.6200 440.3600Q1155.6200 440.3600 1151.4900 444.7700Q1147.3600 449.1800 1147.0800 458.7000L1147.0800 458.7000Q1146.8000 464.0200 1147.0800 468.5000L1147.0800 468.5000Q1147.3600 478.1600 1151.4900 482.5000Q1155.6200 486.8400 1162.6200 486.8400L1162.6200 486.8400Q1168.0800 486.8400 1171.4400 484.5300Q1174.8000 482.2200 1176.9000 476.6200L1176.9000 476.6200Q1177.6000 475.2200 1178.3700 474.5200Q1179.1400 473.8200 1180.5400 473.8200L1180.5400 473.8200L1192.8600 473.8200Q1194.2600 473.8200 1195.3100 474.7300Q1196.3600 475.6400 1196.2200 477.1800L1196.2200 477.1800Q1196.0800 480.2600 1194.1200 484.3900Q1192.1600 488.5200 1188.2400 492.3700Q1184.3200 496.2200 1178.0200 498.8100Q1171.7200 501.4000 1162.7600 501.4000L1162.7600 501.4000L1159.8200 507.4200Q1160.6600 507 1162.1300 506.7200Q1163.6000 506.4400 1164.7200 506.4400L1164.7200 506.4400Q1169.6200 506.4400 1172.6300 509.8000Q1175.6400 513.1600 1175.6400 518.3400L1175.6400 518.3400Q1175.6400 523.6600 1172.1400 527.3000Q1168.6400 530.9400 1162.2000 530.8000ZM1231.9200 501.4000L1231.9200 501.4000Q1224.6400 501.4000 1218.7600 498.5300Q1212.8800 495.6600 1209.4500 490.8300Q1206.0200 486 1206.0200 479.9800L1206.0200 479.9800Q1206.0200 470.1800 1214.0000 464.3700Q1221.9800 458.5600 1234.8600 456.6000L1234.8600 456.6000L1254.0400 453.8000L1254.0400 450.8600Q1254.0400 444.9800 1251.1000 441.7600Q1248.1600 438.5400 1241.0200 438.5400L1241.0200 438.5400Q1235.9800 438.5400 1232.8300 440.5700Q1229.6800 442.6000 1228.1400 445.9600L1228.1400 445.9600Q1227.0200 447.7800 1224.9200 447.7800L1224.9200 447.7800L1213.8600 447.7800Q1212.3200 447.7800 1211.5500 446.9400Q1210.7800 446.1000 1210.7800 444.7000L1210.7800 444.7000Q1210.9200 442.4600 1212.6700 439.2400Q1214.4200 436.0200 1217.9900 433.0100Q1221.5600 430 1227.3000 427.9000Q1233.0400 425.8000 1241.1600 425.8000L1241.1600 425.8000Q1249.9800 425.8000 1256.0700 427.9700Q1262.1600 430.1400 1265.8000 433.7800Q1269.4400 437.4200 1271.1200 442.3200Q1272.8000 447.2200 1272.8000 452.6800L1272.8000 452.6800L1272.8000 496.6400Q1272.8000 498.0400 1271.8200 499.0200Q1270.8400 500 1269.4400 500L1269.4400 500L1258.1000 500Q1256.5600 500 1255.6500 499.0200Q1254.7400 498.0400 1254.7400 496.6400L1254.7400 496.6400L1254.7400 491.1800Q1252.9200 493.7000 1249.8400 496.0800Q1246.7600 498.4600 1242.3500 499.9300Q1237.9400 501.4000 1231.9200 501.4000ZM1236.6800 488.1000L1236.6800 488.1000Q1241.5800 488.1000 1245.5700 486Q1249.5600 483.9000 1251.8700 479.4900Q1254.1800 475.0800 1254.1800 468.3600L1254.1800 468.3600L1254.1800 465.4200L1240.1800 467.6600Q1231.9200 468.9200 1227.8600 471.7200Q1223.8000 474.5200 1223.8000 478.5800L1223.8000 478.5800Q1223.8000 481.6600 1225.6900 483.8300Q1227.5800 486 1230.5200 487.0500Q1233.4600 488.1000 1236.6800 488.1000ZM1248.8600 417.4000L1248.8600 417.4000Q1245.2200 417.4000 1242.9800 416.2100Q1240.7400 415.0200 1238.8500 413.7600Q1236.9600 412.5000 1234.7200 412.5000L1234.7200 412.5000Q1232.9000 412.5000 1232.1300 413.5500Q1231.3600 414.6000 1230.6600 415.6500Q1229.9600 416.7000 1228.4200 416.7000L1228.4200 416.7000L1221.9800 416.7000Q1221.0000 416.7000 1220.3000 416Q1219.6000 415.3000 1219.6000 414.3200L1219.6000 414.3200Q1219.6000 412.2200 1220.3700 409.6300Q1221.1400 407.0400 1222.8200 404.6600Q1224.5000 402.2800 1227.0900 400.8100Q1229.6800 399.3400 1233.1800 399.3400L1233.1800 399.3400Q1236.9600 399.3400 1239.2000 400.5300Q1241.4400 401.7200 1243.3300 402.9800Q1245.2200 404.2400 1247.4600 404.2400L1247.4600 404.2400Q1249.2800 404.2400 1250.0500 403.1200Q1250.8200 402 1251.5200 400.9500Q1252.2200 399.9000 1253.7600 399.9000L1253.7600 399.9000L1260.2000 399.9000Q1261.3200 399.9000 1261.9500 400.6700Q1262.5800 401.4400 1262.5800 402.4200L1262.5800 402.4200Q1262.5800 404.5200 1261.8100 407.1100Q1261.0400 409.7000 1259.3600 412.0800Q1257.6800 414.4600 1255.0900 415.9300Q1252.5000 417.4000 1248.8600 417.4000ZM1322.9200 501.4000L1322.9200 501.4000Q1311.7200 501.4000 1304.0900 497.4800Q1296.4600 493.5600 1292.4700 486.4200Q1288.4800 479.2800 1287.9200 469.7600L1287.9200 469.7600Q1287.7800 467.2400 1287.7800 463.6000Q1287.7800 459.9600 1287.9200 457.4400L1287.9200 457.4400Q1288.4800 447.7800 1292.6100 440.7100Q1296.7400 433.6400 1304.3700 429.7200Q1312.0000 425.8000 1322.9200 425.8000L1322.9200 425.8000Q1333.8400 425.8000 1341.4700 429.7200Q1349.1000 433.6400 1353.2300 440.7100Q1357.3600 447.7800 1357.9200 457.4400L1357.9200 457.4400Q1358.0600 459.9600 1358.0600 463.6000Q1358.0600 467.2400 1357.9200 469.7600L1357.9200 469.7600Q1357.3600 479.2800 1353.3700 486.4200Q1349.3800 493.5600 1341.7500 497.4800Q1334.1200 501.4000 1322.9200 501.4000ZM1322.9200 487.5400L1322.9200 487.5400Q1330.3400 487.5400 1334.4000 482.8500Q1338.4600 478.1600 1338.8800 469.0600L1338.8800 469.0600Q1339.0200 466.9600 1339.0200 463.6000Q1339.0200 460.2400 1338.8800 458.1400L1338.8800 458.1400Q1338.4600 449.0400 1334.4000 444.3500Q1330.3400 439.6600 1322.9200 439.6600L1322.9200 439.6600Q1315.5000 439.6600 1311.4400 444.3500Q1307.3800 449.0400 1306.9600 458.1400L1306.9600 458.1400Q1306.8200 460.2400 1306.8200 463.6000Q1306.8200 466.9600 1306.9600 469.0600L1306.9600 469.0600Q1307.3800 478.1600 1311.4400 482.8500Q1315.5000 487.5400 1322.9200 487.5400ZM1426.8000 501.4000L1426.8000 501.4000Q1419.5200 501.4000 1413.6400 498.5300Q1407.7600 495.6600 1404.3300 490.8300Q1400.9000 486 1400.9000 479.9800L1400.9000 479.9800Q1400.9000 470.1800 1408.8800 464.3700Q1416.8600 458.5600 1429.7400 456.6000L1429.7400 456.6000L1448.9200 453.8000L1448.9200 450.8600Q1448.9200 444.9800 1445.9800 441.7600Q1443.0400 438.5400 1435.9000 438.5400L1435.9000 438.5400Q1430.8600 438.5400 1427.7100 440.5700Q1424.5600 442.6000 1423.0200 445.9600L1423.0200 445.9600Q1421.9000 447.7800 1419.8000 447.7800L1419.8000 447.7800L1408.7400 447.7800Q1407.2000 447.7800 1406.4300 446.9400Q1405.6600 446.1000 1405.6600 444.7000L1405.6600 444.7000Q1405.8000 442.4600 1407.5500 439.2400Q1409.3000 436.0200 1412.8700 433.0100Q1416.4400 430 1422.1800 427.9000Q1427.9200 425.8000 1436.0400 425.8000L1436.0400 425.8000Q1444.8600 425.8000 1450.9500 427.9700Q1457.0400 430.1400 1460.6800 433.7800Q1464.3200 437.4200 1466.0000 442.3200Q1467.6800 447.2200 1467.6800 452.6800L1467.6800 452.6800L1467.6800 496.6400Q1467.6800 498.0400 1466.7000 499.0200Q1465.7200 500 1464.3200 500L1464.3200 500L1452.9800 500Q1451.4400 500 1450.5300 499.0200Q1449.6200 498.0400 1449.6200 496.6400L1449.6200 496.6400L1449.6200 491.1800Q1447.8000 493.7000 1444.7200 496.0800Q1441.6400 498.4600 1437.2300 499.9300Q1432.8200 501.4000 1426.8000 501.4000ZM1431.5600 488.1000L1431.5600 488.1000Q1436.4600 488.1000 1440.4500 486Q1444.4400 483.9000 1446.7500 479.4900Q1449.0600 475.0800 1449.0600 468.3600L1449.0600 468.3600L1449.0600 465.4200L1435.0600 467.6600Q1426.8000 468.9200 1422.7400 471.7200Q1418.6800 474.5200 1418.6800 478.5800L1418.6800 478.5800Q1418.6800 481.6600 1420.5700 483.8300Q1422.4600 486 1425.4000 487.0500Q1428.3400 488.1000 1431.5600 488.1000ZM174.7800 640L162.6000 640Q161.2000 640 160.2200 639.0200Q159.2400 638.0400 159.2400 636.6400L159.2400 636.6400L159.2400 570.7000Q159.2400 569.1600 160.2200 568.1800Q161.2000 567.2000 162.6000 567.2000L162.6000 567.2000L173.9400 567.2000Q175.3400 567.2000 176.3900 568.1800Q177.4400 569.1600 177.4400 570.7000L177.4400 570.7000L177.4400 576.4400Q180.6600 571.9600 185.7700 569.5800Q190.8800 567.2000 197.6000 567.2000L197.6000 567.2000L203.3400 567.2000Q204.8800 567.2000 205.7900 568.1800Q206.7000 569.1600 206.7000 570.5600L206.7000 570.5600L206.7000 580.6400Q206.7000 582.0400 205.7900 583.0200Q204.8800 584 203.3400 584L203.3400 584L192.4200 584Q185.7000 584 181.9900 587.7100Q178.2800 591.4200 178.2800 598.1400L178.2800 598.1400L178.2800 636.6400Q178.2800 638.0400 177.3000 639.0200Q176.3200 640 174.7800 640L174.7800 640ZM248.9800 641.4000L248.9800 641.4000Q233.4400 641.4000 224.3400 632.4400Q215.2400 623.4800 214.5400 606.9600L214.5400 606.9600Q214.4000 605.5600 214.4000 603.3900Q214.4000 601.2200 214.5400 599.9600L214.5400 599.9600Q215.1000 589.3200 219.3700 581.6900Q223.6400 574.0600 231.2000 569.9300Q238.7600 565.8000 248.9800 565.8000L248.9800 565.8000Q260.3200 565.8000 268.0200 570.4900Q275.7200 575.1800 279.6400 583.5100Q283.5600 591.8400 283.5600 602.7600L283.5600 602.7600L283.5600 605.7000Q283.5600 607.1000 282.5800 608.0800Q281.6000 609.0600 280.0600 609.0600L280.0600 609.0600L233.5800 609.0600Q233.5800 609.0600 233.5800 609.4800Q233.5800 609.9000 233.5800 610.1800L233.5800 610.1800Q233.7200 615.0800 235.4700 619.2100Q237.2200 623.3400 240.6500 625.8600Q244.0800 628.3800 248.8400 628.3800L248.8400 628.3800Q252.7600 628.3800 255.4200 627.1900Q258.0800 626 259.7600 624.4600Q261.4400 622.9200 262.1400 621.9400L262.1400 621.9400Q263.4000 620.2600 264.1700 619.9100Q264.9400 619.5600 266.4800 619.5600L266.4800 619.5600L278.5200 619.5600Q279.9200 619.5600 280.8300 620.4000Q281.7400 621.2400 281.6000 622.5000L281.6000 622.5000Q281.4600 624.7400 279.2900 627.9600Q277.1200 631.1800 273.0600 634.2600Q269 637.3400 262.9100 639.3700Q256.8200 641.4000 248.9800 641.4000ZM233.5800 596.8800L233.5800 597.3000L264.5200 597.3000L264.5200 596.8800Q264.5200 591.4200 262.7000 587.2900Q260.8800 583.1600 257.3800 580.8500Q253.8800 578.5400 248.9800 578.5400L248.9800 578.5400Q244.0800 578.5400 240.5800 580.8500Q237.0800 583.1600 235.3300 587.2900Q233.5800 591.4200 233.5800 596.8800L233.5800 596.8800ZM313.5200 640L301.9000 640Q300.5000 640 299.5200 639.0200Q298.5400 638.0400 298.5400 636.6400L298.5400 636.6400L298.5400 543.9600Q298.5400 542.5600 299.5200 541.5800Q300.5000 540.6000 301.9000 540.6000L301.9000 540.6000L313.5200 540.6000Q314.9200 540.6000 315.9000 541.5800Q316.8800 542.5600 316.8800 543.9600L316.8800 543.9600L316.8800 636.6400Q316.8800 638.0400 315.9000 639.0200Q314.9200 640 313.5200 640L313.5200 640ZM356.6400 641.4000L356.6400 641.4000Q349.3600 641.4000 343.4800 638.5300Q337.6000 635.6600 334.1700 630.8300Q330.7400 626 330.7400 619.9800L330.7400 619.9800Q330.7400 610.1800 338.7200 604.3700Q346.7000 598.5600 359.5800 596.6000L359.5800 596.6000L378.7600 593.8000L378.7600 590.8600Q378.7600 584.9800 375.8200 581.7600Q372.8800 578.5400 365.7400 578.5400L365.7400 578.5400Q360.7000 578.5400 357.5500 580.5700Q354.4000 582.6000 352.8600 585.9600L352.8600 585.9600Q351.7400 587.7800 349.6400 587.7800L349.6400 587.7800L338.5800 587.7800Q337.0400 587.7800 336.2700 586.9400Q335.5000 586.1000 335.5000 584.7000L335.5000 584.7000Q335.6400 582.4600 337.3900 579.2400Q339.1400 576.0200 342.7100 573.0100Q346.2800 570 352.0200 567.9000Q357.7600 565.8000 365.8800 565.8000L365.8800 565.8000Q374.7000 565.8000 380.7900 567.9700Q386.8800 570.1400 390.5200 573.7800Q394.1600 577.4200 395.8400 582.3200Q397.5200 587.2200 397.5200 592.6800L397.5200 592.6800L397.5200 636.6400Q397.5200 638.0400 396.5400 639.0200Q395.5600 640 394.1600 640L394.1600 640L382.8200 640Q381.2800 640 380.3700 639.0200Q379.4600 638.0400 379.4600 636.6400L379.4600 636.6400L379.4600 631.1800Q377.6400 633.7000 374.5600 636.0800Q371.4800 638.4600 367.0700 639.9300Q362.6600 641.4000 356.6400 641.4000ZM361.4000 628.1000L361.4000 628.1000Q366.3000 628.1000 370.2900 626Q374.2800 623.9000 376.5900 619.4900Q378.9000 615.0800 378.9000 608.3600L378.9000 608.3600L378.9000 605.4200L364.9000 607.6600Q356.6400 608.9200 352.5800 611.7200Q348.5200 614.5200 348.5200 618.5800L348.5200 618.5800Q348.5200 621.6600 350.4100 623.8300Q352.3000 626 355.2400 627.0500Q358.1800 628.1000 361.4000 628.1000ZM446.9400 641.4000L446.9400 641.4000Q436.8600 641.4000 429.2300 637.6200Q421.6000 633.8400 417.3300 626.6300Q413.0600 619.4200 412.6400 609.2000L412.6400 609.2000Q412.5000 607.1000 412.5000 603.6700Q412.5000 600.2400 412.6400 598L412.6400 598Q413.0600 587.7800 417.3300 580.5700Q421.6000 573.3600 429.2300 569.5800Q436.8600 565.8000 446.9400 565.8000L446.9400 565.8000Q455.9000 565.8000 462.2000 568.2500Q468.5000 570.7000 472.5600 574.5500Q476.6200 578.4000 478.6500 582.5300Q480.6800 586.6600 480.8200 590.0200L480.8200 590.0200Q480.9600 591.5600 479.9100 592.4700Q478.8600 593.3800 477.4600 593.3800L477.4600 593.3800L465.1400 593.3800Q463.7400 593.3800 462.9700 592.6800Q462.2000 591.9800 461.5000 590.5800L461.5000 590.5800Q459.4000 584.9800 455.9700 582.6700Q452.5400 580.3600 447.2200 580.3600L447.2200 580.3600Q440.2200 580.3600 436.0900 584.7700Q431.9600 589.1800 431.6800 598.7000L431.6800 598.7000Q431.4000 604.0200 431.6800 608.5000L431.6800 608.5000Q431.9600 618.1600 436.0900 622.5000Q440.2200 626.8400 447.2200 626.8400L447.2200 626.8400Q452.6800 626.8400 456.0400 624.5300Q459.4000 622.2200 461.5000 616.6200L461.5000 616.6200Q462.2000 615.2200 462.9700 614.5200Q463.7400 613.8200 465.1400 613.8200L465.1400 613.8200L477.4600 613.8200Q478.8600 613.8200 479.9100 614.7300Q480.9600 615.6400 480.8200 617.1800L480.8200 617.1800Q480.6800 619.7000 479.4900 622.8500Q478.3000 626 475.7100 629.2900Q473.1200 632.5800 469.2000 635.3100Q465.2800 638.0400 459.7500 639.7200Q454.2200 641.4000 446.9400 641.4000ZM510.3600 640L498.7400 640Q497.3400 640 496.3600 639.0200Q495.3800 638.0400 495.3800 636.6400L495.3800 636.6400L495.3800 570.5600Q495.3800 569.1600 496.3600 568.1800Q497.3400 567.2000 498.7400 567.2000L498.7400 567.2000L510.3600 567.2000Q511.9000 567.2000 512.8100 568.1800Q513.7200 569.1600 513.7200 570.5600L513.7200 570.5600L513.7200 636.6400Q513.7200 638.0400 512.8100 639.0200Q511.9000 640 510.3600 640L510.3600 640ZM510.9200 555.1600L498.1800 555.1600Q496.7800 555.1600 495.8000 554.1800Q494.8200 553.2000 494.8200 551.8000L494.8200 551.8000L494.8200 541.7200Q494.8200 540.3200 495.8000 539.3400Q496.7800 538.3600 498.1800 538.3600L498.1800 538.3600L510.9200 538.3600Q512.4600 538.3600 513.4400 539.3400Q514.4200 540.3200 514.4200 541.7200L514.4200 541.7200L514.4200 551.8000Q514.4200 553.2000 513.4400 554.1800Q512.4600 555.1600 510.9200 555.1600L510.9200 555.1600ZM564.5400 641.4000L564.5400 641.4000Q553.3400 641.4000 545.7100 637.4800Q538.0800 633.5600 534.0900 626.4200Q530.1000 619.2800 529.5400 609.7600L529.5400 609.7600Q529.4000 607.2400 529.4000 603.6000Q529.4000 599.9600 529.5400 597.4400L529.5400 597.4400Q530.1000 587.7800 534.2300 580.7100Q538.3600 573.6400 545.9900 569.7200Q553.6200 565.8000 564.5400 565.8000L564.5400 565.8000Q575.4600 565.8000 583.0900 569.7200Q590.7200 573.6400 594.8500 580.7100Q598.9800 587.7800 599.5400 597.4400L599.5400 597.4400Q599.6800 599.9600 599.6800 603.6000Q599.6800 607.2400 599.5400 609.7600L599.5400 609.7600Q598.9800 619.2800 594.9900 626.4200Q591 633.5600 583.3700 637.4800Q575.7400 641.4000 564.5400 641.4000ZM564.5400 627.5400L564.5400 627.5400Q571.9600 627.5400 576.0200 622.8500Q580.0800 618.1600 580.5000 609.0600L580.5000 609.0600Q580.6400 606.9600 580.6400 603.6000Q580.6400 600.2400 580.5000 598.1400L580.5000 598.1400Q580.0800 589.0400 576.0200 584.3500Q571.9600 579.6600 564.5400 579.6600L564.5400 579.6600Q557.1200 579.6600 553.0600 584.3500Q549 589.0400 548.5800 598.1400L548.5800 598.1400Q548.4400 600.2400 548.4400 603.6000Q548.4400 606.9600 548.5800 609.0600L548.5800 609.0600Q549 618.1600 553.0600 622.8500Q557.1200 627.5400 564.5400 627.5400ZM630.9000 640L618.5800 640Q617.1800 640 616.2000 639.0200Q615.2200 638.0400 615.2200 636.6400L615.2200 636.6400L615.2200 570.5600Q615.2200 569.1600 616.2000 568.1800Q617.1800 567.2000 618.5800 567.2000L618.5800 567.2000L630.0600 567.2000Q631.4600 567.2000 632.4400 568.1800Q633.4200 569.1600 633.4200 570.5600L633.4200 570.5600L633.4200 576.3000Q637.0600 571.8200 642.7300 568.8100Q648.4000 565.8000 656.8000 565.8000L656.8000 565.8000Q665.3400 565.8000 671.6400 569.6500Q677.9400 573.5000 681.3700 580.5000Q684.8000 587.5000 684.8000 597.3000L684.8000 597.3000L684.8000 636.6400Q684.8000 638.0400 683.8200 639.0200Q682.8400 640 681.4400 640L681.4400 640L669.1200 640Q667.7200 640 666.7400 639.0200Q665.7600 638.0400 665.7600 636.6400L665.7600 636.6400L665.7600 598.1400Q665.7600 590.0200 661.7700 585.4000Q657.7800 580.7800 650.2200 580.7800L650.2200 580.7800Q642.9400 580.7800 638.6000 585.4000Q634.2600 590.0200 634.2600 598.1400L634.2600 598.1400L634.2600 636.6400Q634.2600 638.0400 633.2800 639.0200Q632.3000 640 630.9000 640L630.9000 640ZM723.7200 641.4000L723.7200 641.4000Q716.4400 641.4000 710.5600 638.5300Q704.6800 635.6600 701.2500 630.8300Q697.8200 626 697.8200 619.9800L697.8200 619.9800Q697.8200 610.1800 705.8000 604.3700Q713.7800 598.5600 726.6600 596.6000L726.6600 596.6000L745.8400 593.8000L745.8400 590.8600Q745.8400 584.9800 742.9000 581.7600Q739.9600 578.5400 732.8200 578.5400L732.8200 578.5400Q727.7800 578.5400 724.6300 580.5700Q721.4800 582.6000 719.9400 585.9600L719.9400 585.9600Q718.8200 587.7800 716.7200 587.7800L716.7200 587.7800L705.6600 587.7800Q704.1200 587.7800 703.3500 586.9400Q702.5800 586.1000 702.5800 584.7000L702.5800 584.7000Q702.7200 582.4600 704.4700 579.2400Q706.2200 576.0200 709.7900 573.0100Q713.3600 570 719.1000 567.9000Q724.8400 565.8000 732.9600 565.8000L732.9600 565.8000Q741.7800 565.8000 747.8700 567.9700Q753.9600 570.1400 757.6000 573.7800Q761.2400 577.4200 762.9200 582.3200Q764.6000 587.2200 764.6000 592.6800L764.6000 592.6800L764.6000 636.6400Q764.6000 638.0400 763.6200 639.0200Q762.6400 640 761.2400 640L761.2400 640L749.9000 640Q748.3600 640 747.4500 639.0200Q746.5400 638.0400 746.5400 636.6400L746.5400 636.6400L746.5400 631.1800Q744.7200 633.7000 741.6400 636.0800Q738.5600 638.4600 734.1500 639.9300Q729.7400 641.4000 723.7200 641.4000ZM728.4800 628.1000L728.4800 628.1000Q733.3800 628.1000 737.3700 626Q741.3600 623.9000 743.6700 619.4900Q745.9800 615.0800 745.9800 608.3600L745.9800 608.3600L745.9800 605.4200L731.9800 607.6600Q723.7200 608.9200 719.6600 611.7200Q715.6000 614.5200 715.6000 618.5800L715.6000 618.5800Q715.6000 621.6600 717.4900 623.8300Q719.3800 626 722.3200 627.0500Q725.2600 628.1000 728.4800 628.1000ZM797.6400 640L785.8800 640Q784.4800 640 783.5000 639.0200Q782.5200 638.0400 782.5200 636.6400L782.5200 636.6400L782.5200 570.5600Q782.5200 569.1600 783.5000 568.1800Q784.4800 567.2000 785.8800 567.2000L785.8800 567.2000L796.8000 567.2000Q798.2000 567.2000 799.1800 568.1800Q800.1600 569.1600 800.1600 570.5600L800.1600 570.5600L800.1600 575.3200Q803.1000 571.4000 808.0700 568.6700Q813.0400 565.9400 819.9000 565.8000L819.9000 565.8000Q835.8600 565.5200 842.1600 578.2600L842.1600 578.2600Q845.3800 572.6600 851.4700 569.2300Q857.5600 565.8000 864.9800 565.8000L864.9800 565.8000Q872.2600 565.8000 878.2100 569.1600Q884.1600 572.5200 887.5900 579.3100Q891.0200 586.1000 891.0200 596.4600L891.0200 596.4600L891.0200 636.6400Q891.0200 638.0400 890.0400 639.0200Q889.0600 640 887.6600 640L887.6600 640L876.1800 640Q874.7800 640 873.8000 639.0200Q872.8200 638.0400 872.8200 636.6400L872.8200 636.6400L872.8200 597.5800Q872.8200 591.2800 871.0000 587.5700Q869.1800 583.8600 866.1000 582.3200Q863.0200 580.7800 859.2400 580.7800L859.2400 580.7800Q856.1600 580.7800 853.0800 582.3200Q850.0000 583.8600 848.0400 587.5700Q846.0800 591.2800 846.0800 597.5800L846.0800 597.5800L846.0800 636.6400Q846.0800 638.0400 845.1000 639.0200Q844.1200 640 842.7200 640L842.7200 640L831.2400 640Q829.8400 640 828.8600 639.0200Q827.8800 638.0400 827.8800 636.6400L827.8800 636.6400L827.8800 597.5800Q827.8800 591.2800 825.9200 587.5700Q823.9600 583.8600 820.8800 582.3200Q817.8000 580.7800 814.3000 580.7800L814.3000 580.7800Q811.0800 580.7800 808.0000 582.3900Q804.9200 584 802.9600 587.6400Q801.0000 591.2800 801.0000 597.5800L801.0000 597.5800L801.0000 636.6400Q801.0000 638.0400 800.0200 639.0200Q799.0400 640 797.6400 640L797.6400 640ZM940.1600 641.4000L940.1600 641.4000Q924.6200 641.4000 915.5200 632.4400Q906.4200 623.4800 905.7200 606.9600L905.7200 606.9600Q905.5800 605.5600 905.5800 603.3900Q905.5800 601.2200 905.7200 599.9600L905.7200 599.9600Q906.2800 589.3200 910.5500 581.6900Q914.8200 574.0600 922.3800 569.9300Q929.9400 565.8000 940.1600 565.8000L940.1600 565.8000Q951.5000 565.8000 959.2000 570.4900Q966.9000 575.1800 970.8200 583.5100Q974.7400 591.8400 974.7400 602.7600L974.7400 602.7600L974.7400 605.7000Q974.7400 607.1000 973.7600 608.0800Q972.7800 609.0600 971.2400 609.0600L971.2400 609.0600L924.7600 609.0600Q924.7600 609.0600 924.7600 609.4800Q924.7600 609.9000 924.7600 610.1800L924.7600 610.1800Q924.9000 615.0800 926.6500 619.2100Q928.4000 623.3400 931.8300 625.8600Q935.2600 628.3800 940.0200 628.3800L940.0200 628.3800Q943.9400 628.3800 946.6000 627.1900Q949.2600 626 950.9400 624.4600Q952.6200 622.9200 953.3200 621.9400L953.3200 621.9400Q954.5800 620.2600 955.3500 619.9100Q956.1200 619.5600 957.6600 619.5600L957.6600 619.5600L969.7000 619.5600Q971.1000 619.5600 972.0100 620.4000Q972.9200 621.2400 972.7800 622.5000L972.7800 622.5000Q972.6400 624.7400 970.4700 627.9600Q968.3000 631.1800 964.2400 634.2600Q960.1800 637.3400 954.0900 639.3700Q948.0000 641.4000 940.1600 641.4000ZM924.7600 596.8800L924.7600 597.3000L955.7000 597.3000L955.7000 596.8800Q955.7000 591.4200 953.8800 587.2900Q952.0600 583.1600 948.5600 580.8500Q945.0600 578.5400 940.1600 578.5400L940.1600 578.5400Q935.2600 578.5400 931.7600 580.8500Q928.2600 583.1600 926.5100 587.2900Q924.7600 591.4200 924.7600 596.8800L924.7600 596.8800ZM1005.2600 640L992.9400 640Q991.5400 640 990.5600 639.0200Q989.5800 638.0400 989.5800 636.6400L989.5800 636.6400L989.5800 570.5600Q989.5800 569.1600 990.5600 568.1800Q991.5400 567.2000 992.9400 567.2000L992.9400 567.2000L1004.4200 567.2000Q1005.8200 567.2000 1006.8000 568.1800Q1007.7800 569.1600 1007.7800 570.5600L1007.7800 570.5600L1007.7800 576.3000Q1011.4200 571.8200 1017.0900 568.8100Q1022.7600 565.8000 1031.1600 565.8000L1031.1600 565.8000Q1039.7000 565.8000 1046 569.6500Q1052.3000 573.5000 1055.7300 580.5000Q1059.1600 587.5000 1059.1600 597.3000L1059.1600 597.3000L1059.1600 636.6400Q1059.1600 638.0400 1058.1800 639.0200Q1057.2000 640 1055.8000 640L1055.8000 640L1043.4800 640Q1042.0800 640 1041.1000 639.0200Q1040.1200 638.0400 1040.1200 636.6400L1040.1200 636.6400L1040.1200 598.1400Q1040.1200 590.0200 1036.1300 585.4000Q1032.1400 580.7800 1024.5800 580.7800L1024.5800 580.7800Q1017.3000 580.7800 1012.9600 585.4000Q1008.6200 590.0200 1008.6200 598.1400L1008.6200 598.1400L1008.6200 636.6400Q1008.6200 638.0400 1007.6400 639.0200Q1006.6600 640 1005.2600 640L1005.2600 640ZM1121.1800 640L1109.8400 640Q1101.4400 640 1095.7000 637.0600Q1089.9600 634.1200 1087.1600 628.3100Q1084.3600 622.5000 1084.3600 613.8200L1084.3600 613.8200L1084.3600 582.0400L1073.3000 582.0400Q1071.9000 582.0400 1070.9200 581.0600Q1069.9400 580.0800 1069.9400 578.5400L1069.9400 578.5400L1069.9400 570.5600Q1069.9400 569.1600 1070.9200 568.1800Q1071.9000 567.2000 1073.3000 567.2000L1073.3000 567.2000L1084.3600 567.2000L1084.3600 543.9600Q1084.3600 542.5600 1085.2700 541.5800Q1086.1800 540.6000 1087.7200 540.6000L1087.7200 540.6000L1099.0600 540.6000Q1100.4600 540.6000 1101.4400 541.5800Q1102.4200 542.5600 1102.4200 543.9600L1102.4200 543.9600L1102.4200 567.2000L1119.9200 567.2000Q1121.3200 567.2000 1122.3000 568.1800Q1123.2800 569.1600 1123.2800 570.5600L1123.2800 570.5600L1123.2800 578.5400Q1123.2800 580.0800 1122.3000 581.0600Q1121.3200 582.0400 1119.9200 582.0400L1119.9200 582.0400L1102.4200 582.0400L1102.4200 612.4200Q1102.4200 618.1600 1104.4500 621.3800Q1106.4800 624.6000 1111.5200 624.6000L1111.5200 624.6000L1121.1800 624.6000Q1122.5800 624.6000 1123.5600 625.5800Q1124.5400 626.5600 1124.5400 627.9600L1124.5400 627.9600L1124.5400 636.6400Q1124.5400 638.0400 1123.5600 639.0200Q1122.5800 640 1121.1800 640L1121.1800 640ZM1169.2000 641.4000L1169.2000 641.4000Q1158 641.4000 1150.3700 637.4800Q1142.7400 633.5600 1138.7500 626.4200Q1134.7600 619.2800 1134.2000 609.7600L1134.2000 609.7600Q1134.0600 607.2400 1134.0600 603.6000Q1134.0600 599.9600 1134.2000 597.4400L1134.2000 597.4400Q1134.7600 587.7800 1138.8900 580.7100Q1143.0200 573.6400 1150.6500 569.7200Q1158.2800 565.8000 1169.2000 565.8000L1169.2000 565.8000Q1180.1200 565.8000 1187.7500 569.7200Q1195.3800 573.6400 1199.5100 580.7100Q1203.6400 587.7800 1204.2000 597.4400L1204.2000 597.4400Q1204.3400 599.9600 1204.3400 603.6000Q1204.3400 607.2400 1204.2000 609.7600L1204.2000 609.7600Q1203.6400 619.2800 1199.6500 626.4200Q1195.6600 633.5600 1188.0300 637.4800Q1180.4000 641.4000 1169.2000 641.4000ZM1169.2000 627.5400L1169.2000 627.5400Q1176.6200 627.5400 1180.6800 622.8500Q1184.7400 618.1600 1185.1600 609.0600L1185.1600 609.0600Q1185.3000 606.9600 1185.3000 603.6000Q1185.3000 600.2400 1185.1600 598.1400L1185.1600 598.1400Q1184.7400 589.0400 1180.6800 584.3500Q1176.6200 579.6600 1169.2000 579.6600L1169.2000 579.6600Q1161.7800 579.6600 1157.7200 584.3500Q1153.6600 589.0400 1153.2400 598.1400L1153.2400 598.1400Q1153.1000 600.2400 1153.1000 603.6000Q1153.1000 606.9600 1153.2400 609.0600L1153.2400 609.0600Q1153.6600 618.1600 1157.7200 622.8500Q1161.7800 627.5400 1169.2000 627.5400ZM1247.4600 641.4000L1247.4600 641.4000Q1239.0600 641.4000 1233.1100 639.4400Q1227.1600 637.4800 1223.3800 634.5400Q1219.6000 631.6000 1217.7800 628.6600Q1215.9600 625.7200 1215.8200 623.7600L1215.8200 623.7600Q1215.6800 622.2200 1216.7300 621.3100Q1217.7800 620.4000 1219.0400 620.4000L1219.0400 620.4000L1230.1000 620.4000Q1230.6600 620.4000 1231.0800 620.5400Q1231.5000 620.6800 1232.2000 621.3800L1232.2000 621.3800Q1234.0200 622.9200 1236.0500 624.6000Q1238.0800 626.2800 1240.8800 627.4700Q1243.6800 628.6600 1247.8800 628.6600L1247.8800 628.6600Q1253.3400 628.6600 1257.0500 626.4900Q1260.7600 624.3200 1260.7600 620.2600L1260.7600 620.2600Q1260.7600 617.3200 1259.1500 615.5000Q1257.5400 613.6800 1253.2000 612.2100Q1248.8600 610.7400 1240.8800 609.0600L1240.8800 609.0600Q1233.0400 607.2400 1227.8600 604.4400Q1222.6800 601.6400 1220.1600 597.4400Q1217.6400 593.2400 1217.6400 587.6400L1217.6400 587.6400Q1217.6400 582.1800 1220.9300 577.2100Q1224.2200 572.2400 1230.7300 569.0200Q1237.2400 565.8000 1246.9000 565.8000L1246.9000 565.8000Q1254.4600 565.8000 1260.0600 567.6900Q1265.6600 569.5800 1269.3700 572.3800Q1273.0800 575.1800 1275.0400 578.0500Q1277 580.9200 1277.1400 583.0200L1277.1400 583.0200Q1277.2800 584.5600 1276.3000 585.4700Q1275.3200 586.3800 1274.0600 586.3800L1274.0600 586.3800L1263.7000 586.3800Q1263 586.3800 1262.4400 586.1000Q1261.8800 585.8200 1261.3200 585.4000L1261.3200 585.4000Q1259.7800 584 1257.9600 582.3900Q1256.1400 580.7800 1253.5500 579.6600Q1250.9600 578.5400 1246.7600 578.5400L1246.7600 578.5400Q1241.4400 578.5400 1238.6400 580.8500Q1235.8400 583.1600 1235.8400 586.6600L1235.8400 586.6600Q1235.8400 589.0400 1237.1700 590.7900Q1238.5000 592.5400 1242.5600 594.0800Q1246.6200 595.6200 1254.8800 597.3000L1254.8800 597.3000Q1264.2600 598.9800 1269.7900 602.2700Q1275.3200 605.5600 1277.6300 609.8300Q1279.9400 614.1000 1279.9400 619.2800L1279.9400 619.2800Q1279.9400 625.5800 1276.2300 630.6200Q1272.5200 635.6600 1265.3100 638.5300Q1258.1000 641.4000 1247.4600 641.4000ZM190.6000 781.4000L190.6000 781.4000Q175.0600 781.4000 165.9600 772.4400Q156.8600 763.4800 156.1600 746.9600L156.1600 746.9600Q156.0200 745.5600 156.0200 743.3900Q156.0200 741.2200 156.1600 739.9600L156.1600 739.9600Q156.7200 729.3200 160.9900 721.6900Q165.2600 714.0600 172.8200 709.9300Q180.3800 705.8000 190.6000 705.8000L190.6000 705.8000Q201.9400 705.8000 209.6400 710.4900Q217.3400 715.1800 221.2600 723.5100Q225.1800 731.8400 225.1800 742.7600L225.1800 742.7600L225.1800 745.7000Q225.1800 747.1000 224.2000 748.0800Q223.2200 749.0600 221.6800 749.0600L221.6800 749.0600L175.2000 749.0600Q175.2000 749.0600 175.2000 749.4800Q175.2000 749.9000 175.2000 750.1800L175.2000 750.1800Q175.3400 755.0800 177.0900 759.2100Q178.8400 763.3400 182.2700 765.8600Q185.7000 768.3800 190.4600 768.3800L190.4600 768.3800Q194.3800 768.3800 197.0400 767.1900Q199.7000 766 201.3800 764.4600Q203.0600 762.9200 203.7600 761.9400L203.7600 761.9400Q205.0200 760.2600 205.7900 759.9100Q206.5600 759.5600 208.1000 759.5600L208.1000 759.5600L220.1400 759.5600Q221.5400 759.5600 222.4500 760.4000Q223.3600 761.2400 223.2200 762.5000L223.2200 762.5000Q223.0800 764.7400 220.9100 767.9600Q218.7400 771.1800 214.6800 774.2600Q210.6200 777.3400 204.5300 779.3700Q198.4400 781.4000 190.6000 781.4000ZM175.2000 736.8800L175.2000 737.3000L206.1400 737.3000L206.1400 736.8800Q206.1400 731.4200 204.3200 727.2900Q202.5000 723.1600 199 720.8500Q195.5000 718.5400 190.6000 718.5400L190.6000 718.5400Q185.7000 718.5400 182.2000 720.8500Q178.7000 723.1600 176.9500 727.2900Q175.2000 731.4200 175.2000 736.8800L175.2000 736.8800ZM255.7000 780L243.3800 780Q241.9800 780 241 779.0200Q240.0200 778.0400 240.0200 776.6400L240.0200 776.6400L240.0200 710.5600Q240.0200 709.1600 241 708.1800Q241.9800 707.2000 243.3800 707.2000L243.3800 707.2000L254.8600 707.2000Q256.2600 707.2000 257.2400 708.1800Q258.2200 709.1600 258.2200 710.5600L258.2200 710.5600L258.2200 716.3000Q261.8600 711.8200 267.5300 708.8100Q273.2000 705.8000 281.6000 705.8000L281.6000 705.8000Q290.1400 705.8000 296.4400 709.6500Q302.7400 713.5000 306.1700 720.5000Q309.6000 727.5000 309.6000 737.3000L309.6000 737.3000L309.6000 776.6400Q309.6000 778.0400 308.6200 779.0200Q307.6400 780 306.2400 780L306.2400 780L293.9200 780Q292.5200 780 291.5400 779.0200Q290.5600 778.0400 290.5600 776.6400L290.5600 776.6400L290.5600 738.1400Q290.5600 730.0200 286.5700 725.4000Q282.5800 720.7800 275.0200 720.7800L275.0200 720.7800Q267.7400 720.7800 263.4000 725.4000Q259.0600 730.0200 259.0600 738.1400L259.0600 738.1400L259.0600 776.6400Q259.0600 778.0400 258.0800 779.0200Q257.1000 780 255.7000 780L255.7000 780ZM371.6200 780L360.2800 780Q351.8800 780 346.1400 777.0600Q340.4000 774.1200 337.6000 768.3100Q334.8000 762.5000 334.8000 753.8200L334.8000 753.8200L334.8000 722.0400L323.7400 722.0400Q322.3400 722.0400 321.3600 721.0600Q320.3800 720.0800 320.3800 718.5400L320.3800 718.5400L320.3800 710.5600Q320.3800 709.1600 321.3600 708.1800Q322.3400 707.2000 323.7400 707.2000L323.7400 707.2000L334.8000 707.2000L334.8000 683.9600Q334.8000 682.5600 335.7100 681.5800Q336.6200 680.6000 338.1600 680.6000L338.1600 680.6000L349.5000 680.6000Q350.9000 680.6000 351.8800 681.5800Q352.8600 682.5600 352.8600 683.9600L352.8600 683.9600L352.8600 707.2000L370.3600 707.2000Q371.7600 707.2000 372.7400 708.1800Q373.7200 709.1600 373.7200 710.5600L373.7200 710.5600L373.7200 718.5400Q373.7200 720.0800 372.7400 721.0600Q371.7600 722.0400 370.3600 722.0400L370.3600 722.0400L352.8600 722.0400L352.8600 752.4200Q352.8600 758.1600 354.8900 761.3800Q356.9200 764.6000 361.9600 764.6000L361.9600 764.6000L371.6200 764.6000Q373.0200 764.6000 374 765.5800Q374.9800 766.5600 374.9800 767.9600L374.9800 767.9600L374.9800 776.6400Q374.9800 778.0400 374 779.0200Q373.0200 780 371.6200 780L371.6200 780ZM402.9800 780L390.8000 780Q389.4000 780 388.4200 779.0200Q387.4400 778.0400 387.4400 776.6400L387.4400 776.6400L387.4400 710.7000Q387.4400 709.1600 388.4200 708.1800Q389.4000 707.2000 390.8000 707.2000L390.8000 707.2000L402.1400 707.2000Q403.5400 707.2000 404.5900 708.1800Q405.6400 709.1600 405.6400 710.7000L405.6400 710.7000L405.6400 716.4400Q408.8600 711.9600 413.9700 709.5800Q419.0800 707.2000 425.8000 707.2000L425.8000 707.2000L431.5400 707.2000Q433.0800 707.2000 433.9900 708.1800Q434.9000 709.1600 434.9000 710.5600L434.9000 710.5600L434.9000 720.6400Q434.9000 722.0400 433.9900 723.0200Q433.0800 724 431.5400 724L431.5400 724L420.6200 724Q413.9000 724 410.1900 727.7100Q406.4800 731.4200 406.4800 738.1400L406.4800 738.1400L406.4800 776.6400Q406.4800 778.0400 405.5000 779.0200Q404.5200 780 402.9800 780L402.9800 780ZM477.1800 781.4000L477.1800 781.4000Q461.6400 781.4000 452.5400 772.4400Q443.4400 763.4800 442.7400 746.9600L442.7400 746.9600Q442.6000 745.5600 442.6000 743.3900Q442.6000 741.2200 442.7400 739.9600L442.7400 739.9600Q443.3000 729.3200 447.5700 721.6900Q451.8400 714.0600 459.4000 709.9300Q466.9600 705.8000 477.1800 705.8000L477.1800 705.8000Q488.5200 705.8000 496.2200 710.4900Q503.9200 715.1800 507.8400 723.5100Q511.7600 731.8400 511.7600 742.7600L511.7600 742.7600L511.7600 745.7000Q511.7600 747.1000 510.7800 748.0800Q509.8000 749.0600 508.2600 749.0600L508.2600 749.0600L461.7800 749.0600Q461.7800 749.0600 461.7800 749.4800Q461.7800 749.9000 461.7800 750.1800L461.7800 750.1800Q461.9200 755.0800 463.6700 759.2100Q465.4200 763.3400 468.8500 765.8600Q472.2800 768.3800 477.0400 768.3800L477.0400 768.3800Q480.9600 768.3800 483.6200 767.1900Q486.2800 766 487.9600 764.4600Q489.6400 762.9200 490.3400 761.9400L490.3400 761.9400Q491.6000 760.2600 492.3700 759.9100Q493.1400 759.5600 494.6800 759.5600L494.6800 759.5600L506.7200 759.5600Q508.1200 759.5600 509.0300 760.4000Q509.9400 761.2400 509.8000 762.5000L509.8000 762.5000Q509.6600 764.7400 507.4900 767.9600Q505.3200 771.1800 501.2600 774.2600Q497.2000 777.3400 491.1100 779.3700Q485.0200 781.4000 477.1800 781.4000ZM461.7800 736.8800L461.7800 737.3000L492.7200 737.3000L492.7200 736.8800Q492.7200 731.4200 490.9000 727.2900Q489.0800 723.1600 485.5800 720.8500Q482.0800 718.5400 477.1800 718.5400L477.1800 718.5400Q472.2800 718.5400 468.7800 720.8500Q465.2800 723.1600 463.5300 727.2900Q461.7800 731.4200 461.7800 736.8800L461.7800 736.8800ZM602.9000 780L591.5600 780Q583.1600 780 577.4200 777.0600Q571.6800 774.1200 568.8800 768.3100Q566.0800 762.5000 566.0800 753.8200L566.0800 753.8200L566.0800 722.0400L555.0200 722.0400Q553.6200 722.0400 552.6400 721.0600Q551.6600 720.0800 551.6600 718.5400L551.6600 718.5400L551.6600 710.5600Q551.6600 709.1600 552.6400 708.1800Q553.6200 707.2000 555.0200 707.2000L555.0200 707.2000L566.0800 707.2000L566.0800 683.9600Q566.0800 682.5600 566.9900 681.5800Q567.9000 680.6000 569.4400 680.6000L569.4400 680.6000L580.7800 680.6000Q582.1800 680.6000 583.1600 681.5800Q584.1400 682.5600 584.1400 683.9600L584.1400 683.9600L584.1400 707.2000L601.6400 707.2000Q603.0400 707.2000 604.0200 708.1800Q605.0000 709.1600 605.0000 710.5600L605.0000 710.5600L605.0000 718.5400Q605.0000 720.0800 604.0200 721.0600Q603.0400 722.0400 601.6400 722.0400L601.6400 722.0400L584.1400 722.0400L584.1400 752.4200Q584.1400 758.1600 586.1700 761.3800Q588.2000 764.6000 593.2400 764.6000L593.2400 764.6000L602.9000 764.6000Q604.3000 764.6000 605.2800 765.5800Q606.2600 766.5600 606.2600 767.9600L606.2600 767.9600L606.2600 776.6400Q606.2600 778.0400 605.2800 779.0200Q604.3000 780 602.9000 780L602.9000 780ZM639.8600 781.4000L639.8600 781.4000Q632.5800 781.4000 626.7000 778.5300Q620.8200 775.6600 617.3900 770.8300Q613.9600 766 613.9600 759.9800L613.9600 759.9800Q613.9600 750.1800 621.9400 744.3700Q629.9200 738.5600 642.8000 736.6000L642.8000 736.6000L661.9800 733.8000L661.9800 730.8600Q661.9800 724.9800 659.0400 721.7600Q656.1000 718.5400 648.9600 718.5400L648.9600 718.5400Q643.9200 718.5400 640.7700 720.5700Q637.6200 722.6000 636.0800 725.9600L636.0800 725.9600Q634.9600 727.7800 632.8600 727.7800L632.8600 727.7800L621.8000 727.7800Q620.2600 727.7800 619.4900 726.9400Q618.7200 726.1000 618.7200 724.7000L618.7200 724.7000Q618.8600 722.4600 620.6100 719.2400Q622.3600 716.0200 625.9300 713.0100Q629.5000 710 635.2400 707.9000Q640.9800 705.8000 649.1000 705.8000L649.1000 705.8000Q657.9200 705.8000 664.0100 707.9700Q670.1000 710.1400 673.7400 713.7800Q677.3800 717.4200 679.0600 722.3200Q680.7400 727.2200 680.7400 732.6800L680.7400 732.6800L680.7400 776.6400Q680.7400 778.0400 679.7600 779.0200Q678.7800 780 677.3800 780L677.3800 780L666.0400 780Q664.5000 780 663.5900 779.0200Q662.6800 778.0400 662.6800 776.6400L662.6800 776.6400L662.6800 771.1800Q660.8600 773.7000 657.7800 776.0800Q654.7000 778.4600 650.2900 779.9300Q645.8800 781.4000 639.8600 781.4000ZM644.6200 768.1000L644.6200 768.1000Q649.5200 768.1000 653.5100 766Q657.5000 763.9000 659.8100 759.4900Q662.1200 755.0800 662.1200 748.3600L662.1200 748.3600L662.1200 745.4200L648.1200 747.6600Q639.8600 748.9200 635.8000 751.7200Q631.7400 754.5200 631.7400 758.5800L631.7400 758.5800Q631.7400 761.6600 633.6300 763.8300Q635.5200 766 638.4600 767.0500Q641.4000 768.1000 644.6200 768.1000ZM738.9800 781.4000L738.9800 781.4000Q730.8600 781.4000 725.4700 778.6000Q720.0800 775.8000 716.5800 771.4600L716.5800 771.4600L716.5800 776.6400Q716.5800 778.0400 715.6700 779.0200Q714.7600 780 713.2200 780L713.2200 780L702.1600 780Q700.7600 780 699.7800 779.0200Q698.8000 778.0400 698.8000 776.6400L698.8000 776.6400L698.8000 683.9600Q698.8000 682.5600 699.7800 681.5800Q700.7600 680.6000 702.1600 680.6000L702.1600 680.6000L714.0600 680.6000Q715.6000 680.6000 716.5100 681.5800Q717.4200 682.5600 717.4200 683.9600L717.4200 683.9600L717.4200 715.0400Q720.9200 710.9800 726.1700 708.3900Q731.4200 705.8000 738.9800 705.8000L738.9800 705.8000Q746.4000 705.8000 751.8600 708.3200Q757.3200 710.8400 761.0300 715.3900Q764.7400 719.9400 766.7000 725.9600Q768.6600 731.9800 768.8000 738.9800L768.8000 738.9800Q768.9400 741.5000 768.9400 743.5300Q768.9400 745.5600 768.8000 748.0800L768.8000 748.0800Q768.5200 755.3600 766.5600 761.4500Q764.6000 767.5400 760.9600 772.0200Q757.3200 776.5000 751.8600 778.9500Q746.4000 781.4000 738.9800 781.4000ZM733.8000 766.4200L733.8000 766.4200Q739.8200 766.4200 743.1800 763.8300Q746.5400 761.2400 748.0800 757.0400Q749.6200 752.8400 749.9000 747.8000L749.9000 747.8000Q750.0400 743.6000 749.9000 739.4000L749.9000 739.4000Q749.6200 734.3600 748.0800 730.1600Q746.5400 725.9600 743.1800 723.3700Q739.8200 720.7800 733.8000 720.7800L733.8000 720.7800Q728.2000 720.7800 724.7000 723.3000Q721.2000 725.8200 719.3800 729.6700Q717.5600 733.5200 717.4200 737.7200L717.4200 737.7200Q717.2800 740.2400 717.2800 743.1100Q717.2800 745.9800 717.4200 748.5000L717.4200 748.5000Q717.7000 752.8400 719.3100 756.9700Q720.9200 761.1000 724.4900 763.7600Q728.0600 766.4200 733.8000 766.4200ZM815.8400 781.4000L815.8400 781.4000Q800.3000 781.4000 791.2000 772.4400Q782.1000 763.4800 781.4000 746.9600L781.4000 746.9600Q781.2600 745.5600 781.2600 743.3900Q781.2600 741.2200 781.4000 739.9600L781.4000 739.9600Q781.9600 729.3200 786.2300 721.6900Q790.5000 714.0600 798.0600 709.9300Q805.6200 705.8000 815.8400 705.8000L815.8400 705.8000Q827.1800 705.8000 834.8800 710.4900Q842.5800 715.1800 846.5000 723.5100Q850.4200 731.8400 850.4200 742.7600L850.4200 742.7600L850.4200 745.7000Q850.4200 747.1000 849.4400 748.0800Q848.4600 749.0600 846.9200 749.0600L846.9200 749.0600L800.4400 749.0600Q800.4400 749.0600 800.4400 749.4800Q800.4400 749.9000 800.4400 750.1800L800.4400 750.1800Q800.5800 755.0800 802.3300 759.2100Q804.0800 763.3400 807.5100 765.8600Q810.9400 768.3800 815.7000 768.3800L815.7000 768.3800Q819.6200 768.3800 822.2800 767.1900Q824.9400 766 826.6200 764.4600Q828.3000 762.9200 829.0000 761.9400L829.0000 761.9400Q830.2600 760.2600 831.0300 759.9100Q831.8000 759.5600 833.3400 759.5600L833.3400 759.5600L845.3800 759.5600Q846.7800 759.5600 847.6900 760.4000Q848.6000 761.2400 848.4600 762.5000L848.4600 762.5000Q848.3200 764.7400 846.1500 767.9600Q843.9800 771.1800 839.9200 774.2600Q835.8600 777.3400 829.7700 779.3700Q823.6800 781.4000 815.8400 781.4000ZM800.4400 736.8800L800.4400 737.3000L831.3800 737.3000L831.3800 736.8800Q831.3800 731.4200 829.5600 727.2900Q827.7400 723.1600 824.2400 720.8500Q820.7400 718.5400 815.8400 718.5400L815.8400 718.5400Q810.9400 718.5400 807.4400 720.8500Q803.9400 723.1600 802.1900 727.2900Q800.4400 731.4200 800.4400 736.8800L800.4400 736.8800ZM880.3800 780L868.7600 780Q867.3600 780 866.3800 779.0200Q865.4000 778.0400 865.4000 776.6400L865.4000 776.6400L865.4000 683.9600Q865.4000 682.5600 866.3800 681.5800Q867.3600 680.6000 868.7600 680.6000L868.7600 680.6000L880.3800 680.6000Q881.7800 680.6000 882.7600 681.5800Q883.7400 682.5600 883.7400 683.9600L883.7400 683.9600L883.7400 776.6400Q883.7400 778.0400 882.7600 779.0200Q881.7800 780 880.3800 780L880.3800 780ZM923.5000 781.4000L923.5000 781.4000Q916.2200 781.4000 910.3400 778.5300Q904.4600 775.6600 901.0300 770.8300Q897.6000 766 897.6000 759.9800L897.6000 759.9800Q897.6000 750.1800 905.5800 744.3700Q913.5600 738.5600 926.4400 736.6000L926.4400 736.6000L945.6200 733.8000L945.6200 730.8600Q945.6200 724.9800 942.6800 721.7600Q939.7400 718.5400 932.6000 718.5400L932.6000 718.5400Q927.5600 718.5400 924.4100 720.5700Q921.2600 722.6000 919.7200 725.9600L919.7200 725.9600Q918.6000 727.7800 916.5000 727.7800L916.5000 727.7800L905.4400 727.7800Q903.9000 727.7800 903.1300 726.9400Q902.3600 726.1000 902.3600 724.7000L902.3600 724.7000Q902.5000 722.4600 904.2500 719.2400Q906.0000 716.0200 909.5700 713.0100Q913.1400 710 918.8800 707.9000Q924.6200 705.8000 932.7400 705.8000L932.7400 705.8000Q941.5600 705.8000 947.6500 707.9700Q953.7400 710.1400 957.3800 713.7800Q961.0200 717.4200 962.7000 722.3200Q964.3800 727.2200 964.3800 732.6800L964.3800 732.6800L964.3800 776.6400Q964.3800 778.0400 963.4000 779.0200Q962.4200 780 961.0200 780L961.0200 780L949.6800 780Q948.1400 780 947.2300 779.0200Q946.3200 778.0400 946.3200 776.6400L946.3200 776.6400L946.3200 771.1800Q944.5000 773.7000 941.4200 776.0800Q938.3400 778.4600 933.9300 779.9300Q929.5200 781.4000 923.5000 781.4000ZM928.2600 768.1000L928.2600 768.1000Q933.1600 768.1000 937.1500 766Q941.1400 763.9000 943.4500 759.4900Q945.7600 755.0800 945.7600 748.3600L945.7600 748.3600L945.7600 745.4200L931.7600 747.6600Q923.5000 748.9200 919.4400 751.7200Q915.3800 754.5200 915.3800 758.5800L915.3800 758.5800Q915.3800 761.6600 917.2700 763.8300Q919.1600 766 922.1000 767.0500Q925.0400 768.1000 928.2600 768.1000ZM1009.8800 781.4000L1009.8800 781.4000Q1001.4800 781.4000 995.5300 779.4400Q989.5800 777.4800 985.8000 774.5400Q982.0200 771.6000 980.2000 768.6600Q978.3800 765.7200 978.2400 763.7600L978.2400 763.7600Q978.1000 762.2200 979.1500 761.3100Q980.2000 760.4000 981.4600 760.4000L981.4600 760.4000L992.5200 760.4000Q993.0800 760.4000 993.5000 760.5400Q993.9200 760.6800 994.6200 761.3800L994.6200 761.3800Q996.4400 762.9200 998.4700 764.6000Q1000.5000 766.2800 1003.3000 767.4700Q1006.1000 768.6600 1010.3000 768.6600L1010.3000 768.6600Q1015.7600 768.6600 1019.4700 766.4900Q1023.1800 764.3200 1023.1800 760.2600L1023.1800 760.2600Q1023.1800 757.3200 1021.5700 755.5000Q1019.9600 753.6800 1015.6200 752.2100Q1011.2800 750.7400 1003.3000 749.0600L1003.3000 749.0600Q995.4600 747.2400 990.2800 744.4400Q985.1000 741.6400 982.5800 737.4400Q980.0600 733.2400 980.0600 727.6400L980.0600 727.6400Q980.0600 722.1800 983.3500 717.2100Q986.6400 712.2400 993.1500 709.0200Q999.6600 705.8000 1009.3200 705.8000L1009.3200 705.8000Q1016.8800 705.8000 1022.4800 707.6900Q1028.0800 709.5800 1031.7900 712.3800Q1035.5000 715.1800 1037.4600 718.0500Q1039.4200 720.9200 1039.5600 723.0200L1039.5600 723.0200Q1039.7000 724.5600 1038.7200 725.4700Q1037.7400 726.3800 1036.4800 726.3800L1036.4800 726.3800L1026.1200 726.3800Q1025.4200 726.3800 1024.8600 726.1000Q1024.3000 725.8200 1023.7400 725.4000L1023.7400 725.4000Q1022.2000 724 1020.3800 722.3900Q1018.5600 720.7800 1015.9700 719.6600Q1013.3800 718.5400 1009.1800 718.5400L1009.1800 718.5400Q1003.8600 718.5400 1001.0600 720.8500Q998.2600 723.1600 998.2600 726.6600L998.2600 726.6600Q998.2600 729.0400 999.5900 730.7900Q1000.9200 732.5400 1004.9800 734.0800Q1009.0400 735.6200 1017.3000 737.3000L1017.3000 737.3000Q1026.6800 738.9800 1032.2100 742.2700Q1037.7400 745.5600 1040.0500 749.8300Q1042.3600 754.1000 1042.3600 759.2800L1042.3600 759.2800Q1042.3600 765.5800 1038.6500 770.6200Q1034.9400 775.6600 1027.7300 778.5300Q1020.5200 781.4000 1009.8800 781.4000ZM1120.2000 781.4000L1120.2000 781.4000Q1104.6600 781.4000 1095.5600 772.4400Q1086.4600 763.4800 1085.7600 746.9600L1085.7600 746.9600Q1085.6200 745.5600 1085.6200 743.3900Q1085.6200 741.2200 1085.7600 739.9600L1085.7600 739.9600Q1086.3200 729.3200 1090.5900 721.6900Q1094.8600 714.0600 1102.4200 709.9300Q1109.9800 705.8000 1120.2000 705.8000L1120.2000 705.8000Q1131.5400 705.8000 1139.2400 710.4900Q1146.9400 715.1800 1150.8600 723.5100Q1154.7800 731.8400 1154.7800 742.7600L1154.7800 742.7600L1154.7800 745.7000Q1154.7800 747.1000 1153.8000 748.0800Q1152.8200 749.0600 1151.2800 749.0600L1151.2800 749.0600L1104.8000 749.0600Q1104.8000 749.0600 1104.8000 749.4800Q1104.8000 749.9000 1104.8000 750.1800L1104.8000 750.1800Q1104.9400 755.0800 1106.6900 759.2100Q1108.4400 763.3400 1111.8700 765.8600Q1115.3000 768.3800 1120.0600 768.3800L1120.0600 768.3800Q1123.9800 768.3800 1126.6400 767.1900Q1129.3000 766 1130.9800 764.4600Q1132.6600 762.9200 1133.3600 761.9400L1133.3600 761.9400Q1134.6200 760.2600 1135.3900 759.9100Q1136.1600 759.5600 1137.7000 759.5600L1137.7000 759.5600L1149.7400 759.5600Q1151.1400 759.5600 1152.0500 760.4000Q1152.9600 761.2400 1152.8200 762.5000L1152.8200 762.5000Q1152.6800 764.7400 1150.5100 767.9600Q1148.3400 771.1800 1144.2800 774.2600Q1140.2200 777.3400 1134.1300 779.3700Q1128.0400 781.4000 1120.2000 781.4000ZM1104.8000 736.8800L1104.8000 737.3000L1135.7400 737.3000L1135.7400 736.8800Q1135.7400 731.4200 1133.9200 727.2900Q1132.1000 723.1600 1128.6000 720.8500Q1125.1000 718.5400 1120.2000 718.5400L1120.2000 718.5400Q1115.3000 718.5400 1111.8000 720.8500Q1108.3000 723.1600 1106.5500 727.2900Q1104.8000 731.4200 1104.8000 736.8800L1104.8000 736.8800ZM1184.7400 780L1172.9800 780Q1171.5800 780 1170.6000 779.0200Q1169.6200 778.0400 1169.6200 776.6400L1169.6200 776.6400L1169.6200 710.5600Q1169.6200 709.1600 1170.6000 708.1800Q1171.5800 707.2000 1172.9800 707.2000L1172.9800 707.2000L1183.9000 707.2000Q1185.3000 707.2000 1186.2800 708.1800Q1187.2600 709.1600 1187.2600 710.5600L1187.2600 710.5600L1187.2600 715.3200Q1190.2000 711.4000 1195.1700 708.6700Q1200.1400 705.9400 1207 705.8000L1207 705.8000Q1222.9600 705.5200 1229.2600 718.2600L1229.2600 718.2600Q1232.4800 712.6600 1238.5700 709.2300Q1244.6600 705.8000 1252.0800 705.8000L1252.0800 705.8000Q1259.3600 705.8000 1265.3100 709.1600Q1271.2600 712.5200 1274.6900 719.3100Q1278.1200 726.1000 1278.1200 736.4600L1278.1200 736.4600L1278.1200 776.6400Q1278.1200 778.0400 1277.1400 779.0200Q1276.1600 780 1274.7600 780L1274.7600 780L1263.2800 780Q1261.8800 780 1260.9000 779.0200Q1259.9200 778.0400 1259.9200 776.6400L1259.9200 776.6400L1259.9200 737.5800Q1259.9200 731.2800 1258.1000 727.5700Q1256.2800 723.8600 1253.2000 722.3200Q1250.1200 720.7800 1246.3400 720.7800L1246.3400 720.7800Q1243.2600 720.7800 1240.1800 722.3200Q1237.1000 723.8600 1235.1400 727.5700Q1233.1800 731.2800 1233.1800 737.5800L1233.1800 737.5800L1233.1800 776.6400Q1233.1800 778.0400 1232.2000 779.0200Q1231.2200 780 1229.8200 780L1229.8200 780L1218.3400 780Q1216.9400 780 1215.9600 779.0200Q1214.9800 778.0400 1214.9800 776.6400L1214.9800 776.6400L1214.9800 737.5800Q1214.9800 731.2800 1213.0200 727.5700Q1211.0600 723.8600 1207.9800 722.3200Q1204.9000 720.7800 1201.4000 720.7800L1201.4000 720.7800Q1198.1800 720.7800 1195.1000 722.3900Q1192.0200 724 1190.0600 727.6400Q1188.1000 731.2800 1188.1000 737.5800L1188.1000 737.5800L1188.1000 776.6400Q1188.1000 778.0400 1187.1200 779.0200Q1186.1400 780 1184.7400 780L1184.7400 780ZM1363.6600 781.4000L1363.6600 781.4000Q1350.6400 781.4000 1341.8900 777.5500Q1333.1400 773.7000 1328.5900 767.4700Q1324.0400 761.2400 1323.7600 754.3800L1323.7600 754.3800Q1323.7600 753.1200 1324.6000 752.2800Q1325.4400 751.4400 1326.7000 751.4400L1326.7000 751.4400L1339.1600 751.4400Q1340.9800 751.4400 1341.8900 752.2100Q1342.8000 752.9800 1343.5000 754.1000L1343.5000 754.1000Q1344.3400 756.7600 1346.7200 759.3500Q1349.1000 761.9400 1353.2300 763.6200Q1357.3600 765.3000 1363.6600 765.3000L1363.6600 765.3000Q1373.7400 765.3000 1378.7100 761.9400Q1383.6800 758.5800 1383.6800 752.8400L1383.6800 752.8400Q1383.6800 748.7800 1381.0200 746.3300Q1378.3600 743.8800 1372.8300 741.8500Q1367.3000 739.8200 1358.2000 737.5800L1358.2000 737.5800Q1347.7000 735.0600 1340.6300 731.4900Q1333.5600 727.9200 1329.9900 722.4600Q1326.4200 717 1326.4200 708.6000L1326.4200 708.6000Q1326.4200 700.4800 1330.8300 694.1800Q1335.2400 687.8800 1343.4300 684.2400Q1351.6200 680.6000 1362.9600 680.6000L1362.9600 680.6000Q1372.0600 680.6000 1379.0600 683.0500Q1386.0600 685.5000 1390.6800 689.4900Q1395.3000 693.4800 1397.7500 698.0300Q1400.2000 702.5800 1400.3400 706.9200L1400.3400 706.9200Q1400.3400 708.0400 1399.5700 708.9500Q1398.8000 709.8600 1397.4000 709.8600L1397.4000 709.8600L1384.3800 709.8600Q1383.2600 709.8600 1382.1400 709.3000Q1381.0200 708.7400 1380.3200 707.2000L1380.3200 707.2000Q1379.4800 702.8600 1374.8600 699.7800Q1370.2400 696.7000 1362.9600 696.7000L1362.9600 696.7000Q1355.4000 696.7000 1350.7800 699.5000Q1346.1600 702.3000 1346.1600 708.1800L1346.1600 708.1800Q1346.1600 712.1000 1348.4700 714.6900Q1350.7800 717.2800 1355.8900 719.2400Q1361 721.2000 1369.4000 723.4400L1369.4000 723.4400Q1381.3000 726.1000 1388.8600 729.6000Q1396.4200 733.1000 1399.9200 738.4900Q1403.4200 743.8800 1403.4200 752.1400L1403.4200 752.1400Q1403.4200 761.3800 1398.4500 767.8900Q1393.4800 774.4000 1384.5200 777.9000Q1375.5600 781.4000 1363.6600 781.4000ZM1495.4000 789.1000L1482.3800 789.1000Q1480.4200 789.1000 1479.2300 787.9100Q1478.0400 786.7200 1477.3400 785.8800L1477.3400 785.8800L1472.1600 778.8800Q1465.5800 781.4000 1457.1800 781.4000L1457.1800 781.4000Q1444.7200 781.4000 1435.6900 777.2700Q1426.6600 773.1400 1421.6900 764.5300Q1416.7200 755.9200 1416.1600 743.0400L1416.1600 743.0400Q1416.0200 737.0200 1416.0200 731.1400Q1416.0200 725.2600 1416.1600 719.1000L1416.1600 719.1000Q1416.7200 706.3600 1421.8300 697.8200Q1426.9400 689.2800 1436.0400 684.9400Q1445.1400 680.6000 1457.1800 680.6000L1457.1800 680.6000Q1469.2200 680.6000 1478.3200 684.9400Q1487.4200 689.2800 1492.6000 697.8200Q1497.7800 706.3600 1498.0600 719.1000L1498.0600 719.1000Q1498.3400 725.2600 1498.3400 731.1400Q1498.3400 737.0200 1498.0600 743.0400L1498.0600 743.0400Q1497.3600 761.3800 1487.9800 770.9000L1487.9800 770.9000L1497.7800 784.7600Q1497.9200 784.9000 1498.0600 785.2500Q1498.2000 785.6000 1498.2000 786.1600L1498.2000 786.1600Q1498.3400 787.4200 1497.4300 788.2600Q1496.5200 789.1000 1495.4000 789.1000L1495.4000 789.1000ZM1457.1800 765.3000L1457.1800 765.3000Q1466.1400 765.3000 1471.8800 759.9100Q1477.6200 754.5200 1478.0400 742.3400L1478.0400 742.3400Q1478.3200 736.1800 1478.3200 730.9300Q1478.3200 725.6800 1478.0400 719.6600L1478.0400 719.6600Q1477.9000 711.5400 1475.1000 706.4300Q1472.3000 701.3200 1467.7500 699.0100Q1463.2000 696.7000 1457.1800 696.7000L1457.1800 696.7000Q1451.3000 696.7000 1446.6800 699.0100Q1442.0600 701.3200 1439.3300 706.4300Q1436.6000 711.5400 1436.1800 719.6600L1436.1800 719.6600Q1436.0400 725.6800 1436.0400 730.9300Q1436.0400 736.1800 1436.1800 742.3400L1436.1800 742.3400Q1436.7400 754.5200 1442.4800 759.9100Q1448.2200 765.3000 1457.1800 765.3000ZM1580.9400 780L1520.1800 780Q1518.7800 780 1517.8000 779.0200Q1516.8200 778.0400 1516.8200 776.6400L1516.8200 776.6400L1516.8200 685.3600Q1516.8200 683.9600 1517.8000 682.9800Q1518.7800 682 1520.1800 682L1520.1800 682L1533.2000 682Q1534.6000 682 1535.5800 682.9800Q1536.5600 683.9600 1536.5600 685.3600L1536.5600 685.3600L1536.5600 763.3400L1580.9400 763.3400Q1582.4800 763.3400 1583.4600 764.3200Q1584.4400 765.3000 1584.4400 766.8400L1584.4400 766.8400L1584.4400 776.6400Q1584.4400 778.0400 1583.4600 779.0200Q1582.4800 780 1580.9400 780L1580.9400 780Z" id="title"/></g></svg>