<svg xmlns="http://www.w3.org/2000/svg" version="1.1" xmlns:xlink="http://www.w3.org/1999/xlink" xmlns:svgjs="http://svgjs.dev/svgjs" viewBox="0 0 1920 1080" id="515280ba-33c1-4e79-8345-5fccada6d768"><g><rect width="1920" height="1080" fill="#8ee3ef"/></g><g fill="#f0c975"><path d="M2118.71 322.496C1962.88 381.696 1840.11 286.062 1731.68 201.315C1619.52 113.904 1545.13 63.1995 1455.92 97.0926C1366.11 131.212 1344.15 218.52 1318.91 358.127C1294.11 493.487 1265.8 646.514 1109.97 705.714C954.144 764.914 831.375 669.28 722.951 584.533C610.793 497.122 536.401 446.418 447.185 480.311C357.375 514.43 335.414 601.738 310.18 741.346C285.375 876.706 257.072 1029.73 101.242 1088.93C-54.5876 1148.13 -177.357 1052.5 -285.78 967.751C-397.344 880.114 -471.736 829.41 -561.547 863.529L-602 757.045C-446.17 697.845 -323.401 793.479 -214.977 878.225C-102.819 965.637 -28.4265 1016.34 60.7891 982.448C150.6 948.329 172.56 861.02 197.794 721.413C222.599 586.053 250.307 433.253 406.732 373.827C562.562 314.627 685.331 410.261 793.754 495.007C905.913 582.419 980.305 633.123 1069.52 599.23C1159.33 565.111 1181.29 477.802 1206.53 338.195C1231.33 202.835 1259.04 50.0347 1415.46 -9.39121C1571.89 -68.8172 1694.06 27.043 1802.49 111.789C1914.64 199.201 1989.04 249.905 2078.25 216.012L2118.71 322.496Z"/></g><g fill="#ffffff" opacity="0.4"><path d="M960.041 79C960.041 79 971.953 194.974 981.699 214.484C992.529 237.245 1064 247 1064 247C1064 247 994.694 258.923 983.865 280.6C973.036 301.194 958.959 415 958.959 415C958.959 415 945.964 296.858 935.135 275.181C925.389 255.671 855 245.916 855 245.916C855 245.916 925.389 233.994 936.218 212.316C947.047 192.806 960.041 79 960.041 79Z"/><path d="M561.041 687C561.041 687 572.953 802.974 582.699 822.484C593.529 845.245 665 855 665 855C665 855 595.694 866.923 584.865 888.6C574.036 909.194 559.959 1023 559.959 1023C559.959 1023 546.964 904.858 536.135 883.181C526.389 863.671 456 853.916 456 853.916C456 853.916 526.389 841.994 537.218 820.316C548.047 800.806 561.041 687 561.041 687Z"/></g><g><path d="M178.635 139.281L184.422 144.246V166.626H215.704L219.958 172.147L215.69 177.397H184.422V198.795L178.635 203.747L173 198.795V144.232L178.635 139.281ZM195.554 195.68H219.406L223.397 200.915L219.143 206.45H195.554L191.7 201.342L195.554 195.68ZM196.382 138H219.129L223.383 143.52L219.129 148.77H196.659L192.115 143.677L196.382 138ZM323.155 148.628L328.251 154.291L323.155 159.968H246.13L241.172 154.291L246.13 148.628H323.155ZM237.043 172.147L241.849 167.893L246.669 172.147V178.393C246.669 188.879 249.417 197.515 261.668 197.515H264.14C275.147 197.515 281.197 189.86 281.197 177.952V172.005L285.879 167.75L290.699 171.862V178.379C290.699 189.007 293.723 196.946 305.56 196.946H307.618C319.178 196.946 321.235 187.869 321.373 177.952V171.578L326.056 167.608L331 171.72V178.094C330.862 191.838 327.285 207.574 308.032 207.574H305.974C294.552 207.574 288.365 202.324 285.892 195.808C283.006 202.466 275.299 208.286 264.844 208.286H262.358C242.553 208.286 237.194 195.964 237.056 178.663V172.147H237.043ZM276.391 274.744L273.642 267.089L280.796 264.969L305.974 276.721V252.491L311.07 248.095L316.291 252.491V281.829L325.641 286.226L328.251 293.311L320.959 296L276.391 274.744ZM321.235 223.011L328.113 226.27L325.917 233.497L264.002 263.119L256.571 260.146L259.596 252.776L321.235 223.011ZM231.905 263.404L237.954 268.512C237.402 286.51 222.403 296 204.669 296H202.874C194.062 296 183.759 292.6 177.157 286.083L177.834 278.855L184.298 278.002C189.118 282.256 195.858 285.229 202.183 285.229H204.117C216.091 285.229 225.303 280.136 226.27 268.085L231.905 263.404ZM226.256 251.638C225.704 239.16 216.629 234.209 204.103 234.209H202.169C194.739 234.209 189.104 237.182 184.284 241.436L177.834 240.583L177.143 233.355C183.745 226.696 192.957 223.58 202.597 223.58H204.517C222.403 223.58 237.402 232.942 237.94 251.211L231.891 256.176L226.256 251.638Z" fill="#000000"/></g><g fill="#000000" id="info-group"><path d="M167.0800 360L154.9000 360Q153.7800 360 152.8700 359.1600Q151.9600 358.3200 151.9600 357.0600L151.9600 357.0600Q151.9600 356.5000 152.2400 355.8000L152.2400 355.8000L185.9800 265.5000Q186.4000 264.1000 187.5900 263.0500Q188.7800 262 190.8800 262L190.8800 262L206.1400 262Q208.2400 262 209.3600 263.0500Q210.4800 264.1000 211.0400 265.5000L211.0400 265.5000L244.7800 355.8000Q244.9200 356.5000 244.9200 357.0600L244.9200 357.0600Q244.9200 358.3200 244.0800 359.1600Q243.2400 360 242.1200 360L242.1200 360L229.9400 360Q227.9800 360 227.0700 359.0900Q226.1600 358.1800 225.8800 357.3400L225.8800 357.3400L219.3000 340.2600L177.7200 340.2600L171.1400 357.3400Q170.8600 358.1800 169.9500 359.0900Q169.0400 360 167.0800 360L167.0800 360ZM198.4400 280.9000L182.6200 324.1600L214.4000 324.1600L198.4400 280.9000ZM283.2800 361.4000L283.2800 361.4000Q274.7400 361.4000 268.5100 357.5500Q262.2800 353.7000 258.9200 346.6300Q255.5600 339.5600 255.5600 329.9000L255.5600 329.9000L255.5600 290.5600Q255.5600 289.1600 256.5400 288.1800Q257.5200 287.2000 258.9200 287.2000L258.9200 287.2000L271.2400 287.2000Q272.7800 287.2000 273.6900 288.1800Q274.6000 289.1600 274.6000 290.5600L274.6000 290.5600L274.6000 329.0600Q274.6000 346.4200 289.8600 346.4200L289.8600 346.4200Q297.1400 346.4200 301.4100 341.8000Q305.6800 337.1800 305.6800 329.0600L305.6800 329.0600L305.6800 290.5600Q305.6800 289.1600 306.6600 288.1800Q307.6400 287.2000 309.0400 287.2000L309.0400 287.2000L321.3600 287.2000Q322.7600 287.2000 323.7400 288.1800Q324.7200 289.1600 324.7200 290.5600L324.7200 290.5600L324.7200 356.6400Q324.7200 358.0400 323.7400 359.0200Q322.7600 360 321.3600 360L321.3600 360L310.0200 360Q308.4800 360 307.5700 359.0200Q306.6600 358.0400 306.6600 356.6400L306.6600 356.6400L306.6600 350.9000Q302.8800 355.8000 297.2800 358.6000Q291.6800 361.4000 283.2800 361.4000ZM358.3200 360L346.7000 360Q345.3000 360 344.3200 359.0200Q343.3400 358.0400 343.3400 356.6400L343.3400 356.6400L343.3400 263.9600Q343.3400 262.5600 344.3200 261.5800Q345.3000 260.6000 346.7000 260.6000L346.7000 260.6000L358.3200 260.6000Q359.7200 260.6000 360.7000 261.5800Q361.6800 262.5600 361.6800 263.9600L361.6800 263.9600L361.6800 356.6400Q361.6800 358.0400 360.7000 359.0200Q359.7200 360 358.3200 360L358.3200 360ZM401.4400 361.4000L401.4400 361.4000Q394.1600 361.4000 388.2800 358.5300Q382.4000 355.6600 378.9700 350.8300Q375.5400 346 375.5400 339.9800L375.5400 339.9800Q375.5400 330.1800 383.5200 324.3700Q391.5000 318.5600 404.3800 316.6000L404.3800 316.6000L423.5600 313.8000L423.5600 310.8600Q423.5600 304.9800 420.6200 301.7600Q417.6800 298.5400 410.5400 298.5400L410.5400 298.5400Q405.5000 298.5400 402.3500 300.5700Q399.2000 302.6000 397.6600 305.9600L397.6600 305.9600Q396.5400 307.7800 394.4400 307.7800L394.4400 307.7800L383.3800 307.7800Q381.8400 307.7800 381.0700 306.9400Q380.3000 306.1000 380.3000 304.7000L380.3000 304.7000Q380.4400 302.4600 382.1900 299.2400Q383.9400 296.0200 387.5100 293.0100Q391.0800 290 396.8200 287.9000Q402.5600 285.8000 410.6800 285.8000L410.6800 285.8000Q419.5000 285.8000 425.5900 287.9700Q431.6800 290.1400 435.3200 293.7800Q438.9600 297.4200 440.6400 302.3200Q442.3200 307.2200 442.3200 312.6800L442.3200 312.6800L442.3200 356.6400Q442.3200 358.0400 441.3400 359.0200Q440.3600 360 438.9600 360L438.9600 360L427.6200 360Q426.0800 360 425.1700 359.0200Q424.2600 358.0400 424.2600 356.6400L424.2600 356.6400L424.2600 351.1800Q422.4400 353.7000 419.3600 356.0800Q416.2800 358.4600 411.8700 359.9300Q407.4600 361.4000 401.4400 361.4000ZM406.2000 348.1000L406.2000 348.1000Q411.1000 348.1000 415.0900 346Q419.0800 343.9000 421.3900 339.4900Q423.7000 335.0800 423.7000 328.3600L423.7000 328.3600L423.7000 325.4200L409.7000 327.6600Q401.4400 328.9200 397.3800 331.7200Q393.3200 334.5200 393.3200 338.5800L393.3200 338.5800Q393.3200 341.6600 395.2100 343.8300Q397.1000 346 400.0400 347.0500Q402.9800 348.1000 406.2000 348.1000ZM526.6000 361.4000L526.6000 361.4000Q516.8000 361.4000 509.6600 359.0200Q502.5200 356.6400 497.8300 352.7900Q493.1400 348.9400 490.7600 344.3900Q488.3800 339.8400 488.2400 335.3600L488.2400 335.3600Q488.2400 334.1000 489.1500 333.3300Q490.0600 332.5600 491.3200 332.5600L491.3200 332.5600L503.9200 332.5600Q505.3200 332.5600 506.3000 333.1200Q507.2800 333.6800 507.9800 335.3600L507.9800 335.3600Q509.2400 339.1400 512.1100 341.3800Q514.9800 343.6200 518.7600 344.5300Q522.5400 345.4400 526.7400 345.4400L526.7400 345.4400Q535.1400 345.4400 540.1100 341.4500Q545.0800 337.4600 545.0800 330.0400L545.0800 330.0400Q545.0800 322.6200 540.4600 319.3300Q535.8400 316.0400 527.5800 316.0400L527.5800 316.0400L513.1600 316.0400Q511.6200 316.0400 510.6400 315.1300Q509.6600 314.2200 509.6600 312.6800L509.6600 312.6800L509.6600 306.8000Q509.6600 305.4000 510.2900 304.3500Q510.9200 303.3000 511.6200 302.6000L511.6200 302.6000L536.6800 278.1000L496.6400 278.1000Q495.1000 278.1000 494.1900 277.1200Q493.2800 276.1400 493.2800 274.7400L493.2800 274.7400L493.2800 265.5000Q493.2800 263.9600 494.1900 262.9800Q495.1000 262 496.6400 262L496.6400 262L556.7000 262Q558.2400 262 559.2200 262.9800Q560.2000 263.9600 560.2000 265.5000L560.2000 265.5000L560.2000 273.9000Q560.2000 275.1600 559.6400 276.1400Q559.0800 277.1200 558.3800 277.8200L558.3800 277.8200L534.1600 302.7400L535.8400 302.8800Q544.3800 303.5800 551.0300 306.7300Q557.6800 309.8800 561.3900 315.9000Q565.1000 321.9200 565.1000 331.0200L565.1000 331.0200Q565.1000 340.5400 560.1300 347.3300Q555.1600 354.1200 546.4800 357.7600Q537.8000 361.4000 526.6000 361.4000ZM597.3000 311L583.4400 311Q582.0400 311 581.0600 310.0200Q580.0800 309.0400 580.0800 307.6400L580.0800 307.6400L580.0800 294.3400Q580.0800 292.8000 581.0600 291.8200Q582.0400 290.8400 583.4400 290.8400L583.4400 290.8400L597.3000 290.8400Q598.8400 290.8400 599.8200 291.8200Q600.8000 292.8000 600.8000 294.3400L600.8000 294.3400L600.8000 307.6400Q600.8000 309.0400 599.8200 310.0200Q598.8400 311 597.3000 311L597.3000 311ZM597.3000 360L583.4400 360Q582.0400 360 581.0600 359.0200Q580.0800 358.0400 580.0800 356.6400L580.0800 356.6400L580.0800 343.3400Q580.0800 341.8000 581.0600 340.8200Q582.0400 339.8400 583.4400 339.8400L583.4400 339.8400L597.3000 339.8400Q598.8400 339.8400 599.8200 340.8200Q600.8000 341.8000 600.8000 343.3400L600.8000 343.3400L600.8000 356.6400Q600.8000 358.0400 599.8200 359.0200Q598.8400 360 597.3000 360L597.3000 360ZM690.4000 361.4000L690.4000 361.4000Q677.3800 361.4000 668.3500 356.8500Q659.3200 352.3000 654.5600 343.8300Q649.8000 335.3600 649.2400 323.4600L649.2400 323.4600Q649.1000 317.7200 649.1000 311.1400Q649.1000 304.5600 649.2400 298.5400L649.2400 298.5400Q649.8000 286.7800 654.6300 278.2400Q659.4600 269.7000 668.4900 265.1500Q677.5200 260.6000 690.4000 260.6000L690.4000 260.6000Q699.9200 260.6000 707.4800 263.1200Q715.0400 265.6400 720.3600 270.0500Q725.6800 274.4600 728.6200 280.3400Q731.5600 286.2200 731.7000 293.0800L731.7000 293.0800Q731.8400 294.3400 730.9300 295.1800Q730.0200 296.0200 728.7600 296.0200L728.7600 296.0200L715.4600 296.0200Q713.9200 296.0200 712.9400 295.2500Q711.9600 294.4800 711.5400 292.6600L711.5400 292.6600Q709.3000 283.4200 703.8400 280.0600Q698.3800 276.7000 690.2600 276.7000L690.2600 276.7000Q680.8800 276.7000 675.2800 281.9500Q669.6800 287.2000 669.2600 299.2400L669.2600 299.2400Q668.8400 310.7200 669.2600 322.7600L669.2600 322.7600Q669.6800 334.8000 675.2800 340.0500Q680.8800 345.3000 690.2600 345.3000L690.2600 345.3000Q698.3800 345.3000 703.9100 341.8700Q709.4400 338.4400 711.5400 329.3400L711.5400 329.3400Q711.9600 327.3800 712.9400 326.6800Q713.9200 325.9800 715.4600 325.9800L715.4600 325.9800L728.7600 325.9800Q730.0200 325.9800 730.9300 326.8200Q731.8400 327.6600 731.7000 328.9200L731.7000 328.9200Q731.5600 335.7800 728.6200 341.6600Q725.6800 347.5400 720.3600 351.9500Q715.0400 356.3600 707.4800 358.8800Q699.9200 361.4000 690.4000 361.4000ZM778.8800 361.4000L778.8800 361.4000Q767.6800 361.4000 760.0500 357.4800Q752.4200 353.5600 748.4300 346.4200Q744.4400 339.2800 743.8800 329.7600L743.8800 329.7600Q743.7400 327.2400 743.7400 323.6000Q743.7400 319.9600 743.8800 317.4400L743.8800 317.4400Q744.4400 307.7800 748.5700 300.7100Q752.7000 293.6400 760.3300 289.7200Q767.9600 285.8000 778.8800 285.8000L778.8800 285.8000Q789.8000 285.8000 797.4300 289.7200Q805.0600 293.6400 809.1900 300.7100Q813.3200 307.7800 813.8800 317.4400L813.8800 317.4400Q814.0200 319.9600 814.0200 323.6000Q814.0200 327.2400 813.8800 329.7600L813.8800 329.7600Q813.3200 339.2800 809.3300 346.4200Q805.3400 353.5600 797.7100 357.4800Q790.0800 361.4000 778.8800 361.4000ZM778.8800 347.5400L778.8800 347.5400Q786.3000 347.5400 790.3600 342.8500Q794.4200 338.1600 794.8400 329.0600L794.8400 329.0600Q794.9800 326.9600 794.9800 323.6000Q794.9800 320.2400 794.8400 318.1400L794.8400 318.1400Q794.4200 309.0400 790.3600 304.3500Q786.3000 299.6600 778.8800 299.6600L778.8800 299.6600Q771.4600 299.6600 767.4000 304.3500Q763.3400 309.0400 762.9200 318.1400L762.9200 318.1400Q762.7800 320.2400 762.7800 323.6000Q762.7800 326.9600 762.9200 329.0600L762.9200 329.0600Q763.3400 338.1600 767.4000 342.8500Q771.4600 347.5400 778.8800 347.5400ZM844.6800 360L832.9200 360Q831.5200 360 830.5400 359.0200Q829.5600 358.0400 829.5600 356.6400L829.5600 356.6400L829.5600 290.5600Q829.5600 289.1600 830.5400 288.1800Q831.5200 287.2000 832.9200 287.2000L832.9200 287.2000L843.8400 287.2000Q845.2400 287.2000 846.2200 288.1800Q847.2000 289.1600 847.2000 290.5600L847.2000 290.5600L847.2000 295.3200Q850.1400 291.4000 855.1100 288.6700Q860.0800 285.9400 866.9400 285.8000L866.9400 285.8000Q882.9000 285.5200 889.2000 298.2600L889.2000 298.2600Q892.4200 292.6600 898.5100 289.2300Q904.6000 285.8000 912.0200 285.8000L912.0200 285.8000Q919.3000 285.8000 925.2500 289.1600Q931.2000 292.5200 934.6300 299.3100Q938.0600 306.1000 938.0600 316.4600L938.0600 316.4600L938.0600 356.6400Q938.0600 358.0400 937.0800 359.0200Q936.1000 360 934.7000 360L934.7000 360L923.2200 360Q921.8200 360 920.8400 359.0200Q919.8600 358.0400 919.8600 356.6400L919.8600 356.6400L919.8600 317.5800Q919.8600 311.2800 918.0400 307.5700Q916.2200 303.8600 913.1400 302.3200Q910.0600 300.7800 906.2800 300.7800L906.2800 300.7800Q903.2000 300.7800 900.1200 302.3200Q897.0400 303.8600 895.0800 307.5700Q893.1200 311.2800 893.1200 317.5800L893.1200 317.5800L893.1200 356.6400Q893.1200 358.0400 892.1400 359.0200Q891.1600 360 889.7600 360L889.7600 360L878.2800 360Q876.8800 360 875.9000 359.0200Q874.9200 358.0400 874.9200 356.6400L874.9200 356.6400L874.9200 317.5800Q874.9200 311.2800 872.9600 307.5700Q871 303.8600 867.9200 302.3200Q864.8400 300.7800 861.3400 300.7800L861.3400 300.7800Q858.1200 300.7800 855.0400 302.3900Q851.9600 304 850 307.6400Q848.0400 311.2800 848.0400 317.5800L848.0400 317.5800L848.0400 356.6400Q848.0400 358.0400 847.0600 359.0200Q846.0800 360 844.6800 360L844.6800 360ZM988.0400 361.4000L988.0400 361.4000Q976.8400 361.4000 969.2100 357.4800Q961.5800 353.5600 957.5900 346.4200Q953.6000 339.2800 953.0400 329.7600L953.0400 329.7600Q952.9000 327.2400 952.9000 323.6000Q952.9000 319.9600 953.0400 317.4400L953.0400 317.4400Q953.6000 307.7800 957.7300 300.7100Q961.8600 293.6400 969.4900 289.7200Q977.1200 285.8000 988.0400 285.8000L988.0400 285.8000Q998.9600 285.8000 1006.5900 289.7200Q1014.2200 293.6400 1018.3500 300.7100Q1022.4800 307.7800 1023.0400 317.4400L1023.0400 317.4400Q1023.1800 319.9600 1023.1800 323.6000Q1023.1800 327.2400 1023.0400 329.7600L1023.0400 329.7600Q1022.4800 339.2800 1018.4900 346.4200Q1014.5000 353.5600 1006.8700 357.4800Q999.2400 361.4000 988.0400 361.4000ZM988.0400 347.5400L988.0400 347.5400Q995.4600 347.5400 999.5200 342.8500Q1003.5800 338.1600 1004 329.0600L1004 329.0600Q1004.1400 326.9600 1004.1400 323.6000Q1004.1400 320.2400 1004 318.1400L1004 318.1400Q1003.5800 309.0400 999.5200 304.3500Q995.4600 299.6600 988.0400 299.6600L988.0400 299.6600Q980.6200 299.6600 976.5600 304.3500Q972.5000 309.0400 972.0800 318.1400L972.0800 318.1400Q971.9400 320.2400 971.9400 323.6000Q971.9400 326.9600 972.0800 329.0600L972.0800 329.0600Q972.5000 338.1600 976.5600 342.8500Q980.6200 347.5400 988.0400 347.5400ZM1085.7600 360L1074.1400 360Q1072.7400 360 1071.7600 359.0200Q1070.7800 358.0400 1070.7800 356.6400L1070.7800 356.6400L1070.7800 290.5600Q1070.7800 289.1600 1071.7600 288.1800Q1072.7400 287.2000 1074.1400 287.2000L1074.1400 287.2000L1085.7600 287.2000Q1087.3000 287.2000 1088.2100 288.1800Q1089.1200 289.1600 1089.1200 290.5600L1089.1200 290.5600L1089.1200 356.6400Q1089.1200 358.0400 1088.2100 359.0200Q1087.3000 360 1085.7600 360L1085.7600 360ZM1086.3200 275.1600L1073.5800 275.1600Q1072.1800 275.1600 1071.2000 274.1800Q1070.2200 273.2000 1070.2200 271.8000L1070.2200 271.8000L1070.2200 261.7200Q1070.2200 260.3200 1071.2000 259.3400Q1072.1800 258.3600 1073.5800 258.3600L1073.5800 258.3600L1086.3200 258.3600Q1087.8600 258.3600 1088.8400 259.3400Q1089.8200 260.3200 1089.8200 261.7200L1089.8200 261.7200L1089.8200 271.8000Q1089.8200 273.2000 1088.8400 274.1800Q1087.8600 275.1600 1086.3200 275.1600L1086.3200 275.1600ZM1123.4200 360L1111.1000 360Q1109.7000 360 1108.7200 359.0200Q1107.7400 358.0400 1107.7400 356.6400L1107.7400 356.6400L1107.7400 290.5600Q1107.7400 289.1600 1108.7200 288.1800Q1109.7000 287.2000 1111.1000 287.2000L1111.1000 287.2000L1122.5800 287.2000Q1123.9800 287.2000 1124.9600 288.1800Q1125.9400 289.1600 1125.9400 290.5600L1125.9400 290.5600L1125.9400 296.3000Q1129.5800 291.8200 1135.2500 288.8100Q1140.9200 285.8000 1149.3200 285.8000L1149.3200 285.8000Q1157.8600 285.8000 1164.1600 289.6500Q1170.4600 293.5000 1173.8900 300.5000Q1177.3200 307.5000 1177.3200 317.3000L1177.3200 317.3000L1177.3200 356.6400Q1177.3200 358.0400 1176.3400 359.0200Q1175.3600 360 1173.9600 360L1173.9600 360L1161.6400 360Q1160.2400 360 1159.2600 359.0200Q1158.2800 358.0400 1158.2800 356.6400L1158.2800 356.6400L1158.2800 318.1400Q1158.2800 310.0200 1154.2900 305.4000Q1150.3000 300.7800 1142.7400 300.7800L1142.7400 300.7800Q1135.4600 300.7800 1131.1200 305.4000Q1126.7800 310.0200 1126.7800 318.1400L1126.7800 318.1400L1126.7800 356.6400Q1126.7800 358.0400 1125.8000 359.0200Q1124.8200 360 1123.4200 360L1123.4200 360ZM1222.1200 361.4000L1222.1200 361.4000Q1214.8400 361.4000 1209.3100 358.9500Q1203.7800 356.5000 1200.1400 352.0200Q1196.5000 347.5400 1194.5400 341.4500Q1192.5800 335.3600 1192.3000 328.0800L1192.3000 328.0800Q1192.1600 325.5600 1192.1600 323.5300Q1192.1600 321.5000 1192.3000 318.9800L1192.3000 318.9800Q1192.5800 311.9800 1194.4700 305.9600Q1196.3600 299.9400 1200.0700 295.3900Q1203.7800 290.8400 1209.3100 288.3200Q1214.8400 285.8000 1222.1200 285.8000L1222.1200 285.8000Q1229.6800 285.8000 1234.9300 288.3900Q1240.1800 290.9800 1243.6800 295.0400L1243.6800 295.0400L1243.6800 263.9600Q1243.6800 262.5600 1244.5900 261.5800Q1245.5000 260.6000 1247.0400 260.6000L1247.0400 260.6000L1258.9400 260.6000Q1260.3400 260.6000 1261.3200 261.5800Q1262.3000 262.5600 1262.3000 263.9600L1262.3000 263.9600L1262.3000 356.6400Q1262.3000 358.0400 1261.3200 359.0200Q1260.3400 360 1258.9400 360L1258.9400 360L1247.8800 360Q1246.3400 360 1245.4300 359.0200Q1244.5200 358.0400 1244.5200 356.6400L1244.5200 356.6400L1244.5200 351.4600Q1241.0200 355.8000 1235.6300 358.6000Q1230.2400 361.4000 1222.1200 361.4000ZM1227.3000 346.4200L1227.3000 346.4200Q1233.1800 346.4200 1236.6800 343.7600Q1240.1800 341.1000 1241.8600 336.9700Q1243.5400 332.8400 1243.6800 328.5000L1243.6800 328.5000Q1243.8200 325.9800 1243.8200 323.1100Q1243.8200 320.2400 1243.6800 317.7200L1243.6800 317.7200Q1243.5400 313.5200 1241.7200 309.6700Q1239.9000 305.8200 1236.4000 303.3000Q1232.9000 300.7800 1227.3000 300.7800L1227.3000 300.7800Q1221.4200 300.7800 1217.9900 303.3700Q1214.5600 305.9600 1213.0200 310.1600Q1211.4800 314.3600 1211.2000 319.4000L1211.2000 319.4000Q1211.0600 323.6000 1211.2000 327.8000L1211.2000 327.8000Q1211.4800 332.8400 1213.0200 337.0400Q1214.5600 341.2400 1217.9900 343.8300Q1221.4200 346.4200 1227.3000 346.4200ZM1295.9000 360L1284.2800 360Q1282.8800 360 1281.9000 359.0200Q1280.9200 358.0400 1280.9200 356.6400L1280.9200 356.6400L1280.9200 290.5600Q1280.9200 289.1600 1281.9000 288.1800Q1282.8800 287.2000 1284.2800 287.2000L1284.2800 287.2000L1295.9000 287.2000Q1297.4400 287.2000 1298.3500 288.1800Q1299.2600 289.1600 1299.2600 290.5600L1299.2600 290.5600L1299.2600 356.6400Q1299.2600 358.0400 1298.3500 359.0200Q1297.4400 360 1295.9000 360L1295.9000 360ZM1296.4600 275.1600L1283.7200 275.1600Q1282.3200 275.1600 1281.3400 274.1800Q1280.3600 273.2000 1280.3600 271.8000L1280.3600 271.8000L1280.3600 261.7200Q1280.3600 260.3200 1281.3400 259.3400Q1282.3200 258.3600 1283.7200 258.3600L1283.7200 258.3600L1296.4600 258.3600Q1298 258.3600 1298.9800 259.3400Q1299.9600 260.3200 1299.9600 261.7200L1299.9600 261.7200L1299.9600 271.8000Q1299.9600 273.2000 1298.9800 274.1800Q1298 275.1600 1296.4600 275.1600L1296.4600 275.1600ZM1349.3800 361.4000L1349.3800 361.4000Q1339.3000 361.4000 1331.6700 357.6200Q1324.0400 353.8400 1319.7700 346.6300Q1315.5000 339.4200 1315.0800 329.2000L1315.0800 329.2000Q1314.9400 327.1000 1314.9400 323.6700Q1314.9400 320.2400 1315.0800 318L1315.0800 318Q1315.5000 307.7800 1319.7700 300.5700Q1324.0400 293.3600 1331.6700 289.5800Q1339.3000 285.8000 1349.3800 285.8000L1349.3800 285.8000Q1358.3400 285.8000 1364.6400 288.2500Q1370.9400 290.7000 1375 294.5500Q1379.0600 298.4000 1381.0900 302.5300Q1383.1200 306.6600 1383.2600 310.0200L1383.2600 310.0200Q1383.4000 311.5600 1382.3500 312.4700Q1381.3000 313.3800 1379.9000 313.3800L1379.9000 313.3800L1367.5800 313.3800Q1366.1800 313.3800 1365.4100 312.6800Q1364.6400 311.9800 1363.9400 310.5800L1363.9400 310.5800Q1361.8400 304.9800 1358.4100 302.6700Q1354.9800 300.3600 1349.6600 300.3600L1349.6600 300.3600Q1342.6600 300.3600 1338.5300 304.7700Q1334.4000 309.1800 1334.1200 318.7000L1334.1200 318.7000Q1333.8400 324.0200 1334.1200 328.5000L1334.1200 328.5000Q1334.4000 338.1600 1338.5300 342.5000Q1342.6600 346.8400 1349.6600 346.8400L1349.6600 346.8400Q1355.1200 346.8400 1358.4800 344.5300Q1361.8400 342.2200 1363.9400 336.6200L1363.9400 336.6200Q1364.6400 335.2200 1365.4100 334.5200Q1366.1800 333.8200 1367.5800 333.8200L1367.5800 333.8200L1379.9000 333.8200Q1381.3000 333.8200 1382.3500 334.7300Q1383.4000 335.6400 1383.2600 337.1800L1383.2600 337.1800Q1383.1200 339.7000 1381.9300 342.8500Q1380.7400 346 1378.1500 349.2900Q1375.5600 352.5800 1371.6400 355.3100Q1367.7200 358.0400 1362.1900 359.7200Q1356.6600 361.4000 1349.3800 361.4000ZM1429.1800 361.4000L1429.1800 361.4000Q1413.6400 361.4000 1404.5400 352.4400Q1395.4400 343.4800 1394.7400 326.9600L1394.7400 326.9600Q1394.6000 325.5600 1394.6000 323.3900Q1394.6000 321.2200 1394.7400 319.9600L1394.7400 319.9600Q1395.3000 309.3200 1399.5700 301.6900Q1403.8400 294.0600 1411.4000 289.9300Q1418.9600 285.8000 1429.1800 285.8000L1429.1800 285.8000Q1440.5200 285.8000 1448.2200 290.4900Q1455.9200 295.1800 1459.8400 303.5100Q1463.7600 311.8400 1463.7600 322.7600L1463.7600 322.7600L1463.7600 325.7000Q1463.7600 327.1000 1462.7800 328.0800Q1461.8000 329.0600 1460.2600 329.0600L1460.2600 329.0600L1413.7800 329.0600Q1413.7800 329.0600 1413.7800 329.4800Q1413.7800 329.9000 1413.7800 330.1800L1413.7800 330.1800Q1413.9200 335.0800 1415.6700 339.2100Q1417.4200 343.3400 1420.8500 345.8600Q1424.2800 348.3800 1429.0400 348.3800L1429.0400 348.3800Q1432.9600 348.3800 1435.6200 347.1900Q1438.2800 346 1439.9600 344.4600Q1441.6400 342.9200 1442.3400 341.9400L1442.3400 341.9400Q1443.6000 340.2600 1444.3700 339.9100Q1445.1400 339.5600 1446.6800 339.5600L1446.6800 339.5600L1458.7200 339.5600Q1460.1200 339.5600 1461.0300 340.4000Q1461.9400 341.2400 1461.8000 342.5000L1461.8000 342.5000Q1461.6600 344.7400 1459.4900 347.9600Q1457.3200 351.1800 1453.2600 354.2600Q1449.2000 357.3400 1443.1100 359.3700Q1437.0200 361.4000 1429.1800 361.4000ZM1413.7800 316.8800L1413.7800 317.3000L1444.7200 317.3000L1444.7200 316.8800Q1444.7200 311.4200 1442.9000 307.2900Q1441.0800 303.1600 1437.5800 300.8500Q1434.0800 298.5400 1429.1800 298.5400L1429.1800 298.5400Q1424.2800 298.5400 1420.7800 300.8500Q1417.2800 303.1600 1415.5300 307.2900Q1413.7800 311.4200 1413.7800 316.8800L1413.7800 316.8800ZM174.6400 526.6000L162.7400 526.6000Q161.3400 526.6000 160.3600 525.6200Q159.3800 524.6400 159.3800 523.2400L159.3800 523.2400L159.3800 430.5600Q159.3800 429.1600 160.3600 428.1800Q161.3400 427.2000 162.7400 427.2000L162.7400 427.2000L173.8000 427.2000Q175.3400 427.2000 176.2500 428.1800Q177.1600 429.1600 177.1600 430.5600L177.1600 430.5600L177.1600 436.1600Q180.5200 431.6800 185.9800 428.7400Q191.4400 425.8000 199.5600 425.8000L199.5600 425.8000Q206.9800 425.8000 212.4400 428.1800Q217.9000 430.5600 221.5400 434.9700Q225.1800 439.3800 227.1400 445.4000Q229.1000 451.4200 229.3800 458.7000L229.3800 458.7000Q229.5200 461.0800 229.5200 463.6000Q229.5200 466.1200 229.3800 468.6400L229.3800 468.6400Q229.2400 475.6400 227.2800 481.5900Q225.3200 487.5400 221.6100 491.9500Q217.9000 496.3600 212.4400 498.8800Q206.9800 501.4000 199.5600 501.4000L199.5600 501.4000Q192 501.4000 186.6800 498.6700Q181.3600 495.9400 178 491.4600L178 491.4600L178 523.2400Q178 524.6400 177.0900 525.6200Q176.1800 526.6000 174.6400 526.6000L174.6400 526.6000ZM194.3800 486.4200L194.3800 486.4200Q200.4000 486.4200 203.7600 483.8300Q207.1200 481.2400 208.6600 477.0400Q210.2000 472.8400 210.4800 467.8000L210.4800 467.8000Q210.6200 463.6000 210.4800 459.4000L210.4800 459.4000Q210.2000 454.3600 208.6600 450.1600Q207.1200 445.9600 203.7600 443.3700Q200.4000 440.7800 194.3800 440.7800L194.3800 440.7800Q188.6400 440.7800 185.0700 443.4400Q181.5000 446.1000 179.8900 450.2300Q178.2800 454.3600 178 458.7000L178 458.7000Q177.8600 461.2200 177.8600 464.0200Q177.8600 466.8200 178 469.4800L178 469.4800Q178.1400 473.6800 179.9600 477.5300Q181.7800 481.3800 185.2800 483.9000Q188.7800 486.4200 194.3800 486.4200ZM277.4000 501.4000L277.4000 501.4000Q266.2000 501.4000 258.5700 497.4800Q250.9400 493.5600 246.9500 486.4200Q242.9600 479.2800 242.4000 469.7600L242.4000 469.7600Q242.2600 467.2400 242.2600 463.6000Q242.2600 459.9600 242.4000 457.4400L242.4000 457.4400Q242.9600 447.7800 247.0900 440.7100Q251.2200 433.6400 258.8500 429.7200Q266.4800 425.8000 277.4000 425.8000L277.4000 425.8000Q288.3200 425.8000 295.9500 429.7200Q303.5800 433.6400 307.7100 440.7100Q311.8400 447.7800 312.4000 457.4400L312.4000 457.4400Q312.5400 459.9600 312.5400 463.6000Q312.5400 467.2400 312.4000 469.7600L312.4000 469.7600Q311.8400 479.2800 307.8500 486.4200Q303.8600 493.5600 296.2300 497.4800Q288.6000 501.4000 277.4000 501.4000ZM277.4000 487.5400L277.4000 487.5400Q284.8200 487.5400 288.8800 482.8500Q292.9400 478.1600 293.3600 469.0600L293.3600 469.0600Q293.5000 466.9600 293.5000 463.6000Q293.5000 460.2400 293.3600 458.1400L293.3600 458.1400Q292.9400 449.0400 288.8800 444.3500Q284.8200 439.6600 277.4000 439.6600L277.4000 439.6600Q269.9800 439.6600 265.9200 444.3500Q261.8600 449.0400 261.4400 458.1400L261.4400 458.1400Q261.3000 460.2400 261.3000 463.6000Q261.3000 466.9600 261.4400 469.0600L261.4400 469.0600Q261.8600 478.1600 265.9200 482.8500Q269.9800 487.5400 277.4000 487.5400ZM355.1000 501.4000L355.1000 501.4000Q347.8200 501.4000 342.2900 498.9500Q336.7600 496.5000 333.1200 492.0200Q329.4800 487.5400 327.5200 481.4500Q325.5600 475.3600 325.2800 468.0800L325.2800 468.0800Q325.1400 465.5600 325.1400 463.5300Q325.1400 461.5000 325.2800 458.9800L325.2800 458.9800Q325.5600 451.9800 327.4500 445.9600Q329.3400 439.9400 333.0500 435.3900Q336.7600 430.8400 342.2900 428.3200Q347.8200 425.8000 355.1000 425.8000L355.1000 425.8000Q362.6600 425.8000 367.9100 428.3900Q373.1600 430.9800 376.6600 435.0400L376.6600 435.0400L376.6600 403.9600Q376.6600 402.5600 377.5700 401.5800Q378.4800 400.6000 380.0200 400.6000L380.0200 400.6000L391.9200 400.6000Q393.3200 400.6000 394.3000 401.5800Q395.2800 402.5600 395.2800 403.9600L395.2800 403.9600L395.2800 496.6400Q395.2800 498.0400 394.3000 499.0200Q393.3200 500 391.9200 500L391.9200 500L380.8600 500Q379.3200 500 378.4100 499.0200Q377.5000 498.0400 377.5000 496.6400L377.5000 496.6400L377.5000 491.4600Q374.0000 495.8000 368.6100 498.6000Q363.2200 501.4000 355.1000 501.4000ZM360.2800 486.4200L360.2800 486.4200Q366.1600 486.4200 369.6600 483.7600Q373.1600 481.1000 374.8400 476.9700Q376.5200 472.8400 376.6600 468.5000L376.6600 468.5000Q376.8000 465.9800 376.8000 463.1100Q376.8000 460.2400 376.6600 457.7200L376.6600 457.7200Q376.5200 453.5200 374.7000 449.6700Q372.8800 445.8200 369.3800 443.3000Q365.8800 440.7800 360.2800 440.7800L360.2800 440.7800Q354.4000 440.7800 350.9700 443.3700Q347.5400 445.9600 346.0000 450.1600Q344.4600 454.3600 344.1800 459.4000L344.1800 459.4000Q344.0400 463.6000 344.1800 467.8000L344.1800 467.8000Q344.4600 472.8400 346.0000 477.0400Q347.5400 481.2400 350.9700 483.8300Q354.4000 486.4200 360.2800 486.4200ZM445.2600 501.4000L445.2600 501.4000Q429.7200 501.4000 420.6200 492.4400Q411.5200 483.4800 410.8200 466.9600L410.8200 466.9600Q410.6800 465.5600 410.6800 463.3900Q410.6800 461.2200 410.8200 459.9600L410.8200 459.9600Q411.3800 449.3200 415.6500 441.6900Q419.9200 434.0600 427.4800 429.9300Q435.0400 425.8000 445.2600 425.8000L445.2600 425.8000Q456.6000 425.8000 464.3000 430.4900Q472 435.1800 475.9200 443.5100Q479.8400 451.8400 479.8400 462.7600L479.8400 462.7600L479.8400 465.7000Q479.8400 467.1000 478.8600 468.0800Q477.8800 469.0600 476.3400 469.0600L476.3400 469.0600L429.8600 469.0600Q429.8600 469.0600 429.8600 469.4800Q429.8600 469.9000 429.8600 470.1800L429.8600 470.1800Q430 475.0800 431.7500 479.2100Q433.5000 483.3400 436.9300 485.8600Q440.3600 488.3800 445.1200 488.3800L445.1200 488.3800Q449.0400 488.3800 451.7000 487.1900Q454.3600 486 456.0400 484.4600Q457.7200 482.9200 458.4200 481.9400L458.4200 481.9400Q459.6800 480.2600 460.4500 479.9100Q461.2200 479.5600 462.7600 479.5600L462.7600 479.5600L474.8000 479.5600Q476.2000 479.5600 477.1100 480.4000Q478.0200 481.2400 477.8800 482.5000L477.8800 482.5000Q477.7400 484.7400 475.5700 487.9600Q473.4000 491.1800 469.3400 494.2600Q465.2800 497.3400 459.1900 499.3700Q453.1000 501.4000 445.2600 501.4000ZM429.8600 456.8800L429.8600 457.3000L460.8000 457.3000L460.8000 456.8800Q460.8000 451.4200 458.9800 447.2900Q457.1600 443.1600 453.6600 440.8500Q450.1600 438.5400 445.2600 438.5400L445.2600 438.5400Q440.3600 438.5400 436.8600 440.8500Q433.3600 443.1600 431.6100 447.2900Q429.8600 451.4200 429.8600 456.8800L429.8600 456.8800ZM553.7600 501.4000L553.7600 501.4000Q546.4800 501.4000 540.9500 498.9500Q535.4200 496.5000 531.7800 492.0200Q528.1400 487.5400 526.1800 481.4500Q524.2200 475.3600 523.9400 468.0800L523.9400 468.0800Q523.8000 465.5600 523.8000 463.5300Q523.8000 461.5000 523.9400 458.9800L523.9400 458.9800Q524.2200 451.9800 526.1100 445.9600Q528 439.9400 531.7100 435.3900Q535.4200 430.8400 540.9500 428.3200Q546.4800 425.8000 553.7600 425.8000L553.7600 425.8000Q561.3200 425.8000 566.5700 428.3900Q571.8200 430.9800 575.3200 435.0400L575.3200 435.0400L575.3200 403.9600Q575.3200 402.5600 576.2300 401.5800Q577.1400 400.6000 578.6800 400.6000L578.6800 400.6000L590.5800 400.6000Q591.9800 400.6000 592.9600 401.5800Q593.9400 402.5600 593.9400 403.9600L593.9400 403.9600L593.9400 496.6400Q593.9400 498.0400 592.9600 499.0200Q591.9800 500 590.5800 500L590.5800 500L579.5200 500Q577.9800 500 577.0700 499.0200Q576.1600 498.0400 576.1600 496.6400L576.1600 496.6400L576.1600 491.4600Q572.6600 495.8000 567.2700 498.6000Q561.8800 501.4000 553.7600 501.4000ZM558.9400 486.4200L558.9400 486.4200Q564.8200 486.4200 568.3200 483.7600Q571.8200 481.1000 573.5000 476.9700Q575.1800 472.8400 575.3200 468.5000L575.3200 468.5000Q575.4600 465.9800 575.4600 463.1100Q575.4600 460.2400 575.3200 457.7200L575.3200 457.7200Q575.1800 453.5200 573.3600 449.6700Q571.5400 445.8200 568.0400 443.3000Q564.5400 440.7800 558.9400 440.7800L558.9400 440.7800Q553.0600 440.7800 549.6300 443.3700Q546.2000 445.9600 544.6600 450.1600Q543.1200 454.3600 542.8400 459.4000L542.8400 459.4000Q542.7000 463.6000 542.8400 467.8000L542.8400 467.8000Q543.1200 472.8400 544.6600 477.0400Q546.2000 481.2400 549.6300 483.8300Q553.0600 486.4200 558.9400 486.4200ZM627.5400 500L615.9200 500Q614.5200 500 613.5400 499.0200Q612.5600 498.0400 612.5600 496.6400L612.5600 496.6400L612.5600 430.5600Q612.5600 429.1600 613.5400 428.1800Q614.5200 427.2000 615.9200 427.2000L615.9200 427.2000L627.5400 427.2000Q629.0800 427.2000 629.9900 428.1800Q630.9000 429.1600 630.9000 430.5600L630.9000 430.5600L630.9000 496.6400Q630.9000 498.0400 629.9900 499.0200Q629.0800 500 627.5400 500L627.5400 500ZM628.1000 415.1600L615.3600 415.1600Q613.9600 415.1600 612.9800 414.1800Q612 413.2000 612 411.8000L612 411.8000L612 401.7200Q612 400.3200 612.9800 399.3400Q613.9600 398.3600 615.3600 398.3600L615.3600 398.3600L628.1000 398.3600Q629.6400 398.3600 630.6200 399.3400Q631.6000 400.3200 631.6000 401.7200L631.6000 401.7200L631.6000 411.8000Q631.6000 413.2000 630.6200 414.1800Q629.6400 415.1600 628.1000 415.1600L628.1000 415.1600ZM664.6400 500L652.8800 500Q651.4800 500 650.5000 499.0200Q649.5200 498.0400 649.5200 496.6400L649.5200 496.6400L649.5200 430.5600Q649.5200 429.1600 650.5000 428.1800Q651.4800 427.2000 652.8800 427.2000L652.8800 427.2000L663.8000 427.2000Q665.2000 427.2000 666.1800 428.1800Q667.1600 429.1600 667.1600 430.5600L667.1600 430.5600L667.1600 435.3200Q670.1000 431.4000 675.0700 428.6700Q680.0400 425.9400 686.9000 425.8000L686.9000 425.8000Q702.8600 425.5200 709.1600 438.2600L709.1600 438.2600Q712.3800 432.6600 718.4700 429.2300Q724.5600 425.8000 731.9800 425.8000L731.9800 425.8000Q739.2600 425.8000 745.2100 429.1600Q751.1600 432.5200 754.5900 439.3100Q758.0200 446.1000 758.0200 456.4600L758.0200 456.4600L758.0200 496.6400Q758.0200 498.0400 757.0400 499.0200Q756.0600 500 754.6600 500L754.6600 500L743.1800 500Q741.7800 500 740.8000 499.0200Q739.8200 498.0400 739.8200 496.6400L739.8200 496.6400L739.8200 457.5800Q739.8200 451.2800 738.0000 447.5700Q736.1800 443.8600 733.1000 442.3200Q730.0200 440.7800 726.2400 440.7800L726.2400 440.7800Q723.1600 440.7800 720.0800 442.3200Q717.0000 443.8600 715.0400 447.5700Q713.0800 451.2800 713.0800 457.5800L713.0800 457.5800L713.0800 496.6400Q713.0800 498.0400 712.1000 499.0200Q711.1200 500 709.7200 500L709.7200 500L698.2400 500Q696.8400 500 695.8600 499.0200Q694.8800 498.0400 694.8800 496.6400L694.8800 496.6400L694.8800 457.5800Q694.8800 451.2800 692.9200 447.5700Q690.9600 443.8600 687.8800 442.3200Q684.8000 440.7800 681.3000 440.7800L681.3000 440.7800Q678.0800 440.7800 675.0000 442.3900Q671.9200 444 669.9600 447.6400Q668.0000 451.2800 668.0000 457.5800L668.0000 457.5800L668.0000 496.6400Q668.0000 498.0400 667.0200 499.0200Q666.0400 500 664.6400 500L664.6400 500ZM790.7800 500L779.1600 500Q777.7600 500 776.7800 499.0200Q775.8000 498.0400 775.8000 496.6400L775.8000 496.6400L775.8000 430.5600Q775.8000 429.1600 776.7800 428.1800Q777.7600 427.2000 779.1600 427.2000L779.1600 427.2000L790.7800 427.2000Q792.3200 427.2000 793.2300 428.1800Q794.1400 429.1600 794.1400 430.5600L794.1400 430.5600L794.1400 496.6400Q794.1400 498.0400 793.2300 499.0200Q792.3200 500 790.7800 500L790.7800 500ZM791.3400 415.1600L778.6000 415.1600Q777.2000 415.1600 776.2200 414.1800Q775.2400 413.2000 775.2400 411.8000L775.2400 411.8000L775.2400 401.7200Q775.2400 400.3200 776.2200 399.3400Q777.2000 398.3600 778.6000 398.3600L778.6000 398.3600L791.3400 398.3600Q792.8800 398.3600 793.8600 399.3400Q794.8400 400.3200 794.8400 401.7200L794.8400 401.7200L794.8400 411.8000Q794.8400 413.2000 793.8600 414.1800Q792.8800 415.1600 791.3400 415.1600L791.3400 415.1600ZM828.4400 500L816.1200 500Q814.7200 500 813.7400 499.0200Q812.7600 498.0400 812.7600 496.6400L812.7600 496.6400L812.7600 430.5600Q812.7600 429.1600 813.7400 428.1800Q814.7200 427.2000 816.1200 427.2000L816.1200 427.2000L827.6000 427.2000Q829.0000 427.2000 829.9800 428.1800Q830.9600 429.1600 830.9600 430.5600L830.9600 430.5600L830.9600 436.3000Q834.6000 431.8200 840.2700 428.8100Q845.9400 425.8000 854.3400 425.8000L854.3400 425.8000Q862.8800 425.8000 869.1800 429.6500Q875.4800 433.5000 878.9100 440.5000Q882.3400 447.5000 882.3400 457.3000L882.3400 457.3000L882.3400 496.6400Q882.3400 498.0400 881.3600 499.0200Q880.3800 500 878.9800 500L878.9800 500L866.6600 500Q865.2600 500 864.2800 499.0200Q863.3000 498.0400 863.3000 496.6400L863.3000 496.6400L863.3000 458.1400Q863.3000 450.0200 859.3100 445.4000Q855.3200 440.7800 847.7600 440.7800L847.7600 440.7800Q840.4800 440.7800 836.1400 445.4000Q831.8000 450.0200 831.8000 458.1400L831.8000 458.1400L831.8000 496.6400Q831.8000 498.0400 830.8200 499.0200Q829.8400 500 828.4400 500L828.4400 500ZM927.1400 501.4000L927.1400 501.4000Q918.6000 501.4000 912.3700 497.5500Q906.1400 493.7000 902.7800 486.6300Q899.4200 479.5600 899.4200 469.9000L899.4200 469.9000L899.4200 430.5600Q899.4200 429.1600 900.4000 428.1800Q901.3800 427.2000 902.7800 427.2000L902.7800 427.2000L915.1000 427.2000Q916.6400 427.2000 917.5500 428.1800Q918.4600 429.1600 918.4600 430.5600L918.4600 430.5600L918.4600 469.0600Q918.4600 486.4200 933.7200 486.4200L933.7200 486.4200Q941.0000 486.4200 945.2700 481.8000Q949.5400 477.1800 949.5400 469.0600L949.5400 469.0600L949.5400 430.5600Q949.5400 429.1600 950.5200 428.1800Q951.5000 427.2000 952.9000 427.2000L952.9000 427.2000L965.2200 427.2000Q966.6200 427.2000 967.6000 428.1800Q968.5800 429.1600 968.5800 430.5600L968.5800 430.5600L968.5800 496.6400Q968.5800 498.0400 967.6000 499.0200Q966.6200 500 965.2200 500L965.2200 500L953.8800 500Q952.3400 500 951.4300 499.0200Q950.5200 498.0400 950.5200 496.6400L950.5200 496.6400L950.5200 490.9000Q946.7400 495.8000 941.1400 498.6000Q935.5400 501.4000 927.1400 501.4000ZM1002.0400 500L990.4200 500Q989.0200 500 988.0400 499.0200Q987.0600 498.0400 987.0600 496.6400L987.0600 496.6400L987.0600 430.5600Q987.0600 429.1600 988.0400 428.1800Q989.0200 427.2000 990.4200 427.2000L990.4200 427.2000L1002.0400 427.2000Q1003.5800 427.2000 1004.4900 428.1800Q1005.4000 429.1600 1005.4000 430.5600L1005.4000 430.5600L1005.4000 496.6400Q1005.4000 498.0400 1004.4900 499.0200Q1003.5800 500 1002.0400 500L1002.0400 500ZM1002.6000 415.1600L989.8600 415.1600Q988.4600 415.1600 987.4800 414.1800Q986.5000 413.2000 986.5000 411.8000L986.5000 411.8000L986.5000 401.7200Q986.5000 400.3200 987.4800 399.3400Q988.4600 398.3600 989.8600 398.3600L989.8600 398.3600L1002.6000 398.3600Q1004.1400 398.3600 1005.1200 399.3400Q1006.1000 400.3200 1006.1000 401.7200L1006.1000 401.7200L1006.1000 411.8000Q1006.1000 413.2000 1005.1200 414.1800Q1004.1400 415.1600 1002.6000 415.1600L1002.6000 415.1600ZM1039.5600 500L1027.3800 500Q1025.9800 500 1025.0000 499.0200Q1024.0200 498.0400 1024.0200 496.6400L1024.0200 496.6400L1024.0200 430.7000Q1024.0200 429.1600 1025.0000 428.1800Q1025.9800 427.2000 1027.3800 427.2000L1027.3800 427.2000L1038.7200 427.2000Q1040.1200 427.2000 1041.1700 428.1800Q1042.2200 429.1600 1042.2200 430.7000L1042.2200 430.7000L1042.2200 436.4400Q1045.4400 431.9600 1050.5500 429.5800Q1055.6600 427.2000 1062.3800 427.2000L1062.3800 427.2000L1068.1200 427.2000Q1069.6600 427.2000 1070.5700 428.1800Q1071.4800 429.1600 1071.4800 430.5600L1071.4800 430.5600L1071.4800 440.6400Q1071.4800 442.0400 1070.5700 443.0200Q1069.6600 444 1068.1200 444L1068.1200 444L1057.2000 444Q1050.4800 444 1046.7700 447.7100Q1043.0600 451.4200 1043.0600 458.1400L1043.0600 458.1400L1043.0600 496.6400Q1043.0600 498.0400 1042.0800 499.0200Q1041.1000 500 1039.5600 500L1039.5600 500ZM1146.6600 501.4000L1146.6600 501.4000Q1135.4600 501.4000 1127.8300 497.4800Q1120.2000 493.5600 1116.2100 486.4200Q1112.2200 479.2800 1111.6600 469.7600L1111.6600 469.7600Q1111.5200 467.2400 1111.5200 463.6000Q1111.5200 459.9600 1111.6600 457.4400L1111.6600 457.4400Q1112.2200 447.7800 1116.3500 440.7100Q1120.4800 433.6400 1128.1100 429.7200Q1135.7400 425.8000 1146.6600 425.8000L1146.6600 425.8000Q1157.5800 425.8000 1165.2100 429.7200Q1172.8400 433.6400 1176.9700 440.7100Q1181.1000 447.7800 1181.6600 457.4400L1181.6600 457.4400Q1181.8000 459.9600 1181.8000 463.6000Q1181.8000 467.2400 1181.6600 469.7600L1181.6600 469.7600Q1181.1000 479.2800 1177.1100 486.4200Q1173.1200 493.5600 1165.4900 497.4800Q1157.8600 501.4000 1146.6600 501.4000ZM1146.6600 487.5400L1146.6600 487.5400Q1154.0800 487.5400 1158.1400 482.8500Q1162.2000 478.1600 1162.6200 469.0600L1162.6200 469.0600Q1162.7600 466.9600 1162.7600 463.6000Q1162.7600 460.2400 1162.6200 458.1400L1162.6200 458.1400Q1162.2000 449.0400 1158.1400 444.3500Q1154.0800 439.6600 1146.6600 439.6600L1146.6600 439.6600Q1139.2400 439.6600 1135.1800 444.3500Q1131.1200 449.0400 1130.7000 458.1400L1130.7000 458.1400Q1130.5600 460.2400 1130.5600 463.6000Q1130.5600 466.9600 1130.7000 469.0600L1130.7000 469.0600Q1131.1200 478.1600 1135.1800 482.8500Q1139.2400 487.5400 1146.6600 487.5400ZM203.4800 640L192.1400 640Q183.7400 640 178 637.0600Q172.2600 634.1200 169.4600 628.3100Q166.6600 622.5000 166.6600 613.8200L166.6600 613.8200L166.6600 582.0400L155.6000 582.0400Q154.2000 582.0400 153.2200 581.0600Q152.2400 580.0800 152.2400 578.5400L152.2400 578.5400L152.2400 570.5600Q152.2400 569.1600 153.2200 568.1800Q154.2000 567.2000 155.6000 567.2000L155.6000 567.2000L166.6600 567.2000L166.6600 543.9600Q166.6600 542.5600 167.5700 541.5800Q168.4800 540.6000 170.0200 540.6000L170.0200 540.6000L181.3600 540.6000Q182.7600 540.6000 183.7400 541.5800Q184.7200 542.5600 184.7200 543.9600L184.7200 543.9600L184.7200 567.2000L202.2200 567.2000Q203.6200 567.2000 204.6000 568.1800Q205.5800 569.1600 205.5800 570.5600L205.5800 570.5600L205.5800 578.5400Q205.5800 580.0800 204.6000 581.0600Q203.6200 582.0400 202.2200 582.0400L202.2200 582.0400L184.7200 582.0400L184.7200 612.4200Q184.7200 618.1600 186.7500 621.3800Q188.7800 624.6000 193.8200 624.6000L193.8200 624.6000L203.4800 624.6000Q204.8800 624.6000 205.8600 625.5800Q206.8400 626.5600 206.8400 627.9600L206.8400 627.9600L206.8400 636.6400Q206.8400 638.0400 205.8600 639.0200Q204.8800 640 203.4800 640L203.4800 640ZM250.6600 641.4000L250.6600 641.4000Q235.1200 641.4000 226.0200 632.4400Q216.9200 623.4800 216.2200 606.9600L216.2200 606.9600Q216.0800 605.5600 216.0800 603.3900Q216.0800 601.2200 216.2200 599.9600L216.2200 599.9600Q216.7800 589.3200 221.0500 581.6900Q225.3200 574.0600 232.8800 569.9300Q240.4400 565.8000 250.6600 565.8000L250.6600 565.8000Q262 565.8000 269.7000 570.4900Q277.4000 575.1800 281.3200 583.5100Q285.2400 591.8400 285.2400 602.7600L285.2400 602.7600L285.2400 605.7000Q285.2400 607.1000 284.2600 608.0800Q283.2800 609.0600 281.7400 609.0600L281.7400 609.0600L235.2600 609.0600Q235.2600 609.0600 235.2600 609.4800Q235.2600 609.9000 235.2600 610.1800L235.2600 610.1800Q235.4000 615.0800 237.1500 619.2100Q238.9000 623.3400 242.3300 625.8600Q245.7600 628.3800 250.5200 628.3800L250.5200 628.3800Q254.4400 628.3800 257.1000 627.1900Q259.7600 626 261.4400 624.4600Q263.1200 622.9200 263.8200 621.9400L263.8200 621.9400Q265.0800 620.2600 265.8500 619.9100Q266.6200 619.5600 268.1600 619.5600L268.1600 619.5600L280.2000 619.5600Q281.6000 619.5600 282.5100 620.4000Q283.4200 621.2400 283.2800 622.5000L283.2800 622.5000Q283.1400 624.7400 280.9700 627.9600Q278.8000 631.1800 274.7400 634.2600Q270.6800 637.3400 264.5900 639.3700Q258.5000 641.4000 250.6600 641.4000ZM235.2600 596.8800L235.2600 597.3000L266.2000 597.3000L266.2000 596.8800Q266.2000 591.4200 264.3800 587.2900Q262.5600 583.1600 259.0600 580.8500Q255.5600 578.5400 250.6600 578.5400L250.6600 578.5400Q245.7600 578.5400 242.2600 580.8500Q238.7600 583.1600 237.0100 587.2900Q235.2600 591.4200 235.2600 596.8800L235.2600 596.8800ZM315.2000 640L303.4400 640Q302.0400 640 301.0600 639.0200Q300.0800 638.0400 300.0800 636.6400L300.0800 636.6400L300.0800 570.5600Q300.0800 569.1600 301.0600 568.1800Q302.0400 567.2000 303.4400 567.2000L303.4400 567.2000L314.3600 567.2000Q315.7600 567.2000 316.7400 568.1800Q317.7200 569.1600 317.7200 570.5600L317.7200 570.5600L317.7200 575.3200Q320.6600 571.4000 325.6300 568.6700Q330.6000 565.9400 337.4600 565.8000L337.4600 565.8000Q353.4200 565.5200 359.7200 578.2600L359.7200 578.2600Q362.9400 572.6600 369.0300 569.2300Q375.1200 565.8000 382.5400 565.8000L382.5400 565.8000Q389.8200 565.8000 395.7700 569.1600Q401.7200 572.5200 405.1500 579.3100Q408.5800 586.1000 408.5800 596.4600L408.5800 596.4600L408.5800 636.6400Q408.5800 638.0400 407.6000 639.0200Q406.6200 640 405.2200 640L405.2200 640L393.7400 640Q392.3400 640 391.3600 639.0200Q390.3800 638.0400 390.3800 636.6400L390.3800 636.6400L390.3800 597.5800Q390.3800 591.2800 388.5600 587.5700Q386.7400 583.8600 383.6600 582.3200Q380.5800 580.7800 376.8000 580.7800L376.8000 580.7800Q373.7200 580.7800 370.6400 582.3200Q367.5600 583.8600 365.6000 587.5700Q363.6400 591.2800 363.6400 597.5800L363.6400 597.5800L363.6400 636.6400Q363.6400 638.0400 362.6600 639.0200Q361.6800 640 360.2800 640L360.2800 640L348.8000 640Q347.4000 640 346.4200 639.0200Q345.4400 638.0400 345.4400 636.6400L345.4400 636.6400L345.4400 597.5800Q345.4400 591.2800 343.4800 587.5700Q341.5200 583.8600 338.4400 582.3200Q335.3600 580.7800 331.8600 580.7800L331.8600 580.7800Q328.6400 580.7800 325.5600 582.3900Q322.4800 584 320.5200 587.6400Q318.5600 591.2800 318.5600 597.5800L318.5600 597.5800L318.5600 636.6400Q318.5600 638.0400 317.5800 639.0200Q316.6000 640 315.2000 640L315.2000 640ZM441.7600 666.6000L429.8600 666.6000Q428.4600 666.6000 427.4800 665.6200Q426.5000 664.6400 426.5000 663.2400L426.5000 663.2400L426.5000 570.5600Q426.5000 569.1600 427.4800 568.1800Q428.4600 567.2000 429.8600 567.2000L429.8600 567.2000L440.9200 567.2000Q442.4600 567.2000 443.3700 568.1800Q444.2800 569.1600 444.2800 570.5600L444.2800 570.5600L444.2800 576.1600Q447.6400 571.6800 453.1000 568.7400Q458.5600 565.8000 466.6800 565.8000L466.6800 565.8000Q474.1000 565.8000 479.5600 568.1800Q485.0200 570.5600 488.6600 574.9700Q492.3000 579.3800 494.2600 585.4000Q496.2200 591.4200 496.5000 598.7000L496.5000 598.7000Q496.6400 601.0800 496.6400 603.6000Q496.6400 606.1200 496.5000 608.6400L496.5000 608.6400Q496.3600 615.6400 494.4000 621.5900Q492.4400 627.5400 488.7300 631.9500Q485.0200 636.3600 479.5600 638.8800Q474.1000 641.4000 466.6800 641.4000L466.6800 641.4000Q459.1200 641.4000 453.8000 638.6700Q448.4800 635.9400 445.1200 631.4600L445.1200 631.4600L445.1200 663.2400Q445.1200 664.6400 444.2100 665.6200Q443.3000 666.6000 441.7600 666.6000L441.7600 666.6000ZM461.5000 626.4200L461.5000 626.4200Q467.5200 626.4200 470.8800 623.8300Q474.2400 621.2400 475.7800 617.0400Q477.3200 612.8400 477.6000 607.8000L477.6000 607.8000Q477.7400 603.6000 477.6000 599.4000L477.6000 599.4000Q477.3200 594.3600 475.7800 590.1600Q474.2400 585.9600 470.8800 583.3700Q467.5200 580.7800 461.5000 580.7800L461.5000 580.7800Q455.7600 580.7800 452.1900 583.4400Q448.6200 586.1000 447.0100 590.2300Q445.4000 594.3600 445.1200 598.7000L445.1200 598.7000Q444.9800 601.2200 444.9800 604.0200Q444.9800 606.8200 445.1200 609.4800L445.1200 609.4800Q445.2600 613.6800 447.0800 617.5300Q448.9000 621.3800 452.4000 623.9000Q455.9000 626.4200 461.5000 626.4200ZM544.5200 641.4000L544.5200 641.4000Q533.3200 641.4000 525.6900 637.4800Q518.0600 633.5600 514.0700 626.4200Q510.0800 619.2800 509.5200 609.7600L509.5200 609.7600Q509.3800 607.2400 509.3800 603.6000Q509.3800 599.9600 509.5200 597.4400L509.5200 597.4400Q510.0800 587.7800 514.2100 580.7100Q518.3400 573.6400 525.9700 569.7200Q533.6000 565.8000 544.5200 565.8000L544.5200 565.8000Q555.4400 565.8000 563.0700 569.7200Q570.7000 573.6400 574.8300 580.7100Q578.9600 587.7800 579.5200 597.4400L579.5200 597.4400Q579.6600 599.9600 579.6600 603.6000Q579.6600 607.2400 579.5200 609.7600L579.5200 609.7600Q578.9600 619.2800 574.9700 626.4200Q570.9800 633.5600 563.3500 637.4800Q555.7200 641.4000 544.5200 641.4000ZM544.5200 627.5400L544.5200 627.5400Q551.9400 627.5400 556 622.8500Q560.0600 618.1600 560.4800 609.0600L560.4800 609.0600Q560.6200 606.9600 560.6200 603.6000Q560.6200 600.2400 560.4800 598.1400L560.4800 598.1400Q560.0600 589.0400 556 584.3500Q551.9400 579.6600 544.5200 579.6600L544.5200 579.6600Q537.1000 579.6600 533.0400 584.3500Q528.9800 589.0400 528.5600 598.1400L528.5600 598.1400Q528.4200 600.2400 528.4200 603.6000Q528.4200 606.9600 528.5600 609.0600L528.5600 609.0600Q528.9800 618.1600 533.0400 622.8500Q537.1000 627.5400 544.5200 627.5400ZM654.2800 641.4000L654.2800 641.4000Q647 641.4000 641.4700 638.9500Q635.9400 636.5000 632.3000 632.0200Q628.6600 627.5400 626.7000 621.4500Q624.7400 615.3600 624.4600 608.0800L624.4600 608.0800Q624.3200 605.5600 624.3200 603.5300Q624.3200 601.5000 624.4600 598.9800L624.4600 598.9800Q624.7400 591.9800 626.6300 585.9600Q628.5200 579.9400 632.2300 575.3900Q635.9400 570.8400 641.4700 568.3200Q647 565.8000 654.2800 565.8000L654.2800 565.8000Q661.8400 565.8000 667.0900 568.3900Q672.3400 570.9800 675.8400 575.0400L675.8400 575.0400L675.8400 543.9600Q675.8400 542.5600 676.7500 541.5800Q677.6600 540.6000 679.2000 540.6000L679.2000 540.6000L691.1000 540.6000Q692.5000 540.6000 693.4800 541.5800Q694.4600 542.5600 694.4600 543.9600L694.4600 543.9600L694.4600 636.6400Q694.4600 638.0400 693.4800 639.0200Q692.5000 640 691.1000 640L691.1000 640L680.0400 640Q678.5000 640 677.5900 639.0200Q676.6800 638.0400 676.6800 636.6400L676.6800 636.6400L676.6800 631.4600Q673.1800 635.8000 667.7900 638.6000Q662.4000 641.4000 654.2800 641.4000ZM659.4600 626.4200L659.4600 626.4200Q665.3400 626.4200 668.8400 623.7600Q672.3400 621.1000 674.0200 616.9700Q675.7000 612.8400 675.8400 608.5000L675.8400 608.5000Q675.9800 605.9800 675.9800 603.1100Q675.9800 600.2400 675.8400 597.7200L675.8400 597.7200Q675.7000 593.5200 673.8800 589.6700Q672.0600 585.8200 668.5600 583.3000Q665.0600 580.7800 659.4600 580.7800L659.4600 580.7800Q653.5800 580.7800 650.1500 583.3700Q646.7200 585.9600 645.1800 590.1600Q643.6400 594.3600 643.3600 599.4000L643.3600 599.4000Q643.2200 603.6000 643.3600 607.8000L643.3600 607.8000Q643.6400 612.8400 645.1800 617.0400Q646.7200 621.2400 650.1500 623.8300Q653.5800 626.4200 659.4600 626.4200ZM744.4400 641.4000L744.4400 641.4000Q728.9000 641.4000 719.8000 632.4400Q710.7000 623.4800 710 606.9600L710 606.9600Q709.8600 605.5600 709.8600 603.3900Q709.8600 601.2200 710 599.9600L710 599.9600Q710.5600 589.3200 714.8300 581.6900Q719.1000 574.0600 726.6600 569.9300Q734.2200 565.8000 744.4400 565.8000L744.4400 565.8000Q755.7800 565.8000 763.4800 570.4900Q771.1800 575.1800 775.1000 583.5100Q779.0200 591.8400 779.0200 602.7600L779.0200 602.7600L779.0200 605.7000Q779.0200 607.1000 778.0400 608.0800Q777.0600 609.0600 775.5200 609.0600L775.5200 609.0600L729.0400 609.0600Q729.0400 609.0600 729.0400 609.4800Q729.0400 609.9000 729.0400 610.1800L729.0400 610.1800Q729.1800 615.0800 730.9300 619.2100Q732.6800 623.3400 736.1100 625.8600Q739.5400 628.3800 744.3000 628.3800L744.3000 628.3800Q748.2200 628.3800 750.8800 627.1900Q753.5400 626 755.2200 624.4600Q756.9000 622.9200 757.6000 621.9400L757.6000 621.9400Q758.8600 620.2600 759.6300 619.9100Q760.4000 619.5600 761.9400 619.5600L761.9400 619.5600L773.9800 619.5600Q775.3800 619.5600 776.2900 620.4000Q777.2000 621.2400 777.0600 622.5000L777.0600 622.5000Q776.9200 624.7400 774.7500 627.9600Q772.5800 631.1800 768.5200 634.2600Q764.4600 637.3400 758.3700 639.3700Q752.2800 641.4000 744.4400 641.4000ZM729.0400 596.8800L729.0400 597.3000L759.9800 597.3000L759.9800 596.8800Q759.9800 591.4200 758.1600 587.2900Q756.3400 583.1600 752.8400 580.8500Q749.3400 578.5400 744.4400 578.5400L744.4400 578.5400Q739.5400 578.5400 736.0400 580.8500Q732.5400 583.1600 730.7900 587.2900Q729.0400 591.4200 729.0400 596.8800L729.0400 596.8800ZM866.2400 641.4000L866.2400 641.4000Q858.1200 641.4000 852.7300 638.6000Q847.3400 635.8000 843.8400 631.4600L843.8400 631.4600L843.8400 636.6400Q843.8400 638.0400 842.9300 639.0200Q842.0200 640 840.4800 640L840.4800 640L829.4200 640Q828.0200 640 827.0400 639.0200Q826.0600 638.0400 826.0600 636.6400L826.0600 636.6400L826.0600 543.9600Q826.0600 542.5600 827.0400 541.5800Q828.0200 540.6000 829.4200 540.6000L829.4200 540.6000L841.3200 540.6000Q842.8600 540.6000 843.7700 541.5800Q844.6800 542.5600 844.6800 543.9600L844.6800 543.9600L844.6800 575.0400Q848.1800 570.9800 853.4300 568.3900Q858.6800 565.8000 866.2400 565.8000L866.2400 565.8000Q873.6600 565.8000 879.1200 568.3200Q884.5800 570.8400 888.2900 575.3900Q892.0000 579.9400 893.9600 585.9600Q895.9200 591.9800 896.0600 598.9800L896.0600 598.9800Q896.2000 601.5000 896.2000 603.5300Q896.2000 605.5600 896.0600 608.0800L896.0600 608.0800Q895.7800 615.3600 893.8200 621.4500Q891.8600 627.5400 888.2200 632.0200Q884.5800 636.5000 879.1200 638.9500Q873.6600 641.4000 866.2400 641.4000ZM861.0600 626.4200L861.0600 626.4200Q867.0800 626.4200 870.4400 623.8300Q873.8000 621.2400 875.3400 617.0400Q876.8800 612.8400 877.1600 607.8000L877.1600 607.8000Q877.3000 603.6000 877.1600 599.4000L877.1600 599.4000Q876.8800 594.3600 875.3400 590.1600Q873.8000 585.9600 870.4400 583.3700Q867.0800 580.7800 861.0600 580.7800L861.0600 580.7800Q855.4600 580.7800 851.9600 583.3000Q848.4600 585.8200 846.6400 589.6700Q844.8200 593.5200 844.6800 597.7200L844.6800 597.7200Q844.5400 600.2400 844.5400 603.1100Q844.5400 605.9800 844.6800 608.5000L844.6800 608.5000Q844.9600 612.8400 846.5700 616.9700Q848.1800 621.1000 851.7500 623.7600Q855.3200 626.4200 861.0600 626.4200ZM938.7600 641.4000L938.7600 641.4000Q930.2200 641.4000 923.9900 637.5500Q917.7600 633.7000 914.4000 626.6300Q911.0400 619.5600 911.0400 609.9000L911.0400 609.9000L911.0400 570.5600Q911.0400 569.1600 912.0200 568.1800Q913.0000 567.2000 914.4000 567.2000L914.4000 567.2000L926.7200 567.2000Q928.2600 567.2000 929.1700 568.1800Q930.0800 569.1600 930.0800 570.5600L930.0800 570.5600L930.0800 609.0600Q930.0800 626.4200 945.3400 626.4200L945.3400 626.4200Q952.6200 626.4200 956.8900 621.8000Q961.1600 617.1800 961.1600 609.0600L961.1600 609.0600L961.1600 570.5600Q961.1600 569.1600 962.1400 568.1800Q963.1200 567.2000 964.5200 567.2000L964.5200 567.2000L976.8400 567.2000Q978.2400 567.2000 979.2200 568.1800Q980.2000 569.1600 980.2000 570.5600L980.2000 570.5600L980.2000 636.6400Q980.2000 638.0400 979.2200 639.0200Q978.2400 640 976.8400 640L976.8400 640L965.5000 640Q963.9600 640 963.0500 639.0200Q962.1400 638.0400 962.1400 636.6400L962.1400 636.6400L962.1400 630.9000Q958.3600 635.8000 952.7600 638.6000Q947.1600 641.4000 938.7600 641.4000ZM1026.2600 641.4000L1026.2600 641.4000Q1017.8600 641.4000 1011.9100 639.4400Q1005.9600 637.4800 1002.1800 634.5400Q998.4000 631.6000 996.5800 628.6600Q994.7600 625.7200 994.6200 623.7600L994.6200 623.7600Q994.4800 622.2200 995.5300 621.3100Q996.5800 620.4000 997.8400 620.4000L997.8400 620.4000L1008.9000 620.4000Q1009.4600 620.4000 1009.8800 620.5400Q1010.3000 620.6800 1011.0000 621.3800L1011.0000 621.3800Q1012.8200 622.9200 1014.8500 624.6000Q1016.8800 626.2800 1019.6800 627.4700Q1022.4800 628.6600 1026.6800 628.6600L1026.6800 628.6600Q1032.1400 628.6600 1035.8500 626.4900Q1039.5600 624.3200 1039.5600 620.2600L1039.5600 620.2600Q1039.5600 617.3200 1037.9500 615.5000Q1036.3400 613.6800 1032.0000 612.2100Q1027.6600 610.7400 1019.6800 609.0600L1019.6800 609.0600Q1011.8400 607.2400 1006.6600 604.4400Q1001.4800 601.6400 998.9600 597.4400Q996.4400 593.2400 996.4400 587.6400L996.4400 587.6400Q996.4400 582.1800 999.7300 577.2100Q1003.0200 572.2400 1009.5300 569.0200Q1016.0400 565.8000 1025.7000 565.8000L1025.7000 565.8000Q1033.2600 565.8000 1038.8600 567.6900Q1044.4600 569.5800 1048.1700 572.3800Q1051.8800 575.1800 1053.8400 578.0500Q1055.8000 580.9200 1055.9400 583.0200L1055.9400 583.0200Q1056.0800 584.5600 1055.1000 585.4700Q1054.1200 586.3800 1052.8600 586.3800L1052.8600 586.3800L1042.5000 586.3800Q1041.8000 586.3800 1041.2400 586.1000Q1040.6800 585.8200 1040.1200 585.4000L1040.1200 585.4000Q1038.5800 584 1036.7600 582.3900Q1034.9400 580.7800 1032.3500 579.6600Q1029.7600 578.5400 1025.5600 578.5400L1025.5600 578.5400Q1020.2400 578.5400 1017.4400 580.8500Q1014.6400 583.1600 1014.6400 586.6600L1014.6400 586.6600Q1014.6400 589.0400 1015.9700 590.7900Q1017.3000 592.5400 1021.3600 594.0800Q1025.4200 595.6200 1033.6800 597.3000L1033.6800 597.3000Q1043.0600 598.9800 1048.5900 602.2700Q1054.1200 605.5600 1056.4300 609.8300Q1058.7400 614.1000 1058.7400 619.2800L1058.7400 619.2800Q1058.7400 625.5800 1055.0300 630.6200Q1051.3200 635.6600 1044.1100 638.5300Q1036.9000 641.4000 1026.2600 641.4000ZM1104.6600 641.4000L1104.6600 641.4000Q1094.5800 641.4000 1086.9500 637.6200Q1079.3200 633.8400 1075.0500 626.6300Q1070.7800 619.4200 1070.3600 609.2000L1070.3600 609.2000Q1070.2200 607.1000 1070.2200 603.6700Q1070.2200 600.2400 1070.3600 598L1070.3600 598Q1070.7800 587.7800 1075.0500 580.5700Q1079.3200 573.3600 1086.9500 569.5800Q1094.5800 565.8000 1104.6600 565.8000L1104.6600 565.8000Q1113.6200 565.8000 1119.9200 568.2500Q1126.2200 570.7000 1130.2800 574.5500Q1134.3400 578.4000 1136.3700 582.5300Q1138.4000 586.6600 1138.5400 590.0200L1138.5400 590.0200Q1138.6800 591.5600 1137.6300 592.4700Q1136.5800 593.3800 1135.1800 593.3800L1135.1800 593.3800L1122.8600 593.3800Q1121.4600 593.3800 1120.6900 592.6800Q1119.9200 591.9800 1119.2200 590.5800L1119.2200 590.5800Q1117.1200 584.9800 1113.6900 582.6700Q1110.2600 580.3600 1104.9400 580.3600L1104.9400 580.3600Q1097.9400 580.3600 1093.8100 584.7700Q1089.6800 589.1800 1089.4000 598.7000L1089.4000 598.7000Q1089.1200 604.0200 1089.4000 608.5000L1089.4000 608.5000Q1089.6800 618.1600 1093.8100 622.5000Q1097.9400 626.8400 1104.9400 626.8400L1104.9400 626.8400Q1110.4000 626.8400 1113.7600 624.5300Q1117.1200 622.2200 1119.2200 616.6200L1119.2200 616.6200Q1119.9200 615.2200 1120.6900 614.5200Q1121.4600 613.8200 1122.8600 613.8200L1122.8600 613.8200L1135.1800 613.8200Q1136.5800 613.8200 1137.6300 614.7300Q1138.6800 615.6400 1138.5400 617.1800L1138.5400 617.1800Q1138.4000 619.7000 1137.2100 622.8500Q1136.0200 626 1133.4300 629.2900Q1130.8400 632.5800 1126.9200 635.3100Q1123 638.0400 1117.4700 639.7200Q1111.9400 641.4000 1104.6600 641.4000ZM1174.2400 641.4000L1174.2400 641.4000Q1166.9600 641.4000 1161.0800 638.5300Q1155.2000 635.6600 1151.7700 630.8300Q1148.3400 626 1148.3400 619.9800L1148.3400 619.9800Q1148.3400 610.1800 1156.3200 604.3700Q1164.3000 598.5600 1177.1800 596.6000L1177.1800 596.6000L1196.3600 593.8000L1196.3600 590.8600Q1196.3600 584.9800 1193.4200 581.7600Q1190.4800 578.5400 1183.3400 578.5400L1183.3400 578.5400Q1178.3000 578.5400 1175.1500 580.5700Q1172.0000 582.6000 1170.4600 585.9600L1170.4600 585.9600Q1169.3400 587.7800 1167.2400 587.7800L1167.2400 587.7800L1156.1800 587.7800Q1154.6400 587.7800 1153.8700 586.9400Q1153.1000 586.1000 1153.1000 584.7000L1153.1000 584.7000Q1153.2400 582.4600 1154.9900 579.2400Q1156.7400 576.0200 1160.3100 573.0100Q1163.8800 570 1169.6200 567.9000Q1175.3600 565.8000 1183.4800 565.8000L1183.4800 565.8000Q1192.3000 565.8000 1198.3900 567.9700Q1204.4800 570.1400 1208.1200 573.7800Q1211.7600 577.4200 1213.4400 582.3200Q1215.1200 587.2200 1215.1200 592.6800L1215.1200 592.6800L1215.1200 636.6400Q1215.1200 638.0400 1214.1400 639.0200Q1213.1600 640 1211.7600 640L1211.7600 640L1200.4200 640Q1198.8800 640 1197.9700 639.0200Q1197.0600 638.0400 1197.0600 636.6400L1197.0600 636.6400L1197.0600 631.1800Q1195.2400 633.7000 1192.1600 636.0800Q1189.0800 638.4600 1184.6700 639.9300Q1180.2600 641.4000 1174.2400 641.4000ZM1179.0000 628.1000L1179.0000 628.1000Q1183.9000 628.1000 1187.8900 626Q1191.8800 623.9000 1194.1900 619.4900Q1196.5000 615.0800 1196.5000 608.3600L1196.5000 608.3600L1196.5000 605.4200L1182.5000 607.6600Q1174.2400 608.9200 1170.1800 611.7200Q1166.1200 614.5200 1166.1200 618.5800L1166.1200 618.5800Q1166.1200 621.6600 1168.0100 623.8300Q1169.9000 626 1172.8400 627.0500Q1175.7800 628.1000 1179.0000 628.1000ZM1292.1200 641.4000L1292.1200 641.4000Q1284.8400 641.4000 1279.3100 638.9500Q1273.7800 636.5000 1270.1400 632.0200Q1266.5000 627.5400 1264.5400 621.4500Q1262.5800 615.3600 1262.3000 608.0800L1262.3000 608.0800Q1262.1600 605.5600 1262.1600 603.5300Q1262.1600 601.5000 1262.3000 598.9800L1262.3000 598.9800Q1262.5800 591.9800 1264.4700 585.9600Q1266.3600 579.9400 1270.0700 575.3900Q1273.7800 570.8400 1279.3100 568.3200Q1284.8400 565.8000 1292.1200 565.8000L1292.1200 565.8000Q1299.6800 565.8000 1304.9300 568.3900Q1310.1800 570.9800 1313.6800 575.0400L1313.6800 575.0400L1313.6800 543.9600Q1313.6800 542.5600 1314.5900 541.5800Q1315.5000 540.6000 1317.0400 540.6000L1317.0400 540.6000L1328.9400 540.6000Q1330.3400 540.6000 1331.3200 541.5800Q1332.3000 542.5600 1332.3000 543.9600L1332.3000 543.9600L1332.3000 636.6400Q1332.3000 638.0400 1331.3200 639.0200Q1330.3400 640 1328.9400 640L1328.9400 640L1317.8800 640Q1316.3400 640 1315.4300 639.0200Q1314.5200 638.0400 1314.5200 636.6400L1314.5200 636.6400L1314.5200 631.4600Q1311.0200 635.8000 1305.6300 638.6000Q1300.2400 641.4000 1292.1200 641.4000ZM1297.3000 626.4200L1297.3000 626.4200Q1303.1800 626.4200 1306.6800 623.7600Q1310.1800 621.1000 1311.8600 616.9700Q1313.5400 612.8400 1313.6800 608.5000L1313.6800 608.5000Q1313.8200 605.9800 1313.8200 603.1100Q1313.8200 600.2400 1313.6800 597.7200L1313.6800 597.7200Q1313.5400 593.5200 1311.7200 589.6700Q1309.9000 585.8200 1306.4000 583.3000Q1302.9000 580.7800 1297.3000 580.7800L1297.3000 580.7800Q1291.4200 580.7800 1287.9900 583.3700Q1284.5600 585.9600 1283.0200 590.1600Q1281.4800 594.3600 1281.2000 599.4000L1281.2000 599.4000Q1281.0600 603.6000 1281.2000 607.8000L1281.2000 607.8000Q1281.4800 612.8400 1283.0200 617.0400Q1284.5600 621.2400 1287.9900 623.8300Q1291.4200 626.4200 1297.3000 626.4200ZM1382.2800 641.4000L1382.2800 641.4000Q1366.7400 641.4000 1357.6400 632.4400Q1348.5400 623.4800 1347.8400 606.9600L1347.8400 606.9600Q1347.7000 605.5600 1347.7000 603.3900Q1347.7000 601.2200 1347.8400 599.9600L1347.8400 599.9600Q1348.4000 589.3200 1352.6700 581.6900Q1356.9400 574.0600 1364.5000 569.9300Q1372.0600 565.8000 1382.2800 565.8000L1382.2800 565.8000Q1393.6200 565.8000 1401.3200 570.4900Q1409.0200 575.1800 1412.9400 583.5100Q1416.8600 591.8400 1416.8600 602.7600L1416.8600 602.7600L1416.8600 605.7000Q1416.8600 607.1000 1415.8800 608.0800Q1414.9000 609.0600 1413.3600 609.0600L1413.3600 609.0600L1366.8800 609.0600Q1366.8800 609.0600 1366.8800 609.4800Q1366.8800 609.9000 1366.8800 610.1800L1366.8800 610.1800Q1367.0200 615.0800 1368.7700 619.2100Q1370.5200 623.3400 1373.9500 625.8600Q1377.3800 628.3800 1382.1400 628.3800L1382.1400 628.3800Q1386.0600 628.3800 1388.7200 627.1900Q1391.3800 626 1393.0600 624.4600Q1394.7400 622.9200 1395.4400 621.9400L1395.4400 621.9400Q1396.7000 620.2600 1397.4700 619.9100Q1398.2400 619.5600 1399.7800 619.5600L1399.7800 619.5600L1411.8200 619.5600Q1413.2200 619.5600 1414.1300 620.4000Q1415.0400 621.2400 1414.9000 622.5000L1414.9000 622.5000Q1414.7600 624.7400 1412.5900 627.9600Q1410.4200 631.1800 1406.3600 634.2600Q1402.3000 637.3400 1396.2100 639.3700Q1390.1200 641.4000 1382.2800 641.4000ZM1366.8800 596.8800L1366.8800 597.3000L1397.8200 597.3000L1397.8200 596.8800Q1397.8200 591.4200 1396 587.2900Q1394.1800 583.1600 1390.6800 580.8500Q1387.1800 578.5400 1382.2800 578.5400L1382.2800 578.5400Q1377.3800 578.5400 1373.8800 580.8500Q1370.3800 583.1600 1368.6300 587.2900Q1366.8800 591.4200 1366.8800 596.8800L1366.8800 596.8800ZM186.2600 781.4000L186.2600 781.4000Q178.9800 781.4000 173.4500 778.9500Q167.9200 776.5000 164.2800 772.0200Q160.6400 767.5400 158.6800 761.4500Q156.7200 755.3600 156.4400 748.0800L156.4400 748.0800Q156.3000 745.5600 156.3000 743.5300Q156.3000 741.5000 156.4400 738.9800L156.4400 738.9800Q156.7200 731.9800 158.6100 725.9600Q160.5000 719.9400 164.2100 715.3900Q167.9200 710.8400 173.4500 708.3200Q178.9800 705.8000 186.2600 705.8000L186.2600 705.8000Q193.8200 705.8000 199.0700 708.3900Q204.3200 710.9800 207.8200 715.0400L207.8200 715.0400L207.8200 683.9600Q207.8200 682.5600 208.7300 681.5800Q209.6400 680.6000 211.1800 680.6000L211.1800 680.6000L223.0800 680.6000Q224.4800 680.6000 225.4600 681.5800Q226.4400 682.5600 226.4400 683.9600L226.4400 683.9600L226.4400 776.6400Q226.4400 778.0400 225.4600 779.0200Q224.4800 780 223.0800 780L223.0800 780L212.0200 780Q210.4800 780 209.5700 779.0200Q208.6600 778.0400 208.6600 776.6400L208.6600 776.6400L208.6600 771.4600Q205.1600 775.8000 199.7700 778.6000Q194.3800 781.4000 186.2600 781.4000ZM191.4400 766.4200L191.4400 766.4200Q197.3200 766.4200 200.8200 763.7600Q204.3200 761.1000 206 756.9700Q207.6800 752.8400 207.8200 748.5000L207.8200 748.5000Q207.9600 745.9800 207.9600 743.1100Q207.9600 740.2400 207.8200 737.7200L207.8200 737.7200Q207.6800 733.5200 205.8600 729.6700Q204.0400 725.8200 200.5400 723.3000Q197.0400 720.7800 191.4400 720.7800L191.4400 720.7800Q185.5600 720.7800 182.1300 723.3700Q178.7000 725.9600 177.1600 730.1600Q175.6200 734.3600 175.3400 739.4000L175.3400 739.4000Q175.2000 743.6000 175.3400 747.8000L175.3400 747.8000Q175.6200 752.8400 177.1600 757.0400Q178.7000 761.2400 182.1300 763.8300Q185.5600 766.4200 191.4400 766.4200ZM266.2000 781.4000L266.2000 781.4000Q258.9200 781.4000 253.0400 778.5300Q247.1600 775.6600 243.7300 770.8300Q240.3000 766 240.3000 759.9800L240.3000 759.9800Q240.3000 750.1800 248.2800 744.3700Q256.2600 738.5600 269.1400 736.6000L269.1400 736.6000L288.3200 733.8000L288.3200 730.8600Q288.3200 724.9800 285.3800 721.7600Q282.4400 718.5400 275.3000 718.5400L275.3000 718.5400Q270.2600 718.5400 267.1100 720.5700Q263.9600 722.6000 262.4200 725.9600L262.4200 725.9600Q261.3000 727.7800 259.2000 727.7800L259.2000 727.7800L248.1400 727.7800Q246.6000 727.7800 245.8300 726.9400Q245.0600 726.1000 245.0600 724.7000L245.0600 724.7000Q245.2000 722.4600 246.9500 719.2400Q248.7000 716.0200 252.2700 713.0100Q255.8400 710 261.5800 707.9000Q267.3200 705.8000 275.4400 705.8000L275.4400 705.8000Q284.2600 705.8000 290.3500 707.9700Q296.4400 710.1400 300.0800 713.7800Q303.7200 717.4200 305.4000 722.3200Q307.0800 727.2200 307.0800 732.6800L307.0800 732.6800L307.0800 776.6400Q307.0800 778.0400 306.1000 779.0200Q305.1200 780 303.7200 780L303.7200 780L292.3800 780Q290.8400 780 289.9300 779.0200Q289.0200 778.0400 289.0200 776.6400L289.0200 776.6400L289.0200 771.1800Q287.2000 773.7000 284.1200 776.0800Q281.0400 778.4600 276.6300 779.9300Q272.2200 781.4000 266.2000 781.4000ZM270.9600 768.1000L270.9600 768.1000Q275.8600 768.1000 279.8500 766Q283.8400 763.9000 286.1500 759.4900Q288.4600 755.0800 288.4600 748.3600L288.4600 748.3600L288.4600 745.4200L274.4600 747.6600Q266.2000 748.9200 262.1400 751.7200Q258.0800 754.5200 258.0800 758.5800L258.0800 758.5800Q258.0800 761.6600 259.9700 763.8300Q261.8600 766 264.8000 767.0500Q267.7400 768.1000 270.9600 768.1000ZM352.0200 781.4000L352.0200 781.4000Q344.7400 781.4000 339.2100 778.9500Q333.6800 776.5000 330.0400 772.0200Q326.4000 767.5400 324.4400 761.4500Q322.4800 755.3600 322.2000 748.0800L322.2000 748.0800Q322.0600 745.5600 322.0600 743.5300Q322.0600 741.5000 322.2000 738.9800L322.2000 738.9800Q322.4800 731.9800 324.3700 725.9600Q326.2600 719.9400 329.9700 715.3900Q333.6800 710.8400 339.2100 708.3200Q344.7400 705.8000 352.0200 705.8000L352.0200 705.8000Q359.5800 705.8000 364.8300 708.3900Q370.0800 710.9800 373.5800 715.0400L373.5800 715.0400L373.5800 683.9600Q373.5800 682.5600 374.4900 681.5800Q375.4000 680.6000 376.9400 680.6000L376.9400 680.6000L388.8400 680.6000Q390.2400 680.6000 391.2200 681.5800Q392.2000 682.5600 392.2000 683.9600L392.2000 683.9600L392.2000 776.6400Q392.2000 778.0400 391.2200 779.0200Q390.2400 780 388.8400 780L388.8400 780L377.7800 780Q376.2400 780 375.3300 779.0200Q374.4200 778.0400 374.4200 776.6400L374.4200 776.6400L374.4200 771.4600Q370.9200 775.8000 365.5300 778.6000Q360.1400 781.4000 352.0200 781.4000ZM357.2000 766.4200L357.2000 766.4200Q363.0800 766.4200 366.5800 763.7600Q370.0800 761.1000 371.7600 756.9700Q373.4400 752.8400 373.5800 748.5000L373.5800 748.5000Q373.7200 745.9800 373.7200 743.1100Q373.7200 740.2400 373.5800 737.7200L373.5800 737.7200Q373.4400 733.5200 371.6200 729.6700Q369.8000 725.8200 366.3000 723.3000Q362.8000 720.7800 357.2000 720.7800L357.2000 720.7800Q351.3200 720.7800 347.8900 723.3700Q344.4600 725.9600 342.9200 730.1600Q341.3800 734.3600 341.1000 739.4000L341.1000 739.4000Q340.9600 743.6000 341.1000 747.8000L341.1000 747.8000Q341.3800 752.8400 342.9200 757.0400Q344.4600 761.2400 347.8900 763.8300Q351.3200 766.4200 357.2000 766.4200ZM443.0200 781.4000L443.0200 781.4000Q431.8200 781.4000 424.1900 777.4800Q416.5600 773.5600 412.5700 766.4200Q408.5800 759.2800 408.0200 749.7600L408.0200 749.7600Q407.8800 747.2400 407.8800 743.6000Q407.8800 739.9600 408.0200 737.4400L408.0200 737.4400Q408.5800 727.7800 412.7100 720.7100Q416.8400 713.6400 424.4700 709.7200Q432.1000 705.8000 443.0200 705.8000L443.0200 705.8000Q453.9400 705.8000 461.5700 709.7200Q469.2000 713.6400 473.3300 720.7100Q477.4600 727.7800 478.0200 737.4400L478.0200 737.4400Q478.1600 739.9600 478.1600 743.6000Q478.1600 747.2400 478.0200 749.7600L478.0200 749.7600Q477.4600 759.2800 473.4700 766.4200Q469.4800 773.5600 461.8500 777.4800Q454.2200 781.4000 443.0200 781.4000ZM443.0200 767.5400L443.0200 767.5400Q450.4400 767.5400 454.5000 762.8500Q458.5600 758.1600 458.9800 749.0600L458.9800 749.0600Q459.1200 746.9600 459.1200 743.6000Q459.1200 740.2400 458.9800 738.1400L458.9800 738.1400Q458.5600 729.0400 454.5000 724.3500Q450.4400 719.6600 443.0200 719.6600L443.0200 719.6600Q435.6000 719.6600 431.5400 724.3500Q427.4800 729.0400 427.0600 738.1400L427.0600 738.1400Q426.9200 740.2400 426.9200 743.6000Q426.9200 746.9600 427.0600 749.0600L427.0600 749.0600Q427.4800 758.1600 431.5400 762.8500Q435.6000 767.5400 443.0200 767.5400ZM521.2800 781.4000L521.2800 781.4000Q512.8800 781.4000 506.9300 779.4400Q500.9800 777.4800 497.2000 774.5400Q493.4200 771.6000 491.6000 768.6600Q489.7800 765.7200 489.6400 763.7600L489.6400 763.7600Q489.5000 762.2200 490.5500 761.3100Q491.6000 760.4000 492.8600 760.4000L492.8600 760.4000L503.9200 760.4000Q504.4800 760.4000 504.9000 760.5400Q505.3200 760.6800 506.0200 761.3800L506.0200 761.3800Q507.8400 762.9200 509.8700 764.6000Q511.9000 766.2800 514.7000 767.4700Q517.5000 768.6600 521.7000 768.6600L521.7000 768.6600Q527.1600 768.6600 530.8700 766.4900Q534.5800 764.3200 534.5800 760.2600L534.5800 760.2600Q534.5800 757.3200 532.9700 755.5000Q531.3600 753.6800 527.0200 752.2100Q522.6800 750.7400 514.7000 749.0600L514.7000 749.0600Q506.8600 747.2400 501.6800 744.4400Q496.5000 741.6400 493.9800 737.4400Q491.4600 733.2400 491.4600 727.6400L491.4600 727.6400Q491.4600 722.1800 494.7500 717.2100Q498.0400 712.2400 504.5500 709.0200Q511.0600 705.8000 520.7200 705.8000L520.7200 705.8000Q528.2800 705.8000 533.8800 707.6900Q539.4800 709.5800 543.1900 712.3800Q546.9000 715.1800 548.8600 718.0500Q550.8200 720.9200 550.9600 723.0200L550.9600 723.0200Q551.1000 724.5600 550.1200 725.4700Q549.1400 726.3800 547.8800 726.3800L547.8800 726.3800L537.5200 726.3800Q536.8200 726.3800 536.2600 726.1000Q535.7000 725.8200 535.1400 725.4000L535.1400 725.4000Q533.6000 724 531.7800 722.3900Q529.9600 720.7800 527.3700 719.6600Q524.7800 718.5400 520.5800 718.5400L520.5800 718.5400Q515.2600 718.5400 512.4600 720.8500Q509.6600 723.1600 509.6600 726.6600L509.6600 726.6600Q509.6600 729.0400 510.9900 730.7900Q512.3200 732.5400 516.3800 734.0800Q520.4400 735.6200 528.7000 737.3000L528.7000 737.3000Q538.0800 738.9800 543.6100 742.2700Q549.1400 745.5600 551.4500 749.8300Q553.7600 754.1000 553.7600 759.2800L553.7600 759.2800Q553.7600 765.5800 550.0500 770.6200Q546.3400 775.6600 539.1300 778.5300Q531.9200 781.4000 521.2800 781.4000ZM631.6000 781.4000L631.6000 781.4000Q616.0600 781.4000 606.9600 772.4400Q597.8600 763.4800 597.1600 746.9600L597.1600 746.9600Q597.0200 745.5600 597.0200 743.3900Q597.0200 741.2200 597.1600 739.9600L597.1600 739.9600Q597.7200 729.3200 601.9900 721.6900Q606.2600 714.0600 613.8200 709.9300Q621.3800 705.8000 631.6000 705.8000L631.6000 705.8000Q642.9400 705.8000 650.6400 710.4900Q658.3400 715.1800 662.2600 723.5100Q666.1800 731.8400 666.1800 742.7600L666.1800 742.7600L666.1800 745.7000Q666.1800 747.1000 665.2000 748.0800Q664.2200 749.0600 662.6800 749.0600L662.6800 749.0600L616.2000 749.0600Q616.2000 749.0600 616.2000 749.4800Q616.2000 749.9000 616.2000 750.1800L616.2000 750.1800Q616.3400 755.0800 618.0900 759.2100Q619.8400 763.3400 623.2700 765.8600Q626.7000 768.3800 631.4600 768.3800L631.4600 768.3800Q635.3800 768.3800 638.0400 767.1900Q640.7000 766 642.3800 764.4600Q644.0600 762.9200 644.7600 761.9400L644.7600 761.9400Q646.0200 760.2600 646.7900 759.9100Q647.5600 759.5600 649.1000 759.5600L649.1000 759.5600L661.1400 759.5600Q662.5400 759.5600 663.4500 760.4000Q664.3600 761.2400 664.2200 762.5000L664.2200 762.5000Q664.0800 764.7400 661.9100 767.9600Q659.7400 771.1800 655.6800 774.2600Q651.6200 777.3400 645.5300 779.3700Q639.4400 781.4000 631.6000 781.4000ZM616.2000 736.8800L616.2000 737.3000L647.1400 737.3000L647.1400 736.8800Q647.1400 731.4200 645.3200 727.2900Q643.5000 723.1600 640 720.8500Q636.5000 718.5400 631.6000 718.5400L631.6000 718.5400Q626.7000 718.5400 623.2000 720.8500Q619.7000 723.1600 617.9500 727.2900Q616.2000 731.4200 616.2000 736.8800L616.2000 736.8800ZM696.1400 780L684.3800 780Q682.9800 780 682 779.0200Q681.0200 778.0400 681.0200 776.6400L681.0200 776.6400L681.0200 710.5600Q681.0200 709.1600 682 708.1800Q682.9800 707.2000 684.3800 707.2000L684.3800 707.2000L695.3000 707.2000Q696.7000 707.2000 697.6800 708.1800Q698.6600 709.1600 698.6600 710.5600L698.6600 710.5600L698.6600 715.3200Q701.6000 711.4000 706.5700 708.6700Q711.5400 705.9400 718.4000 705.8000L718.4000 705.8000Q734.3600 705.5200 740.6600 718.2600L740.6600 718.2600Q743.8800 712.6600 749.9700 709.2300Q756.0600 705.8000 763.4800 705.8000L763.4800 705.8000Q770.7600 705.8000 776.7100 709.1600Q782.6600 712.5200 786.0900 719.3100Q789.5200 726.1000 789.5200 736.4600L789.5200 736.4600L789.5200 776.6400Q789.5200 778.0400 788.5400 779.0200Q787.5600 780 786.1600 780L786.1600 780L774.6800 780Q773.2800 780 772.3000 779.0200Q771.3200 778.0400 771.3200 776.6400L771.3200 776.6400L771.3200 737.5800Q771.3200 731.2800 769.5000 727.5700Q767.6800 723.8600 764.6000 722.3200Q761.5200 720.7800 757.7400 720.7800L757.7400 720.7800Q754.6600 720.7800 751.5800 722.3200Q748.5000 723.8600 746.5400 727.5700Q744.5800 731.2800 744.5800 737.5800L744.5800 737.5800L744.5800 776.6400Q744.5800 778.0400 743.6000 779.0200Q742.6200 780 741.2200 780L741.2200 780L729.7400 780Q728.3400 780 727.3600 779.0200Q726.3800 778.0400 726.3800 776.6400L726.3800 776.6400L726.3800 737.5800Q726.3800 731.2800 724.4200 727.5700Q722.4600 723.8600 719.3800 722.3200Q716.3000 720.7800 712.8000 720.7800L712.8000 720.7800Q709.5800 720.7800 706.5000 722.3900Q703.4200 724 701.4600 727.6400Q699.5000 731.2800 699.5000 737.5800L699.5000 737.5800L699.5000 776.6400Q699.5000 778.0400 698.5200 779.0200Q697.5400 780 696.1400 780L696.1400 780ZM866.3800 781.4000L866.3800 781.4000Q857.8400 781.4000 851.6100 777.5500Q845.3800 773.7000 842.0200 766.6300Q838.6600 759.5600 838.6600 749.9000L838.6600 749.9000L838.6600 710.5600Q838.6600 709.1600 839.6400 708.1800Q840.6200 707.2000 842.0200 707.2000L842.0200 707.2000L854.3400 707.2000Q855.8800 707.2000 856.7900 708.1800Q857.7000 709.1600 857.7000 710.5600L857.7000 710.5600L857.7000 749.0600Q857.7000 766.4200 872.9600 766.4200L872.9600 766.4200Q880.2400 766.4200 884.5100 761.8000Q888.7800 757.1800 888.7800 749.0600L888.7800 749.0600L888.7800 710.5600Q888.7800 709.1600 889.7600 708.1800Q890.7400 707.2000 892.1400 707.2000L892.1400 707.2000L904.4600 707.2000Q905.8600 707.2000 906.8400 708.1800Q907.8200 709.1600 907.8200 710.5600L907.8200 710.5600L907.8200 776.6400Q907.8200 778.0400 906.8400 779.0200Q905.8600 780 904.4600 780L904.4600 780L893.1200 780Q891.5800 780 890.6700 779.0200Q889.7600 778.0400 889.7600 776.6400L889.7600 776.6400L889.7600 770.9000Q885.9800 775.8000 880.3800 778.6000Q874.7800 781.4000 866.3800 781.4000ZM941.4200 780L929.6600 780Q928.2600 780 927.2800 779.0200Q926.3000 778.0400 926.3000 776.6400L926.3000 776.6400L926.3000 710.5600Q926.3000 709.1600 927.2800 708.1800Q928.2600 707.2000 929.6600 707.2000L929.6600 707.2000L940.5800 707.2000Q941.9800 707.2000 942.9600 708.1800Q943.9400 709.1600 943.9400 710.5600L943.9400 710.5600L943.9400 715.3200Q946.8800 711.4000 951.8500 708.6700Q956.8200 705.9400 963.6800 705.8000L963.6800 705.8000Q979.6400 705.5200 985.9400 718.2600L985.9400 718.2600Q989.1600 712.6600 995.2500 709.2300Q1001.3400 705.8000 1008.7600 705.8000L1008.7600 705.8000Q1016.0400 705.8000 1021.9900 709.1600Q1027.9400 712.5200 1031.3700 719.3100Q1034.8000 726.1000 1034.8000 736.4600L1034.8000 736.4600L1034.8000 776.6400Q1034.8000 778.0400 1033.8200 779.0200Q1032.8400 780 1031.4400 780L1031.4400 780L1019.9600 780Q1018.5600 780 1017.5800 779.0200Q1016.6000 778.0400 1016.6000 776.6400L1016.6000 776.6400L1016.6000 737.5800Q1016.6000 731.2800 1014.7800 727.5700Q1012.9600 723.8600 1009.8800 722.3200Q1006.8000 720.7800 1003.0200 720.7800L1003.0200 720.7800Q999.9400 720.7800 996.8600 722.3200Q993.7800 723.8600 991.8200 727.5700Q989.8600 731.2800 989.8600 737.5800L989.8600 737.5800L989.8600 776.6400Q989.8600 778.0400 988.8800 779.0200Q987.9000 780 986.5000 780L986.5000 780L975.0200 780Q973.6200 780 972.6400 779.0200Q971.6600 778.0400 971.6600 776.6400L971.6600 776.6400L971.6600 737.5800Q971.6600 731.2800 969.7000 727.5700Q967.7400 723.8600 964.6600 722.3200Q961.5800 720.7800 958.0800 720.7800L958.0800 720.7800Q954.8600 720.7800 951.7800 722.3900Q948.7000 724 946.7400 727.6400Q944.7800 731.2800 944.7800 737.5800L944.7800 737.5800L944.7800 776.6400Q944.7800 778.0400 943.8000 779.0200Q942.8200 780 941.4200 780L941.4200 780ZM1124.9600 781.4000L1124.9600 781.4000Q1116.8400 781.4000 1111.4500 778.6000Q1106.0600 775.8000 1102.5600 771.4600L1102.5600 771.4600L1102.5600 776.6400Q1102.5600 778.0400 1101.6500 779.0200Q1100.7400 780 1099.2000 780L1099.2000 780L1088.1400 780Q1086.7400 780 1085.7600 779.0200Q1084.7800 778.0400 1084.7800 776.6400L1084.7800 776.6400L1084.7800 683.9600Q1084.7800 682.5600 1085.7600 681.5800Q1086.7400 680.6000 1088.1400 680.6000L1088.1400 680.6000L1100.0400 680.6000Q1101.5800 680.6000 1102.4900 681.5800Q1103.4000 682.5600 1103.4000 683.9600L1103.4000 683.9600L1103.4000 715.0400Q1106.9000 710.9800 1112.1500 708.3900Q1117.4000 705.8000 1124.9600 705.8000L1124.9600 705.8000Q1132.3800 705.8000 1137.8400 708.3200Q1143.3000 710.8400 1147.0100 715.3900Q1150.7200 719.9400 1152.6800 725.9600Q1154.6400 731.9800 1154.7800 738.9800L1154.7800 738.9800Q1154.9200 741.5000 1154.9200 743.5300Q1154.9200 745.5600 1154.7800 748.0800L1154.7800 748.0800Q1154.5000 755.3600 1152.5400 761.4500Q1150.5800 767.5400 1146.9400 772.0200Q1143.3000 776.5000 1137.8400 778.9500Q1132.3800 781.4000 1124.9600 781.4000ZM1119.7800 766.4200L1119.7800 766.4200Q1125.8000 766.4200 1129.1600 763.8300Q1132.5200 761.2400 1134.0600 757.0400Q1135.6000 752.8400 1135.8800 747.8000L1135.8800 747.8000Q1136.0200 743.6000 1135.8800 739.4000L1135.8800 739.4000Q1135.6000 734.3600 1134.0600 730.1600Q1132.5200 725.9600 1129.1600 723.3700Q1125.8000 720.7800 1119.7800 720.7800L1119.7800 720.7800Q1114.1800 720.7800 1110.6800 723.3000Q1107.1800 725.8200 1105.3600 729.6700Q1103.5400 733.5200 1103.4000 737.7200L1103.4000 737.7200Q1103.2600 740.2400 1103.2600 743.1100Q1103.2600 745.9800 1103.4000 748.5000L1103.4000 748.5000Q1103.6800 752.8400 1105.2900 756.9700Q1106.9000 761.1000 1110.4700 763.7600Q1114.0400 766.4200 1119.7800 766.4200ZM1191.6000 781.4000L1191.6000 781.4000Q1184.3200 781.4000 1178.4400 778.5300Q1172.5600 775.6600 1169.1300 770.8300Q1165.7000 766 1165.7000 759.9800L1165.7000 759.9800Q1165.7000 750.1800 1173.6800 744.3700Q1181.6600 738.5600 1194.5400 736.6000L1194.5400 736.6000L1213.7200 733.8000L1213.7200 730.8600Q1213.7200 724.9800 1210.7800 721.7600Q1207.8400 718.5400 1200.7000 718.5400L1200.7000 718.5400Q1195.6600 718.5400 1192.5100 720.5700Q1189.3600 722.6000 1187.8200 725.9600L1187.8200 725.9600Q1186.7000 727.7800 1184.6000 727.7800L1184.6000 727.7800L1173.5400 727.7800Q1172.0000 727.7800 1171.2300 726.9400Q1170.4600 726.1000 1170.4600 724.7000L1170.4600 724.7000Q1170.6000 722.4600 1172.3500 719.2400Q1174.1000 716.0200 1177.6700 713.0100Q1181.2400 710 1186.9800 707.9000Q1192.7200 705.8000 1200.8400 705.8000L1200.8400 705.8000Q1209.6600 705.8000 1215.7500 707.9700Q1221.8400 710.1400 1225.4800 713.7800Q1229.1200 717.4200 1230.8000 722.3200Q1232.4800 727.2200 1232.4800 732.6800L1232.4800 732.6800L1232.4800 776.6400Q1232.4800 778.0400 1231.5000 779.0200Q1230.5200 780 1229.1200 780L1229.1200 780L1217.7800 780Q1216.2400 780 1215.3300 779.0200Q1214.4200 778.0400 1214.4200 776.6400L1214.4200 776.6400L1214.4200 771.1800Q1212.6000 773.7000 1209.5200 776.0800Q1206.4400 778.4600 1202.0300 779.9300Q1197.6200 781.4000 1191.6000 781.4000ZM1196.3600 768.1000L1196.3600 768.1000Q1201.2600 768.1000 1205.2500 766Q1209.2400 763.9000 1211.5500 759.4900Q1213.8600 755.0800 1213.8600 748.3600L1213.8600 748.3600L1213.8600 745.4200L1199.8600 747.6600Q1191.6000 748.9200 1187.5400 751.7200Q1183.4800 754.5200 1183.4800 758.5800L1183.4800 758.5800Q1183.4800 761.6600 1185.3700 763.8300Q1187.2600 766 1190.2000 767.0500Q1193.1400 768.1000 1196.3600 768.1000ZM1266.0800 780L1253.7600 780Q1252.3600 780 1251.3800 779.0200Q1250.4000 778.0400 1250.4000 776.6400L1250.4000 776.6400L1250.4000 710.5600Q1250.4000 709.1600 1251.3800 708.1800Q1252.3600 707.2000 1253.7600 707.2000L1253.7600 707.2000L1265.2400 707.2000Q1266.6400 707.2000 1267.6200 708.1800Q1268.6000 709.1600 1268.6000 710.5600L1268.6000 710.5600L1268.6000 716.3000Q1272.2400 711.8200 1277.9100 708.8100Q1283.5800 705.8000 1291.9800 705.8000L1291.9800 705.8000Q1300.5200 705.8000 1306.8200 709.6500Q1313.1200 713.5000 1316.5500 720.5000Q1319.9800 727.5000 1319.9800 737.3000L1319.9800 737.3000L1319.9800 776.6400Q1319.9800 778.0400 1319.0000 779.0200Q1318.0200 780 1316.6200 780L1316.6200 780L1304.3000 780Q1302.9000 780 1301.9200 779.0200Q1300.9400 778.0400 1300.9400 776.6400L1300.9400 776.6400L1300.9400 738.1400Q1300.9400 730.0200 1296.9500 725.4000Q1292.9600 720.7800 1285.4000 720.7800L1285.4000 720.7800Q1278.1200 720.7800 1273.7800 725.4000Q1269.4400 730.0200 1269.4400 738.1400L1269.4400 738.1400L1269.4400 776.6400Q1269.4400 778.0400 1268.4600 779.0200Q1267.4800 780 1266.0800 780L1266.0800 780ZM1369.2600 781.4000L1369.2600 781.4000Q1359.1800 781.4000 1351.5500 777.6200Q1343.9200 773.8400 1339.6500 766.6300Q1335.3800 759.4200 1334.9600 749.2000L1334.9600 749.2000Q1334.8200 747.1000 1334.8200 743.6700Q1334.8200 740.2400 1334.9600 738L1334.9600 738Q1335.3800 727.7800 1339.6500 720.5700Q1343.9200 713.3600 1351.5500 709.5800Q1359.1800 705.8000 1369.2600 705.8000L1369.2600 705.8000Q1378.2200 705.8000 1384.5200 708.2500Q1390.8200 710.7000 1394.8800 714.5500Q1398.9400 718.4000 1400.9700 722.5300Q1403 726.6600 1403.1400 730.0200L1403.1400 730.0200Q1403.2800 731.5600 1402.2300 732.4700Q1401.1800 733.3800 1399.7800 733.3800L1399.7800 733.3800L1387.4600 733.3800Q1386.0600 733.3800 1385.2900 732.6800Q1384.5200 731.9800 1383.8200 730.5800L1383.8200 730.5800Q1381.7200 724.9800 1378.2900 722.6700Q1374.8600 720.3600 1369.5400 720.3600L1369.5400 720.3600Q1362.5400 720.3600 1358.4100 724.7700Q1354.2800 729.1800 1354 738.7000L1354 738.7000Q1353.7200 744.0200 1354 748.5000L1354 748.5000Q1354.2800 758.1600 1358.4100 762.5000Q1362.5400 766.8400 1369.5400 766.8400L1369.5400 766.8400Q1375 766.8400 1378.3600 764.5300Q1381.7200 762.2200 1383.8200 756.6200L1383.8200 756.6200Q1384.5200 755.2200 1385.2900 754.5200Q1386.0600 753.8200 1387.4600 753.8200L1387.4600 753.8200L1399.7800 753.8200Q1401.1800 753.8200 1402.2300 754.7300Q1403.2800 755.6400 1403.1400 757.1800L1403.1400 757.1800Q1403 759.7000 1401.8100 762.8500Q1400.6200 766 1398.0300 769.2900Q1395.4400 772.5800 1391.5200 775.3100Q1387.6000 778.0400 1382.0700 779.7200Q1376.5400 781.4000 1369.2600 781.4000ZM1449.9000 781.4000L1449.9000 781.4000Q1438.7000 781.4000 1431.0700 777.4800Q1423.4400 773.5600 1419.4500 766.4200Q1415.4600 759.2800 1414.9000 749.7600L1414.9000 749.7600Q1414.7600 747.2400 1414.7600 743.6000Q1414.7600 739.9600 1414.9000 737.4400L1414.9000 737.4400Q1415.4600 727.7800 1419.5900 720.7100Q1423.7200 713.6400 1431.3500 709.7200Q1438.9800 705.8000 1449.9000 705.8000L1449.9000 705.8000Q1460.8200 705.8000 1468.4500 709.7200Q1476.0800 713.6400 1480.2100 720.7100Q1484.3400 727.7800 1484.9000 737.4400L1484.9000 737.4400Q1485.0400 739.9600 1485.0400 743.6000Q1485.0400 747.2400 1484.9000 749.7600L1484.9000 749.7600Q1484.3400 759.2800 1480.3500 766.4200Q1476.3600 773.5600 1468.7300 777.4800Q1461.1000 781.4000 1449.9000 781.4000ZM1449.9000 767.5400L1449.9000 767.5400Q1457.3200 767.5400 1461.3800 762.8500Q1465.4400 758.1600 1465.8600 749.0600L1465.8600 749.0600Q1466 746.9600 1466 743.6000Q1466 740.2400 1465.8600 738.1400L1465.8600 738.1400Q1465.4400 729.0400 1461.3800 724.3500Q1457.3200 719.6600 1449.9000 719.6600L1449.9000 719.6600Q1442.4800 719.6600 1438.4200 724.3500Q1434.3600 729.0400 1433.9400 738.1400L1433.9400 738.1400Q1433.8000 740.2400 1433.8000 743.6000Q1433.8000 746.9600 1433.9400 749.0600L1433.9400 749.0600Q1434.3600 758.1600 1438.4200 762.8500Q1442.4800 767.5400 1449.9000 767.5400ZM1564 781.4000L1564 781.4000Q1548.4600 781.4000 1539.3600 772.4400Q1530.2600 763.4800 1529.5600 746.9600L1529.5600 746.9600Q1529.4200 745.5600 1529.4200 743.3900Q1529.4200 741.2200 1529.5600 739.9600L1529.5600 739.9600Q1530.1200 729.3200 1534.3900 721.6900Q1538.6600 714.0600 1546.2200 709.9300Q1553.7800 705.8000 1564 705.8000L1564 705.8000Q1575.3400 705.8000 1583.0400 710.4900Q1590.7400 715.1800 1594.6600 723.5100Q1598.5800 731.8400 1598.5800 742.7600L1598.5800 742.7600L1598.5800 745.7000Q1598.5800 747.1000 1597.6000 748.0800Q1596.6200 749.0600 1595.0800 749.0600L1595.0800 749.0600L1548.6000 749.0600Q1548.6000 749.0600 1548.6000 749.4800Q1548.6000 749.9000 1548.6000 750.1800L1548.6000 750.1800Q1548.7400 755.0800 1550.4900 759.2100Q1552.2400 763.3400 1555.6700 765.8600Q1559.1000 768.3800 1563.8600 768.3800L1563.8600 768.3800Q1567.7800 768.3800 1570.4400 767.1900Q1573.1000 766 1574.7800 764.4600Q1576.4600 762.9200 1577.1600 761.9400L1577.1600 761.9400Q1578.4200 760.2600 1579.1900 759.9100Q1579.9600 759.5600 1581.5000 759.5600L1581.5000 759.5600L1593.5400 759.5600Q1594.9400 759.5600 1595.8500 760.4000Q1596.7600 761.2400 1596.6200 762.5000L1596.6200 762.5000Q1596.4800 764.7400 1594.3100 767.9600Q1592.1400 771.1800 1588.0800 774.2600Q1584.0200 777.3400 1577.9300 779.3700Q1571.8400 781.4000 1564 781.4000ZM1548.6000 736.8800L1548.6000 737.3000L1579.5400 737.3000L1579.5400 736.8800Q1579.5400 731.4200 1577.7200 727.2900Q1575.9000 723.1600 1572.4000 720.8500Q1568.9000 718.5400 1564 718.5400L1564 718.5400Q1559.1000 718.5400 1555.6000 720.8500Q1552.1000 723.1600 1550.3500 727.2900Q1548.6000 731.4200 1548.6000 736.8800L1548.6000 736.8800ZM186.2600 921.4000L186.2600 921.4000Q178.9800 921.4000 173.4500 918.9500Q167.9200 916.5000 164.2800 912.0200Q160.6400 907.5400 158.6800 901.4500Q156.7200 895.3600 156.4400 888.0800L156.4400 888.0800Q156.3000 885.5600 156.3000 883.5300Q156.3000 881.5000 156.4400 878.9800L156.4400 878.9800Q156.7200 871.9800 158.6100 865.9600Q160.5000 859.9400 164.2100 855.3900Q167.9200 850.8400 173.4500 848.3200Q178.9800 845.8000 186.2600 845.8000L186.2600 845.8000Q193.8200 845.8000 199.0700 848.3900Q204.3200 850.9800 207.8200 855.0400L207.8200 855.0400L207.8200 823.9600Q207.8200 822.5600 208.7300 821.5800Q209.6400 820.6000 211.1800 820.6000L211.1800 820.6000L223.0800 820.6000Q224.4800 820.6000 225.4600 821.5800Q226.4400 822.5600 226.4400 823.9600L226.4400 823.9600L226.4400 916.6400Q226.4400 918.0400 225.4600 919.0200Q224.4800 920 223.0800 920L223.0800 920L212.0200 920Q210.4800 920 209.5700 919.0200Q208.6600 918.0400 208.6600 916.6400L208.6600 916.6400L208.6600 911.4600Q205.1600 915.8000 199.7700 918.6000Q194.3800 921.4000 186.2600 921.4000ZM191.4400 906.4200L191.4400 906.4200Q197.3200 906.4200 200.8200 903.7600Q204.3200 901.1000 206 896.9700Q207.6800 892.8400 207.8200 888.5000L207.8200 888.5000Q207.9600 885.9800 207.9600 883.1100Q207.9600 880.2400 207.8200 877.7200L207.8200 877.7200Q207.6800 873.5200 205.8600 869.6700Q204.0400 865.8200 200.5400 863.3000Q197.0400 860.7800 191.4400 860.7800L191.4400 860.7800Q185.5600 860.7800 182.1300 863.3700Q178.7000 865.9600 177.1600 870.1600Q175.6200 874.3600 175.3400 879.4000L175.3400 879.4000Q175.2000 883.6000 175.3400 887.8000L175.3400 887.8000Q175.6200 892.8400 177.1600 897.0400Q178.7000 901.2400 182.1300 903.8300Q185.5600 906.4200 191.4400 906.4200ZM266.2000 921.4000L266.2000 921.4000Q258.9200 921.4000 253.0400 918.5300Q247.1600 915.6600 243.7300 910.8300Q240.3000 906 240.3000 899.9800L240.3000 899.9800Q240.3000 890.1800 248.2800 884.3700Q256.2600 878.5600 269.1400 876.6000L269.1400 876.6000L288.3200 873.8000L288.3200 870.8600Q288.3200 864.9800 285.3800 861.7600Q282.4400 858.5400 275.3000 858.5400L275.3000 858.5400Q270.2600 858.5400 267.1100 860.5700Q263.9600 862.6000 262.4200 865.9600L262.4200 865.9600Q261.3000 867.7800 259.2000 867.7800L259.2000 867.7800L248.1400 867.7800Q246.6000 867.7800 245.8300 866.9400Q245.0600 866.1000 245.0600 864.7000L245.0600 864.7000Q245.2000 862.4600 246.9500 859.2400Q248.7000 856.0200 252.2700 853.0100Q255.8400 850 261.5800 847.9000Q267.3200 845.8000 275.4400 845.8000L275.4400 845.8000Q284.2600 845.8000 290.3500 847.9700Q296.4400 850.1400 300.0800 853.7800Q303.7200 857.4200 305.4000 862.3200Q307.0800 867.2200 307.0800 872.6800L307.0800 872.6800L307.0800 916.6400Q307.0800 918.0400 306.1000 919.0200Q305.1200 920 303.7200 920L303.7200 920L292.3800 920Q290.8400 920 289.9300 919.0200Q289.0200 918.0400 289.0200 916.6400L289.0200 916.6400L289.0200 911.1800Q287.2000 913.7000 284.1200 916.0800Q281.0400 918.4600 276.6300 919.9300Q272.2200 921.4000 266.2000 921.4000ZM270.9600 908.1000L270.9600 908.1000Q275.8600 908.1000 279.8500 906Q283.8400 903.9000 286.1500 899.4900Q288.4600 895.0800 288.4600 888.3600L288.4600 888.3600L288.4600 885.4200L274.4600 887.6600Q266.2000 888.9200 262.1400 891.7200Q258.0800 894.5200 258.0800 898.5800L258.0800 898.5800Q258.0800 901.6600 259.9700 903.8300Q261.8600 906 264.8000 907.0500Q267.7400 908.1000 270.9600 908.1000ZM352.0200 921.4000L352.0200 921.4000Q344.7400 921.4000 339.2100 918.9500Q333.6800 916.5000 330.0400 912.0200Q326.4000 907.5400 324.4400 901.4500Q322.4800 895.3600 322.2000 888.0800L322.2000 888.0800Q322.0600 885.5600 322.0600 883.5300Q322.0600 881.5000 322.2000 878.9800L322.2000 878.9800Q322.4800 871.9800 324.3700 865.9600Q326.2600 859.9400 329.9700 855.3900Q333.6800 850.8400 339.2100 848.3200Q344.7400 845.8000 352.0200 845.8000L352.0200 845.8000Q359.5800 845.8000 364.8300 848.3900Q370.0800 850.9800 373.5800 855.0400L373.5800 855.0400L373.5800 823.9600Q373.5800 822.5600 374.4900 821.5800Q375.4000 820.6000 376.9400 820.6000L376.9400 820.6000L388.8400 820.6000Q390.2400 820.6000 391.2200 821.5800Q392.2000 822.5600 392.2000 823.9600L392.2000 823.9600L392.2000 916.6400Q392.2000 918.0400 391.2200 919.0200Q390.2400 920 388.8400 920L388.8400 920L377.7800 920Q376.2400 920 375.3300 919.0200Q374.4200 918.0400 374.4200 916.6400L374.4200 916.6400L374.4200 911.4600Q370.9200 915.8000 365.5300 918.6000Q360.1400 921.4000 352.0200 921.4000ZM357.2000 906.4200L357.2000 906.4200Q363.0800 906.4200 366.5800 903.7600Q370.0800 901.1000 371.7600 896.9700Q373.4400 892.8400 373.5800 888.5000L373.5800 888.5000Q373.7200 885.9800 373.7200 883.1100Q373.7200 880.2400 373.5800 877.7200L373.5800 877.7200Q373.4400 873.5200 371.6200 869.6700Q369.8000 865.8200 366.3000 863.3000Q362.8000 860.7800 357.2000 860.7800L357.2000 860.7800Q351.3200 860.7800 347.8900 863.3700Q344.4600 865.9600 342.9200 870.1600Q341.3800 874.3600 341.1000 879.4000L341.1000 879.4000Q340.9600 883.6000 341.1000 887.8000L341.1000 887.8000Q341.3800 892.8400 342.9200 897.0400Q344.4600 901.2400 347.8900 903.8300Q351.3200 906.4200 357.2000 906.4200ZM443.0200 921.4000L443.0200 921.4000Q431.8200 921.4000 424.1900 917.4800Q416.5600 913.5600 412.5700 906.4200Q408.5800 899.2800 408.0200 889.7600L408.0200 889.7600Q407.8800 887.2400 407.8800 883.6000Q407.8800 879.9600 408.0200 877.4400L408.0200 877.4400Q408.5800 867.7800 412.7100 860.7100Q416.8400 853.6400 424.4700 849.7200Q432.1000 845.8000 443.0200 845.8000L443.0200 845.8000Q453.9400 845.8000 461.5700 849.7200Q469.2000 853.6400 473.3300 860.7100Q477.4600 867.7800 478.0200 877.4400L478.0200 877.4400Q478.1600 879.9600 478.1600 883.6000Q478.1600 887.2400 478.0200 889.7600L478.0200 889.7600Q477.4600 899.2800 473.4700 906.4200Q469.4800 913.5600 461.8500 917.4800Q454.2200 921.4000 443.0200 921.4000ZM443.0200 907.5400L443.0200 907.5400Q450.4400 907.5400 454.5000 902.8500Q458.5600 898.1600 458.9800 889.0600L458.9800 889.0600Q459.1200 886.9600 459.1200 883.6000Q459.1200 880.2400 458.9800 878.1400L458.9800 878.1400Q458.5600 869.0400 454.5000 864.3500Q450.4400 859.6600 443.0200 859.6600L443.0200 859.6600Q435.6000 859.6600 431.5400 864.3500Q427.4800 869.0400 427.0600 878.1400L427.0600 878.1400Q426.9200 880.2400 426.9200 883.6000Q426.9200 886.9600 427.0600 889.0600L427.0600 889.0600Q427.4800 898.1600 431.5400 902.8500Q435.6000 907.5400 443.0200 907.5400ZM521.2800 921.4000L521.2800 921.4000Q512.8800 921.4000 506.9300 919.4400Q500.9800 917.4800 497.2000 914.5400Q493.4200 911.6000 491.6000 908.6600Q489.7800 905.7200 489.6400 903.7600L489.6400 903.7600Q489.5000 902.2200 490.5500 901.3100Q491.6000 900.4000 492.8600 900.4000L492.8600 900.4000L503.9200 900.4000Q504.4800 900.4000 504.9000 900.5400Q505.3200 900.6800 506.0200 901.3800L506.0200 901.3800Q507.8400 902.9200 509.8700 904.6000Q511.9000 906.2800 514.7000 907.4700Q517.5000 908.6600 521.7000 908.6600L521.7000 908.6600Q527.1600 908.6600 530.8700 906.4900Q534.5800 904.3200 534.5800 900.2600L534.5800 900.2600Q534.5800 897.3200 532.9700 895.5000Q531.3600 893.6800 527.0200 892.2100Q522.6800 890.7400 514.7000 889.0600L514.7000 889.0600Q506.8600 887.2400 501.6800 884.4400Q496.5000 881.6400 493.9800 877.4400Q491.4600 873.2400 491.4600 867.6400L491.4600 867.6400Q491.4600 862.1800 494.7500 857.2100Q498.0400 852.2400 504.5500 849.0200Q511.0600 845.8000 520.7200 845.8000L520.7200 845.8000Q528.2800 845.8000 533.8800 847.6900Q539.4800 849.5800 543.1900 852.3800Q546.9000 855.1800 548.8600 858.0500Q550.8200 860.9200 550.9600 863.0200L550.9600 863.0200Q551.1000 864.5600 550.1200 865.4700Q549.1400 866.3800 547.8800 866.3800L547.8800 866.3800L537.5200 866.3800Q536.8200 866.3800 536.2600 866.1000Q535.7000 865.8200 535.1400 865.4000L535.1400 865.4000Q533.6000 864 531.7800 862.3900Q529.9600 860.7800 527.3700 859.6600Q524.7800 858.5400 520.5800 858.5400L520.5800 858.5400Q515.2600 858.5400 512.4600 860.8500Q509.6600 863.1600 509.6600 866.6600L509.6600 866.6600Q509.6600 869.0400 510.9900 870.7900Q512.3200 872.5400 516.3800 874.0800Q520.4400 875.6200 528.7000 877.3000L528.7000 877.3000Q538.0800 878.9800 543.6100 882.2700Q549.1400 885.5600 551.4500 889.8300Q553.7600 894.1000 553.7600 899.2800L553.7600 899.2800Q553.7600 905.5800 550.0500 910.6200Q546.3400 915.6600 539.1300 918.5300Q531.9200 921.4000 521.2800 921.4000ZM635.9400 921.4000L635.9400 921.4000Q622.9200 921.4000 614.1700 917.5500Q605.4200 913.7000 600.8700 907.4700Q596.3200 901.2400 596.0400 894.3800L596.0400 894.3800Q596.0400 893.1200 596.8800 892.2800Q597.7200 891.4400 598.9800 891.4400L598.9800 891.4400L611.4400 891.4400Q613.2600 891.4400 614.1700 892.2100Q615.0800 892.9800 615.7800 894.1000L615.7800 894.1000Q616.6200 896.7600 619 899.3500Q621.3800 901.9400 625.5100 903.6200Q629.6400 905.3000 635.9400 905.3000L635.9400 905.3000Q646.0200 905.3000 650.9900 901.9400Q655.9600 898.5800 655.9600 892.8400L655.9600 892.8400Q655.9600 888.7800 653.3000 886.3300Q650.6400 883.8800 645.1100 881.8500Q639.5800 879.8200 630.4800 877.5800L630.4800 877.5800Q619.9800 875.0600 612.9100 871.4900Q605.8400 867.9200 602.2700 862.4600Q598.7000 857 598.7000 848.6000L598.7000 848.6000Q598.7000 840.4800 603.1100 834.1800Q607.5200 827.8800 615.7100 824.2400Q623.9000 820.6000 635.2400 820.6000L635.2400 820.6000Q644.3400 820.6000 651.3400 823.0500Q658.3400 825.5000 662.9600 829.4900Q667.5800 833.4800 670.0300 838.0300Q672.4800 842.5800 672.6200 846.9200L672.6200 846.9200Q672.6200 848.0400 671.8500 848.9500Q671.0800 849.8600 669.6800 849.8600L669.6800 849.8600L656.6600 849.8600Q655.5400 849.8600 654.4200 849.3000Q653.3000 848.7400 652.6000 847.2000L652.6000 847.2000Q651.7600 842.8600 647.1400 839.7800Q642.5200 836.7000 635.2400 836.7000L635.2400 836.7000Q627.6800 836.7000 623.0600 839.5000Q618.4400 842.3000 618.4400 848.1800L618.4400 848.1800Q618.4400 852.1000 620.7500 854.6900Q623.0600 857.2800 628.1700 859.2400Q633.2800 861.2000 641.6800 863.4400L641.6800 863.4400Q653.5800 866.1000 661.1400 869.6000Q668.7000 873.1000 672.2000 878.4900Q675.7000 883.8800 675.7000 892.1400L675.7000 892.1400Q675.7000 901.3800 670.7300 907.8900Q665.7600 914.4000 656.8000 917.9000Q647.8400 921.4000 635.9400 921.4000ZM767.6800 929.1000L754.6600 929.1000Q752.7000 929.1000 751.5100 927.9100Q750.3200 926.7200 749.6200 925.8800L749.6200 925.8800L744.4400 918.8800Q737.8600 921.4000 729.4600 921.4000L729.4600 921.4000Q717 921.4000 707.9700 917.2700Q698.9400 913.1400 693.9700 904.5300Q689 895.9200 688.4400 883.0400L688.4400 883.0400Q688.3000 877.0200 688.3000 871.1400Q688.3000 865.2600 688.4400 859.1000L688.4400 859.1000Q689 846.3600 694.1100 837.8200Q699.2200 829.2800 708.3200 824.9400Q717.4200 820.6000 729.4600 820.6000L729.4600 820.6000Q741.5000 820.6000 750.6000 824.9400Q759.7000 829.2800 764.8800 837.8200Q770.0600 846.3600 770.3400 859.1000L770.3400 859.1000Q770.6200 865.2600 770.6200 871.1400Q770.6200 877.0200 770.3400 883.0400L770.3400 883.0400Q769.6400 901.3800 760.2600 910.9000L760.2600 910.9000L770.0600 924.7600Q770.2000 924.9000 770.3400 925.2500Q770.4800 925.6000 770.4800 926.1600L770.4800 926.1600Q770.6200 927.4200 769.7100 928.2600Q768.8000 929.1000 767.6800 929.1000L767.6800 929.1000ZM729.4600 905.3000L729.4600 905.3000Q738.4200 905.3000 744.1600 899.9100Q749.9000 894.5200 750.3200 882.3400L750.3200 882.3400Q750.6000 876.1800 750.6000 870.9300Q750.6000 865.6800 750.3200 859.6600L750.3200 859.6600Q750.1800 851.5400 747.3800 846.4300Q744.5800 841.3200 740.0300 839.0100Q735.4800 836.7000 729.4600 836.7000L729.4600 836.7000Q723.5800 836.7000 718.9600 839.0100Q714.3400 841.3200 711.6100 846.4300Q708.8800 851.5400 708.4600 859.6600L708.4600 859.6600Q708.3200 865.6800 708.3200 870.9300Q708.3200 876.1800 708.4600 882.3400L708.4600 882.3400Q709.0200 894.5200 714.7600 899.9100Q720.5000 905.3000 729.4600 905.3000ZM853.2200 920L792.4600 920Q791.0600 920 790.0800 919.0200Q789.1000 918.0400 789.1000 916.6400L789.1000 916.6400L789.1000 825.3600Q789.1000 823.9600 790.0800 822.9800Q791.0600 822 792.4600 822L792.4600 822L805.4800 822Q806.8800 822 807.8600 822.9800Q808.8400 823.9600 808.8400 825.3600L808.8400 825.3600L808.8400 903.3400L853.2200 903.3400Q854.7600 903.3400 855.7400 904.3200Q856.7200 905.3000 856.7200 906.8400L856.7200 906.8400L856.7200 916.6400Q856.7200 918.0400 855.7400 919.0200Q854.7600 920 853.2200 920L853.2200 920Z" id="title"/></g></svg>