<svg xmlns="http://www.w3.org/2000/svg" version="1.1" xmlns:xlink="http://www.w3.org/1999/xlink" xmlns:svgjs="http://svgjs.dev/svgjs" viewBox="0 0 1920 1080" id="e2406b3a-dd61-4727-aa08-1948c71f1022"><g><rect width="1920" height="1080" fill="#9d9c62"/></g><g fill="#e06b49"><path d="M969.5 217C561.465 217 231 547.465 231 955.5C231 1363.53 561.465 1694 969.5 1694C1377.53 1694 1708 1363.53 1708 955.5C1708 547.465 1377.53 217 969.5 217ZM969.5 1309.34C773.983 1309.34 615.658 1151.02 615.658 955.5C615.658 759.983 773.983 601.658 969.5 601.658C1165.02 601.658 1323.34 759.983 1323.34 955.5C1323.34 1151.02 1165.02 1309.34 969.5 1309.34Z"/></g><g fill="#ffffff" opacity="0.2"><path d="M1432 918.479L1616.48 734V918.479H1432Z"/><path d="M1616.48 918.479L1800.52 734V918.479H1616.48Z"/><path d="M1800.52 918.479L1985 734V918.479H1800.52Z"/><path d="M1432 1102.52L1616.48 918.479V1102.52H1432Z"/><path d="M1616.48 1102.52L1800.52 918.479V1102.52H1616.48Z"/><path d="M1800.52 1102.52L1985 918.479V1102.52H1800.52Z"/><path d="M499 154.521L683.479 -29.5215V154.521H499Z"/><path d="M683.479 154.521L867.521 -29.5215V154.521H683.479Z"/><path d="M867.521 154.521L1052 -29.5215V154.521H867.521Z"/><path d="M499 339L683.479 154.521V339H499Z"/><path d="M683.479 339L867.521 154.521V339H683.479Z"/><path d="M867.521 339L1052 154.521V339H867.521Z"/></g><g><path d="M178.635 139.281L184.422 144.246V166.626H215.704L219.958 172.147L215.69 177.397H184.422V198.795L178.635 203.747L173 198.795V144.232L178.635 139.281ZM195.554 195.68H219.406L223.397 200.915L219.143 206.45H195.554L191.7 201.342L195.554 195.68ZM196.382 138H219.129L223.383 143.52L219.129 148.77H196.659L192.115 143.677L196.382 138ZM323.155 148.628L328.251 154.291L323.155 159.968H246.13L241.172 154.291L246.13 148.628H323.155ZM237.043 172.147L241.849 167.893L246.669 172.147V178.393C246.669 188.879 249.417 197.515 261.668 197.515H264.14C275.147 197.515 281.197 189.86 281.197 177.952V172.005L285.879 167.75L290.699 171.862V178.379C290.699 189.007 293.723 196.946 305.56 196.946H307.618C319.178 196.946 321.235 187.869 321.373 177.952V171.578L326.056 167.608L331 171.72V178.094C330.862 191.838 327.285 207.574 308.032 207.574H305.974C294.552 207.574 288.365 202.324 285.892 195.808C283.006 202.466 275.299 208.286 264.844 208.286H262.358C242.553 208.286 237.194 195.964 237.056 178.663V172.147H237.043ZM276.391 274.744L273.642 267.089L280.796 264.969L305.974 276.721V252.491L311.07 248.095L316.291 252.491V281.829L325.641 286.226L328.251 293.311L320.959 296L276.391 274.744ZM321.235 223.011L328.113 226.27L325.917 233.497L264.002 263.119L256.571 260.146L259.596 252.776L321.235 223.011ZM231.905 263.404L237.954 268.512C237.402 286.51 222.403 296 204.669 296H202.874C194.062 296 183.759 292.6 177.157 286.083L177.834 278.855L184.298 278.002C189.118 282.256 195.858 285.229 202.183 285.229H204.117C216.091 285.229 225.303 280.136 226.27 268.085L231.905 263.404ZM226.256 251.638C225.704 239.16 216.629 234.209 204.103 234.209H202.169C194.739 234.209 189.104 237.182 184.284 241.436L177.834 240.583L177.143 233.355C183.745 226.696 192.957 223.58 202.597 223.58H204.517C222.403 223.58 237.402 232.942 237.94 251.211L231.891 256.176L226.256 251.638Z" fill="#ffffff"/></g><g fill="#ffffff" id="info-group"><path d="M167.0800 500L154.9000 500Q153.7800 500 152.8700 499.1600Q151.9600 498.3200 151.9600 497.0600L151.9600 497.0600Q151.9600 496.5000 152.2400 495.8000L152.2400 495.8000L185.9800 405.5000Q186.4000 404.1000 187.5900 403.0500Q188.7800 402 190.8800 402L190.8800 402L206.1400 402Q208.2400 402 209.3600 403.0500Q210.4800 404.1000 211.0400 405.5000L211.0400 405.5000L244.7800 495.8000Q244.9200 496.5000 244.9200 497.0600L244.9200 497.0600Q244.9200 498.3200 244.0800 499.1600Q243.2400 500 242.1200 500L242.1200 500L229.9400 500Q227.9800 500 227.0700 499.0900Q226.1600 498.1800 225.8800 497.3400L225.8800 497.3400L219.3000 480.2600L177.7200 480.2600L171.1400 497.3400Q170.8600 498.1800 169.9500 499.0900Q169.0400 500 167.0800 500L167.0800 500ZM198.4400 420.9000L182.6200 464.1600L214.4000 464.1600L198.4400 420.9000ZM283.2800 501.4000L283.2800 501.4000Q274.7400 501.4000 268.5100 497.5500Q262.2800 493.7000 258.9200 486.6300Q255.5600 479.5600 255.5600 469.9000L255.5600 469.9000L255.5600 430.5600Q255.5600 429.1600 256.5400 428.1800Q257.5200 427.2000 258.9200 427.2000L258.9200 427.2000L271.2400 427.2000Q272.7800 427.2000 273.6900 428.1800Q274.6000 429.1600 274.6000 430.5600L274.6000 430.5600L274.6000 469.0600Q274.6000 486.4200 289.8600 486.4200L289.8600 486.4200Q297.1400 486.4200 301.4100 481.8000Q305.6800 477.1800 305.6800 469.0600L305.6800 469.0600L305.6800 430.5600Q305.6800 429.1600 306.6600 428.1800Q307.6400 427.2000 309.0400 427.2000L309.0400 427.2000L321.3600 427.2000Q322.7600 427.2000 323.7400 428.1800Q324.7200 429.1600 324.7200 430.5600L324.7200 430.5600L324.7200 496.6400Q324.7200 498.0400 323.7400 499.0200Q322.7600 500 321.3600 500L321.3600 500L310.0200 500Q308.4800 500 307.5700 499.0200Q306.6600 498.0400 306.6600 496.6400L306.6600 496.6400L306.6600 490.9000Q302.8800 495.8000 297.2800 498.6000Q291.6800 501.4000 283.2800 501.4000ZM358.3200 500L346.7000 500Q345.3000 500 344.3200 499.0200Q343.3400 498.0400 343.3400 496.6400L343.3400 496.6400L343.3400 403.9600Q343.3400 402.5600 344.3200 401.5800Q345.3000 400.6000 346.7000 400.6000L346.7000 400.6000L358.3200 400.6000Q359.7200 400.6000 360.7000 401.5800Q361.6800 402.5600 361.6800 403.9600L361.6800 403.9600L361.6800 496.6400Q361.6800 498.0400 360.7000 499.0200Q359.7200 500 358.3200 500L358.3200 500ZM401.4400 501.4000L401.4400 501.4000Q394.1600 501.4000 388.2800 498.5300Q382.4000 495.6600 378.9700 490.8300Q375.5400 486 375.5400 479.9800L375.5400 479.9800Q375.5400 470.1800 383.5200 464.3700Q391.5000 458.5600 404.3800 456.6000L404.3800 456.6000L423.5600 453.8000L423.5600 450.8600Q423.5600 444.9800 420.6200 441.7600Q417.6800 438.5400 410.5400 438.5400L410.5400 438.5400Q405.5000 438.5400 402.3500 440.5700Q399.2000 442.6000 397.6600 445.9600L397.6600 445.9600Q396.5400 447.7800 394.4400 447.7800L394.4400 447.7800L383.3800 447.7800Q381.8400 447.7800 381.0700 446.9400Q380.3000 446.1000 380.3000 444.7000L380.3000 444.7000Q380.4400 442.4600 382.1900 439.2400Q383.9400 436.0200 387.5100 433.0100Q391.0800 430 396.8200 427.9000Q402.5600 425.8000 410.6800 425.8000L410.6800 425.8000Q419.5000 425.8000 425.5900 427.9700Q431.6800 430.1400 435.3200 433.7800Q438.9600 437.4200 440.6400 442.3200Q442.3200 447.2200 442.3200 452.6800L442.3200 452.6800L442.3200 496.6400Q442.3200 498.0400 441.3400 499.0200Q440.3600 500 438.9600 500L438.9600 500L427.6200 500Q426.0800 500 425.1700 499.0200Q424.2600 498.0400 424.2600 496.6400L424.2600 496.6400L424.2600 491.1800Q422.4400 493.7000 419.3600 496.0800Q416.2800 498.4600 411.8700 499.9300Q407.4600 501.4000 401.4400 501.4000ZM406.2000 488.1000L406.2000 488.1000Q411.1000 488.1000 415.0900 486Q419.0800 483.9000 421.3900 479.4900Q423.7000 475.0800 423.7000 468.3600L423.7000 468.3600L423.7000 465.4200L409.7000 467.6600Q401.4400 468.9200 397.3800 471.7200Q393.3200 474.5200 393.3200 478.5800L393.3200 478.5800Q393.3200 481.6600 395.2100 483.8300Q397.1000 486 400.0400 487.0500Q402.9800 488.1000 406.2000 488.1000ZM526.6000 501.4000L526.6000 501.4000Q516.8000 501.4000 509.6600 499.0200Q502.5200 496.6400 497.8300 492.7900Q493.1400 488.9400 490.7600 484.3900Q488.3800 479.8400 488.2400 475.3600L488.2400 475.3600Q488.2400 474.1000 489.1500 473.3300Q490.0600 472.5600 491.3200 472.5600L491.3200 472.5600L503.9200 472.5600Q505.3200 472.5600 506.3000 473.1200Q507.2800 473.6800 507.9800 475.3600L507.9800 475.3600Q509.2400 479.1400 512.1100 481.3800Q514.9800 483.6200 518.7600 484.5300Q522.5400 485.4400 526.7400 485.4400L526.7400 485.4400Q535.1400 485.4400 540.1100 481.4500Q545.0800 477.4600 545.0800 470.0400L545.0800 470.0400Q545.0800 462.6200 540.4600 459.3300Q535.8400 456.0400 527.5800 456.0400L527.5800 456.0400L513.1600 456.0400Q511.6200 456.0400 510.6400 455.1300Q509.6600 454.2200 509.6600 452.6800L509.6600 452.6800L509.6600 446.8000Q509.6600 445.4000 510.2900 444.3500Q510.9200 443.3000 511.6200 442.6000L511.6200 442.6000L536.6800 418.1000L496.6400 418.1000Q495.1000 418.1000 494.1900 417.1200Q493.2800 416.1400 493.2800 414.7400L493.2800 414.7400L493.2800 405.5000Q493.2800 403.9600 494.1900 402.9800Q495.1000 402 496.6400 402L496.6400 402L556.7000 402Q558.2400 402 559.2200 402.9800Q560.2000 403.9600 560.2000 405.5000L560.2000 405.5000L560.2000 413.9000Q560.2000 415.1600 559.6400 416.1400Q559.0800 417.1200 558.3800 417.8200L558.3800 417.8200L534.1600 442.7400L535.8400 442.8800Q544.3800 443.5800 551.0300 446.7300Q557.6800 449.8800 561.3900 455.9000Q565.1000 461.9200 565.1000 471.0200L565.1000 471.0200Q565.1000 480.5400 560.1300 487.3300Q555.1600 494.1200 546.4800 497.7600Q537.8000 501.4000 526.6000 501.4000ZM597.3000 451L583.4400 451Q582.0400 451 581.0600 450.0200Q580.0800 449.0400 580.0800 447.6400L580.0800 447.6400L580.0800 434.3400Q580.0800 432.8000 581.0600 431.8200Q582.0400 430.8400 583.4400 430.8400L583.4400 430.8400L597.3000 430.8400Q598.8400 430.8400 599.8200 431.8200Q600.8000 432.8000 600.8000 434.3400L600.8000 434.3400L600.8000 447.6400Q600.8000 449.0400 599.8200 450.0200Q598.8400 451 597.3000 451L597.3000 451ZM597.3000 500L583.4400 500Q582.0400 500 581.0600 499.0200Q580.0800 498.0400 580.0800 496.6400L580.0800 496.6400L580.0800 483.3400Q580.0800 481.8000 581.0600 480.8200Q582.0400 479.8400 583.4400 479.8400L583.4400 479.8400L597.3000 479.8400Q598.8400 479.8400 599.8200 480.8200Q600.8000 481.8000 600.8000 483.3400L600.8000 483.3400L600.8000 496.6400Q600.8000 498.0400 599.8200 499.0200Q598.8400 500 597.3000 500L597.3000 500ZM690.4000 501.4000L690.4000 501.4000Q677.3800 501.4000 668.3500 496.8500Q659.3200 492.3000 654.5600 483.8300Q649.8000 475.3600 649.2400 463.4600L649.2400 463.4600Q649.1000 457.7200 649.1000 451.1400Q649.1000 444.5600 649.2400 438.5400L649.2400 438.5400Q649.8000 426.7800 654.6300 418.2400Q659.4600 409.7000 668.4900 405.1500Q677.5200 400.6000 690.4000 400.6000L690.4000 400.6000Q699.9200 400.6000 707.4800 403.1200Q715.0400 405.6400 720.3600 410.0500Q725.6800 414.4600 728.6200 420.3400Q731.5600 426.2200 731.7000 433.0800L731.7000 433.0800Q731.8400 434.3400 730.9300 435.1800Q730.0200 436.0200 728.7600 436.0200L728.7600 436.0200L715.4600 436.0200Q713.9200 436.0200 712.9400 435.2500Q711.9600 434.4800 711.5400 432.6600L711.5400 432.6600Q709.3000 423.4200 703.8400 420.0600Q698.3800 416.7000 690.2600 416.7000L690.2600 416.7000Q680.8800 416.7000 675.2800 421.9500Q669.6800 427.2000 669.2600 439.2400L669.2600 439.2400Q668.8400 450.7200 669.2600 462.7600L669.2600 462.7600Q669.6800 474.8000 675.2800 480.0500Q680.8800 485.3000 690.2600 485.3000L690.2600 485.3000Q698.3800 485.3000 703.9100 481.8700Q709.4400 478.4400 711.5400 469.3400L711.5400 469.3400Q711.9600 467.3800 712.9400 466.6800Q713.9200 465.9800 715.4600 465.9800L715.4600 465.9800L728.7600 465.9800Q730.0200 465.9800 730.9300 466.8200Q731.8400 467.6600 731.7000 468.9200L731.7000 468.9200Q731.5600 475.7800 728.6200 481.6600Q725.6800 487.5400 720.3600 491.9500Q715.0400 496.3600 707.4800 498.8800Q699.9200 501.4000 690.4000 501.4000ZM778.8800 501.4000L778.8800 501.4000Q767.6800 501.4000 760.0500 497.4800Q752.4200 493.5600 748.4300 486.4200Q744.4400 479.2800 743.8800 469.7600L743.8800 469.7600Q743.7400 467.2400 743.7400 463.6000Q743.7400 459.9600 743.8800 457.4400L743.8800 457.4400Q744.4400 447.7800 748.5700 440.7100Q752.7000 433.6400 760.3300 429.7200Q767.9600 425.8000 778.8800 425.8000L778.8800 425.8000Q789.8000 425.8000 797.4300 429.7200Q805.0600 433.6400 809.1900 440.7100Q813.3200 447.7800 813.8800 457.4400L813.8800 457.4400Q814.0200 459.9600 814.0200 463.6000Q814.0200 467.2400 813.8800 469.7600L813.8800 469.7600Q813.3200 479.2800 809.3300 486.4200Q805.3400 493.5600 797.7100 497.4800Q790.0800 501.4000 778.8800 501.4000ZM778.8800 487.5400L778.8800 487.5400Q786.3000 487.5400 790.3600 482.8500Q794.4200 478.1600 794.8400 469.0600L794.8400 469.0600Q794.9800 466.9600 794.9800 463.6000Q794.9800 460.2400 794.8400 458.1400L794.8400 458.1400Q794.4200 449.0400 790.3600 444.3500Q786.3000 439.6600 778.8800 439.6600L778.8800 439.6600Q771.4600 439.6600 767.4000 444.3500Q763.3400 449.0400 762.9200 458.1400L762.9200 458.1400Q762.7800 460.2400 762.7800 463.6000Q762.7800 466.9600 762.9200 469.0600L762.9200 469.0600Q763.3400 478.1600 767.4000 482.8500Q771.4600 487.5400 778.8800 487.5400ZM844.6800 500L832.9200 500Q831.5200 500 830.5400 499.0200Q829.5600 498.0400 829.5600 496.6400L829.5600 496.6400L829.5600 430.5600Q829.5600 429.1600 830.5400 428.1800Q831.5200 427.2000 832.9200 427.2000L832.9200 427.2000L843.8400 427.2000Q845.2400 427.2000 846.2200 428.1800Q847.2000 429.1600 847.2000 430.5600L847.2000 430.5600L847.2000 435.3200Q850.1400 431.4000 855.1100 428.6700Q860.0800 425.9400 866.9400 425.8000L866.9400 425.8000Q882.9000 425.5200 889.2000 438.2600L889.2000 438.2600Q892.4200 432.6600 898.5100 429.2300Q904.6000 425.8000 912.0200 425.8000L912.0200 425.8000Q919.3000 425.8000 925.2500 429.1600Q931.2000 432.5200 934.6300 439.3100Q938.0600 446.1000 938.0600 456.4600L938.0600 456.4600L938.0600 496.6400Q938.0600 498.0400 937.0800 499.0200Q936.1000 500 934.7000 500L934.7000 500L923.2200 500Q921.8200 500 920.8400 499.0200Q919.8600 498.0400 919.8600 496.6400L919.8600 496.6400L919.8600 457.5800Q919.8600 451.2800 918.0400 447.5700Q916.2200 443.8600 913.1400 442.3200Q910.0600 440.7800 906.2800 440.7800L906.2800 440.7800Q903.2000 440.7800 900.1200 442.3200Q897.0400 443.8600 895.0800 447.5700Q893.1200 451.2800 893.1200 457.5800L893.1200 457.5800L893.1200 496.6400Q893.1200 498.0400 892.1400 499.0200Q891.1600 500 889.7600 500L889.7600 500L878.2800 500Q876.8800 500 875.9000 499.0200Q874.9200 498.0400 874.9200 496.6400L874.9200 496.6400L874.9200 457.5800Q874.9200 451.2800 872.9600 447.5700Q871 443.8600 867.9200 442.3200Q864.8400 440.7800 861.3400 440.7800L861.3400 440.7800Q858.1200 440.7800 855.0400 442.3900Q851.9600 444 850 447.6400Q848.0400 451.2800 848.0400 457.5800L848.0400 457.5800L848.0400 496.6400Q848.0400 498.0400 847.0600 499.0200Q846.0800 500 844.6800 500L844.6800 500ZM988.0400 501.4000L988.0400 501.4000Q976.8400 501.4000 969.2100 497.4800Q961.5800 493.5600 957.5900 486.4200Q953.6000 479.2800 953.0400 469.7600L953.0400 469.7600Q952.9000 467.2400 952.9000 463.6000Q952.9000 459.9600 953.0400 457.4400L953.0400 457.4400Q953.6000 447.7800 957.7300 440.7100Q961.8600 433.6400 969.4900 429.7200Q977.1200 425.8000 988.0400 425.8000L988.0400 425.8000Q998.9600 425.8000 1006.5900 429.7200Q1014.2200 433.6400 1018.3500 440.7100Q1022.4800 447.7800 1023.0400 457.4400L1023.0400 457.4400Q1023.1800 459.9600 1023.1800 463.6000Q1023.1800 467.2400 1023.0400 469.7600L1023.0400 469.7600Q1022.4800 479.2800 1018.4900 486.4200Q1014.5000 493.5600 1006.8700 497.4800Q999.2400 501.4000 988.0400 501.4000ZM988.0400 487.5400L988.0400 487.5400Q995.4600 487.5400 999.5200 482.8500Q1003.5800 478.1600 1004 469.0600L1004 469.0600Q1004.1400 466.9600 1004.1400 463.6000Q1004.1400 460.2400 1004 458.1400L1004 458.1400Q1003.5800 449.0400 999.5200 444.3500Q995.4600 439.6600 988.0400 439.6600L988.0400 439.6600Q980.6200 439.6600 976.5600 444.3500Q972.5000 449.0400 972.0800 458.1400L972.0800 458.1400Q971.9400 460.2400 971.9400 463.6000Q971.9400 466.9600 972.0800 469.0600L972.0800 469.0600Q972.5000 478.1600 976.5600 482.8500Q980.6200 487.5400 988.0400 487.5400ZM1102.2800 501.4000L1102.2800 501.4000Q1092.2000 501.4000 1084.5700 497.6200Q1076.9400 493.8400 1072.6700 486.6300Q1068.4000 479.4200 1067.9800 469.2000L1067.9800 469.2000Q1067.8400 467.1000 1067.8400 463.6700Q1067.8400 460.2400 1067.9800 458L1067.9800 458Q1068.4000 447.7800 1072.6700 440.5700Q1076.9400 433.3600 1084.5700 429.5800Q1092.2000 425.8000 1102.2800 425.8000L1102.2800 425.8000Q1111.2400 425.8000 1117.5400 428.2500Q1123.8400 430.7000 1127.9000 434.5500Q1131.9600 438.4000 1133.9900 442.5300Q1136.0200 446.6600 1136.1600 450.0200L1136.1600 450.0200Q1136.3000 451.5600 1135.2500 452.4700Q1134.2000 453.3800 1132.8000 453.3800L1132.8000 453.3800L1120.4800 453.3800Q1119.0800 453.3800 1118.3100 452.6800Q1117.5400 451.9800 1116.8400 450.5800L1116.8400 450.5800Q1114.7400 444.9800 1111.3100 442.6700Q1107.8800 440.3600 1102.5600 440.3600L1102.5600 440.3600Q1095.5600 440.3600 1091.4300 444.7700Q1087.3000 449.1800 1087.0200 458.7000L1087.0200 458.7000Q1086.7400 464.0200 1087.0200 468.5000L1087.0200 468.5000Q1087.3000 478.1600 1091.4300 482.5000Q1095.5600 486.8400 1102.5600 486.8400L1102.5600 486.8400Q1108.0200 486.8400 1111.3800 484.5300Q1114.7400 482.2200 1116.8400 476.6200L1116.8400 476.6200Q1117.5400 475.2200 1118.3100 474.5200Q1119.0800 473.8200 1120.4800 473.8200L1120.4800 473.8200L1132.8000 473.8200Q1134.2000 473.8200 1135.2500 474.7300Q1136.3000 475.6400 1136.1600 477.1800L1136.1600 477.1800Q1136.0200 479.7000 1134.8300 482.8500Q1133.6400 486 1131.0500 489.2900Q1128.4600 492.5800 1124.5400 495.3100Q1120.6200 498.0400 1115.0900 499.7200Q1109.5600 501.4000 1102.2800 501.4000ZM1166.2600 500L1154.0800 500Q1152.6800 500 1151.7000 499.0200Q1150.7200 498.0400 1150.7200 496.6400L1150.7200 496.6400L1150.7200 430.7000Q1150.7200 429.1600 1151.7000 428.1800Q1152.6800 427.2000 1154.0800 427.2000L1154.0800 427.2000L1165.4200 427.2000Q1166.8200 427.2000 1167.8700 428.1800Q1168.9200 429.1600 1168.9200 430.7000L1168.9200 430.7000L1168.9200 436.4400Q1172.1400 431.9600 1177.2500 429.5800Q1182.3600 427.2000 1189.0800 427.2000L1189.0800 427.2000L1194.8200 427.2000Q1196.3600 427.2000 1197.2700 428.1800Q1198.1800 429.1600 1198.1800 430.5600L1198.1800 430.5600L1198.1800 440.6400Q1198.1800 442.0400 1197.2700 443.0200Q1196.3600 444 1194.8200 444L1194.8200 444L1183.9000 444Q1177.1800 444 1173.4700 447.7100Q1169.7600 451.4200 1169.7600 458.1400L1169.7600 458.1400L1169.7600 496.6400Q1169.7600 498.0400 1168.7800 499.0200Q1167.8000 500 1166.2600 500L1166.2600 500ZM1224.0800 500L1212.4600 500Q1211.0600 500 1210.0800 499.0200Q1209.1000 498.0400 1209.1000 496.6400L1209.1000 496.6400L1209.1000 430.5600Q1209.1000 429.1600 1210.0800 428.1800Q1211.0600 427.2000 1212.4600 427.2000L1212.4600 427.2000L1224.0800 427.2000Q1225.6200 427.2000 1226.5300 428.1800Q1227.4400 429.1600 1227.4400 430.5600L1227.4400 430.5600L1227.4400 496.6400Q1227.4400 498.0400 1226.5300 499.0200Q1225.6200 500 1224.0800 500L1224.0800 500ZM1224.6400 415.1600L1211.9000 415.1600Q1210.5000 415.1600 1209.5200 414.1800Q1208.5400 413.2000 1208.5400 411.8000L1208.5400 411.8000L1208.5400 401.7200Q1208.5400 400.3200 1209.5200 399.3400Q1210.5000 398.3600 1211.9000 398.3600L1211.9000 398.3600L1224.6400 398.3600Q1226.1800 398.3600 1227.1600 399.3400Q1228.1400 400.3200 1228.1400 401.7200L1228.1400 401.7200L1228.1400 411.8000Q1228.1400 413.2000 1227.1600 414.1800Q1226.1800 415.1600 1224.6400 415.1600L1224.6400 415.1600ZM1267.2000 501.4000L1267.2000 501.4000Q1259.9200 501.4000 1254.0400 498.5300Q1248.1600 495.6600 1244.7300 490.8300Q1241.3000 486 1241.3000 479.9800L1241.3000 479.9800Q1241.3000 470.1800 1249.2800 464.3700Q1257.2600 458.5600 1270.1400 456.6000L1270.1400 456.6000L1289.3200 453.8000L1289.3200 450.8600Q1289.3200 444.9800 1286.3800 441.7600Q1283.4400 438.5400 1276.3000 438.5400L1276.3000 438.5400Q1271.2600 438.5400 1268.1100 440.5700Q1264.9600 442.6000 1263.4200 445.9600L1263.4200 445.9600Q1262.3000 447.7800 1260.2000 447.7800L1260.2000 447.7800L1249.1400 447.7800Q1247.6000 447.7800 1246.8300 446.9400Q1246.0600 446.1000 1246.0600 444.7000L1246.0600 444.7000Q1246.2000 442.4600 1247.9500 439.2400Q1249.7000 436.0200 1253.2700 433.0100Q1256.8400 430 1262.5800 427.9000Q1268.3200 425.8000 1276.4400 425.8000L1276.4400 425.8000Q1285.2600 425.8000 1291.3500 427.9700Q1297.4400 430.1400 1301.0800 433.7800Q1304.7200 437.4200 1306.4000 442.3200Q1308.0800 447.2200 1308.0800 452.6800L1308.0800 452.6800L1308.0800 496.6400Q1308.0800 498.0400 1307.1000 499.0200Q1306.1200 500 1304.7200 500L1304.7200 500L1293.3800 500Q1291.8400 500 1290.9300 499.0200Q1290.0200 498.0400 1290.0200 496.6400L1290.0200 496.6400L1290.0200 491.1800Q1288.2000 493.7000 1285.1200 496.0800Q1282.0400 498.4600 1277.6300 499.9300Q1273.2200 501.4000 1267.2000 501.4000ZM1271.9600 488.1000L1271.9600 488.1000Q1276.8600 488.1000 1280.8500 486Q1284.8400 483.9000 1287.1500 479.4900Q1289.4600 475.0800 1289.4600 468.3600L1289.4600 468.3600L1289.4600 465.4200L1275.4600 467.6600Q1267.2000 468.9200 1263.1400 471.7200Q1259.0800 474.5200 1259.0800 478.5800L1259.0800 478.5800Q1259.0800 481.6600 1260.9700 483.8300Q1262.8600 486 1265.8000 487.0500Q1268.7400 488.1000 1271.9600 488.1000ZM1341.5400 500L1329.3600 500Q1327.9600 500 1326.9800 499.0200Q1326.0000 498.0400 1326.0000 496.6400L1326.0000 496.6400L1326.0000 430.7000Q1326.0000 429.1600 1326.9800 428.1800Q1327.9600 427.2000 1329.3600 427.2000L1329.3600 427.2000L1340.7000 427.2000Q1342.1000 427.2000 1343.1500 428.1800Q1344.2000 429.1600 1344.2000 430.7000L1344.2000 430.7000L1344.2000 436.4400Q1347.4200 431.9600 1352.5300 429.5800Q1357.6400 427.2000 1364.3600 427.2000L1364.3600 427.2000L1370.1000 427.2000Q1371.6400 427.2000 1372.5500 428.1800Q1373.4600 429.1600 1373.4600 430.5600L1373.4600 430.5600L1373.4600 440.6400Q1373.4600 442.0400 1372.5500 443.0200Q1371.6400 444 1370.1000 444L1370.1000 444L1359.1800 444Q1352.4600 444 1348.7500 447.7100Q1345.0400 451.4200 1345.0400 458.1400L1345.0400 458.1400L1345.0400 496.6400Q1345.0400 498.0400 1344.0600 499.0200Q1343.0800 500 1341.5400 500L1341.5400 500ZM174.7800 640L162.6000 640Q161.2000 640 160.2200 639.0200Q159.2400 638.0400 159.2400 636.6400L159.2400 636.6400L159.2400 570.7000Q159.2400 569.1600 160.2200 568.1800Q161.2000 567.2000 162.6000 567.2000L162.6000 567.2000L173.9400 567.2000Q175.3400 567.2000 176.3900 568.1800Q177.4400 569.1600 177.4400 570.7000L177.4400 570.7000L177.4400 576.4400Q180.6600 571.9600 185.7700 569.5800Q190.8800 567.2000 197.6000 567.2000L197.6000 567.2000L203.3400 567.2000Q204.8800 567.2000 205.7900 568.1800Q206.7000 569.1600 206.7000 570.5600L206.7000 570.5600L206.7000 580.6400Q206.7000 582.0400 205.7900 583.0200Q204.8800 584 203.3400 584L203.3400 584L192.4200 584Q185.7000 584 181.9900 587.7100Q178.2800 591.4200 178.2800 598.1400L178.2800 598.1400L178.2800 636.6400Q178.2800 638.0400 177.3000 639.0200Q176.3200 640 174.7800 640L174.7800 640ZM248.9800 641.4000L248.9800 641.4000Q233.4400 641.4000 224.3400 632.4400Q215.2400 623.4800 214.5400 606.9600L214.5400 606.9600Q214.4000 605.5600 214.4000 603.3900Q214.4000 601.2200 214.5400 599.9600L214.5400 599.9600Q215.1000 589.3200 219.3700 581.6900Q223.6400 574.0600 231.2000 569.9300Q238.7600 565.8000 248.9800 565.8000L248.9800 565.8000Q260.3200 565.8000 268.0200 570.4900Q275.7200 575.1800 279.6400 583.5100Q283.5600 591.8400 283.5600 602.7600L283.5600 602.7600L283.5600 605.7000Q283.5600 607.1000 282.5800 608.0800Q281.6000 609.0600 280.0600 609.0600L280.0600 609.0600L233.5800 609.0600Q233.5800 609.0600 233.5800 609.4800Q233.5800 609.9000 233.5800 610.1800L233.5800 610.1800Q233.7200 615.0800 235.4700 619.2100Q237.2200 623.3400 240.6500 625.8600Q244.0800 628.3800 248.8400 628.3800L248.8400 628.3800Q252.7600 628.3800 255.4200 627.1900Q258.0800 626 259.7600 624.4600Q261.4400 622.9200 262.1400 621.9400L262.1400 621.9400Q263.4000 620.2600 264.1700 619.9100Q264.9400 619.5600 266.4800 619.5600L266.4800 619.5600L278.5200 619.5600Q279.9200 619.5600 280.8300 620.4000Q281.7400 621.2400 281.6000 622.5000L281.6000 622.5000Q281.4600 624.7400 279.2900 627.9600Q277.1200 631.1800 273.0600 634.2600Q269 637.3400 262.9100 639.3700Q256.8200 641.4000 248.9800 641.4000ZM233.5800 596.8800L233.5800 597.3000L264.5200 597.3000L264.5200 596.8800Q264.5200 591.4200 262.7000 587.2900Q260.8800 583.1600 257.3800 580.8500Q253.8800 578.5400 248.9800 578.5400L248.9800 578.5400Q244.0800 578.5400 240.5800 580.8500Q237.0800 583.1600 235.3300 587.2900Q233.5800 591.4200 233.5800 596.8800L233.5800 596.8800ZM313.5200 640L301.9000 640Q300.5000 640 299.5200 639.0200Q298.5400 638.0400 298.5400 636.6400L298.5400 636.6400L298.5400 543.9600Q298.5400 542.5600 299.5200 541.5800Q300.5000 540.6000 301.9000 540.6000L301.9000 540.6000L313.5200 540.6000Q314.9200 540.6000 315.9000 541.5800Q316.8800 542.5600 316.8800 543.9600L316.8800 543.9600L316.8800 636.6400Q316.8800 638.0400 315.9000 639.0200Q314.9200 640 313.5200 640L313.5200 640ZM356.6400 641.4000L356.6400 641.4000Q349.3600 641.4000 343.4800 638.5300Q337.6000 635.6600 334.1700 630.8300Q330.7400 626 330.7400 619.9800L330.7400 619.9800Q330.7400 610.1800 338.7200 604.3700Q346.7000 598.5600 359.5800 596.6000L359.5800 596.6000L378.7600 593.8000L378.7600 590.8600Q378.7600 584.9800 375.8200 581.7600Q372.8800 578.5400 365.7400 578.5400L365.7400 578.5400Q360.7000 578.5400 357.5500 580.5700Q354.4000 582.6000 352.8600 585.9600L352.8600 585.9600Q351.7400 587.7800 349.6400 587.7800L349.6400 587.7800L338.5800 587.7800Q337.0400 587.7800 336.2700 586.9400Q335.5000 586.1000 335.5000 584.7000L335.5000 584.7000Q335.6400 582.4600 337.3900 579.2400Q339.1400 576.0200 342.7100 573.0100Q346.2800 570 352.0200 567.9000Q357.7600 565.8000 365.8800 565.8000L365.8800 565.8000Q374.7000 565.8000 380.7900 567.9700Q386.8800 570.1400 390.5200 573.7800Q394.1600 577.4200 395.8400 582.3200Q397.5200 587.2200 397.5200 592.6800L397.5200 592.6800L397.5200 636.6400Q397.5200 638.0400 396.5400 639.0200Q395.5600 640 394.1600 640L394.1600 640L382.8200 640Q381.2800 640 380.3700 639.0200Q379.4600 638.0400 379.4600 636.6400L379.4600 636.6400L379.4600 631.1800Q377.6400 633.7000 374.5600 636.0800Q371.4800 638.4600 367.0700 639.9300Q362.6600 641.4000 356.6400 641.4000ZM361.4000 628.1000L361.4000 628.1000Q366.3000 628.1000 370.2900 626Q374.2800 623.9000 376.5900 619.4900Q378.9000 615.0800 378.9000 608.3600L378.9000 608.3600L378.9000 605.4200L364.9000 607.6600Q356.6400 608.9200 352.5800 611.7200Q348.5200 614.5200 348.5200 618.5800L348.5200 618.5800Q348.5200 621.6600 350.4100 623.8300Q352.3000 626 355.2400 627.0500Q358.1800 628.1000 361.4000 628.1000ZM446.9400 641.4000L446.9400 641.4000Q436.8600 641.4000 429.2300 637.6200Q421.6000 633.8400 417.3300 626.6300Q413.0600 619.4200 412.6400 609.2000L412.6400 609.2000Q412.5000 607.1000 412.5000 603.6700Q412.5000 600.2400 412.6400 598L412.6400 598Q413.0600 587.7800 417.3300 580.5700Q421.6000 573.3600 429.2300 569.5800Q436.8600 565.8000 446.9400 565.8000L446.9400 565.8000Q455.9000 565.8000 462.2000 568.2500Q468.5000 570.7000 472.5600 574.5500Q476.6200 578.4000 478.6500 582.5300Q480.6800 586.6600 480.8200 590.0200L480.8200 590.0200Q480.9600 591.5600 479.9100 592.4700Q478.8600 593.3800 477.4600 593.3800L477.4600 593.3800L465.1400 593.3800Q463.7400 593.3800 462.9700 592.6800Q462.2000 591.9800 461.5000 590.5800L461.5000 590.5800Q459.4000 584.9800 455.9700 582.6700Q452.5400 580.3600 447.2200 580.3600L447.2200 580.3600Q440.2200 580.3600 436.0900 584.7700Q431.9600 589.1800 431.6800 598.7000L431.6800 598.7000Q431.4000 604.0200 431.6800 608.5000L431.6800 608.5000Q431.9600 618.1600 436.0900 622.5000Q440.2200 626.8400 447.2200 626.8400L447.2200 626.8400Q452.6800 626.8400 456.0400 624.5300Q459.4000 622.2200 461.5000 616.6200L461.5000 616.6200Q462.2000 615.2200 462.9700 614.5200Q463.7400 613.8200 465.1400 613.8200L465.1400 613.8200L477.4600 613.8200Q478.8600 613.8200 479.9100 614.7300Q480.9600 615.6400 480.8200 617.1800L480.8200 617.1800Q480.6800 619.7000 479.4900 622.8500Q478.3000 626 475.7100 629.2900Q473.1200 632.5800 469.2000 635.3100Q465.2800 638.0400 459.7500 639.7200Q454.2200 641.4000 446.9400 641.4000ZM510.3600 640L498.7400 640Q497.3400 640 496.3600 639.0200Q495.3800 638.0400 495.3800 636.6400L495.3800 636.6400L495.3800 570.5600Q495.3800 569.1600 496.3600 568.1800Q497.3400 567.2000 498.7400 567.2000L498.7400 567.2000L510.3600 567.2000Q511.9000 567.2000 512.8100 568.1800Q513.7200 569.1600 513.7200 570.5600L513.7200 570.5600L513.7200 636.6400Q513.7200 638.0400 512.8100 639.0200Q511.9000 640 510.3600 640L510.3600 640ZM510.9200 555.1600L498.1800 555.1600Q496.7800 555.1600 495.8000 554.1800Q494.8200 553.2000 494.8200 551.8000L494.8200 551.8000L494.8200 541.7200Q494.8200 540.3200 495.8000 539.3400Q496.7800 538.3600 498.1800 538.3600L498.1800 538.3600L510.9200 538.3600Q512.4600 538.3600 513.4400 539.3400Q514.4200 540.3200 514.4200 541.7200L514.4200 541.7200L514.4200 551.8000Q514.4200 553.2000 513.4400 554.1800Q512.4600 555.1600 510.9200 555.1600L510.9200 555.1600ZM564.5400 641.4000L564.5400 641.4000Q553.3400 641.4000 545.7100 637.4800Q538.0800 633.5600 534.0900 626.4200Q530.1000 619.2800 529.5400 609.7600L529.5400 609.7600Q529.4000 607.2400 529.4000 603.6000Q529.4000 599.9600 529.5400 597.4400L529.5400 597.4400Q530.1000 587.7800 534.2300 580.7100Q538.3600 573.6400 545.9900 569.7200Q553.6200 565.8000 564.5400 565.8000L564.5400 565.8000Q575.4600 565.8000 583.0900 569.7200Q590.7200 573.6400 594.8500 580.7100Q598.9800 587.7800 599.5400 597.4400L599.5400 597.4400Q599.6800 599.9600 599.6800 603.6000Q599.6800 607.2400 599.5400 609.7600L599.5400 609.7600Q598.9800 619.2800 594.9900 626.4200Q591 633.5600 583.3700 637.4800Q575.7400 641.4000 564.5400 641.4000ZM564.5400 627.5400L564.5400 627.5400Q571.9600 627.5400 576.0200 622.8500Q580.0800 618.1600 580.5000 609.0600L580.5000 609.0600Q580.6400 606.9600 580.6400 603.6000Q580.6400 600.2400 580.5000 598.1400L580.5000 598.1400Q580.0800 589.0400 576.0200 584.3500Q571.9600 579.6600 564.5400 579.6600L564.5400 579.6600Q557.1200 579.6600 553.0600 584.3500Q549 589.0400 548.5800 598.1400L548.5800 598.1400Q548.4400 600.2400 548.4400 603.6000Q548.4400 606.9600 548.5800 609.0600L548.5800 609.0600Q549 618.1600 553.0600 622.8500Q557.1200 627.5400 564.5400 627.5400ZM630.9000 640L618.5800 640Q617.1800 640 616.2000 639.0200Q615.2200 638.0400 615.2200 636.6400L615.2200 636.6400L615.2200 570.5600Q615.2200 569.1600 616.2000 568.1800Q617.1800 567.2000 618.5800 567.2000L618.5800 567.2000L630.0600 567.2000Q631.4600 567.2000 632.4400 568.1800Q633.4200 569.1600 633.4200 570.5600L633.4200 570.5600L633.4200 576.3000Q637.0600 571.8200 642.7300 568.8100Q648.4000 565.8000 656.8000 565.8000L656.8000 565.8000Q665.3400 565.8000 671.6400 569.6500Q677.9400 573.5000 681.3700 580.5000Q684.8000 587.5000 684.8000 597.3000L684.8000 597.3000L684.8000 636.6400Q684.8000 638.0400 683.8200 639.0200Q682.8400 640 681.4400 640L681.4400 640L669.1200 640Q667.7200 640 666.7400 639.0200Q665.7600 638.0400 665.7600 636.6400L665.7600 636.6400L665.7600 598.1400Q665.7600 590.0200 661.7700 585.4000Q657.7800 580.7800 650.2200 580.7800L650.2200 580.7800Q642.9400 580.7800 638.6000 585.4000Q634.2600 590.0200 634.2600 598.1400L634.2600 598.1400L634.2600 636.6400Q634.2600 638.0400 633.2800 639.0200Q632.3000 640 630.9000 640L630.9000 640ZM723.7200 641.4000L723.7200 641.4000Q716.4400 641.4000 710.5600 638.5300Q704.6800 635.6600 701.2500 630.8300Q697.8200 626 697.8200 619.9800L697.8200 619.9800Q697.8200 610.1800 705.8000 604.3700Q713.7800 598.5600 726.6600 596.6000L726.6600 596.6000L745.8400 593.8000L745.8400 590.8600Q745.8400 584.9800 742.9000 581.7600Q739.9600 578.5400 732.8200 578.5400L732.8200 578.5400Q727.7800 578.5400 724.6300 580.5700Q721.4800 582.6000 719.9400 585.9600L719.9400 585.9600Q718.8200 587.7800 716.7200 587.7800L716.7200 587.7800L705.6600 587.7800Q704.1200 587.7800 703.3500 586.9400Q702.5800 586.1000 702.5800 584.7000L702.5800 584.7000Q702.7200 582.4600 704.4700 579.2400Q706.2200 576.0200 709.7900 573.0100Q713.3600 570 719.1000 567.9000Q724.8400 565.8000 732.9600 565.8000L732.9600 565.8000Q741.7800 565.8000 747.8700 567.9700Q753.9600 570.1400 757.6000 573.7800Q761.2400 577.4200 762.9200 582.3200Q764.6000 587.2200 764.6000 592.6800L764.6000 592.6800L764.6000 636.6400Q764.6000 638.0400 763.6200 639.0200Q762.6400 640 761.2400 640L761.2400 640L749.9000 640Q748.3600 640 747.4500 639.0200Q746.5400 638.0400 746.5400 636.6400L746.5400 636.6400L746.5400 631.1800Q744.7200 633.7000 741.6400 636.0800Q738.5600 638.4600 734.1500 639.9300Q729.7400 641.4000 723.7200 641.4000ZM728.4800 628.1000L728.4800 628.1000Q733.3800 628.1000 737.3700 626Q741.3600 623.9000 743.6700 619.4900Q745.9800 615.0800 745.9800 608.3600L745.9800 608.3600L745.9800 605.4200L731.9800 607.6600Q723.7200 608.9200 719.6600 611.7200Q715.6000 614.5200 715.6000 618.5800L715.6000 618.5800Q715.6000 621.6600 717.4900 623.8300Q719.3800 626 722.3200 627.0500Q725.2600 628.1000 728.4800 628.1000ZM797.6400 640L785.8800 640Q784.4800 640 783.5000 639.0200Q782.5200 638.0400 782.5200 636.6400L782.5200 636.6400L782.5200 570.5600Q782.5200 569.1600 783.5000 568.1800Q784.4800 567.2000 785.8800 567.2000L785.8800 567.2000L796.8000 567.2000Q798.2000 567.2000 799.1800 568.1800Q800.1600 569.1600 800.1600 570.5600L800.1600 570.5600L800.1600 575.3200Q803.1000 571.4000 808.0700 568.6700Q813.0400 565.9400 819.9000 565.8000L819.9000 565.8000Q835.8600 565.5200 842.1600 578.2600L842.1600 578.2600Q845.3800 572.6600 851.4700 569.2300Q857.5600 565.8000 864.9800 565.8000L864.9800 565.8000Q872.2600 565.8000 878.2100 569.1600Q884.1600 572.5200 887.5900 579.3100Q891.0200 586.1000 891.0200 596.4600L891.0200 596.4600L891.0200 636.6400Q891.0200 638.0400 890.0400 639.0200Q889.0600 640 887.6600 640L887.6600 640L876.1800 640Q874.7800 640 873.8000 639.0200Q872.8200 638.0400 872.8200 636.6400L872.8200 636.6400L872.8200 597.5800Q872.8200 591.2800 871.0000 587.5700Q869.1800 583.8600 866.1000 582.3200Q863.0200 580.7800 859.2400 580.7800L859.2400 580.7800Q856.1600 580.7800 853.0800 582.3200Q850.0000 583.8600 848.0400 587.5700Q846.0800 591.2800 846.0800 597.5800L846.0800 597.5800L846.0800 636.6400Q846.0800 638.0400 845.1000 639.0200Q844.1200 640 842.7200 640L842.7200 640L831.2400 640Q829.8400 640 828.8600 639.0200Q827.8800 638.0400 827.8800 636.6400L827.8800 636.6400L827.8800 597.5800Q827.8800 591.2800 825.9200 587.5700Q823.9600 583.8600 820.8800 582.3200Q817.8000 580.7800 814.3000 580.7800L814.3000 580.7800Q811.0800 580.7800 808.0000 582.3900Q804.9200 584 802.9600 587.6400Q801.0000 591.2800 801.0000 597.5800L801.0000 597.5800L801.0000 636.6400Q801.0000 638.0400 800.0200 639.0200Q799.0400 640 797.6400 640L797.6400 640ZM940.1600 641.4000L940.1600 641.4000Q924.6200 641.4000 915.5200 632.4400Q906.4200 623.4800 905.7200 606.9600L905.7200 606.9600Q905.5800 605.5600 905.5800 603.3900Q905.5800 601.2200 905.7200 599.9600L905.7200 599.9600Q906.2800 589.3200 910.5500 581.6900Q914.8200 574.0600 922.3800 569.9300Q929.9400 565.8000 940.1600 565.8000L940.1600 565.8000Q951.5000 565.8000 959.2000 570.4900Q966.9000 575.1800 970.8200 583.5100Q974.7400 591.8400 974.7400 602.7600L974.7400 602.7600L974.7400 605.7000Q974.7400 607.1000 973.7600 608.0800Q972.7800 609.0600 971.2400 609.0600L971.2400 609.0600L924.7600 609.0600Q924.7600 609.0600 924.7600 609.4800Q924.7600 609.9000 924.7600 610.1800L924.7600 610.1800Q924.9000 615.0800 926.6500 619.2100Q928.4000 623.3400 931.8300 625.8600Q935.2600 628.3800 940.0200 628.3800L940.0200 628.3800Q943.9400 628.3800 946.6000 627.1900Q949.2600 626 950.9400 624.4600Q952.6200 622.9200 953.3200 621.9400L953.3200 621.9400Q954.5800 620.2600 955.3500 619.9100Q956.1200 619.5600 957.6600 619.5600L957.6600 619.5600L969.7000 619.5600Q971.1000 619.5600 972.0100 620.4000Q972.9200 621.2400 972.7800 622.5000L972.7800 622.5000Q972.6400 624.7400 970.4700 627.9600Q968.3000 631.1800 964.2400 634.2600Q960.1800 637.3400 954.0900 639.3700Q948.0000 641.4000 940.1600 641.4000ZM924.7600 596.8800L924.7600 597.3000L955.7000 597.3000L955.7000 596.8800Q955.7000 591.4200 953.8800 587.2900Q952.0600 583.1600 948.5600 580.8500Q945.0600 578.5400 940.1600 578.5400L940.1600 578.5400Q935.2600 578.5400 931.7600 580.8500Q928.2600 583.1600 926.5100 587.2900Q924.7600 591.4200 924.7600 596.8800L924.7600 596.8800ZM1005.2600 640L992.9400 640Q991.5400 640 990.5600 639.0200Q989.5800 638.0400 989.5800 636.6400L989.5800 636.6400L989.5800 570.5600Q989.5800 569.1600 990.5600 568.1800Q991.5400 567.2000 992.9400 567.2000L992.9400 567.2000L1004.4200 567.2000Q1005.8200 567.2000 1006.8000 568.1800Q1007.7800 569.1600 1007.7800 570.5600L1007.7800 570.5600L1007.7800 576.3000Q1011.4200 571.8200 1017.0900 568.8100Q1022.7600 565.8000 1031.1600 565.8000L1031.1600 565.8000Q1039.7000 565.8000 1046 569.6500Q1052.3000 573.5000 1055.7300 580.5000Q1059.1600 587.5000 1059.1600 597.3000L1059.1600 597.3000L1059.1600 636.6400Q1059.1600 638.0400 1058.1800 639.0200Q1057.2000 640 1055.8000 640L1055.8000 640L1043.4800 640Q1042.0800 640 1041.1000 639.0200Q1040.1200 638.0400 1040.1200 636.6400L1040.1200 636.6400L1040.1200 598.1400Q1040.1200 590.0200 1036.1300 585.4000Q1032.1400 580.7800 1024.5800 580.7800L1024.5800 580.7800Q1017.3000 580.7800 1012.9600 585.4000Q1008.6200 590.0200 1008.6200 598.1400L1008.6200 598.1400L1008.6200 636.6400Q1008.6200 638.0400 1007.6400 639.0200Q1006.6600 640 1005.2600 640L1005.2600 640ZM1121.1800 640L1109.8400 640Q1101.4400 640 1095.7000 637.0600Q1089.9600 634.1200 1087.1600 628.3100Q1084.3600 622.5000 1084.3600 613.8200L1084.3600 613.8200L1084.3600 582.0400L1073.3000 582.0400Q1071.9000 582.0400 1070.9200 581.0600Q1069.9400 580.0800 1069.9400 578.5400L1069.9400 578.5400L1069.9400 570.5600Q1069.9400 569.1600 1070.9200 568.1800Q1071.9000 567.2000 1073.3000 567.2000L1073.3000 567.2000L1084.3600 567.2000L1084.3600 543.9600Q1084.3600 542.5600 1085.2700 541.5800Q1086.1800 540.6000 1087.7200 540.6000L1087.7200 540.6000L1099.0600 540.6000Q1100.4600 540.6000 1101.4400 541.5800Q1102.4200 542.5600 1102.4200 543.9600L1102.4200 543.9600L1102.4200 567.2000L1119.9200 567.2000Q1121.3200 567.2000 1122.3000 568.1800Q1123.2800 569.1600 1123.2800 570.5600L1123.2800 570.5600L1123.2800 578.5400Q1123.2800 580.0800 1122.3000 581.0600Q1121.3200 582.0400 1119.9200 582.0400L1119.9200 582.0400L1102.4200 582.0400L1102.4200 612.4200Q1102.4200 618.1600 1104.4500 621.3800Q1106.4800 624.6000 1111.5200 624.6000L1111.5200 624.6000L1121.1800 624.6000Q1122.5800 624.6000 1123.5600 625.5800Q1124.5400 626.5600 1124.5400 627.9600L1124.5400 627.9600L1124.5400 636.6400Q1124.5400 638.0400 1123.5600 639.0200Q1122.5800 640 1121.1800 640L1121.1800 640ZM1169.2000 641.4000L1169.2000 641.4000Q1158 641.4000 1150.3700 637.4800Q1142.7400 633.5600 1138.7500 626.4200Q1134.7600 619.2800 1134.2000 609.7600L1134.2000 609.7600Q1134.0600 607.2400 1134.0600 603.6000Q1134.0600 599.9600 1134.2000 597.4400L1134.2000 597.4400Q1134.7600 587.7800 1138.8900 580.7100Q1143.0200 573.6400 1150.6500 569.7200Q1158.2800 565.8000 1169.2000 565.8000L1169.2000 565.8000Q1180.1200 565.8000 1187.7500 569.7200Q1195.3800 573.6400 1199.5100 580.7100Q1203.6400 587.7800 1204.2000 597.4400L1204.2000 597.4400Q1204.3400 599.9600 1204.3400 603.6000Q1204.3400 607.2400 1204.2000 609.7600L1204.2000 609.7600Q1203.6400 619.2800 1199.6500 626.4200Q1195.6600 633.5600 1188.0300 637.4800Q1180.4000 641.4000 1169.2000 641.4000ZM1169.2000 627.5400L1169.2000 627.5400Q1176.6200 627.5400 1180.6800 622.8500Q1184.7400 618.1600 1185.1600 609.0600L1185.1600 609.0600Q1185.3000 606.9600 1185.3000 603.6000Q1185.3000 600.2400 1185.1600 598.1400L1185.1600 598.1400Q1184.7400 589.0400 1180.6800 584.3500Q1176.6200 579.6600 1169.2000 579.6600L1169.2000 579.6600Q1161.7800 579.6600 1157.7200 584.3500Q1153.6600 589.0400 1153.2400 598.1400L1153.2400 598.1400Q1153.1000 600.2400 1153.1000 603.6000Q1153.1000 606.9600 1153.2400 609.0600L1153.2400 609.0600Q1153.6600 618.1600 1157.7200 622.8500Q1161.7800 627.5400 1169.2000 627.5400ZM1283.3000 641.4000L1283.3000 641.4000Q1267.7600 641.4000 1258.6600 632.4400Q1249.5600 623.4800 1248.8600 606.9600L1248.8600 606.9600Q1248.7200 605.5600 1248.7200 603.3900Q1248.7200 601.2200 1248.8600 599.9600L1248.8600 599.9600Q1249.4200 589.3200 1253.6900 581.6900Q1257.9600 574.0600 1265.5200 569.9300Q1273.0800 565.8000 1283.3000 565.8000L1283.3000 565.8000Q1294.6400 565.8000 1302.3400 570.4900Q1310.0400 575.1800 1313.9600 583.5100Q1317.8800 591.8400 1317.8800 602.7600L1317.8800 602.7600L1317.8800 605.7000Q1317.8800 607.1000 1316.9000 608.0800Q1315.9200 609.0600 1314.3800 609.0600L1314.3800 609.0600L1267.9000 609.0600Q1267.9000 609.0600 1267.9000 609.4800Q1267.9000 609.9000 1267.9000 610.1800L1267.9000 610.1800Q1268.0400 615.0800 1269.7900 619.2100Q1271.5400 623.3400 1274.9700 625.8600Q1278.4000 628.3800 1283.1600 628.3800L1283.1600 628.3800Q1287.0800 628.3800 1289.7400 627.1900Q1292.4000 626 1294.0800 624.4600Q1295.7600 622.9200 1296.4600 621.9400L1296.4600 621.9400Q1297.7200 620.2600 1298.4900 619.9100Q1299.2600 619.5600 1300.8000 619.5600L1300.8000 619.5600L1312.8400 619.5600Q1314.2400 619.5600 1315.1500 620.4000Q1316.0600 621.2400 1315.9200 622.5000L1315.9200 622.5000Q1315.7800 624.7400 1313.6100 627.9600Q1311.4400 631.1800 1307.3800 634.2600Q1303.3200 637.3400 1297.2300 639.3700Q1291.1400 641.4000 1283.3000 641.4000ZM1267.9000 596.8800L1267.9000 597.3000L1298.8400 597.3000L1298.8400 596.8800Q1298.8400 591.4200 1297.0200 587.2900Q1295.2000 583.1600 1291.7000 580.8500Q1288.2000 578.5400 1283.3000 578.5400L1283.3000 578.5400Q1278.4000 578.5400 1274.9000 580.8500Q1271.4000 583.1600 1269.6500 587.2900Q1267.9000 591.4200 1267.9000 596.8800L1267.9000 596.8800ZM1348.4000 640L1336.0800 640Q1334.6800 640 1333.7000 639.0200Q1332.7200 638.0400 1332.7200 636.6400L1332.7200 636.6400L1332.7200 570.5600Q1332.7200 569.1600 1333.7000 568.1800Q1334.6800 567.2000 1336.0800 567.2000L1336.0800 567.2000L1347.5600 567.2000Q1348.9600 567.2000 1349.9400 568.1800Q1350.9200 569.1600 1350.9200 570.5600L1350.9200 570.5600L1350.9200 576.3000Q1354.5600 571.8200 1360.2300 568.8100Q1365.9000 565.8000 1374.3000 565.8000L1374.3000 565.8000Q1382.8400 565.8000 1389.1400 569.6500Q1395.4400 573.5000 1398.8700 580.5000Q1402.3000 587.5000 1402.3000 597.3000L1402.3000 597.3000L1402.3000 636.6400Q1402.3000 638.0400 1401.3200 639.0200Q1400.3400 640 1398.9400 640L1398.9400 640L1386.6200 640Q1385.2200 640 1384.2400 639.0200Q1383.2600 638.0400 1383.2600 636.6400L1383.2600 636.6400L1383.2600 598.1400Q1383.2600 590.0200 1379.2700 585.4000Q1375.2800 580.7800 1367.7200 580.7800L1367.7200 580.7800Q1360.4400 580.7800 1356.1000 585.4000Q1351.7600 590.0200 1351.7600 598.1400L1351.7600 598.1400L1351.7600 636.6400Q1351.7600 638.0400 1350.7800 639.0200Q1349.8000 640 1348.4000 640L1348.4000 640ZM1464.3200 640L1452.9800 640Q1444.5800 640 1438.8400 637.0600Q1433.1000 634.1200 1430.3000 628.3100Q1427.5000 622.5000 1427.5000 613.8200L1427.5000 613.8200L1427.5000 582.0400L1416.4400 582.0400Q1415.0400 582.0400 1414.0600 581.0600Q1413.0800 580.0800 1413.0800 578.5400L1413.0800 578.5400L1413.0800 570.5600Q1413.0800 569.1600 1414.0600 568.1800Q1415.0400 567.2000 1416.4400 567.2000L1416.4400 567.2000L1427.5000 567.2000L1427.5000 543.9600Q1427.5000 542.5600 1428.4100 541.5800Q1429.3200 540.6000 1430.8600 540.6000L1430.8600 540.6000L1442.2000 540.6000Q1443.6000 540.6000 1444.5800 541.5800Q1445.5600 542.5600 1445.5600 543.9600L1445.5600 543.9600L1445.5600 567.2000L1463.0600 567.2000Q1464.4600 567.2000 1465.4400 568.1800Q1466.4200 569.1600 1466.4200 570.5600L1466.4200 570.5600L1466.4200 578.5400Q1466.4200 580.0800 1465.4400 581.0600Q1464.4600 582.0400 1463.0600 582.0400L1463.0600 582.0400L1445.5600 582.0400L1445.5600 612.4200Q1445.5600 618.1600 1447.5900 621.3800Q1449.6200 624.6000 1454.6600 624.6000L1454.6600 624.6000L1464.3200 624.6000Q1465.7200 624.6000 1466.7000 625.5800Q1467.6800 626.5600 1467.6800 627.9600L1467.6800 627.9600L1467.6800 636.6400Q1467.6800 638.0400 1466.7000 639.0200Q1465.7200 640 1464.3200 640L1464.3200 640ZM1495.6800 640L1483.5000 640Q1482.1000 640 1481.1200 639.0200Q1480.1400 638.0400 1480.1400 636.6400L1480.1400 636.6400L1480.1400 570.7000Q1480.1400 569.1600 1481.1200 568.1800Q1482.1000 567.2000 1483.5000 567.2000L1483.5000 567.2000L1494.8400 567.2000Q1496.2400 567.2000 1497.2900 568.1800Q1498.3400 569.1600 1498.3400 570.7000L1498.3400 570.7000L1498.3400 576.4400Q1501.5600 571.9600 1506.6700 569.5800Q1511.7800 567.2000 1518.5000 567.2000L1518.5000 567.2000L1524.2400 567.2000Q1525.7800 567.2000 1526.6900 568.1800Q1527.6000 569.1600 1527.6000 570.5600L1527.6000 570.5600L1527.6000 580.6400Q1527.6000 582.0400 1526.6900 583.0200Q1525.7800 584 1524.2400 584L1524.2400 584L1513.3200 584Q1506.6000 584 1502.8900 587.7100Q1499.1800 591.4200 1499.1800 598.1400L1499.1800 598.1400L1499.1800 636.6400Q1499.1800 638.0400 1498.2000 639.0200Q1497.2200 640 1495.6800 640L1495.6800 640ZM1569.8800 641.4000L1569.8800 641.4000Q1554.3400 641.4000 1545.2400 632.4400Q1536.1400 623.4800 1535.4400 606.9600L1535.4400 606.9600Q1535.3000 605.5600 1535.3000 603.3900Q1535.3000 601.2200 1535.4400 599.9600L1535.4400 599.9600Q1536.0000 589.3200 1540.2700 581.6900Q1544.5400 574.0600 1552.1000 569.9300Q1559.6600 565.8000 1569.8800 565.8000L1569.8800 565.8000Q1581.2200 565.8000 1588.9200 570.4900Q1596.6200 575.1800 1600.5400 583.5100Q1604.4600 591.8400 1604.4600 602.7600L1604.4600 602.7600L1604.4600 605.7000Q1604.4600 607.1000 1603.4800 608.0800Q1602.5000 609.0600 1600.9600 609.0600L1600.9600 609.0600L1554.4800 609.0600Q1554.4800 609.0600 1554.4800 609.4800Q1554.4800 609.9000 1554.4800 610.1800L1554.4800 610.1800Q1554.6200 615.0800 1556.3700 619.2100Q1558.1200 623.3400 1561.5500 625.8600Q1564.9800 628.3800 1569.7400 628.3800L1569.7400 628.3800Q1573.6600 628.3800 1576.3200 627.1900Q1578.9800 626 1580.6600 624.4600Q1582.3400 622.9200 1583.0400 621.9400L1583.0400 621.9400Q1584.3000 620.2600 1585.0700 619.9100Q1585.8400 619.5600 1587.3800 619.5600L1587.3800 619.5600L1599.4200 619.5600Q1600.8200 619.5600 1601.7300 620.4000Q1602.6400 621.2400 1602.5000 622.5000L1602.5000 622.5000Q1602.3600 624.7400 1600.1900 627.9600Q1598.0200 631.1800 1593.9600 634.2600Q1589.9000 637.3400 1583.8100 639.3700Q1577.7200 641.4000 1569.8800 641.4000ZM1554.4800 596.8800L1554.4800 597.3000L1585.4200 597.3000L1585.4200 596.8800Q1585.4200 591.4200 1583.6000 587.2900Q1581.7800 583.1600 1578.2800 580.8500Q1574.7800 578.5400 1569.8800 578.5400L1569.8800 578.5400Q1564.9800 578.5400 1561.4800 580.8500Q1557.9800 583.1600 1556.2300 587.2900Q1554.4800 591.4200 1554.4800 596.8800L1554.4800 596.8800ZM203.4800 780L192.1400 780Q183.7400 780 178 777.0600Q172.2600 774.1200 169.4600 768.3100Q166.6600 762.5000 166.6600 753.8200L166.6600 753.8200L166.6600 722.0400L155.6000 722.0400Q154.2000 722.0400 153.2200 721.0600Q152.2400 720.0800 152.2400 718.5400L152.2400 718.5400L152.2400 710.5600Q152.2400 709.1600 153.2200 708.1800Q154.2000 707.2000 155.6000 707.2000L155.6000 707.2000L166.6600 707.2000L166.6600 683.9600Q166.6600 682.5600 167.5700 681.5800Q168.4800 680.6000 170.0200 680.6000L170.0200 680.6000L181.3600 680.6000Q182.7600 680.6000 183.7400 681.5800Q184.7200 682.5600 184.7200 683.9600L184.7200 683.9600L184.7200 707.2000L202.2200 707.2000Q203.6200 707.2000 204.6000 708.1800Q205.5800 709.1600 205.5800 710.5600L205.5800 710.5600L205.5800 718.5400Q205.5800 720.0800 204.6000 721.0600Q203.6200 722.0400 202.2200 722.0400L202.2200 722.0400L184.7200 722.0400L184.7200 752.4200Q184.7200 758.1600 186.7500 761.3800Q188.7800 764.6000 193.8200 764.6000L193.8200 764.6000L203.4800 764.6000Q204.8800 764.6000 205.8600 765.5800Q206.8400 766.5600 206.8400 767.9600L206.8400 767.9600L206.8400 776.6400Q206.8400 778.0400 205.8600 779.0200Q204.8800 780 203.4800 780L203.4800 780ZM240.4400 781.4000L240.4400 781.4000Q233.1600 781.4000 227.2800 778.5300Q221.4000 775.6600 217.9700 770.8300Q214.5400 766 214.5400 759.9800L214.5400 759.9800Q214.5400 750.1800 222.5200 744.3700Q230.5000 738.5600 243.3800 736.6000L243.3800 736.6000L262.5600 733.8000L262.5600 730.8600Q262.5600 724.9800 259.6200 721.7600Q256.6800 718.5400 249.5400 718.5400L249.5400 718.5400Q244.5000 718.5400 241.3500 720.5700Q238.2000 722.6000 236.6600 725.9600L236.6600 725.9600Q235.5400 727.7800 233.4400 727.7800L233.4400 727.7800L222.3800 727.7800Q220.8400 727.7800 220.0700 726.9400Q219.3000 726.1000 219.3000 724.7000L219.3000 724.7000Q219.4400 722.4600 221.1900 719.2400Q222.9400 716.0200 226.5100 713.0100Q230.0800 710 235.8200 707.9000Q241.5600 705.8000 249.6800 705.8000L249.6800 705.8000Q258.5000 705.8000 264.5900 707.9700Q270.6800 710.1400 274.3200 713.7800Q277.9600 717.4200 279.6400 722.3200Q281.3200 727.2200 281.3200 732.6800L281.3200 732.6800L281.3200 776.6400Q281.3200 778.0400 280.3400 779.0200Q279.3600 780 277.9600 780L277.9600 780L266.6200 780Q265.0800 780 264.1700 779.0200Q263.2600 778.0400 263.2600 776.6400L263.2600 776.6400L263.2600 771.1800Q261.4400 773.7000 258.3600 776.0800Q255.2800 778.4600 250.8700 779.9300Q246.4600 781.4000 240.4400 781.4000ZM245.2000 768.1000L245.2000 768.1000Q250.1000 768.1000 254.0900 766Q258.0800 763.9000 260.3900 759.4900Q262.7000 755.0800 262.7000 748.3600L262.7000 748.3600L262.7000 745.4200L248.7000 747.6600Q240.4400 748.9200 236.3800 751.7200Q232.3200 754.5200 232.3200 758.5800L232.3200 758.5800Q232.3200 761.6600 234.2100 763.8300Q236.1000 766 239.0400 767.0500Q241.9800 768.1000 245.2000 768.1000ZM339.5600 781.4000L339.5600 781.4000Q331.4400 781.4000 326.0500 778.6000Q320.6600 775.8000 317.1600 771.4600L317.1600 771.4600L317.1600 776.6400Q317.1600 778.0400 316.2500 779.0200Q315.3400 780 313.8000 780L313.8000 780L302.7400 780Q301.3400 780 300.3600 779.0200Q299.3800 778.0400 299.3800 776.6400L299.3800 776.6400L299.3800 683.9600Q299.3800 682.5600 300.3600 681.5800Q301.3400 680.6000 302.7400 680.6000L302.7400 680.6000L314.6400 680.6000Q316.1800 680.6000 317.0900 681.5800Q318 682.5600 318 683.9600L318 683.9600L318 715.0400Q321.5000 710.9800 326.7500 708.3900Q332 705.8000 339.5600 705.8000L339.5600 705.8000Q346.9800 705.8000 352.4400 708.3200Q357.9000 710.8400 361.6100 715.3900Q365.3200 719.9400 367.2800 725.9600Q369.2400 731.9800 369.3800 738.9800L369.3800 738.9800Q369.5200 741.5000 369.5200 743.5300Q369.5200 745.5600 369.3800 748.0800L369.3800 748.0800Q369.1000 755.3600 367.1400 761.4500Q365.1800 767.5400 361.5400 772.0200Q357.9000 776.5000 352.4400 778.9500Q346.9800 781.4000 339.5600 781.4000ZM334.3800 766.4200L334.3800 766.4200Q340.4000 766.4200 343.7600 763.8300Q347.1200 761.2400 348.6600 757.0400Q350.2000 752.8400 350.4800 747.8000L350.4800 747.8000Q350.6200 743.6000 350.4800 739.4000L350.4800 739.4000Q350.2000 734.3600 348.6600 730.1600Q347.1200 725.9600 343.7600 723.3700Q340.4000 720.7800 334.3800 720.7800L334.3800 720.7800Q328.7800 720.7800 325.2800 723.3000Q321.7800 725.8200 319.9600 729.6700Q318.1400 733.5200 318 737.7200L318 737.7200Q317.8600 740.2400 317.8600 743.1100Q317.8600 745.9800 318 748.5000L318 748.5000Q318.2800 752.8400 319.8900 756.9700Q321.5000 761.1000 325.0700 763.7600Q328.6400 766.4200 334.3800 766.4200ZM416.4200 781.4000L416.4200 781.4000Q400.8800 781.4000 391.7800 772.4400Q382.6800 763.4800 381.9800 746.9600L381.9800 746.9600Q381.8400 745.5600 381.8400 743.3900Q381.8400 741.2200 381.9800 739.9600L381.9800 739.9600Q382.5400 729.3200 386.8100 721.6900Q391.0800 714.0600 398.6400 709.9300Q406.2000 705.8000 416.4200 705.8000L416.4200 705.8000Q427.7600 705.8000 435.4600 710.4900Q443.1600 715.1800 447.0800 723.5100Q451 731.8400 451 742.7600L451 742.7600L451 745.7000Q451 747.1000 450.0200 748.0800Q449.0400 749.0600 447.5000 749.0600L447.5000 749.0600L401.0200 749.0600Q401.0200 749.0600 401.0200 749.4800Q401.0200 749.9000 401.0200 750.1800L401.0200 750.1800Q401.1600 755.0800 402.9100 759.2100Q404.6600 763.3400 408.0900 765.8600Q411.5200 768.3800 416.2800 768.3800L416.2800 768.3800Q420.2000 768.3800 422.8600 767.1900Q425.5200 766 427.2000 764.4600Q428.8800 762.9200 429.5800 761.9400L429.5800 761.9400Q430.8400 760.2600 431.6100 759.9100Q432.3800 759.5600 433.9200 759.5600L433.9200 759.5600L445.9600 759.5600Q447.3600 759.5600 448.2700 760.4000Q449.1800 761.2400 449.0400 762.5000L449.0400 762.5000Q448.9000 764.7400 446.7300 767.9600Q444.5600 771.1800 440.5000 774.2600Q436.4400 777.3400 430.3500 779.3700Q424.2600 781.4000 416.4200 781.4000ZM401.0200 736.8800L401.0200 737.3000L431.9600 737.3000L431.9600 736.8800Q431.9600 731.4200 430.1400 727.2900Q428.3200 723.1600 424.8200 720.8500Q421.3200 718.5400 416.4200 718.5400L416.4200 718.5400Q411.5200 718.5400 408.0200 720.8500Q404.5200 723.1600 402.7700 727.2900Q401.0200 731.4200 401.0200 736.8800L401.0200 736.8800ZM480.9600 780L469.3400 780Q467.9400 780 466.9600 779.0200Q465.9800 778.0400 465.9800 776.6400L465.9800 776.6400L465.9800 683.9600Q465.9800 682.5600 466.9600 681.5800Q467.9400 680.6000 469.3400 680.6000L469.3400 680.6000L480.9600 680.6000Q482.3600 680.6000 483.3400 681.5800Q484.3200 682.5600 484.3200 683.9600L484.3200 683.9600L484.3200 776.6400Q484.3200 778.0400 483.3400 779.0200Q482.3600 780 480.9600 780L480.9600 780ZM524.0800 781.4000L524.0800 781.4000Q516.8000 781.4000 510.9200 778.5300Q505.0400 775.6600 501.6100 770.8300Q498.1800 766 498.1800 759.9800L498.1800 759.9800Q498.1800 750.1800 506.1600 744.3700Q514.1400 738.5600 527.0200 736.6000L527.0200 736.6000L546.2000 733.8000L546.2000 730.8600Q546.2000 724.9800 543.2600 721.7600Q540.3200 718.5400 533.1800 718.5400L533.1800 718.5400Q528.1400 718.5400 524.9900 720.5700Q521.8400 722.6000 520.3000 725.9600L520.3000 725.9600Q519.1800 727.7800 517.0800 727.7800L517.0800 727.7800L506.0200 727.7800Q504.4800 727.7800 503.7100 726.9400Q502.9400 726.1000 502.9400 724.7000L502.9400 724.7000Q503.0800 722.4600 504.8300 719.2400Q506.5800 716.0200 510.1500 713.0100Q513.7200 710 519.4600 707.9000Q525.2000 705.8000 533.3200 705.8000L533.3200 705.8000Q542.1400 705.8000 548.2300 707.9700Q554.3200 710.1400 557.9600 713.7800Q561.6000 717.4200 563.2800 722.3200Q564.9600 727.2200 564.9600 732.6800L564.9600 732.6800L564.9600 776.6400Q564.9600 778.0400 563.9800 779.0200Q563 780 561.6000 780L561.6000 780L550.2600 780Q548.7200 780 547.8100 779.0200Q546.9000 778.0400 546.9000 776.6400L546.9000 776.6400L546.9000 771.1800Q545.0800 773.7000 542 776.0800Q538.9200 778.4600 534.5100 779.9300Q530.1000 781.4000 524.0800 781.4000ZM528.8400 768.1000L528.8400 768.1000Q533.7400 768.1000 537.7300 766Q541.7200 763.9000 544.0300 759.4900Q546.3400 755.0800 546.3400 748.3600L546.3400 748.3600L546.3400 745.4200L532.3400 747.6600Q524.0800 748.9200 520.0200 751.7200Q515.9600 754.5200 515.9600 758.5800L515.9600 758.5800Q515.9600 761.6600 517.8500 763.8300Q519.7400 766 522.6800 767.0500Q525.6200 768.1000 528.8400 768.1000ZM610.4600 781.4000L610.4600 781.4000Q602.0600 781.4000 596.1100 779.4400Q590.1600 777.4800 586.3800 774.5400Q582.6000 771.6000 580.7800 768.6600Q578.9600 765.7200 578.8200 763.7600L578.8200 763.7600Q578.6800 762.2200 579.7300 761.3100Q580.7800 760.4000 582.0400 760.4000L582.0400 760.4000L593.1000 760.4000Q593.6600 760.4000 594.0800 760.5400Q594.5000 760.6800 595.2000 761.3800L595.2000 761.3800Q597.0200 762.9200 599.0500 764.6000Q601.0800 766.2800 603.8800 767.4700Q606.6800 768.6600 610.8800 768.6600L610.8800 768.6600Q616.3400 768.6600 620.0500 766.4900Q623.7600 764.3200 623.7600 760.2600L623.7600 760.2600Q623.7600 757.3200 622.1500 755.5000Q620.5400 753.6800 616.2000 752.2100Q611.8600 750.7400 603.8800 749.0600L603.8800 749.0600Q596.0400 747.2400 590.8600 744.4400Q585.6800 741.6400 583.1600 737.4400Q580.6400 733.2400 580.6400 727.6400L580.6400 727.6400Q580.6400 722.1800 583.9300 717.2100Q587.2200 712.2400 593.7300 709.0200Q600.2400 705.8000 609.9000 705.8000L609.9000 705.8000Q617.4600 705.8000 623.0600 707.6900Q628.6600 709.5800 632.3700 712.3800Q636.0800 715.1800 638.0400 718.0500Q640.0000 720.9200 640.1400 723.0200L640.1400 723.0200Q640.2800 724.5600 639.3000 725.4700Q638.3200 726.3800 637.0600 726.3800L637.0600 726.3800L626.7000 726.3800Q626.0000 726.3800 625.4400 726.1000Q624.8800 725.8200 624.3200 725.4000L624.3200 725.4000Q622.7800 724 620.9600 722.3900Q619.1400 720.7800 616.5500 719.6600Q613.9600 718.5400 609.7600 718.5400L609.7600 718.5400Q604.4400 718.5400 601.6400 720.8500Q598.8400 723.1600 598.8400 726.6600L598.8400 726.6600Q598.8400 729.0400 600.1700 730.7900Q601.5000 732.5400 605.5600 734.0800Q609.6200 735.6200 617.8800 737.3000L617.8800 737.3000Q627.2600 738.9800 632.7900 742.2700Q638.3200 745.5600 640.6300 749.8300Q642.9400 754.1000 642.9400 759.2800L642.9400 759.2800Q642.9400 765.5800 639.2300 770.6200Q635.5200 775.6600 628.3100 778.5300Q621.1000 781.4000 610.4600 781.4000Z" id="title"/></g></svg>