<svg xmlns="http://www.w3.org/2000/svg" version="1.1" xmlns:xlink="http://www.w3.org/1999/xlink" xmlns:svgjs="http://svgjs.dev/svgjs" viewBox="0 0 1920 1080" id="da4c4a88-8844-4d4d-bdc0-d8b6637e05fb"><g><rect width="1920" height="1080" fill="#f7ebec"/></g><g fill="#ddbdd5"><path d="M969.5 217C561.465 217 231 547.465 231 955.5C231 1363.53 561.465 1694 969.5 1694C1377.53 1694 1708 1363.53 1708 955.5C1708 547.465 1377.53 217 969.5 217ZM969.5 1309.34C773.983 1309.34 615.658 1151.02 615.658 955.5C615.658 759.983 773.983 601.658 969.5 601.658C1165.02 601.658 1323.34 759.983 1323.34 955.5C1323.34 1151.02 1165.02 1309.34 969.5 1309.34Z"/></g><g fill="#ffffff" opacity="0.4"><path d="M1432 918.479L1616.48 734V918.479H1432Z"/><path d="M1616.48 918.479L1800.52 734V918.479H1616.48Z"/><path d="M1800.52 918.479L1985 734V918.479H1800.52Z"/><path d="M1432 1102.52L1616.48 918.479V1102.52H1432Z"/><path d="M1616.48 1102.52L1800.52 918.479V1102.52H1616.48Z"/><path d="M1800.52 1102.52L1985 918.479V1102.52H1800.52Z"/><path d="M499 154.521L683.479 -29.5215V154.521H499Z"/><path d="M683.479 154.521L867.521 -29.5215V154.521H683.479Z"/><path d="M867.521 154.521L1052 -29.5215V154.521H867.521Z"/><path d="M499 339L683.479 154.521V339H499Z"/><path d="M683.479 339L867.521 154.521V339H683.479Z"/><path d="M867.521 339L1052 154.521V339H867.521Z"/></g><g><path d="M178.635 139.281L184.422 144.246V166.626H215.704L219.958 172.147L215.69 177.397H184.422V198.795L178.635 203.747L173 198.795V144.232L178.635 139.281ZM195.554 195.68H219.406L223.397 200.915L219.143 206.45H195.554L191.7 201.342L195.554 195.68ZM196.382 138H219.129L223.383 143.52L219.129 148.77H196.659L192.115 143.677L196.382 138ZM323.155 148.628L328.251 154.291L323.155 159.968H246.13L241.172 154.291L246.13 148.628H323.155ZM237.043 172.147L241.849 167.893L246.669 172.147V178.393C246.669 188.879 249.417 197.515 261.668 197.515H264.14C275.147 197.515 281.197 189.86 281.197 177.952V172.005L285.879 167.75L290.699 171.862V178.379C290.699 189.007 293.723 196.946 305.56 196.946H307.618C319.178 196.946 321.235 187.869 321.373 177.952V171.578L326.056 167.608L331 171.72V178.094C330.862 191.838 327.285 207.574 308.032 207.574H305.974C294.552 207.574 288.365 202.324 285.892 195.808C283.006 202.466 275.299 208.286 264.844 208.286H262.358C242.553 208.286 237.194 195.964 237.056 178.663V172.147H237.043ZM276.391 274.744L273.642 267.089L280.796 264.969L305.974 276.721V252.491L311.07 248.095L316.291 252.491V281.829L325.641 286.226L328.251 293.311L320.959 296L276.391 274.744ZM321.235 223.011L328.113 226.27L325.917 233.497L264.002 263.119L256.571 260.146L259.596 252.776L321.235 223.011ZM231.905 263.404L237.954 268.512C237.402 286.51 222.403 296 204.669 296H202.874C194.062 296 183.759 292.6 177.157 286.083L177.834 278.855L184.298 278.002C189.118 282.256 195.858 285.229 202.183 285.229H204.117C216.091 285.229 225.303 280.136 226.27 268.085L231.905 263.404ZM226.256 251.638C225.704 239.16 216.629 234.209 204.103 234.209H202.169C194.739 234.209 189.104 237.182 184.284 241.436L177.834 240.583L177.143 233.355C183.745 226.696 192.957 223.58 202.597 223.58H204.517C222.403 223.58 237.402 232.942 237.94 251.211L231.891 256.176L226.256 251.638Z" fill="#000000"/></g><g fill="#000000" id="info-group"><path d="M167.0800 430L154.9000 430Q153.7800 430 152.8700 429.1600Q151.9600 428.3200 151.9600 427.0600L151.9600 427.0600Q151.9600 426.5000 152.2400 425.8000L152.2400 425.8000L185.9800 335.5000Q186.4000 334.1000 187.5900 333.0500Q188.7800 332 190.8800 332L190.8800 332L206.1400 332Q208.2400 332 209.3600 333.0500Q210.4800 334.1000 211.0400 335.5000L211.0400 335.5000L244.7800 425.8000Q244.9200 426.5000 244.9200 427.0600L244.9200 427.0600Q244.9200 428.3200 244.0800 429.1600Q243.2400 430 242.1200 430L242.1200 430L229.9400 430Q227.9800 430 227.0700 429.0900Q226.1600 428.1800 225.8800 427.3400L225.8800 427.3400L219.3000 410.2600L177.7200 410.2600L171.1400 427.3400Q170.8600 428.1800 169.9500 429.0900Q169.0400 430 167.0800 430L167.0800 430ZM198.4400 350.9000L182.6200 394.1600L214.4000 394.1600L198.4400 350.9000ZM283.2800 431.4000L283.2800 431.4000Q274.7400 431.4000 268.5100 427.5500Q262.2800 423.7000 258.9200 416.6300Q255.5600 409.5600 255.5600 399.9000L255.5600 399.9000L255.5600 360.5600Q255.5600 359.1600 256.5400 358.1800Q257.5200 357.2000 258.9200 357.2000L258.9200 357.2000L271.2400 357.2000Q272.7800 357.2000 273.6900 358.1800Q274.6000 359.1600 274.6000 360.5600L274.6000 360.5600L274.6000 399.0600Q274.6000 416.4200 289.8600 416.4200L289.8600 416.4200Q297.1400 416.4200 301.4100 411.8000Q305.6800 407.1800 305.6800 399.0600L305.6800 399.0600L305.6800 360.5600Q305.6800 359.1600 306.6600 358.1800Q307.6400 357.2000 309.0400 357.2000L309.0400 357.2000L321.3600 357.2000Q322.7600 357.2000 323.7400 358.1800Q324.7200 359.1600 324.7200 360.5600L324.7200 360.5600L324.7200 426.6400Q324.7200 428.0400 323.7400 429.0200Q322.7600 430 321.3600 430L321.3600 430L310.0200 430Q308.4800 430 307.5700 429.0200Q306.6600 428.0400 306.6600 426.6400L306.6600 426.6400L306.6600 420.9000Q302.8800 425.8000 297.2800 428.6000Q291.6800 431.4000 283.2800 431.4000ZM358.3200 430L346.7000 430Q345.3000 430 344.3200 429.0200Q343.3400 428.0400 343.3400 426.6400L343.3400 426.6400L343.3400 333.9600Q343.3400 332.5600 344.3200 331.5800Q345.3000 330.6000 346.7000 330.6000L346.7000 330.6000L358.3200 330.6000Q359.7200 330.6000 360.7000 331.5800Q361.6800 332.5600 361.6800 333.9600L361.6800 333.9600L361.6800 426.6400Q361.6800 428.0400 360.7000 429.0200Q359.7200 430 358.3200 430L358.3200 430ZM401.4400 431.4000L401.4400 431.4000Q394.1600 431.4000 388.2800 428.5300Q382.4000 425.6600 378.9700 420.8300Q375.5400 416 375.5400 409.9800L375.5400 409.9800Q375.5400 400.1800 383.5200 394.3700Q391.5000 388.5600 404.3800 386.6000L404.3800 386.6000L423.5600 383.8000L423.5600 380.8600Q423.5600 374.9800 420.6200 371.7600Q417.6800 368.5400 410.5400 368.5400L410.5400 368.5400Q405.5000 368.5400 402.3500 370.5700Q399.2000 372.6000 397.6600 375.9600L397.6600 375.9600Q396.5400 377.7800 394.4400 377.7800L394.4400 377.7800L383.3800 377.7800Q381.8400 377.7800 381.0700 376.9400Q380.3000 376.1000 380.3000 374.7000L380.3000 374.7000Q380.4400 372.4600 382.1900 369.2400Q383.9400 366.0200 387.5100 363.0100Q391.0800 360 396.8200 357.9000Q402.5600 355.8000 410.6800 355.8000L410.6800 355.8000Q419.5000 355.8000 425.5900 357.9700Q431.6800 360.1400 435.3200 363.7800Q438.9600 367.4200 440.6400 372.3200Q442.3200 377.2200 442.3200 382.6800L442.3200 382.6800L442.3200 426.6400Q442.3200 428.0400 441.3400 429.0200Q440.3600 430 438.9600 430L438.9600 430L427.6200 430Q426.0800 430 425.1700 429.0200Q424.2600 428.0400 424.2600 426.6400L424.2600 426.6400L424.2600 421.1800Q422.4400 423.7000 419.3600 426.0800Q416.2800 428.4600 411.8700 429.9300Q407.4600 431.4000 401.4400 431.4000ZM406.2000 418.1000L406.2000 418.1000Q411.1000 418.1000 415.0900 416Q419.0800 413.9000 421.3900 409.4900Q423.7000 405.0800 423.7000 398.3600L423.7000 398.3600L423.7000 395.4200L409.7000 397.6600Q401.4400 398.9200 397.3800 401.7200Q393.3200 404.5200 393.3200 408.5800L393.3200 408.5800Q393.3200 411.6600 395.2100 413.8300Q397.1000 416 400.0400 417.0500Q402.9800 418.1000 406.2000 418.1000ZM526.6000 431.4000L526.6000 431.4000Q516.8000 431.4000 509.6600 429.0200Q502.5200 426.6400 497.8300 422.7900Q493.1400 418.9400 490.7600 414.3900Q488.3800 409.8400 488.2400 405.3600L488.2400 405.3600Q488.2400 404.1000 489.1500 403.3300Q490.0600 402.5600 491.3200 402.5600L491.3200 402.5600L503.9200 402.5600Q505.3200 402.5600 506.3000 403.1200Q507.2800 403.6800 507.9800 405.3600L507.9800 405.3600Q509.2400 409.1400 512.1100 411.3800Q514.9800 413.6200 518.7600 414.5300Q522.5400 415.4400 526.7400 415.4400L526.7400 415.4400Q535.1400 415.4400 540.1100 411.4500Q545.0800 407.4600 545.0800 400.0400L545.0800 400.0400Q545.0800 392.6200 540.4600 389.3300Q535.8400 386.0400 527.5800 386.0400L527.5800 386.0400L513.1600 386.0400Q511.6200 386.0400 510.6400 385.1300Q509.6600 384.2200 509.6600 382.6800L509.6600 382.6800L509.6600 376.8000Q509.6600 375.4000 510.2900 374.3500Q510.9200 373.3000 511.6200 372.6000L511.6200 372.6000L536.6800 348.1000L496.6400 348.1000Q495.1000 348.1000 494.1900 347.1200Q493.2800 346.1400 493.2800 344.7400L493.2800 344.7400L493.2800 335.5000Q493.2800 333.9600 494.1900 332.9800Q495.1000 332 496.6400 332L496.6400 332L556.7000 332Q558.2400 332 559.2200 332.9800Q560.2000 333.9600 560.2000 335.5000L560.2000 335.5000L560.2000 343.9000Q560.2000 345.1600 559.6400 346.1400Q559.0800 347.1200 558.3800 347.8200L558.3800 347.8200L534.1600 372.7400L535.8400 372.8800Q544.3800 373.5800 551.0300 376.7300Q557.6800 379.8800 561.3900 385.9000Q565.1000 391.9200 565.1000 401.0200L565.1000 401.0200Q565.1000 410.5400 560.1300 417.3300Q555.1600 424.1200 546.4800 427.7600Q537.8000 431.4000 526.6000 431.4000ZM597.3000 381L583.4400 381Q582.0400 381 581.0600 380.0200Q580.0800 379.0400 580.0800 377.6400L580.0800 377.6400L580.0800 364.3400Q580.0800 362.8000 581.0600 361.8200Q582.0400 360.8400 583.4400 360.8400L583.4400 360.8400L597.3000 360.8400Q598.8400 360.8400 599.8200 361.8200Q600.8000 362.8000 600.8000 364.3400L600.8000 364.3400L600.8000 377.6400Q600.8000 379.0400 599.8200 380.0200Q598.8400 381 597.3000 381L597.3000 381ZM597.3000 430L583.4400 430Q582.0400 430 581.0600 429.0200Q580.0800 428.0400 580.0800 426.6400L580.0800 426.6400L580.0800 413.3400Q580.0800 411.8000 581.0600 410.8200Q582.0400 409.8400 583.4400 409.8400L583.4400 409.8400L597.3000 409.8400Q598.8400 409.8400 599.8200 410.8200Q600.8000 411.8000 600.8000 413.3400L600.8000 413.3400L600.8000 426.6400Q600.8000 428.0400 599.8200 429.0200Q598.8400 430 597.3000 430L597.3000 430ZM690.4000 431.4000L690.4000 431.4000Q677.3800 431.4000 668.3500 426.8500Q659.3200 422.3000 654.5600 413.8300Q649.8000 405.3600 649.2400 393.4600L649.2400 393.4600Q649.1000 387.7200 649.1000 381.1400Q649.1000 374.5600 649.2400 368.5400L649.2400 368.5400Q649.8000 356.7800 654.6300 348.2400Q659.4600 339.7000 668.4900 335.1500Q677.5200 330.6000 690.4000 330.6000L690.4000 330.6000Q699.9200 330.6000 707.4800 333.1200Q715.0400 335.6400 720.3600 340.0500Q725.6800 344.4600 728.6200 350.3400Q731.5600 356.2200 731.7000 363.0800L731.7000 363.0800Q731.8400 364.3400 730.9300 365.1800Q730.0200 366.0200 728.7600 366.0200L728.7600 366.0200L715.4600 366.0200Q713.9200 366.0200 712.9400 365.2500Q711.9600 364.4800 711.5400 362.6600L711.5400 362.6600Q709.3000 353.4200 703.8400 350.0600Q698.3800 346.7000 690.2600 346.7000L690.2600 346.7000Q680.8800 346.7000 675.2800 351.9500Q669.6800 357.2000 669.2600 369.2400L669.2600 369.2400Q668.8400 380.7200 669.2600 392.7600L669.2600 392.7600Q669.6800 404.8000 675.2800 410.0500Q680.8800 415.3000 690.2600 415.3000L690.2600 415.3000Q698.3800 415.3000 703.9100 411.8700Q709.4400 408.4400 711.5400 399.3400L711.5400 399.3400Q711.9600 397.3800 712.9400 396.6800Q713.9200 395.9800 715.4600 395.9800L715.4600 395.9800L728.7600 395.9800Q730.0200 395.9800 730.9300 396.8200Q731.8400 397.6600 731.7000 398.9200L731.7000 398.9200Q731.5600 405.7800 728.6200 411.6600Q725.6800 417.5400 720.3600 421.9500Q715.0400 426.3600 707.4800 428.8800Q699.9200 431.4000 690.4000 431.4000ZM762.2200 430L750.0400 430Q748.6400 430 747.6600 429.0200Q746.6800 428.0400 746.6800 426.6400L746.6800 426.6400L746.6800 360.7000Q746.6800 359.1600 747.6600 358.1800Q748.6400 357.2000 750.0400 357.2000L750.0400 357.2000L761.3800 357.2000Q762.7800 357.2000 763.8300 358.1800Q764.8800 359.1600 764.8800 360.7000L764.8800 360.7000L764.8800 366.4400Q768.1000 361.9600 773.2100 359.5800Q778.3200 357.2000 785.0400 357.2000L785.0400 357.2000L790.7800 357.2000Q792.3200 357.2000 793.2300 358.1800Q794.1400 359.1600 794.1400 360.5600L794.1400 360.5600L794.1400 370.6400Q794.1400 372.0400 793.2300 373.0200Q792.3200 374 790.7800 374L790.7800 374L779.8600 374Q773.1400 374 769.4300 377.7100Q765.7200 381.4200 765.7200 388.1400L765.7200 388.1400L765.7200 426.6400Q765.7200 428.0400 764.7400 429.0200Q763.7600 430 762.2200 430L762.2200 430ZM820.0400 430L808.4200 430Q807.0200 430 806.0400 429.0200Q805.0600 428.0400 805.0600 426.6400L805.0600 426.6400L805.0600 360.5600Q805.0600 359.1600 806.0400 358.1800Q807.0200 357.2000 808.4200 357.2000L808.4200 357.2000L820.0400 357.2000Q821.5800 357.2000 822.4900 358.1800Q823.4000 359.1600 823.4000 360.5600L823.4000 360.5600L823.4000 426.6400Q823.4000 428.0400 822.4900 429.0200Q821.5800 430 820.0400 430L820.0400 430ZM820.6000 345.1600L807.8600 345.1600Q806.4600 345.1600 805.4800 344.1800Q804.5000 343.2000 804.5000 341.8000L804.5000 341.8000L804.5000 331.7200Q804.5000 330.3200 805.4800 329.3400Q806.4600 328.3600 807.8600 328.3600L807.8600 328.3600L820.6000 328.3600Q822.1400 328.3600 823.1200 329.3400Q824.1000 330.3200 824.1000 331.7200L824.1000 331.7200L824.1000 341.8000Q824.1000 343.2000 823.1200 344.1800Q822.1400 345.1600 820.6000 345.1600L820.6000 345.1600ZM863.1600 431.4000L863.1600 431.4000Q855.8800 431.4000 850.0000 428.5300Q844.1200 425.6600 840.6900 420.8300Q837.2600 416 837.2600 409.9800L837.2600 409.9800Q837.2600 400.1800 845.2400 394.3700Q853.2200 388.5600 866.1000 386.6000L866.1000 386.6000L885.2800 383.8000L885.2800 380.8600Q885.2800 374.9800 882.3400 371.7600Q879.4000 368.5400 872.2600 368.5400L872.2600 368.5400Q867.2200 368.5400 864.0700 370.5700Q860.9200 372.6000 859.3800 375.9600L859.3800 375.9600Q858.2600 377.7800 856.1600 377.7800L856.1600 377.7800L845.1000 377.7800Q843.5600 377.7800 842.7900 376.9400Q842.0200 376.1000 842.0200 374.7000L842.0200 374.7000Q842.1600 372.4600 843.9100 369.2400Q845.6600 366.0200 849.2300 363.0100Q852.8000 360 858.5400 357.9000Q864.2800 355.8000 872.4000 355.8000L872.4000 355.8000Q881.2200 355.8000 887.3100 357.9700Q893.4000 360.1400 897.0400 363.7800Q900.6800 367.4200 902.3600 372.3200Q904.0400 377.2200 904.0400 382.6800L904.0400 382.6800L904.0400 426.6400Q904.0400 428.0400 903.0600 429.0200Q902.0800 430 900.6800 430L900.6800 430L889.3400 430Q887.8000 430 886.8900 429.0200Q885.9800 428.0400 885.9800 426.6400L885.9800 426.6400L885.9800 421.1800Q884.1600 423.7000 881.0800 426.0800Q878.0000 428.4600 873.5900 429.9300Q869.1800 431.4000 863.1600 431.4000ZM867.9200 418.1000L867.9200 418.1000Q872.8200 418.1000 876.8100 416Q880.8000 413.9000 883.1100 409.4900Q885.4200 405.0800 885.4200 398.3600L885.4200 398.3600L885.4200 395.4200L871.4200 397.6600Q863.1600 398.9200 859.1000 401.7200Q855.0400 404.5200 855.0400 408.5800L855.0400 408.5800Q855.0400 411.6600 856.9300 413.8300Q858.8200 416 861.7600 417.0500Q864.7000 418.1000 867.9200 418.1000ZM937.6400 430L925.3200 430Q923.9200 430 922.9400 429.0200Q921.9600 428.0400 921.9600 426.6400L921.9600 426.6400L921.9600 360.5600Q921.9600 359.1600 922.9400 358.1800Q923.9200 357.2000 925.3200 357.2000L925.3200 357.2000L936.8000 357.2000Q938.2000 357.2000 939.1800 358.1800Q940.1600 359.1600 940.1600 360.5600L940.1600 360.5600L940.1600 366.3000Q943.8000 361.8200 949.4700 358.8100Q955.1400 355.8000 963.5400 355.8000L963.5400 355.8000Q972.0800 355.8000 978.3800 359.6500Q984.6800 363.5000 988.1100 370.5000Q991.5400 377.5000 991.5400 387.3000L991.5400 387.3000L991.5400 426.6400Q991.5400 428.0400 990.5600 429.0200Q989.5800 430 988.1800 430L988.1800 430L975.8600 430Q974.4600 430 973.4800 429.0200Q972.5000 428.0400 972.5000 426.6400L972.5000 426.6400L972.5000 388.1400Q972.5000 380.0200 968.5100 375.4000Q964.5200 370.7800 956.9600 370.7800L956.9600 370.7800Q949.6800 370.7800 945.3400 375.4000Q941.0000 380.0200 941.0000 388.1400L941.0000 388.1400L941.0000 426.6400Q941.0000 428.0400 940.0200 429.0200Q939.0400 430 937.6400 430L937.6400 430ZM1036.3400 431.4000L1036.3400 431.4000Q1029.0600 431.4000 1023.5300 428.9500Q1018.0000 426.5000 1014.3600 422.0200Q1010.7200 417.5400 1008.7600 411.4500Q1006.8000 405.3600 1006.5200 398.0800L1006.5200 398.0800Q1006.3800 395.5600 1006.3800 393.5300Q1006.3800 391.5000 1006.5200 388.9800L1006.5200 388.9800Q1006.8000 381.9800 1008.6900 375.9600Q1010.5800 369.9400 1014.2900 365.3900Q1018.0000 360.8400 1023.5300 358.3200Q1029.0600 355.8000 1036.3400 355.8000L1036.3400 355.8000Q1043.9000 355.8000 1049.1500 358.3900Q1054.4000 360.9800 1057.9000 365.0400L1057.9000 365.0400L1057.9000 333.9600Q1057.9000 332.5600 1058.8100 331.5800Q1059.7200 330.6000 1061.2600 330.6000L1061.2600 330.6000L1073.1600 330.6000Q1074.5600 330.6000 1075.5400 331.5800Q1076.5200 332.5600 1076.5200 333.9600L1076.5200 333.9600L1076.5200 426.6400Q1076.5200 428.0400 1075.5400 429.0200Q1074.5600 430 1073.1600 430L1073.1600 430L1062.1000 430Q1060.5600 430 1059.6500 429.0200Q1058.7400 428.0400 1058.7400 426.6400L1058.7400 426.6400L1058.7400 421.4600Q1055.2400 425.8000 1049.8500 428.6000Q1044.4600 431.4000 1036.3400 431.4000ZM1041.5200 416.4200L1041.5200 416.4200Q1047.4000 416.4200 1050.9000 413.7600Q1054.4000 411.1000 1056.0800 406.9700Q1057.7600 402.8400 1057.9000 398.5000L1057.9000 398.5000Q1058.0400 395.9800 1058.0400 393.1100Q1058.0400 390.2400 1057.9000 387.7200L1057.9000 387.7200Q1057.7600 383.5200 1055.9400 379.6700Q1054.1200 375.8200 1050.6200 373.3000Q1047.1200 370.7800 1041.5200 370.7800L1041.5200 370.7800Q1035.6400 370.7800 1032.2100 373.3700Q1028.7800 375.9600 1027.2400 380.1600Q1025.7000 384.3600 1025.4200 389.4000L1025.4200 389.4000Q1025.2800 393.6000 1025.4200 397.8000L1025.4200 397.8000Q1025.7000 402.8400 1027.2400 407.0400Q1028.7800 411.2400 1032.2100 413.8300Q1035.6400 416.4200 1041.5200 416.4200ZM1127.3400 431.4000L1127.3400 431.4000Q1116.1400 431.4000 1108.5100 427.4800Q1100.8800 423.5600 1096.8900 416.4200Q1092.9000 409.2800 1092.3400 399.7600L1092.3400 399.7600Q1092.2000 397.2400 1092.2000 393.6000Q1092.2000 389.9600 1092.3400 387.4400L1092.3400 387.4400Q1092.9000 377.7800 1097.0300 370.7100Q1101.1600 363.6400 1108.7900 359.7200Q1116.4200 355.8000 1127.3400 355.8000L1127.3400 355.8000Q1138.2600 355.8000 1145.8900 359.7200Q1153.5200 363.6400 1157.6500 370.7100Q1161.7800 377.7800 1162.3400 387.4400L1162.3400 387.4400Q1162.4800 389.9600 1162.4800 393.6000Q1162.4800 397.2400 1162.3400 399.7600L1162.3400 399.7600Q1161.7800 409.2800 1157.7900 416.4200Q1153.8000 423.5600 1146.1700 427.4800Q1138.5400 431.4000 1127.3400 431.4000ZM1127.3400 417.5400L1127.3400 417.5400Q1134.7600 417.5400 1138.8200 412.8500Q1142.8800 408.1600 1143.3000 399.0600L1143.3000 399.0600Q1143.4400 396.9600 1143.4400 393.6000Q1143.4400 390.2400 1143.3000 388.1400L1143.3000 388.1400Q1142.8800 379.0400 1138.8200 374.3500Q1134.7600 369.6600 1127.3400 369.6600L1127.3400 369.6600Q1119.9200 369.6600 1115.8600 374.3500Q1111.8000 379.0400 1111.3800 388.1400L1111.3800 388.1400Q1111.2400 390.2400 1111.2400 393.6000Q1111.2400 396.9600 1111.3800 399.0600L1111.3800 399.0600Q1111.8000 408.1600 1115.8600 412.8500Q1119.9200 417.5400 1127.3400 417.5400ZM198.7200 570L185.8400 570Q184.4400 570 183.4600 569.0200Q182.4800 568.0400 182.4800 566.6400L182.4800 566.6400L182.4800 489.2200L156.5800 489.2200Q155.1800 489.2200 154.2000 488.2400Q153.2200 487.2600 153.2200 485.8600L153.2200 485.8600L153.2200 475.5000Q153.2200 473.9600 154.2000 472.9800Q155.1800 472 156.5800 472L156.5800 472L227.9800 472Q229.5200 472 230.5000 472.9800Q231.4800 473.9600 231.4800 475.5000L231.4800 475.5000L231.4800 485.8600Q231.4800 487.2600 230.5000 488.2400Q229.5200 489.2200 227.9800 489.2200L227.9800 489.2200L202.2200 489.2200L202.2200 566.6400Q202.2200 568.0400 201.2400 569.0200Q200.2600 570 198.7200 570L198.7200 570ZM265.0800 571.4000L265.0800 571.4000Q257.8000 571.4000 251.9200 568.5300Q246.0400 565.6600 242.6100 560.8300Q239.1800 556 239.1800 549.9800L239.1800 549.9800Q239.1800 540.1800 247.1600 534.3700Q255.1400 528.5600 268.0200 526.6000L268.0200 526.6000L287.2000 523.8000L287.2000 520.8600Q287.2000 514.9800 284.2600 511.7600Q281.3200 508.5400 274.1800 508.5400L274.1800 508.5400Q269.1400 508.5400 265.9900 510.5700Q262.8400 512.6000 261.3000 515.9600L261.3000 515.9600Q260.1800 517.7800 258.0800 517.7800L258.0800 517.7800L247.0200 517.7800Q245.4800 517.7800 244.7100 516.9400Q243.9400 516.1000 243.9400 514.7000L243.9400 514.7000Q244.0800 512.4600 245.8300 509.2400Q247.5800 506.0200 251.1500 503.0100Q254.7200 500 260.4600 497.9000Q266.2000 495.8000 274.3200 495.8000L274.3200 495.8000Q283.1400 495.8000 289.2300 497.9700Q295.3200 500.1400 298.9600 503.7800Q302.6000 507.4200 304.2800 512.3200Q305.9600 517.2200 305.9600 522.6800L305.9600 522.6800L305.9600 566.6400Q305.9600 568.0400 304.9800 569.0200Q304 570 302.6000 570L302.6000 570L291.2600 570Q289.7200 570 288.8100 569.0200Q287.9000 568.0400 287.9000 566.6400L287.9000 566.6400L287.9000 561.1800Q286.0800 563.7000 283 566.0800Q279.9200 568.4600 275.5100 569.9300Q271.1000 571.4000 265.0800 571.4000ZM269.8400 558.1000L269.8400 558.1000Q274.7400 558.1000 278.7300 556Q282.7200 553.9000 285.0300 549.4900Q287.3400 545.0800 287.3400 538.3600L287.3400 538.3600L287.3400 535.4200L273.3400 537.6600Q265.0800 538.9200 261.0200 541.7200Q256.9600 544.5200 256.9600 548.5800L256.9600 548.5800Q256.9600 551.6600 258.8500 553.8300Q260.7400 556 263.6800 557.0500Q266.6200 558.1000 269.8400 558.1000ZM364.2000 571.4000L364.2000 571.4000Q356.0800 571.4000 350.6900 568.6000Q345.3000 565.8000 341.8000 561.4600L341.8000 561.4600L341.8000 566.6400Q341.8000 568.0400 340.8900 569.0200Q339.9800 570 338.4400 570L338.4400 570L327.3800 570Q325.9800 570 325 569.0200Q324.0200 568.0400 324.0200 566.6400L324.0200 566.6400L324.0200 473.9600Q324.0200 472.5600 325 471.5800Q325.9800 470.6000 327.3800 470.6000L327.3800 470.6000L339.2800 470.6000Q340.8200 470.6000 341.7300 471.5800Q342.6400 472.5600 342.6400 473.9600L342.6400 473.9600L342.6400 505.0400Q346.1400 500.9800 351.3900 498.3900Q356.6400 495.8000 364.2000 495.8000L364.2000 495.8000Q371.6200 495.8000 377.0800 498.3200Q382.5400 500.8400 386.2500 505.3900Q389.9600 509.9400 391.9200 515.9600Q393.8800 521.9800 394.0200 528.9800L394.0200 528.9800Q394.1600 531.5000 394.1600 533.5300Q394.1600 535.5600 394.0200 538.0800L394.0200 538.0800Q393.7400 545.3600 391.7800 551.4500Q389.8200 557.5400 386.1800 562.0200Q382.5400 566.5000 377.0800 568.9500Q371.6200 571.4000 364.2000 571.4000ZM359.0200 556.4200L359.0200 556.4200Q365.0400 556.4200 368.4000 553.8300Q371.7600 551.2400 373.3000 547.0400Q374.8400 542.8400 375.1200 537.8000L375.1200 537.8000Q375.2600 533.6000 375.1200 529.4000L375.1200 529.4000Q374.8400 524.3600 373.3000 520.1600Q371.7600 515.9600 368.4000 513.3700Q365.0400 510.7800 359.0200 510.7800L359.0200 510.7800Q353.4200 510.7800 349.9200 513.3000Q346.4200 515.8200 344.6000 519.6700Q342.7800 523.5200 342.6400 527.7200L342.6400 527.7200Q342.5000 530.2400 342.5000 533.1100Q342.5000 535.9800 342.6400 538.5000L342.6400 538.5000Q342.9200 542.8400 344.5300 546.9700Q346.1400 551.1000 349.7100 553.7600Q353.2800 556.4200 359.0200 556.4200ZM441.0600 571.4000L441.0600 571.4000Q425.5200 571.4000 416.4200 562.4400Q407.3200 553.4800 406.6200 536.9600L406.6200 536.9600Q406.4800 535.5600 406.4800 533.3900Q406.4800 531.2200 406.6200 529.9600L406.6200 529.9600Q407.1800 519.3200 411.4500 511.6900Q415.7200 504.0600 423.2800 499.9300Q430.8400 495.8000 441.0600 495.8000L441.0600 495.8000Q452.4000 495.8000 460.1000 500.4900Q467.8000 505.1800 471.7200 513.5100Q475.6400 521.8400 475.6400 532.7600L475.6400 532.7600L475.6400 535.7000Q475.6400 537.1000 474.6600 538.0800Q473.6800 539.0600 472.1400 539.0600L472.1400 539.0600L425.6600 539.0600Q425.6600 539.0600 425.6600 539.4800Q425.6600 539.9000 425.6600 540.1800L425.6600 540.1800Q425.8000 545.0800 427.5500 549.2100Q429.3000 553.3400 432.7300 555.8600Q436.1600 558.3800 440.9200 558.3800L440.9200 558.3800Q444.8400 558.3800 447.5000 557.1900Q450.1600 556 451.8400 554.4600Q453.5200 552.9200 454.2200 551.9400L454.2200 551.9400Q455.4800 550.2600 456.2500 549.9100Q457.0200 549.5600 458.5600 549.5600L458.5600 549.5600L470.6000 549.5600Q472 549.5600 472.9100 550.4000Q473.8200 551.2400 473.6800 552.5000L473.6800 552.5000Q473.5400 554.7400 471.3700 557.9600Q469.2000 561.1800 465.1400 564.2600Q461.0800 567.3400 454.9900 569.3700Q448.9000 571.4000 441.0600 571.4000ZM425.6600 526.8800L425.6600 527.3000L456.6000 527.3000L456.6000 526.8800Q456.6000 521.4200 454.7800 517.2900Q452.9600 513.1600 449.4600 510.8500Q445.9600 508.5400 441.0600 508.5400L441.0600 508.5400Q436.1600 508.5400 432.6600 510.8500Q429.1600 513.1600 427.4100 517.2900Q425.6600 521.4200 425.6600 526.8800L425.6600 526.8800ZM505.6000 570L493.9800 570Q492.5800 570 491.6000 569.0200Q490.6200 568.0400 490.6200 566.6400L490.6200 566.6400L490.6200 473.9600Q490.6200 472.5600 491.6000 471.5800Q492.5800 470.6000 493.9800 470.6000L493.9800 470.6000L505.6000 470.6000Q507 470.6000 507.9800 471.5800Q508.9600 472.5600 508.9600 473.9600L508.9600 473.9600L508.9600 566.6400Q508.9600 568.0400 507.9800 569.0200Q507 570 505.6000 570L505.6000 570ZM548.7200 571.4000L548.7200 571.4000Q541.4400 571.4000 535.5600 568.5300Q529.6800 565.6600 526.2500 560.8300Q522.8200 556 522.8200 549.9800L522.8200 549.9800Q522.8200 540.1800 530.8000 534.3700Q538.7800 528.5600 551.6600 526.6000L551.6600 526.6000L570.8400 523.8000L570.8400 520.8600Q570.8400 514.9800 567.9000 511.7600Q564.9600 508.5400 557.8200 508.5400L557.8200 508.5400Q552.7800 508.5400 549.6300 510.5700Q546.4800 512.6000 544.9400 515.9600L544.9400 515.9600Q543.8200 517.7800 541.7200 517.7800L541.7200 517.7800L530.6600 517.7800Q529.1200 517.7800 528.3500 516.9400Q527.5800 516.1000 527.5800 514.7000L527.5800 514.7000Q527.7200 512.4600 529.4700 509.2400Q531.2200 506.0200 534.7900 503.0100Q538.3600 500 544.1000 497.9000Q549.8400 495.8000 557.9600 495.8000L557.9600 495.8000Q566.7800 495.8000 572.8700 497.9700Q578.9600 500.1400 582.6000 503.7800Q586.2400 507.4200 587.9200 512.3200Q589.6000 517.2200 589.6000 522.6800L589.6000 522.6800L589.6000 566.6400Q589.6000 568.0400 588.6200 569.0200Q587.6400 570 586.2400 570L586.2400 570L574.9000 570Q573.3600 570 572.4500 569.0200Q571.5400 568.0400 571.5400 566.6400L571.5400 566.6400L571.5400 561.1800Q569.7200 563.7000 566.6400 566.0800Q563.5600 568.4600 559.1500 569.9300Q554.7400 571.4000 548.7200 571.4000ZM553.4800 558.1000L553.4800 558.1000Q558.3800 558.1000 562.3700 556Q566.3600 553.9000 568.6700 549.4900Q570.9800 545.0800 570.9800 538.3600L570.9800 538.3600L570.9800 535.4200L556.9800 537.6600Q548.7200 538.9200 544.6600 541.7200Q540.6000 544.5200 540.6000 548.5800L540.6000 548.5800Q540.6000 551.6600 542.4900 553.8300Q544.3800 556 547.3200 557.0500Q550.2600 558.1000 553.4800 558.1000ZM635.1000 571.4000L635.1000 571.4000Q626.7000 571.4000 620.7500 569.4400Q614.8000 567.4800 611.0200 564.5400Q607.2400 561.6000 605.4200 558.6600Q603.6000 555.7200 603.4600 553.7600L603.4600 553.7600Q603.3200 552.2200 604.3700 551.3100Q605.4200 550.4000 606.6800 550.4000L606.6800 550.4000L617.7400 550.4000Q618.3000 550.4000 618.7200 550.5400Q619.1400 550.6800 619.8400 551.3800L619.8400 551.3800Q621.6600 552.9200 623.6900 554.6000Q625.7200 556.2800 628.5200 557.4700Q631.3200 558.6600 635.5200 558.6600L635.5200 558.6600Q640.9800 558.6600 644.6900 556.4900Q648.4000 554.3200 648.4000 550.2600L648.4000 550.2600Q648.4000 547.3200 646.7900 545.5000Q645.1800 543.6800 640.8400 542.2100Q636.5000 540.7400 628.5200 539.0600L628.5200 539.0600Q620.6800 537.2400 615.5000 534.4400Q610.3200 531.6400 607.8000 527.4400Q605.2800 523.2400 605.2800 517.6400L605.2800 517.6400Q605.2800 512.1800 608.5700 507.2100Q611.8600 502.2400 618.3700 499.0200Q624.8800 495.8000 634.5400 495.8000L634.5400 495.8000Q642.1000 495.8000 647.7000 497.6900Q653.3000 499.5800 657.0100 502.3800Q660.7200 505.1800 662.6800 508.0500Q664.6400 510.9200 664.7800 513.0200L664.7800 513.0200Q664.9200 514.5600 663.9400 515.4700Q662.9600 516.3800 661.7000 516.3800L661.7000 516.3800L651.3400 516.3800Q650.6400 516.3800 650.0800 516.1000Q649.5200 515.8200 648.9600 515.4000L648.9600 515.4000Q647.4200 514 645.6000 512.3900Q643.7800 510.7800 641.1900 509.6600Q638.6000 508.5400 634.4000 508.5400L634.4000 508.5400Q629.0800 508.5400 626.2800 510.8500Q623.4800 513.1600 623.4800 516.6600L623.4800 516.6600Q623.4800 519.0400 624.8100 520.7900Q626.1400 522.5400 630.2000 524.0800Q634.2600 525.6200 642.5200 527.3000L642.5200 527.3000Q651.9000 528.9800 657.4300 532.2700Q662.9600 535.5600 665.2700 539.8300Q667.5800 544.1000 667.5800 549.2800L667.5800 549.2800Q667.5800 555.5800 663.8700 560.6200Q660.1600 565.6600 652.9500 568.5300Q645.7400 571.4000 635.1000 571.4000ZM745.4200 571.4000L745.4200 571.4000Q729.8800 571.4000 720.7800 562.4400Q711.6800 553.4800 710.9800 536.9600L710.9800 536.9600Q710.8400 535.5600 710.8400 533.3900Q710.8400 531.2200 710.9800 529.9600L710.9800 529.9600Q711.5400 519.3200 715.8100 511.6900Q720.0800 504.0600 727.6400 499.9300Q735.2000 495.8000 745.4200 495.8000L745.4200 495.8000Q756.7600 495.8000 764.4600 500.4900Q772.1600 505.1800 776.0800 513.5100Q780.0000 521.8400 780.0000 532.7600L780.0000 532.7600L780.0000 535.7000Q780.0000 537.1000 779.0200 538.0800Q778.0400 539.0600 776.5000 539.0600L776.5000 539.0600L730.0200 539.0600Q730.0200 539.0600 730.0200 539.4800Q730.0200 539.9000 730.0200 540.1800L730.0200 540.1800Q730.1600 545.0800 731.9100 549.2100Q733.6600 553.3400 737.0900 555.8600Q740.5200 558.3800 745.2800 558.3800L745.2800 558.3800Q749.2000 558.3800 751.8600 557.1900Q754.5200 556 756.2000 554.4600Q757.8800 552.9200 758.5800 551.9400L758.5800 551.9400Q759.8400 550.2600 760.6100 549.9100Q761.3800 549.5600 762.9200 549.5600L762.9200 549.5600L774.9600 549.5600Q776.3600 549.5600 777.2700 550.4000Q778.1800 551.2400 778.0400 552.5000L778.0400 552.5000Q777.9000 554.7400 775.7300 557.9600Q773.5600 561.1800 769.5000 564.2600Q765.4400 567.3400 759.3500 569.3700Q753.2600 571.4000 745.4200 571.4000ZM730.0200 526.8800L730.0200 527.3000L760.9600 527.3000L760.9600 526.8800Q760.9600 521.4200 759.1400 517.2900Q757.3200 513.1600 753.8200 510.8500Q750.3200 508.5400 745.4200 508.5400L745.4200 508.5400Q740.5200 508.5400 737.0200 510.8500Q733.5200 513.1600 731.7700 517.2900Q730.0200 521.4200 730.0200 526.8800L730.0200 526.8800ZM866.3800 571.4000L866.3800 571.4000Q853.3600 571.4000 844.3300 566.8500Q835.3000 562.3000 830.5400 553.8300Q825.7800 545.3600 825.2200 533.4600L825.2200 533.4600Q825.0800 527.7200 825.0800 521.1400Q825.0800 514.5600 825.2200 508.5400L825.2200 508.5400Q825.7800 496.7800 830.6100 488.2400Q835.4400 479.7000 844.4700 475.1500Q853.5000 470.6000 866.3800 470.6000L866.3800 470.6000Q875.9000 470.6000 883.4600 473.1200Q891.0200 475.6400 896.3400 480.0500Q901.6600 484.4600 904.6000 490.3400Q907.5400 496.2200 907.6800 503.0800L907.6800 503.0800Q907.8200 504.3400 906.9100 505.1800Q906.0000 506.0200 904.7400 506.0200L904.7400 506.0200L891.4400 506.0200Q889.9000 506.0200 888.9200 505.2500Q887.9400 504.4800 887.5200 502.6600L887.5200 502.6600Q885.2800 493.4200 879.8200 490.0600Q874.3600 486.7000 866.2400 486.7000L866.2400 486.7000Q856.8600 486.7000 851.2600 491.9500Q845.6600 497.2000 845.2400 509.2400L845.2400 509.2400Q844.8200 520.7200 845.2400 532.7600L845.2400 532.7600Q845.6600 544.8000 851.2600 550.0500Q856.8600 555.3000 866.2400 555.3000L866.2400 555.3000Q874.3600 555.3000 879.8900 551.8700Q885.4200 548.4400 887.5200 539.3400L887.5200 539.3400Q887.9400 537.3800 888.9200 536.6800Q889.9000 535.9800 891.4400 535.9800L891.4400 535.9800L904.7400 535.9800Q906.0000 535.9800 906.9100 536.8200Q907.8200 537.6600 907.6800 538.9200L907.6800 538.9200Q907.5400 545.7800 904.6000 551.6600Q901.6600 557.5400 896.3400 561.9500Q891.0200 566.3600 883.4600 568.8800Q875.9000 571.4000 866.3800 571.4000ZM954.8600 571.4000L954.8600 571.4000Q943.6600 571.4000 936.0300 567.4800Q928.4000 563.5600 924.4100 556.4200Q920.4200 549.2800 919.8600 539.7600L919.8600 539.7600Q919.7200 537.2400 919.7200 533.6000Q919.7200 529.9600 919.8600 527.4400L919.8600 527.4400Q920.4200 517.7800 924.5500 510.7100Q928.6800 503.6400 936.3100 499.7200Q943.9400 495.8000 954.8600 495.8000L954.8600 495.8000Q965.7800 495.8000 973.4100 499.7200Q981.0400 503.6400 985.1700 510.7100Q989.3000 517.7800 989.8600 527.4400L989.8600 527.4400Q990.0000 529.9600 990.0000 533.6000Q990.0000 537.2400 989.8600 539.7600L989.8600 539.7600Q989.3000 549.2800 985.3100 556.4200Q981.3200 563.5600 973.6900 567.4800Q966.0600 571.4000 954.8600 571.4000ZM954.8600 557.5400L954.8600 557.5400Q962.2800 557.5400 966.3400 552.8500Q970.4000 548.1600 970.8200 539.0600L970.8200 539.0600Q970.9600 536.9600 970.9600 533.6000Q970.9600 530.2400 970.8200 528.1400L970.8200 528.1400Q970.4000 519.0400 966.3400 514.3500Q962.2800 509.6600 954.8600 509.6600L954.8600 509.6600Q947.4400 509.6600 943.3800 514.3500Q939.3200 519.0400 938.9000 528.1400L938.9000 528.1400Q938.7600 530.2400 938.7600 533.6000Q938.7600 536.9600 938.9000 539.0600L938.9000 539.0600Q939.3200 548.1600 943.3800 552.8500Q947.4400 557.5400 954.8600 557.5400ZM1020.6600 570L1009.0400 570Q1007.6400 570 1006.6600 569.0200Q1005.6800 568.0400 1005.6800 566.6400L1005.6800 566.6400L1005.6800 473.9600Q1005.6800 472.5600 1006.6600 471.5800Q1007.6400 470.6000 1009.0400 470.6000L1009.0400 470.6000L1020.6600 470.6000Q1022.0600 470.6000 1023.0400 471.5800Q1024.0200 472.5600 1024.0200 473.9600L1024.0200 473.9600L1024.0200 566.6400Q1024.0200 568.0400 1023.0400 569.0200Q1022.0600 570 1020.6600 570L1020.6600 570ZM1069.6600 571.4000L1069.6600 571.4000Q1061.1200 571.4000 1054.8900 567.5500Q1048.6600 563.7000 1045.3000 556.6300Q1041.9400 549.5600 1041.9400 539.9000L1041.9400 539.9000L1041.9400 500.5600Q1041.9400 499.1600 1042.9200 498.1800Q1043.9000 497.2000 1045.3000 497.2000L1045.3000 497.2000L1057.6200 497.2000Q1059.1600 497.2000 1060.0700 498.1800Q1060.9800 499.1600 1060.9800 500.5600L1060.9800 500.5600L1060.9800 539.0600Q1060.9800 556.4200 1076.2400 556.4200L1076.2400 556.4200Q1083.5200 556.4200 1087.7900 551.8000Q1092.0600 547.1800 1092.0600 539.0600L1092.0600 539.0600L1092.0600 500.5600Q1092.0600 499.1600 1093.0400 498.1800Q1094.0200 497.2000 1095.4200 497.2000L1095.4200 497.2000L1107.7400 497.2000Q1109.1400 497.2000 1110.1200 498.1800Q1111.1000 499.1600 1111.1000 500.5600L1111.1000 500.5600L1111.1000 566.6400Q1111.1000 568.0400 1110.1200 569.0200Q1109.1400 570 1107.7400 570L1107.7400 570L1096.4000 570Q1094.8600 570 1093.9500 569.0200Q1093.0400 568.0400 1093.0400 566.6400L1093.0400 566.6400L1093.0400 560.9000Q1089.2600 565.8000 1083.6600 568.6000Q1078.0600 571.4000 1069.6600 571.4000ZM1145.2600 570L1132.9400 570Q1131.5400 570 1130.5600 569.0200Q1129.5800 568.0400 1129.5800 566.6400L1129.5800 566.6400L1129.5800 500.5600Q1129.5800 499.1600 1130.5600 498.1800Q1131.5400 497.2000 1132.9400 497.2000L1132.9400 497.2000L1144.4200 497.2000Q1145.8200 497.2000 1146.8000 498.1800Q1147.7800 499.1600 1147.7800 500.5600L1147.7800 500.5600L1147.7800 506.3000Q1151.4200 501.8200 1157.0900 498.8100Q1162.7600 495.8000 1171.1600 495.8000L1171.1600 495.8000Q1179.7000 495.8000 1186.0000 499.6500Q1192.3000 503.5000 1195.7300 510.5000Q1199.1600 517.5000 1199.1600 527.3000L1199.1600 527.3000L1199.1600 566.6400Q1199.1600 568.0400 1198.1800 569.0200Q1197.2000 570 1195.8000 570L1195.8000 570L1183.4800 570Q1182.0800 570 1181.1000 569.0200Q1180.1200 568.0400 1180.1200 566.6400L1180.1200 566.6400L1180.1200 528.1400Q1180.1200 520.0200 1176.1300 515.4000Q1172.1400 510.7800 1164.5800 510.7800L1164.5800 510.7800Q1157.3000 510.7800 1152.9600 515.4000Q1148.6200 520.0200 1148.6200 528.1400L1148.6200 528.1400L1148.6200 566.6400Q1148.6200 568.0400 1147.6400 569.0200Q1146.6600 570 1145.2600 570L1145.2600 570ZM1238.0800 571.4000L1238.0800 571.4000Q1230.8000 571.4000 1224.9200 568.5300Q1219.0400 565.6600 1215.6100 560.8300Q1212.1800 556 1212.1800 549.9800L1212.1800 549.9800Q1212.1800 540.1800 1220.1600 534.3700Q1228.1400 528.5600 1241.0200 526.6000L1241.0200 526.6000L1260.2000 523.8000L1260.2000 520.8600Q1260.2000 514.9800 1257.2600 511.7600Q1254.3200 508.5400 1247.1800 508.5400L1247.1800 508.5400Q1242.1400 508.5400 1238.9900 510.5700Q1235.8400 512.6000 1234.3000 515.9600L1234.3000 515.9600Q1233.1800 517.7800 1231.0800 517.7800L1231.0800 517.7800L1220.0200 517.7800Q1218.4800 517.7800 1217.7100 516.9400Q1216.9400 516.1000 1216.9400 514.7000L1216.9400 514.7000Q1217.0800 512.4600 1218.8300 509.2400Q1220.5800 506.0200 1224.1500 503.0100Q1227.7200 500 1233.4600 497.9000Q1239.2000 495.8000 1247.3200 495.8000L1247.3200 495.8000Q1256.1400 495.8000 1262.2300 497.9700Q1268.3200 500.1400 1271.9600 503.7800Q1275.6000 507.4200 1277.2800 512.3200Q1278.9600 517.2200 1278.9600 522.6800L1278.9600 522.6800L1278.9600 566.6400Q1278.9600 568.0400 1277.9800 569.0200Q1277.0000 570 1275.6000 570L1275.6000 570L1264.2600 570Q1262.7200 570 1261.8100 569.0200Q1260.9000 568.0400 1260.9000 566.6400L1260.9000 566.6400L1260.9000 561.1800Q1259.0800 563.7000 1256.0000 566.0800Q1252.9200 568.4600 1248.5100 569.9300Q1244.1000 571.4000 1238.0800 571.4000ZM1242.8400 558.1000L1242.8400 558.1000Q1247.7400 558.1000 1251.7300 556Q1255.7200 553.9000 1258.0300 549.4900Q1260.3400 545.0800 1260.3400 538.3600L1260.3400 538.3600L1260.3400 535.4200L1246.3400 537.6600Q1238.0800 538.9200 1234.0200 541.7200Q1229.9600 544.5200 1229.9600 548.5800L1229.9600 548.5800Q1229.9600 551.6600 1231.8500 553.8300Q1233.7400 556 1236.6800 557.0500Q1239.6200 558.1000 1242.8400 558.1000ZM1324.4600 571.4000L1324.4600 571.4000Q1316.0600 571.4000 1310.1100 569.4400Q1304.1600 567.4800 1300.3800 564.5400Q1296.6000 561.6000 1294.7800 558.6600Q1292.9600 555.7200 1292.8200 553.7600L1292.8200 553.7600Q1292.6800 552.2200 1293.7300 551.3100Q1294.7800 550.4000 1296.0400 550.4000L1296.0400 550.4000L1307.1000 550.4000Q1307.6600 550.4000 1308.0800 550.5400Q1308.5000 550.6800 1309.2000 551.3800L1309.2000 551.3800Q1311.0200 552.9200 1313.0500 554.6000Q1315.0800 556.2800 1317.8800 557.4700Q1320.6800 558.6600 1324.8800 558.6600L1324.8800 558.6600Q1330.3400 558.6600 1334.0500 556.4900Q1337.7600 554.3200 1337.7600 550.2600L1337.7600 550.2600Q1337.7600 547.3200 1336.1500 545.5000Q1334.5400 543.6800 1330.2000 542.2100Q1325.8600 540.7400 1317.8800 539.0600L1317.8800 539.0600Q1310.0400 537.2400 1304.8600 534.4400Q1299.6800 531.6400 1297.1600 527.4400Q1294.6400 523.2400 1294.6400 517.6400L1294.6400 517.6400Q1294.6400 512.1800 1297.9300 507.2100Q1301.2200 502.2400 1307.7300 499.0200Q1314.2400 495.8000 1323.9000 495.8000L1323.9000 495.8000Q1331.4600 495.8000 1337.0600 497.6900Q1342.6600 499.5800 1346.3700 502.3800Q1350.0800 505.1800 1352.0400 508.0500Q1354.0000 510.9200 1354.1400 513.0200L1354.1400 513.0200Q1354.2800 514.5600 1353.3000 515.4700Q1352.3200 516.3800 1351.0600 516.3800L1351.0600 516.3800L1340.7000 516.3800Q1340.0000 516.3800 1339.4400 516.1000Q1338.8800 515.8200 1338.3200 515.4000L1338.3200 515.4000Q1336.7800 514 1334.9600 512.3900Q1333.1400 510.7800 1330.5500 509.6600Q1327.9600 508.5400 1323.7600 508.5400L1323.7600 508.5400Q1318.4400 508.5400 1315.6400 510.8500Q1312.8400 513.1600 1312.8400 516.6600L1312.8400 516.6600Q1312.8400 519.0400 1314.1700 520.7900Q1315.5000 522.5400 1319.5600 524.0800Q1323.6200 525.6200 1331.8800 527.3000L1331.8800 527.3000Q1341.2600 528.9800 1346.7900 532.2700Q1352.3200 535.5600 1354.6300 539.8300Q1356.9400 544.1000 1356.9400 549.2800L1356.9400 549.2800Q1356.9400 555.5800 1353.2300 560.6200Q1349.5200 565.6600 1342.3100 568.5300Q1335.1000 571.4000 1324.4600 571.4000ZM186.2600 711.4000L186.2600 711.4000Q177.7200 711.4000 171.4900 707.5500Q165.2600 703.7000 161.9000 696.6300Q158.5400 689.5600 158.5400 679.9000L158.5400 679.9000L158.5400 640.5600Q158.5400 639.1600 159.5200 638.1800Q160.5000 637.2000 161.9000 637.2000L161.9000 637.2000L174.2200 637.2000Q175.7600 637.2000 176.6700 638.1800Q177.5800 639.1600 177.5800 640.5600L177.5800 640.5600L177.5800 679.0600Q177.5800 696.4200 192.8400 696.4200L192.8400 696.4200Q200.1200 696.4200 204.3900 691.8000Q208.6600 687.1800 208.6600 679.0600L208.6600 679.0600L208.6600 640.5600Q208.6600 639.1600 209.6400 638.1800Q210.6200 637.2000 212.0200 637.2000L212.0200 637.2000L224.3400 637.2000Q225.7400 637.2000 226.7200 638.1800Q227.7000 639.1600 227.7000 640.5600L227.7000 640.5600L227.7000 706.6400Q227.7000 708.0400 226.7200 709.0200Q225.7400 710 224.3400 710L224.3400 710L213 710Q211.4600 710 210.5500 709.0200Q209.6400 708.0400 209.6400 706.6400L209.6400 706.6400L209.6400 700.9000Q205.8600 705.8000 200.2600 708.6000Q194.6600 711.4000 186.2600 711.4000ZM290.4200 710L279.0800 710Q270.6800 710 264.9400 707.0600Q259.2000 704.1200 256.4000 698.3100Q253.6000 692.5000 253.6000 683.8200L253.6000 683.8200L253.6000 652.0400L242.5400 652.0400Q241.1400 652.0400 240.1600 651.0600Q239.1800 650.0800 239.1800 648.5400L239.1800 648.5400L239.1800 640.5600Q239.1800 639.1600 240.1600 638.1800Q241.1400 637.2000 242.5400 637.2000L242.5400 637.2000L253.6000 637.2000L253.6000 613.9600Q253.6000 612.5600 254.5100 611.5800Q255.4200 610.6000 256.9600 610.6000L256.9600 610.6000L268.3000 610.6000Q269.7000 610.6000 270.6800 611.5800Q271.6600 612.5600 271.6600 613.9600L271.6600 613.9600L271.6600 637.2000L289.1600 637.2000Q290.5600 637.2000 291.5400 638.1800Q292.5200 639.1600 292.5200 640.5600L292.5200 640.5600L292.5200 648.5400Q292.5200 650.0800 291.5400 651.0600Q290.5600 652.0400 289.1600 652.0400L289.1600 652.0400L271.6600 652.0400L271.6600 682.4200Q271.6600 688.1600 273.6900 691.3800Q275.7200 694.6000 280.7600 694.6000L280.7600 694.6000L290.4200 694.6000Q291.8200 694.6000 292.8000 695.5800Q293.7800 696.5600 293.7800 697.9600L293.7800 697.9600L293.7800 706.6400Q293.7800 708.0400 292.8000 709.0200Q291.8200 710 290.4200 710L290.4200 710ZM321.2200 710L309.6000 710Q308.2000 710 307.2200 709.0200Q306.2400 708.0400 306.2400 706.6400L306.2400 706.6400L306.2400 640.5600Q306.2400 639.1600 307.2200 638.1800Q308.2000 637.2000 309.6000 637.2000L309.6000 637.2000L321.2200 637.2000Q322.7600 637.2000 323.6700 638.1800Q324.5800 639.1600 324.5800 640.5600L324.5800 640.5600L324.5800 706.6400Q324.5800 708.0400 323.6700 709.0200Q322.7600 710 321.2200 710L321.2200 710ZM321.7800 625.1600L309.0400 625.1600Q307.6400 625.1600 306.6600 624.1800Q305.6800 623.2000 305.6800 621.8000L305.6800 621.8000L305.6800 611.7200Q305.6800 610.3200 306.6600 609.3400Q307.6400 608.3600 309.0400 608.3600L309.0400 608.3600L321.7800 608.3600Q323.3200 608.3600 324.3000 609.3400Q325.2800 610.3200 325.2800 611.7200L325.2800 611.7200L325.2800 621.8000Q325.2800 623.2000 324.3000 624.1800Q323.3200 625.1600 321.7800 625.1600L321.7800 625.1600ZM358.3200 710L346.7000 710Q345.3000 710 344.3200 709.0200Q343.3400 708.0400 343.3400 706.6400L343.3400 706.6400L343.3400 613.9600Q343.3400 612.5600 344.3200 611.5800Q345.3000 610.6000 346.7000 610.6000L346.7000 610.6000L358.3200 610.6000Q359.7200 610.6000 360.7000 611.5800Q361.6800 612.5600 361.6800 613.9600L361.6800 613.9600L361.6800 706.6400Q361.6800 708.0400 360.7000 709.0200Q359.7200 710 358.3200 710L358.3200 710ZM395.2800 710L383.6600 710Q382.2600 710 381.2800 709.0200Q380.3000 708.0400 380.3000 706.6400L380.3000 706.6400L380.3000 640.5600Q380.3000 639.1600 381.2800 638.1800Q382.2600 637.2000 383.6600 637.2000L383.6600 637.2000L395.2800 637.2000Q396.8200 637.2000 397.7300 638.1800Q398.6400 639.1600 398.6400 640.5600L398.6400 640.5600L398.6400 706.6400Q398.6400 708.0400 397.7300 709.0200Q396.8200 710 395.2800 710L395.2800 710ZM395.8400 625.1600L383.1000 625.1600Q381.7000 625.1600 380.7200 624.1800Q379.7400 623.2000 379.7400 621.8000L379.7400 621.8000L379.7400 611.7200Q379.7400 610.3200 380.7200 609.3400Q381.7000 608.3600 383.1000 608.3600L383.1000 608.3600L395.8400 608.3600Q397.3800 608.3600 398.3600 609.3400Q399.3400 610.3200 399.3400 611.7200L399.3400 611.7200L399.3400 621.8000Q399.3400 623.2000 398.3600 624.1800Q397.3800 625.1600 395.8400 625.1600L395.8400 625.1600ZM474.1000 710L416.9800 710Q415.4400 710 414.5300 709.0200Q413.6200 708.0400 413.6200 706.6400L413.6200 706.6400L413.6200 698.6600Q413.6200 697.4000 414.2500 696.2100Q414.8800 695.0200 415.5800 694.1800L415.5800 694.1800L451.4200 651.7600L418.1000 651.7600Q416.7000 651.7600 415.7200 650.8500Q414.7400 649.9400 414.7400 648.4000L414.7400 648.4000L414.7400 640.5600Q414.7400 639.1600 415.7200 638.1800Q416.7000 637.2000 418.1000 637.2000L418.1000 637.2000L471.1600 637.2000Q472.7000 637.2000 473.6100 638.1800Q474.5200 639.1600 474.5200 640.5600L474.5200 640.5600L474.5200 649.1000Q474.5200 650.3600 473.9600 651.3400Q473.4000 652.3200 472.5600 653.3000L472.5600 653.3000L437.5600 695.4400L474.1000 695.4400Q475.5000 695.4400 476.4800 696.3500Q477.4600 697.2600 477.4600 698.8000L477.4600 698.8000L477.4600 706.6400Q477.4600 708.0400 476.4800 709.0200Q475.5000 710 474.1000 710L474.1000 710ZM512.7400 711.4000L512.7400 711.4000Q505.4600 711.4000 499.5800 708.5300Q493.7000 705.6600 490.2700 700.8300Q486.8400 696 486.8400 689.9800L486.8400 689.9800Q486.8400 680.1800 494.8200 674.3700Q502.8000 668.5600 515.6800 666.6000L515.6800 666.6000L534.8600 663.8000L534.8600 660.8600Q534.8600 654.9800 531.9200 651.7600Q528.9800 648.5400 521.8400 648.5400L521.8400 648.5400Q516.8000 648.5400 513.6500 650.5700Q510.5000 652.6000 508.9600 655.9600L508.9600 655.9600Q507.8400 657.7800 505.7400 657.7800L505.7400 657.7800L494.6800 657.7800Q493.1400 657.7800 492.3700 656.9400Q491.6000 656.1000 491.6000 654.7000L491.6000 654.7000Q491.7400 652.4600 493.4900 649.2400Q495.2400 646.0200 498.8100 643.0100Q502.3800 640 508.1200 637.9000Q513.8600 635.8000 521.9800 635.8000L521.9800 635.8000Q530.8000 635.8000 536.8900 637.9700Q542.9800 640.1400 546.6200 643.7800Q550.2600 647.4200 551.9400 652.3200Q553.6200 657.2200 553.6200 662.6800L553.6200 662.6800L553.6200 706.6400Q553.6200 708.0400 552.6400 709.0200Q551.6600 710 550.2600 710L550.2600 710L538.9200 710Q537.3800 710 536.4700 709.0200Q535.5600 708.0400 535.5600 706.6400L535.5600 706.6400L535.5600 701.1800Q533.7400 703.7000 530.6600 706.0800Q527.5800 708.4600 523.1700 709.9300Q518.7600 711.4000 512.7400 711.4000ZM517.5000 698.1000L517.5000 698.1000Q522.4000 698.1000 526.3900 696Q530.3800 693.9000 532.6900 689.4900Q535 685.0800 535 678.3600L535 678.3600L535 675.4200L521 677.6600Q512.7400 678.9200 508.6800 681.7200Q504.6200 684.5200 504.6200 688.5800L504.6200 688.5800Q504.6200 691.6600 506.5100 693.8300Q508.4000 696 511.3400 697.0500Q514.2800 698.1000 517.5000 698.1000ZM587.2200 710L574.9000 710Q573.5000 710 572.5200 709.0200Q571.5400 708.0400 571.5400 706.6400L571.5400 706.6400L571.5400 640.5600Q571.5400 639.1600 572.5200 638.1800Q573.5000 637.2000 574.9000 637.2000L574.9000 637.2000L586.3800 637.2000Q587.7800 637.2000 588.7600 638.1800Q589.7400 639.1600 589.7400 640.5600L589.7400 640.5600L589.7400 646.3000Q593.3800 641.8200 599.0500 638.8100Q604.7200 635.8000 613.1200 635.8000L613.1200 635.8000Q621.6600 635.8000 627.9600 639.6500Q634.2600 643.5000 637.6900 650.5000Q641.1200 657.5000 641.1200 667.3000L641.1200 667.3000L641.1200 706.6400Q641.1200 708.0400 640.1400 709.0200Q639.1600 710 637.7600 710L637.7600 710L625.4400 710Q624.0400 710 623.0600 709.0200Q622.0800 708.0400 622.0800 706.6400L622.0800 706.6400L622.0800 668.1400Q622.0800 660.0200 618.0900 655.4000Q614.1000 650.7800 606.5400 650.7800L606.5400 650.7800Q599.2600 650.7800 594.9200 655.4000Q590.5800 660.0200 590.5800 668.1400L590.5800 668.1400L590.5800 706.6400Q590.5800 708.0400 589.6000 709.0200Q588.6200 710 587.2200 710L587.2200 710ZM685.9200 711.4000L685.9200 711.4000Q678.6400 711.4000 673.1100 708.9500Q667.5800 706.5000 663.9400 702.0200Q660.3000 697.5400 658.3400 691.4500Q656.3800 685.3600 656.1000 678.0800L656.1000 678.0800Q655.9600 675.5600 655.9600 673.5300Q655.9600 671.5000 656.1000 668.9800L656.1000 668.9800Q656.3800 661.9800 658.2700 655.9600Q660.1600 649.9400 663.8700 645.3900Q667.5800 640.8400 673.1100 638.3200Q678.6400 635.8000 685.9200 635.8000L685.9200 635.8000Q693.4800 635.8000 698.7300 638.3900Q703.9800 640.9800 707.4800 645.0400L707.4800 645.0400L707.4800 613.9600Q707.4800 612.5600 708.3900 611.5800Q709.3000 610.6000 710.8400 610.6000L710.8400 610.6000L722.7400 610.6000Q724.1400 610.6000 725.1200 611.5800Q726.1000 612.5600 726.1000 613.9600L726.1000 613.9600L726.1000 706.6400Q726.1000 708.0400 725.1200 709.0200Q724.1400 710 722.7400 710L722.7400 710L711.6800 710Q710.1400 710 709.2300 709.0200Q708.3200 708.0400 708.3200 706.6400L708.3200 706.6400L708.3200 701.4600Q704.8200 705.8000 699.4300 708.6000Q694.0400 711.4000 685.9200 711.4000ZM691.1000 696.4200L691.1000 696.4200Q696.9800 696.4200 700.4800 693.7600Q703.9800 691.1000 705.6600 686.9700Q707.3400 682.8400 707.4800 678.5000L707.4800 678.5000Q707.6200 675.9800 707.6200 673.1100Q707.6200 670.2400 707.4800 667.7200L707.4800 667.7200Q707.3400 663.5200 705.5200 659.6700Q703.7000 655.8200 700.2000 653.3000Q696.7000 650.7800 691.1000 650.7800L691.1000 650.7800Q685.2200 650.7800 681.7900 653.3700Q678.3600 655.9600 676.8200 660.1600Q675.2800 664.3600 675.0000 669.4000L675.0000 669.4000Q674.8600 673.6000 675.0000 677.8000L675.0000 677.8000Q675.2800 682.8400 676.8200 687.0400Q678.3600 691.2400 681.7900 693.8300Q685.2200 696.4200 691.1000 696.4200ZM776.9200 711.4000L776.9200 711.4000Q765.7200 711.4000 758.0900 707.4800Q750.4600 703.5600 746.4700 696.4200Q742.4800 689.2800 741.9200 679.7600L741.9200 679.7600Q741.7800 677.2400 741.7800 673.6000Q741.7800 669.9600 741.9200 667.4400L741.9200 667.4400Q742.4800 657.7800 746.6100 650.7100Q750.7400 643.6400 758.3700 639.7200Q766.0000 635.8000 776.9200 635.8000L776.9200 635.8000Q787.8400 635.8000 795.4700 639.7200Q803.1000 643.6400 807.2300 650.7100Q811.3600 657.7800 811.9200 667.4400L811.9200 667.4400Q812.0600 669.9600 812.0600 673.6000Q812.0600 677.2400 811.9200 679.7600L811.9200 679.7600Q811.3600 689.2800 807.3700 696.4200Q803.3800 703.5600 795.7500 707.4800Q788.1200 711.4000 776.9200 711.4000ZM776.9200 697.5400L776.9200 697.5400Q784.3400 697.5400 788.4000 692.8500Q792.4600 688.1600 792.8800 679.0600L792.8800 679.0600Q793.0200 676.9600 793.0200 673.6000Q793.0200 670.2400 792.8800 668.1400L792.8800 668.1400Q792.4600 659.0400 788.4000 654.3500Q784.3400 649.6600 776.9200 649.6600L776.9200 649.6600Q769.5000 649.6600 765.4400 654.3500Q761.3800 659.0400 760.9600 668.1400L760.9600 668.1400Q760.8200 670.2400 760.8200 673.6000Q760.8200 676.9600 760.9600 679.0600L760.9600 679.0600Q761.3800 688.1600 765.4400 692.8500Q769.5000 697.5400 776.9200 697.5400ZM880.8000 711.4000L880.8000 711.4000Q873.5200 711.4000 867.6400 708.5300Q861.7600 705.6600 858.3300 700.8300Q854.9000 696 854.9000 689.9800L854.9000 689.9800Q854.9000 680.1800 862.8800 674.3700Q870.8600 668.5600 883.7400 666.6000L883.7400 666.6000L902.9200 663.8000L902.9200 660.8600Q902.9200 654.9800 899.9800 651.7600Q897.0400 648.5400 889.9000 648.5400L889.9000 648.5400Q884.8600 648.5400 881.7100 650.5700Q878.5600 652.6000 877.0200 655.9600L877.0200 655.9600Q875.9000 657.7800 873.8000 657.7800L873.8000 657.7800L862.7400 657.7800Q861.2000 657.7800 860.4300 656.9400Q859.6600 656.1000 859.6600 654.7000L859.6600 654.7000Q859.8000 652.4600 861.5500 649.2400Q863.3000 646.0200 866.8700 643.0100Q870.4400 640 876.1800 637.9000Q881.9200 635.8000 890.0400 635.8000L890.0400 635.8000Q898.8600 635.8000 904.9500 637.9700Q911.0400 640.1400 914.6800 643.7800Q918.3200 647.4200 920.0000 652.3200Q921.6800 657.2200 921.6800 662.6800L921.6800 662.6800L921.6800 706.6400Q921.6800 708.0400 920.7000 709.0200Q919.7200 710 918.3200 710L918.3200 710L906.9800 710Q905.4400 710 904.5300 709.0200Q903.6200 708.0400 903.6200 706.6400L903.6200 706.6400L903.6200 701.1800Q901.8000 703.7000 898.7200 706.0800Q895.6400 708.4600 891.2300 709.9300Q886.8200 711.4000 880.8000 711.4000ZM885.5600 698.1000L885.5600 698.1000Q890.4600 698.1000 894.4500 696Q898.4400 693.9000 900.7500 689.4900Q903.0600 685.0800 903.0600 678.3600L903.0600 678.3600L903.0600 675.4200L889.0600 677.6600Q880.8000 678.9200 876.7400 681.7200Q872.6800 684.5200 872.6800 688.5800L872.6800 688.5800Q872.6800 691.6600 874.5700 693.8300Q876.4600 696 879.4000 697.0500Q882.3400 698.1000 885.5600 698.1000ZM986.7800 710L975.1600 710Q973.7600 710 972.7800 709.0200Q971.8000 708.0400 971.8000 706.6400L971.8000 706.6400L971.8000 613.9600Q971.8000 612.5600 972.7800 611.5800Q973.7600 610.6000 975.1600 610.6000L975.1600 610.6000L986.7800 610.6000Q988.1800 610.6000 989.1600 611.5800Q990.1400 612.5600 990.1400 613.9600L990.1400 613.9600L990.1400 706.6400Q990.1400 708.0400 989.1600 709.0200Q988.1800 710 986.7800 710L986.7800 710ZM1023.7400 710L1012.1200 710Q1010.7200 710 1009.7400 709.0200Q1008.7600 708.0400 1008.7600 706.6400L1008.7600 706.6400L1008.7600 640.5600Q1008.7600 639.1600 1009.7400 638.1800Q1010.7200 637.2000 1012.1200 637.2000L1012.1200 637.2000L1023.7400 637.2000Q1025.2800 637.2000 1026.1900 638.1800Q1027.1000 639.1600 1027.1000 640.5600L1027.1000 640.5600L1027.1000 706.6400Q1027.1000 708.0400 1026.1900 709.0200Q1025.2800 710 1023.7400 710L1023.7400 710ZM1024.3000 625.1600L1011.5600 625.1600Q1010.1600 625.1600 1009.1800 624.1800Q1008.2000 623.2000 1008.2000 621.8000L1008.2000 621.8000L1008.2000 611.7200Q1008.2000 610.3200 1009.1800 609.3400Q1010.1600 608.3600 1011.5600 608.3600L1011.5600 608.3600L1024.3000 608.3600Q1025.8400 608.3600 1026.8200 609.3400Q1027.8000 610.3200 1027.8000 611.7200L1027.8000 611.7200L1027.8000 621.8000Q1027.8000 623.2000 1026.8200 624.1800Q1025.8400 625.1600 1024.3000 625.1600L1024.3000 625.1600ZM1061.4000 710L1049.0800 710Q1047.6800 710 1046.7000 709.0200Q1045.7200 708.0400 1045.7200 706.6400L1045.7200 706.6400L1045.7200 640.5600Q1045.7200 639.1600 1046.7000 638.1800Q1047.6800 637.2000 1049.0800 637.2000L1049.0800 637.2000L1060.5600 637.2000Q1061.9600 637.2000 1062.9400 638.1800Q1063.9200 639.1600 1063.9200 640.5600L1063.9200 640.5600L1063.9200 646.3000Q1067.5600 641.8200 1073.2300 638.8100Q1078.9000 635.8000 1087.3000 635.8000L1087.3000 635.8000Q1095.8400 635.8000 1102.1400 639.6500Q1108.4400 643.5000 1111.8700 650.5000Q1115.3000 657.5000 1115.3000 667.3000L1115.3000 667.3000L1115.3000 706.6400Q1115.3000 708.0400 1114.3200 709.0200Q1113.3400 710 1111.9400 710L1111.9400 710L1099.6200 710Q1098.2200 710 1097.2400 709.0200Q1096.2600 708.0400 1096.2600 706.6400L1096.2600 706.6400L1096.2600 668.1400Q1096.2600 660.0200 1092.2700 655.4000Q1088.2800 650.7800 1080.7200 650.7800L1080.7200 650.7800Q1073.4400 650.7800 1069.1000 655.4000Q1064.7600 660.0200 1064.7600 668.1400L1064.7600 668.1400L1064.7600 706.6400Q1064.7600 708.0400 1063.7800 709.0200Q1062.8000 710 1061.4000 710L1061.4000 710ZM1149.0400 710L1136.5800 710Q1135.1800 710 1134.2000 709.0200Q1133.2200 708.0400 1133.2200 706.6400L1133.2200 706.6400L1133.2200 613.9600Q1133.2200 612.5600 1134.2000 611.5800Q1135.1800 610.6000 1136.5800 610.6000L1136.5800 610.6000L1149.0400 610.6000Q1150.5800 610.6000 1151.4900 611.5800Q1152.4000 612.5600 1152.4000 613.9600L1152.4000 613.9600L1152.4000 645.8800Q1156.1800 641.4000 1161.6400 638.6000Q1167.1000 635.8000 1175.0800 635.8000L1175.0800 635.8000Q1183.6200 635.8000 1189.9900 639.6500Q1196.3600 643.5000 1199.8600 650.5000Q1203.3600 657.5000 1203.3600 667.3000L1203.3600 667.3000L1203.3600 706.6400Q1203.3600 708.0400 1202.3800 709.0200Q1201.4000 710 1200.0000 710L1200.0000 710L1187.4000 710Q1186.0000 710 1185.0200 709.0200Q1184.0400 708.0400 1184.0400 706.6400L1184.0400 706.6400L1184.0400 668.1400Q1184.0400 660.0200 1180.0500 655.4000Q1176.0600 650.7800 1168.5000 650.7800L1168.5000 650.7800Q1161.2200 650.7800 1156.8100 655.4000Q1152.4000 660.0200 1152.4000 668.1400L1152.4000 668.1400L1152.4000 706.6400Q1152.4000 708.0400 1151.4900 709.0200Q1150.5800 710 1149.0400 710L1149.0400 710ZM1242.2800 711.4000L1242.2800 711.4000Q1235 711.4000 1229.1200 708.5300Q1223.2400 705.6600 1219.8100 700.8300Q1216.3800 696 1216.3800 689.9800L1216.3800 689.9800Q1216.3800 680.1800 1224.3600 674.3700Q1232.3400 668.5600 1245.2200 666.6000L1245.2200 666.6000L1264.4000 663.8000L1264.4000 660.8600Q1264.4000 654.9800 1261.4600 651.7600Q1258.5200 648.5400 1251.3800 648.5400L1251.3800 648.5400Q1246.3400 648.5400 1243.1900 650.5700Q1240.0400 652.6000 1238.5000 655.9600L1238.5000 655.9600Q1237.3800 657.7800 1235.2800 657.7800L1235.2800 657.7800L1224.2200 657.7800Q1222.6800 657.7800 1221.9100 656.9400Q1221.1400 656.1000 1221.1400 654.7000L1221.1400 654.7000Q1221.2800 652.4600 1223.0300 649.2400Q1224.7800 646.0200 1228.3500 643.0100Q1231.9200 640 1237.6600 637.9000Q1243.4000 635.8000 1251.5200 635.8000L1251.5200 635.8000Q1260.3400 635.8000 1266.4300 637.9700Q1272.5200 640.1400 1276.1600 643.7800Q1279.8000 647.4200 1281.4800 652.3200Q1283.1600 657.2200 1283.1600 662.6800L1283.1600 662.6800L1283.1600 706.6400Q1283.1600 708.0400 1282.1800 709.0200Q1281.2000 710 1279.8000 710L1279.8000 710L1268.4600 710Q1266.9200 710 1266.0100 709.0200Q1265.1000 708.0400 1265.1000 706.6400L1265.1000 706.6400L1265.1000 701.1800Q1263.2800 703.7000 1260.2000 706.0800Q1257.1200 708.4600 1252.7100 709.9300Q1248.3000 711.4000 1242.2800 711.4000ZM1247.0400 698.1000L1247.0400 698.1000Q1251.9400 698.1000 1255.9300 696Q1259.9200 693.9000 1262.2300 689.4900Q1264.5400 685.0800 1264.5400 678.3600L1264.5400 678.3600L1264.5400 675.4200L1250.5400 677.6600Q1242.2800 678.9200 1238.2200 681.7200Q1234.1600 684.5200 1234.1600 688.5800L1234.1600 688.5800Q1234.1600 691.6600 1236.0500 693.8300Q1237.9400 696 1240.8800 697.0500Q1243.8200 698.1000 1247.0400 698.1000ZM186.2600 851.4000L186.2600 851.4000Q178.9800 851.4000 173.4500 848.9500Q167.9200 846.5000 164.2800 842.0200Q160.6400 837.5400 158.6800 831.4500Q156.7200 825.3600 156.4400 818.0800L156.4400 818.0800Q156.3000 815.5600 156.3000 813.5300Q156.3000 811.5000 156.4400 808.9800L156.4400 808.9800Q156.7200 801.9800 158.6100 795.9600Q160.5000 789.9400 164.2100 785.3900Q167.9200 780.8400 173.4500 778.3200Q178.9800 775.8000 186.2600 775.8000L186.2600 775.8000Q193.8200 775.8000 199.0700 778.3900Q204.3200 780.9800 207.8200 785.0400L207.8200 785.0400L207.8200 753.9600Q207.8200 752.5600 208.7300 751.5800Q209.6400 750.6000 211.1800 750.6000L211.1800 750.6000L223.0800 750.6000Q224.4800 750.6000 225.4600 751.5800Q226.4400 752.5600 226.4400 753.9600L226.4400 753.9600L226.4400 846.6400Q226.4400 848.0400 225.4600 849.0200Q224.4800 850 223.0800 850L223.0800 850L212.0200 850Q210.4800 850 209.5700 849.0200Q208.6600 848.0400 208.6600 846.6400L208.6600 846.6400L208.6600 841.4600Q205.1600 845.8000 199.7700 848.6000Q194.3800 851.4000 186.2600 851.4000ZM191.4400 836.4200L191.4400 836.4200Q197.3200 836.4200 200.8200 833.7600Q204.3200 831.1000 206 826.9700Q207.6800 822.8400 207.8200 818.5000L207.8200 818.5000Q207.9600 815.9800 207.9600 813.1100Q207.9600 810.2400 207.8200 807.7200L207.8200 807.7200Q207.6800 803.5200 205.8600 799.6700Q204.0400 795.8200 200.5400 793.3000Q197.0400 790.7800 191.4400 790.7800L191.4400 790.7800Q185.5600 790.7800 182.1300 793.3700Q178.7000 795.9600 177.1600 800.1600Q175.6200 804.3600 175.3400 809.4000L175.3400 809.4000Q175.2000 813.6000 175.3400 817.8000L175.3400 817.8000Q175.6200 822.8400 177.1600 827.0400Q178.7000 831.2400 182.1300 833.8300Q185.5600 836.4200 191.4400 836.4200ZM276.4200 851.4000L276.4200 851.4000Q260.8800 851.4000 251.7800 842.4400Q242.6800 833.4800 241.9800 816.9600L241.9800 816.9600Q241.8400 815.5600 241.8400 813.3900Q241.8400 811.2200 241.9800 809.9600L241.9800 809.9600Q242.5400 799.3200 246.8100 791.6900Q251.0800 784.0600 258.6400 779.9300Q266.2000 775.8000 276.4200 775.8000L276.4200 775.8000Q287.7600 775.8000 295.4600 780.4900Q303.1600 785.1800 307.0800 793.5100Q311 801.8400 311 812.7600L311 812.7600L311 815.7000Q311 817.1000 310.0200 818.0800Q309.0400 819.0600 307.5000 819.0600L307.5000 819.0600L261.0200 819.0600Q261.0200 819.0600 261.0200 819.4800Q261.0200 819.9000 261.0200 820.1800L261.0200 820.1800Q261.1600 825.0800 262.9100 829.2100Q264.6600 833.3400 268.0900 835.8600Q271.5200 838.3800 276.2800 838.3800L276.2800 838.3800Q280.2000 838.3800 282.8600 837.1900Q285.5200 836 287.2000 834.4600Q288.8800 832.9200 289.5800 831.9400L289.5800 831.9400Q290.8400 830.2600 291.6100 829.9100Q292.3800 829.5600 293.9200 829.5600L293.9200 829.5600L305.9600 829.5600Q307.3600 829.5600 308.2700 830.4000Q309.1800 831.2400 309.0400 832.5000L309.0400 832.5000Q308.9000 834.7400 306.7300 837.9600Q304.5600 841.1800 300.5000 844.2600Q296.4400 847.3400 290.3500 849.3700Q284.2600 851.4000 276.4200 851.4000ZM261.0200 806.8800L261.0200 807.3000L291.9600 807.3000L291.9600 806.8800Q291.9600 801.4200 290.1400 797.2900Q288.3200 793.1600 284.8200 790.8500Q281.3200 788.5400 276.4200 788.5400L276.4200 788.5400Q271.5200 788.5400 268.0200 790.8500Q264.5200 793.1600 262.7700 797.2900Q261.0200 801.4200 261.0200 806.8800L261.0200 806.8800ZM389.4000 851.4000L389.4000 851.4000Q379.3200 851.4000 371.6900 847.6200Q364.0600 843.8400 359.7900 836.6300Q355.5200 829.4200 355.1000 819.2000L355.1000 819.2000Q354.9600 817.1000 354.9600 813.6700Q354.9600 810.2400 355.1000 808L355.1000 808Q355.5200 797.7800 359.7900 790.5700Q364.0600 783.3600 371.6900 779.5800Q379.3200 775.8000 389.4000 775.8000L389.4000 775.8000Q398.3600 775.8000 404.6600 778.2500Q410.9600 780.7000 415.0200 784.5500Q419.0800 788.4000 421.1100 792.5300Q423.1400 796.6600 423.2800 800.0200L423.2800 800.0200Q423.4200 801.5600 422.3700 802.4700Q421.3200 803.3800 419.9200 803.3800L419.9200 803.3800L407.6000 803.3800Q406.2000 803.3800 405.4300 802.6800Q404.6600 801.9800 403.9600 800.5800L403.9600 800.5800Q401.8600 794.9800 398.4300 792.6700Q395 790.3600 389.6800 790.3600L389.6800 790.3600Q382.6800 790.3600 378.5500 794.7700Q374.4200 799.1800 374.1400 808.7000L374.1400 808.7000Q373.8600 814.0200 374.1400 818.5000L374.1400 818.5000Q374.4200 828.1600 378.5500 832.5000Q382.6800 836.8400 389.6800 836.8400L389.6800 836.8400Q395.1400 836.8400 398.5000 834.5300Q401.8600 832.2200 403.9600 826.6200L403.9600 826.6200Q404.6600 825.2200 405.4300 824.5200Q406.2000 823.8200 407.6000 823.8200L407.6000 823.8200L419.9200 823.8200Q421.3200 823.8200 422.3700 824.7300Q423.4200 825.6400 423.2800 827.1800L423.2800 827.1800Q423.1400 829.7000 421.9500 832.8500Q420.7600 836 418.1700 839.2900Q415.5800 842.5800 411.6600 845.3100Q407.7400 848.0400 402.2100 849.7200Q396.6800 851.4000 389.4000 851.4000ZM470.0400 851.4000L470.0400 851.4000Q458.8400 851.4000 451.2100 847.4800Q443.5800 843.5600 439.5900 836.4200Q435.6000 829.2800 435.0400 819.7600L435.0400 819.7600Q434.9000 817.2400 434.9000 813.6000Q434.9000 809.9600 435.0400 807.4400L435.0400 807.4400Q435.6000 797.7800 439.7300 790.7100Q443.8600 783.6400 451.4900 779.7200Q459.1200 775.8000 470.0400 775.8000L470.0400 775.8000Q480.9600 775.8000 488.5900 779.7200Q496.2200 783.6400 500.3500 790.7100Q504.4800 797.7800 505.0400 807.4400L505.0400 807.4400Q505.1800 809.9600 505.1800 813.6000Q505.1800 817.2400 505.0400 819.7600L505.0400 819.7600Q504.4800 829.2800 500.4900 836.4200Q496.5000 843.5600 488.8700 847.4800Q481.2400 851.4000 470.0400 851.4000ZM470.0400 837.5400L470.0400 837.5400Q477.4600 837.5400 481.5200 832.8500Q485.5800 828.1600 486 819.0600L486 819.0600Q486.1400 816.9600 486.1400 813.6000Q486.1400 810.2400 486 808.1400L486 808.1400Q485.5800 799.0400 481.5200 794.3500Q477.4600 789.6600 470.0400 789.6600L470.0400 789.6600Q462.6200 789.6600 458.5600 794.3500Q454.5000 799.0400 454.0800 808.1400L454.0800 808.1400Q453.9400 810.2400 453.9400 813.6000Q453.9400 816.9600 454.0800 819.0600L454.0800 819.0600Q454.5000 828.1600 458.5600 832.8500Q462.6200 837.5400 470.0400 837.5400ZM535.8400 850L524.0800 850Q522.6800 850 521.7000 849.0200Q520.7200 848.0400 520.7200 846.6400L520.7200 846.6400L520.7200 780.5600Q520.7200 779.1600 521.7000 778.1800Q522.6800 777.2000 524.0800 777.2000L524.0800 777.2000L535 777.2000Q536.4000 777.2000 537.3800 778.1800Q538.3600 779.1600 538.3600 780.5600L538.3600 780.5600L538.3600 785.3200Q541.3000 781.4000 546.2700 778.6700Q551.2400 775.9400 558.1000 775.8000L558.1000 775.8000Q574.0600 775.5200 580.3600 788.2600L580.3600 788.2600Q583.5800 782.6600 589.6700 779.2300Q595.7600 775.8000 603.1800 775.8000L603.1800 775.8000Q610.4600 775.8000 616.4100 779.1600Q622.3600 782.5200 625.7900 789.3100Q629.2200 796.1000 629.2200 806.4600L629.2200 806.4600L629.2200 846.6400Q629.2200 848.0400 628.2400 849.0200Q627.2600 850 625.8600 850L625.8600 850L614.3800 850Q612.9800 850 612 849.0200Q611.0200 848.0400 611.0200 846.6400L611.0200 846.6400L611.0200 807.5800Q611.0200 801.2800 609.2000 797.5700Q607.3800 793.8600 604.3000 792.3200Q601.2200 790.7800 597.4400 790.7800L597.4400 790.7800Q594.3600 790.7800 591.2800 792.3200Q588.2000 793.8600 586.2400 797.5700Q584.2800 801.2800 584.2800 807.5800L584.2800 807.5800L584.2800 846.6400Q584.2800 848.0400 583.3000 849.0200Q582.3200 850 580.9200 850L580.9200 850L569.4400 850Q568.0400 850 567.0600 849.0200Q566.0800 848.0400 566.0800 846.6400L566.0800 846.6400L566.0800 807.5800Q566.0800 801.2800 564.1200 797.5700Q562.1600 793.8600 559.0800 792.3200Q556 790.7800 552.5000 790.7800L552.5000 790.7800Q549.2800 790.7800 546.2000 792.3900Q543.1200 794 541.1600 797.6400Q539.2000 801.2800 539.2000 807.5800L539.2000 807.5800L539.2000 846.6400Q539.2000 848.0400 538.2200 849.0200Q537.2400 850 535.8400 850L535.8400 850ZM668.1400 851.4000L668.1400 851.4000Q660.8600 851.4000 654.9800 848.5300Q649.1000 845.6600 645.6700 840.8300Q642.2400 836 642.2400 829.9800L642.2400 829.9800Q642.2400 820.1800 650.2200 814.3700Q658.2000 808.5600 671.0800 806.6000L671.0800 806.6000L690.2600 803.8000L690.2600 800.8600Q690.2600 794.9800 687.3200 791.7600Q684.3800 788.5400 677.2400 788.5400L677.2400 788.5400Q672.2000 788.5400 669.0500 790.5700Q665.9000 792.6000 664.3600 795.9600L664.3600 795.9600Q663.2400 797.7800 661.1400 797.7800L661.1400 797.7800L650.0800 797.7800Q648.5400 797.7800 647.7700 796.9400Q647 796.1000 647 794.7000L647 794.7000Q647.1400 792.4600 648.8900 789.2400Q650.6400 786.0200 654.2100 783.0100Q657.7800 780 663.5200 777.9000Q669.2600 775.8000 677.3800 775.8000L677.3800 775.8000Q686.2000 775.8000 692.2900 777.9700Q698.3800 780.1400 702.0200 783.7800Q705.6600 787.4200 707.3400 792.3200Q709.0200 797.2200 709.0200 802.6800L709.0200 802.6800L709.0200 846.6400Q709.0200 848.0400 708.0400 849.0200Q707.0600 850 705.6600 850L705.6600 850L694.3200 850Q692.7800 850 691.8700 849.0200Q690.9600 848.0400 690.9600 846.6400L690.9600 846.6400L690.9600 841.1800Q689.1400 843.7000 686.0600 846.0800Q682.9800 848.4600 678.5700 849.9300Q674.1600 851.4000 668.1400 851.4000ZM672.9000 838.1000L672.9000 838.1000Q677.8000 838.1000 681.7900 836Q685.7800 833.9000 688.0900 829.4900Q690.4000 825.0800 690.4000 818.3600L690.4000 818.3600L690.4000 815.4200L676.4000 817.6600Q668.1400 818.9200 664.0800 821.7200Q660.0200 824.5200 660.0200 828.5800L660.0200 828.5800Q660.0200 831.6600 661.9100 833.8300Q663.8000 836 666.7400 837.0500Q669.6800 838.1000 672.9000 838.1000ZM742.6200 850L730.3000 850Q728.9000 850 727.9200 849.0200Q726.9400 848.0400 726.9400 846.6400L726.9400 846.6400L726.9400 780.5600Q726.9400 779.1600 727.9200 778.1800Q728.9000 777.2000 730.3000 777.2000L730.3000 777.2000L741.7800 777.2000Q743.1800 777.2000 744.1600 778.1800Q745.1400 779.1600 745.1400 780.5600L745.1400 780.5600L745.1400 786.3000Q748.7800 781.8200 754.4500 778.8100Q760.1200 775.8000 768.5200 775.8000L768.5200 775.8000Q777.0600 775.8000 783.3600 779.6500Q789.6600 783.5000 793.0900 790.5000Q796.5200 797.5000 796.5200 807.3000L796.5200 807.3000L796.5200 846.6400Q796.5200 848.0400 795.5400 849.0200Q794.5600 850 793.1600 850L793.1600 850L780.8400 850Q779.4400 850 778.4600 849.0200Q777.4800 848.0400 777.4800 846.6400L777.4800 846.6400L777.4800 808.1400Q777.4800 800.0200 773.4900 795.4000Q769.5000 790.7800 761.9400 790.7800L761.9400 790.7800Q754.6600 790.7800 750.3200 795.4000Q745.9800 800.0200 745.9800 808.1400L745.9800 808.1400L745.9800 846.6400Q745.9800 848.0400 745 849.0200Q744.0200 850 742.6200 850L742.6200 850ZM841.3200 851.4000L841.3200 851.4000Q834.0400 851.4000 828.5100 848.9500Q822.9800 846.5000 819.3400 842.0200Q815.7000 837.5400 813.7400 831.4500Q811.7800 825.3600 811.5000 818.0800L811.5000 818.0800Q811.3600 815.5600 811.3600 813.5300Q811.3600 811.5000 811.5000 808.9800L811.5000 808.9800Q811.7800 801.9800 813.6700 795.9600Q815.5600 789.9400 819.2700 785.3900Q822.9800 780.8400 828.5100 778.3200Q834.0400 775.8000 841.3200 775.8000L841.3200 775.8000Q848.8800 775.8000 854.1300 778.3900Q859.3800 780.9800 862.8800 785.0400L862.8800 785.0400L862.8800 753.9600Q862.8800 752.5600 863.7900 751.5800Q864.7000 750.6000 866.2400 750.6000L866.2400 750.6000L878.1400 750.6000Q879.5400 750.6000 880.5200 751.5800Q881.5000 752.5600 881.5000 753.9600L881.5000 753.9600L881.5000 846.6400Q881.5000 848.0400 880.5200 849.0200Q879.5400 850 878.1400 850L878.1400 850L867.0800 850Q865.5400 850 864.6300 849.0200Q863.7200 848.0400 863.7200 846.6400L863.7200 846.6400L863.7200 841.4600Q860.2200 845.8000 854.8300 848.6000Q849.4400 851.4000 841.3200 851.4000ZM846.5000 836.4200L846.5000 836.4200Q852.3800 836.4200 855.8800 833.7600Q859.3800 831.1000 861.0600 826.9700Q862.7400 822.8400 862.8800 818.5000L862.8800 818.5000Q863.0200 815.9800 863.0200 813.1100Q863.0200 810.2400 862.8800 807.7200L862.8800 807.7200Q862.7400 803.5200 860.9200 799.6700Q859.1000 795.8200 855.6000 793.3000Q852.1000 790.7800 846.5000 790.7800L846.5000 790.7800Q840.6200 790.7800 837.1900 793.3700Q833.7600 795.9600 832.2200 800.1600Q830.6800 804.3600 830.4000 809.4000L830.4000 809.4000Q830.2600 813.6000 830.4000 817.8000L830.4000 817.8000Q830.6800 822.8400 832.2200 827.0400Q833.7600 831.2400 837.1900 833.8300Q840.6200 836.4200 846.5000 836.4200ZM932.3200 851.4000L932.3200 851.4000Q921.1200 851.4000 913.4900 847.4800Q905.8600 843.5600 901.8700 836.4200Q897.8800 829.2800 897.3200 819.7600L897.3200 819.7600Q897.1800 817.2400 897.1800 813.6000Q897.1800 809.9600 897.3200 807.4400L897.3200 807.4400Q897.8800 797.7800 902.0100 790.7100Q906.1400 783.6400 913.7700 779.7200Q921.4000 775.8000 932.3200 775.8000L932.3200 775.8000Q943.2400 775.8000 950.8700 779.7200Q958.5000 783.6400 962.6300 790.7100Q966.7600 797.7800 967.3200 807.4400L967.3200 807.4400Q967.4600 809.9600 967.4600 813.6000Q967.4600 817.2400 967.3200 819.7600L967.3200 819.7600Q966.7600 829.2800 962.7700 836.4200Q958.7800 843.5600 951.1500 847.4800Q943.5200 851.4000 932.3200 851.4000ZM932.3200 837.5400L932.3200 837.5400Q939.7400 837.5400 943.8000 832.8500Q947.8600 828.1600 948.2800 819.0600L948.2800 819.0600Q948.4200 816.9600 948.4200 813.6000Q948.4200 810.2400 948.2800 808.1400L948.2800 808.1400Q947.8600 799.0400 943.8000 794.3500Q939.7400 789.6600 932.3200 789.6600L932.3200 789.6600Q924.9000 789.6600 920.8400 794.3500Q916.7800 799.0400 916.3600 808.1400L916.3600 808.1400Q916.2200 810.2400 916.2200 813.6000Q916.2200 816.9600 916.3600 819.0600L916.3600 819.0600Q916.7800 828.1600 920.8400 832.8500Q924.9000 837.5400 932.3200 837.5400Z" id="title"/></g></svg>