<svg xmlns="http://www.w3.org/2000/svg" version="1.1" xmlns:xlink="http://www.w3.org/1999/xlink" xmlns:svgjs="http://svgjs.dev/svgjs" viewBox="0 0 1920 1080" id="43c2188c-2ee6-4d83-8b9c-71c2d59e191b"><g><rect width="1920" height="1080" fill="#9d9c62"/></g><g fill="#e06b49"><path d="M969.5 217C561.465 217 231 547.465 231 955.5C231 1363.53 561.465 1694 969.5 1694C1377.53 1694 1708 1363.53 1708 955.5C1708 547.465 1377.53 217 969.5 217ZM969.5 1309.34C773.983 1309.34 615.658 1151.02 615.658 955.5C615.658 759.983 773.983 601.658 969.5 601.658C1165.02 601.658 1323.34 759.983 1323.34 955.5C1323.34 1151.02 1165.02 1309.34 969.5 1309.34Z"/></g><g fill="#ffffff" opacity="0.2"><path d="M1432 918.479L1616.48 734V918.479H1432Z"/><path d="M1616.48 918.479L1800.52 734V918.479H1616.48Z"/><path d="M1800.52 918.479L1985 734V918.479H1800.52Z"/><path d="M1432 1102.52L1616.48 918.479V1102.52H1432Z"/><path d="M1616.48 1102.52L1800.52 918.479V1102.52H1616.48Z"/><path d="M1800.52 1102.52L1985 918.479V1102.52H1800.52Z"/><path d="M499 154.521L683.479 -29.5215V154.521H499Z"/><path d="M683.479 154.521L867.521 -29.5215V154.521H683.479Z"/><path d="M867.521 154.521L1052 -29.5215V154.521H867.521Z"/><path d="M499 339L683.479 154.521V339H499Z"/><path d="M683.479 339L867.521 154.521V339H683.479Z"/><path d="M867.521 339L1052 154.521V339H867.521Z"/></g><g><path d="M178.635 139.281L184.422 144.246V166.626H215.704L219.958 172.147L215.69 177.397H184.422V198.795L178.635 203.747L173 198.795V144.232L178.635 139.281ZM195.554 195.68H219.406L223.397 200.915L219.143 206.45H195.554L191.7 201.342L195.554 195.68ZM196.382 138H219.129L223.383 143.52L219.129 148.77H196.659L192.115 143.677L196.382 138ZM323.155 148.628L328.251 154.291L323.155 159.968H246.13L241.172 154.291L246.13 148.628H323.155ZM237.043 172.147L241.849 167.893L246.669 172.147V178.393C246.669 188.879 249.417 197.515 261.668 197.515H264.14C275.147 197.515 281.197 189.86 281.197 177.952V172.005L285.879 167.75L290.699 171.862V178.379C290.699 189.007 293.723 196.946 305.56 196.946H307.618C319.178 196.946 321.235 187.869 321.373 177.952V171.578L326.056 167.608L331 171.72V178.094C330.862 191.838 327.285 207.574 308.032 207.574H305.974C294.552 207.574 288.365 202.324 285.892 195.808C283.006 202.466 275.299 208.286 264.844 208.286H262.358C242.553 208.286 237.194 195.964 237.056 178.663V172.147H237.043ZM276.391 274.744L273.642 267.089L280.796 264.969L305.974 276.721V252.491L311.07 248.095L316.291 252.491V281.829L325.641 286.226L328.251 293.311L320.959 296L276.391 274.744ZM321.235 223.011L328.113 226.27L325.917 233.497L264.002 263.119L256.571 260.146L259.596 252.776L321.235 223.011ZM231.905 263.404L237.954 268.512C237.402 286.51 222.403 296 204.669 296H202.874C194.062 296 183.759 292.6 177.157 286.083L177.834 278.855L184.298 278.002C189.118 282.256 195.858 285.229 202.183 285.229H204.117C216.091 285.229 225.303 280.136 226.27 268.085L231.905 263.404ZM226.256 251.638C225.704 239.16 216.629 234.209 204.103 234.209H202.169C194.739 234.209 189.104 237.182 184.284 241.436L177.834 240.583L177.143 233.355C183.745 226.696 192.957 223.58 202.597 223.58H204.517C222.403 223.58 237.402 232.942 237.94 251.211L231.891 256.176L226.256 251.638Z" fill="#ffffff"/></g><g fill="#ffffff" id="info-group"><path d="M167.0800 570L154.9000 570Q153.7800 570 152.8700 569.1600Q151.9600 568.3200 151.9600 567.0600L151.9600 567.0600Q151.9600 566.5000 152.2400 565.8000L152.2400 565.8000L185.9800 475.5000Q186.4000 474.1000 187.5900 473.0500Q188.7800 472 190.8800 472L190.8800 472L206.1400 472Q208.2400 472 209.3600 473.0500Q210.4800 474.1000 211.0400 475.5000L211.0400 475.5000L244.7800 565.8000Q244.9200 566.5000 244.9200 567.0600L244.9200 567.0600Q244.9200 568.3200 244.0800 569.1600Q243.2400 570 242.1200 570L242.1200 570L229.9400 570Q227.9800 570 227.0700 569.0900Q226.1600 568.1800 225.8800 567.3400L225.8800 567.3400L219.3000 550.2600L177.7200 550.2600L171.1400 567.3400Q170.8600 568.1800 169.9500 569.0900Q169.0400 570 167.0800 570L167.0800 570ZM198.4400 490.9000L182.6200 534.1600L214.4000 534.1600L198.4400 490.9000ZM283.2800 571.4000L283.2800 571.4000Q274.7400 571.4000 268.5100 567.5500Q262.2800 563.7000 258.9200 556.6300Q255.5600 549.5600 255.5600 539.9000L255.5600 539.9000L255.5600 500.5600Q255.5600 499.1600 256.5400 498.1800Q257.5200 497.2000 258.9200 497.2000L258.9200 497.2000L271.2400 497.2000Q272.7800 497.2000 273.6900 498.1800Q274.6000 499.1600 274.6000 500.5600L274.6000 500.5600L274.6000 539.0600Q274.6000 556.4200 289.8600 556.4200L289.8600 556.4200Q297.1400 556.4200 301.4100 551.8000Q305.6800 547.1800 305.6800 539.0600L305.6800 539.0600L305.6800 500.5600Q305.6800 499.1600 306.6600 498.1800Q307.6400 497.2000 309.0400 497.2000L309.0400 497.2000L321.3600 497.2000Q322.7600 497.2000 323.7400 498.1800Q324.7200 499.1600 324.7200 500.5600L324.7200 500.5600L324.7200 566.6400Q324.7200 568.0400 323.7400 569.0200Q322.7600 570 321.3600 570L321.3600 570L310.0200 570Q308.4800 570 307.5700 569.0200Q306.6600 568.0400 306.6600 566.6400L306.6600 566.6400L306.6600 560.9000Q302.8800 565.8000 297.2800 568.6000Q291.6800 571.4000 283.2800 571.4000ZM358.3200 570L346.7000 570Q345.3000 570 344.3200 569.0200Q343.3400 568.0400 343.3400 566.6400L343.3400 566.6400L343.3400 473.9600Q343.3400 472.5600 344.3200 471.5800Q345.3000 470.6000 346.7000 470.6000L346.7000 470.6000L358.3200 470.6000Q359.7200 470.6000 360.7000 471.5800Q361.6800 472.5600 361.6800 473.9600L361.6800 473.9600L361.6800 566.6400Q361.6800 568.0400 360.7000 569.0200Q359.7200 570 358.3200 570L358.3200 570ZM401.4400 571.4000L401.4400 571.4000Q394.1600 571.4000 388.2800 568.5300Q382.4000 565.6600 378.9700 560.8300Q375.5400 556 375.5400 549.9800L375.5400 549.9800Q375.5400 540.1800 383.5200 534.3700Q391.5000 528.5600 404.3800 526.6000L404.3800 526.6000L423.5600 523.8000L423.5600 520.8600Q423.5600 514.9800 420.6200 511.7600Q417.6800 508.5400 410.5400 508.5400L410.5400 508.5400Q405.5000 508.5400 402.3500 510.5700Q399.2000 512.6000 397.6600 515.9600L397.6600 515.9600Q396.5400 517.7800 394.4400 517.7800L394.4400 517.7800L383.3800 517.7800Q381.8400 517.7800 381.0700 516.9400Q380.3000 516.1000 380.3000 514.7000L380.3000 514.7000Q380.4400 512.4600 382.1900 509.2400Q383.9400 506.0200 387.5100 503.0100Q391.0800 500 396.8200 497.9000Q402.5600 495.8000 410.6800 495.8000L410.6800 495.8000Q419.5000 495.8000 425.5900 497.9700Q431.6800 500.1400 435.3200 503.7800Q438.9600 507.4200 440.6400 512.3200Q442.3200 517.2200 442.3200 522.6800L442.3200 522.6800L442.3200 566.6400Q442.3200 568.0400 441.3400 569.0200Q440.3600 570 438.9600 570L438.9600 570L427.6200 570Q426.0800 570 425.1700 569.0200Q424.2600 568.0400 424.2600 566.6400L424.2600 566.6400L424.2600 561.1800Q422.4400 563.7000 419.3600 566.0800Q416.2800 568.4600 411.8700 569.9300Q407.4600 571.4000 401.4400 571.4000ZM406.2000 558.1000L406.2000 558.1000Q411.1000 558.1000 415.0900 556Q419.0800 553.9000 421.3900 549.4900Q423.7000 545.0800 423.7000 538.3600L423.7000 538.3600L423.7000 535.4200L409.7000 537.6600Q401.4400 538.9200 397.3800 541.7200Q393.3200 544.5200 393.3200 548.5800L393.3200 548.5800Q393.3200 551.6600 395.2100 553.8300Q397.1000 556 400.0400 557.0500Q402.9800 558.1000 406.2000 558.1000ZM525.9000 571.5400L525.9000 571.5400Q513.8600 571.5400 505.6000 567.5500Q497.3400 563.5600 493.0700 557.1200Q488.8000 550.6800 488.5200 543.4000L488.5200 543.4000Q488.3800 542.1400 489.2900 541.3700Q490.2000 540.6000 491.4600 540.6000L491.4600 540.6000L504.4800 540.6000Q506.0200 540.6000 507.0700 541.2300Q508.1200 541.8600 508.6800 543.4000L508.6800 543.4000Q510.0800 547.6000 512.6700 550.2600Q515.2600 552.9200 518.6900 554.1800Q522.1200 555.4400 525.9000 555.4400L525.9000 555.4400Q530.9400 555.4400 535.0700 553.4100Q539.2000 551.3800 541.7200 547.3200Q544.2400 543.2600 544.2400 537.3800L544.2400 537.3800Q544.2400 532.2000 541.8600 528.4200Q539.4800 524.6400 535.3500 522.4700Q531.2200 520.3000 525.9000 520.3000L525.9000 520.3000Q521.9800 520.3000 519.4600 521.2800Q516.9400 522.2600 515.1900 523.5200Q513.4400 524.7800 512.1100 525.7600Q510.7800 526.7400 509.1000 526.7400L509.1000 526.7400L496.2200 526.7400Q494.9600 526.7400 494.0500 525.8300Q493.1400 524.9200 493.1400 523.6600L493.1400 523.6600L498.0400 475.7800Q498.1800 473.9600 499.3000 472.9800Q500.4200 472 501.9600 472L501.9600 472L554.6000 472Q556.0000 472 556.9800 472.9800Q557.9600 473.9600 557.9600 475.3600L557.9600 475.3600L557.9600 484.7400Q557.9600 486.1400 556.9800 487.1200Q556.0000 488.1000 554.6000 488.1000L554.6000 488.1000L514.1400 488.1000L511.9000 510.9200Q514.4200 509.2400 518.6200 507.7000Q522.8200 506.1600 530.2400 506.1600L530.2400 506.1600Q536.9600 506.1600 543.0500 508.3300Q549.1400 510.5000 553.9000 514.6300Q558.6600 518.7600 561.3900 524.5700Q564.1200 530.3800 564.1200 537.8000L564.1200 537.8000Q564.1200 548.0200 559.3600 555.5800Q554.6000 563.1400 546.0600 567.3400Q537.5200 571.5400 525.9000 571.5400ZM595.9000 521L582.0400 521Q580.6400 521 579.6600 520.0200Q578.6800 519.0400 578.6800 517.6400L578.6800 517.6400L578.6800 504.3400Q578.6800 502.8000 579.6600 501.8200Q580.6400 500.8400 582.0400 500.8400L582.0400 500.8400L595.9000 500.8400Q597.4400 500.8400 598.4200 501.8200Q599.4000 502.8000 599.4000 504.3400L599.4000 504.3400L599.4000 517.6400Q599.4000 519.0400 598.4200 520.0200Q597.4400 521 595.9000 521L595.9000 521ZM595.9000 570L582.0400 570Q580.6400 570 579.6600 569.0200Q578.6800 568.0400 578.6800 566.6400L578.6800 566.6400L578.6800 553.3400Q578.6800 551.8000 579.6600 550.8200Q580.6400 549.8400 582.0400 549.8400L582.0400 549.8400L595.9000 549.8400Q597.4400 549.8400 598.4200 550.8200Q599.4000 551.8000 599.4000 553.3400L599.4000 553.3400L599.4000 566.6400Q599.4000 568.0400 598.4200 569.0200Q597.4400 570 595.9000 570L595.9000 570ZM666.8800 570L654.5600 570Q653.1600 570 652.1800 569.0200Q651.2000 568.0400 651.2000 566.6400L651.2000 566.6400L651.2000 475.5000Q651.2000 473.9600 652.1800 472.9800Q653.1600 472 654.5600 472L654.5600 472L715.3200 472Q716.8600 472 717.8400 472.9800Q718.8200 473.9600 718.8200 475.5000L718.8200 475.5000L718.8200 485.3000Q718.8200 486.8400 717.8400 487.7500Q716.8600 488.6600 715.3200 488.6600L715.3200 488.6600L670.3800 488.6600L670.3800 515.2600L712.5200 515.2600Q714.0600 515.2600 715.0400 516.2400Q716.0200 517.2200 716.0200 518.7600L716.0200 518.7600L716.0200 528.5600Q716.0200 529.9600 715.0400 530.9400Q714.0600 531.9200 712.5200 531.9200L712.5200 531.9200L670.3800 531.9200L670.3800 566.6400Q670.3800 568.0400 669.4000 569.0200Q668.4200 570 666.8800 570L666.8800 570ZM748.6400 570L737.0200 570Q735.6200 570 734.6400 569.0200Q733.6600 568.0400 733.6600 566.6400L733.6600 566.6400L733.6600 500.5600Q733.6600 499.1600 734.6400 498.1800Q735.6200 497.2000 737.0200 497.2000L737.0200 497.2000L748.6400 497.2000Q750.1800 497.2000 751.0900 498.1800Q752.0000 499.1600 752.0000 500.5600L752.0000 500.5600L752.0000 566.6400Q752.0000 568.0400 751.0900 569.0200Q750.1800 570 748.6400 570L748.6400 570ZM749.2000 485.1600L736.4600 485.1600Q735.0600 485.1600 734.0800 484.1800Q733.1000 483.2000 733.1000 481.8000L733.1000 481.8000L733.1000 471.7200Q733.1000 470.3200 734.0800 469.3400Q735.0600 468.3600 736.4600 468.3600L736.4600 468.3600L749.2000 468.3600Q750.7400 468.3600 751.7200 469.3400Q752.7000 470.3200 752.7000 471.7200L752.7000 471.7200L752.7000 481.8000Q752.7000 483.2000 751.7200 484.1800Q750.7400 485.1600 749.2000 485.1600L749.2000 485.1600ZM785.7400 570L774.1200 570Q772.7200 570 771.7400 569.0200Q770.7600 568.0400 770.7600 566.6400L770.7600 566.6400L770.7600 473.9600Q770.7600 472.5600 771.7400 471.5800Q772.7200 470.6000 774.1200 470.6000L774.1200 470.6000L785.7400 470.6000Q787.1400 470.6000 788.1200 471.5800Q789.1000 472.5600 789.1000 473.9600L789.1000 473.9600L789.1000 566.6400Q789.1000 568.0400 788.1200 569.0200Q787.1400 570 785.7400 570L785.7400 570ZM851.9600 570L840.6200 570Q832.2200 570 826.4800 567.0600Q820.7400 564.1200 817.9400 558.3100Q815.1400 552.5000 815.1400 543.8200L815.1400 543.8200L815.1400 512.0400L804.0800 512.0400Q802.6800 512.0400 801.7000 511.0600Q800.7200 510.0800 800.7200 508.5400L800.7200 508.5400L800.7200 500.5600Q800.7200 499.1600 801.7000 498.1800Q802.6800 497.2000 804.0800 497.2000L804.0800 497.2000L815.1400 497.2000L815.1400 473.9600Q815.1400 472.5600 816.0500 471.5800Q816.9600 470.6000 818.5000 470.6000L818.5000 470.6000L829.8400 470.6000Q831.2400 470.6000 832.2200 471.5800Q833.2000 472.5600 833.2000 473.9600L833.2000 473.9600L833.2000 497.2000L850.7000 497.2000Q852.1000 497.2000 853.0800 498.1800Q854.0600 499.1600 854.0600 500.5600L854.0600 500.5600L854.0600 508.5400Q854.0600 510.0800 853.0800 511.0600Q852.1000 512.0400 850.7000 512.0400L850.7000 512.0400L833.2000 512.0400L833.2000 542.4200Q833.2000 548.1600 835.2300 551.3800Q837.2600 554.6000 842.3000 554.6000L842.3000 554.6000L851.9600 554.6000Q853.3600 554.6000 854.3400 555.5800Q855.3200 556.5600 855.3200 557.9600L855.3200 557.9600L855.3200 566.6400Q855.3200 568.0400 854.3400 569.0200Q853.3600 570 851.9600 570L851.9600 570ZM883.3200 570L871.1400 570Q869.7400 570 868.7600 569.0200Q867.7800 568.0400 867.7800 566.6400L867.7800 566.6400L867.7800 500.7000Q867.7800 499.1600 868.7600 498.1800Q869.7400 497.2000 871.1400 497.2000L871.1400 497.2000L882.4800 497.2000Q883.8800 497.2000 884.9300 498.1800Q885.9800 499.1600 885.9800 500.7000L885.9800 500.7000L885.9800 506.4400Q889.2000 501.9600 894.3100 499.5800Q899.4200 497.2000 906.1400 497.2000L906.1400 497.2000L911.8800 497.2000Q913.4200 497.2000 914.3300 498.1800Q915.2400 499.1600 915.2400 500.5600L915.2400 500.5600L915.2400 510.6400Q915.2400 512.0400 914.3300 513.0200Q913.4200 514 911.8800 514L911.8800 514L900.9600 514Q894.2400 514 890.5300 517.7100Q886.8200 521.4200 886.8200 528.1400L886.8200 528.1400L886.8200 566.6400Q886.8200 568.0400 885.8400 569.0200Q884.8600 570 883.3200 570L883.3200 570ZM947.3000 571.4000L947.3000 571.4000Q940.0200 571.4000 934.1400 568.5300Q928.2600 565.6600 924.8300 560.8300Q921.4000 556 921.4000 549.9800L921.4000 549.9800Q921.4000 540.1800 929.3800 534.3700Q937.3600 528.5600 950.2400 526.6000L950.2400 526.6000L969.4200 523.8000L969.4200 520.8600Q969.4200 514.9800 966.4800 511.7600Q963.5400 508.5400 956.4000 508.5400L956.4000 508.5400Q951.3600 508.5400 948.2100 510.5700Q945.0600 512.6000 943.5200 515.9600L943.5200 515.9600Q942.4000 517.7800 940.3000 517.7800L940.3000 517.7800L929.2400 517.7800Q927.7000 517.7800 926.9300 516.9400Q926.1600 516.1000 926.1600 514.7000L926.1600 514.7000Q926.3000 512.4600 928.0500 509.2400Q929.8000 506.0200 933.3700 503.0100Q936.9400 500 942.6800 497.9000Q948.4200 495.8000 956.5400 495.8000L956.5400 495.8000Q965.3600 495.8000 971.4500 497.9700Q977.5400 500.1400 981.1800 503.7800Q984.8200 507.4200 986.5000 512.3200Q988.1800 517.2200 988.1800 522.6800L988.1800 522.6800L988.1800 566.6400Q988.1800 568.0400 987.2000 569.0200Q986.2200 570 984.8200 570L984.8200 570L973.4800 570Q971.9400 570 971.0300 569.0200Q970.1200 568.0400 970.1200 566.6400L970.1200 566.6400L970.1200 561.1800Q968.3000 563.7000 965.2200 566.0800Q962.1400 568.4600 957.7300 569.9300Q953.3200 571.4000 947.3000 571.4000ZM952.0600 558.1000L952.0600 558.1000Q956.9600 558.1000 960.9500 556Q964.9400 553.9000 967.2500 549.4900Q969.5600 545.0800 969.5600 538.3600L969.5600 538.3600L969.5600 535.4200L955.5600 537.6600Q947.3000 538.9200 943.2400 541.7200Q939.1800 544.5200 939.1800 548.5800L939.1800 548.5800Q939.1800 551.6600 941.0700 553.8300Q942.9600 556 945.9000 557.0500Q948.8400 558.1000 952.0600 558.1000ZM1021.7800 570L1009.4600 570Q1008.0600 570 1007.0800 569.0200Q1006.1000 568.0400 1006.1000 566.6400L1006.1000 566.6400L1006.1000 500.5600Q1006.1000 499.1600 1007.0800 498.1800Q1008.0600 497.2000 1009.4600 497.2000L1009.4600 497.2000L1020.9400 497.2000Q1022.3400 497.2000 1023.3200 498.1800Q1024.3000 499.1600 1024.3000 500.5600L1024.3000 500.5600L1024.3000 506.3000Q1027.9400 501.8200 1033.6100 498.8100Q1039.2800 495.8000 1047.6800 495.8000L1047.6800 495.8000Q1056.2200 495.8000 1062.5200 499.6500Q1068.8200 503.5000 1072.2500 510.5000Q1075.6800 517.5000 1075.6800 527.3000L1075.6800 527.3000L1075.6800 566.6400Q1075.6800 568.0400 1074.7000 569.0200Q1073.7200 570 1072.3200 570L1072.3200 570L1060.0000 570Q1058.6000 570 1057.6200 569.0200Q1056.6400 568.0400 1056.6400 566.6400L1056.6400 566.6400L1056.6400 528.1400Q1056.6400 520.0200 1052.6500 515.4000Q1048.6600 510.7800 1041.1000 510.7800L1041.1000 510.7800Q1033.8200 510.7800 1029.4800 515.4000Q1025.1400 520.0200 1025.1400 528.1400L1025.1400 528.1400L1025.1400 566.6400Q1025.1400 568.0400 1024.1600 569.0200Q1023.1800 570 1021.7800 570L1021.7800 570ZM1120.4800 571.4000L1120.4800 571.4000Q1113.2000 571.4000 1107.6700 568.9500Q1102.1400 566.5000 1098.5000 562.0200Q1094.8600 557.5400 1092.9000 551.4500Q1090.9400 545.3600 1090.6600 538.0800L1090.6600 538.0800Q1090.5200 535.5600 1090.5200 533.5300Q1090.5200 531.5000 1090.6600 528.9800L1090.6600 528.9800Q1090.9400 521.9800 1092.8300 515.9600Q1094.7200 509.9400 1098.4300 505.3900Q1102.1400 500.8400 1107.6700 498.3200Q1113.2000 495.8000 1120.4800 495.8000L1120.4800 495.8000Q1128.0400 495.8000 1133.2900 498.3900Q1138.5400 500.9800 1142.0400 505.0400L1142.0400 505.0400L1142.0400 473.9600Q1142.0400 472.5600 1142.9500 471.5800Q1143.8600 470.6000 1145.4000 470.6000L1145.4000 470.6000L1157.3000 470.6000Q1158.7000 470.6000 1159.6800 471.5800Q1160.6600 472.5600 1160.6600 473.9600L1160.6600 473.9600L1160.6600 566.6400Q1160.6600 568.0400 1159.6800 569.0200Q1158.7000 570 1157.3000 570L1157.3000 570L1146.2400 570Q1144.7000 570 1143.7900 569.0200Q1142.8800 568.0400 1142.8800 566.6400L1142.8800 566.6400L1142.8800 561.4600Q1139.3800 565.8000 1133.9900 568.6000Q1128.6000 571.4000 1120.4800 571.4000ZM1125.6600 556.4200L1125.6600 556.4200Q1131.5400 556.4200 1135.0400 553.7600Q1138.5400 551.1000 1140.2200 546.9700Q1141.9000 542.8400 1142.0400 538.5000L1142.0400 538.5000Q1142.1800 535.9800 1142.1800 533.1100Q1142.1800 530.2400 1142.0400 527.7200L1142.0400 527.7200Q1141.9000 523.5200 1140.0800 519.6700Q1138.2600 515.8200 1134.7600 513.3000Q1131.2600 510.7800 1125.6600 510.7800L1125.6600 510.7800Q1119.7800 510.7800 1116.3500 513.3700Q1112.9200 515.9600 1111.3800 520.1600Q1109.8400 524.3600 1109.5600 529.4000L1109.5600 529.4000Q1109.4200 533.6000 1109.5600 537.8000L1109.5600 537.8000Q1109.8400 542.8400 1111.3800 547.0400Q1112.9200 551.2400 1116.3500 553.8300Q1119.7800 556.4200 1125.6600 556.4200ZM1211.4800 571.4000L1211.4800 571.4000Q1200.2800 571.4000 1192.6500 567.4800Q1185.0200 563.5600 1181.0300 556.4200Q1177.0400 549.2800 1176.4800 539.7600L1176.4800 539.7600Q1176.3400 537.2400 1176.3400 533.6000Q1176.3400 529.9600 1176.4800 527.4400L1176.4800 527.4400Q1177.0400 517.7800 1181.1700 510.7100Q1185.3000 503.6400 1192.9300 499.7200Q1200.5600 495.8000 1211.4800 495.8000L1211.4800 495.8000Q1222.4000 495.8000 1230.0300 499.7200Q1237.6600 503.6400 1241.7900 510.7100Q1245.9200 517.7800 1246.4800 527.4400L1246.4800 527.4400Q1246.6200 529.9600 1246.6200 533.6000Q1246.6200 537.2400 1246.4800 539.7600L1246.4800 539.7600Q1245.9200 549.2800 1241.9300 556.4200Q1237.9400 563.5600 1230.3100 567.4800Q1222.6800 571.4000 1211.4800 571.4000ZM1211.4800 557.5400L1211.4800 557.5400Q1218.9000 557.5400 1222.9600 552.8500Q1227.0200 548.1600 1227.4400 539.0600L1227.4400 539.0600Q1227.5800 536.9600 1227.5800 533.6000Q1227.5800 530.2400 1227.4400 528.1400L1227.4400 528.1400Q1227.0200 519.0400 1222.9600 514.3500Q1218.9000 509.6600 1211.4800 509.6600L1211.4800 509.6600Q1204.0600 509.6600 1200.0000 514.3500Q1195.9400 519.0400 1195.5200 528.1400L1195.5200 528.1400Q1195.3800 530.2400 1195.3800 533.6000Q1195.3800 536.9600 1195.5200 539.0600L1195.5200 539.0600Q1195.9400 548.1600 1200.0000 552.8500Q1204.0600 557.5400 1211.4800 557.5400ZM186.2600 711.4000L186.2600 711.4000Q178.9800 711.4000 173.4500 708.9500Q167.9200 706.5000 164.2800 702.0200Q160.6400 697.5400 158.6800 691.4500Q156.7200 685.3600 156.4400 678.0800L156.4400 678.0800Q156.3000 675.5600 156.3000 673.5300Q156.3000 671.5000 156.4400 668.9800L156.4400 668.9800Q156.7200 661.9800 158.6100 655.9600Q160.5000 649.9400 164.2100 645.3900Q167.9200 640.8400 173.4500 638.3200Q178.9800 635.8000 186.2600 635.8000L186.2600 635.8000Q193.8200 635.8000 199.0700 638.3900Q204.3200 640.9800 207.8200 645.0400L207.8200 645.0400L207.8200 613.9600Q207.8200 612.5600 208.7300 611.5800Q209.6400 610.6000 211.1800 610.6000L211.1800 610.6000L223.0800 610.6000Q224.4800 610.6000 225.4600 611.5800Q226.4400 612.5600 226.4400 613.9600L226.4400 613.9600L226.4400 706.6400Q226.4400 708.0400 225.4600 709.0200Q224.4800 710 223.0800 710L223.0800 710L212.0200 710Q210.4800 710 209.5700 709.0200Q208.6600 708.0400 208.6600 706.6400L208.6600 706.6400L208.6600 701.4600Q205.1600 705.8000 199.7700 708.6000Q194.3800 711.4000 186.2600 711.4000ZM191.4400 696.4200L191.4400 696.4200Q197.3200 696.4200 200.8200 693.7600Q204.3200 691.1000 206 686.9700Q207.6800 682.8400 207.8200 678.5000L207.8200 678.5000Q207.9600 675.9800 207.9600 673.1100Q207.9600 670.2400 207.8200 667.7200L207.8200 667.7200Q207.6800 663.5200 205.8600 659.6700Q204.0400 655.8200 200.5400 653.3000Q197.0400 650.7800 191.4400 650.7800L191.4400 650.7800Q185.5600 650.7800 182.1300 653.3700Q178.7000 655.9600 177.1600 660.1600Q175.6200 664.3600 175.3400 669.4000L175.3400 669.4000Q175.2000 673.6000 175.3400 677.8000L175.3400 677.8000Q175.6200 682.8400 177.1600 687.0400Q178.7000 691.2400 182.1300 693.8300Q185.5600 696.4200 191.4400 696.4200ZM266.2000 711.4000L266.2000 711.4000Q258.9200 711.4000 253.0400 708.5300Q247.1600 705.6600 243.7300 700.8300Q240.3000 696 240.3000 689.9800L240.3000 689.9800Q240.3000 680.1800 248.2800 674.3700Q256.2600 668.5600 269.1400 666.6000L269.1400 666.6000L288.3200 663.8000L288.3200 660.8600Q288.3200 654.9800 285.3800 651.7600Q282.4400 648.5400 275.3000 648.5400L275.3000 648.5400Q270.2600 648.5400 267.1100 650.5700Q263.9600 652.6000 262.4200 655.9600L262.4200 655.9600Q261.3000 657.7800 259.2000 657.7800L259.2000 657.7800L248.1400 657.7800Q246.6000 657.7800 245.8300 656.9400Q245.0600 656.1000 245.0600 654.7000L245.0600 654.7000Q245.2000 652.4600 246.9500 649.2400Q248.7000 646.0200 252.2700 643.0100Q255.8400 640 261.5800 637.9000Q267.3200 635.8000 275.4400 635.8000L275.4400 635.8000Q284.2600 635.8000 290.3500 637.9700Q296.4400 640.1400 300.0800 643.7800Q303.7200 647.4200 305.4000 652.3200Q307.0800 657.2200 307.0800 662.6800L307.0800 662.6800L307.0800 706.6400Q307.0800 708.0400 306.1000 709.0200Q305.1200 710 303.7200 710L303.7200 710L292.3800 710Q290.8400 710 289.9300 709.0200Q289.0200 708.0400 289.0200 706.6400L289.0200 706.6400L289.0200 701.1800Q287.2000 703.7000 284.1200 706.0800Q281.0400 708.4600 276.6300 709.9300Q272.2200 711.4000 266.2000 711.4000ZM270.9600 698.1000L270.9600 698.1000Q275.8600 698.1000 279.8500 696Q283.8400 693.9000 286.1500 689.4900Q288.4600 685.0800 288.4600 678.3600L288.4600 678.3600L288.4600 675.4200L274.4600 677.6600Q266.2000 678.9200 262.1400 681.7200Q258.0800 684.5200 258.0800 688.5800L258.0800 688.5800Q258.0800 691.6600 259.9700 693.8300Q261.8600 696 264.8000 697.0500Q267.7400 698.1000 270.9600 698.1000ZM352.0200 711.4000L352.0200 711.4000Q344.7400 711.4000 339.2100 708.9500Q333.6800 706.5000 330.0400 702.0200Q326.4000 697.5400 324.4400 691.4500Q322.4800 685.3600 322.2000 678.0800L322.2000 678.0800Q322.0600 675.5600 322.0600 673.5300Q322.0600 671.5000 322.2000 668.9800L322.2000 668.9800Q322.4800 661.9800 324.3700 655.9600Q326.2600 649.9400 329.9700 645.3900Q333.6800 640.8400 339.2100 638.3200Q344.7400 635.8000 352.0200 635.8000L352.0200 635.8000Q359.5800 635.8000 364.8300 638.3900Q370.0800 640.9800 373.5800 645.0400L373.5800 645.0400L373.5800 613.9600Q373.5800 612.5600 374.4900 611.5800Q375.4000 610.6000 376.9400 610.6000L376.9400 610.6000L388.8400 610.6000Q390.2400 610.6000 391.2200 611.5800Q392.2000 612.5600 392.2000 613.9600L392.2000 613.9600L392.2000 706.6400Q392.2000 708.0400 391.2200 709.0200Q390.2400 710 388.8400 710L388.8400 710L377.7800 710Q376.2400 710 375.3300 709.0200Q374.4200 708.0400 374.4200 706.6400L374.4200 706.6400L374.4200 701.4600Q370.9200 705.8000 365.5300 708.6000Q360.1400 711.4000 352.0200 711.4000ZM357.2000 696.4200L357.2000 696.4200Q363.0800 696.4200 366.5800 693.7600Q370.0800 691.1000 371.7600 686.9700Q373.4400 682.8400 373.5800 678.5000L373.5800 678.5000Q373.7200 675.9800 373.7200 673.1100Q373.7200 670.2400 373.5800 667.7200L373.5800 667.7200Q373.4400 663.5200 371.6200 659.6700Q369.8000 655.8200 366.3000 653.3000Q362.8000 650.7800 357.2000 650.7800L357.2000 650.7800Q351.3200 650.7800 347.8900 653.3700Q344.4600 655.9600 342.9200 660.1600Q341.3800 664.3600 341.1000 669.4000L341.1000 669.4000Q340.9600 673.6000 341.1000 677.8000L341.1000 677.8000Q341.3800 682.8400 342.9200 687.0400Q344.4600 691.2400 347.8900 693.8300Q351.3200 696.4200 357.2000 696.4200ZM443.0200 711.4000L443.0200 711.4000Q431.8200 711.4000 424.1900 707.4800Q416.5600 703.5600 412.5700 696.4200Q408.5800 689.2800 408.0200 679.7600L408.0200 679.7600Q407.8800 677.2400 407.8800 673.6000Q407.8800 669.9600 408.0200 667.4400L408.0200 667.4400Q408.5800 657.7800 412.7100 650.7100Q416.8400 643.6400 424.4700 639.7200Q432.1000 635.8000 443.0200 635.8000L443.0200 635.8000Q453.9400 635.8000 461.5700 639.7200Q469.2000 643.6400 473.3300 650.7100Q477.4600 657.7800 478.0200 667.4400L478.0200 667.4400Q478.1600 669.9600 478.1600 673.6000Q478.1600 677.2400 478.0200 679.7600L478.0200 679.7600Q477.4600 689.2800 473.4700 696.4200Q469.4800 703.5600 461.8500 707.4800Q454.2200 711.4000 443.0200 711.4000ZM443.0200 697.5400L443.0200 697.5400Q450.4400 697.5400 454.5000 692.8500Q458.5600 688.1600 458.9800 679.0600L458.9800 679.0600Q459.1200 676.9600 459.1200 673.6000Q459.1200 670.2400 458.9800 668.1400L458.9800 668.1400Q458.5600 659.0400 454.5000 654.3500Q450.4400 649.6600 443.0200 649.6600L443.0200 649.6600Q435.6000 649.6600 431.5400 654.3500Q427.4800 659.0400 427.0600 668.1400L427.0600 668.1400Q426.9200 670.2400 426.9200 673.6000Q426.9200 676.9600 427.0600 679.0600L427.0600 679.0600Q427.4800 688.1600 431.5400 692.8500Q435.6000 697.5400 443.0200 697.5400ZM521.2800 711.4000L521.2800 711.4000Q512.8800 711.4000 506.9300 709.4400Q500.9800 707.4800 497.2000 704.5400Q493.4200 701.6000 491.6000 698.6600Q489.7800 695.7200 489.6400 693.7600L489.6400 693.7600Q489.5000 692.2200 490.5500 691.3100Q491.6000 690.4000 492.8600 690.4000L492.8600 690.4000L503.9200 690.4000Q504.4800 690.4000 504.9000 690.5400Q505.3200 690.6800 506.0200 691.3800L506.0200 691.3800Q507.8400 692.9200 509.8700 694.6000Q511.9000 696.2800 514.7000 697.4700Q517.5000 698.6600 521.7000 698.6600L521.7000 698.6600Q527.1600 698.6600 530.8700 696.4900Q534.5800 694.3200 534.5800 690.2600L534.5800 690.2600Q534.5800 687.3200 532.9700 685.5000Q531.3600 683.6800 527.0200 682.2100Q522.6800 680.7400 514.7000 679.0600L514.7000 679.0600Q506.8600 677.2400 501.6800 674.4400Q496.5000 671.6400 493.9800 667.4400Q491.4600 663.2400 491.4600 657.6400L491.4600 657.6400Q491.4600 652.1800 494.7500 647.2100Q498.0400 642.2400 504.5500 639.0200Q511.0600 635.8000 520.7200 635.8000L520.7200 635.8000Q528.2800 635.8000 533.8800 637.6900Q539.4800 639.5800 543.1900 642.3800Q546.9000 645.1800 548.8600 648.0500Q550.8200 650.9200 550.9600 653.0200L550.9600 653.0200Q551.1000 654.5600 550.1200 655.4700Q549.1400 656.3800 547.8800 656.3800L547.8800 656.3800L537.5200 656.3800Q536.8200 656.3800 536.2600 656.1000Q535.7000 655.8200 535.1400 655.4000L535.1400 655.4000Q533.6000 654 531.7800 652.3900Q529.9600 650.7800 527.3700 649.6600Q524.7800 648.5400 520.5800 648.5400L520.5800 648.5400Q515.2600 648.5400 512.4600 650.8500Q509.6600 653.1600 509.6600 656.6600L509.6600 656.6600Q509.6600 659.0400 510.9900 660.7900Q512.3200 662.5400 516.3800 664.0800Q520.4400 665.6200 528.7000 667.3000L528.7000 667.3000Q538.0800 668.9800 543.6100 672.2700Q549.1400 675.5600 551.4500 679.8300Q553.7600 684.1000 553.7600 689.2800L553.7600 689.2800Q553.7600 695.5800 550.0500 700.6200Q546.3400 705.6600 539.1300 708.5300Q531.9200 711.4000 521.2800 711.4000ZM631.7400 711.4000L631.7400 711.4000Q621.6600 711.4000 614.0300 707.6200Q606.4000 703.8400 602.1300 696.6300Q597.8600 689.4200 597.4400 679.2000L597.4400 679.2000Q597.3000 677.1000 597.3000 673.6700Q597.3000 670.2400 597.4400 668L597.4400 668Q597.8600 657.7800 602.1300 650.5700Q606.4000 643.3600 614.0300 639.5800Q621.6600 635.8000 631.7400 635.8000L631.7400 635.8000Q640.7000 635.8000 647 638.2500Q653.3000 640.7000 657.3600 644.5500Q661.4200 648.4000 663.4500 652.5300Q665.4800 656.6600 665.6200 660.0200L665.6200 660.0200Q665.7600 661.5600 664.7100 662.4700Q663.6600 663.3800 662.2600 663.3800L662.2600 663.3800L649.9400 663.3800Q648.5400 663.3800 647.7700 662.6800Q647 661.9800 646.3000 660.5800L646.3000 660.5800Q644.2000 654.9800 640.7700 652.6700Q637.3400 650.3600 632.0200 650.3600L632.0200 650.3600Q625.0200 650.3600 620.8900 654.7700Q616.7600 659.1800 616.4800 668.7000L616.4800 668.7000Q616.2000 674.0200 616.4800 678.5000L616.4800 678.5000Q616.7600 688.1600 620.8900 692.5000Q625.0200 696.8400 632.0200 696.8400L632.0200 696.8400Q637.4800 696.8400 640.8400 694.5300Q644.2000 692.2200 646.3000 686.6200L646.3000 686.6200Q647 685.2200 647.7700 684.5200Q648.5400 683.8200 649.9400 683.8200L649.9400 683.8200L662.2600 683.8200Q663.6600 683.8200 664.7100 684.7300Q665.7600 685.6400 665.6200 687.1800L665.6200 687.1800Q665.4800 689.7000 664.2900 692.8500Q663.1000 696 660.5100 699.2900Q657.9200 702.5800 654 705.3100Q650.0800 708.0400 644.5500 709.7200Q639.0200 711.4000 631.7400 711.4000ZM712.3800 711.4000L712.3800 711.4000Q701.1800 711.4000 693.5500 707.4800Q685.9200 703.5600 681.9300 696.4200Q677.9400 689.2800 677.3800 679.7600L677.3800 679.7600Q677.2400 677.2400 677.2400 673.6000Q677.2400 669.9600 677.3800 667.4400L677.3800 667.4400Q677.9400 657.7800 682.0700 650.7100Q686.2000 643.6400 693.8300 639.7200Q701.4600 635.8000 712.3800 635.8000L712.3800 635.8000Q723.3000 635.8000 730.9300 639.7200Q738.5600 643.6400 742.6900 650.7100Q746.8200 657.7800 747.3800 667.4400L747.3800 667.4400Q747.5200 669.9600 747.5200 673.6000Q747.5200 677.2400 747.3800 679.7600L747.3800 679.7600Q746.8200 689.2800 742.8300 696.4200Q738.8400 703.5600 731.2100 707.4800Q723.5800 711.4000 712.3800 711.4000ZM712.3800 697.5400L712.3800 697.5400Q719.8000 697.5400 723.8600 692.8500Q727.9200 688.1600 728.3400 679.0600L728.3400 679.0600Q728.4800 676.9600 728.4800 673.6000Q728.4800 670.2400 728.3400 668.1400L728.3400 668.1400Q727.9200 659.0400 723.8600 654.3500Q719.8000 649.6600 712.3800 649.6600L712.3800 649.6600Q704.9600 649.6600 700.9000 654.3500Q696.8400 659.0400 696.4200 668.1400L696.4200 668.1400Q696.2800 670.2400 696.2800 673.6000Q696.2800 676.9600 696.4200 679.0600L696.4200 679.0600Q696.8400 688.1600 700.9000 692.8500Q704.9600 697.5400 712.3800 697.5400ZM778.1800 710L766.4200 710Q765.0200 710 764.0400 709.0200Q763.0600 708.0400 763.0600 706.6400L763.0600 706.6400L763.0600 640.5600Q763.0600 639.1600 764.0400 638.1800Q765.0200 637.2000 766.4200 637.2000L766.4200 637.2000L777.3400 637.2000Q778.7400 637.2000 779.7200 638.1800Q780.7000 639.1600 780.7000 640.5600L780.7000 640.5600L780.7000 645.3200Q783.6400 641.4000 788.6100 638.6700Q793.5800 635.9400 800.4400 635.8000L800.4400 635.8000Q816.4000 635.5200 822.7000 648.2600L822.7000 648.2600Q825.9200 642.6600 832.0100 639.2300Q838.1000 635.8000 845.5200 635.8000L845.5200 635.8000Q852.8000 635.8000 858.7500 639.1600Q864.7000 642.5200 868.1300 649.3100Q871.5600 656.1000 871.5600 666.4600L871.5600 666.4600L871.5600 706.6400Q871.5600 708.0400 870.5800 709.0200Q869.6000 710 868.2000 710L868.2000 710L856.7200 710Q855.3200 710 854.3400 709.0200Q853.3600 708.0400 853.3600 706.6400L853.3600 706.6400L853.3600 667.5800Q853.3600 661.2800 851.5400 657.5700Q849.7200 653.8600 846.6400 652.3200Q843.5600 650.7800 839.7800 650.7800L839.7800 650.7800Q836.7000 650.7800 833.6200 652.3200Q830.5400 653.8600 828.5800 657.5700Q826.6200 661.2800 826.6200 667.5800L826.6200 667.5800L826.6200 706.6400Q826.6200 708.0400 825.6400 709.0200Q824.6600 710 823.2600 710L823.2600 710L811.7800 710Q810.3800 710 809.4000 709.0200Q808.4200 708.0400 808.4200 706.6400L808.4200 706.6400L808.4200 667.5800Q808.4200 661.2800 806.4600 657.5700Q804.5000 653.8600 801.4200 652.3200Q798.3400 650.7800 794.8400 650.7800L794.8400 650.7800Q791.6200 650.7800 788.5400 652.3900Q785.4600 654 783.5000 657.6400Q781.5400 661.2800 781.5400 667.5800L781.5400 667.5800L781.5400 706.6400Q781.5400 708.0400 780.5600 709.0200Q779.5800 710 778.1800 710L778.1800 710ZM936.3800 710L924.7600 710Q923.3600 710 922.3800 709.0200Q921.4000 708.0400 921.4000 706.6400L921.4000 706.6400L921.4000 640.5600Q921.4000 639.1600 922.3800 638.1800Q923.3600 637.2000 924.7600 637.2000L924.7600 637.2000L936.3800 637.2000Q937.9200 637.2000 938.8300 638.1800Q939.7400 639.1600 939.7400 640.5600L939.7400 640.5600L939.7400 706.6400Q939.7400 708.0400 938.8300 709.0200Q937.9200 710 936.3800 710L936.3800 710ZM936.9400 625.1600L924.2000 625.1600Q922.8000 625.1600 921.8200 624.1800Q920.8400 623.2000 920.8400 621.8000L920.8400 621.8000L920.8400 611.7200Q920.8400 610.3200 921.8200 609.3400Q922.8000 608.3600 924.2000 608.3600L924.2000 608.3600L936.9400 608.3600Q938.4800 608.3600 939.4600 609.3400Q940.4400 610.3200 940.4400 611.7200L940.4400 611.7200L940.4400 621.8000Q940.4400 623.2000 939.4600 624.1800Q938.4800 625.1600 936.9400 625.1600L936.9400 625.1600ZM974.0400 710L961.7200 710Q960.3200 710 959.3400 709.0200Q958.3600 708.0400 958.3600 706.6400L958.3600 706.6400L958.3600 640.5600Q958.3600 639.1600 959.3400 638.1800Q960.3200 637.2000 961.7200 637.2000L961.7200 637.2000L973.2000 637.2000Q974.6000 637.2000 975.5800 638.1800Q976.5600 639.1600 976.5600 640.5600L976.5600 640.5600L976.5600 646.3000Q980.2000 641.8200 985.8700 638.8100Q991.5400 635.8000 999.9400 635.8000L999.9400 635.8000Q1008.4800 635.8000 1014.7800 639.6500Q1021.0800 643.5000 1024.5100 650.5000Q1027.9400 657.5000 1027.9400 667.3000L1027.9400 667.3000L1027.9400 706.6400Q1027.9400 708.0400 1026.9600 709.0200Q1025.9800 710 1024.5800 710L1024.5800 710L1012.2600 710Q1010.8600 710 1009.8800 709.0200Q1008.9000 708.0400 1008.9000 706.6400L1008.9000 706.6400L1008.9000 668.1400Q1008.9000 660.0200 1004.9100 655.4000Q1000.9200 650.7800 993.3600 650.7800L993.3600 650.7800Q986.0800 650.7800 981.7400 655.4000Q977.4000 660.0200 977.4000 668.1400L977.4000 668.1400L977.4000 706.6400Q977.4000 708.0400 976.4200 709.0200Q975.4400 710 974.0400 710L974.0400 710ZM1061.4000 710L1049.0800 710Q1047.6800 710 1046.7000 709.0200Q1045.7200 708.0400 1045.7200 706.6400L1045.7200 706.6400L1045.7200 640.5600Q1045.7200 639.1600 1046.7000 638.1800Q1047.6800 637.2000 1049.0800 637.2000L1049.0800 637.2000L1060.5600 637.2000Q1061.9600 637.2000 1062.9400 638.1800Q1063.9200 639.1600 1063.9200 640.5600L1063.9200 640.5600L1063.9200 646.3000Q1067.5600 641.8200 1073.2300 638.8100Q1078.9000 635.8000 1087.3000 635.8000L1087.3000 635.8000Q1095.8400 635.8000 1102.1400 639.6500Q1108.4400 643.5000 1111.8700 650.5000Q1115.3000 657.5000 1115.3000 667.3000L1115.3000 667.3000L1115.3000 706.6400Q1115.3000 708.0400 1114.3200 709.0200Q1113.3400 710 1111.9400 710L1111.9400 710L1099.6200 710Q1098.2200 710 1097.2400 709.0200Q1096.2600 708.0400 1096.2600 706.6400L1096.2600 706.6400L1096.2600 668.1400Q1096.2600 660.0200 1092.2700 655.4000Q1088.2800 650.7800 1080.7200 650.7800L1080.7200 650.7800Q1073.4400 650.7800 1069.1000 655.4000Q1064.7600 660.0200 1064.7600 668.1400L1064.7600 668.1400L1064.7600 706.6400Q1064.7600 708.0400 1063.7800 709.0200Q1062.8000 710 1061.4000 710L1061.4000 710ZM1164.4400 711.4000L1164.4400 711.4000Q1148.9000 711.4000 1139.8000 702.4400Q1130.7000 693.4800 1130.0000 676.9600L1130.0000 676.9600Q1129.8600 675.5600 1129.8600 673.3900Q1129.8600 671.2200 1130.0000 669.9600L1130.0000 669.9600Q1130.5600 659.3200 1134.8300 651.6900Q1139.1000 644.0600 1146.6600 639.9300Q1154.2200 635.8000 1164.4400 635.8000L1164.4400 635.8000Q1175.7800 635.8000 1183.4800 640.4900Q1191.1800 645.1800 1195.1000 653.5100Q1199.0200 661.8400 1199.0200 672.7600L1199.0200 672.7600L1199.0200 675.7000Q1199.0200 677.1000 1198.0400 678.0800Q1197.0600 679.0600 1195.5200 679.0600L1195.5200 679.0600L1149.0400 679.0600Q1149.0400 679.0600 1149.0400 679.4800Q1149.0400 679.9000 1149.0400 680.1800L1149.0400 680.1800Q1149.1800 685.0800 1150.9300 689.2100Q1152.6800 693.3400 1156.1100 695.8600Q1159.5400 698.3800 1164.3000 698.3800L1164.3000 698.3800Q1168.2200 698.3800 1170.8800 697.1900Q1173.5400 696 1175.2200 694.4600Q1176.9000 692.9200 1177.6000 691.9400L1177.6000 691.9400Q1178.8600 690.2600 1179.6300 689.9100Q1180.4000 689.5600 1181.9400 689.5600L1181.9400 689.5600L1193.9800 689.5600Q1195.3800 689.5600 1196.2900 690.4000Q1197.2000 691.2400 1197.0600 692.5000L1197.0600 692.5000Q1196.9200 694.7400 1194.7500 697.9600Q1192.5800 701.1800 1188.5200 704.2600Q1184.4600 707.3400 1178.3700 709.3700Q1172.2800 711.4000 1164.4400 711.4000ZM1149.0400 666.8800L1149.0400 667.3000L1179.9800 667.3000L1179.9800 666.8800Q1179.9800 661.4200 1178.1600 657.2900Q1176.3400 653.1600 1172.8400 650.8500Q1169.3400 648.5400 1164.4400 648.5400L1164.4400 648.5400Q1159.5400 648.5400 1156.0400 650.8500Q1152.5400 653.1600 1150.7900 657.2900Q1149.0400 661.4200 1149.0400 666.8800L1149.0400 666.8800ZM1229.4000 710L1217.2200 710Q1215.8200 710 1214.8400 709.0200Q1213.8600 708.0400 1213.8600 706.6400L1213.8600 706.6400L1213.8600 640.7000Q1213.8600 639.1600 1214.8400 638.1800Q1215.8200 637.2000 1217.2200 637.2000L1217.2200 637.2000L1228.5600 637.2000Q1229.9600 637.2000 1231.0100 638.1800Q1232.0600 639.1600 1232.0600 640.7000L1232.0600 640.7000L1232.0600 646.4400Q1235.2800 641.9600 1240.3900 639.5800Q1245.5000 637.2000 1252.2200 637.2000L1252.2200 637.2000L1257.9600 637.2000Q1259.5000 637.2000 1260.4100 638.1800Q1261.3200 639.1600 1261.3200 640.5600L1261.3200 640.5600L1261.3200 650.6400Q1261.3200 652.0400 1260.4100 653.0200Q1259.5000 654 1257.9600 654L1257.9600 654L1247.0400 654Q1240.3200 654 1236.6100 657.7100Q1232.9000 661.4200 1232.9000 668.1400L1232.9000 668.1400L1232.9000 706.6400Q1232.9000 708.0400 1231.9200 709.0200Q1230.9400 710 1229.4000 710L1229.4000 710ZM1297.5800 736.6000L1292.2600 736.6000Q1290.8600 736.6000 1289.8800 735.6200Q1288.9000 734.6400 1288.9000 733.2400L1288.9000 733.2400L1288.9000 725.1200Q1288.9000 723.7200 1289.8800 722.7400Q1290.8600 721.7600 1292.2600 721.7600L1292.2600 721.7600L1295.9000 721.7600Q1300.2400 721.7600 1302.3400 720.2200Q1304.4400 718.6800 1305.1400 715.9500Q1305.8400 713.2200 1305.8400 709.8600L1305.8400 709.8600L1305.8400 640.5600Q1305.8400 639.1600 1306.8200 638.1800Q1307.8000 637.2000 1309.2000 637.2000L1309.2000 637.2000L1321.3800 637.2000Q1322.7800 637.2000 1323.7600 638.1800Q1324.7400 639.1600 1324.7400 640.5600L1324.7400 640.5600L1324.7400 710.1400Q1324.7400 718.4000 1321.7300 724.2800Q1318.7200 730.1600 1312.7700 733.3800Q1306.8200 736.6000 1297.5800 736.6000L1297.5800 736.6000ZM1321.8000 625.1600L1308.6400 625.1600Q1307.1000 625.1600 1306.1900 624.1800Q1305.2800 623.2000 1305.2800 621.8000L1305.2800 621.8000L1305.2800 611.7200Q1305.2800 610.3200 1306.1900 609.3400Q1307.1000 608.3600 1308.6400 608.3600L1308.6400 608.3600L1321.8000 608.3600Q1323.3400 608.3600 1324.3200 609.3400Q1325.3000 610.3200 1325.3000 611.7200L1325.3000 611.7200L1325.3000 621.8000Q1325.3000 623.2000 1324.3200 624.1800Q1323.3400 625.1600 1321.8000 625.1600L1321.8000 625.1600ZM1375.5600 711.4000L1375.5600 711.4000Q1364.3600 711.4000 1356.7300 707.4800Q1349.1000 703.5600 1345.1100 696.4200Q1341.1200 689.2800 1340.5600 679.7600L1340.5600 679.7600Q1340.4200 677.2400 1340.4200 673.6000Q1340.4200 669.9600 1340.5600 667.4400L1340.5600 667.4400Q1341.1200 657.7800 1345.2500 650.7100Q1349.3800 643.6400 1357.0100 639.7200Q1364.6400 635.8000 1375.5600 635.8000L1375.5600 635.8000Q1386.4800 635.8000 1394.1100 639.7200Q1401.7400 643.6400 1405.8700 650.7100Q1410.0000 657.7800 1410.5600 667.4400L1410.5600 667.4400Q1410.7000 669.9600 1410.7000 673.6000Q1410.7000 677.2400 1410.5600 679.7600L1410.5600 679.7600Q1410.0000 689.2800 1406.0100 696.4200Q1402.0200 703.5600 1394.3900 707.4800Q1386.7600 711.4000 1375.5600 711.4000ZM1375.5600 697.5400L1375.5600 697.5400Q1382.9800 697.5400 1387.0400 692.8500Q1391.1000 688.1600 1391.5200 679.0600L1391.5200 679.0600Q1391.6600 676.9600 1391.6600 673.6000Q1391.6600 670.2400 1391.5200 668.1400L1391.5200 668.1400Q1391.1000 659.0400 1387.0400 654.3500Q1382.9800 649.6600 1375.5600 649.6600L1375.5600 649.6600Q1368.1400 649.6600 1364.0800 654.3500Q1360.0200 659.0400 1359.6000 668.1400L1359.6000 668.1400Q1359.4600 670.2400 1359.4600 673.6000Q1359.4600 676.9600 1359.6000 679.0600L1359.6000 679.0600Q1360.0200 688.1600 1364.0800 692.8500Q1368.1400 697.5400 1375.5600 697.5400ZM1441.2200 710L1429.6000 710Q1428.2000 710 1427.2200 709.0200Q1426.2400 708.0400 1426.2400 706.6400L1426.2400 706.6400L1426.2400 640.5600Q1426.2400 639.1600 1427.2200 638.1800Q1428.2000 637.2000 1429.6000 637.2000L1429.6000 637.2000L1441.2200 637.2000Q1442.7600 637.2000 1443.6700 638.1800Q1444.5800 639.1600 1444.5800 640.5600L1444.5800 640.5600L1444.5800 706.6400Q1444.5800 708.0400 1443.6700 709.0200Q1442.7600 710 1441.2200 710L1441.2200 710ZM1441.7800 625.1600L1429.0400 625.1600Q1427.6400 625.1600 1426.6600 624.1800Q1425.6800 623.2000 1425.6800 621.8000L1425.6800 621.8000L1425.6800 611.7200Q1425.6800 610.3200 1426.6600 609.3400Q1427.6400 608.3600 1429.0400 608.3600L1429.0400 608.3600L1441.7800 608.3600Q1443.3200 608.3600 1444.3000 609.3400Q1445.2800 610.3200 1445.2800 611.7200L1445.2800 611.7200L1445.2800 621.8000Q1445.2800 623.2000 1444.3000 624.1800Q1443.3200 625.1600 1441.7800 625.1600L1441.7800 625.1600ZM1478.8800 710L1466.5600 710Q1465.1600 710 1464.1800 709.0200Q1463.2000 708.0400 1463.2000 706.6400L1463.2000 706.6400L1463.2000 640.5600Q1463.2000 639.1600 1464.1800 638.1800Q1465.1600 637.2000 1466.5600 637.2000L1466.5600 637.2000L1478.0400 637.2000Q1479.4400 637.2000 1480.4200 638.1800Q1481.4000 639.1600 1481.4000 640.5600L1481.4000 640.5600L1481.4000 646.3000Q1485.0400 641.8200 1490.7100 638.8100Q1496.3800 635.8000 1504.7800 635.8000L1504.7800 635.8000Q1513.3200 635.8000 1519.6200 639.6500Q1525.9200 643.5000 1529.3500 650.5000Q1532.7800 657.5000 1532.7800 667.3000L1532.7800 667.3000L1532.7800 706.6400Q1532.7800 708.0400 1531.8000 709.0200Q1530.8200 710 1529.4200 710L1529.4200 710L1517.1000 710Q1515.7000 710 1514.7200 709.0200Q1513.7400 708.0400 1513.7400 706.6400L1513.7400 706.6400L1513.7400 668.1400Q1513.7400 660.0200 1509.7500 655.4000Q1505.7600 650.7800 1498.2000 650.7800L1498.2000 650.7800Q1490.9200 650.7800 1486.5800 655.4000Q1482.2400 660.0200 1482.2400 668.1400L1482.2400 668.1400L1482.2400 706.6400Q1482.2400 708.0400 1481.2600 709.0200Q1480.2800 710 1478.8800 710L1478.8800 710Z" id="title"/></g></svg>