<svg xmlns="http://www.w3.org/2000/svg" version="1.1" xmlns:xlink="http://www.w3.org/1999/xlink" xmlns:svgjs="http://svgjs.dev/svgjs" viewBox="0 0 1920 1080" id="10b24044-00df-4e2f-99a5-f89162157a0f"><g><rect width="1920" height="1080" fill="#4e0250"/></g><g fill="#645986"><path d="M2118.71 322.496C1962.88 381.696 1840.11 286.062 1731.68 201.315C1619.52 113.904 1545.13 63.1995 1455.92 97.0926C1366.11 131.212 1344.15 218.52 1318.91 358.127C1294.11 493.487 1265.8 646.514 1109.97 705.714C954.144 764.914 831.375 669.28 722.951 584.533C610.793 497.122 536.401 446.418 447.185 480.311C357.375 514.43 335.414 601.738 310.18 741.346C285.375 876.706 257.072 1029.73 101.242 1088.93C-54.5876 1148.13 -177.357 1052.5 -285.78 967.751C-397.344 880.114 -471.736 829.41 -561.547 863.529L-602 757.045C-446.17 697.845 -323.401 793.479 -214.977 878.225C-102.819 965.637 -28.4265 1016.34 60.7891 982.448C150.6 948.329 172.56 861.02 197.794 721.413C222.599 586.053 250.307 433.253 406.732 373.827C562.562 314.627 685.331 410.261 793.754 495.007C905.913 582.419 980.305 633.123 1069.52 599.23C1159.33 565.111 1181.29 477.802 1206.53 338.195C1231.33 202.835 1259.04 50.0347 1415.46 -9.39121C1571.89 -68.8172 1694.06 27.043 1802.49 111.789C1914.64 199.201 1989.04 249.905 2078.25 216.012L2118.71 322.496Z"/></g><g fill="#ffffff" opacity="0.2"><path d="M960.041 79C960.041 79 971.953 194.974 981.699 214.484C992.529 237.245 1064 247 1064 247C1064 247 994.694 258.923 983.865 280.6C973.036 301.194 958.959 415 958.959 415C958.959 415 945.964 296.858 935.135 275.181C925.389 255.671 855 245.916 855 245.916C855 245.916 925.389 233.994 936.218 212.316C947.047 192.806 960.041 79 960.041 79Z"/><path d="M561.041 687C561.041 687 572.953 802.974 582.699 822.484C593.529 845.245 665 855 665 855C665 855 595.694 866.923 584.865 888.6C574.036 909.194 559.959 1023 559.959 1023C559.959 1023 546.964 904.858 536.135 883.181C526.389 863.671 456 853.916 456 853.916C456 853.916 526.389 841.994 537.218 820.316C548.047 800.806 561.041 687 561.041 687Z"/></g><g><path d="M178.635 139.281L184.422 144.246V166.626H215.704L219.958 172.147L215.69 177.397H184.422V198.795L178.635 203.747L173 198.795V144.232L178.635 139.281ZM195.554 195.68H219.406L223.397 200.915L219.143 206.45H195.554L191.7 201.342L195.554 195.68ZM196.382 138H219.129L223.383 143.52L219.129 148.77H196.659L192.115 143.677L196.382 138ZM323.155 148.628L328.251 154.291L323.155 159.968H246.13L241.172 154.291L246.13 148.628H323.155ZM237.043 172.147L241.849 167.893L246.669 172.147V178.393C246.669 188.879 249.417 197.515 261.668 197.515H264.14C275.147 197.515 281.197 189.86 281.197 177.952V172.005L285.879 167.75L290.699 171.862V178.379C290.699 189.007 293.723 196.946 305.56 196.946H307.618C319.178 196.946 321.235 187.869 321.373 177.952V171.578L326.056 167.608L331 171.72V178.094C330.862 191.838 327.285 207.574 308.032 207.574H305.974C294.552 207.574 288.365 202.324 285.892 195.808C283.006 202.466 275.299 208.286 264.844 208.286H262.358C242.553 208.286 237.194 195.964 237.056 178.663V172.147H237.043ZM276.391 274.744L273.642 267.089L280.796 264.969L305.974 276.721V252.491L311.07 248.095L316.291 252.491V281.829L325.641 286.226L328.251 293.311L320.959 296L276.391 274.744ZM321.235 223.011L328.113 226.27L325.917 233.497L264.002 263.119L256.571 260.146L259.596 252.776L321.235 223.011ZM231.905 263.404L237.954 268.512C237.402 286.51 222.403 296 204.669 296H202.874C194.062 296 183.759 292.6 177.157 286.083L177.834 278.855L184.298 278.002C189.118 282.256 195.858 285.229 202.183 285.229H204.117C216.091 285.229 225.303 280.136 226.27 268.085L231.905 263.404ZM226.256 251.638C225.704 239.16 216.629 234.209 204.103 234.209H202.169C194.739 234.209 189.104 237.182 184.284 241.436L177.834 240.583L177.143 233.355C183.745 226.696 192.957 223.58 202.597 223.58H204.517C222.403 223.58 237.402 232.942 237.94 251.211L231.891 256.176L226.256 251.638Z" fill="#ffffff"/></g><g fill="#ffffff" id="info-group"><path d="M167.0800 640L154.9000 640Q153.7800 640 152.8700 639.1600Q151.9600 638.3200 151.9600 637.0600L151.9600 637.0600Q151.9600 636.5000 152.2400 635.8000L152.2400 635.8000L185.9800 545.5000Q186.4000 544.1000 187.5900 543.0500Q188.7800 542 190.8800 542L190.8800 542L206.1400 542Q208.2400 542 209.3600 543.0500Q210.4800 544.1000 211.0400 545.5000L211.0400 545.5000L244.7800 635.8000Q244.9200 636.5000 244.9200 637.0600L244.9200 637.0600Q244.9200 638.3200 244.0800 639.1600Q243.2400 640 242.1200 640L242.1200 640L229.9400 640Q227.9800 640 227.0700 639.0900Q226.1600 638.1800 225.8800 637.3400L225.8800 637.3400L219.3000 620.2600L177.7200 620.2600L171.1400 637.3400Q170.8600 638.1800 169.9500 639.0900Q169.0400 640 167.0800 640L167.0800 640ZM198.4400 560.9000L182.6200 604.1600L214.4000 604.1600L198.4400 560.9000ZM283.2800 641.4000L283.2800 641.4000Q274.7400 641.4000 268.5100 637.5500Q262.2800 633.7000 258.9200 626.6300Q255.5600 619.5600 255.5600 609.9000L255.5600 609.9000L255.5600 570.5600Q255.5600 569.1600 256.5400 568.1800Q257.5200 567.2000 258.9200 567.2000L258.9200 567.2000L271.2400 567.2000Q272.7800 567.2000 273.6900 568.1800Q274.6000 569.1600 274.6000 570.5600L274.6000 570.5600L274.6000 609.0600Q274.6000 626.4200 289.8600 626.4200L289.8600 626.4200Q297.1400 626.4200 301.4100 621.8000Q305.6800 617.1800 305.6800 609.0600L305.6800 609.0600L305.6800 570.5600Q305.6800 569.1600 306.6600 568.1800Q307.6400 567.2000 309.0400 567.2000L309.0400 567.2000L321.3600 567.2000Q322.7600 567.2000 323.7400 568.1800Q324.7200 569.1600 324.7200 570.5600L324.7200 570.5600L324.7200 636.6400Q324.7200 638.0400 323.7400 639.0200Q322.7600 640 321.3600 640L321.3600 640L310.0200 640Q308.4800 640 307.5700 639.0200Q306.6600 638.0400 306.6600 636.6400L306.6600 636.6400L306.6600 630.9000Q302.8800 635.8000 297.2800 638.6000Q291.6800 641.4000 283.2800 641.4000ZM358.3200 640L346.7000 640Q345.3000 640 344.3200 639.0200Q343.3400 638.0400 343.3400 636.6400L343.3400 636.6400L343.3400 543.9600Q343.3400 542.5600 344.3200 541.5800Q345.3000 540.6000 346.7000 540.6000L346.7000 540.6000L358.3200 540.6000Q359.7200 540.6000 360.7000 541.5800Q361.6800 542.5600 361.6800 543.9600L361.6800 543.9600L361.6800 636.6400Q361.6800 638.0400 360.7000 639.0200Q359.7200 640 358.3200 640L358.3200 640ZM401.4400 641.4000L401.4400 641.4000Q394.1600 641.4000 388.2800 638.5300Q382.4000 635.6600 378.9700 630.8300Q375.5400 626 375.5400 619.9800L375.5400 619.9800Q375.5400 610.1800 383.5200 604.3700Q391.5000 598.5600 404.3800 596.6000L404.3800 596.6000L423.5600 593.8000L423.5600 590.8600Q423.5600 584.9800 420.6200 581.7600Q417.6800 578.5400 410.5400 578.5400L410.5400 578.5400Q405.5000 578.5400 402.3500 580.5700Q399.2000 582.6000 397.6600 585.9600L397.6600 585.9600Q396.5400 587.7800 394.4400 587.7800L394.4400 587.7800L383.3800 587.7800Q381.8400 587.7800 381.0700 586.9400Q380.3000 586.1000 380.3000 584.7000L380.3000 584.7000Q380.4400 582.4600 382.1900 579.2400Q383.9400 576.0200 387.5100 573.0100Q391.0800 570 396.8200 567.9000Q402.5600 565.8000 410.6800 565.8000L410.6800 565.8000Q419.5000 565.8000 425.5900 567.9700Q431.6800 570.1400 435.3200 573.7800Q438.9600 577.4200 440.6400 582.3200Q442.3200 587.2200 442.3200 592.6800L442.3200 592.6800L442.3200 636.6400Q442.3200 638.0400 441.3400 639.0200Q440.3600 640 438.9600 640L438.9600 640L427.6200 640Q426.0800 640 425.1700 639.0200Q424.2600 638.0400 424.2600 636.6400L424.2600 636.6400L424.2600 631.1800Q422.4400 633.7000 419.3600 636.0800Q416.2800 638.4600 411.8700 639.9300Q407.4600 641.4000 401.4400 641.4000ZM406.2000 628.1000L406.2000 628.1000Q411.1000 628.1000 415.0900 626Q419.0800 623.9000 421.3900 619.4900Q423.7000 615.0800 423.7000 608.3600L423.7000 608.3600L423.7000 605.4200L409.7000 607.6600Q401.4400 608.9200 397.3800 611.7200Q393.3200 614.5200 393.3200 618.5800L393.3200 618.5800Q393.3200 621.6600 395.2100 623.8300Q397.1000 626 400.0400 627.0500Q402.9800 628.1000 406.2000 628.1000ZM521.8400 640L508.8200 640Q507.5600 640 506.7200 639.0900Q505.8800 638.1800 505.8800 636.9200L505.8800 636.9200Q505.8800 636.2200 506.0900 635.8000Q506.3000 635.3800 506.4400 635.1000L506.4400 635.1000L527.0200 606.6800Q524.3600 607.3800 521.2800 607.2400L521.2800 607.2400Q514.1400 607.1000 508.0500 604.5100Q501.9600 601.9200 497.4100 597.5100Q492.8600 593.1000 490.2700 587.2900Q487.6800 581.4800 487.6800 574.6200L487.6800 574.6200Q487.6800 568.3200 490.0600 562.2300Q492.4400 556.1400 497.1300 551.2400Q501.8200 546.3400 508.8900 543.4700Q515.9600 540.6000 525.4800 540.6000L525.4800 540.6000Q534.8600 540.6000 542.0000 543.2600Q549.1400 545.9200 553.9700 550.6100Q558.8000 555.3000 561.2500 561.3200Q563.7000 567.3400 563.7000 574.0600L563.7000 574.0600Q563.7000 580.0800 561.7400 585.2600Q559.7800 590.4400 556.9100 594.7100Q554.0400 598.9800 551.2400 603.0400L551.2400 603.0400L526.6000 637.2000Q526.0400 637.9000 524.9900 638.9500Q523.9400 640 521.8400 640L521.8400 640ZM525.6200 592.4000L525.6200 592.4000Q530.6600 592.4000 534.7900 590.2300Q538.9200 588.0600 541.3700 584.0700Q543.8200 580.0800 543.8200 574.6200L543.8200 574.6200Q543.8200 569.0200 541.3700 565.0300Q538.9200 561.0400 534.7200 558.8700Q530.5200 556.7000 525.6200 556.7000L525.6200 556.7000Q520.5800 556.7000 516.4500 558.8700Q512.3200 561.0400 509.8700 565.0300Q507.4200 569.0200 507.4200 574.6200L507.4200 574.6200Q507.4200 580.0800 509.8700 584.0700Q512.3200 588.0600 516.4500 590.2300Q520.5800 592.4000 525.6200 592.4000ZM595.4800 591L581.6200 591Q580.2200 591 579.2400 590.0200Q578.2600 589.0400 578.2600 587.6400L578.2600 587.6400L578.2600 574.3400Q578.2600 572.8000 579.2400 571.8200Q580.2200 570.8400 581.6200 570.8400L581.6200 570.8400L595.4800 570.8400Q597.0200 570.8400 598 571.8200Q598.9800 572.8000 598.9800 574.3400L598.9800 574.3400L598.9800 587.6400Q598.9800 589.0400 598 590.0200Q597.0200 591 595.4800 591L595.4800 591ZM595.4800 640L581.6200 640Q580.2200 640 579.2400 639.0200Q578.2600 638.0400 578.2600 636.6400L578.2600 636.6400L578.2600 623.3400Q578.2600 621.8000 579.2400 620.8200Q580.2200 619.8400 581.6200 619.8400L581.6200 619.8400L595.4800 619.8400Q597.0200 619.8400 598 620.8200Q598.9800 621.8000 598.9800 623.3400L598.9800 623.3400L598.9800 636.6400Q598.9800 638.0400 598 639.0200Q597.0200 640 595.4800 640L595.4800 640ZM688.5800 641.4000L688.5800 641.4000Q675.5600 641.4000 666.5300 636.8500Q657.5000 632.3000 652.7400 623.8300Q647.9800 615.3600 647.4200 603.4600L647.4200 603.4600Q647.2800 597.7200 647.2800 591.1400Q647.2800 584.5600 647.4200 578.5400L647.4200 578.5400Q647.9800 566.7800 652.8100 558.2400Q657.6400 549.7000 666.6700 545.1500Q675.7000 540.6000 688.5800 540.6000L688.5800 540.6000Q698.1000 540.6000 705.6600 543.1200Q713.2200 545.6400 718.5400 550.0500Q723.8600 554.4600 726.8000 560.3400Q729.7400 566.2200 729.8800 573.0800L729.8800 573.0800Q730.0200 574.3400 729.1100 575.1800Q728.2000 576.0200 726.9400 576.0200L726.9400 576.0200L713.6400 576.0200Q712.1000 576.0200 711.1200 575.2500Q710.1400 574.4800 709.7200 572.6600L709.7200 572.6600Q707.4800 563.4200 702.0200 560.0600Q696.5600 556.7000 688.4400 556.7000L688.4400 556.7000Q679.0600 556.7000 673.4600 561.9500Q667.8600 567.2000 667.4400 579.2400L667.4400 579.2400Q667.0200 590.7200 667.4400 602.7600L667.4400 602.7600Q667.8600 614.8000 673.4600 620.0500Q679.0600 625.3000 688.4400 625.3000L688.4400 625.3000Q696.5600 625.3000 702.0900 621.8700Q707.6200 618.4400 709.7200 609.3400L709.7200 609.3400Q710.1400 607.3800 711.1200 606.6800Q712.1000 605.9800 713.6400 605.9800L713.6400 605.9800L726.9400 605.9800Q728.2000 605.9800 729.1100 606.8200Q730.0200 607.6600 729.8800 608.9200L729.8800 608.9200Q729.7400 615.7800 726.8000 621.6600Q723.8600 627.5400 718.5400 631.9500Q713.2200 636.3600 705.6600 638.8800Q698.1000 641.4000 688.5800 641.4000ZM777.0600 641.4000L777.0600 641.4000Q765.8600 641.4000 758.2300 637.4800Q750.6000 633.5600 746.6100 626.4200Q742.6200 619.2800 742.0600 609.7600L742.0600 609.7600Q741.9200 607.2400 741.9200 603.6000Q741.9200 599.9600 742.0600 597.4400L742.0600 597.4400Q742.6200 587.7800 746.7500 580.7100Q750.8800 573.6400 758.5100 569.7200Q766.1400 565.8000 777.0600 565.8000L777.0600 565.8000Q787.9800 565.8000 795.6100 569.7200Q803.2400 573.6400 807.3700 580.7100Q811.5000 587.7800 812.0600 597.4400L812.0600 597.4400Q812.2000 599.9600 812.2000 603.6000Q812.2000 607.2400 812.0600 609.7600L812.0600 609.7600Q811.5000 619.2800 807.5100 626.4200Q803.5200 633.5600 795.8900 637.4800Q788.2600 641.4000 777.0600 641.4000ZM777.0600 627.5400L777.0600 627.5400Q784.4800 627.5400 788.5400 622.8500Q792.6000 618.1600 793.0200 609.0600L793.0200 609.0600Q793.1600 606.9600 793.1600 603.6000Q793.1600 600.2400 793.0200 598.1400L793.0200 598.1400Q792.6000 589.0400 788.5400 584.3500Q784.4800 579.6600 777.0600 579.6600L777.0600 579.6600Q769.6400 579.6600 765.5800 584.3500Q761.5200 589.0400 761.1000 598.1400L761.1000 598.1400Q760.9600 600.2400 760.9600 603.6000Q760.9600 606.9600 761.1000 609.0600L761.1000 609.0600Q761.5200 618.1600 765.5800 622.8500Q769.6400 627.5400 777.0600 627.5400ZM842.8600 640L831.1000 640Q829.7000 640 828.7200 639.0200Q827.7400 638.0400 827.7400 636.6400L827.7400 636.6400L827.7400 570.5600Q827.7400 569.1600 828.7200 568.1800Q829.7000 567.2000 831.1000 567.2000L831.1000 567.2000L842.0200 567.2000Q843.4200 567.2000 844.4000 568.1800Q845.3800 569.1600 845.3800 570.5600L845.3800 570.5600L845.3800 575.3200Q848.3200 571.4000 853.2900 568.6700Q858.2600 565.9400 865.1200 565.8000L865.1200 565.8000Q881.0800 565.5200 887.3800 578.2600L887.3800 578.2600Q890.6000 572.6600 896.6900 569.2300Q902.7800 565.8000 910.2000 565.8000L910.2000 565.8000Q917.4800 565.8000 923.4300 569.1600Q929.3800 572.5200 932.8100 579.3100Q936.2400 586.1000 936.2400 596.4600L936.2400 596.4600L936.2400 636.6400Q936.2400 638.0400 935.2600 639.0200Q934.2800 640 932.8800 640L932.8800 640L921.4000 640Q920.0000 640 919.0200 639.0200Q918.0400 638.0400 918.0400 636.6400L918.0400 636.6400L918.0400 597.5800Q918.0400 591.2800 916.2200 587.5700Q914.4000 583.8600 911.3200 582.3200Q908.2400 580.7800 904.4600 580.7800L904.4600 580.7800Q901.3800 580.7800 898.3000 582.3200Q895.2200 583.8600 893.2600 587.5700Q891.3000 591.2800 891.3000 597.5800L891.3000 597.5800L891.3000 636.6400Q891.3000 638.0400 890.3200 639.0200Q889.3400 640 887.9400 640L887.9400 640L876.4600 640Q875.0600 640 874.0800 639.0200Q873.1000 638.0400 873.1000 636.6400L873.1000 636.6400L873.1000 597.5800Q873.1000 591.2800 871.1400 587.5700Q869.1800 583.8600 866.1000 582.3200Q863.0200 580.7800 859.5200 580.7800L859.5200 580.7800Q856.3000 580.7800 853.2200 582.3900Q850.1400 584 848.1800 587.6400Q846.2200 591.2800 846.2200 597.5800L846.2200 597.5800L846.2200 636.6400Q846.2200 638.0400 845.2400 639.0200Q844.2600 640 842.8600 640L842.8600 640ZM969.1400 640L957.3800 640Q955.9800 640 955.0000 639.0200Q954.0200 638.0400 954.0200 636.6400L954.0200 636.6400L954.0200 570.5600Q954.0200 569.1600 955.0000 568.1800Q955.9800 567.2000 957.3800 567.2000L957.3800 567.2000L968.3000 567.2000Q969.7000 567.2000 970.6800 568.1800Q971.6600 569.1600 971.6600 570.5600L971.6600 570.5600L971.6600 575.3200Q974.6000 571.4000 979.5700 568.6700Q984.5400 565.9400 991.4000 565.8000L991.4000 565.8000Q1007.3600 565.5200 1013.6600 578.2600L1013.6600 578.2600Q1016.8800 572.6600 1022.9700 569.2300Q1029.0600 565.8000 1036.4800 565.8000L1036.4800 565.8000Q1043.7600 565.8000 1049.7100 569.1600Q1055.6600 572.5200 1059.0900 579.3100Q1062.5200 586.1000 1062.5200 596.4600L1062.5200 596.4600L1062.5200 636.6400Q1062.5200 638.0400 1061.5400 639.0200Q1060.5600 640 1059.1600 640L1059.1600 640L1047.6800 640Q1046.2800 640 1045.3000 639.0200Q1044.3200 638.0400 1044.3200 636.6400L1044.3200 636.6400L1044.3200 597.5800Q1044.3200 591.2800 1042.5000 587.5700Q1040.6800 583.8600 1037.6000 582.3200Q1034.5200 580.7800 1030.7400 580.7800L1030.7400 580.7800Q1027.6600 580.7800 1024.5800 582.3200Q1021.5000 583.8600 1019.5400 587.5700Q1017.5800 591.2800 1017.5800 597.5800L1017.5800 597.5800L1017.5800 636.6400Q1017.5800 638.0400 1016.6000 639.0200Q1015.6200 640 1014.2200 640L1014.2200 640L1002.7400 640Q1001.3400 640 1000.3600 639.0200Q999.3800 638.0400 999.3800 636.6400L999.3800 636.6400L999.3800 597.5800Q999.3800 591.2800 997.4200 587.5700Q995.4600 583.8600 992.3800 582.3200Q989.3000 580.7800 985.8000 580.7800L985.8000 580.7800Q982.5800 580.7800 979.5000 582.3900Q976.4200 584 974.4600 587.6400Q972.5000 591.2800 972.5000 597.5800L972.5000 597.5800L972.5000 636.6400Q972.5000 638.0400 971.5200 639.0200Q970.5400 640 969.1400 640L969.1400 640ZM1107.3200 641.4000L1107.3200 641.4000Q1098.7800 641.4000 1092.5500 637.5500Q1086.3200 633.7000 1082.9600 626.6300Q1079.6000 619.5600 1079.6000 609.9000L1079.6000 609.9000L1079.6000 570.5600Q1079.6000 569.1600 1080.5800 568.1800Q1081.5600 567.2000 1082.9600 567.2000L1082.9600 567.2000L1095.2800 567.2000Q1096.8200 567.2000 1097.7300 568.1800Q1098.6400 569.1600 1098.6400 570.5600L1098.6400 570.5600L1098.6400 609.0600Q1098.6400 626.4200 1113.9000 626.4200L1113.9000 626.4200Q1121.1800 626.4200 1125.4500 621.8000Q1129.7200 617.1800 1129.7200 609.0600L1129.7200 609.0600L1129.7200 570.5600Q1129.7200 569.1600 1130.7000 568.1800Q1131.6800 567.2000 1133.0800 567.2000L1133.0800 567.2000L1145.4000 567.2000Q1146.8000 567.2000 1147.7800 568.1800Q1148.7600 569.1600 1148.7600 570.5600L1148.7600 570.5600L1148.7600 636.6400Q1148.7600 638.0400 1147.7800 639.0200Q1146.8000 640 1145.4000 640L1145.4000 640L1134.0600 640Q1132.5200 640 1131.6100 639.0200Q1130.7000 638.0400 1130.7000 636.6400L1130.7000 636.6400L1130.7000 630.9000Q1126.9200 635.8000 1121.3200 638.6000Q1115.7200 641.4000 1107.3200 641.4000ZM1182.9200 640L1170.6000 640Q1169.2000 640 1168.2200 639.0200Q1167.2400 638.0400 1167.2400 636.6400L1167.2400 636.6400L1167.2400 570.5600Q1167.2400 569.1600 1168.2200 568.1800Q1169.2000 567.2000 1170.6000 567.2000L1170.6000 567.2000L1182.0800 567.2000Q1183.4800 567.2000 1184.4600 568.1800Q1185.4400 569.1600 1185.4400 570.5600L1185.4400 570.5600L1185.4400 576.3000Q1189.0800 571.8200 1194.7500 568.8100Q1200.4200 565.8000 1208.8200 565.8000L1208.8200 565.8000Q1217.3600 565.8000 1223.6600 569.6500Q1229.9600 573.5000 1233.3900 580.5000Q1236.8200 587.5000 1236.8200 597.3000L1236.8200 597.3000L1236.8200 636.6400Q1236.8200 638.0400 1235.8400 639.0200Q1234.8600 640 1233.4600 640L1233.4600 640L1221.1400 640Q1219.7400 640 1218.7600 639.0200Q1217.7800 638.0400 1217.7800 636.6400L1217.7800 636.6400L1217.7800 598.1400Q1217.7800 590.0200 1213.7900 585.4000Q1209.8000 580.7800 1202.2400 580.7800L1202.2400 580.7800Q1194.9600 580.7800 1190.6200 585.4000Q1186.2800 590.0200 1186.2800 598.1400L1186.2800 598.1400L1186.2800 636.6400Q1186.2800 638.0400 1185.3000 639.0200Q1184.3200 640 1182.9200 640L1182.9200 640ZM1269.5800 640L1257.9600 640Q1256.5600 640 1255.5800 639.0200Q1254.6000 638.0400 1254.6000 636.6400L1254.6000 636.6400L1254.6000 570.5600Q1254.6000 569.1600 1255.5800 568.1800Q1256.5600 567.2000 1257.9600 567.2000L1257.9600 567.2000L1269.5800 567.2000Q1271.1200 567.2000 1272.0300 568.1800Q1272.9400 569.1600 1272.9400 570.5600L1272.9400 570.5600L1272.9400 636.6400Q1272.9400 638.0400 1272.0300 639.0200Q1271.1200 640 1269.5800 640L1269.5800 640ZM1270.1400 555.1600L1257.4000 555.1600Q1256.0000 555.1600 1255.0200 554.1800Q1254.0400 553.2000 1254.0400 551.8000L1254.0400 551.8000L1254.0400 541.7200Q1254.0400 540.3200 1255.0200 539.3400Q1256.0000 538.3600 1257.4000 538.3600L1257.4000 538.3600L1270.1400 538.3600Q1271.6800 538.3600 1272.6600 539.3400Q1273.6400 540.3200 1273.6400 541.7200L1273.6400 541.7200L1273.6400 551.8000Q1273.6400 553.2000 1272.6600 554.1800Q1271.6800 555.1600 1270.1400 555.1600L1270.1400 555.1600ZM1335.8000 640L1324.4600 640Q1316.0600 640 1310.3200 637.0600Q1304.5800 634.1200 1301.7800 628.3100Q1298.9800 622.5000 1298.9800 613.8200L1298.9800 613.8200L1298.9800 582.0400L1287.9200 582.0400Q1286.5200 582.0400 1285.5400 581.0600Q1284.5600 580.0800 1284.5600 578.5400L1284.5600 578.5400L1284.5600 570.5600Q1284.5600 569.1600 1285.5400 568.1800Q1286.5200 567.2000 1287.9200 567.2000L1287.9200 567.2000L1298.9800 567.2000L1298.9800 543.9600Q1298.9800 542.5600 1299.8900 541.5800Q1300.8000 540.6000 1302.3400 540.6000L1302.3400 540.6000L1313.6800 540.6000Q1315.0800 540.6000 1316.0600 541.5800Q1317.0400 542.5600 1317.0400 543.9600L1317.0400 543.9600L1317.0400 567.2000L1334.5400 567.2000Q1335.9400 567.2000 1336.9200 568.1800Q1337.9000 569.1600 1337.9000 570.5600L1337.9000 570.5600L1337.9000 578.5400Q1337.9000 580.0800 1336.9200 581.0600Q1335.9400 582.0400 1334.5400 582.0400L1334.5400 582.0400L1317.0400 582.0400L1317.0400 612.4200Q1317.0400 618.1600 1319.0700 621.3800Q1321.1000 624.6000 1326.1400 624.6000L1326.1400 624.6000L1335.8000 624.6000Q1337.2000 624.6000 1338.1800 625.5800Q1339.1600 626.5600 1339.1600 627.9600L1339.1600 627.9600L1339.1600 636.6400Q1339.1600 638.0400 1338.1800 639.0200Q1337.2000 640 1335.8000 640L1335.8000 640ZM1375.8400 666.6000L1364.7800 666.6000Q1363.6600 666.6000 1362.8200 665.7600Q1361.9800 664.9200 1361.9800 663.8000L1361.9800 663.8000Q1361.9800 663.2400 1362.0500 662.7500Q1362.1200 662.2600 1362.5400 661.5600L1362.5400 661.5600L1373.4600 635.6600L1346.5800 572.2400Q1346.0200 570.8400 1346.0200 570.2800L1346.0200 570.2800Q1346.1600 569.0200 1347 568.1100Q1347.8400 567.2000 1349.1000 567.2000L1349.1000 567.2000L1360.4400 567.2000Q1362.1200 567.2000 1362.9600 568.0400Q1363.8000 568.8800 1364.2200 569.8600L1364.2200 569.8600L1382.8400 615.6400L1402.0200 569.8600Q1402.4400 568.7400 1403.2800 567.9700Q1404.1200 567.2000 1405.8000 567.2000L1405.8000 567.2000L1417 567.2000Q1418.1200 567.2000 1419.0300 568.0400Q1419.9400 568.8800 1419.9400 570L1419.9400 570Q1419.9400 570.8400 1419.3800 572.2400L1419.3800 572.2400L1379.7600 663.9400Q1379.2000 665.0600 1378.3600 665.8300Q1377.5200 666.6000 1375.8400 666.6000L1375.8400 666.6000Z" id="title"/></g></svg>