<svg xmlns="http://www.w3.org/2000/svg" version="1.1" xmlns:xlink="http://www.w3.org/1999/xlink" xmlns:svgjs="http://svgjs.dev/svgjs" viewBox="0 0 1920 1080" id="29a0862b-b724-4f99-ac73-5486504fb338"><g><rect width="1920" height="1080" fill="#4e0250"/></g><g fill="#645986"><path d="M2118.71 322.496C1962.88 381.696 1840.11 286.062 1731.68 201.315C1619.52 113.904 1545.13 63.1995 1455.92 97.0926C1366.11 131.212 1344.15 218.52 1318.91 358.127C1294.11 493.487 1265.8 646.514 1109.97 705.714C954.144 764.914 831.375 669.28 722.951 584.533C610.793 497.122 536.401 446.418 447.185 480.311C357.375 514.43 335.414 601.738 310.18 741.346C285.375 876.706 257.072 1029.73 101.242 1088.93C-54.5876 1148.13 -177.357 1052.5 -285.78 967.751C-397.344 880.114 -471.736 829.41 -561.547 863.529L-602 757.045C-446.17 697.845 -323.401 793.479 -214.977 878.225C-102.819 965.637 -28.4265 1016.34 60.7891 982.448C150.6 948.329 172.56 861.02 197.794 721.413C222.599 586.053 250.307 433.253 406.732 373.827C562.562 314.627 685.331 410.261 793.754 495.007C905.913 582.419 980.305 633.123 1069.52 599.23C1159.33 565.111 1181.29 477.802 1206.53 338.195C1231.33 202.835 1259.04 50.0347 1415.46 -9.39121C1571.89 -68.8172 1694.06 27.043 1802.49 111.789C1914.64 199.201 1989.04 249.905 2078.25 216.012L2118.71 322.496Z"/></g><g fill="#ffffff" opacity="0.2"><path d="M960.041 79C960.041 79 971.953 194.974 981.699 214.484C992.529 237.245 1064 247 1064 247C1064 247 994.694 258.923 983.865 280.6C973.036 301.194 958.959 415 958.959 415C958.959 415 945.964 296.858 935.135 275.181C925.389 255.671 855 245.916 855 245.916C855 245.916 925.389 233.994 936.218 212.316C947.047 192.806 960.041 79 960.041 79Z"/><path d="M561.041 687C561.041 687 572.953 802.974 582.699 822.484C593.529 845.245 665 855 665 855C665 855 595.694 866.923 584.865 888.6C574.036 909.194 559.959 1023 559.959 1023C559.959 1023 546.964 904.858 536.135 883.181C526.389 863.671 456 853.916 456 853.916C456 853.916 526.389 841.994 537.218 820.316C548.047 800.806 561.041 687 561.041 687Z"/></g><g><path d="M178.635 139.281L184.422 144.246V166.626H215.704L219.958 172.147L215.69 177.397H184.422V198.795L178.635 203.747L173 198.795V144.232L178.635 139.281ZM195.554 195.68H219.406L223.397 200.915L219.143 206.45H195.554L191.7 201.342L195.554 195.68ZM196.382 138H219.129L223.383 143.52L219.129 148.77H196.659L192.115 143.677L196.382 138ZM323.155 148.628L328.251 154.291L323.155 159.968H246.13L241.172 154.291L246.13 148.628H323.155ZM237.043 172.147L241.849 167.893L246.669 172.147V178.393C246.669 188.879 249.417 197.515 261.668 197.515H264.14C275.147 197.515 281.197 189.86 281.197 177.952V172.005L285.879 167.75L290.699 171.862V178.379C290.699 189.007 293.723 196.946 305.56 196.946H307.618C319.178 196.946 321.235 187.869 321.373 177.952V171.578L326.056 167.608L331 171.72V178.094C330.862 191.838 327.285 207.574 308.032 207.574H305.974C294.552 207.574 288.365 202.324 285.892 195.808C283.006 202.466 275.299 208.286 264.844 208.286H262.358C242.553 208.286 237.194 195.964 237.056 178.663V172.147H237.043ZM276.391 274.744L273.642 267.089L280.796 264.969L305.974 276.721V252.491L311.07 248.095L316.291 252.491V281.829L325.641 286.226L328.251 293.311L320.959 296L276.391 274.744ZM321.235 223.011L328.113 226.27L325.917 233.497L264.002 263.119L256.571 260.146L259.596 252.776L321.235 223.011ZM231.905 263.404L237.954 268.512C237.402 286.51 222.403 296 204.669 296H202.874C194.062 296 183.759 292.6 177.157 286.083L177.834 278.855L184.298 278.002C189.118 282.256 195.858 285.229 202.183 285.229H204.117C216.091 285.229 225.303 280.136 226.27 268.085L231.905 263.404ZM226.256 251.638C225.704 239.16 216.629 234.209 204.103 234.209H202.169C194.739 234.209 189.104 237.182 184.284 241.436L177.834 240.583L177.143 233.355C183.745 226.696 192.957 223.58 202.597 223.58H204.517C222.403 223.58 237.402 232.942 237.94 251.211L231.891 256.176L226.256 251.638Z" fill="#ffffff"/></g><g fill="#ffffff" id="info-group"><path d="M167.0800 570L154.9000 570Q153.7800 570 152.8700 569.1600Q151.9600 568.3200 151.9600 567.0600L151.9600 567.0600Q151.9600 566.5000 152.2400 565.8000L152.2400 565.8000L185.9800 475.5000Q186.4000 474.1000 187.5900 473.0500Q188.7800 472 190.8800 472L190.8800 472L206.1400 472Q208.2400 472 209.3600 473.0500Q210.4800 474.1000 211.0400 475.5000L211.0400 475.5000L244.7800 565.8000Q244.9200 566.5000 244.9200 567.0600L244.9200 567.0600Q244.9200 568.3200 244.0800 569.1600Q243.2400 570 242.1200 570L242.1200 570L229.9400 570Q227.9800 570 227.0700 569.0900Q226.1600 568.1800 225.8800 567.3400L225.8800 567.3400L219.3000 550.2600L177.7200 550.2600L171.1400 567.3400Q170.8600 568.1800 169.9500 569.0900Q169.0400 570 167.0800 570L167.0800 570ZM198.4400 490.9000L182.6200 534.1600L214.4000 534.1600L198.4400 490.9000ZM283.2800 571.4000L283.2800 571.4000Q274.7400 571.4000 268.5100 567.5500Q262.2800 563.7000 258.9200 556.6300Q255.5600 549.5600 255.5600 539.9000L255.5600 539.9000L255.5600 500.5600Q255.5600 499.1600 256.5400 498.1800Q257.5200 497.2000 258.9200 497.2000L258.9200 497.2000L271.2400 497.2000Q272.7800 497.2000 273.6900 498.1800Q274.6000 499.1600 274.6000 500.5600L274.6000 500.5600L274.6000 539.0600Q274.6000 556.4200 289.8600 556.4200L289.8600 556.4200Q297.1400 556.4200 301.4100 551.8000Q305.6800 547.1800 305.6800 539.0600L305.6800 539.0600L305.6800 500.5600Q305.6800 499.1600 306.6600 498.1800Q307.6400 497.2000 309.0400 497.2000L309.0400 497.2000L321.3600 497.2000Q322.7600 497.2000 323.7400 498.1800Q324.7200 499.1600 324.7200 500.5600L324.7200 500.5600L324.7200 566.6400Q324.7200 568.0400 323.7400 569.0200Q322.7600 570 321.3600 570L321.3600 570L310.0200 570Q308.4800 570 307.5700 569.0200Q306.6600 568.0400 306.6600 566.6400L306.6600 566.6400L306.6600 560.9000Q302.8800 565.8000 297.2800 568.6000Q291.6800 571.4000 283.2800 571.4000ZM358.3200 570L346.7000 570Q345.3000 570 344.3200 569.0200Q343.3400 568.0400 343.3400 566.6400L343.3400 566.6400L343.3400 473.9600Q343.3400 472.5600 344.3200 471.5800Q345.3000 470.6000 346.7000 470.6000L346.7000 470.6000L358.3200 470.6000Q359.7200 470.6000 360.7000 471.5800Q361.6800 472.5600 361.6800 473.9600L361.6800 473.9600L361.6800 566.6400Q361.6800 568.0400 360.7000 569.0200Q359.7200 570 358.3200 570L358.3200 570ZM401.4400 571.4000L401.4400 571.4000Q394.1600 571.4000 388.2800 568.5300Q382.4000 565.6600 378.9700 560.8300Q375.5400 556 375.5400 549.9800L375.5400 549.9800Q375.5400 540.1800 383.5200 534.3700Q391.5000 528.5600 404.3800 526.6000L404.3800 526.6000L423.5600 523.8000L423.5600 520.8600Q423.5600 514.9800 420.6200 511.7600Q417.6800 508.5400 410.5400 508.5400L410.5400 508.5400Q405.5000 508.5400 402.3500 510.5700Q399.2000 512.6000 397.6600 515.9600L397.6600 515.9600Q396.5400 517.7800 394.4400 517.7800L394.4400 517.7800L383.3800 517.7800Q381.8400 517.7800 381.0700 516.9400Q380.3000 516.1000 380.3000 514.7000L380.3000 514.7000Q380.4400 512.4600 382.1900 509.2400Q383.9400 506.0200 387.5100 503.0100Q391.0800 500 396.8200 497.9000Q402.5600 495.8000 410.6800 495.8000L410.6800 495.8000Q419.5000 495.8000 425.5900 497.9700Q431.6800 500.1400 435.3200 503.7800Q438.9600 507.4200 440.6400 512.3200Q442.3200 517.2200 442.3200 522.6800L442.3200 522.6800L442.3200 566.6400Q442.3200 568.0400 441.3400 569.0200Q440.3600 570 438.9600 570L438.9600 570L427.6200 570Q426.0800 570 425.1700 569.0200Q424.2600 568.0400 424.2600 566.6400L424.2600 566.6400L424.2600 561.1800Q422.4400 563.7000 419.3600 566.0800Q416.2800 568.4600 411.8700 569.9300Q407.4600 571.4000 401.4400 571.4000ZM406.2000 558.1000L406.2000 558.1000Q411.1000 558.1000 415.0900 556Q419.0800 553.9000 421.3900 549.4900Q423.7000 545.0800 423.7000 538.3600L423.7000 538.3600L423.7000 535.4200L409.7000 537.6600Q401.4400 538.9200 397.3800 541.7200Q393.3200 544.5200 393.3200 548.5800L393.3200 548.5800Q393.3200 551.6600 395.2100 553.8300Q397.1000 556 400.0400 557.0500Q402.9800 558.1000 406.2000 558.1000ZM525.9000 571.5400L525.9000 571.5400Q513.8600 571.5400 505.6000 567.5500Q497.3400 563.5600 493.0700 557.1200Q488.8000 550.6800 488.5200 543.4000L488.5200 543.4000Q488.3800 542.1400 489.2900 541.3700Q490.2000 540.6000 491.4600 540.6000L491.4600 540.6000L504.4800 540.6000Q506.0200 540.6000 507.0700 541.2300Q508.1200 541.8600 508.6800 543.4000L508.6800 543.4000Q510.0800 547.6000 512.6700 550.2600Q515.2600 552.9200 518.6900 554.1800Q522.1200 555.4400 525.9000 555.4400L525.9000 555.4400Q530.9400 555.4400 535.0700 553.4100Q539.2000 551.3800 541.7200 547.3200Q544.2400 543.2600 544.2400 537.3800L544.2400 537.3800Q544.2400 532.2000 541.8600 528.4200Q539.4800 524.6400 535.3500 522.4700Q531.2200 520.3000 525.9000 520.3000L525.9000 520.3000Q521.9800 520.3000 519.4600 521.2800Q516.9400 522.2600 515.1900 523.5200Q513.4400 524.7800 512.1100 525.7600Q510.7800 526.7400 509.1000 526.7400L509.1000 526.7400L496.2200 526.7400Q494.9600 526.7400 494.0500 525.8300Q493.1400 524.9200 493.1400 523.6600L493.1400 523.6600L498.0400 475.7800Q498.1800 473.9600 499.3000 472.9800Q500.4200 472 501.9600 472L501.9600 472L554.6000 472Q556.0000 472 556.9800 472.9800Q557.9600 473.9600 557.9600 475.3600L557.9600 475.3600L557.9600 484.7400Q557.9600 486.1400 556.9800 487.1200Q556.0000 488.1000 554.6000 488.1000L554.6000 488.1000L514.1400 488.1000L511.9000 510.9200Q514.4200 509.2400 518.6200 507.7000Q522.8200 506.1600 530.2400 506.1600L530.2400 506.1600Q536.9600 506.1600 543.0500 508.3300Q549.1400 510.5000 553.9000 514.6300Q558.6600 518.7600 561.3900 524.5700Q564.1200 530.3800 564.1200 537.8000L564.1200 537.8000Q564.1200 548.0200 559.3600 555.5800Q554.6000 563.1400 546.0600 567.3400Q537.5200 571.5400 525.9000 571.5400ZM595.9000 521L582.0400 521Q580.6400 521 579.6600 520.0200Q578.6800 519.0400 578.6800 517.6400L578.6800 517.6400L578.6800 504.3400Q578.6800 502.8000 579.6600 501.8200Q580.6400 500.8400 582.0400 500.8400L582.0400 500.8400L595.9000 500.8400Q597.4400 500.8400 598.4200 501.8200Q599.4000 502.8000 599.4000 504.3400L599.4000 504.3400L599.4000 517.6400Q599.4000 519.0400 598.4200 520.0200Q597.4400 521 595.9000 521L595.9000 521ZM595.9000 570L582.0400 570Q580.6400 570 579.6600 569.0200Q578.6800 568.0400 578.6800 566.6400L578.6800 566.6400L578.6800 553.3400Q578.6800 551.8000 579.6600 550.8200Q580.6400 549.8400 582.0400 549.8400L582.0400 549.8400L595.9000 549.8400Q597.4400 549.8400 598.4200 550.8200Q599.4000 551.8000 599.4000 553.3400L599.4000 553.3400L599.4000 566.6400Q599.4000 568.0400 598.4200 569.0200Q597.4400 570 595.9000 570L595.9000 570ZM689.0000 570L676.1200 570Q674.7200 570 673.7400 569.0200Q672.7600 568.0400 672.7600 566.6400L672.7600 566.6400L672.7600 489.2200L646.8600 489.2200Q645.4600 489.2200 644.4800 488.2400Q643.5000 487.2600 643.5000 485.8600L643.5000 485.8600L643.5000 475.5000Q643.5000 473.9600 644.4800 472.9800Q645.4600 472 646.8600 472L646.8600 472L718.2600 472Q719.8000 472 720.7800 472.9800Q721.7600 473.9600 721.7600 475.5000L721.7600 475.5000L721.7600 485.8600Q721.7600 487.2600 720.7800 488.2400Q719.8000 489.2200 718.2600 489.2200L718.2600 489.2200L692.5000 489.2200L692.5000 566.6400Q692.5000 568.0400 691.5200 569.0200Q690.5400 570 689.0000 570L689.0000 570ZM750.1800 570L737.7200 570Q736.3200 570 735.3400 569.0200Q734.3600 568.0400 734.3600 566.6400L734.3600 566.6400L734.3600 473.9600Q734.3600 472.5600 735.3400 471.5800Q736.3200 470.6000 737.7200 470.6000L737.7200 470.6000L750.1800 470.6000Q751.7200 470.6000 752.6300 471.5800Q753.5400 472.5600 753.5400 473.9600L753.5400 473.9600L753.5400 505.8800Q757.3200 501.4000 762.7800 498.6000Q768.2400 495.8000 776.2200 495.8000L776.2200 495.8000Q784.7600 495.8000 791.1300 499.6500Q797.5000 503.5000 801.0000 510.5000Q804.5000 517.5000 804.5000 527.3000L804.5000 527.3000L804.5000 566.6400Q804.5000 568.0400 803.5200 569.0200Q802.5400 570 801.1400 570L801.1400 570L788.5400 570Q787.1400 570 786.1600 569.0200Q785.1800 568.0400 785.1800 566.6400L785.1800 566.6400L785.1800 528.1400Q785.1800 520.0200 781.1900 515.4000Q777.2000 510.7800 769.6400 510.7800L769.6400 510.7800Q762.3600 510.7800 757.9500 515.4000Q753.5400 520.0200 753.5400 528.1400L753.5400 528.1400L753.5400 566.6400Q753.5400 568.0400 752.6300 569.0200Q751.7200 570 750.1800 570L750.1800 570ZM837.8200 570L825.6400 570Q824.2400 570 823.2600 569.0200Q822.2800 568.0400 822.2800 566.6400L822.2800 566.6400L822.2800 500.7000Q822.2800 499.1600 823.2600 498.1800Q824.2400 497.2000 825.6400 497.2000L825.6400 497.2000L836.9800 497.2000Q838.3800 497.2000 839.4300 498.1800Q840.4800 499.1600 840.4800 500.7000L840.4800 500.7000L840.4800 506.4400Q843.7000 501.9600 848.8100 499.5800Q853.9200 497.2000 860.6400 497.2000L860.6400 497.2000L866.3800 497.2000Q867.9200 497.2000 868.8300 498.1800Q869.7400 499.1600 869.7400 500.5600L869.7400 500.5600L869.7400 510.6400Q869.7400 512.0400 868.8300 513.0200Q867.9200 514 866.3800 514L866.3800 514L855.4600 514Q848.7400 514 845.0300 517.7100Q841.3200 521.4200 841.3200 528.1400L841.3200 528.1400L841.3200 566.6400Q841.3200 568.0400 840.3400 569.0200Q839.3600 570 837.8200 570L837.8200 570ZM912.0200 571.4000L912.0200 571.4000Q896.4800 571.4000 887.3800 562.4400Q878.2800 553.4800 877.5800 536.9600L877.5800 536.9600Q877.4400 535.5600 877.4400 533.3900Q877.4400 531.2200 877.5800 529.9600L877.5800 529.9600Q878.1400 519.3200 882.4100 511.6900Q886.6800 504.0600 894.2400 499.9300Q901.8000 495.8000 912.0200 495.8000L912.0200 495.8000Q923.3600 495.8000 931.0600 500.4900Q938.7600 505.1800 942.6800 513.5100Q946.6000 521.8400 946.6000 532.7600L946.6000 532.7600L946.6000 535.7000Q946.6000 537.1000 945.6200 538.0800Q944.6400 539.0600 943.1000 539.0600L943.1000 539.0600L896.6200 539.0600Q896.6200 539.0600 896.6200 539.4800Q896.6200 539.9000 896.6200 540.1800L896.6200 540.1800Q896.7600 545.0800 898.5100 549.2100Q900.2600 553.3400 903.6900 555.8600Q907.1200 558.3800 911.8800 558.3800L911.8800 558.3800Q915.8000 558.3800 918.4600 557.1900Q921.1200 556 922.8000 554.4600Q924.4800 552.9200 925.1800 551.9400L925.1800 551.9400Q926.4400 550.2600 927.2100 549.9100Q927.9800 549.5600 929.5200 549.5600L929.5200 549.5600L941.5600 549.5600Q942.9600 549.5600 943.8700 550.4000Q944.7800 551.2400 944.6400 552.5000L944.6400 552.5000Q944.5000 554.7400 942.3300 557.9600Q940.1600 561.1800 936.1000 564.2600Q932.0400 567.3400 925.9500 569.3700Q919.8600 571.4000 912.0200 571.4000ZM896.6200 526.8800L896.6200 527.3000L927.5600 527.3000L927.5600 526.8800Q927.5600 521.4200 925.7400 517.2900Q923.9200 513.1600 920.4200 510.8500Q916.9200 508.5400 912.0200 508.5400L912.0200 508.5400Q907.1200 508.5400 903.6200 510.8500Q900.1200 513.1600 898.3700 517.2900Q896.6200 521.4200 896.6200 526.8800L896.6200 526.8800ZM982.5800 571.4000L982.5800 571.4000Q975.3000 571.4000 969.4200 568.5300Q963.5400 565.6600 960.1100 560.8300Q956.6800 556 956.6800 549.9800L956.6800 549.9800Q956.6800 540.1800 964.6600 534.3700Q972.6400 528.5600 985.5200 526.6000L985.5200 526.6000L1004.7000 523.8000L1004.7000 520.8600Q1004.7000 514.9800 1001.7600 511.7600Q998.8200 508.5400 991.6800 508.5400L991.6800 508.5400Q986.6400 508.5400 983.4900 510.5700Q980.3400 512.6000 978.8000 515.9600L978.8000 515.9600Q977.6800 517.7800 975.5800 517.7800L975.5800 517.7800L964.5200 517.7800Q962.9800 517.7800 962.2100 516.9400Q961.4400 516.1000 961.4400 514.7000L961.4400 514.7000Q961.5800 512.4600 963.3300 509.2400Q965.0800 506.0200 968.6500 503.0100Q972.2200 500 977.9600 497.9000Q983.7000 495.8000 991.8200 495.8000L991.8200 495.8000Q1000.6400 495.8000 1006.7300 497.9700Q1012.8200 500.1400 1016.4600 503.7800Q1020.1000 507.4200 1021.7800 512.3200Q1023.4600 517.2200 1023.4600 522.6800L1023.4600 522.6800L1023.4600 566.6400Q1023.4600 568.0400 1022.4800 569.0200Q1021.5000 570 1020.1000 570L1020.1000 570L1008.7600 570Q1007.2200 570 1006.3100 569.0200Q1005.4000 568.0400 1005.4000 566.6400L1005.4000 566.6400L1005.4000 561.1800Q1003.5800 563.7000 1000.5000 566.0800Q997.4200 568.4600 993.0100 569.9300Q988.6000 571.4000 982.5800 571.4000ZM987.3400 558.1000L987.3400 558.1000Q992.2400 558.1000 996.2300 556Q1000.2200 553.9000 1002.5300 549.4900Q1004.8400 545.0800 1004.8400 538.3600L1004.8400 538.3600L1004.8400 535.4200L990.8400 537.6600Q982.5800 538.9200 978.5200 541.7200Q974.4600 544.5200 974.4600 548.5800L974.4600 548.5800Q974.4600 551.6600 976.3500 553.8300Q978.2400 556 981.1800 557.0500Q984.1200 558.1000 987.3400 558.1000ZM1068.4000 571.4000L1068.4000 571.4000Q1061.1200 571.4000 1055.5900 568.9500Q1050.0600 566.5000 1046.4200 562.0200Q1042.7800 557.5400 1040.8200 551.4500Q1038.8600 545.3600 1038.5800 538.0800L1038.5800 538.0800Q1038.4400 535.5600 1038.4400 533.5300Q1038.4400 531.5000 1038.5800 528.9800L1038.5800 528.9800Q1038.8600 521.9800 1040.7500 515.9600Q1042.6400 509.9400 1046.3500 505.3900Q1050.0600 500.8400 1055.5900 498.3200Q1061.1200 495.8000 1068.4000 495.8000L1068.4000 495.8000Q1075.9600 495.8000 1081.2100 498.3900Q1086.4600 500.9800 1089.9600 505.0400L1089.9600 505.0400L1089.9600 473.9600Q1089.9600 472.5600 1090.8700 471.5800Q1091.7800 470.6000 1093.3200 470.6000L1093.3200 470.6000L1105.2200 470.6000Q1106.6200 470.6000 1107.6000 471.5800Q1108.5800 472.5600 1108.5800 473.9600L1108.5800 473.9600L1108.5800 566.6400Q1108.5800 568.0400 1107.6000 569.0200Q1106.6200 570 1105.2200 570L1105.2200 570L1094.1600 570Q1092.6200 570 1091.7100 569.0200Q1090.8000 568.0400 1090.8000 566.6400L1090.8000 566.6400L1090.8000 561.4600Q1087.3000 565.8000 1081.9100 568.6000Q1076.5200 571.4000 1068.4000 571.4000ZM1073.5800 556.4200L1073.5800 556.4200Q1079.4600 556.4200 1082.9600 553.7600Q1086.4600 551.1000 1088.1400 546.9700Q1089.8200 542.8400 1089.9600 538.5000L1089.9600 538.5000Q1090.1000 535.9800 1090.1000 533.1100Q1090.1000 530.2400 1089.9600 527.7200L1089.9600 527.7200Q1089.8200 523.5200 1088 519.6700Q1086.1800 515.8200 1082.6800 513.3000Q1079.1800 510.7800 1073.5800 510.7800L1073.5800 510.7800Q1067.7000 510.7800 1064.2700 513.3700Q1060.8400 515.9600 1059.3000 520.1600Q1057.7600 524.3600 1057.4800 529.4000L1057.4800 529.4000Q1057.3400 533.6000 1057.4800 537.8000L1057.4800 537.8000Q1057.7600 542.8400 1059.3000 547.0400Q1060.8400 551.2400 1064.2700 553.8300Q1067.7000 556.4200 1073.5800 556.4200ZM1154.7800 571.4000L1154.7800 571.4000Q1146.3800 571.4000 1140.4300 569.4400Q1134.4800 567.4800 1130.7000 564.5400Q1126.9200 561.6000 1125.1000 558.6600Q1123.2800 555.7200 1123.1400 553.7600L1123.1400 553.7600Q1123 552.2200 1124.0500 551.3100Q1125.1000 550.4000 1126.3600 550.4000L1126.3600 550.4000L1137.4200 550.4000Q1137.9800 550.4000 1138.4000 550.5400Q1138.8200 550.6800 1139.5200 551.3800L1139.5200 551.3800Q1141.3400 552.9200 1143.3700 554.6000Q1145.4000 556.2800 1148.2000 557.4700Q1151 558.6600 1155.2000 558.6600L1155.2000 558.6600Q1160.6600 558.6600 1164.3700 556.4900Q1168.0800 554.3200 1168.0800 550.2600L1168.0800 550.2600Q1168.0800 547.3200 1166.4700 545.5000Q1164.8600 543.6800 1160.5200 542.2100Q1156.1800 540.7400 1148.2000 539.0600L1148.2000 539.0600Q1140.3600 537.2400 1135.1800 534.4400Q1130 531.6400 1127.4800 527.4400Q1124.9600 523.2400 1124.9600 517.6400L1124.9600 517.6400Q1124.9600 512.1800 1128.2500 507.2100Q1131.5400 502.2400 1138.0500 499.0200Q1144.5600 495.8000 1154.2200 495.8000L1154.2200 495.8000Q1161.7800 495.8000 1167.3800 497.6900Q1172.9800 499.5800 1176.6900 502.3800Q1180.4000 505.1800 1182.3600 508.0500Q1184.3200 510.9200 1184.4600 513.0200L1184.4600 513.0200Q1184.6000 514.5600 1183.6200 515.4700Q1182.6400 516.3800 1181.3800 516.3800L1181.3800 516.3800L1171.0200 516.3800Q1170.3200 516.3800 1169.7600 516.1000Q1169.2000 515.8200 1168.6400 515.4000L1168.6400 515.4000Q1167.1000 514 1165.2800 512.3900Q1163.4600 510.7800 1160.8700 509.6600Q1158.2800 508.5400 1154.0800 508.5400L1154.0800 508.5400Q1148.7600 508.5400 1145.9600 510.8500Q1143.1600 513.1600 1143.1600 516.6600L1143.1600 516.6600Q1143.1600 519.0400 1144.4900 520.7900Q1145.8200 522.5400 1149.8800 524.0800Q1153.9400 525.6200 1162.2000 527.3000L1162.2000 527.3000Q1171.5800 528.9800 1177.1100 532.2700Q1182.6400 535.5600 1184.9500 539.8300Q1187.2600 544.1000 1187.2600 549.2800L1187.2600 549.2800Q1187.2600 555.5800 1183.5500 560.6200Q1179.8400 565.6600 1172.6300 568.5300Q1165.4200 571.4000 1154.7800 571.4000ZM174.6400 736.6000L162.7400 736.6000Q161.3400 736.6000 160.3600 735.6200Q159.3800 734.6400 159.3800 733.2400L159.3800 733.2400L159.3800 640.5600Q159.3800 639.1600 160.3600 638.1800Q161.3400 637.2000 162.7400 637.2000L162.7400 637.2000L173.8000 637.2000Q175.3400 637.2000 176.2500 638.1800Q177.1600 639.1600 177.1600 640.5600L177.1600 640.5600L177.1600 646.1600Q180.5200 641.6800 185.9800 638.7400Q191.4400 635.8000 199.5600 635.8000L199.5600 635.8000Q206.9800 635.8000 212.4400 638.1800Q217.9000 640.5600 221.5400 644.9700Q225.1800 649.3800 227.1400 655.4000Q229.1000 661.4200 229.3800 668.7000L229.3800 668.7000Q229.5200 671.0800 229.5200 673.6000Q229.5200 676.1200 229.3800 678.6400L229.3800 678.6400Q229.2400 685.6400 227.2800 691.5900Q225.3200 697.5400 221.6100 701.9500Q217.9000 706.3600 212.4400 708.8800Q206.9800 711.4000 199.5600 711.4000L199.5600 711.4000Q192 711.4000 186.6800 708.6700Q181.3600 705.9400 178 701.4600L178 701.4600L178 733.2400Q178 734.6400 177.0900 735.6200Q176.1800 736.6000 174.6400 736.6000L174.6400 736.6000ZM194.3800 696.4200L194.3800 696.4200Q200.4000 696.4200 203.7600 693.8300Q207.1200 691.2400 208.6600 687.0400Q210.2000 682.8400 210.4800 677.8000L210.4800 677.8000Q210.6200 673.6000 210.4800 669.4000L210.4800 669.4000Q210.2000 664.3600 208.6600 660.1600Q207.1200 655.9600 203.7600 653.3700Q200.4000 650.7800 194.3800 650.7800L194.3800 650.7800Q188.6400 650.7800 185.0700 653.4400Q181.5000 656.1000 179.8900 660.2300Q178.2800 664.3600 178 668.7000L178 668.7000Q177.8600 671.2200 177.8600 674.0200Q177.8600 676.8200 178 679.4800L178 679.4800Q178.1400 683.6800 179.9600 687.5300Q181.7800 691.3800 185.2800 693.9000Q188.7800 696.4200 194.3800 696.4200ZM266.3400 711.4000L266.3400 711.4000Q259.0600 711.4000 253.1800 708.5300Q247.3000 705.6600 243.8700 700.8300Q240.4400 696 240.4400 689.9800L240.4400 689.9800Q240.4400 680.1800 248.4200 674.3700Q256.4000 668.5600 269.2800 666.6000L269.2800 666.6000L288.4600 663.8000L288.4600 660.8600Q288.4600 654.9800 285.5200 651.7600Q282.5800 648.5400 275.4400 648.5400L275.4400 648.5400Q270.4000 648.5400 267.2500 650.5700Q264.1000 652.6000 262.5600 655.9600L262.5600 655.9600Q261.4400 657.7800 259.3400 657.7800L259.3400 657.7800L248.2800 657.7800Q246.7400 657.7800 245.9700 656.9400Q245.2000 656.1000 245.2000 654.7000L245.2000 654.7000Q245.3400 652.4600 247.0900 649.2400Q248.8400 646.0200 252.4100 643.0100Q255.9800 640 261.7200 637.9000Q267.4600 635.8000 275.5800 635.8000L275.5800 635.8000Q284.4000 635.8000 290.4900 637.9700Q296.5800 640.1400 300.2200 643.7800Q303.8600 647.4200 305.5400 652.3200Q307.2200 657.2200 307.2200 662.6800L307.2200 662.6800L307.2200 706.6400Q307.2200 708.0400 306.2400 709.0200Q305.2600 710 303.8600 710L303.8600 710L292.5200 710Q290.9800 710 290.0700 709.0200Q289.1600 708.0400 289.1600 706.6400L289.1600 706.6400L289.1600 701.1800Q287.3400 703.7000 284.2600 706.0800Q281.1800 708.4600 276.7700 709.9300Q272.3600 711.4000 266.3400 711.4000ZM271.1000 698.1000L271.1000 698.1000Q276 698.1000 279.9900 696Q283.9800 693.9000 286.2900 689.4900Q288.6000 685.0800 288.6000 678.3600L288.6000 678.3600L288.6000 675.4200L274.6000 677.6600Q266.3400 678.9200 262.2800 681.7200Q258.2200 684.5200 258.2200 688.5800L258.2200 688.5800Q258.2200 691.6600 260.1100 693.8300Q262 696 264.9400 697.0500Q267.8800 698.1000 271.1000 698.1000ZM340.6800 710L328.5000 710Q327.1000 710 326.1200 709.0200Q325.1400 708.0400 325.1400 706.6400L325.1400 706.6400L325.1400 640.7000Q325.1400 639.1600 326.1200 638.1800Q327.1000 637.2000 328.5000 637.2000L328.5000 637.2000L339.8400 637.2000Q341.2400 637.2000 342.2900 638.1800Q343.3400 639.1600 343.3400 640.7000L343.3400 640.7000L343.3400 646.4400Q346.5600 641.9600 351.6700 639.5800Q356.7800 637.2000 363.5000 637.2000L363.5000 637.2000L369.2400 637.2000Q370.7800 637.2000 371.6900 638.1800Q372.6000 639.1600 372.6000 640.5600L372.6000 640.5600L372.6000 650.6400Q372.6000 652.0400 371.6900 653.0200Q370.7800 654 369.2400 654L369.2400 654L358.3200 654Q351.6000 654 347.8900 657.7100Q344.1800 661.4200 344.1800 668.1400L344.1800 668.1400L344.1800 706.6400Q344.1800 708.0400 343.2000 709.0200Q342.2200 710 340.6800 710L340.6800 710ZM427.7600 710L416.4200 710Q408.0200 710 402.2800 707.0600Q396.5400 704.1200 393.7400 698.3100Q390.9400 692.5000 390.9400 683.8200L390.9400 683.8200L390.9400 652.0400L379.8800 652.0400Q378.4800 652.0400 377.5000 651.0600Q376.5200 650.0800 376.5200 648.5400L376.5200 648.5400L376.5200 640.5600Q376.5200 639.1600 377.5000 638.1800Q378.4800 637.2000 379.8800 637.2000L379.8800 637.2000L390.9400 637.2000L390.9400 613.9600Q390.9400 612.5600 391.8500 611.5800Q392.7600 610.6000 394.3000 610.6000L394.3000 610.6000L405.6400 610.6000Q407.0400 610.6000 408.0200 611.5800Q409.0000 612.5600 409.0000 613.9600L409.0000 613.9600L409.0000 637.2000L426.5000 637.2000Q427.9000 637.2000 428.8800 638.1800Q429.8600 639.1600 429.8600 640.5600L429.8600 640.5600L429.8600 648.5400Q429.8600 650.0800 428.8800 651.0600Q427.9000 652.0400 426.5000 652.0400L426.5000 652.0400L409.0000 652.0400L409.0000 682.4200Q409.0000 688.1600 411.0300 691.3800Q413.0600 694.6000 418.1000 694.6000L418.1000 694.6000L427.7600 694.6000Q429.1600 694.6000 430.1400 695.5800Q431.1200 696.5600 431.1200 697.9600L431.1200 697.9600L431.1200 706.6400Q431.1200 708.0400 430.1400 709.0200Q429.1600 710 427.7600 710L427.7600 710ZM474.9400 711.4000L474.9400 711.4000Q459.4000 711.4000 450.3000 702.4400Q441.2000 693.4800 440.5000 676.9600L440.5000 676.9600Q440.3600 675.5600 440.3600 673.3900Q440.3600 671.2200 440.5000 669.9600L440.5000 669.9600Q441.0600 659.3200 445.3300 651.6900Q449.6000 644.0600 457.1600 639.9300Q464.7200 635.8000 474.9400 635.8000L474.9400 635.8000Q486.2800 635.8000 493.9800 640.4900Q501.6800 645.1800 505.6000 653.5100Q509.5200 661.8400 509.5200 672.7600L509.5200 672.7600L509.5200 675.7000Q509.5200 677.1000 508.5400 678.0800Q507.5600 679.0600 506.0200 679.0600L506.0200 679.0600L459.5400 679.0600Q459.5400 679.0600 459.5400 679.4800Q459.5400 679.9000 459.5400 680.1800L459.5400 680.1800Q459.6800 685.0800 461.4300 689.2100Q463.1800 693.3400 466.6100 695.8600Q470.0400 698.3800 474.8000 698.3800L474.8000 698.3800Q478.7200 698.3800 481.3800 697.1900Q484.0400 696 485.7200 694.4600Q487.4000 692.9200 488.1000 691.9400L488.1000 691.9400Q489.3600 690.2600 490.1300 689.9100Q490.9000 689.5600 492.4400 689.5600L492.4400 689.5600L504.4800 689.5600Q505.8800 689.5600 506.7900 690.4000Q507.7000 691.2400 507.5600 692.5000L507.5600 692.5000Q507.4200 694.7400 505.2500 697.9600Q503.0800 701.1800 499.0200 704.2600Q494.9600 707.3400 488.8700 709.3700Q482.7800 711.4000 474.9400 711.4000ZM459.5400 666.8800L459.5400 667.3000L490.4800 667.3000L490.4800 666.8800Q490.4800 661.4200 488.6600 657.2900Q486.8400 653.1600 483.3400 650.8500Q479.8400 648.5400 474.9400 648.5400L474.9400 648.5400Q470.0400 648.5400 466.5400 650.8500Q463.0400 653.1600 461.2900 657.2900Q459.5400 661.4200 459.5400 666.8800L459.5400 666.8800ZM623.7600 710L556.8400 710Q555.4400 710 554.4600 709.0200Q553.4800 708.0400 553.4800 706.6400L553.4800 706.6400L553.4800 699.5000Q553.4800 698.2400 554.1100 696.4900Q554.7400 694.7400 556.9800 692.9200L556.9800 692.9200L579.1000 670.9400Q588.3400 663.6600 594.0100 658.5500Q599.6800 653.4400 602.2700 649.1700Q604.8600 644.9000 604.8600 640.7000L604.8600 640.7000Q604.8600 634.4000 601.4300 630.4800Q598.0000 626.5600 590.5800 626.5600L590.5800 626.5600Q585.6800 626.5600 582.3200 628.5900Q578.9600 630.6200 577.0700 633.9800Q575.1800 637.3400 574.4800 641.4000L574.4800 641.4000Q574.2000 643.2200 572.9400 643.9200Q571.6800 644.6200 570.4200 644.6200L570.4200 644.6200L557.9600 644.6200Q556.7000 644.6200 555.8600 643.7800Q555.0200 642.9400 555.0200 641.8200L555.0200 641.8200Q555.1600 635.8000 557.5400 630.1300Q559.9200 624.4600 564.4700 620.0500Q569.0200 615.6400 575.6000 612.9800Q582.1800 610.3200 590.4400 610.3200L590.4400 610.3200Q602.0600 610.3200 609.6900 614.2400Q617.3200 618.1600 621.1700 624.8800Q625.0200 631.6000 625.0200 640L625.0200 640Q625.0200 646.5800 622.5000 652.1100Q619.9800 657.6400 615.2200 662.7500Q610.4600 667.8600 603.7400 673.1800L603.7400 673.1800L583.8600 693.3400L623.7600 693.3400Q625.3000 693.3400 626.2100 694.2500Q627.1200 695.1600 627.1200 696.7000L627.1200 696.7000L627.1200 706.6400Q627.1200 708.0400 626.2100 709.0200Q625.3000 710 623.7600 710L623.7600 710Z" id="title"/></g></svg>