<svg xmlns="http://www.w3.org/2000/svg" version="1.1" xmlns:xlink="http://www.w3.org/1999/xlink" xmlns:svgjs="http://svgjs.dev/svgjs" viewBox="0 0 1920 1080" id="aca3914e-1578-4c3e-8413-b5dc9bff6851"><g><rect width="1920" height="1080" fill="#9d9c62"/></g><g fill="#e06b49"><path d="M969.5 217C561.465 217 231 547.465 231 955.5C231 1363.53 561.465 1694 969.5 1694C1377.53 1694 1708 1363.53 1708 955.5C1708 547.465 1377.53 217 969.5 217ZM969.5 1309.34C773.983 1309.34 615.658 1151.02 615.658 955.5C615.658 759.983 773.983 601.658 969.5 601.658C1165.02 601.658 1323.34 759.983 1323.34 955.5C1323.34 1151.02 1165.02 1309.34 969.5 1309.34Z"/></g><g fill="#ffffff" opacity="0.2"><path d="M1432 918.479L1616.48 734V918.479H1432Z"/><path d="M1616.48 918.479L1800.52 734V918.479H1616.48Z"/><path d="M1800.52 918.479L1985 734V918.479H1800.52Z"/><path d="M1432 1102.52L1616.48 918.479V1102.52H1432Z"/><path d="M1616.48 1102.52L1800.52 918.479V1102.52H1616.48Z"/><path d="M1800.52 1102.52L1985 918.479V1102.52H1800.52Z"/><path d="M499 154.521L683.479 -29.5215V154.521H499Z"/><path d="M683.479 154.521L867.521 -29.5215V154.521H683.479Z"/><path d="M867.521 154.521L1052 -29.5215V154.521H867.521Z"/><path d="M499 339L683.479 154.521V339H499Z"/><path d="M683.479 339L867.521 154.521V339H683.479Z"/><path d="M867.521 339L1052 154.521V339H867.521Z"/></g><g><path d="M178.635 139.281L184.422 144.246V166.626H215.704L219.958 172.147L215.69 177.397H184.422V198.795L178.635 203.747L173 198.795V144.232L178.635 139.281ZM195.554 195.68H219.406L223.397 200.915L219.143 206.45H195.554L191.7 201.342L195.554 195.68ZM196.382 138H219.129L223.383 143.52L219.129 148.77H196.659L192.115 143.677L196.382 138ZM323.155 148.628L328.251 154.291L323.155 159.968H246.13L241.172 154.291L246.13 148.628H323.155ZM237.043 172.147L241.849 167.893L246.669 172.147V178.393C246.669 188.879 249.417 197.515 261.668 197.515H264.14C275.147 197.515 281.197 189.86 281.197 177.952V172.005L285.879 167.75L290.699 171.862V178.379C290.699 189.007 293.723 196.946 305.56 196.946H307.618C319.178 196.946 321.235 187.869 321.373 177.952V171.578L326.056 167.608L331 171.72V178.094C330.862 191.838 327.285 207.574 308.032 207.574H305.974C294.552 207.574 288.365 202.324 285.892 195.808C283.006 202.466 275.299 208.286 264.844 208.286H262.358C242.553 208.286 237.194 195.964 237.056 178.663V172.147H237.043ZM276.391 274.744L273.642 267.089L280.796 264.969L305.974 276.721V252.491L311.07 248.095L316.291 252.491V281.829L325.641 286.226L328.251 293.311L320.959 296L276.391 274.744ZM321.235 223.011L328.113 226.27L325.917 233.497L264.002 263.119L256.571 260.146L259.596 252.776L321.235 223.011ZM231.905 263.404L237.954 268.512C237.402 286.51 222.403 296 204.669 296H202.874C194.062 296 183.759 292.6 177.157 286.083L177.834 278.855L184.298 278.002C189.118 282.256 195.858 285.229 202.183 285.229H204.117C216.091 285.229 225.303 280.136 226.27 268.085L231.905 263.404ZM226.256 251.638C225.704 239.16 216.629 234.209 204.103 234.209H202.169C194.739 234.209 189.104 237.182 184.284 241.436L177.834 240.583L177.143 233.355C183.745 226.696 192.957 223.58 202.597 223.58H204.517C222.403 223.58 237.402 232.942 237.94 251.211L231.891 256.176L226.256 251.638Z" fill="#ffffff"/></g><g fill="#ffffff" id="info-group"><path d="M167.0800 430L154.9000 430Q153.7800 430 152.8700 429.1600Q151.9600 428.3200 151.9600 427.0600L151.9600 427.0600Q151.9600 426.5000 152.2400 425.8000L152.2400 425.8000L185.9800 335.5000Q186.4000 334.1000 187.5900 333.0500Q188.7800 332 190.8800 332L190.8800 332L206.1400 332Q208.2400 332 209.3600 333.0500Q210.4800 334.1000 211.0400 335.5000L211.0400 335.5000L244.7800 425.8000Q244.9200 426.5000 244.9200 427.0600L244.9200 427.0600Q244.9200 428.3200 244.0800 429.1600Q243.2400 430 242.1200 430L242.1200 430L229.9400 430Q227.9800 430 227.0700 429.0900Q226.1600 428.1800 225.8800 427.3400L225.8800 427.3400L219.3000 410.2600L177.7200 410.2600L171.1400 427.3400Q170.8600 428.1800 169.9500 429.0900Q169.0400 430 167.0800 430L167.0800 430ZM198.4400 350.9000L182.6200 394.1600L214.4000 394.1600L198.4400 350.9000ZM283.2800 431.4000L283.2800 431.4000Q274.7400 431.4000 268.5100 427.5500Q262.2800 423.7000 258.9200 416.6300Q255.5600 409.5600 255.5600 399.9000L255.5600 399.9000L255.5600 360.5600Q255.5600 359.1600 256.5400 358.1800Q257.5200 357.2000 258.9200 357.2000L258.9200 357.2000L271.2400 357.2000Q272.7800 357.2000 273.6900 358.1800Q274.6000 359.1600 274.6000 360.5600L274.6000 360.5600L274.6000 399.0600Q274.6000 416.4200 289.8600 416.4200L289.8600 416.4200Q297.1400 416.4200 301.4100 411.8000Q305.6800 407.1800 305.6800 399.0600L305.6800 399.0600L305.6800 360.5600Q305.6800 359.1600 306.6600 358.1800Q307.6400 357.2000 309.0400 357.2000L309.0400 357.2000L321.3600 357.2000Q322.7600 357.2000 323.7400 358.1800Q324.7200 359.1600 324.7200 360.5600L324.7200 360.5600L324.7200 426.6400Q324.7200 428.0400 323.7400 429.0200Q322.7600 430 321.3600 430L321.3600 430L310.0200 430Q308.4800 430 307.5700 429.0200Q306.6600 428.0400 306.6600 426.6400L306.6600 426.6400L306.6600 420.9000Q302.8800 425.8000 297.2800 428.6000Q291.6800 431.4000 283.2800 431.4000ZM358.3200 430L346.7000 430Q345.3000 430 344.3200 429.0200Q343.3400 428.0400 343.3400 426.6400L343.3400 426.6400L343.3400 333.9600Q343.3400 332.5600 344.3200 331.5800Q345.3000 330.6000 346.7000 330.6000L346.7000 330.6000L358.3200 330.6000Q359.7200 330.6000 360.7000 331.5800Q361.6800 332.5600 361.6800 333.9600L361.6800 333.9600L361.6800 426.6400Q361.6800 428.0400 360.7000 429.0200Q359.7200 430 358.3200 430L358.3200 430ZM401.4400 431.4000L401.4400 431.4000Q394.1600 431.4000 388.2800 428.5300Q382.4000 425.6600 378.9700 420.8300Q375.5400 416 375.5400 409.9800L375.5400 409.9800Q375.5400 400.1800 383.5200 394.3700Q391.5000 388.5600 404.3800 386.6000L404.3800 386.6000L423.5600 383.8000L423.5600 380.8600Q423.5600 374.9800 420.6200 371.7600Q417.6800 368.5400 410.5400 368.5400L410.5400 368.5400Q405.5000 368.5400 402.3500 370.5700Q399.2000 372.6000 397.6600 375.9600L397.6600 375.9600Q396.5400 377.7800 394.4400 377.7800L394.4400 377.7800L383.3800 377.7800Q381.8400 377.7800 381.0700 376.9400Q380.3000 376.1000 380.3000 374.7000L380.3000 374.7000Q380.4400 372.4600 382.1900 369.2400Q383.9400 366.0200 387.5100 363.0100Q391.0800 360 396.8200 357.9000Q402.5600 355.8000 410.6800 355.8000L410.6800 355.8000Q419.5000 355.8000 425.5900 357.9700Q431.6800 360.1400 435.3200 363.7800Q438.9600 367.4200 440.6400 372.3200Q442.3200 377.2200 442.3200 382.6800L442.3200 382.6800L442.3200 426.6400Q442.3200 428.0400 441.3400 429.0200Q440.3600 430 438.9600 430L438.9600 430L427.6200 430Q426.0800 430 425.1700 429.0200Q424.2600 428.0400 424.2600 426.6400L424.2600 426.6400L424.2600 421.1800Q422.4400 423.7000 419.3600 426.0800Q416.2800 428.4600 411.8700 429.9300Q407.4600 431.4000 401.4400 431.4000ZM406.2000 418.1000L406.2000 418.1000Q411.1000 418.1000 415.0900 416Q419.0800 413.9000 421.3900 409.4900Q423.7000 405.0800 423.7000 398.3600L423.7000 398.3600L423.7000 395.4200L409.7000 397.6600Q401.4400 398.9200 397.3800 401.7200Q393.3200 404.5200 393.3200 408.5800L393.3200 408.5800Q393.3200 411.6600 395.2100 413.8300Q397.1000 416 400.0400 417.0500Q402.9800 418.1000 406.2000 418.1000ZM559.6400 430L492.7200 430Q491.3200 430 490.3400 429.0200Q489.3600 428.0400 489.3600 426.6400L489.3600 426.6400L489.3600 419.5000Q489.3600 418.2400 489.9900 416.4900Q490.6200 414.7400 492.8600 412.9200L492.8600 412.9200L514.9800 390.9400Q524.2200 383.6600 529.8900 378.5500Q535.5600 373.4400 538.1500 369.1700Q540.7400 364.9000 540.7400 360.7000L540.7400 360.7000Q540.7400 354.4000 537.3100 350.4800Q533.8800 346.5600 526.4600 346.5600L526.4600 346.5600Q521.5600 346.5600 518.2000 348.5900Q514.8400 350.6200 512.9500 353.9800Q511.0600 357.3400 510.3600 361.4000L510.3600 361.4000Q510.0800 363.2200 508.8200 363.9200Q507.5600 364.6200 506.3000 364.6200L506.3000 364.6200L493.8400 364.6200Q492.5800 364.6200 491.7400 363.7800Q490.9000 362.9400 490.9000 361.8200L490.9000 361.8200Q491.0400 355.8000 493.4200 350.1300Q495.8000 344.4600 500.3500 340.0500Q504.9000 335.6400 511.4800 332.9800Q518.0600 330.3200 526.3200 330.3200L526.3200 330.3200Q537.9400 330.3200 545.5700 334.2400Q553.2000 338.1600 557.0500 344.8800Q560.9000 351.6000 560.9000 360L560.9000 360Q560.9000 366.5800 558.3800 372.1100Q555.8600 377.6400 551.1000 382.7500Q546.3400 387.8600 539.6200 393.1800L539.6200 393.1800L519.7400 413.3400L559.6400 413.3400Q561.1800 413.3400 562.0900 414.2500Q563.0000 415.1600 563.0000 416.7000L563.0000 416.7000L563.0000 426.6400Q563.0000 428.0400 562.0900 429.0200Q561.1800 430 559.6400 430L559.6400 430ZM595.7600 381L581.9000 381Q580.5000 381 579.5200 380.0200Q578.5400 379.0400 578.5400 377.6400L578.5400 377.6400L578.5400 364.3400Q578.5400 362.8000 579.5200 361.8200Q580.5000 360.8400 581.9000 360.8400L581.9000 360.8400L595.7600 360.8400Q597.3000 360.8400 598.2800 361.8200Q599.2600 362.8000 599.2600 364.3400L599.2600 364.3400L599.2600 377.6400Q599.2600 379.0400 598.2800 380.0200Q597.3000 381 595.7600 381L595.7600 381ZM595.7600 430L581.9000 430Q580.5000 430 579.5200 429.0200Q578.5400 428.0400 578.5400 426.6400L578.5400 426.6400L578.5400 413.3400Q578.5400 411.8000 579.5200 410.8200Q580.5000 409.8400 581.9000 409.8400L581.9000 409.8400L595.7600 409.8400Q597.3000 409.8400 598.2800 410.8200Q599.2600 411.8000 599.2600 413.3400L599.2600 413.3400L599.2600 426.6400Q599.2600 428.0400 598.2800 429.0200Q597.3000 430 595.7600 430L595.7600 430ZM688.8600 431.4000L688.8600 431.4000Q675.8400 431.4000 666.8100 426.8500Q657.7800 422.3000 653.0200 413.8300Q648.2600 405.3600 647.7000 393.4600L647.7000 393.4600Q647.5600 387.7200 647.5600 381.1400Q647.5600 374.5600 647.7000 368.5400L647.7000 368.5400Q648.2600 356.7800 653.0900 348.2400Q657.9200 339.7000 666.9500 335.1500Q675.9800 330.6000 688.8600 330.6000L688.8600 330.6000Q698.3800 330.6000 705.9400 333.1200Q713.5000 335.6400 718.8200 340.0500Q724.1400 344.4600 727.0800 350.3400Q730.0200 356.2200 730.1600 363.0800L730.1600 363.0800Q730.3000 364.3400 729.3900 365.1800Q728.4800 366.0200 727.2200 366.0200L727.2200 366.0200L713.9200 366.0200Q712.3800 366.0200 711.4000 365.2500Q710.4200 364.4800 710.0000 362.6600L710.0000 362.6600Q707.7600 353.4200 702.3000 350.0600Q696.8400 346.7000 688.7200 346.7000L688.7200 346.7000Q679.3400 346.7000 673.7400 351.9500Q668.1400 357.2000 667.7200 369.2400L667.7200 369.2400Q667.3000 380.7200 667.7200 392.7600L667.7200 392.7600Q668.1400 404.8000 673.7400 410.0500Q679.3400 415.3000 688.7200 415.3000L688.7200 415.3000Q696.8400 415.3000 702.3700 411.8700Q707.9000 408.4400 710.0000 399.3400L710.0000 399.3400Q710.4200 397.3800 711.4000 396.6800Q712.3800 395.9800 713.9200 395.9800L713.9200 395.9800L727.2200 395.9800Q728.4800 395.9800 729.3900 396.8200Q730.3000 397.6600 730.1600 398.9200L730.1600 398.9200Q730.0200 405.7800 727.0800 411.6600Q724.1400 417.5400 718.8200 421.9500Q713.5000 426.3600 705.9400 428.8800Q698.3800 431.4000 688.8600 431.4000ZM761.1000 430L748.6400 430Q747.2400 430 746.2600 429.0200Q745.2800 428.0400 745.2800 426.6400L745.2800 426.6400L745.2800 333.9600Q745.2800 332.5600 746.2600 331.5800Q747.2400 330.6000 748.6400 330.6000L748.6400 330.6000L761.1000 330.6000Q762.6400 330.6000 763.5500 331.5800Q764.4600 332.5600 764.4600 333.9600L764.4600 333.9600L764.4600 365.8800Q768.2400 361.4000 773.7000 358.6000Q779.1600 355.8000 787.1400 355.8000L787.1400 355.8000Q795.6800 355.8000 802.0500 359.6500Q808.4200 363.5000 811.9200 370.5000Q815.4200 377.5000 815.4200 387.3000L815.4200 387.3000L815.4200 426.6400Q815.4200 428.0400 814.4400 429.0200Q813.4600 430 812.0600 430L812.0600 430L799.4600 430Q798.0600 430 797.0800 429.0200Q796.1000 428.0400 796.1000 426.6400L796.1000 426.6400L796.1000 388.1400Q796.1000 380.0200 792.1100 375.4000Q788.1200 370.7800 780.5600 370.7800L780.5600 370.7800Q773.2800 370.7800 768.8700 375.4000Q764.4600 380.0200 764.4600 388.1400L764.4600 388.1400L764.4600 426.6400Q764.4600 428.0400 763.5500 429.0200Q762.6400 430 761.1000 430L761.1000 430ZM854.3400 431.4000L854.3400 431.4000Q847.0600 431.4000 841.1800 428.5300Q835.3000 425.6600 831.8700 420.8300Q828.4400 416 828.4400 409.9800L828.4400 409.9800Q828.4400 400.1800 836.4200 394.3700Q844.4000 388.5600 857.2800 386.6000L857.2800 386.6000L876.4600 383.8000L876.4600 380.8600Q876.4600 374.9800 873.5200 371.7600Q870.5800 368.5400 863.4400 368.5400L863.4400 368.5400Q858.4000 368.5400 855.2500 370.5700Q852.1000 372.6000 850.5600 375.9600L850.5600 375.9600Q849.4400 377.7800 847.3400 377.7800L847.3400 377.7800L836.2800 377.7800Q834.7400 377.7800 833.9700 376.9400Q833.2000 376.1000 833.2000 374.7000L833.2000 374.7000Q833.3400 372.4600 835.0900 369.2400Q836.8400 366.0200 840.4100 363.0100Q843.9800 360 849.7200 357.9000Q855.4600 355.8000 863.5800 355.8000L863.5800 355.8000Q872.4000 355.8000 878.4900 357.9700Q884.5800 360.1400 888.2200 363.7800Q891.8600 367.4200 893.5400 372.3200Q895.2200 377.2200 895.2200 382.6800L895.2200 382.6800L895.2200 426.6400Q895.2200 428.0400 894.2400 429.0200Q893.2600 430 891.8600 430L891.8600 430L880.5200 430Q878.9800 430 878.0700 429.0200Q877.1600 428.0400 877.1600 426.6400L877.1600 426.6400L877.1600 421.1800Q875.3400 423.7000 872.2600 426.0800Q869.1800 428.4600 864.7700 429.9300Q860.3600 431.4000 854.3400 431.4000ZM859.1000 418.1000L859.1000 418.1000Q864 418.1000 867.9900 416Q871.9800 413.9000 874.2900 409.4900Q876.6000 405.0800 876.6000 398.3600L876.6000 398.3600L876.6000 395.4200L862.6000 397.6600Q854.3400 398.9200 850.2800 401.7200Q846.2200 404.5200 846.2200 408.5800L846.2200 408.5800Q846.2200 411.6600 848.1100 413.8300Q850 416 852.9400 417.0500Q855.8800 418.1000 859.1000 418.1000ZM949.2600 430L938.9000 430Q936.6600 430 935.6100 428.9500Q934.5600 427.9000 933.8600 426.5000L933.8600 426.5000L907.6800 361.5400Q907.4000 360.8400 907.4000 360.2800L907.4000 360.2800Q907.4000 359.0200 908.3100 358.1100Q909.2200 357.2000 910.4800 357.2000L910.4800 357.2000L921.8200 357.2000Q923.5000 357.2000 924.3400 358.1100Q925.1800 359.0200 925.4600 359.8600L925.4600 359.8600L944.0800 409L962.7000 359.8600Q962.9800 359.0200 963.8200 358.1100Q964.6600 357.2000 966.3400 357.2000L966.3400 357.2000L977.8200 357.2000Q978.9400 357.2000 979.8500 358.1100Q980.7600 359.0200 980.7600 360.2800L980.7600 360.2800Q980.7600 360.8400 980.6200 361.5400L980.6200 361.5400L954.3000 426.5000Q953.7400 427.9000 952.6200 428.9500Q951.5000 430 949.2600 430L949.2600 430ZM1024.8600 431.4000L1024.8600 431.4000Q1009.3200 431.4000 1000.2200 422.4400Q991.1200 413.4800 990.4200 396.9600L990.4200 396.9600Q990.2800 395.5600 990.2800 393.3900Q990.2800 391.2200 990.4200 389.9600L990.4200 389.9600Q990.9800 379.3200 995.2500 371.6900Q999.5200 364.0600 1007.0800 359.9300Q1014.6400 355.8000 1024.8600 355.8000L1024.8600 355.8000Q1036.2000 355.8000 1043.9000 360.4900Q1051.6000 365.1800 1055.5200 373.5100Q1059.4400 381.8400 1059.4400 392.7600L1059.4400 392.7600L1059.4400 395.7000Q1059.4400 397.1000 1058.4600 398.0800Q1057.4800 399.0600 1055.9400 399.0600L1055.9400 399.0600L1009.4600 399.0600Q1009.4600 399.0600 1009.4600 399.4800Q1009.4600 399.9000 1009.4600 400.1800L1009.4600 400.1800Q1009.6000 405.0800 1011.3500 409.2100Q1013.1000 413.3400 1016.5300 415.8600Q1019.9600 418.3800 1024.7200 418.3800L1024.7200 418.3800Q1028.6400 418.3800 1031.3000 417.1900Q1033.9600 416 1035.6400 414.4600Q1037.3200 412.9200 1038.0200 411.9400L1038.0200 411.9400Q1039.2800 410.2600 1040.0500 409.9100Q1040.8200 409.5600 1042.3600 409.5600L1042.3600 409.5600L1054.4000 409.5600Q1055.8000 409.5600 1056.7100 410.4000Q1057.6200 411.2400 1057.4800 412.5000L1057.4800 412.5000Q1057.3400 414.7400 1055.1700 417.9600Q1053 421.1800 1048.9400 424.2600Q1044.8800 427.3400 1038.7900 429.3700Q1032.7000 431.4000 1024.8600 431.4000ZM1009.4600 386.8800L1009.4600 387.3000L1040.4000 387.3000L1040.4000 386.8800Q1040.4000 381.4200 1038.5800 377.2900Q1036.7600 373.1600 1033.2600 370.8500Q1029.7600 368.5400 1024.8600 368.5400L1024.8600 368.5400Q1019.9600 368.5400 1016.4600 370.8500Q1012.9600 373.1600 1011.2100 377.2900Q1009.4600 381.4200 1009.4600 386.8800L1009.4600 386.8800ZM1101.8600 431.4000L1101.8600 431.4000Q1093.4600 431.4000 1087.5100 429.4400Q1081.5600 427.4800 1077.7800 424.5400Q1074.0000 421.6000 1072.1800 418.6600Q1070.3600 415.7200 1070.2200 413.7600L1070.2200 413.7600Q1070.0800 412.2200 1071.1300 411.3100Q1072.1800 410.4000 1073.4400 410.4000L1073.4400 410.4000L1084.5000 410.4000Q1085.0600 410.4000 1085.4800 410.5400Q1085.9000 410.6800 1086.6000 411.3800L1086.6000 411.3800Q1088.4200 412.9200 1090.4500 414.6000Q1092.4800 416.2800 1095.2800 417.4700Q1098.0800 418.6600 1102.2800 418.6600L1102.2800 418.6600Q1107.7400 418.6600 1111.4500 416.4900Q1115.1600 414.3200 1115.1600 410.2600L1115.1600 410.2600Q1115.1600 407.3200 1113.5500 405.5000Q1111.9400 403.6800 1107.6000 402.2100Q1103.2600 400.7400 1095.2800 399.0600L1095.2800 399.0600Q1087.4400 397.2400 1082.2600 394.4400Q1077.0800 391.6400 1074.5600 387.4400Q1072.0400 383.2400 1072.0400 377.6400L1072.0400 377.6400Q1072.0400 372.1800 1075.3300 367.2100Q1078.6200 362.2400 1085.1300 359.0200Q1091.6400 355.8000 1101.3000 355.8000L1101.3000 355.8000Q1108.8600 355.8000 1114.4600 357.6900Q1120.0600 359.5800 1123.7700 362.3800Q1127.4800 365.1800 1129.4400 368.0500Q1131.4000 370.9200 1131.5400 373.0200L1131.5400 373.0200Q1131.6800 374.5600 1130.7000 375.4700Q1129.7200 376.3800 1128.4600 376.3800L1128.4600 376.3800L1118.1000 376.3800Q1117.4000 376.3800 1116.8400 376.1000Q1116.2800 375.8200 1115.7200 375.4000L1115.7200 375.4000Q1114.1800 374 1112.3600 372.3900Q1110.5400 370.7800 1107.9500 369.6600Q1105.3600 368.5400 1101.1600 368.5400L1101.1600 368.5400Q1095.8400 368.5400 1093.0400 370.8500Q1090.2400 373.1600 1090.2400 376.6600L1090.2400 376.6600Q1090.2400 379.0400 1091.5700 380.7900Q1092.9000 382.5400 1096.9600 384.0800Q1101.0200 385.6200 1109.2800 387.3000L1109.2800 387.3000Q1118.6600 388.9800 1124.1900 392.2700Q1129.7200 395.5600 1132.0300 399.8300Q1134.3400 404.1000 1134.3400 409.2800L1134.3400 409.2800Q1134.3400 415.5800 1130.6300 420.6200Q1126.9200 425.6600 1119.7100 428.5300Q1112.5000 431.4000 1101.8600 431.4000ZM177.5800 570L164.2800 570Q162.8800 570 161.9000 569.0200Q160.9200 568.0400 160.9200 566.6400L160.9200 566.6400L160.9200 475.5000Q160.9200 473.9600 161.9000 472.9800Q162.8800 472 164.2800 472L164.2800 472L201.8000 472Q212.7200 472 220.8400 475.4300Q228.9600 478.8600 233.4400 485.7900Q237.9200 492.7200 237.9200 503.0800L237.9200 503.0800Q237.9200 513.5800 233.4400 520.3700Q228.9600 527.1600 220.8400 530.5200Q212.7200 533.8800 201.8000 533.8800L201.8000 533.8800L180.9400 533.8800L180.9400 566.6400Q180.9400 568.0400 180.0300 569.0200Q179.1200 570 177.5800 570L177.5800 570ZM180.6600 487.5400L180.6600 518.3400L201.1000 518.3400Q209.2200 518.3400 213.5600 514.4900Q217.9000 510.6400 217.9000 503.0800L217.9000 503.0800Q217.9000 496.0800 213.8400 491.8100Q209.7800 487.5400 201.1000 487.5400L201.1000 487.5400L180.6600 487.5400ZM267.0400 570L254.8600 570Q253.4600 570 252.4800 569.0200Q251.5000 568.0400 251.5000 566.6400L251.5000 566.6400L251.5000 500.7000Q251.5000 499.1600 252.4800 498.1800Q253.4600 497.2000 254.8600 497.2000L254.8600 497.2000L266.2000 497.2000Q267.6000 497.2000 268.6500 498.1800Q269.7000 499.1600 269.7000 500.7000L269.7000 500.7000L269.7000 506.4400Q272.9200 501.9600 278.0300 499.5800Q283.1400 497.2000 289.8600 497.2000L289.8600 497.2000L295.6000 497.2000Q297.1400 497.2000 298.0500 498.1800Q298.9600 499.1600 298.9600 500.5600L298.9600 500.5600L298.9600 510.6400Q298.9600 512.0400 298.0500 513.0200Q297.1400 514 295.6000 514L295.6000 514L284.6800 514Q277.9600 514 274.2500 517.7100Q270.5400 521.4200 270.5400 528.1400L270.5400 528.1400L270.5400 566.6400Q270.5400 568.0400 269.5600 569.0200Q268.5800 570 267.0400 570L267.0400 570ZM324.8600 570L313.2400 570Q311.8400 570 310.8600 569.0200Q309.8800 568.0400 309.8800 566.6400L309.8800 566.6400L309.8800 500.5600Q309.8800 499.1600 310.8600 498.1800Q311.8400 497.2000 313.2400 497.2000L313.2400 497.2000L324.8600 497.2000Q326.4000 497.2000 327.3100 498.1800Q328.2200 499.1600 328.2200 500.5600L328.2200 500.5600L328.2200 566.6400Q328.2200 568.0400 327.3100 569.0200Q326.4000 570 324.8600 570L324.8600 570ZM325.4200 485.1600L312.6800 485.1600Q311.2800 485.1600 310.3000 484.1800Q309.3200 483.2000 309.3200 481.8000L309.3200 481.8000L309.3200 471.7200Q309.3200 470.3200 310.3000 469.3400Q311.2800 468.3600 312.6800 468.3600L312.6800 468.3600L325.4200 468.3600Q326.9600 468.3600 327.9400 469.3400Q328.9200 470.3200 328.9200 471.7200L328.9200 471.7200L328.9200 481.8000Q328.9200 483.2000 327.9400 484.1800Q326.9600 485.1600 325.4200 485.1600L325.4200 485.1600ZM361.9600 570L350.2000 570Q348.8000 570 347.8200 569.0200Q346.8400 568.0400 346.8400 566.6400L346.8400 566.6400L346.8400 500.5600Q346.8400 499.1600 347.8200 498.1800Q348.8000 497.2000 350.2000 497.2000L350.2000 497.2000L361.1200 497.2000Q362.5200 497.2000 363.5000 498.1800Q364.4800 499.1600 364.4800 500.5600L364.4800 500.5600L364.4800 505.3200Q367.4200 501.4000 372.3900 498.6700Q377.3600 495.9400 384.2200 495.8000L384.2200 495.8000Q400.1800 495.5200 406.4800 508.2600L406.4800 508.2600Q409.7000 502.6600 415.7900 499.2300Q421.8800 495.8000 429.3000 495.8000L429.3000 495.8000Q436.5800 495.8000 442.5300 499.1600Q448.4800 502.5200 451.9100 509.3100Q455.3400 516.1000 455.3400 526.4600L455.3400 526.4600L455.3400 566.6400Q455.3400 568.0400 454.3600 569.0200Q453.3800 570 451.9800 570L451.9800 570L440.5000 570Q439.1000 570 438.1200 569.0200Q437.1400 568.0400 437.1400 566.6400L437.1400 566.6400L437.1400 527.5800Q437.1400 521.2800 435.3200 517.5700Q433.5000 513.8600 430.4200 512.3200Q427.3400 510.7800 423.5600 510.7800L423.5600 510.7800Q420.4800 510.7800 417.4000 512.3200Q414.3200 513.8600 412.3600 517.5700Q410.4000 521.2800 410.4000 527.5800L410.4000 527.5800L410.4000 566.6400Q410.4000 568.0400 409.4200 569.0200Q408.4400 570 407.0400 570L407.0400 570L395.5600 570Q394.1600 570 393.1800 569.0200Q392.2000 568.0400 392.2000 566.6400L392.2000 566.6400L392.2000 527.5800Q392.2000 521.2800 390.2400 517.5700Q388.2800 513.8600 385.2000 512.3200Q382.1200 510.7800 378.6200 510.7800L378.6200 510.7800Q375.4000 510.7800 372.3200 512.3900Q369.2400 514 367.2800 517.6400Q365.3200 521.2800 365.3200 527.5800L365.3200 527.5800L365.3200 566.6400Q365.3200 568.0400 364.3400 569.0200Q363.3600 570 361.9600 570L361.9600 570ZM494.2600 571.4000L494.2600 571.4000Q486.9800 571.4000 481.1000 568.5300Q475.2200 565.6600 471.7900 560.8300Q468.3600 556 468.3600 549.9800L468.3600 549.9800Q468.3600 540.1800 476.3400 534.3700Q484.3200 528.5600 497.2000 526.6000L497.2000 526.6000L516.3800 523.8000L516.3800 520.8600Q516.3800 514.9800 513.4400 511.7600Q510.5000 508.5400 503.3600 508.5400L503.3600 508.5400Q498.3200 508.5400 495.1700 510.5700Q492.0200 512.6000 490.4800 515.9600L490.4800 515.9600Q489.3600 517.7800 487.2600 517.7800L487.2600 517.7800L476.2000 517.7800Q474.6600 517.7800 473.8900 516.9400Q473.1200 516.1000 473.1200 514.7000L473.1200 514.7000Q473.2600 512.4600 475.0100 509.2400Q476.7600 506.0200 480.3300 503.0100Q483.9000 500 489.6400 497.9000Q495.3800 495.8000 503.5000 495.8000L503.5000 495.8000Q512.3200 495.8000 518.4100 497.9700Q524.5000 500.1400 528.1400 503.7800Q531.7800 507.4200 533.4600 512.3200Q535.1400 517.2200 535.1400 522.6800L535.1400 522.6800L535.1400 566.6400Q535.1400 568.0400 534.1600 569.0200Q533.1800 570 531.7800 570L531.7800 570L520.4400 570Q518.9000 570 517.9900 569.0200Q517.0800 568.0400 517.0800 566.6400L517.0800 566.6400L517.0800 561.1800Q515.2600 563.7000 512.1800 566.0800Q509.1000 568.4600 504.6900 569.9300Q500.2800 571.4000 494.2600 571.4000ZM499.0200 558.1000L499.0200 558.1000Q503.9200 558.1000 507.9100 556Q511.9000 553.9000 514.2100 549.4900Q516.5200 545.0800 516.5200 538.3600L516.5200 538.3600L516.5200 535.4200L502.5200 537.6600Q494.2600 538.9200 490.2000 541.7200Q486.1400 544.5200 486.1400 548.5800L486.1400 548.5800Q486.1400 551.6600 488.0300 553.8300Q489.9200 556 492.8600 557.0500Q495.8000 558.1000 499.0200 558.1000ZM506.1600 486.7000L497.6200 486.7000Q495.3800 486.7000 495.3800 484.4600L495.3800 484.4600Q495.3800 483.3400 496.0800 482.6400L496.0800 482.6400L507.4200 468.7800Q508.8200 467.2400 509.8000 466.7500Q510.7800 466.2600 512.6000 466.2600L512.6000 466.2600L526.6000 466.2600Q529.2600 466.2600 529.2600 468.9200L529.2600 468.9200Q529.2600 469.9000 528.5600 470.6000L528.5600 470.6000L511.2000 484.8800Q510.0800 485.8600 509.0300 486.2800Q507.9800 486.7000 506.1600 486.7000L506.1600 486.7000ZM568.6000 570L556.4200 570Q555.0200 570 554.0400 569.0200Q553.0600 568.0400 553.0600 566.6400L553.0600 566.6400L553.0600 500.7000Q553.0600 499.1600 554.0400 498.1800Q555.0200 497.2000 556.4200 497.2000L556.4200 497.2000L567.7600 497.2000Q569.1600 497.2000 570.2100 498.1800Q571.2600 499.1600 571.2600 500.7000L571.2600 500.7000L571.2600 506.4400Q574.4800 501.9600 579.5900 499.5800Q584.7000 497.2000 591.4200 497.2000L591.4200 497.2000L597.1600 497.2000Q598.7000 497.2000 599.6100 498.1800Q600.5200 499.1600 600.5200 500.5600L600.5200 500.5600L600.5200 510.6400Q600.5200 512.0400 599.6100 513.0200Q598.7000 514 597.1600 514L597.1600 514L586.2400 514Q579.5200 514 575.8100 517.7100Q572.1000 521.4200 572.1000 528.1400L572.1000 528.1400L572.1000 566.6400Q572.1000 568.0400 571.1200 569.0200Q570.1400 570 568.6000 570L568.6000 570ZM626.4200 570L614.8000 570Q613.4000 570 612.4200 569.0200Q611.4400 568.0400 611.4400 566.6400L611.4400 566.6400L611.4400 500.5600Q611.4400 499.1600 612.4200 498.1800Q613.4000 497.2000 614.8000 497.2000L614.8000 497.2000L626.4200 497.2000Q627.9600 497.2000 628.8700 498.1800Q629.7800 499.1600 629.7800 500.5600L629.7800 500.5600L629.7800 566.6400Q629.7800 568.0400 628.8700 569.0200Q627.9600 570 626.4200 570L626.4200 570ZM626.9800 485.1600L614.2400 485.1600Q612.8400 485.1600 611.8600 484.1800Q610.8800 483.2000 610.8800 481.8000L610.8800 481.8000L610.8800 471.7200Q610.8800 470.3200 611.8600 469.3400Q612.8400 468.3600 614.2400 468.3600L614.2400 468.3600L626.9800 468.3600Q628.5200 468.3600 629.5000 469.3400Q630.4800 470.3200 630.4800 471.7200L630.4800 471.7200L630.4800 481.8000Q630.4800 483.2000 629.5000 484.1800Q628.5200 485.1600 626.9800 485.1600L626.9800 485.1600ZM669.5400 571.4000L669.5400 571.4000Q662.2600 571.4000 656.3800 568.5300Q650.5000 565.6600 647.0700 560.8300Q643.6400 556 643.6400 549.9800L643.6400 549.9800Q643.6400 540.1800 651.6200 534.3700Q659.6000 528.5600 672.4800 526.6000L672.4800 526.6000L691.6600 523.8000L691.6600 520.8600Q691.6600 514.9800 688.7200 511.7600Q685.7800 508.5400 678.6400 508.5400L678.6400 508.5400Q673.6000 508.5400 670.4500 510.5700Q667.3000 512.6000 665.7600 515.9600L665.7600 515.9600Q664.6400 517.7800 662.5400 517.7800L662.5400 517.7800L651.4800 517.7800Q649.9400 517.7800 649.1700 516.9400Q648.4000 516.1000 648.4000 514.7000L648.4000 514.7000Q648.5400 512.4600 650.2900 509.2400Q652.0400 506.0200 655.6100 503.0100Q659.1800 500 664.9200 497.9000Q670.6600 495.8000 678.7800 495.8000L678.7800 495.8000Q687.6000 495.8000 693.6900 497.9700Q699.7800 500.1400 703.4200 503.7800Q707.0600 507.4200 708.7400 512.3200Q710.4200 517.2200 710.4200 522.6800L710.4200 522.6800L710.4200 566.6400Q710.4200 568.0400 709.4400 569.0200Q708.4600 570 707.0600 570L707.0600 570L695.7200 570Q694.1800 570 693.2700 569.0200Q692.3600 568.0400 692.3600 566.6400L692.3600 566.6400L692.3600 561.1800Q690.5400 563.7000 687.4600 566.0800Q684.3800 568.4600 679.9700 569.9300Q675.5600 571.4000 669.5400 571.4000ZM674.3000 558.1000L674.3000 558.1000Q679.2000 558.1000 683.1900 556Q687.1800 553.9000 689.4900 549.4900Q691.8000 545.0800 691.8000 538.3600L691.8000 538.3600L691.8000 535.4200L677.8000 537.6600Q669.5400 538.9200 665.4800 541.7200Q661.4200 544.5200 661.4200 548.5800L661.4200 548.5800Q661.4200 551.6600 663.3100 553.8300Q665.2000 556 668.1400 557.0500Q671.0800 558.1000 674.3000 558.1000ZM755.9200 571.4000L755.9200 571.4000Q747.5200 571.4000 741.5700 569.4400Q735.6200 567.4800 731.8400 564.5400Q728.0600 561.6000 726.2400 558.6600Q724.4200 555.7200 724.2800 553.7600L724.2800 553.7600Q724.1400 552.2200 725.1900 551.3100Q726.2400 550.4000 727.5000 550.4000L727.5000 550.4000L738.5600 550.4000Q739.1200 550.4000 739.5400 550.5400Q739.9600 550.6800 740.6600 551.3800L740.6600 551.3800Q742.4800 552.9200 744.5100 554.6000Q746.5400 556.2800 749.3400 557.4700Q752.1400 558.6600 756.3400 558.6600L756.3400 558.6600Q761.8000 558.6600 765.5100 556.4900Q769.2200 554.3200 769.2200 550.2600L769.2200 550.2600Q769.2200 547.3200 767.6100 545.5000Q766.0000 543.6800 761.6600 542.2100Q757.3200 540.7400 749.3400 539.0600L749.3400 539.0600Q741.5000 537.2400 736.3200 534.4400Q731.1400 531.6400 728.6200 527.4400Q726.1000 523.2400 726.1000 517.6400L726.1000 517.6400Q726.1000 512.1800 729.3900 507.2100Q732.6800 502.2400 739.1900 499.0200Q745.7000 495.8000 755.3600 495.8000L755.3600 495.8000Q762.9200 495.8000 768.5200 497.6900Q774.1200 499.5800 777.8300 502.3800Q781.5400 505.1800 783.5000 508.0500Q785.4600 510.9200 785.6000 513.0200L785.6000 513.0200Q785.7400 514.5600 784.7600 515.4700Q783.7800 516.3800 782.5200 516.3800L782.5200 516.3800L772.1600 516.3800Q771.4600 516.3800 770.9000 516.1000Q770.3400 515.8200 769.7800 515.4000L769.7800 515.4000Q768.2400 514 766.4200 512.3900Q764.6000 510.7800 762.0100 509.6600Q759.4200 508.5400 755.2200 508.5400L755.2200 508.5400Q749.9000 508.5400 747.1000 510.8500Q744.3000 513.1600 744.3000 516.6600L744.3000 516.6600Q744.3000 519.0400 745.6300 520.7900Q746.9600 522.5400 751.0200 524.0800Q755.0800 525.6200 763.3400 527.3000L763.3400 527.3000Q772.7200 528.9800 778.2500 532.2700Q783.7800 535.5600 786.0900 539.8300Q788.4000 544.1000 788.4000 549.2800L788.4000 549.2800Q788.4000 555.5800 784.6900 560.6200Q780.9800 565.6600 773.7700 568.5300Q766.5600 571.4000 755.9200 571.4000ZM866.2400 571.4000L866.2400 571.4000Q850.7000 571.4000 841.6000 562.4400Q832.5000 553.4800 831.8000 536.9600L831.8000 536.9600Q831.6600 535.5600 831.6600 533.3900Q831.6600 531.2200 831.8000 529.9600L831.8000 529.9600Q832.3600 519.3200 836.6300 511.6900Q840.9000 504.0600 848.4600 499.9300Q856.0200 495.8000 866.2400 495.8000L866.2400 495.8000Q877.5800 495.8000 885.2800 500.4900Q892.9800 505.1800 896.9000 513.5100Q900.8200 521.8400 900.8200 532.7600L900.8200 532.7600L900.8200 535.7000Q900.8200 537.1000 899.8400 538.0800Q898.8600 539.0600 897.3200 539.0600L897.3200 539.0600L850.8400 539.0600Q850.8400 539.0600 850.8400 539.4800Q850.8400 539.9000 850.8400 540.1800L850.8400 540.1800Q850.9800 545.0800 852.7300 549.2100Q854.4800 553.3400 857.9100 555.8600Q861.3400 558.3800 866.1000 558.3800L866.1000 558.3800Q870.0200 558.3800 872.6800 557.1900Q875.3400 556 877.0200 554.4600Q878.7000 552.9200 879.4000 551.9400L879.4000 551.9400Q880.6600 550.2600 881.4300 549.9100Q882.2000 549.5600 883.7400 549.5600L883.7400 549.5600L895.7800 549.5600Q897.1800 549.5600 898.0900 550.4000Q899.0000 551.2400 898.8600 552.5000L898.8600 552.5000Q898.7200 554.7400 896.5500 557.9600Q894.3800 561.1800 890.3200 564.2600Q886.2600 567.3400 880.1700 569.3700Q874.0800 571.4000 866.2400 571.4000ZM850.8400 526.8800L850.8400 527.3000L881.7800 527.3000L881.7800 526.8800Q881.7800 521.4200 879.9600 517.2900Q878.1400 513.1600 874.6400 510.8500Q871.1400 508.5400 866.2400 508.5400L866.2400 508.5400Q861.3400 508.5400 857.8400 510.8500Q854.3400 513.1600 852.5900 517.2900Q850.8400 521.4200 850.8400 526.8800L850.8400 526.8800ZM987.2000 571.4000L987.2000 571.4000Q974.1800 571.4000 965.1500 566.8500Q956.1200 562.3000 951.3600 553.8300Q946.6000 545.3600 946.0400 533.4600L946.0400 533.4600Q945.9000 527.7200 945.9000 521.1400Q945.9000 514.5600 946.0400 508.5400L946.0400 508.5400Q946.6000 496.7800 951.4300 488.2400Q956.2600 479.7000 965.2900 475.1500Q974.3200 470.6000 987.2000 470.6000L987.2000 470.6000Q996.7200 470.6000 1004.2800 473.1200Q1011.8400 475.6400 1017.1600 480.0500Q1022.4800 484.4600 1025.4200 490.3400Q1028.3600 496.2200 1028.5000 503.0800L1028.5000 503.0800Q1028.6400 504.3400 1027.7300 505.1800Q1026.8200 506.0200 1025.5600 506.0200L1025.5600 506.0200L1012.2600 506.0200Q1010.7200 506.0200 1009.7400 505.2500Q1008.7600 504.4800 1008.3400 502.6600L1008.3400 502.6600Q1006.1000 493.4200 1000.6400 490.0600Q995.1800 486.7000 987.0600 486.7000L987.0600 486.7000Q977.6800 486.7000 972.0800 491.9500Q966.4800 497.2000 966.0600 509.2400L966.0600 509.2400Q965.6400 520.7200 966.0600 532.7600L966.0600 532.7600Q966.4800 544.8000 972.0800 550.0500Q977.6800 555.3000 987.0600 555.3000L987.0600 555.3000Q995.1800 555.3000 1000.7100 551.8700Q1006.2400 548.4400 1008.3400 539.3400L1008.3400 539.3400Q1008.7600 537.3800 1009.7400 536.6800Q1010.7200 535.9800 1012.2600 535.9800L1012.2600 535.9800L1025.5600 535.9800Q1026.8200 535.9800 1027.7300 536.8200Q1028.6400 537.6600 1028.5000 538.9200L1028.5000 538.9200Q1028.3600 545.7800 1025.4200 551.6600Q1022.4800 557.5400 1017.1600 561.9500Q1011.8400 566.3600 1004.2800 568.8800Q996.7200 571.4000 987.2000 571.4000ZM1059.4400 570L1046.9800 570Q1045.5800 570 1044.6000 569.0200Q1043.6200 568.0400 1043.6200 566.6400L1043.6200 566.6400L1043.6200 473.9600Q1043.6200 472.5600 1044.6000 471.5800Q1045.5800 470.6000 1046.9800 470.6000L1046.9800 470.6000L1059.4400 470.6000Q1060.9800 470.6000 1061.8900 471.5800Q1062.8000 472.5600 1062.8000 473.9600L1062.8000 473.9600L1062.8000 505.8800Q1066.5800 501.4000 1072.0400 498.6000Q1077.5000 495.8000 1085.4800 495.8000L1085.4800 495.8000Q1094.0200 495.8000 1100.3900 499.6500Q1106.7600 503.5000 1110.2600 510.5000Q1113.7600 517.5000 1113.7600 527.3000L1113.7600 527.3000L1113.7600 566.6400Q1113.7600 568.0400 1112.7800 569.0200Q1111.8000 570 1110.4000 570L1110.4000 570L1097.8000 570Q1096.4000 570 1095.4200 569.0200Q1094.4400 568.0400 1094.4400 566.6400L1094.4400 566.6400L1094.4400 528.1400Q1094.4400 520.0200 1090.4500 515.4000Q1086.4600 510.7800 1078.9000 510.7800L1078.9000 510.7800Q1071.6200 510.7800 1067.2100 515.4000Q1062.8000 520.0200 1062.8000 528.1400L1062.8000 528.1400L1062.8000 566.6400Q1062.8000 568.0400 1061.8900 569.0200Q1060.9800 570 1059.4400 570L1059.4400 570ZM1152.6800 571.4000L1152.6800 571.4000Q1145.4000 571.4000 1139.5200 568.5300Q1133.6400 565.6600 1130.2100 560.8300Q1126.7800 556 1126.7800 549.9800L1126.7800 549.9800Q1126.7800 540.1800 1134.7600 534.3700Q1142.7400 528.5600 1155.6200 526.6000L1155.6200 526.6000L1174.8000 523.8000L1174.8000 520.8600Q1174.8000 514.9800 1171.8600 511.7600Q1168.9200 508.5400 1161.7800 508.5400L1161.7800 508.5400Q1156.7400 508.5400 1153.5900 510.5700Q1150.4400 512.6000 1148.9000 515.9600L1148.9000 515.9600Q1147.7800 517.7800 1145.6800 517.7800L1145.6800 517.7800L1134.6200 517.7800Q1133.0800 517.7800 1132.3100 516.9400Q1131.5400 516.1000 1131.5400 514.7000L1131.5400 514.7000Q1131.6800 512.4600 1133.4300 509.2400Q1135.1800 506.0200 1138.7500 503.0100Q1142.3200 500 1148.0600 497.9000Q1153.8000 495.8000 1161.9200 495.8000L1161.9200 495.8000Q1170.7400 495.8000 1176.8300 497.9700Q1182.9200 500.1400 1186.5600 503.7800Q1190.2000 507.4200 1191.8800 512.3200Q1193.5600 517.2200 1193.5600 522.6800L1193.5600 522.6800L1193.5600 566.6400Q1193.5600 568.0400 1192.5800 569.0200Q1191.6000 570 1190.2000 570L1190.2000 570L1178.8600 570Q1177.3200 570 1176.4100 569.0200Q1175.5000 568.0400 1175.5000 566.6400L1175.5000 566.6400L1175.5000 561.1800Q1173.6800 563.7000 1170.6000 566.0800Q1167.5200 568.4600 1163.1100 569.9300Q1158.7000 571.4000 1152.6800 571.4000ZM1157.4400 558.1000L1157.4400 558.1000Q1162.3400 558.1000 1166.3300 556Q1170.3200 553.9000 1172.6300 549.4900Q1174.9400 545.0800 1174.9400 538.3600L1174.9400 538.3600L1174.9400 535.4200L1160.9400 537.6600Q1152.6800 538.9200 1148.6200 541.7200Q1144.5600 544.5200 1144.5600 548.5800L1144.5600 548.5800Q1144.5600 551.6600 1146.4500 553.8300Q1148.3400 556 1151.2800 557.0500Q1154.2200 558.1000 1157.4400 558.1000ZM1247.6000 570L1237.2400 570Q1235 570 1233.9500 568.9500Q1232.9000 567.9000 1232.2000 566.5000L1232.2000 566.5000L1206.0200 501.5400Q1205.7400 500.8400 1205.7400 500.2800L1205.7400 500.2800Q1205.7400 499.0200 1206.6500 498.1100Q1207.5600 497.2000 1208.8200 497.2000L1208.8200 497.2000L1220.1600 497.2000Q1221.8400 497.2000 1222.6800 498.1100Q1223.5200 499.0200 1223.8000 499.8600L1223.8000 499.8600L1242.4200 549L1261.0400 499.8600Q1261.3200 499.0200 1262.1600 498.1100Q1263 497.2000 1264.6800 497.2000L1264.6800 497.2000L1276.1600 497.2000Q1277.2800 497.2000 1278.1900 498.1100Q1279.1000 499.0200 1279.1000 500.2800L1279.1000 500.2800Q1279.1000 500.8400 1278.9600 501.5400L1278.9600 501.5400L1252.6400 566.5000Q1252.0800 567.9000 1250.9600 568.9500Q1249.8400 570 1247.6000 570L1247.6000 570ZM1323.2000 571.4000L1323.2000 571.4000Q1307.6600 571.4000 1298.5600 562.4400Q1289.4600 553.4800 1288.7600 536.9600L1288.7600 536.9600Q1288.6200 535.5600 1288.6200 533.3900Q1288.6200 531.2200 1288.7600 529.9600L1288.7600 529.9600Q1289.3200 519.3200 1293.5900 511.6900Q1297.8600 504.0600 1305.4200 499.9300Q1312.9800 495.8000 1323.2000 495.8000L1323.2000 495.8000Q1334.5400 495.8000 1342.2400 500.4900Q1349.9400 505.1800 1353.8600 513.5100Q1357.7800 521.8400 1357.7800 532.7600L1357.7800 532.7600L1357.7800 535.7000Q1357.7800 537.1000 1356.8000 538.0800Q1355.8200 539.0600 1354.2800 539.0600L1354.2800 539.0600L1307.8000 539.0600Q1307.8000 539.0600 1307.8000 539.4800Q1307.8000 539.9000 1307.8000 540.1800L1307.8000 540.1800Q1307.9400 545.0800 1309.6900 549.2100Q1311.4400 553.3400 1314.8700 555.8600Q1318.3000 558.3800 1323.0600 558.3800L1323.0600 558.3800Q1326.9800 558.3800 1329.6400 557.1900Q1332.3000 556 1333.9800 554.4600Q1335.6600 552.9200 1336.3600 551.9400L1336.3600 551.9400Q1337.6200 550.2600 1338.3900 549.9100Q1339.1600 549.5600 1340.7000 549.5600L1340.7000 549.5600L1352.7400 549.5600Q1354.1400 549.5600 1355.0500 550.4000Q1355.9600 551.2400 1355.8200 552.5000L1355.8200 552.5000Q1355.6800 554.7400 1353.5100 557.9600Q1351.3400 561.1800 1347.2800 564.2600Q1343.2200 567.3400 1337.1300 569.3700Q1331.0400 571.4000 1323.2000 571.4000ZM1307.8000 526.8800L1307.8000 527.3000L1338.7400 527.3000L1338.7400 526.8800Q1338.7400 521.4200 1336.9200 517.2900Q1335.1000 513.1600 1331.6000 510.8500Q1328.1000 508.5400 1323.2000 508.5400L1323.2000 508.5400Q1318.3000 508.5400 1314.8000 510.8500Q1311.3000 513.1600 1309.5500 517.2900Q1307.8000 521.4200 1307.8000 526.8800L1307.8000 526.8800ZM1400.2000 571.4000L1400.2000 571.4000Q1391.8000 571.4000 1385.8500 569.4400Q1379.9000 567.4800 1376.1200 564.5400Q1372.3400 561.6000 1370.5200 558.6600Q1368.7000 555.7200 1368.5600 553.7600L1368.5600 553.7600Q1368.4200 552.2200 1369.4700 551.3100Q1370.5200 550.4000 1371.7800 550.4000L1371.7800 550.4000L1382.8400 550.4000Q1383.4000 550.4000 1383.8200 550.5400Q1384.2400 550.6800 1384.9400 551.3800L1384.9400 551.3800Q1386.7600 552.9200 1388.7900 554.6000Q1390.8200 556.2800 1393.6200 557.4700Q1396.4200 558.6600 1400.6200 558.6600L1400.6200 558.6600Q1406.0800 558.6600 1409.7900 556.4900Q1413.5000 554.3200 1413.5000 550.2600L1413.5000 550.2600Q1413.5000 547.3200 1411.8900 545.5000Q1410.2800 543.6800 1405.9400 542.2100Q1401.6000 540.7400 1393.6200 539.0600L1393.6200 539.0600Q1385.7800 537.2400 1380.6000 534.4400Q1375.4200 531.6400 1372.9000 527.4400Q1370.3800 523.2400 1370.3800 517.6400L1370.3800 517.6400Q1370.3800 512.1800 1373.6700 507.2100Q1376.9600 502.2400 1383.4700 499.0200Q1389.9800 495.8000 1399.6400 495.8000L1399.6400 495.8000Q1407.2000 495.8000 1412.8000 497.6900Q1418.4000 499.5800 1422.1100 502.3800Q1425.8200 505.1800 1427.7800 508.0500Q1429.7400 510.9200 1429.8800 513.0200L1429.8800 513.0200Q1430.0200 514.5600 1429.0400 515.4700Q1428.0600 516.3800 1426.8000 516.3800L1426.8000 516.3800L1416.4400 516.3800Q1415.7400 516.3800 1415.1800 516.1000Q1414.6200 515.8200 1414.0600 515.4000L1414.0600 515.4000Q1412.5200 514 1410.7000 512.3900Q1408.8800 510.7800 1406.2900 509.6600Q1403.7000 508.5400 1399.5000 508.5400L1399.5000 508.5400Q1394.1800 508.5400 1391.3800 510.8500Q1388.5800 513.1600 1388.5800 516.6600L1388.5800 516.6600Q1388.5800 519.0400 1389.9100 520.7900Q1391.2400 522.5400 1395.3000 524.0800Q1399.3600 525.6200 1407.6200 527.3000L1407.6200 527.3000Q1417 528.9800 1422.5300 532.2700Q1428.0600 535.5600 1430.3700 539.8300Q1432.6800 544.1000 1432.6800 549.2800L1432.6800 549.2800Q1432.6800 555.5800 1428.9700 560.6200Q1425.2600 565.6600 1418.0500 568.5300Q1410.8400 571.4000 1400.2000 571.4000ZM198.7200 711.4000L198.7200 711.4000Q185.7000 711.4000 176.6700 706.8500Q167.6400 702.3000 162.8800 693.8300Q158.1200 685.3600 157.5600 673.4600L157.5600 673.4600Q157.4200 667.7200 157.4200 661.1400Q157.4200 654.5600 157.5600 648.5400L157.5600 648.5400Q158.1200 636.7800 162.9500 628.2400Q167.7800 619.7000 176.8100 615.1500Q185.8400 610.6000 198.7200 610.6000L198.7200 610.6000Q208.2400 610.6000 215.8000 613.1200Q223.3600 615.6400 228.6800 620.0500Q234 624.4600 236.9400 630.3400Q239.8800 636.2200 240.0200 643.0800L240.0200 643.0800Q240.1600 644.3400 239.2500 645.1800Q238.3400 646.0200 237.0800 646.0200L237.0800 646.0200L223.7800 646.0200Q222.2400 646.0200 221.2600 645.2500Q220.2800 644.4800 219.8600 642.6600L219.8600 642.6600Q217.6200 633.4200 212.1600 630.0600Q206.7000 626.7000 198.5800 626.7000L198.5800 626.7000Q189.2000 626.7000 183.6000 631.9500Q178 637.2000 177.5800 649.2400L177.5800 649.2400Q177.1600 660.7200 177.5800 672.7600L177.5800 672.7600Q178 684.8000 183.6000 690.0500Q189.2000 695.3000 198.5800 695.3000L198.5800 695.3000Q206.7000 695.3000 212.2300 691.8700Q217.7600 688.4400 219.8600 679.3400L219.8600 679.3400Q220.2800 677.3800 221.2600 676.6800Q222.2400 675.9800 223.7800 675.9800L223.7800 675.9800L237.0800 675.9800Q238.3400 675.9800 239.2500 676.8200Q240.1600 677.6600 240.0200 678.9200L240.0200 678.9200Q239.8800 685.7800 236.9400 691.6600Q234 697.5400 228.6800 701.9500Q223.3600 706.3600 215.8000 708.8800Q208.2400 711.4000 198.7200 711.4000ZM287.2000 711.4000L287.2000 711.4000Q276 711.4000 268.3700 707.4800Q260.7400 703.5600 256.7500 696.4200Q252.7600 689.2800 252.2000 679.7600L252.2000 679.7600Q252.0600 677.2400 252.0600 673.6000Q252.0600 669.9600 252.2000 667.4400L252.2000 667.4400Q252.7600 657.7800 256.8900 650.7100Q261.0200 643.6400 268.6500 639.7200Q276.2800 635.8000 287.2000 635.8000L287.2000 635.8000Q298.1200 635.8000 305.7500 639.7200Q313.3800 643.6400 317.5100 650.7100Q321.6400 657.7800 322.2000 667.4400L322.2000 667.4400Q322.3400 669.9600 322.3400 673.6000Q322.3400 677.2400 322.2000 679.7600L322.2000 679.7600Q321.6400 689.2800 317.6500 696.4200Q313.6600 703.5600 306.0300 707.4800Q298.4000 711.4000 287.2000 711.4000ZM287.2000 697.5400L287.2000 697.5400Q294.6200 697.5400 298.6800 692.8500Q302.7400 688.1600 303.1600 679.0600L303.1600 679.0600Q303.3000 676.9600 303.3000 673.6000Q303.3000 670.2400 303.1600 668.1400L303.1600 668.1400Q302.7400 659.0400 298.6800 654.3500Q294.6200 649.6600 287.2000 649.6600L287.2000 649.6600Q279.7800 649.6600 275.7200 654.3500Q271.6600 659.0400 271.2400 668.1400L271.2400 668.1400Q271.1000 670.2400 271.1000 673.6000Q271.1000 676.9600 271.2400 679.0600L271.2400 679.0600Q271.6600 688.1600 275.7200 692.8500Q279.7800 697.5400 287.2000 697.5400ZM353 710L341.2400 710Q339.8400 710 338.8600 709.0200Q337.8800 708.0400 337.8800 706.6400L337.8800 706.6400L337.8800 640.5600Q337.8800 639.1600 338.8600 638.1800Q339.8400 637.2000 341.2400 637.2000L341.2400 637.2000L352.1600 637.2000Q353.5600 637.2000 354.5400 638.1800Q355.5200 639.1600 355.5200 640.5600L355.5200 640.5600L355.5200 645.3200Q358.4600 641.4000 363.4300 638.6700Q368.4000 635.9400 375.2600 635.8000L375.2600 635.8000Q391.2200 635.5200 397.5200 648.2600L397.5200 648.2600Q400.7400 642.6600 406.8300 639.2300Q412.9200 635.8000 420.3400 635.8000L420.3400 635.8000Q427.6200 635.8000 433.5700 639.1600Q439.5200 642.5200 442.9500 649.3100Q446.3800 656.1000 446.3800 666.4600L446.3800 666.4600L446.3800 706.6400Q446.3800 708.0400 445.4000 709.0200Q444.4200 710 443.0200 710L443.0200 710L431.5400 710Q430.1400 710 429.1600 709.0200Q428.1800 708.0400 428.1800 706.6400L428.1800 706.6400L428.1800 667.5800Q428.1800 661.2800 426.3600 657.5700Q424.5400 653.8600 421.4600 652.3200Q418.3800 650.7800 414.6000 650.7800L414.6000 650.7800Q411.5200 650.7800 408.4400 652.3200Q405.3600 653.8600 403.4000 657.5700Q401.4400 661.2800 401.4400 667.5800L401.4400 667.5800L401.4400 706.6400Q401.4400 708.0400 400.4600 709.0200Q399.4800 710 398.0800 710L398.0800 710L386.6000 710Q385.2000 710 384.2200 709.0200Q383.2400 708.0400 383.2400 706.6400L383.2400 706.6400L383.2400 667.5800Q383.2400 661.2800 381.2800 657.5700Q379.3200 653.8600 376.2400 652.3200Q373.1600 650.7800 369.6600 650.7800L369.6600 650.7800Q366.4400 650.7800 363.3600 652.3900Q360.2800 654 358.3200 657.6400Q356.3600 661.2800 356.3600 667.5800L356.3600 667.5800L356.3600 706.6400Q356.3600 708.0400 355.3800 709.0200Q354.4000 710 353 710L353 710ZM479.5600 736.6000L467.6600 736.6000Q466.2600 736.6000 465.2800 735.6200Q464.3000 734.6400 464.3000 733.2400L464.3000 733.2400L464.3000 640.5600Q464.3000 639.1600 465.2800 638.1800Q466.2600 637.2000 467.6600 637.2000L467.6600 637.2000L478.7200 637.2000Q480.2600 637.2000 481.1700 638.1800Q482.0800 639.1600 482.0800 640.5600L482.0800 640.5600L482.0800 646.1600Q485.4400 641.6800 490.9000 638.7400Q496.3600 635.8000 504.4800 635.8000L504.4800 635.8000Q511.9000 635.8000 517.3600 638.1800Q522.8200 640.5600 526.4600 644.9700Q530.1000 649.3800 532.0600 655.4000Q534.0200 661.4200 534.3000 668.7000L534.3000 668.7000Q534.4400 671.0800 534.4400 673.6000Q534.4400 676.1200 534.3000 678.6400L534.3000 678.6400Q534.1600 685.6400 532.2000 691.5900Q530.2400 697.5400 526.5300 701.9500Q522.8200 706.3600 517.3600 708.8800Q511.9000 711.4000 504.4800 711.4000L504.4800 711.4000Q496.9200 711.4000 491.6000 708.6700Q486.2800 705.9400 482.9200 701.4600L482.9200 701.4600L482.9200 733.2400Q482.9200 734.6400 482.0100 735.6200Q481.1000 736.6000 479.5600 736.6000L479.5600 736.6000ZM499.3000 696.4200L499.3000 696.4200Q505.3200 696.4200 508.6800 693.8300Q512.0400 691.2400 513.5800 687.0400Q515.1200 682.8400 515.4000 677.8000L515.4000 677.8000Q515.5400 673.6000 515.4000 669.4000L515.4000 669.4000Q515.1200 664.3600 513.5800 660.1600Q512.0400 655.9600 508.6800 653.3700Q505.3200 650.7800 499.3000 650.7800L499.3000 650.7800Q493.5600 650.7800 489.9900 653.4400Q486.4200 656.1000 484.8100 660.2300Q483.2000 664.3600 482.9200 668.7000L482.9200 668.7000Q482.7800 671.2200 482.7800 674.0200Q482.7800 676.8200 482.9200 679.4800L482.9200 679.4800Q483.0600 683.6800 484.8800 687.5300Q486.7000 691.3800 490.2000 693.9000Q493.7000 696.4200 499.3000 696.4200ZM582.3200 711.4000L582.3200 711.4000Q571.1200 711.4000 563.4900 707.4800Q555.8600 703.5600 551.8700 696.4200Q547.8800 689.2800 547.3200 679.7600L547.3200 679.7600Q547.1800 677.2400 547.1800 673.6000Q547.1800 669.9600 547.3200 667.4400L547.3200 667.4400Q547.8800 657.7800 552.0100 650.7100Q556.1400 643.6400 563.7700 639.7200Q571.4000 635.8000 582.3200 635.8000L582.3200 635.8000Q593.2400 635.8000 600.8700 639.7200Q608.5000 643.6400 612.6300 650.7100Q616.7600 657.7800 617.3200 667.4400L617.3200 667.4400Q617.4600 669.9600 617.4600 673.6000Q617.4600 677.2400 617.3200 679.7600L617.3200 679.7600Q616.7600 689.2800 612.7700 696.4200Q608.7800 703.5600 601.1500 707.4800Q593.5200 711.4000 582.3200 711.4000ZM582.3200 697.5400L582.3200 697.5400Q589.7400 697.5400 593.8000 692.8500Q597.8600 688.1600 598.2800 679.0600L598.2800 679.0600Q598.4200 676.9600 598.4200 673.6000Q598.4200 670.2400 598.2800 668.1400L598.2800 668.1400Q597.8600 659.0400 593.8000 654.3500Q589.7400 649.6600 582.3200 649.6600L582.3200 649.6600Q574.9000 649.6600 570.8400 654.3500Q566.7800 659.0400 566.3600 668.1400L566.3600 668.1400Q566.2200 670.2400 566.2200 673.6000Q566.2200 676.9600 566.3600 679.0600L566.3600 679.0600Q566.7800 688.1600 570.8400 692.8500Q574.9000 697.5400 582.3200 697.5400ZM660.5800 711.4000L660.5800 711.4000Q652.1800 711.4000 646.2300 709.4400Q640.2800 707.4800 636.5000 704.5400Q632.7200 701.6000 630.9000 698.6600Q629.0800 695.7200 628.9400 693.7600L628.9400 693.7600Q628.8000 692.2200 629.8500 691.3100Q630.9000 690.4000 632.1600 690.4000L632.1600 690.4000L643.2200 690.4000Q643.7800 690.4000 644.2000 690.5400Q644.6200 690.6800 645.3200 691.3800L645.3200 691.3800Q647.1400 692.9200 649.1700 694.6000Q651.2000 696.2800 654 697.4700Q656.8000 698.6600 661 698.6600L661 698.6600Q666.4600 698.6600 670.1700 696.4900Q673.8800 694.3200 673.8800 690.2600L673.8800 690.2600Q673.8800 687.3200 672.2700 685.5000Q670.6600 683.6800 666.3200 682.2100Q661.9800 680.7400 654 679.0600L654 679.0600Q646.1600 677.2400 640.9800 674.4400Q635.8000 671.6400 633.2800 667.4400Q630.7600 663.2400 630.7600 657.6400L630.7600 657.6400Q630.7600 652.1800 634.0500 647.2100Q637.3400 642.2400 643.8500 639.0200Q650.3600 635.8000 660.0200 635.8000L660.0200 635.8000Q667.5800 635.8000 673.1800 637.6900Q678.7800 639.5800 682.4900 642.3800Q686.2000 645.1800 688.1600 648.0500Q690.1200 650.9200 690.2600 653.0200L690.2600 653.0200Q690.4000 654.5600 689.4200 655.4700Q688.4400 656.3800 687.1800 656.3800L687.1800 656.3800L676.8200 656.3800Q676.1200 656.3800 675.5600 656.1000Q675 655.8200 674.4400 655.4000L674.4400 655.4000Q672.9000 654 671.0800 652.3900Q669.2600 650.7800 666.6700 649.6600Q664.0800 648.5400 659.8800 648.5400L659.8800 648.5400Q654.5600 648.5400 651.7600 650.8500Q648.9600 653.1600 648.9600 656.6600L648.9600 656.6600Q648.9600 659.0400 650.2900 660.7900Q651.6200 662.5400 655.6800 664.0800Q659.7400 665.6200 668 667.3000L668 667.3000Q677.3800 668.9800 682.9100 672.2700Q688.4400 675.5600 690.7500 679.8300Q693.0600 684.1000 693.0600 689.2800L693.0600 689.2800Q693.0600 695.5800 689.3500 700.6200Q685.6400 705.6600 678.4300 708.5300Q671.2200 711.4000 660.5800 711.4000ZM751.7200 710L740.3800 710Q731.9800 710 726.2400 707.0600Q720.5000 704.1200 717.7000 698.3100Q714.9000 692.5000 714.9000 683.8200L714.9000 683.8200L714.9000 652.0400L703.8400 652.0400Q702.4400 652.0400 701.4600 651.0600Q700.4800 650.0800 700.4800 648.5400L700.4800 648.5400L700.4800 640.5600Q700.4800 639.1600 701.4600 638.1800Q702.4400 637.2000 703.8400 637.2000L703.8400 637.2000L714.9000 637.2000L714.9000 613.9600Q714.9000 612.5600 715.8100 611.5800Q716.7200 610.6000 718.2600 610.6000L718.2600 610.6000L729.6000 610.6000Q731 610.6000 731.9800 611.5800Q732.9600 612.5600 732.9600 613.9600L732.9600 613.9600L732.9600 637.2000L750.4600 637.2000Q751.8600 637.2000 752.8400 638.1800Q753.8200 639.1600 753.8200 640.5600L753.8200 640.5600L753.8200 648.5400Q753.8200 650.0800 752.8400 651.0600Q751.8600 652.0400 750.4600 652.0400L750.4600 652.0400L732.9600 652.0400L732.9600 682.4200Q732.9600 688.1600 734.9900 691.3800Q737.0200 694.6000 742.0600 694.6000L742.0600 694.6000L751.7200 694.6000Q753.1200 694.6000 754.1000 695.5800Q755.0800 696.5600 755.0800 697.9600L755.0800 697.9600L755.0800 706.6400Q755.0800 708.0400 754.1000 709.0200Q753.1200 710 751.7200 710L751.7200 710ZM788.6800 711.4000L788.6800 711.4000Q781.4000 711.4000 775.5200 708.5300Q769.6400 705.6600 766.2100 700.8300Q762.7800 696 762.7800 689.9800L762.7800 689.9800Q762.7800 680.1800 770.7600 674.3700Q778.7400 668.5600 791.6200 666.6000L791.6200 666.6000L810.8000 663.8000L810.8000 660.8600Q810.8000 654.9800 807.8600 651.7600Q804.9200 648.5400 797.7800 648.5400L797.7800 648.5400Q792.7400 648.5400 789.5900 650.5700Q786.4400 652.6000 784.9000 655.9600L784.9000 655.9600Q783.7800 657.7800 781.6800 657.7800L781.6800 657.7800L770.6200 657.7800Q769.0800 657.7800 768.3100 656.9400Q767.5400 656.1000 767.5400 654.7000L767.5400 654.7000Q767.6800 652.4600 769.4300 649.2400Q771.1800 646.0200 774.7500 643.0100Q778.3200 640 784.0600 637.9000Q789.8000 635.8000 797.9200 635.8000L797.9200 635.8000Q806.7400 635.8000 812.8300 637.9700Q818.9200 640.1400 822.5600 643.7800Q826.2000 647.4200 827.8800 652.3200Q829.5600 657.2200 829.5600 662.6800L829.5600 662.6800L829.5600 706.6400Q829.5600 708.0400 828.5800 709.0200Q827.6000 710 826.2000 710L826.2000 710L814.8600 710Q813.3200 710 812.4100 709.0200Q811.5000 708.0400 811.5000 706.6400L811.5000 706.6400L811.5000 701.1800Q809.6800 703.7000 806.6000 706.0800Q803.5200 708.4600 799.1100 709.9300Q794.7000 711.4000 788.6800 711.4000ZM793.4400 698.1000L793.4400 698.1000Q798.3400 698.1000 802.3300 696Q806.3200 693.9000 808.6300 689.4900Q810.9400 685.0800 810.9400 678.3600L810.9400 678.3600L810.9400 675.4200L796.9400 677.6600Q788.6800 678.9200 784.6200 681.7200Q780.5600 684.5200 780.5600 688.5800L780.5600 688.5800Q780.5600 691.6600 782.4500 693.8300Q784.3400 696 787.2800 697.0500Q790.2200 698.1000 793.4400 698.1000ZM875.0600 711.4000L875.0600 711.4000Q866.6600 711.4000 860.7100 709.4400Q854.7600 707.4800 850.9800 704.5400Q847.2000 701.6000 845.3800 698.6600Q843.5600 695.7200 843.4200 693.7600L843.4200 693.7600Q843.2800 692.2200 844.3300 691.3100Q845.3800 690.4000 846.6400 690.4000L846.6400 690.4000L857.7000 690.4000Q858.2600 690.4000 858.6800 690.5400Q859.1000 690.6800 859.8000 691.3800L859.8000 691.3800Q861.6200 692.9200 863.6500 694.6000Q865.6800 696.2800 868.4800 697.4700Q871.2800 698.6600 875.4800 698.6600L875.4800 698.6600Q880.9400 698.6600 884.6500 696.4900Q888.3600 694.3200 888.3600 690.2600L888.3600 690.2600Q888.3600 687.3200 886.7500 685.5000Q885.1400 683.6800 880.8000 682.2100Q876.4600 680.7400 868.4800 679.0600L868.4800 679.0600Q860.6400 677.2400 855.4600 674.4400Q850.2800 671.6400 847.7600 667.4400Q845.2400 663.2400 845.2400 657.6400L845.2400 657.6400Q845.2400 652.1800 848.5300 647.2100Q851.8200 642.2400 858.3300 639.0200Q864.8400 635.8000 874.5000 635.8000L874.5000 635.8000Q882.0600 635.8000 887.6600 637.6900Q893.2600 639.5800 896.9700 642.3800Q900.6800 645.1800 902.6400 648.0500Q904.6000 650.9200 904.7400 653.0200L904.7400 653.0200Q904.8800 654.5600 903.9000 655.4700Q902.9200 656.3800 901.6600 656.3800L901.6600 656.3800L891.3000 656.3800Q890.6000 656.3800 890.0400 656.1000Q889.4800 655.8200 888.9200 655.4000L888.9200 655.4000Q887.3800 654 885.5600 652.3900Q883.7400 650.7800 881.1500 649.6600Q878.5600 648.5400 874.3600 648.5400L874.3600 648.5400Q869.0400 648.5400 866.2400 650.8500Q863.4400 653.1600 863.4400 656.6600L863.4400 656.6600Q863.4400 659.0400 864.7700 660.7900Q866.1000 662.5400 870.1600 664.0800Q874.2200 665.6200 882.4800 667.3000L882.4800 667.3000Q891.8600 668.9800 897.3900 672.2700Q902.9200 675.5600 905.2300 679.8300Q907.5400 684.1000 907.5400 689.2800L907.5400 689.2800Q907.5400 695.5800 903.8300 700.6200Q900.1200 705.6600 892.9100 708.5300Q885.7000 711.4000 875.0600 711.4000ZM985.3800 711.4000L985.3800 711.4000Q969.8400 711.4000 960.7400 702.4400Q951.6400 693.4800 950.9400 676.9600L950.9400 676.9600Q950.8000 675.5600 950.8000 673.3900Q950.8000 671.2200 950.9400 669.9600L950.9400 669.9600Q951.5000 659.3200 955.7700 651.6900Q960.0400 644.0600 967.6000 639.9300Q975.1600 635.8000 985.3800 635.8000L985.3800 635.8000Q996.7200 635.8000 1004.4200 640.4900Q1012.1200 645.1800 1016.0400 653.5100Q1019.9600 661.8400 1019.9600 672.7600L1019.9600 672.7600L1019.9600 675.7000Q1019.9600 677.1000 1018.9800 678.0800Q1018 679.0600 1016.4600 679.0600L1016.4600 679.0600L969.9800 679.0600Q969.9800 679.0600 969.9800 679.4800Q969.9800 679.9000 969.9800 680.1800L969.9800 680.1800Q970.1200 685.0800 971.8700 689.2100Q973.6200 693.3400 977.0500 695.8600Q980.4800 698.3800 985.2400 698.3800L985.2400 698.3800Q989.1600 698.3800 991.8200 697.1900Q994.4800 696 996.1600 694.4600Q997.8400 692.9200 998.5400 691.9400L998.5400 691.9400Q999.8000 690.2600 1000.5700 689.9100Q1001.3400 689.5600 1002.8800 689.5600L1002.8800 689.5600L1014.9200 689.5600Q1016.3200 689.5600 1017.2300 690.4000Q1018.1400 691.2400 1018 692.5000L1018 692.5000Q1017.8600 694.7400 1015.6900 697.9600Q1013.5200 701.1800 1009.4600 704.2600Q1005.4000 707.3400 999.3100 709.3700Q993.2200 711.4000 985.3800 711.4000ZM969.9800 666.8800L969.9800 667.3000L1000.9200 667.3000L1000.9200 666.8800Q1000.9200 661.4200 999.1000 657.2900Q997.2800 653.1600 993.7800 650.8500Q990.2800 648.5400 985.3800 648.5400L985.3800 648.5400Q980.4800 648.5400 976.9800 650.8500Q973.4800 653.1600 971.7300 657.2900Q969.9800 661.4200 969.9800 666.8800L969.9800 666.8800ZM1050.4800 710L1038.1600 710Q1036.7600 710 1035.7800 709.0200Q1034.8000 708.0400 1034.8000 706.6400L1034.8000 706.6400L1034.8000 640.5600Q1034.8000 639.1600 1035.7800 638.1800Q1036.7600 637.2000 1038.1600 637.2000L1038.1600 637.2000L1049.6400 637.2000Q1051.0400 637.2000 1052.0200 638.1800Q1053 639.1600 1053 640.5600L1053 640.5600L1053 646.3000Q1056.6400 641.8200 1062.3100 638.8100Q1067.9800 635.8000 1076.3800 635.8000L1076.3800 635.8000Q1084.9200 635.8000 1091.2200 639.6500Q1097.5200 643.5000 1100.9500 650.5000Q1104.3800 657.5000 1104.3800 667.3000L1104.3800 667.3000L1104.3800 706.6400Q1104.3800 708.0400 1103.4000 709.0200Q1102.4200 710 1101.0200 710L1101.0200 710L1088.7000 710Q1087.3000 710 1086.3200 709.0200Q1085.3400 708.0400 1085.3400 706.6400L1085.3400 706.6400L1085.3400 668.1400Q1085.3400 660.0200 1081.3500 655.4000Q1077.3600 650.7800 1069.8000 650.7800L1069.8000 650.7800Q1062.5200 650.7800 1058.1800 655.4000Q1053.8400 660.0200 1053.8400 668.1400L1053.8400 668.1400L1053.8400 706.6400Q1053.8400 708.0400 1052.8600 709.0200Q1051.8800 710 1050.4800 710L1050.4800 710ZM1166.4000 710L1155.0600 710Q1146.6600 710 1140.9200 707.0600Q1135.1800 704.1200 1132.3800 698.3100Q1129.5800 692.5000 1129.5800 683.8200L1129.5800 683.8200L1129.5800 652.0400L1118.5200 652.0400Q1117.1200 652.0400 1116.1400 651.0600Q1115.1600 650.0800 1115.1600 648.5400L1115.1600 648.5400L1115.1600 640.5600Q1115.1600 639.1600 1116.1400 638.1800Q1117.1200 637.2000 1118.5200 637.2000L1118.5200 637.2000L1129.5800 637.2000L1129.5800 613.9600Q1129.5800 612.5600 1130.4900 611.5800Q1131.4000 610.6000 1132.9400 610.6000L1132.9400 610.6000L1144.2800 610.6000Q1145.6800 610.6000 1146.6600 611.5800Q1147.6400 612.5600 1147.6400 613.9600L1147.6400 613.9600L1147.6400 637.2000L1165.1400 637.2000Q1166.5400 637.2000 1167.5200 638.1800Q1168.5000 639.1600 1168.5000 640.5600L1168.5000 640.5600L1168.5000 648.5400Q1168.5000 650.0800 1167.5200 651.0600Q1166.5400 652.0400 1165.1400 652.0400L1165.1400 652.0400L1147.6400 652.0400L1147.6400 682.4200Q1147.6400 688.1600 1149.6700 691.3800Q1151.7000 694.6000 1156.7400 694.6000L1156.7400 694.6000L1166.4000 694.6000Q1167.8000 694.6000 1168.7800 695.5800Q1169.7600 696.5600 1169.7600 697.9600L1169.7600 697.9600L1169.7600 706.6400Q1169.7600 708.0400 1168.7800 709.0200Q1167.8000 710 1166.4000 710L1166.4000 710ZM1197.7600 710L1185.5800 710Q1184.1800 710 1183.2000 709.0200Q1182.2200 708.0400 1182.2200 706.6400L1182.2200 706.6400L1182.2200 640.7000Q1182.2200 639.1600 1183.2000 638.1800Q1184.1800 637.2000 1185.5800 637.2000L1185.5800 637.2000L1196.9200 637.2000Q1198.3200 637.2000 1199.3700 638.1800Q1200.4200 639.1600 1200.4200 640.7000L1200.4200 640.7000L1200.4200 646.4400Q1203.6400 641.9600 1208.7500 639.5800Q1213.8600 637.2000 1220.5800 637.2000L1220.5800 637.2000L1226.3200 637.2000Q1227.8600 637.2000 1228.7700 638.1800Q1229.6800 639.1600 1229.6800 640.5600L1229.6800 640.5600L1229.6800 650.6400Q1229.6800 652.0400 1228.7700 653.0200Q1227.8600 654 1226.3200 654L1226.3200 654L1215.4000 654Q1208.6800 654 1204.9700 657.7100Q1201.2600 661.4200 1201.2600 668.1400L1201.2600 668.1400L1201.2600 706.6400Q1201.2600 708.0400 1200.2800 709.0200Q1199.3000 710 1197.7600 710L1197.7600 710ZM1271.9600 711.4000L1271.9600 711.4000Q1256.4200 711.4000 1247.3200 702.4400Q1238.2200 693.4800 1237.5200 676.9600L1237.5200 676.9600Q1237.3800 675.5600 1237.3800 673.3900Q1237.3800 671.2200 1237.5200 669.9600L1237.5200 669.9600Q1238.0800 659.3200 1242.3500 651.6900Q1246.6200 644.0600 1254.1800 639.9300Q1261.7400 635.8000 1271.9600 635.8000L1271.9600 635.8000Q1283.3000 635.8000 1291.0000 640.4900Q1298.7000 645.1800 1302.6200 653.5100Q1306.5400 661.8400 1306.5400 672.7600L1306.5400 672.7600L1306.5400 675.7000Q1306.5400 677.1000 1305.5600 678.0800Q1304.5800 679.0600 1303.0400 679.0600L1303.0400 679.0600L1256.5600 679.0600Q1256.5600 679.0600 1256.5600 679.4800Q1256.5600 679.9000 1256.5600 680.1800L1256.5600 680.1800Q1256.7000 685.0800 1258.4500 689.2100Q1260.2000 693.3400 1263.6300 695.8600Q1267.0600 698.3800 1271.8200 698.3800L1271.8200 698.3800Q1275.7400 698.3800 1278.4000 697.1900Q1281.0600 696 1282.7400 694.4600Q1284.4200 692.9200 1285.1200 691.9400L1285.1200 691.9400Q1286.3800 690.2600 1287.1500 689.9100Q1287.9200 689.5600 1289.4600 689.5600L1289.4600 689.5600L1301.5000 689.5600Q1302.9000 689.5600 1303.8100 690.4000Q1304.7200 691.2400 1304.5800 692.5000L1304.5800 692.5000Q1304.4400 694.7400 1302.2700 697.9600Q1300.1000 701.1800 1296.0400 704.2600Q1291.9800 707.3400 1285.8900 709.3700Q1279.8000 711.4000 1271.9600 711.4000ZM1256.5600 666.8800L1256.5600 667.3000L1287.5000 667.3000L1287.5000 666.8800Q1287.5000 661.4200 1285.6800 657.2900Q1283.8600 653.1600 1280.3600 650.8500Q1276.8600 648.5400 1271.9600 648.5400L1271.9600 648.5400Q1267.0600 648.5400 1263.5600 650.8500Q1260.0600 653.1600 1258.3100 657.2900Q1256.5600 661.4200 1256.5600 666.8800L1256.5600 666.8800ZM198.7200 850L185.8400 850Q184.4400 850 183.4600 849.0200Q182.4800 848.0400 182.4800 846.6400L182.4800 846.6400L182.4800 769.2200L156.5800 769.2200Q155.1800 769.2200 154.2000 768.2400Q153.2200 767.2600 153.2200 765.8600L153.2200 765.8600L153.2200 755.5000Q153.2200 753.9600 154.2000 752.9800Q155.1800 752 156.5800 752L156.5800 752L227.9800 752Q229.5200 752 230.5000 752.9800Q231.4800 753.9600 231.4800 755.5000L231.4800 755.5000L231.4800 765.8600Q231.4800 767.2600 230.5000 768.2400Q229.5200 769.2200 227.9800 769.2200L227.9800 769.2200L202.2200 769.2200L202.2200 846.6400Q202.2200 848.0400 201.2400 849.0200Q200.2600 850 198.7200 850L198.7200 850ZM265.0800 851.4000L265.0800 851.4000Q257.8000 851.4000 251.9200 848.5300Q246.0400 845.6600 242.6100 840.8300Q239.1800 836 239.1800 829.9800L239.1800 829.9800Q239.1800 820.1800 247.1600 814.3700Q255.1400 808.5600 268.0200 806.6000L268.0200 806.6000L287.2000 803.8000L287.2000 800.8600Q287.2000 794.9800 284.2600 791.7600Q281.3200 788.5400 274.1800 788.5400L274.1800 788.5400Q269.1400 788.5400 265.9900 790.5700Q262.8400 792.6000 261.3000 795.9600L261.3000 795.9600Q260.1800 797.7800 258.0800 797.7800L258.0800 797.7800L247.0200 797.7800Q245.4800 797.7800 244.7100 796.9400Q243.9400 796.1000 243.9400 794.7000L243.9400 794.7000Q244.0800 792.4600 245.8300 789.2400Q247.5800 786.0200 251.1500 783.0100Q254.7200 780 260.4600 777.9000Q266.2000 775.8000 274.3200 775.8000L274.3200 775.8000Q283.1400 775.8000 289.2300 777.9700Q295.3200 780.1400 298.9600 783.7800Q302.6000 787.4200 304.2800 792.3200Q305.9600 797.2200 305.9600 802.6800L305.9600 802.6800L305.9600 846.6400Q305.9600 848.0400 304.9800 849.0200Q304 850 302.6000 850L302.6000 850L291.2600 850Q289.7200 850 288.8100 849.0200Q287.9000 848.0400 287.9000 846.6400L287.9000 846.6400L287.9000 841.1800Q286.0800 843.7000 283 846.0800Q279.9200 848.4600 275.5100 849.9300Q271.1000 851.4000 265.0800 851.4000ZM269.8400 838.1000L269.8400 838.1000Q274.7400 838.1000 278.7300 836Q282.7200 833.9000 285.0300 829.4900Q287.3400 825.0800 287.3400 818.3600L287.3400 818.3600L287.3400 815.4200L273.3400 817.6600Q265.0800 818.9200 261.0200 821.7200Q256.9600 824.5200 256.9600 828.5800L256.9600 828.5800Q256.9600 831.6600 258.8500 833.8300Q260.7400 836 263.6800 837.0500Q266.6200 838.1000 269.8400 838.1000ZM364.2000 851.4000L364.2000 851.4000Q356.0800 851.4000 350.6900 848.6000Q345.3000 845.8000 341.8000 841.4600L341.8000 841.4600L341.8000 846.6400Q341.8000 848.0400 340.8900 849.0200Q339.9800 850 338.4400 850L338.4400 850L327.3800 850Q325.9800 850 325 849.0200Q324.0200 848.0400 324.0200 846.6400L324.0200 846.6400L324.0200 753.9600Q324.0200 752.5600 325 751.5800Q325.9800 750.6000 327.3800 750.6000L327.3800 750.6000L339.2800 750.6000Q340.8200 750.6000 341.7300 751.5800Q342.6400 752.5600 342.6400 753.9600L342.6400 753.9600L342.6400 785.0400Q346.1400 780.9800 351.3900 778.3900Q356.6400 775.8000 364.2000 775.8000L364.2000 775.8000Q371.6200 775.8000 377.0800 778.3200Q382.5400 780.8400 386.2500 785.3900Q389.9600 789.9400 391.9200 795.9600Q393.8800 801.9800 394.0200 808.9800L394.0200 808.9800Q394.1600 811.5000 394.1600 813.5300Q394.1600 815.5600 394.0200 818.0800L394.0200 818.0800Q393.7400 825.3600 391.7800 831.4500Q389.8200 837.5400 386.1800 842.0200Q382.5400 846.5000 377.0800 848.9500Q371.6200 851.4000 364.2000 851.4000ZM359.0200 836.4200L359.0200 836.4200Q365.0400 836.4200 368.4000 833.8300Q371.7600 831.2400 373.3000 827.0400Q374.8400 822.8400 375.1200 817.8000L375.1200 817.8000Q375.2600 813.6000 375.1200 809.4000L375.1200 809.4000Q374.8400 804.3600 373.3000 800.1600Q371.7600 795.9600 368.4000 793.3700Q365.0400 790.7800 359.0200 790.7800L359.0200 790.7800Q353.4200 790.7800 349.9200 793.3000Q346.4200 795.8200 344.6000 799.6700Q342.7800 803.5200 342.6400 807.7200L342.6400 807.7200Q342.5000 810.2400 342.5000 813.1100Q342.5000 815.9800 342.6400 818.5000L342.6400 818.5000Q342.9200 822.8400 344.5300 826.9700Q346.1400 831.1000 349.7100 833.7600Q353.2800 836.4200 359.0200 836.4200ZM441.0600 851.4000L441.0600 851.4000Q425.5200 851.4000 416.4200 842.4400Q407.3200 833.4800 406.6200 816.9600L406.6200 816.9600Q406.4800 815.5600 406.4800 813.3900Q406.4800 811.2200 406.6200 809.9600L406.6200 809.9600Q407.1800 799.3200 411.4500 791.6900Q415.7200 784.0600 423.2800 779.9300Q430.8400 775.8000 441.0600 775.8000L441.0600 775.8000Q452.4000 775.8000 460.1000 780.4900Q467.8000 785.1800 471.7200 793.5100Q475.6400 801.8400 475.6400 812.7600L475.6400 812.7600L475.6400 815.7000Q475.6400 817.1000 474.6600 818.0800Q473.6800 819.0600 472.1400 819.0600L472.1400 819.0600L425.6600 819.0600Q425.6600 819.0600 425.6600 819.4800Q425.6600 819.9000 425.6600 820.1800L425.6600 820.1800Q425.8000 825.0800 427.5500 829.2100Q429.3000 833.3400 432.7300 835.8600Q436.1600 838.3800 440.9200 838.3800L440.9200 838.3800Q444.8400 838.3800 447.5000 837.1900Q450.1600 836 451.8400 834.4600Q453.5200 832.9200 454.2200 831.9400L454.2200 831.9400Q455.4800 830.2600 456.2500 829.9100Q457.0200 829.5600 458.5600 829.5600L458.5600 829.5600L470.6000 829.5600Q472 829.5600 472.9100 830.4000Q473.8200 831.2400 473.6800 832.5000L473.6800 832.5000Q473.5400 834.7400 471.3700 837.9600Q469.2000 841.1800 465.1400 844.2600Q461.0800 847.3400 454.9900 849.3700Q448.9000 851.4000 441.0600 851.4000ZM425.6600 806.8800L425.6600 807.3000L456.6000 807.3000L456.6000 806.8800Q456.6000 801.4200 454.7800 797.2900Q452.9600 793.1600 449.4600 790.8500Q445.9600 788.5400 441.0600 788.5400L441.0600 788.5400Q436.1600 788.5400 432.6600 790.8500Q429.1600 793.1600 427.4100 797.2900Q425.6600 801.4200 425.6600 806.8800L425.6600 806.8800ZM505.6000 850L493.9800 850Q492.5800 850 491.6000 849.0200Q490.6200 848.0400 490.6200 846.6400L490.6200 846.6400L490.6200 753.9600Q490.6200 752.5600 491.6000 751.5800Q492.5800 750.6000 493.9800 750.6000L493.9800 750.6000L505.6000 750.6000Q507 750.6000 507.9800 751.5800Q508.9600 752.5600 508.9600 753.9600L508.9600 753.9600L508.9600 846.6400Q508.9600 848.0400 507.9800 849.0200Q507 850 505.6000 850L505.6000 850ZM548.7200 851.4000L548.7200 851.4000Q541.4400 851.4000 535.5600 848.5300Q529.6800 845.6600 526.2500 840.8300Q522.8200 836 522.8200 829.9800L522.8200 829.9800Q522.8200 820.1800 530.8000 814.3700Q538.7800 808.5600 551.6600 806.6000L551.6600 806.6000L570.8400 803.8000L570.8400 800.8600Q570.8400 794.9800 567.9000 791.7600Q564.9600 788.5400 557.8200 788.5400L557.8200 788.5400Q552.7800 788.5400 549.6300 790.5700Q546.4800 792.6000 544.9400 795.9600L544.9400 795.9600Q543.8200 797.7800 541.7200 797.7800L541.7200 797.7800L530.6600 797.7800Q529.1200 797.7800 528.3500 796.9400Q527.5800 796.1000 527.5800 794.7000L527.5800 794.7000Q527.7200 792.4600 529.4700 789.2400Q531.2200 786.0200 534.7900 783.0100Q538.3600 780 544.1000 777.9000Q549.8400 775.8000 557.9600 775.8000L557.9600 775.8000Q566.7800 775.8000 572.8700 777.9700Q578.9600 780.1400 582.6000 783.7800Q586.2400 787.4200 587.9200 792.3200Q589.6000 797.2200 589.6000 802.6800L589.6000 802.6800L589.6000 846.6400Q589.6000 848.0400 588.6200 849.0200Q587.6400 850 586.2400 850L586.2400 850L574.9000 850Q573.3600 850 572.4500 849.0200Q571.5400 848.0400 571.5400 846.6400L571.5400 846.6400L571.5400 841.1800Q569.7200 843.7000 566.6400 846.0800Q563.5600 848.4600 559.1500 849.9300Q554.7400 851.4000 548.7200 851.4000ZM553.4800 838.1000L553.4800 838.1000Q558.3800 838.1000 562.3700 836Q566.3600 833.9000 568.6700 829.4900Q570.9800 825.0800 570.9800 818.3600L570.9800 818.3600L570.9800 815.4200L556.9800 817.6600Q548.7200 818.9200 544.6600 821.7200Q540.6000 824.5200 540.6000 828.5800L540.6000 828.5800Q540.6000 831.6600 542.4900 833.8300Q544.3800 836 547.3200 837.0500Q550.2600 838.1000 553.4800 838.1000ZM635.1000 851.4000L635.1000 851.4000Q626.7000 851.4000 620.7500 849.4400Q614.8000 847.4800 611.0200 844.5400Q607.2400 841.6000 605.4200 838.6600Q603.6000 835.7200 603.4600 833.7600L603.4600 833.7600Q603.3200 832.2200 604.3700 831.3100Q605.4200 830.4000 606.6800 830.4000L606.6800 830.4000L617.7400 830.4000Q618.3000 830.4000 618.7200 830.5400Q619.1400 830.6800 619.8400 831.3800L619.8400 831.3800Q621.6600 832.9200 623.6900 834.6000Q625.7200 836.2800 628.5200 837.4700Q631.3200 838.6600 635.5200 838.6600L635.5200 838.6600Q640.9800 838.6600 644.6900 836.4900Q648.4000 834.3200 648.4000 830.2600L648.4000 830.2600Q648.4000 827.3200 646.7900 825.5000Q645.1800 823.6800 640.8400 822.2100Q636.5000 820.7400 628.5200 819.0600L628.5200 819.0600Q620.6800 817.2400 615.5000 814.4400Q610.3200 811.6400 607.8000 807.4400Q605.2800 803.2400 605.2800 797.6400L605.2800 797.6400Q605.2800 792.1800 608.5700 787.2100Q611.8600 782.2400 618.3700 779.0200Q624.8800 775.8000 634.5400 775.8000L634.5400 775.8000Q642.1000 775.8000 647.7000 777.6900Q653.3000 779.5800 657.0100 782.3800Q660.7200 785.1800 662.6800 788.0500Q664.6400 790.9200 664.7800 793.0200L664.7800 793.0200Q664.9200 794.5600 663.9400 795.4700Q662.9600 796.3800 661.7000 796.3800L661.7000 796.3800L651.3400 796.3800Q650.6400 796.3800 650.0800 796.1000Q649.5200 795.8200 648.9600 795.4000L648.9600 795.4000Q647.4200 794 645.6000 792.3900Q643.7800 790.7800 641.1900 789.6600Q638.6000 788.5400 634.4000 788.5400L634.4000 788.5400Q629.0800 788.5400 626.2800 790.8500Q623.4800 793.1600 623.4800 796.6600L623.4800 796.6600Q623.4800 799.0400 624.8100 800.7900Q626.1400 802.5400 630.2000 804.0800Q634.2600 805.6200 642.5200 807.3000L642.5200 807.3000Q651.9000 808.9800 657.4300 812.2700Q662.9600 815.5600 665.2700 819.8300Q667.5800 824.1000 667.5800 829.2800L667.5800 829.2800Q667.5800 835.5800 663.8700 840.6200Q660.1600 845.6600 652.9500 848.5300Q645.7400 851.4000 635.1000 851.4000Z" id="title"/></g></svg>