<svg xmlns="http://www.w3.org/2000/svg" version="1.1" xmlns:xlink="http://www.w3.org/1999/xlink" xmlns:svgjs="http://svgjs.dev/svgjs" viewBox="0 0 1920 1080" id="e7419ba5-e212-4963-8edb-8a816ba59ada"><g><rect width="1920" height="1080" fill="#798086"/></g><g fill="#b949a4"><path d="M969.5 217C561.465 217 231 547.465 231 955.5C231 1363.53 561.465 1694 969.5 1694C1377.53 1694 1708 1363.53 1708 955.5C1708 547.465 1377.53 217 969.5 217ZM969.5 1309.34C773.983 1309.34 615.658 1151.02 615.658 955.5C615.658 759.983 773.983 601.658 969.5 601.658C1165.02 601.658 1323.34 759.983 1323.34 955.5C1323.34 1151.02 1165.02 1309.34 969.5 1309.34Z"/></g><g fill="#ffffff" opacity="0.2"><path d="M1432 918.479L1616.48 734V918.479H1432Z"/><path d="M1616.48 918.479L1800.52 734V918.479H1616.48Z"/><path d="M1800.52 918.479L1985 734V918.479H1800.52Z"/><path d="M1432 1102.52L1616.48 918.479V1102.52H1432Z"/><path d="M1616.48 1102.52L1800.52 918.479V1102.52H1616.48Z"/><path d="M1800.52 1102.52L1985 918.479V1102.52H1800.52Z"/><path d="M499 154.521L683.479 -29.5215V154.521H499Z"/><path d="M683.479 154.521L867.521 -29.5215V154.521H683.479Z"/><path d="M867.521 154.521L1052 -29.5215V154.521H867.521Z"/><path d="M499 339L683.479 154.521V339H499Z"/><path d="M683.479 339L867.521 154.521V339H683.479Z"/><path d="M867.521 339L1052 154.521V339H867.521Z"/></g><g><path d="M178.635 139.281L184.422 144.246V166.626H215.704L219.958 172.147L215.69 177.397H184.422V198.795L178.635 203.747L173 198.795V144.232L178.635 139.281ZM195.554 195.68H219.406L223.397 200.915L219.143 206.45H195.554L191.7 201.342L195.554 195.68ZM196.382 138H219.129L223.383 143.52L219.129 148.77H196.659L192.115 143.677L196.382 138ZM323.155 148.628L328.251 154.291L323.155 159.968H246.13L241.172 154.291L246.13 148.628H323.155ZM237.043 172.147L241.849 167.893L246.669 172.147V178.393C246.669 188.879 249.417 197.515 261.668 197.515H264.14C275.147 197.515 281.197 189.86 281.197 177.952V172.005L285.879 167.75L290.699 171.862V178.379C290.699 189.007 293.723 196.946 305.56 196.946H307.618C319.178 196.946 321.235 187.869 321.373 177.952V171.578L326.056 167.608L331 171.72V178.094C330.862 191.838 327.285 207.574 308.032 207.574H305.974C294.552 207.574 288.365 202.324 285.892 195.808C283.006 202.466 275.299 208.286 264.844 208.286H262.358C242.553 208.286 237.194 195.964 237.056 178.663V172.147H237.043ZM276.391 274.744L273.642 267.089L280.796 264.969L305.974 276.721V252.491L311.07 248.095L316.291 252.491V281.829L325.641 286.226L328.251 293.311L320.959 296L276.391 274.744ZM321.235 223.011L328.113 226.27L325.917 233.497L264.002 263.119L256.571 260.146L259.596 252.776L321.235 223.011ZM231.905 263.404L237.954 268.512C237.402 286.51 222.403 296 204.669 296H202.874C194.062 296 183.759 292.6 177.157 286.083L177.834 278.855L184.298 278.002C189.118 282.256 195.858 285.229 202.183 285.229H204.117C216.091 285.229 225.303 280.136 226.27 268.085L231.905 263.404ZM226.256 251.638C225.704 239.16 216.629 234.209 204.103 234.209H202.169C194.739 234.209 189.104 237.182 184.284 241.436L177.834 240.583L177.143 233.355C183.745 226.696 192.957 223.58 202.597 223.58H204.517C222.403 223.58 237.402 232.942 237.94 251.211L231.891 256.176L226.256 251.638Z" fill="#ffffff"/></g><g fill="#ffffff" id="info-group"><path d="M167.0800 430L154.9000 430Q153.7800 430 152.8700 429.1600Q151.9600 428.3200 151.9600 427.0600L151.9600 427.0600Q151.9600 426.5000 152.2400 425.8000L152.2400 425.8000L185.9800 335.5000Q186.4000 334.1000 187.5900 333.0500Q188.7800 332 190.8800 332L190.8800 332L206.1400 332Q208.2400 332 209.3600 333.0500Q210.4800 334.1000 211.0400 335.5000L211.0400 335.5000L244.7800 425.8000Q244.9200 426.5000 244.9200 427.0600L244.9200 427.0600Q244.9200 428.3200 244.0800 429.1600Q243.2400 430 242.1200 430L242.1200 430L229.9400 430Q227.9800 430 227.0700 429.0900Q226.1600 428.1800 225.8800 427.3400L225.8800 427.3400L219.3000 410.2600L177.7200 410.2600L171.1400 427.3400Q170.8600 428.1800 169.9500 429.0900Q169.0400 430 167.0800 430L167.0800 430ZM198.4400 350.9000L182.6200 394.1600L214.4000 394.1600L198.4400 350.9000ZM283.2800 431.4000L283.2800 431.4000Q274.7400 431.4000 268.5100 427.5500Q262.2800 423.7000 258.9200 416.6300Q255.5600 409.5600 255.5600 399.9000L255.5600 399.9000L255.5600 360.5600Q255.5600 359.1600 256.5400 358.1800Q257.5200 357.2000 258.9200 357.2000L258.9200 357.2000L271.2400 357.2000Q272.7800 357.2000 273.6900 358.1800Q274.6000 359.1600 274.6000 360.5600L274.6000 360.5600L274.6000 399.0600Q274.6000 416.4200 289.8600 416.4200L289.8600 416.4200Q297.1400 416.4200 301.4100 411.8000Q305.6800 407.1800 305.6800 399.0600L305.6800 399.0600L305.6800 360.5600Q305.6800 359.1600 306.6600 358.1800Q307.6400 357.2000 309.0400 357.2000L309.0400 357.2000L321.3600 357.2000Q322.7600 357.2000 323.7400 358.1800Q324.7200 359.1600 324.7200 360.5600L324.7200 360.5600L324.7200 426.6400Q324.7200 428.0400 323.7400 429.0200Q322.7600 430 321.3600 430L321.3600 430L310.0200 430Q308.4800 430 307.5700 429.0200Q306.6600 428.0400 306.6600 426.6400L306.6600 426.6400L306.6600 420.9000Q302.8800 425.8000 297.2800 428.6000Q291.6800 431.4000 283.2800 431.4000ZM358.3200 430L346.7000 430Q345.3000 430 344.3200 429.0200Q343.3400 428.0400 343.3400 426.6400L343.3400 426.6400L343.3400 333.9600Q343.3400 332.5600 344.3200 331.5800Q345.3000 330.6000 346.7000 330.6000L346.7000 330.6000L358.3200 330.6000Q359.7200 330.6000 360.7000 331.5800Q361.6800 332.5600 361.6800 333.9600L361.6800 333.9600L361.6800 426.6400Q361.6800 428.0400 360.7000 429.0200Q359.7200 430 358.3200 430L358.3200 430ZM401.4400 431.4000L401.4400 431.4000Q394.1600 431.4000 388.2800 428.5300Q382.4000 425.6600 378.9700 420.8300Q375.5400 416 375.5400 409.9800L375.5400 409.9800Q375.5400 400.1800 383.5200 394.3700Q391.5000 388.5600 404.3800 386.6000L404.3800 386.6000L423.5600 383.8000L423.5600 380.8600Q423.5600 374.9800 420.6200 371.7600Q417.6800 368.5400 410.5400 368.5400L410.5400 368.5400Q405.5000 368.5400 402.3500 370.5700Q399.2000 372.6000 397.6600 375.9600L397.6600 375.9600Q396.5400 377.7800 394.4400 377.7800L394.4400 377.7800L383.3800 377.7800Q381.8400 377.7800 381.0700 376.9400Q380.3000 376.1000 380.3000 374.7000L380.3000 374.7000Q380.4400 372.4600 382.1900 369.2400Q383.9400 366.0200 387.5100 363.0100Q391.0800 360 396.8200 357.9000Q402.5600 355.8000 410.6800 355.8000L410.6800 355.8000Q419.5000 355.8000 425.5900 357.9700Q431.6800 360.1400 435.3200 363.7800Q438.9600 367.4200 440.6400 372.3200Q442.3200 377.2200 442.3200 382.6800L442.3200 382.6800L442.3200 426.6400Q442.3200 428.0400 441.3400 429.0200Q440.3600 430 438.9600 430L438.9600 430L427.6200 430Q426.0800 430 425.1700 429.0200Q424.2600 428.0400 424.2600 426.6400L424.2600 426.6400L424.2600 421.1800Q422.4400 423.7000 419.3600 426.0800Q416.2800 428.4600 411.8700 429.9300Q407.4600 431.4000 401.4400 431.4000ZM406.2000 418.1000L406.2000 418.1000Q411.1000 418.1000 415.0900 416Q419.0800 413.9000 421.3900 409.4900Q423.7000 405.0800 423.7000 398.3600L423.7000 398.3600L423.7000 395.4200L409.7000 397.6600Q401.4400 398.9200 397.3800 401.7200Q393.3200 404.5200 393.3200 408.5800L393.3200 408.5800Q393.3200 411.6600 395.2100 413.8300Q397.1000 416 400.0400 417.0500Q402.9800 418.1000 406.2000 418.1000ZM528.9800 431.4000L528.9800 431.4000Q519.7400 431.4000 512.4600 429.1600Q505.1800 426.9200 500.2100 422.8600Q495.2400 418.8000 492.6500 413.3400Q490.0600 407.8800 490.0600 401.1600L490.0600 401.1600Q490.0600 393.0400 494.0500 387.0900Q498.0400 381.1400 504.4800 377.9200L504.4800 377.9200Q499.3000 374.7000 496.4300 369.6600Q493.5600 364.6200 493.5600 357.9000L493.5600 357.9000Q493.5600 349.7800 497.6900 343.6900Q501.8200 337.6000 509.7300 334.1000Q517.6400 330.6000 528.9800 330.6000L528.9800 330.6000Q540.3200 330.6000 548.1600 334.0300Q556.0000 337.4600 560.0600 343.5500Q564.1200 349.6400 564.1200 357.7600L564.1200 357.7600Q564.1200 364.4800 561.3200 369.5200Q558.5200 374.5600 553.4800 377.9200L553.4800 377.9200Q560.0600 381 563.9800 387.0900Q567.9000 393.1800 567.9000 401.3000L567.9000 401.3000Q567.9000 410.1200 563.3500 416.9100Q558.8000 423.7000 550.0500 427.5500Q541.3000 431.4000 528.9800 431.4000ZM528.9800 416.8400L528.9800 416.8400Q534.4400 416.8400 538.8500 414.9500Q543.2600 413.0600 545.8500 409.5600Q548.4400 406.0600 548.4400 401.3000L548.4400 401.3000Q548.4400 396.4000 545.8500 392.9700Q543.2600 389.5400 538.8500 387.6500Q534.4400 385.7600 528.9800 385.7600L528.9800 385.7600Q523.5200 385.7600 519.1100 387.6500Q514.7000 389.5400 512.1100 392.9700Q509.5200 396.4000 509.5200 401.3000L509.5200 401.3000Q509.5200 406.0600 512.1100 409.5600Q514.7000 413.0600 519.1100 414.9500Q523.5200 416.8400 528.9800 416.8400ZM528.9800 371.9000L528.9800 371.9000Q533.6000 371.7600 537.4500 370.0800Q541.3000 368.4000 543.6100 365.4600Q545.9200 362.5200 545.9200 358.6000L545.9200 358.6000Q545.9200 354.5400 543.7500 351.5300Q541.5800 348.5200 537.7300 346.8400Q533.8800 345.1600 528.9800 345.1600L528.9800 345.1600Q524.0800 345.1600 520.2300 346.8400Q516.3800 348.5200 514.2100 351.5300Q512.0400 354.5400 512.0400 358.6000L512.0400 358.6000Q512.0400 362.6600 514.2100 365.6000Q516.3800 368.5400 520.2300 370.2200Q524.0800 371.9000 528.9800 371.9000ZM600.9400 381L587.0800 381Q585.6800 381 584.7000 380.0200Q583.7200 379.0400 583.7200 377.6400L583.7200 377.6400L583.7200 364.3400Q583.7200 362.8000 584.7000 361.8200Q585.6800 360.8400 587.0800 360.8400L587.0800 360.8400L600.9400 360.8400Q602.4800 360.8400 603.4600 361.8200Q604.4400 362.8000 604.4400 364.3400L604.4400 364.3400L604.4400 377.6400Q604.4400 379.0400 603.4600 380.0200Q602.4800 381 600.9400 381L600.9400 381ZM600.9400 430L587.0800 430Q585.6800 430 584.7000 429.0200Q583.7200 428.0400 583.7200 426.6400L583.7200 426.6400L583.7200 413.3400Q583.7200 411.8000 584.7000 410.8200Q585.6800 409.8400 587.0800 409.8400L587.0800 409.8400L600.9400 409.8400Q602.4800 409.8400 603.4600 410.8200Q604.4400 411.8000 604.4400 413.3400L604.4400 413.3400L604.4400 426.6400Q604.4400 428.0400 603.4600 429.0200Q602.4800 430 600.9400 430L600.9400 430ZM694.0400 431.4000L694.0400 431.4000Q681.0200 431.4000 671.9900 426.8500Q662.9600 422.3000 658.2000 413.8300Q653.4400 405.3600 652.8800 393.4600L652.8800 393.4600Q652.7400 387.7200 652.7400 381.1400Q652.7400 374.5600 652.8800 368.5400L652.8800 368.5400Q653.4400 356.7800 658.2700 348.2400Q663.1000 339.7000 672.1300 335.1500Q681.1600 330.6000 694.0400 330.6000L694.0400 330.6000Q703.5600 330.6000 711.1200 333.1200Q718.6800 335.6400 724.0000 340.0500Q729.3200 344.4600 732.2600 350.3400Q735.2000 356.2200 735.3400 363.0800L735.3400 363.0800Q735.4800 364.3400 734.5700 365.1800Q733.6600 366.0200 732.4000 366.0200L732.4000 366.0200L719.1000 366.0200Q717.5600 366.0200 716.5800 365.2500Q715.6000 364.4800 715.1800 362.6600L715.1800 362.6600Q712.9400 353.4200 707.4800 350.0600Q702.0200 346.7000 693.9000 346.7000L693.9000 346.7000Q684.5200 346.7000 678.9200 351.9500Q673.3200 357.2000 672.9000 369.2400L672.9000 369.2400Q672.4800 380.7200 672.9000 392.7600L672.9000 392.7600Q673.3200 404.8000 678.9200 410.0500Q684.5200 415.3000 693.9000 415.3000L693.9000 415.3000Q702.0200 415.3000 707.5500 411.8700Q713.0800 408.4400 715.1800 399.3400L715.1800 399.3400Q715.6000 397.3800 716.5800 396.6800Q717.5600 395.9800 719.1000 395.9800L719.1000 395.9800L732.4000 395.9800Q733.6600 395.9800 734.5700 396.8200Q735.4800 397.6600 735.3400 398.9200L735.3400 398.9200Q735.2000 405.7800 732.2600 411.6600Q729.3200 417.5400 724.0000 421.9500Q718.6800 426.3600 711.1200 428.8800Q703.5600 431.4000 694.0400 431.4000ZM782.5200 431.4000L782.5200 431.4000Q771.3200 431.4000 763.6900 427.4800Q756.0600 423.5600 752.0700 416.4200Q748.0800 409.2800 747.5200 399.7600L747.5200 399.7600Q747.3800 397.2400 747.3800 393.6000Q747.3800 389.9600 747.5200 387.4400L747.5200 387.4400Q748.0800 377.7800 752.2100 370.7100Q756.3400 363.6400 763.9700 359.7200Q771.6000 355.8000 782.5200 355.8000L782.5200 355.8000Q793.4400 355.8000 801.0700 359.7200Q808.7000 363.6400 812.8300 370.7100Q816.9600 377.7800 817.5200 387.4400L817.5200 387.4400Q817.6600 389.9600 817.6600 393.6000Q817.6600 397.2400 817.5200 399.7600L817.5200 399.7600Q816.9600 409.2800 812.9700 416.4200Q808.9800 423.5600 801.3500 427.4800Q793.7200 431.4000 782.5200 431.4000ZM782.5200 417.5400L782.5200 417.5400Q789.9400 417.5400 794.0000 412.8500Q798.0600 408.1600 798.4800 399.0600L798.4800 399.0600Q798.6200 396.9600 798.6200 393.6000Q798.6200 390.2400 798.4800 388.1400L798.4800 388.1400Q798.0600 379.0400 794.0000 374.3500Q789.9400 369.6600 782.5200 369.6600L782.5200 369.6600Q775.1000 369.6600 771.0400 374.3500Q766.9800 379.0400 766.5600 388.1400L766.5600 388.1400Q766.4200 390.2400 766.4200 393.6000Q766.4200 396.9600 766.5600 399.0600L766.5600 399.0600Q766.9800 408.1600 771.0400 412.8500Q775.1000 417.5400 782.5200 417.5400ZM848.3200 430L836.5600 430Q835.1600 430 834.1800 429.0200Q833.2000 428.0400 833.2000 426.6400L833.2000 426.6400L833.2000 360.5600Q833.2000 359.1600 834.1800 358.1800Q835.1600 357.2000 836.5600 357.2000L836.5600 357.2000L847.4800 357.2000Q848.8800 357.2000 849.8600 358.1800Q850.8400 359.1600 850.8400 360.5600L850.8400 360.5600L850.8400 365.3200Q853.7800 361.4000 858.7500 358.6700Q863.7200 355.9400 870.5800 355.8000L870.5800 355.8000Q886.5400 355.5200 892.8400 368.2600L892.8400 368.2600Q896.0600 362.6600 902.1500 359.2300Q908.2400 355.8000 915.6600 355.8000L915.6600 355.8000Q922.9400 355.8000 928.8900 359.1600Q934.8400 362.5200 938.2700 369.3100Q941.7000 376.1000 941.7000 386.4600L941.7000 386.4600L941.7000 426.6400Q941.7000 428.0400 940.7200 429.0200Q939.7400 430 938.3400 430L938.3400 430L926.8600 430Q925.4600 430 924.4800 429.0200Q923.5000 428.0400 923.5000 426.6400L923.5000 426.6400L923.5000 387.5800Q923.5000 381.2800 921.6800 377.5700Q919.8600 373.8600 916.7800 372.3200Q913.7000 370.7800 909.9200 370.7800L909.9200 370.7800Q906.8400 370.7800 903.7600 372.3200Q900.6800 373.8600 898.7200 377.5700Q896.7600 381.2800 896.7600 387.5800L896.7600 387.5800L896.7600 426.6400Q896.7600 428.0400 895.7800 429.0200Q894.8000 430 893.4000 430L893.4000 430L881.9200 430Q880.5200 430 879.5400 429.0200Q878.5600 428.0400 878.5600 426.6400L878.5600 426.6400L878.5600 387.5800Q878.5600 381.2800 876.6000 377.5700Q874.6400 373.8600 871.5600 372.3200Q868.4800 370.7800 864.9800 370.7800L864.9800 370.7800Q861.7600 370.7800 858.6800 372.3900Q855.6000 374 853.6400 377.6400Q851.6800 381.2800 851.6800 387.5800L851.6800 387.5800L851.6800 426.6400Q851.6800 428.0400 850.7000 429.0200Q849.7200 430 848.3200 430L848.3200 430ZM991.6800 431.4000L991.6800 431.4000Q980.4800 431.4000 972.8500 427.4800Q965.2200 423.5600 961.2300 416.4200Q957.2400 409.2800 956.6800 399.7600L956.6800 399.7600Q956.5400 397.2400 956.5400 393.6000Q956.5400 389.9600 956.6800 387.4400L956.6800 387.4400Q957.2400 377.7800 961.3700 370.7100Q965.5000 363.6400 973.1300 359.7200Q980.7600 355.8000 991.6800 355.8000L991.6800 355.8000Q1002.6000 355.8000 1010.2300 359.7200Q1017.8600 363.6400 1021.9900 370.7100Q1026.1200 377.7800 1026.6800 387.4400L1026.6800 387.4400Q1026.8200 389.9600 1026.8200 393.6000Q1026.8200 397.2400 1026.6800 399.7600L1026.6800 399.7600Q1026.1200 409.2800 1022.1300 416.4200Q1018.1400 423.5600 1010.5100 427.4800Q1002.8800 431.4000 991.6800 431.4000ZM991.6800 417.5400L991.6800 417.5400Q999.1000 417.5400 1003.1600 412.8500Q1007.2200 408.1600 1007.6400 399.0600L1007.6400 399.0600Q1007.7800 396.9600 1007.7800 393.6000Q1007.7800 390.2400 1007.6400 388.1400L1007.6400 388.1400Q1007.2200 379.0400 1003.1600 374.3500Q999.1000 369.6600 991.6800 369.6600L991.6800 369.6600Q984.2600 369.6600 980.2000 374.3500Q976.1400 379.0400 975.7200 388.1400L975.7200 388.1400Q975.5800 390.2400 975.5800 393.6000Q975.5800 396.9600 975.7200 399.0600L975.7200 399.0600Q976.1400 408.1600 980.2000 412.8500Q984.2600 417.5400 991.6800 417.5400ZM174.6400 596.6000L162.7400 596.6000Q161.3400 596.6000 160.3600 595.6200Q159.3800 594.6400 159.3800 593.2400L159.3800 593.2400L159.3800 500.5600Q159.3800 499.1600 160.3600 498.1800Q161.3400 497.2000 162.7400 497.2000L162.7400 497.2000L173.8000 497.2000Q175.3400 497.2000 176.2500 498.1800Q177.1600 499.1600 177.1600 500.5600L177.1600 500.5600L177.1600 506.1600Q180.5200 501.6800 185.9800 498.7400Q191.4400 495.8000 199.5600 495.8000L199.5600 495.8000Q206.9800 495.8000 212.4400 498.1800Q217.9000 500.5600 221.5400 504.9700Q225.1800 509.3800 227.1400 515.4000Q229.1000 521.4200 229.3800 528.7000L229.3800 528.7000Q229.5200 531.0800 229.5200 533.6000Q229.5200 536.1200 229.3800 538.6400L229.3800 538.6400Q229.2400 545.6400 227.2800 551.5900Q225.3200 557.5400 221.6100 561.9500Q217.9000 566.3600 212.4400 568.8800Q206.9800 571.4000 199.5600 571.4000L199.5600 571.4000Q192 571.4000 186.6800 568.6700Q181.3600 565.9400 178 561.4600L178 561.4600L178 593.2400Q178 594.6400 177.0900 595.6200Q176.1800 596.6000 174.6400 596.6000L174.6400 596.6000ZM194.3800 556.4200L194.3800 556.4200Q200.4000 556.4200 203.7600 553.8300Q207.1200 551.2400 208.6600 547.0400Q210.2000 542.8400 210.4800 537.8000L210.4800 537.8000Q210.6200 533.6000 210.4800 529.4000L210.4800 529.4000Q210.2000 524.3600 208.6600 520.1600Q207.1200 515.9600 203.7600 513.3700Q200.4000 510.7800 194.3800 510.7800L194.3800 510.7800Q188.6400 510.7800 185.0700 513.4400Q181.5000 516.1000 179.8900 520.2300Q178.2800 524.3600 178 528.7000L178 528.7000Q177.8600 531.2200 177.8600 534.0200Q177.8600 536.8200 178 539.4800L178 539.4800Q178.1400 543.6800 179.9600 547.5300Q181.7800 551.3800 185.2800 553.9000Q188.7800 556.4200 194.3800 556.4200ZM260.3200 570L248.7000 570Q247.3000 570 246.3200 569.0200Q245.3400 568.0400 245.3400 566.6400L245.3400 566.6400L245.3400 473.9600Q245.3400 472.5600 246.3200 471.5800Q247.3000 470.6000 248.7000 470.6000L248.7000 470.6000L260.3200 470.6000Q261.7200 470.6000 262.7000 471.5800Q263.6800 472.5600 263.6800 473.9600L263.6800 473.9600L263.6800 566.6400Q263.6800 568.0400 262.7000 569.0200Q261.7200 570 260.3200 570L260.3200 570ZM303.4400 571.4000L303.4400 571.4000Q296.1600 571.4000 290.2800 568.5300Q284.4000 565.6600 280.9700 560.8300Q277.5400 556 277.5400 549.9800L277.5400 549.9800Q277.5400 540.1800 285.5200 534.3700Q293.5000 528.5600 306.3800 526.6000L306.3800 526.6000L325.5600 523.8000L325.5600 520.8600Q325.5600 514.9800 322.6200 511.7600Q319.6800 508.5400 312.5400 508.5400L312.5400 508.5400Q307.5000 508.5400 304.3500 510.5700Q301.2000 512.6000 299.6600 515.9600L299.6600 515.9600Q298.5400 517.7800 296.4400 517.7800L296.4400 517.7800L285.3800 517.7800Q283.8400 517.7800 283.0700 516.9400Q282.3000 516.1000 282.3000 514.7000L282.3000 514.7000Q282.4400 512.4600 284.1900 509.2400Q285.9400 506.0200 289.5100 503.0100Q293.0800 500 298.8200 497.9000Q304.5600 495.8000 312.6800 495.8000L312.6800 495.8000Q321.5000 495.8000 327.5900 497.9700Q333.6800 500.1400 337.3200 503.7800Q340.9600 507.4200 342.6400 512.3200Q344.3200 517.2200 344.3200 522.6800L344.3200 522.6800L344.3200 566.6400Q344.3200 568.0400 343.3400 569.0200Q342.3600 570 340.9600 570L340.9600 570L329.6200 570Q328.0800 570 327.1700 569.0200Q326.2600 568.0400 326.2600 566.6400L326.2600 566.6400L326.2600 561.1800Q324.4400 563.7000 321.3600 566.0800Q318.2800 568.4600 313.8700 569.9300Q309.4600 571.4000 303.4400 571.4000ZM308.2000 558.1000L308.2000 558.1000Q313.1000 558.1000 317.0900 556Q321.0800 553.9000 323.3900 549.4900Q325.7000 545.0800 325.7000 538.3600L325.7000 538.3600L325.7000 535.4200L311.7000 537.6600Q303.4400 538.9200 299.3800 541.7200Q295.3200 544.5200 295.3200 548.5800L295.3200 548.5800Q295.3200 551.6600 297.2100 553.8300Q299.1000 556 302.0400 557.0500Q304.9800 558.1000 308.2000 558.1000ZM377.9200 570L365.6000 570Q364.2000 570 363.2200 569.0200Q362.2400 568.0400 362.2400 566.6400L362.2400 566.6400L362.2400 500.5600Q362.2400 499.1600 363.2200 498.1800Q364.2000 497.2000 365.6000 497.2000L365.6000 497.2000L377.0800 497.2000Q378.4800 497.2000 379.4600 498.1800Q380.4400 499.1600 380.4400 500.5600L380.4400 500.5600L380.4400 506.3000Q384.0800 501.8200 389.7500 498.8100Q395.4200 495.8000 403.8200 495.8000L403.8200 495.8000Q412.3600 495.8000 418.6600 499.6500Q424.9600 503.5000 428.3900 510.5000Q431.8200 517.5000 431.8200 527.3000L431.8200 527.3000L431.8200 566.6400Q431.8200 568.0400 430.8400 569.0200Q429.8600 570 428.4600 570L428.4600 570L416.1400 570Q414.7400 570 413.7600 569.0200Q412.7800 568.0400 412.7800 566.6400L412.7800 566.6400L412.7800 528.1400Q412.7800 520.0200 408.7900 515.4000Q404.8000 510.7800 397.2400 510.7800L397.2400 510.7800Q389.9600 510.7800 385.6200 515.4000Q381.2800 520.0200 381.2800 528.1400L381.2800 528.1400L381.2800 566.6400Q381.2800 568.0400 380.3000 569.0200Q379.3200 570 377.9200 570L377.9200 570ZM480.9600 571.4000L480.9600 571.4000Q465.4200 571.4000 456.3200 562.4400Q447.2200 553.4800 446.5200 536.9600L446.5200 536.9600Q446.3800 535.5600 446.3800 533.3900Q446.3800 531.2200 446.5200 529.9600L446.5200 529.9600Q447.0800 519.3200 451.3500 511.6900Q455.6200 504.0600 463.1800 499.9300Q470.7400 495.8000 480.9600 495.8000L480.9600 495.8000Q492.3000 495.8000 500 500.4900Q507.7000 505.1800 511.6200 513.5100Q515.5400 521.8400 515.5400 532.7600L515.5400 532.7600L515.5400 535.7000Q515.5400 537.1000 514.5600 538.0800Q513.5800 539.0600 512.0400 539.0600L512.0400 539.0600L465.5600 539.0600Q465.5600 539.0600 465.5600 539.4800Q465.5600 539.9000 465.5600 540.1800L465.5600 540.1800Q465.7000 545.0800 467.4500 549.2100Q469.2000 553.3400 472.6300 555.8600Q476.0600 558.3800 480.8200 558.3800L480.8200 558.3800Q484.7400 558.3800 487.4000 557.1900Q490.0600 556 491.7400 554.4600Q493.4200 552.9200 494.1200 551.9400L494.1200 551.9400Q495.3800 550.2600 496.1500 549.9100Q496.9200 549.5600 498.4600 549.5600L498.4600 549.5600L510.5000 549.5600Q511.9000 549.5600 512.8100 550.4000Q513.7200 551.2400 513.5800 552.5000L513.5800 552.5000Q513.4400 554.7400 511.2700 557.9600Q509.1000 561.1800 505.0400 564.2600Q500.9800 567.3400 494.8900 569.3700Q488.8000 571.4000 480.9600 571.4000ZM465.5600 526.8800L465.5600 527.3000L496.5000 527.3000L496.5000 526.8800Q496.5000 521.4200 494.6800 517.2900Q492.8600 513.1600 489.3600 510.8500Q485.8600 508.5400 480.9600 508.5400L480.9600 508.5400Q476.0600 508.5400 472.5600 510.8500Q469.0600 513.1600 467.3100 517.2900Q465.5600 521.4200 465.5600 526.8800L465.5600 526.8800ZM523.6600 596.6000L518.3400 596.6000Q516.9400 596.6000 515.9600 595.6200Q514.9800 594.6400 514.9800 593.2400L514.9800 593.2400L514.9800 585.1200Q514.9800 583.7200 515.9600 582.7400Q516.9400 581.7600 518.3400 581.7600L518.3400 581.7600L521.9800 581.7600Q526.3200 581.7600 528.4200 580.2200Q530.5200 578.6800 531.2200 575.9500Q531.9200 573.2200 531.9200 569.8600L531.9200 569.8600L531.9200 500.5600Q531.9200 499.1600 532.9000 498.1800Q533.8800 497.2000 535.2800 497.2000L535.2800 497.2000L547.4600 497.2000Q548.8600 497.2000 549.8400 498.1800Q550.8200 499.1600 550.8200 500.5600L550.8200 500.5600L550.8200 570.1400Q550.8200 578.4000 547.8100 584.2800Q544.8000 590.1600 538.8500 593.3800Q532.9000 596.6000 523.6600 596.6000L523.6600 596.6000ZM547.8800 485.1600L534.7200 485.1600Q533.1800 485.1600 532.2700 484.1800Q531.3600 483.2000 531.3600 481.8000L531.3600 481.8000L531.3600 471.7200Q531.3600 470.3200 532.2700 469.3400Q533.1800 468.3600 534.7200 468.3600L534.7200 468.3600L547.8800 468.3600Q549.4200 468.3600 550.4000 469.3400Q551.3800 470.3200 551.3800 471.7200L551.3800 471.7200L551.3800 481.8000Q551.3800 483.2000 550.4000 484.1800Q549.4200 485.1600 547.8800 485.1600L547.8800 485.1600ZM590.5800 571.4000L590.5800 571.4000Q583.3000 571.4000 577.4200 568.5300Q571.5400 565.6600 568.1100 560.8300Q564.6800 556 564.6800 549.9800L564.6800 549.9800Q564.6800 540.1800 572.6600 534.3700Q580.6400 528.5600 593.5200 526.6000L593.5200 526.6000L612.7000 523.8000L612.7000 520.8600Q612.7000 514.9800 609.7600 511.7600Q606.8200 508.5400 599.6800 508.5400L599.6800 508.5400Q594.6400 508.5400 591.4900 510.5700Q588.3400 512.6000 586.8000 515.9600L586.8000 515.9600Q585.6800 517.7800 583.5800 517.7800L583.5800 517.7800L572.5200 517.7800Q570.9800 517.7800 570.2100 516.9400Q569.4400 516.1000 569.4400 514.7000L569.4400 514.7000Q569.5800 512.4600 571.3300 509.2400Q573.0800 506.0200 576.6500 503.0100Q580.2200 500 585.9600 497.9000Q591.7000 495.8000 599.8200 495.8000L599.8200 495.8000Q608.6400 495.8000 614.7300 497.9700Q620.8200 500.1400 624.4600 503.7800Q628.1000 507.4200 629.7800 512.3200Q631.4600 517.2200 631.4600 522.6800L631.4600 522.6800L631.4600 566.6400Q631.4600 568.0400 630.4800 569.0200Q629.5000 570 628.1000 570L628.1000 570L616.7600 570Q615.2200 570 614.3100 569.0200Q613.4000 568.0400 613.4000 566.6400L613.4000 566.6400L613.4000 561.1800Q611.5800 563.7000 608.5000 566.0800Q605.4200 568.4600 601.0100 569.9300Q596.6000 571.4000 590.5800 571.4000ZM595.3400 558.1000L595.3400 558.1000Q600.2400 558.1000 604.2300 556Q608.2200 553.9000 610.5300 549.4900Q612.8400 545.0800 612.8400 538.3600L612.8400 538.3600L612.8400 535.4200L598.8400 537.6600Q590.5800 538.9200 586.5200 541.7200Q582.4600 544.5200 582.4600 548.5800L582.4600 548.5800Q582.4600 551.6600 584.3500 553.8300Q586.2400 556 589.1800 557.0500Q592.1200 558.1000 595.3400 558.1000ZM664.9200 570L652.7400 570Q651.3400 570 650.3600 569.0200Q649.3800 568.0400 649.3800 566.6400L649.3800 566.6400L649.3800 500.7000Q649.3800 499.1600 650.3600 498.1800Q651.3400 497.2000 652.7400 497.2000L652.7400 497.2000L664.0800 497.2000Q665.4800 497.2000 666.5300 498.1800Q667.5800 499.1600 667.5800 500.7000L667.5800 500.7000L667.5800 506.4400Q670.8000 501.9600 675.9100 499.5800Q681.0200 497.2000 687.7400 497.2000L687.7400 497.2000L693.4800 497.2000Q695.0200 497.2000 695.9300 498.1800Q696.8400 499.1600 696.8400 500.5600L696.8400 500.5600L696.8400 510.6400Q696.8400 512.0400 695.9300 513.0200Q695.0200 514 693.4800 514L693.4800 514L682.5600 514Q675.8400 514 672.1300 517.7100Q668.4200 521.4200 668.4200 528.1400L668.4200 528.1400L668.4200 566.6400Q668.4200 568.0400 667.4400 569.0200Q666.4600 570 664.9200 570L664.9200 570ZM771.1800 571.4000L771.1800 571.4000Q755.6400 571.4000 746.5400 562.4400Q737.4400 553.4800 736.7400 536.9600L736.7400 536.9600Q736.6000 535.5600 736.6000 533.3900Q736.6000 531.2200 736.7400 529.9600L736.7400 529.9600Q737.3000 519.3200 741.5700 511.6900Q745.8400 504.0600 753.4000 499.9300Q760.9600 495.8000 771.1800 495.8000L771.1800 495.8000Q782.5200 495.8000 790.2200 500.4900Q797.9200 505.1800 801.8400 513.5100Q805.7600 521.8400 805.7600 532.7600L805.7600 532.7600L805.7600 535.7000Q805.7600 537.1000 804.7800 538.0800Q803.8000 539.0600 802.2600 539.0600L802.2600 539.0600L755.7800 539.0600Q755.7800 539.0600 755.7800 539.4800Q755.7800 539.9000 755.7800 540.1800L755.7800 540.1800Q755.9200 545.0800 757.6700 549.2100Q759.4200 553.3400 762.8500 555.8600Q766.2800 558.3800 771.0400 558.3800L771.0400 558.3800Q774.9600 558.3800 777.6200 557.1900Q780.2800 556 781.9600 554.4600Q783.6400 552.9200 784.3400 551.9400L784.3400 551.9400Q785.6000 550.2600 786.3700 549.9100Q787.1400 549.5600 788.6800 549.5600L788.6800 549.5600L800.7200 549.5600Q802.1200 549.5600 803.0300 550.4000Q803.9400 551.2400 803.8000 552.5000L803.8000 552.5000Q803.6600 554.7400 801.4900 557.9600Q799.3200 561.1800 795.2600 564.2600Q791.2000 567.3400 785.1100 569.3700Q779.0200 571.4000 771.1800 571.4000ZM755.7800 526.8800L755.7800 527.3000L786.7200 527.3000L786.7200 526.8800Q786.7200 521.4200 784.9000 517.2900Q783.0800 513.1600 779.5800 510.8500Q776.0800 508.5400 771.1800 508.5400L771.1800 508.5400Q766.2800 508.5400 762.7800 510.8500Q759.2800 513.1600 757.5300 517.2900Q755.7800 521.4200 755.7800 526.8800L755.7800 526.8800ZM879.6800 571.4000L879.6800 571.4000Q872.4000 571.4000 866.8700 568.9500Q861.3400 566.5000 857.7000 562.0200Q854.0600 557.5400 852.1000 551.4500Q850.1400 545.3600 849.8600 538.0800L849.8600 538.0800Q849.7200 535.5600 849.7200 533.5300Q849.7200 531.5000 849.8600 528.9800L849.8600 528.9800Q850.1400 521.9800 852.0300 515.9600Q853.9200 509.9400 857.6300 505.3900Q861.3400 500.8400 866.8700 498.3200Q872.4000 495.8000 879.6800 495.8000L879.6800 495.8000Q887.2400 495.8000 892.4900 498.3900Q897.7400 500.9800 901.2400 505.0400L901.2400 505.0400L901.2400 473.9600Q901.2400 472.5600 902.1500 471.5800Q903.0600 470.6000 904.6000 470.6000L904.6000 470.6000L916.5000 470.6000Q917.9000 470.6000 918.8800 471.5800Q919.8600 472.5600 919.8600 473.9600L919.8600 473.9600L919.8600 566.6400Q919.8600 568.0400 918.8800 569.0200Q917.9000 570 916.5000 570L916.5000 570L905.4400 570Q903.9000 570 902.9900 569.0200Q902.0800 568.0400 902.0800 566.6400L902.0800 566.6400L902.0800 561.4600Q898.5800 565.8000 893.1900 568.6000Q887.8000 571.4000 879.6800 571.4000ZM884.8600 556.4200L884.8600 556.4200Q890.7400 556.4200 894.2400 553.7600Q897.7400 551.1000 899.4200 546.9700Q901.1000 542.8400 901.2400 538.5000L901.2400 538.5000Q901.3800 535.9800 901.3800 533.1100Q901.3800 530.2400 901.2400 527.7200L901.2400 527.7200Q901.1000 523.5200 899.2800 519.6700Q897.4600 515.8200 893.9600 513.3000Q890.4600 510.7800 884.8600 510.7800L884.8600 510.7800Q878.9800 510.7800 875.5500 513.3700Q872.1200 515.9600 870.5800 520.1600Q869.0400 524.3600 868.7600 529.4000L868.7600 529.4000Q868.6200 533.6000 868.7600 537.8000L868.7600 537.8000Q869.0400 542.8400 870.5800 547.0400Q872.1200 551.2400 875.5500 553.8300Q878.9800 556.4200 884.8600 556.4200ZM969.8400 571.4000L969.8400 571.4000Q954.3000 571.4000 945.2000 562.4400Q936.1000 553.4800 935.4000 536.9600L935.4000 536.9600Q935.2600 535.5600 935.2600 533.3900Q935.2600 531.2200 935.4000 529.9600L935.4000 529.9600Q935.9600 519.3200 940.2300 511.6900Q944.5000 504.0600 952.0600 499.9300Q959.6200 495.8000 969.8400 495.8000L969.8400 495.8000Q981.1800 495.8000 988.8800 500.4900Q996.5800 505.1800 1000.5000 513.5100Q1004.4200 521.8400 1004.4200 532.7600L1004.4200 532.7600L1004.4200 535.7000Q1004.4200 537.1000 1003.4400 538.0800Q1002.4600 539.0600 1000.9200 539.0600L1000.9200 539.0600L954.4400 539.0600Q954.4400 539.0600 954.4400 539.4800Q954.4400 539.9000 954.4400 540.1800L954.4400 540.1800Q954.5800 545.0800 956.3300 549.2100Q958.0800 553.3400 961.5100 555.8600Q964.9400 558.3800 969.7000 558.3800L969.7000 558.3800Q973.6200 558.3800 976.2800 557.1900Q978.9400 556 980.6200 554.4600Q982.3000 552.9200 983.0000 551.9400L983.0000 551.9400Q984.2600 550.2600 985.0300 549.9100Q985.8000 549.5600 987.3400 549.5600L987.3400 549.5600L999.3800 549.5600Q1000.7800 549.5600 1001.6900 550.4000Q1002.6000 551.2400 1002.4600 552.5000L1002.4600 552.5000Q1002.3200 554.7400 1000.1500 557.9600Q997.9800 561.1800 993.9200 564.2600Q989.8600 567.3400 983.7700 569.3700Q977.6800 571.4000 969.8400 571.4000ZM954.4400 526.8800L954.4400 527.3000L985.3800 527.3000L985.3800 526.8800Q985.3800 521.4200 983.5600 517.2900Q981.7400 513.1600 978.2400 510.8500Q974.7400 508.5400 969.8400 508.5400L969.8400 508.5400Q964.9400 508.5400 961.4400 510.8500Q957.9400 513.1600 956.1900 517.2900Q954.4400 521.4200 954.4400 526.8800L954.4400 526.8800ZM1046.8400 571.4000L1046.8400 571.4000Q1038.4400 571.4000 1032.4900 569.4400Q1026.5400 567.4800 1022.7600 564.5400Q1018.9800 561.6000 1017.1600 558.6600Q1015.3400 555.7200 1015.2000 553.7600L1015.2000 553.7600Q1015.0600 552.2200 1016.1100 551.3100Q1017.1600 550.4000 1018.4200 550.4000L1018.4200 550.4000L1029.4800 550.4000Q1030.0400 550.4000 1030.4600 550.5400Q1030.8800 550.6800 1031.5800 551.3800L1031.5800 551.3800Q1033.4000 552.9200 1035.4300 554.6000Q1037.4600 556.2800 1040.2600 557.4700Q1043.0600 558.6600 1047.2600 558.6600L1047.2600 558.6600Q1052.7200 558.6600 1056.4300 556.4900Q1060.1400 554.3200 1060.1400 550.2600L1060.1400 550.2600Q1060.1400 547.3200 1058.5300 545.5000Q1056.9200 543.6800 1052.5800 542.2100Q1048.2400 540.7400 1040.2600 539.0600L1040.2600 539.0600Q1032.4200 537.2400 1027.2400 534.4400Q1022.0600 531.6400 1019.5400 527.4400Q1017.0200 523.2400 1017.0200 517.6400L1017.0200 517.6400Q1017.0200 512.1800 1020.3100 507.2100Q1023.6000 502.2400 1030.1100 499.0200Q1036.6200 495.8000 1046.2800 495.8000L1046.2800 495.8000Q1053.8400 495.8000 1059.4400 497.6900Q1065.0400 499.5800 1068.7500 502.3800Q1072.4600 505.1800 1074.4200 508.0500Q1076.3800 510.9200 1076.5200 513.0200L1076.5200 513.0200Q1076.6600 514.5600 1075.6800 515.4700Q1074.7000 516.3800 1073.4400 516.3800L1073.4400 516.3800L1063.0800 516.3800Q1062.3800 516.3800 1061.8200 516.1000Q1061.2600 515.8200 1060.7000 515.4000L1060.7000 515.4000Q1059.1600 514 1057.3400 512.3900Q1055.5200 510.7800 1052.9300 509.6600Q1050.3400 508.5400 1046.1400 508.5400L1046.1400 508.5400Q1040.8200 508.5400 1038.0200 510.8500Q1035.2200 513.1600 1035.2200 516.6600L1035.2200 516.6600Q1035.2200 519.0400 1036.5500 520.7900Q1037.8800 522.5400 1041.9400 524.0800Q1046 525.6200 1054.2600 527.3000L1054.2600 527.3000Q1063.6400 528.9800 1069.1700 532.2700Q1074.7000 535.5600 1077.0100 539.8300Q1079.3200 544.1000 1079.3200 549.2800L1079.3200 549.2800Q1079.3200 555.5800 1075.6100 560.6200Q1071.9000 565.6600 1064.6900 568.5300Q1057.4800 571.4000 1046.8400 571.4000ZM1125.1000 571.4000L1125.1000 571.4000Q1109.5600 571.4000 1100.4600 562.4400Q1091.3600 553.4800 1090.6600 536.9600L1090.6600 536.9600Q1090.5200 535.5600 1090.5200 533.3900Q1090.5200 531.2200 1090.6600 529.9600L1090.6600 529.9600Q1091.2200 519.3200 1095.4900 511.6900Q1099.7600 504.0600 1107.3200 499.9300Q1114.8800 495.8000 1125.1000 495.8000L1125.1000 495.8000Q1136.4400 495.8000 1144.1400 500.4900Q1151.8400 505.1800 1155.7600 513.5100Q1159.6800 521.8400 1159.6800 532.7600L1159.6800 532.7600L1159.6800 535.7000Q1159.6800 537.1000 1158.7000 538.0800Q1157.7200 539.0600 1156.1800 539.0600L1156.1800 539.0600L1109.7000 539.0600Q1109.7000 539.0600 1109.7000 539.4800Q1109.7000 539.9000 1109.7000 540.1800L1109.7000 540.1800Q1109.8400 545.0800 1111.5900 549.2100Q1113.3400 553.3400 1116.7700 555.8600Q1120.2000 558.3800 1124.9600 558.3800L1124.9600 558.3800Q1128.8800 558.3800 1131.5400 557.1900Q1134.2000 556 1135.8800 554.4600Q1137.5600 552.9200 1138.2600 551.9400L1138.2600 551.9400Q1139.5200 550.2600 1140.2900 549.9100Q1141.0600 549.5600 1142.6000 549.5600L1142.6000 549.5600L1154.6400 549.5600Q1156.0400 549.5600 1156.9500 550.4000Q1157.8600 551.2400 1157.7200 552.5000L1157.7200 552.5000Q1157.5800 554.7400 1155.4100 557.9600Q1153.2400 561.1800 1149.1800 564.2600Q1145.1200 567.3400 1139.0300 569.3700Q1132.9400 571.4000 1125.1000 571.4000ZM1109.7000 526.8800L1109.7000 527.3000L1140.6400 527.3000L1140.6400 526.8800Q1140.6400 521.4200 1138.8200 517.2900Q1137 513.1600 1133.5000 510.8500Q1130 508.5400 1125.1000 508.5400L1125.1000 508.5400Q1120.2000 508.5400 1116.7000 510.8500Q1113.2000 513.1600 1111.4500 517.2900Q1109.7000 521.4200 1109.7000 526.8800L1109.7000 526.8800ZM1190.2000 570L1177.8800 570Q1176.4800 570 1175.5000 569.0200Q1174.5200 568.0400 1174.5200 566.6400L1174.5200 566.6400L1174.5200 500.5600Q1174.5200 499.1600 1175.5000 498.1800Q1176.4800 497.2000 1177.8800 497.2000L1177.8800 497.2000L1189.3600 497.2000Q1190.7600 497.2000 1191.7400 498.1800Q1192.7200 499.1600 1192.7200 500.5600L1192.7200 500.5600L1192.7200 506.3000Q1196.3600 501.8200 1202.0300 498.8100Q1207.7000 495.8000 1216.1000 495.8000L1216.1000 495.8000Q1224.6400 495.8000 1230.9400 499.6500Q1237.2400 503.5000 1240.6700 510.5000Q1244.1000 517.5000 1244.1000 527.3000L1244.1000 527.3000L1244.1000 566.6400Q1244.1000 568.0400 1243.1200 569.0200Q1242.1400 570 1240.7400 570L1240.7400 570L1228.4200 570Q1227.0200 570 1226.0400 569.0200Q1225.0600 568.0400 1225.0600 566.6400L1225.0600 566.6400L1225.0600 528.1400Q1225.0600 520.0200 1221.0700 515.4000Q1217.0800 510.7800 1209.5200 510.7800L1209.5200 510.7800Q1202.2400 510.7800 1197.9000 515.4000Q1193.5600 520.0200 1193.5600 528.1400L1193.5600 528.1400L1193.5600 566.6400Q1193.5600 568.0400 1192.5800 569.0200Q1191.6000 570 1190.2000 570L1190.2000 570ZM1277.8400 570L1265.3800 570Q1263.9800 570 1263.0000 569.0200Q1262.0200 568.0400 1262.0200 566.6400L1262.0200 566.6400L1262.0200 473.9600Q1262.0200 472.5600 1263.0000 471.5800Q1263.9800 470.6000 1265.3800 470.6000L1265.3800 470.6000L1277.8400 470.6000Q1279.3800 470.6000 1280.2900 471.5800Q1281.2000 472.5600 1281.2000 473.9600L1281.2000 473.9600L1281.2000 505.8800Q1284.9800 501.4000 1290.4400 498.6000Q1295.9000 495.8000 1303.8800 495.8000L1303.8800 495.8000Q1312.4200 495.8000 1318.7900 499.6500Q1325.1600 503.5000 1328.6600 510.5000Q1332.1600 517.5000 1332.1600 527.3000L1332.1600 527.3000L1332.1600 566.6400Q1332.1600 568.0400 1331.1800 569.0200Q1330.2000 570 1328.8000 570L1328.8000 570L1316.2000 570Q1314.8000 570 1313.8200 569.0200Q1312.8400 568.0400 1312.8400 566.6400L1312.8400 566.6400L1312.8400 528.1400Q1312.8400 520.0200 1308.8500 515.4000Q1304.8600 510.7800 1297.3000 510.7800L1297.3000 510.7800Q1290.0200 510.7800 1285.6100 515.4000Q1281.2000 520.0200 1281.2000 528.1400L1281.2000 528.1400L1281.2000 566.6400Q1281.2000 568.0400 1280.2900 569.0200Q1279.3800 570 1277.8400 570L1277.8400 570ZM1371.0800 571.4000L1371.0800 571.4000Q1363.8000 571.4000 1357.9200 568.5300Q1352.0400 565.6600 1348.6100 560.8300Q1345.1800 556 1345.1800 549.9800L1345.1800 549.9800Q1345.1800 540.1800 1353.1600 534.3700Q1361.1400 528.5600 1374.0200 526.6000L1374.0200 526.6000L1393.2000 523.8000L1393.2000 520.8600Q1393.2000 514.9800 1390.2600 511.7600Q1387.3200 508.5400 1380.1800 508.5400L1380.1800 508.5400Q1375.1400 508.5400 1371.9900 510.5700Q1368.8400 512.6000 1367.3000 515.9600L1367.3000 515.9600Q1366.1800 517.7800 1364.0800 517.7800L1364.0800 517.7800L1353.0200 517.7800Q1351.4800 517.7800 1350.7100 516.9400Q1349.9400 516.1000 1349.9400 514.7000L1349.9400 514.7000Q1350.0800 512.4600 1351.8300 509.2400Q1353.5800 506.0200 1357.1500 503.0100Q1360.7200 500 1366.4600 497.9000Q1372.2000 495.8000 1380.3200 495.8000L1380.3200 495.8000Q1389.1400 495.8000 1395.2300 497.9700Q1401.3200 500.1400 1404.9600 503.7800Q1408.6000 507.4200 1410.2800 512.3200Q1411.9600 517.2200 1411.9600 522.6800L1411.9600 522.6800L1411.9600 566.6400Q1411.9600 568.0400 1410.9800 569.0200Q1410.0000 570 1408.6000 570L1408.6000 570L1397.2600 570Q1395.7200 570 1394.8100 569.0200Q1393.9000 568.0400 1393.9000 566.6400L1393.9000 566.6400L1393.9000 561.1800Q1392.0800 563.7000 1389.0000 566.0800Q1385.9200 568.4600 1381.5100 569.9300Q1377.1000 571.4000 1371.0800 571.4000ZM1375.8400 558.1000L1375.8400 558.1000Q1380.7400 558.1000 1384.7300 556Q1388.7200 553.9000 1391.0300 549.4900Q1393.3400 545.0800 1393.3400 538.3600L1393.3400 538.3600L1393.3400 535.4200L1379.3400 537.6600Q1371.0800 538.9200 1367.0200 541.7200Q1362.9600 544.5200 1362.9600 548.5800L1362.9600 548.5800Q1362.9600 551.6600 1364.8500 553.8300Q1366.7400 556 1369.6800 557.0500Q1372.6200 558.1000 1375.8400 558.1000ZM1445.4200 570L1433.2400 570Q1431.8400 570 1430.8600 569.0200Q1429.8800 568.0400 1429.8800 566.6400L1429.8800 566.6400L1429.8800 500.7000Q1429.8800 499.1600 1430.8600 498.1800Q1431.8400 497.2000 1433.2400 497.2000L1433.2400 497.2000L1444.5800 497.2000Q1445.9800 497.2000 1447.0300 498.1800Q1448.0800 499.1600 1448.0800 500.7000L1448.0800 500.7000L1448.0800 506.4400Q1451.3000 501.9600 1456.4100 499.5800Q1461.5200 497.2000 1468.2400 497.2000L1468.2400 497.2000L1473.9800 497.2000Q1475.5200 497.2000 1476.4300 498.1800Q1477.3400 499.1600 1477.3400 500.5600L1477.3400 500.5600L1477.3400 510.6400Q1477.3400 512.0400 1476.4300 513.0200Q1475.5200 514 1473.9800 514L1473.9800 514L1463.0600 514Q1456.3400 514 1452.6300 517.7100Q1448.9200 521.4200 1448.9200 528.1400L1448.9200 528.1400L1448.9200 566.6400Q1448.9200 568.0400 1447.9400 569.0200Q1446.9600 570 1445.4200 570L1445.4200 570ZM203.4800 710L192.1400 710Q183.7400 710 178 707.0600Q172.2600 704.1200 169.4600 698.3100Q166.6600 692.5000 166.6600 683.8200L166.6600 683.8200L166.6600 652.0400L155.6000 652.0400Q154.2000 652.0400 153.2200 651.0600Q152.2400 650.0800 152.2400 648.5400L152.2400 648.5400L152.2400 640.5600Q152.2400 639.1600 153.2200 638.1800Q154.2000 637.2000 155.6000 637.2000L155.6000 637.2000L166.6600 637.2000L166.6600 613.9600Q166.6600 612.5600 167.5700 611.5800Q168.4800 610.6000 170.0200 610.6000L170.0200 610.6000L181.3600 610.6000Q182.7600 610.6000 183.7400 611.5800Q184.7200 612.5600 184.7200 613.9600L184.7200 613.9600L184.7200 637.2000L202.2200 637.2000Q203.6200 637.2000 204.6000 638.1800Q205.5800 639.1600 205.5800 640.5600L205.5800 640.5600L205.5800 648.5400Q205.5800 650.0800 204.6000 651.0600Q203.6200 652.0400 202.2200 652.0400L202.2200 652.0400L184.7200 652.0400L184.7200 682.4200Q184.7200 688.1600 186.7500 691.3800Q188.7800 694.6000 193.8200 694.6000L193.8200 694.6000L203.4800 694.6000Q204.8800 694.6000 205.8600 695.5800Q206.8400 696.5600 206.8400 697.9600L206.8400 697.9600L206.8400 706.6400Q206.8400 708.0400 205.8600 709.0200Q204.8800 710 203.4800 710L203.4800 710ZM240.4400 711.4000L240.4400 711.4000Q233.1600 711.4000 227.2800 708.5300Q221.4000 705.6600 217.9700 700.8300Q214.5400 696 214.5400 689.9800L214.5400 689.9800Q214.5400 680.1800 222.5200 674.3700Q230.5000 668.5600 243.3800 666.6000L243.3800 666.6000L262.5600 663.8000L262.5600 660.8600Q262.5600 654.9800 259.6200 651.7600Q256.6800 648.5400 249.5400 648.5400L249.5400 648.5400Q244.5000 648.5400 241.3500 650.5700Q238.2000 652.6000 236.6600 655.9600L236.6600 655.9600Q235.5400 657.7800 233.4400 657.7800L233.4400 657.7800L222.3800 657.7800Q220.8400 657.7800 220.0700 656.9400Q219.3000 656.1000 219.3000 654.7000L219.3000 654.7000Q219.4400 652.4600 221.1900 649.2400Q222.9400 646.0200 226.5100 643.0100Q230.0800 640 235.8200 637.9000Q241.5600 635.8000 249.6800 635.8000L249.6800 635.8000Q258.5000 635.8000 264.5900 637.9700Q270.6800 640.1400 274.3200 643.7800Q277.9600 647.4200 279.6400 652.3200Q281.3200 657.2200 281.3200 662.6800L281.3200 662.6800L281.3200 706.6400Q281.3200 708.0400 280.3400 709.0200Q279.3600 710 277.9600 710L277.9600 710L266.6200 710Q265.0800 710 264.1700 709.0200Q263.2600 708.0400 263.2600 706.6400L263.2600 706.6400L263.2600 701.1800Q261.4400 703.7000 258.3600 706.0800Q255.2800 708.4600 250.8700 709.9300Q246.4600 711.4000 240.4400 711.4000ZM245.2000 698.1000L245.2000 698.1000Q250.1000 698.1000 254.0900 696Q258.0800 693.9000 260.3900 689.4900Q262.7000 685.0800 262.7000 678.3600L262.7000 678.3600L262.7000 675.4200L248.7000 677.6600Q240.4400 678.9200 236.3800 681.7200Q232.3200 684.5200 232.3200 688.5800L232.3200 688.5800Q232.3200 691.6600 234.2100 693.8300Q236.1000 696 239.0400 697.0500Q241.9800 698.1000 245.2000 698.1000ZM339.5600 711.4000L339.5600 711.4000Q331.4400 711.4000 326.0500 708.6000Q320.6600 705.8000 317.1600 701.4600L317.1600 701.4600L317.1600 706.6400Q317.1600 708.0400 316.2500 709.0200Q315.3400 710 313.8000 710L313.8000 710L302.7400 710Q301.3400 710 300.3600 709.0200Q299.3800 708.0400 299.3800 706.6400L299.3800 706.6400L299.3800 613.9600Q299.3800 612.5600 300.3600 611.5800Q301.3400 610.6000 302.7400 610.6000L302.7400 610.6000L314.6400 610.6000Q316.1800 610.6000 317.0900 611.5800Q318 612.5600 318 613.9600L318 613.9600L318 645.0400Q321.5000 640.9800 326.7500 638.3900Q332 635.8000 339.5600 635.8000L339.5600 635.8000Q346.9800 635.8000 352.4400 638.3200Q357.9000 640.8400 361.6100 645.3900Q365.3200 649.9400 367.2800 655.9600Q369.2400 661.9800 369.3800 668.9800L369.3800 668.9800Q369.5200 671.5000 369.5200 673.5300Q369.5200 675.5600 369.3800 678.0800L369.3800 678.0800Q369.1000 685.3600 367.1400 691.4500Q365.1800 697.5400 361.5400 702.0200Q357.9000 706.5000 352.4400 708.9500Q346.9800 711.4000 339.5600 711.4000ZM334.3800 696.4200L334.3800 696.4200Q340.4000 696.4200 343.7600 693.8300Q347.1200 691.2400 348.6600 687.0400Q350.2000 682.8400 350.4800 677.8000L350.4800 677.8000Q350.6200 673.6000 350.4800 669.4000L350.4800 669.4000Q350.2000 664.3600 348.6600 660.1600Q347.1200 655.9600 343.7600 653.3700Q340.4000 650.7800 334.3800 650.7800L334.3800 650.7800Q328.7800 650.7800 325.2800 653.3000Q321.7800 655.8200 319.9600 659.6700Q318.1400 663.5200 318 667.7200L318 667.7200Q317.8600 670.2400 317.8600 673.1100Q317.8600 675.9800 318 678.5000L318 678.5000Q318.2800 682.8400 319.8900 686.9700Q321.5000 691.1000 325.0700 693.7600Q328.6400 696.4200 334.3800 696.4200ZM416.4200 711.4000L416.4200 711.4000Q400.8800 711.4000 391.7800 702.4400Q382.6800 693.4800 381.9800 676.9600L381.9800 676.9600Q381.8400 675.5600 381.8400 673.3900Q381.8400 671.2200 381.9800 669.9600L381.9800 669.9600Q382.5400 659.3200 386.8100 651.6900Q391.0800 644.0600 398.6400 639.9300Q406.2000 635.8000 416.4200 635.8000L416.4200 635.8000Q427.7600 635.8000 435.4600 640.4900Q443.1600 645.1800 447.0800 653.5100Q451 661.8400 451 672.7600L451 672.7600L451 675.7000Q451 677.1000 450.0200 678.0800Q449.0400 679.0600 447.5000 679.0600L447.5000 679.0600L401.0200 679.0600Q401.0200 679.0600 401.0200 679.4800Q401.0200 679.9000 401.0200 680.1800L401.0200 680.1800Q401.1600 685.0800 402.9100 689.2100Q404.6600 693.3400 408.0900 695.8600Q411.5200 698.3800 416.2800 698.3800L416.2800 698.3800Q420.2000 698.3800 422.8600 697.1900Q425.5200 696 427.2000 694.4600Q428.8800 692.9200 429.5800 691.9400L429.5800 691.9400Q430.8400 690.2600 431.6100 689.9100Q432.3800 689.5600 433.9200 689.5600L433.9200 689.5600L445.9600 689.5600Q447.3600 689.5600 448.2700 690.4000Q449.1800 691.2400 449.0400 692.5000L449.0400 692.5000Q448.9000 694.7400 446.7300 697.9600Q444.5600 701.1800 440.5000 704.2600Q436.4400 707.3400 430.3500 709.3700Q424.2600 711.4000 416.4200 711.4000ZM401.0200 666.8800L401.0200 667.3000L431.9600 667.3000L431.9600 666.8800Q431.9600 661.4200 430.1400 657.2900Q428.3200 653.1600 424.8200 650.8500Q421.3200 648.5400 416.4200 648.5400L416.4200 648.5400Q411.5200 648.5400 408.0200 650.8500Q404.5200 653.1600 402.7700 657.2900Q401.0200 661.4200 401.0200 666.8800L401.0200 666.8800ZM480.9600 710L469.3400 710Q467.9400 710 466.9600 709.0200Q465.9800 708.0400 465.9800 706.6400L465.9800 706.6400L465.9800 613.9600Q465.9800 612.5600 466.9600 611.5800Q467.9400 610.6000 469.3400 610.6000L469.3400 610.6000L480.9600 610.6000Q482.3600 610.6000 483.3400 611.5800Q484.3200 612.5600 484.3200 613.9600L484.3200 613.9600L484.3200 706.6400Q484.3200 708.0400 483.3400 709.0200Q482.3600 710 480.9600 710L480.9600 710ZM524.0800 711.4000L524.0800 711.4000Q516.8000 711.4000 510.9200 708.5300Q505.0400 705.6600 501.6100 700.8300Q498.1800 696 498.1800 689.9800L498.1800 689.9800Q498.1800 680.1800 506.1600 674.3700Q514.1400 668.5600 527.0200 666.6000L527.0200 666.6000L546.2000 663.8000L546.2000 660.8600Q546.2000 654.9800 543.2600 651.7600Q540.3200 648.5400 533.1800 648.5400L533.1800 648.5400Q528.1400 648.5400 524.9900 650.5700Q521.8400 652.6000 520.3000 655.9600L520.3000 655.9600Q519.1800 657.7800 517.0800 657.7800L517.0800 657.7800L506.0200 657.7800Q504.4800 657.7800 503.7100 656.9400Q502.9400 656.1000 502.9400 654.7000L502.9400 654.7000Q503.0800 652.4600 504.8300 649.2400Q506.5800 646.0200 510.1500 643.0100Q513.7200 640 519.4600 637.9000Q525.2000 635.8000 533.3200 635.8000L533.3200 635.8000Q542.1400 635.8000 548.2300 637.9700Q554.3200 640.1400 557.9600 643.7800Q561.6000 647.4200 563.2800 652.3200Q564.9600 657.2200 564.9600 662.6800L564.9600 662.6800L564.9600 706.6400Q564.9600 708.0400 563.9800 709.0200Q563 710 561.6000 710L561.6000 710L550.2600 710Q548.7200 710 547.8100 709.0200Q546.9000 708.0400 546.9000 706.6400L546.9000 706.6400L546.9000 701.1800Q545.0800 703.7000 542 706.0800Q538.9200 708.4600 534.5100 709.9300Q530.1000 711.4000 524.0800 711.4000ZM528.8400 698.1000L528.8400 698.1000Q533.7400 698.1000 537.7300 696Q541.7200 693.9000 544.0300 689.4900Q546.3400 685.0800 546.3400 678.3600L546.3400 678.3600L546.3400 675.4200L532.3400 677.6600Q524.0800 678.9200 520.0200 681.7200Q515.9600 684.5200 515.9600 688.5800L515.9600 688.5800Q515.9600 691.6600 517.8500 693.8300Q519.7400 696 522.6800 697.0500Q525.6200 698.1000 528.8400 698.1000ZM610.4600 711.4000L610.4600 711.4000Q602.0600 711.4000 596.1100 709.4400Q590.1600 707.4800 586.3800 704.5400Q582.6000 701.6000 580.7800 698.6600Q578.9600 695.7200 578.8200 693.7600L578.8200 693.7600Q578.6800 692.2200 579.7300 691.3100Q580.7800 690.4000 582.0400 690.4000L582.0400 690.4000L593.1000 690.4000Q593.6600 690.4000 594.0800 690.5400Q594.5000 690.6800 595.2000 691.3800L595.2000 691.3800Q597.0200 692.9200 599.0500 694.6000Q601.0800 696.2800 603.8800 697.4700Q606.6800 698.6600 610.8800 698.6600L610.8800 698.6600Q616.3400 698.6600 620.0500 696.4900Q623.7600 694.3200 623.7600 690.2600L623.7600 690.2600Q623.7600 687.3200 622.1500 685.5000Q620.5400 683.6800 616.2000 682.2100Q611.8600 680.7400 603.8800 679.0600L603.8800 679.0600Q596.0400 677.2400 590.8600 674.4400Q585.6800 671.6400 583.1600 667.4400Q580.6400 663.2400 580.6400 657.6400L580.6400 657.6400Q580.6400 652.1800 583.9300 647.2100Q587.2200 642.2400 593.7300 639.0200Q600.2400 635.8000 609.9000 635.8000L609.9000 635.8000Q617.4600 635.8000 623.0600 637.6900Q628.6600 639.5800 632.3700 642.3800Q636.0800 645.1800 638.0400 648.0500Q640.0000 650.9200 640.1400 653.0200L640.1400 653.0200Q640.2800 654.5600 639.3000 655.4700Q638.3200 656.3800 637.0600 656.3800L637.0600 656.3800L626.7000 656.3800Q626.0000 656.3800 625.4400 656.1000Q624.8800 655.8200 624.3200 655.4000L624.3200 655.4000Q622.7800 654 620.9600 652.3900Q619.1400 650.7800 616.5500 649.6600Q613.9600 648.5400 609.7600 648.5400L609.7600 648.5400Q604.4400 648.5400 601.6400 650.8500Q598.8400 653.1600 598.8400 656.6600L598.8400 656.6600Q598.8400 659.0400 600.1700 660.7900Q601.5000 662.5400 605.5600 664.0800Q609.6200 665.6200 617.8800 667.3000L617.8800 667.3000Q627.2600 668.9800 632.7900 672.2700Q638.3200 675.5600 640.6300 679.8300Q642.9400 684.1000 642.9400 689.2800L642.9400 689.2800Q642.9400 695.5800 639.2300 700.6200Q635.5200 705.6600 628.3100 708.5300Q621.1000 711.4000 610.4600 711.4000ZM716.4400 711.4000L716.4400 711.4000Q707.9000 711.4000 701.6700 707.5500Q695.4400 703.7000 692.0800 696.6300Q688.7200 689.5600 688.7200 679.9000L688.7200 679.9000L688.7200 640.5600Q688.7200 639.1600 689.7000 638.1800Q690.6800 637.2000 692.0800 637.2000L692.0800 637.2000L704.4000 637.2000Q705.9400 637.2000 706.8500 638.1800Q707.7600 639.1600 707.7600 640.5600L707.7600 640.5600L707.7600 679.0600Q707.7600 696.4200 723.0200 696.4200L723.0200 696.4200Q730.3000 696.4200 734.5700 691.8000Q738.8400 687.1800 738.8400 679.0600L738.8400 679.0600L738.8400 640.5600Q738.8400 639.1600 739.8200 638.1800Q740.8000 637.2000 742.2000 637.2000L742.2000 637.2000L754.5200 637.2000Q755.9200 637.2000 756.9000 638.1800Q757.8800 639.1600 757.8800 640.5600L757.8800 640.5600L757.8800 706.6400Q757.8800 708.0400 756.9000 709.0200Q755.9200 710 754.5200 710L754.5200 710L743.1800 710Q741.6400 710 740.7300 709.0200Q739.8200 708.0400 739.8200 706.6400L739.8200 706.6400L739.8200 700.9000Q736.0400 705.8000 730.4400 708.6000Q724.8400 711.4000 716.4400 711.4000ZM820.6000 710L809.2600 710Q800.8600 710 795.1200 707.0600Q789.3800 704.1200 786.5800 698.3100Q783.7800 692.5000 783.7800 683.8200L783.7800 683.8200L783.7800 652.0400L772.7200 652.0400Q771.3200 652.0400 770.3400 651.0600Q769.3600 650.0800 769.3600 648.5400L769.3600 648.5400L769.3600 640.5600Q769.3600 639.1600 770.3400 638.1800Q771.3200 637.2000 772.7200 637.2000L772.7200 637.2000L783.7800 637.2000L783.7800 613.9600Q783.7800 612.5600 784.6900 611.5800Q785.6000 610.6000 787.1400 610.6000L787.1400 610.6000L798.4800 610.6000Q799.8800 610.6000 800.8600 611.5800Q801.8400 612.5600 801.8400 613.9600L801.8400 613.9600L801.8400 637.2000L819.3400 637.2000Q820.7400 637.2000 821.7200 638.1800Q822.7000 639.1600 822.7000 640.5600L822.7000 640.5600L822.7000 648.5400Q822.7000 650.0800 821.7200 651.0600Q820.7400 652.0400 819.3400 652.0400L819.3400 652.0400L801.8400 652.0400L801.8400 682.4200Q801.8400 688.1600 803.8700 691.3800Q805.9000 694.6000 810.9400 694.6000L810.9400 694.6000L820.6000 694.6000Q822.0000 694.6000 822.9800 695.5800Q823.9600 696.5600 823.9600 697.9600L823.9600 697.9600L823.9600 706.6400Q823.9600 708.0400 822.9800 709.0200Q822.0000 710 820.6000 710L820.6000 710ZM851.4000 710L839.7800 710Q838.3800 710 837.4000 709.0200Q836.4200 708.0400 836.4200 706.6400L836.4200 706.6400L836.4200 640.5600Q836.4200 639.1600 837.4000 638.1800Q838.3800 637.2000 839.7800 637.2000L839.7800 637.2000L851.4000 637.2000Q852.9400 637.2000 853.8500 638.1800Q854.7600 639.1600 854.7600 640.5600L854.7600 640.5600L854.7600 706.6400Q854.7600 708.0400 853.8500 709.0200Q852.9400 710 851.4000 710L851.4000 710ZM851.9600 625.1600L839.2200 625.1600Q837.8200 625.1600 836.8400 624.1800Q835.8600 623.2000 835.8600 621.8000L835.8600 621.8000L835.8600 611.7200Q835.8600 610.3200 836.8400 609.3400Q837.8200 608.3600 839.2200 608.3600L839.2200 608.3600L851.9600 608.3600Q853.5000 608.3600 854.4800 609.3400Q855.4600 610.3200 855.4600 611.7200L855.4600 611.7200L855.4600 621.8000Q855.4600 623.2000 854.4800 624.1800Q853.5000 625.1600 851.9600 625.1600L851.9600 625.1600ZM888.5000 710L876.8800 710Q875.4800 710 874.5000 709.0200Q873.5200 708.0400 873.5200 706.6400L873.5200 706.6400L873.5200 613.9600Q873.5200 612.5600 874.5000 611.5800Q875.4800 610.6000 876.8800 610.6000L876.8800 610.6000L888.5000 610.6000Q889.9000 610.6000 890.8800 611.5800Q891.8600 612.5600 891.8600 613.9600L891.8600 613.9600L891.8600 706.6400Q891.8600 708.0400 890.8800 709.0200Q889.9000 710 888.5000 710L888.5000 710ZM925.4600 710L913.8400 710Q912.4400 710 911.4600 709.0200Q910.4800 708.0400 910.4800 706.6400L910.4800 706.6400L910.4800 640.5600Q910.4800 639.1600 911.4600 638.1800Q912.4400 637.2000 913.8400 637.2000L913.8400 637.2000L925.4600 637.2000Q927.0000 637.2000 927.9100 638.1800Q928.8200 639.1600 928.8200 640.5600L928.8200 640.5600L928.8200 706.6400Q928.8200 708.0400 927.9100 709.0200Q927.0000 710 925.4600 710L925.4600 710ZM926.0200 625.1600L913.2800 625.1600Q911.8800 625.1600 910.9000 624.1800Q909.9200 623.2000 909.9200 621.8000L909.9200 621.8000L909.9200 611.7200Q909.9200 610.3200 910.9000 609.3400Q911.8800 608.3600 913.2800 608.3600L913.2800 608.3600L926.0200 608.3600Q927.5600 608.3600 928.5400 609.3400Q929.5200 610.3200 929.5200 611.7200L929.5200 611.7200L929.5200 621.8000Q929.5200 623.2000 928.5400 624.1800Q927.5600 625.1600 926.0200 625.1600L926.0200 625.1600ZM1004.2800 710L947.1600 710Q945.6200 710 944.7100 709.0200Q943.8000 708.0400 943.8000 706.6400L943.8000 706.6400L943.8000 698.6600Q943.8000 697.4000 944.4300 696.2100Q945.0600 695.0200 945.7600 694.1800L945.7600 694.1800L981.6000 651.7600L948.2800 651.7600Q946.8800 651.7600 945.9000 650.8500Q944.9200 649.9400 944.9200 648.4000L944.9200 648.4000L944.9200 640.5600Q944.9200 639.1600 945.9000 638.1800Q946.8800 637.2000 948.2800 637.2000L948.2800 637.2000L1001.3400 637.2000Q1002.8800 637.2000 1003.7900 638.1800Q1004.7000 639.1600 1004.7000 640.5600L1004.7000 640.5600L1004.7000 649.1000Q1004.7000 650.3600 1004.1400 651.3400Q1003.5800 652.3200 1002.7400 653.3000L1002.7400 653.3000L967.7400 695.4400L1004.2800 695.4400Q1005.6800 695.4400 1006.6600 696.3500Q1007.6400 697.2600 1007.6400 698.8000L1007.6400 698.8000L1007.6400 706.6400Q1007.6400 708.0400 1006.6600 709.0200Q1005.6800 710 1004.2800 710L1004.2800 710ZM1042.9200 711.4000L1042.9200 711.4000Q1035.6400 711.4000 1029.7600 708.5300Q1023.8800 705.6600 1020.4500 700.8300Q1017.0200 696 1017.0200 689.9800L1017.0200 689.9800Q1017.0200 680.1800 1025.0000 674.3700Q1032.9800 668.5600 1045.8600 666.6000L1045.8600 666.6000L1065.0400 663.8000L1065.0400 660.8600Q1065.0400 654.9800 1062.1000 651.7600Q1059.1600 648.5400 1052.0200 648.5400L1052.0200 648.5400Q1046.9800 648.5400 1043.8300 650.5700Q1040.6800 652.6000 1039.1400 655.9600L1039.1400 655.9600Q1038.0200 657.7800 1035.9200 657.7800L1035.9200 657.7800L1024.8600 657.7800Q1023.3200 657.7800 1022.5500 656.9400Q1021.7800 656.1000 1021.7800 654.7000L1021.7800 654.7000Q1021.9200 652.4600 1023.6700 649.2400Q1025.4200 646.0200 1028.9900 643.0100Q1032.5600 640 1038.3000 637.9000Q1044.0400 635.8000 1052.1600 635.8000L1052.1600 635.8000Q1060.9800 635.8000 1067.0700 637.9700Q1073.1600 640.1400 1076.8000 643.7800Q1080.4400 647.4200 1082.1200 652.3200Q1083.8000 657.2200 1083.8000 662.6800L1083.8000 662.6800L1083.8000 706.6400Q1083.8000 708.0400 1082.8200 709.0200Q1081.8400 710 1080.4400 710L1080.4400 710L1069.1000 710Q1067.5600 710 1066.6500 709.0200Q1065.7400 708.0400 1065.7400 706.6400L1065.7400 706.6400L1065.7400 701.1800Q1063.9200 703.7000 1060.8400 706.0800Q1057.7600 708.4600 1053.3500 709.9300Q1048.9400 711.4000 1042.9200 711.4000ZM1047.6800 698.1000L1047.6800 698.1000Q1052.5800 698.1000 1056.5700 696Q1060.5600 693.9000 1062.8700 689.4900Q1065.1800 685.0800 1065.1800 678.3600L1065.1800 678.3600L1065.1800 675.4200L1051.1800 677.6600Q1042.9200 678.9200 1038.8600 681.7200Q1034.8000 684.5200 1034.8000 688.5800L1034.8000 688.5800Q1034.8000 691.6600 1036.6900 693.8300Q1038.5800 696 1041.5200 697.0500Q1044.4600 698.1000 1047.6800 698.1000ZM1117.4000 710L1105.0800 710Q1103.6800 710 1102.7000 709.0200Q1101.7200 708.0400 1101.7200 706.6400L1101.7200 706.6400L1101.7200 640.5600Q1101.7200 639.1600 1102.7000 638.1800Q1103.6800 637.2000 1105.0800 637.2000L1105.0800 637.2000L1116.5600 637.2000Q1117.9600 637.2000 1118.9400 638.1800Q1119.9200 639.1600 1119.9200 640.5600L1119.9200 640.5600L1119.9200 646.3000Q1123.5600 641.8200 1129.2300 638.8100Q1134.9000 635.8000 1143.3000 635.8000L1143.3000 635.8000Q1151.8400 635.8000 1158.1400 639.6500Q1164.4400 643.5000 1167.8700 650.5000Q1171.3000 657.5000 1171.3000 667.3000L1171.3000 667.3000L1171.3000 706.6400Q1171.3000 708.0400 1170.3200 709.0200Q1169.3400 710 1167.9400 710L1167.9400 710L1155.6200 710Q1154.2200 710 1153.2400 709.0200Q1152.2600 708.0400 1152.2600 706.6400L1152.2600 706.6400L1152.2600 668.1400Q1152.2600 660.0200 1148.2700 655.4000Q1144.2800 650.7800 1136.7200 650.7800L1136.7200 650.7800Q1129.4400 650.7800 1125.1000 655.4000Q1120.7600 660.0200 1120.7600 668.1400L1120.7600 668.1400L1120.7600 706.6400Q1120.7600 708.0400 1119.7800 709.0200Q1118.8000 710 1117.4000 710L1117.4000 710ZM1216.1000 711.4000L1216.1000 711.4000Q1208.8200 711.4000 1203.2900 708.9500Q1197.7600 706.5000 1194.1200 702.0200Q1190.4800 697.5400 1188.5200 691.4500Q1186.5600 685.3600 1186.2800 678.0800L1186.2800 678.0800Q1186.1400 675.5600 1186.1400 673.5300Q1186.1400 671.5000 1186.2800 668.9800L1186.2800 668.9800Q1186.5600 661.9800 1188.4500 655.9600Q1190.3400 649.9400 1194.0500 645.3900Q1197.7600 640.8400 1203.2900 638.3200Q1208.8200 635.8000 1216.1000 635.8000L1216.1000 635.8000Q1223.6600 635.8000 1228.9100 638.3900Q1234.1600 640.9800 1237.6600 645.0400L1237.6600 645.0400L1237.6600 613.9600Q1237.6600 612.5600 1238.5700 611.5800Q1239.4800 610.6000 1241.0200 610.6000L1241.0200 610.6000L1252.9200 610.6000Q1254.3200 610.6000 1255.3000 611.5800Q1256.2800 612.5600 1256.2800 613.9600L1256.2800 613.9600L1256.2800 706.6400Q1256.2800 708.0400 1255.3000 709.0200Q1254.3200 710 1252.9200 710L1252.9200 710L1241.8600 710Q1240.3200 710 1239.4100 709.0200Q1238.5000 708.0400 1238.5000 706.6400L1238.5000 706.6400L1238.5000 701.4600Q1235.0000 705.8000 1229.6100 708.6000Q1224.2200 711.4000 1216.1000 711.4000ZM1221.2800 696.4200L1221.2800 696.4200Q1227.1600 696.4200 1230.6600 693.7600Q1234.1600 691.1000 1235.8400 686.9700Q1237.5200 682.8400 1237.6600 678.5000L1237.6600 678.5000Q1237.8000 675.9800 1237.8000 673.1100Q1237.8000 670.2400 1237.6600 667.7200L1237.6600 667.7200Q1237.5200 663.5200 1235.7000 659.6700Q1233.8800 655.8200 1230.3800 653.3000Q1226.8800 650.7800 1221.2800 650.7800L1221.2800 650.7800Q1215.4000 650.7800 1211.9700 653.3700Q1208.5400 655.9600 1207.0000 660.1600Q1205.4600 664.3600 1205.1800 669.4000L1205.1800 669.4000Q1205.0400 673.6000 1205.1800 677.8000L1205.1800 677.8000Q1205.4600 682.8400 1207.0000 687.0400Q1208.5400 691.2400 1211.9700 693.8300Q1215.4000 696.4200 1221.2800 696.4200ZM1307.1000 711.4000L1307.1000 711.4000Q1295.9000 711.4000 1288.2700 707.4800Q1280.6400 703.5600 1276.6500 696.4200Q1272.6600 689.2800 1272.1000 679.7600L1272.1000 679.7600Q1271.9600 677.2400 1271.9600 673.6000Q1271.9600 669.9600 1272.1000 667.4400L1272.1000 667.4400Q1272.6600 657.7800 1276.7900 650.7100Q1280.9200 643.6400 1288.5500 639.7200Q1296.1800 635.8000 1307.1000 635.8000L1307.1000 635.8000Q1318.0200 635.8000 1325.6500 639.7200Q1333.2800 643.6400 1337.4100 650.7100Q1341.5400 657.7800 1342.1000 667.4400L1342.1000 667.4400Q1342.2400 669.9600 1342.2400 673.6000Q1342.2400 677.2400 1342.1000 679.7600L1342.1000 679.7600Q1341.5400 689.2800 1337.5500 696.4200Q1333.5600 703.5600 1325.9300 707.4800Q1318.3000 711.4000 1307.1000 711.4000ZM1307.1000 697.5400L1307.1000 697.5400Q1314.5200 697.5400 1318.5800 692.8500Q1322.6400 688.1600 1323.0600 679.0600L1323.0600 679.0600Q1323.2000 676.9600 1323.2000 673.6000Q1323.2000 670.2400 1323.0600 668.1400L1323.0600 668.1400Q1322.6400 659.0400 1318.5800 654.3500Q1314.5200 649.6600 1307.1000 649.6600L1307.1000 649.6600Q1299.6800 649.6600 1295.6200 654.3500Q1291.5600 659.0400 1291.1400 668.1400L1291.1400 668.1400Q1291 670.2400 1291 673.6000Q1291 676.9600 1291.1400 679.0600L1291.1400 679.0600Q1291.5600 688.1600 1295.6200 692.8500Q1299.6800 697.5400 1307.1000 697.5400ZM1422.0400 711.4000L1422.0400 711.4000Q1410.8400 711.4000 1403.2100 707.4800Q1395.5800 703.5600 1391.5900 696.4200Q1387.6000 689.2800 1387.0400 679.7600L1387.0400 679.7600Q1386.9000 677.2400 1386.9000 673.6000Q1386.9000 669.9600 1387.0400 667.4400L1387.0400 667.4400Q1387.6000 657.7800 1391.7300 650.7100Q1395.8600 643.6400 1403.4900 639.7200Q1411.1200 635.8000 1422.0400 635.8000L1422.0400 635.8000Q1432.9600 635.8000 1440.5900 639.7200Q1448.2200 643.6400 1452.3500 650.7100Q1456.4800 657.7800 1457.0400 667.4400L1457.0400 667.4400Q1457.1800 669.9600 1457.1800 673.6000Q1457.1800 677.2400 1457.0400 679.7600L1457.0400 679.7600Q1456.4800 689.2800 1452.4900 696.4200Q1448.5000 703.5600 1440.8700 707.4800Q1433.2400 711.4000 1422.0400 711.4000ZM1422.0400 697.5400L1422.0400 697.5400Q1429.4600 697.5400 1433.5200 692.8500Q1437.5800 688.1600 1438.0000 679.0600L1438.0000 679.0600Q1438.1400 676.9600 1438.1400 673.6000Q1438.1400 670.2400 1438.0000 668.1400L1438.0000 668.1400Q1437.5800 659.0400 1433.5200 654.3500Q1429.4600 649.6600 1422.0400 649.6600L1422.0400 649.6600Q1414.6200 649.6600 1410.5600 654.3500Q1406.5000 659.0400 1406.0800 668.1400L1406.0800 668.1400Q1405.9400 670.2400 1405.9400 673.6000Q1405.9400 676.9600 1406.0800 679.0600L1406.0800 679.0600Q1406.5000 688.1600 1410.5600 692.8500Q1414.6200 697.5400 1422.0400 697.5400ZM174.3600 850L162.7400 850Q161.3400 850 160.3600 849.0200Q159.3800 848.0400 159.3800 846.6400L159.3800 846.6400L159.3800 753.9600Q159.3800 752.5600 160.3600 751.5800Q161.3400 750.6000 162.7400 750.6000L162.7400 750.6000L174.3600 750.6000Q175.7600 750.6000 176.7400 751.5800Q177.7200 752.5600 177.7200 753.9600L177.7200 753.9600L177.7200 846.6400Q177.7200 848.0400 176.7400 849.0200Q175.7600 850 174.3600 850L174.3600 850ZM223.3600 851.4000L223.3600 851.4000Q214.8200 851.4000 208.5900 847.5500Q202.3600 843.7000 199 836.6300Q195.6400 829.5600 195.6400 819.9000L195.6400 819.9000L195.6400 780.5600Q195.6400 779.1600 196.6200 778.1800Q197.6000 777.2000 199 777.2000L199 777.2000L211.3200 777.2000Q212.8600 777.2000 213.7700 778.1800Q214.6800 779.1600 214.6800 780.5600L214.6800 780.5600L214.6800 819.0600Q214.6800 836.4200 229.9400 836.4200L229.9400 836.4200Q237.2200 836.4200 241.4900 831.8000Q245.7600 827.1800 245.7600 819.0600L245.7600 819.0600L245.7600 780.5600Q245.7600 779.1600 246.7400 778.1800Q247.7200 777.2000 249.1200 777.2000L249.1200 777.2000L261.4400 777.2000Q262.8400 777.2000 263.8200 778.1800Q264.8000 779.1600 264.8000 780.5600L264.8000 780.5600L264.8000 846.6400Q264.8000 848.0400 263.8200 849.0200Q262.8400 850 261.4400 850L261.4400 850L250.1000 850Q248.5600 850 247.6500 849.0200Q246.7400 848.0400 246.7400 846.6400L246.7400 846.6400L246.7400 840.9000Q242.9600 845.8000 237.3600 848.6000Q231.7600 851.4000 223.3600 851.4000ZM314.7800 851.4000L314.7800 851.4000Q304.7000 851.4000 297.0700 847.6200Q289.4400 843.8400 285.1700 836.6300Q280.9000 829.4200 280.4800 819.2000L280.4800 819.2000Q280.3400 817.1000 280.3400 813.6700Q280.3400 810.2400 280.4800 808L280.4800 808Q280.9000 797.7800 285.1700 790.5700Q289.4400 783.3600 297.0700 779.5800Q304.7000 775.8000 314.7800 775.8000L314.7800 775.8000Q323.7400 775.8000 330.0400 778.2500Q336.3400 780.7000 340.4000 784.5500Q344.4600 788.4000 346.4900 792.5300Q348.5200 796.6600 348.6600 800.0200L348.6600 800.0200Q348.8000 801.5600 347.7500 802.4700Q346.7000 803.3800 345.3000 803.3800L345.3000 803.3800L332.9800 803.3800Q331.5800 803.3800 330.8100 802.6800Q330.0400 801.9800 329.3400 800.5800L329.3400 800.5800Q327.2400 794.9800 323.8100 792.6700Q320.3800 790.3600 315.0600 790.3600L315.0600 790.3600Q308.0600 790.3600 303.9300 794.7700Q299.8000 799.1800 299.5200 808.7000L299.5200 808.7000Q299.2400 814.0200 299.5200 818.5000L299.5200 818.5000Q299.8000 828.1600 303.9300 832.5000Q308.0600 836.8400 315.0600 836.8400L315.0600 836.8400Q320.5200 836.8400 323.8800 834.5300Q327.2400 832.2200 329.3400 826.6200L329.3400 826.6200Q330.0400 825.2200 330.8100 824.5200Q331.5800 823.8200 332.9800 823.8200L332.9800 823.8200L345.3000 823.8200Q346.7000 823.8200 347.7500 824.7300Q348.8000 825.6400 348.6600 827.1800L348.6600 827.1800Q348.5200 829.7000 347.3300 832.8500Q346.1400 836 343.5500 839.2900Q340.9600 842.5800 337.0400 845.3100Q333.1200 848.0400 327.5900 849.7200Q322.0600 851.4000 314.7800 851.4000ZM378.2000 850L366.5800 850Q365.1800 850 364.2000 849.0200Q363.2200 848.0400 363.2200 846.6400L363.2200 846.6400L363.2200 780.5600Q363.2200 779.1600 364.2000 778.1800Q365.1800 777.2000 366.5800 777.2000L366.5800 777.2000L378.2000 777.2000Q379.7400 777.2000 380.6500 778.1800Q381.5600 779.1600 381.5600 780.5600L381.5600 780.5600L381.5600 846.6400Q381.5600 848.0400 380.6500 849.0200Q379.7400 850 378.2000 850L378.2000 850ZM378.7600 765.1600L366.0200 765.1600Q364.6200 765.1600 363.6400 764.1800Q362.6600 763.2000 362.6600 761.8000L362.6600 761.8000L362.6600 751.7200Q362.6600 750.3200 363.6400 749.3400Q364.6200 748.3600 366.0200 748.3600L366.0200 748.3600L378.7600 748.3600Q380.3000 748.3600 381.2800 749.3400Q382.2600 750.3200 382.2600 751.7200L382.2600 751.7200L382.2600 761.8000Q382.2600 763.2000 381.2800 764.1800Q380.3000 765.1600 378.7600 765.1600L378.7600 765.1600ZM427.2000 851.4000L427.2000 851.4000Q419.9200 851.4000 414.3900 848.9500Q408.8600 846.5000 405.2200 842.0200Q401.5800 837.5400 399.6200 831.4500Q397.6600 825.3600 397.3800 818.0800L397.3800 818.0800Q397.2400 815.5600 397.2400 813.5300Q397.2400 811.5000 397.3800 808.9800L397.3800 808.9800Q397.6600 801.9800 399.5500 795.9600Q401.4400 789.9400 405.1500 785.3900Q408.8600 780.8400 414.3900 778.3200Q419.9200 775.8000 427.2000 775.8000L427.2000 775.8000Q434.7600 775.8000 440.0100 778.3900Q445.2600 780.9800 448.7600 785.0400L448.7600 785.0400L448.7600 753.9600Q448.7600 752.5600 449.6700 751.5800Q450.5800 750.6000 452.1200 750.6000L452.1200 750.6000L464.0200 750.6000Q465.4200 750.6000 466.4000 751.5800Q467.3800 752.5600 467.3800 753.9600L467.3800 753.9600L467.3800 846.6400Q467.3800 848.0400 466.4000 849.0200Q465.4200 850 464.0200 850L464.0200 850L452.9600 850Q451.4200 850 450.5100 849.0200Q449.6000 848.0400 449.6000 846.6400L449.6000 846.6400L449.6000 841.4600Q446.1000 845.8000 440.7100 848.6000Q435.3200 851.4000 427.2000 851.4000ZM432.3800 836.4200L432.3800 836.4200Q438.2600 836.4200 441.7600 833.7600Q445.2600 831.1000 446.9400 826.9700Q448.6200 822.8400 448.7600 818.5000L448.7600 818.5000Q448.9000 815.9800 448.9000 813.1100Q448.9000 810.2400 448.7600 807.7200L448.7600 807.7200Q448.6200 803.5200 446.8000 799.6700Q444.9800 795.8200 441.4800 793.3000Q437.9800 790.7800 432.3800 790.7800L432.3800 790.7800Q426.5000 790.7800 423.0700 793.3700Q419.6400 795.9600 418.1000 800.1600Q416.5600 804.3600 416.2800 809.4000L416.2800 809.4000Q416.1400 813.6000 416.2800 817.8000L416.2800 817.8000Q416.5600 822.8400 418.1000 827.0400Q419.6400 831.2400 423.0700 833.8300Q426.5000 836.4200 432.3800 836.4200ZM517.5000 851.4000L517.5000 851.4000Q507.4200 851.4000 499.7900 847.6200Q492.1600 843.8400 487.8900 836.6300Q483.6200 829.4200 483.2000 819.2000L483.2000 819.2000Q483.0600 817.1000 483.0600 813.6700Q483.0600 810.2400 483.2000 808L483.2000 808Q483.6200 797.7800 487.8900 790.5700Q492.1600 783.3600 499.7900 779.5800Q507.4200 775.8000 517.5000 775.8000L517.5000 775.8000Q526.4600 775.8000 532.7600 778.2500Q539.0600 780.7000 543.1200 784.5500Q547.1800 788.4000 549.2100 792.5300Q551.2400 796.6600 551.3800 800.0200L551.3800 800.0200Q551.5200 801.5600 550.4700 802.4700Q549.4200 803.3800 548.0200 803.3800L548.0200 803.3800L535.7000 803.3800Q534.3000 803.3800 533.5300 802.6800Q532.7600 801.9800 532.0600 800.5800L532.0600 800.5800Q529.9600 794.9800 526.5300 792.6700Q523.1000 790.3600 517.7800 790.3600L517.7800 790.3600Q510.7800 790.3600 506.6500 794.7700Q502.5200 799.1800 502.2400 808.7000L502.2400 808.7000Q501.9600 814.0200 502.2400 818.5000L502.2400 818.5000Q502.5200 828.1600 506.6500 832.5000Q510.7800 836.8400 517.7800 836.8400L517.7800 836.8400Q523.2400 836.8400 526.6000 834.5300Q529.9600 832.2200 532.0600 826.6200L532.0600 826.6200Q532.7600 825.2200 533.5300 824.5200Q534.3000 823.8200 535.7000 823.8200L535.7000 823.8200L548.0200 823.8200Q549.4200 823.8200 550.4700 824.7300Q551.5200 825.6400 551.3800 827.1800L551.3800 827.1800Q551.2400 829.7000 550.0500 832.8500Q548.8600 836 546.2700 839.2900Q543.6800 842.5800 539.7600 845.3100Q535.8400 848.0400 530.3100 849.7200Q524.7800 851.4000 517.5000 851.4000ZM581.9000 850L569.4400 850Q568.0400 850 567.0600 849.0200Q566.0800 848.0400 566.0800 846.6400L566.0800 846.6400L566.0800 753.9600Q566.0800 752.5600 567.0600 751.5800Q568.0400 750.6000 569.4400 750.6000L569.4400 750.6000L581.9000 750.6000Q583.4400 750.6000 584.3500 751.5800Q585.2600 752.5600 585.2600 753.9600L585.2600 753.9600L585.2600 785.8800Q589.0400 781.4000 594.5000 778.6000Q599.9600 775.8000 607.9400 775.8000L607.9400 775.8000Q616.4800 775.8000 622.8500 779.6500Q629.2200 783.5000 632.7200 790.5000Q636.2200 797.5000 636.2200 807.3000L636.2200 807.3000L636.2200 846.6400Q636.2200 848.0400 635.2400 849.0200Q634.2600 850 632.8600 850L632.8600 850L620.2600 850Q618.8600 850 617.8800 849.0200Q616.9000 848.0400 616.9000 846.6400L616.9000 846.6400L616.9000 808.1400Q616.9000 800.0200 612.9100 795.4000Q608.9200 790.7800 601.3600 790.7800L601.3600 790.7800Q594.0800 790.7800 589.6700 795.4000Q585.2600 800.0200 585.2600 808.1400L585.2600 808.1400L585.2600 846.6400Q585.2600 848.0400 584.3500 849.0200Q583.4400 850 581.9000 850L581.9000 850ZM675.1400 851.4000L675.1400 851.4000Q667.8600 851.4000 661.9800 848.5300Q656.1000 845.6600 652.6700 840.8300Q649.2400 836 649.2400 829.9800L649.2400 829.9800Q649.2400 820.1800 657.2200 814.3700Q665.2000 808.5600 678.0800 806.6000L678.0800 806.6000L697.2600 803.8000L697.2600 800.8600Q697.2600 794.9800 694.3200 791.7600Q691.3800 788.5400 684.2400 788.5400L684.2400 788.5400Q679.2000 788.5400 676.0500 790.5700Q672.9000 792.6000 671.3600 795.9600L671.3600 795.9600Q670.2400 797.7800 668.1400 797.7800L668.1400 797.7800L657.0800 797.7800Q655.5400 797.7800 654.7700 796.9400Q654 796.1000 654 794.7000L654 794.7000Q654.1400 792.4600 655.8900 789.2400Q657.6400 786.0200 661.2100 783.0100Q664.7800 780 670.5200 777.9000Q676.2600 775.8000 684.3800 775.8000L684.3800 775.8000Q693.2000 775.8000 699.2900 777.9700Q705.3800 780.1400 709.0200 783.7800Q712.6600 787.4200 714.3400 792.3200Q716.0200 797.2200 716.0200 802.6800L716.0200 802.6800L716.0200 846.6400Q716.0200 848.0400 715.0400 849.0200Q714.0600 850 712.6600 850L712.6600 850L701.3200 850Q699.7800 850 698.8700 849.0200Q697.9600 848.0400 697.9600 846.6400L697.9600 846.6400L697.9600 841.1800Q696.1400 843.7000 693.0600 846.0800Q689.9800 848.4600 685.5700 849.9300Q681.1600 851.4000 675.1400 851.4000ZM679.9000 838.1000L679.9000 838.1000Q684.8000 838.1000 688.7900 836Q692.7800 833.9000 695.0900 829.4900Q697.4000 825.0800 697.4000 818.3600L697.4000 818.3600L697.4000 815.4200L683.4000 817.6600Q675.1400 818.9200 671.0800 821.7200Q667.0200 824.5200 667.0200 828.5800L667.0200 828.5800Q667.0200 831.6600 668.9100 833.8300Q670.8000 836 673.7400 837.0500Q676.6800 838.1000 679.9000 838.1000ZM749.4800 850L737.3000 850Q735.9000 850 734.9200 849.0200Q733.9400 848.0400 733.9400 846.6400L733.9400 846.6400L733.9400 780.7000Q733.9400 779.1600 734.9200 778.1800Q735.9000 777.2000 737.3000 777.2000L737.3000 777.2000L748.6400 777.2000Q750.0400 777.2000 751.0900 778.1800Q752.1400 779.1600 752.1400 780.7000L752.1400 780.7000L752.1400 786.4400Q755.3600 781.9600 760.4700 779.5800Q765.5800 777.2000 772.3000 777.2000L772.3000 777.2000L778.0400 777.2000Q779.5800 777.2000 780.4900 778.1800Q781.4000 779.1600 781.4000 780.5600L781.4000 780.5600L781.4000 790.6400Q781.4000 792.0400 780.4900 793.0200Q779.5800 794 778.0400 794L778.0400 794L767.1200 794Q760.4000 794 756.6900 797.7100Q752.9800 801.4200 752.9800 808.1400L752.9800 808.1400L752.9800 846.6400Q752.9800 848.0400 752 849.0200Q751.0200 850 749.4800 850L749.4800 850ZM836.5600 850L825.2200 850Q816.8200 850 811.0800 847.0600Q805.3400 844.1200 802.5400 838.3100Q799.7400 832.5000 799.7400 823.8200L799.7400 823.8200L799.7400 792.0400L788.6800 792.0400Q787.2800 792.0400 786.3000 791.0600Q785.3200 790.0800 785.3200 788.5400L785.3200 788.5400L785.3200 780.5600Q785.3200 779.1600 786.3000 778.1800Q787.2800 777.2000 788.6800 777.2000L788.6800 777.2000L799.7400 777.2000L799.7400 753.9600Q799.7400 752.5600 800.6500 751.5800Q801.5600 750.6000 803.1000 750.6000L803.1000 750.6000L814.4400 750.6000Q815.8400 750.6000 816.8200 751.5800Q817.8000 752.5600 817.8000 753.9600L817.8000 753.9600L817.8000 777.2000L835.3000 777.2000Q836.7000 777.2000 837.6800 778.1800Q838.6600 779.1600 838.6600 780.5600L838.6600 780.5600L838.6600 788.5400Q838.6600 790.0800 837.6800 791.0600Q836.7000 792.0400 835.3000 792.0400L835.3000 792.0400L817.8000 792.0400L817.8000 822.4200Q817.8000 828.1600 819.8300 831.3800Q821.8600 834.6000 826.9000 834.6000L826.9000 834.6000L836.5600 834.6000Q837.9600 834.6000 838.9400 835.5800Q839.9200 836.5600 839.9200 837.9600L839.9200 837.9600L839.9200 846.6400Q839.9200 848.0400 838.9400 849.0200Q837.9600 850 836.5600 850L836.5600 850Z" id="title"/></g></svg>