<svg xmlns="http://www.w3.org/2000/svg" version="1.1" xmlns:xlink="http://www.w3.org/1999/xlink" xmlns:svgjs="http://svgjs.dev/svgjs" viewBox="0 0 1920 1080" id="c33f9c3f-0238-4d1e-a701-c59f7406998a"><g><rect width="1920" height="1080" fill="#a2ad91"/></g><g fill="#b8c89f"><path d="M468.687 1264C468.687 952.926 216.448 701.313 -94 701.313L-94 138C527.522 138 1031.37 641.852 1031.37 1264L468.687 1264Z"/></g><g fill="#ffffff" opacity="0.4"><path d="M265.263 1365.25C288.869 1380.05 295.985 1411.12 281.176 1434.72C266.367 1458.33 235.301 1465.44 211.695 1450.64C188.088 1435.83 180.973 1404.77 195.781 1381.16C210.59 1357.55 241.656 1350.44 265.263 1365.25ZM355.971 1125.81C341.163 1149.42 348.278 1180.48 371.884 1195.29C395.491 1210.09 426.558 1202.98 441.366 1179.37C456.175 1155.77 449.06 1124.7 425.453 1109.9C401.846 1095.09 370.78 1102.21 355.971 1125.81ZM516.161 870.463C501.353 894.069 508.468 925.132 532.075 939.938C555.681 954.745 586.748 947.629 601.556 924.023C616.365 900.418 609.25 869.355 585.643 854.549C562.036 839.742 530.97 846.858 516.161 870.463ZM676.352 615.114C661.543 638.72 668.658 669.783 692.265 684.589C715.872 699.395 746.938 692.28 761.746 668.674C776.555 645.069 769.44 614.006 745.833 599.2C722.227 584.393 691.16 591.509 676.352 615.114ZM836.542 359.766C821.733 383.371 828.848 414.434 852.455 429.24C876.062 444.047 907.128 436.931 921.937 413.325C936.745 389.72 929.63 358.657 906.023 343.851C882.417 329.044 851.35 336.16 836.542 359.766ZM451.145 1541.33C436.336 1564.93 443.451 1596 467.058 1610.8C490.665 1625.61 521.731 1618.49 536.54 1594.89C551.349 1571.28 544.233 1540.22 520.627 1525.41C497.02 1510.61 465.953 1517.72 451.145 1541.33ZM611.335 1285.98C596.526 1309.58 603.642 1340.65 627.248 1355.45C650.855 1370.26 681.922 1363.14 696.73 1339.54C711.539 1315.93 704.424 1284.87 680.817 1270.06C657.21 1255.26 626.143 1262.37 611.335 1285.98ZM771.525 1030.63C756.717 1054.23 763.832 1085.3 787.439 1100.1C811.045 1114.91 842.112 1107.79 856.92 1084.19C871.729 1060.58 864.614 1029.52 841.007 1014.71C817.4 999.908 786.334 1007.02 771.525 1030.63ZM931.716 775.28C916.907 798.886 924.022 829.949 947.629 844.755C971.236 859.561 1002.3 852.446 1017.11 828.84C1031.92 805.235 1024.8 774.172 1001.2 759.365C977.591 744.559 946.524 751.675 931.716 775.28ZM1091.91 519.931C1077.1 543.537 1084.21 574.6 1107.82 589.406C1131.43 604.212 1162.49 597.097 1177.3 573.491C1192.11 549.886 1184.99 518.823 1161.39 504.016C1137.78 489.21 1106.71 496.326 1091.91 519.931ZM706.509 1701.49C691.7 1725.1 698.815 1756.16 722.422 1770.97C746.029 1785.77 777.095 1778.66 791.904 1755.05C806.713 1731.45 799.597 1700.38 775.991 1685.58C752.384 1670.77 721.317 1677.89 706.509 1701.49ZM866.699 1446.14C851.89 1469.75 859.006 1500.81 882.612 1515.62C906.219 1530.43 937.286 1523.31 952.094 1499.7C966.903 1476.1 959.788 1445.03 936.181 1430.23C912.574 1415.42 881.508 1422.54 866.699 1446.14ZM1026.89 1190.79C1012.08 1214.4 1019.2 1245.46 1042.8 1260.27C1066.41 1275.08 1097.48 1267.96 1112.28 1244.36C1127.09 1220.75 1119.98 1189.69 1096.37 1174.88C1072.76 1160.07 1041.7 1167.19 1026.89 1190.79ZM1187.08 935.446C1172.27 959.052 1179.39 990.115 1202.99 1004.92C1226.6 1019.73 1257.67 1012.61 1272.47 989.006C1287.28 965.401 1280.17 934.338 1256.56 919.531C1232.95 904.725 1201.89 911.841 1187.08 935.446ZM1347.27 680.097C1332.46 703.703 1339.58 734.766 1363.18 749.572C1386.79 764.378 1417.86 757.262 1432.66 733.657C1447.47 710.052 1440.36 678.989 1416.75 664.182C1393.14 649.376 1361.91 656.53 1347.27 680.097ZM961.873 1861.66C947.064 1885.26 954.179 1916.33 977.786 1931.13C1001.39 1945.94 1032.46 1938.82 1047.27 1915.22C1062.08 1891.61 1054.96 1860.55 1031.35 1845.74C1007.75 1830.94 976.681 1838.05 961.873 1861.66ZM1122.06 1606.31C1107.25 1629.91 1114.37 1660.98 1137.98 1675.78C1161.58 1690.59 1192.65 1683.48 1207.46 1659.87C1222.27 1636.26 1215.15 1605.2 1191.54 1590.39C1167.94 1575.59 1136.87 1582.7 1122.06 1606.31ZM1282.25 1350.96C1267.44 1374.57 1274.56 1405.63 1298.17 1420.44C1321.77 1435.24 1352.84 1428.13 1367.65 1404.52C1382.46 1380.92 1375.34 1349.85 1351.74 1335.05C1328.13 1320.24 1297.06 1327.35 1282.25 1350.96ZM1442.44 1095.61C1427.63 1119.22 1434.75 1150.28 1458.36 1165.09C1481.96 1179.89 1513.03 1172.78 1527.84 1149.17C1542.65 1125.57 1535.53 1094.5 1511.93 1079.7C1488.32 1064.89 1457.09 1072.04 1442.44 1095.61ZM1602.63 840.263C1587.83 863.868 1594.94 894.931 1618.55 909.738C1642.15 924.544 1673.22 917.428 1688.03 893.823C1702.84 870.217 1695.72 839.154 1672.12 824.348C1648.51 809.542 1617.28 816.696 1602.63 840.263ZM1217.24 2021.82C1202.43 2045.43 1209.54 2076.49 1233.15 2091.3C1256.76 2106.11 1287.82 2098.99 1302.63 2075.38C1317.44 2051.78 1310.33 2020.72 1286.72 2005.91C1263.11 1991.1 1232.05 1998.22 1217.24 2021.82ZM1377.43 1766.47C1362.62 1790.08 1369.73 1821.14 1393.34 1835.95C1416.95 1850.76 1448.01 1843.64 1462.82 1820.04C1477.63 1796.43 1470.52 1765.37 1446.91 1750.56C1423.3 1735.75 1392.24 1742.87 1377.43 1766.47ZM1537.62 1511.13C1522.81 1534.73 1529.92 1565.8 1553.53 1580.6C1577.14 1595.41 1608.2 1588.29 1623.01 1564.69C1637.82 1541.08 1630.71 1510.02 1607.1 1495.21C1583.49 1480.4 1552.26 1487.56 1537.62 1511.13ZM1697.81 1255.78C1683 1279.38 1690.11 1310.45 1713.72 1325.25C1737.33 1340.06 1768.39 1332.94 1783.2 1309.34C1798.01 1285.73 1790.9 1254.67 1767.29 1239.86C1743.68 1225.06 1712.45 1232.21 1697.81 1255.78ZM1857.83 1000.47C1843.02 1024.07 1850.14 1055.14 1873.74 1069.94C1897.35 1084.75 1928.42 1077.63 1943.23 1054.03C1958.03 1030.42 1950.92 999.358 1927.31 984.551C1903.87 969.707 1872.64 976.861 1857.83 1000.47Z"/></g><g><path d="M178.635 139.281L184.422 144.246V166.626H215.704L219.958 172.147L215.69 177.397H184.422V198.795L178.635 203.747L173 198.795V144.232L178.635 139.281ZM195.554 195.68H219.406L223.397 200.915L219.143 206.45H195.554L191.7 201.342L195.554 195.68ZM196.382 138H219.129L223.383 143.52L219.129 148.77H196.659L192.115 143.677L196.382 138ZM323.155 148.628L328.251 154.291L323.155 159.968H246.13L241.172 154.291L246.13 148.628H323.155ZM237.043 172.147L241.849 167.893L246.669 172.147V178.393C246.669 188.879 249.417 197.515 261.668 197.515H264.14C275.147 197.515 281.197 189.86 281.197 177.952V172.005L285.879 167.75L290.699 171.862V178.379C290.699 189.007 293.723 196.946 305.56 196.946H307.618C319.178 196.946 321.235 187.869 321.373 177.952V171.578L326.056 167.608L331 171.72V178.094C330.862 191.838 327.285 207.574 308.032 207.574H305.974C294.552 207.574 288.365 202.324 285.892 195.808C283.006 202.466 275.299 208.286 264.844 208.286H262.358C242.553 208.286 237.194 195.964 237.056 178.663V172.147H237.043ZM276.391 274.744L273.642 267.089L280.796 264.969L305.974 276.721V252.491L311.07 248.095L316.291 252.491V281.829L325.641 286.226L328.251 293.311L320.959 296L276.391 274.744ZM321.235 223.011L328.113 226.27L325.917 233.497L264.002 263.119L256.571 260.146L259.596 252.776L321.235 223.011ZM231.905 263.404L237.954 268.512C237.402 286.51 222.403 296 204.669 296H202.874C194.062 296 183.759 292.6 177.157 286.083L177.834 278.855L184.298 278.002C189.118 282.256 195.858 285.229 202.183 285.229H204.117C216.091 285.229 225.303 280.136 226.27 268.085L231.905 263.404ZM226.256 251.638C225.704 239.16 216.629 234.209 204.103 234.209H202.169C194.739 234.209 189.104 237.182 184.284 241.436L177.834 240.583L177.143 233.355C183.745 226.696 192.957 223.58 202.597 223.58H204.517C222.403 223.58 237.402 232.942 237.94 251.211L231.891 256.176L226.256 251.638Z" fill="#000000"/></g><path d="M1171 781L1171 339L1187 339L1187 781L1171 781Z" fill="#000000"/><g fill="#000000" id="info-group"><path d="M1584.4 652H1475.2C1470.37 652 1465.74 650.082 1462.33 646.669C1458.92 643.256 1457 638.627 1457 633.8V488.2C1457 483.373 1458.92 478.744 1462.33 475.331C1465.74 471.917 1470.37 470 1475.2 470H1584.4C1589.23 470 1593.86 471.917 1597.27 475.331C1600.68 478.744 1602.6 483.373 1602.6 488.2V633.8C1602.6 638.627 1600.68 643.256 1597.27 646.669C1593.86 650.082 1589.23 652 1584.4 652ZM1520.7 510.95C1520.7 509.743 1521.18 508.586 1522.03 507.733C1522.89 506.879 1524.04 506.4 1525.25 506.4H1579.85C1581.06 506.4 1582.21 506.879 1583.07 507.733C1583.92 508.586 1584.4 509.743 1584.4 510.95C1584.4 512.157 1583.92 513.314 1583.07 514.167C1582.21 515.021 1581.06 515.5 1579.85 515.5H1525.25C1524.04 515.5 1522.89 515.021 1522.03 514.167C1521.18 513.314 1520.7 512.157 1520.7 510.95ZM1525.25 524.6C1524.04 524.6 1522.89 525.079 1522.03 525.933C1521.18 526.786 1520.7 527.943 1520.7 529.15C1520.7 530.357 1521.18 531.514 1522.03 532.367C1522.89 533.221 1524.04 533.7 1525.25 533.7H1579.85C1581.06 533.7 1582.21 533.221 1583.07 532.367C1583.92 531.514 1584.4 530.357 1584.4 529.15C1584.4 527.943 1583.92 526.786 1583.07 525.933C1582.21 525.079 1581.06 524.6 1579.85 524.6H1525.25ZM1510.27 507.733C1511.12 508.586 1511.6 509.744 1511.6 510.95C1511.6 512.156 1511.12 513.314 1510.27 514.167L1488.85 535.584L1476.53 523.267C1476.1 522.847 1475.75 522.345 1475.51 521.79C1475.28 521.235 1475.15 520.638 1475.14 520.034C1475.14 519.429 1475.25 518.83 1475.48 518.271C1475.71 517.712 1476.05 517.204 1476.48 516.777C1476.9 516.35 1477.41 516.012 1477.97 515.783C1478.53 515.554 1479.13 515.439 1479.73 515.444C1480.34 515.45 1480.93 515.575 1481.49 515.813C1482.05 516.052 1482.55 516.399 1482.97 516.833L1488.85 522.716L1503.83 507.733C1504.69 506.88 1505.84 506.401 1507.05 506.401C1508.26 506.401 1509.41 506.88 1510.27 507.733ZM1525.25 561C1524.04 561 1522.89 561.479 1522.03 562.333C1521.18 563.186 1520.7 564.343 1520.7 565.55C1520.7 566.757 1521.18 567.914 1522.03 568.767C1522.89 569.621 1524.04 570.1 1525.25 570.1H1579.85C1581.06 570.1 1582.21 569.621 1583.07 568.767C1583.92 567.914 1584.4 566.757 1584.4 565.55C1584.4 564.343 1583.92 563.186 1583.07 562.333C1582.21 561.479 1581.06 561 1579.85 561H1525.25ZM1520.7 583.75C1520.7 582.543 1521.18 581.386 1522.03 580.533C1522.89 579.679 1524.04 579.2 1525.25 579.2H1579.85C1581.06 579.2 1582.21 579.679 1583.07 580.533C1583.92 581.386 1584.4 582.543 1584.4 583.75C1584.4 584.957 1583.92 586.114 1583.07 586.967C1582.21 587.821 1581.06 588.3 1579.85 588.3H1525.25C1524.04 588.3 1522.89 587.821 1522.03 586.967C1521.18 586.114 1520.7 584.957 1520.7 583.75ZM1502.5 561H1479.75C1478.54 561 1477.39 561.479 1476.53 562.333C1475.68 563.186 1475.2 564.343 1475.2 565.55V588.3C1475.2 589.507 1475.68 590.664 1476.53 591.517C1477.39 592.371 1478.54 592.85 1479.75 592.85H1502.5C1503.71 592.85 1504.86 592.371 1505.72 591.517C1506.57 590.664 1507.05 589.507 1507.05 588.3V565.55C1507.05 564.343 1506.57 563.186 1505.72 562.333C1504.86 561.479 1503.71 561 1502.5 561Z" id="title"/><path d="M1639 633.8L1625.35 652L1611.7 633.8V551.9H1639V633.8Z" id="title"/><path d="M1620.8 520.05H1629.9C1632.31 520.05 1634.63 521.009 1636.33 522.715C1638.04 524.422 1639 526.737 1639 529.15V547.35H1611.7V529.15C1611.7 526.737 1612.66 524.422 1614.37 522.715C1616.07 521.009 1618.39 520.05 1620.8 520.05Z" id="title"/><path d="M221.6880 640L202.7360 640Q200.6760 640 199.2340 638.5580Q197.7920 637.1160 197.7920 635.0560L197.7920 635.0560L197.7920 521.1380L159.6820 521.1380Q157.6220 521.1380 156.1800 519.6960Q154.7380 518.2540 154.7380 516.1940L154.7380 516.1940L154.7380 500.9500Q154.7380 498.6840 156.1800 497.2420Q157.6220 495.8000 159.6820 495.8000L159.6820 495.8000L264.7420 495.8000Q267.0080 495.8000 268.4500 497.2420Q269.8920 498.6840 269.8920 500.9500L269.8920 500.9500L269.8920 516.1940Q269.8920 518.2540 268.4500 519.6960Q267.0080 521.1380 264.7420 521.1380L264.7420 521.1380L226.8380 521.1380L226.8380 635.0560Q226.8380 637.1160 225.3960 638.5580Q223.9540 640 221.6880 640L221.6880 640ZM299.7620 640L281.8400 640Q280.1920 640 278.8530 638.7640Q277.5140 637.5280 277.5140 635.6740L277.5140 635.6740Q277.5140 634.8500 277.9260 633.8200L277.9260 633.8200L327.5720 500.9500Q328.1900 498.8900 329.9410 497.3450Q331.6920 495.8000 334.7820 495.8000L334.7820 495.8000L357.2360 495.8000Q360.3260 495.8000 361.9740 497.3450Q363.6220 498.8900 364.4460 500.9500L364.4460 500.9500L414.0920 633.8200Q414.2980 634.8500 414.2980 635.6740L414.2980 635.6740Q414.2980 637.5280 413.0620 638.7640Q411.8260 640 410.1780 640L410.1780 640L392.2560 640Q389.3720 640 388.0330 638.6610Q386.6940 637.3220 386.2820 636.0860L386.2820 636.0860L376.6000 610.9540L315.4180 610.9540L305.7360 636.0860Q305.3240 637.3220 303.9850 638.6610Q302.6460 640 299.7620 640L299.7620 640ZM345.9060 523.6100L322.6280 587.2640L369.3900 587.2640L345.9060 523.6100ZM457.1460 640L438.4000 640Q436.3400 640 434.8980 638.5580Q433.4560 637.1160 433.4560 635.0560L433.4560 635.0560L433.4560 500.9500Q433.4560 498.6840 434.8980 497.2420Q436.3400 495.8000 438.4000 495.8000L438.4000 495.8000L491.7540 495.8000Q516.6800 495.8000 531.1000 507.3360Q545.5200 518.8720 545.5200 540.9140L545.5200 540.9140Q545.5200 556.1580 538.0010 566.2520Q530.4820 576.3460 517.9160 580.8780L517.9160 580.8780L547.9920 633.4080Q548.6100 634.6440 548.6100 635.6740L548.6100 635.6740Q548.6100 637.5280 547.2710 638.7640Q545.9320 640 544.2840 640L544.2840 640L525.5380 640Q522.0360 640 520.1820 638.1460Q518.3280 636.2920 517.2980 634.4380L517.2980 634.4380L490.7240 585.6160L462.0900 585.6160L462.0900 635.0560Q462.0900 637.1160 460.7510 638.5580Q459.4120 640 457.1460 640L457.1460 640ZM462.0900 518.6660L462.0900 562.3380L491.1360 562.3380Q503.7020 562.3380 509.8820 556.6730Q516.0620 551.0080 516.0620 540.7080L516.0620 540.7080Q516.0620 530.4080 509.9850 524.5370Q503.9080 518.6660 491.1360 518.6660L491.1360 518.6660L462.0900 518.6660ZM669.3260 640L577.0380 640Q574.9780 640 573.5360 638.5580Q572.0940 637.1160 572.0940 635.0560L572.0940 635.0560L572.0940 500.9500Q572.0940 498.6840 573.5360 497.2420Q574.9780 495.8000 577.0380 495.8000L577.0380 495.8000L667.6780 495.8000Q669.9440 495.8000 671.3860 497.2420Q672.8280 498.6840 672.8280 500.9500L672.8280 500.9500L672.8280 514.5460Q672.8280 516.6060 671.3860 518.0480Q669.9440 519.4900 667.6780 519.4900L667.6780 519.4900L599.9040 519.4900L599.9040 555.9520L663.1460 555.9520Q665.4120 555.9520 666.8540 557.2910Q668.2960 558.6300 668.2960 560.8960L668.2960 560.8960L668.2960 573.6680Q668.2960 575.9340 666.8540 577.2730Q665.4120 578.6120 663.1460 578.6120L663.1460 578.6120L599.9040 578.6120L599.9040 616.3100L669.3260 616.3100Q671.5920 616.3100 673.0340 617.7520Q674.4760 619.1940 674.4760 621.4600L674.4760 621.4600L674.4760 635.0560Q674.4760 637.1160 673.0340 638.5580Q671.5920 640 669.3260 640L669.3260 640ZM723.2980 640L705.1700 640Q703.1100 640 701.6680 638.5580Q700.2260 637.1160 700.2260 635.0560L700.2260 635.0560L700.2260 500.9500Q700.2260 498.6840 701.6680 497.2420Q703.1100 495.8000 705.1700 495.8000L705.1700 495.8000L794.5740 495.8000Q796.8400 495.8000 798.2820 497.2420Q799.7240 498.6840 799.7240 500.9500L799.7240 500.9500L799.7240 515.3700Q799.7240 517.6360 798.2820 518.9750Q796.8400 520.3140 794.5740 520.3140L794.5740 520.3140L728.4480 520.3140L728.4480 559.4540L790.4540 559.4540Q792.7200 559.4540 794.1620 560.8960Q795.6040 562.3380 795.6040 564.6040L795.6040 564.6040L795.6040 579.0240Q795.6040 581.0840 794.1620 582.5260Q792.7200 583.9680 790.4540 583.9680L790.4540 583.9680L728.4480 583.9680L728.4480 635.0560Q728.4480 637.1160 727.0060 638.5580Q725.5640 640 723.2980 640L723.2980 640ZM833.0960 640L815.1740 640Q813.5260 640 812.1870 638.7640Q810.8480 637.5280 810.8480 635.6740L810.8480 635.6740Q810.8480 634.8500 811.2600 633.8200L811.2600 633.8200L860.9060 500.9500Q861.5240 498.8900 863.2750 497.3450Q865.0260 495.8000 868.1160 495.8000L868.1160 495.8000L890.5700 495.8000Q893.6600 495.8000 895.3080 497.3450Q896.9560 498.8900 897.7800 500.9500L897.7800 500.9500L947.4260 633.8200Q947.6320 634.8500 947.6320 635.6740L947.6320 635.6740Q947.6320 637.5280 946.3960 638.7640Q945.1600 640 943.5120 640L943.5120 640L925.5900 640Q922.7060 640 921.3670 638.6610Q920.0280 637.3220 919.6160 636.0860L919.6160 636.0860L909.9340 610.9540L848.7520 610.9540L839.0700 636.0860Q838.6580 637.3220 837.3190 638.6610Q835.9800 640 833.0960 640L833.0960 640ZM879.2400 523.6100L855.9620 587.2640L902.7240 587.2640L879.2400 523.6100Z" id="task-title"/></g></svg>