<svg xmlns="http://www.w3.org/2000/svg" version="1.1" xmlns:xlink="http://www.w3.org/1999/xlink" xmlns:svgjs="http://svgjs.dev/svgjs" viewBox="0 0 1920 1080" id="b29ce873-47f8-41c3-8ab0-3d0536d65c19"><g><rect width="1920" height="1080" fill="#63264a"/></g><g fill="#6e8530"><path d="M969.5 217C561.465 217 231 547.465 231 955.5C231 1363.53 561.465 1694 969.5 1694C1377.53 1694 1708 1363.53 1708 955.5C1708 547.465 1377.53 217 969.5 217ZM969.5 1309.34C773.983 1309.34 615.658 1151.02 615.658 955.5C615.658 759.983 773.983 601.658 969.5 601.658C1165.02 601.658 1323.34 759.983 1323.34 955.5C1323.34 1151.02 1165.02 1309.34 969.5 1309.34Z"/></g><g fill="#ffffff" opacity="0.2"><path d="M1432 918.479L1616.48 734V918.479H1432Z"/><path d="M1616.48 918.479L1800.52 734V918.479H1616.48Z"/><path d="M1800.52 918.479L1985 734V918.479H1800.52Z"/><path d="M1432 1102.52L1616.48 918.479V1102.52H1432Z"/><path d="M1616.48 1102.52L1800.52 918.479V1102.52H1616.48Z"/><path d="M1800.52 1102.52L1985 918.479V1102.52H1800.52Z"/><path d="M499 154.521L683.479 -29.5215V154.521H499Z"/><path d="M683.479 154.521L867.521 -29.5215V154.521H683.479Z"/><path d="M867.521 154.521L1052 -29.5215V154.521H867.521Z"/><path d="M499 339L683.479 154.521V339H499Z"/><path d="M683.479 339L867.521 154.521V339H683.479Z"/><path d="M867.521 339L1052 154.521V339H867.521Z"/></g><g><path d="M178.635 139.281L184.422 144.246V166.626H215.704L219.958 172.147L215.69 177.397H184.422V198.795L178.635 203.747L173 198.795V144.232L178.635 139.281ZM195.554 195.68H219.406L223.397 200.915L219.143 206.45H195.554L191.7 201.342L195.554 195.68ZM196.382 138H219.129L223.383 143.52L219.129 148.77H196.659L192.115 143.677L196.382 138ZM323.155 148.628L328.251 154.291L323.155 159.968H246.13L241.172 154.291L246.13 148.628H323.155ZM237.043 172.147L241.849 167.893L246.669 172.147V178.393C246.669 188.879 249.417 197.515 261.668 197.515H264.14C275.147 197.515 281.197 189.86 281.197 177.952V172.005L285.879 167.75L290.699 171.862V178.379C290.699 189.007 293.723 196.946 305.56 196.946H307.618C319.178 196.946 321.235 187.869 321.373 177.952V171.578L326.056 167.608L331 171.72V178.094C330.862 191.838 327.285 207.574 308.032 207.574H305.974C294.552 207.574 288.365 202.324 285.892 195.808C283.006 202.466 275.299 208.286 264.844 208.286H262.358C242.553 208.286 237.194 195.964 237.056 178.663V172.147H237.043ZM276.391 274.744L273.642 267.089L280.796 264.969L305.974 276.721V252.491L311.07 248.095L316.291 252.491V281.829L325.641 286.226L328.251 293.311L320.959 296L276.391 274.744ZM321.235 223.011L328.113 226.27L325.917 233.497L264.002 263.119L256.571 260.146L259.596 252.776L321.235 223.011ZM231.905 263.404L237.954 268.512C237.402 286.51 222.403 296 204.669 296H202.874C194.062 296 183.759 292.6 177.157 286.083L177.834 278.855L184.298 278.002C189.118 282.256 195.858 285.229 202.183 285.229H204.117C216.091 285.229 225.303 280.136 226.27 268.085L231.905 263.404ZM226.256 251.638C225.704 239.16 216.629 234.209 204.103 234.209H202.169C194.739 234.209 189.104 237.182 184.284 241.436L177.834 240.583L177.143 233.355C183.745 226.696 192.957 223.58 202.597 223.58H204.517C222.403 223.58 237.402 232.942 237.94 251.211L231.891 256.176L226.256 251.638Z" fill="#ffffff"/></g><g fill="#ffffff" id="info-group"><path d="M167.0800 360L154.9000 360Q153.7800 360 152.8700 359.1600Q151.9600 358.3200 151.9600 357.0600L151.9600 357.0600Q151.9600 356.5000 152.2400 355.8000L152.2400 355.8000L185.9800 265.5000Q186.4000 264.1000 187.5900 263.0500Q188.7800 262 190.8800 262L190.8800 262L206.1400 262Q208.2400 262 209.3600 263.0500Q210.4800 264.1000 211.0400 265.5000L211.0400 265.5000L244.7800 355.8000Q244.9200 356.5000 244.9200 357.0600L244.9200 357.0600Q244.9200 358.3200 244.0800 359.1600Q243.2400 360 242.1200 360L242.1200 360L229.9400 360Q227.9800 360 227.0700 359.0900Q226.1600 358.1800 225.8800 357.3400L225.8800 357.3400L219.3000 340.2600L177.7200 340.2600L171.1400 357.3400Q170.8600 358.1800 169.9500 359.0900Q169.0400 360 167.0800 360L167.0800 360ZM198.4400 280.9000L182.6200 324.1600L214.4000 324.1600L198.4400 280.9000ZM283.2800 361.4000L283.2800 361.4000Q274.7400 361.4000 268.5100 357.5500Q262.2800 353.7000 258.9200 346.6300Q255.5600 339.5600 255.5600 329.9000L255.5600 329.9000L255.5600 290.5600Q255.5600 289.1600 256.5400 288.1800Q257.5200 287.2000 258.9200 287.2000L258.9200 287.2000L271.2400 287.2000Q272.7800 287.2000 273.6900 288.1800Q274.6000 289.1600 274.6000 290.5600L274.6000 290.5600L274.6000 329.0600Q274.6000 346.4200 289.8600 346.4200L289.8600 346.4200Q297.1400 346.4200 301.4100 341.8000Q305.6800 337.1800 305.6800 329.0600L305.6800 329.0600L305.6800 290.5600Q305.6800 289.1600 306.6600 288.1800Q307.6400 287.2000 309.0400 287.2000L309.0400 287.2000L321.3600 287.2000Q322.7600 287.2000 323.7400 288.1800Q324.7200 289.1600 324.7200 290.5600L324.7200 290.5600L324.7200 356.6400Q324.7200 358.0400 323.7400 359.0200Q322.7600 360 321.3600 360L321.3600 360L310.0200 360Q308.4800 360 307.5700 359.0200Q306.6600 358.0400 306.6600 356.6400L306.6600 356.6400L306.6600 350.9000Q302.8800 355.8000 297.2800 358.6000Q291.6800 361.4000 283.2800 361.4000ZM358.3200 360L346.7000 360Q345.3000 360 344.3200 359.0200Q343.3400 358.0400 343.3400 356.6400L343.3400 356.6400L343.3400 263.9600Q343.3400 262.5600 344.3200 261.5800Q345.3000 260.6000 346.7000 260.6000L346.7000 260.6000L358.3200 260.6000Q359.7200 260.6000 360.7000 261.5800Q361.6800 262.5600 361.6800 263.9600L361.6800 263.9600L361.6800 356.6400Q361.6800 358.0400 360.7000 359.0200Q359.7200 360 358.3200 360L358.3200 360ZM401.4400 361.4000L401.4400 361.4000Q394.1600 361.4000 388.2800 358.5300Q382.4000 355.6600 378.9700 350.8300Q375.5400 346 375.5400 339.9800L375.5400 339.9800Q375.5400 330.1800 383.5200 324.3700Q391.5000 318.5600 404.3800 316.6000L404.3800 316.6000L423.5600 313.8000L423.5600 310.8600Q423.5600 304.9800 420.6200 301.7600Q417.6800 298.5400 410.5400 298.5400L410.5400 298.5400Q405.5000 298.5400 402.3500 300.5700Q399.2000 302.6000 397.6600 305.9600L397.6600 305.9600Q396.5400 307.7800 394.4400 307.7800L394.4400 307.7800L383.3800 307.7800Q381.8400 307.7800 381.0700 306.9400Q380.3000 306.1000 380.3000 304.7000L380.3000 304.7000Q380.4400 302.4600 382.1900 299.2400Q383.9400 296.0200 387.5100 293.0100Q391.0800 290 396.8200 287.9000Q402.5600 285.8000 410.6800 285.8000L410.6800 285.8000Q419.5000 285.8000 425.5900 287.9700Q431.6800 290.1400 435.3200 293.7800Q438.9600 297.4200 440.6400 302.3200Q442.3200 307.2200 442.3200 312.6800L442.3200 312.6800L442.3200 356.6400Q442.3200 358.0400 441.3400 359.0200Q440.3600 360 438.9600 360L438.9600 360L427.6200 360Q426.0800 360 425.1700 359.0200Q424.2600 358.0400 424.2600 356.6400L424.2600 356.6400L424.2600 351.1800Q422.4400 353.7000 419.3600 356.0800Q416.2800 358.4600 411.8700 359.9300Q407.4600 361.4000 401.4400 361.4000ZM406.2000 348.1000L406.2000 348.1000Q411.1000 348.1000 415.0900 346Q419.0800 343.9000 421.3900 339.4900Q423.7000 335.0800 423.7000 328.3600L423.7000 328.3600L423.7000 325.4200L409.7000 327.6600Q401.4400 328.9200 397.3800 331.7200Q393.3200 334.5200 393.3200 338.5800L393.3200 338.5800Q393.3200 341.6600 395.2100 343.8300Q397.1000 346 400.0400 347.0500Q402.9800 348.1000 406.2000 348.1000ZM550.5400 360L538.3600 360Q536.9600 360 535.9800 359.0200Q535.0000 358.0400 535.0000 356.6400L535.0000 356.6400L535.0000 338.7200L490.6200 338.7200Q489.0800 338.7200 488.1700 337.7400Q487.2600 336.7600 487.2600 335.3600L487.2600 335.3600L487.2600 325.8400Q487.2600 325 487.6100 323.8100Q487.9600 322.6200 488.8000 321.6400L488.8000 321.6400L530.1000 264.3800Q531.9200 262 535.2800 262L535.2800 262L550.5400 262Q551.9400 262 552.9200 262.9800Q553.9000 263.9600 553.9000 265.3600L553.9000 265.3600L553.9000 322.2000L566.3600 322.2000Q568.0400 322.2000 568.9500 323.1100Q569.8600 324.0200 569.8600 325.5600L569.8600 325.5600L569.8600 335.3600Q569.8600 336.7600 568.8800 337.7400Q567.9000 338.7200 566.5000 338.7200L566.5000 338.7200L553.9000 338.7200L553.9000 356.6400Q553.9000 358.0400 552.9200 359.0200Q551.9400 360 550.5400 360L550.5400 360ZM535.4200 282.3000L506.7200 322.7600L535.4200 322.7600L535.4200 282.3000ZM600.3800 311L586.5200 311Q585.1200 311 584.1400 310.0200Q583.1600 309.0400 583.1600 307.6400L583.1600 307.6400L583.1600 294.3400Q583.1600 292.8000 584.1400 291.8200Q585.1200 290.8400 586.5200 290.8400L586.5200 290.8400L600.3800 290.8400Q601.9200 290.8400 602.9000 291.8200Q603.8800 292.8000 603.8800 294.3400L603.8800 294.3400L603.8800 307.6400Q603.8800 309.0400 602.9000 310.0200Q601.9200 311 600.3800 311L600.3800 311ZM600.3800 360L586.5200 360Q585.1200 360 584.1400 359.0200Q583.1600 358.0400 583.1600 356.6400L583.1600 356.6400L583.1600 343.3400Q583.1600 341.8000 584.1400 340.8200Q585.1200 339.8400 586.5200 339.8400L586.5200 339.8400L600.3800 339.8400Q601.9200 339.8400 602.9000 340.8200Q603.8800 341.8000 603.8800 343.3400L603.8800 343.3400L603.8800 356.6400Q603.8800 358.0400 602.9000 359.0200Q601.9200 360 600.3800 360L600.3800 360ZM719.8000 360L659.0400 360Q657.6400 360 656.6600 359.0200Q655.6800 358.0400 655.6800 356.6400L655.6800 356.6400L655.6800 265.3600Q655.6800 263.9600 656.6600 262.9800Q657.6400 262 659.0400 262L659.0400 262L672.0600 262Q673.4600 262 674.4400 262.9800Q675.4200 263.9600 675.4200 265.3600L675.4200 265.3600L675.4200 343.3400L719.8000 343.3400Q721.3400 343.3400 722.3200 344.3200Q723.3000 345.3000 723.3000 346.8400L723.3000 346.8400L723.3000 356.6400Q723.3000 358.0400 722.3200 359.0200Q721.3400 360 719.8000 360L719.8000 360ZM750.1800 360L738.5600 360Q737.1600 360 736.1800 359.0200Q735.2000 358.0400 735.2000 356.6400L735.2000 356.6400L735.2000 290.5600Q735.2000 289.1600 736.1800 288.1800Q737.1600 287.2000 738.5600 287.2000L738.5600 287.2000L750.1800 287.2000Q751.7200 287.2000 752.6300 288.1800Q753.5400 289.1600 753.5400 290.5600L753.5400 290.5600L753.5400 356.6400Q753.5400 358.0400 752.6300 359.0200Q751.7200 360 750.1800 360L750.1800 360ZM750.7400 275.1600L738 275.1600Q736.6000 275.1600 735.6200 274.1800Q734.6400 273.2000 734.6400 271.8000L734.6400 271.8000L734.6400 261.7200Q734.6400 260.3200 735.6200 259.3400Q736.6000 258.3600 738 258.3600L738 258.3600L750.7400 258.3600Q752.2800 258.3600 753.2600 259.3400Q754.2400 260.3200 754.2400 261.7200L754.2400 261.7200L754.2400 271.8000Q754.2400 273.2000 753.2600 274.1800Q752.2800 275.1600 750.7400 275.1600L750.7400 275.1600ZM787.2800 360L775.5200 360Q774.1200 360 773.1400 359.0200Q772.1600 358.0400 772.1600 356.6400L772.1600 356.6400L772.1600 290.5600Q772.1600 289.1600 773.1400 288.1800Q774.1200 287.2000 775.5200 287.2000L775.5200 287.2000L786.4400 287.2000Q787.8400 287.2000 788.8200 288.1800Q789.8000 289.1600 789.8000 290.5600L789.8000 290.5600L789.8000 295.3200Q792.7400 291.4000 797.7100 288.6700Q802.6800 285.9400 809.5400 285.8000L809.5400 285.8000Q825.5000 285.5200 831.8000 298.2600L831.8000 298.2600Q835.0200 292.6600 841.1100 289.2300Q847.2000 285.8000 854.6200 285.8000L854.6200 285.8000Q861.9000 285.8000 867.8500 289.1600Q873.8000 292.5200 877.2300 299.3100Q880.6600 306.1000 880.6600 316.4600L880.6600 316.4600L880.6600 356.6400Q880.6600 358.0400 879.6800 359.0200Q878.7000 360 877.3000 360L877.3000 360L865.8200 360Q864.4200 360 863.4400 359.0200Q862.4600 358.0400 862.4600 356.6400L862.4600 356.6400L862.4600 317.5800Q862.4600 311.2800 860.6400 307.5700Q858.8200 303.8600 855.7400 302.3200Q852.6600 300.7800 848.8800 300.7800L848.8800 300.7800Q845.8000 300.7800 842.7200 302.3200Q839.6400 303.8600 837.6800 307.5700Q835.7200 311.2800 835.7200 317.5800L835.7200 317.5800L835.7200 356.6400Q835.7200 358.0400 834.7400 359.0200Q833.7600 360 832.3600 360L832.3600 360L820.8800 360Q819.4800 360 818.5000 359.0200Q817.5200 358.0400 817.5200 356.6400L817.5200 356.6400L817.5200 317.5800Q817.5200 311.2800 815.5600 307.5700Q813.6000 303.8600 810.5200 302.3200Q807.4400 300.7800 803.9400 300.7800L803.9400 300.7800Q800.7200 300.7800 797.6400 302.3900Q794.5600 304 792.6000 307.6400Q790.6400 311.2800 790.6400 317.5800L790.6400 317.5800L790.6400 356.6400Q790.6400 358.0400 789.6600 359.0200Q788.6800 360 787.2800 360L787.2800 360ZM913.4200 360L901.8000 360Q900.4000 360 899.4200 359.0200Q898.4400 358.0400 898.4400 356.6400L898.4400 356.6400L898.4400 290.5600Q898.4400 289.1600 899.4200 288.1800Q900.4000 287.2000 901.8000 287.2000L901.8000 287.2000L913.4200 287.2000Q914.9600 287.2000 915.8700 288.1800Q916.7800 289.1600 916.7800 290.5600L916.7800 290.5600L916.7800 356.6400Q916.7800 358.0400 915.8700 359.0200Q914.9600 360 913.4200 360L913.4200 360ZM913.9800 275.1600L901.2400 275.1600Q899.8400 275.1600 898.8600 274.1800Q897.8800 273.2000 897.8800 271.8000L897.8800 271.8000L897.8800 261.7200Q897.8800 260.3200 898.8600 259.3400Q899.8400 258.3600 901.2400 258.3600L901.2400 258.3600L913.9800 258.3600Q915.5200 258.3600 916.5000 259.3400Q917.4800 260.3200 917.4800 261.7200L917.4800 261.7200L917.4800 271.8000Q917.4800 273.2000 916.5000 274.1800Q915.5200 275.1600 913.9800 275.1600L913.9800 275.1600ZM979.6400 360L968.3000 360Q959.9000 360 954.1600 357.0600Q948.4200 354.1200 945.6200 348.3100Q942.8200 342.5000 942.8200 333.8200L942.8200 333.8200L942.8200 302.0400L931.7600 302.0400Q930.3600 302.0400 929.3800 301.0600Q928.4000 300.0800 928.4000 298.5400L928.4000 298.5400L928.4000 290.5600Q928.4000 289.1600 929.3800 288.1800Q930.3600 287.2000 931.7600 287.2000L931.7600 287.2000L942.8200 287.2000L942.8200 263.9600Q942.8200 262.5600 943.7300 261.5800Q944.6400 260.6000 946.1800 260.6000L946.1800 260.6000L957.5200 260.6000Q958.9200 260.6000 959.9000 261.5800Q960.8800 262.5600 960.8800 263.9600L960.8800 263.9600L960.8800 287.2000L978.3800 287.2000Q979.7800 287.2000 980.7600 288.1800Q981.7400 289.1600 981.7400 290.5600L981.7400 290.5600L981.7400 298.5400Q981.7400 300.0800 980.7600 301.0600Q979.7800 302.0400 978.3800 302.0400L978.3800 302.0400L960.8800 302.0400L960.8800 332.4200Q960.8800 338.1600 962.9100 341.3800Q964.9400 344.6000 969.9800 344.6000L969.9800 344.6000L979.6400 344.6000Q981.0400 344.6000 982.0200 345.5800Q983.0000 346.5600 983.0000 347.9600L983.0000 347.9600L983.0000 356.6400Q983.0000 358.0400 982.0200 359.0200Q981.0400 360 979.6400 360L979.6400 360ZM1016.6000 361.4000L1016.6000 361.4000Q1009.3200 361.4000 1003.4400 358.5300Q997.5600 355.6600 994.1300 350.8300Q990.7000 346 990.7000 339.9800L990.7000 339.9800Q990.7000 330.1800 998.6800 324.3700Q1006.6600 318.5600 1019.5400 316.6000L1019.5400 316.6000L1038.7200 313.8000L1038.7200 310.8600Q1038.7200 304.9800 1035.7800 301.7600Q1032.8400 298.5400 1025.7000 298.5400L1025.7000 298.5400Q1020.6600 298.5400 1017.5100 300.5700Q1014.3600 302.6000 1012.8200 305.9600L1012.8200 305.9600Q1011.7000 307.7800 1009.6000 307.7800L1009.6000 307.7800L998.5400 307.7800Q997 307.7800 996.2300 306.9400Q995.4600 306.1000 995.4600 304.7000L995.4600 304.7000Q995.6000 302.4600 997.3500 299.2400Q999.1000 296.0200 1002.6700 293.0100Q1006.2400 290 1011.9800 287.9000Q1017.7200 285.8000 1025.8400 285.8000L1025.8400 285.8000Q1034.6600 285.8000 1040.7500 287.9700Q1046.8400 290.1400 1050.4800 293.7800Q1054.1200 297.4200 1055.8000 302.3200Q1057.4800 307.2200 1057.4800 312.6800L1057.4800 312.6800L1057.4800 356.6400Q1057.4800 358.0400 1056.5000 359.0200Q1055.5200 360 1054.1200 360L1054.1200 360L1042.7800 360Q1041.2400 360 1040.3300 359.0200Q1039.4200 358.0400 1039.4200 356.6400L1039.4200 356.6400L1039.4200 351.1800Q1037.6000 353.7000 1034.5200 356.0800Q1031.4400 358.4600 1027.0300 359.9300Q1022.6200 361.4000 1016.6000 361.4000ZM1021.3600 348.1000L1021.3600 348.1000Q1026.2600 348.1000 1030.2500 346Q1034.2400 343.9000 1036.5500 339.4900Q1038.8600 335.0800 1038.8600 328.3600L1038.8600 328.3600L1038.8600 325.4200L1024.8600 327.6600Q1016.6000 328.9200 1012.5400 331.7200Q1008.4800 334.5200 1008.4800 338.5800L1008.4800 338.5800Q1008.4800 341.6600 1010.3700 343.8300Q1012.2600 346 1015.2000 347.0500Q1018.1400 348.1000 1021.3600 348.1000ZM1091.0800 360L1078.7600 360Q1077.3600 360 1076.3800 359.0200Q1075.4000 358.0400 1075.4000 356.6400L1075.4000 356.6400L1075.4000 290.5600Q1075.4000 289.1600 1076.3800 288.1800Q1077.3600 287.2000 1078.7600 287.2000L1078.7600 287.2000L1090.2400 287.2000Q1091.6400 287.2000 1092.6200 288.1800Q1093.6000 289.1600 1093.6000 290.5600L1093.6000 290.5600L1093.6000 296.3000Q1097.2400 291.8200 1102.9100 288.8100Q1108.5800 285.8000 1116.9800 285.8000L1116.9800 285.8000Q1125.5200 285.8000 1131.8200 289.6500Q1138.1200 293.5000 1141.5500 300.5000Q1144.9800 307.5000 1144.9800 317.3000L1144.9800 317.3000L1144.9800 356.6400Q1144.9800 358.0400 1144 359.0200Q1143.0200 360 1141.6200 360L1141.6200 360L1129.3000 360Q1127.9000 360 1126.9200 359.0200Q1125.9400 358.0400 1125.9400 356.6400L1125.9400 356.6400L1125.9400 318.1400Q1125.9400 310.0200 1121.9500 305.4000Q1117.9600 300.7800 1110.4000 300.7800L1110.4000 300.7800Q1103.1200 300.7800 1098.7800 305.4000Q1094.4400 310.0200 1094.4400 318.1400L1094.4400 318.1400L1094.4400 356.6400Q1094.4400 358.0400 1093.4600 359.0200Q1092.4800 360 1091.0800 360L1091.0800 360ZM1189.7800 361.4000L1189.7800 361.4000Q1182.5000 361.4000 1176.9700 358.9500Q1171.4400 356.5000 1167.8000 352.0200Q1164.1600 347.5400 1162.2000 341.4500Q1160.2400 335.3600 1159.9600 328.0800L1159.9600 328.0800Q1159.8200 325.5600 1159.8200 323.5300Q1159.8200 321.5000 1159.9600 318.9800L1159.9600 318.9800Q1160.2400 311.9800 1162.1300 305.9600Q1164.0200 299.9400 1167.7300 295.3900Q1171.4400 290.8400 1176.9700 288.3200Q1182.5000 285.8000 1189.7800 285.8000L1189.7800 285.8000Q1197.3400 285.8000 1202.5900 288.3900Q1207.8400 290.9800 1211.3400 295.0400L1211.3400 295.0400L1211.3400 263.9600Q1211.3400 262.5600 1212.2500 261.5800Q1213.1600 260.6000 1214.7000 260.6000L1214.7000 260.6000L1226.6000 260.6000Q1228 260.6000 1228.9800 261.5800Q1229.9600 262.5600 1229.9600 263.9600L1229.9600 263.9600L1229.9600 356.6400Q1229.9600 358.0400 1228.9800 359.0200Q1228 360 1226.6000 360L1226.6000 360L1215.5400 360Q1214 360 1213.0900 359.0200Q1212.1800 358.0400 1212.1800 356.6400L1212.1800 356.6400L1212.1800 351.4600Q1208.6800 355.8000 1203.2900 358.6000Q1197.9000 361.4000 1189.7800 361.4000ZM1194.9600 346.4200L1194.9600 346.4200Q1200.8400 346.4200 1204.3400 343.7600Q1207.8400 341.1000 1209.5200 336.9700Q1211.2000 332.8400 1211.3400 328.5000L1211.3400 328.5000Q1211.4800 325.9800 1211.4800 323.1100Q1211.4800 320.2400 1211.3400 317.7200L1211.3400 317.7200Q1211.2000 313.5200 1209.3800 309.6700Q1207.5600 305.8200 1204.0600 303.3000Q1200.5600 300.7800 1194.9600 300.7800L1194.9600 300.7800Q1189.0800 300.7800 1185.6500 303.3700Q1182.2200 305.9600 1180.6800 310.1600Q1179.1400 314.3600 1178.8600 319.4000L1178.8600 319.4000Q1178.7200 323.6000 1178.8600 327.8000L1178.8600 327.8000Q1179.1400 332.8400 1180.6800 337.0400Q1182.2200 341.2400 1185.6500 343.8300Q1189.0800 346.4200 1194.9600 346.4200ZM1280.7800 361.4000L1280.7800 361.4000Q1269.5800 361.4000 1261.9500 357.4800Q1254.3200 353.5600 1250.3300 346.4200Q1246.3400 339.2800 1245.7800 329.7600L1245.7800 329.7600Q1245.6400 327.2400 1245.6400 323.6000Q1245.6400 319.9600 1245.7800 317.4400L1245.7800 317.4400Q1246.3400 307.7800 1250.4700 300.7100Q1254.6000 293.6400 1262.2300 289.7200Q1269.8600 285.8000 1280.7800 285.8000L1280.7800 285.8000Q1291.7000 285.8000 1299.3300 289.7200Q1306.9600 293.6400 1311.0900 300.7100Q1315.2200 307.7800 1315.7800 317.4400L1315.7800 317.4400Q1315.9200 319.9600 1315.9200 323.6000Q1315.9200 327.2400 1315.7800 329.7600L1315.7800 329.7600Q1315.2200 339.2800 1311.2300 346.4200Q1307.2400 353.5600 1299.6100 357.4800Q1291.9800 361.4000 1280.7800 361.4000ZM1280.7800 347.5400L1280.7800 347.5400Q1288.2000 347.5400 1292.2600 342.8500Q1296.3200 338.1600 1296.7400 329.0600L1296.7400 329.0600Q1296.8800 326.9600 1296.8800 323.6000Q1296.8800 320.2400 1296.7400 318.1400L1296.7400 318.1400Q1296.3200 309.0400 1292.2600 304.3500Q1288.2000 299.6600 1280.7800 299.6600L1280.7800 299.6600Q1273.3600 299.6600 1269.3000 304.3500Q1265.2400 309.0400 1264.8200 318.1400L1264.8200 318.1400Q1264.6800 320.2400 1264.6800 323.6000Q1264.6800 326.9600 1264.8200 329.0600L1264.8200 329.0600Q1265.2400 338.1600 1269.3000 342.8500Q1273.3600 347.5400 1280.7800 347.5400ZM1384.6600 361.4000L1384.6600 361.4000Q1377.3800 361.4000 1371.5000 358.5300Q1365.6200 355.6600 1362.1900 350.8300Q1358.7600 346 1358.7600 339.9800L1358.7600 339.9800Q1358.7600 330.1800 1366.7400 324.3700Q1374.7200 318.5600 1387.6000 316.6000L1387.6000 316.6000L1406.7800 313.8000L1406.7800 310.8600Q1406.7800 304.9800 1403.8400 301.7600Q1400.9000 298.5400 1393.7600 298.5400L1393.7600 298.5400Q1388.7200 298.5400 1385.5700 300.5700Q1382.4200 302.6000 1380.8800 305.9600L1380.8800 305.9600Q1379.7600 307.7800 1377.6600 307.7800L1377.6600 307.7800L1366.6000 307.7800Q1365.0600 307.7800 1364.2900 306.9400Q1363.5200 306.1000 1363.5200 304.7000L1363.5200 304.7000Q1363.6600 302.4600 1365.4100 299.2400Q1367.1600 296.0200 1370.7300 293.0100Q1374.3000 290 1380.0400 287.9000Q1385.7800 285.8000 1393.9000 285.8000L1393.9000 285.8000Q1402.7200 285.8000 1408.8100 287.9700Q1414.9000 290.1400 1418.5400 293.7800Q1422.1800 297.4200 1423.8600 302.3200Q1425.5400 307.2200 1425.5400 312.6800L1425.5400 312.6800L1425.5400 356.6400Q1425.5400 358.0400 1424.5600 359.0200Q1423.5800 360 1422.1800 360L1422.1800 360L1410.8400 360Q1409.3000 360 1408.3900 359.0200Q1407.4800 358.0400 1407.4800 356.6400L1407.4800 356.6400L1407.4800 351.1800Q1405.6600 353.7000 1402.5800 356.0800Q1399.5000 358.4600 1395.0900 359.9300Q1390.6800 361.4000 1384.6600 361.4000ZM1389.4200 348.1000L1389.4200 348.1000Q1394.3200 348.1000 1398.3100 346Q1402.3000 343.9000 1404.6100 339.4900Q1406.9200 335.0800 1406.9200 328.3600L1406.9200 328.3600L1406.9200 325.4200L1392.9200 327.6600Q1384.6600 328.9200 1380.6000 331.7200Q1376.5400 334.5200 1376.5400 338.5800L1376.5400 338.5800Q1376.5400 341.6600 1378.4300 343.8300Q1380.3200 346 1383.2600 347.0500Q1386.2000 348.1000 1389.4200 348.1000ZM199.5600 501.4000L199.5600 501.4000Q191.4400 501.4000 186.0500 498.6000Q180.6600 495.8000 177.1600 491.4600L177.1600 491.4600L177.1600 496.6400Q177.1600 498.0400 176.2500 499.0200Q175.3400 500 173.8000 500L173.8000 500L162.7400 500Q161.3400 500 160.3600 499.0200Q159.3800 498.0400 159.3800 496.6400L159.3800 496.6400L159.3800 403.9600Q159.3800 402.5600 160.3600 401.5800Q161.3400 400.6000 162.7400 400.6000L162.7400 400.6000L174.6400 400.6000Q176.1800 400.6000 177.0900 401.5800Q178 402.5600 178 403.9600L178 403.9600L178 435.0400Q181.5000 430.9800 186.7500 428.3900Q192 425.8000 199.5600 425.8000L199.5600 425.8000Q206.9800 425.8000 212.4400 428.3200Q217.9000 430.8400 221.6100 435.3900Q225.3200 439.9400 227.2800 445.9600Q229.2400 451.9800 229.3800 458.9800L229.3800 458.9800Q229.5200 461.5000 229.5200 463.5300Q229.5200 465.5600 229.3800 468.0800L229.3800 468.0800Q229.1000 475.3600 227.1400 481.4500Q225.1800 487.5400 221.5400 492.0200Q217.9000 496.5000 212.4400 498.9500Q206.9800 501.4000 199.5600 501.4000ZM194.3800 486.4200L194.3800 486.4200Q200.4000 486.4200 203.7600 483.8300Q207.1200 481.2400 208.6600 477.0400Q210.2000 472.8400 210.4800 467.8000L210.4800 467.8000Q210.6200 463.6000 210.4800 459.4000L210.4800 459.4000Q210.2000 454.3600 208.6600 450.1600Q207.1200 445.9600 203.7600 443.3700Q200.4000 440.7800 194.3800 440.7800L194.3800 440.7800Q188.7800 440.7800 185.2800 443.3000Q181.7800 445.8200 179.9600 449.6700Q178.1400 453.5200 178 457.7200L178 457.7200Q177.8600 460.2400 177.8600 463.1100Q177.8600 465.9800 178 468.5000L178 468.5000Q178.2800 472.8400 179.8900 476.9700Q181.5000 481.1000 185.0700 483.7600Q188.6400 486.4200 194.3800 486.4200ZM272.0800 501.4000L272.0800 501.4000Q263.5400 501.4000 257.3100 497.5500Q251.0800 493.7000 247.7200 486.6300Q244.3600 479.5600 244.3600 469.9000L244.3600 469.9000L244.3600 430.5600Q244.3600 429.1600 245.3400 428.1800Q246.3200 427.2000 247.7200 427.2000L247.7200 427.2000L260.0400 427.2000Q261.5800 427.2000 262.4900 428.1800Q263.4000 429.1600 263.4000 430.5600L263.4000 430.5600L263.4000 469.0600Q263.4000 486.4200 278.6600 486.4200L278.6600 486.4200Q285.9400 486.4200 290.2100 481.8000Q294.4800 477.1800 294.4800 469.0600L294.4800 469.0600L294.4800 430.5600Q294.4800 429.1600 295.4600 428.1800Q296.4400 427.2000 297.8400 427.2000L297.8400 427.2000L310.1600 427.2000Q311.5600 427.2000 312.5400 428.1800Q313.5200 429.1600 313.5200 430.5600L313.5200 430.5600L313.5200 496.6400Q313.5200 498.0400 312.5400 499.0200Q311.5600 500 310.1600 500L310.1600 500L298.8200 500Q297.2800 500 296.3700 499.0200Q295.4600 498.0400 295.4600 496.6400L295.4600 496.6400L295.4600 490.9000Q291.6800 495.8000 286.0800 498.6000Q280.4800 501.4000 272.0800 501.4000ZM359.5800 501.4000L359.5800 501.4000Q351.1800 501.4000 345.2300 499.4400Q339.2800 497.4800 335.5000 494.5400Q331.7200 491.6000 329.9000 488.6600Q328.0800 485.7200 327.9400 483.7600L327.9400 483.7600Q327.8000 482.2200 328.8500 481.3100Q329.9000 480.4000 331.1600 480.4000L331.1600 480.4000L342.2200 480.4000Q342.7800 480.4000 343.2000 480.5400Q343.6200 480.6800 344.3200 481.3800L344.3200 481.3800Q346.1400 482.9200 348.1700 484.6000Q350.2000 486.2800 353 487.4700Q355.8000 488.6600 360 488.6600L360 488.6600Q365.4600 488.6600 369.1700 486.4900Q372.8800 484.3200 372.8800 480.2600L372.8800 480.2600Q372.8800 477.3200 371.2700 475.5000Q369.6600 473.6800 365.3200 472.2100Q360.9800 470.7400 353 469.0600L353 469.0600Q345.1600 467.2400 339.9800 464.4400Q334.8000 461.6400 332.2800 457.4400Q329.7600 453.2400 329.7600 447.6400L329.7600 447.6400Q329.7600 442.1800 333.0500 437.2100Q336.3400 432.2400 342.8500 429.0200Q349.3600 425.8000 359.0200 425.8000L359.0200 425.8000Q366.5800 425.8000 372.1800 427.6900Q377.7800 429.5800 381.4900 432.3800Q385.2000 435.1800 387.1600 438.0500Q389.1200 440.9200 389.2600 443.0200L389.2600 443.0200Q389.4000 444.5600 388.4200 445.4700Q387.4400 446.3800 386.1800 446.3800L386.1800 446.3800L375.8200 446.3800Q375.1200 446.3800 374.5600 446.1000Q374 445.8200 373.4400 445.4000L373.4400 445.4000Q371.9000 444 370.0800 442.3900Q368.2600 440.7800 365.6700 439.6600Q363.0800 438.5400 358.8800 438.5400L358.8800 438.5400Q353.5600 438.5400 350.7600 440.8500Q347.9600 443.1600 347.9600 446.6600L347.9600 446.6600Q347.9600 449.0400 349.2900 450.7900Q350.6200 452.5400 354.6800 454.0800Q358.7400 455.6200 367 457.3000L367 457.3000Q376.3800 458.9800 381.9100 462.2700Q387.4400 465.5600 389.7500 469.8300Q392.0600 474.1000 392.0600 479.2800L392.0600 479.2800Q392.0600 485.5800 388.3500 490.6200Q384.6400 495.6600 377.4300 498.5300Q370.2200 501.4000 359.5800 501.4000ZM437.9800 501.4000L437.9800 501.4000Q427.9000 501.4000 420.2700 497.6200Q412.6400 493.8400 408.3700 486.6300Q404.1000 479.4200 403.6800 469.2000L403.6800 469.2000Q403.5400 467.1000 403.5400 463.6700Q403.5400 460.2400 403.6800 458L403.6800 458Q404.1000 447.7800 408.3700 440.5700Q412.6400 433.3600 420.2700 429.5800Q427.9000 425.8000 437.9800 425.8000L437.9800 425.8000Q446.9400 425.8000 453.2400 428.2500Q459.5400 430.7000 463.6000 434.5500Q467.6600 438.4000 469.6900 442.5300Q471.7200 446.6600 471.8600 450.0200L471.8600 450.0200Q472 451.5600 470.9500 452.4700Q469.9000 453.3800 468.5000 453.3800L468.5000 453.3800L456.1800 453.3800Q454.7800 453.3800 454.0100 452.6800Q453.2400 451.9800 452.5400 450.5800L452.5400 450.5800Q450.4400 444.9800 447.0100 442.6700Q443.5800 440.3600 438.2600 440.3600L438.2600 440.3600Q431.2600 440.3600 427.1300 444.7700Q423 449.1800 422.7200 458.7000L422.7200 458.7000Q422.4400 464.0200 422.7200 468.5000L422.7200 468.5000Q423 478.1600 427.1300 482.5000Q431.2600 486.8400 438.2600 486.8400L438.2600 486.8400Q443.7200 486.8400 447.0800 484.5300Q450.4400 482.2200 452.5400 476.6200L452.5400 476.6200Q453.2400 475.2200 454.0100 474.5200Q454.7800 473.8200 456.1800 473.8200L456.1800 473.8200L468.5000 473.8200Q469.9000 473.8200 470.9500 474.7300Q472 475.6400 471.8600 477.1800L471.8600 477.1800Q471.7200 479.7000 470.5300 482.8500Q469.3400 486 466.7500 489.2900Q464.1600 492.5800 460.2400 495.3100Q456.3200 498.0400 450.7900 499.7200Q445.2600 501.4000 437.9800 501.4000ZM507.5600 501.4000L507.5600 501.4000Q500.2800 501.4000 494.4000 498.5300Q488.5200 495.6600 485.0900 490.8300Q481.6600 486 481.6600 479.9800L481.6600 479.9800Q481.6600 470.1800 489.6400 464.3700Q497.6200 458.5600 510.5000 456.6000L510.5000 456.6000L529.6800 453.8000L529.6800 450.8600Q529.6800 444.9800 526.7400 441.7600Q523.8000 438.5400 516.6600 438.5400L516.6600 438.5400Q511.6200 438.5400 508.4700 440.5700Q505.3200 442.6000 503.7800 445.9600L503.7800 445.9600Q502.6600 447.7800 500.5600 447.7800L500.5600 447.7800L489.5000 447.7800Q487.9600 447.7800 487.1900 446.9400Q486.4200 446.1000 486.4200 444.7000L486.4200 444.7000Q486.5600 442.4600 488.3100 439.2400Q490.0600 436.0200 493.6300 433.0100Q497.2000 430 502.9400 427.9000Q508.6800 425.8000 516.8000 425.8000L516.8000 425.8000Q525.6200 425.8000 531.7100 427.9700Q537.8000 430.1400 541.4400 433.7800Q545.0800 437.4200 546.7600 442.3200Q548.4400 447.2200 548.4400 452.6800L548.4400 452.6800L548.4400 496.6400Q548.4400 498.0400 547.4600 499.0200Q546.4800 500 545.0800 500L545.0800 500L533.7400 500Q532.2000 500 531.2900 499.0200Q530.3800 498.0400 530.3800 496.6400L530.3800 496.6400L530.3800 491.1800Q528.5600 493.7000 525.4800 496.0800Q522.4000 498.4600 517.9900 499.9300Q513.5800 501.4000 507.5600 501.4000ZM512.3200 488.1000L512.3200 488.1000Q517.2200 488.1000 521.2100 486Q525.2000 483.9000 527.5100 479.4900Q529.8200 475.0800 529.8200 468.3600L529.8200 468.3600L529.8200 465.4200L515.8200 467.6600Q507.5600 468.9200 503.5000 471.7200Q499.4400 474.5200 499.4400 478.5800L499.4400 478.5800Q499.4400 481.6600 501.3300 483.8300Q503.2200 486 506.1600 487.0500Q509.1000 488.1000 512.3200 488.1000ZM625.4400 501.4000L625.4400 501.4000Q618.1600 501.4000 612.6300 498.9500Q607.1000 496.5000 603.4600 492.0200Q599.8200 487.5400 597.8600 481.4500Q595.9000 475.3600 595.6200 468.0800L595.6200 468.0800Q595.4800 465.5600 595.4800 463.5300Q595.4800 461.5000 595.6200 458.9800L595.6200 458.9800Q595.9000 451.9800 597.7900 445.9600Q599.6800 439.9400 603.3900 435.3900Q607.1000 430.8400 612.6300 428.3200Q618.1600 425.8000 625.4400 425.8000L625.4400 425.8000Q633.0000 425.8000 638.2500 428.3900Q643.5000 430.9800 647.0000 435.0400L647.0000 435.0400L647.0000 403.9600Q647.0000 402.5600 647.9100 401.5800Q648.8200 400.6000 650.3600 400.6000L650.3600 400.6000L662.2600 400.6000Q663.6600 400.6000 664.6400 401.5800Q665.6200 402.5600 665.6200 403.9600L665.6200 403.9600L665.6200 496.6400Q665.6200 498.0400 664.6400 499.0200Q663.6600 500 662.2600 500L662.2600 500L651.2000 500Q649.6600 500 648.7500 499.0200Q647.8400 498.0400 647.8400 496.6400L647.8400 496.6400L647.8400 491.4600Q644.3400 495.8000 638.9500 498.6000Q633.5600 501.4000 625.4400 501.4000ZM630.6200 486.4200L630.6200 486.4200Q636.5000 486.4200 640.0000 483.7600Q643.5000 481.1000 645.1800 476.9700Q646.8600 472.8400 647.0000 468.5000L647.0000 468.5000Q647.1400 465.9800 647.1400 463.1100Q647.1400 460.2400 647.0000 457.7200L647.0000 457.7200Q646.8600 453.5200 645.0400 449.6700Q643.2200 445.8200 639.7200 443.3000Q636.2200 440.7800 630.6200 440.7800L630.6200 440.7800Q624.7400 440.7800 621.3100 443.3700Q617.8800 445.9600 616.3400 450.1600Q614.8000 454.3600 614.5200 459.4000L614.5200 459.4000Q614.3800 463.6000 614.5200 467.8000L614.5200 467.8000Q614.8000 472.8400 616.3400 477.0400Q617.8800 481.2400 621.3100 483.8300Q624.7400 486.4200 630.6200 486.4200ZM715.6000 501.4000L715.6000 501.4000Q700.0600 501.4000 690.9600 492.4400Q681.8600 483.4800 681.1600 466.9600L681.1600 466.9600Q681.0200 465.5600 681.0200 463.3900Q681.0200 461.2200 681.1600 459.9600L681.1600 459.9600Q681.7200 449.3200 685.9900 441.6900Q690.2600 434.0600 697.8200 429.9300Q705.3800 425.8000 715.6000 425.8000L715.6000 425.8000Q726.9400 425.8000 734.6400 430.4900Q742.3400 435.1800 746.2600 443.5100Q750.1800 451.8400 750.1800 462.7600L750.1800 462.7600L750.1800 465.7000Q750.1800 467.1000 749.2000 468.0800Q748.2200 469.0600 746.6800 469.0600L746.6800 469.0600L700.2000 469.0600Q700.2000 469.0600 700.2000 469.4800Q700.2000 469.9000 700.2000 470.1800L700.2000 470.1800Q700.3400 475.0800 702.0900 479.2100Q703.8400 483.3400 707.2700 485.8600Q710.7000 488.3800 715.4600 488.3800L715.4600 488.3800Q719.3800 488.3800 722.0400 487.1900Q724.7000 486 726.3800 484.4600Q728.0600 482.9200 728.7600 481.9400L728.7600 481.9400Q730.0200 480.2600 730.7900 479.9100Q731.5600 479.5600 733.1000 479.5600L733.1000 479.5600L745.1400 479.5600Q746.5400 479.5600 747.4500 480.4000Q748.3600 481.2400 748.2200 482.5000L748.2200 482.5000Q748.0800 484.7400 745.9100 487.9600Q743.7400 491.1800 739.6800 494.2600Q735.6200 497.3400 729.5300 499.3700Q723.4400 501.4000 715.6000 501.4000ZM700.2000 456.8800L700.2000 457.3000L731.1400 457.3000L731.1400 456.8800Q731.1400 451.4200 729.3200 447.2900Q727.5000 443.1600 724.0000 440.8500Q720.5000 438.5400 715.6000 438.5400L715.6000 438.5400Q710.7000 438.5400 707.2000 440.8500Q703.7000 443.1600 701.9500 447.2900Q700.2000 451.4200 700.2000 456.8800L700.2000 456.8800ZM824.1000 501.4000L824.1000 501.4000Q816.8200 501.4000 811.2900 498.9500Q805.7600 496.5000 802.1200 492.0200Q798.4800 487.5400 796.5200 481.4500Q794.5600 475.3600 794.2800 468.0800L794.2800 468.0800Q794.1400 465.5600 794.1400 463.5300Q794.1400 461.5000 794.2800 458.9800L794.2800 458.9800Q794.5600 451.9800 796.4500 445.9600Q798.3400 439.9400 802.0500 435.3900Q805.7600 430.8400 811.2900 428.3200Q816.8200 425.8000 824.1000 425.8000L824.1000 425.8000Q831.6600 425.8000 836.9100 428.3900Q842.1600 430.9800 845.6600 435.0400L845.6600 435.0400L845.6600 403.9600Q845.6600 402.5600 846.5700 401.5800Q847.4800 400.6000 849.0200 400.6000L849.0200 400.6000L860.9200 400.6000Q862.3200 400.6000 863.3000 401.5800Q864.2800 402.5600 864.2800 403.9600L864.2800 403.9600L864.2800 496.6400Q864.2800 498.0400 863.3000 499.0200Q862.3200 500 860.9200 500L860.9200 500L849.8600 500Q848.3200 500 847.4100 499.0200Q846.5000 498.0400 846.5000 496.6400L846.5000 496.6400L846.5000 491.4600Q843.0000 495.8000 837.6100 498.6000Q832.2200 501.4000 824.1000 501.4000ZM829.2800 486.4200L829.2800 486.4200Q835.1600 486.4200 838.6600 483.7600Q842.1600 481.1000 843.8400 476.9700Q845.5200 472.8400 845.6600 468.5000L845.6600 468.5000Q845.8000 465.9800 845.8000 463.1100Q845.8000 460.2400 845.6600 457.7200L845.6600 457.7200Q845.5200 453.5200 843.7000 449.6700Q841.8800 445.8200 838.3800 443.3000Q834.8800 440.7800 829.2800 440.7800L829.2800 440.7800Q823.4000 440.7800 819.9700 443.3700Q816.5400 445.9600 815.0000 450.1600Q813.4600 454.3600 813.1800 459.4000L813.1800 459.4000Q813.0400 463.6000 813.1800 467.8000L813.1800 467.8000Q813.4600 472.8400 815.0000 477.0400Q816.5400 481.2400 819.9700 483.8300Q823.4000 486.4200 829.2800 486.4200ZM904.0400 501.4000L904.0400 501.4000Q896.7600 501.4000 890.8800 498.5300Q885.0000 495.6600 881.5700 490.8300Q878.1400 486 878.1400 479.9800L878.1400 479.9800Q878.1400 470.1800 886.1200 464.3700Q894.1000 458.5600 906.9800 456.6000L906.9800 456.6000L926.1600 453.8000L926.1600 450.8600Q926.1600 444.9800 923.2200 441.7600Q920.2800 438.5400 913.1400 438.5400L913.1400 438.5400Q908.1000 438.5400 904.9500 440.5700Q901.8000 442.6000 900.2600 445.9600L900.2600 445.9600Q899.1400 447.7800 897.0400 447.7800L897.0400 447.7800L885.9800 447.7800Q884.4400 447.7800 883.6700 446.9400Q882.9000 446.1000 882.9000 444.7000L882.9000 444.7000Q883.0400 442.4600 884.7900 439.2400Q886.5400 436.0200 890.1100 433.0100Q893.6800 430 899.4200 427.9000Q905.1600 425.8000 913.2800 425.8000L913.2800 425.8000Q922.1000 425.8000 928.1900 427.9700Q934.2800 430.1400 937.9200 433.7800Q941.5600 437.4200 943.2400 442.3200Q944.9200 447.2200 944.9200 452.6800L944.9200 452.6800L944.9200 496.6400Q944.9200 498.0400 943.9400 499.0200Q942.9600 500 941.5600 500L941.5600 500L930.2200 500Q928.6800 500 927.7700 499.0200Q926.8600 498.0400 926.8600 496.6400L926.8600 496.6400L926.8600 491.1800Q925.0400 493.7000 921.9600 496.0800Q918.8800 498.4600 914.4700 499.9300Q910.0600 501.4000 904.0400 501.4000ZM908.8000 488.1000L908.8000 488.1000Q913.7000 488.1000 917.6900 486Q921.6800 483.9000 923.9900 479.4900Q926.3000 475.0800 926.3000 468.3600L926.3000 468.3600L926.3000 465.4200L912.3000 467.6600Q904.0400 468.9200 899.9800 471.7200Q895.9200 474.5200 895.9200 478.5800L895.9200 478.5800Q895.9200 481.6600 897.8100 483.8300Q899.7000 486 902.6400 487.0500Q905.5800 488.1000 908.8000 488.1000ZM989.8600 501.4000L989.8600 501.4000Q982.5800 501.4000 977.0500 498.9500Q971.5200 496.5000 967.8800 492.0200Q964.2400 487.5400 962.2800 481.4500Q960.3200 475.3600 960.0400 468.0800L960.0400 468.0800Q959.9000 465.5600 959.9000 463.5300Q959.9000 461.5000 960.0400 458.9800L960.0400 458.9800Q960.3200 451.9800 962.2100 445.9600Q964.1000 439.9400 967.8100 435.3900Q971.5200 430.8400 977.0500 428.3200Q982.5800 425.8000 989.8600 425.8000L989.8600 425.8000Q997.4200 425.8000 1002.6700 428.3900Q1007.9200 430.9800 1011.4200 435.0400L1011.4200 435.0400L1011.4200 403.9600Q1011.4200 402.5600 1012.3300 401.5800Q1013.2400 400.6000 1014.7800 400.6000L1014.7800 400.6000L1026.6800 400.6000Q1028.0800 400.6000 1029.0600 401.5800Q1030.0400 402.5600 1030.0400 403.9600L1030.0400 403.9600L1030.0400 496.6400Q1030.0400 498.0400 1029.0600 499.0200Q1028.0800 500 1026.6800 500L1026.6800 500L1015.6200 500Q1014.0800 500 1013.1700 499.0200Q1012.2600 498.0400 1012.2600 496.6400L1012.2600 496.6400L1012.2600 491.4600Q1008.7600 495.8000 1003.3700 498.6000Q997.9800 501.4000 989.8600 501.4000ZM995.0400 486.4200L995.0400 486.4200Q1000.9200 486.4200 1004.4200 483.7600Q1007.9200 481.1000 1009.6000 476.9700Q1011.2800 472.8400 1011.4200 468.5000L1011.4200 468.5000Q1011.5600 465.9800 1011.5600 463.1100Q1011.5600 460.2400 1011.4200 457.7200L1011.4200 457.7200Q1011.2800 453.5200 1009.4600 449.6700Q1007.6400 445.8200 1004.1400 443.3000Q1000.6400 440.7800 995.0400 440.7800L995.0400 440.7800Q989.1600 440.7800 985.7300 443.3700Q982.3000 445.9600 980.7600 450.1600Q979.2200 454.3600 978.9400 459.4000L978.9400 459.4000Q978.8000 463.6000 978.9400 467.8000L978.9400 467.8000Q979.2200 472.8400 980.7600 477.0400Q982.3000 481.2400 985.7300 483.8300Q989.1600 486.4200 995.0400 486.4200ZM1080.8600 501.4000L1080.8600 501.4000Q1069.6600 501.4000 1062.0300 497.4800Q1054.4000 493.5600 1050.4100 486.4200Q1046.4200 479.2800 1045.8600 469.7600L1045.8600 469.7600Q1045.7200 467.2400 1045.7200 463.6000Q1045.7200 459.9600 1045.8600 457.4400L1045.8600 457.4400Q1046.4200 447.7800 1050.5500 440.7100Q1054.6800 433.6400 1062.3100 429.7200Q1069.9400 425.8000 1080.8600 425.8000L1080.8600 425.8000Q1091.7800 425.8000 1099.4100 429.7200Q1107.0400 433.6400 1111.1700 440.7100Q1115.3000 447.7800 1115.8600 457.4400L1115.8600 457.4400Q1116.0000 459.9600 1116.0000 463.6000Q1116.0000 467.2400 1115.8600 469.7600L1115.8600 469.7600Q1115.3000 479.2800 1111.3100 486.4200Q1107.3200 493.5600 1099.6900 497.4800Q1092.0600 501.4000 1080.8600 501.4000ZM1080.8600 487.5400L1080.8600 487.5400Q1088.2800 487.5400 1092.3400 482.8500Q1096.4000 478.1600 1096.8200 469.0600L1096.8200 469.0600Q1096.9600 466.9600 1096.9600 463.6000Q1096.9600 460.2400 1096.8200 458.1400L1096.8200 458.1400Q1096.4000 449.0400 1092.3400 444.3500Q1088.2800 439.6600 1080.8600 439.6600L1080.8600 439.6600Q1073.4400 439.6600 1069.3800 444.3500Q1065.3200 449.0400 1064.9000 458.1400L1064.9000 458.1400Q1064.7600 460.2400 1064.7600 463.6000Q1064.7600 466.9600 1064.9000 469.0600L1064.9000 469.0600Q1065.3200 478.1600 1069.3800 482.8500Q1073.4400 487.5400 1080.8600 487.5400ZM1159.1200 501.4000L1159.1200 501.4000Q1150.7200 501.4000 1144.7700 499.4400Q1138.8200 497.4800 1135.0400 494.5400Q1131.2600 491.6000 1129.4400 488.6600Q1127.6200 485.7200 1127.4800 483.7600L1127.4800 483.7600Q1127.3400 482.2200 1128.3900 481.3100Q1129.4400 480.4000 1130.7000 480.4000L1130.7000 480.4000L1141.7600 480.4000Q1142.3200 480.4000 1142.7400 480.5400Q1143.1600 480.6800 1143.8600 481.3800L1143.8600 481.3800Q1145.6800 482.9200 1147.7100 484.6000Q1149.7400 486.2800 1152.5400 487.4700Q1155.3400 488.6600 1159.5400 488.6600L1159.5400 488.6600Q1165.0000 488.6600 1168.7100 486.4900Q1172.4200 484.3200 1172.4200 480.2600L1172.4200 480.2600Q1172.4200 477.3200 1170.8100 475.5000Q1169.2000 473.6800 1164.8600 472.2100Q1160.5200 470.7400 1152.5400 469.0600L1152.5400 469.0600Q1144.7000 467.2400 1139.5200 464.4400Q1134.3400 461.6400 1131.8200 457.4400Q1129.3000 453.2400 1129.3000 447.6400L1129.3000 447.6400Q1129.3000 442.1800 1132.5900 437.2100Q1135.8800 432.2400 1142.3900 429.0200Q1148.9000 425.8000 1158.5600 425.8000L1158.5600 425.8000Q1166.1200 425.8000 1171.7200 427.6900Q1177.3200 429.5800 1181.0300 432.3800Q1184.7400 435.1800 1186.7000 438.0500Q1188.6600 440.9200 1188.8000 443.0200L1188.8000 443.0200Q1188.9400 444.5600 1187.9600 445.4700Q1186.9800 446.3800 1185.7200 446.3800L1185.7200 446.3800L1175.3600 446.3800Q1174.6600 446.3800 1174.1000 446.1000Q1173.5400 445.8200 1172.9800 445.4000L1172.9800 445.4000Q1171.4400 444 1169.6200 442.3900Q1167.8000 440.7800 1165.2100 439.6600Q1162.6200 438.5400 1158.4200 438.5400L1158.4200 438.5400Q1153.1000 438.5400 1150.3000 440.8500Q1147.5000 443.1600 1147.5000 446.6600L1147.5000 446.6600Q1147.5000 449.0400 1148.8300 450.7900Q1150.1600 452.5400 1154.2200 454.0800Q1158.2800 455.6200 1166.5400 457.3000L1166.5400 457.3000Q1175.9200 458.9800 1181.4500 462.2700Q1186.9800 465.5600 1189.2900 469.8300Q1191.6000 474.1000 1191.6000 479.2800L1191.6000 479.2800Q1191.6000 485.5800 1187.8900 490.6200Q1184.1800 495.6600 1176.9700 498.5300Q1169.7600 501.4000 1159.1200 501.4000ZM1253.7600 500L1241.4400 500Q1240.0400 500 1239.0600 499.0200Q1238.0800 498.0400 1238.0800 496.6400L1238.0800 496.6400L1238.0800 430.5600Q1238.0800 429.1600 1239.0600 428.1800Q1240.0400 427.2000 1241.4400 427.2000L1241.4400 427.2000L1252.9200 427.2000Q1254.3200 427.2000 1255.3000 428.1800Q1256.2800 429.1600 1256.2800 430.5600L1256.2800 430.5600L1256.2800 436.3000Q1259.9200 431.8200 1265.5900 428.8100Q1271.2600 425.8000 1279.6600 425.8000L1279.6600 425.8000Q1288.2000 425.8000 1294.5000 429.6500Q1300.8000 433.5000 1304.2300 440.5000Q1307.6600 447.5000 1307.6600 457.3000L1307.6600 457.3000L1307.6600 496.6400Q1307.6600 498.0400 1306.6800 499.0200Q1305.7000 500 1304.3000 500L1304.3000 500L1291.9800 500Q1290.5800 500 1289.6000 499.0200Q1288.6200 498.0400 1288.6200 496.6400L1288.6200 496.6400L1288.6200 458.1400Q1288.6200 450.0200 1284.6300 445.4000Q1280.6400 440.7800 1273.0800 440.7800L1273.0800 440.7800Q1265.8000 440.7800 1261.4600 445.4000Q1257.1200 450.0200 1257.1200 458.1400L1257.1200 458.1400L1257.1200 496.6400Q1257.1200 498.0400 1256.1400 499.0200Q1255.1600 500 1253.7600 500L1253.7600 500ZM1357.6400 501.4000L1357.6400 501.4000Q1346.4400 501.4000 1338.8100 497.4800Q1331.1800 493.5600 1327.1900 486.4200Q1323.2000 479.2800 1322.6400 469.7600L1322.6400 469.7600Q1322.5000 467.2400 1322.5000 463.6000Q1322.5000 459.9600 1322.6400 457.4400L1322.6400 457.4400Q1323.2000 447.7800 1327.3300 440.7100Q1331.4600 433.6400 1339.0900 429.7200Q1346.7200 425.8000 1357.6400 425.8000L1357.6400 425.8000Q1368.5600 425.8000 1376.1900 429.7200Q1383.8200 433.6400 1387.9500 440.7100Q1392.0800 447.7800 1392.6400 457.4400L1392.6400 457.4400Q1392.7800 459.9600 1392.7800 463.6000Q1392.7800 467.2400 1392.6400 469.7600L1392.6400 469.7600Q1392.0800 479.2800 1388.0900 486.4200Q1384.1000 493.5600 1376.4700 497.4800Q1368.8400 501.4000 1357.6400 501.4000ZM1357.6400 487.5400L1357.6400 487.5400Q1365.0600 487.5400 1369.1200 482.8500Q1373.1800 478.1600 1373.6000 469.0600L1373.6000 469.0600Q1373.7400 466.9600 1373.7400 463.6000Q1373.7400 460.2400 1373.6000 458.1400L1373.6000 458.1400Q1373.1800 449.0400 1369.1200 444.3500Q1365.0600 439.6600 1357.6400 439.6600L1357.6400 439.6600Q1350.2200 439.6600 1346.1600 444.3500Q1342.1000 449.0400 1341.6800 458.1400L1341.6800 458.1400Q1341.5400 460.2400 1341.5400 463.6000Q1341.5400 466.9600 1341.6800 469.0600L1341.6800 469.0600Q1342.1000 478.1600 1346.1600 482.8500Q1350.2200 487.5400 1357.6400 487.5400ZM199.5600 641.4000L199.5600 641.4000Q191.4400 641.4000 186.0500 638.6000Q180.6600 635.8000 177.1600 631.4600L177.1600 631.4600L177.1600 636.6400Q177.1600 638.0400 176.2500 639.0200Q175.3400 640 173.8000 640L173.8000 640L162.7400 640Q161.3400 640 160.3600 639.0200Q159.3800 638.0400 159.3800 636.6400L159.3800 636.6400L159.3800 543.9600Q159.3800 542.5600 160.3600 541.5800Q161.3400 540.6000 162.7400 540.6000L162.7400 540.6000L174.6400 540.6000Q176.1800 540.6000 177.0900 541.5800Q178 542.5600 178 543.9600L178 543.9600L178 575.0400Q181.5000 570.9800 186.7500 568.3900Q192 565.8000 199.5600 565.8000L199.5600 565.8000Q206.9800 565.8000 212.4400 568.3200Q217.9000 570.8400 221.6100 575.3900Q225.3200 579.9400 227.2800 585.9600Q229.2400 591.9800 229.3800 598.9800L229.3800 598.9800Q229.5200 601.5000 229.5200 603.5300Q229.5200 605.5600 229.3800 608.0800L229.3800 608.0800Q229.1000 615.3600 227.1400 621.4500Q225.1800 627.5400 221.5400 632.0200Q217.9000 636.5000 212.4400 638.9500Q206.9800 641.4000 199.5600 641.4000ZM194.3800 626.4200L194.3800 626.4200Q200.4000 626.4200 203.7600 623.8300Q207.1200 621.2400 208.6600 617.0400Q210.2000 612.8400 210.4800 607.8000L210.4800 607.8000Q210.6200 603.6000 210.4800 599.4000L210.4800 599.4000Q210.2000 594.3600 208.6600 590.1600Q207.1200 585.9600 203.7600 583.3700Q200.4000 580.7800 194.3800 580.7800L194.3800 580.7800Q188.7800 580.7800 185.2800 583.3000Q181.7800 585.8200 179.9600 589.6700Q178.1400 593.5200 178 597.7200L178 597.7200Q177.8600 600.2400 177.8600 603.1100Q177.8600 605.9800 178 608.5000L178 608.5000Q178.2800 612.8400 179.8900 616.9700Q181.5000 621.1000 185.0700 623.7600Q188.6400 626.4200 194.3800 626.4200ZM266.2000 641.4000L266.2000 641.4000Q258.9200 641.4000 253.0400 638.5300Q247.1600 635.6600 243.7300 630.8300Q240.3000 626 240.3000 619.9800L240.3000 619.9800Q240.3000 610.1800 248.2800 604.3700Q256.2600 598.5600 269.1400 596.6000L269.1400 596.6000L288.3200 593.8000L288.3200 590.8600Q288.3200 584.9800 285.3800 581.7600Q282.4400 578.5400 275.3000 578.5400L275.3000 578.5400Q270.2600 578.5400 267.1100 580.5700Q263.9600 582.6000 262.4200 585.9600L262.4200 585.9600Q261.3000 587.7800 259.2000 587.7800L259.2000 587.7800L248.1400 587.7800Q246.6000 587.7800 245.8300 586.9400Q245.0600 586.1000 245.0600 584.7000L245.0600 584.7000Q245.2000 582.4600 246.9500 579.2400Q248.7000 576.0200 252.2700 573.0100Q255.8400 570 261.5800 567.9000Q267.3200 565.8000 275.4400 565.8000L275.4400 565.8000Q284.2600 565.8000 290.3500 567.9700Q296.4400 570.1400 300.0800 573.7800Q303.7200 577.4200 305.4000 582.3200Q307.0800 587.2200 307.0800 592.6800L307.0800 592.6800L307.0800 636.6400Q307.0800 638.0400 306.1000 639.0200Q305.1200 640 303.7200 640L303.7200 640L292.3800 640Q290.8400 640 289.9300 639.0200Q289.0200 638.0400 289.0200 636.6400L289.0200 636.6400L289.0200 631.1800Q287.2000 633.7000 284.1200 636.0800Q281.0400 638.4600 276.6300 639.9300Q272.2200 641.4000 266.2000 641.4000ZM270.9600 628.1000L270.9600 628.1000Q275.8600 628.1000 279.8500 626Q283.8400 623.9000 286.1500 619.4900Q288.4600 615.0800 288.4600 608.3600L288.4600 608.3600L288.4600 605.4200L274.4600 607.6600Q266.2000 608.9200 262.1400 611.7200Q258.0800 614.5200 258.0800 618.5800L258.0800 618.5800Q258.0800 621.6600 259.9700 623.8300Q261.8600 626 264.8000 627.0500Q267.7400 628.1000 270.9600 628.1000ZM340.6800 640L328.3600 640Q326.9600 640 325.9800 639.0200Q325 638.0400 325 636.6400L325 636.6400L325 570.5600Q325 569.1600 325.9800 568.1800Q326.9600 567.2000 328.3600 567.2000L328.3600 567.2000L339.8400 567.2000Q341.2400 567.2000 342.2200 568.1800Q343.2000 569.1600 343.2000 570.5600L343.2000 570.5600L343.2000 576.3000Q346.8400 571.8200 352.5100 568.8100Q358.1800 565.8000 366.5800 565.8000L366.5800 565.8000Q375.1200 565.8000 381.4200 569.6500Q387.7200 573.5000 391.1500 580.5000Q394.5800 587.5000 394.5800 597.3000L394.5800 597.3000L394.5800 636.6400Q394.5800 638.0400 393.6000 639.0200Q392.6200 640 391.2200 640L391.2200 640L378.9000 640Q377.5000 640 376.5200 639.0200Q375.5400 638.0400 375.5400 636.6400L375.5400 636.6400L375.5400 598.1400Q375.5400 590.0200 371.5500 585.4000Q367.5600 580.7800 360 580.7800L360 580.7800Q352.7200 580.7800 348.3800 585.4000Q344.0400 590.0200 344.0400 598.1400L344.0400 598.1400L344.0400 636.6400Q344.0400 638.0400 343.0600 639.0200Q342.0800 640 340.6800 640L340.6800 640ZM443.8600 641.4000L443.8600 641.4000Q433.7800 641.4000 426.1500 637.6200Q418.5200 633.8400 414.2500 626.6300Q409.9800 619.4200 409.5600 609.2000L409.5600 609.2000Q409.4200 607.1000 409.4200 603.6700Q409.4200 600.2400 409.5600 598L409.5600 598Q409.9800 587.7800 414.2500 580.5700Q418.5200 573.3600 426.1500 569.5800Q433.7800 565.8000 443.8600 565.8000L443.8600 565.8000Q452.8200 565.8000 459.1200 568.2500Q465.4200 570.7000 469.4800 574.5500Q473.5400 578.4000 475.5700 582.5300Q477.6000 586.6600 477.7400 590.0200L477.7400 590.0200Q477.8800 591.5600 476.8300 592.4700Q475.7800 593.3800 474.3800 593.3800L474.3800 593.3800L462.0600 593.3800Q460.6600 593.3800 459.8900 592.6800Q459.1200 591.9800 458.4200 590.5800L458.4200 590.5800Q456.3200 584.9800 452.8900 582.6700Q449.4600 580.3600 444.1400 580.3600L444.1400 580.3600Q437.1400 580.3600 433.0100 584.7700Q428.8800 589.1800 428.6000 598.7000L428.6000 598.7000Q428.3200 604.0200 428.6000 608.5000L428.6000 608.5000Q428.8800 618.1600 433.0100 622.5000Q437.1400 626.8400 444.1400 626.8400L444.1400 626.8400Q449.6000 626.8400 452.9600 624.5300Q456.3200 622.2200 458.4200 616.6200L458.4200 616.6200Q459.1200 615.2200 459.8900 614.5200Q460.6600 613.8200 462.0600 613.8200L462.0600 613.8200L474.3800 613.8200Q475.7800 613.8200 476.8300 614.7300Q477.8800 615.6400 477.7400 617.1800L477.7400 617.1800Q477.6000 619.7000 476.4100 622.8500Q475.2200 626 472.6300 629.2900Q470.0400 632.5800 466.1200 635.3100Q462.2000 638.0400 456.6700 639.7200Q451.1400 641.4000 443.8600 641.4000ZM524.5000 641.4000L524.5000 641.4000Q513.3000 641.4000 505.6700 637.4800Q498.0400 633.5600 494.0500 626.4200Q490.0600 619.2800 489.5000 609.7600L489.5000 609.7600Q489.3600 607.2400 489.3600 603.6000Q489.3600 599.9600 489.5000 597.4400L489.5000 597.4400Q490.0600 587.7800 494.1900 580.7100Q498.3200 573.6400 505.9500 569.7200Q513.5800 565.8000 524.5000 565.8000L524.5000 565.8000Q535.4200 565.8000 543.0500 569.7200Q550.6800 573.6400 554.8100 580.7100Q558.9400 587.7800 559.5000 597.4400L559.5000 597.4400Q559.6400 599.9600 559.6400 603.6000Q559.6400 607.2400 559.5000 609.7600L559.5000 609.7600Q558.9400 619.2800 554.9500 626.4200Q550.9600 633.5600 543.3300 637.4800Q535.7000 641.4000 524.5000 641.4000ZM524.5000 627.5400L524.5000 627.5400Q531.9200 627.5400 535.9800 622.8500Q540.0400 618.1600 540.4600 609.0600L540.4600 609.0600Q540.6000 606.9600 540.6000 603.6000Q540.6000 600.2400 540.4600 598.1400L540.4600 598.1400Q540.0400 589.0400 535.9800 584.3500Q531.9200 579.6600 524.5000 579.6600L524.5000 579.6600Q517.0800 579.6600 513.0200 584.3500Q508.9600 589.0400 508.5400 598.1400L508.5400 598.1400Q508.4000 600.2400 508.4000 603.6000Q508.4000 606.9600 508.5400 609.0600L508.5400 609.0600Q508.9600 618.1600 513.0200 622.8500Q517.0800 627.5400 524.5000 627.5400ZM634.2600 641.4000L634.2600 641.4000Q626.9800 641.4000 621.4500 638.9500Q615.9200 636.5000 612.2800 632.0200Q608.6400 627.5400 606.6800 621.4500Q604.7200 615.3600 604.4400 608.0800L604.4400 608.0800Q604.3000 605.5600 604.3000 603.5300Q604.3000 601.5000 604.4400 598.9800L604.4400 598.9800Q604.7200 591.9800 606.6100 585.9600Q608.5000 579.9400 612.2100 575.3900Q615.9200 570.8400 621.4500 568.3200Q626.9800 565.8000 634.2600 565.8000L634.2600 565.8000Q641.8200 565.8000 647.0700 568.3900Q652.3200 570.9800 655.8200 575.0400L655.8200 575.0400L655.8200 543.9600Q655.8200 542.5600 656.7300 541.5800Q657.6400 540.6000 659.1800 540.6000L659.1800 540.6000L671.0800 540.6000Q672.4800 540.6000 673.4600 541.5800Q674.4400 542.5600 674.4400 543.9600L674.4400 543.9600L674.4400 636.6400Q674.4400 638.0400 673.4600 639.0200Q672.4800 640 671.0800 640L671.0800 640L660.0200 640Q658.4800 640 657.5700 639.0200Q656.6600 638.0400 656.6600 636.6400L656.6600 636.6400L656.6600 631.4600Q653.1600 635.8000 647.7700 638.6000Q642.3800 641.4000 634.2600 641.4000ZM639.4400 626.4200L639.4400 626.4200Q645.3200 626.4200 648.8200 623.7600Q652.3200 621.1000 654 616.9700Q655.6800 612.8400 655.8200 608.5000L655.8200 608.5000Q655.9600 605.9800 655.9600 603.1100Q655.9600 600.2400 655.8200 597.7200L655.8200 597.7200Q655.6800 593.5200 653.8600 589.6700Q652.0400 585.8200 648.5400 583.3000Q645.0400 580.7800 639.4400 580.7800L639.4400 580.7800Q633.5600 580.7800 630.1300 583.3700Q626.7000 585.9600 625.1600 590.1600Q623.6200 594.3600 623.3400 599.4000L623.3400 599.4000Q623.2000 603.6000 623.3400 607.8000L623.3400 607.8000Q623.6200 612.8400 625.1600 617.0400Q626.7000 621.2400 630.1300 623.8300Q633.5600 626.4200 639.4400 626.4200ZM724.4200 641.4000L724.4200 641.4000Q708.8800 641.4000 699.7800 632.4400Q690.6800 623.4800 689.9800 606.9600L689.9800 606.9600Q689.8400 605.5600 689.8400 603.3900Q689.8400 601.2200 689.9800 599.9600L689.9800 599.9600Q690.5400 589.3200 694.8100 581.6900Q699.0800 574.0600 706.6400 569.9300Q714.2000 565.8000 724.4200 565.8000L724.4200 565.8000Q735.7600 565.8000 743.4600 570.4900Q751.1600 575.1800 755.0800 583.5100Q759 591.8400 759 602.7600L759 602.7600L759 605.7000Q759 607.1000 758.0200 608.0800Q757.0400 609.0600 755.5000 609.0600L755.5000 609.0600L709.0200 609.0600Q709.0200 609.0600 709.0200 609.4800Q709.0200 609.9000 709.0200 610.1800L709.0200 610.1800Q709.1600 615.0800 710.9100 619.2100Q712.6600 623.3400 716.0900 625.8600Q719.5200 628.3800 724.2800 628.3800L724.2800 628.3800Q728.2000 628.3800 730.8600 627.1900Q733.5200 626 735.2000 624.4600Q736.8800 622.9200 737.5800 621.9400L737.5800 621.9400Q738.8400 620.2600 739.6100 619.9100Q740.3800 619.5600 741.9200 619.5600L741.9200 619.5600L753.9600 619.5600Q755.3600 619.5600 756.2700 620.4000Q757.1800 621.2400 757.0400 622.5000L757.0400 622.5000Q756.9000 624.7400 754.7300 627.9600Q752.5600 631.1800 748.5000 634.2600Q744.4400 637.3400 738.3500 639.3700Q732.2600 641.4000 724.4200 641.4000ZM709.0200 596.8800L709.0200 597.3000L739.9600 597.3000L739.9600 596.8800Q739.9600 591.4200 738.1400 587.2900Q736.3200 583.1600 732.8200 580.8500Q729.3200 578.5400 724.4200 578.5400L724.4200 578.5400Q719.5200 578.5400 716.0200 580.8500Q712.5200 583.1600 710.7700 587.2900Q709.0200 591.4200 709.0200 596.8800L709.0200 596.8800ZM832.9200 641.4000L832.9200 641.4000Q825.6400 641.4000 820.1100 638.9500Q814.5800 636.5000 810.9400 632.0200Q807.3000 627.5400 805.3400 621.4500Q803.3800 615.3600 803.1000 608.0800L803.1000 608.0800Q802.9600 605.5600 802.9600 603.5300Q802.9600 601.5000 803.1000 598.9800L803.1000 598.9800Q803.3800 591.9800 805.2700 585.9600Q807.1600 579.9400 810.8700 575.3900Q814.5800 570.8400 820.1100 568.3200Q825.6400 565.8000 832.9200 565.8000L832.9200 565.8000Q840.4800 565.8000 845.7300 568.3900Q850.9800 570.9800 854.4800 575.0400L854.4800 575.0400L854.4800 543.9600Q854.4800 542.5600 855.3900 541.5800Q856.3000 540.6000 857.8400 540.6000L857.8400 540.6000L869.7400 540.6000Q871.1400 540.6000 872.1200 541.5800Q873.1000 542.5600 873.1000 543.9600L873.1000 543.9600L873.1000 636.6400Q873.1000 638.0400 872.1200 639.0200Q871.1400 640 869.7400 640L869.7400 640L858.6800 640Q857.1400 640 856.2300 639.0200Q855.3200 638.0400 855.3200 636.6400L855.3200 636.6400L855.3200 631.4600Q851.8200 635.8000 846.4300 638.6000Q841.0400 641.4000 832.9200 641.4000ZM838.1000 626.4200L838.1000 626.4200Q843.9800 626.4200 847.4800 623.7600Q850.9800 621.1000 852.6600 616.9700Q854.3400 612.8400 854.4800 608.5000L854.4800 608.5000Q854.6200 605.9800 854.6200 603.1100Q854.6200 600.2400 854.4800 597.7200L854.4800 597.7200Q854.3400 593.5200 852.5200 589.6700Q850.7000 585.8200 847.2000 583.3000Q843.7000 580.7800 838.1000 580.7800L838.1000 580.7800Q832.2200 580.7800 828.7900 583.3700Q825.3600 585.9600 823.8200 590.1600Q822.2800 594.3600 822.0000 599.4000L822.0000 599.4000Q821.8600 603.6000 822.0000 607.8000L822.0000 607.8000Q822.2800 612.8400 823.8200 617.0400Q825.3600 621.2400 828.7900 623.8300Q832.2200 626.4200 838.1000 626.4200ZM912.8600 641.4000L912.8600 641.4000Q905.5800 641.4000 899.7000 638.5300Q893.8200 635.6600 890.3900 630.8300Q886.9600 626 886.9600 619.9800L886.9600 619.9800Q886.9600 610.1800 894.9400 604.3700Q902.9200 598.5600 915.8000 596.6000L915.8000 596.6000L934.9800 593.8000L934.9800 590.8600Q934.9800 584.9800 932.0400 581.7600Q929.1000 578.5400 921.9600 578.5400L921.9600 578.5400Q916.9200 578.5400 913.7700 580.5700Q910.6200 582.6000 909.0800 585.9600L909.0800 585.9600Q907.9600 587.7800 905.8600 587.7800L905.8600 587.7800L894.8000 587.7800Q893.2600 587.7800 892.4900 586.9400Q891.7200 586.1000 891.7200 584.7000L891.7200 584.7000Q891.8600 582.4600 893.6100 579.2400Q895.3600 576.0200 898.9300 573.0100Q902.5000 570 908.2400 567.9000Q913.9800 565.8000 922.1000 565.8000L922.1000 565.8000Q930.9200 565.8000 937.0100 567.9700Q943.1000 570.1400 946.7400 573.7800Q950.3800 577.4200 952.0600 582.3200Q953.7400 587.2200 953.7400 592.6800L953.7400 592.6800L953.7400 636.6400Q953.7400 638.0400 952.7600 639.0200Q951.7800 640 950.3800 640L950.3800 640L939.0400 640Q937.5000 640 936.5900 639.0200Q935.6800 638.0400 935.6800 636.6400L935.6800 636.6400L935.6800 631.1800Q933.8600 633.7000 930.7800 636.0800Q927.7000 638.4600 923.2900 639.9300Q918.8800 641.4000 912.8600 641.4000ZM917.6200 628.1000L917.6200 628.1000Q922.5200 628.1000 926.5100 626Q930.5000 623.9000 932.8100 619.4900Q935.1200 615.0800 935.1200 608.3600L935.1200 608.3600L935.1200 605.4200L921.1200 607.6600Q912.8600 608.9200 908.8000 611.7200Q904.7400 614.5200 904.7400 618.5800L904.7400 618.5800Q904.7400 621.6600 906.6300 623.8300Q908.5200 626 911.4600 627.0500Q914.4000 628.1000 917.6200 628.1000ZM998.6800 641.4000L998.6800 641.4000Q991.4000 641.4000 985.8700 638.9500Q980.3400 636.5000 976.7000 632.0200Q973.0600 627.5400 971.1000 621.4500Q969.1400 615.3600 968.8600 608.0800L968.8600 608.0800Q968.7200 605.5600 968.7200 603.5300Q968.7200 601.5000 968.8600 598.9800L968.8600 598.9800Q969.1400 591.9800 971.0300 585.9600Q972.9200 579.9400 976.6300 575.3900Q980.3400 570.8400 985.8700 568.3200Q991.4000 565.8000 998.6800 565.8000L998.6800 565.8000Q1006.2400 565.8000 1011.4900 568.3900Q1016.7400 570.9800 1020.2400 575.0400L1020.2400 575.0400L1020.2400 543.9600Q1020.2400 542.5600 1021.1500 541.5800Q1022.0600 540.6000 1023.6000 540.6000L1023.6000 540.6000L1035.5000 540.6000Q1036.9000 540.6000 1037.8800 541.5800Q1038.8600 542.5600 1038.8600 543.9600L1038.8600 543.9600L1038.8600 636.6400Q1038.8600 638.0400 1037.8800 639.0200Q1036.9000 640 1035.5000 640L1035.5000 640L1024.4400 640Q1022.9000 640 1021.9900 639.0200Q1021.0800 638.0400 1021.0800 636.6400L1021.0800 636.6400L1021.0800 631.4600Q1017.5800 635.8000 1012.1900 638.6000Q1006.8000 641.4000 998.6800 641.4000ZM1003.8600 626.4200L1003.8600 626.4200Q1009.7400 626.4200 1013.2400 623.7600Q1016.7400 621.1000 1018.4200 616.9700Q1020.1000 612.8400 1020.2400 608.5000L1020.2400 608.5000Q1020.3800 605.9800 1020.3800 603.1100Q1020.3800 600.2400 1020.2400 597.7200L1020.2400 597.7200Q1020.1000 593.5200 1018.2800 589.6700Q1016.4600 585.8200 1012.9600 583.3000Q1009.4600 580.7800 1003.8600 580.7800L1003.8600 580.7800Q997.9800 580.7800 994.5500 583.3700Q991.1200 585.9600 989.5800 590.1600Q988.0400 594.3600 987.7600 599.4000L987.7600 599.4000Q987.6200 603.6000 987.7600 607.8000L987.7600 607.8000Q988.0400 612.8400 989.5800 617.0400Q991.1200 621.2400 994.5500 623.8300Q997.9800 626.4200 1003.8600 626.4200ZM1089.6800 641.4000L1089.6800 641.4000Q1078.4800 641.4000 1070.8500 637.4800Q1063.2200 633.5600 1059.2300 626.4200Q1055.2400 619.2800 1054.6800 609.7600L1054.6800 609.7600Q1054.5400 607.2400 1054.5400 603.6000Q1054.5400 599.9600 1054.6800 597.4400L1054.6800 597.4400Q1055.2400 587.7800 1059.3700 580.7100Q1063.5000 573.6400 1071.1300 569.7200Q1078.7600 565.8000 1089.6800 565.8000L1089.6800 565.8000Q1100.6000 565.8000 1108.2300 569.7200Q1115.8600 573.6400 1119.9900 580.7100Q1124.1200 587.7800 1124.6800 597.4400L1124.6800 597.4400Q1124.8200 599.9600 1124.8200 603.6000Q1124.8200 607.2400 1124.6800 609.7600L1124.6800 609.7600Q1124.1200 619.2800 1120.1300 626.4200Q1116.1400 633.5600 1108.5100 637.4800Q1100.8800 641.4000 1089.6800 641.4000ZM1089.6800 627.5400L1089.6800 627.5400Q1097.1000 627.5400 1101.1600 622.8500Q1105.2200 618.1600 1105.6400 609.0600L1105.6400 609.0600Q1105.7800 606.9600 1105.7800 603.6000Q1105.7800 600.2400 1105.6400 598.1400L1105.6400 598.1400Q1105.2200 589.0400 1101.1600 584.3500Q1097.1000 579.6600 1089.6800 579.6600L1089.6800 579.6600Q1082.2600 579.6600 1078.2000 584.3500Q1074.1400 589.0400 1073.7200 598.1400L1073.7200 598.1400Q1073.5800 600.2400 1073.5800 603.6000Q1073.5800 606.9600 1073.7200 609.0600L1073.7200 609.0600Q1074.1400 618.1600 1078.2000 622.8500Q1082.2600 627.5400 1089.6800 627.5400ZM1167.9400 641.4000L1167.9400 641.4000Q1159.5400 641.4000 1153.5900 639.4400Q1147.6400 637.4800 1143.8600 634.5400Q1140.0800 631.6000 1138.2600 628.6600Q1136.4400 625.7200 1136.3000 623.7600L1136.3000 623.7600Q1136.1600 622.2200 1137.2100 621.3100Q1138.2600 620.4000 1139.5200 620.4000L1139.5200 620.4000L1150.5800 620.4000Q1151.1400 620.4000 1151.5600 620.5400Q1151.9800 620.6800 1152.6800 621.3800L1152.6800 621.3800Q1154.5000 622.9200 1156.5300 624.6000Q1158.5600 626.2800 1161.3600 627.4700Q1164.1600 628.6600 1168.3600 628.6600L1168.3600 628.6600Q1173.8200 628.6600 1177.5300 626.4900Q1181.2400 624.3200 1181.2400 620.2600L1181.2400 620.2600Q1181.2400 617.3200 1179.6300 615.5000Q1178.0200 613.6800 1173.6800 612.2100Q1169.3400 610.7400 1161.3600 609.0600L1161.3600 609.0600Q1153.5200 607.2400 1148.3400 604.4400Q1143.1600 601.6400 1140.6400 597.4400Q1138.1200 593.2400 1138.1200 587.6400L1138.1200 587.6400Q1138.1200 582.1800 1141.4100 577.2100Q1144.7000 572.2400 1151.2100 569.0200Q1157.7200 565.8000 1167.3800 565.8000L1167.3800 565.8000Q1174.9400 565.8000 1180.5400 567.6900Q1186.1400 569.5800 1189.8500 572.3800Q1193.5600 575.1800 1195.5200 578.0500Q1197.4800 580.9200 1197.6200 583.0200L1197.6200 583.0200Q1197.7600 584.5600 1196.7800 585.4700Q1195.8000 586.3800 1194.5400 586.3800L1194.5400 586.3800L1184.1800 586.3800Q1183.4800 586.3800 1182.9200 586.1000Q1182.3600 585.8200 1181.8000 585.4000L1181.8000 585.4000Q1180.2600 584 1178.4400 582.3900Q1176.6200 580.7800 1174.0300 579.6600Q1171.4400 578.5400 1167.2400 578.5400L1167.2400 578.5400Q1161.9200 578.5400 1159.1200 580.8500Q1156.3200 583.1600 1156.3200 586.6600L1156.3200 586.6600Q1156.3200 589.0400 1157.6500 590.7900Q1158.9800 592.5400 1163.0400 594.0800Q1167.1000 595.6200 1175.3600 597.3000L1175.3600 597.3000Q1184.7400 598.9800 1190.2700 602.2700Q1195.8000 605.5600 1198.1100 609.8300Q1200.4200 614.1000 1200.4200 619.2800L1200.4200 619.2800Q1200.4200 625.5800 1196.7100 630.6200Q1193.0000 635.6600 1185.7900 638.5300Q1178.5800 641.4000 1167.9400 641.4000ZM186.2600 781.4000L186.2600 781.4000Q177.7200 781.4000 171.4900 777.5500Q165.2600 773.7000 161.9000 766.6300Q158.5400 759.5600 158.5400 749.9000L158.5400 749.9000L158.5400 710.5600Q158.5400 709.1600 159.5200 708.1800Q160.5000 707.2000 161.9000 707.2000L161.9000 707.2000L174.2200 707.2000Q175.7600 707.2000 176.6700 708.1800Q177.5800 709.1600 177.5800 710.5600L177.5800 710.5600L177.5800 749.0600Q177.5800 766.4200 192.8400 766.4200L192.8400 766.4200Q200.1200 766.4200 204.3900 761.8000Q208.6600 757.1800 208.6600 749.0600L208.6600 749.0600L208.6600 710.5600Q208.6600 709.1600 209.6400 708.1800Q210.6200 707.2000 212.0200 707.2000L212.0200 707.2000L224.3400 707.2000Q225.7400 707.2000 226.7200 708.1800Q227.7000 709.1600 227.7000 710.5600L227.7000 710.5600L227.7000 776.6400Q227.7000 778.0400 226.7200 779.0200Q225.7400 780 224.3400 780L224.3400 780L213 780Q211.4600 780 210.5500 779.0200Q209.6400 778.0400 209.6400 776.6400L209.6400 776.6400L209.6400 770.9000Q205.8600 775.8000 200.2600 778.6000Q194.6600 781.4000 186.2600 781.4000ZM290.4200 780L279.0800 780Q270.6800 780 264.9400 777.0600Q259.2000 774.1200 256.4000 768.3100Q253.6000 762.5000 253.6000 753.8200L253.6000 753.8200L253.6000 722.0400L242.5400 722.0400Q241.1400 722.0400 240.1600 721.0600Q239.1800 720.0800 239.1800 718.5400L239.1800 718.5400L239.1800 710.5600Q239.1800 709.1600 240.1600 708.1800Q241.1400 707.2000 242.5400 707.2000L242.5400 707.2000L253.6000 707.2000L253.6000 683.9600Q253.6000 682.5600 254.5100 681.5800Q255.4200 680.6000 256.9600 680.6000L256.9600 680.6000L268.3000 680.6000Q269.7000 680.6000 270.6800 681.5800Q271.6600 682.5600 271.6600 683.9600L271.6600 683.9600L271.6600 707.2000L289.1600 707.2000Q290.5600 707.2000 291.5400 708.1800Q292.5200 709.1600 292.5200 710.5600L292.5200 710.5600L292.5200 718.5400Q292.5200 720.0800 291.5400 721.0600Q290.5600 722.0400 289.1600 722.0400L289.1600 722.0400L271.6600 722.0400L271.6600 752.4200Q271.6600 758.1600 273.6900 761.3800Q275.7200 764.6000 280.7600 764.6000L280.7600 764.6000L290.4200 764.6000Q291.8200 764.6000 292.8000 765.5800Q293.7800 766.5600 293.7800 767.9600L293.7800 767.9600L293.7800 776.6400Q293.7800 778.0400 292.8000 779.0200Q291.8200 780 290.4200 780L290.4200 780ZM321.2200 780L309.6000 780Q308.2000 780 307.2200 779.0200Q306.2400 778.0400 306.2400 776.6400L306.2400 776.6400L306.2400 710.5600Q306.2400 709.1600 307.2200 708.1800Q308.2000 707.2000 309.6000 707.2000L309.6000 707.2000L321.2200 707.2000Q322.7600 707.2000 323.6700 708.1800Q324.5800 709.1600 324.5800 710.5600L324.5800 710.5600L324.5800 776.6400Q324.5800 778.0400 323.6700 779.0200Q322.7600 780 321.2200 780L321.2200 780ZM321.7800 695.1600L309.0400 695.1600Q307.6400 695.1600 306.6600 694.1800Q305.6800 693.2000 305.6800 691.8000L305.6800 691.8000L305.6800 681.7200Q305.6800 680.3200 306.6600 679.3400Q307.6400 678.3600 309.0400 678.3600L309.0400 678.3600L321.7800 678.3600Q323.3200 678.3600 324.3000 679.3400Q325.2800 680.3200 325.2800 681.7200L325.2800 681.7200L325.2800 691.8000Q325.2800 693.2000 324.3000 694.1800Q323.3200 695.1600 321.7800 695.1600L321.7800 695.1600ZM358.3200 780L346.7000 780Q345.3000 780 344.3200 779.0200Q343.3400 778.0400 343.3400 776.6400L343.3400 776.6400L343.3400 683.9600Q343.3400 682.5600 344.3200 681.5800Q345.3000 680.6000 346.7000 680.6000L346.7000 680.6000L358.3200 680.6000Q359.7200 680.6000 360.7000 681.5800Q361.6800 682.5600 361.6800 683.9600L361.6800 683.9600L361.6800 776.6400Q361.6800 778.0400 360.7000 779.0200Q359.7200 780 358.3200 780L358.3200 780ZM395.2800 780L383.6600 780Q382.2600 780 381.2800 779.0200Q380.3000 778.0400 380.3000 776.6400L380.3000 776.6400L380.3000 710.5600Q380.3000 709.1600 381.2800 708.1800Q382.2600 707.2000 383.6600 707.2000L383.6600 707.2000L395.2800 707.2000Q396.8200 707.2000 397.7300 708.1800Q398.6400 709.1600 398.6400 710.5600L398.6400 710.5600L398.6400 776.6400Q398.6400 778.0400 397.7300 779.0200Q396.8200 780 395.2800 780L395.2800 780ZM395.8400 695.1600L383.1000 695.1600Q381.7000 695.1600 380.7200 694.1800Q379.7400 693.2000 379.7400 691.8000L379.7400 691.8000L379.7400 681.7200Q379.7400 680.3200 380.7200 679.3400Q381.7000 678.3600 383.1000 678.3600L383.1000 678.3600L395.8400 678.3600Q397.3800 678.3600 398.3600 679.3400Q399.3400 680.3200 399.3400 681.7200L399.3400 681.7200L399.3400 691.8000Q399.3400 693.2000 398.3600 694.1800Q397.3800 695.1600 395.8400 695.1600L395.8400 695.1600ZM474.1000 780L416.9800 780Q415.4400 780 414.5300 779.0200Q413.6200 778.0400 413.6200 776.6400L413.6200 776.6400L413.6200 768.6600Q413.6200 767.4000 414.2500 766.2100Q414.8800 765.0200 415.5800 764.1800L415.5800 764.1800L451.4200 721.7600L418.1000 721.7600Q416.7000 721.7600 415.7200 720.8500Q414.7400 719.9400 414.7400 718.4000L414.7400 718.4000L414.7400 710.5600Q414.7400 709.1600 415.7200 708.1800Q416.7000 707.2000 418.1000 707.2000L418.1000 707.2000L471.1600 707.2000Q472.7000 707.2000 473.6100 708.1800Q474.5200 709.1600 474.5200 710.5600L474.5200 710.5600L474.5200 719.1000Q474.5200 720.3600 473.9600 721.3400Q473.4000 722.3200 472.5600 723.3000L472.5600 723.3000L437.5600 765.4400L474.1000 765.4400Q475.5000 765.4400 476.4800 766.3500Q477.4600 767.2600 477.4600 768.8000L477.4600 768.8000L477.4600 776.6400Q477.4600 778.0400 476.4800 779.0200Q475.5000 780 474.1000 780L474.1000 780ZM512.7400 781.4000L512.7400 781.4000Q505.4600 781.4000 499.5800 778.5300Q493.7000 775.6600 490.2700 770.8300Q486.8400 766 486.8400 759.9800L486.8400 759.9800Q486.8400 750.1800 494.8200 744.3700Q502.8000 738.5600 515.6800 736.6000L515.6800 736.6000L534.8600 733.8000L534.8600 730.8600Q534.8600 724.9800 531.9200 721.7600Q528.9800 718.5400 521.8400 718.5400L521.8400 718.5400Q516.8000 718.5400 513.6500 720.5700Q510.5000 722.6000 508.9600 725.9600L508.9600 725.9600Q507.8400 727.7800 505.7400 727.7800L505.7400 727.7800L494.6800 727.7800Q493.1400 727.7800 492.3700 726.9400Q491.6000 726.1000 491.6000 724.7000L491.6000 724.7000Q491.7400 722.4600 493.4900 719.2400Q495.2400 716.0200 498.8100 713.0100Q502.3800 710 508.1200 707.9000Q513.8600 705.8000 521.9800 705.8000L521.9800 705.8000Q530.8000 705.8000 536.8900 707.9700Q542.9800 710.1400 546.6200 713.7800Q550.2600 717.4200 551.9400 722.3200Q553.6200 727.2200 553.6200 732.6800L553.6200 732.6800L553.6200 776.6400Q553.6200 778.0400 552.6400 779.0200Q551.6600 780 550.2600 780L550.2600 780L538.9200 780Q537.3800 780 536.4700 779.0200Q535.5600 778.0400 535.5600 776.6400L535.5600 776.6400L535.5600 771.1800Q533.7400 773.7000 530.6600 776.0800Q527.5800 778.4600 523.1700 779.9300Q518.7600 781.4000 512.7400 781.4000ZM517.5000 768.1000L517.5000 768.1000Q522.4000 768.1000 526.3900 766Q530.3800 763.9000 532.6900 759.4900Q535 755.0800 535 748.3600L535 748.3600L535 745.4200L521 747.6600Q512.7400 748.9200 508.6800 751.7200Q504.6200 754.5200 504.6200 758.5800L504.6200 758.5800Q504.6200 761.6600 506.5100 763.8300Q508.4000 766 511.3400 767.0500Q514.2800 768.1000 517.5000 768.1000ZM587.2200 780L574.9000 780Q573.5000 780 572.5200 779.0200Q571.5400 778.0400 571.5400 776.6400L571.5400 776.6400L571.5400 710.5600Q571.5400 709.1600 572.5200 708.1800Q573.5000 707.2000 574.9000 707.2000L574.9000 707.2000L586.3800 707.2000Q587.7800 707.2000 588.7600 708.1800Q589.7400 709.1600 589.7400 710.5600L589.7400 710.5600L589.7400 716.3000Q593.3800 711.8200 599.0500 708.8100Q604.7200 705.8000 613.1200 705.8000L613.1200 705.8000Q621.6600 705.8000 627.9600 709.6500Q634.2600 713.5000 637.6900 720.5000Q641.1200 727.5000 641.1200 737.3000L641.1200 737.3000L641.1200 776.6400Q641.1200 778.0400 640.1400 779.0200Q639.1600 780 637.7600 780L637.7600 780L625.4400 780Q624.0400 780 623.0600 779.0200Q622.0800 778.0400 622.0800 776.6400L622.0800 776.6400L622.0800 738.1400Q622.0800 730.0200 618.0900 725.4000Q614.1000 720.7800 606.5400 720.7800L606.5400 720.7800Q599.2600 720.7800 594.9200 725.4000Q590.5800 730.0200 590.5800 738.1400L590.5800 738.1400L590.5800 776.6400Q590.5800 778.0400 589.6000 779.0200Q588.6200 780 587.2200 780L587.2200 780ZM685.9200 781.4000L685.9200 781.4000Q678.6400 781.4000 673.1100 778.9500Q667.5800 776.5000 663.9400 772.0200Q660.3000 767.5400 658.3400 761.4500Q656.3800 755.3600 656.1000 748.0800L656.1000 748.0800Q655.9600 745.5600 655.9600 743.5300Q655.9600 741.5000 656.1000 738.9800L656.1000 738.9800Q656.3800 731.9800 658.2700 725.9600Q660.1600 719.9400 663.8700 715.3900Q667.5800 710.8400 673.1100 708.3200Q678.6400 705.8000 685.9200 705.8000L685.9200 705.8000Q693.4800 705.8000 698.7300 708.3900Q703.9800 710.9800 707.4800 715.0400L707.4800 715.0400L707.4800 683.9600Q707.4800 682.5600 708.3900 681.5800Q709.3000 680.6000 710.8400 680.6000L710.8400 680.6000L722.7400 680.6000Q724.1400 680.6000 725.1200 681.5800Q726.1000 682.5600 726.1000 683.9600L726.1000 683.9600L726.1000 776.6400Q726.1000 778.0400 725.1200 779.0200Q724.1400 780 722.7400 780L722.7400 780L711.6800 780Q710.1400 780 709.2300 779.0200Q708.3200 778.0400 708.3200 776.6400L708.3200 776.6400L708.3200 771.4600Q704.8200 775.8000 699.4300 778.6000Q694.0400 781.4000 685.9200 781.4000ZM691.1000 766.4200L691.1000 766.4200Q696.9800 766.4200 700.4800 763.7600Q703.9800 761.1000 705.6600 756.9700Q707.3400 752.8400 707.4800 748.5000L707.4800 748.5000Q707.6200 745.9800 707.6200 743.1100Q707.6200 740.2400 707.4800 737.7200L707.4800 737.7200Q707.3400 733.5200 705.5200 729.6700Q703.7000 725.8200 700.2000 723.3000Q696.7000 720.7800 691.1000 720.7800L691.1000 720.7800Q685.2200 720.7800 681.7900 723.3700Q678.3600 725.9600 676.8200 730.1600Q675.2800 734.3600 675.0000 739.4000L675.0000 739.4000Q674.8600 743.6000 675.0000 747.8000L675.0000 747.8000Q675.2800 752.8400 676.8200 757.0400Q678.3600 761.2400 681.7900 763.8300Q685.2200 766.4200 691.1000 766.4200ZM776.9200 781.4000L776.9200 781.4000Q765.7200 781.4000 758.0900 777.4800Q750.4600 773.5600 746.4700 766.4200Q742.4800 759.2800 741.9200 749.7600L741.9200 749.7600Q741.7800 747.2400 741.7800 743.6000Q741.7800 739.9600 741.9200 737.4400L741.9200 737.4400Q742.4800 727.7800 746.6100 720.7100Q750.7400 713.6400 758.3700 709.7200Q766.0000 705.8000 776.9200 705.8000L776.9200 705.8000Q787.8400 705.8000 795.4700 709.7200Q803.1000 713.6400 807.2300 720.7100Q811.3600 727.7800 811.9200 737.4400L811.9200 737.4400Q812.0600 739.9600 812.0600 743.6000Q812.0600 747.2400 811.9200 749.7600L811.9200 749.7600Q811.3600 759.2800 807.3700 766.4200Q803.3800 773.5600 795.7500 777.4800Q788.1200 781.4000 776.9200 781.4000ZM776.9200 767.5400L776.9200 767.5400Q784.3400 767.5400 788.4000 762.8500Q792.4600 758.1600 792.8800 749.0600L792.8800 749.0600Q793.0200 746.9600 793.0200 743.6000Q793.0200 740.2400 792.8800 738.1400L792.8800 738.1400Q792.4600 729.0400 788.4000 724.3500Q784.3400 719.6600 776.9200 719.6600L776.9200 719.6600Q769.5000 719.6600 765.4400 724.3500Q761.3800 729.0400 760.9600 738.1400L760.9600 738.1400Q760.8200 740.2400 760.8200 743.6000Q760.8200 746.9600 760.9600 749.0600L760.9600 749.0600Q761.3800 758.1600 765.4400 762.8500Q769.5000 767.5400 776.9200 767.5400ZM891.8600 781.4000L891.8600 781.4000Q880.6600 781.4000 873.0300 777.4800Q865.4000 773.5600 861.4100 766.4200Q857.4200 759.2800 856.8600 749.7600L856.8600 749.7600Q856.7200 747.2400 856.7200 743.6000Q856.7200 739.9600 856.8600 737.4400L856.8600 737.4400Q857.4200 727.7800 861.5500 720.7100Q865.6800 713.6400 873.3100 709.7200Q880.9400 705.8000 891.8600 705.8000L891.8600 705.8000Q902.7800 705.8000 910.4100 709.7200Q918.0400 713.6400 922.1700 720.7100Q926.3000 727.7800 926.8600 737.4400L926.8600 737.4400Q927.0000 739.9600 927.0000 743.6000Q927.0000 747.2400 926.8600 749.7600L926.8600 749.7600Q926.3000 759.2800 922.3100 766.4200Q918.3200 773.5600 910.6900 777.4800Q903.0600 781.4000 891.8600 781.4000ZM891.8600 767.5400L891.8600 767.5400Q899.2800 767.5400 903.3400 762.8500Q907.4000 758.1600 907.8200 749.0600L907.8200 749.0600Q907.9600 746.9600 907.9600 743.6000Q907.9600 740.2400 907.8200 738.1400L907.8200 738.1400Q907.4000 729.0400 903.3400 724.3500Q899.2800 719.6600 891.8600 719.6600L891.8600 719.6600Q884.4400 719.6600 880.3800 724.3500Q876.3200 729.0400 875.9000 738.1400L875.9000 738.1400Q875.7600 740.2400 875.7600 743.6000Q875.7600 746.9600 875.9000 749.0600L875.9000 749.0600Q876.3200 758.1600 880.3800 762.8500Q884.4400 767.5400 891.8600 767.5400ZM965.2200 780L953.7400 780Q952.3400 780 951.3600 779.0200Q950.3800 778.0400 950.3800 776.6400L950.3800 776.6400L950.3800 722.0400L939.0400 722.0400Q937.6400 722.0400 936.6600 721.0600Q935.6800 720.0800 935.6800 718.5400L935.6800 718.5400L935.6800 710.5600Q935.6800 709.1600 936.6600 708.1800Q937.6400 707.2000 939.0400 707.2000L939.0400 707.2000L950.3800 707.2000L950.3800 701.4600Q950.3800 693.0600 953.4600 687.5300Q956.5400 682 962.5600 679.2000Q968.5800 676.4000 977.8200 676.4000L977.8200 676.4000L987.3400 676.4000Q988.8800 676.4000 989.7900 677.3800Q990.7000 678.3600 990.7000 679.7600L990.7000 679.7600L990.7000 687.7400Q990.7000 689.2800 989.7900 690.2600Q988.8800 691.2400 987.3400 691.2400L987.3400 691.2400L978.3800 691.2400Q972.7800 691.2400 970.6800 694.0400Q968.5800 696.8400 968.5800 702.1600L968.5800 702.1600L968.5800 707.2000L985.9400 707.2000Q987.4800 707.2000 988.3900 708.1800Q989.3000 709.1600 989.3000 710.5600L989.3000 710.5600L989.3000 718.5400Q989.3000 720.0800 988.3900 721.0600Q987.4800 722.0400 985.9400 722.0400L985.9400 722.0400L968.5800 722.0400L968.5800 776.6400Q968.5800 778.0400 967.6000 779.0200Q966.6200 780 965.2200 780L965.2200 780ZM1023.1800 780L1011.7000 780Q1010.3000 780 1009.3200 779.0200Q1008.3400 778.0400 1008.3400 776.6400L1008.3400 776.6400L1008.3400 722.0400L997.0000 722.0400Q995.6000 722.0400 994.6200 721.0600Q993.6400 720.0800 993.6400 718.5400L993.6400 718.5400L993.6400 710.5600Q993.6400 709.1600 994.6200 708.1800Q995.6000 707.2000 997.0000 707.2000L997.0000 707.2000L1008.3400 707.2000L1008.3400 701.4600Q1008.3400 693.0600 1011.4200 687.5300Q1014.5000 682 1020.5200 679.2000Q1026.5400 676.4000 1035.7800 676.4000L1035.7800 676.4000L1045.3000 676.4000Q1046.8400 676.4000 1047.7500 677.3800Q1048.6600 678.3600 1048.6600 679.7600L1048.6600 679.7600L1048.6600 687.7400Q1048.6600 689.2800 1047.7500 690.2600Q1046.8400 691.2400 1045.3000 691.2400L1045.3000 691.2400L1036.3400 691.2400Q1030.7400 691.2400 1028.6400 694.0400Q1026.5400 696.8400 1026.5400 702.1600L1026.5400 702.1600L1026.5400 707.2000L1043.9000 707.2000Q1045.4400 707.2000 1046.3500 708.1800Q1047.2600 709.1600 1047.2600 710.5600L1047.2600 710.5600L1047.2600 718.5400Q1047.2600 720.0800 1046.3500 721.0600Q1045.4400 722.0400 1043.9000 722.0400L1043.9000 722.0400L1026.5400 722.0400L1026.5400 776.6400Q1026.5400 778.0400 1025.5600 779.0200Q1024.5800 780 1023.1800 780L1023.1800 780ZM1086.0400 781.4000L1086.0400 781.4000Q1077.6400 781.4000 1071.6900 779.4400Q1065.7400 777.4800 1061.9600 774.5400Q1058.1800 771.6000 1056.3600 768.6600Q1054.5400 765.7200 1054.4000 763.7600L1054.4000 763.7600Q1054.2600 762.2200 1055.3100 761.3100Q1056.3600 760.4000 1057.6200 760.4000L1057.6200 760.4000L1068.6800 760.4000Q1069.2400 760.4000 1069.6600 760.5400Q1070.0800 760.6800 1070.7800 761.3800L1070.7800 761.3800Q1072.6000 762.9200 1074.6300 764.6000Q1076.6600 766.2800 1079.4600 767.4700Q1082.2600 768.6600 1086.4600 768.6600L1086.4600 768.6600Q1091.9200 768.6600 1095.6300 766.4900Q1099.3400 764.3200 1099.3400 760.2600L1099.3400 760.2600Q1099.3400 757.3200 1097.7300 755.5000Q1096.1200 753.6800 1091.7800 752.2100Q1087.4400 750.7400 1079.4600 749.0600L1079.4600 749.0600Q1071.6200 747.2400 1066.4400 744.4400Q1061.2600 741.6400 1058.7400 737.4400Q1056.2200 733.2400 1056.2200 727.6400L1056.2200 727.6400Q1056.2200 722.1800 1059.5100 717.2100Q1062.8000 712.2400 1069.3100 709.0200Q1075.8200 705.8000 1085.4800 705.8000L1085.4800 705.8000Q1093.0400 705.8000 1098.6400 707.6900Q1104.2400 709.5800 1107.9500 712.3800Q1111.6600 715.1800 1113.6200 718.0500Q1115.5800 720.9200 1115.7200 723.0200L1115.7200 723.0200Q1115.8600 724.5600 1114.8800 725.4700Q1113.9000 726.3800 1112.6400 726.3800L1112.6400 726.3800L1102.2800 726.3800Q1101.5800 726.3800 1101.0200 726.1000Q1100.4600 725.8200 1099.9000 725.4000L1099.9000 725.4000Q1098.3600 724 1096.5400 722.3900Q1094.7200 720.7800 1092.1300 719.6600Q1089.5400 718.5400 1085.3400 718.5400L1085.3400 718.5400Q1080.0200 718.5400 1077.2200 720.8500Q1074.4200 723.1600 1074.4200 726.6600L1074.4200 726.6600Q1074.4200 729.0400 1075.7500 730.7900Q1077.0800 732.5400 1081.1400 734.0800Q1085.2000 735.6200 1093.4600 737.3000L1093.4600 737.3000Q1102.8400 738.9800 1108.3700 742.2700Q1113.9000 745.5600 1116.2100 749.8300Q1118.5200 754.1000 1118.5200 759.2800L1118.5200 759.2800Q1118.5200 765.5800 1114.8100 770.6200Q1111.1000 775.6600 1103.8900 778.5300Q1096.6800 781.4000 1086.0400 781.4000ZM1164.3000 781.4000L1164.3000 781.4000Q1148.7600 781.4000 1139.6600 772.4400Q1130.5600 763.4800 1129.8600 746.9600L1129.8600 746.9600Q1129.7200 745.5600 1129.7200 743.3900Q1129.7200 741.2200 1129.8600 739.9600L1129.8600 739.9600Q1130.4200 729.3200 1134.6900 721.6900Q1138.9600 714.0600 1146.5200 709.9300Q1154.0800 705.8000 1164.3000 705.8000L1164.3000 705.8000Q1175.6400 705.8000 1183.3400 710.4900Q1191.0400 715.1800 1194.9600 723.5100Q1198.8800 731.8400 1198.8800 742.7600L1198.8800 742.7600L1198.8800 745.7000Q1198.8800 747.1000 1197.9000 748.0800Q1196.9200 749.0600 1195.3800 749.0600L1195.3800 749.0600L1148.9000 749.0600Q1148.9000 749.0600 1148.9000 749.4800Q1148.9000 749.9000 1148.9000 750.1800L1148.9000 750.1800Q1149.0400 755.0800 1150.7900 759.2100Q1152.5400 763.3400 1155.9700 765.8600Q1159.4000 768.3800 1164.1600 768.3800L1164.1600 768.3800Q1168.0800 768.3800 1170.7400 767.1900Q1173.4000 766 1175.0800 764.4600Q1176.7600 762.9200 1177.4600 761.9400L1177.4600 761.9400Q1178.7200 760.2600 1179.4900 759.9100Q1180.2600 759.5600 1181.8000 759.5600L1181.8000 759.5600L1193.8400 759.5600Q1195.2400 759.5600 1196.1500 760.4000Q1197.0600 761.2400 1196.9200 762.5000L1196.9200 762.5000Q1196.7800 764.7400 1194.6100 767.9600Q1192.4400 771.1800 1188.3800 774.2600Q1184.3200 777.3400 1178.2300 779.3700Q1172.1400 781.4000 1164.3000 781.4000ZM1148.9000 736.8800L1148.9000 737.3000L1179.8400 737.3000L1179.8400 736.8800Q1179.8400 731.4200 1178.0200 727.2900Q1176.2000 723.1600 1172.7000 720.8500Q1169.2000 718.5400 1164.3000 718.5400L1164.3000 718.5400Q1159.4000 718.5400 1155.9000 720.8500Q1152.4000 723.1600 1150.6500 727.2900Q1148.9000 731.4200 1148.9000 736.8800L1148.9000 736.8800ZM1257.9600 780L1246.6200 780Q1238.2200 780 1232.4800 777.0600Q1226.7400 774.1200 1223.9400 768.3100Q1221.1400 762.5000 1221.1400 753.8200L1221.1400 753.8200L1221.1400 722.0400L1210.0800 722.0400Q1208.6800 722.0400 1207.7000 721.0600Q1206.7200 720.0800 1206.7200 718.5400L1206.7200 718.5400L1206.7200 710.5600Q1206.7200 709.1600 1207.7000 708.1800Q1208.6800 707.2000 1210.0800 707.2000L1210.0800 707.2000L1221.1400 707.2000L1221.1400 683.9600Q1221.1400 682.5600 1222.0500 681.5800Q1222.9600 680.6000 1224.5000 680.6000L1224.5000 680.6000L1235.8400 680.6000Q1237.2400 680.6000 1238.2200 681.5800Q1239.2000 682.5600 1239.2000 683.9600L1239.2000 683.9600L1239.2000 707.2000L1256.7000 707.2000Q1258.1000 707.2000 1259.0800 708.1800Q1260.0600 709.1600 1260.0600 710.5600L1260.0600 710.5600L1260.0600 718.5400Q1260.0600 720.0800 1259.0800 721.0600Q1258.1000 722.0400 1256.7000 722.0400L1256.7000 722.0400L1239.2000 722.0400L1239.2000 752.4200Q1239.2000 758.1600 1241.2300 761.3800Q1243.2600 764.6000 1248.3000 764.6000L1248.3000 764.6000L1257.9600 764.6000Q1259.3600 764.6000 1260.3400 765.5800Q1261.3200 766.5600 1261.3200 767.9600L1261.3200 767.9600L1261.3200 776.6400Q1261.3200 778.0400 1260.3400 779.0200Q1259.3600 780 1257.9600 780L1257.9600 780ZM1337.2000 781.4000L1337.2000 781.4000Q1321.6600 781.4000 1312.5600 772.4400Q1303.4600 763.4800 1302.7600 746.9600L1302.7600 746.9600Q1302.6200 745.5600 1302.6200 743.3900Q1302.6200 741.2200 1302.7600 739.9600L1302.7600 739.9600Q1303.3200 729.3200 1307.5900 721.6900Q1311.8600 714.0600 1319.4200 709.9300Q1326.9800 705.8000 1337.2000 705.8000L1337.2000 705.8000Q1348.5400 705.8000 1356.2400 710.4900Q1363.9400 715.1800 1367.8600 723.5100Q1371.7800 731.8400 1371.7800 742.7600L1371.7800 742.7600L1371.7800 745.7000Q1371.7800 747.1000 1370.8000 748.0800Q1369.8200 749.0600 1368.2800 749.0600L1368.2800 749.0600L1321.8000 749.0600Q1321.8000 749.0600 1321.8000 749.4800Q1321.8000 749.9000 1321.8000 750.1800L1321.8000 750.1800Q1321.9400 755.0800 1323.6900 759.2100Q1325.4400 763.3400 1328.8700 765.8600Q1332.3000 768.3800 1337.0600 768.3800L1337.0600 768.3800Q1340.9800 768.3800 1343.6400 767.1900Q1346.3000 766 1347.9800 764.4600Q1349.6600 762.9200 1350.3600 761.9400L1350.3600 761.9400Q1351.6200 760.2600 1352.3900 759.9100Q1353.1600 759.5600 1354.7000 759.5600L1354.7000 759.5600L1366.7400 759.5600Q1368.1400 759.5600 1369.0500 760.4000Q1369.9600 761.2400 1369.8200 762.5000L1369.8200 762.5000Q1369.6800 764.7400 1367.5100 767.9600Q1365.3400 771.1800 1361.2800 774.2600Q1357.2200 777.3400 1351.1300 779.3700Q1345.0400 781.4000 1337.2000 781.4000ZM1321.8000 736.8800L1321.8000 737.3000L1352.7400 737.3000L1352.7400 736.8800Q1352.7400 731.4200 1350.9200 727.2900Q1349.1000 723.1600 1345.6000 720.8500Q1342.1000 718.5400 1337.2000 718.5400L1337.2000 718.5400Q1332.3000 718.5400 1328.8000 720.8500Q1325.3000 723.1600 1323.5500 727.2900Q1321.8000 731.4200 1321.8000 736.8800L1321.8000 736.8800ZM174.3600 920L162.7400 920Q161.3400 920 160.3600 919.0200Q159.3800 918.0400 159.3800 916.6400L159.3800 916.6400L159.3800 823.9600Q159.3800 822.5600 160.3600 821.5800Q161.3400 820.6000 162.7400 820.6000L162.7400 820.6000L174.3600 820.6000Q175.7600 820.6000 176.7400 821.5800Q177.7200 822.5600 177.7200 823.9600L177.7200 823.9600L177.7200 916.6400Q177.7200 918.0400 176.7400 919.0200Q175.7600 920 174.3600 920L174.3600 920ZM211.3200 920L199.7000 920Q198.3000 920 197.3200 919.0200Q196.3400 918.0400 196.3400 916.6400L196.3400 916.6400L196.3400 850.5600Q196.3400 849.1600 197.3200 848.1800Q198.3000 847.2000 199.7000 847.2000L199.7000 847.2000L211.3200 847.2000Q212.8600 847.2000 213.7700 848.1800Q214.6800 849.1600 214.6800 850.5600L214.6800 850.5600L214.6800 916.6400Q214.6800 918.0400 213.7700 919.0200Q212.8600 920 211.3200 920L211.3200 920ZM211.8800 835.1600L199.1400 835.1600Q197.7400 835.1600 196.7600 834.1800Q195.7800 833.2000 195.7800 831.8000L195.7800 831.8000L195.7800 821.7200Q195.7800 820.3200 196.7600 819.3400Q197.7400 818.3600 199.1400 818.3600L199.1400 818.3600L211.8800 818.3600Q213.4200 818.3600 214.4000 819.3400Q215.3800 820.3200 215.3800 821.7200L215.3800 821.7200L215.3800 831.8000Q215.3800 833.2000 214.4000 834.1800Q213.4200 835.1600 211.8800 835.1600L211.8800 835.1600ZM248.4200 920L236.6600 920Q235.2600 920 234.2800 919.0200Q233.3000 918.0400 233.3000 916.6400L233.3000 916.6400L233.3000 850.5600Q233.3000 849.1600 234.2800 848.1800Q235.2600 847.2000 236.6600 847.2000L236.6600 847.2000L247.5800 847.2000Q248.9800 847.2000 249.9600 848.1800Q250.9400 849.1600 250.9400 850.5600L250.9400 850.5600L250.9400 855.3200Q253.8800 851.4000 258.8500 848.6700Q263.8200 845.9400 270.6800 845.8000L270.6800 845.8000Q286.6400 845.5200 292.9400 858.2600L292.9400 858.2600Q296.1600 852.6600 302.2500 849.2300Q308.3400 845.8000 315.7600 845.8000L315.7600 845.8000Q323.0400 845.8000 328.9900 849.1600Q334.9400 852.5200 338.3700 859.3100Q341.8000 866.1000 341.8000 876.4600L341.8000 876.4600L341.8000 916.6400Q341.8000 918.0400 340.8200 919.0200Q339.8400 920 338.4400 920L338.4400 920L326.9600 920Q325.5600 920 324.5800 919.0200Q323.6000 918.0400 323.6000 916.6400L323.6000 916.6400L323.6000 877.5800Q323.6000 871.2800 321.7800 867.5700Q319.9600 863.8600 316.8800 862.3200Q313.8000 860.7800 310.0200 860.7800L310.0200 860.7800Q306.9400 860.7800 303.8600 862.3200Q300.7800 863.8600 298.8200 867.5700Q296.8600 871.2800 296.8600 877.5800L296.8600 877.5800L296.8600 916.6400Q296.8600 918.0400 295.8800 919.0200Q294.9000 920 293.5000 920L293.5000 920L282.0200 920Q280.6200 920 279.6400 919.0200Q278.6600 918.0400 278.6600 916.6400L278.6600 916.6400L278.6600 877.5800Q278.6600 871.2800 276.7000 867.5700Q274.7400 863.8600 271.6600 862.3200Q268.5800 860.7800 265.0800 860.7800L265.0800 860.7800Q261.8600 860.7800 258.7800 862.3900Q255.7000 864 253.7400 867.6400Q251.7800 871.2800 251.7800 877.5800L251.7800 877.5800L251.7800 916.6400Q251.7800 918.0400 250.8000 919.0200Q249.8200 920 248.4200 920L248.4200 920ZM374.5600 920L362.9400 920Q361.5400 920 360.5600 919.0200Q359.5800 918.0400 359.5800 916.6400L359.5800 916.6400L359.5800 850.5600Q359.5800 849.1600 360.5600 848.1800Q361.5400 847.2000 362.9400 847.2000L362.9400 847.2000L374.5600 847.2000Q376.1000 847.2000 377.0100 848.1800Q377.9200 849.1600 377.9200 850.5600L377.9200 850.5600L377.9200 916.6400Q377.9200 918.0400 377.0100 919.0200Q376.1000 920 374.5600 920L374.5600 920ZM375.1200 835.1600L362.3800 835.1600Q360.9800 835.1600 360.0000 834.1800Q359.0200 833.2000 359.0200 831.8000L359.0200 831.8000L359.0200 821.7200Q359.0200 820.3200 360.0000 819.3400Q360.9800 818.3600 362.3800 818.3600L362.3800 818.3600L375.1200 818.3600Q376.6600 818.3600 377.6400 819.3400Q378.6200 820.3200 378.6200 821.7200L378.6200 821.7200L378.6200 831.8000Q378.6200 833.2000 377.6400 834.1800Q376.6600 835.1600 375.1200 835.1600L375.1200 835.1600ZM440.7800 920L429.4400 920Q421.0400 920 415.3000 917.0600Q409.5600 914.1200 406.7600 908.3100Q403.9600 902.5000 403.9600 893.8200L403.9600 893.8200L403.9600 862.0400L392.9000 862.0400Q391.5000 862.0400 390.5200 861.0600Q389.5400 860.0800 389.5400 858.5400L389.5400 858.5400L389.5400 850.5600Q389.5400 849.1600 390.5200 848.1800Q391.5000 847.2000 392.9000 847.2000L392.9000 847.2000L403.9600 847.2000L403.9600 823.9600Q403.9600 822.5600 404.8700 821.5800Q405.7800 820.6000 407.3200 820.6000L407.3200 820.6000L418.6600 820.6000Q420.0600 820.6000 421.0400 821.5800Q422.0200 822.5600 422.0200 823.9600L422.0200 823.9600L422.0200 847.2000L439.5200 847.2000Q440.9200 847.2000 441.9000 848.1800Q442.8800 849.1600 442.8800 850.5600L442.8800 850.5600L442.8800 858.5400Q442.8800 860.0800 441.9000 861.0600Q440.9200 862.0400 439.5200 862.0400L439.5200 862.0400L422.0200 862.0400L422.0200 892.4200Q422.0200 898.1600 424.0500 901.3800Q426.0800 904.6000 431.1200 904.6000L431.1200 904.6000L440.7800 904.6000Q442.1800 904.6000 443.1600 905.5800Q444.1400 906.5600 444.1400 907.9600L444.1400 907.9600L444.1400 916.6400Q444.1400 918.0400 443.1600 919.0200Q442.1800 920 440.7800 920L440.7800 920Z" id="title"/></g></svg>