<svg xmlns="http://www.w3.org/2000/svg" version="1.1" xmlns:xlink="http://www.w3.org/1999/xlink" xmlns:svgjs="http://svgjs.dev/svgjs" viewBox="0 0 1920 1080" id="667f4e47-d01a-4d5e-96bc-093351658637"><g><rect width="1920" height="1080" fill="#4e0250"/></g><g fill="#645986"><path d="M2118.71 322.496C1962.88 381.696 1840.11 286.062 1731.68 201.315C1619.52 113.904 1545.13 63.1995 1455.92 97.0926C1366.11 131.212 1344.15 218.52 1318.91 358.127C1294.11 493.487 1265.8 646.514 1109.97 705.714C954.144 764.914 831.375 669.28 722.951 584.533C610.793 497.122 536.401 446.418 447.185 480.311C357.375 514.43 335.414 601.738 310.18 741.346C285.375 876.706 257.072 1029.73 101.242 1088.93C-54.5876 1148.13 -177.357 1052.5 -285.78 967.751C-397.344 880.114 -471.736 829.41 -561.547 863.529L-602 757.045C-446.17 697.845 -323.401 793.479 -214.977 878.225C-102.819 965.637 -28.4265 1016.34 60.7891 982.448C150.6 948.329 172.56 861.02 197.794 721.413C222.599 586.053 250.307 433.253 406.732 373.827C562.562 314.627 685.331 410.261 793.754 495.007C905.913 582.419 980.305 633.123 1069.52 599.23C1159.33 565.111 1181.29 477.802 1206.53 338.195C1231.33 202.835 1259.04 50.0347 1415.46 -9.39121C1571.89 -68.8172 1694.06 27.043 1802.49 111.789C1914.64 199.201 1989.04 249.905 2078.25 216.012L2118.71 322.496Z"/></g><g fill="#ffffff" opacity="0.2"><path d="M960.041 79C960.041 79 971.953 194.974 981.699 214.484C992.529 237.245 1064 247 1064 247C1064 247 994.694 258.923 983.865 280.6C973.036 301.194 958.959 415 958.959 415C958.959 415 945.964 296.858 935.135 275.181C925.389 255.671 855 245.916 855 245.916C855 245.916 925.389 233.994 936.218 212.316C947.047 192.806 960.041 79 960.041 79Z"/><path d="M561.041 687C561.041 687 572.953 802.974 582.699 822.484C593.529 845.245 665 855 665 855C665 855 595.694 866.923 584.865 888.6C574.036 909.194 559.959 1023 559.959 1023C559.959 1023 546.964 904.858 536.135 883.181C526.389 863.671 456 853.916 456 853.916C456 853.916 526.389 841.994 537.218 820.316C548.047 800.806 561.041 687 561.041 687Z"/></g><g><path d="M178.635 139.281L184.422 144.246V166.626H215.704L219.958 172.147L215.69 177.397H184.422V198.795L178.635 203.747L173 198.795V144.232L178.635 139.281ZM195.554 195.68H219.406L223.397 200.915L219.143 206.45H195.554L191.7 201.342L195.554 195.68ZM196.382 138H219.129L223.383 143.52L219.129 148.77H196.659L192.115 143.677L196.382 138ZM323.155 148.628L328.251 154.291L323.155 159.968H246.13L241.172 154.291L246.13 148.628H323.155ZM237.043 172.147L241.849 167.893L246.669 172.147V178.393C246.669 188.879 249.417 197.515 261.668 197.515H264.14C275.147 197.515 281.197 189.86 281.197 177.952V172.005L285.879 167.75L290.699 171.862V178.379C290.699 189.007 293.723 196.946 305.56 196.946H307.618C319.178 196.946 321.235 187.869 321.373 177.952V171.578L326.056 167.608L331 171.72V178.094C330.862 191.838 327.285 207.574 308.032 207.574H305.974C294.552 207.574 288.365 202.324 285.892 195.808C283.006 202.466 275.299 208.286 264.844 208.286H262.358C242.553 208.286 237.194 195.964 237.056 178.663V172.147H237.043ZM276.391 274.744L273.642 267.089L280.796 264.969L305.974 276.721V252.491L311.07 248.095L316.291 252.491V281.829L325.641 286.226L328.251 293.311L320.959 296L276.391 274.744ZM321.235 223.011L328.113 226.27L325.917 233.497L264.002 263.119L256.571 260.146L259.596 252.776L321.235 223.011ZM231.905 263.404L237.954 268.512C237.402 286.51 222.403 296 204.669 296H202.874C194.062 296 183.759 292.6 177.157 286.083L177.834 278.855L184.298 278.002C189.118 282.256 195.858 285.229 202.183 285.229H204.117C216.091 285.229 225.303 280.136 226.27 268.085L231.905 263.404ZM226.256 251.638C225.704 239.16 216.629 234.209 204.103 234.209H202.169C194.739 234.209 189.104 237.182 184.284 241.436L177.834 240.583L177.143 233.355C183.745 226.696 192.957 223.58 202.597 223.58H204.517C222.403 223.58 237.402 232.942 237.94 251.211L231.891 256.176L226.256 251.638Z" fill="#ffffff"/></g><g fill="#ffffff" id="info-group"><path d="M167.0800 430L154.9000 430Q153.7800 430 152.8700 429.1600Q151.9600 428.3200 151.9600 427.0600L151.9600 427.0600Q151.9600 426.5000 152.2400 425.8000L152.2400 425.8000L185.9800 335.5000Q186.4000 334.1000 187.5900 333.0500Q188.7800 332 190.8800 332L190.8800 332L206.1400 332Q208.2400 332 209.3600 333.0500Q210.4800 334.1000 211.0400 335.5000L211.0400 335.5000L244.7800 425.8000Q244.9200 426.5000 244.9200 427.0600L244.9200 427.0600Q244.9200 428.3200 244.0800 429.1600Q243.2400 430 242.1200 430L242.1200 430L229.9400 430Q227.9800 430 227.0700 429.0900Q226.1600 428.1800 225.8800 427.3400L225.8800 427.3400L219.3000 410.2600L177.7200 410.2600L171.1400 427.3400Q170.8600 428.1800 169.9500 429.0900Q169.0400 430 167.0800 430L167.0800 430ZM198.4400 350.9000L182.6200 394.1600L214.4000 394.1600L198.4400 350.9000ZM283.2800 431.4000L283.2800 431.4000Q274.7400 431.4000 268.5100 427.5500Q262.2800 423.7000 258.9200 416.6300Q255.5600 409.5600 255.5600 399.9000L255.5600 399.9000L255.5600 360.5600Q255.5600 359.1600 256.5400 358.1800Q257.5200 357.2000 258.9200 357.2000L258.9200 357.2000L271.2400 357.2000Q272.7800 357.2000 273.6900 358.1800Q274.6000 359.1600 274.6000 360.5600L274.6000 360.5600L274.6000 399.0600Q274.6000 416.4200 289.8600 416.4200L289.8600 416.4200Q297.1400 416.4200 301.4100 411.8000Q305.6800 407.1800 305.6800 399.0600L305.6800 399.0600L305.6800 360.5600Q305.6800 359.1600 306.6600 358.1800Q307.6400 357.2000 309.0400 357.2000L309.0400 357.2000L321.3600 357.2000Q322.7600 357.2000 323.7400 358.1800Q324.7200 359.1600 324.7200 360.5600L324.7200 360.5600L324.7200 426.6400Q324.7200 428.0400 323.7400 429.0200Q322.7600 430 321.3600 430L321.3600 430L310.0200 430Q308.4800 430 307.5700 429.0200Q306.6600 428.0400 306.6600 426.6400L306.6600 426.6400L306.6600 420.9000Q302.8800 425.8000 297.2800 428.6000Q291.6800 431.4000 283.2800 431.4000ZM358.3200 430L346.7000 430Q345.3000 430 344.3200 429.0200Q343.3400 428.0400 343.3400 426.6400L343.3400 426.6400L343.3400 333.9600Q343.3400 332.5600 344.3200 331.5800Q345.3000 330.6000 346.7000 330.6000L346.7000 330.6000L358.3200 330.6000Q359.7200 330.6000 360.7000 331.5800Q361.6800 332.5600 361.6800 333.9600L361.6800 333.9600L361.6800 426.6400Q361.6800 428.0400 360.7000 429.0200Q359.7200 430 358.3200 430L358.3200 430ZM401.4400 431.4000L401.4400 431.4000Q394.1600 431.4000 388.2800 428.5300Q382.4000 425.6600 378.9700 420.8300Q375.5400 416 375.5400 409.9800L375.5400 409.9800Q375.5400 400.1800 383.5200 394.3700Q391.5000 388.5600 404.3800 386.6000L404.3800 386.6000L423.5600 383.8000L423.5600 380.8600Q423.5600 374.9800 420.6200 371.7600Q417.6800 368.5400 410.5400 368.5400L410.5400 368.5400Q405.5000 368.5400 402.3500 370.5700Q399.2000 372.6000 397.6600 375.9600L397.6600 375.9600Q396.5400 377.7800 394.4400 377.7800L394.4400 377.7800L383.3800 377.7800Q381.8400 377.7800 381.0700 376.9400Q380.3000 376.1000 380.3000 374.7000L380.3000 374.7000Q380.4400 372.4600 382.1900 369.2400Q383.9400 366.0200 387.5100 363.0100Q391.0800 360 396.8200 357.9000Q402.5600 355.8000 410.6800 355.8000L410.6800 355.8000Q419.5000 355.8000 425.5900 357.9700Q431.6800 360.1400 435.3200 363.7800Q438.9600 367.4200 440.6400 372.3200Q442.3200 377.2200 442.3200 382.6800L442.3200 382.6800L442.3200 426.6400Q442.3200 428.0400 441.3400 429.0200Q440.3600 430 438.9600 430L438.9600 430L427.6200 430Q426.0800 430 425.1700 429.0200Q424.2600 428.0400 424.2600 426.6400L424.2600 426.6400L424.2600 421.1800Q422.4400 423.7000 419.3600 426.0800Q416.2800 428.4600 411.8700 429.9300Q407.4600 431.4000 401.4400 431.4000ZM406.2000 418.1000L406.2000 418.1000Q411.1000 418.1000 415.0900 416Q419.0800 413.9000 421.3900 409.4900Q423.7000 405.0800 423.7000 398.3600L423.7000 398.3600L423.7000 395.4200L409.7000 397.6600Q401.4400 398.9200 397.3800 401.7200Q393.3200 404.5200 393.3200 408.5800L393.3200 408.5800Q393.3200 411.6600 395.2100 413.8300Q397.1000 416 400.0400 417.0500Q402.9800 418.1000 406.2000 418.1000ZM534.5800 430L521.8400 430Q520.3000 430 519.3900 429.0200Q518.4800 428.0400 518.4800 426.6400L518.4800 426.6400L518.4800 354.1200L497.2000 370.5000Q495.9400 371.3400 494.6800 371.1300Q493.4200 370.9200 492.4400 369.6600L492.4400 369.6600L486.5600 362.1000Q485.7200 360.8400 485.9300 359.4400Q486.1400 358.0400 487.4000 357.2000L487.4000 357.2000L518.7600 332.9800Q519.6000 332.2800 520.4400 332.1400Q521.2800 332 522.2600 332L522.2600 332L534.5800 332Q535.9800 332 536.9600 332.9800Q537.9400 333.9600 537.9400 335.3600L537.9400 335.3600L537.9400 426.6400Q537.9400 428.0400 536.9600 429.0200Q535.9800 430 534.5800 430L534.5800 430ZM573.9200 381L560.0600 381Q558.6600 381 557.6800 380.0200Q556.7000 379.0400 556.7000 377.6400L556.7000 377.6400L556.7000 364.3400Q556.7000 362.8000 557.6800 361.8200Q558.6600 360.8400 560.0600 360.8400L560.0600 360.8400L573.9200 360.8400Q575.4600 360.8400 576.4400 361.8200Q577.4200 362.8000 577.4200 364.3400L577.4200 364.3400L577.4200 377.6400Q577.4200 379.0400 576.4400 380.0200Q575.4600 381 573.9200 381L573.9200 381ZM573.9200 430L560.0600 430Q558.6600 430 557.6800 429.0200Q556.7000 428.0400 556.7000 426.6400L556.7000 426.6400L556.7000 413.3400Q556.7000 411.8000 557.6800 410.8200Q558.6600 409.8400 560.0600 409.8400L560.0600 409.8400L573.9200 409.8400Q575.4600 409.8400 576.4400 410.8200Q577.4200 411.8000 577.4200 413.3400L577.4200 413.3400L577.4200 426.6400Q577.4200 428.0400 576.4400 429.0200Q575.4600 430 573.9200 430L573.9200 430ZM645.7400 430L632.5800 430Q631.1800 430 630.2000 429.0200Q629.2200 428.0400 629.2200 426.6400L629.2200 426.6400L629.2200 335.3600Q629.2200 333.9600 630.2000 332.9800Q631.1800 332 632.5800 332L632.5800 332L645.7400 332Q647.2800 332 648.1900 332.9800Q649.1000 333.9600 649.1000 335.3600L649.1000 335.3600L649.1000 426.6400Q649.1000 428.0400 648.1900 429.0200Q647.2800 430 645.7400 430L645.7400 430ZM685.0800 430L672.7600 430Q671.3600 430 670.3800 429.0200Q669.4000 428.0400 669.4000 426.6400L669.4000 426.6400L669.4000 360.5600Q669.4000 359.1600 670.3800 358.1800Q671.3600 357.2000 672.7600 357.2000L672.7600 357.2000L684.2400 357.2000Q685.6400 357.2000 686.6200 358.1800Q687.6000 359.1600 687.6000 360.5600L687.6000 360.5600L687.6000 366.3000Q691.2400 361.8200 696.9100 358.8100Q702.5800 355.8000 710.9800 355.8000L710.9800 355.8000Q719.5200 355.8000 725.8200 359.6500Q732.1200 363.5000 735.5500 370.5000Q738.9800 377.5000 738.9800 387.3000L738.9800 387.3000L738.9800 426.6400Q738.9800 428.0400 738.0000 429.0200Q737.0200 430 735.6200 430L735.6200 430L723.3000 430Q721.9000 430 720.9200 429.0200Q719.9400 428.0400 719.9400 426.6400L719.9400 426.6400L719.9400 388.1400Q719.9400 380.0200 715.9500 375.4000Q711.9600 370.7800 704.4000 370.7800L704.4000 370.7800Q697.1200 370.7800 692.7800 375.4000Q688.4400 380.0200 688.4400 388.1400L688.4400 388.1400L688.4400 426.6400Q688.4400 428.0400 687.4600 429.0200Q686.4800 430 685.0800 430L685.0800 430ZM801.0000 430L789.6600 430Q781.2600 430 775.5200 427.0600Q769.7800 424.1200 766.9800 418.3100Q764.1800 412.5000 764.1800 403.8200L764.1800 403.8200L764.1800 372.0400L753.1200 372.0400Q751.7200 372.0400 750.7400 371.0600Q749.7600 370.0800 749.7600 368.5400L749.7600 368.5400L749.7600 360.5600Q749.7600 359.1600 750.7400 358.1800Q751.7200 357.2000 753.1200 357.2000L753.1200 357.2000L764.1800 357.2000L764.1800 333.9600Q764.1800 332.5600 765.0900 331.5800Q766.0000 330.6000 767.5400 330.6000L767.5400 330.6000L778.8800 330.6000Q780.2800 330.6000 781.2600 331.5800Q782.2400 332.5600 782.2400 333.9600L782.2400 333.9600L782.2400 357.2000L799.7400 357.2000Q801.1400 357.2000 802.1200 358.1800Q803.1000 359.1600 803.1000 360.5600L803.1000 360.5600L803.1000 368.5400Q803.1000 370.0800 802.1200 371.0600Q801.1400 372.0400 799.7400 372.0400L799.7400 372.0400L782.2400 372.0400L782.2400 402.4200Q782.2400 408.1600 784.2700 411.3800Q786.3000 414.6000 791.3400 414.6000L791.3400 414.6000L801.0000 414.6000Q802.4000 414.6000 803.3800 415.5800Q804.3600 416.5600 804.3600 417.9600L804.3600 417.9600L804.3600 426.6400Q804.3600 428.0400 803.3800 429.0200Q802.4000 430 801.0000 430L801.0000 430ZM832.3600 430L820.1800 430Q818.7800 430 817.8000 429.0200Q816.8200 428.0400 816.8200 426.6400L816.8200 426.6400L816.8200 360.7000Q816.8200 359.1600 817.8000 358.1800Q818.7800 357.2000 820.1800 357.2000L820.1800 357.2000L831.5200 357.2000Q832.9200 357.2000 833.9700 358.1800Q835.0200 359.1600 835.0200 360.7000L835.0200 360.7000L835.0200 366.4400Q838.2400 361.9600 843.3500 359.5800Q848.4600 357.2000 855.1800 357.2000L855.1800 357.2000L860.9200 357.2000Q862.4600 357.2000 863.3700 358.1800Q864.2800 359.1600 864.2800 360.5600L864.2800 360.5600L864.2800 370.6400Q864.2800 372.0400 863.3700 373.0200Q862.4600 374 860.9200 374L860.9200 374L850.0000 374Q843.2800 374 839.5700 377.7100Q835.8600 381.4200 835.8600 388.1400L835.8600 388.1400L835.8600 426.6400Q835.8600 428.0400 834.8800 429.0200Q833.9000 430 832.3600 430L832.3600 430ZM907.4000 431.4000L907.4000 431.4000Q896.2000 431.4000 888.5700 427.4800Q880.9400 423.5600 876.9500 416.4200Q872.9600 409.2800 872.4000 399.7600L872.4000 399.7600Q872.2600 397.2400 872.2600 393.6000Q872.2600 389.9600 872.4000 387.4400L872.4000 387.4400Q872.9600 377.7800 877.0900 370.7100Q881.2200 363.6400 888.8500 359.7200Q896.4800 355.8000 907.4000 355.8000L907.4000 355.8000Q918.3200 355.8000 925.9500 359.7200Q933.5800 363.6400 937.7100 370.7100Q941.8400 377.7800 942.4000 387.4400L942.4000 387.4400Q942.5400 389.9600 942.5400 393.6000Q942.5400 397.2400 942.4000 399.7600L942.4000 399.7600Q941.8400 409.2800 937.8500 416.4200Q933.8600 423.5600 926.2300 427.4800Q918.6000 431.4000 907.4000 431.4000ZM907.4000 417.5400L907.4000 417.5400Q914.8200 417.5400 918.8800 412.8500Q922.9400 408.1600 923.3600 399.0600L923.3600 399.0600Q923.5000 396.9600 923.5000 393.6000Q923.5000 390.2400 923.3600 388.1400L923.3600 388.1400Q922.9400 379.0400 918.8800 374.3500Q914.8200 369.6600 907.4000 369.6600L907.4000 369.6600Q899.9800 369.6600 895.9200 374.3500Q891.8600 379.0400 891.4400 388.1400L891.4400 388.1400Q891.3000 390.2400 891.3000 393.6000Q891.3000 396.9600 891.4400 399.0600L891.4400 399.0600Q891.8600 408.1600 895.9200 412.8500Q899.9800 417.5400 907.4000 417.5400ZM985.1000 431.4000L985.1000 431.4000Q977.8200 431.4000 972.2900 428.9500Q966.7600 426.5000 963.1200 422.0200Q959.4800 417.5400 957.5200 411.4500Q955.5600 405.3600 955.2800 398.0800L955.2800 398.0800Q955.1400 395.5600 955.1400 393.5300Q955.1400 391.5000 955.2800 388.9800L955.2800 388.9800Q955.5600 381.9800 957.4500 375.9600Q959.3400 369.9400 963.0500 365.3900Q966.7600 360.8400 972.2900 358.3200Q977.8200 355.8000 985.1000 355.8000L985.1000 355.8000Q992.6600 355.8000 997.9100 358.3900Q1003.1600 360.9800 1006.6600 365.0400L1006.6600 365.0400L1006.6600 333.9600Q1006.6600 332.5600 1007.5700 331.5800Q1008.4800 330.6000 1010.0200 330.6000L1010.0200 330.6000L1021.9200 330.6000Q1023.3200 330.6000 1024.3000 331.5800Q1025.2800 332.5600 1025.2800 333.9600L1025.2800 333.9600L1025.2800 426.6400Q1025.2800 428.0400 1024.3000 429.0200Q1023.3200 430 1021.9200 430L1021.9200 430L1010.8600 430Q1009.3200 430 1008.4100 429.0200Q1007.5000 428.0400 1007.5000 426.6400L1007.5000 426.6400L1007.5000 421.4600Q1004.0000 425.8000 998.6100 428.6000Q993.2200 431.4000 985.1000 431.4000ZM990.2800 416.4200L990.2800 416.4200Q996.1600 416.4200 999.6600 413.7600Q1003.1600 411.1000 1004.8400 406.9700Q1006.5200 402.8400 1006.6600 398.5000L1006.6600 398.5000Q1006.8000 395.9800 1006.8000 393.1100Q1006.8000 390.2400 1006.6600 387.7200L1006.6600 387.7200Q1006.5200 383.5200 1004.7000 379.6700Q1002.8800 375.8200 999.3800 373.3000Q995.8800 370.7800 990.2800 370.7800L990.2800 370.7800Q984.4000 370.7800 980.9700 373.3700Q977.5400 375.9600 976.0000 380.1600Q974.4600 384.3600 974.1800 389.4000L974.1800 389.4000Q974.0400 393.6000 974.1800 397.8000L974.1800 397.8000Q974.4600 402.8400 976.0000 407.0400Q977.5400 411.2400 980.9700 413.8300Q984.4000 416.4200 990.2800 416.4200ZM1070.9200 431.4000L1070.9200 431.4000Q1062.3800 431.4000 1056.1500 427.5500Q1049.9200 423.7000 1046.5600 416.6300Q1043.2000 409.5600 1043.2000 399.9000L1043.2000 399.9000L1043.2000 360.5600Q1043.2000 359.1600 1044.1800 358.1800Q1045.1600 357.2000 1046.5600 357.2000L1046.5600 357.2000L1058.8800 357.2000Q1060.4200 357.2000 1061.3300 358.1800Q1062.2400 359.1600 1062.2400 360.5600L1062.2400 360.5600L1062.2400 399.0600Q1062.2400 416.4200 1077.5000 416.4200L1077.5000 416.4200Q1084.7800 416.4200 1089.0500 411.8000Q1093.3200 407.1800 1093.3200 399.0600L1093.3200 399.0600L1093.3200 360.5600Q1093.3200 359.1600 1094.3000 358.1800Q1095.2800 357.2000 1096.6800 357.2000L1096.6800 357.2000L1109 357.2000Q1110.4000 357.2000 1111.3800 358.1800Q1112.3600 359.1600 1112.3600 360.5600L1112.3600 360.5600L1112.3600 426.6400Q1112.3600 428.0400 1111.3800 429.0200Q1110.4000 430 1109 430L1109 430L1097.6600 430Q1096.1200 430 1095.2100 429.0200Q1094.3000 428.0400 1094.3000 426.6400L1094.3000 426.6400L1094.3000 420.9000Q1090.5200 425.8000 1084.9200 428.6000Q1079.3200 431.4000 1070.9200 431.4000ZM1162.2000 460.8000L1162.2000 460.8000Q1158.2800 460.6600 1155.2700 459.4000Q1152.2600 458.1400 1150.9300 456.4600Q1149.6000 454.7800 1151.0000 453.6600L1151.0000 453.6600L1153.3800 451.5600Q1154.6400 450.4400 1155.5500 450.9300Q1156.4600 451.4200 1157.9300 452.3300Q1159.4000 453.2400 1162.2000 453.2400L1162.2000 453.2400Q1164.3000 453.2400 1165.8400 451.9100Q1167.3800 450.5800 1167.3800 448.4800L1167.3800 448.4800Q1167.3800 446.5200 1165.9100 445.2600Q1164.4400 444 1162.2000 444L1162.2000 444Q1160.2400 444 1158.8400 444.4900Q1157.4400 444.9800 1156.3200 445.1900Q1155.2000 445.4000 1154.0800 444.2800L1154.0800 444.2800L1151.5600 441.7600Q1150.7200 440.7800 1151.0000 439.7300Q1151.2800 438.6800 1151.8400 437.4200L1151.8400 437.4200L1154.7800 430.7000Q1142.7400 428.8800 1135.6000 420.6900Q1128.4600 412.5000 1128.0400 399.2000L1128.0400 399.2000Q1127.9000 397.1000 1127.9000 393.6700Q1127.9000 390.2400 1128.0400 388L1128.0400 388Q1128.4600 377.7800 1132.7300 370.5700Q1137.0000 363.3600 1144.6300 359.5800Q1152.2600 355.8000 1162.3400 355.8000L1162.3400 355.8000Q1171.3000 355.8000 1177.6000 358.2500Q1183.9000 360.7000 1187.9600 364.5500Q1192.0200 368.4000 1194.0500 372.5300Q1196.0800 376.6600 1196.2200 380.0200L1196.2200 380.0200Q1196.3600 381.5600 1195.3100 382.4700Q1194.2600 383.3800 1192.8600 383.3800L1192.8600 383.3800L1180.5400 383.3800Q1179.1400 383.3800 1178.3700 382.6800Q1177.6000 381.9800 1176.9000 380.5800L1176.9000 380.5800Q1174.8000 374.9800 1171.3700 372.6700Q1167.9400 370.3600 1162.6200 370.3600L1162.6200 370.3600Q1155.6200 370.3600 1151.4900 374.7700Q1147.3600 379.1800 1147.0800 388.7000L1147.0800 388.7000Q1146.8000 394.0200 1147.0800 398.5000L1147.0800 398.5000Q1147.3600 408.1600 1151.4900 412.5000Q1155.6200 416.8400 1162.6200 416.8400L1162.6200 416.8400Q1168.0800 416.8400 1171.4400 414.5300Q1174.8000 412.2200 1176.9000 406.6200L1176.9000 406.6200Q1177.6000 405.2200 1178.3700 404.5200Q1179.1400 403.8200 1180.5400 403.8200L1180.5400 403.8200L1192.8600 403.8200Q1194.2600 403.8200 1195.3100 404.7300Q1196.3600 405.6400 1196.2200 407.1800L1196.2200 407.1800Q1196.0800 410.2600 1194.1200 414.3900Q1192.1600 418.5200 1188.2400 422.3700Q1184.3200 426.2200 1178.0200 428.8100Q1171.7200 431.4000 1162.7600 431.4000L1162.7600 431.4000L1159.8200 437.4200Q1160.6600 437 1162.1300 436.7200Q1163.6000 436.4400 1164.7200 436.4400L1164.7200 436.4400Q1169.6200 436.4400 1172.6300 439.8000Q1175.6400 443.1600 1175.6400 448.3400L1175.6400 448.3400Q1175.6400 453.6600 1172.1400 457.3000Q1168.6400 460.9400 1162.2000 460.8000ZM1231.9200 431.4000L1231.9200 431.4000Q1224.6400 431.4000 1218.7600 428.5300Q1212.8800 425.6600 1209.4500 420.8300Q1206.0200 416 1206.0200 409.9800L1206.0200 409.9800Q1206.0200 400.1800 1214.0000 394.3700Q1221.9800 388.5600 1234.8600 386.6000L1234.8600 386.6000L1254.0400 383.8000L1254.0400 380.8600Q1254.0400 374.9800 1251.1000 371.7600Q1248.1600 368.5400 1241.0200 368.5400L1241.0200 368.5400Q1235.9800 368.5400 1232.8300 370.5700Q1229.6800 372.6000 1228.1400 375.9600L1228.1400 375.9600Q1227.0200 377.7800 1224.9200 377.7800L1224.9200 377.7800L1213.8600 377.7800Q1212.3200 377.7800 1211.5500 376.9400Q1210.7800 376.1000 1210.7800 374.7000L1210.7800 374.7000Q1210.9200 372.4600 1212.6700 369.2400Q1214.4200 366.0200 1217.9900 363.0100Q1221.5600 360 1227.3000 357.9000Q1233.0400 355.8000 1241.1600 355.8000L1241.1600 355.8000Q1249.9800 355.8000 1256.0700 357.9700Q1262.1600 360.1400 1265.8000 363.7800Q1269.4400 367.4200 1271.1200 372.3200Q1272.8000 377.2200 1272.8000 382.6800L1272.8000 382.6800L1272.8000 426.6400Q1272.8000 428.0400 1271.8200 429.0200Q1270.8400 430 1269.4400 430L1269.4400 430L1258.1000 430Q1256.5600 430 1255.6500 429.0200Q1254.7400 428.0400 1254.7400 426.6400L1254.7400 426.6400L1254.7400 421.1800Q1252.9200 423.7000 1249.8400 426.0800Q1246.7600 428.4600 1242.3500 429.9300Q1237.9400 431.4000 1231.9200 431.4000ZM1236.6800 418.1000L1236.6800 418.1000Q1241.5800 418.1000 1245.5700 416Q1249.5600 413.9000 1251.8700 409.4900Q1254.1800 405.0800 1254.1800 398.3600L1254.1800 398.3600L1254.1800 395.4200L1240.1800 397.6600Q1231.9200 398.9200 1227.8600 401.7200Q1223.8000 404.5200 1223.8000 408.5800L1223.8000 408.5800Q1223.8000 411.6600 1225.6900 413.8300Q1227.5800 416 1230.5200 417.0500Q1233.4600 418.1000 1236.6800 418.1000ZM1248.8600 347.4000L1248.8600 347.4000Q1245.2200 347.4000 1242.9800 346.2100Q1240.7400 345.0200 1238.8500 343.7600Q1236.9600 342.5000 1234.7200 342.5000L1234.7200 342.5000Q1232.9000 342.5000 1232.1300 343.5500Q1231.3600 344.6000 1230.6600 345.6500Q1229.9600 346.7000 1228.4200 346.7000L1228.4200 346.7000L1221.9800 346.7000Q1221.0000 346.7000 1220.3000 346Q1219.6000 345.3000 1219.6000 344.3200L1219.6000 344.3200Q1219.6000 342.2200 1220.3700 339.6300Q1221.1400 337.0400 1222.8200 334.6600Q1224.5000 332.2800 1227.0900 330.8100Q1229.6800 329.3400 1233.1800 329.3400L1233.1800 329.3400Q1236.9600 329.3400 1239.2000 330.5300Q1241.4400 331.7200 1243.3300 332.9800Q1245.2200 334.2400 1247.4600 334.2400L1247.4600 334.2400Q1249.2800 334.2400 1250.0500 333.1200Q1250.8200 332 1251.5200 330.9500Q1252.2200 329.9000 1253.7600 329.9000L1253.7600 329.9000L1260.2000 329.9000Q1261.3200 329.9000 1261.9500 330.6700Q1262.5800 331.4400 1262.5800 332.4200L1262.5800 332.4200Q1262.5800 334.5200 1261.8100 337.1100Q1261.0400 339.7000 1259.3600 342.0800Q1257.6800 344.4600 1255.0900 345.9300Q1252.5000 347.4000 1248.8600 347.4000ZM1322.9200 431.4000L1322.9200 431.4000Q1311.7200 431.4000 1304.0900 427.4800Q1296.4600 423.5600 1292.4700 416.4200Q1288.4800 409.2800 1287.9200 399.7600L1287.9200 399.7600Q1287.7800 397.2400 1287.7800 393.6000Q1287.7800 389.9600 1287.9200 387.4400L1287.9200 387.4400Q1288.4800 377.7800 1292.6100 370.7100Q1296.7400 363.6400 1304.3700 359.7200Q1312.0000 355.8000 1322.9200 355.8000L1322.9200 355.8000Q1333.8400 355.8000 1341.4700 359.7200Q1349.1000 363.6400 1353.2300 370.7100Q1357.3600 377.7800 1357.9200 387.4400L1357.9200 387.4400Q1358.0600 389.9600 1358.0600 393.6000Q1358.0600 397.2400 1357.9200 399.7600L1357.9200 399.7600Q1357.3600 409.2800 1353.3700 416.4200Q1349.3800 423.5600 1341.7500 427.4800Q1334.1200 431.4000 1322.9200 431.4000ZM1322.9200 417.5400L1322.9200 417.5400Q1330.3400 417.5400 1334.4000 412.8500Q1338.4600 408.1600 1338.8800 399.0600L1338.8800 399.0600Q1339.0200 396.9600 1339.0200 393.6000Q1339.0200 390.2400 1338.8800 388.1400L1338.8800 388.1400Q1338.4600 379.0400 1334.4000 374.3500Q1330.3400 369.6600 1322.9200 369.6600L1322.9200 369.6600Q1315.5000 369.6600 1311.4400 374.3500Q1307.3800 379.0400 1306.9600 388.1400L1306.9600 388.1400Q1306.8200 390.2400 1306.8200 393.6000Q1306.8200 396.9600 1306.9600 399.0600L1306.9600 399.0600Q1307.3800 408.1600 1311.4400 412.8500Q1315.5000 417.5400 1322.9200 417.5400ZM1426.8000 431.4000L1426.8000 431.4000Q1419.5200 431.4000 1413.6400 428.5300Q1407.7600 425.6600 1404.3300 420.8300Q1400.9000 416 1400.9000 409.9800L1400.9000 409.9800Q1400.9000 400.1800 1408.8800 394.3700Q1416.8600 388.5600 1429.7400 386.6000L1429.7400 386.6000L1448.9200 383.8000L1448.9200 380.8600Q1448.9200 374.9800 1445.9800 371.7600Q1443.0400 368.5400 1435.9000 368.5400L1435.9000 368.5400Q1430.8600 368.5400 1427.7100 370.5700Q1424.5600 372.6000 1423.0200 375.9600L1423.0200 375.9600Q1421.9000 377.7800 1419.8000 377.7800L1419.8000 377.7800L1408.7400 377.7800Q1407.2000 377.7800 1406.4300 376.9400Q1405.6600 376.1000 1405.6600 374.7000L1405.6600 374.7000Q1405.8000 372.4600 1407.5500 369.2400Q1409.3000 366.0200 1412.8700 363.0100Q1416.4400 360 1422.1800 357.9000Q1427.9200 355.8000 1436.0400 355.8000L1436.0400 355.8000Q1444.8600 355.8000 1450.9500 357.9700Q1457.0400 360.1400 1460.6800 363.7800Q1464.3200 367.4200 1466.0000 372.3200Q1467.6800 377.2200 1467.6800 382.6800L1467.6800 382.6800L1467.6800 426.6400Q1467.6800 428.0400 1466.7000 429.0200Q1465.7200 430 1464.3200 430L1464.3200 430L1452.9800 430Q1451.4400 430 1450.5300 429.0200Q1449.6200 428.0400 1449.6200 426.6400L1449.6200 426.6400L1449.6200 421.1800Q1447.8000 423.7000 1444.7200 426.0800Q1441.6400 428.4600 1437.2300 429.9300Q1432.8200 431.4000 1426.8000 431.4000ZM1431.5600 418.1000L1431.5600 418.1000Q1436.4600 418.1000 1440.4500 416Q1444.4400 413.9000 1446.7500 409.4900Q1449.0600 405.0800 1449.0600 398.3600L1449.0600 398.3600L1449.0600 395.4200L1435.0600 397.6600Q1426.8000 398.9200 1422.7400 401.7200Q1418.6800 404.5200 1418.6800 408.5800L1418.6800 408.5800Q1418.6800 411.6600 1420.5700 413.8300Q1422.4600 416 1425.4000 417.0500Q1428.3400 418.1000 1431.5600 418.1000ZM174.6400 596.6000L162.7400 596.6000Q161.3400 596.6000 160.3600 595.6200Q159.3800 594.6400 159.3800 593.2400L159.3800 593.2400L159.3800 500.5600Q159.3800 499.1600 160.3600 498.1800Q161.3400 497.2000 162.7400 497.2000L162.7400 497.2000L173.8000 497.2000Q175.3400 497.2000 176.2500 498.1800Q177.1600 499.1600 177.1600 500.5600L177.1600 500.5600L177.1600 506.1600Q180.5200 501.6800 185.9800 498.7400Q191.4400 495.8000 199.5600 495.8000L199.5600 495.8000Q206.9800 495.8000 212.4400 498.1800Q217.9000 500.5600 221.5400 504.9700Q225.1800 509.3800 227.1400 515.4000Q229.1000 521.4200 229.3800 528.7000L229.3800 528.7000Q229.5200 531.0800 229.5200 533.6000Q229.5200 536.1200 229.3800 538.6400L229.3800 538.6400Q229.2400 545.6400 227.2800 551.5900Q225.3200 557.5400 221.6100 561.9500Q217.9000 566.3600 212.4400 568.8800Q206.9800 571.4000 199.5600 571.4000L199.5600 571.4000Q192 571.4000 186.6800 568.6700Q181.3600 565.9400 178 561.4600L178 561.4600L178 593.2400Q178 594.6400 177.0900 595.6200Q176.1800 596.6000 174.6400 596.6000L174.6400 596.6000ZM194.3800 556.4200L194.3800 556.4200Q200.4000 556.4200 203.7600 553.8300Q207.1200 551.2400 208.6600 547.0400Q210.2000 542.8400 210.4800 537.8000L210.4800 537.8000Q210.6200 533.6000 210.4800 529.4000L210.4800 529.4000Q210.2000 524.3600 208.6600 520.1600Q207.1200 515.9600 203.7600 513.3700Q200.4000 510.7800 194.3800 510.7800L194.3800 510.7800Q188.6400 510.7800 185.0700 513.4400Q181.5000 516.1000 179.8900 520.2300Q178.2800 524.3600 178 528.7000L178 528.7000Q177.8600 531.2200 177.8600 534.0200Q177.8600 536.8200 178 539.4800L178 539.4800Q178.1400 543.6800 179.9600 547.5300Q181.7800 551.3800 185.2800 553.9000Q188.7800 556.4200 194.3800 556.4200ZM260.7400 570L248.5600 570Q247.1600 570 246.1800 569.0200Q245.2000 568.0400 245.2000 566.6400L245.2000 566.6400L245.2000 500.7000Q245.2000 499.1600 246.1800 498.1800Q247.1600 497.2000 248.5600 497.2000L248.5600 497.2000L259.9000 497.2000Q261.3000 497.2000 262.3500 498.1800Q263.4000 499.1600 263.4000 500.7000L263.4000 500.7000L263.4000 506.4400Q266.6200 501.9600 271.7300 499.5800Q276.8400 497.2000 283.5600 497.2000L283.5600 497.2000L289.3000 497.2000Q290.8400 497.2000 291.7500 498.1800Q292.6600 499.1600 292.6600 500.5600L292.6600 500.5600L292.6600 510.6400Q292.6600 512.0400 291.7500 513.0200Q290.8400 514 289.3000 514L289.3000 514L278.3800 514Q271.6600 514 267.9500 517.7100Q264.2400 521.4200 264.2400 528.1400L264.2400 528.1400L264.2400 566.6400Q264.2400 568.0400 263.2600 569.0200Q262.2800 570 260.7400 570L260.7400 570ZM335.7800 571.4000L335.7800 571.4000Q324.5800 571.4000 316.9500 567.4800Q309.3200 563.5600 305.3300 556.4200Q301.3400 549.2800 300.7800 539.7600L300.7800 539.7600Q300.6400 537.2400 300.6400 533.6000Q300.6400 529.9600 300.7800 527.4400L300.7800 527.4400Q301.3400 517.7800 305.4700 510.7100Q309.6000 503.6400 317.2300 499.7200Q324.8600 495.8000 335.7800 495.8000L335.7800 495.8000Q346.7000 495.8000 354.3300 499.7200Q361.9600 503.6400 366.0900 510.7100Q370.2200 517.7800 370.7800 527.4400L370.7800 527.4400Q370.9200 529.9600 370.9200 533.6000Q370.9200 537.2400 370.7800 539.7600L370.7800 539.7600Q370.2200 549.2800 366.2300 556.4200Q362.2400 563.5600 354.6100 567.4800Q346.9800 571.4000 335.7800 571.4000ZM335.7800 557.5400L335.7800 557.5400Q343.2000 557.5400 347.2600 552.8500Q351.3200 548.1600 351.7400 539.0600L351.7400 539.0600Q351.8800 536.9600 351.8800 533.6000Q351.8800 530.2400 351.7400 528.1400L351.7400 528.1400Q351.3200 519.0400 347.2600 514.3500Q343.2000 509.6600 335.7800 509.6600L335.7800 509.6600Q328.3600 509.6600 324.3000 514.3500Q320.2400 519.0400 319.8200 528.1400L319.8200 528.1400Q319.6800 530.2400 319.6800 533.6000Q319.6800 536.9600 319.8200 539.0600L319.8200 539.0600Q320.2400 548.1600 324.3000 552.8500Q328.3600 557.5400 335.7800 557.5400ZM419.3600 600.8000L419.3600 600.8000Q409.1400 600.8000 402.5600 598.1400Q395.9800 595.4800 392.2000 591.7000Q388.4200 587.9200 386.8100 584.2100Q385.2000 580.5000 385.0600 578.4000L385.0600 578.4000Q384.9200 577 385.9700 575.9500Q387.0200 574.9000 388.4200 574.9000L388.4200 574.9000L400.6000 574.9000Q402 574.9000 402.8400 575.5300Q403.6800 576.1600 404.2400 577.8400L404.2400 577.8400Q405.0800 579.6600 406.4800 581.7600Q407.8800 583.8600 410.7500 585.3300Q413.6200 586.8000 418.6600 586.8000L418.6600 586.8000Q423.9800 586.8000 427.6200 585.2600Q431.2600 583.7200 433.1500 580.0800Q435.0400 576.4400 435.0400 570L435.0400 570L435.0400 560.4800Q431.6800 564.5400 426.4300 567.0600Q421.1800 569.5800 413.4800 569.5800L413.4800 569.5800Q406.0600 569.5800 400.5300 567.1300Q395 564.6800 391.3600 560.2700Q387.7200 555.8600 385.8300 549.8400Q383.9400 543.8200 383.6600 536.5400L383.6600 536.5400Q383.5200 532.7600 383.6600 528.9800L383.6600 528.9800Q383.9400 521.9800 385.8300 515.9600Q387.7200 509.9400 391.3600 505.3900Q395 500.8400 400.5300 498.3200Q406.0600 495.8000 413.4800 495.8000L413.4800 495.8000Q421.4600 495.8000 426.9200 498.8100Q432.3800 501.8200 435.8800 506.3000L435.8800 506.3000L435.8800 500.7000Q435.8800 499.1600 436.8600 498.1800Q437.8400 497.2000 439.2400 497.2000L439.2400 497.2000L450.5800 497.2000Q451.9800 497.2000 452.9600 498.1800Q453.9400 499.1600 453.9400 500.7000L453.9400 500.7000L454.0800 568.1800Q454.0800 578.2600 450.3000 585.5400Q446.5200 592.8200 438.8900 596.8100Q431.2600 600.8000 419.3600 600.8000ZM418.6600 554.7400L418.6600 554.7400Q424.4000 554.7400 427.9000 552.2200Q431.4000 549.7000 433.0800 545.6400Q434.7600 541.5800 435.0400 537.3800L435.0400 537.3800Q435.1800 535.5600 435.1800 532.7600Q435.1800 529.9600 435.0400 528.2800L435.0400 528.2800Q434.7600 523.9400 433.0800 519.9500Q431.4000 515.9600 427.9000 513.3700Q424.4000 510.7800 418.6600 510.7800L418.6600 510.7800Q412.9200 510.7800 409.4200 513.3700Q405.9200 515.9600 404.4500 520.1600Q402.9800 524.3600 402.7000 529.4000L402.7000 529.4000Q402.4200 532.7600 402.7000 536.2600L402.7000 536.2600Q402.9800 541.1600 404.4500 545.4300Q405.9200 549.7000 409.4200 552.2200Q412.9200 554.7400 418.6600 554.7400ZM488.2400 570L476.0600 570Q474.6600 570 473.6800 569.0200Q472.7000 568.0400 472.7000 566.6400L472.7000 566.6400L472.7000 500.7000Q472.7000 499.1600 473.6800 498.1800Q474.6600 497.2000 476.0600 497.2000L476.0600 497.2000L487.4000 497.2000Q488.8000 497.2000 489.8500 498.1800Q490.9000 499.1600 490.9000 500.7000L490.9000 500.7000L490.9000 506.4400Q494.1200 501.9600 499.2300 499.5800Q504.3400 497.2000 511.0600 497.2000L511.0600 497.2000L516.8000 497.2000Q518.3400 497.2000 519.2500 498.1800Q520.1600 499.1600 520.1600 500.5600L520.1600 500.5600L520.1600 510.6400Q520.1600 512.0400 519.2500 513.0200Q518.3400 514 516.8000 514L516.8000 514L505.8800 514Q499.1600 514 495.4500 517.7100Q491.7400 521.4200 491.7400 528.1400L491.7400 528.1400L491.7400 566.6400Q491.7400 568.0400 490.7600 569.0200Q489.7800 570 488.2400 570L488.2400 570ZM552.2200 571.4000L552.2200 571.4000Q544.9400 571.4000 539.0600 568.5300Q533.1800 565.6600 529.7500 560.8300Q526.3200 556 526.3200 549.9800L526.3200 549.9800Q526.3200 540.1800 534.3000 534.3700Q542.2800 528.5600 555.1600 526.6000L555.1600 526.6000L574.3400 523.8000L574.3400 520.8600Q574.3400 514.9800 571.4000 511.7600Q568.4600 508.5400 561.3200 508.5400L561.3200 508.5400Q556.2800 508.5400 553.1300 510.5700Q549.9800 512.6000 548.4400 515.9600L548.4400 515.9600Q547.3200 517.7800 545.2200 517.7800L545.2200 517.7800L534.1600 517.7800Q532.6200 517.7800 531.8500 516.9400Q531.0800 516.1000 531.0800 514.7000L531.0800 514.7000Q531.2200 512.4600 532.9700 509.2400Q534.7200 506.0200 538.2900 503.0100Q541.8600 500 547.6000 497.9000Q553.3400 495.8000 561.4600 495.8000L561.4600 495.8000Q570.2800 495.8000 576.3700 497.9700Q582.4600 500.1400 586.1000 503.7800Q589.7400 507.4200 591.4200 512.3200Q593.1000 517.2200 593.1000 522.6800L593.1000 522.6800L593.1000 566.6400Q593.1000 568.0400 592.1200 569.0200Q591.1400 570 589.7400 570L589.7400 570L578.4000 570Q576.8600 570 575.9500 569.0200Q575.0400 568.0400 575.0400 566.6400L575.0400 566.6400L575.0400 561.1800Q573.2200 563.7000 570.1400 566.0800Q567.0600 568.4600 562.6500 569.9300Q558.2400 571.4000 552.2200 571.4000ZM556.9800 558.1000L556.9800 558.1000Q561.8800 558.1000 565.8700 556Q569.8600 553.9000 572.1700 549.4900Q574.4800 545.0800 574.4800 538.3600L574.4800 538.3600L574.4800 535.4200L560.4800 537.6600Q552.2200 538.9200 548.1600 541.7200Q544.1000 544.5200 544.1000 548.5800L544.1000 548.5800Q544.1000 551.6600 545.9900 553.8300Q547.8800 556 550.8200 557.0500Q553.7600 558.1000 556.9800 558.1000ZM626.1400 570L614.3800 570Q612.9800 570 612.0000 569.0200Q611.0200 568.0400 611.0200 566.6400L611.0200 566.6400L611.0200 500.5600Q611.0200 499.1600 612.0000 498.1800Q612.9800 497.2000 614.3800 497.2000L614.3800 497.2000L625.3000 497.2000Q626.7000 497.2000 627.6800 498.1800Q628.6600 499.1600 628.6600 500.5600L628.6600 500.5600L628.6600 505.3200Q631.6000 501.4000 636.5700 498.6700Q641.5400 495.9400 648.4000 495.8000L648.4000 495.8000Q664.3600 495.5200 670.6600 508.2600L670.6600 508.2600Q673.8800 502.6600 679.9700 499.2300Q686.0600 495.8000 693.4800 495.8000L693.4800 495.8000Q700.7600 495.8000 706.7100 499.1600Q712.6600 502.5200 716.0900 509.3100Q719.5200 516.1000 719.5200 526.4600L719.5200 526.4600L719.5200 566.6400Q719.5200 568.0400 718.5400 569.0200Q717.5600 570 716.1600 570L716.1600 570L704.6800 570Q703.2800 570 702.3000 569.0200Q701.3200 568.0400 701.3200 566.6400L701.3200 566.6400L701.3200 527.5800Q701.3200 521.2800 699.5000 517.5700Q697.6800 513.8600 694.6000 512.3200Q691.5200 510.7800 687.7400 510.7800L687.7400 510.7800Q684.6600 510.7800 681.5800 512.3200Q678.5000 513.8600 676.5400 517.5700Q674.5800 521.2800 674.5800 527.5800L674.5800 527.5800L674.5800 566.6400Q674.5800 568.0400 673.6000 569.0200Q672.6200 570 671.2200 570L671.2200 570L659.7400 570Q658.3400 570 657.3600 569.0200Q656.3800 568.0400 656.3800 566.6400L656.3800 566.6400L656.3800 527.5800Q656.3800 521.2800 654.4200 517.5700Q652.4600 513.8600 649.3800 512.3200Q646.3000 510.7800 642.8000 510.7800L642.8000 510.7800Q639.5800 510.7800 636.5000 512.3900Q633.4200 514 631.4600 517.6400Q629.5000 521.2800 629.5000 527.5800L629.5000 527.5800L629.5000 566.6400Q629.5000 568.0400 628.5200 569.0200Q627.5400 570 626.1400 570L626.1400 570ZM758.4400 571.4000L758.4400 571.4000Q751.1600 571.4000 745.2800 568.5300Q739.4000 565.6600 735.9700 560.8300Q732.5400 556 732.5400 549.9800L732.5400 549.9800Q732.5400 540.1800 740.5200 534.3700Q748.5000 528.5600 761.3800 526.6000L761.3800 526.6000L780.5600 523.8000L780.5600 520.8600Q780.5600 514.9800 777.6200 511.7600Q774.6800 508.5400 767.5400 508.5400L767.5400 508.5400Q762.5000 508.5400 759.3500 510.5700Q756.2000 512.6000 754.6600 515.9600L754.6600 515.9600Q753.5400 517.7800 751.4400 517.7800L751.4400 517.7800L740.3800 517.7800Q738.8400 517.7800 738.0700 516.9400Q737.3000 516.1000 737.3000 514.7000L737.3000 514.7000Q737.4400 512.4600 739.1900 509.2400Q740.9400 506.0200 744.5100 503.0100Q748.0800 500 753.8200 497.9000Q759.5600 495.8000 767.6800 495.8000L767.6800 495.8000Q776.5000 495.8000 782.5900 497.9700Q788.6800 500.1400 792.3200 503.7800Q795.9600 507.4200 797.6400 512.3200Q799.3200 517.2200 799.3200 522.6800L799.3200 522.6800L799.3200 566.6400Q799.3200 568.0400 798.3400 569.0200Q797.3600 570 795.9600 570L795.9600 570L784.6200 570Q783.0800 570 782.1700 569.0200Q781.2600 568.0400 781.2600 566.6400L781.2600 566.6400L781.2600 561.1800Q779.4400 563.7000 776.3600 566.0800Q773.2800 568.4600 768.8700 569.9300Q764.4600 571.4000 758.4400 571.4000ZM763.2000 558.1000L763.2000 558.1000Q768.1000 558.1000 772.0900 556Q776.0800 553.9000 778.3900 549.4900Q780.7000 545.0800 780.7000 538.3600L780.7000 538.3600L780.7000 535.4200L766.7000 537.6600Q758.4400 538.9200 754.3800 541.7200Q750.3200 544.5200 750.3200 548.5800L750.3200 548.5800Q750.3200 551.6600 752.2100 553.8300Q754.1000 556 757.0400 557.0500Q759.9800 558.1000 763.2000 558.1000ZM848.6000 600.8000L848.6000 600.8000Q844.6800 600.6600 841.6700 599.4000Q838.6600 598.1400 837.3300 596.4600Q836.0000 594.7800 837.4000 593.6600L837.4000 593.6600L839.7800 591.5600Q841.0400 590.4400 841.9500 590.9300Q842.8600 591.4200 844.3300 592.3300Q845.8000 593.2400 848.6000 593.2400L848.6000 593.2400Q850.7000 593.2400 852.2400 591.9100Q853.7800 590.5800 853.7800 588.4800L853.7800 588.4800Q853.7800 586.5200 852.3100 585.2600Q850.8400 584 848.6000 584L848.6000 584Q846.6400 584 845.2400 584.4900Q843.8400 584.9800 842.7200 585.1900Q841.6000 585.4000 840.4800 584.2800L840.4800 584.2800L837.9600 581.7600Q837.1200 580.7800 837.4000 579.7300Q837.6800 578.6800 838.2400 577.4200L838.2400 577.4200L841.1800 570.7000Q829.1400 568.8800 822.0000 560.6900Q814.8600 552.5000 814.4400 539.2000L814.4400 539.2000Q814.3000 537.1000 814.3000 533.6700Q814.3000 530.2400 814.4400 528L814.4400 528Q814.8600 517.7800 819.1300 510.5700Q823.4000 503.3600 831.0300 499.5800Q838.6600 495.8000 848.7400 495.8000L848.7400 495.8000Q857.7000 495.8000 864.0000 498.2500Q870.3000 500.7000 874.3600 504.5500Q878.4200 508.4000 880.4500 512.5300Q882.4800 516.6600 882.6200 520.0200L882.6200 520.0200Q882.7600 521.5600 881.7100 522.4700Q880.6600 523.3800 879.2600 523.3800L879.2600 523.3800L866.9400 523.3800Q865.5400 523.3800 864.7700 522.6800Q864.0000 521.9800 863.3000 520.5800L863.3000 520.5800Q861.2000 514.9800 857.7700 512.6700Q854.3400 510.3600 849.0200 510.3600L849.0200 510.3600Q842.0200 510.3600 837.8900 514.7700Q833.7600 519.1800 833.4800 528.7000L833.4800 528.7000Q833.2000 534.0200 833.4800 538.5000L833.4800 538.5000Q833.7600 548.1600 837.8900 552.5000Q842.0200 556.8400 849.0200 556.8400L849.0200 556.8400Q854.4800 556.8400 857.8400 554.5300Q861.2000 552.2200 863.3000 546.6200L863.3000 546.6200Q864.0000 545.2200 864.7700 544.5200Q865.5400 543.8200 866.9400 543.8200L866.9400 543.8200L879.2600 543.8200Q880.6600 543.8200 881.7100 544.7300Q882.7600 545.6400 882.6200 547.1800L882.6200 547.1800Q882.4800 550.2600 880.5200 554.3900Q878.5600 558.5200 874.6400 562.3700Q870.7200 566.2200 864.4200 568.8100Q858.1200 571.4000 849.1600 571.4000L849.1600 571.4000L846.2200 577.4200Q847.0600 577 848.5300 576.7200Q850.0000 576.4400 851.1200 576.4400L851.1200 576.4400Q856.0200 576.4400 859.0300 579.8000Q862.0400 583.1600 862.0400 588.3400L862.0400 588.3400Q862.0400 593.6600 858.5400 597.3000Q855.0400 600.9400 848.6000 600.8000ZM918.3200 571.4000L918.3200 571.4000Q911.0400 571.4000 905.1600 568.5300Q899.2800 565.6600 895.8500 560.8300Q892.4200 556 892.4200 549.9800L892.4200 549.9800Q892.4200 540.1800 900.4000 534.3700Q908.3800 528.5600 921.2600 526.6000L921.2600 526.6000L940.4400 523.8000L940.4400 520.8600Q940.4400 514.9800 937.5000 511.7600Q934.5600 508.5400 927.4200 508.5400L927.4200 508.5400Q922.3800 508.5400 919.2300 510.5700Q916.0800 512.6000 914.5400 515.9600L914.5400 515.9600Q913.4200 517.7800 911.3200 517.7800L911.3200 517.7800L900.2600 517.7800Q898.7200 517.7800 897.9500 516.9400Q897.1800 516.1000 897.1800 514.7000L897.1800 514.7000Q897.3200 512.4600 899.0700 509.2400Q900.8200 506.0200 904.3900 503.0100Q907.9600 500 913.7000 497.9000Q919.4400 495.8000 927.5600 495.8000L927.5600 495.8000Q936.3800 495.8000 942.4700 497.9700Q948.5600 500.1400 952.2000 503.7800Q955.8400 507.4200 957.5200 512.3200Q959.2000 517.2200 959.2000 522.6800L959.2000 522.6800L959.2000 566.6400Q959.2000 568.0400 958.2200 569.0200Q957.2400 570 955.8400 570L955.8400 570L944.5000 570Q942.9600 570 942.0500 569.0200Q941.1400 568.0400 941.1400 566.6400L941.1400 566.6400L941.1400 561.1800Q939.3200 563.7000 936.2400 566.0800Q933.1600 568.4600 928.7500 569.9300Q924.3400 571.4000 918.3200 571.4000ZM923.0800 558.1000L923.0800 558.1000Q927.9800 558.1000 931.9700 556Q935.9600 553.9000 938.2700 549.4900Q940.5800 545.0800 940.5800 538.3600L940.5800 538.3600L940.5800 535.4200L926.5800 537.6600Q918.3200 538.9200 914.2600 541.7200Q910.2000 544.5200 910.2000 548.5800L910.2000 548.5800Q910.2000 551.6600 912.0900 553.8300Q913.9800 556 916.9200 557.0500Q919.8600 558.1000 923.0800 558.1000ZM935.2600 487.4000L935.2600 487.4000Q931.6200 487.4000 929.3800 486.2100Q927.1400 485.0200 925.2500 483.7600Q923.3600 482.5000 921.1200 482.5000L921.1200 482.5000Q919.3000 482.5000 918.5300 483.5500Q917.7600 484.6000 917.0600 485.6500Q916.3600 486.7000 914.8200 486.7000L914.8200 486.7000L908.3800 486.7000Q907.4000 486.7000 906.7000 486Q906.0000 485.3000 906.0000 484.3200L906.0000 484.3200Q906.0000 482.2200 906.7700 479.6300Q907.5400 477.0400 909.2200 474.6600Q910.9000 472.2800 913.4900 470.8100Q916.0800 469.3400 919.5800 469.3400L919.5800 469.3400Q923.3600 469.3400 925.6000 470.5300Q927.8400 471.7200 929.7300 472.9800Q931.6200 474.2400 933.8600 474.2400L933.8600 474.2400Q935.6800 474.2400 936.4500 473.1200Q937.2200 472 937.9200 470.9500Q938.6200 469.9000 940.1600 469.9000L940.1600 469.9000L946.6000 469.9000Q947.7200 469.9000 948.3500 470.6700Q948.9800 471.4400 948.9800 472.4200L948.9800 472.4200Q948.9800 474.5200 948.2100 477.1100Q947.4400 479.7000 945.7600 482.0800Q944.0800 484.4600 941.4900 485.9300Q938.9000 487.4000 935.2600 487.4000ZM1009.3200 571.4000L1009.3200 571.4000Q998.1200 571.4000 990.4900 567.4800Q982.8600 563.5600 978.8700 556.4200Q974.8800 549.2800 974.3200 539.7600L974.3200 539.7600Q974.1800 537.2400 974.1800 533.6000Q974.1800 529.9600 974.3200 527.4400L974.3200 527.4400Q974.8800 517.7800 979.0100 510.7100Q983.1400 503.6400 990.7700 499.7200Q998.4000 495.8000 1009.3200 495.8000L1009.3200 495.8000Q1020.2400 495.8000 1027.8700 499.7200Q1035.5000 503.6400 1039.6300 510.7100Q1043.7600 517.7800 1044.3200 527.4400L1044.3200 527.4400Q1044.4600 529.9600 1044.4600 533.6000Q1044.4600 537.2400 1044.3200 539.7600L1044.3200 539.7600Q1043.7600 549.2800 1039.7700 556.4200Q1035.7800 563.5600 1028.1500 567.4800Q1020.5200 571.4000 1009.3200 571.4000ZM1009.3200 557.5400L1009.3200 557.5400Q1016.7400 557.5400 1020.8000 552.8500Q1024.8600 548.1600 1025.2800 539.0600L1025.2800 539.0600Q1025.4200 536.9600 1025.4200 533.6000Q1025.4200 530.2400 1025.2800 528.1400L1025.2800 528.1400Q1024.8600 519.0400 1020.8000 514.3500Q1016.7400 509.6600 1009.3200 509.6600L1009.3200 509.6600Q1001.9000 509.6600 997.8400 514.3500Q993.7800 519.0400 993.3600 528.1400L993.3600 528.1400Q993.2200 530.2400 993.2200 533.6000Q993.2200 536.9600 993.3600 539.0600L993.3600 539.0600Q993.7800 548.1600 997.8400 552.8500Q1001.9000 557.5400 1009.3200 557.5400ZM180.3800 711.4000L180.3800 711.4000Q173.1000 711.4000 167.2200 708.5300Q161.3400 705.6600 157.9100 700.8300Q154.4800 696 154.4800 689.9800L154.4800 689.9800Q154.4800 680.1800 162.4600 674.3700Q170.4400 668.5600 183.3200 666.6000L183.3200 666.6000L202.5000 663.8000L202.5000 660.8600Q202.5000 654.9800 199.5600 651.7600Q196.6200 648.5400 189.4800 648.5400L189.4800 648.5400Q184.4400 648.5400 181.2900 650.5700Q178.1400 652.6000 176.6000 655.9600L176.6000 655.9600Q175.4800 657.7800 173.3800 657.7800L173.3800 657.7800L162.3200 657.7800Q160.7800 657.7800 160.0100 656.9400Q159.2400 656.1000 159.2400 654.7000L159.2400 654.7000Q159.3800 652.4600 161.1300 649.2400Q162.8800 646.0200 166.4500 643.0100Q170.0200 640 175.7600 637.9000Q181.5000 635.8000 189.6200 635.8000L189.6200 635.8000Q198.4400 635.8000 204.5300 637.9700Q210.6200 640.1400 214.2600 643.7800Q217.9000 647.4200 219.5800 652.3200Q221.2600 657.2200 221.2600 662.6800L221.2600 662.6800L221.2600 706.6400Q221.2600 708.0400 220.2800 709.0200Q219.3000 710 217.9000 710L217.9000 710L206.5600 710Q205.0200 710 204.1100 709.0200Q203.2000 708.0400 203.2000 706.6400L203.2000 706.6400L203.2000 701.1800Q201.3800 703.7000 198.3000 706.0800Q195.2200 708.4600 190.8100 709.9300Q186.4000 711.4000 180.3800 711.4000ZM185.1400 698.1000L185.1400 698.1000Q190.0400 698.1000 194.0300 696Q198.0200 693.9000 200.3300 689.4900Q202.6400 685.0800 202.6400 678.3600L202.6400 678.3600L202.6400 675.4200L188.6400 677.6600Q180.3800 678.9200 176.3200 681.7200Q172.2600 684.5200 172.2600 688.5800L172.2600 688.5800Q172.2600 691.6600 174.1500 693.8300Q176.0400 696 178.9800 697.0500Q181.9200 698.1000 185.1400 698.1000ZM266.7600 711.4000L266.7600 711.4000Q258.3600 711.4000 252.4100 709.4400Q246.4600 707.4800 242.6800 704.5400Q238.9000 701.6000 237.0800 698.6600Q235.2600 695.7200 235.1200 693.7600L235.1200 693.7600Q234.9800 692.2200 236.0300 691.3100Q237.0800 690.4000 238.3400 690.4000L238.3400 690.4000L249.4000 690.4000Q249.9600 690.4000 250.3800 690.5400Q250.8000 690.6800 251.5000 691.3800L251.5000 691.3800Q253.3200 692.9200 255.3500 694.6000Q257.3800 696.2800 260.1800 697.4700Q262.9800 698.6600 267.1800 698.6600L267.1800 698.6600Q272.6400 698.6600 276.3500 696.4900Q280.0600 694.3200 280.0600 690.2600L280.0600 690.2600Q280.0600 687.3200 278.4500 685.5000Q276.8400 683.6800 272.5000 682.2100Q268.1600 680.7400 260.1800 679.0600L260.1800 679.0600Q252.3400 677.2400 247.1600 674.4400Q241.9800 671.6400 239.4600 667.4400Q236.9400 663.2400 236.9400 657.6400L236.9400 657.6400Q236.9400 652.1800 240.2300 647.2100Q243.5200 642.2400 250.0300 639.0200Q256.5400 635.8000 266.2000 635.8000L266.2000 635.8000Q273.7600 635.8000 279.3600 637.6900Q284.9600 639.5800 288.6700 642.3800Q292.3800 645.1800 294.3400 648.0500Q296.3000 650.9200 296.4400 653.0200L296.4400 653.0200Q296.5800 654.5600 295.6000 655.4700Q294.6200 656.3800 293.3600 656.3800L293.3600 656.3800L283 656.3800Q282.3000 656.3800 281.7400 656.1000Q281.1800 655.8200 280.6200 655.4000L280.6200 655.4000Q279.0800 654 277.2600 652.3900Q275.4400 650.7800 272.8500 649.6600Q270.2600 648.5400 266.0600 648.5400L266.0600 648.5400Q260.7400 648.5400 257.9400 650.8500Q255.1400 653.1600 255.1400 656.6600L255.1400 656.6600Q255.1400 659.0400 256.4700 660.7900Q257.8000 662.5400 261.8600 664.0800Q265.9200 665.6200 274.1800 667.3000L274.1800 667.3000Q283.5600 668.9800 289.0900 672.2700Q294.6200 675.5600 296.9300 679.8300Q299.2400 684.1000 299.2400 689.2800L299.2400 689.2800Q299.2400 695.5800 295.5300 700.6200Q291.8200 705.6600 284.6100 708.5300Q277.4000 711.4000 266.7600 711.4000ZM341.2400 711.4000L341.2400 711.4000Q332.8400 711.4000 326.8900 709.4400Q320.9400 707.4800 317.1600 704.5400Q313.3800 701.6000 311.5600 698.6600Q309.7400 695.7200 309.6000 693.7600L309.6000 693.7600Q309.4600 692.2200 310.5100 691.3100Q311.5600 690.4000 312.8200 690.4000L312.8200 690.4000L323.8800 690.4000Q324.4400 690.4000 324.8600 690.5400Q325.2800 690.6800 325.9800 691.3800L325.9800 691.3800Q327.8000 692.9200 329.8300 694.6000Q331.8600 696.2800 334.6600 697.4700Q337.4600 698.6600 341.6600 698.6600L341.6600 698.6600Q347.1200 698.6600 350.8300 696.4900Q354.5400 694.3200 354.5400 690.2600L354.5400 690.2600Q354.5400 687.3200 352.9300 685.5000Q351.3200 683.6800 346.9800 682.2100Q342.6400 680.7400 334.6600 679.0600L334.6600 679.0600Q326.8200 677.2400 321.6400 674.4400Q316.4600 671.6400 313.9400 667.4400Q311.4200 663.2400 311.4200 657.6400L311.4200 657.6400Q311.4200 652.1800 314.7100 647.2100Q318 642.2400 324.5100 639.0200Q331.0200 635.8000 340.6800 635.8000L340.6800 635.8000Q348.2400 635.8000 353.8400 637.6900Q359.4400 639.5800 363.1500 642.3800Q366.8600 645.1800 368.8200 648.0500Q370.7800 650.9200 370.9200 653.0200L370.9200 653.0200Q371.0600 654.5600 370.0800 655.4700Q369.1000 656.3800 367.8400 656.3800L367.8400 656.3800L357.4800 656.3800Q356.7800 656.3800 356.2200 656.1000Q355.6600 655.8200 355.1000 655.4000L355.1000 655.4000Q353.5600 654 351.7400 652.3900Q349.9200 650.7800 347.3300 649.6600Q344.7400 648.5400 340.5400 648.5400L340.5400 648.5400Q335.2200 648.5400 332.4200 650.8500Q329.6200 653.1600 329.6200 656.6600L329.6200 656.6600Q329.6200 659.0400 330.9500 660.7900Q332.2800 662.5400 336.3400 664.0800Q340.4000 665.6200 348.6600 667.3000L348.6600 667.3000Q358.0400 668.9800 363.5700 672.2700Q369.1000 675.5600 371.4100 679.8300Q373.7200 684.1000 373.7200 689.2800L373.7200 689.2800Q373.7200 695.5800 370.0100 700.6200Q366.3000 705.6600 359.0900 708.5300Q351.8800 711.4000 341.2400 711.4000ZM403.1200 710L391.5000 710Q390.1000 710 389.1200 709.0200Q388.1400 708.0400 388.1400 706.6400L388.1400 706.6400L388.1400 640.5600Q388.1400 639.1600 389.1200 638.1800Q390.1000 637.2000 391.5000 637.2000L391.5000 637.2000L403.1200 637.2000Q404.6600 637.2000 405.5700 638.1800Q406.4800 639.1600 406.4800 640.5600L406.4800 640.5600L406.4800 706.6400Q406.4800 708.0400 405.5700 709.0200Q404.6600 710 403.1200 710L403.1200 710ZM403.6800 625.1600L390.9400 625.1600Q389.5400 625.1600 388.5600 624.1800Q387.5800 623.2000 387.5800 621.8000L387.5800 621.8000L387.5800 611.7200Q387.5800 610.3200 388.5600 609.3400Q389.5400 608.3600 390.9400 608.3600L390.9400 608.3600L403.6800 608.3600Q405.2200 608.3600 406.2000 609.3400Q407.1800 610.3200 407.1800 611.7200L407.1800 611.7200L407.1800 621.8000Q407.1800 623.2000 406.2000 624.1800Q405.2200 625.1600 403.6800 625.1600L403.6800 625.1600ZM440.7800 710L428.4600 710Q427.0600 710 426.0800 709.0200Q425.1000 708.0400 425.1000 706.6400L425.1000 706.6400L425.1000 640.5600Q425.1000 639.1600 426.0800 638.1800Q427.0600 637.2000 428.4600 637.2000L428.4600 637.2000L439.9400 637.2000Q441.3400 637.2000 442.3200 638.1800Q443.3000 639.1600 443.3000 640.5600L443.3000 640.5600L443.3000 646.3000Q446.9400 641.8200 452.6100 638.8100Q458.2800 635.8000 466.6800 635.8000L466.6800 635.8000Q475.2200 635.8000 481.5200 639.6500Q487.8200 643.5000 491.2500 650.5000Q494.6800 657.5000 494.6800 667.3000L494.6800 667.3000L494.6800 706.6400Q494.6800 708.0400 493.7000 709.0200Q492.7200 710 491.3200 710L491.3200 710L479 710Q477.6000 710 476.6200 709.0200Q475.6400 708.0400 475.6400 706.6400L475.6400 706.6400L475.6400 668.1400Q475.6400 660.0200 471.6500 655.4000Q467.6600 650.7800 460.1000 650.7800L460.1000 650.7800Q452.8200 650.7800 448.4800 655.4000Q444.1400 660.0200 444.1400 668.1400L444.1400 668.1400L444.1400 706.6400Q444.1400 708.0400 443.1600 709.0200Q442.1800 710 440.7800 710L440.7800 710ZM543.9600 711.4000L543.9600 711.4000Q533.8800 711.4000 526.2500 707.6200Q518.6200 703.8400 514.3500 696.6300Q510.0800 689.4200 509.6600 679.2000L509.6600 679.2000Q509.5200 677.1000 509.5200 673.6700Q509.5200 670.2400 509.6600 668L509.6600 668Q510.0800 657.7800 514.3500 650.5700Q518.6200 643.3600 526.2500 639.5800Q533.8800 635.8000 543.9600 635.8000L543.9600 635.8000Q552.9200 635.8000 559.2200 638.2500Q565.5200 640.7000 569.5800 644.5500Q573.6400 648.4000 575.6700 652.5300Q577.7000 656.6600 577.8400 660.0200L577.8400 660.0200Q577.9800 661.5600 576.9300 662.4700Q575.8800 663.3800 574.4800 663.3800L574.4800 663.3800L562.1600 663.3800Q560.7600 663.3800 559.9900 662.6800Q559.2200 661.9800 558.5200 660.5800L558.5200 660.5800Q556.4200 654.9800 552.9900 652.6700Q549.5600 650.3600 544.2400 650.3600L544.2400 650.3600Q537.2400 650.3600 533.1100 654.7700Q528.9800 659.1800 528.7000 668.7000L528.7000 668.7000Q528.4200 674.0200 528.7000 678.5000L528.7000 678.5000Q528.9800 688.1600 533.1100 692.5000Q537.2400 696.8400 544.2400 696.8400L544.2400 696.8400Q549.7000 696.8400 553.0600 694.5300Q556.4200 692.2200 558.5200 686.6200L558.5200 686.6200Q559.2200 685.2200 559.9900 684.5200Q560.7600 683.8200 562.1600 683.8200L562.1600 683.8200L574.4800 683.8200Q575.8800 683.8200 576.9300 684.7300Q577.9800 685.6400 577.8400 687.1800L577.8400 687.1800Q577.7000 689.7000 576.5100 692.8500Q575.3200 696 572.7300 699.2900Q570.1400 702.5800 566.2200 705.3100Q562.3000 708.0400 556.7700 709.7200Q551.2400 711.4000 543.9600 711.4000ZM607.9400 710L595.7600 710Q594.3600 710 593.3800 709.0200Q592.4000 708.0400 592.4000 706.6400L592.4000 706.6400L592.4000 640.7000Q592.4000 639.1600 593.3800 638.1800Q594.3600 637.2000 595.7600 637.2000L595.7600 637.2000L607.1000 637.2000Q608.5000 637.2000 609.5500 638.1800Q610.6000 639.1600 610.6000 640.7000L610.6000 640.7000L610.6000 646.4400Q613.8200 641.9600 618.9300 639.5800Q624.0400 637.2000 630.7600 637.2000L630.7600 637.2000L636.5000 637.2000Q638.0400 637.2000 638.9500 638.1800Q639.8600 639.1600 639.8600 640.5600L639.8600 640.5600L639.8600 650.6400Q639.8600 652.0400 638.9500 653.0200Q638.0400 654 636.5000 654L636.5000 654L625.5800 654Q618.8600 654 615.1500 657.7100Q611.4400 661.4200 611.4400 668.1400L611.4400 668.1400L611.4400 706.6400Q611.4400 708.0400 610.4600 709.0200Q609.4800 710 607.9400 710L607.9400 710ZM682.9800 711.4000L682.9800 711.4000Q671.7800 711.4000 664.1500 707.4800Q656.5200 703.5600 652.5300 696.4200Q648.5400 689.2800 647.9800 679.7600L647.9800 679.7600Q647.8400 677.2400 647.8400 673.6000Q647.8400 669.9600 647.9800 667.4400L647.9800 667.4400Q648.5400 657.7800 652.6700 650.7100Q656.8000 643.6400 664.4300 639.7200Q672.0600 635.8000 682.9800 635.8000L682.9800 635.8000Q693.9000 635.8000 701.5300 639.7200Q709.1600 643.6400 713.2900 650.7100Q717.4200 657.7800 717.9800 667.4400L717.9800 667.4400Q718.1200 669.9600 718.1200 673.6000Q718.1200 677.2400 717.9800 679.7600L717.9800 679.7600Q717.4200 689.2800 713.4300 696.4200Q709.4400 703.5600 701.8100 707.4800Q694.1800 711.4000 682.9800 711.4000ZM682.9800 697.5400L682.9800 697.5400Q690.4000 697.5400 694.4600 692.8500Q698.5200 688.1600 698.9400 679.0600L698.9400 679.0600Q699.0800 676.9600 699.0800 673.6000Q699.0800 670.2400 698.9400 668.1400L698.9400 668.1400Q698.5200 659.0400 694.4600 654.3500Q690.4000 649.6600 682.9800 649.6600L682.9800 649.6600Q675.5600 649.6600 671.5000 654.3500Q667.4400 659.0400 667.0200 668.1400L667.0200 668.1400Q666.8800 670.2400 666.8800 673.6000Q666.8800 676.9600 667.0200 679.0600L667.0200 679.0600Q667.4400 688.1600 671.5000 692.8500Q675.5600 697.5400 682.9800 697.5400ZM749.3400 710L737.0200 710Q735.6200 710 734.6400 709.0200Q733.6600 708.0400 733.6600 706.6400L733.6600 706.6400L733.6600 640.5600Q733.6600 639.1600 734.6400 638.1800Q735.6200 637.2000 737.0200 637.2000L737.0200 637.2000L748.5000 637.2000Q749.9000 637.2000 750.8800 638.1800Q751.8600 639.1600 751.8600 640.5600L751.8600 640.5600L751.8600 646.3000Q755.5000 641.8200 761.1700 638.8100Q766.8400 635.8000 775.2400 635.8000L775.2400 635.8000Q783.7800 635.8000 790.0800 639.6500Q796.3800 643.5000 799.8100 650.5000Q803.2400 657.5000 803.2400 667.3000L803.2400 667.3000L803.2400 706.6400Q803.2400 708.0400 802.2600 709.0200Q801.2800 710 799.8800 710L799.8800 710L787.5600 710Q786.1600 710 785.1800 709.0200Q784.2000 708.0400 784.2000 706.6400L784.2000 706.6400L784.2000 668.1400Q784.2000 660.0200 780.2100 655.4000Q776.2200 650.7800 768.6600 650.7800L768.6600 650.7800Q761.3800 650.7800 757.0400 655.4000Q752.7000 660.0200 752.7000 668.1400L752.7000 668.1400L752.7000 706.6400Q752.7000 708.0400 751.7200 709.0200Q750.7400 710 749.3400 710L749.3400 710ZM842.1600 711.4000L842.1600 711.4000Q834.8800 711.4000 829.0000 708.5300Q823.1200 705.6600 819.6900 700.8300Q816.2600 696 816.2600 689.9800L816.2600 689.9800Q816.2600 680.1800 824.2400 674.3700Q832.2200 668.5600 845.1000 666.6000L845.1000 666.6000L864.2800 663.8000L864.2800 660.8600Q864.2800 654.9800 861.3400 651.7600Q858.4000 648.5400 851.2600 648.5400L851.2600 648.5400Q846.2200 648.5400 843.0700 650.5700Q839.9200 652.6000 838.3800 655.9600L838.3800 655.9600Q837.2600 657.7800 835.1600 657.7800L835.1600 657.7800L824.1000 657.7800Q822.5600 657.7800 821.7900 656.9400Q821.0200 656.1000 821.0200 654.7000L821.0200 654.7000Q821.1600 652.4600 822.9100 649.2400Q824.6600 646.0200 828.2300 643.0100Q831.8000 640 837.5400 637.9000Q843.2800 635.8000 851.4000 635.8000L851.4000 635.8000Q860.2200 635.8000 866.3100 637.9700Q872.4000 640.1400 876.0400 643.7800Q879.6800 647.4200 881.3600 652.3200Q883.0400 657.2200 883.0400 662.6800L883.0400 662.6800L883.0400 706.6400Q883.0400 708.0400 882.0600 709.0200Q881.0800 710 879.6800 710L879.6800 710L868.3400 710Q866.8000 710 865.8900 709.0200Q864.9800 708.0400 864.9800 706.6400L864.9800 706.6400L864.9800 701.1800Q863.1600 703.7000 860.0800 706.0800Q857.0000 708.4600 852.5900 709.9300Q848.1800 711.4000 842.1600 711.4000ZM846.9200 698.1000L846.9200 698.1000Q851.8200 698.1000 855.8100 696Q859.8000 693.9000 862.1100 689.4900Q864.4200 685.0800 864.4200 678.3600L864.4200 678.3600L864.4200 675.4200L850.4200 677.6600Q842.1600 678.9200 838.1000 681.7200Q834.0400 684.5200 834.0400 688.5800L834.0400 688.5800Q834.0400 691.6600 835.9300 693.8300Q837.8200 696 840.7600 697.0500Q843.7000 698.1000 846.9200 698.1000ZM964.3800 711.4000L964.3800 711.4000Q948.8400 711.4000 939.7400 702.4400Q930.6400 693.4800 929.9400 676.9600L929.9400 676.9600Q929.8000 675.5600 929.8000 673.3900Q929.8000 671.2200 929.9400 669.9600L929.9400 669.9600Q930.5000 659.3200 934.7700 651.6900Q939.0400 644.0600 946.6000 639.9300Q954.1600 635.8000 964.3800 635.8000L964.3800 635.8000Q975.7200 635.8000 983.4200 640.4900Q991.1200 645.1800 995.0400 653.5100Q998.9600 661.8400 998.9600 672.7600L998.9600 672.7600L998.9600 675.7000Q998.9600 677.1000 997.9800 678.0800Q997.0000 679.0600 995.4600 679.0600L995.4600 679.0600L948.9800 679.0600Q948.9800 679.0600 948.9800 679.4800Q948.9800 679.9000 948.9800 680.1800L948.9800 680.1800Q949.1200 685.0800 950.8700 689.2100Q952.6200 693.3400 956.0500 695.8600Q959.4800 698.3800 964.2400 698.3800L964.2400 698.3800Q968.1600 698.3800 970.8200 697.1900Q973.4800 696 975.1600 694.4600Q976.8400 692.9200 977.5400 691.9400L977.5400 691.9400Q978.8000 690.2600 979.5700 689.9100Q980.3400 689.5600 981.8800 689.5600L981.8800 689.5600L993.9200 689.5600Q995.3200 689.5600 996.2300 690.4000Q997.1400 691.2400 997.0000 692.5000L997.0000 692.5000Q996.8600 694.7400 994.6900 697.9600Q992.5200 701.1800 988.4600 704.2600Q984.4000 707.3400 978.3100 709.3700Q972.2200 711.4000 964.3800 711.4000ZM948.9800 666.8800L948.9800 667.3000L979.9200 667.3000L979.9200 666.8800Q979.9200 661.4200 978.1000 657.2900Q976.2800 653.1600 972.7800 650.8500Q969.2800 648.5400 964.3800 648.5400L964.3800 648.5400Q959.4800 648.5400 955.9800 650.8500Q952.4800 653.1600 950.7300 657.2900Q948.9800 661.4200 948.9800 666.8800L948.9800 666.8800ZM1060.9800 710L1049.2200 710Q1047.8200 710 1046.8400 709.0200Q1045.8600 708.0400 1045.8600 706.6400L1045.8600 706.6400L1045.8600 640.5600Q1045.8600 639.1600 1046.8400 638.1800Q1047.8200 637.2000 1049.2200 637.2000L1049.2200 637.2000L1060.1400 637.2000Q1061.5400 637.2000 1062.5200 638.1800Q1063.5000 639.1600 1063.5000 640.5600L1063.5000 640.5600L1063.5000 645.3200Q1066.4400 641.4000 1071.4100 638.6700Q1076.3800 635.9400 1083.2400 635.8000L1083.2400 635.8000Q1099.2000 635.5200 1105.5000 648.2600L1105.5000 648.2600Q1108.7200 642.6600 1114.8100 639.2300Q1120.9000 635.8000 1128.3200 635.8000L1128.3200 635.8000Q1135.6000 635.8000 1141.5500 639.1600Q1147.5000 642.5200 1150.9300 649.3100Q1154.3600 656.1000 1154.3600 666.4600L1154.3600 666.4600L1154.3600 706.6400Q1154.3600 708.0400 1153.3800 709.0200Q1152.4000 710 1151.0000 710L1151.0000 710L1139.5200 710Q1138.1200 710 1137.1400 709.0200Q1136.1600 708.0400 1136.1600 706.6400L1136.1600 706.6400L1136.1600 667.5800Q1136.1600 661.2800 1134.3400 657.5700Q1132.5200 653.8600 1129.4400 652.3200Q1126.3600 650.7800 1122.5800 650.7800L1122.5800 650.7800Q1119.5000 650.7800 1116.4200 652.3200Q1113.3400 653.8600 1111.3800 657.5700Q1109.4200 661.2800 1109.4200 667.5800L1109.4200 667.5800L1109.4200 706.6400Q1109.4200 708.0400 1108.4400 709.0200Q1107.4600 710 1106.0600 710L1106.0600 710L1094.5800 710Q1093.1800 710 1092.2000 709.0200Q1091.2200 708.0400 1091.2200 706.6400L1091.2200 706.6400L1091.2200 667.5800Q1091.2200 661.2800 1089.2600 657.5700Q1087.3000 653.8600 1084.2200 652.3200Q1081.1400 650.7800 1077.6400 650.7800L1077.6400 650.7800Q1074.4200 650.7800 1071.3400 652.3900Q1068.2600 654 1066.3000 657.6400Q1064.3400 661.2800 1064.3400 667.5800L1064.3400 667.5800L1064.3400 706.6400Q1064.3400 708.0400 1063.3600 709.0200Q1062.3800 710 1060.9800 710L1060.9800 710ZM1199.1600 711.4000L1199.1600 711.4000Q1190.6200 711.4000 1184.3900 707.5500Q1178.1600 703.7000 1174.8000 696.6300Q1171.4400 689.5600 1171.4400 679.9000L1171.4400 679.9000L1171.4400 640.5600Q1171.4400 639.1600 1172.4200 638.1800Q1173.4000 637.2000 1174.8000 637.2000L1174.8000 637.2000L1187.1200 637.2000Q1188.6600 637.2000 1189.5700 638.1800Q1190.4800 639.1600 1190.4800 640.5600L1190.4800 640.5600L1190.4800 679.0600Q1190.4800 696.4200 1205.7400 696.4200L1205.7400 696.4200Q1213.0200 696.4200 1217.2900 691.8000Q1221.5600 687.1800 1221.5600 679.0600L1221.5600 679.0600L1221.5600 640.5600Q1221.5600 639.1600 1222.5400 638.1800Q1223.5200 637.2000 1224.9200 637.2000L1224.9200 637.2000L1237.2400 637.2000Q1238.6400 637.2000 1239.6200 638.1800Q1240.6000 639.1600 1240.6000 640.5600L1240.6000 640.5600L1240.6000 706.6400Q1240.6000 708.0400 1239.6200 709.0200Q1238.6400 710 1237.2400 710L1237.2400 710L1225.9000 710Q1224.3600 710 1223.4500 709.0200Q1222.5400 708.0400 1222.5400 706.6400L1222.5400 706.6400L1222.5400 700.9000Q1218.7600 705.8000 1213.1600 708.6000Q1207.5600 711.4000 1199.1600 711.4000ZM1274.2000 710L1262.5800 710Q1261.1800 710 1260.2000 709.0200Q1259.2200 708.0400 1259.2200 706.6400L1259.2200 706.6400L1259.2200 613.9600Q1259.2200 612.5600 1260.2000 611.5800Q1261.1800 610.6000 1262.5800 610.6000L1262.5800 610.6000L1274.2000 610.6000Q1275.6000 610.6000 1276.5800 611.5800Q1277.5600 612.5600 1277.5600 613.9600L1277.5600 613.9600L1277.5600 706.6400Q1277.5600 708.0400 1276.5800 709.0200Q1275.6000 710 1274.2000 710L1274.2000 710ZM1340.4200 710L1329.0800 710Q1320.6800 710 1314.9400 707.0600Q1309.2000 704.1200 1306.4000 698.3100Q1303.6000 692.5000 1303.6000 683.8200L1303.6000 683.8200L1303.6000 652.0400L1292.5400 652.0400Q1291.1400 652.0400 1290.1600 651.0600Q1289.1800 650.0800 1289.1800 648.5400L1289.1800 648.5400L1289.1800 640.5600Q1289.1800 639.1600 1290.1600 638.1800Q1291.1400 637.2000 1292.5400 637.2000L1292.5400 637.2000L1303.6000 637.2000L1303.6000 613.9600Q1303.6000 612.5600 1304.5100 611.5800Q1305.4200 610.6000 1306.9600 610.6000L1306.9600 610.6000L1318.3000 610.6000Q1319.7000 610.6000 1320.6800 611.5800Q1321.6600 612.5600 1321.6600 613.9600L1321.6600 613.9600L1321.6600 637.2000L1339.1600 637.2000Q1340.5600 637.2000 1341.5400 638.1800Q1342.5200 639.1600 1342.5200 640.5600L1342.5200 640.5600L1342.5200 648.5400Q1342.5200 650.0800 1341.5400 651.0600Q1340.5600 652.0400 1339.1600 652.0400L1339.1600 652.0400L1321.6600 652.0400L1321.6600 682.4200Q1321.6600 688.1600 1323.6900 691.3800Q1325.7200 694.6000 1330.7600 694.6000L1330.7600 694.6000L1340.4200 694.6000Q1341.8200 694.6000 1342.8000 695.5800Q1343.7800 696.5600 1343.7800 697.9600L1343.7800 697.9600L1343.7800 706.6400Q1343.7800 708.0400 1342.8000 709.0200Q1341.8200 710 1340.4200 710L1340.4200 710ZM1371.2200 710L1359.6000 710Q1358.2000 710 1357.2200 709.0200Q1356.2400 708.0400 1356.2400 706.6400L1356.2400 706.6400L1356.2400 640.5600Q1356.2400 639.1600 1357.2200 638.1800Q1358.2000 637.2000 1359.6000 637.2000L1359.6000 637.2000L1371.2200 637.2000Q1372.7600 637.2000 1373.6700 638.1800Q1374.5800 639.1600 1374.5800 640.5600L1374.5800 640.5600L1374.5800 706.6400Q1374.5800 708.0400 1373.6700 709.0200Q1372.7600 710 1371.2200 710L1371.2200 710ZM1371.7800 625.1600L1359.0400 625.1600Q1357.6400 625.1600 1356.6600 624.1800Q1355.6800 623.2000 1355.6800 621.8000L1355.6800 621.8000L1355.6800 611.7200Q1355.6800 610.3200 1356.6600 609.3400Q1357.6400 608.3600 1359.0400 608.3600L1359.0400 608.3600L1371.7800 608.3600Q1373.3200 608.3600 1374.3000 609.3400Q1375.2800 610.3200 1375.2800 611.7200L1375.2800 611.7200L1375.2800 621.8000Q1375.2800 623.2000 1374.3000 624.1800Q1373.3200 625.1600 1371.7800 625.1600L1371.7800 625.1600ZM174.6400 876.6000L162.7400 876.6000Q161.3400 876.6000 160.3600 875.6200Q159.3800 874.6400 159.3800 873.2400L159.3800 873.2400L159.3800 780.5600Q159.3800 779.1600 160.3600 778.1800Q161.3400 777.2000 162.7400 777.2000L162.7400 777.2000L173.8000 777.2000Q175.3400 777.2000 176.2500 778.1800Q177.1600 779.1600 177.1600 780.5600L177.1600 780.5600L177.1600 786.1600Q180.5200 781.6800 185.9800 778.7400Q191.4400 775.8000 199.5600 775.8000L199.5600 775.8000Q206.9800 775.8000 212.4400 778.1800Q217.9000 780.5600 221.5400 784.9700Q225.1800 789.3800 227.1400 795.4000Q229.1000 801.4200 229.3800 808.7000L229.3800 808.7000Q229.5200 811.0800 229.5200 813.6000Q229.5200 816.1200 229.3800 818.6400L229.3800 818.6400Q229.2400 825.6400 227.2800 831.5900Q225.3200 837.5400 221.6100 841.9500Q217.9000 846.3600 212.4400 848.8800Q206.9800 851.4000 199.5600 851.4000L199.5600 851.4000Q192 851.4000 186.6800 848.6700Q181.3600 845.9400 178 841.4600L178 841.4600L178 873.2400Q178 874.6400 177.0900 875.6200Q176.1800 876.6000 174.6400 876.6000L174.6400 876.6000ZM194.3800 836.4200L194.3800 836.4200Q200.4000 836.4200 203.7600 833.8300Q207.1200 831.2400 208.6600 827.0400Q210.2000 822.8400 210.4800 817.8000L210.4800 817.8000Q210.6200 813.6000 210.4800 809.4000L210.4800 809.4000Q210.2000 804.3600 208.6600 800.1600Q207.1200 795.9600 203.7600 793.3700Q200.4000 790.7800 194.3800 790.7800L194.3800 790.7800Q188.6400 790.7800 185.0700 793.4400Q181.5000 796.1000 179.8900 800.2300Q178.2800 804.3600 178 808.7000L178 808.7000Q177.8600 811.2200 177.8600 814.0200Q177.8600 816.8200 178 819.4800L178 819.4800Q178.1400 823.6800 179.9600 827.5300Q181.7800 831.3800 185.2800 833.9000Q188.7800 836.4200 194.3800 836.4200ZM260.7400 850L248.5600 850Q247.1600 850 246.1800 849.0200Q245.2000 848.0400 245.2000 846.6400L245.2000 846.6400L245.2000 780.7000Q245.2000 779.1600 246.1800 778.1800Q247.1600 777.2000 248.5600 777.2000L248.5600 777.2000L259.9000 777.2000Q261.3000 777.2000 262.3500 778.1800Q263.4000 779.1600 263.4000 780.7000L263.4000 780.7000L263.4000 786.4400Q266.6200 781.9600 271.7300 779.5800Q276.8400 777.2000 283.5600 777.2000L283.5600 777.2000L289.3000 777.2000Q290.8400 777.2000 291.7500 778.1800Q292.6600 779.1600 292.6600 780.5600L292.6600 780.5600L292.6600 790.6400Q292.6600 792.0400 291.7500 793.0200Q290.8400 794 289.3000 794L289.3000 794L278.3800 794Q271.6600 794 267.9500 797.7100Q264.2400 801.4200 264.2400 808.1400L264.2400 808.1400L264.2400 846.6400Q264.2400 848.0400 263.2600 849.0200Q262.2800 850 260.7400 850L260.7400 850ZM335.7800 851.4000L335.7800 851.4000Q324.5800 851.4000 316.9500 847.4800Q309.3200 843.5600 305.3300 836.4200Q301.3400 829.2800 300.7800 819.7600L300.7800 819.7600Q300.6400 817.2400 300.6400 813.6000Q300.6400 809.9600 300.7800 807.4400L300.7800 807.4400Q301.3400 797.7800 305.4700 790.7100Q309.6000 783.6400 317.2300 779.7200Q324.8600 775.8000 335.7800 775.8000L335.7800 775.8000Q346.7000 775.8000 354.3300 779.7200Q361.9600 783.6400 366.0900 790.7100Q370.2200 797.7800 370.7800 807.4400L370.7800 807.4400Q370.9200 809.9600 370.9200 813.6000Q370.9200 817.2400 370.7800 819.7600L370.7800 819.7600Q370.2200 829.2800 366.2300 836.4200Q362.2400 843.5600 354.6100 847.4800Q346.9800 851.4000 335.7800 851.4000ZM335.7800 837.5400L335.7800 837.5400Q343.2000 837.5400 347.2600 832.8500Q351.3200 828.1600 351.7400 819.0600L351.7400 819.0600Q351.8800 816.9600 351.8800 813.6000Q351.8800 810.2400 351.7400 808.1400L351.7400 808.1400Q351.3200 799.0400 347.2600 794.3500Q343.2000 789.6600 335.7800 789.6600L335.7800 789.6600Q328.3600 789.6600 324.3000 794.3500Q320.2400 799.0400 319.8200 808.1400L319.8200 808.1400Q319.6800 810.2400 319.6800 813.6000Q319.6800 816.9600 319.8200 819.0600L319.8200 819.0600Q320.2400 828.1600 324.3000 832.8500Q328.3600 837.5400 335.7800 837.5400ZM417.9600 851.4000L417.9600 851.4000Q407.8800 851.4000 400.2500 847.6200Q392.6200 843.8400 388.3500 836.6300Q384.0800 829.4200 383.6600 819.2000L383.6600 819.2000Q383.5200 817.1000 383.5200 813.6700Q383.5200 810.2400 383.6600 808L383.6600 808Q384.0800 797.7800 388.3500 790.5700Q392.6200 783.3600 400.2500 779.5800Q407.8800 775.8000 417.9600 775.8000L417.9600 775.8000Q426.9200 775.8000 433.2200 778.2500Q439.5200 780.7000 443.5800 784.5500Q447.6400 788.4000 449.6700 792.5300Q451.7000 796.6600 451.8400 800.0200L451.8400 800.0200Q451.9800 801.5600 450.9300 802.4700Q449.8800 803.3800 448.4800 803.3800L448.4800 803.3800L436.1600 803.3800Q434.7600 803.3800 433.9900 802.6800Q433.2200 801.9800 432.5200 800.5800L432.5200 800.5800Q430.4200 794.9800 426.9900 792.6700Q423.5600 790.3600 418.2400 790.3600L418.2400 790.3600Q411.2400 790.3600 407.1100 794.7700Q402.9800 799.1800 402.7000 808.7000L402.7000 808.7000Q402.4200 814.0200 402.7000 818.5000L402.7000 818.5000Q402.9800 828.1600 407.1100 832.5000Q411.2400 836.8400 418.2400 836.8400L418.2400 836.8400Q423.7000 836.8400 427.0600 834.5300Q430.4200 832.2200 432.5200 826.6200L432.5200 826.6200Q433.2200 825.2200 433.9900 824.5200Q434.7600 823.8200 436.1600 823.8200L436.1600 823.8200L448.4800 823.8200Q449.8800 823.8200 450.9300 824.7300Q451.9800 825.6400 451.8400 827.1800L451.8400 827.1800Q451.7000 829.7000 450.5100 832.8500Q449.3200 836 446.7300 839.2900Q444.1400 842.5800 440.2200 845.3100Q436.3000 848.0400 430.7700 849.7200Q425.2400 851.4000 417.9600 851.4000ZM497.7600 851.4000L497.7600 851.4000Q482.2200 851.4000 473.1200 842.4400Q464.0200 833.4800 463.3200 816.9600L463.3200 816.9600Q463.1800 815.5600 463.1800 813.3900Q463.1800 811.2200 463.3200 809.9600L463.3200 809.9600Q463.8800 799.3200 468.1500 791.6900Q472.4200 784.0600 479.9800 779.9300Q487.5400 775.8000 497.7600 775.8000L497.7600 775.8000Q509.1000 775.8000 516.8000 780.4900Q524.5000 785.1800 528.4200 793.5100Q532.3400 801.8400 532.3400 812.7600L532.3400 812.7600L532.3400 815.7000Q532.3400 817.1000 531.3600 818.0800Q530.3800 819.0600 528.8400 819.0600L528.8400 819.0600L482.3600 819.0600Q482.3600 819.0600 482.3600 819.4800Q482.3600 819.9000 482.3600 820.1800L482.3600 820.1800Q482.5000 825.0800 484.2500 829.2100Q486 833.3400 489.4300 835.8600Q492.8600 838.3800 497.6200 838.3800L497.6200 838.3800Q501.5400 838.3800 504.2000 837.1900Q506.8600 836 508.5400 834.4600Q510.2200 832.9200 510.9200 831.9400L510.9200 831.9400Q512.1800 830.2600 512.9500 829.9100Q513.7200 829.5600 515.2600 829.5600L515.2600 829.5600L527.3000 829.5600Q528.7000 829.5600 529.6100 830.4000Q530.5200 831.2400 530.3800 832.5000L530.3800 832.5000Q530.2400 834.7400 528.0700 837.9600Q525.9000 841.1800 521.8400 844.2600Q517.7800 847.3400 511.6900 849.3700Q505.6000 851.4000 497.7600 851.4000ZM482.3600 806.8800L482.3600 807.3000L513.3000 807.3000L513.3000 806.8800Q513.3000 801.4200 511.4800 797.2900Q509.6600 793.1600 506.1600 790.8500Q502.6600 788.5400 497.7600 788.5400L497.7600 788.5400Q492.8600 788.5400 489.3600 790.8500Q485.8600 793.1600 484.1100 797.2900Q482.3600 801.4200 482.3600 806.8800L482.3600 806.8800ZM574.7600 851.4000L574.7600 851.4000Q566.3600 851.4000 560.4100 849.4400Q554.4600 847.4800 550.6800 844.5400Q546.9000 841.6000 545.0800 838.6600Q543.2600 835.7200 543.1200 833.7600L543.1200 833.7600Q542.9800 832.2200 544.0300 831.3100Q545.0800 830.4000 546.3400 830.4000L546.3400 830.4000L557.4000 830.4000Q557.9600 830.4000 558.3800 830.5400Q558.8000 830.6800 559.5000 831.3800L559.5000 831.3800Q561.3200 832.9200 563.3500 834.6000Q565.3800 836.2800 568.1800 837.4700Q570.9800 838.6600 575.1800 838.6600L575.1800 838.6600Q580.6400 838.6600 584.3500 836.4900Q588.0600 834.3200 588.0600 830.2600L588.0600 830.2600Q588.0600 827.3200 586.4500 825.5000Q584.8400 823.6800 580.5000 822.2100Q576.1600 820.7400 568.1800 819.0600L568.1800 819.0600Q560.3400 817.2400 555.1600 814.4400Q549.9800 811.6400 547.4600 807.4400Q544.9400 803.2400 544.9400 797.6400L544.9400 797.6400Q544.9400 792.1800 548.2300 787.2100Q551.5200 782.2400 558.0300 779.0200Q564.5400 775.8000 574.2000 775.8000L574.2000 775.8000Q581.7600 775.8000 587.3600 777.6900Q592.9600 779.5800 596.6700 782.3800Q600.3800 785.1800 602.3400 788.0500Q604.3000 790.9200 604.4400 793.0200L604.4400 793.0200Q604.5800 794.5600 603.6000 795.4700Q602.6200 796.3800 601.3600 796.3800L601.3600 796.3800L591 796.3800Q590.3000 796.3800 589.7400 796.1000Q589.1800 795.8200 588.6200 795.4000L588.6200 795.4000Q587.0800 794 585.2600 792.3900Q583.4400 790.7800 580.8500 789.6600Q578.2600 788.5400 574.0600 788.5400L574.0600 788.5400Q568.7400 788.5400 565.9400 790.8500Q563.1400 793.1600 563.1400 796.6600L563.1400 796.6600Q563.1400 799.0400 564.4700 800.7900Q565.8000 802.5400 569.8600 804.0800Q573.9200 805.6200 582.1800 807.3000L582.1800 807.3000Q591.5600 808.9800 597.0900 812.2700Q602.6200 815.5600 604.9300 819.8300Q607.2400 824.1000 607.2400 829.2800L607.2400 829.2800Q607.2400 835.5800 603.5300 840.6200Q599.8200 845.6600 592.6100 848.5300Q585.4000 851.4000 574.7600 851.4000ZM649.2400 851.4000L649.2400 851.4000Q640.8400 851.4000 634.8900 849.4400Q628.9400 847.4800 625.1600 844.5400Q621.3800 841.6000 619.5600 838.6600Q617.7400 835.7200 617.6000 833.7600L617.6000 833.7600Q617.4600 832.2200 618.5100 831.3100Q619.5600 830.4000 620.8200 830.4000L620.8200 830.4000L631.8800 830.4000Q632.4400 830.4000 632.8600 830.5400Q633.2800 830.6800 633.9800 831.3800L633.9800 831.3800Q635.8000 832.9200 637.8300 834.6000Q639.8600 836.2800 642.6600 837.4700Q645.4600 838.6600 649.6600 838.6600L649.6600 838.6600Q655.1200 838.6600 658.8300 836.4900Q662.5400 834.3200 662.5400 830.2600L662.5400 830.2600Q662.5400 827.3200 660.9300 825.5000Q659.3200 823.6800 654.9800 822.2100Q650.6400 820.7400 642.6600 819.0600L642.6600 819.0600Q634.8200 817.2400 629.6400 814.4400Q624.4600 811.6400 621.9400 807.4400Q619.4200 803.2400 619.4200 797.6400L619.4200 797.6400Q619.4200 792.1800 622.7100 787.2100Q626.0000 782.2400 632.5100 779.0200Q639.0200 775.8000 648.6800 775.8000L648.6800 775.8000Q656.2400 775.8000 661.8400 777.6900Q667.4400 779.5800 671.1500 782.3800Q674.8600 785.1800 676.8200 788.0500Q678.7800 790.9200 678.9200 793.0200L678.9200 793.0200Q679.0600 794.5600 678.0800 795.4700Q677.1000 796.3800 675.8400 796.3800L675.8400 796.3800L665.4800 796.3800Q664.7800 796.3800 664.2200 796.1000Q663.6600 795.8200 663.1000 795.4000L663.1000 795.4000Q661.5600 794 659.7400 792.3900Q657.9200 790.7800 655.3300 789.6600Q652.7400 788.5400 648.5400 788.5400L648.5400 788.5400Q643.2200 788.5400 640.4200 790.8500Q637.6200 793.1600 637.6200 796.6600L637.6200 796.6600Q637.6200 799.0400 638.9500 800.7900Q640.2800 802.5400 644.3400 804.0800Q648.4000 805.6200 656.6600 807.3000L656.6600 807.3000Q666.0400 808.9800 671.5700 812.2700Q677.1000 815.5600 679.4100 819.8300Q681.7200 824.1000 681.7200 829.2800L681.7200 829.2800Q681.7200 835.5800 678.0100 840.6200Q674.3000 845.6600 667.0900 848.5300Q659.8800 851.4000 649.2400 851.4000ZM728.3400 851.4000L728.3400 851.4000Q717.1400 851.4000 709.5100 847.4800Q701.8800 843.5600 697.8900 836.4200Q693.9000 829.2800 693.3400 819.7600L693.3400 819.7600Q693.2000 817.2400 693.2000 813.6000Q693.2000 809.9600 693.3400 807.4400L693.3400 807.4400Q693.9000 797.7800 698.0300 790.7100Q702.1600 783.6400 709.7900 779.7200Q717.4200 775.8000 728.3400 775.8000L728.3400 775.8000Q739.2600 775.8000 746.8900 779.7200Q754.5200 783.6400 758.6500 790.7100Q762.7800 797.7800 763.3400 807.4400L763.3400 807.4400Q763.4800 809.9600 763.4800 813.6000Q763.4800 817.2400 763.3400 819.7600L763.3400 819.7600Q762.7800 829.2800 758.7900 836.4200Q754.8000 843.5600 747.1700 847.4800Q739.5400 851.4000 728.3400 851.4000ZM728.3400 837.5400L728.3400 837.5400Q735.7600 837.5400 739.8200 832.8500Q743.8800 828.1600 744.3000 819.0600L744.3000 819.0600Q744.4400 816.9600 744.4400 813.6000Q744.4400 810.2400 744.3000 808.1400L744.3000 808.1400Q743.8800 799.0400 739.8200 794.3500Q735.7600 789.6600 728.3400 789.6600L728.3400 789.6600Q720.9200 789.6600 716.8600 794.3500Q712.8000 799.0400 712.3800 808.1400L712.3800 808.1400Q712.2400 810.2400 712.2400 813.6000Q712.2400 816.9600 712.3800 819.0600L712.3800 819.0600Q712.8000 828.1600 716.8600 832.8500Q720.9200 837.5400 728.3400 837.5400ZM806.6000 851.4000L806.6000 851.4000Q798.2000 851.4000 792.2500 849.4400Q786.3000 847.4800 782.5200 844.5400Q778.7400 841.6000 776.9200 838.6600Q775.1000 835.7200 774.9600 833.7600L774.9600 833.7600Q774.8200 832.2200 775.8700 831.3100Q776.9200 830.4000 778.1800 830.4000L778.1800 830.4000L789.2400 830.4000Q789.8000 830.4000 790.2200 830.5400Q790.6400 830.6800 791.3400 831.3800L791.3400 831.3800Q793.1600 832.9200 795.1900 834.6000Q797.2200 836.2800 800.0200 837.4700Q802.8200 838.6600 807.0200 838.6600L807.0200 838.6600Q812.4800 838.6600 816.1900 836.4900Q819.9000 834.3200 819.9000 830.2600L819.9000 830.2600Q819.9000 827.3200 818.2900 825.5000Q816.6800 823.6800 812.3400 822.2100Q808.0000 820.7400 800.0200 819.0600L800.0200 819.0600Q792.1800 817.2400 787.0000 814.4400Q781.8200 811.6400 779.3000 807.4400Q776.7800 803.2400 776.7800 797.6400L776.7800 797.6400Q776.7800 792.1800 780.0700 787.2100Q783.3600 782.2400 789.8700 779.0200Q796.3800 775.8000 806.0400 775.8000L806.0400 775.8000Q813.6000 775.8000 819.2000 777.6900Q824.8000 779.5800 828.5100 782.3800Q832.2200 785.1800 834.1800 788.0500Q836.1400 790.9200 836.2800 793.0200L836.2800 793.0200Q836.4200 794.5600 835.4400 795.4700Q834.4600 796.3800 833.2000 796.3800L833.2000 796.3800L822.8400 796.3800Q822.1400 796.3800 821.5800 796.1000Q821.0200 795.8200 820.4600 795.4000L820.4600 795.4000Q818.9200 794 817.1000 792.3900Q815.2800 790.7800 812.6900 789.6600Q810.1000 788.5400 805.9000 788.5400L805.9000 788.5400Q800.5800 788.5400 797.7800 790.8500Q794.9800 793.1600 794.9800 796.6600L794.9800 796.6600Q794.9800 799.0400 796.3100 800.7900Q797.6400 802.5400 801.7000 804.0800Q805.7600 805.6200 814.0200 807.3000L814.0200 807.3000Q823.4000 808.9800 828.9300 812.2700Q834.4600 815.5600 836.7700 819.8300Q839.0800 824.1000 839.0800 829.2800L839.0800 829.2800Q839.0800 835.5800 835.3700 840.6200Q831.6600 845.6600 824.4500 848.5300Q817.2400 851.4000 806.6000 851.4000Z" id="title"/></g></svg>