<svg xmlns="http://www.w3.org/2000/svg" version="1.1" xmlns:xlink="http://www.w3.org/1999/xlink" xmlns:svgjs="http://svgjs.dev/svgjs" viewBox="0 0 1920 1080" id="593d1d08-ae09-4f93-afe5-4c06d2d95e5f"><g><rect width="1920" height="1080" fill="#4da1a9"/></g><g fill="#5c5526"><path d="M2219.67 2061.38C2085.91 1942.55 2115.88 1778.23 2142.62 1632.97C2170.04 1482.82 2181.31 1386.85 2104.73 1318.82C2027.64 1250.34 1933.66 1272.83 1788.31 1318.21C1647.21 1361.88 1487.56 1411 1353.8 1292.17C1220.04 1173.34 1250.01 1009.02 1276.75 863.756C1304.17 713.615 1315.44 617.645 1238.86 549.613C1161.77 481.128 1067.8 503.624 922.442 548.997C781.341 592.667 621.694 641.789 487.934 522.96C354.174 404.132 384.144 239.81 410.885 94.5462C438.817 -55.1418 450.084 -151.112 372.993 -219.597L454.193 -311C587.953 -192.172 557.983 -27.8497 531.242 117.414C503.821 267.555 492.553 363.526 569.134 431.557C646.224 500.042 740.199 477.546 885.553 432.173C1026.65 388.503 1185.79 338.928 1320.06 458.21C1453.82 577.039 1423.85 741.36 1397.11 886.624C1369.69 1036.77 1358.42 1132.74 1435 1200.77C1512.09 1269.25 1606.07 1246.76 1751.42 1201.38C1892.52 1157.71 2051.66 1108.14 2185.93 1227.42C2320.2 1346.7 2289.72 1510.57 2262.98 1655.83C2235.56 1805.98 2224.29 1901.95 2300.87 1969.98L2219.67 2061.38Z"/></g><g fill="#ffffff" opacity="0.2"><path d="M15.5862 1108.56C24.7013 1117.67 39.4799 1117.67 48.5951 1108.56C57.7103 1099.44 57.7103 1084.66 48.5951 1075.55C39.4799 1066.43 24.7013 1066.43 15.5861 1075.55C6.47092 1084.66 6.47098 1099.44 15.5862 1108.56Z"/><path d="M14.9511 953.037C24.0663 962.152 38.8449 962.152 47.9601 953.037C57.0752 943.922 57.0752 929.143 47.9601 920.028C38.8449 910.913 24.0663 910.913 14.9511 920.028C5.8359 929.143 5.83591 943.922 14.9511 953.037Z"/><path d="M93.0303 1031.12C102.145 1040.23 116.924 1040.23 126.039 1031.12C135.154 1022 135.154 1007.22 126.039 998.106C116.924 988.991 102.145 988.991 93.0303 998.106C83.9151 1007.22 83.9151 1022 93.0303 1031.12Z"/><path d="M170.474 1108.56C179.589 1117.68 194.368 1117.68 203.483 1108.56C212.598 1099.45 212.598 1084.67 203.483 1075.56C194.368 1066.44 179.589 1066.44 170.474 1075.56C161.359 1084.67 161.359 1099.45 170.474 1108.56Z"/><path d="M93.03 874.955C102.145 884.07 116.924 884.07 126.039 874.955C135.154 865.84 135.154 851.061 126.039 841.946C116.924 832.831 102.145 832.831 93.03 841.946C83.9148 851.061 83.9148 865.84 93.03 874.955Z"/><path d="M171.109 953.033C180.224 962.148 195.003 962.148 204.118 953.033C213.233 943.918 213.233 929.139 204.118 920.024C195.003 910.909 180.224 910.909 171.109 920.024C161.994 929.139 161.994 943.918 171.109 953.033Z"/><path d="M248.553 1030.48C257.668 1039.6 272.447 1039.6 281.562 1030.48C290.677 1021.37 290.677 1006.59 281.562 997.473C272.447 988.358 257.668 988.358 248.553 997.473C239.438 1006.59 239.438 1021.37 248.553 1030.48Z"/><path d="M326.632 1108.56C335.748 1117.67 350.526 1117.67 359.641 1108.56C368.757 1099.44 368.757 1084.66 359.641 1075.55C350.526 1066.43 335.748 1066.43 326.632 1075.55C317.517 1084.66 317.517 1099.44 326.632 1108.56Z"/><path d="M171.109 796.881C180.224 805.996 195.003 805.996 204.118 796.881C213.233 787.766 213.233 772.987 204.118 763.872C195.003 754.756 180.224 754.757 171.109 763.872C161.994 772.987 161.994 787.766 171.109 796.881Z"/><path d="M249.188 874.959C258.303 884.074 273.082 884.074 282.197 874.959C291.312 865.844 291.312 851.065 282.197 841.95C273.082 832.835 258.303 832.835 249.188 841.95C240.073 851.065 240.073 865.844 249.188 874.959Z"/><path d="M326.632 952.408C335.747 961.523 350.526 961.523 359.641 952.408C368.756 943.293 368.756 928.514 359.641 919.399C350.526 910.284 335.747 910.284 326.632 919.399C317.517 928.514 317.517 943.293 326.632 952.408Z"/><path d="M404.711 1030.48C413.827 1039.6 428.605 1039.6 437.72 1030.48C446.836 1021.37 446.836 1006.59 437.72 997.473C428.605 988.358 413.827 988.358 404.711 997.473C395.596 1006.59 395.596 1021.37 404.711 1030.48Z"/><path d="M482.155 1107.93C491.27 1117.04 506.049 1117.04 515.164 1107.93C524.279 1098.81 524.279 1084.03 515.164 1074.92C506.049 1065.8 491.27 1065.8 482.155 1074.92C473.04 1084.03 473.04 1098.81 482.155 1107.93Z"/><path d="M249.188 718.799C258.303 727.914 273.082 727.914 282.197 718.799C291.312 709.683 291.312 694.905 282.197 685.79C273.082 676.674 258.303 676.674 249.188 685.79C240.073 694.905 240.073 709.683 249.188 718.799Z"/><path d="M327.267 796.877C336.382 805.992 351.161 805.992 360.276 796.877C369.391 787.762 369.391 772.983 360.276 763.868C351.161 754.753 336.382 754.753 327.267 763.868C318.152 772.983 318.152 787.762 327.267 796.877Z"/><path d="M404.711 874.326C413.826 883.441 428.605 883.441 437.72 874.326C446.835 865.211 446.835 850.432 437.72 841.317C428.605 832.202 413.826 832.202 404.711 841.317C395.596 850.432 395.596 865.211 404.711 874.326Z"/><path d="M482.79 952.4C491.906 961.515 506.684 961.515 515.799 952.4C524.914 943.285 524.914 928.506 515.799 919.391C506.684 910.276 491.905 910.276 482.79 919.391C473.675 928.506 473.675 943.285 482.79 952.4Z"/><path d="M560.234 1029.85C569.349 1038.96 584.128 1038.96 593.243 1029.85C602.358 1020.73 602.358 1005.95 593.243 996.837C584.128 987.721 569.349 987.721 560.234 996.837C551.119 1005.95 551.119 1020.73 560.234 1029.85Z"/><path d="M638.313 1107.93C647.429 1117.04 662.207 1117.04 671.322 1107.93C680.438 1098.81 680.438 1084.03 671.322 1074.92C662.207 1065.8 647.429 1065.8 638.313 1074.92C629.198 1084.03 629.198 1098.81 638.313 1107.93Z"/><path d="M326.632 641.353C335.747 650.469 350.526 650.469 359.641 641.353C368.756 632.238 368.756 617.46 359.641 608.344C350.526 599.229 335.747 599.229 326.632 608.344C317.517 617.46 317.517 632.238 326.632 641.353Z"/><path d="M404.711 719.431C413.827 728.547 428.605 728.547 437.72 719.431C446.835 710.316 446.836 695.538 437.72 686.422C428.605 677.307 413.826 677.307 404.711 686.423C395.596 695.538 395.596 710.316 404.711 719.431Z"/><path d="M482.155 796.881C491.27 805.996 506.049 805.996 515.164 796.881C524.279 787.766 524.279 772.987 515.164 763.872C506.049 754.757 491.27 754.757 482.155 763.872C473.04 772.987 473.04 787.766 482.155 796.881Z"/><path d="M560.234 874.955C569.35 884.07 584.128 884.07 593.243 874.955C602.359 865.84 602.359 851.061 593.243 841.946C584.128 832.831 569.35 832.831 560.234 841.946C551.119 851.061 551.119 865.84 560.234 874.955Z"/><path d="M637.678 952.4C646.793 961.515 661.572 961.515 670.687 952.4C679.802 943.285 679.802 928.506 670.687 919.391C661.572 910.276 646.793 910.276 637.678 919.391C628.563 928.506 628.563 943.285 637.678 952.4Z"/><path d="M715.758 1030.48C724.873 1039.6 739.651 1039.6 748.767 1030.48C757.882 1021.37 757.882 1006.59 748.767 997.473C739.651 988.358 724.873 988.358 715.758 997.473C706.642 1006.59 706.642 1021.37 715.758 1030.48Z"/><path d="M793.837 1108.56C802.952 1117.67 817.731 1117.67 826.846 1108.56C835.961 1099.44 835.961 1084.66 826.846 1075.55C817.731 1066.43 802.952 1066.43 793.837 1075.55C784.722 1084.66 784.722 1099.44 793.837 1108.56Z"/><path d="M404.71 563.279C413.825 572.394 428.604 572.394 437.719 563.279C446.834 554.164 446.834 539.385 437.719 530.27C428.604 521.155 413.825 521.155 404.71 530.27C395.595 539.385 395.595 554.164 404.71 563.279Z"/><path d="M482.789 641.357C491.904 650.472 506.683 650.472 515.798 641.357C524.913 632.242 524.913 617.463 515.798 608.348C506.683 599.233 491.904 599.233 482.789 608.348C473.674 617.463 473.674 632.242 482.789 641.357Z"/><path d="M560.233 718.806C569.348 727.922 584.127 727.922 593.242 718.806C602.357 709.691 602.357 694.913 593.242 685.797C584.127 676.682 569.348 676.682 560.233 685.797C551.118 694.913 551.118 709.691 560.233 718.806Z"/><path d="M638.312 796.881C647.427 805.996 662.206 805.996 671.321 796.881C680.436 787.765 680.436 772.987 671.321 763.872C662.206 754.757 647.427 754.756 638.312 763.872C629.197 772.987 629.197 787.765 638.312 796.881Z"/><path d="M715.756 874.326C724.871 883.441 739.65 883.441 748.765 874.326C757.88 865.211 757.88 850.432 748.765 841.317C739.65 832.202 724.871 832.202 715.756 841.317C706.641 850.432 706.641 865.211 715.756 874.326Z"/><path d="M793.835 952.408C802.95 961.523 817.729 961.523 826.844 952.408C835.959 943.293 835.959 928.514 826.844 919.399C817.729 910.284 802.95 910.284 793.835 919.399C784.72 928.514 784.72 943.293 793.835 952.408Z"/><path d="M871.914 1030.48C881.03 1039.6 895.808 1039.6 904.923 1030.48C914.039 1021.37 914.039 1006.59 904.923 997.473C895.808 988.358 881.03 988.358 871.914 997.473C862.799 1006.59 862.799 1021.37 871.914 1030.48Z"/><path d="M949.358 1107.93C958.473 1117.05 973.252 1117.05 982.367 1107.93C991.482 1098.82 991.482 1084.04 982.367 1074.92C973.252 1065.81 958.473 1065.81 949.358 1074.92C940.243 1084.04 940.243 1098.82 949.358 1107.93Z"/><path d="M482.79 485.193C491.905 494.308 506.684 494.308 515.799 485.193C524.914 476.078 524.914 461.299 515.799 452.184C506.684 443.069 491.905 443.069 482.79 452.184C473.675 461.299 473.675 476.078 482.79 485.193Z"/><path d="M560.869 563.271C569.984 572.386 584.763 572.386 593.878 563.271C602.993 554.156 602.993 539.377 593.878 530.262C584.763 521.147 569.984 521.147 560.869 530.262C551.754 539.377 551.754 554.156 560.869 563.271Z"/><path d="M638.313 640.721C647.428 649.836 662.207 649.836 671.322 640.721C680.437 631.605 680.437 616.827 671.322 607.712C662.207 598.596 647.428 598.596 638.313 607.712C629.198 616.827 629.198 631.605 638.313 640.721Z"/><path d="M716.392 718.795C725.508 727.91 740.286 727.91 749.401 718.795C758.516 709.68 758.516 694.901 749.401 685.786C740.286 676.671 725.507 676.671 716.392 685.786C707.277 694.901 707.277 709.68 716.392 718.795Z"/><path d="M793.836 796.24C802.951 805.355 817.73 805.355 826.845 796.24C835.96 787.125 835.96 772.346 826.845 763.231C817.73 754.116 802.951 754.116 793.836 763.231C784.721 772.346 784.721 787.125 793.836 796.24Z"/><path d="M871.915 874.322C881.031 883.437 895.809 883.437 904.924 874.322C914.04 865.207 914.04 850.428 904.924 841.313C895.809 832.198 881.031 832.198 871.915 841.313C862.8 850.428 862.8 865.207 871.915 874.322Z"/><path d="M949.995 952.396C959.11 961.511 973.888 961.512 983.004 952.396C992.119 943.281 992.119 928.502 983.004 919.387C973.888 910.272 959.11 910.272 949.995 919.387C940.879 928.502 940.879 943.281 949.995 952.396Z"/><path d="M1027.44 1029.85C1036.55 1038.96 1051.33 1038.96 1060.45 1029.85C1069.56 1020.73 1069.56 1005.95 1060.45 996.837C1051.33 987.721 1036.55 987.721 1027.44 996.837C1018.32 1005.95 1018.32 1020.73 1027.44 1029.85Z"/><path d="M1105.52 1107.92C1114.63 1117.04 1129.41 1117.04 1138.53 1107.92C1147.64 1098.81 1147.64 1084.03 1138.53 1074.91C1129.41 1065.8 1114.63 1065.8 1105.52 1074.91C1096.4 1084.03 1096.4 1098.81 1105.52 1107.92Z"/><path d="M560.869 407.115C569.984 416.23 584.763 416.23 593.878 407.115C602.993 398 602.993 383.221 593.878 374.106C584.763 364.991 569.984 364.991 560.869 374.106C551.754 383.221 551.754 398 560.869 407.115Z"/><path d="M638.948 485.193C648.063 494.308 662.842 494.308 671.957 485.193C681.072 476.078 681.072 461.299 671.957 452.184C662.842 443.069 648.063 443.069 638.948 452.184C629.833 461.299 629.833 476.078 638.948 485.193Z"/><path d="M716.392 562.642C725.507 571.758 740.286 571.758 749.401 562.642C758.516 553.527 758.516 538.749 749.401 529.633C740.286 520.518 725.507 520.518 716.392 529.633C707.277 538.749 707.277 553.527 716.392 562.642Z"/><path d="M794.471 640.717C803.586 649.832 818.365 649.832 827.48 640.717C836.595 631.601 836.595 616.823 827.48 607.708C818.365 598.592 803.586 598.592 794.471 607.708C785.356 616.823 785.356 631.601 794.471 640.717Z"/><path d="M871.915 718.162C881.03 727.277 895.809 727.277 904.924 718.162C914.039 709.047 914.039 694.268 904.924 685.153C895.809 676.038 881.03 676.038 871.915 685.153C862.8 694.268 862.8 709.047 871.915 718.162Z"/><path d="M949.994 796.244C959.11 805.359 973.888 805.359 983.003 796.244C992.119 787.129 992.119 772.35 983.003 763.235C973.888 754.12 959.11 754.12 949.994 763.235C940.879 772.35 940.879 787.129 949.994 796.244Z"/><path d="M1028.07 874.318C1037.19 883.433 1051.97 883.433 1061.08 874.318C1070.2 865.203 1070.2 850.424 1061.08 841.309C1051.97 832.194 1037.19 832.194 1028.07 841.309C1018.96 850.424 1018.96 865.203 1028.07 874.318Z"/><path d="M1105.52 951.767C1114.63 960.883 1129.41 960.883 1138.53 951.767C1147.64 942.652 1147.64 927.874 1138.53 918.758C1129.41 909.643 1114.63 909.643 1105.52 918.758C1096.4 927.874 1096.4 942.652 1105.52 951.767Z"/><path d="M1183.6 1029.85C1192.71 1038.96 1207.49 1038.96 1216.61 1029.85C1225.72 1020.73 1225.72 1005.95 1216.61 996.837C1207.49 987.721 1192.71 987.721 1183.6 996.837C1174.48 1005.95 1174.48 1020.73 1183.6 1029.85Z"/><path d="M1261.04 1107.29C1270.16 1116.4 1284.93 1116.4 1294.05 1107.29C1303.16 1098.17 1303.16 1083.39 1294.05 1074.28C1284.93 1065.16 1270.16 1065.16 1261.04 1074.28C1251.93 1083.39 1251.93 1098.17 1261.04 1107.29Z"/><path d="M638.313 329.678C647.428 338.793 662.207 338.793 671.322 329.678C680.437 320.562 680.437 305.784 671.322 296.669C662.207 287.553 647.428 287.553 638.313 296.669C629.198 305.784 629.198 320.562 638.313 329.678Z"/><path d="M716.392 407.756C725.507 416.871 740.285 416.871 749.401 407.756C758.516 398.64 758.516 383.862 749.401 374.747C740.285 365.631 725.507 365.632 716.392 374.747C707.276 383.862 707.276 398.64 716.392 407.756Z"/><path d="M793.836 485.205C802.951 494.32 817.729 494.32 826.845 485.205C835.96 476.09 835.96 461.311 826.845 452.196C817.729 443.081 802.951 443.081 793.836 452.196C784.72 461.311 784.72 476.09 793.836 485.205Z"/><path d="M871.915 563.279C881.03 572.394 895.809 572.394 904.924 563.279C914.039 554.164 914.039 539.385 904.924 530.27C895.809 521.155 881.03 521.155 871.915 530.27C862.8 539.385 862.8 554.164 871.915 563.279Z"/><path d="M949.359 640.724C958.474 649.84 973.252 649.84 982.368 640.724C991.483 631.609 991.483 616.831 982.368 607.715C973.252 598.6 958.474 598.6 949.359 607.715C940.243 616.831 940.243 631.609 949.359 640.724Z"/><path d="M1027.44 718.806C1036.55 727.922 1051.33 727.922 1060.45 718.806C1069.56 709.691 1069.56 694.913 1060.45 685.797C1051.33 676.682 1036.55 676.682 1027.44 685.797C1018.32 694.913 1018.32 709.691 1027.44 718.806Z"/><path d="M1105.52 796.881C1114.63 805.996 1129.41 805.996 1138.53 796.881C1147.64 787.766 1147.64 772.987 1138.53 763.872C1129.41 754.756 1114.63 754.757 1105.52 763.872C1096.4 772.987 1096.4 787.765 1105.52 796.881Z"/><path d="M1182.96 874.33C1192.08 883.445 1206.85 883.445 1215.97 874.33C1225.09 865.215 1225.09 850.436 1215.97 841.321C1206.85 832.206 1192.08 832.206 1182.96 841.321C1173.85 850.436 1173.85 865.215 1182.96 874.33Z"/><path d="M1261.04 952.408C1270.16 961.523 1284.93 961.523 1294.05 952.408C1303.16 943.293 1303.16 928.514 1294.05 919.399C1284.93 910.284 1270.16 910.284 1261.04 919.399C1251.93 928.514 1251.93 943.293 1261.04 952.408Z"/><path d="M1338.48 1029.85C1347.6 1038.96 1362.38 1038.96 1371.49 1029.85C1380.61 1020.73 1380.61 1005.96 1371.49 996.84C1362.38 987.725 1347.6 987.725 1338.48 996.84C1329.37 1005.96 1329.37 1020.73 1338.48 1029.85Z"/><path d="M1416.56 1107.93C1425.68 1117.05 1440.46 1117.05 1449.57 1107.93C1458.69 1098.82 1458.69 1084.04 1449.57 1074.92C1440.46 1065.81 1425.68 1065.81 1416.56 1074.92C1407.45 1084.04 1407.45 1098.82 1416.56 1107.93Z"/><path d="M716.392 251.592C725.507 260.707 740.286 260.707 749.401 251.592C758.516 242.476 758.516 227.698 749.401 218.583C740.286 209.467 725.507 209.467 716.392 218.583C707.277 227.698 707.277 242.476 716.392 251.592Z"/><path d="M794.471 329.67C803.586 338.785 818.365 338.785 827.48 329.67C836.595 320.555 836.595 305.776 827.48 296.661C818.365 287.546 803.586 287.546 794.471 296.661C785.356 305.776 785.356 320.555 794.471 329.67Z"/><path d="M871.915 407.119C881.03 416.234 895.809 416.234 904.924 407.119C914.039 398.004 914.039 383.225 904.924 374.11C895.809 364.995 881.03 364.995 871.915 374.11C862.8 383.225 862.8 398.004 871.915 407.119Z"/><path d="M949.994 485.193C959.11 494.308 973.888 494.308 983.003 485.193C992.119 476.078 992.119 461.299 983.003 452.184C973.888 443.069 959.11 443.069 949.994 452.184C940.879 461.299 940.879 476.078 949.994 485.193Z"/><path d="M1027.44 562.638C1036.55 571.754 1051.33 571.754 1060.45 562.638C1069.56 553.523 1069.56 538.745 1060.45 529.629C1051.33 520.514 1036.55 520.514 1027.44 529.629C1018.32 538.745 1018.32 553.523 1027.44 562.638Z"/><path d="M1105.52 640.721C1114.63 649.836 1129.41 649.836 1138.53 640.721C1147.64 631.605 1147.64 616.827 1138.53 607.712C1129.41 598.596 1114.63 598.596 1105.52 607.712C1096.4 616.827 1096.4 631.605 1105.52 640.721Z"/><path d="M1183.6 718.795C1192.71 727.91 1207.49 727.91 1216.61 718.795C1225.72 709.68 1225.72 694.901 1216.61 685.786C1207.49 676.671 1192.71 676.671 1183.6 685.786C1174.48 694.901 1174.48 709.68 1183.6 718.795Z"/><path d="M1261.04 796.244C1270.16 805.359 1284.93 805.359 1294.05 796.244C1303.16 787.129 1303.16 772.35 1294.05 763.235C1284.93 754.12 1270.16 754.12 1261.04 763.235C1251.93 772.35 1251.93 787.129 1261.04 796.244Z"/><path d="M1339.12 874.322C1348.24 883.437 1363.01 883.437 1372.13 874.322C1381.24 865.207 1381.24 850.428 1372.13 841.313C1363.01 832.198 1348.24 832.198 1339.12 841.313C1330 850.428 1330 865.207 1339.12 874.322Z"/><path d="M1416.56 951.763C1425.68 960.879 1440.46 960.879 1449.57 951.763C1458.69 942.648 1458.69 927.87 1449.57 918.754C1440.46 909.639 1425.68 909.639 1416.56 918.754C1407.45 927.87 1407.45 942.648 1416.56 951.763Z"/><path d="M1494.64 1029.85C1503.76 1038.96 1518.54 1038.96 1527.65 1029.85C1536.77 1020.73 1536.77 1005.95 1527.65 996.837C1518.54 987.721 1503.76 987.721 1494.64 996.837C1485.53 1005.95 1485.53 1020.73 1494.64 1029.85Z"/><path d="M1572.09 1107.29C1581.2 1116.4 1595.98 1116.4 1605.1 1107.29C1614.21 1098.17 1614.21 1083.39 1605.1 1074.28C1595.98 1065.16 1581.2 1065.16 1572.09 1074.28C1562.97 1083.39 1562.97 1098.17 1572.09 1107.29Z"/><path d="M794.471 173.513C803.586 182.629 818.365 182.629 827.48 173.513C836.595 164.398 836.595 149.62 827.48 140.504C818.365 131.389 803.586 131.389 794.471 140.504C785.356 149.62 785.356 164.398 794.471 173.513Z"/><path d="M872.55 251.592C881.665 260.707 896.444 260.707 905.559 251.592C914.674 242.476 914.674 227.698 905.559 218.583C896.444 209.467 881.665 209.467 872.55 218.583C863.435 227.698 863.435 242.476 872.55 251.592Z"/><path d="M949.994 329.041C959.109 338.156 973.888 338.156 983.003 329.041C992.118 319.926 992.118 305.147 983.003 296.032C973.888 286.917 959.109 286.917 949.994 296.032C940.879 305.147 940.879 319.926 949.994 329.041Z"/><path d="M1028.07 407.115C1037.19 416.23 1051.97 416.23 1061.08 407.115C1070.2 398 1070.2 383.221 1061.08 374.106C1051.97 364.991 1037.19 364.991 1028.07 374.106C1018.96 383.221 1018.96 398 1028.07 407.115Z"/><path d="M1105.52 484.56C1114.63 493.676 1129.41 493.676 1138.53 484.56C1147.64 475.445 1147.64 460.667 1138.53 451.551C1129.41 442.436 1114.63 442.436 1105.52 451.551C1096.4 460.667 1096.4 475.445 1105.52 484.56Z"/><path d="M1183.6 562.642C1192.71 571.758 1207.49 571.758 1216.61 562.642C1225.72 553.527 1225.72 538.749 1216.61 529.633C1207.49 520.518 1192.71 520.518 1183.6 529.633C1174.48 538.749 1174.48 553.527 1183.6 562.642Z"/><path d="M1261.68 640.717C1270.79 649.832 1285.57 649.832 1294.68 640.717C1303.8 631.601 1303.8 616.823 1294.68 607.708C1285.57 598.592 1270.79 598.592 1261.68 607.708C1252.56 616.823 1252.56 631.601 1261.68 640.717Z"/><path d="M1339.12 718.166C1348.23 727.281 1363.01 727.281 1372.13 718.166C1381.24 709.051 1381.24 694.272 1372.13 685.157C1363.01 676.042 1348.23 676.042 1339.12 685.157C1330 694.272 1330 709.051 1339.12 718.166Z"/><path d="M1417.2 796.244C1426.31 805.359 1441.09 805.359 1450.21 796.244C1459.32 787.129 1459.32 772.35 1450.21 763.235C1441.09 754.12 1426.31 754.12 1417.2 763.235C1408.08 772.35 1408.08 787.129 1417.2 796.244Z"/><path d="M1494.64 873.685C1503.76 882.801 1518.54 882.801 1527.65 873.685C1536.77 864.57 1536.77 849.792 1527.65 840.676C1518.54 831.561 1503.76 831.561 1494.64 840.676C1485.53 849.792 1485.53 864.57 1494.64 873.685Z"/><path d="M1572.72 951.767C1581.84 960.883 1596.62 960.883 1605.73 951.767C1614.85 942.652 1614.85 927.874 1605.73 918.758C1596.62 909.643 1581.84 909.643 1572.72 918.758C1563.61 927.874 1563.61 942.652 1572.72 951.767Z"/><path d="M1650.17 1029.21C1659.28 1038.32 1674.06 1038.32 1683.17 1029.21C1692.29 1020.09 1692.29 1005.31 1683.17 996.2C1674.06 987.085 1659.28 987.085 1650.17 996.2C1641.05 1005.31 1641.05 1020.09 1650.17 1029.21Z"/></g><g><path d="M178.635 139.281L184.422 144.246V166.626H215.704L219.958 172.147L215.69 177.397H184.422V198.795L178.635 203.747L173 198.795V144.232L178.635 139.281ZM195.554 195.68H219.406L223.397 200.915L219.143 206.45H195.554L191.7 201.342L195.554 195.68ZM196.382 138H219.129L223.383 143.52L219.129 148.77H196.659L192.115 143.677L196.382 138ZM323.155 148.628L328.251 154.291L323.155 159.968H246.13L241.172 154.291L246.13 148.628H323.155ZM237.043 172.147L241.849 167.893L246.669 172.147V178.393C246.669 188.879 249.417 197.515 261.668 197.515H264.14C275.147 197.515 281.197 189.86 281.197 177.952V172.005L285.879 167.75L290.699 171.862V178.379C290.699 189.007 293.723 196.946 305.56 196.946H307.618C319.178 196.946 321.235 187.869 321.373 177.952V171.578L326.056 167.608L331 171.72V178.094C330.862 191.838 327.285 207.574 308.032 207.574H305.974C294.552 207.574 288.365 202.324 285.892 195.808C283.006 202.466 275.299 208.286 264.844 208.286H262.358C242.553 208.286 237.194 195.964 237.056 178.663V172.147H237.043ZM276.391 274.744L273.642 267.089L280.796 264.969L305.974 276.721V252.491L311.07 248.095L316.291 252.491V281.829L325.641 286.226L328.251 293.311L320.959 296L276.391 274.744ZM321.235 223.011L328.113 226.27L325.917 233.497L264.002 263.119L256.571 260.146L259.596 252.776L321.235 223.011ZM231.905 263.404L237.954 268.512C237.402 286.51 222.403 296 204.669 296H202.874C194.062 296 183.759 292.6 177.157 286.083L177.834 278.855L184.298 278.002C189.118 282.256 195.858 285.229 202.183 285.229H204.117C216.091 285.229 225.303 280.136 226.27 268.085L231.905 263.404ZM226.256 251.638C225.704 239.16 216.629 234.209 204.103 234.209H202.169C194.739 234.209 189.104 237.182 184.284 241.436L177.834 240.583L177.143 233.355C183.745 226.696 192.957 223.58 202.597 223.58H204.517C222.403 223.58 237.402 232.942 237.94 251.211L231.891 256.176L226.256 251.638Z" fill="#ffffff"/></g><path d="M1171 781L1171 339L1187 339L1187 781L1171 781Z" fill="#ffffff"/><g fill="#ffffff" id="info-group"><path d="M167.6400 600L159.1800 600Q158.2800 600 157.6500 599.3700Q157.0200 598.7400 157.0200 597.8400L157.0200 597.8400L157.0200 539.1600Q157.0200 538.2600 157.6500 537.6300Q158.2800 537 159.1800 537L159.1800 537L167.6400 537Q168.6300 537 169.2150 537.6300Q169.8000 538.2600 169.8000 539.1600L169.8000 539.1600L169.8000 597.8400Q169.8000 598.7400 169.2150 599.3700Q168.6300 600 167.6400 600L167.6400 600ZM192.9300 600L185.0100 600Q184.1100 600 183.4800 599.3700Q182.8500 598.7400 182.8500 597.8400L182.8500 597.8400L182.8500 555.3600Q182.8500 554.4600 183.4800 553.8300Q184.1100 553.2000 185.0100 553.2000L185.0100 553.2000L192.3900 553.2000Q193.2900 553.2000 193.9200 553.8300Q194.5500 554.4600 194.5500 555.3600L194.5500 555.3600L194.5500 559.0500Q196.8900 556.1700 200.5350 554.2350Q204.1800 552.3000 209.5800 552.3000L209.5800 552.3000Q215.0700 552.3000 219.1200 554.7750Q223.1700 557.2500 225.3750 561.7500Q227.5800 566.2500 227.5800 572.5500L227.5800 572.5500L227.5800 597.8400Q227.5800 598.7400 226.9500 599.3700Q226.3200 600 225.4200 600L225.4200 600L217.5000 600Q216.6000 600 215.9700 599.3700Q215.3400 598.7400 215.3400 597.8400L215.3400 597.8400L215.3400 573.0900Q215.3400 567.8700 212.7750 564.9000Q210.2100 561.9300 205.3500 561.9300L205.3500 561.9300Q200.6700 561.9300 197.8800 564.9000Q195.0900 567.8700 195.0900 573.0900L195.0900 573.0900L195.0900 597.8400Q195.0900 598.7400 194.4600 599.3700Q193.8300 600 192.9300 600L192.9300 600ZM267.4500 600L260.1600 600Q254.7600 600 251.0700 598.1100Q247.3800 596.2200 245.5800 592.4850Q243.7800 588.7500 243.7800 583.1700L243.7800 583.1700L243.7800 562.7400L236.6700 562.7400Q235.7700 562.7400 235.1400 562.1100Q234.5100 561.4800 234.5100 560.4900L234.5100 560.4900L234.5100 555.3600Q234.5100 554.4600 235.1400 553.8300Q235.7700 553.2000 236.6700 553.2000L236.6700 553.2000L243.7800 553.2000L243.7800 538.2600Q243.7800 537.3600 244.3650 536.7300Q244.9500 536.1000 245.9400 536.1000L245.9400 536.1000L253.2300 536.1000Q254.1300 536.1000 254.7600 536.7300Q255.3900 537.3600 255.3900 538.2600L255.3900 538.2600L255.3900 553.2000L266.6400 553.2000Q267.5400 553.2000 268.1700 553.8300Q268.8000 554.4600 268.8000 555.3600L268.8000 555.3600L268.8000 560.4900Q268.8000 561.4800 268.1700 562.1100Q267.5400 562.7400 266.6400 562.7400L266.6400 562.7400L255.3900 562.7400L255.3900 582.2700Q255.3900 585.9600 256.6950 588.0300Q258 590.1000 261.2400 590.1000L261.2400 590.1000L267.4500 590.1000Q268.3500 590.1000 268.9800 590.7300Q269.6100 591.3600 269.6100 592.2600L269.6100 592.2600L269.6100 597.8400Q269.6100 598.7400 268.9800 599.3700Q268.3500 600 267.4500 600L267.4500 600ZM287.6100 600L279.7800 600Q278.8800 600 278.2500 599.3700Q277.6200 598.7400 277.6200 597.8400L277.6200 597.8400L277.6200 555.4500Q277.6200 554.4600 278.2500 553.8300Q278.8800 553.2000 279.7800 553.2000L279.7800 553.2000L287.0700 553.2000Q287.9700 553.2000 288.6450 553.8300Q289.3200 554.4600 289.3200 555.4500L289.3200 555.4500L289.3200 559.1400Q291.3900 556.2600 294.6750 554.7300Q297.9600 553.2000 302.2800 553.2000L302.2800 553.2000L305.9700 553.2000Q306.9600 553.2000 307.5450 553.8300Q308.1300 554.4600 308.1300 555.3600L308.1300 555.3600L308.1300 561.8400Q308.1300 562.7400 307.5450 563.3700Q306.9600 564 305.9700 564L305.9700 564L298.9500 564Q294.6300 564 292.2450 566.3850Q289.8600 568.7700 289.8600 573.0900L289.8600 573.0900L289.8600 597.8400Q289.8600 598.7400 289.2300 599.3700Q288.6000 600 287.6100 600L287.6100 600ZM335.8500 600.9000L335.8500 600.9000Q328.6500 600.9000 323.7450 598.3800Q318.8400 595.8600 316.2750 591.2700Q313.7100 586.6800 313.3500 580.5600L313.3500 580.5600Q313.2600 578.9400 313.2600 576.6000Q313.2600 574.2600 313.3500 572.6400L313.3500 572.6400Q313.7100 566.4300 316.3650 561.8850Q319.0200 557.3400 323.9250 554.8200Q328.8300 552.3000 335.8500 552.3000L335.8500 552.3000Q342.8700 552.3000 347.7750 554.8200Q352.6800 557.3400 355.3350 561.8850Q357.9900 566.4300 358.3500 572.6400L358.3500 572.6400Q358.4400 574.2600 358.4400 576.6000Q358.4400 578.9400 358.3500 580.5600L358.3500 580.5600Q357.9900 586.6800 355.4250 591.2700Q352.8600 595.8600 347.9550 598.3800Q343.0500 600.9000 335.8500 600.9000ZM335.8500 591.9900L335.8500 591.9900Q340.6200 591.9900 343.2300 588.9750Q345.8400 585.9600 346.1100 580.1100L346.1100 580.1100Q346.2000 578.7600 346.2000 576.6000Q346.2000 574.4400 346.1100 573.0900L346.1100 573.0900Q345.8400 567.2400 343.2300 564.2250Q340.6200 561.2100 335.8500 561.2100L335.8500 561.2100Q331.0800 561.2100 328.4700 564.2250Q325.8600 567.2400 325.5900 573.0900L325.5900 573.0900Q325.5000 574.4400 325.5000 576.6000Q325.5000 578.7600 325.5900 580.1100L325.5900 580.1100Q325.8600 585.9600 328.4700 588.9750Q331.0800 591.9900 335.8500 591.9900ZM385.8000 600.9000L385.8000 600.9000Q381.1200 600.9000 377.5650 599.3250Q374.0100 597.7500 371.6700 594.8700Q369.3300 591.9900 368.0700 588.0750Q366.8100 584.1600 366.6300 579.4800L366.6300 579.4800Q366.5400 577.8600 366.5400 576.5550Q366.5400 575.2500 366.6300 573.6300L366.6300 573.6300Q366.8100 569.1300 368.0250 565.2600Q369.2400 561.3900 371.6250 558.4650Q374.0100 555.5400 377.5650 553.9200Q381.1200 552.3000 385.8000 552.3000L385.8000 552.3000Q390.6600 552.3000 394.0350 553.9650Q397.4100 555.6300 399.6600 558.2400L399.6600 558.2400L399.6600 538.2600Q399.6600 537.3600 400.2450 536.7300Q400.8300 536.1000 401.8200 536.1000L401.8200 536.1000L409.4700 536.1000Q410.3700 536.1000 411 536.7300Q411.6300 537.3600 411.6300 538.2600L411.6300 538.2600L411.6300 597.8400Q411.6300 598.7400 411 599.3700Q410.3700 600 409.4700 600L409.4700 600L402.3600 600Q401.3700 600 400.7850 599.3700Q400.2000 598.7400 400.2000 597.8400L400.2000 597.8400L400.2000 594.5100Q397.9500 597.3000 394.4850 599.1000Q391.0200 600.9000 385.8000 600.9000ZM389.1300 591.2700L389.1300 591.2700Q392.9100 591.2700 395.1600 589.5600Q397.4100 587.8500 398.4900 585.1950Q399.5700 582.5400 399.6600 579.7500L399.6600 579.7500Q399.7500 578.1300 399.7500 576.2850Q399.7500 574.4400 399.6600 572.8200L399.6600 572.8200Q399.5700 570.1200 398.4000 567.6450Q397.2300 565.1700 394.9800 563.5500Q392.7300 561.9300 389.1300 561.9300L389.1300 561.9300Q385.3500 561.9300 383.1450 563.5950Q380.9400 565.2600 379.9500 567.9600Q378.9600 570.6600 378.7800 573.9000L378.7800 573.9000Q378.6900 576.6000 378.7800 579.3000L378.7800 579.3000Q378.9600 582.5400 379.9500 585.2400Q380.9400 587.9400 383.1450 589.6050Q385.3500 591.2700 389.1300 591.2700ZM440.9700 600.9000L440.9700 600.9000Q435.4800 600.9000 431.4750 598.4250Q427.4700 595.9500 425.3100 591.4050Q423.1500 586.8600 423.1500 580.6500L423.1500 580.6500L423.1500 555.3600Q423.1500 554.4600 423.7800 553.8300Q424.4100 553.2000 425.3100 553.2000L425.3100 553.2000L433.2300 553.2000Q434.2200 553.2000 434.8050 553.8300Q435.3900 554.4600 435.3900 555.3600L435.3900 555.3600L435.3900 580.1100Q435.3900 591.2700 445.2000 591.2700L445.2000 591.2700Q449.8800 591.2700 452.6250 588.3000Q455.3700 585.3300 455.3700 580.1100L455.3700 580.1100L455.3700 555.3600Q455.3700 554.4600 456 553.8300Q456.6300 553.2000 457.5300 553.2000L457.5300 553.2000L465.4500 553.2000Q466.3500 553.2000 466.9800 553.8300Q467.6100 554.4600 467.6100 555.3600L467.6100 555.3600L467.6100 597.8400Q467.6100 598.7400 466.9800 599.3700Q466.3500 600 465.4500 600L465.4500 600L458.1600 600Q457.1700 600 456.5850 599.3700Q456 598.7400 456 597.8400L456 597.8400L456 594.1500Q453.5700 597.3000 449.9700 599.1000Q446.3700 600.9000 440.9700 600.9000ZM499.6500 619.8000L499.6500 619.8000Q497.1300 619.7100 495.1950 618.9000Q493.2600 618.0900 492.4050 617.0100Q491.5500 615.9300 492.4500 615.2100L492.4500 615.2100L493.9800 613.8600Q494.7900 613.1400 495.3750 613.4550Q495.9600 613.7700 496.9050 614.3550Q497.8500 614.9400 499.6500 614.9400L499.6500 614.9400Q501 614.9400 501.9900 614.0850Q502.9800 613.2300 502.9800 611.8800L502.9800 611.8800Q502.9800 610.6200 502.0350 609.8100Q501.0900 609 499.6500 609L499.6500 609Q498.3900 609 497.4900 609.3150Q496.5900 609.6300 495.8700 609.7650Q495.1500 609.9000 494.4300 609.1800L494.4300 609.1800L492.8100 607.5600Q492.2700 606.9300 492.4500 606.2550Q492.6300 605.5800 492.9900 604.7700L492.9900 604.7700L494.8800 600.4500Q487.1400 599.2800 482.5500 594.0150Q477.9600 588.7500 477.6900 580.2000L477.6900 580.2000Q477.6000 578.8500 477.6000 576.6450Q477.6000 574.4400 477.6900 573L477.6900 573Q477.9600 566.4300 480.7050 561.7950Q483.4500 557.1600 488.3550 554.7300Q493.2600 552.3000 499.7400 552.3000L499.7400 552.3000Q505.5000 552.3000 509.5500 553.8750Q513.6000 555.4500 516.2100 557.9250Q518.8200 560.4000 520.1250 563.0550Q521.4300 565.7100 521.5200 567.8700L521.5200 567.8700Q521.6100 568.8600 520.9350 569.4450Q520.2600 570.0300 519.3600 570.0300L519.3600 570.0300L511.4400 570.0300Q510.5400 570.0300 510.0450 569.5800Q509.5500 569.1300 509.1000 568.2300L509.1000 568.2300Q507.7500 564.6300 505.5450 563.1450Q503.3400 561.6600 499.9200 561.6600L499.9200 561.6600Q495.4200 561.6600 492.7650 564.4950Q490.1100 567.3300 489.9300 573.4500L489.9300 573.4500Q489.7500 576.8700 489.9300 579.7500L489.9300 579.7500Q490.1100 585.9600 492.7650 588.7500Q495.4200 591.5400 499.9200 591.5400L499.9200 591.5400Q503.4300 591.5400 505.5900 590.0550Q507.7500 588.5700 509.1000 584.9700L509.1000 584.9700Q509.5500 584.0700 510.0450 583.6200Q510.5400 583.1700 511.4400 583.1700L511.4400 583.1700L519.3600 583.1700Q520.2600 583.1700 520.9350 583.7550Q521.6100 584.3400 521.5200 585.3300L521.5200 585.3300Q521.4300 587.3100 520.1700 589.9650Q518.9100 592.6200 516.3900 595.0950Q513.8700 597.5700 509.8200 599.2350Q505.7700 600.9000 500.0100 600.9000L500.0100 600.9000L498.1200 604.7700Q498.6600 604.5000 499.6050 604.3200Q500.5500 604.1400 501.2700 604.1400L501.2700 604.1400Q504.4200 604.1400 506.3550 606.3000Q508.2900 608.4600 508.2900 611.7900L508.2900 611.7900Q508.2900 615.2100 506.0400 617.5500Q503.7900 619.8900 499.6500 619.8000ZM544.4700 600.9000L544.4700 600.9000Q539.7900 600.9000 536.0100 599.0550Q532.2300 597.2100 530.0250 594.1050Q527.8200 591 527.8200 587.1300L527.8200 587.1300Q527.8200 580.8300 532.9500 577.0950Q538.0800 573.3600 546.3600 572.1000L546.3600 572.1000L558.6900 570.3000L558.6900 568.4100Q558.6900 564.6300 556.8000 562.5600Q554.9100 560.4900 550.3200 560.4900L550.3200 560.4900Q547.0800 560.4900 545.0550 561.7950Q543.0300 563.1000 542.0400 565.2600L542.0400 565.2600Q541.3200 566.4300 539.9700 566.4300L539.9700 566.4300L532.8600 566.4300Q531.8700 566.4300 531.3750 565.8900Q530.8800 565.3500 530.8800 564.4500L530.8800 564.4500Q530.9700 563.0100 532.0950 560.9400Q533.2200 558.8700 535.5150 556.9350Q537.8100 555 541.5000 553.6500Q545.1900 552.3000 550.4100 552.3000L550.4100 552.3000Q556.0800 552.3000 559.9950 553.6950Q563.9100 555.0900 566.2500 557.4300Q568.5900 559.7700 569.6700 562.9200Q570.7500 566.0700 570.7500 569.5800L570.7500 569.5800L570.7500 597.8400Q570.7500 598.7400 570.1200 599.3700Q569.4900 600 568.5900 600L568.5900 600L561.3000 600Q560.3100 600 559.7250 599.3700Q559.1400 598.7400 559.1400 597.8400L559.1400 597.8400L559.1400 594.3300Q557.9700 595.9500 555.9900 597.4800Q554.0100 599.0100 551.1750 599.9550Q548.3400 600.9000 544.4700 600.9000ZM547.5300 592.3500L547.5300 592.3500Q550.6800 592.3500 553.2450 591Q555.8100 589.6500 557.2950 586.8150Q558.7800 583.9800 558.7800 579.6600L558.7800 579.6600L558.7800 577.7700L549.7800 579.2100Q544.4700 580.0200 541.8600 581.8200Q539.2500 583.6200 539.2500 586.2300L539.2500 586.2300Q539.2500 588.2100 540.4650 589.6050Q541.6800 591 543.5700 591.6750Q545.4600 592.3500 547.5300 592.3500ZM555.3600 546.9000L555.3600 546.9000Q553.0200 546.9000 551.5800 546.1350Q550.1400 545.3700 548.9250 544.5600Q547.7100 543.7500 546.2700 543.7500L546.2700 543.7500Q545.1000 543.7500 544.6050 544.4250Q544.1100 545.1000 543.6600 545.7750Q543.2100 546.4500 542.2200 546.4500L542.2200 546.4500L538.0800 546.4500Q537.4500 546.4500 537 546Q536.5500 545.5500 536.5500 544.9200L536.5500 544.9200Q536.5500 543.5700 537.0450 541.9050Q537.5400 540.2400 538.6200 538.7100Q539.7000 537.1800 541.3650 536.2350Q543.0300 535.2900 545.2800 535.2900L545.2800 535.2900Q547.7100 535.2900 549.1500 536.0550Q550.5900 536.8200 551.8050 537.6300Q553.0200 538.4400 554.4600 538.4400L554.4600 538.4400Q555.6300 538.4400 556.1250 537.7200Q556.6200 537 557.0700 536.3250Q557.5200 535.6500 558.5100 535.6500L558.5100 535.6500L562.6500 535.6500Q563.3700 535.6500 563.7750 536.1450Q564.1800 536.6400 564.1800 537.2700L564.1800 537.2700Q564.1800 538.6200 563.6850 540.2850Q563.1900 541.9500 562.1100 543.4800Q561.0300 545.0100 559.3650 545.9550Q557.7000 546.9000 555.3600 546.9000ZM602.9700 600.9000L602.9700 600.9000Q595.7700 600.9000 590.8650 598.3800Q585.9600 595.8600 583.3950 591.2700Q580.8300 586.6800 580.4700 580.5600L580.4700 580.5600Q580.3800 578.9400 580.3800 576.6000Q580.3800 574.2600 580.4700 572.6400L580.4700 572.6400Q580.8300 566.4300 583.4850 561.8850Q586.1400 557.3400 591.0450 554.8200Q595.9500 552.3000 602.9700 552.3000L602.9700 552.3000Q609.9900 552.3000 614.8950 554.8200Q619.8000 557.3400 622.4550 561.8850Q625.1100 566.4300 625.4700 572.6400L625.4700 572.6400Q625.5600 574.2600 625.5600 576.6000Q625.5600 578.9400 625.4700 580.5600L625.4700 580.5600Q625.1100 586.6800 622.5450 591.2700Q619.9800 595.8600 615.0750 598.3800Q610.1700 600.9000 602.9700 600.9000ZM602.9700 591.9900L602.9700 591.9900Q607.7400 591.9900 610.3500 588.9750Q612.9600 585.9600 613.2300 580.1100L613.2300 580.1100Q613.3200 578.7600 613.3200 576.6000Q613.3200 574.4400 613.2300 573.0900L613.2300 573.0900Q612.9600 567.2400 610.3500 564.2250Q607.7400 561.2100 602.9700 561.2100L602.9700 561.2100Q598.2000 561.2100 595.5900 564.2250Q592.9800 567.2400 592.7100 573.0900L592.7100 573.0900Q592.6200 574.4400 592.6200 576.6000Q592.6200 578.7600 592.7100 580.1100L592.7100 580.1100Q592.9800 585.9600 595.5900 588.9750Q598.2000 591.9900 602.9700 591.9900ZM669.7500 600.9000L669.7500 600.9000Q665.0700 600.9000 661.2900 599.0550Q657.5100 597.2100 655.3050 594.1050Q653.1000 591 653.1000 587.1300L653.1000 587.1300Q653.1000 580.8300 658.2300 577.0950Q663.3600 573.3600 671.6400 572.1000L671.6400 572.1000L683.9700 570.3000L683.9700 568.4100Q683.9700 564.6300 682.0800 562.5600Q680.1900 560.4900 675.6000 560.4900L675.6000 560.4900Q672.3600 560.4900 670.3350 561.7950Q668.3100 563.1000 667.3200 565.2600L667.3200 565.2600Q666.6000 566.4300 665.2500 566.4300L665.2500 566.4300L658.1400 566.4300Q657.1500 566.4300 656.6550 565.8900Q656.1600 565.3500 656.1600 564.4500L656.1600 564.4500Q656.2500 563.0100 657.3750 560.9400Q658.5000 558.8700 660.7950 556.9350Q663.0900 555 666.7800 553.6500Q670.4700 552.3000 675.6900 552.3000L675.6900 552.3000Q681.3600 552.3000 685.2750 553.6950Q689.1900 555.0900 691.5300 557.4300Q693.8700 559.7700 694.9500 562.9200Q696.0300 566.0700 696.0300 569.5800L696.0300 569.5800L696.0300 597.8400Q696.0300 598.7400 695.4000 599.3700Q694.7700 600 693.8700 600L693.8700 600L686.5800 600Q685.5900 600 685.0050 599.3700Q684.4200 598.7400 684.4200 597.8400L684.4200 597.8400L684.4200 594.3300Q683.2500 595.9500 681.2700 597.4800Q679.2900 599.0100 676.4550 599.9550Q673.6200 600.9000 669.7500 600.9000ZM672.8100 592.3500L672.8100 592.3500Q675.9600 592.3500 678.5250 591Q681.0900 589.6500 682.5750 586.8150Q684.0600 583.9800 684.0600 579.6600L684.0600 579.6600L684.0600 577.7700L675.0600 579.2100Q669.7500 580.0200 667.1400 581.8200Q664.5300 583.6200 664.5300 586.2300L664.5300 586.2300Q664.5300 588.2100 665.7450 589.6050Q666.9600 591 668.8500 591.6750Q670.7400 592.3500 672.8100 592.3500ZM728.2500 600.9000L728.2500 600.9000Q721.0500 600.9000 716.1450 598.3800Q711.2400 595.8600 708.6750 591.2700Q706.1100 586.6800 705.7500 580.5600L705.7500 580.5600Q705.6600 578.9400 705.6600 576.6000Q705.6600 574.2600 705.7500 572.6400L705.7500 572.6400Q706.1100 566.4300 708.7650 561.8850Q711.4200 557.3400 716.3250 554.8200Q721.2300 552.3000 728.2500 552.3000L728.2500 552.3000Q735.2700 552.3000 740.1750 554.8200Q745.0800 557.3400 747.7350 561.8850Q750.3900 566.4300 750.7500 572.6400L750.7500 572.6400Q750.8400 574.2600 750.8400 576.6000Q750.8400 578.9400 750.7500 580.5600L750.7500 580.5600Q750.3900 586.6800 747.8250 591.2700Q745.2600 595.8600 740.3550 598.3800Q735.4500 600.9000 728.2500 600.9000ZM728.2500 591.9900L728.2500 591.9900Q733.0200 591.9900 735.6300 588.9750Q738.2400 585.9600 738.5100 580.1100L738.5100 580.1100Q738.6000 578.7600 738.6000 576.6000Q738.6000 574.4400 738.5100 573.0900L738.5100 573.0900Q738.2400 567.2400 735.6300 564.2250Q733.0200 561.2100 728.2500 561.2100L728.2500 561.2100Q723.4800 561.2100 720.8700 564.2250Q718.2600 567.2400 717.9900 573.0900L717.9900 573.0900Q717.9000 574.4400 717.9000 576.6000Q717.9000 578.7600 717.9900 580.1100L717.9900 580.1100Q718.2600 585.9600 720.8700 588.9750Q723.4800 591.9900 728.2500 591.9900ZM804.3900 600.9000L804.3900 600.9000Q796.0200 600.9000 790.3950 598.4250Q784.7700 595.9500 781.8450 591.9450Q778.9200 587.9400 778.7400 583.5300L778.7400 583.5300Q778.7400 582.7200 779.2800 582.1800Q779.8200 581.6400 780.6300 581.6400L780.6300 581.6400L788.6400 581.6400Q789.8100 581.6400 790.3950 582.1350Q790.9800 582.6300 791.4300 583.3500L791.4300 583.3500Q791.9700 585.0600 793.5000 586.7250Q795.0300 588.3900 797.6850 589.4700Q800.3400 590.5500 804.3900 590.5500L804.3900 590.5500Q810.8700 590.5500 814.0650 588.3900Q817.2600 586.2300 817.2600 582.5400L817.2600 582.5400Q817.2600 579.9300 815.5500 578.3550Q813.8400 576.7800 810.2850 575.4750Q806.7300 574.1700 800.8800 572.7300L800.8800 572.7300Q794.1300 571.1100 789.5850 568.8150Q785.0400 566.5200 782.7450 563.0100Q780.4500 559.5000 780.4500 554.1000L780.4500 554.1000Q780.4500 548.8800 783.2850 544.8300Q786.1200 540.7800 791.3850 538.4400Q796.6500 536.1000 803.9400 536.1000L803.9400 536.1000Q809.7900 536.1000 814.2900 537.6750Q818.7900 539.2500 821.7600 541.8150Q824.7300 544.3800 826.3050 547.3050Q827.8800 550.2300 827.9700 553.0200L827.9700 553.0200Q827.9700 553.7400 827.4750 554.3250Q826.9800 554.9100 826.0800 554.9100L826.0800 554.9100L817.7100 554.9100Q816.9900 554.9100 816.2700 554.5500Q815.5500 554.1900 815.1000 553.2000L815.1000 553.2000Q814.5600 550.4100 811.5900 548.4300Q808.6200 546.4500 803.9400 546.4500L803.9400 546.4500Q799.0800 546.4500 796.1100 548.2500Q793.1400 550.0500 793.1400 553.8300L793.1400 553.8300Q793.1400 556.3500 794.6250 558.0150Q796.1100 559.6800 799.3950 560.9400Q802.6800 562.2000 808.0800 563.6400L808.0800 563.6400Q815.7300 565.3500 820.5900 567.6000Q825.4500 569.8500 827.7000 573.3150Q829.9500 576.7800 829.9500 582.0900L829.9500 582.0900Q829.9500 588.0300 826.7550 592.2150Q823.5600 596.4000 817.8000 598.6500Q812.0400 600.9000 804.3900 600.9000ZM844.2600 600L836.4300 600Q835.7100 600 835.1250 599.4600Q834.5400 598.9200 834.5400 598.1100L834.5400 598.1100Q834.5400 597.7500 834.7200 597.3000L834.7200 597.3000L856.4100 539.2500Q856.6800 538.3500 857.4450 537.6750Q858.2100 537 859.5600 537L859.5600 537L869.3700 537Q870.7200 537 871.4400 537.6750Q872.1600 538.3500 872.5200 539.2500L872.5200 539.2500L894.2100 597.3000Q894.3000 597.7500 894.3000 598.1100L894.3000 598.1100Q894.3000 598.9200 893.7600 599.4600Q893.2200 600 892.5000 600L892.5000 600L884.6700 600Q883.4100 600 882.8250 599.4150Q882.2400 598.8300 882.0600 598.2900L882.0600 598.2900L877.8300 587.3100L851.1000 587.3100L846.8700 598.2900Q846.6900 598.8300 846.1050 599.4150Q845.5200 600 844.2600 600L844.2600 600ZM864.4200 549.1500L854.2500 576.9600L874.6800 576.9600L864.4200 549.1500ZM924.5400 600.9000L924.5400 600.9000Q916.1700 600.9000 910.5450 598.4250Q904.9200 595.9500 901.9950 591.9450Q899.0700 587.9400 898.8900 583.5300L898.8900 583.5300Q898.8900 582.7200 899.4300 582.1800Q899.9700 581.6400 900.7800 581.6400L900.7800 581.6400L908.7900 581.6400Q909.9600 581.6400 910.5450 582.1350Q911.1300 582.6300 911.5800 583.3500L911.5800 583.3500Q912.1200 585.0600 913.6500 586.7250Q915.1800 588.3900 917.8350 589.4700Q920.4900 590.5500 924.5400 590.5500L924.5400 590.5500Q931.0200 590.5500 934.2150 588.3900Q937.4100 586.2300 937.4100 582.5400L937.4100 582.5400Q937.4100 579.9300 935.7000 578.3550Q933.9900 576.7800 930.4350 575.4750Q926.8800 574.1700 921.0300 572.7300L921.0300 572.7300Q914.2800 571.1100 909.7350 568.8150Q905.1900 566.5200 902.8950 563.0100Q900.6000 559.5000 900.6000 554.1000L900.6000 554.1000Q900.6000 548.8800 903.4350 544.8300Q906.2700 540.7800 911.5350 538.4400Q916.8000 536.1000 924.0900 536.1000L924.0900 536.1000Q929.9400 536.1000 934.4400 537.6750Q938.9400 539.2500 941.9100 541.8150Q944.8800 544.3800 946.4550 547.3050Q948.0300 550.2300 948.1200 553.0200L948.1200 553.0200Q948.1200 553.7400 947.6250 554.3250Q947.1300 554.9100 946.2300 554.9100L946.2300 554.9100L937.8600 554.9100Q937.1400 554.9100 936.4200 554.5500Q935.7000 554.1900 935.2500 553.2000L935.2500 553.2000Q934.7100 550.4100 931.7400 548.4300Q928.7700 546.4500 924.0900 546.4500L924.0900 546.4500Q919.2300 546.4500 916.2600 548.2500Q913.2900 550.0500 913.2900 553.8300L913.2900 553.8300Q913.2900 556.3500 914.7750 558.0150Q916.2600 559.6800 919.5450 560.9400Q922.8300 562.2000 928.2300 563.6400L928.2300 563.6400Q935.8800 565.3500 940.7400 567.6000Q945.6000 569.8500 947.8500 573.3150Q950.1000 576.7800 950.1000 582.0900L950.1000 582.0900Q950.1000 588.0300 946.9050 592.2150Q943.7100 596.4000 937.9500 598.6500Q932.1900 600.9000 924.5400 600.9000ZM982.3200 600.9000L982.3200 600.9000Q973.9500 600.9000 968.3250 598.4250Q962.7000 595.9500 959.7750 591.9450Q956.8500 587.9400 956.6700 583.5300L956.6700 583.5300Q956.6700 582.7200 957.2100 582.1800Q957.7500 581.6400 958.5600 581.6400L958.5600 581.6400L966.5700 581.6400Q967.7400 581.6400 968.3250 582.1350Q968.9100 582.6300 969.3600 583.3500L969.3600 583.3500Q969.9000 585.0600 971.4300 586.7250Q972.9600 588.3900 975.6150 589.4700Q978.2700 590.5500 982.3200 590.5500L982.3200 590.5500Q988.8000 590.5500 991.9950 588.3900Q995.1900 586.2300 995.1900 582.5400L995.1900 582.5400Q995.1900 579.9300 993.4800 578.3550Q991.7700 576.7800 988.2150 575.4750Q984.6600 574.1700 978.8100 572.7300L978.8100 572.7300Q972.0600 571.1100 967.5150 568.8150Q962.9700 566.5200 960.6750 563.0100Q958.3800 559.5000 958.3800 554.1000L958.3800 554.1000Q958.3800 548.8800 961.2150 544.8300Q964.0500 540.7800 969.3150 538.4400Q974.5800 536.1000 981.8700 536.1000L981.8700 536.1000Q987.7200 536.1000 992.2200 537.6750Q996.7200 539.2500 999.6900 541.8150Q1002.6600 544.3800 1004.2350 547.3050Q1005.8100 550.2300 1005.9000 553.0200L1005.9000 553.0200Q1005.9000 553.7400 1005.4050 554.3250Q1004.9100 554.9100 1004.0100 554.9100L1004.0100 554.9100L995.6400 554.9100Q994.9200 554.9100 994.2000 554.5500Q993.4800 554.1900 993.0300 553.2000L993.0300 553.2000Q992.4900 550.4100 989.5200 548.4300Q986.5500 546.4500 981.8700 546.4500L981.8700 546.4500Q977.0100 546.4500 974.0400 548.2500Q971.0700 550.0500 971.0700 553.8300L971.0700 553.8300Q971.0700 556.3500 972.5550 558.0150Q974.0400 559.6800 977.3250 560.9400Q980.6100 562.2000 986.0100 563.6400L986.0100 563.6400Q993.6600 565.3500 998.5200 567.6000Q1003.3800 569.8500 1005.6300 573.3150Q1007.8800 576.7800 1007.8800 582.0900L1007.8800 582.0900Q1007.8800 588.0300 1004.6850 592.2150Q1001.4900 596.4000 995.7300 598.6500Q989.9700 600.9000 982.3200 600.9000Z" id="title"/><path d="M1408.9600 640L1388.9400 640Q1386.5200 640 1385.0900 638.4600Q1383.6600 636.9200 1383.6600 634.7200L1383.6600 634.7200L1383.6600 520.7600L1350.2200 546.5000Q1348.2400 547.8200 1346.2600 547.4900Q1344.2800 547.1600 1342.7400 545.1800L1342.7400 545.1800L1333.5000 533.3000Q1332.1800 531.3200 1332.5100 529.1200Q1332.8400 526.9200 1334.8200 525.6000L1334.8200 525.6000L1384.1000 487.5400Q1385.4200 486.4400 1386.7400 486.2200Q1388.0600 486 1389.6000 486L1389.6000 486L1408.9600 486Q1411.1600 486 1412.7000 487.5400Q1414.2400 489.0800 1414.2400 491.2800L1414.2400 491.2800L1414.2400 634.7200Q1414.2400 636.9200 1412.7000 638.4600Q1411.1600 640 1408.9600 640L1408.9600 640ZM1497.1800 642.4200L1497.1800 642.4200Q1478.2600 642.4200 1465.2800 636.1500Q1452.3000 629.8800 1445.5900 619.7600Q1438.8800 609.6400 1438.4400 598.2000L1438.4400 598.2000Q1438.2200 596.2200 1439.6500 595.0100Q1441.0800 593.8000 1443.0600 593.8000L1443.0600 593.8000L1463.5200 593.8000Q1465.9400 593.8000 1467.5900 594.7900Q1469.2400 595.7800 1470.1200 598.2000L1470.1200 598.2000Q1472.3200 604.8000 1476.3900 608.9800Q1480.4600 613.1600 1485.8500 615.1400Q1491.2400 617.1200 1497.1800 617.1200L1497.1800 617.1200Q1505.1000 617.1200 1511.5900 613.9300Q1518.0800 610.7400 1522.0400 604.3600Q1526 597.9800 1526 588.7400L1526 588.7400Q1526 580.6000 1522.2600 574.6600Q1518.5200 568.7200 1512.0300 565.3100Q1505.5400 561.9000 1497.1800 561.9000L1497.1800 561.9000Q1491.0200 561.9000 1487.0600 563.4400Q1483.1000 564.9800 1480.3500 566.9600Q1477.6000 568.9400 1475.5100 570.4800Q1473.4200 572.0200 1470.7800 572.0200L1470.7800 572.0200L1450.5400 572.0200Q1448.5600 572.0200 1447.1300 570.5900Q1445.7000 569.1600 1445.7000 567.1800L1445.7000 567.1800L1453.4000 491.9400Q1453.6200 489.0800 1455.3800 487.5400Q1457.1400 486 1459.5600 486L1459.5600 486L1542.2800 486Q1544.4800 486 1546.0200 487.5400Q1547.5600 489.0800 1547.5600 491.2800L1547.5600 491.2800L1547.5600 506.0200Q1547.5600 508.2200 1546.0200 509.7600Q1544.4800 511.3000 1542.2800 511.3000L1542.2800 511.3000L1478.7000 511.3000L1475.1800 547.1600Q1479.1400 544.5200 1485.7400 542.1000Q1492.3400 539.6800 1504 539.6800L1504 539.6800Q1514.5600 539.6800 1524.1300 543.0900Q1533.7000 546.5000 1541.1800 552.9900Q1548.6600 559.4800 1552.9500 568.6100Q1557.2400 577.7400 1557.2400 589.4000L1557.2400 589.4000Q1557.2400 605.4600 1549.7600 617.3400Q1542.2800 629.2200 1528.8600 635.8200Q1515.4400 642.4200 1497.1800 642.4200ZM1605.2000 640L1583.2000 640Q1581 640 1579.4600 638.4600Q1577.9200 636.9200 1577.9200 634.7200L1577.9200 634.7200L1577.9200 612.9400Q1577.9200 610.5200 1579.4600 608.9800Q1581 607.4400 1583.2000 607.4400L1583.2000 607.4400L1605.2000 607.4400Q1607.4000 607.4400 1608.9400 608.9800Q1610.4800 610.5200 1610.4800 612.9400L1610.4800 612.9400L1610.4800 634.7200Q1610.4800 636.9200 1608.9400 638.4600Q1607.4000 640 1605.2000 640L1605.2000 640ZM1690.1200 640L1670.1000 640Q1667.6800 640 1666.2500 638.4600Q1664.8200 636.9200 1664.8200 634.7200L1664.8200 634.7200L1664.8200 520.7600L1631.3800 546.5000Q1629.4000 547.8200 1627.4200 547.4900Q1625.4400 547.1600 1623.9000 545.1800L1623.9000 545.1800L1614.6600 533.3000Q1613.3400 531.3200 1613.6700 529.1200Q1614 526.9200 1615.9800 525.6000L1615.9800 525.6000L1665.2600 487.5400Q1666.5800 486.4400 1667.9000 486.2200Q1669.2200 486 1670.7600 486L1670.7600 486L1690.1200 486Q1692.3200 486 1693.8600 487.5400Q1695.4000 489.0800 1695.4000 491.2800L1695.4000 491.2800L1695.4000 634.7200Q1695.4000 636.9200 1693.8600 638.4600Q1692.3200 640 1690.1200 640L1690.1200 640Z" id="lecture-full-number"/></g></svg>