<svg xmlns="http://www.w3.org/2000/svg" version="1.1" xmlns:xlink="http://www.w3.org/1999/xlink" xmlns:svgjs="http://svgjs.dev/svgjs" viewBox="0 0 1920 1080" id="92682c35-37dc-4909-9964-767f58eba601"><g><rect width="1920" height="1080" fill="#4e0250"/></g><g fill="#645986"><path d="M2118.71 322.496C1962.88 381.696 1840.11 286.062 1731.68 201.315C1619.52 113.904 1545.13 63.1995 1455.92 97.0926C1366.11 131.212 1344.15 218.52 1318.91 358.127C1294.11 493.487 1265.8 646.514 1109.97 705.714C954.144 764.914 831.375 669.28 722.951 584.533C610.793 497.122 536.401 446.418 447.185 480.311C357.375 514.43 335.414 601.738 310.18 741.346C285.375 876.706 257.072 1029.73 101.242 1088.93C-54.5876 1148.13 -177.357 1052.5 -285.78 967.751C-397.344 880.114 -471.736 829.41 -561.547 863.529L-602 757.045C-446.17 697.845 -323.401 793.479 -214.977 878.225C-102.819 965.637 -28.4265 1016.34 60.7891 982.448C150.6 948.329 172.56 861.02 197.794 721.413C222.599 586.053 250.307 433.253 406.732 373.827C562.562 314.627 685.331 410.261 793.754 495.007C905.913 582.419 980.305 633.123 1069.52 599.23C1159.33 565.111 1181.29 477.802 1206.53 338.195C1231.33 202.835 1259.04 50.0347 1415.46 -9.39121C1571.89 -68.8172 1694.06 27.043 1802.49 111.789C1914.64 199.201 1989.04 249.905 2078.25 216.012L2118.71 322.496Z"/></g><g fill="#ffffff" opacity="0.2"><path d="M960.041 79C960.041 79 971.953 194.974 981.699 214.484C992.529 237.245 1064 247 1064 247C1064 247 994.694 258.923 983.865 280.6C973.036 301.194 958.959 415 958.959 415C958.959 415 945.964 296.858 935.135 275.181C925.389 255.671 855 245.916 855 245.916C855 245.916 925.389 233.994 936.218 212.316C947.047 192.806 960.041 79 960.041 79Z"/><path d="M561.041 687C561.041 687 572.953 802.974 582.699 822.484C593.529 845.245 665 855 665 855C665 855 595.694 866.923 584.865 888.6C574.036 909.194 559.959 1023 559.959 1023C559.959 1023 546.964 904.858 536.135 883.181C526.389 863.671 456 853.916 456 853.916C456 853.916 526.389 841.994 537.218 820.316C548.047 800.806 561.041 687 561.041 687Z"/></g><g><path d="M178.635 139.281L184.422 144.246V166.626H215.704L219.958 172.147L215.69 177.397H184.422V198.795L178.635 203.747L173 198.795V144.232L178.635 139.281ZM195.554 195.68H219.406L223.397 200.915L219.143 206.45H195.554L191.7 201.342L195.554 195.68ZM196.382 138H219.129L223.383 143.52L219.129 148.77H196.659L192.115 143.677L196.382 138ZM323.155 148.628L328.251 154.291L323.155 159.968H246.13L241.172 154.291L246.13 148.628H323.155ZM237.043 172.147L241.849 167.893L246.669 172.147V178.393C246.669 188.879 249.417 197.515 261.668 197.515H264.14C275.147 197.515 281.197 189.86 281.197 177.952V172.005L285.879 167.75L290.699 171.862V178.379C290.699 189.007 293.723 196.946 305.56 196.946H307.618C319.178 196.946 321.235 187.869 321.373 177.952V171.578L326.056 167.608L331 171.72V178.094C330.862 191.838 327.285 207.574 308.032 207.574H305.974C294.552 207.574 288.365 202.324 285.892 195.808C283.006 202.466 275.299 208.286 264.844 208.286H262.358C242.553 208.286 237.194 195.964 237.056 178.663V172.147H237.043ZM276.391 274.744L273.642 267.089L280.796 264.969L305.974 276.721V252.491L311.07 248.095L316.291 252.491V281.829L325.641 286.226L328.251 293.311L320.959 296L276.391 274.744ZM321.235 223.011L328.113 226.27L325.917 233.497L264.002 263.119L256.571 260.146L259.596 252.776L321.235 223.011ZM231.905 263.404L237.954 268.512C237.402 286.51 222.403 296 204.669 296H202.874C194.062 296 183.759 292.6 177.157 286.083L177.834 278.855L184.298 278.002C189.118 282.256 195.858 285.229 202.183 285.229H204.117C216.091 285.229 225.303 280.136 226.27 268.085L231.905 263.404ZM226.256 251.638C225.704 239.16 216.629 234.209 204.103 234.209H202.169C194.739 234.209 189.104 237.182 184.284 241.436L177.834 240.583L177.143 233.355C183.745 226.696 192.957 223.58 202.597 223.58H204.517C222.403 223.58 237.402 232.942 237.94 251.211L231.891 256.176L226.256 251.638Z" fill="#ffffff"/></g><g fill="#ffffff" id="info-group"><path d="M167.0800 570L154.9000 570Q153.7800 570 152.8700 569.1600Q151.9600 568.3200 151.9600 567.0600L151.9600 567.0600Q151.9600 566.5000 152.2400 565.8000L152.2400 565.8000L185.9800 475.5000Q186.4000 474.1000 187.5900 473.0500Q188.7800 472 190.8800 472L190.8800 472L206.1400 472Q208.2400 472 209.3600 473.0500Q210.4800 474.1000 211.0400 475.5000L211.0400 475.5000L244.7800 565.8000Q244.9200 566.5000 244.9200 567.0600L244.9200 567.0600Q244.9200 568.3200 244.0800 569.1600Q243.2400 570 242.1200 570L242.1200 570L229.9400 570Q227.9800 570 227.0700 569.0900Q226.1600 568.1800 225.8800 567.3400L225.8800 567.3400L219.3000 550.2600L177.7200 550.2600L171.1400 567.3400Q170.8600 568.1800 169.9500 569.0900Q169.0400 570 167.0800 570L167.0800 570ZM198.4400 490.9000L182.6200 534.1600L214.4000 534.1600L198.4400 490.9000ZM283.2800 571.4000L283.2800 571.4000Q274.7400 571.4000 268.5100 567.5500Q262.2800 563.7000 258.9200 556.6300Q255.5600 549.5600 255.5600 539.9000L255.5600 539.9000L255.5600 500.5600Q255.5600 499.1600 256.5400 498.1800Q257.5200 497.2000 258.9200 497.2000L258.9200 497.2000L271.2400 497.2000Q272.7800 497.2000 273.6900 498.1800Q274.6000 499.1600 274.6000 500.5600L274.6000 500.5600L274.6000 539.0600Q274.6000 556.4200 289.8600 556.4200L289.8600 556.4200Q297.1400 556.4200 301.4100 551.8000Q305.6800 547.1800 305.6800 539.0600L305.6800 539.0600L305.6800 500.5600Q305.6800 499.1600 306.6600 498.1800Q307.6400 497.2000 309.0400 497.2000L309.0400 497.2000L321.3600 497.2000Q322.7600 497.2000 323.7400 498.1800Q324.7200 499.1600 324.7200 500.5600L324.7200 500.5600L324.7200 566.6400Q324.7200 568.0400 323.7400 569.0200Q322.7600 570 321.3600 570L321.3600 570L310.0200 570Q308.4800 570 307.5700 569.0200Q306.6600 568.0400 306.6600 566.6400L306.6600 566.6400L306.6600 560.9000Q302.8800 565.8000 297.2800 568.6000Q291.6800 571.4000 283.2800 571.4000ZM358.3200 570L346.7000 570Q345.3000 570 344.3200 569.0200Q343.3400 568.0400 343.3400 566.6400L343.3400 566.6400L343.3400 473.9600Q343.3400 472.5600 344.3200 471.5800Q345.3000 470.6000 346.7000 470.6000L346.7000 470.6000L358.3200 470.6000Q359.7200 470.6000 360.7000 471.5800Q361.6800 472.5600 361.6800 473.9600L361.6800 473.9600L361.6800 566.6400Q361.6800 568.0400 360.7000 569.0200Q359.7200 570 358.3200 570L358.3200 570ZM401.4400 571.4000L401.4400 571.4000Q394.1600 571.4000 388.2800 568.5300Q382.4000 565.6600 378.9700 560.8300Q375.5400 556 375.5400 549.9800L375.5400 549.9800Q375.5400 540.1800 383.5200 534.3700Q391.5000 528.5600 404.3800 526.6000L404.3800 526.6000L423.5600 523.8000L423.5600 520.8600Q423.5600 514.9800 420.6200 511.7600Q417.6800 508.5400 410.5400 508.5400L410.5400 508.5400Q405.5000 508.5400 402.3500 510.5700Q399.2000 512.6000 397.6600 515.9600L397.6600 515.9600Q396.5400 517.7800 394.4400 517.7800L394.4400 517.7800L383.3800 517.7800Q381.8400 517.7800 381.0700 516.9400Q380.3000 516.1000 380.3000 514.7000L380.3000 514.7000Q380.4400 512.4600 382.1900 509.2400Q383.9400 506.0200 387.5100 503.0100Q391.0800 500 396.8200 497.9000Q402.5600 495.8000 410.6800 495.8000L410.6800 495.8000Q419.5000 495.8000 425.5900 497.9700Q431.6800 500.1400 435.3200 503.7800Q438.9600 507.4200 440.6400 512.3200Q442.3200 517.2200 442.3200 522.6800L442.3200 522.6800L442.3200 566.6400Q442.3200 568.0400 441.3400 569.0200Q440.3600 570 438.9600 570L438.9600 570L427.6200 570Q426.0800 570 425.1700 569.0200Q424.2600 568.0400 424.2600 566.6400L424.2600 566.6400L424.2600 561.1800Q422.4400 563.7000 419.3600 566.0800Q416.2800 568.4600 411.8700 569.9300Q407.4600 571.4000 401.4400 571.4000ZM406.2000 558.1000L406.2000 558.1000Q411.1000 558.1000 415.0900 556Q419.0800 553.9000 421.3900 549.4900Q423.7000 545.0800 423.7000 538.3600L423.7000 538.3600L423.7000 535.4200L409.7000 537.6600Q401.4400 538.9200 397.3800 541.7200Q393.3200 544.5200 393.3200 548.5800L393.3200 548.5800Q393.3200 551.6600 395.2100 553.8300Q397.1000 556 400.0400 557.0500Q402.9800 558.1000 406.2000 558.1000ZM516.1000 570L503.3600 570Q502.1000 570 501.2600 569.0900Q500.4200 568.1800 500.4200 566.9200L500.4200 566.9200Q500.4200 566.3600 500.7000 565.6600L500.7000 565.6600L534.4400 488.6600L490.4800 488.6600Q488.9400 488.6600 488.0300 487.6800Q487.1200 486.7000 487.1200 485.3000L487.1200 485.3000L487.1200 475.5000Q487.1200 473.9600 488.0300 472.9800Q488.9400 472 490.4800 472L490.4800 472L551.9400 472Q553.4800 472 554.3900 472.9800Q555.3000 473.9600 555.3000 475.5000L555.3000 475.5000L555.3000 484.1800Q555.3000 486.1400 554.9500 487.4700Q554.6000 488.8000 554.0400 490.2000L554.0400 490.2000L520.5800 566.6400Q520.1600 567.6200 519.1100 568.8100Q518.0600 570 516.1000 570L516.1000 570ZM585.1200 521L571.2600 521Q569.8600 521 568.8800 520.0200Q567.9000 519.0400 567.9000 517.6400L567.9000 517.6400L567.9000 504.3400Q567.9000 502.8000 568.8800 501.8200Q569.8600 500.8400 571.2600 500.8400L571.2600 500.8400L585.1200 500.8400Q586.6600 500.8400 587.6400 501.8200Q588.6200 502.8000 588.6200 504.3400L588.6200 504.3400L588.6200 517.6400Q588.6200 519.0400 587.6400 520.0200Q586.6600 521 585.1200 521L585.1200 521ZM585.1200 570L571.2600 570Q569.8600 570 568.8800 569.0200Q567.9000 568.0400 567.9000 566.6400L567.9000 566.6400L567.9000 553.3400Q567.9000 551.8000 568.8800 550.8200Q569.8600 549.8400 571.2600 549.8400L571.2600 549.8400L585.1200 549.8400Q586.6600 549.8400 587.6400 550.8200Q588.6200 551.8000 588.6200 553.3400L588.6200 553.3400L588.6200 566.6400Q588.6200 568.0400 587.6400 569.0200Q586.6600 570 585.1200 570L585.1200 570ZM685.5000 570L643.7800 570Q642.3800 570 641.4000 569.0200Q640.4200 568.0400 640.4200 566.6400L640.4200 566.6400L640.4200 475.5000Q640.4200 473.9600 641.4000 472.9800Q642.3800 472 643.7800 472L643.7800 472L684.3800 472Q695.7200 472 702.8600 475.4300Q710 478.8600 713.4300 484.8800Q716.8600 490.9000 716.8600 498.8800L716.8600 498.8800Q716.8600 504.2000 714.9700 508.1900Q713.0800 512.1800 710.3500 514.7000Q707.6200 517.2200 704.9600 518.6200L704.9600 518.6200Q710.4200 521.1400 714.6200 527.0200Q718.8200 532.9000 718.8200 541.0200L718.8200 541.0200Q718.8200 549.4200 715.0400 556Q711.2600 562.5800 703.8400 566.2900Q696.4200 570 685.5000 570L685.5000 570ZM659.8800 526.7400L659.8800 555.1600L683.2600 555.1600Q690.8200 555.1600 694.7400 551.0300Q698.6600 546.9000 698.6600 541.0200L698.6600 541.0200Q698.6600 534.8600 694.6700 530.8000Q690.6800 526.7400 683.2600 526.7400L683.2600 526.7400L659.8800 526.7400ZM659.8800 486.7000L659.8800 512.1800L681.8600 512.1800Q689.2800 512.1800 692.9900 508.6100Q696.7000 505.0400 696.7000 499.3000L696.7000 499.3000Q696.7000 493.4200 692.9900 490.0600Q689.2800 486.7000 681.8600 486.7000L681.8600 486.7000L659.8800 486.7000ZM749.7600 570L738.1400 570Q736.7400 570 735.7600 569.0200Q734.7800 568.0400 734.7800 566.6400L734.7800 566.6400L734.7800 500.5600Q734.7800 499.1600 735.7600 498.1800Q736.7400 497.2000 738.1400 497.2000L738.1400 497.2000L749.7600 497.2000Q751.3000 497.2000 752.2100 498.1800Q753.1200 499.1600 753.1200 500.5600L753.1200 500.5600L753.1200 566.6400Q753.1200 568.0400 752.2100 569.0200Q751.3000 570 749.7600 570L749.7600 570ZM750.3200 485.1600L737.5800 485.1600Q736.1800 485.1600 735.2000 484.1800Q734.2200 483.2000 734.2200 481.8000L734.2200 481.8000L734.2200 471.7200Q734.2200 470.3200 735.2000 469.3400Q736.1800 468.3600 737.5800 468.3600L737.5800 468.3600L750.3200 468.3600Q751.8600 468.3600 752.8400 469.3400Q753.8200 470.3200 753.8200 471.7200L753.8200 471.7200L753.8200 481.8000Q753.8200 483.2000 752.8400 484.1800Q751.8600 485.1600 750.3200 485.1600L750.3200 485.1600ZM787.4200 570L775.1000 570Q773.7000 570 772.7200 569.0200Q771.7400 568.0400 771.7400 566.6400L771.7400 566.6400L771.7400 500.5600Q771.7400 499.1600 772.7200 498.1800Q773.7000 497.2000 775.1000 497.2000L775.1000 497.2000L786.5800 497.2000Q787.9800 497.2000 788.9600 498.1800Q789.9400 499.1600 789.9400 500.5600L789.9400 500.5600L789.9400 506.3000Q793.5800 501.8200 799.2500 498.8100Q804.9200 495.8000 813.3200 495.8000L813.3200 495.8000Q821.8600 495.8000 828.1600 499.6500Q834.4600 503.5000 837.8900 510.5000Q841.3200 517.5000 841.3200 527.3000L841.3200 527.3000L841.3200 566.6400Q841.3200 568.0400 840.3400 569.0200Q839.3600 570 837.9600 570L837.9600 570L825.6400 570Q824.2400 570 823.2600 569.0200Q822.2800 568.0400 822.2800 566.6400L822.2800 566.6400L822.2800 528.1400Q822.2800 520.0200 818.2900 515.4000Q814.3000 510.7800 806.7400 510.7800L806.7400 510.7800Q799.4600 510.7800 795.1200 515.4000Q790.7800 520.0200 790.7800 528.1400L790.7800 528.1400L790.7800 566.6400Q790.7800 568.0400 789.8000 569.0200Q788.8200 570 787.4200 570L787.4200 570ZM880.2400 571.4000L880.2400 571.4000Q872.9600 571.4000 867.0800 568.5300Q861.2000 565.6600 857.7700 560.8300Q854.3400 556 854.3400 549.9800L854.3400 549.9800Q854.3400 540.1800 862.3200 534.3700Q870.3000 528.5600 883.1800 526.6000L883.1800 526.6000L902.3600 523.8000L902.3600 520.8600Q902.3600 514.9800 899.4200 511.7600Q896.4800 508.5400 889.3400 508.5400L889.3400 508.5400Q884.3000 508.5400 881.1500 510.5700Q878 512.6000 876.4600 515.9600L876.4600 515.9600Q875.3400 517.7800 873.2400 517.7800L873.2400 517.7800L862.1800 517.7800Q860.6400 517.7800 859.8700 516.9400Q859.1000 516.1000 859.1000 514.7000L859.1000 514.7000Q859.2400 512.4600 860.9900 509.2400Q862.7400 506.0200 866.3100 503.0100Q869.8800 500 875.6200 497.9000Q881.3600 495.8000 889.4800 495.8000L889.4800 495.8000Q898.3000 495.8000 904.3900 497.9700Q910.4800 500.1400 914.1200 503.7800Q917.7600 507.4200 919.4400 512.3200Q921.1200 517.2200 921.1200 522.6800L921.1200 522.6800L921.1200 566.6400Q921.1200 568.0400 920.1400 569.0200Q919.1600 570 917.7600 570L917.7600 570L906.4200 570Q904.8800 570 903.9700 569.0200Q903.0600 568.0400 903.0600 566.6400L903.0600 566.6400L903.0600 561.1800Q901.2400 563.7000 898.1600 566.0800Q895.0800 568.4600 890.6700 569.9300Q886.2600 571.4000 880.2400 571.4000ZM885 558.1000L885 558.1000Q889.9000 558.1000 893.8900 556Q897.8800 553.9000 900.1900 549.4900Q902.5000 545.0800 902.5000 538.3600L902.5000 538.3600L902.5000 535.4200L888.5000 537.6600Q880.2400 538.9200 876.1800 541.7200Q872.1200 544.5200 872.1200 548.5800L872.1200 548.5800Q872.1200 551.6600 874.0100 553.8300Q875.9000 556 878.8400 557.0500Q881.7800 558.1000 885 558.1000ZM954.5800 570L942.4000 570Q941.0000 570 940.0200 569.0200Q939.0400 568.0400 939.0400 566.6400L939.0400 566.6400L939.0400 500.7000Q939.0400 499.1600 940.0200 498.1800Q941.0000 497.2000 942.4000 497.2000L942.4000 497.2000L953.7400 497.2000Q955.1400 497.2000 956.1900 498.1800Q957.2400 499.1600 957.2400 500.7000L957.2400 500.7000L957.2400 506.4400Q960.4600 501.9600 965.5700 499.5800Q970.6800 497.2000 977.4000 497.2000L977.4000 497.2000L983.1400 497.2000Q984.6800 497.2000 985.5900 498.1800Q986.5000 499.1600 986.5000 500.5600L986.5000 500.5600L986.5000 510.6400Q986.5000 512.0400 985.5900 513.0200Q984.6800 514 983.1400 514L983.1400 514L972.2200 514Q965.5000 514 961.7900 517.7100Q958.0800 521.4200 958.0800 528.1400L958.0800 528.1400L958.0800 566.6400Q958.0800 568.0400 957.1000 569.0200Q956.1200 570 954.5800 570L954.5800 570ZM1021.6400 596.6000L1010.5800 596.6000Q1009.4600 596.6000 1008.6200 595.7600Q1007.7800 594.9200 1007.7800 593.8000L1007.7800 593.8000Q1007.7800 593.2400 1007.8500 592.7500Q1007.9200 592.2600 1008.3400 591.5600L1008.3400 591.5600L1019.2600 565.6600L992.3800 502.2400Q991.8200 500.8400 991.8200 500.2800L991.8200 500.2800Q991.9600 499.0200 992.8000 498.1100Q993.6400 497.2000 994.9000 497.2000L994.9000 497.2000L1006.2400 497.2000Q1007.9200 497.2000 1008.7600 498.0400Q1009.6000 498.8800 1010.0200 499.8600L1010.0200 499.8600L1028.6400 545.6400L1047.8200 499.8600Q1048.2400 498.7400 1049.0800 497.9700Q1049.9200 497.2000 1051.6000 497.2000L1051.6000 497.2000L1062.8000 497.2000Q1063.9200 497.2000 1064.8300 498.0400Q1065.7400 498.8800 1065.7400 500L1065.7400 500Q1065.7400 500.8400 1065.1800 502.2400L1065.1800 502.2400L1025.5600 593.9400Q1025 595.0600 1024.1600 595.8300Q1023.3200 596.6000 1021.6400 596.6000L1021.6400 596.6000ZM194.9400 711.4000L194.9400 711.4000Q181.9200 711.4000 173.1700 707.5500Q164.4200 703.7000 159.8700 697.4700Q155.3200 691.2400 155.0400 684.3800L155.0400 684.3800Q155.0400 683.1200 155.8800 682.2800Q156.7200 681.4400 157.9800 681.4400L157.9800 681.4400L170.4400 681.4400Q172.2600 681.4400 173.1700 682.2100Q174.0800 682.9800 174.7800 684.1000L174.7800 684.1000Q175.6200 686.7600 178 689.3500Q180.3800 691.9400 184.5100 693.6200Q188.6400 695.3000 194.9400 695.3000L194.9400 695.3000Q205.0200 695.3000 209.9900 691.9400Q214.9600 688.5800 214.9600 682.8400L214.9600 682.8400Q214.9600 678.7800 212.3000 676.3300Q209.6400 673.8800 204.1100 671.8500Q198.5800 669.8200 189.4800 667.5800L189.4800 667.5800Q178.9800 665.0600 171.9100 661.4900Q164.8400 657.9200 161.2700 652.4600Q157.7000 647 157.7000 638.6000L157.7000 638.6000Q157.7000 630.4800 162.1100 624.1800Q166.5200 617.8800 174.7100 614.2400Q182.9000 610.6000 194.2400 610.6000L194.2400 610.6000Q203.3400 610.6000 210.3400 613.0500Q217.3400 615.5000 221.9600 619.4900Q226.5800 623.4800 229.0300 628.0300Q231.4800 632.5800 231.6200 636.9200L231.6200 636.9200Q231.6200 638.0400 230.8500 638.9500Q230.0800 639.8600 228.6800 639.8600L228.6800 639.8600L215.6600 639.8600Q214.5400 639.8600 213.4200 639.3000Q212.3000 638.7400 211.6000 637.2000L211.6000 637.2000Q210.7600 632.8600 206.1400 629.7800Q201.5200 626.7000 194.2400 626.7000L194.2400 626.7000Q186.6800 626.7000 182.0600 629.5000Q177.4400 632.3000 177.4400 638.1800L177.4400 638.1800Q177.4400 642.1000 179.7500 644.6900Q182.0600 647.2800 187.1700 649.2400Q192.2800 651.2000 200.6800 653.4400L200.6800 653.4400Q212.5800 656.1000 220.1400 659.6000Q227.7000 663.1000 231.2000 668.4900Q234.7000 673.8800 234.7000 682.1400L234.7000 682.1400Q234.7000 691.3800 229.7300 697.8900Q224.7600 704.4000 215.8000 707.9000Q206.8400 711.4000 194.9400 711.4000ZM280.4800 711.4000L280.4800 711.4000Q264.9400 711.4000 255.8400 702.4400Q246.7400 693.4800 246.0400 676.9600L246.0400 676.9600Q245.9000 675.5600 245.9000 673.3900Q245.9000 671.2200 246.0400 669.9600L246.0400 669.9600Q246.6000 659.3200 250.8700 651.6900Q255.1400 644.0600 262.7000 639.9300Q270.2600 635.8000 280.4800 635.8000L280.4800 635.8000Q291.8200 635.8000 299.5200 640.4900Q307.2200 645.1800 311.1400 653.5100Q315.0600 661.8400 315.0600 672.7600L315.0600 672.7600L315.0600 675.7000Q315.0600 677.1000 314.0800 678.0800Q313.1000 679.0600 311.5600 679.0600L311.5600 679.0600L265.0800 679.0600Q265.0800 679.0600 265.0800 679.4800Q265.0800 679.9000 265.0800 680.1800L265.0800 680.1800Q265.2200 685.0800 266.9700 689.2100Q268.7200 693.3400 272.1500 695.8600Q275.5800 698.3800 280.3400 698.3800L280.3400 698.3800Q284.2600 698.3800 286.9200 697.1900Q289.5800 696 291.2600 694.4600Q292.9400 692.9200 293.6400 691.9400L293.6400 691.9400Q294.9000 690.2600 295.6700 689.9100Q296.4400 689.5600 297.9800 689.5600L297.9800 689.5600L310.0200 689.5600Q311.4200 689.5600 312.3300 690.4000Q313.2400 691.2400 313.1000 692.5000L313.1000 692.5000Q312.9600 694.7400 310.7900 697.9600Q308.6200 701.1800 304.5600 704.2600Q300.5000 707.3400 294.4100 709.3700Q288.3200 711.4000 280.4800 711.4000ZM265.0800 666.8800L265.0800 667.3000L296.0200 667.3000L296.0200 666.8800Q296.0200 661.4200 294.2000 657.2900Q292.3800 653.1600 288.8800 650.8500Q285.3800 648.5400 280.4800 648.5400L280.4800 648.5400Q275.5800 648.5400 272.0800 650.8500Q268.5800 653.1600 266.8300 657.2900Q265.0800 661.4200 265.0800 666.8800L265.0800 666.8800ZM351.0400 711.4000L351.0400 711.4000Q343.7600 711.4000 337.8800 708.5300Q332.0000 705.6600 328.5700 700.8300Q325.1400 696 325.1400 689.9800L325.1400 689.9800Q325.1400 680.1800 333.1200 674.3700Q341.1000 668.5600 353.9800 666.6000L353.9800 666.6000L373.1600 663.8000L373.1600 660.8600Q373.1600 654.9800 370.2200 651.7600Q367.2800 648.5400 360.1400 648.5400L360.1400 648.5400Q355.1000 648.5400 351.9500 650.5700Q348.8000 652.6000 347.2600 655.9600L347.2600 655.9600Q346.1400 657.7800 344.0400 657.7800L344.0400 657.7800L332.9800 657.7800Q331.4400 657.7800 330.6700 656.9400Q329.9000 656.1000 329.9000 654.7000L329.9000 654.7000Q330.0400 652.4600 331.7900 649.2400Q333.5400 646.0200 337.1100 643.0100Q340.6800 640 346.4200 637.9000Q352.1600 635.8000 360.2800 635.8000L360.2800 635.8000Q369.1000 635.8000 375.1900 637.9700Q381.2800 640.1400 384.9200 643.7800Q388.5600 647.4200 390.2400 652.3200Q391.9200 657.2200 391.9200 662.6800L391.9200 662.6800L391.9200 706.6400Q391.9200 708.0400 390.9400 709.0200Q389.9600 710 388.5600 710L388.5600 710L377.2200 710Q375.6800 710 374.7700 709.0200Q373.8600 708.0400 373.8600 706.6400L373.8600 706.6400L373.8600 701.1800Q372.0400 703.7000 368.9600 706.0800Q365.8800 708.4600 361.4700 709.9300Q357.0600 711.4000 351.0400 711.4000ZM355.8000 698.1000L355.8000 698.1000Q360.7000 698.1000 364.6900 696Q368.6800 693.9000 370.9900 689.4900Q373.3000 685.0800 373.3000 678.3600L373.3000 678.3600L373.3000 675.4200L359.3000 677.6600Q351.0400 678.9200 346.9800 681.7200Q342.9200 684.5200 342.9200 688.5800L342.9200 688.5800Q342.9200 691.6600 344.8100 693.8300Q346.7000 696 349.6400 697.0500Q352.5800 698.1000 355.8000 698.1000ZM425.3800 710L413.2000 710Q411.8000 710 410.8200 709.0200Q409.8400 708.0400 409.8400 706.6400L409.8400 706.6400L409.8400 640.7000Q409.8400 639.1600 410.8200 638.1800Q411.8000 637.2000 413.2000 637.2000L413.2000 637.2000L424.5400 637.2000Q425.9400 637.2000 426.9900 638.1800Q428.0400 639.1600 428.0400 640.7000L428.0400 640.7000L428.0400 646.4400Q431.2600 641.9600 436.3700 639.5800Q441.4800 637.2000 448.2000 637.2000L448.2000 637.2000L453.9400 637.2000Q455.4800 637.2000 456.3900 638.1800Q457.3000 639.1600 457.3000 640.5600L457.3000 640.5600L457.3000 650.6400Q457.3000 652.0400 456.3900 653.0200Q455.4800 654 453.9400 654L453.9400 654L443.0200 654Q436.3000 654 432.5900 657.7100Q428.8800 661.4200 428.8800 668.1400L428.8800 668.1400L428.8800 706.6400Q428.8800 708.0400 427.9000 709.0200Q426.9200 710 425.3800 710L425.3800 710ZM499.7200 711.4000L499.7200 711.4000Q489.6400 711.4000 482.0100 707.6200Q474.3800 703.8400 470.1100 696.6300Q465.8400 689.4200 465.4200 679.2000L465.4200 679.2000Q465.2800 677.1000 465.2800 673.6700Q465.2800 670.2400 465.4200 668L465.4200 668Q465.8400 657.7800 470.1100 650.5700Q474.3800 643.3600 482.0100 639.5800Q489.6400 635.8000 499.7200 635.8000L499.7200 635.8000Q508.6800 635.8000 514.9800 638.2500Q521.2800 640.7000 525.3400 644.5500Q529.4000 648.4000 531.4300 652.5300Q533.4600 656.6600 533.6000 660.0200L533.6000 660.0200Q533.7400 661.5600 532.6900 662.4700Q531.6400 663.3800 530.2400 663.3800L530.2400 663.3800L517.9200 663.3800Q516.5200 663.3800 515.7500 662.6800Q514.9800 661.9800 514.2800 660.5800L514.2800 660.5800Q512.1800 654.9800 508.7500 652.6700Q505.3200 650.3600 500.0000 650.3600L500.0000 650.3600Q493.0000 650.3600 488.8700 654.7700Q484.7400 659.1800 484.4600 668.7000L484.4600 668.7000Q484.1800 674.0200 484.4600 678.5000L484.4600 678.5000Q484.7400 688.1600 488.8700 692.5000Q493.0000 696.8400 500.0000 696.8400L500.0000 696.8400Q505.4600 696.8400 508.8200 694.5300Q512.1800 692.2200 514.2800 686.6200L514.2800 686.6200Q514.9800 685.2200 515.7500 684.5200Q516.5200 683.8200 517.9200 683.8200L517.9200 683.8200L530.2400 683.8200Q531.6400 683.8200 532.6900 684.7300Q533.7400 685.6400 533.6000 687.1800L533.6000 687.1800Q533.4600 689.7000 532.2700 692.8500Q531.0800 696 528.4900 699.2900Q525.9000 702.5800 521.9800 705.3100Q518.0600 708.0400 512.5300 709.7200Q507.0000 711.4000 499.7200 711.4000ZM564.1200 710L551.6600 710Q550.2600 710 549.2800 709.0200Q548.3000 708.0400 548.3000 706.6400L548.3000 706.6400L548.3000 613.9600Q548.3000 612.5600 549.2800 611.5800Q550.2600 610.6000 551.6600 610.6000L551.6600 610.6000L564.1200 610.6000Q565.6600 610.6000 566.5700 611.5800Q567.4800 612.5600 567.4800 613.9600L567.4800 613.9600L567.4800 645.8800Q571.2600 641.4000 576.7200 638.6000Q582.1800 635.8000 590.1600 635.8000L590.1600 635.8000Q598.7000 635.8000 605.0700 639.6500Q611.4400 643.5000 614.9400 650.5000Q618.4400 657.5000 618.4400 667.3000L618.4400 667.3000L618.4400 706.6400Q618.4400 708.0400 617.4600 709.0200Q616.4800 710 615.0800 710L615.0800 710L602.4800 710Q601.0800 710 600.1000 709.0200Q599.1200 708.0400 599.1200 706.6400L599.1200 706.6400L599.1200 668.1400Q599.1200 660.0200 595.1300 655.4000Q591.1400 650.7800 583.5800 650.7800L583.5800 650.7800Q576.3000 650.7800 571.8900 655.4000Q567.4800 660.0200 567.4800 668.1400L567.4800 668.1400L567.4800 706.6400Q567.4800 708.0400 566.5700 709.0200Q565.6600 710 564.1200 710L564.1200 710Z" id="title"/></g></svg>