<svg xmlns="http://www.w3.org/2000/svg" version="1.1" xmlns:xlink="http://www.w3.org/1999/xlink" xmlns:svgjs="http://svgjs.dev/svgjs" viewBox="0 0 1920 1080" id="02bb04c4-d42b-475c-bc94-60449fe49e2a"><g><rect width="1920" height="1080" fill="#798086"/></g><g fill="#b949a4"><path d="M969.5 217C561.465 217 231 547.465 231 955.5C231 1363.53 561.465 1694 969.5 1694C1377.53 1694 1708 1363.53 1708 955.5C1708 547.465 1377.53 217 969.5 217ZM969.5 1309.34C773.983 1309.34 615.658 1151.02 615.658 955.5C615.658 759.983 773.983 601.658 969.5 601.658C1165.02 601.658 1323.34 759.983 1323.34 955.5C1323.34 1151.02 1165.02 1309.34 969.5 1309.34Z"/></g><g fill="#ffffff" opacity="0.2"><path d="M1432 918.479L1616.48 734V918.479H1432Z"/><path d="M1616.48 918.479L1800.52 734V918.479H1616.48Z"/><path d="M1800.52 918.479L1985 734V918.479H1800.52Z"/><path d="M1432 1102.52L1616.48 918.479V1102.52H1432Z"/><path d="M1616.48 1102.52L1800.52 918.479V1102.52H1616.48Z"/><path d="M1800.52 1102.52L1985 918.479V1102.52H1800.52Z"/><path d="M499 154.521L683.479 -29.5215V154.521H499Z"/><path d="M683.479 154.521L867.521 -29.5215V154.521H683.479Z"/><path d="M867.521 154.521L1052 -29.5215V154.521H867.521Z"/><path d="M499 339L683.479 154.521V339H499Z"/><path d="M683.479 339L867.521 154.521V339H683.479Z"/><path d="M867.521 339L1052 154.521V339H867.521Z"/></g><g><path d="M178.635 139.281L184.422 144.246V166.626H215.704L219.958 172.147L215.69 177.397H184.422V198.795L178.635 203.747L173 198.795V144.232L178.635 139.281ZM195.554 195.68H219.406L223.397 200.915L219.143 206.45H195.554L191.7 201.342L195.554 195.68ZM196.382 138H219.129L223.383 143.52L219.129 148.77H196.659L192.115 143.677L196.382 138ZM323.155 148.628L328.251 154.291L323.155 159.968H246.13L241.172 154.291L246.13 148.628H323.155ZM237.043 172.147L241.849 167.893L246.669 172.147V178.393C246.669 188.879 249.417 197.515 261.668 197.515H264.14C275.147 197.515 281.197 189.86 281.197 177.952V172.005L285.879 167.75L290.699 171.862V178.379C290.699 189.007 293.723 196.946 305.56 196.946H307.618C319.178 196.946 321.235 187.869 321.373 177.952V171.578L326.056 167.608L331 171.72V178.094C330.862 191.838 327.285 207.574 308.032 207.574H305.974C294.552 207.574 288.365 202.324 285.892 195.808C283.006 202.466 275.299 208.286 264.844 208.286H262.358C242.553 208.286 237.194 195.964 237.056 178.663V172.147H237.043ZM276.391 274.744L273.642 267.089L280.796 264.969L305.974 276.721V252.491L311.07 248.095L316.291 252.491V281.829L325.641 286.226L328.251 293.311L320.959 296L276.391 274.744ZM321.235 223.011L328.113 226.27L325.917 233.497L264.002 263.119L256.571 260.146L259.596 252.776L321.235 223.011ZM231.905 263.404L237.954 268.512C237.402 286.51 222.403 296 204.669 296H202.874C194.062 296 183.759 292.6 177.157 286.083L177.834 278.855L184.298 278.002C189.118 282.256 195.858 285.229 202.183 285.229H204.117C216.091 285.229 225.303 280.136 226.27 268.085L231.905 263.404ZM226.256 251.638C225.704 239.16 216.629 234.209 204.103 234.209H202.169C194.739 234.209 189.104 237.182 184.284 241.436L177.834 240.583L177.143 233.355C183.745 226.696 192.957 223.58 202.597 223.58H204.517C222.403 223.58 237.402 232.942 237.94 251.211L231.891 256.176L226.256 251.638Z" fill="#ffffff"/></g><g fill="#ffffff" id="info-group"><path d="M167.0800 360L154.9000 360Q153.7800 360 152.8700 359.1600Q151.9600 358.3200 151.9600 357.0600L151.9600 357.0600Q151.9600 356.5000 152.2400 355.8000L152.2400 355.8000L185.9800 265.5000Q186.4000 264.1000 187.5900 263.0500Q188.7800 262 190.8800 262L190.8800 262L206.1400 262Q208.2400 262 209.3600 263.0500Q210.4800 264.1000 211.0400 265.5000L211.0400 265.5000L244.7800 355.8000Q244.9200 356.5000 244.9200 357.0600L244.9200 357.0600Q244.9200 358.3200 244.0800 359.1600Q243.2400 360 242.1200 360L242.1200 360L229.9400 360Q227.9800 360 227.0700 359.0900Q226.1600 358.1800 225.8800 357.3400L225.8800 357.3400L219.3000 340.2600L177.7200 340.2600L171.1400 357.3400Q170.8600 358.1800 169.9500 359.0900Q169.0400 360 167.0800 360L167.0800 360ZM198.4400 280.9000L182.6200 324.1600L214.4000 324.1600L198.4400 280.9000ZM283.2800 361.4000L283.2800 361.4000Q274.7400 361.4000 268.5100 357.5500Q262.2800 353.7000 258.9200 346.6300Q255.5600 339.5600 255.5600 329.9000L255.5600 329.9000L255.5600 290.5600Q255.5600 289.1600 256.5400 288.1800Q257.5200 287.2000 258.9200 287.2000L258.9200 287.2000L271.2400 287.2000Q272.7800 287.2000 273.6900 288.1800Q274.6000 289.1600 274.6000 290.5600L274.6000 290.5600L274.6000 329.0600Q274.6000 346.4200 289.8600 346.4200L289.8600 346.4200Q297.1400 346.4200 301.4100 341.8000Q305.6800 337.1800 305.6800 329.0600L305.6800 329.0600L305.6800 290.5600Q305.6800 289.1600 306.6600 288.1800Q307.6400 287.2000 309.0400 287.2000L309.0400 287.2000L321.3600 287.2000Q322.7600 287.2000 323.7400 288.1800Q324.7200 289.1600 324.7200 290.5600L324.7200 290.5600L324.7200 356.6400Q324.7200 358.0400 323.7400 359.0200Q322.7600 360 321.3600 360L321.3600 360L310.0200 360Q308.4800 360 307.5700 359.0200Q306.6600 358.0400 306.6600 356.6400L306.6600 356.6400L306.6600 350.9000Q302.8800 355.8000 297.2800 358.6000Q291.6800 361.4000 283.2800 361.4000ZM358.3200 360L346.7000 360Q345.3000 360 344.3200 359.0200Q343.3400 358.0400 343.3400 356.6400L343.3400 356.6400L343.3400 263.9600Q343.3400 262.5600 344.3200 261.5800Q345.3000 260.6000 346.7000 260.6000L346.7000 260.6000L358.3200 260.6000Q359.7200 260.6000 360.7000 261.5800Q361.6800 262.5600 361.6800 263.9600L361.6800 263.9600L361.6800 356.6400Q361.6800 358.0400 360.7000 359.0200Q359.7200 360 358.3200 360L358.3200 360ZM401.4400 361.4000L401.4400 361.4000Q394.1600 361.4000 388.2800 358.5300Q382.4000 355.6600 378.9700 350.8300Q375.5400 346 375.5400 339.9800L375.5400 339.9800Q375.5400 330.1800 383.5200 324.3700Q391.5000 318.5600 404.3800 316.6000L404.3800 316.6000L423.5600 313.8000L423.5600 310.8600Q423.5600 304.9800 420.6200 301.7600Q417.6800 298.5400 410.5400 298.5400L410.5400 298.5400Q405.5000 298.5400 402.3500 300.5700Q399.2000 302.6000 397.6600 305.9600L397.6600 305.9600Q396.5400 307.7800 394.4400 307.7800L394.4400 307.7800L383.3800 307.7800Q381.8400 307.7800 381.0700 306.9400Q380.3000 306.1000 380.3000 304.7000L380.3000 304.7000Q380.4400 302.4600 382.1900 299.2400Q383.9400 296.0200 387.5100 293.0100Q391.0800 290 396.8200 287.9000Q402.5600 285.8000 410.6800 285.8000L410.6800 285.8000Q419.5000 285.8000 425.5900 287.9700Q431.6800 290.1400 435.3200 293.7800Q438.9600 297.4200 440.6400 302.3200Q442.3200 307.2200 442.3200 312.6800L442.3200 312.6800L442.3200 356.6400Q442.3200 358.0400 441.3400 359.0200Q440.3600 360 438.9600 360L438.9600 360L427.6200 360Q426.0800 360 425.1700 359.0200Q424.2600 358.0400 424.2600 356.6400L424.2600 356.6400L424.2600 351.1800Q422.4400 353.7000 419.3600 356.0800Q416.2800 358.4600 411.8700 359.9300Q407.4600 361.4000 401.4400 361.4000ZM406.2000 348.1000L406.2000 348.1000Q411.1000 348.1000 415.0900 346Q419.0800 343.9000 421.3900 339.4900Q423.7000 335.0800 423.7000 328.3600L423.7000 328.3600L423.7000 325.4200L409.7000 327.6600Q401.4400 328.9200 397.3800 331.7200Q393.3200 334.5200 393.3200 338.5800L393.3200 338.5800Q393.3200 341.6600 395.2100 343.8300Q397.1000 346 400.0400 347.0500Q402.9800 348.1000 406.2000 348.1000ZM527.7200 361.4000L527.7200 361.4000Q515.6800 361.4000 507.0000 356.8500Q498.3200 352.3000 493.5600 344.5300Q488.8000 336.7600 488.8000 327.1000L488.8000 327.1000Q488.8000 322.7600 489.9200 318.7000Q491.0400 314.6400 492.8600 311Q494.6800 307.3600 496.4300 304.4900Q498.1800 301.6200 499.5800 299.9400L499.5800 299.9400L525.2000 264.8000Q525.7600 264.1000 526.8800 263.0500Q528.0000 262 529.9600 262L529.9600 262L542.9800 262Q544.2400 262 545.0800 262.9100Q545.9200 263.8200 545.9200 265.0800L545.9200 265.0800Q545.9200 265.6400 545.7100 266.1300Q545.5000 266.6200 545.2200 266.9000L545.2200 266.9000L525.6200 294.0600Q526.8800 293.6400 528.5600 293.5000Q530.2400 293.3600 531.6400 293.3600L531.6400 293.3600Q538.6400 293.5000 544.9400 296.0900Q551.2400 298.6800 556.0000 303.1600Q560.7600 307.6400 563.4900 313.6600Q566.2200 319.6800 566.2200 326.8200L566.2200 326.8200Q566.2200 336.0600 561.6000 343.9700Q556.9800 351.8800 548.3700 356.6400Q539.7600 361.4000 527.7200 361.4000ZM527.5800 345.3000L527.5800 345.3000Q532.6200 345.3000 536.8900 343.2000Q541.1600 341.1000 543.8200 337.0400Q546.4800 332.9800 546.4800 326.9600L546.4800 326.9600Q546.4800 321.0800 543.8200 317.0200Q541.1600 312.9600 536.8900 310.8600Q532.6200 308.7600 527.5800 308.7600L527.5800 308.7600Q522.5400 308.7600 518.2700 310.8600Q514.0000 312.9600 511.3400 317.0200Q508.6800 321.0800 508.6800 326.9600L508.6800 326.9600Q508.6800 332.9800 511.3400 337.0400Q514.0000 341.1000 518.2700 343.2000Q522.5400 345.3000 527.5800 345.3000ZM596.8800 311L583.0200 311Q581.6200 311 580.6400 310.0200Q579.6600 309.0400 579.6600 307.6400L579.6600 307.6400L579.6600 294.3400Q579.6600 292.8000 580.6400 291.8200Q581.6200 290.8400 583.0200 290.8400L583.0200 290.8400L596.8800 290.8400Q598.4200 290.8400 599.4000 291.8200Q600.3800 292.8000 600.3800 294.3400L600.3800 294.3400L600.3800 307.6400Q600.3800 309.0400 599.4000 310.0200Q598.4200 311 596.8800 311L596.8800 311ZM596.8800 360L583.0200 360Q581.6200 360 580.6400 359.0200Q579.6600 358.0400 579.6600 356.6400L579.6600 356.6400L579.6600 343.3400Q579.6600 341.8000 580.6400 340.8200Q581.6200 339.8400 583.0200 339.8400L583.0200 339.8400L596.8800 339.8400Q598.4200 339.8400 599.4000 340.8200Q600.3800 341.8000 600.3800 343.3400L600.3800 343.3400L600.3800 356.6400Q600.3800 358.0400 599.4000 359.0200Q598.4200 360 596.8800 360L596.8800 360ZM689.9800 361.4000L689.9800 361.4000Q676.9600 361.4000 667.9300 356.8500Q658.9000 352.3000 654.1400 343.8300Q649.3800 335.3600 648.8200 323.4600L648.8200 323.4600Q648.6800 317.7200 648.6800 311.1400Q648.6800 304.5600 648.8200 298.5400L648.8200 298.5400Q649.3800 286.7800 654.2100 278.2400Q659.0400 269.7000 668.0700 265.1500Q677.1000 260.6000 689.9800 260.6000L689.9800 260.6000Q699.5000 260.6000 707.0600 263.1200Q714.6200 265.6400 719.9400 270.0500Q725.2600 274.4600 728.2000 280.3400Q731.1400 286.2200 731.2800 293.0800L731.2800 293.0800Q731.4200 294.3400 730.5100 295.1800Q729.6000 296.0200 728.3400 296.0200L728.3400 296.0200L715.0400 296.0200Q713.5000 296.0200 712.5200 295.2500Q711.5400 294.4800 711.1200 292.6600L711.1200 292.6600Q708.8800 283.4200 703.4200 280.0600Q697.9600 276.7000 689.8400 276.7000L689.8400 276.7000Q680.4600 276.7000 674.8600 281.9500Q669.2600 287.2000 668.8400 299.2400L668.8400 299.2400Q668.4200 310.7200 668.8400 322.7600L668.8400 322.7600Q669.2600 334.8000 674.8600 340.0500Q680.4600 345.3000 689.8400 345.3000L689.8400 345.3000Q697.9600 345.3000 703.4900 341.8700Q709.0200 338.4400 711.1200 329.3400L711.1200 329.3400Q711.5400 327.3800 712.5200 326.6800Q713.5000 325.9800 715.0400 325.9800L715.0400 325.9800L728.3400 325.9800Q729.6000 325.9800 730.5100 326.8200Q731.4200 327.6600 731.2800 328.9200L731.2800 328.9200Q731.1400 335.7800 728.2000 341.6600Q725.2600 347.5400 719.9400 351.9500Q714.6200 356.3600 707.0600 358.8800Q699.5000 361.4000 689.9800 361.4000ZM778.4600 361.4000L778.4600 361.4000Q767.2600 361.4000 759.6300 357.4800Q752 353.5600 748.0100 346.4200Q744.0200 339.2800 743.4600 329.7600L743.4600 329.7600Q743.3200 327.2400 743.3200 323.6000Q743.3200 319.9600 743.4600 317.4400L743.4600 317.4400Q744.0200 307.7800 748.1500 300.7100Q752.2800 293.6400 759.9100 289.7200Q767.5400 285.8000 778.4600 285.8000L778.4600 285.8000Q789.3800 285.8000 797.0100 289.7200Q804.6400 293.6400 808.7700 300.7100Q812.9000 307.7800 813.4600 317.4400L813.4600 317.4400Q813.6000 319.9600 813.6000 323.6000Q813.6000 327.2400 813.4600 329.7600L813.4600 329.7600Q812.9000 339.2800 808.9100 346.4200Q804.9200 353.5600 797.2900 357.4800Q789.6600 361.4000 778.4600 361.4000ZM778.4600 347.5400L778.4600 347.5400Q785.8800 347.5400 789.9400 342.8500Q794 338.1600 794.4200 329.0600L794.4200 329.0600Q794.5600 326.9600 794.5600 323.6000Q794.5600 320.2400 794.4200 318.1400L794.4200 318.1400Q794 309.0400 789.9400 304.3500Q785.8800 299.6600 778.4600 299.6600L778.4600 299.6600Q771.0400 299.6600 766.9800 304.3500Q762.9200 309.0400 762.5000 318.1400L762.5000 318.1400Q762.3600 320.2400 762.3600 323.6000Q762.3600 326.9600 762.5000 329.0600L762.5000 329.0600Q762.9200 338.1600 766.9800 342.8500Q771.0400 347.5400 778.4600 347.5400ZM844.2600 360L832.5000 360Q831.1000 360 830.1200 359.0200Q829.1400 358.0400 829.1400 356.6400L829.1400 356.6400L829.1400 290.5600Q829.1400 289.1600 830.1200 288.1800Q831.1000 287.2000 832.5000 287.2000L832.5000 287.2000L843.4200 287.2000Q844.8200 287.2000 845.8000 288.1800Q846.7800 289.1600 846.7800 290.5600L846.7800 290.5600L846.7800 295.3200Q849.7200 291.4000 854.6900 288.6700Q859.6600 285.9400 866.5200 285.8000L866.5200 285.8000Q882.4800 285.5200 888.7800 298.2600L888.7800 298.2600Q892 292.6600 898.0900 289.2300Q904.1800 285.8000 911.6000 285.8000L911.6000 285.8000Q918.8800 285.8000 924.8300 289.1600Q930.7800 292.5200 934.2100 299.3100Q937.6400 306.1000 937.6400 316.4600L937.6400 316.4600L937.6400 356.6400Q937.6400 358.0400 936.6600 359.0200Q935.6800 360 934.2800 360L934.2800 360L922.8000 360Q921.4000 360 920.4200 359.0200Q919.4400 358.0400 919.4400 356.6400L919.4400 356.6400L919.4400 317.5800Q919.4400 311.2800 917.6200 307.5700Q915.8000 303.8600 912.7200 302.3200Q909.6400 300.7800 905.8600 300.7800L905.8600 300.7800Q902.7800 300.7800 899.7000 302.3200Q896.6200 303.8600 894.6600 307.5700Q892.7000 311.2800 892.7000 317.5800L892.7000 317.5800L892.7000 356.6400Q892.7000 358.0400 891.7200 359.0200Q890.7400 360 889.3400 360L889.3400 360L877.8600 360Q876.4600 360 875.4800 359.0200Q874.5000 358.0400 874.5000 356.6400L874.5000 356.6400L874.5000 317.5800Q874.5000 311.2800 872.5400 307.5700Q870.5800 303.8600 867.5000 302.3200Q864.4200 300.7800 860.9200 300.7800L860.9200 300.7800Q857.7000 300.7800 854.6200 302.3900Q851.5400 304 849.5800 307.6400Q847.6200 311.2800 847.6200 317.5800L847.6200 317.5800L847.6200 356.6400Q847.6200 358.0400 846.6400 359.0200Q845.6600 360 844.2600 360L844.2600 360ZM987.6200 361.4000L987.6200 361.4000Q976.4200 361.4000 968.7900 357.4800Q961.1600 353.5600 957.1700 346.4200Q953.1800 339.2800 952.6200 329.7600L952.6200 329.7600Q952.4800 327.2400 952.4800 323.6000Q952.4800 319.9600 952.6200 317.4400L952.6200 317.4400Q953.1800 307.7800 957.3100 300.7100Q961.4400 293.6400 969.0700 289.7200Q976.7000 285.8000 987.6200 285.8000L987.6200 285.8000Q998.5400 285.8000 1006.1700 289.7200Q1013.8000 293.6400 1017.9300 300.7100Q1022.0600 307.7800 1022.6200 317.4400L1022.6200 317.4400Q1022.7600 319.9600 1022.7600 323.6000Q1022.7600 327.2400 1022.6200 329.7600L1022.6200 329.7600Q1022.0600 339.2800 1018.0700 346.4200Q1014.0800 353.5600 1006.4500 357.4800Q998.8200 361.4000 987.6200 361.4000ZM987.6200 347.5400L987.6200 347.5400Q995.0400 347.5400 999.1000 342.8500Q1003.1600 338.1600 1003.5800 329.0600L1003.5800 329.0600Q1003.7200 326.9600 1003.7200 323.6000Q1003.7200 320.2400 1003.5800 318.1400L1003.5800 318.1400Q1003.1600 309.0400 999.1000 304.3500Q995.0400 299.6600 987.6200 299.6600L987.6200 299.6600Q980.2000 299.6600 976.1400 304.3500Q972.0800 309.0400 971.6600 318.1400L971.6600 318.1400Q971.5200 320.2400 971.5200 323.6000Q971.5200 326.9600 971.6600 329.0600L971.6600 329.0600Q972.0800 338.1600 976.1400 342.8500Q980.2000 347.5400 987.6200 347.5400ZM174.2200 500L162.6000 500Q161.2000 500 160.2200 499.0200Q159.2400 498.0400 159.2400 496.6400L159.2400 496.6400L159.2400 430.5600Q159.2400 429.1600 160.2200 428.1800Q161.2000 427.2000 162.6000 427.2000L162.6000 427.2000L174.2200 427.2000Q175.7600 427.2000 176.6700 428.1800Q177.5800 429.1600 177.5800 430.5600L177.5800 430.5600L177.5800 496.6400Q177.5800 498.0400 176.6700 499.0200Q175.7600 500 174.2200 500L174.2200 500ZM174.7800 415.1600L162.0400 415.1600Q160.6400 415.1600 159.6600 414.1800Q158.6800 413.2000 158.6800 411.8000L158.6800 411.8000L158.6800 401.7200Q158.6800 400.3200 159.6600 399.3400Q160.6400 398.3600 162.0400 398.3600L162.0400 398.3600L174.7800 398.3600Q176.3200 398.3600 177.3000 399.3400Q178.2800 400.3200 178.2800 401.7200L178.2800 401.7200L178.2800 411.8000Q178.2800 413.2000 177.3000 414.1800Q176.3200 415.1600 174.7800 415.1600L174.7800 415.1600ZM211.8800 500L199.5600 500Q198.1600 500 197.1800 499.0200Q196.2000 498.0400 196.2000 496.6400L196.2000 496.6400L196.2000 430.5600Q196.2000 429.1600 197.1800 428.1800Q198.1600 427.2000 199.5600 427.2000L199.5600 427.2000L211.0400 427.2000Q212.4400 427.2000 213.4200 428.1800Q214.4000 429.1600 214.4000 430.5600L214.4000 430.5600L214.4000 436.3000Q218.0400 431.8200 223.7100 428.8100Q229.3800 425.8000 237.7800 425.8000L237.7800 425.8000Q246.3200 425.8000 252.6200 429.6500Q258.9200 433.5000 262.3500 440.5000Q265.7800 447.5000 265.7800 457.3000L265.7800 457.3000L265.7800 496.6400Q265.7800 498.0400 264.8000 499.0200Q263.8200 500 262.4200 500L262.4200 500L250.1000 500Q248.7000 500 247.7200 499.0200Q246.7400 498.0400 246.7400 496.6400L246.7400 496.6400L246.7400 458.1400Q246.7400 450.0200 242.7500 445.4000Q238.7600 440.7800 231.2000 440.7800L231.2000 440.7800Q223.9200 440.7800 219.5800 445.4000Q215.2400 450.0200 215.2400 458.1400L215.2400 458.1400L215.2400 496.6400Q215.2400 498.0400 214.2600 499.0200Q213.2800 500 211.8800 500L211.8800 500ZM311.1400 501.4000L311.1400 501.4000Q302.7400 501.4000 296.7900 499.4400Q290.8400 497.4800 287.0600 494.5400Q283.2800 491.6000 281.4600 488.6600Q279.6400 485.7200 279.5000 483.7600L279.5000 483.7600Q279.3600 482.2200 280.4100 481.3100Q281.4600 480.4000 282.7200 480.4000L282.7200 480.4000L293.7800 480.4000Q294.3400 480.4000 294.7600 480.5400Q295.1800 480.6800 295.8800 481.3800L295.8800 481.3800Q297.7000 482.9200 299.7300 484.6000Q301.7600 486.2800 304.5600 487.4700Q307.3600 488.6600 311.5600 488.6600L311.5600 488.6600Q317.0200 488.6600 320.7300 486.4900Q324.4400 484.3200 324.4400 480.2600L324.4400 480.2600Q324.4400 477.3200 322.8300 475.5000Q321.2200 473.6800 316.8800 472.2100Q312.5400 470.7400 304.5600 469.0600L304.5600 469.0600Q296.7200 467.2400 291.5400 464.4400Q286.3600 461.6400 283.8400 457.4400Q281.3200 453.2400 281.3200 447.6400L281.3200 447.6400Q281.3200 442.1800 284.6100 437.2100Q287.9000 432.2400 294.4100 429.0200Q300.9200 425.8000 310.5800 425.8000L310.5800 425.8000Q318.1400 425.8000 323.7400 427.6900Q329.3400 429.5800 333.0500 432.3800Q336.7600 435.1800 338.7200 438.0500Q340.6800 440.9200 340.8200 443.0200L340.8200 443.0200Q340.9600 444.5600 339.9800 445.4700Q339.0000 446.3800 337.7400 446.3800L337.7400 446.3800L327.3800 446.3800Q326.6800 446.3800 326.1200 446.1000Q325.5600 445.8200 325.0000 445.4000L325.0000 445.4000Q323.4600 444 321.6400 442.3900Q319.8200 440.7800 317.2300 439.6600Q314.6400 438.5400 310.4400 438.5400L310.4400 438.5400Q305.1200 438.5400 302.3200 440.8500Q299.5200 443.1600 299.5200 446.6600L299.5200 446.6600Q299.5200 449.0400 300.8500 450.7900Q302.1800 452.5400 306.2400 454.0800Q310.3000 455.6200 318.5600 457.3000L318.5600 457.3000Q327.9400 458.9800 333.4700 462.2700Q339.0000 465.5600 341.3100 469.8300Q343.6200 474.1000 343.6200 479.2800L343.6200 479.2800Q343.6200 485.5800 339.9100 490.6200Q336.2000 495.6600 328.9900 498.5300Q321.7800 501.4000 311.1400 501.4000ZM402.2800 500L390.9400 500Q382.5400 500 376.8000 497.0600Q371.0600 494.1200 368.2600 488.3100Q365.4600 482.5000 365.4600 473.8200L365.4600 473.8200L365.4600 442.0400L354.4000 442.0400Q353.0000 442.0400 352.0200 441.0600Q351.0400 440.0800 351.0400 438.5400L351.0400 438.5400L351.0400 430.5600Q351.0400 429.1600 352.0200 428.1800Q353.0000 427.2000 354.4000 427.2000L354.4000 427.2000L365.4600 427.2000L365.4600 403.9600Q365.4600 402.5600 366.3700 401.5800Q367.2800 400.6000 368.8200 400.6000L368.8200 400.6000L380.1600 400.6000Q381.5600 400.6000 382.5400 401.5800Q383.5200 402.5600 383.5200 403.9600L383.5200 403.9600L383.5200 427.2000L401.0200 427.2000Q402.4200 427.2000 403.4000 428.1800Q404.3800 429.1600 404.3800 430.5600L404.3800 430.5600L404.3800 438.5400Q404.3800 440.0800 403.4000 441.0600Q402.4200 442.0400 401.0200 442.0400L401.0200 442.0400L383.5200 442.0400L383.5200 472.4200Q383.5200 478.1600 385.5500 481.3800Q387.5800 484.6000 392.6200 484.6000L392.6200 484.6000L402.2800 484.6000Q403.6800 484.6000 404.6600 485.5800Q405.6400 486.5600 405.6400 487.9600L405.6400 487.9600L405.6400 496.6400Q405.6400 498.0400 404.6600 499.0200Q403.6800 500 402.2800 500L402.2800 500ZM439.2400 501.4000L439.2400 501.4000Q431.9600 501.4000 426.0800 498.5300Q420.2000 495.6600 416.7700 490.8300Q413.3400 486 413.3400 479.9800L413.3400 479.9800Q413.3400 470.1800 421.3200 464.3700Q429.3000 458.5600 442.1800 456.6000L442.1800 456.6000L461.3600 453.8000L461.3600 450.8600Q461.3600 444.9800 458.4200 441.7600Q455.4800 438.5400 448.3400 438.5400L448.3400 438.5400Q443.3000 438.5400 440.1500 440.5700Q437.0000 442.6000 435.4600 445.9600L435.4600 445.9600Q434.3400 447.7800 432.2400 447.7800L432.2400 447.7800L421.1800 447.7800Q419.6400 447.7800 418.8700 446.9400Q418.1000 446.1000 418.1000 444.7000L418.1000 444.7000Q418.2400 442.4600 419.9900 439.2400Q421.7400 436.0200 425.3100 433.0100Q428.8800 430 434.6200 427.9000Q440.3600 425.8000 448.4800 425.8000L448.4800 425.8000Q457.3000 425.8000 463.3900 427.9700Q469.4800 430.1400 473.1200 433.7800Q476.7600 437.4200 478.4400 442.3200Q480.1200 447.2200 480.1200 452.6800L480.1200 452.6800L480.1200 496.6400Q480.1200 498.0400 479.1400 499.0200Q478.1600 500 476.7600 500L476.7600 500L465.4200 500Q463.8800 500 462.9700 499.0200Q462.0600 498.0400 462.0600 496.6400L462.0600 496.6400L462.0600 491.1800Q460.2400 493.7000 457.1600 496.0800Q454.0800 498.4600 449.6700 499.9300Q445.2600 501.4000 439.2400 501.4000ZM444.0000 488.1000L444.0000 488.1000Q448.9000 488.1000 452.8900 486Q456.8800 483.9000 459.1900 479.4900Q461.5000 475.0800 461.5000 468.3600L461.5000 468.3600L461.5000 465.4200L447.5000 467.6600Q439.2400 468.9200 435.1800 471.7200Q431.1200 474.5200 431.1200 478.5800L431.1200 478.5800Q431.1200 481.6600 433.0100 483.8300Q434.9000 486 437.8400 487.0500Q440.7800 488.1000 444.0000 488.1000ZM513.1600 500L501.5400 500Q500.1400 500 499.1600 499.0200Q498.1800 498.0400 498.1800 496.6400L498.1800 496.6400L498.1800 403.9600Q498.1800 402.5600 499.1600 401.5800Q500.1400 400.6000 501.5400 400.6000L501.5400 400.6000L513.1600 400.6000Q514.5600 400.6000 515.5400 401.5800Q516.5200 402.5600 516.5200 403.9600L516.5200 403.9600L516.5200 496.6400Q516.5200 498.0400 515.5400 499.0200Q514.5600 500 513.1600 500L513.1600 500ZM556.2800 501.4000L556.2800 501.4000Q549.0000 501.4000 543.1200 498.5300Q537.2400 495.6600 533.8100 490.8300Q530.3800 486 530.3800 479.9800L530.3800 479.9800Q530.3800 470.1800 538.3600 464.3700Q546.3400 458.5600 559.2200 456.6000L559.2200 456.6000L578.4000 453.8000L578.4000 450.8600Q578.4000 444.9800 575.4600 441.7600Q572.5200 438.5400 565.3800 438.5400L565.3800 438.5400Q560.3400 438.5400 557.1900 440.5700Q554.0400 442.6000 552.5000 445.9600L552.5000 445.9600Q551.3800 447.7800 549.2800 447.7800L549.2800 447.7800L538.2200 447.7800Q536.6800 447.7800 535.9100 446.9400Q535.1400 446.1000 535.1400 444.7000L535.1400 444.7000Q535.2800 442.4600 537.0300 439.2400Q538.7800 436.0200 542.3500 433.0100Q545.9200 430 551.6600 427.9000Q557.4000 425.8000 565.5200 425.8000L565.5200 425.8000Q574.3400 425.8000 580.4300 427.9700Q586.5200 430.1400 590.1600 433.7800Q593.8000 437.4200 595.4800 442.3200Q597.1600 447.2200 597.1600 452.6800L597.1600 452.6800L597.1600 496.6400Q597.1600 498.0400 596.1800 499.0200Q595.2000 500 593.8000 500L593.8000 500L582.4600 500Q580.9200 500 580.0100 499.0200Q579.1000 498.0400 579.1000 496.6400L579.1000 496.6400L579.1000 491.1800Q577.2800 493.7000 574.2000 496.0800Q571.1200 498.4600 566.7100 499.9300Q562.3000 501.4000 556.2800 501.4000ZM561.0400 488.1000L561.0400 488.1000Q565.9400 488.1000 569.9300 486Q573.9200 483.9000 576.2300 479.4900Q578.5400 475.0800 578.5400 468.3600L578.5400 468.3600L578.5400 465.4200L564.5400 467.6600Q556.2800 468.9200 552.2200 471.7200Q548.1600 474.5200 548.1600 478.5800L548.1600 478.5800Q548.1600 481.6600 550.0500 483.8300Q551.9400 486 554.8800 487.0500Q557.8200 488.1000 561.0400 488.1000ZM630.6200 500L618.4400 500Q617.0400 500 616.0600 499.0200Q615.0800 498.0400 615.0800 496.6400L615.0800 496.6400L615.0800 430.7000Q615.0800 429.1600 616.0600 428.1800Q617.0400 427.2000 618.4400 427.2000L618.4400 427.2000L629.7800 427.2000Q631.1800 427.2000 632.2300 428.1800Q633.2800 429.1600 633.2800 430.7000L633.2800 430.7000L633.2800 436.4400Q636.5000 431.9600 641.6100 429.5800Q646.7200 427.2000 653.4400 427.2000L653.4400 427.2000L659.1800 427.2000Q660.7200 427.2000 661.6300 428.1800Q662.5400 429.1600 662.5400 430.5600L662.5400 430.5600L662.5400 440.6400Q662.5400 442.0400 661.6300 443.0200Q660.7200 444 659.1800 444L659.1800 444L648.2600 444Q641.5400 444 637.8300 447.7100Q634.1200 451.4200 634.1200 458.1400L634.1200 458.1400L634.1200 496.6400Q634.1200 498.0400 633.1400 499.0200Q632.1600 500 630.6200 500L630.6200 500ZM745.4200 500L710.5600 500Q709.1600 500 708.1800 499.0200Q707.2000 498.0400 707.2000 496.6400L707.2000 496.6400L707.2000 405.5000Q707.2000 403.9600 708.1800 402.9800Q709.1600 402 710.5600 402L710.5600 402L744.7200 402Q758.8600 402 768.0300 406.3400Q777.2000 410.6800 781.8900 419.2200Q786.5800 427.7600 786.7200 440.0800L786.7200 440.0800Q787.0000 446.2400 787.0000 451Q787.0000 455.7600 786.7200 461.7800L786.7200 461.7800Q786.4400 474.8000 781.9600 483.2700Q777.4800 491.7400 768.4500 495.8700Q759.4200 500 745.4200 500L745.4200 500ZM726.6600 418.1000L726.6600 483.9000L744.7200 483.9000Q752.5600 483.9000 757.4600 481.6600Q762.3600 479.4200 764.6700 474.4500Q766.9800 469.4800 767.1200 461.3600L767.1200 461.3600Q767.2600 457.1600 767.3300 454.0100Q767.4000 450.8600 767.3300 447.7100Q767.2600 444.5600 767.1200 440.5000L767.1200 440.5000Q766.8400 429.0200 761.3800 423.5600Q755.9200 418.1000 744.0200 418.1000L744.0200 418.1000L726.6600 418.1000ZM850.7000 500L808.9800 500Q807.5800 500 806.6000 499.0200Q805.6200 498.0400 805.6200 496.6400L805.6200 496.6400L805.6200 405.5000Q805.6200 403.9600 806.6000 402.9800Q807.5800 402 808.9800 402L808.9800 402L849.5800 402Q860.9200 402 868.0600 405.4300Q875.2000 408.8600 878.6300 414.8800Q882.0600 420.9000 882.0600 428.8800L882.0600 428.8800Q882.0600 434.2000 880.1700 438.1900Q878.2800 442.1800 875.5500 444.7000Q872.8200 447.2200 870.1600 448.6200L870.1600 448.6200Q875.6200 451.1400 879.8200 457.0200Q884.0200 462.9000 884.0200 471.0200L884.0200 471.0200Q884.0200 479.4200 880.2400 486Q876.4600 492.5800 869.0400 496.2900Q861.6200 500 850.7000 500L850.7000 500ZM825.0800 456.7400L825.0800 485.1600L848.4600 485.1600Q856.0200 485.1600 859.9400 481.0300Q863.8600 476.9000 863.8600 471.0200L863.8600 471.0200Q863.8600 464.8600 859.8700 460.8000Q855.8800 456.7400 848.4600 456.7400L848.4600 456.7400L825.0800 456.7400ZM825.0800 416.7000L825.0800 442.1800L847.0600 442.1800Q854.4800 442.1800 858.1900 438.6100Q861.9000 435.0400 861.9000 429.3000L861.9000 429.3000Q861.9000 423.4200 858.1900 420.0600Q854.4800 416.7000 847.0600 416.7000L847.0600 416.7000L825.0800 416.7000ZM931.3400 501.4000L931.3400 501.4000Q915.8000 501.4000 906.7000 492.4400Q897.6000 483.4800 896.9000 466.9600L896.9000 466.9600Q896.7600 465.5600 896.7600 463.3900Q896.7600 461.2200 896.9000 459.9600L896.9000 459.9600Q897.4600 449.3200 901.7300 441.6900Q906.0000 434.0600 913.5600 429.9300Q921.1200 425.8000 931.3400 425.8000L931.3400 425.8000Q942.6800 425.8000 950.3800 430.4900Q958.0800 435.1800 962.0000 443.5100Q965.9200 451.8400 965.9200 462.7600L965.9200 462.7600L965.9200 465.7000Q965.9200 467.1000 964.9400 468.0800Q963.9600 469.0600 962.4200 469.0600L962.4200 469.0600L915.9400 469.0600Q915.9400 469.0600 915.9400 469.4800Q915.9400 469.9000 915.9400 470.1800L915.9400 470.1800Q916.0800 475.0800 917.8300 479.2100Q919.5800 483.3400 923.0100 485.8600Q926.4400 488.3800 931.2000 488.3800L931.2000 488.3800Q935.1200 488.3800 937.7800 487.1900Q940.4400 486 942.1200 484.4600Q943.8000 482.9200 944.5000 481.9400L944.5000 481.9400Q945.7600 480.2600 946.5300 479.9100Q947.3000 479.5600 948.8400 479.5600L948.8400 479.5600L960.8800 479.5600Q962.2800 479.5600 963.1900 480.4000Q964.1000 481.2400 963.9600 482.5000L963.9600 482.5000Q963.8200 484.7400 961.6500 487.9600Q959.4800 491.1800 955.4200 494.2600Q951.3600 497.3400 945.2700 499.3700Q939.1800 501.4000 931.3400 501.4000ZM915.9400 456.8800L915.9400 457.3000L946.8800 457.3000L946.8800 456.8800Q946.8800 451.4200 945.0600 447.2900Q943.2400 443.1600 939.7400 440.8500Q936.2400 438.5400 931.3400 438.5400L931.3400 438.5400Q926.4400 438.5400 922.9400 440.8500Q919.4400 443.1600 917.6900 447.2900Q915.9400 451.4200 915.9400 456.8800L915.9400 456.8800ZM1001.9000 501.4000L1001.9000 501.4000Q994.6200 501.4000 988.7400 498.5300Q982.8600 495.6600 979.4300 490.8300Q976.0000 486 976.0000 479.9800L976.0000 479.9800Q976.0000 470.1800 983.9800 464.3700Q991.9600 458.5600 1004.8400 456.6000L1004.8400 456.6000L1024.0200 453.8000L1024.0200 450.8600Q1024.0200 444.9800 1021.0800 441.7600Q1018.1400 438.5400 1011.0000 438.5400L1011.0000 438.5400Q1005.9600 438.5400 1002.8100 440.5700Q999.6600 442.6000 998.1200 445.9600L998.1200 445.9600Q997.0000 447.7800 994.9000 447.7800L994.9000 447.7800L983.8400 447.7800Q982.3000 447.7800 981.5300 446.9400Q980.7600 446.1000 980.7600 444.7000L980.7600 444.7000Q980.9000 442.4600 982.6500 439.2400Q984.4000 436.0200 987.9700 433.0100Q991.5400 430 997.2800 427.9000Q1003.0200 425.8000 1011.1400 425.8000L1011.1400 425.8000Q1019.9600 425.8000 1026.0500 427.9700Q1032.1400 430.1400 1035.7800 433.7800Q1039.4200 437.4200 1041.1000 442.3200Q1042.7800 447.2200 1042.7800 452.6800L1042.7800 452.6800L1042.7800 496.6400Q1042.7800 498.0400 1041.8000 499.0200Q1040.8200 500 1039.4200 500L1039.4200 500L1028.0800 500Q1026.5400 500 1025.6300 499.0200Q1024.7200 498.0400 1024.7200 496.6400L1024.7200 496.6400L1024.7200 491.1800Q1022.9000 493.7000 1019.8200 496.0800Q1016.7400 498.4600 1012.3300 499.9300Q1007.9200 501.4000 1001.9000 501.4000ZM1006.6600 488.1000L1006.6600 488.1000Q1011.5600 488.1000 1015.5500 486Q1019.5400 483.9000 1021.8500 479.4900Q1024.1600 475.0800 1024.1600 468.3600L1024.1600 468.3600L1024.1600 465.4200L1010.1600 467.6600Q1001.9000 468.9200 997.8400 471.7200Q993.7800 474.5200 993.7800 478.5800L993.7800 478.5800Q993.7800 481.6600 995.6700 483.8300Q997.5600 486 1000.5000 487.0500Q1003.4400 488.1000 1006.6600 488.1000ZM1096.8200 500L1086.4600 500Q1084.2200 500 1083.1700 498.9500Q1082.1200 497.9000 1081.4200 496.5000L1081.4200 496.5000L1055.2400 431.5400Q1054.9600 430.8400 1054.9600 430.2800L1054.9600 430.2800Q1054.9600 429.0200 1055.8700 428.1100Q1056.7800 427.2000 1058.0400 427.2000L1058.0400 427.2000L1069.3800 427.2000Q1071.0600 427.2000 1071.9000 428.1100Q1072.7400 429.0200 1073.0200 429.8600L1073.0200 429.8600L1091.6400 479L1110.2600 429.8600Q1110.5400 429.0200 1111.3800 428.1100Q1112.2200 427.2000 1113.9000 427.2000L1113.9000 427.2000L1125.3800 427.2000Q1126.5000 427.2000 1127.4100 428.1100Q1128.3200 429.0200 1128.3200 430.2800L1128.3200 430.2800Q1128.3200 430.8400 1128.1800 431.5400L1128.1800 431.5400L1101.8600 496.5000Q1101.3000 497.9000 1100.1800 498.9500Q1099.0600 500 1096.8200 500L1096.8200 500ZM1172.4200 501.4000L1172.4200 501.4000Q1156.8800 501.4000 1147.7800 492.4400Q1138.6800 483.4800 1137.9800 466.9600L1137.9800 466.9600Q1137.8400 465.5600 1137.8400 463.3900Q1137.8400 461.2200 1137.9800 459.9600L1137.9800 459.9600Q1138.5400 449.3200 1142.8100 441.6900Q1147.0800 434.0600 1154.6400 429.9300Q1162.2000 425.8000 1172.4200 425.8000L1172.4200 425.8000Q1183.7600 425.8000 1191.4600 430.4900Q1199.1600 435.1800 1203.0800 443.5100Q1207.0000 451.8400 1207.0000 462.7600L1207.0000 462.7600L1207.0000 465.7000Q1207.0000 467.1000 1206.0200 468.0800Q1205.0400 469.0600 1203.5000 469.0600L1203.5000 469.0600L1157.0200 469.0600Q1157.0200 469.0600 1157.0200 469.4800Q1157.0200 469.9000 1157.0200 470.1800L1157.0200 470.1800Q1157.1600 475.0800 1158.9100 479.2100Q1160.6600 483.3400 1164.0900 485.8600Q1167.5200 488.3800 1172.2800 488.3800L1172.2800 488.3800Q1176.2000 488.3800 1178.8600 487.1900Q1181.5200 486 1183.2000 484.4600Q1184.8800 482.9200 1185.5800 481.9400L1185.5800 481.9400Q1186.8400 480.2600 1187.6100 479.9100Q1188.3800 479.5600 1189.9200 479.5600L1189.9200 479.5600L1201.9600 479.5600Q1203.3600 479.5600 1204.2700 480.4000Q1205.1800 481.2400 1205.0400 482.5000L1205.0400 482.5000Q1204.9000 484.7400 1202.7300 487.9600Q1200.5600 491.1800 1196.5000 494.2600Q1192.4400 497.3400 1186.3500 499.3700Q1180.2600 501.4000 1172.4200 501.4000ZM1157.0200 456.8800L1157.0200 457.3000L1187.9600 457.3000L1187.9600 456.8800Q1187.9600 451.4200 1186.1400 447.2900Q1184.3200 443.1600 1180.8200 440.8500Q1177.3200 438.5400 1172.4200 438.5400L1172.4200 438.5400Q1167.5200 438.5400 1164.0200 440.8500Q1160.5200 443.1600 1158.7700 447.2900Q1157.0200 451.4200 1157.0200 456.8800L1157.0200 456.8800ZM1237.3800 500L1225.2000 500Q1223.8000 500 1222.8200 499.0200Q1221.8400 498.0400 1221.8400 496.6400L1221.8400 496.6400L1221.8400 430.7000Q1221.8400 429.1600 1222.8200 428.1800Q1223.8000 427.2000 1225.2000 427.2000L1225.2000 427.2000L1236.5400 427.2000Q1237.9400 427.2000 1238.9900 428.1800Q1240.0400 429.1600 1240.0400 430.7000L1240.0400 430.7000L1240.0400 436.4400Q1243.2600 431.9600 1248.3700 429.5800Q1253.4800 427.2000 1260.2000 427.2000L1260.2000 427.2000L1265.9400 427.2000Q1267.4800 427.2000 1268.3900 428.1800Q1269.3000 429.1600 1269.3000 430.5600L1269.3000 430.5600L1269.3000 440.6400Q1269.3000 442.0400 1268.3900 443.0200Q1267.4800 444 1265.9400 444L1265.9400 444L1255.0200 444Q1248.3000 444 1244.5900 447.7100Q1240.8800 451.4200 1240.8800 458.1400L1240.8800 458.1400L1240.8800 496.6400Q1240.8800 498.0400 1239.9000 499.0200Q1238.9200 500 1237.3800 500L1237.3800 500ZM190.7400 641.4000L190.7400 641.4000Q180.6600 641.4000 173.0300 637.6200Q165.4000 633.8400 161.1300 626.6300Q156.8600 619.4200 156.4400 609.2000L156.4400 609.2000Q156.3000 607.1000 156.3000 603.6700Q156.3000 600.2400 156.4400 598L156.4400 598Q156.8600 587.7800 161.1300 580.5700Q165.4000 573.3600 173.0300 569.5800Q180.6600 565.8000 190.7400 565.8000L190.7400 565.8000Q199.7000 565.8000 206 568.2500Q212.3000 570.7000 216.3600 574.5500Q220.4200 578.4000 222.4500 582.5300Q224.4800 586.6600 224.6200 590.0200L224.6200 590.0200Q224.7600 591.5600 223.7100 592.4700Q222.6600 593.3800 221.2600 593.3800L221.2600 593.3800L208.9400 593.3800Q207.5400 593.3800 206.7700 592.6800Q206 591.9800 205.3000 590.5800L205.3000 590.5800Q203.2000 584.9800 199.7700 582.6700Q196.3400 580.3600 191.0200 580.3600L191.0200 580.3600Q184.0200 580.3600 179.8900 584.7700Q175.7600 589.1800 175.4800 598.7000L175.4800 598.7000Q175.2000 604.0200 175.4800 608.5000L175.4800 608.5000Q175.7600 618.1600 179.8900 622.5000Q184.0200 626.8400 191.0200 626.8400L191.0200 626.8400Q196.4800 626.8400 199.8400 624.5300Q203.2000 622.2200 205.3000 616.6200L205.3000 616.6200Q206 615.2200 206.7700 614.5200Q207.5400 613.8200 208.9400 613.8200L208.9400 613.8200L221.2600 613.8200Q222.6600 613.8200 223.7100 614.7300Q224.7600 615.6400 224.6200 617.1800L224.6200 617.1800Q224.4800 619.7000 223.2900 622.8500Q222.1000 626 219.5100 629.2900Q216.9200 632.5800 213 635.3100Q209.0800 638.0400 203.5500 639.7200Q198.0200 641.4000 190.7400 641.4000ZM271.3800 641.4000L271.3800 641.4000Q260.1800 641.4000 252.5500 637.4800Q244.9200 633.5600 240.9300 626.4200Q236.9400 619.2800 236.3800 609.7600L236.3800 609.7600Q236.2400 607.2400 236.2400 603.6000Q236.2400 599.9600 236.3800 597.4400L236.3800 597.4400Q236.9400 587.7800 241.0700 580.7100Q245.2000 573.6400 252.8300 569.7200Q260.4600 565.8000 271.3800 565.8000L271.3800 565.8000Q282.3000 565.8000 289.9300 569.7200Q297.5600 573.6400 301.6900 580.7100Q305.8200 587.7800 306.3800 597.4400L306.3800 597.4400Q306.5200 599.9600 306.5200 603.6000Q306.5200 607.2400 306.3800 609.7600L306.3800 609.7600Q305.8200 619.2800 301.8300 626.4200Q297.8400 633.5600 290.2100 637.4800Q282.5800 641.4000 271.3800 641.4000ZM271.3800 627.5400L271.3800 627.5400Q278.8000 627.5400 282.8600 622.8500Q286.9200 618.1600 287.3400 609.0600L287.3400 609.0600Q287.4800 606.9600 287.4800 603.6000Q287.4800 600.2400 287.3400 598.1400L287.3400 598.1400Q286.9200 589.0400 282.8600 584.3500Q278.8000 579.6600 271.3800 579.6600L271.3800 579.6600Q263.9600 579.6600 259.9000 584.3500Q255.8400 589.0400 255.4200 598.1400L255.4200 598.1400Q255.2800 600.2400 255.2800 603.6000Q255.2800 606.9600 255.4200 609.0600L255.4200 609.0600Q255.8400 618.1600 259.9000 622.8500Q263.9600 627.5400 271.3800 627.5400ZM337.1800 640L325.4200 640Q324.0200 640 323.0400 639.0200Q322.0600 638.0400 322.0600 636.6400L322.0600 636.6400L322.0600 570.5600Q322.0600 569.1600 323.0400 568.1800Q324.0200 567.2000 325.4200 567.2000L325.4200 567.2000L336.3400 567.2000Q337.7400 567.2000 338.7200 568.1800Q339.7000 569.1600 339.7000 570.5600L339.7000 570.5600L339.7000 575.3200Q342.6400 571.4000 347.6100 568.6700Q352.5800 565.9400 359.4400 565.8000L359.4400 565.8000Q375.4000 565.5200 381.7000 578.2600L381.7000 578.2600Q384.9200 572.6600 391.0100 569.2300Q397.1000 565.8000 404.5200 565.8000L404.5200 565.8000Q411.8000 565.8000 417.7500 569.1600Q423.7000 572.5200 427.1300 579.3100Q430.5600 586.1000 430.5600 596.4600L430.5600 596.4600L430.5600 636.6400Q430.5600 638.0400 429.5800 639.0200Q428.6000 640 427.2000 640L427.2000 640L415.7200 640Q414.3200 640 413.3400 639.0200Q412.3600 638.0400 412.3600 636.6400L412.3600 636.6400L412.3600 597.5800Q412.3600 591.2800 410.5400 587.5700Q408.7200 583.8600 405.6400 582.3200Q402.5600 580.7800 398.7800 580.7800L398.7800 580.7800Q395.7000 580.7800 392.6200 582.3200Q389.5400 583.8600 387.5800 587.5700Q385.6200 591.2800 385.6200 597.5800L385.6200 597.5800L385.6200 636.6400Q385.6200 638.0400 384.6400 639.0200Q383.6600 640 382.2600 640L382.2600 640L370.7800 640Q369.3800 640 368.4000 639.0200Q367.4200 638.0400 367.4200 636.6400L367.4200 636.6400L367.4200 597.5800Q367.4200 591.2800 365.4600 587.5700Q363.5000 583.8600 360.4200 582.3200Q357.3400 580.7800 353.8400 580.7800L353.8400 580.7800Q350.6200 580.7800 347.5400 582.3900Q344.4600 584 342.5000 587.6400Q340.5400 591.2800 340.5400 597.5800L340.5400 597.5800L340.5400 636.6400Q340.5400 638.0400 339.5600 639.0200Q338.5800 640 337.1800 640L337.1800 640ZM480.5400 641.4000L480.5400 641.4000Q469.3400 641.4000 461.7100 637.4800Q454.0800 633.5600 450.0900 626.4200Q446.1000 619.2800 445.5400 609.7600L445.5400 609.7600Q445.4000 607.2400 445.4000 603.6000Q445.4000 599.9600 445.5400 597.4400L445.5400 597.4400Q446.1000 587.7800 450.2300 580.7100Q454.3600 573.6400 461.9900 569.7200Q469.6200 565.8000 480.5400 565.8000L480.5400 565.8000Q491.4600 565.8000 499.0900 569.7200Q506.7200 573.6400 510.8500 580.7100Q514.9800 587.7800 515.5400 597.4400L515.5400 597.4400Q515.6800 599.9600 515.6800 603.6000Q515.6800 607.2400 515.5400 609.7600L515.5400 609.7600Q514.9800 619.2800 510.9900 626.4200Q507 633.5600 499.3700 637.4800Q491.7400 641.4000 480.5400 641.4000ZM480.5400 627.5400L480.5400 627.5400Q487.9600 627.5400 492.0200 622.8500Q496.0800 618.1600 496.5000 609.0600L496.5000 609.0600Q496.6400 606.9600 496.6400 603.6000Q496.6400 600.2400 496.5000 598.1400L496.5000 598.1400Q496.0800 589.0400 492.0200 584.3500Q487.9600 579.6600 480.5400 579.6600L480.5400 579.6600Q473.1200 579.6600 469.0600 584.3500Q465 589.0400 464.5800 598.1400L464.5800 598.1400Q464.4400 600.2400 464.4400 603.6000Q464.4400 606.9600 464.5800 609.0600L464.5800 609.0600Q465 618.1600 469.0600 622.8500Q473.1200 627.5400 480.5400 627.5400ZM584.4200 641.4000L584.4200 641.4000Q577.1400 641.4000 571.2600 638.5300Q565.3800 635.6600 561.9500 630.8300Q558.5200 626 558.5200 619.9800L558.5200 619.9800Q558.5200 610.1800 566.5000 604.3700Q574.4800 598.5600 587.3600 596.6000L587.3600 596.6000L606.5400 593.8000L606.5400 590.8600Q606.5400 584.9800 603.6000 581.7600Q600.6600 578.5400 593.5200 578.5400L593.5200 578.5400Q588.4800 578.5400 585.3300 580.5700Q582.1800 582.6000 580.6400 585.9600L580.6400 585.9600Q579.5200 587.7800 577.4200 587.7800L577.4200 587.7800L566.3600 587.7800Q564.8200 587.7800 564.0500 586.9400Q563.2800 586.1000 563.2800 584.7000L563.2800 584.7000Q563.4200 582.4600 565.1700 579.2400Q566.9200 576.0200 570.4900 573.0100Q574.0600 570 579.8000 567.9000Q585.5400 565.8000 593.6600 565.8000L593.6600 565.8000Q602.4800 565.8000 608.5700 567.9700Q614.6600 570.1400 618.3000 573.7800Q621.9400 577.4200 623.6200 582.3200Q625.3000 587.2200 625.3000 592.6800L625.3000 592.6800L625.3000 636.6400Q625.3000 638.0400 624.3200 639.0200Q623.3400 640 621.9400 640L621.9400 640L610.6000 640Q609.0600 640 608.1500 639.0200Q607.2400 638.0400 607.2400 636.6400L607.2400 636.6400L607.2400 631.1800Q605.4200 633.7000 602.3400 636.0800Q599.2600 638.4600 594.8500 639.9300Q590.4400 641.4000 584.4200 641.4000ZM589.1800 628.1000L589.1800 628.1000Q594.0800 628.1000 598.0700 626Q602.0600 623.9000 604.3700 619.4900Q606.6800 615.0800 606.6800 608.3600L606.6800 608.3600L606.6800 605.4200L592.6800 607.6600Q584.4200 608.9200 580.3600 611.7200Q576.3000 614.5200 576.3000 618.5800L576.3000 618.5800Q576.3000 621.6600 578.1900 623.8300Q580.0800 626 583.0200 627.0500Q585.9600 628.1000 589.1800 628.1000ZM658.3400 640L646.7200 640Q645.3200 640 644.3400 639.0200Q643.3600 638.0400 643.3600 636.6400L643.3600 636.6400L643.3600 543.9600Q643.3600 542.5600 644.3400 541.5800Q645.3200 540.6000 646.7200 540.6000L646.7200 540.6000L658.3400 540.6000Q659.7400 540.6000 660.7200 541.5800Q661.7000 542.5600 661.7000 543.9600L661.7000 543.9600L661.7000 636.6400Q661.7000 638.0400 660.7200 639.0200Q659.7400 640 658.3400 640L658.3400 640ZM724.5600 640L713.2200 640Q704.8200 640 699.0800 637.0600Q693.3400 634.1200 690.5400 628.3100Q687.7400 622.5000 687.7400 613.8200L687.7400 613.8200L687.7400 582.0400L676.6800 582.0400Q675.2800 582.0400 674.3000 581.0600Q673.3200 580.0800 673.3200 578.5400L673.3200 578.5400L673.3200 570.5600Q673.3200 569.1600 674.3000 568.1800Q675.2800 567.2000 676.6800 567.2000L676.6800 567.2000L687.7400 567.2000L687.7400 543.9600Q687.7400 542.5600 688.6500 541.5800Q689.5600 540.6000 691.1000 540.6000L691.1000 540.6000L702.4400 540.6000Q703.8400 540.6000 704.8200 541.5800Q705.8000 542.5600 705.8000 543.9600L705.8000 543.9600L705.8000 567.2000L723.3000 567.2000Q724.7000 567.2000 725.6800 568.1800Q726.6600 569.1600 726.6600 570.5600L726.6600 570.5600L726.6600 578.5400Q726.6600 580.0800 725.6800 581.0600Q724.7000 582.0400 723.3000 582.0400L723.3000 582.0400L705.8000 582.0400L705.8000 612.4200Q705.8000 618.1600 707.8300 621.3800Q709.8600 624.6000 714.9000 624.6000L714.9000 624.6000L724.5600 624.6000Q725.9600 624.6000 726.9400 625.5800Q727.9200 626.5600 727.9200 627.9600L727.9200 627.9600L727.9200 636.6400Q727.9200 638.0400 726.9400 639.0200Q725.9600 640 724.5600 640L724.5600 640ZM771.7400 641.4000L771.7400 641.4000Q756.2000 641.4000 747.1000 632.4400Q738.0000 623.4800 737.3000 606.9600L737.3000 606.9600Q737.1600 605.5600 737.1600 603.3900Q737.1600 601.2200 737.3000 599.9600L737.3000 599.9600Q737.8600 589.3200 742.1300 581.6900Q746.4000 574.0600 753.9600 569.9300Q761.5200 565.8000 771.7400 565.8000L771.7400 565.8000Q783.0800 565.8000 790.7800 570.4900Q798.4800 575.1800 802.4000 583.5100Q806.3200 591.8400 806.3200 602.7600L806.3200 602.7600L806.3200 605.7000Q806.3200 607.1000 805.3400 608.0800Q804.3600 609.0600 802.8200 609.0600L802.8200 609.0600L756.3400 609.0600Q756.3400 609.0600 756.3400 609.4800Q756.3400 609.9000 756.3400 610.1800L756.3400 610.1800Q756.4800 615.0800 758.2300 619.2100Q759.9800 623.3400 763.4100 625.8600Q766.8400 628.3800 771.6000 628.3800L771.6000 628.3800Q775.5200 628.3800 778.1800 627.1900Q780.8400 626 782.5200 624.4600Q784.2000 622.9200 784.9000 621.9400L784.9000 621.9400Q786.1600 620.2600 786.9300 619.9100Q787.7000 619.5600 789.2400 619.5600L789.2400 619.5600L801.2800 619.5600Q802.6800 619.5600 803.5900 620.4000Q804.5000 621.2400 804.3600 622.5000L804.3600 622.5000Q804.2200 624.7400 802.0500 627.9600Q799.8800 631.1800 795.8200 634.2600Q791.7600 637.3400 785.6700 639.3700Q779.5800 641.4000 771.7400 641.4000ZM756.3400 596.8800L756.3400 597.3000L787.2800 597.3000L787.2800 596.8800Q787.2800 591.4200 785.4600 587.2900Q783.6400 583.1600 780.1400 580.8500Q776.6400 578.5400 771.7400 578.5400L771.7400 578.5400Q766.8400 578.5400 763.3400 580.8500Q759.8400 583.1600 758.0900 587.2900Q756.3400 591.4200 756.3400 596.8800L756.3400 596.8800ZM836.7000 640L824.5200 640Q823.1200 640 822.1400 639.0200Q821.1600 638.0400 821.1600 636.6400L821.1600 636.6400L821.1600 570.7000Q821.1600 569.1600 822.1400 568.1800Q823.1200 567.2000 824.5200 567.2000L824.5200 567.2000L835.8600 567.2000Q837.2600 567.2000 838.3100 568.1800Q839.3600 569.1600 839.3600 570.7000L839.3600 570.7000L839.3600 576.4400Q842.5800 571.9600 847.6900 569.5800Q852.8000 567.2000 859.5200 567.2000L859.5200 567.2000L865.2600 567.2000Q866.8000 567.2000 867.7100 568.1800Q868.6200 569.1600 868.6200 570.5600L868.6200 570.5600L868.6200 580.6400Q868.6200 582.0400 867.7100 583.0200Q866.8000 584 865.2600 584L865.2600 584L854.3400 584Q847.6200 584 843.9100 587.7100Q840.2000 591.4200 840.2000 598.1400L840.2000 598.1400L840.2000 636.6400Q840.2000 638.0400 839.2200 639.0200Q838.2400 640 836.7000 640L836.7000 640ZM895.2200 640L882.9000 640Q881.5000 640 880.5200 639.0200Q879.5400 638.0400 879.5400 636.6400L879.5400 636.6400L879.5400 570.5600Q879.5400 569.1600 880.5200 568.1800Q881.5000 567.2000 882.9000 567.2000L882.9000 567.2000L894.3800 567.2000Q895.7800 567.2000 896.7600 568.1800Q897.7400 569.1600 897.7400 570.5600L897.7400 570.5600L897.7400 576.3000Q901.3800 571.8200 907.0500 568.8100Q912.7200 565.8000 921.1200 565.8000L921.1200 565.8000Q929.6600 565.8000 935.9600 569.6500Q942.2600 573.5000 945.6900 580.5000Q949.1200 587.5000 949.1200 597.3000L949.1200 597.3000L949.1200 636.6400Q949.1200 638.0400 948.1400 639.0200Q947.1600 640 945.7600 640L945.7600 640L933.4400 640Q932.0400 640 931.0600 639.0200Q930.0800 638.0400 930.0800 636.6400L930.0800 636.6400L930.0800 598.1400Q930.0800 590.0200 926.0900 585.4000Q922.1000 580.7800 914.5400 580.7800L914.5400 580.7800Q907.2600 580.7800 902.9200 585.4000Q898.5800 590.0200 898.5800 598.1400L898.5800 598.1400L898.5800 636.6400Q898.5800 638.0400 897.6000 639.0200Q896.6200 640 895.2200 640L895.2200 640ZM988.0400 641.4000L988.0400 641.4000Q980.7600 641.4000 974.8800 638.5300Q969.0000 635.6600 965.5700 630.8300Q962.1400 626 962.1400 619.9800L962.1400 619.9800Q962.1400 610.1800 970.1200 604.3700Q978.1000 598.5600 990.9800 596.6000L990.9800 596.6000L1010.1600 593.8000L1010.1600 590.8600Q1010.1600 584.9800 1007.2200 581.7600Q1004.2800 578.5400 997.1400 578.5400L997.1400 578.5400Q992.1000 578.5400 988.9500 580.5700Q985.8000 582.6000 984.2600 585.9600L984.2600 585.9600Q983.1400 587.7800 981.0400 587.7800L981.0400 587.7800L969.9800 587.7800Q968.4400 587.7800 967.6700 586.9400Q966.9000 586.1000 966.9000 584.7000L966.9000 584.7000Q967.0400 582.4600 968.7900 579.2400Q970.5400 576.0200 974.1100 573.0100Q977.6800 570 983.4200 567.9000Q989.1600 565.8000 997.2800 565.8000L997.2800 565.8000Q1006.1000 565.8000 1012.1900 567.9700Q1018.2800 570.1400 1021.9200 573.7800Q1025.5600 577.4200 1027.2400 582.3200Q1028.9200 587.2200 1028.9200 592.6800L1028.9200 592.6800L1028.9200 636.6400Q1028.9200 638.0400 1027.9400 639.0200Q1026.9600 640 1025.5600 640L1025.5600 640L1014.2200 640Q1012.6800 640 1011.7700 639.0200Q1010.8600 638.0400 1010.8600 636.6400L1010.8600 636.6400L1010.8600 631.1800Q1009.0400 633.7000 1005.9600 636.0800Q1002.8800 638.4600 998.4700 639.9300Q994.0600 641.4000 988.0400 641.4000ZM992.8000 628.1000L992.8000 628.1000Q997.7000 628.1000 1001.6900 626Q1005.6800 623.9000 1007.9900 619.4900Q1010.3000 615.0800 1010.3000 608.3600L1010.3000 608.3600L1010.3000 605.4200L996.3000 607.6600Q988.0400 608.9200 983.9800 611.7200Q979.9200 614.5200 979.9200 618.5800L979.9200 618.5800Q979.9200 621.6600 981.8100 623.8300Q983.7000 626 986.6400 627.0500Q989.5800 628.1000 992.8000 628.1000ZM1091.0800 640L1079.7400 640Q1071.3400 640 1065.6000 637.0600Q1059.8600 634.1200 1057.0600 628.3100Q1054.2600 622.5000 1054.2600 613.8200L1054.2600 613.8200L1054.2600 582.0400L1043.2000 582.0400Q1041.8000 582.0400 1040.8200 581.0600Q1039.8400 580.0800 1039.8400 578.5400L1039.8400 578.5400L1039.8400 570.5600Q1039.8400 569.1600 1040.8200 568.1800Q1041.8000 567.2000 1043.2000 567.2000L1043.2000 567.2000L1054.2600 567.2000L1054.2600 543.9600Q1054.2600 542.5600 1055.1700 541.5800Q1056.0800 540.6000 1057.6200 540.6000L1057.6200 540.6000L1068.9600 540.6000Q1070.3600 540.6000 1071.3400 541.5800Q1072.3200 542.5600 1072.3200 543.9600L1072.3200 543.9600L1072.3200 567.2000L1089.8200 567.2000Q1091.2200 567.2000 1092.2000 568.1800Q1093.1800 569.1600 1093.1800 570.5600L1093.1800 570.5600L1093.1800 578.5400Q1093.1800 580.0800 1092.2000 581.0600Q1091.2200 582.0400 1089.8200 582.0400L1089.8200 582.0400L1072.3200 582.0400L1072.3200 612.4200Q1072.3200 618.1600 1074.3500 621.3800Q1076.3800 624.6000 1081.4200 624.6000L1081.4200 624.6000L1091.0800 624.6000Q1092.4800 624.6000 1093.4600 625.5800Q1094.4400 626.5600 1094.4400 627.9600L1094.4400 627.9600L1094.4400 636.6400Q1094.4400 638.0400 1093.4600 639.0200Q1092.4800 640 1091.0800 640L1091.0800 640ZM1121.8800 640L1110.2600 640Q1108.8600 640 1107.8800 639.0200Q1106.9000 638.0400 1106.9000 636.6400L1106.9000 636.6400L1106.9000 570.5600Q1106.9000 569.1600 1107.8800 568.1800Q1108.8600 567.2000 1110.2600 567.2000L1110.2600 567.2000L1121.8800 567.2000Q1123.4200 567.2000 1124.3300 568.1800Q1125.2400 569.1600 1125.2400 570.5600L1125.2400 570.5600L1125.2400 636.6400Q1125.2400 638.0400 1124.3300 639.0200Q1123.4200 640 1121.8800 640L1121.8800 640ZM1122.4400 555.1600L1109.7000 555.1600Q1108.3000 555.1600 1107.3200 554.1800Q1106.3400 553.2000 1106.3400 551.8000L1106.3400 551.8000L1106.3400 541.7200Q1106.3400 540.3200 1107.3200 539.3400Q1108.3000 538.3600 1109.7000 538.3600L1109.7000 538.3600L1122.4400 538.3600Q1123.9800 538.3600 1124.9600 539.3400Q1125.9400 540.3200 1125.9400 541.7200L1125.9400 541.7200L1125.9400 551.8000Q1125.9400 553.2000 1124.9600 554.1800Q1123.9800 555.1600 1122.4400 555.1600L1122.4400 555.1600ZM1179.9800 640L1169.6200 640Q1167.3800 640 1166.3300 638.9500Q1165.2800 637.9000 1164.5800 636.5000L1164.5800 636.5000L1138.4000 571.5400Q1138.1200 570.8400 1138.1200 570.2800L1138.1200 570.2800Q1138.1200 569.0200 1139.0300 568.1100Q1139.9400 567.2000 1141.2000 567.2000L1141.2000 567.2000L1152.5400 567.2000Q1154.2200 567.2000 1155.0600 568.1100Q1155.9000 569.0200 1156.1800 569.8600L1156.1800 569.8600L1174.8000 619L1193.4200 569.8600Q1193.7000 569.0200 1194.5400 568.1100Q1195.3800 567.2000 1197.0600 567.2000L1197.0600 567.2000L1208.5400 567.2000Q1209.6600 567.2000 1210.5700 568.1100Q1211.4800 569.0200 1211.4800 570.2800L1211.4800 570.2800Q1211.4800 570.8400 1211.3400 571.5400L1211.3400 571.5400L1185.0200 636.5000Q1184.4600 637.9000 1183.3400 638.9500Q1182.2200 640 1179.9800 640L1179.9800 640ZM1245.3600 641.4000L1245.3600 641.4000Q1238.0800 641.4000 1232.2000 638.5300Q1226.3200 635.6600 1222.8900 630.8300Q1219.4600 626 1219.4600 619.9800L1219.4600 619.9800Q1219.4600 610.1800 1227.4400 604.3700Q1235.4200 598.5600 1248.3000 596.6000L1248.3000 596.6000L1267.4800 593.8000L1267.4800 590.8600Q1267.4800 584.9800 1264.5400 581.7600Q1261.6000 578.5400 1254.4600 578.5400L1254.4600 578.5400Q1249.4200 578.5400 1246.2700 580.5700Q1243.1200 582.6000 1241.5800 585.9600L1241.5800 585.9600Q1240.4600 587.7800 1238.3600 587.7800L1238.3600 587.7800L1227.3000 587.7800Q1225.7600 587.7800 1224.9900 586.9400Q1224.2200 586.1000 1224.2200 584.7000L1224.2200 584.7000Q1224.3600 582.4600 1226.1100 579.2400Q1227.8600 576.0200 1231.4300 573.0100Q1235 570 1240.7400 567.9000Q1246.4800 565.8000 1254.6000 565.8000L1254.6000 565.8000Q1263.4200 565.8000 1269.5100 567.9700Q1275.6000 570.1400 1279.2400 573.7800Q1282.8800 577.4200 1284.5600 582.3200Q1286.2400 587.2200 1286.2400 592.6800L1286.2400 592.6800L1286.2400 636.6400Q1286.2400 638.0400 1285.2600 639.0200Q1284.2800 640 1282.8800 640L1282.8800 640L1271.5400 640Q1270 640 1269.0900 639.0200Q1268.1800 638.0400 1268.1800 636.6400L1268.1800 636.6400L1268.1800 631.1800Q1266.3600 633.7000 1263.2800 636.0800Q1260.2000 638.4600 1255.7900 639.9300Q1251.3800 641.4000 1245.3600 641.4000ZM1250.1200 628.1000L1250.1200 628.1000Q1255.0200 628.1000 1259.0100 626Q1263 623.9000 1265.3100 619.4900Q1267.6200 615.0800 1267.6200 608.3600L1267.6200 608.3600L1267.6200 605.4200L1253.6200 607.6600Q1245.3600 608.9200 1241.3000 611.7200Q1237.2400 614.5200 1237.2400 618.5800L1237.2400 618.5800Q1237.2400 621.6600 1239.1300 623.8300Q1241.0200 626 1243.9600 627.0500Q1246.9000 628.1000 1250.1200 628.1000ZM174.6400 806.6000L162.7400 806.6000Q161.3400 806.6000 160.3600 805.6200Q159.3800 804.6400 159.3800 803.2400L159.3800 803.2400L159.3800 710.5600Q159.3800 709.1600 160.3600 708.1800Q161.3400 707.2000 162.7400 707.2000L162.7400 707.2000L173.8000 707.2000Q175.3400 707.2000 176.2500 708.1800Q177.1600 709.1600 177.1600 710.5600L177.1600 710.5600L177.1600 716.1600Q180.5200 711.6800 185.9800 708.7400Q191.4400 705.8000 199.5600 705.8000L199.5600 705.8000Q206.9800 705.8000 212.4400 708.1800Q217.9000 710.5600 221.5400 714.9700Q225.1800 719.3800 227.1400 725.4000Q229.1000 731.4200 229.3800 738.7000L229.3800 738.7000Q229.5200 741.0800 229.5200 743.6000Q229.5200 746.1200 229.3800 748.6400L229.3800 748.6400Q229.2400 755.6400 227.2800 761.5900Q225.3200 767.5400 221.6100 771.9500Q217.9000 776.3600 212.4400 778.8800Q206.9800 781.4000 199.5600 781.4000L199.5600 781.4000Q192 781.4000 186.6800 778.6700Q181.3600 775.9400 178 771.4600L178 771.4600L178 803.2400Q178 804.6400 177.0900 805.6200Q176.1800 806.6000 174.6400 806.6000L174.6400 806.6000ZM194.3800 766.4200L194.3800 766.4200Q200.4000 766.4200 203.7600 763.8300Q207.1200 761.2400 208.6600 757.0400Q210.2000 752.8400 210.4800 747.8000L210.4800 747.8000Q210.6200 743.6000 210.4800 739.4000L210.4800 739.4000Q210.2000 734.3600 208.6600 730.1600Q207.1200 725.9600 203.7600 723.3700Q200.4000 720.7800 194.3800 720.7800L194.3800 720.7800Q188.6400 720.7800 185.0700 723.4400Q181.5000 726.1000 179.8900 730.2300Q178.2800 734.3600 178 738.7000L178 738.7000Q177.8600 741.2200 177.8600 744.0200Q177.8600 746.8200 178 749.4800L178 749.4800Q178.1400 753.6800 179.9600 757.5300Q181.7800 761.3800 185.2800 763.9000Q188.7800 766.4200 194.3800 766.4200ZM266.3400 781.4000L266.3400 781.4000Q259.0600 781.4000 253.1800 778.5300Q247.3000 775.6600 243.8700 770.8300Q240.4400 766 240.4400 759.9800L240.4400 759.9800Q240.4400 750.1800 248.4200 744.3700Q256.4000 738.5600 269.2800 736.6000L269.2800 736.6000L288.4600 733.8000L288.4600 730.8600Q288.4600 724.9800 285.5200 721.7600Q282.5800 718.5400 275.4400 718.5400L275.4400 718.5400Q270.4000 718.5400 267.2500 720.5700Q264.1000 722.6000 262.5600 725.9600L262.5600 725.9600Q261.4400 727.7800 259.3400 727.7800L259.3400 727.7800L248.2800 727.7800Q246.7400 727.7800 245.9700 726.9400Q245.2000 726.1000 245.2000 724.7000L245.2000 724.7000Q245.3400 722.4600 247.0900 719.2400Q248.8400 716.0200 252.4100 713.0100Q255.9800 710 261.7200 707.9000Q267.4600 705.8000 275.5800 705.8000L275.5800 705.8000Q284.4000 705.8000 290.4900 707.9700Q296.5800 710.1400 300.2200 713.7800Q303.8600 717.4200 305.5400 722.3200Q307.2200 727.2200 307.2200 732.6800L307.2200 732.6800L307.2200 776.6400Q307.2200 778.0400 306.2400 779.0200Q305.2600 780 303.8600 780L303.8600 780L292.5200 780Q290.9800 780 290.0700 779.0200Q289.1600 778.0400 289.1600 776.6400L289.1600 776.6400L289.1600 771.1800Q287.3400 773.7000 284.2600 776.0800Q281.1800 778.4600 276.7700 779.9300Q272.3600 781.4000 266.3400 781.4000ZM271.1000 768.1000L271.1000 768.1000Q276 768.1000 279.9900 766Q283.9800 763.9000 286.2900 759.4900Q288.6000 755.0800 288.6000 748.3600L288.6000 748.3600L288.6000 745.4200L274.6000 747.6600Q266.3400 748.9200 262.2800 751.7200Q258.2200 754.5200 258.2200 758.5800L258.2200 758.5800Q258.2200 761.6600 260.1100 763.8300Q262 766 264.9400 767.0500Q267.8800 768.1000 271.1000 768.1000ZM340.6800 780L328.5000 780Q327.1000 780 326.1200 779.0200Q325.1400 778.0400 325.1400 776.6400L325.1400 776.6400L325.1400 710.7000Q325.1400 709.1600 326.1200 708.1800Q327.1000 707.2000 328.5000 707.2000L328.5000 707.2000L339.8400 707.2000Q341.2400 707.2000 342.2900 708.1800Q343.3400 709.1600 343.3400 710.7000L343.3400 710.7000L343.3400 716.4400Q346.5600 711.9600 351.6700 709.5800Q356.7800 707.2000 363.5000 707.2000L363.5000 707.2000L369.2400 707.2000Q370.7800 707.2000 371.6900 708.1800Q372.6000 709.1600 372.6000 710.5600L372.6000 710.5600L372.6000 720.6400Q372.6000 722.0400 371.6900 723.0200Q370.7800 724 369.2400 724L369.2400 724L358.3200 724Q351.6000 724 347.8900 727.7100Q344.1800 731.4200 344.1800 738.1400L344.1800 738.1400L344.1800 776.6400Q344.1800 778.0400 343.2000 779.0200Q342.2200 780 340.6800 780L340.6800 780ZM404.6600 781.4000L404.6600 781.4000Q397.3800 781.4000 391.5000 778.5300Q385.6200 775.6600 382.1900 770.8300Q378.7600 766 378.7600 759.9800L378.7600 759.9800Q378.7600 750.1800 386.7400 744.3700Q394.7200 738.5600 407.6000 736.6000L407.6000 736.6000L426.7800 733.8000L426.7800 730.8600Q426.7800 724.9800 423.8400 721.7600Q420.9000 718.5400 413.7600 718.5400L413.7600 718.5400Q408.7200 718.5400 405.5700 720.5700Q402.4200 722.6000 400.8800 725.9600L400.8800 725.9600Q399.7600 727.7800 397.6600 727.7800L397.6600 727.7800L386.6000 727.7800Q385.0600 727.7800 384.2900 726.9400Q383.5200 726.1000 383.5200 724.7000L383.5200 724.7000Q383.6600 722.4600 385.4100 719.2400Q387.1600 716.0200 390.7300 713.0100Q394.3000 710 400.0400 707.9000Q405.7800 705.8000 413.9000 705.8000L413.9000 705.8000Q422.7200 705.8000 428.8100 707.9700Q434.9000 710.1400 438.5400 713.7800Q442.1800 717.4200 443.8600 722.3200Q445.5400 727.2200 445.5400 732.6800L445.5400 732.6800L445.5400 776.6400Q445.5400 778.0400 444.5600 779.0200Q443.5800 780 442.1800 780L442.1800 780L430.8400 780Q429.3000 780 428.3900 779.0200Q427.4800 778.0400 427.4800 776.6400L427.4800 776.6400L427.4800 771.1800Q425.6600 773.7000 422.5800 776.0800Q419.5000 778.4600 415.0900 779.9300Q410.6800 781.4000 404.6600 781.4000ZM409.4200 768.1000L409.4200 768.1000Q414.3200 768.1000 418.3100 766Q422.3000 763.9000 424.6100 759.4900Q426.9200 755.0800 426.9200 748.3600L426.9200 748.3600L426.9200 745.4200L412.9200 747.6600Q404.6600 748.9200 400.6000 751.7200Q396.5400 754.5200 396.5400 758.5800L396.5400 758.5800Q396.5400 761.6600 398.4300 763.8300Q400.3200 766 403.2600 767.0500Q406.2000 768.1000 409.4200 768.1000ZM510.5000 780L498.8800 780Q497.4800 780 496.5000 779.0200Q495.5200 778.0400 495.5200 776.6400L495.5200 776.6400L495.5200 710.5600Q495.5200 709.1600 496.5000 708.1800Q497.4800 707.2000 498.8800 707.2000L498.8800 707.2000L510.5000 707.2000Q512.0400 707.2000 512.9500 708.1800Q513.8600 709.1600 513.8600 710.5600L513.8600 710.5600L513.8600 776.6400Q513.8600 778.0400 512.9500 779.0200Q512.0400 780 510.5000 780L510.5000 780ZM511.0600 695.1600L498.3200 695.1600Q496.9200 695.1600 495.9400 694.1800Q494.9600 693.2000 494.9600 691.8000L494.9600 691.8000L494.9600 681.7200Q494.9600 680.3200 495.9400 679.3400Q496.9200 678.3600 498.3200 678.3600L498.3200 678.3600L511.0600 678.3600Q512.6000 678.3600 513.5800 679.3400Q514.5600 680.3200 514.5600 681.7200L514.5600 681.7200L514.5600 691.8000Q514.5600 693.2000 513.5800 694.1800Q512.6000 695.1600 511.0600 695.1600L511.0600 695.1600ZM548.1600 780L535.8400 780Q534.4400 780 533.4600 779.0200Q532.4800 778.0400 532.4800 776.6400L532.4800 776.6400L532.4800 710.5600Q532.4800 709.1600 533.4600 708.1800Q534.4400 707.2000 535.8400 707.2000L535.8400 707.2000L547.3200 707.2000Q548.7200 707.2000 549.7000 708.1800Q550.6800 709.1600 550.6800 710.5600L550.6800 710.5600L550.6800 716.3000Q554.3200 711.8200 559.9900 708.8100Q565.6600 705.8000 574.0600 705.8000L574.0600 705.8000Q582.6000 705.8000 588.9000 709.6500Q595.2000 713.5000 598.6300 720.5000Q602.0600 727.5000 602.0600 737.3000L602.0600 737.3000L602.0600 776.6400Q602.0600 778.0400 601.0800 779.0200Q600.1000 780 598.7000 780L598.7000 780L586.3800 780Q584.9800 780 584 779.0200Q583.0200 778.0400 583.0200 776.6400L583.0200 776.6400L583.0200 738.1400Q583.0200 730.0200 579.0300 725.4000Q575.0400 720.7800 567.4800 720.7800L567.4800 720.7800Q560.2000 720.7800 555.8600 725.4000Q551.5200 730.0200 551.5200 738.1400L551.5200 738.1400L551.5200 776.6400Q551.5200 778.0400 550.5400 779.0200Q549.5600 780 548.1600 780L548.1600 780ZM664.0800 780L652.7400 780Q644.3400 780 638.6000 777.0600Q632.8600 774.1200 630.0600 768.3100Q627.2600 762.5000 627.2600 753.8200L627.2600 753.8200L627.2600 722.0400L616.2000 722.0400Q614.8000 722.0400 613.8200 721.0600Q612.8400 720.0800 612.8400 718.5400L612.8400 718.5400L612.8400 710.5600Q612.8400 709.1600 613.8200 708.1800Q614.8000 707.2000 616.2000 707.2000L616.2000 707.2000L627.2600 707.2000L627.2600 683.9600Q627.2600 682.5600 628.1700 681.5800Q629.0800 680.6000 630.6200 680.6000L630.6200 680.6000L641.9600 680.6000Q643.3600 680.6000 644.3400 681.5800Q645.3200 682.5600 645.3200 683.9600L645.3200 683.9600L645.3200 707.2000L662.8200 707.2000Q664.2200 707.2000 665.2000 708.1800Q666.1800 709.1600 666.1800 710.5600L666.1800 710.5600L666.1800 718.5400Q666.1800 720.0800 665.2000 721.0600Q664.2200 722.0400 662.8200 722.0400L662.8200 722.0400L645.3200 722.0400L645.3200 752.4200Q645.3200 758.1600 647.3500 761.3800Q649.3800 764.6000 654.4200 764.6000L654.4200 764.6000L664.0800 764.6000Q665.4800 764.6000 666.4600 765.5800Q667.4400 766.5600 667.4400 767.9600L667.4400 767.9600L667.4400 776.6400Q667.4400 778.0400 666.4600 779.0200Q665.4800 780 664.0800 780L664.0800 780ZM711.2600 781.4000L711.2600 781.4000Q695.7200 781.4000 686.6200 772.4400Q677.5200 763.4800 676.8200 746.9600L676.8200 746.9600Q676.6800 745.5600 676.6800 743.3900Q676.6800 741.2200 676.8200 739.9600L676.8200 739.9600Q677.3800 729.3200 681.6500 721.6900Q685.9200 714.0600 693.4800 709.9300Q701.0400 705.8000 711.2600 705.8000L711.2600 705.8000Q722.6000 705.8000 730.3000 710.4900Q738.0000 715.1800 741.9200 723.5100Q745.8400 731.8400 745.8400 742.7600L745.8400 742.7600L745.8400 745.7000Q745.8400 747.1000 744.8600 748.0800Q743.8800 749.0600 742.3400 749.0600L742.3400 749.0600L695.8600 749.0600Q695.8600 749.0600 695.8600 749.4800Q695.8600 749.9000 695.8600 750.1800L695.8600 750.1800Q696.0000 755.0800 697.7500 759.2100Q699.5000 763.3400 702.9300 765.8600Q706.3600 768.3800 711.1200 768.3800L711.1200 768.3800Q715.0400 768.3800 717.7000 767.1900Q720.3600 766 722.0400 764.4600Q723.7200 762.9200 724.4200 761.9400L724.4200 761.9400Q725.6800 760.2600 726.4500 759.9100Q727.2200 759.5600 728.7600 759.5600L728.7600 759.5600L740.8000 759.5600Q742.2000 759.5600 743.1100 760.4000Q744.0200 761.2400 743.8800 762.5000L743.8800 762.5000Q743.7400 764.7400 741.5700 767.9600Q739.4000 771.1800 735.3400 774.2600Q731.2800 777.3400 725.1900 779.3700Q719.1000 781.4000 711.2600 781.4000ZM695.8600 736.8800L695.8600 737.3000L726.8000 737.3000L726.8000 736.8800Q726.8000 731.4200 724.9800 727.2900Q723.1600 723.1600 719.6600 720.8500Q716.1600 718.5400 711.2600 718.5400L711.2600 718.5400Q706.3600 718.5400 702.8600 720.8500Q699.3600 723.1600 697.6100 727.2900Q695.8600 731.4200 695.8600 736.8800L695.8600 736.8800ZM776.2200 780L764.0400 780Q762.6400 780 761.6600 779.0200Q760.6800 778.0400 760.6800 776.6400L760.6800 776.6400L760.6800 710.7000Q760.6800 709.1600 761.6600 708.1800Q762.6400 707.2000 764.0400 707.2000L764.0400 707.2000L775.3800 707.2000Q776.7800 707.2000 777.8300 708.1800Q778.8800 709.1600 778.8800 710.7000L778.8800 710.7000L778.8800 716.4400Q782.1000 711.9600 787.2100 709.5800Q792.3200 707.2000 799.0400 707.2000L799.0400 707.2000L804.7800 707.2000Q806.3200 707.2000 807.2300 708.1800Q808.1400 709.1600 808.1400 710.5600L808.1400 710.5600L808.1400 720.6400Q808.1400 722.0400 807.2300 723.0200Q806.3200 724 804.7800 724L804.7800 724L793.8600 724Q787.1400 724 783.4300 727.7100Q779.7200 731.4200 779.7200 738.1400L779.7200 738.1400L779.7200 776.6400Q779.7200 778.0400 778.7400 779.0200Q777.7600 780 776.2200 780L776.2200 780ZM841.7400 780L830.2600 780Q828.8600 780 827.8800 779.0200Q826.9000 778.0400 826.9000 776.6400L826.9000 776.6400L826.9000 722.0400L815.5600 722.0400Q814.1600 722.0400 813.1800 721.0600Q812.2000 720.0800 812.2000 718.5400L812.2000 718.5400L812.2000 710.5600Q812.2000 709.1600 813.1800 708.1800Q814.1600 707.2000 815.5600 707.2000L815.5600 707.2000L826.9000 707.2000L826.9000 701.4600Q826.9000 693.0600 829.9800 687.5300Q833.0600 682 839.0800 679.2000Q845.1000 676.4000 854.3400 676.4000L854.3400 676.4000L863.8600 676.4000Q865.4000 676.4000 866.3100 677.3800Q867.2200 678.3600 867.2200 679.7600L867.2200 679.7600L867.2200 687.7400Q867.2200 689.2800 866.3100 690.2600Q865.4000 691.2400 863.8600 691.2400L863.8600 691.2400L854.9000 691.2400Q849.3000 691.2400 847.2000 694.0400Q845.1000 696.8400 845.1000 702.1600L845.1000 702.1600L845.1000 707.2000L862.4600 707.2000Q864 707.2000 864.9100 708.1800Q865.8200 709.1600 865.8200 710.5600L865.8200 710.5600L865.8200 718.5400Q865.8200 720.0800 864.9100 721.0600Q864 722.0400 862.4600 722.0400L862.4600 722.0400L845.1000 722.0400L845.1000 776.6400Q845.1000 778.0400 844.1200 779.0200Q843.1400 780 841.7400 780L841.7400 780ZM898.1600 781.4000L898.1600 781.4000Q890.8800 781.4000 885.0000 778.5300Q879.1200 775.6600 875.6900 770.8300Q872.2600 766 872.2600 759.9800L872.2600 759.9800Q872.2600 750.1800 880.2400 744.3700Q888.2200 738.5600 901.1000 736.6000L901.1000 736.6000L920.2800 733.8000L920.2800 730.8600Q920.2800 724.9800 917.3400 721.7600Q914.4000 718.5400 907.2600 718.5400L907.2600 718.5400Q902.2200 718.5400 899.0700 720.5700Q895.9200 722.6000 894.3800 725.9600L894.3800 725.9600Q893.2600 727.7800 891.1600 727.7800L891.1600 727.7800L880.1000 727.7800Q878.5600 727.7800 877.7900 726.9400Q877.0200 726.1000 877.0200 724.7000L877.0200 724.7000Q877.1600 722.4600 878.9100 719.2400Q880.6600 716.0200 884.2300 713.0100Q887.8000 710 893.5400 707.9000Q899.2800 705.8000 907.4000 705.8000L907.4000 705.8000Q916.2200 705.8000 922.3100 707.9700Q928.4000 710.1400 932.0400 713.7800Q935.6800 717.4200 937.3600 722.3200Q939.0400 727.2200 939.0400 732.6800L939.0400 732.6800L939.0400 776.6400Q939.0400 778.0400 938.0600 779.0200Q937.0800 780 935.6800 780L935.6800 780L924.3400 780Q922.8000 780 921.8900 779.0200Q920.9800 778.0400 920.9800 776.6400L920.9800 776.6400L920.9800 771.1800Q919.1600 773.7000 916.0800 776.0800Q913.0000 778.4600 908.5900 779.9300Q904.1800 781.4000 898.1600 781.4000ZM902.9200 768.1000L902.9200 768.1000Q907.8200 768.1000 911.8100 766Q915.8000 763.9000 918.1100 759.4900Q920.4200 755.0800 920.4200 748.3600L920.4200 748.3600L920.4200 745.4200L906.4200 747.6600Q898.1600 748.9200 894.1000 751.7200Q890.0400 754.5200 890.0400 758.5800L890.0400 758.5800Q890.0400 761.6600 891.9300 763.8300Q893.8200 766 896.7600 767.0500Q899.7000 768.1000 902.9200 768.1000ZM988.4600 781.4000L988.4600 781.4000Q978.3800 781.4000 970.7500 777.6200Q963.1200 773.8400 958.8500 766.6300Q954.5800 759.4200 954.1600 749.2000L954.1600 749.2000Q954.0200 747.1000 954.0200 743.6700Q954.0200 740.2400 954.1600 738L954.1600 738Q954.5800 727.7800 958.8500 720.5700Q963.1200 713.3600 970.7500 709.5800Q978.3800 705.8000 988.4600 705.8000L988.4600 705.8000Q997.4200 705.8000 1003.7200 708.2500Q1010.0200 710.7000 1014.0800 714.5500Q1018.1400 718.4000 1020.1700 722.5300Q1022.2000 726.6600 1022.3400 730.0200L1022.3400 730.0200Q1022.4800 731.5600 1021.4300 732.4700Q1020.3800 733.3800 1018.9800 733.3800L1018.9800 733.3800L1006.6600 733.3800Q1005.2600 733.3800 1004.4900 732.6800Q1003.7200 731.9800 1003.0200 730.5800L1003.0200 730.5800Q1000.9200 724.9800 997.4900 722.6700Q994.0600 720.3600 988.7400 720.3600L988.7400 720.3600Q981.7400 720.3600 977.6100 724.7700Q973.4800 729.1800 973.2000 738.7000L973.2000 738.7000Q972.9200 744.0200 973.2000 748.5000L973.2000 748.5000Q973.4800 758.1600 977.6100 762.5000Q981.7400 766.8400 988.7400 766.8400L988.7400 766.8400Q994.2000 766.8400 997.5600 764.5300Q1000.9200 762.2200 1003.0200 756.6200L1003.0200 756.6200Q1003.7200 755.2200 1004.4900 754.5200Q1005.2600 753.8200 1006.6600 753.8200L1006.6600 753.8200L1018.9800 753.8200Q1020.3800 753.8200 1021.4300 754.7300Q1022.4800 755.6400 1022.3400 757.1800L1022.3400 757.1800Q1022.2000 759.7000 1021.0100 762.8500Q1019.8200 766 1017.2300 769.2900Q1014.6400 772.5800 1010.7200 775.3100Q1006.8000 778.0400 1001.2700 779.7200Q995.7400 781.4000 988.4600 781.4000ZM1068.2600 781.4000L1068.2600 781.4000Q1052.7200 781.4000 1043.6200 772.4400Q1034.5200 763.4800 1033.8200 746.9600L1033.8200 746.9600Q1033.6800 745.5600 1033.6800 743.3900Q1033.6800 741.2200 1033.8200 739.9600L1033.8200 739.9600Q1034.3800 729.3200 1038.6500 721.6900Q1042.9200 714.0600 1050.4800 709.9300Q1058.0400 705.8000 1068.2600 705.8000L1068.2600 705.8000Q1079.6000 705.8000 1087.3000 710.4900Q1095 715.1800 1098.9200 723.5100Q1102.8400 731.8400 1102.8400 742.7600L1102.8400 742.7600L1102.8400 745.7000Q1102.8400 747.1000 1101.8600 748.0800Q1100.8800 749.0600 1099.3400 749.0600L1099.3400 749.0600L1052.8600 749.0600Q1052.8600 749.0600 1052.8600 749.4800Q1052.8600 749.9000 1052.8600 750.1800L1052.8600 750.1800Q1053 755.0800 1054.7500 759.2100Q1056.5000 763.3400 1059.9300 765.8600Q1063.3600 768.3800 1068.1200 768.3800L1068.1200 768.3800Q1072.0400 768.3800 1074.7000 767.1900Q1077.3600 766 1079.0400 764.4600Q1080.7200 762.9200 1081.4200 761.9400L1081.4200 761.9400Q1082.6800 760.2600 1083.4500 759.9100Q1084.2200 759.5600 1085.7600 759.5600L1085.7600 759.5600L1097.8000 759.5600Q1099.2000 759.5600 1100.1100 760.4000Q1101.0200 761.2400 1100.8800 762.5000L1100.8800 762.5000Q1100.7400 764.7400 1098.5700 767.9600Q1096.4000 771.1800 1092.3400 774.2600Q1088.2800 777.3400 1082.1900 779.3700Q1076.1000 781.4000 1068.2600 781.4000ZM1052.8600 736.8800L1052.8600 737.3000L1083.8000 737.3000L1083.8000 736.8800Q1083.8000 731.4200 1081.9800 727.2900Q1080.1600 723.1600 1076.6600 720.8500Q1073.1600 718.5400 1068.2600 718.5400L1068.2600 718.5400Q1063.3600 718.5400 1059.8600 720.8500Q1056.3600 723.1600 1054.6100 727.2900Q1052.8600 731.4200 1052.8600 736.8800L1052.8600 736.8800ZM195.3600 920L185 920Q182.7600 920 181.7100 918.9500Q180.6600 917.9000 179.9600 916.5000L179.9600 916.5000L153.7800 851.5400Q153.5000 850.8400 153.5000 850.2800L153.5000 850.2800Q153.5000 849.0200 154.4100 848.1100Q155.3200 847.2000 156.5800 847.2000L156.5800 847.2000L167.9200 847.2000Q169.6000 847.2000 170.4400 848.1100Q171.2800 849.0200 171.5600 849.8600L171.5600 849.8600L190.1800 899L208.8000 849.8600Q209.0800 849.0200 209.9200 848.1100Q210.7600 847.2000 212.4400 847.2000L212.4400 847.2000L223.9200 847.2000Q225.0400 847.2000 225.9500 848.1100Q226.8600 849.0200 226.8600 850.2800L226.8600 850.2800Q226.8600 850.8400 226.7200 851.5400L226.7200 851.5400L200.4000 916.5000Q199.8400 917.9000 198.7200 918.9500Q197.6000 920 195.3600 920L195.3600 920ZM254.5800 920L242.9600 920Q241.5600 920 240.5800 919.0200Q239.6000 918.0400 239.6000 916.6400L239.6000 916.6400L239.6000 850.5600Q239.6000 849.1600 240.5800 848.1800Q241.5600 847.2000 242.9600 847.2000L242.9600 847.2000L254.5800 847.2000Q256.1200 847.2000 257.0300 848.1800Q257.9400 849.1600 257.9400 850.5600L257.9400 850.5600L257.9400 916.6400Q257.9400 918.0400 257.0300 919.0200Q256.1200 920 254.5800 920L254.5800 920ZM255.1400 835.1600L242.4000 835.1600Q241 835.1600 240.0200 834.1800Q239.0400 833.2000 239.0400 831.8000L239.0400 831.8000L239.0400 821.7200Q239.0400 820.3200 240.0200 819.3400Q241 818.3600 242.4000 818.3600L242.4000 818.3600L255.1400 818.3600Q256.6800 818.3600 257.6600 819.3400Q258.6400 820.3200 258.6400 821.7200L258.6400 821.7200L258.6400 831.8000Q258.6400 833.2000 257.6600 834.1800Q256.6800 835.1600 255.1400 835.1600L255.1400 835.1600ZM304.1400 921.4000L304.1400 921.4000Q295.7400 921.4000 289.7900 919.4400Q283.8400 917.4800 280.0600 914.5400Q276.2800 911.6000 274.4600 908.6600Q272.6400 905.7200 272.5000 903.7600L272.5000 903.7600Q272.3600 902.2200 273.4100 901.3100Q274.4600 900.4000 275.7200 900.4000L275.7200 900.4000L286.7800 900.4000Q287.3400 900.4000 287.7600 900.5400Q288.1800 900.6800 288.8800 901.3800L288.8800 901.3800Q290.7000 902.9200 292.7300 904.6000Q294.7600 906.2800 297.5600 907.4700Q300.3600 908.6600 304.5600 908.6600L304.5600 908.6600Q310.0200 908.6600 313.7300 906.4900Q317.4400 904.3200 317.4400 900.2600L317.4400 900.2600Q317.4400 897.3200 315.8300 895.5000Q314.2200 893.6800 309.8800 892.2100Q305.5400 890.7400 297.5600 889.0600L297.5600 889.0600Q289.7200 887.2400 284.5400 884.4400Q279.3600 881.6400 276.8400 877.4400Q274.3200 873.2400 274.3200 867.6400L274.3200 867.6400Q274.3200 862.1800 277.6100 857.2100Q280.9000 852.2400 287.4100 849.0200Q293.9200 845.8000 303.5800 845.8000L303.5800 845.8000Q311.1400 845.8000 316.7400 847.6900Q322.3400 849.5800 326.0500 852.3800Q329.7600 855.1800 331.7200 858.0500Q333.6800 860.9200 333.8200 863.0200L333.8200 863.0200Q333.9600 864.5600 332.9800 865.4700Q332 866.3800 330.7400 866.3800L330.7400 866.3800L320.3800 866.3800Q319.6800 866.3800 319.1200 866.1000Q318.5600 865.8200 318 865.4000L318 865.4000Q316.4600 864 314.6400 862.3900Q312.8200 860.7800 310.2300 859.6600Q307.6400 858.5400 303.4400 858.5400L303.4400 858.5400Q298.1200 858.5400 295.3200 860.8500Q292.5200 863.1600 292.5200 866.6600L292.5200 866.6600Q292.5200 869.0400 293.8500 870.7900Q295.1800 872.5400 299.2400 874.0800Q303.3000 875.6200 311.5600 877.3000L311.5600 877.3000Q320.9400 878.9800 326.4700 882.2700Q332 885.5600 334.3100 889.8300Q336.6200 894.1000 336.6200 899.2800L336.6200 899.2800Q336.6200 905.5800 332.9100 910.6200Q329.2000 915.6600 321.9900 918.5300Q314.7800 921.4000 304.1400 921.4000ZM378.0600 921.4000L378.0600 921.4000Q369.5200 921.4000 363.2900 917.5500Q357.0600 913.7000 353.7000 906.6300Q350.3400 899.5600 350.3400 889.9000L350.3400 889.9000L350.3400 850.5600Q350.3400 849.1600 351.3200 848.1800Q352.3000 847.2000 353.7000 847.2000L353.7000 847.2000L366.0200 847.2000Q367.5600 847.2000 368.4700 848.1800Q369.3800 849.1600 369.3800 850.5600L369.3800 850.5600L369.3800 889.0600Q369.3800 906.4200 384.6400 906.4200L384.6400 906.4200Q391.9200 906.4200 396.1900 901.8000Q400.4600 897.1800 400.4600 889.0600L400.4600 889.0600L400.4600 850.5600Q400.4600 849.1600 401.4400 848.1800Q402.4200 847.2000 403.8200 847.2000L403.8200 847.2000L416.1400 847.2000Q417.5400 847.2000 418.5200 848.1800Q419.5000 849.1600 419.5000 850.5600L419.5000 850.5600L419.5000 916.6400Q419.5000 918.0400 418.5200 919.0200Q417.5400 920 416.1400 920L416.1400 920L404.8000 920Q403.2600 920 402.3500 919.0200Q401.4400 918.0400 401.4400 916.6400L401.4400 916.6400L401.4400 910.9000Q397.6600 915.8000 392.0600 918.6000Q386.4600 921.4000 378.0600 921.4000ZM459.1200 921.4000L459.1200 921.4000Q451.8400 921.4000 445.9600 918.5300Q440.0800 915.6600 436.6500 910.8300Q433.2200 906 433.2200 899.9800L433.2200 899.9800Q433.2200 890.1800 441.2000 884.3700Q449.1800 878.5600 462.0600 876.6000L462.0600 876.6000L481.2400 873.8000L481.2400 870.8600Q481.2400 864.9800 478.3000 861.7600Q475.3600 858.5400 468.2200 858.5400L468.2200 858.5400Q463.1800 858.5400 460.0300 860.5700Q456.8800 862.6000 455.3400 865.9600L455.3400 865.9600Q454.2200 867.7800 452.1200 867.7800L452.1200 867.7800L441.0600 867.7800Q439.5200 867.7800 438.7500 866.9400Q437.9800 866.1000 437.9800 864.7000L437.9800 864.7000Q438.1200 862.4600 439.8700 859.2400Q441.6200 856.0200 445.1900 853.0100Q448.7600 850 454.5000 847.9000Q460.2400 845.8000 468.3600 845.8000L468.3600 845.8000Q477.1800 845.8000 483.2700 847.9700Q489.3600 850.1400 493 853.7800Q496.6400 857.4200 498.3200 862.3200Q500 867.2200 500 872.6800L500 872.6800L500 916.6400Q500 918.0400 499.0200 919.0200Q498.0400 920 496.6400 920L496.6400 920L485.3000 920Q483.7600 920 482.8500 919.0200Q481.9400 918.0400 481.9400 916.6400L481.9400 916.6400L481.9400 911.1800Q480.1200 913.7000 477.0400 916.0800Q473.9600 918.4600 469.5500 919.9300Q465.1400 921.4000 459.1200 921.4000ZM463.8800 908.1000L463.8800 908.1000Q468.7800 908.1000 472.7700 906Q476.7600 903.9000 479.0700 899.4900Q481.3800 895.0800 481.3800 888.3600L481.3800 888.3600L481.3800 885.4200L467.3800 887.6600Q459.1200 888.9200 455.0600 891.7200Q451 894.5200 451 898.5800L451 898.5800Q451 901.6600 452.8900 903.8300Q454.7800 906 457.7200 907.0500Q460.6600 908.1000 463.8800 908.1000ZM533.0400 920L521.4200 920Q520.0200 920 519.0400 919.0200Q518.0600 918.0400 518.0600 916.6400L518.0600 916.6400L518.0600 823.9600Q518.0600 822.5600 519.0400 821.5800Q520.0200 820.6000 521.4200 820.6000L521.4200 820.6000L533.0400 820.6000Q534.4400 820.6000 535.4200 821.5800Q536.4000 822.5600 536.4000 823.9600L536.4000 823.9600L536.4000 916.6400Q536.4000 918.0400 535.4200 919.0200Q534.4400 920 533.0400 920L533.0400 920Z" id="title"/></g></svg>