<svg xmlns="http://www.w3.org/2000/svg" version="1.1" xmlns:xlink="http://www.w3.org/1999/xlink" xmlns:svgjs="http://svgjs.dev/svgjs" viewBox="0 0 1920 1080" id="21ea8a45-68bd-4aee-9e76-8550e41bd393"><g><rect width="1920" height="1080" fill="#3e517a"/></g><g fill="#865070"><path d="M2118.71 322.496C1962.88 381.696 1840.11 286.062 1731.68 201.315C1619.52 113.904 1545.13 63.1995 1455.92 97.0926C1366.11 131.212 1344.15 218.52 1318.91 358.127C1294.11 493.487 1265.8 646.514 1109.97 705.714C954.144 764.914 831.375 669.28 722.951 584.533C610.793 497.122 536.401 446.418 447.185 480.311C357.375 514.43 335.414 601.738 310.18 741.346C285.375 876.706 257.072 1029.73 101.242 1088.93C-54.5876 1148.13 -177.357 1052.5 -285.78 967.751C-397.344 880.114 -471.736 829.41 -561.547 863.529L-602 757.045C-446.17 697.845 -323.401 793.479 -214.977 878.225C-102.819 965.637 -28.4265 1016.34 60.7891 982.448C150.6 948.329 172.56 861.02 197.794 721.413C222.599 586.053 250.307 433.253 406.732 373.827C562.562 314.627 685.331 410.261 793.754 495.007C905.913 582.419 980.305 633.123 1069.52 599.23C1159.33 565.111 1181.29 477.802 1206.53 338.195C1231.33 202.835 1259.04 50.0347 1415.46 -9.39121C1571.89 -68.8172 1694.06 27.043 1802.49 111.789C1914.64 199.201 1989.04 249.905 2078.25 216.012L2118.71 322.496Z"/></g><g fill="#ffffff" opacity="0.2"><path d="M960.041 79C960.041 79 971.953 194.974 981.699 214.484C992.529 237.245 1064 247 1064 247C1064 247 994.694 258.923 983.865 280.6C973.036 301.194 958.959 415 958.959 415C958.959 415 945.964 296.858 935.135 275.181C925.389 255.671 855 245.916 855 245.916C855 245.916 925.389 233.994 936.218 212.316C947.047 192.806 960.041 79 960.041 79Z"/><path d="M561.041 687C561.041 687 572.953 802.974 582.699 822.484C593.529 845.245 665 855 665 855C665 855 595.694 866.923 584.865 888.6C574.036 909.194 559.959 1023 559.959 1023C559.959 1023 546.964 904.858 536.135 883.181C526.389 863.671 456 853.916 456 853.916C456 853.916 526.389 841.994 537.218 820.316C548.047 800.806 561.041 687 561.041 687Z"/></g><g><path d="M178.635 139.281L184.422 144.246V166.626H215.704L219.958 172.147L215.69 177.397H184.422V198.795L178.635 203.747L173 198.795V144.232L178.635 139.281ZM195.554 195.68H219.406L223.397 200.915L219.143 206.45H195.554L191.7 201.342L195.554 195.68ZM196.382 138H219.129L223.383 143.52L219.129 148.77H196.659L192.115 143.677L196.382 138ZM323.155 148.628L328.251 154.291L323.155 159.968H246.13L241.172 154.291L246.13 148.628H323.155ZM237.043 172.147L241.849 167.893L246.669 172.147V178.393C246.669 188.879 249.417 197.515 261.668 197.515H264.14C275.147 197.515 281.197 189.86 281.197 177.952V172.005L285.879 167.75L290.699 171.862V178.379C290.699 189.007 293.723 196.946 305.56 196.946H307.618C319.178 196.946 321.235 187.869 321.373 177.952V171.578L326.056 167.608L331 171.72V178.094C330.862 191.838 327.285 207.574 308.032 207.574H305.974C294.552 207.574 288.365 202.324 285.892 195.808C283.006 202.466 275.299 208.286 264.844 208.286H262.358C242.553 208.286 237.194 195.964 237.056 178.663V172.147H237.043ZM276.391 274.744L273.642 267.089L280.796 264.969L305.974 276.721V252.491L311.07 248.095L316.291 252.491V281.829L325.641 286.226L328.251 293.311L320.959 296L276.391 274.744ZM321.235 223.011L328.113 226.27L325.917 233.497L264.002 263.119L256.571 260.146L259.596 252.776L321.235 223.011ZM231.905 263.404L237.954 268.512C237.402 286.51 222.403 296 204.669 296H202.874C194.062 296 183.759 292.6 177.157 286.083L177.834 278.855L184.298 278.002C189.118 282.256 195.858 285.229 202.183 285.229H204.117C216.091 285.229 225.303 280.136 226.27 268.085L231.905 263.404ZM226.256 251.638C225.704 239.16 216.629 234.209 204.103 234.209H202.169C194.739 234.209 189.104 237.182 184.284 241.436L177.834 240.583L177.143 233.355C183.745 226.696 192.957 223.58 202.597 223.58H204.517C222.403 223.58 237.402 232.942 237.94 251.211L231.891 256.176L226.256 251.638Z" fill="#ffffff"/></g><g fill="#ffffff" id="info-group"><path d="M167.0800 570L154.9000 570Q153.7800 570 152.8700 569.1600Q151.9600 568.3200 151.9600 567.0600L151.9600 567.0600Q151.9600 566.5000 152.2400 565.8000L152.2400 565.8000L185.9800 475.5000Q186.4000 474.1000 187.5900 473.0500Q188.7800 472 190.8800 472L190.8800 472L206.1400 472Q208.2400 472 209.3600 473.0500Q210.4800 474.1000 211.0400 475.5000L211.0400 475.5000L244.7800 565.8000Q244.9200 566.5000 244.9200 567.0600L244.9200 567.0600Q244.9200 568.3200 244.0800 569.1600Q243.2400 570 242.1200 570L242.1200 570L229.9400 570Q227.9800 570 227.0700 569.0900Q226.1600 568.1800 225.8800 567.3400L225.8800 567.3400L219.3000 550.2600L177.7200 550.2600L171.1400 567.3400Q170.8600 568.1800 169.9500 569.0900Q169.0400 570 167.0800 570L167.0800 570ZM198.4400 490.9000L182.6200 534.1600L214.4000 534.1600L198.4400 490.9000ZM283.2800 571.4000L283.2800 571.4000Q274.7400 571.4000 268.5100 567.5500Q262.2800 563.7000 258.9200 556.6300Q255.5600 549.5600 255.5600 539.9000L255.5600 539.9000L255.5600 500.5600Q255.5600 499.1600 256.5400 498.1800Q257.5200 497.2000 258.9200 497.2000L258.9200 497.2000L271.2400 497.2000Q272.7800 497.2000 273.6900 498.1800Q274.6000 499.1600 274.6000 500.5600L274.6000 500.5600L274.6000 539.0600Q274.6000 556.4200 289.8600 556.4200L289.8600 556.4200Q297.1400 556.4200 301.4100 551.8000Q305.6800 547.1800 305.6800 539.0600L305.6800 539.0600L305.6800 500.5600Q305.6800 499.1600 306.6600 498.1800Q307.6400 497.2000 309.0400 497.2000L309.0400 497.2000L321.3600 497.2000Q322.7600 497.2000 323.7400 498.1800Q324.7200 499.1600 324.7200 500.5600L324.7200 500.5600L324.7200 566.6400Q324.7200 568.0400 323.7400 569.0200Q322.7600 570 321.3600 570L321.3600 570L310.0200 570Q308.4800 570 307.5700 569.0200Q306.6600 568.0400 306.6600 566.6400L306.6600 566.6400L306.6600 560.9000Q302.8800 565.8000 297.2800 568.6000Q291.6800 571.4000 283.2800 571.4000ZM358.3200 570L346.7000 570Q345.3000 570 344.3200 569.0200Q343.3400 568.0400 343.3400 566.6400L343.3400 566.6400L343.3400 473.9600Q343.3400 472.5600 344.3200 471.5800Q345.3000 470.6000 346.7000 470.6000L346.7000 470.6000L358.3200 470.6000Q359.7200 470.6000 360.7000 471.5800Q361.6800 472.5600 361.6800 473.9600L361.6800 473.9600L361.6800 566.6400Q361.6800 568.0400 360.7000 569.0200Q359.7200 570 358.3200 570L358.3200 570ZM401.4400 571.4000L401.4400 571.4000Q394.1600 571.4000 388.2800 568.5300Q382.4000 565.6600 378.9700 560.8300Q375.5400 556 375.5400 549.9800L375.5400 549.9800Q375.5400 540.1800 383.5200 534.3700Q391.5000 528.5600 404.3800 526.6000L404.3800 526.6000L423.5600 523.8000L423.5600 520.8600Q423.5600 514.9800 420.6200 511.7600Q417.6800 508.5400 410.5400 508.5400L410.5400 508.5400Q405.5000 508.5400 402.3500 510.5700Q399.2000 512.6000 397.6600 515.9600L397.6600 515.9600Q396.5400 517.7800 394.4400 517.7800L394.4400 517.7800L383.3800 517.7800Q381.8400 517.7800 381.0700 516.9400Q380.3000 516.1000 380.3000 514.7000L380.3000 514.7000Q380.4400 512.4600 382.1900 509.2400Q383.9400 506.0200 387.5100 503.0100Q391.0800 500 396.8200 497.9000Q402.5600 495.8000 410.6800 495.8000L410.6800 495.8000Q419.5000 495.8000 425.5900 497.9700Q431.6800 500.1400 435.3200 503.7800Q438.9600 507.4200 440.6400 512.3200Q442.3200 517.2200 442.3200 522.6800L442.3200 522.6800L442.3200 566.6400Q442.3200 568.0400 441.3400 569.0200Q440.3600 570 438.9600 570L438.9600 570L427.6200 570Q426.0800 570 425.1700 569.0200Q424.2600 568.0400 424.2600 566.6400L424.2600 566.6400L424.2600 561.1800Q422.4400 563.7000 419.3600 566.0800Q416.2800 568.4600 411.8700 569.9300Q407.4600 571.4000 401.4400 571.4000ZM406.2000 558.1000L406.2000 558.1000Q411.1000 558.1000 415.0900 556Q419.0800 553.9000 421.3900 549.4900Q423.7000 545.0800 423.7000 538.3600L423.7000 538.3600L423.7000 535.4200L409.7000 537.6600Q401.4400 538.9200 397.3800 541.7200Q393.3200 544.5200 393.3200 548.5800L393.3200 548.5800Q393.3200 551.6600 395.2100 553.8300Q397.1000 556 400.0400 557.0500Q402.9800 558.1000 406.2000 558.1000ZM559.6400 570L492.7200 570Q491.3200 570 490.3400 569.0200Q489.3600 568.0400 489.3600 566.6400L489.3600 566.6400L489.3600 559.5000Q489.3600 558.2400 489.9900 556.4900Q490.6200 554.7400 492.8600 552.9200L492.8600 552.9200L514.9800 530.9400Q524.2200 523.6600 529.8900 518.5500Q535.5600 513.4400 538.1500 509.1700Q540.7400 504.9000 540.7400 500.7000L540.7400 500.7000Q540.7400 494.4000 537.3100 490.4800Q533.8800 486.5600 526.4600 486.5600L526.4600 486.5600Q521.5600 486.5600 518.2000 488.5900Q514.8400 490.6200 512.9500 493.9800Q511.0600 497.3400 510.3600 501.4000L510.3600 501.4000Q510.0800 503.2200 508.8200 503.9200Q507.5600 504.6200 506.3000 504.6200L506.3000 504.6200L493.8400 504.6200Q492.5800 504.6200 491.7400 503.7800Q490.9000 502.9400 490.9000 501.8200L490.9000 501.8200Q491.0400 495.8000 493.4200 490.1300Q495.8000 484.4600 500.3500 480.0500Q504.9000 475.6400 511.4800 472.9800Q518.0600 470.3200 526.3200 470.3200L526.3200 470.3200Q537.9400 470.3200 545.5700 474.2400Q553.2000 478.1600 557.0500 484.8800Q560.9000 491.6000 560.9000 500L560.9000 500Q560.9000 506.5800 558.3800 512.1100Q555.8600 517.6400 551.1000 522.7500Q546.3400 527.8600 539.6200 533.1800L539.6200 533.1800L519.7400 553.3400L559.6400 553.3400Q561.1800 553.3400 562.0900 554.2500Q563.0000 555.1600 563.0000 556.7000L563.0000 556.7000L563.0000 566.6400Q563.0000 568.0400 562.0900 569.0200Q561.1800 570 559.6400 570L559.6400 570ZM595.7600 521L581.9000 521Q580.5000 521 579.5200 520.0200Q578.5400 519.0400 578.5400 517.6400L578.5400 517.6400L578.5400 504.3400Q578.5400 502.8000 579.5200 501.8200Q580.5000 500.8400 581.9000 500.8400L581.9000 500.8400L595.7600 500.8400Q597.3000 500.8400 598.2800 501.8200Q599.2600 502.8000 599.2600 504.3400L599.2600 504.3400L599.2600 517.6400Q599.2600 519.0400 598.2800 520.0200Q597.3000 521 595.7600 521L595.7600 521ZM595.7600 570L581.9000 570Q580.5000 570 579.5200 569.0200Q578.5400 568.0400 578.5400 566.6400L578.5400 566.6400L578.5400 553.3400Q578.5400 551.8000 579.5200 550.8200Q580.5000 549.8400 581.9000 549.8400L581.9000 549.8400L595.7600 549.8400Q597.3000 549.8400 598.2800 550.8200Q599.2600 551.8000 599.2600 553.3400L599.2600 553.3400L599.2600 566.6400Q599.2600 568.0400 598.2800 569.0200Q597.3000 570 595.7600 570L595.7600 570ZM667.5800 570L654.4200 570Q653.0200 570 652.0400 569.0200Q651.0600 568.0400 651.0600 566.6400L651.0600 566.6400L651.0600 475.3600Q651.0600 473.9600 652.0400 472.9800Q653.0200 472 654.4200 472L654.4200 472L667.5800 472Q669.1200 472 670.0300 472.9800Q670.9400 473.9600 670.9400 475.3600L670.9400 475.3600L670.9400 566.6400Q670.9400 568.0400 670.0300 569.0200Q669.1200 570 667.5800 570L667.5800 570ZM706.9200 570L694.6000 570Q693.2000 570 692.2200 569.0200Q691.2400 568.0400 691.2400 566.6400L691.2400 566.6400L691.2400 500.5600Q691.2400 499.1600 692.2200 498.1800Q693.2000 497.2000 694.6000 497.2000L694.6000 497.2000L706.0800 497.2000Q707.4800 497.2000 708.4600 498.1800Q709.4400 499.1600 709.4400 500.5600L709.4400 500.5600L709.4400 506.3000Q713.0800 501.8200 718.7500 498.8100Q724.4200 495.8000 732.8200 495.8000L732.8200 495.8000Q741.3600 495.8000 747.6600 499.6500Q753.9600 503.5000 757.3900 510.5000Q760.8200 517.5000 760.8200 527.3000L760.8200 527.3000L760.8200 566.6400Q760.8200 568.0400 759.8400 569.0200Q758.8600 570 757.4600 570L757.4600 570L745.1400 570Q743.7400 570 742.7600 569.0200Q741.7800 568.0400 741.7800 566.6400L741.7800 566.6400L741.7800 528.1400Q741.7800 520.0200 737.7900 515.4000Q733.8000 510.7800 726.2400 510.7800L726.2400 510.7800Q718.9600 510.7800 714.6200 515.4000Q710.2800 520.0200 710.2800 528.1400L710.2800 528.1400L710.2800 566.6400Q710.2800 568.0400 709.3000 569.0200Q708.3200 570 706.9200 570L706.9200 570ZM806.1800 571.4000L806.1800 571.4000Q797.7800 571.4000 791.8300 569.4400Q785.8800 567.4800 782.1000 564.5400Q778.3200 561.6000 776.5000 558.6600Q774.6800 555.7200 774.5400 553.7600L774.5400 553.7600Q774.4000 552.2200 775.4500 551.3100Q776.5000 550.4000 777.7600 550.4000L777.7600 550.4000L788.8200 550.4000Q789.3800 550.4000 789.8000 550.5400Q790.2200 550.6800 790.9200 551.3800L790.9200 551.3800Q792.7400 552.9200 794.7700 554.6000Q796.8000 556.2800 799.6000 557.4700Q802.4000 558.6600 806.6000 558.6600L806.6000 558.6600Q812.0600 558.6600 815.7700 556.4900Q819.4800 554.3200 819.4800 550.2600L819.4800 550.2600Q819.4800 547.3200 817.8700 545.5000Q816.2600 543.6800 811.9200 542.2100Q807.5800 540.7400 799.6000 539.0600L799.6000 539.0600Q791.7600 537.2400 786.5800 534.4400Q781.4000 531.6400 778.8800 527.4400Q776.3600 523.2400 776.3600 517.6400L776.3600 517.6400Q776.3600 512.1800 779.6500 507.2100Q782.9400 502.2400 789.4500 499.0200Q795.9600 495.8000 805.6200 495.8000L805.6200 495.8000Q813.1800 495.8000 818.7800 497.6900Q824.3800 499.5800 828.0900 502.3800Q831.8000 505.1800 833.7600 508.0500Q835.7200 510.9200 835.8600 513.0200L835.8600 513.0200Q836.0000 514.5600 835.0200 515.4700Q834.0400 516.3800 832.7800 516.3800L832.7800 516.3800L822.4200 516.3800Q821.7200 516.3800 821.1600 516.1000Q820.6000 515.8200 820.0400 515.4000L820.0400 515.4000Q818.5000 514 816.6800 512.3900Q814.8600 510.7800 812.2700 509.6600Q809.6800 508.5400 805.4800 508.5400L805.4800 508.5400Q800.1600 508.5400 797.3600 510.8500Q794.5600 513.1600 794.5600 516.6600L794.5600 516.6600Q794.5600 519.0400 795.8900 520.7900Q797.2200 522.5400 801.2800 524.0800Q805.3400 525.6200 813.6000 527.3000L813.6000 527.3000Q822.9800 528.9800 828.5100 532.2700Q834.0400 535.5600 836.3500 539.8300Q838.6600 544.1000 838.6600 549.2800L838.6600 549.2800Q838.6600 555.5800 834.9500 560.6200Q831.2400 565.6600 824.0300 568.5300Q816.8200 571.4000 806.1800 571.4000ZM897.3200 570L885.9800 570Q877.5800 570 871.8400 567.0600Q866.1000 564.1200 863.3000 558.3100Q860.5000 552.5000 860.5000 543.8200L860.5000 543.8200L860.5000 512.0400L849.4400 512.0400Q848.0400 512.0400 847.0600 511.0600Q846.0800 510.0800 846.0800 508.5400L846.0800 508.5400L846.0800 500.5600Q846.0800 499.1600 847.0600 498.1800Q848.0400 497.2000 849.4400 497.2000L849.4400 497.2000L860.5000 497.2000L860.5000 473.9600Q860.5000 472.5600 861.4100 471.5800Q862.3200 470.6000 863.8600 470.6000L863.8600 470.6000L875.2000 470.6000Q876.6000 470.6000 877.5800 471.5800Q878.5600 472.5600 878.5600 473.9600L878.5600 473.9600L878.5600 497.2000L896.0600 497.2000Q897.4600 497.2000 898.4400 498.1800Q899.4200 499.1600 899.4200 500.5600L899.4200 500.5600L899.4200 508.5400Q899.4200 510.0800 898.4400 511.0600Q897.4600 512.0400 896.0600 512.0400L896.0600 512.0400L878.5600 512.0400L878.5600 542.4200Q878.5600 548.1600 880.5900 551.3800Q882.6200 554.6000 887.6600 554.6000L887.6600 554.6000L897.3200 554.6000Q898.7200 554.6000 899.7000 555.5800Q900.6800 556.5600 900.6800 557.9600L900.6800 557.9600L900.6800 566.6400Q900.6800 568.0400 899.7000 569.0200Q898.7200 570 897.3200 570L897.3200 570ZM934.2800 571.4000L934.2800 571.4000Q927.0000 571.4000 921.1200 568.5300Q915.2400 565.6600 911.8100 560.8300Q908.3800 556 908.3800 549.9800L908.3800 549.9800Q908.3800 540.1800 916.3600 534.3700Q924.3400 528.5600 937.2200 526.6000L937.2200 526.6000L956.4000 523.8000L956.4000 520.8600Q956.4000 514.9800 953.4600 511.7600Q950.5200 508.5400 943.3800 508.5400L943.3800 508.5400Q938.3400 508.5400 935.1900 510.5700Q932.0400 512.6000 930.5000 515.9600L930.5000 515.9600Q929.3800 517.7800 927.2800 517.7800L927.2800 517.7800L916.2200 517.7800Q914.6800 517.7800 913.9100 516.9400Q913.1400 516.1000 913.1400 514.7000L913.1400 514.7000Q913.2800 512.4600 915.0300 509.2400Q916.7800 506.0200 920.3500 503.0100Q923.9200 500 929.6600 497.9000Q935.4000 495.8000 943.5200 495.8000L943.5200 495.8000Q952.3400 495.8000 958.4300 497.9700Q964.5200 500.1400 968.1600 503.7800Q971.8000 507.4200 973.4800 512.3200Q975.1600 517.2200 975.1600 522.6800L975.1600 522.6800L975.1600 566.6400Q975.1600 568.0400 974.1800 569.0200Q973.2000 570 971.8000 570L971.8000 570L960.4600 570Q958.9200 570 958.0100 569.0200Q957.1000 568.0400 957.1000 566.6400L957.1000 566.6400L957.1000 561.1800Q955.2800 563.7000 952.2000 566.0800Q949.1200 568.4600 944.7100 569.9300Q940.3000 571.4000 934.2800 571.4000ZM939.0400 558.1000L939.0400 558.1000Q943.9400 558.1000 947.9300 556Q951.9200 553.9000 954.2300 549.4900Q956.5400 545.0800 956.5400 538.3600L956.5400 538.3600L956.5400 535.4200L942.5400 537.6600Q934.2800 538.9200 930.2200 541.7200Q926.1600 544.5200 926.1600 548.5800L926.1600 548.5800Q926.1600 551.6600 928.0500 553.8300Q929.9400 556 932.8800 557.0500Q935.8200 558.1000 939.0400 558.1000ZM1008.2000 570L996.5800 570Q995.1800 570 994.2000 569.0200Q993.2200 568.0400 993.2200 566.6400L993.2200 566.6400L993.2200 473.9600Q993.2200 472.5600 994.2000 471.5800Q995.1800 470.6000 996.5800 470.6000L996.5800 470.6000L1008.2000 470.6000Q1009.6000 470.6000 1010.5800 471.5800Q1011.5600 472.5600 1011.5600 473.9600L1011.5600 473.9600L1011.5600 566.6400Q1011.5600 568.0400 1010.5800 569.0200Q1009.6000 570 1008.2000 570L1008.2000 570ZM1051.3200 571.4000L1051.3200 571.4000Q1044.0400 571.4000 1038.1600 568.5300Q1032.2800 565.6600 1028.8500 560.8300Q1025.4200 556 1025.4200 549.9800L1025.4200 549.9800Q1025.4200 540.1800 1033.4000 534.3700Q1041.3800 528.5600 1054.2600 526.6000L1054.2600 526.6000L1073.4400 523.8000L1073.4400 520.8600Q1073.4400 514.9800 1070.5000 511.7600Q1067.5600 508.5400 1060.4200 508.5400L1060.4200 508.5400Q1055.3800 508.5400 1052.2300 510.5700Q1049.0800 512.6000 1047.5400 515.9600L1047.5400 515.9600Q1046.4200 517.7800 1044.3200 517.7800L1044.3200 517.7800L1033.2600 517.7800Q1031.7200 517.7800 1030.9500 516.9400Q1030.1800 516.1000 1030.1800 514.7000L1030.1800 514.7000Q1030.3200 512.4600 1032.0700 509.2400Q1033.8200 506.0200 1037.3900 503.0100Q1040.9600 500 1046.7000 497.9000Q1052.4400 495.8000 1060.5600 495.8000L1060.5600 495.8000Q1069.3800 495.8000 1075.4700 497.9700Q1081.5600 500.1400 1085.2000 503.7800Q1088.8400 507.4200 1090.5200 512.3200Q1092.2000 517.2200 1092.2000 522.6800L1092.2000 522.6800L1092.2000 566.6400Q1092.2000 568.0400 1091.2200 569.0200Q1090.2400 570 1088.8400 570L1088.8400 570L1077.5000 570Q1075.9600 570 1075.0500 569.0200Q1074.1400 568.0400 1074.1400 566.6400L1074.1400 566.6400L1074.1400 561.1800Q1072.3200 563.7000 1069.2400 566.0800Q1066.1600 568.4600 1061.7500 569.9300Q1057.3400 571.4000 1051.3200 571.4000ZM1056.0800 558.1000L1056.0800 558.1000Q1060.9800 558.1000 1064.9700 556Q1068.9600 553.9000 1071.2700 549.4900Q1073.5800 545.0800 1073.5800 538.3600L1073.5800 538.3600L1073.5800 535.4200L1059.5800 537.6600Q1051.3200 538.9200 1047.2600 541.7200Q1043.2000 544.5200 1043.2000 548.5800L1043.2000 548.5800Q1043.2000 551.6600 1045.0900 553.8300Q1046.9800 556 1049.9200 557.0500Q1052.8600 558.1000 1056.0800 558.1000ZM1125.8000 570L1113.4800 570Q1112.0800 570 1111.1000 569.0200Q1110.1200 568.0400 1110.1200 566.6400L1110.1200 566.6400L1110.1200 500.5600Q1110.1200 499.1600 1111.1000 498.1800Q1112.0800 497.2000 1113.4800 497.2000L1113.4800 497.2000L1124.9600 497.2000Q1126.3600 497.2000 1127.3400 498.1800Q1128.3200 499.1600 1128.3200 500.5600L1128.3200 500.5600L1128.3200 506.3000Q1131.9600 501.8200 1137.6300 498.8100Q1143.3000 495.8000 1151.7000 495.8000L1151.7000 495.8000Q1160.2400 495.8000 1166.5400 499.6500Q1172.8400 503.5000 1176.2700 510.5000Q1179.7000 517.5000 1179.7000 527.3000L1179.7000 527.3000L1179.7000 566.6400Q1179.7000 568.0400 1178.7200 569.0200Q1177.7400 570 1176.3400 570L1176.3400 570L1164.0200 570Q1162.6200 570 1161.6400 569.0200Q1160.6600 568.0400 1160.6600 566.6400L1160.6600 566.6400L1160.6600 528.1400Q1160.6600 520.0200 1156.6700 515.4000Q1152.6800 510.7800 1145.1200 510.7800L1145.1200 510.7800Q1137.8400 510.7800 1133.5000 515.4000Q1129.1600 520.0200 1129.1600 528.1400L1129.1600 528.1400L1129.1600 566.6400Q1129.1600 568.0400 1128.1800 569.0200Q1127.2000 570 1125.8000 570L1125.8000 570ZM1224.5000 571.4000L1224.5000 571.4000Q1217.2200 571.4000 1211.6900 568.9500Q1206.1600 566.5000 1202.5200 562.0200Q1198.8800 557.5400 1196.9200 551.4500Q1194.9600 545.3600 1194.6800 538.0800L1194.6800 538.0800Q1194.5400 535.5600 1194.5400 533.5300Q1194.5400 531.5000 1194.6800 528.9800L1194.6800 528.9800Q1194.9600 521.9800 1196.8500 515.9600Q1198.7400 509.9400 1202.4500 505.3900Q1206.1600 500.8400 1211.6900 498.3200Q1217.2200 495.8000 1224.5000 495.8000L1224.5000 495.8000Q1232.0600 495.8000 1237.3100 498.3900Q1242.5600 500.9800 1246.0600 505.0400L1246.0600 505.0400L1246.0600 473.9600Q1246.0600 472.5600 1246.9700 471.5800Q1247.8800 470.6000 1249.4200 470.6000L1249.4200 470.6000L1261.3200 470.6000Q1262.7200 470.6000 1263.7000 471.5800Q1264.6800 472.5600 1264.6800 473.9600L1264.6800 473.9600L1264.6800 566.6400Q1264.6800 568.0400 1263.7000 569.0200Q1262.7200 570 1261.3200 570L1261.3200 570L1250.2600 570Q1248.7200 570 1247.8100 569.0200Q1246.9000 568.0400 1246.9000 566.6400L1246.9000 566.6400L1246.9000 561.4600Q1243.4000 565.8000 1238.0100 568.6000Q1232.6200 571.4000 1224.5000 571.4000ZM1229.6800 556.4200L1229.6800 556.4200Q1235.5600 556.4200 1239.0600 553.7600Q1242.5600 551.1000 1244.2400 546.9700Q1245.9200 542.8400 1246.0600 538.5000L1246.0600 538.5000Q1246.2000 535.9800 1246.2000 533.1100Q1246.2000 530.2400 1246.0600 527.7200L1246.0600 527.7200Q1245.9200 523.5200 1244.1000 519.6700Q1242.2800 515.8200 1238.7800 513.3000Q1235.2800 510.7800 1229.6800 510.7800L1229.6800 510.7800Q1223.8000 510.7800 1220.3700 513.3700Q1216.9400 515.9600 1215.4000 520.1600Q1213.8600 524.3600 1213.5800 529.4000L1213.5800 529.4000Q1213.4400 533.6000 1213.5800 537.8000L1213.5800 537.8000Q1213.8600 542.8400 1215.4000 547.0400Q1216.9400 551.2400 1220.3700 553.8300Q1223.8000 556.4200 1229.6800 556.4200ZM1315.5000 571.4000L1315.5000 571.4000Q1304.3000 571.4000 1296.6700 567.4800Q1289.0400 563.5600 1285.0500 556.4200Q1281.0600 549.2800 1280.5000 539.7600L1280.5000 539.7600Q1280.3600 537.2400 1280.3600 533.6000Q1280.3600 529.9600 1280.5000 527.4400L1280.5000 527.4400Q1281.0600 517.7800 1285.1900 510.7100Q1289.3200 503.6400 1296.9500 499.7200Q1304.5800 495.8000 1315.5000 495.8000L1315.5000 495.8000Q1326.4200 495.8000 1334.0500 499.7200Q1341.6800 503.6400 1345.8100 510.7100Q1349.9400 517.7800 1350.5000 527.4400L1350.5000 527.4400Q1350.6400 529.9600 1350.6400 533.6000Q1350.6400 537.2400 1350.5000 539.7600L1350.5000 539.7600Q1349.9400 549.2800 1345.9500 556.4200Q1341.9600 563.5600 1334.3300 567.4800Q1326.7000 571.4000 1315.5000 571.4000ZM1315.5000 557.5400L1315.5000 557.5400Q1322.9200 557.5400 1326.9800 552.8500Q1331.0400 548.1600 1331.4600 539.0600L1331.4600 539.0600Q1331.6000 536.9600 1331.6000 533.6000Q1331.6000 530.2400 1331.4600 528.1400L1331.4600 528.1400Q1331.0400 519.0400 1326.9800 514.3500Q1322.9200 509.6600 1315.5000 509.6600L1315.5000 509.6600Q1308.0800 509.6600 1304.0200 514.3500Q1299.9600 519.0400 1299.5400 528.1400L1299.5400 528.1400Q1299.4000 530.2400 1299.4000 533.6000Q1299.4000 536.9600 1299.5400 539.0600L1299.5400 539.0600Q1299.9600 548.1600 1304.0200 552.8500Q1308.0800 557.5400 1315.5000 557.5400ZM199 711.4000L199 711.4000Q186.1200 711.4000 177.0900 706.9200Q168.0600 702.4400 163.0900 693.9700Q158.1200 685.5000 157.7000 673.7400L157.7000 673.7400Q157.5600 667.7200 157.5600 660.7900Q157.5600 653.8600 157.7000 647.7000L157.7000 647.7000Q158.1200 636.0800 163.0900 627.8200Q168.0600 619.5600 177.2300 615.0800Q186.4000 610.6000 199 610.6000L199 610.6000Q209.2200 610.6000 216.9200 613.3300Q224.6200 616.0600 229.7300 620.3300Q234.8400 624.6000 237.4300 629.5000Q240.0200 634.4000 240.1600 638.6000L240.1600 638.6000Q240.3000 639.8600 239.4600 640.7000Q238.6200 641.5400 237.2200 641.5400L237.2200 641.5400L222.8000 641.5400Q221.4000 641.5400 220.7000 640.9800Q220 640.4200 219.4400 639.3000L219.4400 639.3000Q218.3200 636.3600 215.9400 633.4900Q213.5600 630.6200 209.5000 628.6600Q205.4400 626.7000 199 626.7000L199 626.7000Q189.4800 626.7000 183.8100 631.7400Q178.1400 636.7800 177.7200 648.4000L177.7200 648.4000Q177.3000 660.5800 177.7200 673.0400L177.7200 673.0400Q178.1400 684.9400 183.9500 690.1200Q189.7600 695.3000 199.2800 695.3000L199.2800 695.3000Q205.5800 695.3000 210.5500 693.0600Q215.5200 690.8200 218.3900 686.0600Q221.2600 681.3000 221.2600 673.8800L221.2600 673.8800L221.2600 669.5400L204.1800 669.5400Q202.7800 669.5400 201.8000 668.5600Q200.8200 667.5800 200.8200 666.0400L200.8200 666.0400L200.8200 658.6200Q200.8200 657.0800 201.8000 656.1000Q202.7800 655.1200 204.1800 655.1200L204.1800 655.1200L237.6400 655.1200Q239.1800 655.1200 240.0900 656.1000Q241 657.0800 241 658.6200L241 658.6200L241 673.3200Q241 685.0800 235.8900 693.6200Q230.7800 702.1600 221.3300 706.7800Q211.8800 711.4000 199 711.4000ZM272.2200 710L260.6000 710Q259.2000 710 258.2200 709.0200Q257.2400 708.0400 257.2400 706.6400L257.2400 706.6400L257.2400 640.5600Q257.2400 639.1600 258.2200 638.1800Q259.2000 637.2000 260.6000 637.2000L260.6000 637.2000L272.2200 637.2000Q273.7600 637.2000 274.6700 638.1800Q275.5800 639.1600 275.5800 640.5600L275.5800 640.5600L275.5800 706.6400Q275.5800 708.0400 274.6700 709.0200Q273.7600 710 272.2200 710L272.2200 710ZM272.7800 625.1600L260.0400 625.1600Q258.6400 625.1600 257.6600 624.1800Q256.6800 623.2000 256.6800 621.8000L256.6800 621.8000L256.6800 611.7200Q256.6800 610.3200 257.6600 609.3400Q258.6400 608.3600 260.0400 608.3600L260.0400 608.3600L272.7800 608.3600Q274.3200 608.3600 275.3000 609.3400Q276.2800 610.3200 276.2800 611.7200L276.2800 611.7200L276.2800 621.8000Q276.2800 623.2000 275.3000 624.1800Q274.3200 625.1600 272.7800 625.1600L272.7800 625.1600ZM338.4400 710L327.1000 710Q318.7000 710 312.9600 707.0600Q307.2200 704.1200 304.4200 698.3100Q301.6200 692.5000 301.6200 683.8200L301.6200 683.8200L301.6200 652.0400L290.5600 652.0400Q289.1600 652.0400 288.1800 651.0600Q287.2000 650.0800 287.2000 648.5400L287.2000 648.5400L287.2000 640.5600Q287.2000 639.1600 288.1800 638.1800Q289.1600 637.2000 290.5600 637.2000L290.5600 637.2000L301.6200 637.2000L301.6200 613.9600Q301.6200 612.5600 302.5300 611.5800Q303.4400 610.6000 304.9800 610.6000L304.9800 610.6000L316.3200 610.6000Q317.7200 610.6000 318.7000 611.5800Q319.6800 612.5600 319.6800 613.9600L319.6800 613.9600L319.6800 637.2000L337.1800 637.2000Q338.5800 637.2000 339.5600 638.1800Q340.5400 639.1600 340.5400 640.5600L340.5400 640.5600L340.5400 648.5400Q340.5400 650.0800 339.5600 651.0600Q338.5800 652.0400 337.1800 652.0400L337.1800 652.0400L319.6800 652.0400L319.6800 682.4200Q319.6800 688.1600 321.7100 691.3800Q323.7400 694.6000 328.7800 694.6000L328.7800 694.6000L338.4400 694.6000Q339.8400 694.6000 340.8200 695.5800Q341.8000 696.5600 341.8000 697.9600L341.8000 697.9600L341.8000 706.6400Q341.8000 708.0400 340.8200 709.0200Q339.8400 710 338.4400 710L338.4400 710Z" id="title"/></g></svg>