<svg xmlns="http://www.w3.org/2000/svg" version="1.1" xmlns:xlink="http://www.w3.org/1999/xlink" xmlns:svgjs="http://svgjs.dev/svgjs" viewBox="0 0 1920 1080" id="de4e4c6c-872a-4ce5-93ac-a5acb53fb5d6"><g><rect width="1920" height="1080" fill="#5c5526"/></g><g fill="#7c7122"><path d="M2219.67 2061.38C2085.91 1942.55 2115.88 1778.23 2142.62 1632.97C2170.04 1482.82 2181.31 1386.85 2104.73 1318.82C2027.64 1250.34 1933.66 1272.83 1788.31 1318.21C1647.21 1361.88 1487.56 1411 1353.8 1292.17C1220.04 1173.34 1250.01 1009.02 1276.75 863.756C1304.17 713.615 1315.44 617.645 1238.86 549.613C1161.77 481.128 1067.8 503.624 922.442 548.997C781.341 592.667 621.694 641.789 487.934 522.96C354.174 404.132 384.144 239.81 410.885 94.5462C438.817 -55.1418 450.084 -151.112 372.993 -219.597L454.193 -311C587.953 -192.172 557.983 -27.8497 531.242 117.414C503.821 267.555 492.553 363.526 569.134 431.557C646.224 500.042 740.199 477.546 885.553 432.173C1026.65 388.503 1185.79 338.928 1320.06 458.21C1453.82 577.039 1423.85 741.36 1397.11 886.624C1369.69 1036.77 1358.42 1132.74 1435 1200.77C1512.09 1269.25 1606.07 1246.76 1751.42 1201.38C1892.52 1157.71 2051.66 1108.14 2185.93 1227.42C2320.2 1346.7 2289.72 1510.57 2262.98 1655.83C2235.56 1805.98 2224.29 1901.95 2300.87 1969.98L2219.67 2061.38Z"/></g><g fill="#ffffff" opacity="0.2"><path d="M15.5862 1108.56C24.7013 1117.67 39.4799 1117.67 48.5951 1108.56C57.7103 1099.44 57.7103 1084.66 48.5951 1075.55C39.4799 1066.43 24.7013 1066.43 15.5861 1075.55C6.47092 1084.66 6.47098 1099.44 15.5862 1108.56Z"/><path d="M14.9511 953.037C24.0663 962.152 38.8449 962.152 47.9601 953.037C57.0752 943.922 57.0752 929.143 47.9601 920.028C38.8449 910.913 24.0663 910.913 14.9511 920.028C5.8359 929.143 5.83591 943.922 14.9511 953.037Z"/><path d="M93.0303 1031.12C102.145 1040.23 116.924 1040.23 126.039 1031.12C135.154 1022 135.154 1007.22 126.039 998.106C116.924 988.991 102.145 988.991 93.0303 998.106C83.9151 1007.22 83.9151 1022 93.0303 1031.12Z"/><path d="M170.474 1108.56C179.589 1117.68 194.368 1117.68 203.483 1108.56C212.598 1099.45 212.598 1084.67 203.483 1075.56C194.368 1066.44 179.589 1066.44 170.474 1075.56C161.359 1084.67 161.359 1099.45 170.474 1108.56Z"/><path d="M93.03 874.955C102.145 884.07 116.924 884.07 126.039 874.955C135.154 865.84 135.154 851.061 126.039 841.946C116.924 832.831 102.145 832.831 93.03 841.946C83.9148 851.061 83.9148 865.84 93.03 874.955Z"/><path d="M171.109 953.033C180.224 962.148 195.003 962.148 204.118 953.033C213.233 943.918 213.233 929.139 204.118 920.024C195.003 910.909 180.224 910.909 171.109 920.024C161.994 929.139 161.994 943.918 171.109 953.033Z"/><path d="M248.553 1030.48C257.668 1039.6 272.447 1039.6 281.562 1030.48C290.677 1021.37 290.677 1006.59 281.562 997.473C272.447 988.358 257.668 988.358 248.553 997.473C239.438 1006.59 239.438 1021.37 248.553 1030.48Z"/><path d="M326.632 1108.56C335.748 1117.67 350.526 1117.67 359.641 1108.56C368.757 1099.44 368.757 1084.66 359.641 1075.55C350.526 1066.43 335.748 1066.43 326.632 1075.55C317.517 1084.66 317.517 1099.44 326.632 1108.56Z"/><path d="M171.109 796.881C180.224 805.996 195.003 805.996 204.118 796.881C213.233 787.766 213.233 772.987 204.118 763.872C195.003 754.756 180.224 754.757 171.109 763.872C161.994 772.987 161.994 787.766 171.109 796.881Z"/><path d="M249.188 874.959C258.303 884.074 273.082 884.074 282.197 874.959C291.312 865.844 291.312 851.065 282.197 841.95C273.082 832.835 258.303 832.835 249.188 841.95C240.073 851.065 240.073 865.844 249.188 874.959Z"/><path d="M326.632 952.408C335.747 961.523 350.526 961.523 359.641 952.408C368.756 943.293 368.756 928.514 359.641 919.399C350.526 910.284 335.747 910.284 326.632 919.399C317.517 928.514 317.517 943.293 326.632 952.408Z"/><path d="M404.711 1030.48C413.827 1039.6 428.605 1039.6 437.72 1030.48C446.836 1021.37 446.836 1006.59 437.72 997.473C428.605 988.358 413.827 988.358 404.711 997.473C395.596 1006.59 395.596 1021.37 404.711 1030.48Z"/><path d="M482.155 1107.93C491.27 1117.04 506.049 1117.04 515.164 1107.93C524.279 1098.81 524.279 1084.03 515.164 1074.92C506.049 1065.8 491.27 1065.8 482.155 1074.92C473.04 1084.03 473.04 1098.81 482.155 1107.93Z"/><path d="M249.188 718.799C258.303 727.914 273.082 727.914 282.197 718.799C291.312 709.683 291.312 694.905 282.197 685.79C273.082 676.674 258.303 676.674 249.188 685.79C240.073 694.905 240.073 709.683 249.188 718.799Z"/><path d="M327.267 796.877C336.382 805.992 351.161 805.992 360.276 796.877C369.391 787.762 369.391 772.983 360.276 763.868C351.161 754.753 336.382 754.753 327.267 763.868C318.152 772.983 318.152 787.762 327.267 796.877Z"/><path d="M404.711 874.326C413.826 883.441 428.605 883.441 437.72 874.326C446.835 865.211 446.835 850.432 437.72 841.317C428.605 832.202 413.826 832.202 404.711 841.317C395.596 850.432 395.596 865.211 404.711 874.326Z"/><path d="M482.79 952.4C491.906 961.515 506.684 961.515 515.799 952.4C524.914 943.285 524.914 928.506 515.799 919.391C506.684 910.276 491.905 910.276 482.79 919.391C473.675 928.506 473.675 943.285 482.79 952.4Z"/><path d="M560.234 1029.85C569.349 1038.96 584.128 1038.96 593.243 1029.85C602.358 1020.73 602.358 1005.95 593.243 996.837C584.128 987.721 569.349 987.721 560.234 996.837C551.119 1005.95 551.119 1020.73 560.234 1029.85Z"/><path d="M638.313 1107.93C647.429 1117.04 662.207 1117.04 671.322 1107.93C680.438 1098.81 680.438 1084.03 671.322 1074.92C662.207 1065.8 647.429 1065.8 638.313 1074.92C629.198 1084.03 629.198 1098.81 638.313 1107.93Z"/><path d="M326.632 641.353C335.747 650.469 350.526 650.469 359.641 641.353C368.756 632.238 368.756 617.46 359.641 608.344C350.526 599.229 335.747 599.229 326.632 608.344C317.517 617.46 317.517 632.238 326.632 641.353Z"/><path d="M404.711 719.431C413.827 728.547 428.605 728.547 437.72 719.431C446.835 710.316 446.836 695.538 437.72 686.422C428.605 677.307 413.826 677.307 404.711 686.423C395.596 695.538 395.596 710.316 404.711 719.431Z"/><path d="M482.155 796.881C491.27 805.996 506.049 805.996 515.164 796.881C524.279 787.766 524.279 772.987 515.164 763.872C506.049 754.757 491.27 754.757 482.155 763.872C473.04 772.987 473.04 787.766 482.155 796.881Z"/><path d="M560.234 874.955C569.35 884.07 584.128 884.07 593.243 874.955C602.359 865.84 602.359 851.061 593.243 841.946C584.128 832.831 569.35 832.831 560.234 841.946C551.119 851.061 551.119 865.84 560.234 874.955Z"/><path d="M637.678 952.4C646.793 961.515 661.572 961.515 670.687 952.4C679.802 943.285 679.802 928.506 670.687 919.391C661.572 910.276 646.793 910.276 637.678 919.391C628.563 928.506 628.563 943.285 637.678 952.4Z"/><path d="M715.758 1030.48C724.873 1039.6 739.651 1039.6 748.767 1030.48C757.882 1021.37 757.882 1006.59 748.767 997.473C739.651 988.358 724.873 988.358 715.758 997.473C706.642 1006.59 706.642 1021.37 715.758 1030.48Z"/><path d="M793.837 1108.56C802.952 1117.67 817.731 1117.67 826.846 1108.56C835.961 1099.44 835.961 1084.66 826.846 1075.55C817.731 1066.43 802.952 1066.43 793.837 1075.55C784.722 1084.66 784.722 1099.44 793.837 1108.56Z"/><path d="M404.71 563.279C413.825 572.394 428.604 572.394 437.719 563.279C446.834 554.164 446.834 539.385 437.719 530.27C428.604 521.155 413.825 521.155 404.71 530.27C395.595 539.385 395.595 554.164 404.71 563.279Z"/><path d="M482.789 641.357C491.904 650.472 506.683 650.472 515.798 641.357C524.913 632.242 524.913 617.463 515.798 608.348C506.683 599.233 491.904 599.233 482.789 608.348C473.674 617.463 473.674 632.242 482.789 641.357Z"/><path d="M560.233 718.806C569.348 727.922 584.127 727.922 593.242 718.806C602.357 709.691 602.357 694.913 593.242 685.797C584.127 676.682 569.348 676.682 560.233 685.797C551.118 694.913 551.118 709.691 560.233 718.806Z"/><path d="M638.312 796.881C647.427 805.996 662.206 805.996 671.321 796.881C680.436 787.765 680.436 772.987 671.321 763.872C662.206 754.757 647.427 754.756 638.312 763.872C629.197 772.987 629.197 787.765 638.312 796.881Z"/><path d="M715.756 874.326C724.871 883.441 739.65 883.441 748.765 874.326C757.88 865.211 757.88 850.432 748.765 841.317C739.65 832.202 724.871 832.202 715.756 841.317C706.641 850.432 706.641 865.211 715.756 874.326Z"/><path d="M793.835 952.408C802.95 961.523 817.729 961.523 826.844 952.408C835.959 943.293 835.959 928.514 826.844 919.399C817.729 910.284 802.95 910.284 793.835 919.399C784.72 928.514 784.72 943.293 793.835 952.408Z"/><path d="M871.914 1030.48C881.03 1039.6 895.808 1039.6 904.923 1030.48C914.039 1021.37 914.039 1006.59 904.923 997.473C895.808 988.358 881.03 988.358 871.914 997.473C862.799 1006.59 862.799 1021.37 871.914 1030.48Z"/><path d="M949.358 1107.93C958.473 1117.05 973.252 1117.05 982.367 1107.93C991.482 1098.82 991.482 1084.04 982.367 1074.92C973.252 1065.81 958.473 1065.81 949.358 1074.92C940.243 1084.04 940.243 1098.82 949.358 1107.93Z"/><path d="M482.79 485.193C491.905 494.308 506.684 494.308 515.799 485.193C524.914 476.078 524.914 461.299 515.799 452.184C506.684 443.069 491.905 443.069 482.79 452.184C473.675 461.299 473.675 476.078 482.79 485.193Z"/><path d="M560.869 563.271C569.984 572.386 584.763 572.386 593.878 563.271C602.993 554.156 602.993 539.377 593.878 530.262C584.763 521.147 569.984 521.147 560.869 530.262C551.754 539.377 551.754 554.156 560.869 563.271Z"/><path d="M638.313 640.721C647.428 649.836 662.207 649.836 671.322 640.721C680.437 631.605 680.437 616.827 671.322 607.712C662.207 598.596 647.428 598.596 638.313 607.712C629.198 616.827 629.198 631.605 638.313 640.721Z"/><path d="M716.392 718.795C725.508 727.91 740.286 727.91 749.401 718.795C758.516 709.68 758.516 694.901 749.401 685.786C740.286 676.671 725.507 676.671 716.392 685.786C707.277 694.901 707.277 709.68 716.392 718.795Z"/><path d="M793.836 796.24C802.951 805.355 817.73 805.355 826.845 796.24C835.96 787.125 835.96 772.346 826.845 763.231C817.73 754.116 802.951 754.116 793.836 763.231C784.721 772.346 784.721 787.125 793.836 796.24Z"/><path d="M871.915 874.322C881.031 883.437 895.809 883.437 904.924 874.322C914.04 865.207 914.04 850.428 904.924 841.313C895.809 832.198 881.031 832.198 871.915 841.313C862.8 850.428 862.8 865.207 871.915 874.322Z"/><path d="M949.995 952.396C959.11 961.511 973.888 961.512 983.004 952.396C992.119 943.281 992.119 928.502 983.004 919.387C973.888 910.272 959.11 910.272 949.995 919.387C940.879 928.502 940.879 943.281 949.995 952.396Z"/><path d="M1027.44 1029.85C1036.55 1038.96 1051.33 1038.96 1060.45 1029.85C1069.56 1020.73 1069.56 1005.95 1060.45 996.837C1051.33 987.721 1036.55 987.721 1027.44 996.837C1018.32 1005.95 1018.32 1020.73 1027.44 1029.85Z"/><path d="M1105.52 1107.92C1114.63 1117.04 1129.41 1117.04 1138.53 1107.92C1147.64 1098.81 1147.64 1084.03 1138.53 1074.91C1129.41 1065.8 1114.63 1065.8 1105.52 1074.91C1096.4 1084.03 1096.4 1098.81 1105.52 1107.92Z"/><path d="M560.869 407.115C569.984 416.23 584.763 416.23 593.878 407.115C602.993 398 602.993 383.221 593.878 374.106C584.763 364.991 569.984 364.991 560.869 374.106C551.754 383.221 551.754 398 560.869 407.115Z"/><path d="M638.948 485.193C648.063 494.308 662.842 494.308 671.957 485.193C681.072 476.078 681.072 461.299 671.957 452.184C662.842 443.069 648.063 443.069 638.948 452.184C629.833 461.299 629.833 476.078 638.948 485.193Z"/><path d="M716.392 562.642C725.507 571.758 740.286 571.758 749.401 562.642C758.516 553.527 758.516 538.749 749.401 529.633C740.286 520.518 725.507 520.518 716.392 529.633C707.277 538.749 707.277 553.527 716.392 562.642Z"/><path d="M794.471 640.717C803.586 649.832 818.365 649.832 827.48 640.717C836.595 631.601 836.595 616.823 827.48 607.708C818.365 598.592 803.586 598.592 794.471 607.708C785.356 616.823 785.356 631.601 794.471 640.717Z"/><path d="M871.915 718.162C881.03 727.277 895.809 727.277 904.924 718.162C914.039 709.047 914.039 694.268 904.924 685.153C895.809 676.038 881.03 676.038 871.915 685.153C862.8 694.268 862.8 709.047 871.915 718.162Z"/><path d="M949.994 796.244C959.11 805.359 973.888 805.359 983.003 796.244C992.119 787.129 992.119 772.35 983.003 763.235C973.888 754.12 959.11 754.12 949.994 763.235C940.879 772.35 940.879 787.129 949.994 796.244Z"/><path d="M1028.07 874.318C1037.19 883.433 1051.97 883.433 1061.08 874.318C1070.2 865.203 1070.2 850.424 1061.08 841.309C1051.97 832.194 1037.19 832.194 1028.07 841.309C1018.96 850.424 1018.96 865.203 1028.07 874.318Z"/><path d="M1105.52 951.767C1114.63 960.883 1129.41 960.883 1138.53 951.767C1147.64 942.652 1147.64 927.874 1138.53 918.758C1129.41 909.643 1114.63 909.643 1105.52 918.758C1096.4 927.874 1096.4 942.652 1105.52 951.767Z"/><path d="M1183.6 1029.85C1192.71 1038.96 1207.49 1038.96 1216.61 1029.85C1225.72 1020.73 1225.72 1005.95 1216.61 996.837C1207.49 987.721 1192.71 987.721 1183.6 996.837C1174.48 1005.95 1174.48 1020.73 1183.6 1029.85Z"/><path d="M1261.04 1107.29C1270.16 1116.4 1284.93 1116.4 1294.05 1107.29C1303.16 1098.17 1303.16 1083.39 1294.05 1074.28C1284.93 1065.16 1270.16 1065.16 1261.04 1074.28C1251.93 1083.39 1251.93 1098.17 1261.04 1107.29Z"/><path d="M638.313 329.678C647.428 338.793 662.207 338.793 671.322 329.678C680.437 320.562 680.437 305.784 671.322 296.669C662.207 287.553 647.428 287.553 638.313 296.669C629.198 305.784 629.198 320.562 638.313 329.678Z"/><path d="M716.392 407.756C725.507 416.871 740.285 416.871 749.401 407.756C758.516 398.64 758.516 383.862 749.401 374.747C740.285 365.631 725.507 365.632 716.392 374.747C707.276 383.862 707.276 398.64 716.392 407.756Z"/><path d="M793.836 485.205C802.951 494.32 817.729 494.32 826.845 485.205C835.96 476.09 835.96 461.311 826.845 452.196C817.729 443.081 802.951 443.081 793.836 452.196C784.72 461.311 784.72 476.09 793.836 485.205Z"/><path d="M871.915 563.279C881.03 572.394 895.809 572.394 904.924 563.279C914.039 554.164 914.039 539.385 904.924 530.27C895.809 521.155 881.03 521.155 871.915 530.27C862.8 539.385 862.8 554.164 871.915 563.279Z"/><path d="M949.359 640.724C958.474 649.84 973.252 649.84 982.368 640.724C991.483 631.609 991.483 616.831 982.368 607.715C973.252 598.6 958.474 598.6 949.359 607.715C940.243 616.831 940.243 631.609 949.359 640.724Z"/><path d="M1027.44 718.806C1036.55 727.922 1051.33 727.922 1060.45 718.806C1069.56 709.691 1069.56 694.913 1060.45 685.797C1051.33 676.682 1036.55 676.682 1027.44 685.797C1018.32 694.913 1018.32 709.691 1027.44 718.806Z"/><path d="M1105.52 796.881C1114.63 805.996 1129.41 805.996 1138.53 796.881C1147.64 787.766 1147.64 772.987 1138.53 763.872C1129.41 754.756 1114.63 754.757 1105.52 763.872C1096.4 772.987 1096.4 787.765 1105.52 796.881Z"/><path d="M1182.96 874.33C1192.08 883.445 1206.85 883.445 1215.97 874.33C1225.09 865.215 1225.09 850.436 1215.97 841.321C1206.85 832.206 1192.08 832.206 1182.96 841.321C1173.85 850.436 1173.85 865.215 1182.96 874.33Z"/><path d="M1261.04 952.408C1270.16 961.523 1284.93 961.523 1294.05 952.408C1303.16 943.293 1303.16 928.514 1294.05 919.399C1284.93 910.284 1270.16 910.284 1261.04 919.399C1251.93 928.514 1251.93 943.293 1261.04 952.408Z"/><path d="M1338.48 1029.85C1347.6 1038.96 1362.38 1038.96 1371.49 1029.85C1380.61 1020.73 1380.61 1005.96 1371.49 996.84C1362.38 987.725 1347.6 987.725 1338.48 996.84C1329.37 1005.96 1329.37 1020.73 1338.48 1029.85Z"/><path d="M1416.56 1107.93C1425.68 1117.05 1440.46 1117.05 1449.57 1107.93C1458.69 1098.82 1458.69 1084.04 1449.57 1074.92C1440.46 1065.81 1425.68 1065.81 1416.56 1074.92C1407.45 1084.04 1407.45 1098.82 1416.56 1107.93Z"/><path d="M716.392 251.592C725.507 260.707 740.286 260.707 749.401 251.592C758.516 242.476 758.516 227.698 749.401 218.583C740.286 209.467 725.507 209.467 716.392 218.583C707.277 227.698 707.277 242.476 716.392 251.592Z"/><path d="M794.471 329.67C803.586 338.785 818.365 338.785 827.48 329.67C836.595 320.555 836.595 305.776 827.48 296.661C818.365 287.546 803.586 287.546 794.471 296.661C785.356 305.776 785.356 320.555 794.471 329.67Z"/><path d="M871.915 407.119C881.03 416.234 895.809 416.234 904.924 407.119C914.039 398.004 914.039 383.225 904.924 374.11C895.809 364.995 881.03 364.995 871.915 374.11C862.8 383.225 862.8 398.004 871.915 407.119Z"/><path d="M949.994 485.193C959.11 494.308 973.888 494.308 983.003 485.193C992.119 476.078 992.119 461.299 983.003 452.184C973.888 443.069 959.11 443.069 949.994 452.184C940.879 461.299 940.879 476.078 949.994 485.193Z"/><path d="M1027.44 562.638C1036.55 571.754 1051.33 571.754 1060.45 562.638C1069.56 553.523 1069.56 538.745 1060.45 529.629C1051.33 520.514 1036.55 520.514 1027.44 529.629C1018.32 538.745 1018.32 553.523 1027.44 562.638Z"/><path d="M1105.52 640.721C1114.63 649.836 1129.41 649.836 1138.53 640.721C1147.64 631.605 1147.64 616.827 1138.53 607.712C1129.41 598.596 1114.63 598.596 1105.52 607.712C1096.4 616.827 1096.4 631.605 1105.52 640.721Z"/><path d="M1183.6 718.795C1192.71 727.91 1207.49 727.91 1216.61 718.795C1225.72 709.68 1225.72 694.901 1216.61 685.786C1207.49 676.671 1192.71 676.671 1183.6 685.786C1174.48 694.901 1174.48 709.68 1183.6 718.795Z"/><path d="M1261.04 796.244C1270.16 805.359 1284.93 805.359 1294.05 796.244C1303.16 787.129 1303.16 772.35 1294.05 763.235C1284.93 754.12 1270.16 754.12 1261.04 763.235C1251.93 772.35 1251.93 787.129 1261.04 796.244Z"/><path d="M1339.12 874.322C1348.24 883.437 1363.01 883.437 1372.13 874.322C1381.24 865.207 1381.24 850.428 1372.13 841.313C1363.01 832.198 1348.24 832.198 1339.12 841.313C1330 850.428 1330 865.207 1339.12 874.322Z"/><path d="M1416.56 951.763C1425.68 960.879 1440.46 960.879 1449.57 951.763C1458.69 942.648 1458.69 927.87 1449.57 918.754C1440.46 909.639 1425.68 909.639 1416.56 918.754C1407.45 927.87 1407.45 942.648 1416.56 951.763Z"/><path d="M1494.64 1029.85C1503.76 1038.96 1518.54 1038.96 1527.65 1029.85C1536.77 1020.73 1536.77 1005.95 1527.65 996.837C1518.54 987.721 1503.76 987.721 1494.64 996.837C1485.53 1005.95 1485.53 1020.73 1494.64 1029.85Z"/><path d="M1572.09 1107.29C1581.2 1116.4 1595.98 1116.4 1605.1 1107.29C1614.21 1098.17 1614.21 1083.39 1605.1 1074.28C1595.98 1065.16 1581.2 1065.16 1572.09 1074.28C1562.97 1083.39 1562.97 1098.17 1572.09 1107.29Z"/><path d="M794.471 173.513C803.586 182.629 818.365 182.629 827.48 173.513C836.595 164.398 836.595 149.62 827.48 140.504C818.365 131.389 803.586 131.389 794.471 140.504C785.356 149.62 785.356 164.398 794.471 173.513Z"/><path d="M872.55 251.592C881.665 260.707 896.444 260.707 905.559 251.592C914.674 242.476 914.674 227.698 905.559 218.583C896.444 209.467 881.665 209.467 872.55 218.583C863.435 227.698 863.435 242.476 872.55 251.592Z"/><path d="M949.994 329.041C959.109 338.156 973.888 338.156 983.003 329.041C992.118 319.926 992.118 305.147 983.003 296.032C973.888 286.917 959.109 286.917 949.994 296.032C940.879 305.147 940.879 319.926 949.994 329.041Z"/><path d="M1028.07 407.115C1037.19 416.23 1051.97 416.23 1061.08 407.115C1070.2 398 1070.2 383.221 1061.08 374.106C1051.97 364.991 1037.19 364.991 1028.07 374.106C1018.96 383.221 1018.96 398 1028.07 407.115Z"/><path d="M1105.52 484.56C1114.63 493.676 1129.41 493.676 1138.53 484.56C1147.64 475.445 1147.64 460.667 1138.53 451.551C1129.41 442.436 1114.63 442.436 1105.52 451.551C1096.4 460.667 1096.4 475.445 1105.52 484.56Z"/><path d="M1183.6 562.642C1192.71 571.758 1207.49 571.758 1216.61 562.642C1225.72 553.527 1225.72 538.749 1216.61 529.633C1207.49 520.518 1192.71 520.518 1183.6 529.633C1174.48 538.749 1174.48 553.527 1183.6 562.642Z"/><path d="M1261.68 640.717C1270.79 649.832 1285.57 649.832 1294.68 640.717C1303.8 631.601 1303.8 616.823 1294.68 607.708C1285.57 598.592 1270.79 598.592 1261.68 607.708C1252.56 616.823 1252.56 631.601 1261.68 640.717Z"/><path d="M1339.12 718.166C1348.23 727.281 1363.01 727.281 1372.13 718.166C1381.24 709.051 1381.24 694.272 1372.13 685.157C1363.01 676.042 1348.23 676.042 1339.12 685.157C1330 694.272 1330 709.051 1339.12 718.166Z"/><path d="M1417.2 796.244C1426.31 805.359 1441.09 805.359 1450.21 796.244C1459.32 787.129 1459.32 772.35 1450.21 763.235C1441.09 754.12 1426.31 754.12 1417.2 763.235C1408.08 772.35 1408.08 787.129 1417.2 796.244Z"/><path d="M1494.64 873.685C1503.76 882.801 1518.54 882.801 1527.65 873.685C1536.77 864.57 1536.77 849.792 1527.65 840.676C1518.54 831.561 1503.76 831.561 1494.64 840.676C1485.53 849.792 1485.53 864.57 1494.64 873.685Z"/><path d="M1572.72 951.767C1581.84 960.883 1596.62 960.883 1605.73 951.767C1614.85 942.652 1614.85 927.874 1605.73 918.758C1596.62 909.643 1581.84 909.643 1572.72 918.758C1563.61 927.874 1563.61 942.652 1572.72 951.767Z"/><path d="M1650.17 1029.21C1659.28 1038.32 1674.06 1038.32 1683.17 1029.21C1692.29 1020.09 1692.29 1005.31 1683.17 996.2C1674.06 987.085 1659.28 987.085 1650.17 996.2C1641.05 1005.31 1641.05 1020.09 1650.17 1029.21Z"/></g><g><path d="M178.635 139.281L184.422 144.246V166.626H215.704L219.958 172.147L215.69 177.397H184.422V198.795L178.635 203.747L173 198.795V144.232L178.635 139.281ZM195.554 195.68H219.406L223.397 200.915L219.143 206.45H195.554L191.7 201.342L195.554 195.68ZM196.382 138H219.129L223.383 143.52L219.129 148.77H196.659L192.115 143.677L196.382 138ZM323.155 148.628L328.251 154.291L323.155 159.968H246.13L241.172 154.291L246.13 148.628H323.155ZM237.043 172.147L241.849 167.893L246.669 172.147V178.393C246.669 188.879 249.417 197.515 261.668 197.515H264.14C275.147 197.515 281.197 189.86 281.197 177.952V172.005L285.879 167.75L290.699 171.862V178.379C290.699 189.007 293.723 196.946 305.56 196.946H307.618C319.178 196.946 321.235 187.869 321.373 177.952V171.578L326.056 167.608L331 171.72V178.094C330.862 191.838 327.285 207.574 308.032 207.574H305.974C294.552 207.574 288.365 202.324 285.892 195.808C283.006 202.466 275.299 208.286 264.844 208.286H262.358C242.553 208.286 237.194 195.964 237.056 178.663V172.147H237.043ZM276.391 274.744L273.642 267.089L280.796 264.969L305.974 276.721V252.491L311.07 248.095L316.291 252.491V281.829L325.641 286.226L328.251 293.311L320.959 296L276.391 274.744ZM321.235 223.011L328.113 226.27L325.917 233.497L264.002 263.119L256.571 260.146L259.596 252.776L321.235 223.011ZM231.905 263.404L237.954 268.512C237.402 286.51 222.403 296 204.669 296H202.874C194.062 296 183.759 292.6 177.157 286.083L177.834 278.855L184.298 278.002C189.118 282.256 195.858 285.229 202.183 285.229H204.117C216.091 285.229 225.303 280.136 226.27 268.085L231.905 263.404ZM226.256 251.638C225.704 239.16 216.629 234.209 204.103 234.209H202.169C194.739 234.209 189.104 237.182 184.284 241.436L177.834 240.583L177.143 233.355C183.745 226.696 192.957 223.58 202.597 223.58H204.517C222.403 223.58 237.402 232.942 237.94 251.211L231.891 256.176L226.256 251.638Z" fill="#ffffff"/></g><path d="M1171 781L1171 339L1187 339L1187 781L1171 781Z" fill="#ffffff"/><g fill="#ffffff" id="info-group"><path d="M1584.4 652H1475.2C1470.37 652 1465.74 650.082 1462.33 646.669C1458.92 643.256 1457 638.627 1457 633.8V488.2C1457 483.373 1458.92 478.744 1462.33 475.331C1465.74 471.917 1470.37 470 1475.2 470H1584.4C1589.23 470 1593.86 471.917 1597.27 475.331C1600.68 478.744 1602.6 483.373 1602.6 488.2V633.8C1602.6 638.627 1600.68 643.256 1597.27 646.669C1593.86 650.082 1589.23 652 1584.4 652ZM1520.7 510.95C1520.7 509.743 1521.18 508.586 1522.03 507.733C1522.89 506.879 1524.04 506.4 1525.25 506.4H1579.85C1581.06 506.4 1582.21 506.879 1583.07 507.733C1583.92 508.586 1584.4 509.743 1584.4 510.95C1584.4 512.157 1583.92 513.314 1583.07 514.167C1582.21 515.021 1581.06 515.5 1579.85 515.5H1525.25C1524.04 515.5 1522.89 515.021 1522.03 514.167C1521.18 513.314 1520.7 512.157 1520.7 510.95ZM1525.25 524.6C1524.04 524.6 1522.89 525.079 1522.03 525.933C1521.18 526.786 1520.7 527.943 1520.7 529.15C1520.7 530.357 1521.18 531.514 1522.03 532.367C1522.89 533.221 1524.04 533.7 1525.25 533.7H1579.85C1581.06 533.7 1582.21 533.221 1583.07 532.367C1583.92 531.514 1584.4 530.357 1584.4 529.15C1584.4 527.943 1583.92 526.786 1583.07 525.933C1582.21 525.079 1581.06 524.6 1579.85 524.6H1525.25ZM1510.27 507.733C1511.12 508.586 1511.6 509.744 1511.6 510.95C1511.6 512.156 1511.12 513.314 1510.27 514.167L1488.85 535.584L1476.53 523.267C1476.1 522.847 1475.75 522.345 1475.51 521.79C1475.28 521.235 1475.15 520.638 1475.14 520.034C1475.14 519.429 1475.25 518.83 1475.48 518.271C1475.71 517.712 1476.05 517.204 1476.48 516.777C1476.9 516.35 1477.41 516.012 1477.97 515.783C1478.53 515.554 1479.13 515.439 1479.73 515.444C1480.34 515.45 1480.93 515.575 1481.49 515.813C1482.05 516.052 1482.55 516.399 1482.97 516.833L1488.85 522.716L1503.83 507.733C1504.69 506.88 1505.84 506.401 1507.05 506.401C1508.26 506.401 1509.41 506.88 1510.27 507.733ZM1525.25 561C1524.04 561 1522.89 561.479 1522.03 562.333C1521.18 563.186 1520.7 564.343 1520.7 565.55C1520.7 566.757 1521.18 567.914 1522.03 568.767C1522.89 569.621 1524.04 570.1 1525.25 570.1H1579.85C1581.06 570.1 1582.21 569.621 1583.07 568.767C1583.92 567.914 1584.4 566.757 1584.4 565.55C1584.4 564.343 1583.92 563.186 1583.07 562.333C1582.21 561.479 1581.06 561 1579.85 561H1525.25ZM1520.7 583.75C1520.7 582.543 1521.18 581.386 1522.03 580.533C1522.89 579.679 1524.04 579.2 1525.25 579.2H1579.85C1581.06 579.2 1582.21 579.679 1583.07 580.533C1583.92 581.386 1584.4 582.543 1584.4 583.75C1584.4 584.957 1583.92 586.114 1583.07 586.967C1582.21 587.821 1581.06 588.3 1579.85 588.3H1525.25C1524.04 588.3 1522.89 587.821 1522.03 586.967C1521.18 586.114 1520.7 584.957 1520.7 583.75ZM1502.5 561H1479.75C1478.54 561 1477.39 561.479 1476.53 562.333C1475.68 563.186 1475.2 564.343 1475.2 565.55V588.3C1475.2 589.507 1475.68 590.664 1476.53 591.517C1477.39 592.371 1478.54 592.85 1479.75 592.85H1502.5C1503.71 592.85 1504.86 592.371 1505.72 591.517C1506.57 590.664 1507.05 589.507 1507.05 588.3V565.55C1507.05 564.343 1506.57 563.186 1505.72 562.333C1504.86 561.479 1503.71 561 1502.5 561Z" id="title"/><path d="M1639 633.8L1625.35 652L1611.7 633.8V551.9H1639V633.8Z" id="title"/><path d="M1620.8 520.05H1629.9C1632.31 520.05 1634.63 521.009 1636.33 522.715C1638.04 524.422 1639 526.737 1639 529.15V547.35H1611.7V529.15C1611.7 526.737 1612.66 524.422 1614.37 522.715C1616.07 521.009 1618.39 520.05 1620.8 520.05Z" id="title"/><path d="M221.6880 640L202.7360 640Q200.6760 640 199.2340 638.5580Q197.7920 637.1160 197.7920 635.0560L197.7920 635.0560L197.7920 521.1380L159.6820 521.1380Q157.6220 521.1380 156.1800 519.6960Q154.7380 518.2540 154.7380 516.1940L154.7380 516.1940L154.7380 500.9500Q154.7380 498.6840 156.1800 497.2420Q157.6220 495.8000 159.6820 495.8000L159.6820 495.8000L264.7420 495.8000Q267.0080 495.8000 268.4500 497.2420Q269.8920 498.6840 269.8920 500.9500L269.8920 500.9500L269.8920 516.1940Q269.8920 518.2540 268.4500 519.6960Q267.0080 521.1380 264.7420 521.1380L264.7420 521.1380L226.8380 521.1380L226.8380 635.0560Q226.8380 637.1160 225.3960 638.5580Q223.9540 640 221.6880 640L221.6880 640ZM299.7620 640L281.8400 640Q280.1920 640 278.8530 638.7640Q277.5140 637.5280 277.5140 635.6740L277.5140 635.6740Q277.5140 634.8500 277.9260 633.8200L277.9260 633.8200L327.5720 500.9500Q328.1900 498.8900 329.9410 497.3450Q331.6920 495.8000 334.7820 495.8000L334.7820 495.8000L357.2360 495.8000Q360.3260 495.8000 361.9740 497.3450Q363.6220 498.8900 364.4460 500.9500L364.4460 500.9500L414.0920 633.8200Q414.2980 634.8500 414.2980 635.6740L414.2980 635.6740Q414.2980 637.5280 413.0620 638.7640Q411.8260 640 410.1780 640L410.1780 640L392.2560 640Q389.3720 640 388.0330 638.6610Q386.6940 637.3220 386.2820 636.0860L386.2820 636.0860L376.6000 610.9540L315.4180 610.9540L305.7360 636.0860Q305.3240 637.3220 303.9850 638.6610Q302.6460 640 299.7620 640L299.7620 640ZM345.9060 523.6100L322.6280 587.2640L369.3900 587.2640L345.9060 523.6100ZM457.1460 640L438.4000 640Q436.3400 640 434.8980 638.5580Q433.4560 637.1160 433.4560 635.0560L433.4560 635.0560L433.4560 500.9500Q433.4560 498.6840 434.8980 497.2420Q436.3400 495.8000 438.4000 495.8000L438.4000 495.8000L491.7540 495.8000Q516.6800 495.8000 531.1000 507.3360Q545.5200 518.8720 545.5200 540.9140L545.5200 540.9140Q545.5200 556.1580 538.0010 566.2520Q530.4820 576.3460 517.9160 580.8780L517.9160 580.8780L547.9920 633.4080Q548.6100 634.6440 548.6100 635.6740L548.6100 635.6740Q548.6100 637.5280 547.2710 638.7640Q545.9320 640 544.2840 640L544.2840 640L525.5380 640Q522.0360 640 520.1820 638.1460Q518.3280 636.2920 517.2980 634.4380L517.2980 634.4380L490.7240 585.6160L462.0900 585.6160L462.0900 635.0560Q462.0900 637.1160 460.7510 638.5580Q459.4120 640 457.1460 640L457.1460 640ZM462.0900 518.6660L462.0900 562.3380L491.1360 562.3380Q503.7020 562.3380 509.8820 556.6730Q516.0620 551.0080 516.0620 540.7080L516.0620 540.7080Q516.0620 530.4080 509.9850 524.5370Q503.9080 518.6660 491.1360 518.6660L491.1360 518.6660L462.0900 518.6660ZM669.3260 640L577.0380 640Q574.9780 640 573.5360 638.5580Q572.0940 637.1160 572.0940 635.0560L572.0940 635.0560L572.0940 500.9500Q572.0940 498.6840 573.5360 497.2420Q574.9780 495.8000 577.0380 495.8000L577.0380 495.8000L667.6780 495.8000Q669.9440 495.8000 671.3860 497.2420Q672.8280 498.6840 672.8280 500.9500L672.8280 500.9500L672.8280 514.5460Q672.8280 516.6060 671.3860 518.0480Q669.9440 519.4900 667.6780 519.4900L667.6780 519.4900L599.9040 519.4900L599.9040 555.9520L663.1460 555.9520Q665.4120 555.9520 666.8540 557.2910Q668.2960 558.6300 668.2960 560.8960L668.2960 560.8960L668.2960 573.6680Q668.2960 575.9340 666.8540 577.2730Q665.4120 578.6120 663.1460 578.6120L663.1460 578.6120L599.9040 578.6120L599.9040 616.3100L669.3260 616.3100Q671.5920 616.3100 673.0340 617.7520Q674.4760 619.1940 674.4760 621.4600L674.4760 621.4600L674.4760 635.0560Q674.4760 637.1160 673.0340 638.5580Q671.5920 640 669.3260 640L669.3260 640ZM723.2980 640L705.1700 640Q703.1100 640 701.6680 638.5580Q700.2260 637.1160 700.2260 635.0560L700.2260 635.0560L700.2260 500.9500Q700.2260 498.6840 701.6680 497.2420Q703.1100 495.8000 705.1700 495.8000L705.1700 495.8000L794.5740 495.8000Q796.8400 495.8000 798.2820 497.2420Q799.7240 498.6840 799.7240 500.9500L799.7240 500.9500L799.7240 515.3700Q799.7240 517.6360 798.2820 518.9750Q796.8400 520.3140 794.5740 520.3140L794.5740 520.3140L728.4480 520.3140L728.4480 559.4540L790.4540 559.4540Q792.7200 559.4540 794.1620 560.8960Q795.6040 562.3380 795.6040 564.6040L795.6040 564.6040L795.6040 579.0240Q795.6040 581.0840 794.1620 582.5260Q792.7200 583.9680 790.4540 583.9680L790.4540 583.9680L728.4480 583.9680L728.4480 635.0560Q728.4480 637.1160 727.0060 638.5580Q725.5640 640 723.2980 640L723.2980 640ZM833.0960 640L815.1740 640Q813.5260 640 812.1870 638.7640Q810.8480 637.5280 810.8480 635.6740L810.8480 635.6740Q810.8480 634.8500 811.2600 633.8200L811.2600 633.8200L860.9060 500.9500Q861.5240 498.8900 863.2750 497.3450Q865.0260 495.8000 868.1160 495.8000L868.1160 495.8000L890.5700 495.8000Q893.6600 495.8000 895.3080 497.3450Q896.9560 498.8900 897.7800 500.9500L897.7800 500.9500L947.4260 633.8200Q947.6320 634.8500 947.6320 635.6740L947.6320 635.6740Q947.6320 637.5280 946.3960 638.7640Q945.1600 640 943.5120 640L943.5120 640L925.5900 640Q922.7060 640 921.3670 638.6610Q920.0280 637.3220 919.6160 636.0860L919.6160 636.0860L909.9340 610.9540L848.7520 610.9540L839.0700 636.0860Q838.6580 637.3220 837.3190 638.6610Q835.9800 640 833.0960 640L833.0960 640ZM879.2400 523.6100L855.9620 587.2640L902.7240 587.2640L879.2400 523.6100Z" id="task-title"/></g></svg>