<svg xmlns="http://www.w3.org/2000/svg" version="1.1" xmlns:xlink="http://www.w3.org/1999/xlink" xmlns:svgjs="http://svgjs.dev/svgjs" viewBox="0 0 1920 1080" id="7618ac8a-6191-4679-85f6-b36ba74ca9a7"><g><rect width="1920" height="1080" fill="#4e0250"/></g><g fill="#645986"><path d="M2118.71 322.496C1962.88 381.696 1840.11 286.062 1731.68 201.315C1619.52 113.904 1545.13 63.1995 1455.92 97.0926C1366.11 131.212 1344.15 218.52 1318.91 358.127C1294.11 493.487 1265.8 646.514 1109.97 705.714C954.144 764.914 831.375 669.28 722.951 584.533C610.793 497.122 536.401 446.418 447.185 480.311C357.375 514.43 335.414 601.738 310.18 741.346C285.375 876.706 257.072 1029.73 101.242 1088.93C-54.5876 1148.13 -177.357 1052.5 -285.78 967.751C-397.344 880.114 -471.736 829.41 -561.547 863.529L-602 757.045C-446.17 697.845 -323.401 793.479 -214.977 878.225C-102.819 965.637 -28.4265 1016.34 60.7891 982.448C150.6 948.329 172.56 861.02 197.794 721.413C222.599 586.053 250.307 433.253 406.732 373.827C562.562 314.627 685.331 410.261 793.754 495.007C905.913 582.419 980.305 633.123 1069.52 599.23C1159.33 565.111 1181.29 477.802 1206.53 338.195C1231.33 202.835 1259.04 50.0347 1415.46 -9.39121C1571.89 -68.8172 1694.06 27.043 1802.49 111.789C1914.64 199.201 1989.04 249.905 2078.25 216.012L2118.71 322.496Z"/></g><g fill="#ffffff" opacity="0.2"><path d="M960.041 79C960.041 79 971.953 194.974 981.699 214.484C992.529 237.245 1064 247 1064 247C1064 247 994.694 258.923 983.865 280.6C973.036 301.194 958.959 415 958.959 415C958.959 415 945.964 296.858 935.135 275.181C925.389 255.671 855 245.916 855 245.916C855 245.916 925.389 233.994 936.218 212.316C947.047 192.806 960.041 79 960.041 79Z"/><path d="M561.041 687C561.041 687 572.953 802.974 582.699 822.484C593.529 845.245 665 855 665 855C665 855 595.694 866.923 584.865 888.6C574.036 909.194 559.959 1023 559.959 1023C559.959 1023 546.964 904.858 536.135 883.181C526.389 863.671 456 853.916 456 853.916C456 853.916 526.389 841.994 537.218 820.316C548.047 800.806 561.041 687 561.041 687Z"/></g><g><path d="M178.635 139.281L184.422 144.246V166.626H215.704L219.958 172.147L215.69 177.397H184.422V198.795L178.635 203.747L173 198.795V144.232L178.635 139.281ZM195.554 195.68H219.406L223.397 200.915L219.143 206.45H195.554L191.7 201.342L195.554 195.68ZM196.382 138H219.129L223.383 143.52L219.129 148.77H196.659L192.115 143.677L196.382 138ZM323.155 148.628L328.251 154.291L323.155 159.968H246.13L241.172 154.291L246.13 148.628H323.155ZM237.043 172.147L241.849 167.893L246.669 172.147V178.393C246.669 188.879 249.417 197.515 261.668 197.515H264.14C275.147 197.515 281.197 189.86 281.197 177.952V172.005L285.879 167.75L290.699 171.862V178.379C290.699 189.007 293.723 196.946 305.56 196.946H307.618C319.178 196.946 321.235 187.869 321.373 177.952V171.578L326.056 167.608L331 171.72V178.094C330.862 191.838 327.285 207.574 308.032 207.574H305.974C294.552 207.574 288.365 202.324 285.892 195.808C283.006 202.466 275.299 208.286 264.844 208.286H262.358C242.553 208.286 237.194 195.964 237.056 178.663V172.147H237.043ZM276.391 274.744L273.642 267.089L280.796 264.969L305.974 276.721V252.491L311.07 248.095L316.291 252.491V281.829L325.641 286.226L328.251 293.311L320.959 296L276.391 274.744ZM321.235 223.011L328.113 226.27L325.917 233.497L264.002 263.119L256.571 260.146L259.596 252.776L321.235 223.011ZM231.905 263.404L237.954 268.512C237.402 286.51 222.403 296 204.669 296H202.874C194.062 296 183.759 292.6 177.157 286.083L177.834 278.855L184.298 278.002C189.118 282.256 195.858 285.229 202.183 285.229H204.117C216.091 285.229 225.303 280.136 226.27 268.085L231.905 263.404ZM226.256 251.638C225.704 239.16 216.629 234.209 204.103 234.209H202.169C194.739 234.209 189.104 237.182 184.284 241.436L177.834 240.583L177.143 233.355C183.745 226.696 192.957 223.58 202.597 223.58H204.517C222.403 223.58 237.402 232.942 237.94 251.211L231.891 256.176L226.256 251.638Z" fill="#ffffff"/></g><g fill="#ffffff" id="info-group"><path d="M167.0800 570L154.9000 570Q153.7800 570 152.8700 569.1600Q151.9600 568.3200 151.9600 567.0600L151.9600 567.0600Q151.9600 566.5000 152.2400 565.8000L152.2400 565.8000L185.9800 475.5000Q186.4000 474.1000 187.5900 473.0500Q188.7800 472 190.8800 472L190.8800 472L206.1400 472Q208.2400 472 209.3600 473.0500Q210.4800 474.1000 211.0400 475.5000L211.0400 475.5000L244.7800 565.8000Q244.9200 566.5000 244.9200 567.0600L244.9200 567.0600Q244.9200 568.3200 244.0800 569.1600Q243.2400 570 242.1200 570L242.1200 570L229.9400 570Q227.9800 570 227.0700 569.0900Q226.1600 568.1800 225.8800 567.3400L225.8800 567.3400L219.3000 550.2600L177.7200 550.2600L171.1400 567.3400Q170.8600 568.1800 169.9500 569.0900Q169.0400 570 167.0800 570L167.0800 570ZM198.4400 490.9000L182.6200 534.1600L214.4000 534.1600L198.4400 490.9000ZM283.2800 571.4000L283.2800 571.4000Q274.7400 571.4000 268.5100 567.5500Q262.2800 563.7000 258.9200 556.6300Q255.5600 549.5600 255.5600 539.9000L255.5600 539.9000L255.5600 500.5600Q255.5600 499.1600 256.5400 498.1800Q257.5200 497.2000 258.9200 497.2000L258.9200 497.2000L271.2400 497.2000Q272.7800 497.2000 273.6900 498.1800Q274.6000 499.1600 274.6000 500.5600L274.6000 500.5600L274.6000 539.0600Q274.6000 556.4200 289.8600 556.4200L289.8600 556.4200Q297.1400 556.4200 301.4100 551.8000Q305.6800 547.1800 305.6800 539.0600L305.6800 539.0600L305.6800 500.5600Q305.6800 499.1600 306.6600 498.1800Q307.6400 497.2000 309.0400 497.2000L309.0400 497.2000L321.3600 497.2000Q322.7600 497.2000 323.7400 498.1800Q324.7200 499.1600 324.7200 500.5600L324.7200 500.5600L324.7200 566.6400Q324.7200 568.0400 323.7400 569.0200Q322.7600 570 321.3600 570L321.3600 570L310.0200 570Q308.4800 570 307.5700 569.0200Q306.6600 568.0400 306.6600 566.6400L306.6600 566.6400L306.6600 560.9000Q302.8800 565.8000 297.2800 568.6000Q291.6800 571.4000 283.2800 571.4000ZM358.3200 570L346.7000 570Q345.3000 570 344.3200 569.0200Q343.3400 568.0400 343.3400 566.6400L343.3400 566.6400L343.3400 473.9600Q343.3400 472.5600 344.3200 471.5800Q345.3000 470.6000 346.7000 470.6000L346.7000 470.6000L358.3200 470.6000Q359.7200 470.6000 360.7000 471.5800Q361.6800 472.5600 361.6800 473.9600L361.6800 473.9600L361.6800 566.6400Q361.6800 568.0400 360.7000 569.0200Q359.7200 570 358.3200 570L358.3200 570ZM401.4400 571.4000L401.4400 571.4000Q394.1600 571.4000 388.2800 568.5300Q382.4000 565.6600 378.9700 560.8300Q375.5400 556 375.5400 549.9800L375.5400 549.9800Q375.5400 540.1800 383.5200 534.3700Q391.5000 528.5600 404.3800 526.6000L404.3800 526.6000L423.5600 523.8000L423.5600 520.8600Q423.5600 514.9800 420.6200 511.7600Q417.6800 508.5400 410.5400 508.5400L410.5400 508.5400Q405.5000 508.5400 402.3500 510.5700Q399.2000 512.6000 397.6600 515.9600L397.6600 515.9600Q396.5400 517.7800 394.4400 517.7800L394.4400 517.7800L383.3800 517.7800Q381.8400 517.7800 381.0700 516.9400Q380.3000 516.1000 380.3000 514.7000L380.3000 514.7000Q380.4400 512.4600 382.1900 509.2400Q383.9400 506.0200 387.5100 503.0100Q391.0800 500 396.8200 497.9000Q402.5600 495.8000 410.6800 495.8000L410.6800 495.8000Q419.5000 495.8000 425.5900 497.9700Q431.6800 500.1400 435.3200 503.7800Q438.9600 507.4200 440.6400 512.3200Q442.3200 517.2200 442.3200 522.6800L442.3200 522.6800L442.3200 566.6400Q442.3200 568.0400 441.3400 569.0200Q440.3600 570 438.9600 570L438.9600 570L427.6200 570Q426.0800 570 425.1700 569.0200Q424.2600 568.0400 424.2600 566.6400L424.2600 566.6400L424.2600 561.1800Q422.4400 563.7000 419.3600 566.0800Q416.2800 568.4600 411.8700 569.9300Q407.4600 571.4000 401.4400 571.4000ZM406.2000 558.1000L406.2000 558.1000Q411.1000 558.1000 415.0900 556Q419.0800 553.9000 421.3900 549.4900Q423.7000 545.0800 423.7000 538.3600L423.7000 538.3600L423.7000 535.4200L409.7000 537.6600Q401.4400 538.9200 397.3800 541.7200Q393.3200 544.5200 393.3200 548.5800L393.3200 548.5800Q393.3200 551.6600 395.2100 553.8300Q397.1000 556 400.0400 557.0500Q402.9800 558.1000 406.2000 558.1000ZM559.6400 570L492.7200 570Q491.3200 570 490.3400 569.0200Q489.3600 568.0400 489.3600 566.6400L489.3600 566.6400L489.3600 559.5000Q489.3600 558.2400 489.9900 556.4900Q490.6200 554.7400 492.8600 552.9200L492.8600 552.9200L514.9800 530.9400Q524.2200 523.6600 529.8900 518.5500Q535.5600 513.4400 538.1500 509.1700Q540.7400 504.9000 540.7400 500.7000L540.7400 500.7000Q540.7400 494.4000 537.3100 490.4800Q533.8800 486.5600 526.4600 486.5600L526.4600 486.5600Q521.5600 486.5600 518.2000 488.5900Q514.8400 490.6200 512.9500 493.9800Q511.0600 497.3400 510.3600 501.4000L510.3600 501.4000Q510.0800 503.2200 508.8200 503.9200Q507.5600 504.6200 506.3000 504.6200L506.3000 504.6200L493.8400 504.6200Q492.5800 504.6200 491.7400 503.7800Q490.9000 502.9400 490.9000 501.8200L490.9000 501.8200Q491.0400 495.8000 493.4200 490.1300Q495.8000 484.4600 500.3500 480.0500Q504.9000 475.6400 511.4800 472.9800Q518.0600 470.3200 526.3200 470.3200L526.3200 470.3200Q537.9400 470.3200 545.5700 474.2400Q553.2000 478.1600 557.0500 484.8800Q560.9000 491.6000 560.9000 500L560.9000 500Q560.9000 506.5800 558.3800 512.1100Q555.8600 517.6400 551.1000 522.7500Q546.3400 527.8600 539.6200 533.1800L539.6200 533.1800L519.7400 553.3400L559.6400 553.3400Q561.1800 553.3400 562.0900 554.2500Q563.0000 555.1600 563.0000 556.7000L563.0000 556.7000L563.0000 566.6400Q563.0000 568.0400 562.0900 569.0200Q561.1800 570 559.6400 570L559.6400 570ZM595.7600 521L581.9000 521Q580.5000 521 579.5200 520.0200Q578.5400 519.0400 578.5400 517.6400L578.5400 517.6400L578.5400 504.3400Q578.5400 502.8000 579.5200 501.8200Q580.5000 500.8400 581.9000 500.8400L581.9000 500.8400L595.7600 500.8400Q597.3000 500.8400 598.2800 501.8200Q599.2600 502.8000 599.2600 504.3400L599.2600 504.3400L599.2600 517.6400Q599.2600 519.0400 598.2800 520.0200Q597.3000 521 595.7600 521L595.7600 521ZM595.7600 570L581.9000 570Q580.5000 570 579.5200 569.0200Q578.5400 568.0400 578.5400 566.6400L578.5400 566.6400L578.5400 553.3400Q578.5400 551.8000 579.5200 550.8200Q580.5000 549.8400 581.9000 549.8400L581.9000 549.8400L595.7600 549.8400Q597.3000 549.8400 598.2800 550.8200Q599.2600 551.8000 599.2600 553.3400L599.2600 553.3400L599.2600 566.6400Q599.2600 568.0400 598.2800 569.0200Q597.3000 570 595.7600 570L595.7600 570ZM692.9200 570L680.1800 570Q678.7800 570 677.8000 569.0200Q676.8200 568.0400 676.8200 566.6400L676.8200 566.6400L676.8200 535L643.7800 476.4800Q643.6400 476.2000 643.5000 475.7800Q643.3600 475.3600 643.3600 474.9400L643.3600 474.9400Q643.3600 473.6800 644.2000 472.8400Q645.0400 472 646.1600 472L646.1600 472L658.6200 472Q660.3000 472 661.3500 472.8400Q662.4000 473.6800 662.8200 474.6600L662.8200 474.6600L686.6200 515.4000L710.2800 474.6600Q710.8400 473.6800 711.8900 472.8400Q712.9400 472 714.6200 472L714.6200 472L726.9400 472Q728.2000 472 729.0400 472.8400Q729.8800 473.6800 729.8800 474.9400L729.8800 474.9400Q729.8800 475.3600 729.8100 475.7800Q729.7400 476.2000 729.4600 476.4800L729.4600 476.4800L696.4200 535L696.4200 566.6400Q696.4200 568.0400 695.4400 569.0200Q694.4600 570 692.9200 570L692.9200 570ZM757.3200 570L745.7000 570Q744.3000 570 743.3200 569.0200Q742.3400 568.0400 742.3400 566.6400L742.3400 566.6400L742.3400 500.5600Q742.3400 499.1600 743.3200 498.1800Q744.3000 497.2000 745.7000 497.2000L745.7000 497.2000L757.3200 497.2000Q758.8600 497.2000 759.7700 498.1800Q760.6800 499.1600 760.6800 500.5600L760.6800 500.5600L760.6800 566.6400Q760.6800 568.0400 759.7700 569.0200Q758.8600 570 757.3200 570L757.3200 570ZM757.8800 485.1600L745.1400 485.1600Q743.7400 485.1600 742.7600 484.1800Q741.7800 483.2000 741.7800 481.8000L741.7800 481.8000L741.7800 471.7200Q741.7800 470.3200 742.7600 469.3400Q743.7400 468.3600 745.1400 468.3600L745.1400 468.3600L757.8800 468.3600Q759.4200 468.3600 760.4000 469.3400Q761.3800 470.3200 761.3800 471.7200L761.3800 471.7200L761.3800 481.8000Q761.3800 483.2000 760.4000 484.1800Q759.4200 485.1600 757.8800 485.1600L757.8800 485.1600ZM810.6600 571.4000L810.6600 571.4000Q795.1200 571.4000 786.0200 562.4400Q776.9200 553.4800 776.2200 536.9600L776.2200 536.9600Q776.0800 535.5600 776.0800 533.3900Q776.0800 531.2200 776.2200 529.9600L776.2200 529.9600Q776.7800 519.3200 781.0500 511.6900Q785.3200 504.0600 792.8800 499.9300Q800.4400 495.8000 810.6600 495.8000L810.6600 495.8000Q822.0000 495.8000 829.7000 500.4900Q837.4000 505.1800 841.3200 513.5100Q845.2400 521.8400 845.2400 532.7600L845.2400 532.7600L845.2400 535.7000Q845.2400 537.1000 844.2600 538.0800Q843.2800 539.0600 841.7400 539.0600L841.7400 539.0600L795.2600 539.0600Q795.2600 539.0600 795.2600 539.4800Q795.2600 539.9000 795.2600 540.1800L795.2600 540.1800Q795.4000 545.0800 797.1500 549.2100Q798.9000 553.3400 802.3300 555.8600Q805.7600 558.3800 810.5200 558.3800L810.5200 558.3800Q814.4400 558.3800 817.1000 557.1900Q819.7600 556 821.4400 554.4600Q823.1200 552.9200 823.8200 551.9400L823.8200 551.9400Q825.0800 550.2600 825.8500 549.9100Q826.6200 549.5600 828.1600 549.5600L828.1600 549.5600L840.2000 549.5600Q841.6000 549.5600 842.5100 550.4000Q843.4200 551.2400 843.2800 552.5000L843.2800 552.5000Q843.1400 554.7400 840.9700 557.9600Q838.8000 561.1800 834.7400 564.2600Q830.6800 567.3400 824.5900 569.3700Q818.5000 571.4000 810.6600 571.4000ZM795.2600 526.8800L795.2600 527.3000L826.2000 527.3000L826.2000 526.8800Q826.2000 521.4200 824.3800 517.2900Q822.5600 513.1600 819.0600 510.8500Q815.5600 508.5400 810.6600 508.5400L810.6600 508.5400Q805.7600 508.5400 802.2600 510.8500Q798.7600 513.1600 797.0100 517.2900Q795.2600 521.4200 795.2600 526.8800L795.2600 526.8800ZM875.2000 570L863.5800 570Q862.1800 570 861.2000 569.0200Q860.2200 568.0400 860.2200 566.6400L860.2200 566.6400L860.2200 473.9600Q860.2200 472.5600 861.2000 471.5800Q862.1800 470.6000 863.5800 470.6000L863.5800 470.6000L875.2000 470.6000Q876.6000 470.6000 877.5800 471.5800Q878.5600 472.5600 878.5600 473.9600L878.5600 473.9600L878.5600 566.6400Q878.5600 568.0400 877.5800 569.0200Q876.6000 570 875.2000 570L875.2000 570ZM924.2000 571.4000L924.2000 571.4000Q916.9200 571.4000 911.3900 568.9500Q905.8600 566.5000 902.2200 562.0200Q898.5800 557.5400 896.6200 551.4500Q894.6600 545.3600 894.3800 538.0800L894.3800 538.0800Q894.2400 535.5600 894.2400 533.5300Q894.2400 531.5000 894.3800 528.9800L894.3800 528.9800Q894.6600 521.9800 896.5500 515.9600Q898.4400 509.9400 902.1500 505.3900Q905.8600 500.8400 911.3900 498.3200Q916.9200 495.8000 924.2000 495.8000L924.2000 495.8000Q931.7600 495.8000 937.0100 498.3900Q942.2600 500.9800 945.7600 505.0400L945.7600 505.0400L945.7600 473.9600Q945.7600 472.5600 946.6700 471.5800Q947.5800 470.6000 949.1200 470.6000L949.1200 470.6000L961.0200 470.6000Q962.4200 470.6000 963.4000 471.5800Q964.3800 472.5600 964.3800 473.9600L964.3800 473.9600L964.3800 566.6400Q964.3800 568.0400 963.4000 569.0200Q962.4200 570 961.0200 570L961.0200 570L949.9600 570Q948.4200 570 947.5100 569.0200Q946.6000 568.0400 946.6000 566.6400L946.6000 566.6400L946.6000 561.4600Q943.1000 565.8000 937.7100 568.6000Q932.3200 571.4000 924.2000 571.4000ZM929.3800 556.4200L929.3800 556.4200Q935.2600 556.4200 938.7600 553.7600Q942.2600 551.1000 943.9400 546.9700Q945.6200 542.8400 945.7600 538.5000L945.7600 538.5000Q945.9000 535.9800 945.9000 533.1100Q945.9000 530.2400 945.7600 527.7200L945.7600 527.7200Q945.6200 523.5200 943.8000 519.6700Q941.9800 515.8200 938.4800 513.3000Q934.9800 510.7800 929.3800 510.7800L929.3800 510.7800Q923.5000 510.7800 920.0700 513.3700Q916.6400 515.9600 915.1000 520.1600Q913.5600 524.3600 913.2800 529.4000L913.2800 529.4000Q913.1400 533.6000 913.2800 537.8000L913.2800 537.8000Q913.5600 542.8400 915.1000 547.0400Q916.6400 551.2400 920.0700 553.8300Q923.5000 556.4200 929.3800 556.4200ZM1010.5800 571.4000L1010.5800 571.4000Q1002.1800 571.4000 996.2300 569.4400Q990.2800 567.4800 986.5000 564.5400Q982.7200 561.6000 980.9000 558.6600Q979.0800 555.7200 978.9400 553.7600L978.9400 553.7600Q978.8000 552.2200 979.8500 551.3100Q980.9000 550.4000 982.1600 550.4000L982.1600 550.4000L993.2200 550.4000Q993.7800 550.4000 994.2000 550.5400Q994.6200 550.6800 995.3200 551.3800L995.3200 551.3800Q997.1400 552.9200 999.1700 554.6000Q1001.2000 556.2800 1004.0000 557.4700Q1006.8000 558.6600 1011.0000 558.6600L1011.0000 558.6600Q1016.4600 558.6600 1020.1700 556.4900Q1023.8800 554.3200 1023.8800 550.2600L1023.8800 550.2600Q1023.8800 547.3200 1022.2700 545.5000Q1020.6600 543.6800 1016.3200 542.2100Q1011.9800 540.7400 1004.0000 539.0600L1004.0000 539.0600Q996.1600 537.2400 990.9800 534.4400Q985.8000 531.6400 983.2800 527.4400Q980.7600 523.2400 980.7600 517.6400L980.7600 517.6400Q980.7600 512.1800 984.0500 507.2100Q987.3400 502.2400 993.8500 499.0200Q1000.3600 495.8000 1010.0200 495.8000L1010.0200 495.8000Q1017.5800 495.8000 1023.1800 497.6900Q1028.7800 499.5800 1032.4900 502.3800Q1036.2000 505.1800 1038.1600 508.0500Q1040.1200 510.9200 1040.2600 513.0200L1040.2600 513.0200Q1040.4000 514.5600 1039.4200 515.4700Q1038.4400 516.3800 1037.1800 516.3800L1037.1800 516.3800L1026.8200 516.3800Q1026.1200 516.3800 1025.5600 516.1000Q1025.0000 515.8200 1024.4400 515.4000L1024.4400 515.4000Q1022.9000 514 1021.0800 512.3900Q1019.2600 510.7800 1016.6700 509.6600Q1014.0800 508.5400 1009.8800 508.5400L1009.8800 508.5400Q1004.5600 508.5400 1001.7600 510.8500Q998.9600 513.1600 998.9600 516.6600L998.9600 516.6600Q998.9600 519.0400 1000.2900 520.7900Q1001.6200 522.5400 1005.6800 524.0800Q1009.7400 525.6200 1018.0000 527.3000L1018.0000 527.3000Q1027.3800 528.9800 1032.9100 532.2700Q1038.4400 535.5600 1040.7500 539.8300Q1043.0600 544.1000 1043.0600 549.2800L1043.0600 549.2800Q1043.0600 555.5800 1039.3500 560.6200Q1035.6400 565.6600 1028.4300 568.5300Q1021.2200 571.4000 1010.5800 571.4000ZM199 711.4000L199 711.4000Q186.1200 711.4000 177.0900 706.9200Q168.0600 702.4400 163.0900 693.9700Q158.1200 685.5000 157.7000 673.7400L157.7000 673.7400Q157.5600 667.7200 157.5600 660.7900Q157.5600 653.8600 157.7000 647.7000L157.7000 647.7000Q158.1200 636.0800 163.0900 627.8200Q168.0600 619.5600 177.2300 615.0800Q186.4000 610.6000 199 610.6000L199 610.6000Q209.2200 610.6000 216.9200 613.3300Q224.6200 616.0600 229.7300 620.3300Q234.8400 624.6000 237.4300 629.5000Q240.0200 634.4000 240.1600 638.6000L240.1600 638.6000Q240.3000 639.8600 239.4600 640.7000Q238.6200 641.5400 237.2200 641.5400L237.2200 641.5400L222.8000 641.5400Q221.4000 641.5400 220.7000 640.9800Q220 640.4200 219.4400 639.3000L219.4400 639.3000Q218.3200 636.3600 215.9400 633.4900Q213.5600 630.6200 209.5000 628.6600Q205.4400 626.7000 199 626.7000L199 626.7000Q189.4800 626.7000 183.8100 631.7400Q178.1400 636.7800 177.7200 648.4000L177.7200 648.4000Q177.3000 660.5800 177.7200 673.0400L177.7200 673.0400Q178.1400 684.9400 183.9500 690.1200Q189.7600 695.3000 199.2800 695.3000L199.2800 695.3000Q205.5800 695.3000 210.5500 693.0600Q215.5200 690.8200 218.3900 686.0600Q221.2600 681.3000 221.2600 673.8800L221.2600 673.8800L221.2600 669.5400L204.1800 669.5400Q202.7800 669.5400 201.8000 668.5600Q200.8200 667.5800 200.8200 666.0400L200.8200 666.0400L200.8200 658.6200Q200.8200 657.0800 201.8000 656.1000Q202.7800 655.1200 204.1800 655.1200L204.1800 655.1200L237.6400 655.1200Q239.1800 655.1200 240.0900 656.1000Q241 657.0800 241 658.6200L241 658.6200L241 673.3200Q241 685.0800 235.8900 693.6200Q230.7800 702.1600 221.3300 706.7800Q211.8800 711.4000 199 711.4000ZM288.6000 711.4000L288.6000 711.4000Q273.0600 711.4000 263.9600 702.4400Q254.8600 693.4800 254.1600 676.9600L254.1600 676.9600Q254.0200 675.5600 254.0200 673.3900Q254.0200 671.2200 254.1600 669.9600L254.1600 669.9600Q254.7200 659.3200 258.9900 651.6900Q263.2600 644.0600 270.8200 639.9300Q278.3800 635.8000 288.6000 635.8000L288.6000 635.8000Q299.9400 635.8000 307.6400 640.4900Q315.3400 645.1800 319.2600 653.5100Q323.1800 661.8400 323.1800 672.7600L323.1800 672.7600L323.1800 675.7000Q323.1800 677.1000 322.2000 678.0800Q321.2200 679.0600 319.6800 679.0600L319.6800 679.0600L273.2000 679.0600Q273.2000 679.0600 273.2000 679.4800Q273.2000 679.9000 273.2000 680.1800L273.2000 680.1800Q273.3400 685.0800 275.0900 689.2100Q276.8400 693.3400 280.2700 695.8600Q283.7000 698.3800 288.4600 698.3800L288.4600 698.3800Q292.3800 698.3800 295.0400 697.1900Q297.7000 696 299.3800 694.4600Q301.0600 692.9200 301.7600 691.9400L301.7600 691.9400Q303.0200 690.2600 303.7900 689.9100Q304.5600 689.5600 306.1000 689.5600L306.1000 689.5600L318.1400 689.5600Q319.5400 689.5600 320.4500 690.4000Q321.3600 691.2400 321.2200 692.5000L321.2200 692.5000Q321.0800 694.7400 318.9100 697.9600Q316.7400 701.1800 312.6800 704.2600Q308.6200 707.3400 302.5300 709.3700Q296.4400 711.4000 288.6000 711.4000ZM273.2000 666.8800L273.2000 667.3000L304.1400 667.3000L304.1400 666.8800Q304.1400 661.4200 302.3200 657.2900Q300.5000 653.1600 297 650.8500Q293.5000 648.5400 288.6000 648.5400L288.6000 648.5400Q283.7000 648.5400 280.2000 650.8500Q276.7000 653.1600 274.9500 657.2900Q273.2000 661.4200 273.2000 666.8800L273.2000 666.8800ZM353.7000 710L341.3800 710Q339.9800 710 339 709.0200Q338.0200 708.0400 338.0200 706.6400L338.0200 706.6400L338.0200 640.5600Q338.0200 639.1600 339 638.1800Q339.9800 637.2000 341.3800 637.2000L341.3800 637.2000L352.8600 637.2000Q354.2600 637.2000 355.2400 638.1800Q356.2200 639.1600 356.2200 640.5600L356.2200 640.5600L356.2200 646.3000Q359.8600 641.8200 365.5300 638.8100Q371.2000 635.8000 379.6000 635.8000L379.6000 635.8000Q388.1400 635.8000 394.4400 639.6500Q400.7400 643.5000 404.1700 650.5000Q407.6000 657.5000 407.6000 667.3000L407.6000 667.3000L407.6000 706.6400Q407.6000 708.0400 406.6200 709.0200Q405.6400 710 404.2400 710L404.2400 710L391.9200 710Q390.5200 710 389.5400 709.0200Q388.5600 708.0400 388.5600 706.6400L388.5600 706.6400L388.5600 668.1400Q388.5600 660.0200 384.5700 655.4000Q380.5800 650.7800 373.0200 650.7800L373.0200 650.7800Q365.7400 650.7800 361.4000 655.4000Q357.0600 660.0200 357.0600 668.1400L357.0600 668.1400L357.0600 706.6400Q357.0600 708.0400 356.0800 709.0200Q355.1000 710 353.7000 710L353.7000 710ZM456.7400 711.4000L456.7400 711.4000Q441.2000 711.4000 432.1000 702.4400Q423 693.4800 422.3000 676.9600L422.3000 676.9600Q422.1600 675.5600 422.1600 673.3900Q422.1600 671.2200 422.3000 669.9600L422.3000 669.9600Q422.8600 659.3200 427.1300 651.6900Q431.4000 644.0600 438.9600 639.9300Q446.5200 635.8000 456.7400 635.8000L456.7400 635.8000Q468.0800 635.8000 475.7800 640.4900Q483.4800 645.1800 487.4000 653.5100Q491.3200 661.8400 491.3200 672.7600L491.3200 672.7600L491.3200 675.7000Q491.3200 677.1000 490.3400 678.0800Q489.3600 679.0600 487.8200 679.0600L487.8200 679.0600L441.3400 679.0600Q441.3400 679.0600 441.3400 679.4800Q441.3400 679.9000 441.3400 680.1800L441.3400 680.1800Q441.4800 685.0800 443.2300 689.2100Q444.9800 693.3400 448.4100 695.8600Q451.8400 698.3800 456.6000 698.3800L456.6000 698.3800Q460.5200 698.3800 463.1800 697.1900Q465.8400 696 467.5200 694.4600Q469.2000 692.9200 469.9000 691.9400L469.9000 691.9400Q471.1600 690.2600 471.9300 689.9100Q472.7000 689.5600 474.2400 689.5600L474.2400 689.5600L486.2800 689.5600Q487.6800 689.5600 488.5900 690.4000Q489.5000 691.2400 489.3600 692.5000L489.3600 692.5000Q489.2200 694.7400 487.0500 697.9600Q484.8800 701.1800 480.8200 704.2600Q476.7600 707.3400 470.6700 709.3700Q464.5800 711.4000 456.7400 711.4000ZM441.3400 666.8800L441.3400 667.3000L472.2800 667.3000L472.2800 666.8800Q472.2800 661.4200 470.4600 657.2900Q468.6400 653.1600 465.1400 650.8500Q461.6400 648.5400 456.7400 648.5400L456.7400 648.5400Q451.8400 648.5400 448.3400 650.8500Q444.8400 653.1600 443.0900 657.2900Q441.3400 661.4200 441.3400 666.8800L441.3400 666.8800ZM521.7000 710L509.5200 710Q508.1200 710 507.1400 709.0200Q506.1600 708.0400 506.1600 706.6400L506.1600 706.6400L506.1600 640.7000Q506.1600 639.1600 507.1400 638.1800Q508.1200 637.2000 509.5200 637.2000L509.5200 637.2000L520.8600 637.2000Q522.2600 637.2000 523.3100 638.1800Q524.3600 639.1600 524.3600 640.7000L524.3600 640.7000L524.3600 646.4400Q527.5800 641.9600 532.6900 639.5800Q537.8000 637.2000 544.5200 637.2000L544.5200 637.2000L550.2600 637.2000Q551.8000 637.2000 552.7100 638.1800Q553.6200 639.1600 553.6200 640.5600L553.6200 640.5600L553.6200 650.6400Q553.6200 652.0400 552.7100 653.0200Q551.8000 654 550.2600 654L550.2600 654L539.3400 654Q532.6200 654 528.9100 657.7100Q525.2000 661.4200 525.2000 668.1400L525.2000 668.1400L525.2000 706.6400Q525.2000 708.0400 524.2200 709.0200Q523.2400 710 521.7000 710L521.7000 710ZM585.6800 711.4000L585.6800 711.4000Q578.4000 711.4000 572.5200 708.5300Q566.6400 705.6600 563.2100 700.8300Q559.7800 696 559.7800 689.9800L559.7800 689.9800Q559.7800 680.1800 567.7600 674.3700Q575.7400 668.5600 588.6200 666.6000L588.6200 666.6000L607.8000 663.8000L607.8000 660.8600Q607.8000 654.9800 604.8600 651.7600Q601.9200 648.5400 594.7800 648.5400L594.7800 648.5400Q589.7400 648.5400 586.5900 650.5700Q583.4400 652.6000 581.9000 655.9600L581.9000 655.9600Q580.7800 657.7800 578.6800 657.7800L578.6800 657.7800L567.6200 657.7800Q566.0800 657.7800 565.3100 656.9400Q564.5400 656.1000 564.5400 654.7000L564.5400 654.7000Q564.6800 652.4600 566.4300 649.2400Q568.1800 646.0200 571.7500 643.0100Q575.3200 640 581.0600 637.9000Q586.8000 635.8000 594.9200 635.8000L594.9200 635.8000Q603.7400 635.8000 609.8300 637.9700Q615.9200 640.1400 619.5600 643.7800Q623.2000 647.4200 624.8800 652.3200Q626.5600 657.2200 626.5600 662.6800L626.5600 662.6800L626.5600 706.6400Q626.5600 708.0400 625.5800 709.0200Q624.6000 710 623.2000 710L623.2000 710L611.8600 710Q610.3200 710 609.4100 709.0200Q608.5000 708.0400 608.5000 706.6400L608.5000 706.6400L608.5000 701.1800Q606.6800 703.7000 603.6000 706.0800Q600.5200 708.4600 596.1100 709.9300Q591.7000 711.4000 585.6800 711.4000ZM590.4400 698.1000L590.4400 698.1000Q595.3400 698.1000 599.3300 696Q603.3200 693.9000 605.6300 689.4900Q607.9400 685.0800 607.9400 678.3600L607.9400 678.3600L607.9400 675.4200L593.9400 677.6600Q585.6800 678.9200 581.6200 681.7200Q577.5600 684.5200 577.5600 688.5800L577.5600 688.5800Q577.5600 691.6600 579.4500 693.8300Q581.3400 696 584.2800 697.0500Q587.2200 698.1000 590.4400 698.1000ZM688.7200 710L677.3800 710Q668.9800 710 663.2400 707.0600Q657.5000 704.1200 654.7000 698.3100Q651.9000 692.5000 651.9000 683.8200L651.9000 683.8200L651.9000 652.0400L640.8400 652.0400Q639.4400 652.0400 638.4600 651.0600Q637.4800 650.0800 637.4800 648.5400L637.4800 648.5400L637.4800 640.5600Q637.4800 639.1600 638.4600 638.1800Q639.4400 637.2000 640.8400 637.2000L640.8400 637.2000L651.9000 637.2000L651.9000 613.9600Q651.9000 612.5600 652.8100 611.5800Q653.7200 610.6000 655.2600 610.6000L655.2600 610.6000L666.6000 610.6000Q668 610.6000 668.9800 611.5800Q669.9600 612.5600 669.9600 613.9600L669.9600 613.9600L669.9600 637.2000L687.4600 637.2000Q688.8600 637.2000 689.8400 638.1800Q690.8200 639.1600 690.8200 640.5600L690.8200 640.5600L690.8200 648.5400Q690.8200 650.0800 689.8400 651.0600Q688.8600 652.0400 687.4600 652.0400L687.4600 652.0400L669.9600 652.0400L669.9600 682.4200Q669.9600 688.1600 671.9900 691.3800Q674.0200 694.6000 679.0600 694.6000L679.0600 694.6000L688.7200 694.6000Q690.1200 694.6000 691.1000 695.5800Q692.0800 696.5600 692.0800 697.9600L692.0800 697.9600L692.0800 706.6400Q692.0800 708.0400 691.1000 709.0200Q690.1200 710 688.7200 710L688.7200 710ZM736.7400 711.4000L736.7400 711.4000Q725.5400 711.4000 717.9100 707.4800Q710.2800 703.5600 706.2900 696.4200Q702.3000 689.2800 701.7400 679.7600L701.7400 679.7600Q701.6000 677.2400 701.6000 673.6000Q701.6000 669.9600 701.7400 667.4400L701.7400 667.4400Q702.3000 657.7800 706.4300 650.7100Q710.5600 643.6400 718.1900 639.7200Q725.8200 635.8000 736.7400 635.8000L736.7400 635.8000Q747.6600 635.8000 755.2900 639.7200Q762.9200 643.6400 767.0500 650.7100Q771.1800 657.7800 771.7400 667.4400L771.7400 667.4400Q771.8800 669.9600 771.8800 673.6000Q771.8800 677.2400 771.7400 679.7600L771.7400 679.7600Q771.1800 689.2800 767.1900 696.4200Q763.2000 703.5600 755.5700 707.4800Q747.9400 711.4000 736.7400 711.4000ZM736.7400 697.5400L736.7400 697.5400Q744.1600 697.5400 748.2200 692.8500Q752.2800 688.1600 752.7000 679.0600L752.7000 679.0600Q752.8400 676.9600 752.8400 673.6000Q752.8400 670.2400 752.7000 668.1400L752.7000 668.1400Q752.2800 659.0400 748.2200 654.3500Q744.1600 649.6600 736.7400 649.6600L736.7400 649.6600Q729.3200 649.6600 725.2600 654.3500Q721.2000 659.0400 720.7800 668.1400L720.7800 668.1400Q720.6400 670.2400 720.6400 673.6000Q720.6400 676.9600 720.7800 679.0600L720.7800 679.0600Q721.2000 688.1600 725.2600 692.8500Q729.3200 697.5400 736.7400 697.5400ZM802.9600 710L790.7800 710Q789.3800 710 788.4000 709.0200Q787.4200 708.0400 787.4200 706.6400L787.4200 706.6400L787.4200 640.7000Q787.4200 639.1600 788.4000 638.1800Q789.3800 637.2000 790.7800 637.2000L790.7800 637.2000L802.1200 637.2000Q803.5200 637.2000 804.5700 638.1800Q805.6200 639.1600 805.6200 640.7000L805.6200 640.7000L805.6200 646.4400Q808.8400 641.9600 813.9500 639.5800Q819.0600 637.2000 825.7800 637.2000L825.7800 637.2000L831.5200 637.2000Q833.0600 637.2000 833.9700 638.1800Q834.8800 639.1600 834.8800 640.5600L834.8800 640.5600L834.8800 650.6400Q834.8800 652.0400 833.9700 653.0200Q833.0600 654 831.5200 654L831.5200 654L820.6000 654Q813.8800 654 810.1700 657.7100Q806.4600 661.4200 806.4600 668.1400L806.4600 668.1400L806.4600 706.6400Q806.4600 708.0400 805.4800 709.0200Q804.5000 710 802.9600 710L802.9600 710ZM873.3800 711.4000L873.3800 711.4000Q864.9800 711.4000 859.0300 709.4400Q853.0800 707.4800 849.3000 704.5400Q845.5200 701.6000 843.7000 698.6600Q841.8800 695.7200 841.7400 693.7600L841.7400 693.7600Q841.6000 692.2200 842.6500 691.3100Q843.7000 690.4000 844.9600 690.4000L844.9600 690.4000L856.0200 690.4000Q856.5800 690.4000 857 690.5400Q857.4200 690.6800 858.1200 691.3800L858.1200 691.3800Q859.9400 692.9200 861.9700 694.6000Q864 696.2800 866.8000 697.4700Q869.6000 698.6600 873.8000 698.6600L873.8000 698.6600Q879.2600 698.6600 882.9700 696.4900Q886.6800 694.3200 886.6800 690.2600L886.6800 690.2600Q886.6800 687.3200 885.0700 685.5000Q883.4600 683.6800 879.1200 682.2100Q874.7800 680.7400 866.8000 679.0600L866.8000 679.0600Q858.9600 677.2400 853.7800 674.4400Q848.6000 671.6400 846.0800 667.4400Q843.5600 663.2400 843.5600 657.6400L843.5600 657.6400Q843.5600 652.1800 846.8500 647.2100Q850.1400 642.2400 856.6500 639.0200Q863.1600 635.8000 872.8200 635.8000L872.8200 635.8000Q880.3800 635.8000 885.9800 637.6900Q891.5800 639.5800 895.2900 642.3800Q899 645.1800 900.9600 648.0500Q902.9200 650.9200 903.0600 653.0200L903.0600 653.0200Q903.2000 654.5600 902.2200 655.4700Q901.2400 656.3800 899.9800 656.3800L899.9800 656.3800L889.6200 656.3800Q888.9200 656.3800 888.3600 656.1000Q887.8000 655.8200 887.2400 655.4000L887.2400 655.4000Q885.7000 654 883.8800 652.3900Q882.0600 650.7800 879.4700 649.6600Q876.8800 648.5400 872.6800 648.5400L872.6800 648.5400Q867.3600 648.5400 864.5600 650.8500Q861.7600 653.1600 861.7600 656.6600L861.7600 656.6600Q861.7600 659.0400 863.0900 660.7900Q864.4200 662.5400 868.4800 664.0800Q872.5400 665.6200 880.8000 667.3000L880.8000 667.3000Q890.1800 668.9800 895.7100 672.2700Q901.2400 675.5600 903.5500 679.8300Q905.8600 684.1000 905.8600 689.2800L905.8600 689.2800Q905.8600 695.5800 902.1500 700.6200Q898.4400 705.6600 891.2300 708.5300Q884.0200 711.4000 873.3800 711.4000Z" id="title"/></g></svg>