<svg xmlns="http://www.w3.org/2000/svg" version="1.1" xmlns:xlink="http://www.w3.org/1999/xlink" xmlns:svgjs="http://svgjs.dev/svgjs" viewBox="0 0 1920 1080" id="5f838114-5474-483e-b8d5-73e384c52143"><g><rect width="1920" height="1080" fill="#c0e6de"/></g><g fill="#e6c9be"><path d="M528.139 1441.91C839.399 1514.3 1150.41 1320.65 1222.8 1009.39C1295.18 698.133 1101.54 387.125 790.279 314.737C479.019 242.349 168.011 435.993 95.6227 747.253C23.2348 1058.51 216.879 1369.52 528.139 1441.91Z"/></g><g fill="#ffffff" opacity="0.4"><path d="M1291.25 885.139C1353.46 858.886 1407.46 821.623 1452.27 776.616L1100.97 924.875C1164.47 924.172 1229.05 911.392 1291.25 885.139Z"/><path d="M1040.15 921.833L1492.72 730.839C1508.41 710.694 1522.29 689.649 1534.78 667.535L965.455 907.808C989.724 914.173 1014.78 919.021 1040.15 921.833Z"/><path d="M926.298 895.39L1553.2 630.818C1561.39 613.128 1568.35 594.771 1574.33 576.351L872.535 872.528C889.905 881.093 907.826 888.714 926.298 895.39Z"/><path d="M842.437 856.285L1583.49 543.54C1587.48 527.146 1590.7 510.604 1593.14 493.915L800.149 828.58C813.811 838.473 827.907 847.708 842.437 856.285Z"/><path d="M776.091 809.791L1596.46 463.571C1597.55 448.165 1598.15 432.728 1598.06 417.344L741.856 778.688C752.816 789.483 764.093 799.908 776.091 809.791Z"/><path d="M722.429 757.94L1596.95 388.865C1595.83 374.394 1594.21 359.891 1591.91 345.442L694.837 724.033C703.498 735.562 712.645 747.122 722.429 757.94Z"/><path d="M679.234 701.675L1586.78 318.666C1583.84 304.959 1580.21 291.306 1575.89 277.707L657.28 665.389C664.128 677.682 671.379 689.806 679.234 701.675Z"/><path d="M635.858 620.812C638.832 627.86 642.008 634.824 645.099 641.586L1567.14 252.46C1564.65 245.443 1561.67 238.395 1558.7 231.346C1556.15 225.305 1553.48 219.55 1550.82 213.795L628.781 602.921C631.045 608.846 633.308 614.771 635.858 620.812Z"/><path d="M620.023 577.674L1539.24 189.737C1532.51 177.157 1525.26 165.034 1517.69 153.281L608.94 536.8C611.793 550.305 615.707 564.074 620.023 577.674Z"/><path d="M603.604 510.106L1502.09 130.921C1493.54 119.106 1484.28 107.832 1474.7 96.9289L598.359 466.768C599.401 481.038 601.015 495.541 603.604 510.106Z"/><path d="M596.849 438.462L1455.67 76.0138C1444.83 64.9317 1433.55 54.5073 1421.84 44.7406L598.046 392.405C596.873 407.609 596.474 422.962 596.849 438.462Z"/><path d="M601.165 362.145L1397.98 25.8656C1384.52 15.8881 1370.34 6.4518 1356.1 -2.00908L610.415 312.69C606.339 328.883 603.323 345.339 601.165 362.145Z"/><path d="M619.172 280.05L1326.2 -18.3369C1308.95 -27.1879 1291.23 -34.8935 1273.24 -41.5387L639.695 225.837C631.709 243.442 625.069 261.428 619.172 280.05Z"/><path d="M1161.52 -69.119L697.88 126.549C682.794 146.438 669.394 167.514 657.426 189.173L1234.4 -54.3285C1210.74 -60.9484 1186.29 -66.0517 1161.52 -69.119Z"/><path d="M903.623 -33.3525C838.597 -5.90982 782.285 33.7509 736.316 81.6209L1102.51 -72.9251C1036.15 -73.3862 968.648 -60.7953 903.623 -33.3525Z"/></g><g><path d="M178.635 139.281L184.422 144.246V166.626H215.704L219.958 172.147L215.69 177.397H184.422V198.795L178.635 203.747L173 198.795V144.232L178.635 139.281ZM195.554 195.68H219.406L223.397 200.915L219.143 206.45H195.554L191.7 201.342L195.554 195.68ZM196.382 138H219.129L223.383 143.52L219.129 148.77H196.659L192.115 143.677L196.382 138ZM323.155 148.628L328.251 154.291L323.155 159.968H246.13L241.172 154.291L246.13 148.628H323.155ZM237.043 172.147L241.849 167.893L246.669 172.147V178.393C246.669 188.879 249.417 197.515 261.668 197.515H264.14C275.147 197.515 281.197 189.86 281.197 177.952V172.005L285.879 167.75L290.699 171.862V178.379C290.699 189.007 293.723 196.946 305.56 196.946H307.618C319.178 196.946 321.235 187.869 321.373 177.952V171.578L326.056 167.608L331 171.72V178.094C330.862 191.838 327.285 207.574 308.032 207.574H305.974C294.552 207.574 288.365 202.324 285.892 195.808C283.006 202.466 275.299 208.286 264.844 208.286H262.358C242.553 208.286 237.194 195.964 237.056 178.663V172.147H237.043ZM276.391 274.744L273.642 267.089L280.796 264.969L305.974 276.721V252.491L311.07 248.095L316.291 252.491V281.829L325.641 286.226L328.251 293.311L320.959 296L276.391 274.744ZM321.235 223.011L328.113 226.27L325.917 233.497L264.002 263.119L256.571 260.146L259.596 252.776L321.235 223.011ZM231.905 263.404L237.954 268.512C237.402 286.51 222.403 296 204.669 296H202.874C194.062 296 183.759 292.6 177.157 286.083L177.834 278.855L184.298 278.002C189.118 282.256 195.858 285.229 202.183 285.229H204.117C216.091 285.229 225.303 280.136 226.27 268.085L231.905 263.404ZM226.256 251.638C225.704 239.16 216.629 234.209 204.103 234.209H202.169C194.739 234.209 189.104 237.182 184.284 241.436L177.834 240.583L177.143 233.355C183.745 226.696 192.957 223.58 202.597 223.58H204.517C222.403 223.58 237.402 232.942 237.94 251.211L231.891 256.176L226.256 251.638Z" fill="#000000"/></g><path d="M1171 781L1171 339L1187 339L1187 781L1171 781Z" fill="#000000"/><g fill="#000000" id="info-group"><path d="M167.3700 600L159.1800 600Q158.2800 600 157.6500 599.4150Q157.0200 598.8300 157.0200 597.8400L157.0200 597.8400L157.0200 539.2500Q157.0200 538.2600 157.6500 537.6300Q158.2800 537 159.1800 537L159.1800 537L167.3700 537Q168.3600 537 168.9450 537.6300Q169.5300 538.2600 169.5300 539.2500L169.5300 539.2500L169.5300 562.4700L196.0800 562.4700L196.0800 539.2500Q196.0800 538.2600 196.7100 537.6300Q197.3400 537 198.2400 537L198.2400 537L206.3400 537Q207.3300 537 207.9600 537.6300Q208.5900 538.2600 208.5900 539.2500L208.5900 539.2500L208.5900 597.8400Q208.5900 598.7400 207.9600 599.3700Q207.3300 600 206.3400 600L206.3400 600L198.2400 600Q197.3400 600 196.7100 599.3700Q196.0800 598.7400 196.0800 597.8400L196.0800 597.8400L196.0800 573.7200L169.5300 573.7200L169.5300 597.8400Q169.5300 598.7400 168.9450 599.3700Q168.3600 600 167.3700 600L167.3700 600ZM246.9300 600L238.6500 600Q237.7500 600 237.1200 599.3700Q236.4900 598.7400 236.4900 597.8400L236.4900 597.8400L236.4900 548.0700L219.8400 548.0700Q218.9400 548.0700 218.3100 547.4400Q217.6800 546.8100 217.6800 545.9100L217.6800 545.9100L217.6800 539.2500Q217.6800 538.2600 218.3100 537.6300Q218.9400 537 219.8400 537L219.8400 537L265.7400 537Q266.7300 537 267.3600 537.6300Q267.9900 538.2600 267.9900 539.2500L267.9900 539.2500L267.9900 545.9100Q267.9900 546.8100 267.3600 547.4400Q266.7300 548.0700 265.7400 548.0700L265.7400 548.0700L249.1800 548.0700L249.1800 597.8400Q249.1800 598.7400 248.5500 599.3700Q247.9200 600 246.9300 600L246.9300 600ZM286.8900 600L279.3300 600Q278.3400 600 277.7100 599.3700Q277.0800 598.7400 277.0800 597.8400L277.0800 597.8400L277.0800 539.2500Q277.0800 538.2600 277.7100 537.6300Q278.3400 537 279.3300 537L279.3300 537L286.4400 537Q287.7000 537 288.3300 537.6750Q288.9600 538.3500 289.1400 538.7100L289.1400 538.7100L306.5100 571.1100L324.0600 538.7100Q324.2400 538.3500 324.8700 537.6750Q325.5000 537 326.7600 537L326.7600 537L333.7800 537Q334.7700 537 335.4000 537.6300Q336.0300 538.2600 336.0300 539.2500L336.0300 539.2500L336.0300 597.8400Q336.0300 598.7400 335.4000 599.3700Q334.7700 600 333.7800 600L333.7800 600L326.2200 600Q325.2300 600 324.6450 599.3700Q324.0600 598.7400 324.0600 597.8400L324.0600 597.8400L324.0600 558.8700L311.4600 582.9000Q311.0100 583.7100 310.2900 584.2950Q309.5700 584.8800 308.4000 584.8800L308.4000 584.8800L304.7100 584.8800Q303.4500 584.8800 302.7750 584.2950Q302.1000 583.7100 301.6500 582.9000L301.6500 582.9000L289.0500 558.8700L289.0500 597.8400Q289.0500 598.7400 288.4200 599.3700Q287.7900 600 286.8900 600L286.8900 600ZM391.2900 600L352.2300 600Q351.3300 600 350.7000 599.3700Q350.0700 598.7400 350.0700 597.8400L350.0700 597.8400L350.0700 539.1600Q350.0700 538.2600 350.7000 537.6300Q351.3300 537 352.2300 537L352.2300 537L360.6000 537Q361.5000 537 362.1300 537.6300Q362.7600 538.2600 362.7600 539.1600L362.7600 539.1600L362.7600 589.2900L391.2900 589.2900Q392.2800 589.2900 392.9100 589.9200Q393.5400 590.5500 393.5400 591.5400L393.5400 591.5400L393.5400 597.8400Q393.5400 598.7400 392.9100 599.3700Q392.2800 600 391.2900 600L391.2900 600Z" id="title"/><path d="M1434.6400 652.4000L1434.6400 652.4000Q1417.8400 652.4000 1405.6000 648.3200Q1393.3600 644.2400 1385.3200 637.6400Q1377.2800 631.0400 1373.2000 623.2400Q1369.1200 615.4400 1368.8800 607.7600L1368.8800 607.7600Q1368.8800 605.6000 1370.4400 604.2800Q1372 602.9600 1374.1600 602.9600L1374.1600 602.9600L1395.7600 602.9600Q1398.1600 602.9600 1399.8400 603.9200Q1401.5200 604.8800 1402.7200 607.7600L1402.7200 607.7600Q1404.8800 614.2400 1409.8000 618.0800Q1414.7200 621.9200 1421.2000 623.4800Q1427.6800 625.0400 1434.8800 625.0400L1434.8800 625.0400Q1449.2800 625.0400 1457.8000 618.2000Q1466.3200 611.3600 1466.3200 598.6400L1466.3200 598.6400Q1466.3200 585.9200 1458.4000 580.2800Q1450.4800 574.6400 1436.3200 574.6400L1436.3200 574.6400L1411.6000 574.6400Q1408.9600 574.6400 1407.2800 573.0800Q1405.6000 571.5200 1405.6000 568.8800L1405.6000 568.8800L1405.6000 558.8000Q1405.6000 556.4000 1406.6800 554.6000Q1407.7600 552.8000 1408.9600 551.6000L1408.9600 551.6000L1451.9200 509.6000L1383.2800 509.6000Q1380.6400 509.6000 1379.0800 507.9200Q1377.5200 506.2400 1377.5200 503.8400L1377.5200 503.8400L1377.5200 488Q1377.5200 485.3600 1379.0800 483.6800Q1380.6400 482 1383.2800 482L1383.2800 482L1486.2400 482Q1488.8800 482 1490.5600 483.6800Q1492.2400 485.3600 1492.2400 488L1492.2400 488L1492.2400 502.4000Q1492.2400 504.5600 1491.2800 506.2400Q1490.3200 507.9200 1489.1200 509.1200L1489.1200 509.1200L1447.6000 551.8400L1450.4800 552.0800Q1465.1200 553.2800 1476.5200 558.6800Q1487.9200 564.0800 1494.2800 574.4000Q1500.6400 584.7200 1500.6400 600.3200L1500.6400 600.3200Q1500.6400 616.6400 1492.1200 628.2800Q1483.6000 639.9200 1468.7200 646.1600Q1453.8400 652.4000 1434.6400 652.4000ZM1555.3600 650L1531.3600 650Q1528.9600 650 1527.2800 648.3200Q1525.6000 646.6400 1525.6000 644.2400L1525.6000 644.2400L1525.6000 620.4800Q1525.6000 617.8400 1527.2800 616.1600Q1528.9600 614.4800 1531.3600 614.4800L1531.3600 614.4800L1555.3600 614.4800Q1557.7600 614.4800 1559.4400 616.1600Q1561.1200 617.8400 1561.1200 620.4800L1561.1200 620.4800L1561.1200 644.2400Q1561.1200 646.6400 1559.4400 648.3200Q1557.7600 650 1555.3600 650L1555.3600 650ZM1650.1600 652.4000L1650.1600 652.4000Q1629.5200 652.4000 1614.6400 644.6000Q1599.7600 636.8000 1591.6000 623.4800Q1583.4400 610.1600 1583.4400 593.6000L1583.4400 593.6000Q1583.4400 586.1600 1585.3600 579.2000Q1587.2800 572.2400 1590.4000 566Q1593.5200 559.7600 1596.5200 554.8400Q1599.5200 549.9200 1601.9200 547.0400L1601.9200 547.0400L1645.8400 486.8000Q1646.8000 485.6000 1648.7200 483.8000Q1650.6400 482 1654 482L1654 482L1676.3200 482Q1678.4800 482 1679.9200 483.5600Q1681.3600 485.1200 1681.3600 487.2800L1681.3600 487.2800Q1681.3600 488.2400 1681 489.0800Q1680.6400 489.9200 1680.1600 490.4000L1680.1600 490.4000L1646.5600 536.9600Q1648.7200 536.2400 1651.6000 536Q1654.4800 535.7600 1656.8800 535.7600L1656.8800 535.7600Q1668.8800 536 1679.6800 540.4400Q1690.4800 544.8800 1698.6400 552.5600Q1706.8000 560.2400 1711.4800 570.5600Q1716.1600 580.8800 1716.1600 593.1200L1716.1600 593.1200Q1716.1600 608.9600 1708.2400 622.5200Q1700.3200 636.0800 1685.5600 644.2400Q1670.8000 652.4000 1650.1600 652.4000ZM1649.9200 624.8000L1649.9200 624.8000Q1658.5600 624.8000 1665.8800 621.2000Q1673.2000 617.6000 1677.7600 610.6400Q1682.3200 603.6800 1682.3200 593.3600L1682.3200 593.3600Q1682.3200 583.2800 1677.7600 576.3200Q1673.2000 569.3600 1665.8800 565.7600Q1658.5600 562.1600 1649.9200 562.1600L1649.9200 562.1600Q1641.2800 562.1600 1633.9600 565.7600Q1626.6400 569.3600 1622.0800 576.3200Q1617.5200 583.2800 1617.5200 593.3600L1617.5200 593.3600Q1617.5200 603.6800 1622.0800 610.6400Q1626.6400 617.6000 1633.9600 621.2000Q1641.2800 624.8000 1649.9200 624.8000Z" id="lecture-full-number"/></g></svg>