<svg xmlns="http://www.w3.org/2000/svg" version="1.1" xmlns:xlink="http://www.w3.org/1999/xlink" xmlns:svgjs="http://svgjs.dev/svgjs" viewBox="0 0 1920 1080" id="beae1601-b768-46b6-b90e-f822733a1d06"><g><rect width="1920" height="1080" fill="#190e4f"/></g><g fill="#b33c86"><path d="M2118.71 322.496C1962.88 381.696 1840.11 286.062 1731.68 201.315C1619.52 113.904 1545.13 63.1995 1455.92 97.0926C1366.11 131.212 1344.15 218.52 1318.91 358.127C1294.11 493.487 1265.8 646.514 1109.97 705.714C954.144 764.914 831.375 669.28 722.951 584.533C610.793 497.122 536.401 446.418 447.185 480.311C357.375 514.43 335.414 601.738 310.18 741.346C285.375 876.706 257.072 1029.73 101.242 1088.93C-54.5876 1148.13 -177.357 1052.5 -285.78 967.751C-397.344 880.114 -471.736 829.41 -561.547 863.529L-602 757.045C-446.17 697.845 -323.401 793.479 -214.977 878.225C-102.819 965.637 -28.4265 1016.34 60.7891 982.448C150.6 948.329 172.56 861.02 197.794 721.413C222.599 586.053 250.307 433.253 406.732 373.827C562.562 314.627 685.331 410.261 793.754 495.007C905.913 582.419 980.305 633.123 1069.52 599.23C1159.33 565.111 1181.29 477.802 1206.53 338.195C1231.33 202.835 1259.04 50.0347 1415.46 -9.39121C1571.89 -68.8172 1694.06 27.043 1802.49 111.789C1914.64 199.201 1989.04 249.905 2078.25 216.012L2118.71 322.496Z"/></g><g fill="#ffffff" opacity="0.2"><path d="M960.041 79C960.041 79 971.953 194.974 981.699 214.484C992.529 237.245 1064 247 1064 247C1064 247 994.694 258.923 983.865 280.6C973.036 301.194 958.959 415 958.959 415C958.959 415 945.964 296.858 935.135 275.181C925.389 255.671 855 245.916 855 245.916C855 245.916 925.389 233.994 936.218 212.316C947.047 192.806 960.041 79 960.041 79Z"/><path d="M561.041 687C561.041 687 572.953 802.974 582.699 822.484C593.529 845.245 665 855 665 855C665 855 595.694 866.923 584.865 888.6C574.036 909.194 559.959 1023 559.959 1023C559.959 1023 546.964 904.858 536.135 883.181C526.389 863.671 456 853.916 456 853.916C456 853.916 526.389 841.994 537.218 820.316C548.047 800.806 561.041 687 561.041 687Z"/></g><g><path d="M178.635 139.281L184.422 144.246V166.626H215.704L219.958 172.147L215.69 177.397H184.422V198.795L178.635 203.747L173 198.795V144.232L178.635 139.281ZM195.554 195.68H219.406L223.397 200.915L219.143 206.45H195.554L191.7 201.342L195.554 195.68ZM196.382 138H219.129L223.383 143.52L219.129 148.77H196.659L192.115 143.677L196.382 138ZM323.155 148.628L328.251 154.291L323.155 159.968H246.13L241.172 154.291L246.13 148.628H323.155ZM237.043 172.147L241.849 167.893L246.669 172.147V178.393C246.669 188.879 249.417 197.515 261.668 197.515H264.14C275.147 197.515 281.197 189.86 281.197 177.952V172.005L285.879 167.75L290.699 171.862V178.379C290.699 189.007 293.723 196.946 305.56 196.946H307.618C319.178 196.946 321.235 187.869 321.373 177.952V171.578L326.056 167.608L331 171.72V178.094C330.862 191.838 327.285 207.574 308.032 207.574H305.974C294.552 207.574 288.365 202.324 285.892 195.808C283.006 202.466 275.299 208.286 264.844 208.286H262.358C242.553 208.286 237.194 195.964 237.056 178.663V172.147H237.043ZM276.391 274.744L273.642 267.089L280.796 264.969L305.974 276.721V252.491L311.07 248.095L316.291 252.491V281.829L325.641 286.226L328.251 293.311L320.959 296L276.391 274.744ZM321.235 223.011L328.113 226.27L325.917 233.497L264.002 263.119L256.571 260.146L259.596 252.776L321.235 223.011ZM231.905 263.404L237.954 268.512C237.402 286.51 222.403 296 204.669 296H202.874C194.062 296 183.759 292.6 177.157 286.083L177.834 278.855L184.298 278.002C189.118 282.256 195.858 285.229 202.183 285.229H204.117C216.091 285.229 225.303 280.136 226.27 268.085L231.905 263.404ZM226.256 251.638C225.704 239.16 216.629 234.209 204.103 234.209H202.169C194.739 234.209 189.104 237.182 184.284 241.436L177.834 240.583L177.143 233.355C183.745 226.696 192.957 223.58 202.597 223.58H204.517C222.403 223.58 237.402 232.942 237.94 251.211L231.891 256.176L226.256 251.638Z" fill="#ffffff"/></g><path d="M1171 781L1171 339L1187 339L1187 781L1171 781Z" fill="#ffffff"/><g fill="#ffffff" id="info-group"><path d="M167.6400 600L159.1800 600Q158.2800 600 157.6500 599.3700Q157.0200 598.7400 157.0200 597.8400L157.0200 597.8400L157.0200 539.1600Q157.0200 538.2600 157.6500 537.6300Q158.2800 537 159.1800 537L159.1800 537L167.6400 537Q168.6300 537 169.2150 537.6300Q169.8000 538.2600 169.8000 539.1600L169.8000 539.1600L169.8000 597.8400Q169.8000 598.7400 169.2150 599.3700Q168.6300 600 167.6400 600L167.6400 600ZM192.9300 600L185.0100 600Q184.1100 600 183.4800 599.3700Q182.8500 598.7400 182.8500 597.8400L182.8500 597.8400L182.8500 555.3600Q182.8500 554.4600 183.4800 553.8300Q184.1100 553.2000 185.0100 553.2000L185.0100 553.2000L192.3900 553.2000Q193.2900 553.2000 193.9200 553.8300Q194.5500 554.4600 194.5500 555.3600L194.5500 555.3600L194.5500 559.0500Q196.8900 556.1700 200.5350 554.2350Q204.1800 552.3000 209.5800 552.3000L209.5800 552.3000Q215.0700 552.3000 219.1200 554.7750Q223.1700 557.2500 225.3750 561.7500Q227.5800 566.2500 227.5800 572.5500L227.5800 572.5500L227.5800 597.8400Q227.5800 598.7400 226.9500 599.3700Q226.3200 600 225.4200 600L225.4200 600L217.5000 600Q216.6000 600 215.9700 599.3700Q215.3400 598.7400 215.3400 597.8400L215.3400 597.8400L215.3400 573.0900Q215.3400 567.8700 212.7750 564.9000Q210.2100 561.9300 205.3500 561.9300L205.3500 561.9300Q200.6700 561.9300 197.8800 564.9000Q195.0900 567.8700 195.0900 573.0900L195.0900 573.0900L195.0900 597.8400Q195.0900 598.7400 194.4600 599.3700Q193.8300 600 192.9300 600L192.9300 600ZM267.4500 600L260.1600 600Q254.7600 600 251.0700 598.1100Q247.3800 596.2200 245.5800 592.4850Q243.7800 588.7500 243.7800 583.1700L243.7800 583.1700L243.7800 562.7400L236.6700 562.7400Q235.7700 562.7400 235.1400 562.1100Q234.5100 561.4800 234.5100 560.4900L234.5100 560.4900L234.5100 555.3600Q234.5100 554.4600 235.1400 553.8300Q235.7700 553.2000 236.6700 553.2000L236.6700 553.2000L243.7800 553.2000L243.7800 538.2600Q243.7800 537.3600 244.3650 536.7300Q244.9500 536.1000 245.9400 536.1000L245.9400 536.1000L253.2300 536.1000Q254.1300 536.1000 254.7600 536.7300Q255.3900 537.3600 255.3900 538.2600L255.3900 538.2600L255.3900 553.2000L266.6400 553.2000Q267.5400 553.2000 268.1700 553.8300Q268.8000 554.4600 268.8000 555.3600L268.8000 555.3600L268.8000 560.4900Q268.8000 561.4800 268.1700 562.1100Q267.5400 562.7400 266.6400 562.7400L266.6400 562.7400L255.3900 562.7400L255.3900 582.2700Q255.3900 585.9600 256.6950 588.0300Q258 590.1000 261.2400 590.1000L261.2400 590.1000L267.4500 590.1000Q268.3500 590.1000 268.9800 590.7300Q269.6100 591.3600 269.6100 592.2600L269.6100 592.2600L269.6100 597.8400Q269.6100 598.7400 268.9800 599.3700Q268.3500 600 267.4500 600L267.4500 600ZM287.6100 600L279.7800 600Q278.8800 600 278.2500 599.3700Q277.6200 598.7400 277.6200 597.8400L277.6200 597.8400L277.6200 555.4500Q277.6200 554.4600 278.2500 553.8300Q278.8800 553.2000 279.7800 553.2000L279.7800 553.2000L287.0700 553.2000Q287.9700 553.2000 288.6450 553.8300Q289.3200 554.4600 289.3200 555.4500L289.3200 555.4500L289.3200 559.1400Q291.3900 556.2600 294.6750 554.7300Q297.9600 553.2000 302.2800 553.2000L302.2800 553.2000L305.9700 553.2000Q306.9600 553.2000 307.5450 553.8300Q308.1300 554.4600 308.1300 555.3600L308.1300 555.3600L308.1300 561.8400Q308.1300 562.7400 307.5450 563.3700Q306.9600 564 305.9700 564L305.9700 564L298.9500 564Q294.6300 564 292.2450 566.3850Q289.8600 568.7700 289.8600 573.0900L289.8600 573.0900L289.8600 597.8400Q289.8600 598.7400 289.2300 599.3700Q288.6000 600 287.6100 600L287.6100 600ZM335.8500 600.9000L335.8500 600.9000Q328.6500 600.9000 323.7450 598.3800Q318.8400 595.8600 316.2750 591.2700Q313.7100 586.6800 313.3500 580.5600L313.3500 580.5600Q313.2600 578.9400 313.2600 576.6000Q313.2600 574.2600 313.3500 572.6400L313.3500 572.6400Q313.7100 566.4300 316.3650 561.8850Q319.0200 557.3400 323.9250 554.8200Q328.8300 552.3000 335.8500 552.3000L335.8500 552.3000Q342.8700 552.3000 347.7750 554.8200Q352.6800 557.3400 355.3350 561.8850Q357.9900 566.4300 358.3500 572.6400L358.3500 572.6400Q358.4400 574.2600 358.4400 576.6000Q358.4400 578.9400 358.3500 580.5600L358.3500 580.5600Q357.9900 586.6800 355.4250 591.2700Q352.8600 595.8600 347.9550 598.3800Q343.0500 600.9000 335.8500 600.9000ZM335.8500 591.9900L335.8500 591.9900Q340.6200 591.9900 343.2300 588.9750Q345.8400 585.9600 346.1100 580.1100L346.1100 580.1100Q346.2000 578.7600 346.2000 576.6000Q346.2000 574.4400 346.1100 573.0900L346.1100 573.0900Q345.8400 567.2400 343.2300 564.2250Q340.6200 561.2100 335.8500 561.2100L335.8500 561.2100Q331.0800 561.2100 328.4700 564.2250Q325.8600 567.2400 325.5900 573.0900L325.5900 573.0900Q325.5000 574.4400 325.5000 576.6000Q325.5000 578.7600 325.5900 580.1100L325.5900 580.1100Q325.8600 585.9600 328.4700 588.9750Q331.0800 591.9900 335.8500 591.9900ZM385.8000 600.9000L385.8000 600.9000Q381.1200 600.9000 377.5650 599.3250Q374.0100 597.7500 371.6700 594.8700Q369.3300 591.9900 368.0700 588.0750Q366.8100 584.1600 366.6300 579.4800L366.6300 579.4800Q366.5400 577.8600 366.5400 576.5550Q366.5400 575.2500 366.6300 573.6300L366.6300 573.6300Q366.8100 569.1300 368.0250 565.2600Q369.2400 561.3900 371.6250 558.4650Q374.0100 555.5400 377.5650 553.9200Q381.1200 552.3000 385.8000 552.3000L385.8000 552.3000Q390.6600 552.3000 394.0350 553.9650Q397.4100 555.6300 399.6600 558.2400L399.6600 558.2400L399.6600 538.2600Q399.6600 537.3600 400.2450 536.7300Q400.8300 536.1000 401.8200 536.1000L401.8200 536.1000L409.4700 536.1000Q410.3700 536.1000 411 536.7300Q411.6300 537.3600 411.6300 538.2600L411.6300 538.2600L411.6300 597.8400Q411.6300 598.7400 411 599.3700Q410.3700 600 409.4700 600L409.4700 600L402.3600 600Q401.3700 600 400.7850 599.3700Q400.2000 598.7400 400.2000 597.8400L400.2000 597.8400L400.2000 594.5100Q397.9500 597.3000 394.4850 599.1000Q391.0200 600.9000 385.8000 600.9000ZM389.1300 591.2700L389.1300 591.2700Q392.9100 591.2700 395.1600 589.5600Q397.4100 587.8500 398.4900 585.1950Q399.5700 582.5400 399.6600 579.7500L399.6600 579.7500Q399.7500 578.1300 399.7500 576.2850Q399.7500 574.4400 399.6600 572.8200L399.6600 572.8200Q399.5700 570.1200 398.4000 567.6450Q397.2300 565.1700 394.9800 563.5500Q392.7300 561.9300 389.1300 561.9300L389.1300 561.9300Q385.3500 561.9300 383.1450 563.5950Q380.9400 565.2600 379.9500 567.9600Q378.9600 570.6600 378.7800 573.9000L378.7800 573.9000Q378.6900 576.6000 378.7800 579.3000L378.7800 579.3000Q378.9600 582.5400 379.9500 585.2400Q380.9400 587.9400 383.1450 589.6050Q385.3500 591.2700 389.1300 591.2700ZM440.9700 600.9000L440.9700 600.9000Q435.4800 600.9000 431.4750 598.4250Q427.4700 595.9500 425.3100 591.4050Q423.1500 586.8600 423.1500 580.6500L423.1500 580.6500L423.1500 555.3600Q423.1500 554.4600 423.7800 553.8300Q424.4100 553.2000 425.3100 553.2000L425.3100 553.2000L433.2300 553.2000Q434.2200 553.2000 434.8050 553.8300Q435.3900 554.4600 435.3900 555.3600L435.3900 555.3600L435.3900 580.1100Q435.3900 591.2700 445.2000 591.2700L445.2000 591.2700Q449.8800 591.2700 452.6250 588.3000Q455.3700 585.3300 455.3700 580.1100L455.3700 580.1100L455.3700 555.3600Q455.3700 554.4600 456 553.8300Q456.6300 553.2000 457.5300 553.2000L457.5300 553.2000L465.4500 553.2000Q466.3500 553.2000 466.9800 553.8300Q467.6100 554.4600 467.6100 555.3600L467.6100 555.3600L467.6100 597.8400Q467.6100 598.7400 466.9800 599.3700Q466.3500 600 465.4500 600L465.4500 600L458.1600 600Q457.1700 600 456.5850 599.3700Q456 598.7400 456 597.8400L456 597.8400L456 594.1500Q453.5700 597.3000 449.9700 599.1000Q446.3700 600.9000 440.9700 600.9000ZM499.6500 619.8000L499.6500 619.8000Q497.1300 619.7100 495.1950 618.9000Q493.2600 618.0900 492.4050 617.0100Q491.5500 615.9300 492.4500 615.2100L492.4500 615.2100L493.9800 613.8600Q494.7900 613.1400 495.3750 613.4550Q495.9600 613.7700 496.9050 614.3550Q497.8500 614.9400 499.6500 614.9400L499.6500 614.9400Q501 614.9400 501.9900 614.0850Q502.9800 613.2300 502.9800 611.8800L502.9800 611.8800Q502.9800 610.6200 502.0350 609.8100Q501.0900 609 499.6500 609L499.6500 609Q498.3900 609 497.4900 609.3150Q496.5900 609.6300 495.8700 609.7650Q495.1500 609.9000 494.4300 609.1800L494.4300 609.1800L492.8100 607.5600Q492.2700 606.9300 492.4500 606.2550Q492.6300 605.5800 492.9900 604.7700L492.9900 604.7700L494.8800 600.4500Q487.1400 599.2800 482.5500 594.0150Q477.9600 588.7500 477.6900 580.2000L477.6900 580.2000Q477.6000 578.8500 477.6000 576.6450Q477.6000 574.4400 477.6900 573L477.6900 573Q477.9600 566.4300 480.7050 561.7950Q483.4500 557.1600 488.3550 554.7300Q493.2600 552.3000 499.7400 552.3000L499.7400 552.3000Q505.5000 552.3000 509.5500 553.8750Q513.6000 555.4500 516.2100 557.9250Q518.8200 560.4000 520.1250 563.0550Q521.4300 565.7100 521.5200 567.8700L521.5200 567.8700Q521.6100 568.8600 520.9350 569.4450Q520.2600 570.0300 519.3600 570.0300L519.3600 570.0300L511.4400 570.0300Q510.5400 570.0300 510.0450 569.5800Q509.5500 569.1300 509.1000 568.2300L509.1000 568.2300Q507.7500 564.6300 505.5450 563.1450Q503.3400 561.6600 499.9200 561.6600L499.9200 561.6600Q495.4200 561.6600 492.7650 564.4950Q490.1100 567.3300 489.9300 573.4500L489.9300 573.4500Q489.7500 576.8700 489.9300 579.7500L489.9300 579.7500Q490.1100 585.9600 492.7650 588.7500Q495.4200 591.5400 499.9200 591.5400L499.9200 591.5400Q503.4300 591.5400 505.5900 590.0550Q507.7500 588.5700 509.1000 584.9700L509.1000 584.9700Q509.5500 584.0700 510.0450 583.6200Q510.5400 583.1700 511.4400 583.1700L511.4400 583.1700L519.3600 583.1700Q520.2600 583.1700 520.9350 583.7550Q521.6100 584.3400 521.5200 585.3300L521.5200 585.3300Q521.4300 587.3100 520.1700 589.9650Q518.9100 592.6200 516.3900 595.0950Q513.8700 597.5700 509.8200 599.2350Q505.7700 600.9000 500.0100 600.9000L500.0100 600.9000L498.1200 604.7700Q498.6600 604.5000 499.6050 604.3200Q500.5500 604.1400 501.2700 604.1400L501.2700 604.1400Q504.4200 604.1400 506.3550 606.3000Q508.2900 608.4600 508.2900 611.7900L508.2900 611.7900Q508.2900 615.2100 506.0400 617.5500Q503.7900 619.8900 499.6500 619.8000ZM544.4700 600.9000L544.4700 600.9000Q539.7900 600.9000 536.0100 599.0550Q532.2300 597.2100 530.0250 594.1050Q527.8200 591 527.8200 587.1300L527.8200 587.1300Q527.8200 580.8300 532.9500 577.0950Q538.0800 573.3600 546.3600 572.1000L546.3600 572.1000L558.6900 570.3000L558.6900 568.4100Q558.6900 564.6300 556.8000 562.5600Q554.9100 560.4900 550.3200 560.4900L550.3200 560.4900Q547.0800 560.4900 545.0550 561.7950Q543.0300 563.1000 542.0400 565.2600L542.0400 565.2600Q541.3200 566.4300 539.9700 566.4300L539.9700 566.4300L532.8600 566.4300Q531.8700 566.4300 531.3750 565.8900Q530.8800 565.3500 530.8800 564.4500L530.8800 564.4500Q530.9700 563.0100 532.0950 560.9400Q533.2200 558.8700 535.5150 556.9350Q537.8100 555 541.5000 553.6500Q545.1900 552.3000 550.4100 552.3000L550.4100 552.3000Q556.0800 552.3000 559.9950 553.6950Q563.9100 555.0900 566.2500 557.4300Q568.5900 559.7700 569.6700 562.9200Q570.7500 566.0700 570.7500 569.5800L570.7500 569.5800L570.7500 597.8400Q570.7500 598.7400 570.1200 599.3700Q569.4900 600 568.5900 600L568.5900 600L561.3000 600Q560.3100 600 559.7250 599.3700Q559.1400 598.7400 559.1400 597.8400L559.1400 597.8400L559.1400 594.3300Q557.9700 595.9500 555.9900 597.4800Q554.0100 599.0100 551.1750 599.9550Q548.3400 600.9000 544.4700 600.9000ZM547.5300 592.3500L547.5300 592.3500Q550.6800 592.3500 553.2450 591Q555.8100 589.6500 557.2950 586.8150Q558.7800 583.9800 558.7800 579.6600L558.7800 579.6600L558.7800 577.7700L549.7800 579.2100Q544.4700 580.0200 541.8600 581.8200Q539.2500 583.6200 539.2500 586.2300L539.2500 586.2300Q539.2500 588.2100 540.4650 589.6050Q541.6800 591 543.5700 591.6750Q545.4600 592.3500 547.5300 592.3500ZM555.3600 546.9000L555.3600 546.9000Q553.0200 546.9000 551.5800 546.1350Q550.1400 545.3700 548.9250 544.5600Q547.7100 543.7500 546.2700 543.7500L546.2700 543.7500Q545.1000 543.7500 544.6050 544.4250Q544.1100 545.1000 543.6600 545.7750Q543.2100 546.4500 542.2200 546.4500L542.2200 546.4500L538.0800 546.4500Q537.4500 546.4500 537 546Q536.5500 545.5500 536.5500 544.9200L536.5500 544.9200Q536.5500 543.5700 537.0450 541.9050Q537.5400 540.2400 538.6200 538.7100Q539.7000 537.1800 541.3650 536.2350Q543.0300 535.2900 545.2800 535.2900L545.2800 535.2900Q547.7100 535.2900 549.1500 536.0550Q550.5900 536.8200 551.8050 537.6300Q553.0200 538.4400 554.4600 538.4400L554.4600 538.4400Q555.6300 538.4400 556.1250 537.7200Q556.6200 537 557.0700 536.3250Q557.5200 535.6500 558.5100 535.6500L558.5100 535.6500L562.6500 535.6500Q563.3700 535.6500 563.7750 536.1450Q564.1800 536.6400 564.1800 537.2700L564.1800 537.2700Q564.1800 538.6200 563.6850 540.2850Q563.1900 541.9500 562.1100 543.4800Q561.0300 545.0100 559.3650 545.9550Q557.7000 546.9000 555.3600 546.9000ZM602.9700 600.9000L602.9700 600.9000Q595.7700 600.9000 590.8650 598.3800Q585.9600 595.8600 583.3950 591.2700Q580.8300 586.6800 580.4700 580.5600L580.4700 580.5600Q580.3800 578.9400 580.3800 576.6000Q580.3800 574.2600 580.4700 572.6400L580.4700 572.6400Q580.8300 566.4300 583.4850 561.8850Q586.1400 557.3400 591.0450 554.8200Q595.9500 552.3000 602.9700 552.3000L602.9700 552.3000Q609.9900 552.3000 614.8950 554.8200Q619.8000 557.3400 622.4550 561.8850Q625.1100 566.4300 625.4700 572.6400L625.4700 572.6400Q625.5600 574.2600 625.5600 576.6000Q625.5600 578.9400 625.4700 580.5600L625.4700 580.5600Q625.1100 586.6800 622.5450 591.2700Q619.9800 595.8600 615.0750 598.3800Q610.1700 600.9000 602.9700 600.9000ZM602.9700 591.9900L602.9700 591.9900Q607.7400 591.9900 610.3500 588.9750Q612.9600 585.9600 613.2300 580.1100L613.2300 580.1100Q613.3200 578.7600 613.3200 576.6000Q613.3200 574.4400 613.2300 573.0900L613.2300 573.0900Q612.9600 567.2400 610.3500 564.2250Q607.7400 561.2100 602.9700 561.2100L602.9700 561.2100Q598.2000 561.2100 595.5900 564.2250Q592.9800 567.2400 592.7100 573.0900L592.7100 573.0900Q592.6200 574.4400 592.6200 576.6000Q592.6200 578.7600 592.7100 580.1100L592.7100 580.1100Q592.9800 585.9600 595.5900 588.9750Q598.2000 591.9900 602.9700 591.9900ZM669.7500 600.9000L669.7500 600.9000Q665.0700 600.9000 661.2900 599.0550Q657.5100 597.2100 655.3050 594.1050Q653.1000 591 653.1000 587.1300L653.1000 587.1300Q653.1000 580.8300 658.2300 577.0950Q663.3600 573.3600 671.6400 572.1000L671.6400 572.1000L683.9700 570.3000L683.9700 568.4100Q683.9700 564.6300 682.0800 562.5600Q680.1900 560.4900 675.6000 560.4900L675.6000 560.4900Q672.3600 560.4900 670.3350 561.7950Q668.3100 563.1000 667.3200 565.2600L667.3200 565.2600Q666.6000 566.4300 665.2500 566.4300L665.2500 566.4300L658.1400 566.4300Q657.1500 566.4300 656.6550 565.8900Q656.1600 565.3500 656.1600 564.4500L656.1600 564.4500Q656.2500 563.0100 657.3750 560.9400Q658.5000 558.8700 660.7950 556.9350Q663.0900 555 666.7800 553.6500Q670.4700 552.3000 675.6900 552.3000L675.6900 552.3000Q681.3600 552.3000 685.2750 553.6950Q689.1900 555.0900 691.5300 557.4300Q693.8700 559.7700 694.9500 562.9200Q696.0300 566.0700 696.0300 569.5800L696.0300 569.5800L696.0300 597.8400Q696.0300 598.7400 695.4000 599.3700Q694.7700 600 693.8700 600L693.8700 600L686.5800 600Q685.5900 600 685.0050 599.3700Q684.4200 598.7400 684.4200 597.8400L684.4200 597.8400L684.4200 594.3300Q683.2500 595.9500 681.2700 597.4800Q679.2900 599.0100 676.4550 599.9550Q673.6200 600.9000 669.7500 600.9000ZM672.8100 592.3500L672.8100 592.3500Q675.9600 592.3500 678.5250 591Q681.0900 589.6500 682.5750 586.8150Q684.0600 583.9800 684.0600 579.6600L684.0600 579.6600L684.0600 577.7700L675.0600 579.2100Q669.7500 580.0200 667.1400 581.8200Q664.5300 583.6200 664.5300 586.2300L664.5300 586.2300Q664.5300 588.2100 665.7450 589.6050Q666.9600 591 668.8500 591.6750Q670.7400 592.3500 672.8100 592.3500ZM728.2500 600.9000L728.2500 600.9000Q721.0500 600.9000 716.1450 598.3800Q711.2400 595.8600 708.6750 591.2700Q706.1100 586.6800 705.7500 580.5600L705.7500 580.5600Q705.6600 578.9400 705.6600 576.6000Q705.6600 574.2600 705.7500 572.6400L705.7500 572.6400Q706.1100 566.4300 708.7650 561.8850Q711.4200 557.3400 716.3250 554.8200Q721.2300 552.3000 728.2500 552.3000L728.2500 552.3000Q735.2700 552.3000 740.1750 554.8200Q745.0800 557.3400 747.7350 561.8850Q750.3900 566.4300 750.7500 572.6400L750.7500 572.6400Q750.8400 574.2600 750.8400 576.6000Q750.8400 578.9400 750.7500 580.5600L750.7500 580.5600Q750.3900 586.6800 747.8250 591.2700Q745.2600 595.8600 740.3550 598.3800Q735.4500 600.9000 728.2500 600.9000ZM728.2500 591.9900L728.2500 591.9900Q733.0200 591.9900 735.6300 588.9750Q738.2400 585.9600 738.5100 580.1100L738.5100 580.1100Q738.6000 578.7600 738.6000 576.6000Q738.6000 574.4400 738.5100 573.0900L738.5100 573.0900Q738.2400 567.2400 735.6300 564.2250Q733.0200 561.2100 728.2500 561.2100L728.2500 561.2100Q723.4800 561.2100 720.8700 564.2250Q718.2600 567.2400 717.9900 573.0900L717.9900 573.0900Q717.9000 574.4400 717.9000 576.6000Q717.9000 578.7600 717.9900 580.1100L717.9900 580.1100Q718.2600 585.9600 720.8700 588.9750Q723.4800 591.9900 728.2500 591.9900ZM823.7400 600L784.6800 600Q783.7800 600 783.1500 599.3700Q782.5200 598.7400 782.5200 597.8400L782.5200 597.8400L782.5200 539.1600Q782.5200 538.2600 783.1500 537.6300Q783.7800 537 784.6800 537L784.6800 537L793.0500 537Q793.9500 537 794.5800 537.6300Q795.2100 538.2600 795.2100 539.1600L795.2100 539.1600L795.2100 589.2900L823.7400 589.2900Q824.7300 589.2900 825.3600 589.9200Q825.9900 590.5500 825.9900 591.5400L825.9900 591.5400L825.9900 597.8400Q825.9900 598.7400 825.3600 599.3700Q824.7300 600 823.7400 600L823.7400 600ZM843.2700 600L835.8000 600Q834.9000 600 834.2700 599.3700Q833.6400 598.7400 833.6400 597.8400L833.6400 597.8400L833.6400 555.3600Q833.6400 554.4600 834.2700 553.8300Q834.9000 553.2000 835.8000 553.2000L835.8000 553.2000L843.2700 553.2000Q844.2600 553.2000 844.8450 553.8300Q845.4300 554.4600 845.4300 555.3600L845.4300 555.3600L845.4300 597.8400Q845.4300 598.7400 844.8450 599.3700Q844.2600 600 843.2700 600L843.2700 600ZM843.6300 545.4600L835.4400 545.4600Q834.5400 545.4600 833.9100 544.8300Q833.2800 544.2000 833.2800 543.3000L833.2800 543.3000L833.2800 536.8200Q833.2800 535.9200 833.9100 535.2900Q834.5400 534.6600 835.4400 534.6600L835.4400 534.6600L843.6300 534.6600Q844.6200 534.6600 845.2500 535.2900Q845.8800 535.9200 845.8800 536.8200L845.8800 536.8200L845.8800 543.3000Q845.8800 544.2000 845.2500 544.8300Q844.6200 545.4600 843.6300 545.4600L843.6300 545.4600ZM867.4800 600L859.5600 600Q858.6600 600 858.0300 599.3700Q857.4000 598.7400 857.4000 597.8400L857.4000 597.8400L857.4000 555.3600Q857.4000 554.4600 858.0300 553.8300Q858.6600 553.2000 859.5600 553.2000L859.5600 553.2000L866.9400 553.2000Q867.8400 553.2000 868.4700 553.8300Q869.1000 554.4600 869.1000 555.3600L869.1000 555.3600L869.1000 559.0500Q871.4400 556.1700 875.0850 554.2350Q878.7300 552.3000 884.1300 552.3000L884.1300 552.3000Q889.6200 552.3000 893.6700 554.7750Q897.7200 557.2500 899.9250 561.7500Q902.1300 566.2500 902.1300 572.5500L902.1300 572.5500L902.1300 597.8400Q902.1300 598.7400 901.5000 599.3700Q900.8700 600 899.9700 600L899.9700 600L892.0500 600Q891.1500 600 890.5200 599.3700Q889.8900 598.7400 889.8900 597.8400L889.8900 597.8400L889.8900 573.0900Q889.8900 567.8700 887.3250 564.9000Q884.7600 561.9300 879.9000 561.9300L879.9000 561.9300Q875.2200 561.9300 872.4300 564.9000Q869.6400 567.8700 869.6400 573.0900L869.6400 573.0900L869.6400 597.8400Q869.6400 598.7400 869.0100 599.3700Q868.3800 600 867.4800 600L867.4800 600ZM930.9300 600.9000L930.9300 600.9000Q925.4400 600.9000 921.4350 598.4250Q917.4300 595.9500 915.2700 591.4050Q913.1100 586.8600 913.1100 580.6500L913.1100 580.6500L913.1100 555.3600Q913.1100 554.4600 913.7400 553.8300Q914.3700 553.2000 915.2700 553.2000L915.2700 553.2000L923.1900 553.2000Q924.1800 553.2000 924.7650 553.8300Q925.3500 554.4600 925.3500 555.3600L925.3500 555.3600L925.3500 580.1100Q925.3500 591.2700 935.1600 591.2700L935.1600 591.2700Q939.8400 591.2700 942.5850 588.3000Q945.3300 585.3300 945.3300 580.1100L945.3300 580.1100L945.3300 555.3600Q945.3300 554.4600 945.9600 553.8300Q946.5900 553.2000 947.4900 553.2000L947.4900 553.2000L955.4100 553.2000Q956.3100 553.2000 956.9400 553.8300Q957.5700 554.4600 957.5700 555.3600L957.5700 555.3600L957.5700 597.8400Q957.5700 598.7400 956.9400 599.3700Q956.3100 600 955.4100 600L955.4100 600L948.1200 600Q947.1300 600 946.5450 599.3700Q945.9600 598.7400 945.9600 597.8400L945.9600 597.8400L945.9600 594.1500Q943.5300 597.3000 939.9300 599.1000Q936.3300 600.9000 930.9300 600.9000ZM975.3900 600L967.4700 600Q966.6600 600 966.0750 599.4150Q965.4900 598.8300 965.4900 598.0200L965.4900 598.0200Q965.4900 597.7500 965.6250 597.3900Q965.7600 597.0300 966.1200 596.4900L966.1200 596.4900L981.4200 575.9700L967.2000 556.7100Q966.9300 556.2600 966.7950 555.9000Q966.6600 555.5400 966.6600 555.1800L966.6600 555.1800Q966.6600 554.3700 967.2450 553.7850Q967.8300 553.2000 968.6400 553.2000L968.6400 553.2000L976.4700 553.2000Q977.5500 553.2000 978.0900 553.7400Q978.6300 554.2800 978.9000 554.7300L978.9000 554.7300L989.0700 568.2300L999.2400 554.7300Q999.6000 554.2800 1000.0950 553.7400Q1000.5900 553.2000 1001.6700 553.2000L1001.6700 553.2000L1009.1400 553.2000Q1009.9500 553.2000 1010.5350 553.7850Q1011.1200 554.3700 1011.1200 555.0900L1011.1200 555.0900Q1011.1200 555.5400 1010.9850 555.9000Q1010.8500 556.2600 1010.5800 556.7100L1010.5800 556.7100L996.1800 576.1500L1011.5700 596.4900Q1011.9300 597.0300 1012.0650 597.3900Q1012.2000 597.7500 1012.2000 598.0200L1012.2000 598.0200Q1012.2000 598.8300 1011.6150 599.4150Q1011.0300 600 1010.2200 600L1010.2200 600L1002.0300 600Q1001.0400 600 1000.5000 599.5050Q999.9600 599.0100 999.6000 598.5600L999.6000 598.5600L988.8000 584.2500L977.8200 598.5600Q977.4600 599.0100 976.9650 599.5050Q976.4700 600 975.3900 600L975.3900 600Z" id="title"/><path d="M1448.3200 650L1426.4800 650Q1423.8400 650 1422.2800 648.3200Q1420.7200 646.6400 1420.7200 644.2400L1420.7200 644.2400L1420.7200 519.9200L1384.2400 548Q1382.0800 549.4400 1379.9200 549.0800Q1377.7600 548.7200 1376.0800 546.5600L1376.0800 546.5600L1366 533.6000Q1364.5600 531.4400 1364.9200 529.0400Q1365.2800 526.6400 1367.4400 525.2000L1367.4400 525.2000L1421.2000 483.6800Q1422.6400 482.4800 1424.0800 482.2400Q1425.5200 482 1427.2000 482L1427.2000 482L1448.3200 482Q1450.7200 482 1452.4000 483.6800Q1454.0800 485.3600 1454.0800 487.7600L1454.0800 487.7600L1454.0800 644.2400Q1454.0800 646.6400 1452.4000 648.3200Q1450.7200 650 1448.3200 650L1448.3200 650ZM1515.2800 650L1491.2800 650Q1488.8800 650 1487.2000 648.3200Q1485.5200 646.6400 1485.5200 644.2400L1485.5200 644.2400L1485.5200 620.4800Q1485.5200 617.8400 1487.2000 616.1600Q1488.8800 614.4800 1491.2800 614.4800L1491.2800 614.4800L1515.2800 614.4800Q1517.6800 614.4800 1519.3600 616.1600Q1521.0400 617.8400 1521.0400 620.4800L1521.0400 620.4800L1521.0400 644.2400Q1521.0400 646.6400 1519.3600 648.3200Q1517.6800 650 1515.2800 650L1515.2800 650ZM1648.4800 650L1627.6000 650Q1625.2000 650 1623.5200 648.3200Q1621.8400 646.6400 1621.8400 644.2400L1621.8400 644.2400L1621.8400 613.5200L1545.7600 613.5200Q1543.1200 613.5200 1541.5600 611.8400Q1540.0000 610.1600 1540.0000 607.7600L1540.0000 607.7600L1540.0000 591.4400Q1540.0000 590 1540.6000 587.9600Q1541.2000 585.9200 1542.6400 584.2400L1542.6400 584.2400L1613.4400 486.0800Q1616.5600 482 1622.3200 482L1622.3200 482L1648.4800 482Q1650.8800 482 1652.5600 483.6800Q1654.2400 485.3600 1654.2400 487.7600L1654.2400 487.7600L1654.2400 585.2000L1675.6000 585.2000Q1678.4800 585.2000 1680.0400 586.7600Q1681.6000 588.3200 1681.6000 590.9600L1681.6000 590.9600L1681.6000 607.7600Q1681.6000 610.1600 1679.9200 611.8400Q1678.2400 613.5200 1675.8400 613.5200L1675.8400 613.5200L1654.2400 613.5200L1654.2400 644.2400Q1654.2400 646.6400 1652.5600 648.3200Q1650.8800 650 1648.4800 650L1648.4800 650ZM1622.5600 516.8000L1573.3600 586.1600L1622.5600 586.1600L1622.5600 516.8000Z" id="lecture-full-number"/></g></svg>