<svg xmlns="http://www.w3.org/2000/svg" version="1.1" xmlns:xlink="http://www.w3.org/1999/xlink" xmlns:svgjs="http://svgjs.dev/svgjs" viewBox="0 0 1920 1080" id="c61be506-f4aa-4f3a-a286-f80787bb38bf"><g><rect width="1920" height="1080" fill="#3e517a"/></g><g fill="#865070"><path d="M2118.71 322.496C1962.88 381.696 1840.11 286.062 1731.68 201.315C1619.52 113.904 1545.13 63.1995 1455.92 97.0926C1366.11 131.212 1344.15 218.52 1318.91 358.127C1294.11 493.487 1265.8 646.514 1109.97 705.714C954.144 764.914 831.375 669.28 722.951 584.533C610.793 497.122 536.401 446.418 447.185 480.311C357.375 514.43 335.414 601.738 310.18 741.346C285.375 876.706 257.072 1029.73 101.242 1088.93C-54.5876 1148.13 -177.357 1052.5 -285.78 967.751C-397.344 880.114 -471.736 829.41 -561.547 863.529L-602 757.045C-446.17 697.845 -323.401 793.479 -214.977 878.225C-102.819 965.637 -28.4265 1016.34 60.7891 982.448C150.6 948.329 172.56 861.02 197.794 721.413C222.599 586.053 250.307 433.253 406.732 373.827C562.562 314.627 685.331 410.261 793.754 495.007C905.913 582.419 980.305 633.123 1069.52 599.23C1159.33 565.111 1181.29 477.802 1206.53 338.195C1231.33 202.835 1259.04 50.0347 1415.46 -9.39121C1571.89 -68.8172 1694.06 27.043 1802.49 111.789C1914.64 199.201 1989.04 249.905 2078.25 216.012L2118.71 322.496Z"/></g><g fill="#ffffff" opacity="0.2"><path d="M960.041 79C960.041 79 971.953 194.974 981.699 214.484C992.529 237.245 1064 247 1064 247C1064 247 994.694 258.923 983.865 280.6C973.036 301.194 958.959 415 958.959 415C958.959 415 945.964 296.858 935.135 275.181C925.389 255.671 855 245.916 855 245.916C855 245.916 925.389 233.994 936.218 212.316C947.047 192.806 960.041 79 960.041 79Z"/><path d="M561.041 687C561.041 687 572.953 802.974 582.699 822.484C593.529 845.245 665 855 665 855C665 855 595.694 866.923 584.865 888.6C574.036 909.194 559.959 1023 559.959 1023C559.959 1023 546.964 904.858 536.135 883.181C526.389 863.671 456 853.916 456 853.916C456 853.916 526.389 841.994 537.218 820.316C548.047 800.806 561.041 687 561.041 687Z"/></g><g><path d="M178.635 139.281L184.422 144.246V166.626H215.704L219.958 172.147L215.69 177.397H184.422V198.795L178.635 203.747L173 198.795V144.232L178.635 139.281ZM195.554 195.68H219.406L223.397 200.915L219.143 206.45H195.554L191.7 201.342L195.554 195.68ZM196.382 138H219.129L223.383 143.52L219.129 148.77H196.659L192.115 143.677L196.382 138ZM323.155 148.628L328.251 154.291L323.155 159.968H246.13L241.172 154.291L246.13 148.628H323.155ZM237.043 172.147L241.849 167.893L246.669 172.147V178.393C246.669 188.879 249.417 197.515 261.668 197.515H264.14C275.147 197.515 281.197 189.86 281.197 177.952V172.005L285.879 167.75L290.699 171.862V178.379C290.699 189.007 293.723 196.946 305.56 196.946H307.618C319.178 196.946 321.235 187.869 321.373 177.952V171.578L326.056 167.608L331 171.72V178.094C330.862 191.838 327.285 207.574 308.032 207.574H305.974C294.552 207.574 288.365 202.324 285.892 195.808C283.006 202.466 275.299 208.286 264.844 208.286H262.358C242.553 208.286 237.194 195.964 237.056 178.663V172.147H237.043ZM276.391 274.744L273.642 267.089L280.796 264.969L305.974 276.721V252.491L311.07 248.095L316.291 252.491V281.829L325.641 286.226L328.251 293.311L320.959 296L276.391 274.744ZM321.235 223.011L328.113 226.27L325.917 233.497L264.002 263.119L256.571 260.146L259.596 252.776L321.235 223.011ZM231.905 263.404L237.954 268.512C237.402 286.51 222.403 296 204.669 296H202.874C194.062 296 183.759 292.6 177.157 286.083L177.834 278.855L184.298 278.002C189.118 282.256 195.858 285.229 202.183 285.229H204.117C216.091 285.229 225.303 280.136 226.27 268.085L231.905 263.404ZM226.256 251.638C225.704 239.16 216.629 234.209 204.103 234.209H202.169C194.739 234.209 189.104 237.182 184.284 241.436L177.834 240.583L177.143 233.355C183.745 226.696 192.957 223.58 202.597 223.58H204.517C222.403 223.58 237.402 232.942 237.94 251.211L231.891 256.176L226.256 251.638Z" fill="#ffffff"/></g><g fill="#ffffff" id="info-group"><path d="M167.0800 360L154.9000 360Q153.7800 360 152.8700 359.1600Q151.9600 358.3200 151.9600 357.0600L151.9600 357.0600Q151.9600 356.5000 152.2400 355.8000L152.2400 355.8000L185.9800 265.5000Q186.4000 264.1000 187.5900 263.0500Q188.7800 262 190.8800 262L190.8800 262L206.1400 262Q208.2400 262 209.3600 263.0500Q210.4800 264.1000 211.0400 265.5000L211.0400 265.5000L244.7800 355.8000Q244.9200 356.5000 244.9200 357.0600L244.9200 357.0600Q244.9200 358.3200 244.0800 359.1600Q243.2400 360 242.1200 360L242.1200 360L229.9400 360Q227.9800 360 227.0700 359.0900Q226.1600 358.1800 225.8800 357.3400L225.8800 357.3400L219.3000 340.2600L177.7200 340.2600L171.1400 357.3400Q170.8600 358.1800 169.9500 359.0900Q169.0400 360 167.0800 360L167.0800 360ZM198.4400 280.9000L182.6200 324.1600L214.4000 324.1600L198.4400 280.9000ZM283.2800 361.4000L283.2800 361.4000Q274.7400 361.4000 268.5100 357.5500Q262.2800 353.7000 258.9200 346.6300Q255.5600 339.5600 255.5600 329.9000L255.5600 329.9000L255.5600 290.5600Q255.5600 289.1600 256.5400 288.1800Q257.5200 287.2000 258.9200 287.2000L258.9200 287.2000L271.2400 287.2000Q272.7800 287.2000 273.6900 288.1800Q274.6000 289.1600 274.6000 290.5600L274.6000 290.5600L274.6000 329.0600Q274.6000 346.4200 289.8600 346.4200L289.8600 346.4200Q297.1400 346.4200 301.4100 341.8000Q305.6800 337.1800 305.6800 329.0600L305.6800 329.0600L305.6800 290.5600Q305.6800 289.1600 306.6600 288.1800Q307.6400 287.2000 309.0400 287.2000L309.0400 287.2000L321.3600 287.2000Q322.7600 287.2000 323.7400 288.1800Q324.7200 289.1600 324.7200 290.5600L324.7200 290.5600L324.7200 356.6400Q324.7200 358.0400 323.7400 359.0200Q322.7600 360 321.3600 360L321.3600 360L310.0200 360Q308.4800 360 307.5700 359.0200Q306.6600 358.0400 306.6600 356.6400L306.6600 356.6400L306.6600 350.9000Q302.8800 355.8000 297.2800 358.6000Q291.6800 361.4000 283.2800 361.4000ZM358.3200 360L346.7000 360Q345.3000 360 344.3200 359.0200Q343.3400 358.0400 343.3400 356.6400L343.3400 356.6400L343.3400 263.9600Q343.3400 262.5600 344.3200 261.5800Q345.3000 260.6000 346.7000 260.6000L346.7000 260.6000L358.3200 260.6000Q359.7200 260.6000 360.7000 261.5800Q361.6800 262.5600 361.6800 263.9600L361.6800 263.9600L361.6800 356.6400Q361.6800 358.0400 360.7000 359.0200Q359.7200 360 358.3200 360L358.3200 360ZM401.4400 361.4000L401.4400 361.4000Q394.1600 361.4000 388.2800 358.5300Q382.4000 355.6600 378.9700 350.8300Q375.5400 346 375.5400 339.9800L375.5400 339.9800Q375.5400 330.1800 383.5200 324.3700Q391.5000 318.5600 404.3800 316.6000L404.3800 316.6000L423.5600 313.8000L423.5600 310.8600Q423.5600 304.9800 420.6200 301.7600Q417.6800 298.5400 410.5400 298.5400L410.5400 298.5400Q405.5000 298.5400 402.3500 300.5700Q399.2000 302.6000 397.6600 305.9600L397.6600 305.9600Q396.5400 307.7800 394.4400 307.7800L394.4400 307.7800L383.3800 307.7800Q381.8400 307.7800 381.0700 306.9400Q380.3000 306.1000 380.3000 304.7000L380.3000 304.7000Q380.4400 302.4600 382.1900 299.2400Q383.9400 296.0200 387.5100 293.0100Q391.0800 290 396.8200 287.9000Q402.5600 285.8000 410.6800 285.8000L410.6800 285.8000Q419.5000 285.8000 425.5900 287.9700Q431.6800 290.1400 435.3200 293.7800Q438.9600 297.4200 440.6400 302.3200Q442.3200 307.2200 442.3200 312.6800L442.3200 312.6800L442.3200 356.6400Q442.3200 358.0400 441.3400 359.0200Q440.3600 360 438.9600 360L438.9600 360L427.6200 360Q426.0800 360 425.1700 359.0200Q424.2600 358.0400 424.2600 356.6400L424.2600 356.6400L424.2600 351.1800Q422.4400 353.7000 419.3600 356.0800Q416.2800 358.4600 411.8700 359.9300Q407.4600 361.4000 401.4400 361.4000ZM406.2000 348.1000L406.2000 348.1000Q411.1000 348.1000 415.0900 346Q419.0800 343.9000 421.3900 339.4900Q423.7000 335.0800 423.7000 328.3600L423.7000 328.3600L423.7000 325.4200L409.7000 327.6600Q401.4400 328.9200 397.3800 331.7200Q393.3200 334.5200 393.3200 338.5800L393.3200 338.5800Q393.3200 341.6600 395.2100 343.8300Q397.1000 346 400.0400 347.0500Q402.9800 348.1000 406.2000 348.1000ZM525.9000 361.5400L525.9000 361.5400Q513.8600 361.5400 505.6000 357.5500Q497.3400 353.5600 493.0700 347.1200Q488.8000 340.6800 488.5200 333.4000L488.5200 333.4000Q488.3800 332.1400 489.2900 331.3700Q490.2000 330.6000 491.4600 330.6000L491.4600 330.6000L504.4800 330.6000Q506.0200 330.6000 507.0700 331.2300Q508.1200 331.8600 508.6800 333.4000L508.6800 333.4000Q510.0800 337.6000 512.6700 340.2600Q515.2600 342.9200 518.6900 344.1800Q522.1200 345.4400 525.9000 345.4400L525.9000 345.4400Q530.9400 345.4400 535.0700 343.4100Q539.2000 341.3800 541.7200 337.3200Q544.2400 333.2600 544.2400 327.3800L544.2400 327.3800Q544.2400 322.2000 541.8600 318.4200Q539.4800 314.6400 535.3500 312.4700Q531.2200 310.3000 525.9000 310.3000L525.9000 310.3000Q521.9800 310.3000 519.4600 311.2800Q516.9400 312.2600 515.1900 313.5200Q513.4400 314.7800 512.1100 315.7600Q510.7800 316.7400 509.1000 316.7400L509.1000 316.7400L496.2200 316.7400Q494.9600 316.7400 494.0500 315.8300Q493.1400 314.9200 493.1400 313.6600L493.1400 313.6600L498.0400 265.7800Q498.1800 263.9600 499.3000 262.9800Q500.4200 262 501.9600 262L501.9600 262L554.6000 262Q556.0000 262 556.9800 262.9800Q557.9600 263.9600 557.9600 265.3600L557.9600 265.3600L557.9600 274.7400Q557.9600 276.1400 556.9800 277.1200Q556.0000 278.1000 554.6000 278.1000L554.6000 278.1000L514.1400 278.1000L511.9000 300.9200Q514.4200 299.2400 518.6200 297.7000Q522.8200 296.1600 530.2400 296.1600L530.2400 296.1600Q536.9600 296.1600 543.0500 298.3300Q549.1400 300.5000 553.9000 304.6300Q558.6600 308.7600 561.3900 314.5700Q564.1200 320.3800 564.1200 327.8000L564.1200 327.8000Q564.1200 338.0200 559.3600 345.5800Q554.6000 353.1400 546.0600 357.3400Q537.5200 361.5400 525.9000 361.5400ZM595.9000 311L582.0400 311Q580.6400 311 579.6600 310.0200Q578.6800 309.0400 578.6800 307.6400L578.6800 307.6400L578.6800 294.3400Q578.6800 292.8000 579.6600 291.8200Q580.6400 290.8400 582.0400 290.8400L582.0400 290.8400L595.9000 290.8400Q597.4400 290.8400 598.4200 291.8200Q599.4000 292.8000 599.4000 294.3400L599.4000 294.3400L599.4000 307.6400Q599.4000 309.0400 598.4200 310.0200Q597.4400 311 595.9000 311L595.9000 311ZM595.9000 360L582.0400 360Q580.6400 360 579.6600 359.0200Q578.6800 358.0400 578.6800 356.6400L578.6800 356.6400L578.6800 343.3400Q578.6800 341.8000 579.6600 340.8200Q580.6400 339.8400 582.0400 339.8400L582.0400 339.8400L595.9000 339.8400Q597.4400 339.8400 598.4200 340.8200Q599.4000 341.8000 599.4000 343.3400L599.4000 343.3400L599.4000 356.6400Q599.4000 358.0400 598.4200 359.0200Q597.4400 360 595.9000 360L595.9000 360ZM690.2600 361.4000L690.2600 361.4000Q678.0800 361.4000 669.1200 357.2700Q660.1600 353.1400 655.2600 344.5300Q650.3600 335.9200 650.3600 322.4800L650.3600 322.4800L650.3600 265.5000Q650.3600 263.9600 651.3400 262.9800Q652.3200 262 653.7200 262L653.7200 262L666.4600 262Q668.0000 262 668.9100 262.9800Q669.8200 263.9600 669.8200 265.5000L669.8200 265.5000L669.8200 322.4800Q669.8200 333.9600 675.2800 339.4900Q680.7400 345.0200 690.2600 345.0200L690.2600 345.0200Q699.7800 345.0200 705.1700 339.4900Q710.5600 333.9600 710.5600 322.4800L710.5600 322.4800L710.5600 265.5000Q710.5600 263.9600 711.5400 262.9800Q712.5200 262 714.0600 262L714.0600 262L726.6600 262Q728.2000 262 729.1100 262.9800Q730.0200 263.9600 730.0200 265.5000L730.0200 265.5000L730.0200 322.4800Q730.0200 335.9200 725.1900 344.5300Q720.3600 353.1400 711.4700 357.2700Q702.5800 361.4000 690.2600 361.4000ZM776.9200 361.4000L776.9200 361.4000Q768.5200 361.4000 762.5700 359.4400Q756.6200 357.4800 752.8400 354.5400Q749.0600 351.6000 747.2400 348.6600Q745.4200 345.7200 745.2800 343.7600L745.2800 343.7600Q745.1400 342.2200 746.1900 341.3100Q747.2400 340.4000 748.5000 340.4000L748.5000 340.4000L759.5600 340.4000Q760.1200 340.4000 760.5400 340.5400Q760.9600 340.6800 761.6600 341.3800L761.6600 341.3800Q763.4800 342.9200 765.5100 344.6000Q767.5400 346.2800 770.3400 347.4700Q773.1400 348.6600 777.3400 348.6600L777.3400 348.6600Q782.8000 348.6600 786.5100 346.4900Q790.2200 344.3200 790.2200 340.2600L790.2200 340.2600Q790.2200 337.3200 788.6100 335.5000Q787.0000 333.6800 782.6600 332.2100Q778.3200 330.7400 770.3400 329.0600L770.3400 329.0600Q762.5000 327.2400 757.3200 324.4400Q752.1400 321.6400 749.6200 317.4400Q747.1000 313.2400 747.1000 307.6400L747.1000 307.6400Q747.1000 302.1800 750.3900 297.2100Q753.6800 292.2400 760.1900 289.0200Q766.7000 285.8000 776.3600 285.8000L776.3600 285.8000Q783.9200 285.8000 789.5200 287.6900Q795.1200 289.5800 798.8300 292.3800Q802.5400 295.1800 804.5000 298.0500Q806.4600 300.9200 806.6000 303.0200L806.6000 303.0200Q806.7400 304.5600 805.7600 305.4700Q804.7800 306.3800 803.5200 306.3800L803.5200 306.3800L793.1600 306.3800Q792.4600 306.3800 791.9000 306.1000Q791.3400 305.8200 790.7800 305.4000L790.7800 305.4000Q789.2400 304 787.4200 302.3900Q785.6000 300.7800 783.0100 299.6600Q780.4200 298.5400 776.2200 298.5400L776.2200 298.5400Q770.9000 298.5400 768.1000 300.8500Q765.3000 303.1600 765.3000 306.6600L765.3000 306.6600Q765.3000 309.0400 766.6300 310.7900Q767.9600 312.5400 772.0200 314.0800Q776.0800 315.6200 784.3400 317.3000L784.3400 317.3000Q793.7200 318.9800 799.2500 322.2700Q804.7800 325.5600 807.0900 329.8300Q809.4000 334.1000 809.4000 339.2800L809.4000 339.2800Q809.4000 345.5800 805.6900 350.6200Q801.9800 355.6600 794.7700 358.5300Q787.5600 361.4000 776.9200 361.4000ZM844.9600 361.4000L844.9600 361.4000Q837.6800 361.4000 831.8000 358.5300Q825.9200 355.6600 822.4900 350.8300Q819.0600 346 819.0600 339.9800L819.0600 339.9800Q819.0600 330.1800 827.0400 324.3700Q835.0200 318.5600 847.9000 316.6000L847.9000 316.6000L867.0800 313.8000L867.0800 310.8600Q867.0800 304.9800 864.1400 301.7600Q861.2000 298.5400 854.0600 298.5400L854.0600 298.5400Q849.0200 298.5400 845.8700 300.5700Q842.7200 302.6000 841.1800 305.9600L841.1800 305.9600Q840.0600 307.7800 837.9600 307.7800L837.9600 307.7800L826.9000 307.7800Q825.3600 307.7800 824.5900 306.9400Q823.8200 306.1000 823.8200 304.7000L823.8200 304.7000Q823.9600 302.4600 825.7100 299.2400Q827.4600 296.0200 831.0300 293.0100Q834.6000 290 840.3400 287.9000Q846.0800 285.8000 854.2000 285.8000L854.2000 285.8000Q863.0200 285.8000 869.1100 287.9700Q875.2000 290.1400 878.8400 293.7800Q882.4800 297.4200 884.1600 302.3200Q885.8400 307.2200 885.8400 312.6800L885.8400 312.6800L885.8400 356.6400Q885.8400 358.0400 884.8600 359.0200Q883.8800 360 882.4800 360L882.4800 360L871.1400 360Q869.6000 360 868.6900 359.0200Q867.7800 358.0400 867.7800 356.6400L867.7800 356.6400L867.7800 351.1800Q865.9600 353.7000 862.8800 356.0800Q859.8000 358.4600 855.3900 359.9300Q850.9800 361.4000 844.9600 361.4000ZM849.7200 348.1000L849.7200 348.1000Q854.6200 348.1000 858.6100 346Q862.6000 343.9000 864.9100 339.4900Q867.2200 335.0800 867.2200 328.3600L867.2200 328.3600L867.2200 325.4200L853.2200 327.6600Q844.9600 328.9200 840.9000 331.7200Q836.8400 334.5200 836.8400 338.5800L836.8400 338.5800Q836.8400 341.6600 838.7300 343.8300Q840.6200 346 843.5600 347.0500Q846.5000 348.1000 849.7200 348.1000ZM919.4400 360L907.1200 360Q905.7200 360 904.7400 359.0200Q903.7600 358.0400 903.7600 356.6400L903.7600 356.6400L903.7600 290.5600Q903.7600 289.1600 904.7400 288.1800Q905.7200 287.2000 907.1200 287.2000L907.1200 287.2000L918.6000 287.2000Q920.0000 287.2000 920.9800 288.1800Q921.9600 289.1600 921.9600 290.5600L921.9600 290.5600L921.9600 296.3000Q925.6000 291.8200 931.2700 288.8100Q936.9400 285.8000 945.3400 285.8000L945.3400 285.8000Q953.8800 285.8000 960.1800 289.6500Q966.4800 293.5000 969.9100 300.5000Q973.3400 307.5000 973.3400 317.3000L973.3400 317.3000L973.3400 356.6400Q973.3400 358.0400 972.3600 359.0200Q971.3800 360 969.9800 360L969.9800 360L957.6600 360Q956.2600 360 955.2800 359.0200Q954.3000 358.0400 954.3000 356.6400L954.3000 356.6400L954.3000 318.1400Q954.3000 310.0200 950.3100 305.4000Q946.3200 300.7800 938.7600 300.7800L938.7600 300.7800Q931.4800 300.7800 927.1400 305.4000Q922.8000 310.0200 922.8000 318.1400L922.8000 318.1400L922.8000 356.6400Q922.8000 358.0400 921.8200 359.0200Q920.8400 360 919.4400 360L919.4400 360ZM1018.1400 361.4000L1018.1400 361.4000Q1010.8600 361.4000 1005.3300 358.9500Q999.8000 356.5000 996.1600 352.0200Q992.5200 347.5400 990.5600 341.4500Q988.6000 335.3600 988.3200 328.0800L988.3200 328.0800Q988.1800 325.5600 988.1800 323.5300Q988.1800 321.5000 988.3200 318.9800L988.3200 318.9800Q988.6000 311.9800 990.4900 305.9600Q992.3800 299.9400 996.0900 295.3900Q999.8000 290.8400 1005.3300 288.3200Q1010.8600 285.8000 1018.1400 285.8000L1018.1400 285.8000Q1025.7000 285.8000 1030.9500 288.3900Q1036.2000 290.9800 1039.7000 295.0400L1039.7000 295.0400L1039.7000 263.9600Q1039.7000 262.5600 1040.6100 261.5800Q1041.5200 260.6000 1043.0600 260.6000L1043.0600 260.6000L1054.9600 260.6000Q1056.3600 260.6000 1057.3400 261.5800Q1058.3200 262.5600 1058.3200 263.9600L1058.3200 263.9600L1058.3200 356.6400Q1058.3200 358.0400 1057.3400 359.0200Q1056.3600 360 1054.9600 360L1054.9600 360L1043.9000 360Q1042.3600 360 1041.4500 359.0200Q1040.5400 358.0400 1040.5400 356.6400L1040.5400 356.6400L1040.5400 351.4600Q1037.0400 355.8000 1031.6500 358.6000Q1026.2600 361.4000 1018.1400 361.4000ZM1023.3200 346.4200L1023.3200 346.4200Q1029.2000 346.4200 1032.7000 343.7600Q1036.2000 341.1000 1037.8800 336.9700Q1039.5600 332.8400 1039.7000 328.5000L1039.7000 328.5000Q1039.8400 325.9800 1039.8400 323.1100Q1039.8400 320.2400 1039.7000 317.7200L1039.7000 317.7200Q1039.5600 313.5200 1037.7400 309.6700Q1035.9200 305.8200 1032.4200 303.3000Q1028.9200 300.7800 1023.3200 300.7800L1023.3200 300.7800Q1017.4400 300.7800 1014.0100 303.3700Q1010.5800 305.9600 1009.0400 310.1600Q1007.5000 314.3600 1007.2200 319.4000L1007.2200 319.4000Q1007.0800 323.6000 1007.2200 327.8000L1007.2200 327.8000Q1007.5000 332.8400 1009.0400 337.0400Q1010.5800 341.2400 1014.0100 343.8300Q1017.4400 346.4200 1023.3200 346.4200ZM1109.1400 361.4000L1109.1400 361.4000Q1097.9400 361.4000 1090.3100 357.4800Q1082.6800 353.5600 1078.6900 346.4200Q1074.7000 339.2800 1074.1400 329.7600L1074.1400 329.7600Q1074.0000 327.2400 1074.0000 323.6000Q1074.0000 319.9600 1074.1400 317.4400L1074.1400 317.4400Q1074.7000 307.7800 1078.8300 300.7100Q1082.9600 293.6400 1090.5900 289.7200Q1098.2200 285.8000 1109.1400 285.8000L1109.1400 285.8000Q1120.0600 285.8000 1127.6900 289.7200Q1135.3200 293.6400 1139.4500 300.7100Q1143.5800 307.7800 1144.1400 317.4400L1144.1400 317.4400Q1144.2800 319.9600 1144.2800 323.6000Q1144.2800 327.2400 1144.1400 329.7600L1144.1400 329.7600Q1143.5800 339.2800 1139.5900 346.4200Q1135.6000 353.5600 1127.9700 357.4800Q1120.3400 361.4000 1109.1400 361.4000ZM1109.1400 347.5400L1109.1400 347.5400Q1116.5600 347.5400 1120.6200 342.8500Q1124.6800 338.1600 1125.1000 329.0600L1125.1000 329.0600Q1125.2400 326.9600 1125.2400 323.6000Q1125.2400 320.2400 1125.1000 318.1400L1125.1000 318.1400Q1124.6800 309.0400 1120.6200 304.3500Q1116.5600 299.6600 1109.1400 299.6600L1109.1400 299.6600Q1101.7200 299.6600 1097.6600 304.3500Q1093.6000 309.0400 1093.1800 318.1400L1093.1800 318.1400Q1093.0400 320.2400 1093.0400 323.6000Q1093.0400 326.9600 1093.1800 329.0600L1093.1800 329.0600Q1093.6000 338.1600 1097.6600 342.8500Q1101.7200 347.5400 1109.1400 347.5400ZM1231.6400 361.4000L1231.6400 361.4000Q1218.7600 361.4000 1209.7300 356.9200Q1200.7000 352.4400 1195.7300 343.9700Q1190.7600 335.5000 1190.3400 323.7400L1190.3400 323.7400Q1190.2000 317.7200 1190.2000 310.7900Q1190.2000 303.8600 1190.3400 297.7000L1190.3400 297.7000Q1190.7600 286.0800 1195.7300 277.8200Q1200.7000 269.5600 1209.8700 265.0800Q1219.0400 260.6000 1231.6400 260.6000L1231.6400 260.6000Q1241.8600 260.6000 1249.5600 263.3300Q1257.2600 266.0600 1262.3700 270.3300Q1267.4800 274.6000 1270.0700 279.5000Q1272.6600 284.4000 1272.8000 288.6000L1272.8000 288.6000Q1272.9400 289.8600 1272.1000 290.7000Q1271.2600 291.5400 1269.8600 291.5400L1269.8600 291.5400L1255.4400 291.5400Q1254.0400 291.5400 1253.3400 290.9800Q1252.6400 290.4200 1252.0800 289.3000L1252.0800 289.3000Q1250.9600 286.3600 1248.5800 283.4900Q1246.2000 280.6200 1242.1400 278.6600Q1238.0800 276.7000 1231.6400 276.7000L1231.6400 276.7000Q1222.1200 276.7000 1216.4500 281.7400Q1210.7800 286.7800 1210.3600 298.4000L1210.3600 298.4000Q1209.9400 310.5800 1210.3600 323.0400L1210.3600 323.0400Q1210.7800 334.9400 1216.5900 340.1200Q1222.4000 345.3000 1231.9200 345.3000L1231.9200 345.3000Q1238.2200 345.3000 1243.1900 343.0600Q1248.1600 340.8200 1251.0300 336.0600Q1253.9000 331.3000 1253.9000 323.8800L1253.9000 323.8800L1253.9000 319.5400L1236.8200 319.5400Q1235.4200 319.5400 1234.4400 318.5600Q1233.4600 317.5800 1233.4600 316.0400L1233.4600 316.0400L1233.4600 308.6200Q1233.4600 307.0800 1234.4400 306.1000Q1235.4200 305.1200 1236.8200 305.1200L1236.8200 305.1200L1270.2800 305.1200Q1271.8200 305.1200 1272.7300 306.1000Q1273.6400 307.0800 1273.6400 308.6200L1273.6400 308.6200L1273.6400 323.3200Q1273.6400 335.0800 1268.5300 343.6200Q1263.4200 352.1600 1253.9700 356.7800Q1244.5200 361.4000 1231.6400 361.4000ZM1304.8600 360L1293.2400 360Q1291.8400 360 1290.8600 359.0200Q1289.8800 358.0400 1289.8800 356.6400L1289.8800 356.6400L1289.8800 290.5600Q1289.8800 289.1600 1290.8600 288.1800Q1291.8400 287.2000 1293.2400 287.2000L1293.2400 287.2000L1304.8600 287.2000Q1306.4000 287.2000 1307.3100 288.1800Q1308.2200 289.1600 1308.2200 290.5600L1308.2200 290.5600L1308.2200 356.6400Q1308.2200 358.0400 1307.3100 359.0200Q1306.4000 360 1304.8600 360L1304.8600 360ZM1305.4200 275.1600L1292.6800 275.1600Q1291.2800 275.1600 1290.3000 274.1800Q1289.3200 273.2000 1289.3200 271.8000L1289.3200 271.8000L1289.3200 261.7200Q1289.3200 260.3200 1290.3000 259.3400Q1291.2800 258.3600 1292.6800 258.3600L1292.6800 258.3600L1305.4200 258.3600Q1306.9600 258.3600 1307.9400 259.3400Q1308.9200 260.3200 1308.9200 261.7200L1308.9200 261.7200L1308.9200 271.8000Q1308.9200 273.2000 1307.9400 274.1800Q1306.9600 275.1600 1305.4200 275.1600L1305.4200 275.1600ZM1371.0800 360L1359.7400 360Q1351.3400 360 1345.6000 357.0600Q1339.8600 354.1200 1337.0600 348.3100Q1334.2600 342.5000 1334.2600 333.8200L1334.2600 333.8200L1334.2600 302.0400L1323.2000 302.0400Q1321.8000 302.0400 1320.8200 301.0600Q1319.8400 300.0800 1319.8400 298.5400L1319.8400 298.5400L1319.8400 290.5600Q1319.8400 289.1600 1320.8200 288.1800Q1321.8000 287.2000 1323.2000 287.2000L1323.2000 287.2000L1334.2600 287.2000L1334.2600 263.9600Q1334.2600 262.5600 1335.1700 261.5800Q1336.0800 260.6000 1337.6200 260.6000L1337.6200 260.6000L1348.9600 260.6000Q1350.3600 260.6000 1351.3400 261.5800Q1352.3200 262.5600 1352.3200 263.9600L1352.3200 263.9600L1352.3200 287.2000L1369.8200 287.2000Q1371.2200 287.2000 1372.2000 288.1800Q1373.1800 289.1600 1373.1800 290.5600L1373.1800 290.5600L1373.1800 298.5400Q1373.1800 300.0800 1372.2000 301.0600Q1371.2200 302.0400 1369.8200 302.0400L1369.8200 302.0400L1352.3200 302.0400L1352.3200 332.4200Q1352.3200 338.1600 1354.3500 341.3800Q1356.3800 344.6000 1361.4200 344.6000L1361.4200 344.6000L1371.0800 344.6000Q1372.4800 344.6000 1373.4600 345.5800Q1374.4400 346.5600 1374.4400 347.9600L1374.4400 347.9600L1374.4400 356.6400Q1374.4400 358.0400 1373.4600 359.0200Q1372.4800 360 1371.0800 360L1371.0800 360ZM174.9200 500L162.6000 500Q161.2000 500 160.2200 499.0200Q159.2400 498.0400 159.2400 496.6400L159.2400 496.6400L159.2400 430.5600Q159.2400 429.1600 160.2200 428.1800Q161.2000 427.2000 162.6000 427.2000L162.6000 427.2000L174.0800 427.2000Q175.4800 427.2000 176.4600 428.1800Q177.4400 429.1600 177.4400 430.5600L177.4400 430.5600L177.4400 436.3000Q181.0800 431.8200 186.7500 428.8100Q192.4200 425.8000 200.8200 425.8000L200.8200 425.8000Q209.3600 425.8000 215.6600 429.6500Q221.9600 433.5000 225.3900 440.5000Q228.8200 447.5000 228.8200 457.3000L228.8200 457.3000L228.8200 496.6400Q228.8200 498.0400 227.8400 499.0200Q226.8600 500 225.4600 500L225.4600 500L213.1400 500Q211.7400 500 210.7600 499.0200Q209.7800 498.0400 209.7800 496.6400L209.7800 496.6400L209.7800 458.1400Q209.7800 450.0200 205.7900 445.4000Q201.8000 440.7800 194.2400 440.7800L194.2400 440.7800Q186.9600 440.7800 182.6200 445.4000Q178.2800 450.0200 178.2800 458.1400L178.2800 458.1400L178.2800 496.6400Q178.2800 498.0400 177.3000 499.0200Q176.3200 500 174.9200 500L174.9200 500ZM267.7400 501.4000L267.7400 501.4000Q260.4600 501.4000 254.5800 498.5300Q248.7000 495.6600 245.2700 490.8300Q241.8400 486 241.8400 479.9800L241.8400 479.9800Q241.8400 470.1800 249.8200 464.3700Q257.8000 458.5600 270.6800 456.6000L270.6800 456.6000L289.8600 453.8000L289.8600 450.8600Q289.8600 444.9800 286.9200 441.7600Q283.9800 438.5400 276.8400 438.5400L276.8400 438.5400Q271.8000 438.5400 268.6500 440.5700Q265.5000 442.6000 263.9600 445.9600L263.9600 445.9600Q262.8400 447.7800 260.7400 447.7800L260.7400 447.7800L249.6800 447.7800Q248.1400 447.7800 247.3700 446.9400Q246.6000 446.1000 246.6000 444.7000L246.6000 444.7000Q246.7400 442.4600 248.4900 439.2400Q250.2400 436.0200 253.8100 433.0100Q257.3800 430 263.1200 427.9000Q268.8600 425.8000 276.9800 425.8000L276.9800 425.8000Q285.8000 425.8000 291.8900 427.9700Q297.9800 430.1400 301.6200 433.7800Q305.2600 437.4200 306.9400 442.3200Q308.6200 447.2200 308.6200 452.6800L308.6200 452.6800L308.6200 496.6400Q308.6200 498.0400 307.6400 499.0200Q306.6600 500 305.2600 500L305.2600 500L293.9200 500Q292.3800 500 291.4700 499.0200Q290.5600 498.0400 290.5600 496.6400L290.5600 496.6400L290.5600 491.1800Q288.7400 493.7000 285.6600 496.0800Q282.5800 498.4600 278.1700 499.9300Q273.7600 501.4000 267.7400 501.4000ZM272.5000 488.1000L272.5000 488.1000Q277.4000 488.1000 281.3900 486Q285.3800 483.9000 287.6900 479.4900Q290 475.0800 290 468.3600L290 468.3600L290 465.4200L276 467.6600Q267.7400 468.9200 263.6800 471.7200Q259.6200 474.5200 259.6200 478.5800L259.6200 478.5800Q259.6200 481.6600 261.5100 483.8300Q263.4000 486 266.3400 487.0500Q269.2800 488.1000 272.5000 488.1000ZM374 526.6000L362.1000 526.6000Q360.7000 526.6000 359.7200 525.6200Q358.7400 524.6400 358.7400 523.2400L358.7400 523.2400L358.7400 430.5600Q358.7400 429.1600 359.7200 428.1800Q360.7000 427.2000 362.1000 427.2000L362.1000 427.2000L373.1600 427.2000Q374.7000 427.2000 375.6100 428.1800Q376.5200 429.1600 376.5200 430.5600L376.5200 430.5600L376.5200 436.1600Q379.8800 431.6800 385.3400 428.7400Q390.8000 425.8000 398.9200 425.8000L398.9200 425.8000Q406.3400 425.8000 411.8000 428.1800Q417.2600 430.5600 420.9000 434.9700Q424.5400 439.3800 426.5000 445.4000Q428.4600 451.4200 428.7400 458.7000L428.7400 458.7000Q428.8800 461.0800 428.8800 463.6000Q428.8800 466.1200 428.7400 468.6400L428.7400 468.6400Q428.6000 475.6400 426.6400 481.5900Q424.6800 487.5400 420.9700 491.9500Q417.2600 496.3600 411.8000 498.8800Q406.3400 501.4000 398.9200 501.4000L398.9200 501.4000Q391.3600 501.4000 386.0400 498.6700Q380.7200 495.9400 377.3600 491.4600L377.3600 491.4600L377.3600 523.2400Q377.3600 524.6400 376.4500 525.6200Q375.5400 526.6000 374 526.6000L374 526.6000ZM393.7400 486.4200L393.7400 486.4200Q399.7600 486.4200 403.1200 483.8300Q406.4800 481.2400 408.0200 477.0400Q409.5600 472.8400 409.8400 467.8000L409.8400 467.8000Q409.9800 463.6000 409.8400 459.4000L409.8400 459.4000Q409.5600 454.3600 408.0200 450.1600Q406.4800 445.9600 403.1200 443.3700Q399.7600 440.7800 393.7400 440.7800L393.7400 440.7800Q388 440.7800 384.4300 443.4400Q380.8600 446.1000 379.2500 450.2300Q377.6400 454.3600 377.3600 458.7000L377.3600 458.7000Q377.2200 461.2200 377.2200 464.0200Q377.2200 466.8200 377.3600 469.4800L377.3600 469.4800Q377.5000 473.6800 379.3200 477.5300Q381.1400 481.3800 384.6400 483.9000Q388.1400 486.4200 393.7400 486.4200ZM460.1000 500L447.9200 500Q446.5200 500 445.5400 499.0200Q444.5600 498.0400 444.5600 496.6400L444.5600 496.6400L444.5600 430.7000Q444.5600 429.1600 445.5400 428.1800Q446.5200 427.2000 447.9200 427.2000L447.9200 427.2000L459.2600 427.2000Q460.6600 427.2000 461.7100 428.1800Q462.7600 429.1600 462.7600 430.7000L462.7600 430.7000L462.7600 436.4400Q465.9800 431.9600 471.0900 429.5800Q476.2000 427.2000 482.9200 427.2000L482.9200 427.2000L488.6600 427.2000Q490.2000 427.2000 491.1100 428.1800Q492.0200 429.1600 492.0200 430.5600L492.0200 430.5600L492.0200 440.6400Q492.0200 442.0400 491.1100 443.0200Q490.2000 444 488.6600 444L488.6600 444L477.7400 444Q471.0200 444 467.3100 447.7100Q463.6000 451.4200 463.6000 458.1400L463.6000 458.1400L463.6000 496.6400Q463.6000 498.0400 462.6200 499.0200Q461.6400 500 460.1000 500L460.1000 500ZM524.0800 501.4000L524.0800 501.4000Q516.8000 501.4000 510.9200 498.5300Q505.0400 495.6600 501.6100 490.8300Q498.1800 486 498.1800 479.9800L498.1800 479.9800Q498.1800 470.1800 506.1600 464.3700Q514.1400 458.5600 527.0200 456.6000L527.0200 456.6000L546.2000 453.8000L546.2000 450.8600Q546.2000 444.9800 543.2600 441.7600Q540.3200 438.5400 533.1800 438.5400L533.1800 438.5400Q528.1400 438.5400 524.9900 440.5700Q521.8400 442.6000 520.3000 445.9600L520.3000 445.9600Q519.1800 447.7800 517.0800 447.7800L517.0800 447.7800L506.0200 447.7800Q504.4800 447.7800 503.7100 446.9400Q502.9400 446.1000 502.9400 444.7000L502.9400 444.7000Q503.0800 442.4600 504.8300 439.2400Q506.5800 436.0200 510.1500 433.0100Q513.7200 430 519.4600 427.9000Q525.2000 425.8000 533.3200 425.8000L533.3200 425.8000Q542.1400 425.8000 548.2300 427.9700Q554.3200 430.1400 557.9600 433.7800Q561.6000 437.4200 563.2800 442.3200Q564.9600 447.2200 564.9600 452.6800L564.9600 452.6800L564.9600 496.6400Q564.9600 498.0400 563.9800 499.0200Q563 500 561.6000 500L561.6000 500L550.2600 500Q548.7200 500 547.8100 499.0200Q546.9000 498.0400 546.9000 496.6400L546.9000 496.6400L546.9000 491.1800Q545.0800 493.7000 542 496.0800Q538.9200 498.4600 534.5100 499.9300Q530.1000 501.4000 524.0800 501.4000ZM528.8400 488.1000L528.8400 488.1000Q533.7400 488.1000 537.7300 486Q541.7200 483.9000 544.0300 479.4900Q546.3400 475.0800 546.3400 468.3600L546.3400 468.3600L546.3400 465.4200L532.3400 467.6600Q524.0800 468.9200 520.0200 471.7200Q515.9600 474.5200 515.9600 478.5800L515.9600 478.5800Q515.9600 481.6600 517.8500 483.8300Q519.7400 486 522.6800 487.0500Q525.6200 488.1000 528.8400 488.1000ZM535.9800 416.7000L527.4400 416.7000Q525.2000 416.7000 525.2000 414.4600L525.2000 414.4600Q525.2000 413.3400 525.9000 412.6400L525.9000 412.6400L537.2400 398.7800Q538.6400 397.2400 539.6200 396.7500Q540.6000 396.2600 542.4200 396.2600L542.4200 396.2600L556.4200 396.2600Q559.0800 396.2600 559.0800 398.9200L559.0800 398.9200Q559.0800 399.9000 558.3800 400.6000L558.3800 400.6000L541.0200 414.8800Q539.9000 415.8600 538.8500 416.2800Q537.8000 416.7000 535.9800 416.7000L535.9800 416.7000ZM627.1200 500L615.7800 500Q607.3800 500 601.6400 497.0600Q595.9000 494.1200 593.1000 488.3100Q590.3000 482.5000 590.3000 473.8200L590.3000 473.8200L590.3000 442.0400L579.2400 442.0400Q577.8400 442.0400 576.8600 441.0600Q575.8800 440.0800 575.8800 438.5400L575.8800 438.5400L575.8800 430.5600Q575.8800 429.1600 576.8600 428.1800Q577.8400 427.2000 579.2400 427.2000L579.2400 427.2000L590.3000 427.2000L590.3000 403.9600Q590.3000 402.5600 591.2100 401.5800Q592.1200 400.6000 593.6600 400.6000L593.6600 400.6000L605.0000 400.6000Q606.4000 400.6000 607.3800 401.5800Q608.3600 402.5600 608.3600 403.9600L608.3600 403.9600L608.3600 427.2000L625.8600 427.2000Q627.2600 427.2000 628.2400 428.1800Q629.2200 429.1600 629.2200 430.5600L629.2200 430.5600L629.2200 438.5400Q629.2200 440.0800 628.2400 441.0600Q627.2600 442.0400 625.8600 442.0400L625.8600 442.0400L608.3600 442.0400L608.3600 472.4200Q608.3600 478.1600 610.3900 481.3800Q612.4200 484.6000 617.4600 484.6000L617.4600 484.6000L627.1200 484.6000Q628.5200 484.6000 629.5000 485.5800Q630.4800 486.5600 630.4800 487.9600L630.4800 487.9600L630.4800 496.6400Q630.4800 498.0400 629.5000 499.0200Q628.5200 500 627.1200 500L627.1200 500ZM657.9200 500L646.3000 500Q644.9000 500 643.9200 499.0200Q642.9400 498.0400 642.9400 496.6400L642.9400 496.6400L642.9400 430.5600Q642.9400 429.1600 643.9200 428.1800Q644.9000 427.2000 646.3000 427.2000L646.3000 427.2000L657.9200 427.2000Q659.4600 427.2000 660.3700 428.1800Q661.2800 429.1600 661.2800 430.5600L661.2800 430.5600L661.2800 496.6400Q661.2800 498.0400 660.3700 499.0200Q659.4600 500 657.9200 500L657.9200 500ZM658.4800 415.1600L645.7400 415.1600Q644.3400 415.1600 643.3600 414.1800Q642.3800 413.2000 642.3800 411.8000L642.3800 411.8000L642.3800 401.7200Q642.3800 400.3200 643.3600 399.3400Q644.3400 398.3600 645.7400 398.3600L645.7400 398.3600L658.4800 398.3600Q660.0200 398.3600 661 399.3400Q661.9800 400.3200 661.9800 401.7200L661.9800 401.7200L661.9800 411.8000Q661.9800 413.2000 661 414.1800Q660.0200 415.1600 658.4800 415.1600L658.4800 415.1600ZM711.4000 501.4000L711.4000 501.4000Q701.3200 501.4000 693.6900 497.6200Q686.0600 493.8400 681.7900 486.6300Q677.5200 479.4200 677.1000 469.2000L677.1000 469.2000Q676.9600 467.1000 676.9600 463.6700Q676.9600 460.2400 677.1000 458L677.1000 458Q677.5200 447.7800 681.7900 440.5700Q686.0600 433.3600 693.6900 429.5800Q701.3200 425.8000 711.4000 425.8000L711.4000 425.8000Q720.3600 425.8000 726.6600 428.2500Q732.9600 430.7000 737.0200 434.5500Q741.0800 438.4000 743.1100 442.5300Q745.1400 446.6600 745.2800 450.0200L745.2800 450.0200Q745.4200 451.5600 744.3700 452.4700Q743.3200 453.3800 741.9200 453.3800L741.9200 453.3800L729.6000 453.3800Q728.2000 453.3800 727.4300 452.6800Q726.6600 451.9800 725.9600 450.5800L725.9600 450.5800Q723.8600 444.9800 720.4300 442.6700Q717.0000 440.3600 711.6800 440.3600L711.6800 440.3600Q704.6800 440.3600 700.5500 444.7700Q696.4200 449.1800 696.1400 458.7000L696.1400 458.7000Q695.8600 464.0200 696.1400 468.5000L696.1400 468.5000Q696.4200 478.1600 700.5500 482.5000Q704.6800 486.8400 711.6800 486.8400L711.6800 486.8400Q717.1400 486.8400 720.5000 484.5300Q723.8600 482.2200 725.9600 476.6200L725.9600 476.6200Q726.6600 475.2200 727.4300 474.5200Q728.2000 473.8200 729.6000 473.8200L729.6000 473.8200L741.9200 473.8200Q743.3200 473.8200 744.3700 474.7300Q745.4200 475.6400 745.2800 477.1800L745.2800 477.1800Q745.1400 479.7000 743.9500 482.8500Q742.7600 486 740.1700 489.2900Q737.5800 492.5800 733.6600 495.3100Q729.7400 498.0400 724.2100 499.7200Q718.6800 501.4000 711.4000 501.4000ZM780.9800 501.4000L780.9800 501.4000Q773.7000 501.4000 767.8200 498.5300Q761.9400 495.6600 758.5100 490.8300Q755.0800 486 755.0800 479.9800L755.0800 479.9800Q755.0800 470.1800 763.0600 464.3700Q771.0400 458.5600 783.9200 456.6000L783.9200 456.6000L803.1000 453.8000L803.1000 450.8600Q803.1000 444.9800 800.1600 441.7600Q797.2200 438.5400 790.0800 438.5400L790.0800 438.5400Q785.0400 438.5400 781.8900 440.5700Q778.7400 442.6000 777.2000 445.9600L777.2000 445.9600Q776.0800 447.7800 773.9800 447.7800L773.9800 447.7800L762.9200 447.7800Q761.3800 447.7800 760.6100 446.9400Q759.8400 446.1000 759.8400 444.7000L759.8400 444.7000Q759.9800 442.4600 761.7300 439.2400Q763.4800 436.0200 767.0500 433.0100Q770.6200 430 776.3600 427.9000Q782.1000 425.8000 790.2200 425.8000L790.2200 425.8000Q799.0400 425.8000 805.1300 427.9700Q811.2200 430.1400 814.8600 433.7800Q818.5000 437.4200 820.1800 442.3200Q821.8600 447.2200 821.8600 452.6800L821.8600 452.6800L821.8600 496.6400Q821.8600 498.0400 820.8800 499.0200Q819.9000 500 818.5000 500L818.5000 500L807.1600 500Q805.6200 500 804.7100 499.0200Q803.8000 498.0400 803.8000 496.6400L803.8000 496.6400L803.8000 491.1800Q801.9800 493.7000 798.9000 496.0800Q795.8200 498.4600 791.4100 499.9300Q787.0000 501.4000 780.9800 501.4000ZM785.7400 488.1000L785.7400 488.1000Q790.6400 488.1000 794.6300 486Q798.6200 483.9000 800.9300 479.4900Q803.2400 475.0800 803.2400 468.3600L803.2400 468.3600L803.2400 465.4200L789.2400 467.6600Q780.9800 468.9200 776.9200 471.7200Q772.8600 474.5200 772.8600 478.5800L772.8600 478.5800Q772.8600 481.6600 774.7500 483.8300Q776.6400 486 779.5800 487.0500Q782.5200 488.1000 785.7400 488.1000ZM903.2000 501.4000L903.2000 501.4000Q887.6600 501.4000 878.5600 492.4400Q869.4600 483.4800 868.7600 466.9600L868.7600 466.9600Q868.6200 465.5600 868.6200 463.3900Q868.6200 461.2200 868.7600 459.9600L868.7600 459.9600Q869.3200 449.3200 873.5900 441.6900Q877.8600 434.0600 885.4200 429.9300Q892.9800 425.8000 903.2000 425.8000L903.2000 425.8000Q914.5400 425.8000 922.2400 430.4900Q929.9400 435.1800 933.8600 443.5100Q937.7800 451.8400 937.7800 462.7600L937.7800 462.7600L937.7800 465.7000Q937.7800 467.1000 936.8000 468.0800Q935.8200 469.0600 934.2800 469.0600L934.2800 469.0600L887.8000 469.0600Q887.8000 469.0600 887.8000 469.4800Q887.8000 469.9000 887.8000 470.1800L887.8000 470.1800Q887.9400 475.0800 889.6900 479.2100Q891.4400 483.3400 894.8700 485.8600Q898.3000 488.3800 903.0600 488.3800L903.0600 488.3800Q906.9800 488.3800 909.6400 487.1900Q912.3000 486 913.9800 484.4600Q915.6600 482.9200 916.3600 481.9400L916.3600 481.9400Q917.6200 480.2600 918.3900 479.9100Q919.1600 479.5600 920.7000 479.5600L920.7000 479.5600L932.7400 479.5600Q934.1400 479.5600 935.0500 480.4000Q935.9600 481.2400 935.8200 482.5000L935.8200 482.5000Q935.6800 484.7400 933.5100 487.9600Q931.3400 491.1800 927.2800 494.2600Q923.2200 497.3400 917.1300 499.3700Q911.0400 501.4000 903.2000 501.4000ZM887.8000 456.8800L887.8000 457.3000L918.7400 457.3000L918.7400 456.8800Q918.7400 451.4200 916.9200 447.2900Q915.1000 443.1600 911.6000 440.8500Q908.1000 438.5400 903.2000 438.5400L903.2000 438.5400Q898.3000 438.5400 894.8000 440.8500Q891.3000 443.1600 889.5500 447.2900Q887.8000 451.4200 887.8000 456.8800L887.8000 456.8800ZM967.7400 500L955.9800 500Q954.5800 500 953.6000 499.0200Q952.6200 498.0400 952.6200 496.6400L952.6200 496.6400L952.6200 430.5600Q952.6200 429.1600 953.6000 428.1800Q954.5800 427.2000 955.9800 427.2000L955.9800 427.2000L966.9000 427.2000Q968.3000 427.2000 969.2800 428.1800Q970.2600 429.1600 970.2600 430.5600L970.2600 430.5600L970.2600 435.3200Q973.2000 431.4000 978.1700 428.6700Q983.1400 425.9400 990.0000 425.8000L990.0000 425.8000Q1005.9600 425.5200 1012.2600 438.2600L1012.2600 438.2600Q1015.4800 432.6600 1021.5700 429.2300Q1027.6600 425.8000 1035.0800 425.8000L1035.0800 425.8000Q1042.3600 425.8000 1048.3100 429.1600Q1054.2600 432.5200 1057.6900 439.3100Q1061.1200 446.1000 1061.1200 456.4600L1061.1200 456.4600L1061.1200 496.6400Q1061.1200 498.0400 1060.1400 499.0200Q1059.1600 500 1057.7600 500L1057.7600 500L1046.2800 500Q1044.8800 500 1043.9000 499.0200Q1042.9200 498.0400 1042.9200 496.6400L1042.9200 496.6400L1042.9200 457.5800Q1042.9200 451.2800 1041.1000 447.5700Q1039.2800 443.8600 1036.2000 442.3200Q1033.1200 440.7800 1029.3400 440.7800L1029.3400 440.7800Q1026.2600 440.7800 1023.1800 442.3200Q1020.1000 443.8600 1018.1400 447.5700Q1016.1800 451.2800 1016.1800 457.5800L1016.1800 457.5800L1016.1800 496.6400Q1016.1800 498.0400 1015.2000 499.0200Q1014.2200 500 1012.8200 500L1012.8200 500L1001.3400 500Q999.9400 500 998.9600 499.0200Q997.9800 498.0400 997.9800 496.6400L997.9800 496.6400L997.9800 457.5800Q997.9800 451.2800 996.0200 447.5700Q994.0600 443.8600 990.9800 442.3200Q987.9000 440.7800 984.4000 440.7800L984.4000 440.7800Q981.1800 440.7800 978.1000 442.3900Q975.0200 444 973.0600 447.6400Q971.1000 451.2800 971.1000 457.5800L971.1000 457.5800L971.1000 496.6400Q971.1000 498.0400 970.1200 499.0200Q969.1400 500 967.7400 500L967.7400 500ZM174.6400 666.6000L162.7400 666.6000Q161.3400 666.6000 160.3600 665.6200Q159.3800 664.6400 159.3800 663.2400L159.3800 663.2400L159.3800 570.5600Q159.3800 569.1600 160.3600 568.1800Q161.3400 567.2000 162.7400 567.2000L162.7400 567.2000L173.8000 567.2000Q175.3400 567.2000 176.2500 568.1800Q177.1600 569.1600 177.1600 570.5600L177.1600 570.5600L177.1600 576.1600Q180.5200 571.6800 185.9800 568.7400Q191.4400 565.8000 199.5600 565.8000L199.5600 565.8000Q206.9800 565.8000 212.4400 568.1800Q217.9000 570.5600 221.5400 574.9700Q225.1800 579.3800 227.1400 585.4000Q229.1000 591.4200 229.3800 598.7000L229.3800 598.7000Q229.5200 601.0800 229.5200 603.6000Q229.5200 606.1200 229.3800 608.6400L229.3800 608.6400Q229.2400 615.6400 227.2800 621.5900Q225.3200 627.5400 221.6100 631.9500Q217.9000 636.3600 212.4400 638.8800Q206.9800 641.4000 199.5600 641.4000L199.5600 641.4000Q192 641.4000 186.6800 638.6700Q181.3600 635.9400 178 631.4600L178 631.4600L178 663.2400Q178 664.6400 177.0900 665.6200Q176.1800 666.6000 174.6400 666.6000L174.6400 666.6000ZM194.3800 626.4200L194.3800 626.4200Q200.4000 626.4200 203.7600 623.8300Q207.1200 621.2400 208.6600 617.0400Q210.2000 612.8400 210.4800 607.8000L210.4800 607.8000Q210.6200 603.6000 210.4800 599.4000L210.4800 599.4000Q210.2000 594.3600 208.6600 590.1600Q207.1200 585.9600 203.7600 583.3700Q200.4000 580.7800 194.3800 580.7800L194.3800 580.7800Q188.6400 580.7800 185.0700 583.4400Q181.5000 586.1000 179.8900 590.2300Q178.2800 594.3600 178 598.7000L178 598.7000Q177.8600 601.2200 177.8600 604.0200Q177.8600 606.8200 178 609.4800L178 609.4800Q178.1400 613.6800 179.9600 617.5300Q181.7800 621.3800 185.2800 623.9000Q188.7800 626.4200 194.3800 626.4200ZM260.7400 640L248.5600 640Q247.1600 640 246.1800 639.0200Q245.2000 638.0400 245.2000 636.6400L245.2000 636.6400L245.2000 570.7000Q245.2000 569.1600 246.1800 568.1800Q247.1600 567.2000 248.5600 567.2000L248.5600 567.2000L259.9000 567.2000Q261.3000 567.2000 262.3500 568.1800Q263.4000 569.1600 263.4000 570.7000L263.4000 570.7000L263.4000 576.4400Q266.6200 571.9600 271.7300 569.5800Q276.8400 567.2000 283.5600 567.2000L283.5600 567.2000L289.3000 567.2000Q290.8400 567.2000 291.7500 568.1800Q292.6600 569.1600 292.6600 570.5600L292.6600 570.5600L292.6600 580.6400Q292.6600 582.0400 291.7500 583.0200Q290.8400 584 289.3000 584L289.3000 584L278.3800 584Q271.6600 584 267.9500 587.7100Q264.2400 591.4200 264.2400 598.1400L264.2400 598.1400L264.2400 636.6400Q264.2400 638.0400 263.2600 639.0200Q262.2800 640 260.7400 640L260.7400 640ZM335.7800 641.4000L335.7800 641.4000Q324.5800 641.4000 316.9500 637.4800Q309.3200 633.5600 305.3300 626.4200Q301.3400 619.2800 300.7800 609.7600L300.7800 609.7600Q300.6400 607.2400 300.6400 603.6000Q300.6400 599.9600 300.7800 597.4400L300.7800 597.4400Q301.3400 587.7800 305.4700 580.7100Q309.6000 573.6400 317.2300 569.7200Q324.8600 565.8000 335.7800 565.8000L335.7800 565.8000Q346.7000 565.8000 354.3300 569.7200Q361.9600 573.6400 366.0900 580.7100Q370.2200 587.7800 370.7800 597.4400L370.7800 597.4400Q370.9200 599.9600 370.9200 603.6000Q370.9200 607.2400 370.7800 609.7600L370.7800 609.7600Q370.2200 619.2800 366.2300 626.4200Q362.2400 633.5600 354.6100 637.4800Q346.9800 641.4000 335.7800 641.4000ZM335.7800 627.5400L335.7800 627.5400Q343.2000 627.5400 347.2600 622.8500Q351.3200 618.1600 351.7400 609.0600L351.7400 609.0600Q351.8800 606.9600 351.8800 603.6000Q351.8800 600.2400 351.7400 598.1400L351.7400 598.1400Q351.3200 589.0400 347.2600 584.3500Q343.2000 579.6600 335.7800 579.6600L335.7800 579.6600Q328.3600 579.6600 324.3000 584.3500Q320.2400 589.0400 319.8200 598.1400L319.8200 598.1400Q319.6800 600.2400 319.6800 603.6000Q319.6800 606.9600 319.8200 609.0600L319.8200 609.0600Q320.2400 618.1600 324.3000 622.8500Q328.3600 627.5400 335.7800 627.5400ZM379.7400 666.6000L374.4200 666.6000Q373.0200 666.6000 372.0400 665.6200Q371.0600 664.6400 371.0600 663.2400L371.0600 663.2400L371.0600 655.1200Q371.0600 653.7200 372.0400 652.7400Q373.0200 651.7600 374.4200 651.7600L374.4200 651.7600L378.0600 651.7600Q382.4000 651.7600 384.5000 650.2200Q386.6000 648.6800 387.3000 645.9500Q388 643.2200 388 639.8600L388 639.8600L388 570.5600Q388 569.1600 388.9800 568.1800Q389.9600 567.2000 391.3600 567.2000L391.3600 567.2000L403.5400 567.2000Q404.9400 567.2000 405.9200 568.1800Q406.9000 569.1600 406.9000 570.5600L406.9000 570.5600L406.9000 640.1400Q406.9000 648.4000 403.8900 654.2800Q400.8800 660.1600 394.9300 663.3800Q388.9800 666.6000 379.7400 666.6000L379.7400 666.6000ZM403.9600 555.1600L390.8000 555.1600Q389.2600 555.1600 388.3500 554.1800Q387.4400 553.2000 387.4400 551.8000L387.4400 551.8000L387.4400 541.7200Q387.4400 540.3200 388.3500 539.3400Q389.2600 538.3600 390.8000 538.3600L390.8000 538.3600L403.9600 538.3600Q405.5000 538.3600 406.4800 539.3400Q407.4600 540.3200 407.4600 541.7200L407.4600 541.7200L407.4600 551.8000Q407.4600 553.2000 406.4800 554.1800Q405.5000 555.1600 403.9600 555.1600L403.9600 555.1600ZM456.8800 641.4000L456.8800 641.4000Q441.3400 641.4000 432.2400 632.4400Q423.1400 623.4800 422.4400 606.9600L422.4400 606.9600Q422.3000 605.5600 422.3000 603.3900Q422.3000 601.2200 422.4400 599.9600L422.4400 599.9600Q423.0000 589.3200 427.2700 581.6900Q431.5400 574.0600 439.1000 569.9300Q446.6600 565.8000 456.8800 565.8000L456.8800 565.8000Q468.2200 565.8000 475.9200 570.4900Q483.6200 575.1800 487.5400 583.5100Q491.4600 591.8400 491.4600 602.7600L491.4600 602.7600L491.4600 605.7000Q491.4600 607.1000 490.4800 608.0800Q489.5000 609.0600 487.9600 609.0600L487.9600 609.0600L441.4800 609.0600Q441.4800 609.0600 441.4800 609.4800Q441.4800 609.9000 441.4800 610.1800L441.4800 610.1800Q441.6200 615.0800 443.3700 619.2100Q445.1200 623.3400 448.5500 625.8600Q451.9800 628.3800 456.7400 628.3800L456.7400 628.3800Q460.6600 628.3800 463.3200 627.1900Q465.9800 626 467.6600 624.4600Q469.3400 622.9200 470.0400 621.9400L470.0400 621.9400Q471.3000 620.2600 472.0700 619.9100Q472.8400 619.5600 474.3800 619.5600L474.3800 619.5600L486.4200 619.5600Q487.8200 619.5600 488.7300 620.4000Q489.6400 621.2400 489.5000 622.5000L489.5000 622.5000Q489.3600 624.7400 487.1900 627.9600Q485.0200 631.1800 480.9600 634.2600Q476.9000 637.3400 470.8100 639.3700Q464.7200 641.4000 456.8800 641.4000ZM441.4800 596.8800L441.4800 597.3000L472.4200 597.3000L472.4200 596.8800Q472.4200 591.4200 470.6000 587.2900Q468.7800 583.1600 465.2800 580.8500Q461.7800 578.5400 456.8800 578.5400L456.8800 578.5400Q451.9800 578.5400 448.4800 580.8500Q444.9800 583.1600 443.2300 587.2900Q441.4800 591.4200 441.4800 596.8800L441.4800 596.8800ZM550.5400 640L539.2000 640Q530.8000 640 525.0600 637.0600Q519.3200 634.1200 516.5200 628.3100Q513.7200 622.5000 513.7200 613.8200L513.7200 613.8200L513.7200 582.0400L502.6600 582.0400Q501.2600 582.0400 500.2800 581.0600Q499.3000 580.0800 499.3000 578.5400L499.3000 578.5400L499.3000 570.5600Q499.3000 569.1600 500.2800 568.1800Q501.2600 567.2000 502.6600 567.2000L502.6600 567.2000L513.7200 567.2000L513.7200 543.9600Q513.7200 542.5600 514.6300 541.5800Q515.5400 540.6000 517.0800 540.6000L517.0800 540.6000L528.4200 540.6000Q529.8200 540.6000 530.8000 541.5800Q531.7800 542.5600 531.7800 543.9600L531.7800 543.9600L531.7800 567.2000L549.2800 567.2000Q550.6800 567.2000 551.6600 568.1800Q552.6400 569.1600 552.6400 570.5600L552.6400 570.5600L552.6400 578.5400Q552.6400 580.0800 551.6600 581.0600Q550.6800 582.0400 549.2800 582.0400L549.2800 582.0400L531.7800 582.0400L531.7800 612.4200Q531.7800 618.1600 533.8100 621.3800Q535.8400 624.6000 540.8800 624.6000L540.8800 624.6000L550.5400 624.6000Q551.9400 624.6000 552.9200 625.5800Q553.9000 626.5600 553.9000 627.9600L553.9000 627.9600L553.9000 636.6400Q553.9000 638.0400 552.9200 639.0200Q551.9400 640 550.5400 640L550.5400 640ZM598.5600 641.4000L598.5600 641.4000Q587.3600 641.4000 579.7300 637.4800Q572.1000 633.5600 568.1100 626.4200Q564.1200 619.2800 563.5600 609.7600L563.5600 609.7600Q563.4200 607.2400 563.4200 603.6000Q563.4200 599.9600 563.5600 597.4400L563.5600 597.4400Q564.1200 587.7800 568.2500 580.7100Q572.3800 573.6400 580.0100 569.7200Q587.6400 565.8000 598.5600 565.8000L598.5600 565.8000Q609.4800 565.8000 617.1100 569.7200Q624.7400 573.6400 628.8700 580.7100Q633.0000 587.7800 633.5600 597.4400L633.5600 597.4400Q633.7000 599.9600 633.7000 603.6000Q633.7000 607.2400 633.5600 609.7600L633.5600 609.7600Q633.0000 619.2800 629.0100 626.4200Q625.0200 633.5600 617.3900 637.4800Q609.7600 641.4000 598.5600 641.4000ZM598.5600 627.5400L598.5600 627.5400Q605.9800 627.5400 610.0400 622.8500Q614.1000 618.1600 614.5200 609.0600L614.5200 609.0600Q614.6600 606.9600 614.6600 603.6000Q614.6600 600.2400 614.5200 598.1400L614.5200 598.1400Q614.1000 589.0400 610.0400 584.3500Q605.9800 579.6600 598.5600 579.6600L598.5600 579.6600Q591.1400 579.6600 587.0800 584.3500Q583.0200 589.0400 582.6000 598.1400L582.6000 598.1400Q582.4600 600.2400 582.4600 603.6000Q582.4600 606.9600 582.6000 609.0600L582.6000 609.0600Q583.0200 618.1600 587.0800 622.8500Q591.1400 627.5400 598.5600 627.5400ZM676.8200 641.4000L676.8200 641.4000Q668.4200 641.4000 662.4700 639.4400Q656.5200 637.4800 652.7400 634.5400Q648.9600 631.6000 647.1400 628.6600Q645.3200 625.7200 645.1800 623.7600L645.1800 623.7600Q645.0400 622.2200 646.0900 621.3100Q647.1400 620.4000 648.4000 620.4000L648.4000 620.4000L659.4600 620.4000Q660.0200 620.4000 660.4400 620.5400Q660.8600 620.6800 661.5600 621.3800L661.5600 621.3800Q663.3800 622.9200 665.4100 624.6000Q667.4400 626.2800 670.2400 627.4700Q673.0400 628.6600 677.2400 628.6600L677.2400 628.6600Q682.7000 628.6600 686.4100 626.4900Q690.1200 624.3200 690.1200 620.2600L690.1200 620.2600Q690.1200 617.3200 688.5100 615.5000Q686.9000 613.6800 682.5600 612.2100Q678.2200 610.7400 670.2400 609.0600L670.2400 609.0600Q662.4000 607.2400 657.2200 604.4400Q652.0400 601.6400 649.5200 597.4400Q647.0000 593.2400 647.0000 587.6400L647.0000 587.6400Q647.0000 582.1800 650.2900 577.2100Q653.5800 572.2400 660.0900 569.0200Q666.6000 565.8000 676.2600 565.8000L676.2600 565.8000Q683.8200 565.8000 689.4200 567.6900Q695.0200 569.5800 698.7300 572.3800Q702.4400 575.1800 704.4000 578.0500Q706.3600 580.9200 706.5000 583.0200L706.5000 583.0200Q706.6400 584.5600 705.6600 585.4700Q704.6800 586.3800 703.4200 586.3800L703.4200 586.3800L693.0600 586.3800Q692.3600 586.3800 691.8000 586.1000Q691.2400 585.8200 690.6800 585.4000L690.6800 585.4000Q689.1400 584 687.3200 582.3900Q685.5000 580.7800 682.9100 579.6600Q680.3200 578.5400 676.1200 578.5400L676.1200 578.5400Q670.8000 578.5400 668.0000 580.8500Q665.2000 583.1600 665.2000 586.6600L665.2000 586.6600Q665.2000 589.0400 666.5300 590.7900Q667.8600 592.5400 671.9200 594.0800Q675.9800 595.6200 684.2400 597.3000L684.2400 597.3000Q693.6200 598.9800 699.1500 602.2700Q704.6800 605.5600 706.9900 609.8300Q709.3000 614.1000 709.3000 619.2800L709.3000 619.2800Q709.3000 625.5800 705.5900 630.6200Q701.8800 635.6600 694.6700 638.5300Q687.4600 641.4000 676.8200 641.4000ZM787.2800 641.4000L787.2800 641.4000Q777.2000 641.4000 769.5700 637.6200Q761.9400 633.8400 757.6700 626.6300Q753.4000 619.4200 752.9800 609.2000L752.9800 609.2000Q752.8400 607.1000 752.8400 603.6700Q752.8400 600.2400 752.9800 598L752.9800 598Q753.4000 587.7800 757.6700 580.5700Q761.9400 573.3600 769.5700 569.5800Q777.2000 565.8000 787.2800 565.8000L787.2800 565.8000Q796.2400 565.8000 802.5400 568.2500Q808.8400 570.7000 812.9000 574.5500Q816.9600 578.4000 818.9900 582.5300Q821.0200 586.6600 821.1600 590.0200L821.1600 590.0200Q821.3000 591.5600 820.2500 592.4700Q819.2000 593.3800 817.8000 593.3800L817.8000 593.3800L805.4800 593.3800Q804.0800 593.3800 803.3100 592.6800Q802.5400 591.9800 801.8400 590.5800L801.8400 590.5800Q799.7400 584.9800 796.3100 582.6700Q792.8800 580.3600 787.5600 580.3600L787.5600 580.3600Q780.5600 580.3600 776.4300 584.7700Q772.3000 589.1800 772.0200 598.7000L772.0200 598.7000Q771.7400 604.0200 772.0200 608.5000L772.0200 608.5000Q772.3000 618.1600 776.4300 622.5000Q780.5600 626.8400 787.5600 626.8400L787.5600 626.8400Q793.0200 626.8400 796.3800 624.5300Q799.7400 622.2200 801.8400 616.6200L801.8400 616.6200Q802.5400 615.2200 803.3100 614.5200Q804.0800 613.8200 805.4800 613.8200L805.4800 613.8200L817.8000 613.8200Q819.2000 613.8200 820.2500 614.7300Q821.3000 615.6400 821.1600 617.1800L821.1600 617.1800Q821.0200 619.7000 819.8300 622.8500Q818.6400 626 816.0500 629.2900Q813.4600 632.5800 809.5400 635.3100Q805.6200 638.0400 800.0900 639.7200Q794.5600 641.4000 787.2800 641.4000ZM867.9200 641.4000L867.9200 641.4000Q856.7200 641.4000 849.0900 637.4800Q841.4600 633.5600 837.4700 626.4200Q833.4800 619.2800 832.9200 609.7600L832.9200 609.7600Q832.7800 607.2400 832.7800 603.6000Q832.7800 599.9600 832.9200 597.4400L832.9200 597.4400Q833.4800 587.7800 837.6100 580.7100Q841.7400 573.6400 849.3700 569.7200Q857.0000 565.8000 867.9200 565.8000L867.9200 565.8000Q878.8400 565.8000 886.4700 569.7200Q894.1000 573.6400 898.2300 580.7100Q902.3600 587.7800 902.9200 597.4400L902.9200 597.4400Q903.0600 599.9600 903.0600 603.6000Q903.0600 607.2400 902.9200 609.7600L902.9200 609.7600Q902.3600 619.2800 898.3700 626.4200Q894.3800 633.5600 886.7500 637.4800Q879.1200 641.4000 867.9200 641.4000ZM867.9200 627.5400L867.9200 627.5400Q875.3400 627.5400 879.4000 622.8500Q883.4600 618.1600 883.8800 609.0600L883.8800 609.0600Q884.0200 606.9600 884.0200 603.6000Q884.0200 600.2400 883.8800 598.1400L883.8800 598.1400Q883.4600 589.0400 879.4000 584.3500Q875.3400 579.6600 867.9200 579.6600L867.9200 579.6600Q860.5000 579.6600 856.4400 584.3500Q852.3800 589.0400 851.9600 598.1400L851.9600 598.1400Q851.8200 600.2400 851.8200 603.6000Q851.8200 606.9600 851.9600 609.0600L851.9600 609.0600Q852.3800 618.1600 856.4400 622.8500Q860.5000 627.5400 867.9200 627.5400ZM933.7200 640L921.9600 640Q920.5600 640 919.5800 639.0200Q918.6000 638.0400 918.6000 636.6400L918.6000 636.6400L918.6000 570.5600Q918.6000 569.1600 919.5800 568.1800Q920.5600 567.2000 921.9600 567.2000L921.9600 567.2000L932.8800 567.2000Q934.2800 567.2000 935.2600 568.1800Q936.2400 569.1600 936.2400 570.5600L936.2400 570.5600L936.2400 575.3200Q939.1800 571.4000 944.1500 568.6700Q949.1200 565.9400 955.9800 565.8000L955.9800 565.8000Q971.9400 565.5200 978.2400 578.2600L978.2400 578.2600Q981.4600 572.6600 987.5500 569.2300Q993.6400 565.8000 1001.0600 565.8000L1001.0600 565.8000Q1008.3400 565.8000 1014.2900 569.1600Q1020.2400 572.5200 1023.6700 579.3100Q1027.1000 586.1000 1027.1000 596.4600L1027.1000 596.4600L1027.1000 636.6400Q1027.1000 638.0400 1026.1200 639.0200Q1025.1400 640 1023.7400 640L1023.7400 640L1012.2600 640Q1010.8600 640 1009.8800 639.0200Q1008.9000 638.0400 1008.9000 636.6400L1008.9000 636.6400L1008.9000 597.5800Q1008.9000 591.2800 1007.0800 587.5700Q1005.2600 583.8600 1002.1800 582.3200Q999.1000 580.7800 995.3200 580.7800L995.3200 580.7800Q992.2400 580.7800 989.1600 582.3200Q986.0800 583.8600 984.1200 587.5700Q982.1600 591.2800 982.1600 597.5800L982.1600 597.5800L982.1600 636.6400Q982.1600 638.0400 981.1800 639.0200Q980.2000 640 978.8000 640L978.8000 640L967.3200 640Q965.9200 640 964.9400 639.0200Q963.9600 638.0400 963.9600 636.6400L963.9600 636.6400L963.9600 597.5800Q963.9600 591.2800 962.0000 587.5700Q960.0400 583.8600 956.9600 582.3200Q953.8800 580.7800 950.3800 580.7800L950.3800 580.7800Q947.1600 580.7800 944.0800 582.3900Q941.0000 584 939.0400 587.6400Q937.0800 591.2800 937.0800 597.5800L937.0800 597.5800L937.0800 636.6400Q937.0800 638.0400 936.1000 639.0200Q935.1200 640 933.7200 640L933.7200 640ZM186.2600 781.4000L186.2600 781.4000Q178.9800 781.4000 173.4500 778.9500Q167.9200 776.5000 164.2800 772.0200Q160.6400 767.5400 158.6800 761.4500Q156.7200 755.3600 156.4400 748.0800L156.4400 748.0800Q156.3000 745.5600 156.3000 743.5300Q156.3000 741.5000 156.4400 738.9800L156.4400 738.9800Q156.7200 731.9800 158.6100 725.9600Q160.5000 719.9400 164.2100 715.3900Q167.9200 710.8400 173.4500 708.3200Q178.9800 705.8000 186.2600 705.8000L186.2600 705.8000Q193.8200 705.8000 199.0700 708.3900Q204.3200 710.9800 207.8200 715.0400L207.8200 715.0400L207.8200 683.9600Q207.8200 682.5600 208.7300 681.5800Q209.6400 680.6000 211.1800 680.6000L211.1800 680.6000L223.0800 680.6000Q224.4800 680.6000 225.4600 681.5800Q226.4400 682.5600 226.4400 683.9600L226.4400 683.9600L226.4400 776.6400Q226.4400 778.0400 225.4600 779.0200Q224.4800 780 223.0800 780L223.0800 780L212.0200 780Q210.4800 780 209.5700 779.0200Q208.6600 778.0400 208.6600 776.6400L208.6600 776.6400L208.6600 771.4600Q205.1600 775.8000 199.7700 778.6000Q194.3800 781.4000 186.2600 781.4000ZM191.4400 766.4200L191.4400 766.4200Q197.3200 766.4200 200.8200 763.7600Q204.3200 761.1000 206 756.9700Q207.6800 752.8400 207.8200 748.5000L207.8200 748.5000Q207.9600 745.9800 207.9600 743.1100Q207.9600 740.2400 207.8200 737.7200L207.8200 737.7200Q207.6800 733.5200 205.8600 729.6700Q204.0400 725.8200 200.5400 723.3000Q197.0400 720.7800 191.4400 720.7800L191.4400 720.7800Q185.5600 720.7800 182.1300 723.3700Q178.7000 725.9600 177.1600 730.1600Q175.6200 734.3600 175.3400 739.4000L175.3400 739.4000Q175.2000 743.6000 175.3400 747.8000L175.3400 747.8000Q175.6200 752.8400 177.1600 757.0400Q178.7000 761.2400 182.1300 763.8300Q185.5600 766.4200 191.4400 766.4200ZM260.0400 780L248.4200 780Q247.0200 780 246.0400 779.0200Q245.0600 778.0400 245.0600 776.6400L245.0600 776.6400L245.0600 710.5600Q245.0600 709.1600 246.0400 708.1800Q247.0200 707.2000 248.4200 707.2000L248.4200 707.2000L260.0400 707.2000Q261.5800 707.2000 262.4900 708.1800Q263.4000 709.1600 263.4000 710.5600L263.4000 710.5600L263.4000 776.6400Q263.4000 778.0400 262.4900 779.0200Q261.5800 780 260.0400 780L260.0400 780ZM260.6000 695.1600L247.8600 695.1600Q246.4600 695.1600 245.4800 694.1800Q244.5000 693.2000 244.5000 691.8000L244.5000 691.8000L244.5000 681.7200Q244.5000 680.3200 245.4800 679.3400Q246.4600 678.3600 247.8600 678.3600L247.8600 678.3600L260.6000 678.3600Q262.1400 678.3600 263.1200 679.3400Q264.1000 680.3200 264.1000 681.7200L264.1000 681.7200L264.1000 691.8000Q264.1000 693.2000 263.1200 694.1800Q262.1400 695.1600 260.6000 695.1600L260.6000 695.1600ZM318.1400 780L307.7800 780Q305.5400 780 304.4900 778.9500Q303.4400 777.9000 302.7400 776.5000L302.7400 776.5000L276.5600 711.5400Q276.2800 710.8400 276.2800 710.2800L276.2800 710.2800Q276.2800 709.0200 277.1900 708.1100Q278.1000 707.2000 279.3600 707.2000L279.3600 707.2000L290.7000 707.2000Q292.3800 707.2000 293.2200 708.1100Q294.0600 709.0200 294.3400 709.8600L294.3400 709.8600L312.9600 759L331.5800 709.8600Q331.8600 709.0200 332.7000 708.1100Q333.5400 707.2000 335.2200 707.2000L335.2200 707.2000L346.7000 707.2000Q347.8200 707.2000 348.7300 708.1100Q349.6400 709.0200 349.6400 710.2800L349.6400 710.2800Q349.6400 710.8400 349.5000 711.5400L349.5000 711.5400L323.1800 776.5000Q322.6200 777.9000 321.5000 778.9500Q320.3800 780 318.1400 780L318.1400 780ZM393.7400 781.4000L393.7400 781.4000Q378.2000 781.4000 369.1000 772.4400Q360 763.4800 359.3000 746.9600L359.3000 746.9600Q359.1600 745.5600 359.1600 743.3900Q359.1600 741.2200 359.3000 739.9600L359.3000 739.9600Q359.8600 729.3200 364.1300 721.6900Q368.4000 714.0600 375.9600 709.9300Q383.5200 705.8000 393.7400 705.8000L393.7400 705.8000Q405.0800 705.8000 412.7800 710.4900Q420.4800 715.1800 424.4000 723.5100Q428.3200 731.8400 428.3200 742.7600L428.3200 742.7600L428.3200 745.7000Q428.3200 747.1000 427.3400 748.0800Q426.3600 749.0600 424.8200 749.0600L424.8200 749.0600L378.3400 749.0600Q378.3400 749.0600 378.3400 749.4800Q378.3400 749.9000 378.3400 750.1800L378.3400 750.1800Q378.4800 755.0800 380.2300 759.2100Q381.9800 763.3400 385.4100 765.8600Q388.8400 768.3800 393.6000 768.3800L393.6000 768.3800Q397.5200 768.3800 400.1800 767.1900Q402.8400 766 404.5200 764.4600Q406.2000 762.9200 406.9000 761.9400L406.9000 761.9400Q408.1600 760.2600 408.9300 759.9100Q409.7000 759.5600 411.2400 759.5600L411.2400 759.5600L423.2800 759.5600Q424.6800 759.5600 425.5900 760.4000Q426.5000 761.2400 426.3600 762.5000L426.3600 762.5000Q426.2200 764.7400 424.0500 767.9600Q421.8800 771.1800 417.8200 774.2600Q413.7600 777.3400 407.6700 779.3700Q401.5800 781.4000 393.7400 781.4000ZM378.3400 736.8800L378.3400 737.3000L409.2800 737.3000L409.2800 736.8800Q409.2800 731.4200 407.4600 727.2900Q405.6400 723.1600 402.1400 720.8500Q398.6400 718.5400 393.7400 718.5400L393.7400 718.5400Q388.8400 718.5400 385.3400 720.8500Q381.8400 723.1600 380.0900 727.2900Q378.3400 731.4200 378.3400 736.8800L378.3400 736.8800ZM458.7000 780L446.5200 780Q445.1200 780 444.1400 779.0200Q443.1600 778.0400 443.1600 776.6400L443.1600 776.6400L443.1600 710.7000Q443.1600 709.1600 444.1400 708.1800Q445.1200 707.2000 446.5200 707.2000L446.5200 707.2000L457.8600 707.2000Q459.2600 707.2000 460.3100 708.1800Q461.3600 709.1600 461.3600 710.7000L461.3600 710.7000L461.3600 716.4400Q464.5800 711.9600 469.6900 709.5800Q474.8000 707.2000 481.5200 707.2000L481.5200 707.2000L487.2600 707.2000Q488.8000 707.2000 489.7100 708.1800Q490.6200 709.1600 490.6200 710.5600L490.6200 710.5600L490.6200 720.6400Q490.6200 722.0400 489.7100 723.0200Q488.8000 724 487.2600 724L487.2600 724L476.3400 724Q469.6200 724 465.9100 727.7100Q462.2000 731.4200 462.2000 738.1400L462.2000 738.1400L462.2000 776.6400Q462.2000 778.0400 461.2200 779.0200Q460.2400 780 458.7000 780L458.7000 780ZM529.1200 781.4000L529.1200 781.4000Q520.7200 781.4000 514.7700 779.4400Q508.8200 777.4800 505.0400 774.5400Q501.2600 771.6000 499.4400 768.6600Q497.6200 765.7200 497.4800 763.7600L497.4800 763.7600Q497.3400 762.2200 498.3900 761.3100Q499.4400 760.4000 500.7000 760.4000L500.7000 760.4000L511.7600 760.4000Q512.3200 760.4000 512.7400 760.5400Q513.1600 760.6800 513.8600 761.3800L513.8600 761.3800Q515.6800 762.9200 517.7100 764.6000Q519.7400 766.2800 522.5400 767.4700Q525.3400 768.6600 529.5400 768.6600L529.5400 768.6600Q535 768.6600 538.7100 766.4900Q542.4200 764.3200 542.4200 760.2600L542.4200 760.2600Q542.4200 757.3200 540.8100 755.5000Q539.2000 753.6800 534.8600 752.2100Q530.5200 750.7400 522.5400 749.0600L522.5400 749.0600Q514.7000 747.2400 509.5200 744.4400Q504.3400 741.6400 501.8200 737.4400Q499.3000 733.2400 499.3000 727.6400L499.3000 727.6400Q499.3000 722.1800 502.5900 717.2100Q505.8800 712.2400 512.3900 709.0200Q518.9000 705.8000 528.5600 705.8000L528.5600 705.8000Q536.1200 705.8000 541.7200 707.6900Q547.3200 709.5800 551.0300 712.3800Q554.7400 715.1800 556.7000 718.0500Q558.6600 720.9200 558.8000 723.0200L558.8000 723.0200Q558.9400 724.5600 557.9600 725.4700Q556.9800 726.3800 555.7200 726.3800L555.7200 726.3800L545.3600 726.3800Q544.6600 726.3800 544.1000 726.1000Q543.5400 725.8200 542.9800 725.4000L542.9800 725.4000Q541.4400 724 539.6200 722.3900Q537.8000 720.7800 535.2100 719.6600Q532.6200 718.5400 528.4200 718.5400L528.4200 718.5400Q523.1000 718.5400 520.3000 720.8500Q517.5000 723.1600 517.5000 726.6600L517.5000 726.6600Q517.5000 729.0400 518.8300 730.7900Q520.1600 732.5400 524.2200 734.0800Q528.2800 735.6200 536.5400 737.3000L536.5400 737.3000Q545.9200 738.9800 551.4500 742.2700Q556.9800 745.5600 559.2900 749.8300Q561.6000 754.1000 561.6000 759.2800L561.6000 759.2800Q561.6000 765.5800 557.8900 770.6200Q554.1800 775.6600 546.9700 778.5300Q539.7600 781.4000 529.1200 781.4000ZM597.1600 781.4000L597.1600 781.4000Q589.8800 781.4000 584 778.5300Q578.1200 775.6600 574.6900 770.8300Q571.2600 766 571.2600 759.9800L571.2600 759.9800Q571.2600 750.1800 579.2400 744.3700Q587.2200 738.5600 600.1000 736.6000L600.1000 736.6000L619.2800 733.8000L619.2800 730.8600Q619.2800 724.9800 616.3400 721.7600Q613.4000 718.5400 606.2600 718.5400L606.2600 718.5400Q601.2200 718.5400 598.0700 720.5700Q594.9200 722.6000 593.3800 725.9600L593.3800 725.9600Q592.2600 727.7800 590.1600 727.7800L590.1600 727.7800L579.1000 727.7800Q577.5600 727.7800 576.7900 726.9400Q576.0200 726.1000 576.0200 724.7000L576.0200 724.7000Q576.1600 722.4600 577.9100 719.2400Q579.6600 716.0200 583.2300 713.0100Q586.8000 710 592.5400 707.9000Q598.2800 705.8000 606.4000 705.8000L606.4000 705.8000Q615.2200 705.8000 621.3100 707.9700Q627.4000 710.1400 631.0400 713.7800Q634.6800 717.4200 636.3600 722.3200Q638.0400 727.2200 638.0400 732.6800L638.0400 732.6800L638.0400 776.6400Q638.0400 778.0400 637.0600 779.0200Q636.0800 780 634.6800 780L634.6800 780L623.3400 780Q621.8000 780 620.8900 779.0200Q619.9800 778.0400 619.9800 776.6400L619.9800 776.6400L619.9800 771.1800Q618.1600 773.7000 615.0800 776.0800Q612 778.4600 607.5900 779.9300Q603.1800 781.4000 597.1600 781.4000ZM601.9200 768.1000L601.9200 768.1000Q606.8200 768.1000 610.8100 766Q614.8000 763.9000 617.1100 759.4900Q619.4200 755.0800 619.4200 748.3600L619.4200 748.3600L619.4200 745.4200L605.4200 747.6600Q597.1600 748.9200 593.1000 751.7200Q589.0400 754.5200 589.0400 758.5800L589.0400 758.5800Q589.0400 761.6600 590.9300 763.8300Q592.8200 766 595.7600 767.0500Q598.7000 768.1000 601.9200 768.1000ZM683.5400 781.4000L683.5400 781.4000Q675.1400 781.4000 669.1900 779.4400Q663.2400 777.4800 659.4600 774.5400Q655.6800 771.6000 653.8600 768.6600Q652.0400 765.7200 651.9000 763.7600L651.9000 763.7600Q651.7600 762.2200 652.8100 761.3100Q653.8600 760.4000 655.1200 760.4000L655.1200 760.4000L666.1800 760.4000Q666.7400 760.4000 667.1600 760.5400Q667.5800 760.6800 668.2800 761.3800L668.2800 761.3800Q670.1000 762.9200 672.1300 764.6000Q674.1600 766.2800 676.9600 767.4700Q679.7600 768.6600 683.9600 768.6600L683.9600 768.6600Q689.4200 768.6600 693.1300 766.4900Q696.8400 764.3200 696.8400 760.2600L696.8400 760.2600Q696.8400 757.3200 695.2300 755.5000Q693.6200 753.6800 689.2800 752.2100Q684.9400 750.7400 676.9600 749.0600L676.9600 749.0600Q669.1200 747.2400 663.9400 744.4400Q658.7600 741.6400 656.2400 737.4400Q653.7200 733.2400 653.7200 727.6400L653.7200 727.6400Q653.7200 722.1800 657.0100 717.2100Q660.3000 712.2400 666.8100 709.0200Q673.3200 705.8000 682.9800 705.8000L682.9800 705.8000Q690.5400 705.8000 696.1400 707.6900Q701.7400 709.5800 705.4500 712.3800Q709.1600 715.1800 711.1200 718.0500Q713.0800 720.9200 713.2200 723.0200L713.2200 723.0200Q713.3600 724.5600 712.3800 725.4700Q711.4000 726.3800 710.1400 726.3800L710.1400 726.3800L699.7800 726.3800Q699.0800 726.3800 698.5200 726.1000Q697.9600 725.8200 697.4000 725.4000L697.4000 725.4000Q695.8600 724 694.0400 722.3900Q692.2200 720.7800 689.6300 719.6600Q687.0400 718.5400 682.8400 718.5400L682.8400 718.5400Q677.5200 718.5400 674.7200 720.8500Q671.9200 723.1600 671.9200 726.6600L671.9200 726.6600Q671.9200 729.0400 673.2500 730.7900Q674.5800 732.5400 678.6400 734.0800Q682.7000 735.6200 690.9600 737.3000L690.9600 737.3000Q700.3400 738.9800 705.8700 742.2700Q711.4000 745.5600 713.7100 749.8300Q716.0200 754.1000 716.0200 759.2800L716.0200 759.2800Q716.0200 765.5800 712.3100 770.6200Q708.6000 775.6600 701.3900 778.5300Q694.1800 781.4000 683.5400 781.4000ZM190.7400 921.4000L190.7400 921.4000Q180.6600 921.4000 173.0300 917.6200Q165.4000 913.8400 161.1300 906.6300Q156.8600 899.4200 156.4400 889.2000L156.4400 889.2000Q156.3000 887.1000 156.3000 883.6700Q156.3000 880.2400 156.4400 878L156.4400 878Q156.8600 867.7800 161.1300 860.5700Q165.4000 853.3600 173.0300 849.5800Q180.6600 845.8000 190.7400 845.8000L190.7400 845.8000Q199.7000 845.8000 206 848.2500Q212.3000 850.7000 216.3600 854.5500Q220.4200 858.4000 222.4500 862.5300Q224.4800 866.6600 224.6200 870.0200L224.6200 870.0200Q224.7600 871.5600 223.7100 872.4700Q222.6600 873.3800 221.2600 873.3800L221.2600 873.3800L208.9400 873.3800Q207.5400 873.3800 206.7700 872.6800Q206 871.9800 205.3000 870.5800L205.3000 870.5800Q203.2000 864.9800 199.7700 862.6700Q196.3400 860.3600 191.0200 860.3600L191.0200 860.3600Q184.0200 860.3600 179.8900 864.7700Q175.7600 869.1800 175.4800 878.7000L175.4800 878.7000Q175.2000 884.0200 175.4800 888.5000L175.4800 888.5000Q175.7600 898.1600 179.8900 902.5000Q184.0200 906.8400 191.0200 906.8400L191.0200 906.8400Q196.4800 906.8400 199.8400 904.5300Q203.2000 902.2200 205.3000 896.6200L205.3000 896.6200Q206 895.2200 206.7700 894.5200Q207.5400 893.8200 208.9400 893.8200L208.9400 893.8200L221.2600 893.8200Q222.6600 893.8200 223.7100 894.7300Q224.7600 895.6400 224.6200 897.1800L224.6200 897.1800Q224.4800 899.7000 223.2900 902.8500Q222.1000 906 219.5100 909.2900Q216.9200 912.5800 213 915.3100Q209.0800 918.0400 203.5500 919.7200Q198.0200 921.4000 190.7400 921.4000ZM271.3800 921.4000L271.3800 921.4000Q260.1800 921.4000 252.5500 917.4800Q244.9200 913.5600 240.9300 906.4200Q236.9400 899.2800 236.3800 889.7600L236.3800 889.7600Q236.2400 887.2400 236.2400 883.6000Q236.2400 879.9600 236.3800 877.4400L236.3800 877.4400Q236.9400 867.7800 241.0700 860.7100Q245.2000 853.6400 252.8300 849.7200Q260.4600 845.8000 271.3800 845.8000L271.3800 845.8000Q282.3000 845.8000 289.9300 849.7200Q297.5600 853.6400 301.6900 860.7100Q305.8200 867.7800 306.3800 877.4400L306.3800 877.4400Q306.5200 879.9600 306.5200 883.6000Q306.5200 887.2400 306.3800 889.7600L306.3800 889.7600Q305.8200 899.2800 301.8300 906.4200Q297.8400 913.5600 290.2100 917.4800Q282.5800 921.4000 271.3800 921.4000ZM271.3800 907.5400L271.3800 907.5400Q278.8000 907.5400 282.8600 902.8500Q286.9200 898.1600 287.3400 889.0600L287.3400 889.0600Q287.4800 886.9600 287.4800 883.6000Q287.4800 880.2400 287.3400 878.1400L287.3400 878.1400Q286.9200 869.0400 282.8600 864.3500Q278.8000 859.6600 271.3800 859.6600L271.3800 859.6600Q263.9600 859.6600 259.9000 864.3500Q255.8400 869.0400 255.4200 878.1400L255.4200 878.1400Q255.2800 880.2400 255.2800 883.6000Q255.2800 886.9600 255.4200 889.0600L255.4200 889.0600Q255.8400 898.1600 259.9000 902.8500Q263.9600 907.5400 271.3800 907.5400ZM337.7400 920L325.4200 920Q324.0200 920 323.0400 919.0200Q322.0600 918.0400 322.0600 916.6400L322.0600 916.6400L322.0600 850.5600Q322.0600 849.1600 323.0400 848.1800Q324.0200 847.2000 325.4200 847.2000L325.4200 847.2000L336.9000 847.2000Q338.3000 847.2000 339.2800 848.1800Q340.2600 849.1600 340.2600 850.5600L340.2600 850.5600L340.2600 856.3000Q343.9000 851.8200 349.5700 848.8100Q355.2400 845.8000 363.6400 845.8000L363.6400 845.8000Q372.1800 845.8000 378.4800 849.6500Q384.7800 853.5000 388.2100 860.5000Q391.6400 867.5000 391.6400 877.3000L391.6400 877.3000L391.6400 916.6400Q391.6400 918.0400 390.6600 919.0200Q389.6800 920 388.2800 920L388.2800 920L375.9600 920Q374.5600 920 373.5800 919.0200Q372.6000 918.0400 372.6000 916.6400L372.6000 916.6400L372.6000 878.1400Q372.6000 870.0200 368.6100 865.4000Q364.6200 860.7800 357.0600 860.7800L357.0600 860.7800Q349.7800 860.7800 345.4400 865.4000Q341.1000 870.0200 341.1000 878.1400L341.1000 878.1400L341.1000 916.6400Q341.1000 918.0400 340.1200 919.0200Q339.1400 920 337.7400 920L337.7400 920ZM453.6600 920L442.3200 920Q433.9200 920 428.1800 917.0600Q422.4400 914.1200 419.6400 908.3100Q416.8400 902.5000 416.8400 893.8200L416.8400 893.8200L416.8400 862.0400L405.7800 862.0400Q404.3800 862.0400 403.4000 861.0600Q402.4200 860.0800 402.4200 858.5400L402.4200 858.5400L402.4200 850.5600Q402.4200 849.1600 403.4000 848.1800Q404.3800 847.2000 405.7800 847.2000L405.7800 847.2000L416.8400 847.2000L416.8400 823.9600Q416.8400 822.5600 417.7500 821.5800Q418.6600 820.6000 420.2000 820.6000L420.2000 820.6000L431.5400 820.6000Q432.9400 820.6000 433.9200 821.5800Q434.9000 822.5600 434.9000 823.9600L434.9000 823.9600L434.9000 847.2000L452.4000 847.2000Q453.8000 847.2000 454.7800 848.1800Q455.7600 849.1600 455.7600 850.5600L455.7600 850.5600L455.7600 858.5400Q455.7600 860.0800 454.7800 861.0600Q453.8000 862.0400 452.4000 862.0400L452.4000 862.0400L434.9000 862.0400L434.9000 892.4200Q434.9000 898.1600 436.9300 901.3800Q438.9600 904.6000 444 904.6000L444 904.6000L453.6600 904.6000Q455.0600 904.6000 456.0400 905.5800Q457.0200 906.5600 457.0200 907.9600L457.0200 907.9600L457.0200 916.6400Q457.0200 918.0400 456.0400 919.0200Q455.0600 920 453.6600 920L453.6600 920ZM485.0200 920L472.8400 920Q471.4400 920 470.4600 919.0200Q469.4800 918.0400 469.4800 916.6400L469.4800 916.6400L469.4800 850.7000Q469.4800 849.1600 470.4600 848.1800Q471.4400 847.2000 472.8400 847.2000L472.8400 847.2000L484.1800 847.2000Q485.5800 847.2000 486.6300 848.1800Q487.6800 849.1600 487.6800 850.7000L487.6800 850.7000L487.6800 856.4400Q490.9000 851.9600 496.0100 849.5800Q501.1200 847.2000 507.8400 847.2000L507.8400 847.2000L513.5800 847.2000Q515.1200 847.2000 516.0300 848.1800Q516.9400 849.1600 516.9400 850.5600L516.9400 850.5600L516.9400 860.6400Q516.9400 862.0400 516.0300 863.0200Q515.1200 864 513.5800 864L513.5800 864L502.6600 864Q495.9400 864 492.2300 867.7100Q488.5200 871.4200 488.5200 878.1400L488.5200 878.1400L488.5200 916.6400Q488.5200 918.0400 487.5400 919.0200Q486.5600 920 485.0200 920L485.0200 920ZM542.8400 920L531.2200 920Q529.8200 920 528.8400 919.0200Q527.8600 918.0400 527.8600 916.6400L527.8600 916.6400L527.8600 850.5600Q527.8600 849.1600 528.8400 848.1800Q529.8200 847.2000 531.2200 847.2000L531.2200 847.2000L542.8400 847.2000Q544.3800 847.2000 545.2900 848.1800Q546.2000 849.1600 546.2000 850.5600L546.2000 850.5600L546.2000 916.6400Q546.2000 918.0400 545.2900 919.0200Q544.3800 920 542.8400 920L542.8400 920ZM543.4000 835.1600L530.6600 835.1600Q529.2600 835.1600 528.2800 834.1800Q527.3000 833.2000 527.3000 831.8000L527.3000 831.8000L527.3000 821.7200Q527.3000 820.3200 528.2800 819.3400Q529.2600 818.3600 530.6600 818.3600L530.6600 818.3600L543.4000 818.3600Q544.9400 818.3600 545.9200 819.3400Q546.9000 820.3200 546.9000 821.7200L546.9000 821.7200L546.9000 831.8000Q546.9000 833.2000 545.9200 834.1800Q544.9400 835.1600 543.4000 835.1600L543.4000 835.1600ZM605.1400 921.4000L605.1400 921.4000Q597.0200 921.4000 591.6300 918.6000Q586.2400 915.8000 582.7400 911.4600L582.7400 911.4600L582.7400 916.6400Q582.7400 918.0400 581.8300 919.0200Q580.9200 920 579.3800 920L579.3800 920L568.3200 920Q566.9200 920 565.9400 919.0200Q564.9600 918.0400 564.9600 916.6400L564.9600 916.6400L564.9600 823.9600Q564.9600 822.5600 565.9400 821.5800Q566.9200 820.6000 568.3200 820.6000L568.3200 820.6000L580.2200 820.6000Q581.7600 820.6000 582.6700 821.5800Q583.5800 822.5600 583.5800 823.9600L583.5800 823.9600L583.5800 855.0400Q587.0800 850.9800 592.3300 848.3900Q597.5800 845.8000 605.1400 845.8000L605.1400 845.8000Q612.5600 845.8000 618.0200 848.3200Q623.4800 850.8400 627.1900 855.3900Q630.9000 859.9400 632.8600 865.9600Q634.8200 871.9800 634.9600 878.9800L634.9600 878.9800Q635.1000 881.5000 635.1000 883.5300Q635.1000 885.5600 634.9600 888.0800L634.9600 888.0800Q634.6800 895.3600 632.7200 901.4500Q630.7600 907.5400 627.1200 912.0200Q623.4800 916.5000 618.0200 918.9500Q612.5600 921.4000 605.1400 921.4000ZM599.9600 906.4200L599.9600 906.4200Q605.9800 906.4200 609.3400 903.8300Q612.7000 901.2400 614.2400 897.0400Q615.7800 892.8400 616.0600 887.8000L616.0600 887.8000Q616.2000 883.6000 616.0600 879.4000L616.0600 879.4000Q615.7800 874.3600 614.2400 870.1600Q612.7000 865.9600 609.3400 863.3700Q605.9800 860.7800 599.9600 860.7800L599.9600 860.7800Q594.3600 860.7800 590.8600 863.3000Q587.3600 865.8200 585.5400 869.6700Q583.7200 873.5200 583.5800 877.7200L583.5800 877.7200Q583.4400 880.2400 583.4400 883.1100Q583.4400 885.9800 583.5800 888.5000L583.5800 888.5000Q583.8600 892.8400 585.4700 896.9700Q587.0800 901.1000 590.6500 903.7600Q594.2200 906.4200 599.9600 906.4200ZM677.6600 921.4000L677.6600 921.4000Q669.1200 921.4000 662.8900 917.5500Q656.6600 913.7000 653.3000 906.6300Q649.9400 899.5600 649.9400 889.9000L649.9400 889.9000L649.9400 850.5600Q649.9400 849.1600 650.9200 848.1800Q651.9000 847.2000 653.3000 847.2000L653.3000 847.2000L665.6200 847.2000Q667.1600 847.2000 668.0700 848.1800Q668.9800 849.1600 668.9800 850.5600L668.9800 850.5600L668.9800 889.0600Q668.9800 906.4200 684.2400 906.4200L684.2400 906.4200Q691.5200 906.4200 695.7900 901.8000Q700.0600 897.1800 700.0600 889.0600L700.0600 889.0600L700.0600 850.5600Q700.0600 849.1600 701.0400 848.1800Q702.0200 847.2000 703.4200 847.2000L703.4200 847.2000L715.7400 847.2000Q717.1400 847.2000 718.1200 848.1800Q719.1000 849.1600 719.1000 850.5600L719.1000 850.5600L719.1000 916.6400Q719.1000 918.0400 718.1200 919.0200Q717.1400 920 715.7400 920L715.7400 920L704.4000 920Q702.8600 920 701.9500 919.0200Q701.0400 918.0400 701.0400 916.6400L701.0400 916.6400L701.0400 910.9000Q697.2600 915.8000 691.6600 918.6000Q686.0600 921.4000 677.6600 921.4000ZM752.5600 920L740.9400 920Q739.5400 920 738.5600 919.0200Q737.5800 918.0400 737.5800 916.6400L737.5800 916.6400L737.5800 850.5600Q737.5800 849.1600 738.5600 848.1800Q739.5400 847.2000 740.9400 847.2000L740.9400 847.2000L752.5600 847.2000Q754.1000 847.2000 755.0100 848.1800Q755.9200 849.1600 755.9200 850.5600L755.9200 850.5600L755.9200 916.6400Q755.9200 918.0400 755.0100 919.0200Q754.1000 920 752.5600 920L752.5600 920ZM753.1200 835.1600L740.3800 835.1600Q738.9800 835.1600 738.0000 834.1800Q737.0200 833.2000 737.0200 831.8000L737.0200 831.8000L737.0200 821.7200Q737.0200 820.3200 738.0000 819.3400Q738.9800 818.3600 740.3800 818.3600L740.3800 818.3600L753.1200 818.3600Q754.6600 818.3600 755.6400 819.3400Q756.6200 820.3200 756.6200 821.7200L756.6200 821.7200L756.6200 831.8000Q756.6200 833.2000 755.6400 834.1800Q754.6600 835.1600 753.1200 835.1600L753.1200 835.1600ZM805.9000 950.8000L805.9000 950.8000Q801.9800 950.6600 798.9700 949.4000Q795.9600 948.1400 794.6300 946.4600Q793.3000 944.7800 794.7000 943.6600L794.7000 943.6600L797.0800 941.5600Q798.3400 940.4400 799.2500 940.9300Q800.1600 941.4200 801.6300 942.3300Q803.1000 943.2400 805.9000 943.2400L805.9000 943.2400Q808.0000 943.2400 809.5400 941.9100Q811.0800 940.5800 811.0800 938.4800L811.0800 938.4800Q811.0800 936.5200 809.6100 935.2600Q808.1400 934 805.9000 934L805.9000 934Q803.9400 934 802.5400 934.4900Q801.1400 934.9800 800.0200 935.1900Q798.9000 935.4000 797.7800 934.2800L797.7800 934.2800L795.2600 931.7600Q794.4200 930.7800 794.7000 929.7300Q794.9800 928.6800 795.5400 927.4200L795.5400 927.4200L798.4800 920.7000Q786.4400 918.8800 779.3000 910.6900Q772.1600 902.5000 771.7400 889.2000L771.7400 889.2000Q771.6000 887.1000 771.6000 883.6700Q771.6000 880.2400 771.7400 878L771.7400 878Q772.1600 867.7800 776.4300 860.5700Q780.7000 853.3600 788.3300 849.5800Q795.9600 845.8000 806.0400 845.8000L806.0400 845.8000Q815.0000 845.8000 821.3000 848.2500Q827.6000 850.7000 831.6600 854.5500Q835.7200 858.4000 837.7500 862.5300Q839.7800 866.6600 839.9200 870.0200L839.9200 870.0200Q840.0600 871.5600 839.0100 872.4700Q837.9600 873.3800 836.5600 873.3800L836.5600 873.3800L824.2400 873.3800Q822.8400 873.3800 822.0700 872.6800Q821.3000 871.9800 820.6000 870.5800L820.6000 870.5800Q818.5000 864.9800 815.0700 862.6700Q811.6400 860.3600 806.3200 860.3600L806.3200 860.3600Q799.3200 860.3600 795.1900 864.7700Q791.0600 869.1800 790.7800 878.7000L790.7800 878.7000Q790.5000 884.0200 790.7800 888.5000L790.7800 888.5000Q791.0600 898.1600 795.1900 902.5000Q799.3200 906.8400 806.3200 906.8400L806.3200 906.8400Q811.7800 906.8400 815.1400 904.5300Q818.5000 902.2200 820.6000 896.6200L820.6000 896.6200Q821.3000 895.2200 822.0700 894.5200Q822.8400 893.8200 824.2400 893.8200L824.2400 893.8200L836.5600 893.8200Q837.9600 893.8200 839.0100 894.7300Q840.0600 895.6400 839.9200 897.1800L839.9200 897.1800Q839.7800 900.2600 837.8200 904.3900Q835.8600 908.5200 831.9400 912.3700Q828.0200 916.2200 821.7200 918.8100Q815.4200 921.4000 806.4600 921.4000L806.4600 921.4000L803.5200 927.4200Q804.3600 927 805.8300 926.7200Q807.3000 926.4400 808.4200 926.4400L808.4200 926.4400Q813.3200 926.4400 816.3300 929.8000Q819.3400 933.1600 819.3400 938.3400L819.3400 938.3400Q819.3400 943.6600 815.8400 947.3000Q812.3400 950.9400 805.9000 950.8000ZM886.6800 921.4000L886.6800 921.4000Q875.4800 921.4000 867.8500 917.4800Q860.2200 913.5600 856.2300 906.4200Q852.2400 899.2800 851.6800 889.7600L851.6800 889.7600Q851.5400 887.2400 851.5400 883.6000Q851.5400 879.9600 851.6800 877.4400L851.6800 877.4400Q852.2400 867.7800 856.3700 860.7100Q860.5000 853.6400 868.1300 849.7200Q875.7600 845.8000 886.6800 845.8000L886.6800 845.8000Q897.6000 845.8000 905.2300 849.7200Q912.8600 853.6400 916.9900 860.7100Q921.1200 867.7800 921.6800 877.4400L921.6800 877.4400Q921.8200 879.9600 921.8200 883.6000Q921.8200 887.2400 921.6800 889.7600L921.6800 889.7600Q921.1200 899.2800 917.1300 906.4200Q913.1400 913.5600 905.5100 917.4800Q897.8800 921.4000 886.6800 921.4000ZM886.6800 907.5400L886.6800 907.5400Q894.1000 907.5400 898.1600 902.8500Q902.2200 898.1600 902.6400 889.0600L902.6400 889.0600Q902.7800 886.9600 902.7800 883.6000Q902.7800 880.2400 902.6400 878.1400L902.6400 878.1400Q902.2200 869.0400 898.1600 864.3500Q894.1000 859.6600 886.6800 859.6600L886.6800 859.6600Q879.2600 859.6600 875.2000 864.3500Q871.1400 869.0400 870.7200 878.1400L870.7200 878.1400Q870.5800 880.2400 870.5800 883.6000Q870.5800 886.9600 870.7200 889.0600L870.7200 889.0600Q871.1400 898.1600 875.2000 902.8500Q879.2600 907.5400 886.6800 907.5400ZM894.3800 837.4000L894.3800 837.4000Q890.7400 837.4000 888.5000 836.2100Q886.2600 835.0200 884.3700 833.7600Q882.4800 832.5000 880.2400 832.5000L880.2400 832.5000Q878.4200 832.5000 877.6500 833.5500Q876.8800 834.6000 876.1800 835.6500Q875.4800 836.7000 873.9400 836.7000L873.9400 836.7000L867.5000 836.7000Q866.5200 836.7000 865.8200 836Q865.1200 835.3000 865.1200 834.3200L865.1200 834.3200Q865.1200 832.2200 865.8900 829.6300Q866.6600 827.0400 868.3400 824.6600Q870.0200 822.2800 872.6100 820.8100Q875.2000 819.3400 878.7000 819.3400L878.7000 819.3400Q882.4800 819.3400 884.7200 820.5300Q886.9600 821.7200 888.8500 822.9800Q890.7400 824.2400 892.9800 824.2400L892.9800 824.2400Q894.8000 824.2400 895.5700 823.1200Q896.3400 822 897.0400 820.9500Q897.7400 819.9000 899.2800 819.9000L899.2800 819.9000L905.7200 819.9000Q906.8400 819.9000 907.4700 820.6700Q908.1000 821.4400 908.1000 822.4200L908.1000 822.4200Q908.1000 824.5200 907.3300 827.1100Q906.5600 829.7000 904.8800 832.0800Q903.2000 834.4600 900.6100 835.9300Q898.0200 837.4000 894.3800 837.4000ZM968.7200 921.4000L968.7200 921.4000Q953.1800 921.4000 944.0800 912.4400Q934.9800 903.4800 934.2800 886.9600L934.2800 886.9600Q934.1400 885.5600 934.1400 883.3900Q934.1400 881.2200 934.2800 879.9600L934.2800 879.9600Q934.8400 869.3200 939.1100 861.6900Q943.3800 854.0600 950.9400 849.9300Q958.5000 845.8000 968.7200 845.8000L968.7200 845.8000Q980.0600 845.8000 987.7600 850.4900Q995.4600 855.1800 999.3800 863.5100Q1003.3000 871.8400 1003.3000 882.7600L1003.3000 882.7600L1003.3000 885.7000Q1003.3000 887.1000 1002.3200 888.0800Q1001.3400 889.0600 999.8000 889.0600L999.8000 889.0600L953.3200 889.0600Q953.3200 889.0600 953.3200 889.4800Q953.3200 889.9000 953.3200 890.1800L953.3200 890.1800Q953.4600 895.0800 955.2100 899.2100Q956.9600 903.3400 960.3900 905.8600Q963.8200 908.3800 968.5800 908.3800L968.5800 908.3800Q972.5000 908.3800 975.1600 907.1900Q977.8200 906 979.5000 904.4600Q981.1800 902.9200 981.8800 901.9400L981.8800 901.9400Q983.1400 900.2600 983.9100 899.9100Q984.6800 899.5600 986.2200 899.5600L986.2200 899.5600L998.2600 899.5600Q999.6600 899.5600 1000.5700 900.4000Q1001.4800 901.2400 1001.3400 902.5000L1001.3400 902.5000Q1001.2000 904.7400 999.0300 907.9600Q996.8600 911.1800 992.8000 914.2600Q988.7400 917.3400 982.6500 919.3700Q976.5600 921.4000 968.7200 921.4000ZM953.3200 876.8800L953.3200 877.3000L984.2600 877.3000L984.2600 876.8800Q984.2600 871.4200 982.4400 867.2900Q980.6200 863.1600 977.1200 860.8500Q973.6200 858.5400 968.7200 858.5400L968.7200 858.5400Q963.8200 858.5400 960.3200 860.8500Q956.8200 863.1600 955.0700 867.2900Q953.3200 871.4200 953.3200 876.8800L953.3200 876.8800ZM1045.7200 921.4000L1045.7200 921.4000Q1037.3200 921.4000 1031.3700 919.4400Q1025.4200 917.4800 1021.6400 914.5400Q1017.8600 911.6000 1016.0400 908.6600Q1014.2200 905.7200 1014.0800 903.7600L1014.0800 903.7600Q1013.9400 902.2200 1014.9900 901.3100Q1016.0400 900.4000 1017.3000 900.4000L1017.3000 900.4000L1028.3600 900.4000Q1028.9200 900.4000 1029.3400 900.5400Q1029.7600 900.6800 1030.4600 901.3800L1030.4600 901.3800Q1032.2800 902.9200 1034.3100 904.6000Q1036.3400 906.2800 1039.1400 907.4700Q1041.9400 908.6600 1046.1400 908.6600L1046.1400 908.6600Q1051.6000 908.6600 1055.3100 906.4900Q1059.0200 904.3200 1059.0200 900.2600L1059.0200 900.2600Q1059.0200 897.3200 1057.4100 895.5000Q1055.8000 893.6800 1051.4600 892.2100Q1047.1200 890.7400 1039.1400 889.0600L1039.1400 889.0600Q1031.3000 887.2400 1026.1200 884.4400Q1020.9400 881.6400 1018.4200 877.4400Q1015.9000 873.2400 1015.9000 867.6400L1015.9000 867.6400Q1015.9000 862.1800 1019.1900 857.2100Q1022.4800 852.2400 1028.9900 849.0200Q1035.5000 845.8000 1045.1600 845.8000L1045.1600 845.8000Q1052.7200 845.8000 1058.3200 847.6900Q1063.9200 849.5800 1067.6300 852.3800Q1071.3400 855.1800 1073.3000 858.0500Q1075.2600 860.9200 1075.4000 863.0200L1075.4000 863.0200Q1075.5400 864.5600 1074.5600 865.4700Q1073.5800 866.3800 1072.3200 866.3800L1072.3200 866.3800L1061.9600 866.3800Q1061.2600 866.3800 1060.7000 866.1000Q1060.1400 865.8200 1059.5800 865.4000L1059.5800 865.4000Q1058.0400 864 1056.2200 862.3900Q1054.4000 860.7800 1051.8100 859.6600Q1049.2200 858.5400 1045.0200 858.5400L1045.0200 858.5400Q1039.7000 858.5400 1036.9000 860.8500Q1034.1000 863.1600 1034.1000 866.6600L1034.1000 866.6600Q1034.1000 869.0400 1035.4300 870.7900Q1036.7600 872.5400 1040.8200 874.0800Q1044.8800 875.6200 1053.1400 877.3000L1053.1400 877.3000Q1062.5200 878.9800 1068.0500 882.2700Q1073.5800 885.5600 1075.8900 889.8300Q1078.2000 894.1000 1078.2000 899.2800L1078.2000 899.2800Q1078.2000 905.5800 1074.4900 910.6200Q1070.7800 915.6600 1063.5700 918.5300Q1056.3600 921.4000 1045.7200 921.4000Z" id="title"/></g></svg>