<svg xmlns="http://www.w3.org/2000/svg" version="1.1" xmlns:xlink="http://www.w3.org/1999/xlink" xmlns:svgjs="http://svgjs.dev/svgjs" viewBox="0 0 1920 1080" id="3725683c-cbd0-4b07-b777-afeebf07abb5"><g><rect width="1920" height="1080" fill="#798086"/></g><g fill="#b949a4"><path d="M969.5 217C561.465 217 231 547.465 231 955.5C231 1363.53 561.465 1694 969.5 1694C1377.53 1694 1708 1363.53 1708 955.5C1708 547.465 1377.53 217 969.5 217ZM969.5 1309.34C773.983 1309.34 615.658 1151.02 615.658 955.5C615.658 759.983 773.983 601.658 969.5 601.658C1165.02 601.658 1323.34 759.983 1323.34 955.5C1323.34 1151.02 1165.02 1309.34 969.5 1309.34Z"/></g><g fill="#ffffff" opacity="0.2"><path d="M1432 918.479L1616.48 734V918.479H1432Z"/><path d="M1616.48 918.479L1800.52 734V918.479H1616.48Z"/><path d="M1800.52 918.479L1985 734V918.479H1800.52Z"/><path d="M1432 1102.52L1616.48 918.479V1102.52H1432Z"/><path d="M1616.48 1102.52L1800.52 918.479V1102.52H1616.48Z"/><path d="M1800.52 1102.52L1985 918.479V1102.52H1800.52Z"/><path d="M499 154.521L683.479 -29.5215V154.521H499Z"/><path d="M683.479 154.521L867.521 -29.5215V154.521H683.479Z"/><path d="M867.521 154.521L1052 -29.5215V154.521H867.521Z"/><path d="M499 339L683.479 154.521V339H499Z"/><path d="M683.479 339L867.521 154.521V339H683.479Z"/><path d="M867.521 339L1052 154.521V339H867.521Z"/></g><g><path d="M178.635 139.281L184.422 144.246V166.626H215.704L219.958 172.147L215.69 177.397H184.422V198.795L178.635 203.747L173 198.795V144.232L178.635 139.281ZM195.554 195.68H219.406L223.397 200.915L219.143 206.45H195.554L191.7 201.342L195.554 195.68ZM196.382 138H219.129L223.383 143.52L219.129 148.77H196.659L192.115 143.677L196.382 138ZM323.155 148.628L328.251 154.291L323.155 159.968H246.13L241.172 154.291L246.13 148.628H323.155ZM237.043 172.147L241.849 167.893L246.669 172.147V178.393C246.669 188.879 249.417 197.515 261.668 197.515H264.14C275.147 197.515 281.197 189.86 281.197 177.952V172.005L285.879 167.75L290.699 171.862V178.379C290.699 189.007 293.723 196.946 305.56 196.946H307.618C319.178 196.946 321.235 187.869 321.373 177.952V171.578L326.056 167.608L331 171.72V178.094C330.862 191.838 327.285 207.574 308.032 207.574H305.974C294.552 207.574 288.365 202.324 285.892 195.808C283.006 202.466 275.299 208.286 264.844 208.286H262.358C242.553 208.286 237.194 195.964 237.056 178.663V172.147H237.043ZM276.391 274.744L273.642 267.089L280.796 264.969L305.974 276.721V252.491L311.07 248.095L316.291 252.491V281.829L325.641 286.226L328.251 293.311L320.959 296L276.391 274.744ZM321.235 223.011L328.113 226.27L325.917 233.497L264.002 263.119L256.571 260.146L259.596 252.776L321.235 223.011ZM231.905 263.404L237.954 268.512C237.402 286.51 222.403 296 204.669 296H202.874C194.062 296 183.759 292.6 177.157 286.083L177.834 278.855L184.298 278.002C189.118 282.256 195.858 285.229 202.183 285.229H204.117C216.091 285.229 225.303 280.136 226.27 268.085L231.905 263.404ZM226.256 251.638C225.704 239.16 216.629 234.209 204.103 234.209H202.169C194.739 234.209 189.104 237.182 184.284 241.436L177.834 240.583L177.143 233.355C183.745 226.696 192.957 223.58 202.597 223.58H204.517C222.403 223.58 237.402 232.942 237.94 251.211L231.891 256.176L226.256 251.638Z" fill="#ffffff"/></g><g fill="#ffffff" id="info-group"><path d="M167.0800 570L154.9000 570Q153.7800 570 152.8700 569.1600Q151.9600 568.3200 151.9600 567.0600L151.9600 567.0600Q151.9600 566.5000 152.2400 565.8000L152.2400 565.8000L185.9800 475.5000Q186.4000 474.1000 187.5900 473.0500Q188.7800 472 190.8800 472L190.8800 472L206.1400 472Q208.2400 472 209.3600 473.0500Q210.4800 474.1000 211.0400 475.5000L211.0400 475.5000L244.7800 565.8000Q244.9200 566.5000 244.9200 567.0600L244.9200 567.0600Q244.9200 568.3200 244.0800 569.1600Q243.2400 570 242.1200 570L242.1200 570L229.9400 570Q227.9800 570 227.0700 569.0900Q226.1600 568.1800 225.8800 567.3400L225.8800 567.3400L219.3000 550.2600L177.7200 550.2600L171.1400 567.3400Q170.8600 568.1800 169.9500 569.0900Q169.0400 570 167.0800 570L167.0800 570ZM198.4400 490.9000L182.6200 534.1600L214.4000 534.1600L198.4400 490.9000ZM283.2800 571.4000L283.2800 571.4000Q274.7400 571.4000 268.5100 567.5500Q262.2800 563.7000 258.9200 556.6300Q255.5600 549.5600 255.5600 539.9000L255.5600 539.9000L255.5600 500.5600Q255.5600 499.1600 256.5400 498.1800Q257.5200 497.2000 258.9200 497.2000L258.9200 497.2000L271.2400 497.2000Q272.7800 497.2000 273.6900 498.1800Q274.6000 499.1600 274.6000 500.5600L274.6000 500.5600L274.6000 539.0600Q274.6000 556.4200 289.8600 556.4200L289.8600 556.4200Q297.1400 556.4200 301.4100 551.8000Q305.6800 547.1800 305.6800 539.0600L305.6800 539.0600L305.6800 500.5600Q305.6800 499.1600 306.6600 498.1800Q307.6400 497.2000 309.0400 497.2000L309.0400 497.2000L321.3600 497.2000Q322.7600 497.2000 323.7400 498.1800Q324.7200 499.1600 324.7200 500.5600L324.7200 500.5600L324.7200 566.6400Q324.7200 568.0400 323.7400 569.0200Q322.7600 570 321.3600 570L321.3600 570L310.0200 570Q308.4800 570 307.5700 569.0200Q306.6600 568.0400 306.6600 566.6400L306.6600 566.6400L306.6600 560.9000Q302.8800 565.8000 297.2800 568.6000Q291.6800 571.4000 283.2800 571.4000ZM358.3200 570L346.7000 570Q345.3000 570 344.3200 569.0200Q343.3400 568.0400 343.3400 566.6400L343.3400 566.6400L343.3400 473.9600Q343.3400 472.5600 344.3200 471.5800Q345.3000 470.6000 346.7000 470.6000L346.7000 470.6000L358.3200 470.6000Q359.7200 470.6000 360.7000 471.5800Q361.6800 472.5600 361.6800 473.9600L361.6800 473.9600L361.6800 566.6400Q361.6800 568.0400 360.7000 569.0200Q359.7200 570 358.3200 570L358.3200 570ZM401.4400 571.4000L401.4400 571.4000Q394.1600 571.4000 388.2800 568.5300Q382.4000 565.6600 378.9700 560.8300Q375.5400 556 375.5400 549.9800L375.5400 549.9800Q375.5400 540.1800 383.5200 534.3700Q391.5000 528.5600 404.3800 526.6000L404.3800 526.6000L423.5600 523.8000L423.5600 520.8600Q423.5600 514.9800 420.6200 511.7600Q417.6800 508.5400 410.5400 508.5400L410.5400 508.5400Q405.5000 508.5400 402.3500 510.5700Q399.2000 512.6000 397.6600 515.9600L397.6600 515.9600Q396.5400 517.7800 394.4400 517.7800L394.4400 517.7800L383.3800 517.7800Q381.8400 517.7800 381.0700 516.9400Q380.3000 516.1000 380.3000 514.7000L380.3000 514.7000Q380.4400 512.4600 382.1900 509.2400Q383.9400 506.0200 387.5100 503.0100Q391.0800 500 396.8200 497.9000Q402.5600 495.8000 410.6800 495.8000L410.6800 495.8000Q419.5000 495.8000 425.5900 497.9700Q431.6800 500.1400 435.3200 503.7800Q438.9600 507.4200 440.6400 512.3200Q442.3200 517.2200 442.3200 522.6800L442.3200 522.6800L442.3200 566.6400Q442.3200 568.0400 441.3400 569.0200Q440.3600 570 438.9600 570L438.9600 570L427.6200 570Q426.0800 570 425.1700 569.0200Q424.2600 568.0400 424.2600 566.6400L424.2600 566.6400L424.2600 561.1800Q422.4400 563.7000 419.3600 566.0800Q416.2800 568.4600 411.8700 569.9300Q407.4600 571.4000 401.4400 571.4000ZM406.2000 558.1000L406.2000 558.1000Q411.1000 558.1000 415.0900 556Q419.0800 553.9000 421.3900 549.4900Q423.7000 545.0800 423.7000 538.3600L423.7000 538.3600L423.7000 535.4200L409.7000 537.6600Q401.4400 538.9200 397.3800 541.7200Q393.3200 544.5200 393.3200 548.5800L393.3200 548.5800Q393.3200 551.6600 395.2100 553.8300Q397.1000 556 400.0400 557.0500Q402.9800 558.1000 406.2000 558.1000ZM559.6400 570L492.7200 570Q491.3200 570 490.3400 569.0200Q489.3600 568.0400 489.3600 566.6400L489.3600 566.6400L489.3600 559.5000Q489.3600 558.2400 489.9900 556.4900Q490.6200 554.7400 492.8600 552.9200L492.8600 552.9200L514.9800 530.9400Q524.2200 523.6600 529.8900 518.5500Q535.5600 513.4400 538.1500 509.1700Q540.7400 504.9000 540.7400 500.7000L540.7400 500.7000Q540.7400 494.4000 537.3100 490.4800Q533.8800 486.5600 526.4600 486.5600L526.4600 486.5600Q521.5600 486.5600 518.2000 488.5900Q514.8400 490.6200 512.9500 493.9800Q511.0600 497.3400 510.3600 501.4000L510.3600 501.4000Q510.0800 503.2200 508.8200 503.9200Q507.5600 504.6200 506.3000 504.6200L506.3000 504.6200L493.8400 504.6200Q492.5800 504.6200 491.7400 503.7800Q490.9000 502.9400 490.9000 501.8200L490.9000 501.8200Q491.0400 495.8000 493.4200 490.1300Q495.8000 484.4600 500.3500 480.0500Q504.9000 475.6400 511.4800 472.9800Q518.0600 470.3200 526.3200 470.3200L526.3200 470.3200Q537.9400 470.3200 545.5700 474.2400Q553.2000 478.1600 557.0500 484.8800Q560.9000 491.6000 560.9000 500L560.9000 500Q560.9000 506.5800 558.3800 512.1100Q555.8600 517.6400 551.1000 522.7500Q546.3400 527.8600 539.6200 533.1800L539.6200 533.1800L519.7400 553.3400L559.6400 553.3400Q561.1800 553.3400 562.0900 554.2500Q563.0000 555.1600 563.0000 556.7000L563.0000 556.7000L563.0000 566.6400Q563.0000 568.0400 562.0900 569.0200Q561.1800 570 559.6400 570L559.6400 570ZM595.7600 521L581.9000 521Q580.5000 521 579.5200 520.0200Q578.5400 519.0400 578.5400 517.6400L578.5400 517.6400L578.5400 504.3400Q578.5400 502.8000 579.5200 501.8200Q580.5000 500.8400 581.9000 500.8400L581.9000 500.8400L595.7600 500.8400Q597.3000 500.8400 598.2800 501.8200Q599.2600 502.8000 599.2600 504.3400L599.2600 504.3400L599.2600 517.6400Q599.2600 519.0400 598.2800 520.0200Q597.3000 521 595.7600 521L595.7600 521ZM595.7600 570L581.9000 570Q580.5000 570 579.5200 569.0200Q578.5400 568.0400 578.5400 566.6400L578.5400 566.6400L578.5400 553.3400Q578.5400 551.8000 579.5200 550.8200Q580.5000 549.8400 581.9000 549.8400L581.9000 549.8400L595.7600 549.8400Q597.3000 549.8400 598.2800 550.8200Q599.2600 551.8000 599.2600 553.3400L599.2600 553.3400L599.2600 566.6400Q599.2600 568.0400 598.2800 569.0200Q597.3000 570 595.7600 570L595.7600 570ZM688.7200 571.4000L688.7200 571.4000Q676.2600 571.4000 667.3000 567.2700Q658.3400 563.1400 653.3000 554.5300Q648.2600 545.9200 647.8400 533.0400L647.8400 533.0400Q647.7000 527.0200 647.7000 521.1400Q647.7000 515.2600 647.8400 509.1000L647.8400 509.1000Q648.2600 496.3600 653.4400 487.8200Q658.6200 479.2800 667.6500 474.9400Q676.6800 470.6000 688.7200 470.6000L688.7200 470.6000Q700.7600 470.6000 709.8600 474.9400Q718.9600 479.2800 724.1400 487.8200Q729.3200 496.3600 729.7400 509.1000L729.7400 509.1000Q730.0200 515.2600 730.0200 521.1400Q730.0200 527.0200 729.7400 533.0400L729.7400 533.0400Q729.3200 545.9200 724.2800 554.5300Q719.2400 563.1400 710.2100 567.2700Q701.1800 571.4000 688.7200 571.4000ZM688.7200 555.3000L688.7200 555.3000Q697.8200 555.3000 703.5600 549.9100Q709.3000 544.5200 709.7200 532.3400L709.7200 532.3400Q710.0000 526.1800 710.0000 520.9300Q710.0000 515.6800 709.7200 509.6600L709.7200 509.6600Q709.4400 501.5400 706.7100 496.4300Q703.9800 491.3200 699.3600 489.0100Q694.7400 486.7000 688.7200 486.7000L688.7200 486.7000Q682.8400 486.7000 678.2200 489.0100Q673.6000 491.3200 670.8700 496.4300Q668.1400 501.5400 667.8600 509.6600L667.8600 509.6600Q667.7200 515.6800 667.7200 520.9300Q667.7200 526.1800 667.8600 532.3400L667.8600 532.3400Q668.2800 544.5200 674.0200 549.9100Q679.7600 555.3000 688.7200 555.3000ZM842.7200 596.6000L830.6800 596.6000Q829.2800 596.6000 828.3000 595.6200Q827.3200 594.6400 827.3200 593.2400L827.3200 593.2400L827.3200 561.4600Q823.9600 565.9400 818.6400 568.6700Q813.3200 571.4000 805.7600 571.4000L805.7600 571.4000Q798.6200 571.4000 793.0900 568.8800Q787.5600 566.3600 783.8500 561.9500Q780.1400 557.5400 778.1800 551.5900Q776.2200 545.6400 775.9400 538.6400L775.9400 538.6400Q775.8000 536.1200 775.8000 533.6000Q775.8000 531.0800 775.9400 528.7000L775.9400 528.7000Q776.3600 521.4200 778.2500 515.4000Q780.1400 509.3800 783.8500 504.9700Q787.5600 500.5600 793.0900 498.1800Q798.6200 495.8000 805.7600 495.8000L805.7600 495.8000Q813.8800 495.8000 819.4100 498.7400Q824.9400 501.6800 828.1600 506.1600L828.1600 506.1600L828.1600 500.5600Q828.1600 499.1600 829.1400 498.1800Q830.1200 497.2000 831.5200 497.2000L831.5200 497.2000L842.7200 497.2000Q844.1200 497.2000 845.1000 498.1800Q846.0800 499.1600 846.0800 500.5600L846.0800 500.5600L846.0800 593.2400Q846.0800 594.6400 845.1000 595.6200Q844.1200 596.6000 842.7200 596.6000L842.7200 596.6000ZM811.0800 556.4200L811.0800 556.4200Q816.6800 556.4200 820.1800 553.9000Q823.6800 551.3800 825.4300 547.5300Q827.1800 543.6800 827.3200 539.4800L827.3200 539.4800Q827.6000 536.8200 827.6000 534.0200Q827.6000 531.2200 827.3200 528.7000L827.3200 528.7000Q827.1800 524.3600 825.5000 520.2300Q823.8200 516.1000 820.3200 513.4400Q816.8200 510.7800 811.0800 510.7800L811.0800 510.7800Q805.2000 510.7800 801.7000 513.3700Q798.2000 515.9600 796.7300 520.1600Q795.2600 524.3600 794.9800 529.4000L794.9800 529.4000Q794.7000 533.6000 794.9800 537.8000L794.9800 537.8000Q795.2600 542.8400 796.7300 547.0400Q798.2000 551.2400 801.7000 553.8300Q805.2000 556.4200 811.0800 556.4200ZM891.7200 571.4000L891.7200 571.4000Q883.1800 571.4000 876.9500 567.5500Q870.7200 563.7000 867.3600 556.6300Q864 549.5600 864 539.9000L864 539.9000L864 500.5600Q864 499.1600 864.9800 498.1800Q865.9600 497.2000 867.3600 497.2000L867.3600 497.2000L879.6800 497.2000Q881.2200 497.2000 882.1300 498.1800Q883.0400 499.1600 883.0400 500.5600L883.0400 500.5600L883.0400 539.0600Q883.0400 556.4200 898.3000 556.4200L898.3000 556.4200Q905.5800 556.4200 909.8500 551.8000Q914.1200 547.1800 914.1200 539.0600L914.1200 539.0600L914.1200 500.5600Q914.1200 499.1600 915.1000 498.1800Q916.0800 497.2000 917.4800 497.2000L917.4800 497.2000L929.8000 497.2000Q931.2000 497.2000 932.1800 498.1800Q933.1600 499.1600 933.1600 500.5600L933.1600 500.5600L933.1600 566.6400Q933.1600 568.0400 932.1800 569.0200Q931.2000 570 929.8000 570L929.8000 570L918.4600 570Q916.9200 570 916.0100 569.0200Q915.1000 568.0400 915.1000 566.6400L915.1000 566.6400L915.1000 560.9000Q911.3200 565.8000 905.7200 568.6000Q900.1200 571.4000 891.7200 571.4000ZM983.0000 571.4000L983.0000 571.4000Q967.4600 571.4000 958.3600 562.4400Q949.2600 553.4800 948.5600 536.9600L948.5600 536.9600Q948.4200 535.5600 948.4200 533.3900Q948.4200 531.2200 948.5600 529.9600L948.5600 529.9600Q949.1200 519.3200 953.3900 511.6900Q957.6600 504.0600 965.2200 499.9300Q972.7800 495.8000 983.0000 495.8000L983.0000 495.8000Q994.3400 495.8000 1002.0400 500.4900Q1009.7400 505.1800 1013.6600 513.5100Q1017.5800 521.8400 1017.5800 532.7600L1017.5800 532.7600L1017.5800 535.7000Q1017.5800 537.1000 1016.6000 538.0800Q1015.6200 539.0600 1014.0800 539.0600L1014.0800 539.0600L967.6000 539.0600Q967.6000 539.0600 967.6000 539.4800Q967.6000 539.9000 967.6000 540.1800L967.6000 540.1800Q967.7400 545.0800 969.4900 549.2100Q971.2400 553.3400 974.6700 555.8600Q978.1000 558.3800 982.8600 558.3800L982.8600 558.3800Q986.7800 558.3800 989.4400 557.1900Q992.1000 556 993.7800 554.4600Q995.4600 552.9200 996.1600 551.9400L996.1600 551.9400Q997.4200 550.2600 998.1900 549.9100Q998.9600 549.5600 1000.5000 549.5600L1000.5000 549.5600L1012.5400 549.5600Q1013.9400 549.5600 1014.8500 550.4000Q1015.7600 551.2400 1015.6200 552.5000L1015.6200 552.5000Q1015.4800 554.7400 1013.3100 557.9600Q1011.1400 561.1800 1007.0800 564.2600Q1003.0200 567.3400 996.9300 569.3700Q990.8400 571.4000 983.0000 571.4000ZM967.6000 526.8800L967.6000 527.3000L998.5400 527.3000L998.5400 526.8800Q998.5400 521.4200 996.7200 517.2900Q994.9000 513.1600 991.4000 510.8500Q987.9000 508.5400 983.0000 508.5400L983.0000 508.5400Q978.1000 508.5400 974.6000 510.8500Q971.1000 513.1600 969.3500 517.2900Q967.6000 521.4200 967.6000 526.8800L967.6000 526.8800ZM1095.8400 571.4000L1095.8400 571.4000Q1080.3000 571.4000 1071.2000 562.4400Q1062.1000 553.4800 1061.4000 536.9600L1061.4000 536.9600Q1061.2600 535.5600 1061.2600 533.3900Q1061.2600 531.2200 1061.4000 529.9600L1061.4000 529.9600Q1061.9600 519.3200 1066.2300 511.6900Q1070.5000 504.0600 1078.0600 499.9300Q1085.6200 495.8000 1095.8400 495.8000L1095.8400 495.8000Q1107.1800 495.8000 1114.8800 500.4900Q1122.5800 505.1800 1126.5000 513.5100Q1130.4200 521.8400 1130.4200 532.7600L1130.4200 532.7600L1130.4200 535.7000Q1130.4200 537.1000 1129.4400 538.0800Q1128.4600 539.0600 1126.9200 539.0600L1126.9200 539.0600L1080.4400 539.0600Q1080.4400 539.0600 1080.4400 539.4800Q1080.4400 539.9000 1080.4400 540.1800L1080.4400 540.1800Q1080.5800 545.0800 1082.3300 549.2100Q1084.0800 553.3400 1087.5100 555.8600Q1090.9400 558.3800 1095.7000 558.3800L1095.7000 558.3800Q1099.6200 558.3800 1102.2800 557.1900Q1104.9400 556 1106.6200 554.4600Q1108.3000 552.9200 1109 551.9400L1109 551.9400Q1110.2600 550.2600 1111.0300 549.9100Q1111.8000 549.5600 1113.3400 549.5600L1113.3400 549.5600L1125.3800 549.5600Q1126.7800 549.5600 1127.6900 550.4000Q1128.6000 551.2400 1128.4600 552.5000L1128.4600 552.5000Q1128.3200 554.7400 1126.1500 557.9600Q1123.9800 561.1800 1119.9200 564.2600Q1115.8600 567.3400 1109.7700 569.3700Q1103.6800 571.4000 1095.8400 571.4000ZM1080.4400 526.8800L1080.4400 527.3000L1111.3800 527.3000L1111.3800 526.8800Q1111.3800 521.4200 1109.5600 517.2900Q1107.7400 513.1600 1104.2400 510.8500Q1100.7400 508.5400 1095.8400 508.5400L1095.8400 508.5400Q1090.9400 508.5400 1087.4400 510.8500Q1083.9400 513.1600 1082.1900 517.2900Q1080.4400 521.4200 1080.4400 526.8800L1080.4400 526.8800ZM1098.3600 486.7000L1089.8200 486.7000Q1087.5800 486.7000 1087.5800 484.4600L1087.5800 484.4600Q1087.5800 483.3400 1088.2800 482.6400L1088.2800 482.6400L1099.6200 468.7800Q1101.0200 467.2400 1102 466.7500Q1102.9800 466.2600 1104.8000 466.2600L1104.8000 466.2600L1118.8000 466.2600Q1121.4600 466.2600 1121.4600 468.9200L1121.4600 468.9200Q1121.4600 469.9000 1120.7600 470.6000L1120.7600 470.6000L1103.4000 484.8800Q1102.2800 485.8600 1101.2300 486.2800Q1100.1800 486.7000 1098.3600 486.7000L1098.3600 486.7000ZM1204.3400 571.4000L1204.3400 571.4000Q1195.8000 571.4000 1189.5700 567.5500Q1183.3400 563.7000 1179.9800 556.6300Q1176.6200 549.5600 1176.6200 539.9000L1176.6200 539.9000L1176.6200 500.5600Q1176.6200 499.1600 1177.6000 498.1800Q1178.5800 497.2000 1179.9800 497.2000L1179.9800 497.2000L1192.3000 497.2000Q1193.8400 497.2000 1194.7500 498.1800Q1195.6600 499.1600 1195.6600 500.5600L1195.6600 500.5600L1195.6600 539.0600Q1195.6600 556.4200 1210.9200 556.4200L1210.9200 556.4200Q1218.2000 556.4200 1222.4700 551.8000Q1226.7400 547.1800 1226.7400 539.0600L1226.7400 539.0600L1226.7400 500.5600Q1226.7400 499.1600 1227.7200 498.1800Q1228.7000 497.2000 1230.1000 497.2000L1230.1000 497.2000L1242.4200 497.2000Q1243.8200 497.2000 1244.8000 498.1800Q1245.7800 499.1600 1245.7800 500.5600L1245.7800 500.5600L1245.7800 566.6400Q1245.7800 568.0400 1244.8000 569.0200Q1243.8200 570 1242.4200 570L1242.4200 570L1231.0800 570Q1229.5400 570 1228.6300 569.0200Q1227.7200 568.0400 1227.7200 566.6400L1227.7200 566.6400L1227.7200 560.9000Q1223.9400 565.8000 1218.3400 568.6000Q1212.7400 571.4000 1204.3400 571.4000ZM1279.3800 570L1267.6200 570Q1266.2200 570 1265.2400 569.0200Q1264.2600 568.0400 1264.2600 566.6400L1264.2600 566.6400L1264.2600 500.5600Q1264.2600 499.1600 1265.2400 498.1800Q1266.2200 497.2000 1267.6200 497.2000L1267.6200 497.2000L1278.5400 497.2000Q1279.9400 497.2000 1280.9200 498.1800Q1281.9000 499.1600 1281.9000 500.5600L1281.9000 500.5600L1281.9000 505.3200Q1284.8400 501.4000 1289.8100 498.6700Q1294.7800 495.9400 1301.6400 495.8000L1301.6400 495.8000Q1317.6000 495.5200 1323.9000 508.2600L1323.9000 508.2600Q1327.1200 502.6600 1333.2100 499.2300Q1339.3000 495.8000 1346.7200 495.8000L1346.7200 495.8000Q1354 495.8000 1359.9500 499.1600Q1365.9000 502.5200 1369.3300 509.3100Q1372.7600 516.1000 1372.7600 526.4600L1372.7600 526.4600L1372.7600 566.6400Q1372.7600 568.0400 1371.7800 569.0200Q1370.8000 570 1369.4000 570L1369.4000 570L1357.9200 570Q1356.5200 570 1355.5400 569.0200Q1354.5600 568.0400 1354.5600 566.6400L1354.5600 566.6400L1354.5600 527.5800Q1354.5600 521.2800 1352.7400 517.5700Q1350.9200 513.8600 1347.8400 512.3200Q1344.7600 510.7800 1340.9800 510.7800L1340.9800 510.7800Q1337.9000 510.7800 1334.8200 512.3200Q1331.7400 513.8600 1329.7800 517.5700Q1327.8200 521.2800 1327.8200 527.5800L1327.8200 527.5800L1327.8200 566.6400Q1327.8200 568.0400 1326.8400 569.0200Q1325.8600 570 1324.4600 570L1324.4600 570L1312.9800 570Q1311.5800 570 1310.6000 569.0200Q1309.6200 568.0400 1309.6200 566.6400L1309.6200 566.6400L1309.6200 527.5800Q1309.6200 521.2800 1307.6600 517.5700Q1305.7000 513.8600 1302.6200 512.3200Q1299.5400 510.7800 1296.0400 510.7800L1296.0400 510.7800Q1292.8200 510.7800 1289.7400 512.3900Q1286.6600 514 1284.7000 517.6400Q1282.7400 521.2800 1282.7400 527.5800L1282.7400 527.5800L1282.7400 566.6400Q1282.7400 568.0400 1281.7600 569.0200Q1280.7800 570 1279.3800 570L1279.3800 570ZM199.5600 711.4000L199.5600 711.4000Q191.4400 711.4000 186.0500 708.6000Q180.6600 705.8000 177.1600 701.4600L177.1600 701.4600L177.1600 706.6400Q177.1600 708.0400 176.2500 709.0200Q175.3400 710 173.8000 710L173.8000 710L162.7400 710Q161.3400 710 160.3600 709.0200Q159.3800 708.0400 159.3800 706.6400L159.3800 706.6400L159.3800 613.9600Q159.3800 612.5600 160.3600 611.5800Q161.3400 610.6000 162.7400 610.6000L162.7400 610.6000L174.6400 610.6000Q176.1800 610.6000 177.0900 611.5800Q178 612.5600 178 613.9600L178 613.9600L178 645.0400Q181.5000 640.9800 186.7500 638.3900Q192 635.8000 199.5600 635.8000L199.5600 635.8000Q206.9800 635.8000 212.4400 638.3200Q217.9000 640.8400 221.6100 645.3900Q225.3200 649.9400 227.2800 655.9600Q229.2400 661.9800 229.3800 668.9800L229.3800 668.9800Q229.5200 671.5000 229.5200 673.5300Q229.5200 675.5600 229.3800 678.0800L229.3800 678.0800Q229.1000 685.3600 227.1400 691.4500Q225.1800 697.5400 221.5400 702.0200Q217.9000 706.5000 212.4400 708.9500Q206.9800 711.4000 199.5600 711.4000ZM194.3800 696.4200L194.3800 696.4200Q200.4000 696.4200 203.7600 693.8300Q207.1200 691.2400 208.6600 687.0400Q210.2000 682.8400 210.4800 677.8000L210.4800 677.8000Q210.6200 673.6000 210.4800 669.4000L210.4800 669.4000Q210.2000 664.3600 208.6600 660.1600Q207.1200 655.9600 203.7600 653.3700Q200.4000 650.7800 194.3800 650.7800L194.3800 650.7800Q188.7800 650.7800 185.2800 653.3000Q181.7800 655.8200 179.9600 659.6700Q178.1400 663.5200 178 667.7200L178 667.7200Q177.8600 670.2400 177.8600 673.1100Q177.8600 675.9800 178 678.5000L178 678.5000Q178.2800 682.8400 179.8900 686.9700Q181.5000 691.1000 185.0700 693.7600Q188.6400 696.4200 194.3800 696.4200ZM266.2000 711.4000L266.2000 711.4000Q258.9200 711.4000 253.0400 708.5300Q247.1600 705.6600 243.7300 700.8300Q240.3000 696 240.3000 689.9800L240.3000 689.9800Q240.3000 680.1800 248.2800 674.3700Q256.2600 668.5600 269.1400 666.6000L269.1400 666.6000L288.3200 663.8000L288.3200 660.8600Q288.3200 654.9800 285.3800 651.7600Q282.4400 648.5400 275.3000 648.5400L275.3000 648.5400Q270.2600 648.5400 267.1100 650.5700Q263.9600 652.6000 262.4200 655.9600L262.4200 655.9600Q261.3000 657.7800 259.2000 657.7800L259.2000 657.7800L248.1400 657.7800Q246.6000 657.7800 245.8300 656.9400Q245.0600 656.1000 245.0600 654.7000L245.0600 654.7000Q245.2000 652.4600 246.9500 649.2400Q248.7000 646.0200 252.2700 643.0100Q255.8400 640 261.5800 637.9000Q267.3200 635.8000 275.4400 635.8000L275.4400 635.8000Q284.2600 635.8000 290.3500 637.9700Q296.4400 640.1400 300.0800 643.7800Q303.7200 647.4200 305.4000 652.3200Q307.0800 657.2200 307.0800 662.6800L307.0800 662.6800L307.0800 706.6400Q307.0800 708.0400 306.1000 709.0200Q305.1200 710 303.7200 710L303.7200 710L292.3800 710Q290.8400 710 289.9300 709.0200Q289.0200 708.0400 289.0200 706.6400L289.0200 706.6400L289.0200 701.1800Q287.2000 703.7000 284.1200 706.0800Q281.0400 708.4600 276.6300 709.9300Q272.2200 711.4000 266.2000 711.4000ZM270.9600 698.1000L270.9600 698.1000Q275.8600 698.1000 279.8500 696Q283.8400 693.9000 286.1500 689.4900Q288.4600 685.0800 288.4600 678.3600L288.4600 678.3600L288.4600 675.4200L274.4600 677.6600Q266.2000 678.9200 262.1400 681.7200Q258.0800 684.5200 258.0800 688.5800L258.0800 688.5800Q258.0800 691.6600 259.9700 693.8300Q261.8600 696 264.8000 697.0500Q267.7400 698.1000 270.9600 698.1000ZM340.6800 710L328.3600 710Q326.9600 710 325.9800 709.0200Q325 708.0400 325 706.6400L325 706.6400L325 640.5600Q325 639.1600 325.9800 638.1800Q326.9600 637.2000 328.3600 637.2000L328.3600 637.2000L339.8400 637.2000Q341.2400 637.2000 342.2200 638.1800Q343.2000 639.1600 343.2000 640.5600L343.2000 640.5600L343.2000 646.3000Q346.8400 641.8200 352.5100 638.8100Q358.1800 635.8000 366.5800 635.8000L366.5800 635.8000Q375.1200 635.8000 381.4200 639.6500Q387.7200 643.5000 391.1500 650.5000Q394.5800 657.5000 394.5800 667.3000L394.5800 667.3000L394.5800 706.6400Q394.5800 708.0400 393.6000 709.0200Q392.6200 710 391.2200 710L391.2200 710L378.9000 710Q377.5000 710 376.5200 709.0200Q375.5400 708.0400 375.5400 706.6400L375.5400 706.6400L375.5400 668.1400Q375.5400 660.0200 371.5500 655.4000Q367.5600 650.7800 360 650.7800L360 650.7800Q352.7200 650.7800 348.3800 655.4000Q344.0400 660.0200 344.0400 668.1400L344.0400 668.1400L344.0400 706.6400Q344.0400 708.0400 343.0600 709.0200Q342.0800 710 340.6800 710L340.6800 710ZM443.8600 711.4000L443.8600 711.4000Q433.7800 711.4000 426.1500 707.6200Q418.5200 703.8400 414.2500 696.6300Q409.9800 689.4200 409.5600 679.2000L409.5600 679.2000Q409.4200 677.1000 409.4200 673.6700Q409.4200 670.2400 409.5600 668L409.5600 668Q409.9800 657.7800 414.2500 650.5700Q418.5200 643.3600 426.1500 639.5800Q433.7800 635.8000 443.8600 635.8000L443.8600 635.8000Q452.8200 635.8000 459.1200 638.2500Q465.4200 640.7000 469.4800 644.5500Q473.5400 648.4000 475.5700 652.5300Q477.6000 656.6600 477.7400 660.0200L477.7400 660.0200Q477.8800 661.5600 476.8300 662.4700Q475.7800 663.3800 474.3800 663.3800L474.3800 663.3800L462.0600 663.3800Q460.6600 663.3800 459.8900 662.6800Q459.1200 661.9800 458.4200 660.5800L458.4200 660.5800Q456.3200 654.9800 452.8900 652.6700Q449.4600 650.3600 444.1400 650.3600L444.1400 650.3600Q437.1400 650.3600 433.0100 654.7700Q428.8800 659.1800 428.6000 668.7000L428.6000 668.7000Q428.3200 674.0200 428.6000 678.5000L428.6000 678.5000Q428.8800 688.1600 433.0100 692.5000Q437.1400 696.8400 444.1400 696.8400L444.1400 696.8400Q449.6000 696.8400 452.9600 694.5300Q456.3200 692.2200 458.4200 686.6200L458.4200 686.6200Q459.1200 685.2200 459.8900 684.5200Q460.6600 683.8200 462.0600 683.8200L462.0600 683.8200L474.3800 683.8200Q475.7800 683.8200 476.8300 684.7300Q477.8800 685.6400 477.7400 687.1800L477.7400 687.1800Q477.6000 689.7000 476.4100 692.8500Q475.2200 696 472.6300 699.2900Q470.0400 702.5800 466.1200 705.3100Q462.2000 708.0400 456.6700 709.7200Q451.1400 711.4000 443.8600 711.4000ZM524.5000 711.4000L524.5000 711.4000Q513.3000 711.4000 505.6700 707.4800Q498.0400 703.5600 494.0500 696.4200Q490.0600 689.2800 489.5000 679.7600L489.5000 679.7600Q489.3600 677.2400 489.3600 673.6000Q489.3600 669.9600 489.5000 667.4400L489.5000 667.4400Q490.0600 657.7800 494.1900 650.7100Q498.3200 643.6400 505.9500 639.7200Q513.5800 635.8000 524.5000 635.8000L524.5000 635.8000Q535.4200 635.8000 543.0500 639.7200Q550.6800 643.6400 554.8100 650.7100Q558.9400 657.7800 559.5000 667.4400L559.5000 667.4400Q559.6400 669.9600 559.6400 673.6000Q559.6400 677.2400 559.5000 679.7600L559.5000 679.7600Q558.9400 689.2800 554.9500 696.4200Q550.9600 703.5600 543.3300 707.4800Q535.7000 711.4000 524.5000 711.4000ZM524.5000 697.5400L524.5000 697.5400Q531.9200 697.5400 535.9800 692.8500Q540.0400 688.1600 540.4600 679.0600L540.4600 679.0600Q540.6000 676.9600 540.6000 673.6000Q540.6000 670.2400 540.4600 668.1400L540.4600 668.1400Q540.0400 659.0400 535.9800 654.3500Q531.9200 649.6600 524.5000 649.6600L524.5000 649.6600Q517.0800 649.6600 513.0200 654.3500Q508.9600 659.0400 508.5400 668.1400L508.5400 668.1400Q508.4000 670.2400 508.4000 673.6000Q508.4000 676.9600 508.5400 679.0600L508.5400 679.0600Q508.9600 688.1600 513.0200 692.8500Q517.0800 697.5400 524.5000 697.5400ZM634.2600 711.4000L634.2600 711.4000Q626.9800 711.4000 621.4500 708.9500Q615.9200 706.5000 612.2800 702.0200Q608.6400 697.5400 606.6800 691.4500Q604.7200 685.3600 604.4400 678.0800L604.4400 678.0800Q604.3000 675.5600 604.3000 673.5300Q604.3000 671.5000 604.4400 668.9800L604.4400 668.9800Q604.7200 661.9800 606.6100 655.9600Q608.5000 649.9400 612.2100 645.3900Q615.9200 640.8400 621.4500 638.3200Q626.9800 635.8000 634.2600 635.8000L634.2600 635.8000Q641.8200 635.8000 647.0700 638.3900Q652.3200 640.9800 655.8200 645.0400L655.8200 645.0400L655.8200 613.9600Q655.8200 612.5600 656.7300 611.5800Q657.6400 610.6000 659.1800 610.6000L659.1800 610.6000L671.0800 610.6000Q672.4800 610.6000 673.4600 611.5800Q674.4400 612.5600 674.4400 613.9600L674.4400 613.9600L674.4400 706.6400Q674.4400 708.0400 673.4600 709.0200Q672.4800 710 671.0800 710L671.0800 710L660.0200 710Q658.4800 710 657.5700 709.0200Q656.6600 708.0400 656.6600 706.6400L656.6600 706.6400L656.6600 701.4600Q653.1600 705.8000 647.7700 708.6000Q642.3800 711.4000 634.2600 711.4000ZM639.4400 696.4200L639.4400 696.4200Q645.3200 696.4200 648.8200 693.7600Q652.3200 691.1000 654 686.9700Q655.6800 682.8400 655.8200 678.5000L655.8200 678.5000Q655.9600 675.9800 655.9600 673.1100Q655.9600 670.2400 655.8200 667.7200L655.8200 667.7200Q655.6800 663.5200 653.8600 659.6700Q652.0400 655.8200 648.5400 653.3000Q645.0400 650.7800 639.4400 650.7800L639.4400 650.7800Q633.5600 650.7800 630.1300 653.3700Q626.7000 655.9600 625.1600 660.1600Q623.6200 664.3600 623.3400 669.4000L623.3400 669.4000Q623.2000 673.6000 623.3400 677.8000L623.3400 677.8000Q623.6200 682.8400 625.1600 687.0400Q626.7000 691.2400 630.1300 693.8300Q633.5600 696.4200 639.4400 696.4200ZM724.4200 711.4000L724.4200 711.4000Q708.8800 711.4000 699.7800 702.4400Q690.6800 693.4800 689.9800 676.9600L689.9800 676.9600Q689.8400 675.5600 689.8400 673.3900Q689.8400 671.2200 689.9800 669.9600L689.9800 669.9600Q690.5400 659.3200 694.8100 651.6900Q699.0800 644.0600 706.6400 639.9300Q714.2000 635.8000 724.4200 635.8000L724.4200 635.8000Q735.7600 635.8000 743.4600 640.4900Q751.1600 645.1800 755.0800 653.5100Q759 661.8400 759 672.7600L759 672.7600L759 675.7000Q759 677.1000 758.0200 678.0800Q757.0400 679.0600 755.5000 679.0600L755.5000 679.0600L709.0200 679.0600Q709.0200 679.0600 709.0200 679.4800Q709.0200 679.9000 709.0200 680.1800L709.0200 680.1800Q709.1600 685.0800 710.9100 689.2100Q712.6600 693.3400 716.0900 695.8600Q719.5200 698.3800 724.2800 698.3800L724.2800 698.3800Q728.2000 698.3800 730.8600 697.1900Q733.5200 696 735.2000 694.4600Q736.8800 692.9200 737.5800 691.9400L737.5800 691.9400Q738.8400 690.2600 739.6100 689.9100Q740.3800 689.5600 741.9200 689.5600L741.9200 689.5600L753.9600 689.5600Q755.3600 689.5600 756.2700 690.4000Q757.1800 691.2400 757.0400 692.5000L757.0400 692.5000Q756.9000 694.7400 754.7300 697.9600Q752.5600 701.1800 748.5000 704.2600Q744.4400 707.3400 738.3500 709.3700Q732.2600 711.4000 724.4200 711.4000ZM709.0200 666.8800L709.0200 667.3000L739.9600 667.3000L739.9600 666.8800Q739.9600 661.4200 738.1400 657.2900Q736.3200 653.1600 732.8200 650.8500Q729.3200 648.5400 724.4200 648.5400L724.4200 648.5400Q719.5200 648.5400 716.0200 650.8500Q712.5200 653.1600 710.7700 657.2900Q709.0200 661.4200 709.0200 666.8800L709.0200 666.8800ZM832.9200 711.4000L832.9200 711.4000Q825.6400 711.4000 820.1100 708.9500Q814.5800 706.5000 810.9400 702.0200Q807.3000 697.5400 805.3400 691.4500Q803.3800 685.3600 803.1000 678.0800L803.1000 678.0800Q802.9600 675.5600 802.9600 673.5300Q802.9600 671.5000 803.1000 668.9800L803.1000 668.9800Q803.3800 661.9800 805.2700 655.9600Q807.1600 649.9400 810.8700 645.3900Q814.5800 640.8400 820.1100 638.3200Q825.6400 635.8000 832.9200 635.8000L832.9200 635.8000Q840.4800 635.8000 845.7300 638.3900Q850.9800 640.9800 854.4800 645.0400L854.4800 645.0400L854.4800 613.9600Q854.4800 612.5600 855.3900 611.5800Q856.3000 610.6000 857.8400 610.6000L857.8400 610.6000L869.7400 610.6000Q871.1400 610.6000 872.1200 611.5800Q873.1000 612.5600 873.1000 613.9600L873.1000 613.9600L873.1000 706.6400Q873.1000 708.0400 872.1200 709.0200Q871.1400 710 869.7400 710L869.7400 710L858.6800 710Q857.1400 710 856.2300 709.0200Q855.3200 708.0400 855.3200 706.6400L855.3200 706.6400L855.3200 701.4600Q851.8200 705.8000 846.4300 708.6000Q841.0400 711.4000 832.9200 711.4000ZM838.1000 696.4200L838.1000 696.4200Q843.9800 696.4200 847.4800 693.7600Q850.9800 691.1000 852.6600 686.9700Q854.3400 682.8400 854.4800 678.5000L854.4800 678.5000Q854.6200 675.9800 854.6200 673.1100Q854.6200 670.2400 854.4800 667.7200L854.4800 667.7200Q854.3400 663.5200 852.5200 659.6700Q850.7000 655.8200 847.2000 653.3000Q843.7000 650.7800 838.1000 650.7800L838.1000 650.7800Q832.2200 650.7800 828.7900 653.3700Q825.3600 655.9600 823.8200 660.1600Q822.2800 664.3600 822.0000 669.4000L822.0000 669.4000Q821.8600 673.6000 822.0000 677.8000L822.0000 677.8000Q822.2800 682.8400 823.8200 687.0400Q825.3600 691.2400 828.7900 693.8300Q832.2200 696.4200 838.1000 696.4200ZM912.8600 711.4000L912.8600 711.4000Q905.5800 711.4000 899.7000 708.5300Q893.8200 705.6600 890.3900 700.8300Q886.9600 696 886.9600 689.9800L886.9600 689.9800Q886.9600 680.1800 894.9400 674.3700Q902.9200 668.5600 915.8000 666.6000L915.8000 666.6000L934.9800 663.8000L934.9800 660.8600Q934.9800 654.9800 932.0400 651.7600Q929.1000 648.5400 921.9600 648.5400L921.9600 648.5400Q916.9200 648.5400 913.7700 650.5700Q910.6200 652.6000 909.0800 655.9600L909.0800 655.9600Q907.9600 657.7800 905.8600 657.7800L905.8600 657.7800L894.8000 657.7800Q893.2600 657.7800 892.4900 656.9400Q891.7200 656.1000 891.7200 654.7000L891.7200 654.7000Q891.8600 652.4600 893.6100 649.2400Q895.3600 646.0200 898.9300 643.0100Q902.5000 640 908.2400 637.9000Q913.9800 635.8000 922.1000 635.8000L922.1000 635.8000Q930.9200 635.8000 937.0100 637.9700Q943.1000 640.1400 946.7400 643.7800Q950.3800 647.4200 952.0600 652.3200Q953.7400 657.2200 953.7400 662.6800L953.7400 662.6800L953.7400 706.6400Q953.7400 708.0400 952.7600 709.0200Q951.7800 710 950.3800 710L950.3800 710L939.0400 710Q937.5000 710 936.5900 709.0200Q935.6800 708.0400 935.6800 706.6400L935.6800 706.6400L935.6800 701.1800Q933.8600 703.7000 930.7800 706.0800Q927.7000 708.4600 923.2900 709.9300Q918.8800 711.4000 912.8600 711.4000ZM917.6200 698.1000L917.6200 698.1000Q922.5200 698.1000 926.5100 696Q930.5000 693.9000 932.8100 689.4900Q935.1200 685.0800 935.1200 678.3600L935.1200 678.3600L935.1200 675.4200L921.1200 677.6600Q912.8600 678.9200 908.8000 681.7200Q904.7400 684.5200 904.7400 688.5800L904.7400 688.5800Q904.7400 691.6600 906.6300 693.8300Q908.5200 696 911.4600 697.0500Q914.4000 698.1000 917.6200 698.1000ZM998.6800 711.4000L998.6800 711.4000Q991.4000 711.4000 985.8700 708.9500Q980.3400 706.5000 976.7000 702.0200Q973.0600 697.5400 971.1000 691.4500Q969.1400 685.3600 968.8600 678.0800L968.8600 678.0800Q968.7200 675.5600 968.7200 673.5300Q968.7200 671.5000 968.8600 668.9800L968.8600 668.9800Q969.1400 661.9800 971.0300 655.9600Q972.9200 649.9400 976.6300 645.3900Q980.3400 640.8400 985.8700 638.3200Q991.4000 635.8000 998.6800 635.8000L998.6800 635.8000Q1006.2400 635.8000 1011.4900 638.3900Q1016.7400 640.9800 1020.2400 645.0400L1020.2400 645.0400L1020.2400 613.9600Q1020.2400 612.5600 1021.1500 611.5800Q1022.0600 610.6000 1023.6000 610.6000L1023.6000 610.6000L1035.5000 610.6000Q1036.9000 610.6000 1037.8800 611.5800Q1038.8600 612.5600 1038.8600 613.9600L1038.8600 613.9600L1038.8600 706.6400Q1038.8600 708.0400 1037.8800 709.0200Q1036.9000 710 1035.5000 710L1035.5000 710L1024.4400 710Q1022.9000 710 1021.9900 709.0200Q1021.0800 708.0400 1021.0800 706.6400L1021.0800 706.6400L1021.0800 701.4600Q1017.5800 705.8000 1012.1900 708.6000Q1006.8000 711.4000 998.6800 711.4000ZM1003.8600 696.4200L1003.8600 696.4200Q1009.7400 696.4200 1013.2400 693.7600Q1016.7400 691.1000 1018.4200 686.9700Q1020.1000 682.8400 1020.2400 678.5000L1020.2400 678.5000Q1020.3800 675.9800 1020.3800 673.1100Q1020.3800 670.2400 1020.2400 667.7200L1020.2400 667.7200Q1020.1000 663.5200 1018.2800 659.6700Q1016.4600 655.8200 1012.9600 653.3000Q1009.4600 650.7800 1003.8600 650.7800L1003.8600 650.7800Q997.9800 650.7800 994.5500 653.3700Q991.1200 655.9600 989.5800 660.1600Q988.0400 664.3600 987.7600 669.4000L987.7600 669.4000Q987.6200 673.6000 987.7600 677.8000L987.7600 677.8000Q988.0400 682.8400 989.5800 687.0400Q991.1200 691.2400 994.5500 693.8300Q997.9800 696.4200 1003.8600 696.4200ZM1089.6800 711.4000L1089.6800 711.4000Q1078.4800 711.4000 1070.8500 707.4800Q1063.2200 703.5600 1059.2300 696.4200Q1055.2400 689.2800 1054.6800 679.7600L1054.6800 679.7600Q1054.5400 677.2400 1054.5400 673.6000Q1054.5400 669.9600 1054.6800 667.4400L1054.6800 667.4400Q1055.2400 657.7800 1059.3700 650.7100Q1063.5000 643.6400 1071.1300 639.7200Q1078.7600 635.8000 1089.6800 635.8000L1089.6800 635.8000Q1100.6000 635.8000 1108.2300 639.7200Q1115.8600 643.6400 1119.9900 650.7100Q1124.1200 657.7800 1124.6800 667.4400L1124.6800 667.4400Q1124.8200 669.9600 1124.8200 673.6000Q1124.8200 677.2400 1124.6800 679.7600L1124.6800 679.7600Q1124.1200 689.2800 1120.1300 696.4200Q1116.1400 703.5600 1108.5100 707.4800Q1100.8800 711.4000 1089.6800 711.4000ZM1089.6800 697.5400L1089.6800 697.5400Q1097.1000 697.5400 1101.1600 692.8500Q1105.2200 688.1600 1105.6400 679.0600L1105.6400 679.0600Q1105.7800 676.9600 1105.7800 673.6000Q1105.7800 670.2400 1105.6400 668.1400L1105.6400 668.1400Q1105.2200 659.0400 1101.1600 654.3500Q1097.1000 649.6600 1089.6800 649.6600L1089.6800 649.6600Q1082.2600 649.6600 1078.2000 654.3500Q1074.1400 659.0400 1073.7200 668.1400L1073.7200 668.1400Q1073.5800 670.2400 1073.5800 673.6000Q1073.5800 676.9600 1073.7200 679.0600L1073.7200 679.0600Q1074.1400 688.1600 1078.2000 692.8500Q1082.2600 697.5400 1089.6800 697.5400ZM1167.9400 711.4000L1167.9400 711.4000Q1159.5400 711.4000 1153.5900 709.4400Q1147.6400 707.4800 1143.8600 704.5400Q1140.0800 701.6000 1138.2600 698.6600Q1136.4400 695.7200 1136.3000 693.7600L1136.3000 693.7600Q1136.1600 692.2200 1137.2100 691.3100Q1138.2600 690.4000 1139.5200 690.4000L1139.5200 690.4000L1150.5800 690.4000Q1151.1400 690.4000 1151.5600 690.5400Q1151.9800 690.6800 1152.6800 691.3800L1152.6800 691.3800Q1154.5000 692.9200 1156.5300 694.6000Q1158.5600 696.2800 1161.3600 697.4700Q1164.1600 698.6600 1168.3600 698.6600L1168.3600 698.6600Q1173.8200 698.6600 1177.5300 696.4900Q1181.2400 694.3200 1181.2400 690.2600L1181.2400 690.2600Q1181.2400 687.3200 1179.6300 685.5000Q1178.0200 683.6800 1173.6800 682.2100Q1169.3400 680.7400 1161.3600 679.0600L1161.3600 679.0600Q1153.5200 677.2400 1148.3400 674.4400Q1143.1600 671.6400 1140.6400 667.4400Q1138.1200 663.2400 1138.1200 657.6400L1138.1200 657.6400Q1138.1200 652.1800 1141.4100 647.2100Q1144.7000 642.2400 1151.2100 639.0200Q1157.7200 635.8000 1167.3800 635.8000L1167.3800 635.8000Q1174.9400 635.8000 1180.5400 637.6900Q1186.1400 639.5800 1189.8500 642.3800Q1193.5600 645.1800 1195.5200 648.0500Q1197.4800 650.9200 1197.6200 653.0200L1197.6200 653.0200Q1197.7600 654.5600 1196.7800 655.4700Q1195.8000 656.3800 1194.5400 656.3800L1194.5400 656.3800L1184.1800 656.3800Q1183.4800 656.3800 1182.9200 656.1000Q1182.3600 655.8200 1181.8000 655.4000L1181.8000 655.4000Q1180.2600 654 1178.4400 652.3900Q1176.6200 650.7800 1174.0300 649.6600Q1171.4400 648.5400 1167.2400 648.5400L1167.2400 648.5400Q1161.9200 648.5400 1159.1200 650.8500Q1156.3200 653.1600 1156.3200 656.6600L1156.3200 656.6600Q1156.3200 659.0400 1157.6500 660.7900Q1158.9800 662.5400 1163.0400 664.0800Q1167.1000 665.6200 1175.3600 667.3000L1175.3600 667.3000Q1184.7400 668.9800 1190.2700 672.2700Q1195.8000 675.5600 1198.1100 679.8300Q1200.4200 684.1000 1200.4200 689.2800L1200.4200 689.2800Q1200.4200 695.5800 1196.7100 700.6200Q1193.0000 705.6600 1185.7900 708.5300Q1178.5800 711.4000 1167.9400 711.4000Z" id="title"/></g></svg>