<svg xmlns="http://www.w3.org/2000/svg" version="1.1" xmlns:xlink="http://www.w3.org/1999/xlink" xmlns:svgjs="http://svgjs.dev/svgjs" viewBox="0 0 1920 1080" id="d3f143bb-84b6-4515-962b-0800e6267023"><g><rect width="1920" height="1080" fill="#7d1538"/></g><g fill="#3f828a"><path d="M969.5 217C561.465 217 231 547.465 231 955.5C231 1363.53 561.465 1694 969.5 1694C1377.53 1694 1708 1363.53 1708 955.5C1708 547.465 1377.53 217 969.5 217ZM969.5 1309.34C773.983 1309.34 615.658 1151.02 615.658 955.5C615.658 759.983 773.983 601.658 969.5 601.658C1165.02 601.658 1323.34 759.983 1323.34 955.5C1323.34 1151.02 1165.02 1309.34 969.5 1309.34Z"/></g><g fill="#ffffff" opacity="0.2"><path d="M1432 918.479L1616.48 734V918.479H1432Z"/><path d="M1616.48 918.479L1800.52 734V918.479H1616.48Z"/><path d="M1800.52 918.479L1985 734V918.479H1800.52Z"/><path d="M1432 1102.52L1616.48 918.479V1102.52H1432Z"/><path d="M1616.48 1102.52L1800.52 918.479V1102.52H1616.48Z"/><path d="M1800.52 1102.52L1985 918.479V1102.52H1800.52Z"/><path d="M499 154.521L683.479 -29.5215V154.521H499Z"/><path d="M683.479 154.521L867.521 -29.5215V154.521H683.479Z"/><path d="M867.521 154.521L1052 -29.5215V154.521H867.521Z"/><path d="M499 339L683.479 154.521V339H499Z"/><path d="M683.479 339L867.521 154.521V339H683.479Z"/><path d="M867.521 339L1052 154.521V339H867.521Z"/></g><g><path d="M178.635 139.281L184.422 144.246V166.626H215.704L219.958 172.147L215.69 177.397H184.422V198.795L178.635 203.747L173 198.795V144.232L178.635 139.281ZM195.554 195.68H219.406L223.397 200.915L219.143 206.45H195.554L191.7 201.342L195.554 195.68ZM196.382 138H219.129L223.383 143.52L219.129 148.77H196.659L192.115 143.677L196.382 138ZM323.155 148.628L328.251 154.291L323.155 159.968H246.13L241.172 154.291L246.13 148.628H323.155ZM237.043 172.147L241.849 167.893L246.669 172.147V178.393C246.669 188.879 249.417 197.515 261.668 197.515H264.14C275.147 197.515 281.197 189.86 281.197 177.952V172.005L285.879 167.75L290.699 171.862V178.379C290.699 189.007 293.723 196.946 305.56 196.946H307.618C319.178 196.946 321.235 187.869 321.373 177.952V171.578L326.056 167.608L331 171.72V178.094C330.862 191.838 327.285 207.574 308.032 207.574H305.974C294.552 207.574 288.365 202.324 285.892 195.808C283.006 202.466 275.299 208.286 264.844 208.286H262.358C242.553 208.286 237.194 195.964 237.056 178.663V172.147H237.043ZM276.391 274.744L273.642 267.089L280.796 264.969L305.974 276.721V252.491L311.07 248.095L316.291 252.491V281.829L325.641 286.226L328.251 293.311L320.959 296L276.391 274.744ZM321.235 223.011L328.113 226.27L325.917 233.497L264.002 263.119L256.571 260.146L259.596 252.776L321.235 223.011ZM231.905 263.404L237.954 268.512C237.402 286.51 222.403 296 204.669 296H202.874C194.062 296 183.759 292.6 177.157 286.083L177.834 278.855L184.298 278.002C189.118 282.256 195.858 285.229 202.183 285.229H204.117C216.091 285.229 225.303 280.136 226.27 268.085L231.905 263.404ZM226.256 251.638C225.704 239.16 216.629 234.209 204.103 234.209H202.169C194.739 234.209 189.104 237.182 184.284 241.436L177.834 240.583L177.143 233.355C183.745 226.696 192.957 223.58 202.597 223.58H204.517C222.403 223.58 237.402 232.942 237.94 251.211L231.891 256.176L226.256 251.638Z" fill="#ffffff"/></g><g fill="#ffffff" id="info-group"><path d="M167.0800 430L154.9000 430Q153.7800 430 152.8700 429.1600Q151.9600 428.3200 151.9600 427.0600L151.9600 427.0600Q151.9600 426.5000 152.2400 425.8000L152.2400 425.8000L185.9800 335.5000Q186.4000 334.1000 187.5900 333.0500Q188.7800 332 190.8800 332L190.8800 332L206.1400 332Q208.2400 332 209.3600 333.0500Q210.4800 334.1000 211.0400 335.5000L211.0400 335.5000L244.7800 425.8000Q244.9200 426.5000 244.9200 427.0600L244.9200 427.0600Q244.9200 428.3200 244.0800 429.1600Q243.2400 430 242.1200 430L242.1200 430L229.9400 430Q227.9800 430 227.0700 429.0900Q226.1600 428.1800 225.8800 427.3400L225.8800 427.3400L219.3000 410.2600L177.7200 410.2600L171.1400 427.3400Q170.8600 428.1800 169.9500 429.0900Q169.0400 430 167.0800 430L167.0800 430ZM198.4400 350.9000L182.6200 394.1600L214.4000 394.1600L198.4400 350.9000ZM283.2800 431.4000L283.2800 431.4000Q274.7400 431.4000 268.5100 427.5500Q262.2800 423.7000 258.9200 416.6300Q255.5600 409.5600 255.5600 399.9000L255.5600 399.9000L255.5600 360.5600Q255.5600 359.1600 256.5400 358.1800Q257.5200 357.2000 258.9200 357.2000L258.9200 357.2000L271.2400 357.2000Q272.7800 357.2000 273.6900 358.1800Q274.6000 359.1600 274.6000 360.5600L274.6000 360.5600L274.6000 399.0600Q274.6000 416.4200 289.8600 416.4200L289.8600 416.4200Q297.1400 416.4200 301.4100 411.8000Q305.6800 407.1800 305.6800 399.0600L305.6800 399.0600L305.6800 360.5600Q305.6800 359.1600 306.6600 358.1800Q307.6400 357.2000 309.0400 357.2000L309.0400 357.2000L321.3600 357.2000Q322.7600 357.2000 323.7400 358.1800Q324.7200 359.1600 324.7200 360.5600L324.7200 360.5600L324.7200 426.6400Q324.7200 428.0400 323.7400 429.0200Q322.7600 430 321.3600 430L321.3600 430L310.0200 430Q308.4800 430 307.5700 429.0200Q306.6600 428.0400 306.6600 426.6400L306.6600 426.6400L306.6600 420.9000Q302.8800 425.8000 297.2800 428.6000Q291.6800 431.4000 283.2800 431.4000ZM358.3200 430L346.7000 430Q345.3000 430 344.3200 429.0200Q343.3400 428.0400 343.3400 426.6400L343.3400 426.6400L343.3400 333.9600Q343.3400 332.5600 344.3200 331.5800Q345.3000 330.6000 346.7000 330.6000L346.7000 330.6000L358.3200 330.6000Q359.7200 330.6000 360.7000 331.5800Q361.6800 332.5600 361.6800 333.9600L361.6800 333.9600L361.6800 426.6400Q361.6800 428.0400 360.7000 429.0200Q359.7200 430 358.3200 430L358.3200 430ZM401.4400 431.4000L401.4400 431.4000Q394.1600 431.4000 388.2800 428.5300Q382.4000 425.6600 378.9700 420.8300Q375.5400 416 375.5400 409.9800L375.5400 409.9800Q375.5400 400.1800 383.5200 394.3700Q391.5000 388.5600 404.3800 386.6000L404.3800 386.6000L423.5600 383.8000L423.5600 380.8600Q423.5600 374.9800 420.6200 371.7600Q417.6800 368.5400 410.5400 368.5400L410.5400 368.5400Q405.5000 368.5400 402.3500 370.5700Q399.2000 372.6000 397.6600 375.9600L397.6600 375.9600Q396.5400 377.7800 394.4400 377.7800L394.4400 377.7800L383.3800 377.7800Q381.8400 377.7800 381.0700 376.9400Q380.3000 376.1000 380.3000 374.7000L380.3000 374.7000Q380.4400 372.4600 382.1900 369.2400Q383.9400 366.0200 387.5100 363.0100Q391.0800 360 396.8200 357.9000Q402.5600 355.8000 410.6800 355.8000L410.6800 355.8000Q419.5000 355.8000 425.5900 357.9700Q431.6800 360.1400 435.3200 363.7800Q438.9600 367.4200 440.6400 372.3200Q442.3200 377.2200 442.3200 382.6800L442.3200 382.6800L442.3200 426.6400Q442.3200 428.0400 441.3400 429.0200Q440.3600 430 438.9600 430L438.9600 430L427.6200 430Q426.0800 430 425.1700 429.0200Q424.2600 428.0400 424.2600 426.6400L424.2600 426.6400L424.2600 421.1800Q422.4400 423.7000 419.3600 426.0800Q416.2800 428.4600 411.8700 429.9300Q407.4600 431.4000 401.4400 431.4000ZM406.2000 418.1000L406.2000 418.1000Q411.1000 418.1000 415.0900 416Q419.0800 413.9000 421.3900 409.4900Q423.7000 405.0800 423.7000 398.3600L423.7000 398.3600L423.7000 395.4200L409.7000 397.6600Q401.4400 398.9200 397.3800 401.7200Q393.3200 404.5200 393.3200 408.5800L393.3200 408.5800Q393.3200 411.6600 395.2100 413.8300Q397.1000 416 400.0400 417.0500Q402.9800 418.1000 406.2000 418.1000ZM550.5400 430L538.3600 430Q536.9600 430 535.9800 429.0200Q535.0000 428.0400 535.0000 426.6400L535.0000 426.6400L535.0000 408.7200L490.6200 408.7200Q489.0800 408.7200 488.1700 407.7400Q487.2600 406.7600 487.2600 405.3600L487.2600 405.3600L487.2600 395.8400Q487.2600 395 487.6100 393.8100Q487.9600 392.6200 488.8000 391.6400L488.8000 391.6400L530.1000 334.3800Q531.9200 332 535.2800 332L535.2800 332L550.5400 332Q551.9400 332 552.9200 332.9800Q553.9000 333.9600 553.9000 335.3600L553.9000 335.3600L553.9000 392.2000L566.3600 392.2000Q568.0400 392.2000 568.9500 393.1100Q569.8600 394.0200 569.8600 395.5600L569.8600 395.5600L569.8600 405.3600Q569.8600 406.7600 568.8800 407.7400Q567.9000 408.7200 566.5000 408.7200L566.5000 408.7200L553.9000 408.7200L553.9000 426.6400Q553.9000 428.0400 552.9200 429.0200Q551.9400 430 550.5400 430L550.5400 430ZM535.4200 352.3000L506.7200 392.7600L535.4200 392.7600L535.4200 352.3000ZM600.3800 381L586.5200 381Q585.1200 381 584.1400 380.0200Q583.1600 379.0400 583.1600 377.6400L583.1600 377.6400L583.1600 364.3400Q583.1600 362.8000 584.1400 361.8200Q585.1200 360.8400 586.5200 360.8400L586.5200 360.8400L600.3800 360.8400Q601.9200 360.8400 602.9000 361.8200Q603.8800 362.8000 603.8800 364.3400L603.8800 364.3400L603.8800 377.6400Q603.8800 379.0400 602.9000 380.0200Q601.9200 381 600.3800 381L600.3800 381ZM600.3800 430L586.5200 430Q585.1200 430 584.1400 429.0200Q583.1600 428.0400 583.1600 426.6400L583.1600 426.6400L583.1600 413.3400Q583.1600 411.8000 584.1400 410.8200Q585.1200 409.8400 586.5200 409.8400L586.5200 409.8400L600.3800 409.8400Q601.9200 409.8400 602.9000 410.8200Q603.8800 411.8000 603.8800 413.3400L603.8800 413.3400L603.8800 426.6400Q603.8800 428.0400 602.9000 429.0200Q601.9200 430 600.3800 430L600.3800 430ZM671.3600 430L659.0400 430Q657.6400 430 656.6600 429.0200Q655.6800 428.0400 655.6800 426.6400L655.6800 426.6400L655.6800 335.5000Q655.6800 333.9600 656.6600 332.9800Q657.6400 332 659.0400 332L659.0400 332L719.8000 332Q721.3400 332 722.3200 332.9800Q723.3000 333.9600 723.3000 335.5000L723.3000 335.5000L723.3000 345.3000Q723.3000 346.8400 722.3200 347.7500Q721.3400 348.6600 719.8000 348.6600L719.8000 348.6600L674.8600 348.6600L674.8600 375.2600L717 375.2600Q718.5400 375.2600 719.5200 376.2400Q720.5000 377.2200 720.5000 378.7600L720.5000 378.7600L720.5000 388.5600Q720.5000 389.9600 719.5200 390.9400Q718.5400 391.9200 717 391.9200L717 391.9200L674.8600 391.9200L674.8600 426.6400Q674.8600 428.0400 673.8800 429.0200Q672.9000 430 671.3600 430L671.3600 430ZM753.1200 430L741.5000 430Q740.1000 430 739.1200 429.0200Q738.1400 428.0400 738.1400 426.6400L738.1400 426.6400L738.1400 360.5600Q738.1400 359.1600 739.1200 358.1800Q740.1000 357.2000 741.5000 357.2000L741.5000 357.2000L753.1200 357.2000Q754.6600 357.2000 755.5700 358.1800Q756.4800 359.1600 756.4800 360.5600L756.4800 360.5600L756.4800 426.6400Q756.4800 428.0400 755.5700 429.0200Q754.6600 430 753.1200 430L753.1200 430ZM753.6800 345.1600L740.9400 345.1600Q739.5400 345.1600 738.5600 344.1800Q737.5800 343.2000 737.5800 341.8000L737.5800 341.8000L737.5800 331.7200Q737.5800 330.3200 738.5600 329.3400Q739.5400 328.3600 740.9400 328.3600L740.9400 328.3600L753.6800 328.3600Q755.2200 328.3600 756.2000 329.3400Q757.1800 330.3200 757.1800 331.7200L757.1800 331.7200L757.1800 341.8000Q757.1800 343.2000 756.2000 344.1800Q755.2200 345.1600 753.6800 345.1600L753.6800 345.1600ZM790.2200 430L778.6000 430Q777.2000 430 776.2200 429.0200Q775.2400 428.0400 775.2400 426.6400L775.2400 426.6400L775.2400 333.9600Q775.2400 332.5600 776.2200 331.5800Q777.2000 330.6000 778.6000 330.6000L778.6000 330.6000L790.2200 330.6000Q791.6200 330.6000 792.6000 331.5800Q793.5800 332.5600 793.5800 333.9600L793.5800 333.9600L793.5800 426.6400Q793.5800 428.0400 792.6000 429.0200Q791.6200 430 790.2200 430L790.2200 430ZM856.4400 430L845.1000 430Q836.7000 430 830.9600 427.0600Q825.2200 424.1200 822.4200 418.3100Q819.6200 412.5000 819.6200 403.8200L819.6200 403.8200L819.6200 372.0400L808.5600 372.0400Q807.1600 372.0400 806.1800 371.0600Q805.2000 370.0800 805.2000 368.5400L805.2000 368.5400L805.2000 360.5600Q805.2000 359.1600 806.1800 358.1800Q807.1600 357.2000 808.5600 357.2000L808.5600 357.2000L819.6200 357.2000L819.6200 333.9600Q819.6200 332.5600 820.5300 331.5800Q821.4400 330.6000 822.9800 330.6000L822.9800 330.6000L834.3200 330.6000Q835.7200 330.6000 836.7000 331.5800Q837.6800 332.5600 837.6800 333.9600L837.6800 333.9600L837.6800 357.2000L855.1800 357.2000Q856.5800 357.2000 857.5600 358.1800Q858.5400 359.1600 858.5400 360.5600L858.5400 360.5600L858.5400 368.5400Q858.5400 370.0800 857.5600 371.0600Q856.5800 372.0400 855.1800 372.0400L855.1800 372.0400L837.6800 372.0400L837.6800 402.4200Q837.6800 408.1600 839.7100 411.3800Q841.7400 414.6000 846.7800 414.6000L846.7800 414.6000L856.4400 414.6000Q857.8400 414.6000 858.8200 415.5800Q859.8000 416.5600 859.8000 417.9600L859.8000 417.9600L859.8000 426.6400Q859.8000 428.0400 858.8200 429.0200Q857.8400 430 856.4400 430L856.4400 430ZM887.8000 430L875.6200 430Q874.2200 430 873.2400 429.0200Q872.2600 428.0400 872.2600 426.6400L872.2600 426.6400L872.2600 360.7000Q872.2600 359.1600 873.2400 358.1800Q874.2200 357.2000 875.6200 357.2000L875.6200 357.2000L886.9600 357.2000Q888.3600 357.2000 889.4100 358.1800Q890.4600 359.1600 890.4600 360.7000L890.4600 360.7000L890.4600 366.4400Q893.6800 361.9600 898.7900 359.5800Q903.9000 357.2000 910.6200 357.2000L910.6200 357.2000L916.3600 357.2000Q917.9000 357.2000 918.8100 358.1800Q919.7200 359.1600 919.7200 360.5600L919.7200 360.5600L919.7200 370.6400Q919.7200 372.0400 918.8100 373.0200Q917.9000 374 916.3600 374L916.3600 374L905.4400 374Q898.7200 374 895.0100 377.7100Q891.3000 381.4200 891.3000 388.1400L891.3000 388.1400L891.3000 426.6400Q891.3000 428.0400 890.3200 429.0200Q889.3400 430 887.8000 430L887.8000 430ZM951.7800 431.4000L951.7800 431.4000Q944.5000 431.4000 938.6200 428.5300Q932.7400 425.6600 929.3100 420.8300Q925.8800 416 925.8800 409.9800L925.8800 409.9800Q925.8800 400.1800 933.8600 394.3700Q941.8400 388.5600 954.7200 386.6000L954.7200 386.6000L973.9000 383.8000L973.9000 380.8600Q973.9000 374.9800 970.9600 371.7600Q968.0200 368.5400 960.8800 368.5400L960.8800 368.5400Q955.8400 368.5400 952.6900 370.5700Q949.5400 372.6000 948 375.9600L948 375.9600Q946.8800 377.7800 944.7800 377.7800L944.7800 377.7800L933.7200 377.7800Q932.1800 377.7800 931.4100 376.9400Q930.6400 376.1000 930.6400 374.7000L930.6400 374.7000Q930.7800 372.4600 932.5300 369.2400Q934.2800 366.0200 937.8500 363.0100Q941.4200 360 947.1600 357.9000Q952.9000 355.8000 961.0200 355.8000L961.0200 355.8000Q969.8400 355.8000 975.9300 357.9700Q982.0200 360.1400 985.6600 363.7800Q989.3000 367.4200 990.9800 372.3200Q992.6600 377.2200 992.6600 382.6800L992.6600 382.6800L992.6600 426.6400Q992.6600 428.0400 991.6800 429.0200Q990.7000 430 989.3000 430L989.3000 430L977.9600 430Q976.4200 430 975.5100 429.0200Q974.6000 428.0400 974.6000 426.6400L974.6000 426.6400L974.6000 421.1800Q972.7800 423.7000 969.7000 426.0800Q966.6200 428.4600 962.2100 429.9300Q957.8000 431.4000 951.7800 431.4000ZM956.5400 418.1000L956.5400 418.1000Q961.4400 418.1000 965.4300 416Q969.4200 413.9000 971.7300 409.4900Q974.0400 405.0800 974.0400 398.3600L974.0400 398.3600L974.0400 395.4200L960.0400 397.6600Q951.7800 398.9200 947.7200 401.7200Q943.6600 404.5200 943.6600 408.5800L943.6600 408.5800Q943.6600 411.6600 945.5500 413.8300Q947.4400 416 950.3800 417.0500Q953.3200 418.1000 956.5400 418.1000ZM1026.2600 430L1013.9400 430Q1012.5400 430 1011.5600 429.0200Q1010.5800 428.0400 1010.5800 426.6400L1010.5800 426.6400L1010.5800 360.5600Q1010.5800 359.1600 1011.5600 358.1800Q1012.5400 357.2000 1013.9400 357.2000L1013.9400 357.2000L1025.4200 357.2000Q1026.8200 357.2000 1027.8000 358.1800Q1028.7800 359.1600 1028.7800 360.5600L1028.7800 360.5600L1028.7800 366.3000Q1032.4200 361.8200 1038.0900 358.8100Q1043.7600 355.8000 1052.1600 355.8000L1052.1600 355.8000Q1060.7000 355.8000 1067 359.6500Q1073.3000 363.5000 1076.7300 370.5000Q1080.1600 377.5000 1080.1600 387.3000L1080.1600 387.3000L1080.1600 426.6400Q1080.1600 428.0400 1079.1800 429.0200Q1078.2000 430 1076.8000 430L1076.8000 430L1064.4800 430Q1063.0800 430 1062.1000 429.0200Q1061.1200 428.0400 1061.1200 426.6400L1061.1200 426.6400L1061.1200 388.1400Q1061.1200 380.0200 1057.1300 375.4000Q1053.1400 370.7800 1045.5800 370.7800L1045.5800 370.7800Q1038.3000 370.7800 1033.9600 375.4000Q1029.6200 380.0200 1029.6200 388.1400L1029.6200 388.1400L1029.6200 426.6400Q1029.6200 428.0400 1028.6400 429.0200Q1027.6600 430 1026.2600 430L1026.2600 430ZM1124.9600 431.4000L1124.9600 431.4000Q1117.6800 431.4000 1112.1500 428.9500Q1106.6200 426.5000 1102.9800 422.0200Q1099.3400 417.5400 1097.3800 411.4500Q1095.4200 405.3600 1095.1400 398.0800L1095.1400 398.0800Q1095 395.5600 1095 393.5300Q1095 391.5000 1095.1400 388.9800L1095.1400 388.9800Q1095.4200 381.9800 1097.3100 375.9600Q1099.2000 369.9400 1102.9100 365.3900Q1106.6200 360.8400 1112.1500 358.3200Q1117.6800 355.8000 1124.9600 355.8000L1124.9600 355.8000Q1132.5200 355.8000 1137.7700 358.3900Q1143.0200 360.9800 1146.5200 365.0400L1146.5200 365.0400L1146.5200 333.9600Q1146.5200 332.5600 1147.4300 331.5800Q1148.3400 330.6000 1149.8800 330.6000L1149.8800 330.6000L1161.7800 330.6000Q1163.1800 330.6000 1164.1600 331.5800Q1165.1400 332.5600 1165.1400 333.9600L1165.1400 333.9600L1165.1400 426.6400Q1165.1400 428.0400 1164.1600 429.0200Q1163.1800 430 1161.7800 430L1161.7800 430L1150.7200 430Q1149.1800 430 1148.2700 429.0200Q1147.3600 428.0400 1147.3600 426.6400L1147.3600 426.6400L1147.3600 421.4600Q1143.8600 425.8000 1138.4700 428.6000Q1133.0800 431.4000 1124.9600 431.4000ZM1130.1400 416.4200L1130.1400 416.4200Q1136.0200 416.4200 1139.5200 413.7600Q1143.0200 411.1000 1144.7000 406.9700Q1146.3800 402.8400 1146.5200 398.5000L1146.5200 398.5000Q1146.6600 395.9800 1146.6600 393.1100Q1146.6600 390.2400 1146.5200 387.7200L1146.5200 387.7200Q1146.3800 383.5200 1144.5600 379.6700Q1142.7400 375.8200 1139.2400 373.3000Q1135.7400 370.7800 1130.1400 370.7800L1130.1400 370.7800Q1124.2600 370.7800 1120.8300 373.3700Q1117.4000 375.9600 1115.8600 380.1600Q1114.3200 384.3600 1114.0400 389.4000L1114.0400 389.4000Q1113.9000 393.6000 1114.0400 397.8000L1114.0400 397.8000Q1114.3200 402.8400 1115.8600 407.0400Q1117.4000 411.2400 1120.8300 413.8300Q1124.2600 416.4200 1130.1400 416.4200ZM1215.9600 431.4000L1215.9600 431.4000Q1204.7600 431.4000 1197.1300 427.4800Q1189.5000 423.5600 1185.5100 416.4200Q1181.5200 409.2800 1180.9600 399.7600L1180.9600 399.7600Q1180.8200 397.2400 1180.8200 393.6000Q1180.8200 389.9600 1180.9600 387.4400L1180.9600 387.4400Q1181.5200 377.7800 1185.6500 370.7100Q1189.7800 363.6400 1197.4100 359.7200Q1205.0400 355.8000 1215.9600 355.8000L1215.9600 355.8000Q1226.8800 355.8000 1234.5100 359.7200Q1242.1400 363.6400 1246.2700 370.7100Q1250.4000 377.7800 1250.9600 387.4400L1250.9600 387.4400Q1251.1000 389.9600 1251.1000 393.6000Q1251.1000 397.2400 1250.9600 399.7600L1250.9600 399.7600Q1250.4000 409.2800 1246.4100 416.4200Q1242.4200 423.5600 1234.7900 427.4800Q1227.1600 431.4000 1215.9600 431.4000ZM1215.9600 417.5400L1215.9600 417.5400Q1223.3800 417.5400 1227.4400 412.8500Q1231.5000 408.1600 1231.9200 399.0600L1231.9200 399.0600Q1232.0600 396.9600 1232.0600 393.6000Q1232.0600 390.2400 1231.9200 388.1400L1231.9200 388.1400Q1231.5000 379.0400 1227.4400 374.3500Q1223.3800 369.6600 1215.9600 369.6600L1215.9600 369.6600Q1208.5400 369.6600 1204.4800 374.3500Q1200.4200 379.0400 1200 388.1400L1200 388.1400Q1199.8600 390.2400 1199.8600 393.6000Q1199.8600 396.9600 1200 399.0600L1200 399.0600Q1200.4200 408.1600 1204.4800 412.8500Q1208.5400 417.5400 1215.9600 417.5400ZM186.2600 571.4000L186.2600 571.4000Q178.9800 571.4000 173.4500 568.9500Q167.9200 566.5000 164.2800 562.0200Q160.6400 557.5400 158.6800 551.4500Q156.7200 545.3600 156.4400 538.0800L156.4400 538.0800Q156.3000 535.5600 156.3000 533.5300Q156.3000 531.5000 156.4400 528.9800L156.4400 528.9800Q156.7200 521.9800 158.6100 515.9600Q160.5000 509.9400 164.2100 505.3900Q167.9200 500.8400 173.4500 498.3200Q178.9800 495.8000 186.2600 495.8000L186.2600 495.8000Q193.8200 495.8000 199.0700 498.3900Q204.3200 500.9800 207.8200 505.0400L207.8200 505.0400L207.8200 473.9600Q207.8200 472.5600 208.7300 471.5800Q209.6400 470.6000 211.1800 470.6000L211.1800 470.6000L223.0800 470.6000Q224.4800 470.6000 225.4600 471.5800Q226.4400 472.5600 226.4400 473.9600L226.4400 473.9600L226.4400 566.6400Q226.4400 568.0400 225.4600 569.0200Q224.4800 570 223.0800 570L223.0800 570L212.0200 570Q210.4800 570 209.5700 569.0200Q208.6600 568.0400 208.6600 566.6400L208.6600 566.6400L208.6600 561.4600Q205.1600 565.8000 199.7700 568.6000Q194.3800 571.4000 186.2600 571.4000ZM191.4400 556.4200L191.4400 556.4200Q197.3200 556.4200 200.8200 553.7600Q204.3200 551.1000 206 546.9700Q207.6800 542.8400 207.8200 538.5000L207.8200 538.5000Q207.9600 535.9800 207.9600 533.1100Q207.9600 530.2400 207.8200 527.7200L207.8200 527.7200Q207.6800 523.5200 205.8600 519.6700Q204.0400 515.8200 200.5400 513.3000Q197.0400 510.7800 191.4400 510.7800L191.4400 510.7800Q185.5600 510.7800 182.1300 513.3700Q178.7000 515.9600 177.1600 520.1600Q175.6200 524.3600 175.3400 529.4000L175.3400 529.4000Q175.2000 533.6000 175.3400 537.8000L175.3400 537.8000Q175.6200 542.8400 177.1600 547.0400Q178.7000 551.2400 182.1300 553.8300Q185.5600 556.4200 191.4400 556.4200ZM266.2000 571.4000L266.2000 571.4000Q258.9200 571.4000 253.0400 568.5300Q247.1600 565.6600 243.7300 560.8300Q240.3000 556 240.3000 549.9800L240.3000 549.9800Q240.3000 540.1800 248.2800 534.3700Q256.2600 528.5600 269.1400 526.6000L269.1400 526.6000L288.3200 523.8000L288.3200 520.8600Q288.3200 514.9800 285.3800 511.7600Q282.4400 508.5400 275.3000 508.5400L275.3000 508.5400Q270.2600 508.5400 267.1100 510.5700Q263.9600 512.6000 262.4200 515.9600L262.4200 515.9600Q261.3000 517.7800 259.2000 517.7800L259.2000 517.7800L248.1400 517.7800Q246.6000 517.7800 245.8300 516.9400Q245.0600 516.1000 245.0600 514.7000L245.0600 514.7000Q245.2000 512.4600 246.9500 509.2400Q248.7000 506.0200 252.2700 503.0100Q255.8400 500 261.5800 497.9000Q267.3200 495.8000 275.4400 495.8000L275.4400 495.8000Q284.2600 495.8000 290.3500 497.9700Q296.4400 500.1400 300.0800 503.7800Q303.7200 507.4200 305.4000 512.3200Q307.0800 517.2200 307.0800 522.6800L307.0800 522.6800L307.0800 566.6400Q307.0800 568.0400 306.1000 569.0200Q305.1200 570 303.7200 570L303.7200 570L292.3800 570Q290.8400 570 289.9300 569.0200Q289.0200 568.0400 289.0200 566.6400L289.0200 566.6400L289.0200 561.1800Q287.2000 563.7000 284.1200 566.0800Q281.0400 568.4600 276.6300 569.9300Q272.2200 571.4000 266.2000 571.4000ZM270.9600 558.1000L270.9600 558.1000Q275.8600 558.1000 279.8500 556Q283.8400 553.9000 286.1500 549.4900Q288.4600 545.0800 288.4600 538.3600L288.4600 538.3600L288.4600 535.4200L274.4600 537.6600Q266.2000 538.9200 262.1400 541.7200Q258.0800 544.5200 258.0800 548.5800L258.0800 548.5800Q258.0800 551.6600 259.9700 553.8300Q261.8600 556 264.8000 557.0500Q267.7400 558.1000 270.9600 558.1000ZM352.0200 571.4000L352.0200 571.4000Q344.7400 571.4000 339.2100 568.9500Q333.6800 566.5000 330.0400 562.0200Q326.4000 557.5400 324.4400 551.4500Q322.4800 545.3600 322.2000 538.0800L322.2000 538.0800Q322.0600 535.5600 322.0600 533.5300Q322.0600 531.5000 322.2000 528.9800L322.2000 528.9800Q322.4800 521.9800 324.3700 515.9600Q326.2600 509.9400 329.9700 505.3900Q333.6800 500.8400 339.2100 498.3200Q344.7400 495.8000 352.0200 495.8000L352.0200 495.8000Q359.5800 495.8000 364.8300 498.3900Q370.0800 500.9800 373.5800 505.0400L373.5800 505.0400L373.5800 473.9600Q373.5800 472.5600 374.4900 471.5800Q375.4000 470.6000 376.9400 470.6000L376.9400 470.6000L388.8400 470.6000Q390.2400 470.6000 391.2200 471.5800Q392.2000 472.5600 392.2000 473.9600L392.2000 473.9600L392.2000 566.6400Q392.2000 568.0400 391.2200 569.0200Q390.2400 570 388.8400 570L388.8400 570L377.7800 570Q376.2400 570 375.3300 569.0200Q374.4200 568.0400 374.4200 566.6400L374.4200 566.6400L374.4200 561.4600Q370.9200 565.8000 365.5300 568.6000Q360.1400 571.4000 352.0200 571.4000ZM357.2000 556.4200L357.2000 556.4200Q363.0800 556.4200 366.5800 553.7600Q370.0800 551.1000 371.7600 546.9700Q373.4400 542.8400 373.5800 538.5000L373.5800 538.5000Q373.7200 535.9800 373.7200 533.1100Q373.7200 530.2400 373.5800 527.7200L373.5800 527.7200Q373.4400 523.5200 371.6200 519.6700Q369.8000 515.8200 366.3000 513.3000Q362.8000 510.7800 357.2000 510.7800L357.2000 510.7800Q351.3200 510.7800 347.8900 513.3700Q344.4600 515.9600 342.9200 520.1600Q341.3800 524.3600 341.1000 529.4000L341.1000 529.4000Q340.9600 533.6000 341.1000 537.8000L341.1000 537.8000Q341.3800 542.8400 342.9200 547.0400Q344.4600 551.2400 347.8900 553.8300Q351.3200 556.4200 357.2000 556.4200ZM443.0200 571.4000L443.0200 571.4000Q431.8200 571.4000 424.1900 567.4800Q416.5600 563.5600 412.5700 556.4200Q408.5800 549.2800 408.0200 539.7600L408.0200 539.7600Q407.8800 537.2400 407.8800 533.6000Q407.8800 529.9600 408.0200 527.4400L408.0200 527.4400Q408.5800 517.7800 412.7100 510.7100Q416.8400 503.6400 424.4700 499.7200Q432.1000 495.8000 443.0200 495.8000L443.0200 495.8000Q453.9400 495.8000 461.5700 499.7200Q469.2000 503.6400 473.3300 510.7100Q477.4600 517.7800 478.0200 527.4400L478.0200 527.4400Q478.1600 529.9600 478.1600 533.6000Q478.1600 537.2400 478.0200 539.7600L478.0200 539.7600Q477.4600 549.2800 473.4700 556.4200Q469.4800 563.5600 461.8500 567.4800Q454.2200 571.4000 443.0200 571.4000ZM443.0200 557.5400L443.0200 557.5400Q450.4400 557.5400 454.5000 552.8500Q458.5600 548.1600 458.9800 539.0600L458.9800 539.0600Q459.1200 536.9600 459.1200 533.6000Q459.1200 530.2400 458.9800 528.1400L458.9800 528.1400Q458.5600 519.0400 454.5000 514.3500Q450.4400 509.6600 443.0200 509.6600L443.0200 509.6600Q435.6000 509.6600 431.5400 514.3500Q427.4800 519.0400 427.0600 528.1400L427.0600 528.1400Q426.9200 530.2400 426.9200 533.6000Q426.9200 536.9600 427.0600 539.0600L427.0600 539.0600Q427.4800 548.1600 431.5400 552.8500Q435.6000 557.5400 443.0200 557.5400ZM521.2800 571.4000L521.2800 571.4000Q512.8800 571.4000 506.9300 569.4400Q500.9800 567.4800 497.2000 564.5400Q493.4200 561.6000 491.6000 558.6600Q489.7800 555.7200 489.6400 553.7600L489.6400 553.7600Q489.5000 552.2200 490.5500 551.3100Q491.6000 550.4000 492.8600 550.4000L492.8600 550.4000L503.9200 550.4000Q504.4800 550.4000 504.9000 550.5400Q505.3200 550.6800 506.0200 551.3800L506.0200 551.3800Q507.8400 552.9200 509.8700 554.6000Q511.9000 556.2800 514.7000 557.4700Q517.5000 558.6600 521.7000 558.6600L521.7000 558.6600Q527.1600 558.6600 530.8700 556.4900Q534.5800 554.3200 534.5800 550.2600L534.5800 550.2600Q534.5800 547.3200 532.9700 545.5000Q531.3600 543.6800 527.0200 542.2100Q522.6800 540.7400 514.7000 539.0600L514.7000 539.0600Q506.8600 537.2400 501.6800 534.4400Q496.5000 531.6400 493.9800 527.4400Q491.4600 523.2400 491.4600 517.6400L491.4600 517.6400Q491.4600 512.1800 494.7500 507.2100Q498.0400 502.2400 504.5500 499.0200Q511.0600 495.8000 520.7200 495.8000L520.7200 495.8000Q528.2800 495.8000 533.8800 497.6900Q539.4800 499.5800 543.1900 502.3800Q546.9000 505.1800 548.8600 508.0500Q550.8200 510.9200 550.9600 513.0200L550.9600 513.0200Q551.1000 514.5600 550.1200 515.4700Q549.1400 516.3800 547.8800 516.3800L547.8800 516.3800L537.5200 516.3800Q536.8200 516.3800 536.2600 516.1000Q535.7000 515.8200 535.1400 515.4000L535.1400 515.4000Q533.6000 514 531.7800 512.3900Q529.9600 510.7800 527.3700 509.6600Q524.7800 508.5400 520.5800 508.5400L520.5800 508.5400Q515.2600 508.5400 512.4600 510.8500Q509.6600 513.1600 509.6600 516.6600L509.6600 516.6600Q509.6600 519.0400 510.9900 520.7900Q512.3200 522.5400 516.3800 524.0800Q520.4400 525.6200 528.7000 527.3000L528.7000 527.3000Q538.0800 528.9800 543.6100 532.2700Q549.1400 535.5600 551.4500 539.8300Q553.7600 544.1000 553.7600 549.2800L553.7600 549.2800Q553.7600 555.5800 550.0500 560.6200Q546.3400 565.6600 539.1300 568.5300Q531.9200 571.4000 521.2800 571.4000ZM631.7400 571.4000L631.7400 571.4000Q621.6600 571.4000 614.0300 567.6200Q606.4000 563.8400 602.1300 556.6300Q597.8600 549.4200 597.4400 539.2000L597.4400 539.2000Q597.3000 537.1000 597.3000 533.6700Q597.3000 530.2400 597.4400 528L597.4400 528Q597.8600 517.7800 602.1300 510.5700Q606.4000 503.3600 614.0300 499.5800Q621.6600 495.8000 631.7400 495.8000L631.7400 495.8000Q640.7000 495.8000 647 498.2500Q653.3000 500.7000 657.3600 504.5500Q661.4200 508.4000 663.4500 512.5300Q665.4800 516.6600 665.6200 520.0200L665.6200 520.0200Q665.7600 521.5600 664.7100 522.4700Q663.6600 523.3800 662.2600 523.3800L662.2600 523.3800L649.9400 523.3800Q648.5400 523.3800 647.7700 522.6800Q647 521.9800 646.3000 520.5800L646.3000 520.5800Q644.2000 514.9800 640.7700 512.6700Q637.3400 510.3600 632.0200 510.3600L632.0200 510.3600Q625.0200 510.3600 620.8900 514.7700Q616.7600 519.1800 616.4800 528.7000L616.4800 528.7000Q616.2000 534.0200 616.4800 538.5000L616.4800 538.5000Q616.7600 548.1600 620.8900 552.5000Q625.0200 556.8400 632.0200 556.8400L632.0200 556.8400Q637.4800 556.8400 640.8400 554.5300Q644.2000 552.2200 646.3000 546.6200L646.3000 546.6200Q647 545.2200 647.7700 544.5200Q648.5400 543.8200 649.9400 543.8200L649.9400 543.8200L662.2600 543.8200Q663.6600 543.8200 664.7100 544.7300Q665.7600 545.6400 665.6200 547.1800L665.6200 547.1800Q665.4800 549.7000 664.2900 552.8500Q663.1000 556 660.5100 559.2900Q657.9200 562.5800 654 565.3100Q650.0800 568.0400 644.5500 569.7200Q639.0200 571.4000 631.7400 571.4000ZM712.3800 571.4000L712.3800 571.4000Q701.1800 571.4000 693.5500 567.4800Q685.9200 563.5600 681.9300 556.4200Q677.9400 549.2800 677.3800 539.7600L677.3800 539.7600Q677.2400 537.2400 677.2400 533.6000Q677.2400 529.9600 677.3800 527.4400L677.3800 527.4400Q677.9400 517.7800 682.0700 510.7100Q686.2000 503.6400 693.8300 499.7200Q701.4600 495.8000 712.3800 495.8000L712.3800 495.8000Q723.3000 495.8000 730.9300 499.7200Q738.5600 503.6400 742.6900 510.7100Q746.8200 517.7800 747.3800 527.4400L747.3800 527.4400Q747.5200 529.9600 747.5200 533.6000Q747.5200 537.2400 747.3800 539.7600L747.3800 539.7600Q746.8200 549.2800 742.8300 556.4200Q738.8400 563.5600 731.2100 567.4800Q723.5800 571.4000 712.3800 571.4000ZM712.3800 557.5400L712.3800 557.5400Q719.8000 557.5400 723.8600 552.8500Q727.9200 548.1600 728.3400 539.0600L728.3400 539.0600Q728.4800 536.9600 728.4800 533.6000Q728.4800 530.2400 728.3400 528.1400L728.3400 528.1400Q727.9200 519.0400 723.8600 514.3500Q719.8000 509.6600 712.3800 509.6600L712.3800 509.6600Q704.9600 509.6600 700.9000 514.3500Q696.8400 519.0400 696.4200 528.1400L696.4200 528.1400Q696.2800 530.2400 696.2800 533.6000Q696.2800 536.9600 696.4200 539.0600L696.4200 539.0600Q696.8400 548.1600 700.9000 552.8500Q704.9600 557.5400 712.3800 557.5400ZM778.1800 570L766.4200 570Q765.0200 570 764.0400 569.0200Q763.0600 568.0400 763.0600 566.6400L763.0600 566.6400L763.0600 500.5600Q763.0600 499.1600 764.0400 498.1800Q765.0200 497.2000 766.4200 497.2000L766.4200 497.2000L777.3400 497.2000Q778.7400 497.2000 779.7200 498.1800Q780.7000 499.1600 780.7000 500.5600L780.7000 500.5600L780.7000 505.3200Q783.6400 501.4000 788.6100 498.6700Q793.5800 495.9400 800.4400 495.8000L800.4400 495.8000Q816.4000 495.5200 822.7000 508.2600L822.7000 508.2600Q825.9200 502.6600 832.0100 499.2300Q838.1000 495.8000 845.5200 495.8000L845.5200 495.8000Q852.8000 495.8000 858.7500 499.1600Q864.7000 502.5200 868.1300 509.3100Q871.5600 516.1000 871.5600 526.4600L871.5600 526.4600L871.5600 566.6400Q871.5600 568.0400 870.5800 569.0200Q869.6000 570 868.2000 570L868.2000 570L856.7200 570Q855.3200 570 854.3400 569.0200Q853.3600 568.0400 853.3600 566.6400L853.3600 566.6400L853.3600 527.5800Q853.3600 521.2800 851.5400 517.5700Q849.7200 513.8600 846.6400 512.3200Q843.5600 510.7800 839.7800 510.7800L839.7800 510.7800Q836.7000 510.7800 833.6200 512.3200Q830.5400 513.8600 828.5800 517.5700Q826.6200 521.2800 826.6200 527.5800L826.6200 527.5800L826.6200 566.6400Q826.6200 568.0400 825.6400 569.0200Q824.6600 570 823.2600 570L823.2600 570L811.7800 570Q810.3800 570 809.4000 569.0200Q808.4200 568.0400 808.4200 566.6400L808.4200 566.6400L808.4200 527.5800Q808.4200 521.2800 806.4600 517.5700Q804.5000 513.8600 801.4200 512.3200Q798.3400 510.7800 794.8400 510.7800L794.8400 510.7800Q791.6200 510.7800 788.5400 512.3900Q785.4600 514 783.5000 517.6400Q781.5400 521.2800 781.5400 527.5800L781.5400 527.5800L781.5400 566.6400Q781.5400 568.0400 780.5600 569.0200Q779.5800 570 778.1800 570L778.1800 570ZM904.7400 596.6000L892.8400 596.6000Q891.4400 596.6000 890.4600 595.6200Q889.4800 594.6400 889.4800 593.2400L889.4800 593.2400L889.4800 500.5600Q889.4800 499.1600 890.4600 498.1800Q891.4400 497.2000 892.8400 497.2000L892.8400 497.2000L903.9000 497.2000Q905.4400 497.2000 906.3500 498.1800Q907.2600 499.1600 907.2600 500.5600L907.2600 500.5600L907.2600 506.1600Q910.6200 501.6800 916.0800 498.7400Q921.5400 495.8000 929.6600 495.8000L929.6600 495.8000Q937.0800 495.8000 942.5400 498.1800Q948 500.5600 951.6400 504.9700Q955.2800 509.3800 957.2400 515.4000Q959.2000 521.4200 959.4800 528.7000L959.4800 528.7000Q959.6200 531.0800 959.6200 533.6000Q959.6200 536.1200 959.4800 538.6400L959.4800 538.6400Q959.3400 545.6400 957.3800 551.5900Q955.4200 557.5400 951.7100 561.9500Q948 566.3600 942.5400 568.8800Q937.0800 571.4000 929.6600 571.4000L929.6600 571.4000Q922.1000 571.4000 916.7800 568.6700Q911.4600 565.9400 908.1000 561.4600L908.1000 561.4600L908.1000 593.2400Q908.1000 594.6400 907.1900 595.6200Q906.2800 596.6000 904.7400 596.6000L904.7400 596.6000ZM924.4800 556.4200L924.4800 556.4200Q930.5000 556.4200 933.8600 553.8300Q937.2200 551.2400 938.7600 547.0400Q940.3000 542.8400 940.5800 537.8000L940.5800 537.8000Q940.7200 533.6000 940.5800 529.4000L940.5800 529.4000Q940.3000 524.3600 938.7600 520.1600Q937.2200 515.9600 933.8600 513.3700Q930.5000 510.7800 924.4800 510.7800L924.4800 510.7800Q918.7400 510.7800 915.1700 513.4400Q911.6000 516.1000 909.9900 520.2300Q908.3800 524.3600 908.1000 528.7000L908.1000 528.7000Q907.9600 531.2200 907.9600 534.0200Q907.9600 536.8200 908.1000 539.4800L908.1000 539.4800Q908.2400 543.6800 910.0600 547.5300Q911.8800 551.3800 915.3800 553.9000Q918.8800 556.4200 924.4800 556.4200ZM990.4200 570L978.8000 570Q977.4000 570 976.4200 569.0200Q975.4400 568.0400 975.4400 566.6400L975.4400 566.6400L975.4400 473.9600Q975.4400 472.5600 976.4200 471.5800Q977.4000 470.6000 978.8000 470.6000L978.8000 470.6000L990.4200 470.6000Q991.8200 470.6000 992.8000 471.5800Q993.7800 472.5600 993.7800 473.9600L993.7800 473.9600L993.7800 566.6400Q993.7800 568.0400 992.8000 569.0200Q991.8200 570 990.4200 570L990.4200 570ZM1043.7600 571.4000L1043.7600 571.4000Q1028.2200 571.4000 1019.1200 562.4400Q1010.0200 553.4800 1009.3200 536.9600L1009.3200 536.9600Q1009.1800 535.5600 1009.1800 533.3900Q1009.1800 531.2200 1009.3200 529.9600L1009.3200 529.9600Q1009.8800 519.3200 1014.1500 511.6900Q1018.4200 504.0600 1025.9800 499.9300Q1033.5400 495.8000 1043.7600 495.8000L1043.7600 495.8000Q1055.1000 495.8000 1062.8000 500.4900Q1070.5000 505.1800 1074.4200 513.5100Q1078.3400 521.8400 1078.3400 532.7600L1078.3400 532.7600L1078.3400 535.7000Q1078.3400 537.1000 1077.3600 538.0800Q1076.3800 539.0600 1074.8400 539.0600L1074.8400 539.0600L1028.3600 539.0600Q1028.3600 539.0600 1028.3600 539.4800Q1028.3600 539.9000 1028.3600 540.1800L1028.3600 540.1800Q1028.5000 545.0800 1030.2500 549.2100Q1032 553.3400 1035.4300 555.8600Q1038.8600 558.3800 1043.6200 558.3800L1043.6200 558.3800Q1047.5400 558.3800 1050.2000 557.1900Q1052.8600 556 1054.5400 554.4600Q1056.2200 552.9200 1056.9200 551.9400L1056.9200 551.9400Q1058.1800 550.2600 1058.9500 549.9100Q1059.7200 549.5600 1061.2600 549.5600L1061.2600 549.5600L1073.3000 549.5600Q1074.7000 549.5600 1075.6100 550.4000Q1076.5200 551.2400 1076.3800 552.5000L1076.3800 552.5000Q1076.2400 554.7400 1074.0700 557.9600Q1071.9000 561.1800 1067.8400 564.2600Q1063.7800 567.3400 1057.6900 569.3700Q1051.6000 571.4000 1043.7600 571.4000ZM1028.3600 526.8800L1028.3600 527.3000L1059.3000 527.3000L1059.3000 526.8800Q1059.3000 521.4200 1057.4800 517.2900Q1055.6600 513.1600 1052.1600 510.8500Q1048.6600 508.5400 1043.7600 508.5400L1043.7600 508.5400Q1038.8600 508.5400 1035.3600 510.8500Q1031.8600 513.1600 1030.1100 517.2900Q1028.3600 521.4200 1028.3600 526.8800L1028.3600 526.8800ZM1102.4200 570L1090.1000 570Q1088.8400 570 1087.9300 569.0900Q1087.0200 568.1800 1087.0200 566.9200L1087.0200 566.9200Q1087.0200 566.5000 1087.2300 565.9400Q1087.4400 565.3800 1088 564.5400L1088 564.5400L1111.8000 532.6200L1089.6800 502.6600Q1089.2600 501.9600 1089.0500 501.4000Q1088.8400 500.8400 1088.8400 500.2800L1088.8400 500.2800Q1088.8400 499.0200 1089.7500 498.1100Q1090.6600 497.2000 1091.9200 497.2000L1091.9200 497.2000L1104.1000 497.2000Q1105.7800 497.2000 1106.6200 498.0400Q1107.4600 498.8800 1107.8800 499.5800L1107.8800 499.5800L1123.7000 520.5800L1139.5200 499.5800Q1140.0800 498.8800 1140.8500 498.0400Q1141.6200 497.2000 1143.3000 497.2000L1143.3000 497.2000L1154.9200 497.2000Q1156.1800 497.2000 1157.0900 498.1100Q1158 499.0200 1158 500.1400L1158 500.1400Q1158 500.8400 1157.7900 501.4000Q1157.5800 501.9600 1157.1600 502.6600L1157.1600 502.6600L1134.7600 532.9000L1158.7000 564.5400Q1159.2600 565.3800 1159.4700 565.9400Q1159.6800 566.5000 1159.6800 566.9200L1159.6800 566.9200Q1159.6800 568.1800 1158.7700 569.0900Q1157.8600 570 1156.6000 570L1156.6000 570L1143.8600 570Q1142.3200 570 1141.4800 569.2300Q1140.6400 568.4600 1140.0800 567.7600L1140.0800 567.7600L1123.2800 545.5000L1106.2000 567.7600Q1105.6400 568.4600 1104.8700 569.2300Q1104.1000 570 1102.4200 570L1102.4200 570ZM1204.3400 571.4000L1204.3400 571.4000Q1193.1400 571.4000 1185.5100 567.4800Q1177.8800 563.5600 1173.8900 556.4200Q1169.9000 549.2800 1169.3400 539.7600L1169.3400 539.7600Q1169.2000 537.2400 1169.2000 533.6000Q1169.2000 529.9600 1169.3400 527.4400L1169.3400 527.4400Q1169.9000 517.7800 1174.0300 510.7100Q1178.1600 503.6400 1185.7900 499.7200Q1193.4200 495.8000 1204.3400 495.8000L1204.3400 495.8000Q1215.2600 495.8000 1222.8900 499.7200Q1230.5200 503.6400 1234.6500 510.7100Q1238.7800 517.7800 1239.3400 527.4400L1239.3400 527.4400Q1239.4800 529.9600 1239.4800 533.6000Q1239.4800 537.2400 1239.3400 539.7600L1239.3400 539.7600Q1238.7800 549.2800 1234.7900 556.4200Q1230.8000 563.5600 1223.1700 567.4800Q1215.5400 571.4000 1204.3400 571.4000ZM1204.3400 557.5400L1204.3400 557.5400Q1211.7600 557.5400 1215.8200 552.8500Q1219.8800 548.1600 1220.3000 539.0600L1220.3000 539.0600Q1220.4400 536.9600 1220.4400 533.6000Q1220.4400 530.2400 1220.3000 528.1400L1220.3000 528.1400Q1219.8800 519.0400 1215.8200 514.3500Q1211.7600 509.6600 1204.3400 509.6600L1204.3400 509.6600Q1196.9200 509.6600 1192.8600 514.3500Q1188.8000 519.0400 1188.3800 528.1400L1188.3800 528.1400Q1188.2400 530.2400 1188.2400 533.6000Q1188.2400 536.9600 1188.3800 539.0600L1188.3800 539.0600Q1188.8000 548.1600 1192.8600 552.8500Q1196.9200 557.5400 1204.3400 557.5400ZM1282.6000 571.4000L1282.6000 571.4000Q1274.2000 571.4000 1268.2500 569.4400Q1262.3000 567.4800 1258.5200 564.5400Q1254.7400 561.6000 1252.9200 558.6600Q1251.1000 555.7200 1250.9600 553.7600L1250.9600 553.7600Q1250.8200 552.2200 1251.8700 551.3100Q1252.9200 550.4000 1254.1800 550.4000L1254.1800 550.4000L1265.2400 550.4000Q1265.8000 550.4000 1266.2200 550.5400Q1266.6400 550.6800 1267.3400 551.3800L1267.3400 551.3800Q1269.1600 552.9200 1271.1900 554.6000Q1273.2200 556.2800 1276.0200 557.4700Q1278.8200 558.6600 1283.0200 558.6600L1283.0200 558.6600Q1288.4800 558.6600 1292.1900 556.4900Q1295.9000 554.3200 1295.9000 550.2600L1295.9000 550.2600Q1295.9000 547.3200 1294.2900 545.5000Q1292.6800 543.6800 1288.3400 542.2100Q1284.0000 540.7400 1276.0200 539.0600L1276.0200 539.0600Q1268.1800 537.2400 1263.0000 534.4400Q1257.8200 531.6400 1255.3000 527.4400Q1252.7800 523.2400 1252.7800 517.6400L1252.7800 517.6400Q1252.7800 512.1800 1256.0700 507.2100Q1259.3600 502.2400 1265.8700 499.0200Q1272.3800 495.8000 1282.0400 495.8000L1282.0400 495.8000Q1289.6000 495.8000 1295.2000 497.6900Q1300.8000 499.5800 1304.5100 502.3800Q1308.2200 505.1800 1310.1800 508.0500Q1312.1400 510.9200 1312.2800 513.0200L1312.2800 513.0200Q1312.4200 514.5600 1311.4400 515.4700Q1310.4600 516.3800 1309.2000 516.3800L1309.2000 516.3800L1298.8400 516.3800Q1298.1400 516.3800 1297.5800 516.1000Q1297.0200 515.8200 1296.4600 515.4000L1296.4600 515.4000Q1294.9200 514 1293.1000 512.3900Q1291.2800 510.7800 1288.6900 509.6600Q1286.1000 508.5400 1281.9000 508.5400L1281.9000 508.5400Q1276.5800 508.5400 1273.7800 510.8500Q1270.9800 513.1600 1270.9800 516.6600L1270.9800 516.6600Q1270.9800 519.0400 1272.3100 520.7900Q1273.6400 522.5400 1277.7000 524.0800Q1281.7600 525.6200 1290.0200 527.3000L1290.0200 527.3000Q1299.4000 528.9800 1304.9300 532.2700Q1310.4600 535.5600 1312.7700 539.8300Q1315.0800 544.1000 1315.0800 549.2800L1315.0800 549.2800Q1315.0800 555.5800 1311.3700 560.6200Q1307.6600 565.6600 1300.4500 568.5300Q1293.2400 571.4000 1282.6000 571.4000ZM186.2600 711.4000L186.2600 711.4000Q177.7200 711.4000 171.4900 707.5500Q165.2600 703.7000 161.9000 696.6300Q158.5400 689.5600 158.5400 679.9000L158.5400 679.9000L158.5400 640.5600Q158.5400 639.1600 159.5200 638.1800Q160.5000 637.2000 161.9000 637.2000L161.9000 637.2000L174.2200 637.2000Q175.7600 637.2000 176.6700 638.1800Q177.5800 639.1600 177.5800 640.5600L177.5800 640.5600L177.5800 679.0600Q177.5800 696.4200 192.8400 696.4200L192.8400 696.4200Q200.1200 696.4200 204.3900 691.8000Q208.6600 687.1800 208.6600 679.0600L208.6600 679.0600L208.6600 640.5600Q208.6600 639.1600 209.6400 638.1800Q210.6200 637.2000 212.0200 637.2000L212.0200 637.2000L224.3400 637.2000Q225.7400 637.2000 226.7200 638.1800Q227.7000 639.1600 227.7000 640.5600L227.7000 640.5600L227.7000 706.6400Q227.7000 708.0400 226.7200 709.0200Q225.7400 710 224.3400 710L224.3400 710L213 710Q211.4600 710 210.5500 709.0200Q209.6400 708.0400 209.6400 706.6400L209.6400 706.6400L209.6400 700.9000Q205.8600 705.8000 200.2600 708.6000Q194.6600 711.4000 186.2600 711.4000ZM290.4200 710L279.0800 710Q270.6800 710 264.9400 707.0600Q259.2000 704.1200 256.4000 698.3100Q253.6000 692.5000 253.6000 683.8200L253.6000 683.8200L253.6000 652.0400L242.5400 652.0400Q241.1400 652.0400 240.1600 651.0600Q239.1800 650.0800 239.1800 648.5400L239.1800 648.5400L239.1800 640.5600Q239.1800 639.1600 240.1600 638.1800Q241.1400 637.2000 242.5400 637.2000L242.5400 637.2000L253.6000 637.2000L253.6000 613.9600Q253.6000 612.5600 254.5100 611.5800Q255.4200 610.6000 256.9600 610.6000L256.9600 610.6000L268.3000 610.6000Q269.7000 610.6000 270.6800 611.5800Q271.6600 612.5600 271.6600 613.9600L271.6600 613.9600L271.6600 637.2000L289.1600 637.2000Q290.5600 637.2000 291.5400 638.1800Q292.5200 639.1600 292.5200 640.5600L292.5200 640.5600L292.5200 648.5400Q292.5200 650.0800 291.5400 651.0600Q290.5600 652.0400 289.1600 652.0400L289.1600 652.0400L271.6600 652.0400L271.6600 682.4200Q271.6600 688.1600 273.6900 691.3800Q275.7200 694.6000 280.7600 694.6000L280.7600 694.6000L290.4200 694.6000Q291.8200 694.6000 292.8000 695.5800Q293.7800 696.5600 293.7800 697.9600L293.7800 697.9600L293.7800 706.6400Q293.7800 708.0400 292.8000 709.0200Q291.8200 710 290.4200 710L290.4200 710ZM321.2200 710L309.6000 710Q308.2000 710 307.2200 709.0200Q306.2400 708.0400 306.2400 706.6400L306.2400 706.6400L306.2400 640.5600Q306.2400 639.1600 307.2200 638.1800Q308.2000 637.2000 309.6000 637.2000L309.6000 637.2000L321.2200 637.2000Q322.7600 637.2000 323.6700 638.1800Q324.5800 639.1600 324.5800 640.5600L324.5800 640.5600L324.5800 706.6400Q324.5800 708.0400 323.6700 709.0200Q322.7600 710 321.2200 710L321.2200 710ZM321.7800 625.1600L309.0400 625.1600Q307.6400 625.1600 306.6600 624.1800Q305.6800 623.2000 305.6800 621.8000L305.6800 621.8000L305.6800 611.7200Q305.6800 610.3200 306.6600 609.3400Q307.6400 608.3600 309.0400 608.3600L309.0400 608.3600L321.7800 608.3600Q323.3200 608.3600 324.3000 609.3400Q325.2800 610.3200 325.2800 611.7200L325.2800 611.7200L325.2800 621.8000Q325.2800 623.2000 324.3000 624.1800Q323.3200 625.1600 321.7800 625.1600L321.7800 625.1600ZM358.3200 710L346.7000 710Q345.3000 710 344.3200 709.0200Q343.3400 708.0400 343.3400 706.6400L343.3400 706.6400L343.3400 613.9600Q343.3400 612.5600 344.3200 611.5800Q345.3000 610.6000 346.7000 610.6000L346.7000 610.6000L358.3200 610.6000Q359.7200 610.6000 360.7000 611.5800Q361.6800 612.5600 361.6800 613.9600L361.6800 613.9600L361.6800 706.6400Q361.6800 708.0400 360.7000 709.0200Q359.7200 710 358.3200 710L358.3200 710ZM395.2800 710L383.6600 710Q382.2600 710 381.2800 709.0200Q380.3000 708.0400 380.3000 706.6400L380.3000 706.6400L380.3000 640.5600Q380.3000 639.1600 381.2800 638.1800Q382.2600 637.2000 383.6600 637.2000L383.6600 637.2000L395.2800 637.2000Q396.8200 637.2000 397.7300 638.1800Q398.6400 639.1600 398.6400 640.5600L398.6400 640.5600L398.6400 706.6400Q398.6400 708.0400 397.7300 709.0200Q396.8200 710 395.2800 710L395.2800 710ZM395.8400 625.1600L383.1000 625.1600Q381.7000 625.1600 380.7200 624.1800Q379.7400 623.2000 379.7400 621.8000L379.7400 621.8000L379.7400 611.7200Q379.7400 610.3200 380.7200 609.3400Q381.7000 608.3600 383.1000 608.3600L383.1000 608.3600L395.8400 608.3600Q397.3800 608.3600 398.3600 609.3400Q399.3400 610.3200 399.3400 611.7200L399.3400 611.7200L399.3400 621.8000Q399.3400 623.2000 398.3600 624.1800Q397.3800 625.1600 395.8400 625.1600L395.8400 625.1600ZM474.1000 710L416.9800 710Q415.4400 710 414.5300 709.0200Q413.6200 708.0400 413.6200 706.6400L413.6200 706.6400L413.6200 698.6600Q413.6200 697.4000 414.2500 696.2100Q414.8800 695.0200 415.5800 694.1800L415.5800 694.1800L451.4200 651.7600L418.1000 651.7600Q416.7000 651.7600 415.7200 650.8500Q414.7400 649.9400 414.7400 648.4000L414.7400 648.4000L414.7400 640.5600Q414.7400 639.1600 415.7200 638.1800Q416.7000 637.2000 418.1000 637.2000L418.1000 637.2000L471.1600 637.2000Q472.7000 637.2000 473.6100 638.1800Q474.5200 639.1600 474.5200 640.5600L474.5200 640.5600L474.5200 649.1000Q474.5200 650.3600 473.9600 651.3400Q473.4000 652.3200 472.5600 653.3000L472.5600 653.3000L437.5600 695.4400L474.1000 695.4400Q475.5000 695.4400 476.4800 696.3500Q477.4600 697.2600 477.4600 698.8000L477.4600 698.8000L477.4600 706.6400Q477.4600 708.0400 476.4800 709.0200Q475.5000 710 474.1000 710L474.1000 710ZM512.7400 711.4000L512.7400 711.4000Q505.4600 711.4000 499.5800 708.5300Q493.7000 705.6600 490.2700 700.8300Q486.8400 696 486.8400 689.9800L486.8400 689.9800Q486.8400 680.1800 494.8200 674.3700Q502.8000 668.5600 515.6800 666.6000L515.6800 666.6000L534.8600 663.8000L534.8600 660.8600Q534.8600 654.9800 531.9200 651.7600Q528.9800 648.5400 521.8400 648.5400L521.8400 648.5400Q516.8000 648.5400 513.6500 650.5700Q510.5000 652.6000 508.9600 655.9600L508.9600 655.9600Q507.8400 657.7800 505.7400 657.7800L505.7400 657.7800L494.6800 657.7800Q493.1400 657.7800 492.3700 656.9400Q491.6000 656.1000 491.6000 654.7000L491.6000 654.7000Q491.7400 652.4600 493.4900 649.2400Q495.2400 646.0200 498.8100 643.0100Q502.3800 640 508.1200 637.9000Q513.8600 635.8000 521.9800 635.8000L521.9800 635.8000Q530.8000 635.8000 536.8900 637.9700Q542.9800 640.1400 546.6200 643.7800Q550.2600 647.4200 551.9400 652.3200Q553.6200 657.2200 553.6200 662.6800L553.6200 662.6800L553.6200 706.6400Q553.6200 708.0400 552.6400 709.0200Q551.6600 710 550.2600 710L550.2600 710L538.9200 710Q537.3800 710 536.4700 709.0200Q535.5600 708.0400 535.5600 706.6400L535.5600 706.6400L535.5600 701.1800Q533.7400 703.7000 530.6600 706.0800Q527.5800 708.4600 523.1700 709.9300Q518.7600 711.4000 512.7400 711.4000ZM517.5000 698.1000L517.5000 698.1000Q522.4000 698.1000 526.3900 696Q530.3800 693.9000 532.6900 689.4900Q535 685.0800 535 678.3600L535 678.3600L535 675.4200L521 677.6600Q512.7400 678.9200 508.6800 681.7200Q504.6200 684.5200 504.6200 688.5800L504.6200 688.5800Q504.6200 691.6600 506.5100 693.8300Q508.4000 696 511.3400 697.0500Q514.2800 698.1000 517.5000 698.1000ZM587.2200 710L574.9000 710Q573.5000 710 572.5200 709.0200Q571.5400 708.0400 571.5400 706.6400L571.5400 706.6400L571.5400 640.5600Q571.5400 639.1600 572.5200 638.1800Q573.5000 637.2000 574.9000 637.2000L574.9000 637.2000L586.3800 637.2000Q587.7800 637.2000 588.7600 638.1800Q589.7400 639.1600 589.7400 640.5600L589.7400 640.5600L589.7400 646.3000Q593.3800 641.8200 599.0500 638.8100Q604.7200 635.8000 613.1200 635.8000L613.1200 635.8000Q621.6600 635.8000 627.9600 639.6500Q634.2600 643.5000 637.6900 650.5000Q641.1200 657.5000 641.1200 667.3000L641.1200 667.3000L641.1200 706.6400Q641.1200 708.0400 640.1400 709.0200Q639.1600 710 637.7600 710L637.7600 710L625.4400 710Q624.0400 710 623.0600 709.0200Q622.0800 708.0400 622.0800 706.6400L622.0800 706.6400L622.0800 668.1400Q622.0800 660.0200 618.0900 655.4000Q614.1000 650.7800 606.5400 650.7800L606.5400 650.7800Q599.2600 650.7800 594.9200 655.4000Q590.5800 660.0200 590.5800 668.1400L590.5800 668.1400L590.5800 706.6400Q590.5800 708.0400 589.6000 709.0200Q588.6200 710 587.2200 710L587.2200 710ZM685.9200 711.4000L685.9200 711.4000Q678.6400 711.4000 673.1100 708.9500Q667.5800 706.5000 663.9400 702.0200Q660.3000 697.5400 658.3400 691.4500Q656.3800 685.3600 656.1000 678.0800L656.1000 678.0800Q655.9600 675.5600 655.9600 673.5300Q655.9600 671.5000 656.1000 668.9800L656.1000 668.9800Q656.3800 661.9800 658.2700 655.9600Q660.1600 649.9400 663.8700 645.3900Q667.5800 640.8400 673.1100 638.3200Q678.6400 635.8000 685.9200 635.8000L685.9200 635.8000Q693.4800 635.8000 698.7300 638.3900Q703.9800 640.9800 707.4800 645.0400L707.4800 645.0400L707.4800 613.9600Q707.4800 612.5600 708.3900 611.5800Q709.3000 610.6000 710.8400 610.6000L710.8400 610.6000L722.7400 610.6000Q724.1400 610.6000 725.1200 611.5800Q726.1000 612.5600 726.1000 613.9600L726.1000 613.9600L726.1000 706.6400Q726.1000 708.0400 725.1200 709.0200Q724.1400 710 722.7400 710L722.7400 710L711.6800 710Q710.1400 710 709.2300 709.0200Q708.3200 708.0400 708.3200 706.6400L708.3200 706.6400L708.3200 701.4600Q704.8200 705.8000 699.4300 708.6000Q694.0400 711.4000 685.9200 711.4000ZM691.1000 696.4200L691.1000 696.4200Q696.9800 696.4200 700.4800 693.7600Q703.9800 691.1000 705.6600 686.9700Q707.3400 682.8400 707.4800 678.5000L707.4800 678.5000Q707.6200 675.9800 707.6200 673.1100Q707.6200 670.2400 707.4800 667.7200L707.4800 667.7200Q707.3400 663.5200 705.5200 659.6700Q703.7000 655.8200 700.2000 653.3000Q696.7000 650.7800 691.1000 650.7800L691.1000 650.7800Q685.2200 650.7800 681.7900 653.3700Q678.3600 655.9600 676.8200 660.1600Q675.2800 664.3600 675.0000 669.4000L675.0000 669.4000Q674.8600 673.6000 675.0000 677.8000L675.0000 677.8000Q675.2800 682.8400 676.8200 687.0400Q678.3600 691.2400 681.7900 693.8300Q685.2200 696.4200 691.1000 696.4200ZM776.9200 711.4000L776.9200 711.4000Q765.7200 711.4000 758.0900 707.4800Q750.4600 703.5600 746.4700 696.4200Q742.4800 689.2800 741.9200 679.7600L741.9200 679.7600Q741.7800 677.2400 741.7800 673.6000Q741.7800 669.9600 741.9200 667.4400L741.9200 667.4400Q742.4800 657.7800 746.6100 650.7100Q750.7400 643.6400 758.3700 639.7200Q766.0000 635.8000 776.9200 635.8000L776.9200 635.8000Q787.8400 635.8000 795.4700 639.7200Q803.1000 643.6400 807.2300 650.7100Q811.3600 657.7800 811.9200 667.4400L811.9200 667.4400Q812.0600 669.9600 812.0600 673.6000Q812.0600 677.2400 811.9200 679.7600L811.9200 679.7600Q811.3600 689.2800 807.3700 696.4200Q803.3800 703.5600 795.7500 707.4800Q788.1200 711.4000 776.9200 711.4000ZM776.9200 697.5400L776.9200 697.5400Q784.3400 697.5400 788.4000 692.8500Q792.4600 688.1600 792.8800 679.0600L792.8800 679.0600Q793.0200 676.9600 793.0200 673.6000Q793.0200 670.2400 792.8800 668.1400L792.8800 668.1400Q792.4600 659.0400 788.4000 654.3500Q784.3400 649.6600 776.9200 649.6600L776.9200 649.6600Q769.5000 649.6600 765.4400 654.3500Q761.3800 659.0400 760.9600 668.1400L760.9600 668.1400Q760.8200 670.2400 760.8200 673.6000Q760.8200 676.9600 760.9600 679.0600L760.9600 679.0600Q761.3800 688.1600 765.4400 692.8500Q769.5000 697.5400 776.9200 697.5400ZM186.8200 851.4000L186.8200 851.4000Q178.4200 851.4000 172.4700 849.4400Q166.5200 847.4800 162.7400 844.5400Q158.9600 841.6000 157.1400 838.6600Q155.3200 835.7200 155.1800 833.7600L155.1800 833.7600Q155.0400 832.2200 156.0900 831.3100Q157.1400 830.4000 158.4000 830.4000L158.4000 830.4000L169.4600 830.4000Q170.0200 830.4000 170.4400 830.5400Q170.8600 830.6800 171.5600 831.3800L171.5600 831.3800Q173.3800 832.9200 175.4100 834.6000Q177.4400 836.2800 180.2400 837.4700Q183.0400 838.6600 187.2400 838.6600L187.2400 838.6600Q192.7000 838.6600 196.4100 836.4900Q200.1200 834.3200 200.1200 830.2600L200.1200 830.2600Q200.1200 827.3200 198.5100 825.5000Q196.9000 823.6800 192.5600 822.2100Q188.2200 820.7400 180.2400 819.0600L180.2400 819.0600Q172.4000 817.2400 167.2200 814.4400Q162.0400 811.6400 159.5200 807.4400Q157 803.2400 157 797.6400L157 797.6400Q157 792.1800 160.2900 787.2100Q163.5800 782.2400 170.0900 779.0200Q176.6000 775.8000 186.2600 775.8000L186.2600 775.8000Q193.8200 775.8000 199.4200 777.6900Q205.0200 779.5800 208.7300 782.3800Q212.4400 785.1800 214.4000 788.0500Q216.3600 790.9200 216.5000 793.0200L216.5000 793.0200Q216.6400 794.5600 215.6600 795.4700Q214.6800 796.3800 213.4200 796.3800L213.4200 796.3800L203.0600 796.3800Q202.3600 796.3800 201.8000 796.1000Q201.2400 795.8200 200.6800 795.4000L200.6800 795.4000Q199.1400 794 197.3200 792.3900Q195.5000 790.7800 192.9100 789.6600Q190.3200 788.5400 186.1200 788.5400L186.1200 788.5400Q180.8000 788.5400 178 790.8500Q175.2000 793.1600 175.2000 796.6600L175.2000 796.6600Q175.2000 799.0400 176.5300 800.7900Q177.8600 802.5400 181.9200 804.0800Q185.9800 805.6200 194.2400 807.3000L194.2400 807.3000Q203.6200 808.9800 209.1500 812.2700Q214.6800 815.5600 216.9900 819.8300Q219.3000 824.1000 219.3000 829.2800L219.3000 829.2800Q219.3000 835.5800 215.5900 840.6200Q211.8800 845.6600 204.6700 848.5300Q197.4600 851.4000 186.8200 851.4000ZM260.7400 851.4000L260.7400 851.4000Q252.2000 851.4000 245.9700 847.5500Q239.7400 843.7000 236.3800 836.6300Q233.0200 829.5600 233.0200 819.9000L233.0200 819.9000L233.0200 780.5600Q233.0200 779.1600 234.0000 778.1800Q234.9800 777.2000 236.3800 777.2000L236.3800 777.2000L248.7000 777.2000Q250.2400 777.2000 251.1500 778.1800Q252.0600 779.1600 252.0600 780.5600L252.0600 780.5600L252.0600 819.0600Q252.0600 836.4200 267.3200 836.4200L267.3200 836.4200Q274.6000 836.4200 278.8700 831.8000Q283.1400 827.1800 283.1400 819.0600L283.1400 819.0600L283.1400 780.5600Q283.1400 779.1600 284.1200 778.1800Q285.1000 777.2000 286.5000 777.2000L286.5000 777.2000L298.8200 777.2000Q300.2200 777.2000 301.2000 778.1800Q302.1800 779.1600 302.1800 780.5600L302.1800 780.5600L302.1800 846.6400Q302.1800 848.0400 301.2000 849.0200Q300.2200 850 298.8200 850L298.8200 850L287.4800 850Q285.9400 850 285.0300 849.0200Q284.1200 848.0400 284.1200 846.6400L284.1200 846.6400L284.1200 840.9000Q280.3400 845.8000 274.7400 848.6000Q269.1400 851.4000 260.7400 851.4000ZM360.9800 851.4000L360.9800 851.4000Q352.8600 851.4000 347.4700 848.6000Q342.0800 845.8000 338.5800 841.4600L338.5800 841.4600L338.5800 846.6400Q338.5800 848.0400 337.6700 849.0200Q336.7600 850 335.2200 850L335.2200 850L324.1600 850Q322.7600 850 321.7800 849.0200Q320.8000 848.0400 320.8000 846.6400L320.8000 846.6400L320.8000 753.9600Q320.8000 752.5600 321.7800 751.5800Q322.7600 750.6000 324.1600 750.6000L324.1600 750.6000L336.0600 750.6000Q337.6000 750.6000 338.5100 751.5800Q339.4200 752.5600 339.4200 753.9600L339.4200 753.9600L339.4200 785.0400Q342.9200 780.9800 348.1700 778.3900Q353.4200 775.8000 360.9800 775.8000L360.9800 775.8000Q368.4000 775.8000 373.8600 778.3200Q379.3200 780.8400 383.0300 785.3900Q386.7400 789.9400 388.7000 795.9600Q390.6600 801.9800 390.8000 808.9800L390.8000 808.9800Q390.9400 811.5000 390.9400 813.5300Q390.9400 815.5600 390.8000 818.0800L390.8000 818.0800Q390.5200 825.3600 388.5600 831.4500Q386.6000 837.5400 382.9600 842.0200Q379.3200 846.5000 373.8600 848.9500Q368.4000 851.4000 360.9800 851.4000ZM355.8000 836.4200L355.8000 836.4200Q361.8200 836.4200 365.1800 833.8300Q368.5400 831.2400 370.0800 827.0400Q371.6200 822.8400 371.9000 817.8000L371.9000 817.8000Q372.0400 813.6000 371.9000 809.4000L371.9000 809.4000Q371.6200 804.3600 370.0800 800.1600Q368.5400 795.9600 365.1800 793.3700Q361.8200 790.7800 355.8000 790.7800L355.8000 790.7800Q350.2000 790.7800 346.7000 793.3000Q343.2000 795.8200 341.3800 799.6700Q339.5600 803.5200 339.4200 807.7200L339.4200 807.7200Q339.2800 810.2400 339.2800 813.1100Q339.2800 815.9800 339.4200 818.5000L339.4200 818.5000Q339.7000 822.8400 341.3100 826.9700Q342.9200 831.1000 346.4900 833.7600Q350.0600 836.4200 355.8000 836.4200ZM470.4600 876.6000L458.4200 876.6000Q457.0200 876.6000 456.0400 875.6200Q455.0600 874.6400 455.0600 873.2400L455.0600 873.2400L455.0600 841.4600Q451.7000 845.9400 446.3800 848.6700Q441.0600 851.4000 433.5000 851.4000L433.5000 851.4000Q426.3600 851.4000 420.8300 848.8800Q415.3000 846.3600 411.5900 841.9500Q407.8800 837.5400 405.9200 831.5900Q403.9600 825.6400 403.6800 818.6400L403.6800 818.6400Q403.5400 816.1200 403.5400 813.6000Q403.5400 811.0800 403.6800 808.7000L403.6800 808.7000Q404.1000 801.4200 405.9900 795.4000Q407.8800 789.3800 411.5900 784.9700Q415.3000 780.5600 420.8300 778.1800Q426.3600 775.8000 433.5000 775.8000L433.5000 775.8000Q441.6200 775.8000 447.1500 778.7400Q452.6800 781.6800 455.9000 786.1600L455.9000 786.1600L455.9000 780.5600Q455.9000 779.1600 456.8800 778.1800Q457.8600 777.2000 459.2600 777.2000L459.2600 777.2000L470.4600 777.2000Q471.8600 777.2000 472.8400 778.1800Q473.8200 779.1600 473.8200 780.5600L473.8200 780.5600L473.8200 873.2400Q473.8200 874.6400 472.8400 875.6200Q471.8600 876.6000 470.4600 876.6000L470.4600 876.6000ZM438.8200 836.4200L438.8200 836.4200Q444.4200 836.4200 447.9200 833.9000Q451.4200 831.3800 453.1700 827.5300Q454.9200 823.6800 455.0600 819.4800L455.0600 819.4800Q455.3400 816.8200 455.3400 814.0200Q455.3400 811.2200 455.0600 808.7000L455.0600 808.7000Q454.9200 804.3600 453.2400 800.2300Q451.5600 796.1000 448.0600 793.4400Q444.5600 790.7800 438.8200 790.7800L438.8200 790.7800Q432.9400 790.7800 429.4400 793.3700Q425.9400 795.9600 424.4700 800.1600Q423 804.3600 422.7200 809.4000L422.7200 809.4000Q422.4400 813.6000 422.7200 817.8000L422.7200 817.8000Q423 822.8400 424.4700 827.0400Q425.9400 831.2400 429.4400 833.8300Q432.9400 836.4200 438.8200 836.4200ZM519.4600 851.4000L519.4600 851.4000Q510.9200 851.4000 504.6900 847.5500Q498.4600 843.7000 495.1000 836.6300Q491.7400 829.5600 491.7400 819.9000L491.7400 819.9000L491.7400 780.5600Q491.7400 779.1600 492.7200 778.1800Q493.7000 777.2000 495.1000 777.2000L495.1000 777.2000L507.4200 777.2000Q508.9600 777.2000 509.8700 778.1800Q510.7800 779.1600 510.7800 780.5600L510.7800 780.5600L510.7800 819.0600Q510.7800 836.4200 526.0400 836.4200L526.0400 836.4200Q533.3200 836.4200 537.5900 831.8000Q541.8600 827.1800 541.8600 819.0600L541.8600 819.0600L541.8600 780.5600Q541.8600 779.1600 542.8400 778.1800Q543.8200 777.2000 545.2200 777.2000L545.2200 777.2000L557.5400 777.2000Q558.9400 777.2000 559.9200 778.1800Q560.9000 779.1600 560.9000 780.5600L560.9000 780.5600L560.9000 846.6400Q560.9000 848.0400 559.9200 849.0200Q558.9400 850 557.5400 850L557.5400 850L546.2000 850Q544.6600 850 543.7500 849.0200Q542.8400 848.0400 542.8400 846.6400L542.8400 846.6400L542.8400 840.9000Q539.0600 845.8000 533.4600 848.6000Q527.8600 851.4000 519.4600 851.4000ZM610.7400 851.4000L610.7400 851.4000Q595.2000 851.4000 586.1000 842.4400Q577.0000 833.4800 576.3000 816.9600L576.3000 816.9600Q576.1600 815.5600 576.1600 813.3900Q576.1600 811.2200 576.3000 809.9600L576.3000 809.9600Q576.8600 799.3200 581.1300 791.6900Q585.4000 784.0600 592.9600 779.9300Q600.5200 775.8000 610.7400 775.8000L610.7400 775.8000Q622.0800 775.8000 629.7800 780.4900Q637.4800 785.1800 641.4000 793.5100Q645.3200 801.8400 645.3200 812.7600L645.3200 812.7600L645.3200 815.7000Q645.3200 817.1000 644.3400 818.0800Q643.3600 819.0600 641.8200 819.0600L641.8200 819.0600L595.3400 819.0600Q595.3400 819.0600 595.3400 819.4800Q595.3400 819.9000 595.3400 820.1800L595.3400 820.1800Q595.4800 825.0800 597.2300 829.2100Q598.9800 833.3400 602.4100 835.8600Q605.8400 838.3800 610.6000 838.3800L610.6000 838.3800Q614.5200 838.3800 617.1800 837.1900Q619.8400 836 621.5200 834.4600Q623.2000 832.9200 623.9000 831.9400L623.9000 831.9400Q625.1600 830.2600 625.9300 829.9100Q626.7000 829.5600 628.2400 829.5600L628.2400 829.5600L640.2800 829.5600Q641.6800 829.5600 642.5900 830.4000Q643.5000 831.2400 643.3600 832.5000L643.3600 832.5000Q643.2200 834.7400 641.0500 837.9600Q638.8800 841.1800 634.8200 844.2600Q630.7600 847.3400 624.6700 849.3700Q618.5800 851.4000 610.7400 851.4000ZM595.3400 806.8800L595.3400 807.3000L626.2800 807.3000L626.2800 806.8800Q626.2800 801.4200 624.4600 797.2900Q622.6400 793.1600 619.1400 790.8500Q615.6400 788.5400 610.7400 788.5400L610.7400 788.5400Q605.8400 788.5400 602.3400 790.8500Q598.8400 793.1600 597.0900 797.2900Q595.3400 801.4200 595.3400 806.8800L595.3400 806.8800ZM675.7000 850L663.5200 850Q662.1200 850 661.1400 849.0200Q660.1600 848.0400 660.1600 846.6400L660.1600 846.6400L660.1600 780.7000Q660.1600 779.1600 661.1400 778.1800Q662.1200 777.2000 663.5200 777.2000L663.5200 777.2000L674.8600 777.2000Q676.2600 777.2000 677.3100 778.1800Q678.3600 779.1600 678.3600 780.7000L678.3600 780.7000L678.3600 786.4400Q681.5800 781.9600 686.6900 779.5800Q691.8000 777.2000 698.5200 777.2000L698.5200 777.2000L704.2600 777.2000Q705.8000 777.2000 706.7100 778.1800Q707.6200 779.1600 707.6200 780.5600L707.6200 780.5600L707.6200 790.6400Q707.6200 792.0400 706.7100 793.0200Q705.8000 794 704.2600 794L704.2600 794L693.3400 794Q686.6200 794 682.9100 797.7100Q679.2000 801.4200 679.2000 808.1400L679.2000 808.1400L679.2000 846.6400Q679.2000 848.0400 678.2200 849.0200Q677.2400 850 675.7000 850L675.7000 850ZM733.5200 850L721.9000 850Q720.5000 850 719.5200 849.0200Q718.5400 848.0400 718.5400 846.6400L718.5400 846.6400L718.5400 780.5600Q718.5400 779.1600 719.5200 778.1800Q720.5000 777.2000 721.9000 777.2000L721.9000 777.2000L733.5200 777.2000Q735.0600 777.2000 735.9700 778.1800Q736.8800 779.1600 736.8800 780.5600L736.8800 780.5600L736.8800 846.6400Q736.8800 848.0400 735.9700 849.0200Q735.0600 850 733.5200 850L733.5200 850ZM734.0800 765.1600L721.3400 765.1600Q719.9400 765.1600 718.9600 764.1800Q717.9800 763.2000 717.9800 761.8000L717.9800 761.8000L717.9800 751.7200Q717.9800 750.3200 718.9600 749.3400Q719.9400 748.3600 721.3400 748.3600L721.3400 748.3600L734.0800 748.3600Q735.6200 748.3600 736.6000 749.3400Q737.5800 750.3200 737.5800 751.7200L737.5800 751.7200L737.5800 761.8000Q737.5800 763.2000 736.6000 764.1800Q735.6200 765.1600 734.0800 765.1600L734.0800 765.1600ZM786.8600 851.4000L786.8600 851.4000Q771.3200 851.4000 762.2200 842.4400Q753.1200 833.4800 752.4200 816.9600L752.4200 816.9600Q752.2800 815.5600 752.2800 813.3900Q752.2800 811.2200 752.4200 809.9600L752.4200 809.9600Q752.9800 799.3200 757.2500 791.6900Q761.5200 784.0600 769.0800 779.9300Q776.6400 775.8000 786.8600 775.8000L786.8600 775.8000Q798.2000 775.8000 805.9000 780.4900Q813.6000 785.1800 817.5200 793.5100Q821.4400 801.8400 821.4400 812.7600L821.4400 812.7600L821.4400 815.7000Q821.4400 817.1000 820.4600 818.0800Q819.4800 819.0600 817.9400 819.0600L817.9400 819.0600L771.4600 819.0600Q771.4600 819.0600 771.4600 819.4800Q771.4600 819.9000 771.4600 820.1800L771.4600 820.1800Q771.6000 825.0800 773.3500 829.2100Q775.1000 833.3400 778.5300 835.8600Q781.9600 838.3800 786.7200 838.3800L786.7200 838.3800Q790.6400 838.3800 793.3000 837.1900Q795.9600 836 797.6400 834.4600Q799.3200 832.9200 800.0200 831.9400L800.0200 831.9400Q801.2800 830.2600 802.0500 829.9100Q802.8200 829.5600 804.3600 829.5600L804.3600 829.5600L816.4000 829.5600Q817.8000 829.5600 818.7100 830.4000Q819.6200 831.2400 819.4800 832.5000L819.4800 832.5000Q819.3400 834.7400 817.1700 837.9600Q815.0000 841.1800 810.9400 844.2600Q806.8800 847.3400 800.7900 849.3700Q794.7000 851.4000 786.8600 851.4000ZM771.4600 806.8800L771.4600 807.3000L802.4000 807.3000L802.4000 806.8800Q802.4000 801.4200 800.5800 797.2900Q798.7600 793.1600 795.2600 790.8500Q791.7600 788.5400 786.8600 788.5400L786.8600 788.5400Q781.9600 788.5400 778.4600 790.8500Q774.9600 793.1600 773.2100 797.2900Q771.4600 801.4200 771.4600 806.8800L771.4600 806.8800ZM863.8600 851.4000L863.8600 851.4000Q855.4600 851.4000 849.5100 849.4400Q843.5600 847.4800 839.7800 844.5400Q836.0000 841.6000 834.1800 838.6600Q832.3600 835.7200 832.2200 833.7600L832.2200 833.7600Q832.0800 832.2200 833.1300 831.3100Q834.1800 830.4000 835.4400 830.4000L835.4400 830.4000L846.5000 830.4000Q847.0600 830.4000 847.4800 830.5400Q847.9000 830.6800 848.6000 831.3800L848.6000 831.3800Q850.4200 832.9200 852.4500 834.6000Q854.4800 836.2800 857.2800 837.4700Q860.0800 838.6600 864.2800 838.6600L864.2800 838.6600Q869.7400 838.6600 873.4500 836.4900Q877.1600 834.3200 877.1600 830.2600L877.1600 830.2600Q877.1600 827.3200 875.5500 825.5000Q873.9400 823.6800 869.6000 822.2100Q865.2600 820.7400 857.2800 819.0600L857.2800 819.0600Q849.4400 817.2400 844.2600 814.4400Q839.0800 811.6400 836.5600 807.4400Q834.0400 803.2400 834.0400 797.6400L834.0400 797.6400Q834.0400 792.1800 837.3300 787.2100Q840.6200 782.2400 847.1300 779.0200Q853.6400 775.8000 863.3000 775.8000L863.3000 775.8000Q870.8600 775.8000 876.4600 777.6900Q882.0600 779.5800 885.7700 782.3800Q889.4800 785.1800 891.4400 788.0500Q893.4000 790.9200 893.5400 793.0200L893.5400 793.0200Q893.6800 794.5600 892.7000 795.4700Q891.7200 796.3800 890.4600 796.3800L890.4600 796.3800L880.1000 796.3800Q879.4000 796.3800 878.8400 796.1000Q878.2800 795.8200 877.7200 795.4000L877.7200 795.4000Q876.1800 794 874.3600 792.3900Q872.5400 790.7800 869.9500 789.6600Q867.3600 788.5400 863.1600 788.5400L863.1600 788.5400Q857.8400 788.5400 855.0400 790.8500Q852.2400 793.1600 852.2400 796.6600L852.2400 796.6600Q852.2400 799.0400 853.5700 800.7900Q854.9000 802.5400 858.9600 804.0800Q863.0200 805.6200 871.2800 807.3000L871.2800 807.3000Q880.6600 808.9800 886.1900 812.2700Q891.7200 815.5600 894.0300 819.8300Q896.3400 824.1000 896.3400 829.2800L896.3400 829.2800Q896.3400 835.5800 892.6300 840.6200Q888.9200 845.6600 881.7100 848.5300Q874.5000 851.4000 863.8600 851.4000Z" id="title"/></g></svg>