<svg xmlns="http://www.w3.org/2000/svg" version="1.1" xmlns:xlink="http://www.w3.org/1999/xlink" xmlns:svgjs="http://svgjs.dev/svgjs" viewBox="0 0 1920 1080" id="3efc5044-67d2-438e-a540-305d878cc77d"><g><rect width="1920" height="1080" fill="#f7ebec"/></g><g fill="#ddbdd5"><path d="M969.5 217C561.465 217 231 547.465 231 955.5C231 1363.53 561.465 1694 969.5 1694C1377.53 1694 1708 1363.53 1708 955.5C1708 547.465 1377.53 217 969.5 217ZM969.5 1309.34C773.983 1309.34 615.658 1151.02 615.658 955.5C615.658 759.983 773.983 601.658 969.5 601.658C1165.02 601.658 1323.34 759.983 1323.34 955.5C1323.34 1151.02 1165.02 1309.34 969.5 1309.34Z"/></g><g fill="#ffffff" opacity="0.4"><path d="M1432 918.479L1616.48 734V918.479H1432Z"/><path d="M1616.48 918.479L1800.52 734V918.479H1616.48Z"/><path d="M1800.52 918.479L1985 734V918.479H1800.52Z"/><path d="M1432 1102.52L1616.48 918.479V1102.52H1432Z"/><path d="M1616.48 1102.52L1800.52 918.479V1102.52H1616.48Z"/><path d="M1800.52 1102.52L1985 918.479V1102.52H1800.52Z"/><path d="M499 154.521L683.479 -29.5215V154.521H499Z"/><path d="M683.479 154.521L867.521 -29.5215V154.521H683.479Z"/><path d="M867.521 154.521L1052 -29.5215V154.521H867.521Z"/><path d="M499 339L683.479 154.521V339H499Z"/><path d="M683.479 339L867.521 154.521V339H683.479Z"/><path d="M867.521 339L1052 154.521V339H867.521Z"/></g><g><path d="M178.635 139.281L184.422 144.246V166.626H215.704L219.958 172.147L215.69 177.397H184.422V198.795L178.635 203.747L173 198.795V144.232L178.635 139.281ZM195.554 195.68H219.406L223.397 200.915L219.143 206.45H195.554L191.7 201.342L195.554 195.68ZM196.382 138H219.129L223.383 143.52L219.129 148.77H196.659L192.115 143.677L196.382 138ZM323.155 148.628L328.251 154.291L323.155 159.968H246.13L241.172 154.291L246.13 148.628H323.155ZM237.043 172.147L241.849 167.893L246.669 172.147V178.393C246.669 188.879 249.417 197.515 261.668 197.515H264.14C275.147 197.515 281.197 189.86 281.197 177.952V172.005L285.879 167.75L290.699 171.862V178.379C290.699 189.007 293.723 196.946 305.56 196.946H307.618C319.178 196.946 321.235 187.869 321.373 177.952V171.578L326.056 167.608L331 171.72V178.094C330.862 191.838 327.285 207.574 308.032 207.574H305.974C294.552 207.574 288.365 202.324 285.892 195.808C283.006 202.466 275.299 208.286 264.844 208.286H262.358C242.553 208.286 237.194 195.964 237.056 178.663V172.147H237.043ZM276.391 274.744L273.642 267.089L280.796 264.969L305.974 276.721V252.491L311.07 248.095L316.291 252.491V281.829L325.641 286.226L328.251 293.311L320.959 296L276.391 274.744ZM321.235 223.011L328.113 226.27L325.917 233.497L264.002 263.119L256.571 260.146L259.596 252.776L321.235 223.011ZM231.905 263.404L237.954 268.512C237.402 286.51 222.403 296 204.669 296H202.874C194.062 296 183.759 292.6 177.157 286.083L177.834 278.855L184.298 278.002C189.118 282.256 195.858 285.229 202.183 285.229H204.117C216.091 285.229 225.303 280.136 226.27 268.085L231.905 263.404ZM226.256 251.638C225.704 239.16 216.629 234.209 204.103 234.209H202.169C194.739 234.209 189.104 237.182 184.284 241.436L177.834 240.583L177.143 233.355C183.745 226.696 192.957 223.58 202.597 223.58H204.517C222.403 223.58 237.402 232.942 237.94 251.211L231.891 256.176L226.256 251.638Z" fill="#000000"/></g><g fill="#000000" id="info-group"><path d="M167.0800 430L154.9000 430Q153.7800 430 152.8700 429.1600Q151.9600 428.3200 151.9600 427.0600L151.9600 427.0600Q151.9600 426.5000 152.2400 425.8000L152.2400 425.8000L185.9800 335.5000Q186.4000 334.1000 187.5900 333.0500Q188.7800 332 190.8800 332L190.8800 332L206.1400 332Q208.2400 332 209.3600 333.0500Q210.4800 334.1000 211.0400 335.5000L211.0400 335.5000L244.7800 425.8000Q244.9200 426.5000 244.9200 427.0600L244.9200 427.0600Q244.9200 428.3200 244.0800 429.1600Q243.2400 430 242.1200 430L242.1200 430L229.9400 430Q227.9800 430 227.0700 429.0900Q226.1600 428.1800 225.8800 427.3400L225.8800 427.3400L219.3000 410.2600L177.7200 410.2600L171.1400 427.3400Q170.8600 428.1800 169.9500 429.0900Q169.0400 430 167.0800 430L167.0800 430ZM198.4400 350.9000L182.6200 394.1600L214.4000 394.1600L198.4400 350.9000ZM283.2800 431.4000L283.2800 431.4000Q274.7400 431.4000 268.5100 427.5500Q262.2800 423.7000 258.9200 416.6300Q255.5600 409.5600 255.5600 399.9000L255.5600 399.9000L255.5600 360.5600Q255.5600 359.1600 256.5400 358.1800Q257.5200 357.2000 258.9200 357.2000L258.9200 357.2000L271.2400 357.2000Q272.7800 357.2000 273.6900 358.1800Q274.6000 359.1600 274.6000 360.5600L274.6000 360.5600L274.6000 399.0600Q274.6000 416.4200 289.8600 416.4200L289.8600 416.4200Q297.1400 416.4200 301.4100 411.8000Q305.6800 407.1800 305.6800 399.0600L305.6800 399.0600L305.6800 360.5600Q305.6800 359.1600 306.6600 358.1800Q307.6400 357.2000 309.0400 357.2000L309.0400 357.2000L321.3600 357.2000Q322.7600 357.2000 323.7400 358.1800Q324.7200 359.1600 324.7200 360.5600L324.7200 360.5600L324.7200 426.6400Q324.7200 428.0400 323.7400 429.0200Q322.7600 430 321.3600 430L321.3600 430L310.0200 430Q308.4800 430 307.5700 429.0200Q306.6600 428.0400 306.6600 426.6400L306.6600 426.6400L306.6600 420.9000Q302.8800 425.8000 297.2800 428.6000Q291.6800 431.4000 283.2800 431.4000ZM358.3200 430L346.7000 430Q345.3000 430 344.3200 429.0200Q343.3400 428.0400 343.3400 426.6400L343.3400 426.6400L343.3400 333.9600Q343.3400 332.5600 344.3200 331.5800Q345.3000 330.6000 346.7000 330.6000L346.7000 330.6000L358.3200 330.6000Q359.7200 330.6000 360.7000 331.5800Q361.6800 332.5600 361.6800 333.9600L361.6800 333.9600L361.6800 426.6400Q361.6800 428.0400 360.7000 429.0200Q359.7200 430 358.3200 430L358.3200 430ZM401.4400 431.4000L401.4400 431.4000Q394.1600 431.4000 388.2800 428.5300Q382.4000 425.6600 378.9700 420.8300Q375.5400 416 375.5400 409.9800L375.5400 409.9800Q375.5400 400.1800 383.5200 394.3700Q391.5000 388.5600 404.3800 386.6000L404.3800 386.6000L423.5600 383.8000L423.5600 380.8600Q423.5600 374.9800 420.6200 371.7600Q417.6800 368.5400 410.5400 368.5400L410.5400 368.5400Q405.5000 368.5400 402.3500 370.5700Q399.2000 372.6000 397.6600 375.9600L397.6600 375.9600Q396.5400 377.7800 394.4400 377.7800L394.4400 377.7800L383.3800 377.7800Q381.8400 377.7800 381.0700 376.9400Q380.3000 376.1000 380.3000 374.7000L380.3000 374.7000Q380.4400 372.4600 382.1900 369.2400Q383.9400 366.0200 387.5100 363.0100Q391.0800 360 396.8200 357.9000Q402.5600 355.8000 410.6800 355.8000L410.6800 355.8000Q419.5000 355.8000 425.5900 357.9700Q431.6800 360.1400 435.3200 363.7800Q438.9600 367.4200 440.6400 372.3200Q442.3200 377.2200 442.3200 382.6800L442.3200 382.6800L442.3200 426.6400Q442.3200 428.0400 441.3400 429.0200Q440.3600 430 438.9600 430L438.9600 430L427.6200 430Q426.0800 430 425.1700 429.0200Q424.2600 428.0400 424.2600 426.6400L424.2600 426.6400L424.2600 421.1800Q422.4400 423.7000 419.3600 426.0800Q416.2800 428.4600 411.8700 429.9300Q407.4600 431.4000 401.4400 431.4000ZM406.2000 418.1000L406.2000 418.1000Q411.1000 418.1000 415.0900 416Q419.0800 413.9000 421.3900 409.4900Q423.7000 405.0800 423.7000 398.3600L423.7000 398.3600L423.7000 395.4200L409.7000 397.6600Q401.4400 398.9200 397.3800 401.7200Q393.3200 404.5200 393.3200 408.5800L393.3200 408.5800Q393.3200 411.6600 395.2100 413.8300Q397.1000 416 400.0400 417.0500Q402.9800 418.1000 406.2000 418.1000ZM525.9000 431.5400L525.9000 431.5400Q513.8600 431.5400 505.6000 427.5500Q497.3400 423.5600 493.0700 417.1200Q488.8000 410.6800 488.5200 403.4000L488.5200 403.4000Q488.3800 402.1400 489.2900 401.3700Q490.2000 400.6000 491.4600 400.6000L491.4600 400.6000L504.4800 400.6000Q506.0200 400.6000 507.0700 401.2300Q508.1200 401.8600 508.6800 403.4000L508.6800 403.4000Q510.0800 407.6000 512.6700 410.2600Q515.2600 412.9200 518.6900 414.1800Q522.1200 415.4400 525.9000 415.4400L525.9000 415.4400Q530.9400 415.4400 535.0700 413.4100Q539.2000 411.3800 541.7200 407.3200Q544.2400 403.2600 544.2400 397.3800L544.2400 397.3800Q544.2400 392.2000 541.8600 388.4200Q539.4800 384.6400 535.3500 382.4700Q531.2200 380.3000 525.9000 380.3000L525.9000 380.3000Q521.9800 380.3000 519.4600 381.2800Q516.9400 382.2600 515.1900 383.5200Q513.4400 384.7800 512.1100 385.7600Q510.7800 386.7400 509.1000 386.7400L509.1000 386.7400L496.2200 386.7400Q494.9600 386.7400 494.0500 385.8300Q493.1400 384.9200 493.1400 383.6600L493.1400 383.6600L498.0400 335.7800Q498.1800 333.9600 499.3000 332.9800Q500.4200 332 501.9600 332L501.9600 332L554.6000 332Q556.0000 332 556.9800 332.9800Q557.9600 333.9600 557.9600 335.3600L557.9600 335.3600L557.9600 344.7400Q557.9600 346.1400 556.9800 347.1200Q556.0000 348.1000 554.6000 348.1000L554.6000 348.1000L514.1400 348.1000L511.9000 370.9200Q514.4200 369.2400 518.6200 367.7000Q522.8200 366.1600 530.2400 366.1600L530.2400 366.1600Q536.9600 366.1600 543.0500 368.3300Q549.1400 370.5000 553.9000 374.6300Q558.6600 378.7600 561.3900 384.5700Q564.1200 390.3800 564.1200 397.8000L564.1200 397.8000Q564.1200 408.0200 559.3600 415.5800Q554.6000 423.1400 546.0600 427.3400Q537.5200 431.5400 525.9000 431.5400ZM595.9000 381L582.0400 381Q580.6400 381 579.6600 380.0200Q578.6800 379.0400 578.6800 377.6400L578.6800 377.6400L578.6800 364.3400Q578.6800 362.8000 579.6600 361.8200Q580.6400 360.8400 582.0400 360.8400L582.0400 360.8400L595.9000 360.8400Q597.4400 360.8400 598.4200 361.8200Q599.4000 362.8000 599.4000 364.3400L599.4000 364.3400L599.4000 377.6400Q599.4000 379.0400 598.4200 380.0200Q597.4400 381 595.9000 381L595.9000 381ZM595.9000 430L582.0400 430Q580.6400 430 579.6600 429.0200Q578.6800 428.0400 578.6800 426.6400L578.6800 426.6400L578.6800 413.3400Q578.6800 411.8000 579.6600 410.8200Q580.6400 409.8400 582.0400 409.8400L582.0400 409.8400L595.9000 409.8400Q597.4400 409.8400 598.4200 410.8200Q599.4000 411.8000 599.4000 413.3400L599.4000 413.3400L599.4000 426.6400Q599.4000 428.0400 598.4200 429.0200Q597.4400 430 595.9000 430L595.9000 430ZM689.4200 430L654.5600 430Q653.1600 430 652.1800 429.0200Q651.2000 428.0400 651.2000 426.6400L651.2000 426.6400L651.2000 335.5000Q651.2000 333.9600 652.1800 332.9800Q653.1600 332 654.5600 332L654.5600 332L688.7200 332Q702.8600 332 712.0300 336.3400Q721.2000 340.6800 725.8900 349.2200Q730.5800 357.7600 730.7200 370.0800L730.7200 370.0800Q731.0000 376.2400 731.0000 381Q731.0000 385.7600 730.7200 391.7800L730.7200 391.7800Q730.4400 404.8000 725.9600 413.2700Q721.4800 421.7400 712.4500 425.8700Q703.4200 430 689.4200 430L689.4200 430ZM670.6600 348.1000L670.6600 413.9000L688.7200 413.9000Q696.5600 413.9000 701.4600 411.6600Q706.3600 409.4200 708.6700 404.4500Q710.9800 399.4800 711.1200 391.3600L711.1200 391.3600Q711.2600 387.1600 711.3300 384.0100Q711.4000 380.8600 711.3300 377.7100Q711.2600 374.5600 711.1200 370.5000L711.1200 370.5000Q710.8400 359.0200 705.3800 353.5600Q699.9200 348.1000 688.0200 348.1000L688.0200 348.1000L670.6600 348.1000ZM779.3000 431.4000L779.3000 431.4000Q763.7600 431.4000 754.6600 422.4400Q745.5600 413.4800 744.8600 396.9600L744.8600 396.9600Q744.7200 395.5600 744.7200 393.3900Q744.7200 391.2200 744.8600 389.9600L744.8600 389.9600Q745.4200 379.3200 749.6900 371.6900Q753.9600 364.0600 761.5200 359.9300Q769.0800 355.8000 779.3000 355.8000L779.3000 355.8000Q790.6400 355.8000 798.3400 360.4900Q806.0400 365.1800 809.9600 373.5100Q813.8800 381.8400 813.8800 392.7600L813.8800 392.7600L813.8800 395.7000Q813.8800 397.1000 812.9000 398.0800Q811.9200 399.0600 810.3800 399.0600L810.3800 399.0600L763.9000 399.0600Q763.9000 399.0600 763.9000 399.4800Q763.9000 399.9000 763.9000 400.1800L763.9000 400.1800Q764.0400 405.0800 765.7900 409.2100Q767.5400 413.3400 770.9700 415.8600Q774.4000 418.3800 779.1600 418.3800L779.1600 418.3800Q783.0800 418.3800 785.7400 417.1900Q788.4000 416 790.0800 414.4600Q791.7600 412.9200 792.4600 411.9400L792.4600 411.9400Q793.7200 410.2600 794.4900 409.9100Q795.2600 409.5600 796.8000 409.5600L796.8000 409.5600L808.8400 409.5600Q810.2400 409.5600 811.1500 410.4000Q812.0600 411.2400 811.9200 412.5000L811.9200 412.5000Q811.7800 414.7400 809.6100 417.9600Q807.4400 421.1800 803.3800 424.2600Q799.3200 427.3400 793.2300 429.3700Q787.1400 431.4000 779.3000 431.4000ZM763.9000 386.8800L763.9000 387.3000L794.8400 387.3000L794.8400 386.8800Q794.8400 381.4200 793.0200 377.2900Q791.2000 373.1600 787.7000 370.8500Q784.2000 368.5400 779.3000 368.5400L779.3000 368.5400Q774.4000 368.5400 770.9000 370.8500Q767.4000 373.1600 765.6500 377.2900Q763.9000 381.4200 763.9000 386.8800L763.9000 386.8800ZM851.4000 430L839.9200 430Q838.5200 430 837.5400 429.0200Q836.5600 428.0400 836.5600 426.6400L836.5600 426.6400L836.5600 372.0400L825.2200 372.0400Q823.8200 372.0400 822.8400 371.0600Q821.8600 370.0800 821.8600 368.5400L821.8600 368.5400L821.8600 360.5600Q821.8600 359.1600 822.8400 358.1800Q823.8200 357.2000 825.2200 357.2000L825.2200 357.2000L836.5600 357.2000L836.5600 351.4600Q836.5600 343.0600 839.6400 337.5300Q842.7200 332 848.7400 329.2000Q854.7600 326.4000 864.0000 326.4000L864.0000 326.4000L873.5200 326.4000Q875.0600 326.4000 875.9700 327.3800Q876.8800 328.3600 876.8800 329.7600L876.8800 329.7600L876.8800 337.7400Q876.8800 339.2800 875.9700 340.2600Q875.0600 341.2400 873.5200 341.2400L873.5200 341.2400L864.5600 341.2400Q858.9600 341.2400 856.8600 344.0400Q854.7600 346.8400 854.7600 352.1600L854.7600 352.1600L854.7600 357.2000L872.1200 357.2000Q873.6600 357.2000 874.5700 358.1800Q875.4800 359.1600 875.4800 360.5600L875.4800 360.5600L875.4800 368.5400Q875.4800 370.0800 874.5700 371.0600Q873.6600 372.0400 872.1200 372.0400L872.1200 372.0400L854.7600 372.0400L854.7600 426.6400Q854.7600 428.0400 853.7800 429.0200Q852.8000 430 851.4000 430L851.4000 430ZM901.6600 430L890.0400 430Q888.6400 430 887.6600 429.0200Q886.6800 428.0400 886.6800 426.6400L886.6800 426.6400L886.6800 360.5600Q886.6800 359.1600 887.6600 358.1800Q888.6400 357.2000 890.0400 357.2000L890.0400 357.2000L901.6600 357.2000Q903.2000 357.2000 904.1100 358.1800Q905.0200 359.1600 905.0200 360.5600L905.0200 360.5600L905.0200 426.6400Q905.0200 428.0400 904.1100 429.0200Q903.2000 430 901.6600 430L901.6600 430ZM902.2200 345.1600L889.4800 345.1600Q888.0800 345.1600 887.1000 344.1800Q886.1200 343.2000 886.1200 341.8000L886.1200 341.8000L886.1200 331.7200Q886.1200 330.3200 887.1000 329.3400Q888.0800 328.3600 889.4800 328.3600L889.4800 328.3600L902.2200 328.3600Q903.7600 328.3600 904.7400 329.3400Q905.7200 330.3200 905.7200 331.7200L905.7200 331.7200L905.7200 341.8000Q905.7200 343.2000 904.7400 344.1800Q903.7600 345.1600 902.2200 345.1600L902.2200 345.1600ZM939.3200 430L927.0000 430Q925.6000 430 924.6200 429.0200Q923.6400 428.0400 923.6400 426.6400L923.6400 426.6400L923.6400 360.5600Q923.6400 359.1600 924.6200 358.1800Q925.6000 357.2000 927.0000 357.2000L927.0000 357.2000L938.4800 357.2000Q939.8800 357.2000 940.8600 358.1800Q941.8400 359.1600 941.8400 360.5600L941.8400 360.5600L941.8400 366.3000Q945.4800 361.8200 951.1500 358.8100Q956.8200 355.8000 965.2200 355.8000L965.2200 355.8000Q973.7600 355.8000 980.0600 359.6500Q986.3600 363.5000 989.7900 370.5000Q993.2200 377.5000 993.2200 387.3000L993.2200 387.3000L993.2200 426.6400Q993.2200 428.0400 992.2400 429.0200Q991.2600 430 989.8600 430L989.8600 430L977.5400 430Q976.1400 430 975.1600 429.0200Q974.1800 428.0400 974.1800 426.6400L974.1800 426.6400L974.1800 388.1400Q974.1800 380.0200 970.1900 375.4000Q966.2000 370.7800 958.6400 370.7800L958.6400 370.7800Q951.3600 370.7800 947.0200 375.4000Q942.6800 380.0200 942.6800 388.1400L942.6800 388.1400L942.6800 426.6400Q942.6800 428.0400 941.7000 429.0200Q940.7200 430 939.3200 430L939.3200 430ZM1025.9800 430L1014.3600 430Q1012.9600 430 1011.9800 429.0200Q1011.0000 428.0400 1011.0000 426.6400L1011.0000 426.6400L1011.0000 360.5600Q1011.0000 359.1600 1011.9800 358.1800Q1012.9600 357.2000 1014.3600 357.2000L1014.3600 357.2000L1025.9800 357.2000Q1027.5200 357.2000 1028.4300 358.1800Q1029.3400 359.1600 1029.3400 360.5600L1029.3400 360.5600L1029.3400 426.6400Q1029.3400 428.0400 1028.4300 429.0200Q1027.5200 430 1025.9800 430L1025.9800 430ZM1026.5400 345.1600L1013.8000 345.1600Q1012.4000 345.1600 1011.4200 344.1800Q1010.4400 343.2000 1010.4400 341.8000L1010.4400 341.8000L1010.4400 331.7200Q1010.4400 330.3200 1011.4200 329.3400Q1012.4000 328.3600 1013.8000 328.3600L1013.8000 328.3600L1026.5400 328.3600Q1028.0800 328.3600 1029.0600 329.3400Q1030.0400 330.3200 1030.0400 331.7200L1030.0400 331.7200L1030.0400 341.8000Q1030.0400 343.2000 1029.0600 344.1800Q1028.0800 345.1600 1026.5400 345.1600L1026.5400 345.1600ZM1063.6400 430L1051.3200 430Q1049.9200 430 1048.9400 429.0200Q1047.9600 428.0400 1047.9600 426.6400L1047.9600 426.6400L1047.9600 360.5600Q1047.9600 359.1600 1048.9400 358.1800Q1049.9200 357.2000 1051.3200 357.2000L1051.3200 357.2000L1062.8000 357.2000Q1064.2000 357.2000 1065.1800 358.1800Q1066.1600 359.1600 1066.1600 360.5600L1066.1600 360.5600L1066.1600 366.3000Q1069.8000 361.8200 1075.4700 358.8100Q1081.1400 355.8000 1089.5400 355.8000L1089.5400 355.8000Q1098.0800 355.8000 1104.3800 359.6500Q1110.6800 363.5000 1114.1100 370.5000Q1117.5400 377.5000 1117.5400 387.3000L1117.5400 387.3000L1117.5400 426.6400Q1117.5400 428.0400 1116.5600 429.0200Q1115.5800 430 1114.1800 430L1114.1800 430L1101.8600 430Q1100.4600 430 1099.4800 429.0200Q1098.5000 428.0400 1098.5000 426.6400L1098.5000 426.6400L1098.5000 388.1400Q1098.5000 380.0200 1094.5100 375.4000Q1090.5200 370.7800 1082.9600 370.7800L1082.9600 370.7800Q1075.6800 370.7800 1071.3400 375.4000Q1067.0000 380.0200 1067.0000 388.1400L1067.0000 388.1400L1067.0000 426.6400Q1067.0000 428.0400 1066.0200 429.0200Q1065.0400 430 1063.6400 430L1063.6400 430ZM1167.5200 431.4000L1167.5200 431.4000Q1156.3200 431.4000 1148.6900 427.4800Q1141.0600 423.5600 1137.0700 416.4200Q1133.0800 409.2800 1132.5200 399.7600L1132.5200 399.7600Q1132.3800 397.2400 1132.3800 393.6000Q1132.3800 389.9600 1132.5200 387.4400L1132.5200 387.4400Q1133.0800 377.7800 1137.2100 370.7100Q1141.3400 363.6400 1148.9700 359.7200Q1156.6000 355.8000 1167.5200 355.8000L1167.5200 355.8000Q1178.4400 355.8000 1186.0700 359.7200Q1193.7000 363.6400 1197.8300 370.7100Q1201.9600 377.7800 1202.5200 387.4400L1202.5200 387.4400Q1202.6600 389.9600 1202.6600 393.6000Q1202.6600 397.2400 1202.5200 399.7600L1202.5200 399.7600Q1201.9600 409.2800 1197.9700 416.4200Q1193.9800 423.5600 1186.3500 427.4800Q1178.7200 431.4000 1167.5200 431.4000ZM1167.5200 417.5400L1167.5200 417.5400Q1174.9400 417.5400 1179.0000 412.8500Q1183.0600 408.1600 1183.4800 399.0600L1183.4800 399.0600Q1183.6200 396.9600 1183.6200 393.6000Q1183.6200 390.2400 1183.4800 388.1400L1183.4800 388.1400Q1183.0600 379.0400 1179.0000 374.3500Q1174.9400 369.6600 1167.5200 369.6600L1167.5200 369.6600Q1160.1000 369.6600 1156.0400 374.3500Q1151.9800 379.0400 1151.5600 388.1400L1151.5600 388.1400Q1151.4200 390.2400 1151.4200 393.6000Q1151.4200 396.9600 1151.5600 399.0600L1151.5600 399.0600Q1151.9800 408.1600 1156.0400 412.8500Q1160.1000 417.5400 1167.5200 417.5400ZM190.7400 571.4000L190.7400 571.4000Q180.6600 571.4000 173.0300 567.6200Q165.4000 563.8400 161.1300 556.6300Q156.8600 549.4200 156.4400 539.2000L156.4400 539.2000Q156.3000 537.1000 156.3000 533.6700Q156.3000 530.2400 156.4400 528L156.4400 528Q156.8600 517.7800 161.1300 510.5700Q165.4000 503.3600 173.0300 499.5800Q180.6600 495.8000 190.7400 495.8000L190.7400 495.8000Q199.7000 495.8000 206 498.2500Q212.3000 500.7000 216.3600 504.5500Q220.4200 508.4000 222.4500 512.5300Q224.4800 516.6600 224.6200 520.0200L224.6200 520.0200Q224.7600 521.5600 223.7100 522.4700Q222.6600 523.3800 221.2600 523.3800L221.2600 523.3800L208.9400 523.3800Q207.5400 523.3800 206.7700 522.6800Q206 521.9800 205.3000 520.5800L205.3000 520.5800Q203.2000 514.9800 199.7700 512.6700Q196.3400 510.3600 191.0200 510.3600L191.0200 510.3600Q184.0200 510.3600 179.8900 514.7700Q175.7600 519.1800 175.4800 528.7000L175.4800 528.7000Q175.2000 534.0200 175.4800 538.5000L175.4800 538.5000Q175.7600 548.1600 179.8900 552.5000Q184.0200 556.8400 191.0200 556.8400L191.0200 556.8400Q196.4800 556.8400 199.8400 554.5300Q203.2000 552.2200 205.3000 546.6200L205.3000 546.6200Q206 545.2200 206.7700 544.5200Q207.5400 543.8200 208.9400 543.8200L208.9400 543.8200L221.2600 543.8200Q222.6600 543.8200 223.7100 544.7300Q224.7600 545.6400 224.6200 547.1800L224.6200 547.1800Q224.4800 549.7000 223.2900 552.8500Q222.1000 556 219.5100 559.2900Q216.9200 562.5800 213 565.3100Q209.0800 568.0400 203.5500 569.7200Q198.0200 571.4000 190.7400 571.4000ZM271.3800 571.4000L271.3800 571.4000Q260.1800 571.4000 252.5500 567.4800Q244.9200 563.5600 240.9300 556.4200Q236.9400 549.2800 236.3800 539.7600L236.3800 539.7600Q236.2400 537.2400 236.2400 533.6000Q236.2400 529.9600 236.3800 527.4400L236.3800 527.4400Q236.9400 517.7800 241.0700 510.7100Q245.2000 503.6400 252.8300 499.7200Q260.4600 495.8000 271.3800 495.8000L271.3800 495.8000Q282.3000 495.8000 289.9300 499.7200Q297.5600 503.6400 301.6900 510.7100Q305.8200 517.7800 306.3800 527.4400L306.3800 527.4400Q306.5200 529.9600 306.5200 533.6000Q306.5200 537.2400 306.3800 539.7600L306.3800 539.7600Q305.8200 549.2800 301.8300 556.4200Q297.8400 563.5600 290.2100 567.4800Q282.5800 571.4000 271.3800 571.4000ZM271.3800 557.5400L271.3800 557.5400Q278.8000 557.5400 282.8600 552.8500Q286.9200 548.1600 287.3400 539.0600L287.3400 539.0600Q287.4800 536.9600 287.4800 533.6000Q287.4800 530.2400 287.3400 528.1400L287.3400 528.1400Q286.9200 519.0400 282.8600 514.3500Q278.8000 509.6600 271.3800 509.6600L271.3800 509.6600Q263.9600 509.6600 259.9000 514.3500Q255.8400 519.0400 255.4200 528.1400L255.4200 528.1400Q255.2800 530.2400 255.2800 533.6000Q255.2800 536.9600 255.4200 539.0600L255.4200 539.0600Q255.8400 548.1600 259.9000 552.8500Q263.9600 557.5400 271.3800 557.5400ZM337.1800 570L325.5600 570Q324.1600 570 323.1800 569.0200Q322.2000 568.0400 322.2000 566.6400L322.2000 566.6400L322.2000 473.9600Q322.2000 472.5600 323.1800 471.5800Q324.1600 470.6000 325.5600 470.6000L325.5600 470.6000L337.1800 470.6000Q338.5800 470.6000 339.5600 471.5800Q340.5400 472.5600 340.5400 473.9600L340.5400 473.9600L340.5400 566.6400Q340.5400 568.0400 339.5600 569.0200Q338.5800 570 337.1800 570L337.1800 570ZM386.1800 571.4000L386.1800 571.4000Q377.6400 571.4000 371.4100 567.5500Q365.1800 563.7000 361.8200 556.6300Q358.4600 549.5600 358.4600 539.9000L358.4600 539.9000L358.4600 500.5600Q358.4600 499.1600 359.4400 498.1800Q360.4200 497.2000 361.8200 497.2000L361.8200 497.2000L374.1400 497.2000Q375.6800 497.2000 376.5900 498.1800Q377.5000 499.1600 377.5000 500.5600L377.5000 500.5600L377.5000 539.0600Q377.5000 556.4200 392.7600 556.4200L392.7600 556.4200Q400.0400 556.4200 404.3100 551.8000Q408.5800 547.1800 408.5800 539.0600L408.5800 539.0600L408.5800 500.5600Q408.5800 499.1600 409.5600 498.1800Q410.5400 497.2000 411.9400 497.2000L411.9400 497.2000L424.2600 497.2000Q425.6600 497.2000 426.6400 498.1800Q427.6200 499.1600 427.6200 500.5600L427.6200 500.5600L427.6200 566.6400Q427.6200 568.0400 426.6400 569.0200Q425.6600 570 424.2600 570L424.2600 570L412.9200 570Q411.3800 570 410.4700 569.0200Q409.5600 568.0400 409.5600 566.6400L409.5600 566.6400L409.5600 560.9000Q405.7800 565.8000 400.1800 568.6000Q394.5800 571.4000 386.1800 571.4000ZM461.7800 570L449.4600 570Q448.0600 570 447.0800 569.0200Q446.1000 568.0400 446.1000 566.6400L446.1000 566.6400L446.1000 500.5600Q446.1000 499.1600 447.0800 498.1800Q448.0600 497.2000 449.4600 497.2000L449.4600 497.2000L460.9400 497.2000Q462.3400 497.2000 463.3200 498.1800Q464.3000 499.1600 464.3000 500.5600L464.3000 500.5600L464.3000 506.3000Q467.9400 501.8200 473.6100 498.8100Q479.2800 495.8000 487.6800 495.8000L487.6800 495.8000Q496.2200 495.8000 502.5200 499.6500Q508.8200 503.5000 512.2500 510.5000Q515.6800 517.5000 515.6800 527.3000L515.6800 527.3000L515.6800 566.6400Q515.6800 568.0400 514.7000 569.0200Q513.7200 570 512.3200 570L512.3200 570L500 570Q498.6000 570 497.6200 569.0200Q496.6400 568.0400 496.6400 566.6400L496.6400 566.6400L496.6400 528.1400Q496.6400 520.0200 492.6500 515.4000Q488.6600 510.7800 481.1000 510.7800L481.1000 510.7800Q473.8200 510.7800 469.4800 515.4000Q465.1400 520.0200 465.1400 528.1400L465.1400 528.1400L465.1400 566.6400Q465.1400 568.0400 464.1600 569.0200Q463.1800 570 461.7800 570L461.7800 570ZM554.6000 571.4000L554.6000 571.4000Q547.3200 571.4000 541.4400 568.5300Q535.5600 565.6600 532.1300 560.8300Q528.7000 556 528.7000 549.9800L528.7000 549.9800Q528.7000 540.1800 536.6800 534.3700Q544.6600 528.5600 557.5400 526.6000L557.5400 526.6000L576.7200 523.8000L576.7200 520.8600Q576.7200 514.9800 573.7800 511.7600Q570.8400 508.5400 563.7000 508.5400L563.7000 508.5400Q558.6600 508.5400 555.5100 510.5700Q552.3600 512.6000 550.8200 515.9600L550.8200 515.9600Q549.7000 517.7800 547.6000 517.7800L547.6000 517.7800L536.5400 517.7800Q535 517.7800 534.2300 516.9400Q533.4600 516.1000 533.4600 514.7000L533.4600 514.7000Q533.6000 512.4600 535.3500 509.2400Q537.1000 506.0200 540.6700 503.0100Q544.2400 500 549.9800 497.9000Q555.7200 495.8000 563.8400 495.8000L563.8400 495.8000Q572.6600 495.8000 578.7500 497.9700Q584.8400 500.1400 588.4800 503.7800Q592.1200 507.4200 593.8000 512.3200Q595.4800 517.2200 595.4800 522.6800L595.4800 522.6800L595.4800 566.6400Q595.4800 568.0400 594.5000 569.0200Q593.5200 570 592.1200 570L592.1200 570L580.7800 570Q579.2400 570 578.3300 569.0200Q577.4200 568.0400 577.4200 566.6400L577.4200 566.6400L577.4200 561.1800Q575.6000 563.7000 572.5200 566.0800Q569.4400 568.4600 565.0300 569.9300Q560.6200 571.4000 554.6000 571.4000ZM559.3600 558.1000L559.3600 558.1000Q564.2600 558.1000 568.2500 556Q572.2400 553.9000 574.5500 549.4900Q576.8600 545.0800 576.8600 538.3600L576.8600 538.3600L576.8600 535.4200L562.8600 537.6600Q554.6000 538.9200 550.5400 541.7200Q546.4800 544.5200 546.4800 548.5800L546.4800 548.5800Q546.4800 551.6600 548.3700 553.8300Q550.2600 556 553.2000 557.0500Q556.1400 558.1000 559.3600 558.1000ZM640.9800 571.4000L640.9800 571.4000Q632.5800 571.4000 626.6300 569.4400Q620.6800 567.4800 616.9000 564.5400Q613.1200 561.6000 611.3000 558.6600Q609.4800 555.7200 609.3400 553.7600L609.3400 553.7600Q609.2000 552.2200 610.2500 551.3100Q611.3000 550.4000 612.5600 550.4000L612.5600 550.4000L623.6200 550.4000Q624.1800 550.4000 624.6000 550.5400Q625.0200 550.6800 625.7200 551.3800L625.7200 551.3800Q627.5400 552.9200 629.5700 554.6000Q631.6000 556.2800 634.4000 557.4700Q637.2000 558.6600 641.4000 558.6600L641.4000 558.6600Q646.8600 558.6600 650.5700 556.4900Q654.2800 554.3200 654.2800 550.2600L654.2800 550.2600Q654.2800 547.3200 652.6700 545.5000Q651.0600 543.6800 646.7200 542.2100Q642.3800 540.7400 634.4000 539.0600L634.4000 539.0600Q626.5600 537.2400 621.3800 534.4400Q616.2000 531.6400 613.6800 527.4400Q611.1600 523.2400 611.1600 517.6400L611.1600 517.6400Q611.1600 512.1800 614.4500 507.2100Q617.7400 502.2400 624.2500 499.0200Q630.7600 495.8000 640.4200 495.8000L640.4200 495.8000Q647.9800 495.8000 653.5800 497.6900Q659.1800 499.5800 662.8900 502.3800Q666.6000 505.1800 668.5600 508.0500Q670.5200 510.9200 670.6600 513.0200L670.6600 513.0200Q670.8000 514.5600 669.8200 515.4700Q668.8400 516.3800 667.5800 516.3800L667.5800 516.3800L657.2200 516.3800Q656.5200 516.3800 655.9600 516.1000Q655.4000 515.8200 654.8400 515.4000L654.8400 515.4000Q653.3000 514 651.4800 512.3900Q649.6600 510.7800 647.0700 509.6600Q644.4800 508.5400 640.2800 508.5400L640.2800 508.5400Q634.9600 508.5400 632.1600 510.8500Q629.3600 513.1600 629.3600 516.6600L629.3600 516.6600Q629.3600 519.0400 630.6900 520.7900Q632.0200 522.5400 636.0800 524.0800Q640.1400 525.6200 648.4000 527.3000L648.4000 527.3000Q657.7800 528.9800 663.3100 532.2700Q668.8400 535.5600 671.1500 539.8300Q673.4600 544.1000 673.4600 549.2800L673.4600 549.2800Q673.4600 555.5800 669.7500 560.6200Q666.0400 565.6600 658.8300 568.5300Q651.6200 571.4000 640.9800 571.4000ZM751.4400 571.4000L751.4400 571.4000Q741.3600 571.4000 733.7300 567.6200Q726.1000 563.8400 721.8300 556.6300Q717.5600 549.4200 717.1400 539.2000L717.1400 539.2000Q717 537.1000 717 533.6700Q717 530.2400 717.1400 528L717.1400 528Q717.5600 517.7800 721.8300 510.5700Q726.1000 503.3600 733.7300 499.5800Q741.3600 495.8000 751.4400 495.8000L751.4400 495.8000Q760.4000 495.8000 766.7000 498.2500Q773 500.7000 777.0600 504.5500Q781.1200 508.4000 783.1500 512.5300Q785.1800 516.6600 785.3200 520.0200L785.3200 520.0200Q785.4600 521.5600 784.4100 522.4700Q783.3600 523.3800 781.9600 523.3800L781.9600 523.3800L769.6400 523.3800Q768.2400 523.3800 767.4700 522.6800Q766.7000 521.9800 766 520.5800L766 520.5800Q763.9000 514.9800 760.4700 512.6700Q757.0400 510.3600 751.7200 510.3600L751.7200 510.3600Q744.7200 510.3600 740.5900 514.7700Q736.4600 519.1800 736.1800 528.7000L736.1800 528.7000Q735.9000 534.0200 736.1800 538.5000L736.1800 538.5000Q736.4600 548.1600 740.5900 552.5000Q744.7200 556.8400 751.7200 556.8400L751.7200 556.8400Q757.1800 556.8400 760.5400 554.5300Q763.9000 552.2200 766 546.6200L766 546.6200Q766.7000 545.2200 767.4700 544.5200Q768.2400 543.8200 769.6400 543.8200L769.6400 543.8200L781.9600 543.8200Q783.3600 543.8200 784.4100 544.7300Q785.4600 545.6400 785.3200 547.1800L785.3200 547.1800Q785.1800 549.7000 783.9900 552.8500Q782.8000 556 780.2100 559.2900Q777.6200 562.5800 773.7000 565.3100Q769.7800 568.0400 764.2500 569.7200Q758.7200 571.4000 751.4400 571.4000ZM832.0800 571.4000L832.0800 571.4000Q820.8800 571.4000 813.2500 567.4800Q805.6200 563.5600 801.6300 556.4200Q797.6400 549.2800 797.0800 539.7600L797.0800 539.7600Q796.9400 537.2400 796.9400 533.6000Q796.9400 529.9600 797.0800 527.4400L797.0800 527.4400Q797.6400 517.7800 801.7700 510.7100Q805.9000 503.6400 813.5300 499.7200Q821.1600 495.8000 832.0800 495.8000L832.0800 495.8000Q843.0000 495.8000 850.6300 499.7200Q858.2600 503.6400 862.3900 510.7100Q866.5200 517.7800 867.0800 527.4400L867.0800 527.4400Q867.2200 529.9600 867.2200 533.6000Q867.2200 537.2400 867.0800 539.7600L867.0800 539.7600Q866.5200 549.2800 862.5300 556.4200Q858.5400 563.5600 850.9100 567.4800Q843.2800 571.4000 832.0800 571.4000ZM832.0800 557.5400L832.0800 557.5400Q839.5000 557.5400 843.5600 552.8500Q847.6200 548.1600 848.0400 539.0600L848.0400 539.0600Q848.1800 536.9600 848.1800 533.6000Q848.1800 530.2400 848.0400 528.1400L848.0400 528.1400Q847.6200 519.0400 843.5600 514.3500Q839.5000 509.6600 832.0800 509.6600L832.0800 509.6600Q824.6600 509.6600 820.6000 514.3500Q816.5400 519.0400 816.1200 528.1400L816.1200 528.1400Q815.9800 530.2400 815.9800 533.6000Q815.9800 536.9600 816.1200 539.0600L816.1200 539.0600Q816.5400 548.1600 820.6000 552.8500Q824.6600 557.5400 832.0800 557.5400ZM897.8800 570L886.1200 570Q884.7200 570 883.7400 569.0200Q882.7600 568.0400 882.7600 566.6400L882.7600 566.6400L882.7600 500.5600Q882.7600 499.1600 883.7400 498.1800Q884.7200 497.2000 886.1200 497.2000L886.1200 497.2000L897.0400 497.2000Q898.4400 497.2000 899.4200 498.1800Q900.4000 499.1600 900.4000 500.5600L900.4000 500.5600L900.4000 505.3200Q903.3400 501.4000 908.3100 498.6700Q913.2800 495.9400 920.1400 495.8000L920.1400 495.8000Q936.1000 495.5200 942.4000 508.2600L942.4000 508.2600Q945.6200 502.6600 951.7100 499.2300Q957.8000 495.8000 965.2200 495.8000L965.2200 495.8000Q972.5000 495.8000 978.4500 499.1600Q984.4000 502.5200 987.8300 509.3100Q991.2600 516.1000 991.2600 526.4600L991.2600 526.4600L991.2600 566.6400Q991.2600 568.0400 990.2800 569.0200Q989.3000 570 987.9000 570L987.9000 570L976.4200 570Q975.0200 570 974.0400 569.0200Q973.0600 568.0400 973.0600 566.6400L973.0600 566.6400L973.0600 527.5800Q973.0600 521.2800 971.2400 517.5700Q969.4200 513.8600 966.3400 512.3200Q963.2600 510.7800 959.4800 510.7800L959.4800 510.7800Q956.4000 510.7800 953.3200 512.3200Q950.2400 513.8600 948.2800 517.5700Q946.3200 521.2800 946.3200 527.5800L946.3200 527.5800L946.3200 566.6400Q946.3200 568.0400 945.3400 569.0200Q944.3600 570 942.9600 570L942.9600 570L931.4800 570Q930.0800 570 929.1000 569.0200Q928.1200 568.0400 928.1200 566.6400L928.1200 566.6400L928.1200 527.5800Q928.1200 521.2800 926.1600 517.5700Q924.2000 513.8600 921.1200 512.3200Q918.0400 510.7800 914.5400 510.7800L914.5400 510.7800Q911.3200 510.7800 908.2400 512.3900Q905.1600 514 903.2000 517.6400Q901.2400 521.2800 901.2400 527.5800L901.2400 527.5800L901.2400 566.6400Q901.2400 568.0400 900.2600 569.0200Q899.2800 570 897.8800 570L897.8800 570ZM174.2200 710L162.6000 710Q161.2000 710 160.2200 709.0200Q159.2400 708.0400 159.2400 706.6400L159.2400 706.6400L159.2400 640.5600Q159.2400 639.1600 160.2200 638.1800Q161.2000 637.2000 162.6000 637.2000L162.6000 637.2000L174.2200 637.2000Q175.7600 637.2000 176.6700 638.1800Q177.5800 639.1600 177.5800 640.5600L177.5800 640.5600L177.5800 706.6400Q177.5800 708.0400 176.6700 709.0200Q175.7600 710 174.2200 710L174.2200 710ZM174.7800 625.1600L162.0400 625.1600Q160.6400 625.1600 159.6600 624.1800Q158.6800 623.2000 158.6800 621.8000L158.6800 621.8000L158.6800 611.7200Q158.6800 610.3200 159.6600 609.3400Q160.6400 608.3600 162.0400 608.3600L162.0400 608.3600L174.7800 608.3600Q176.3200 608.3600 177.3000 609.3400Q178.2800 610.3200 178.2800 611.7200L178.2800 611.7200L178.2800 621.8000Q178.2800 623.2000 177.3000 624.1800Q176.3200 625.1600 174.7800 625.1600L174.7800 625.1600ZM223.2200 711.4000L223.2200 711.4000Q215.9400 711.4000 210.4100 708.9500Q204.8800 706.5000 201.2400 702.0200Q197.6000 697.5400 195.6400 691.4500Q193.6800 685.3600 193.4000 678.0800L193.4000 678.0800Q193.2600 675.5600 193.2600 673.5300Q193.2600 671.5000 193.4000 668.9800L193.4000 668.9800Q193.6800 661.9800 195.5700 655.9600Q197.4600 649.9400 201.1700 645.3900Q204.8800 640.8400 210.4100 638.3200Q215.9400 635.8000 223.2200 635.8000L223.2200 635.8000Q230.7800 635.8000 236.0300 638.3900Q241.2800 640.9800 244.7800 645.0400L244.7800 645.0400L244.7800 613.9600Q244.7800 612.5600 245.6900 611.5800Q246.6000 610.6000 248.1400 610.6000L248.1400 610.6000L260.0400 610.6000Q261.4400 610.6000 262.4200 611.5800Q263.4000 612.5600 263.4000 613.9600L263.4000 613.9600L263.4000 706.6400Q263.4000 708.0400 262.4200 709.0200Q261.4400 710 260.0400 710L260.0400 710L248.9800 710Q247.4400 710 246.5300 709.0200Q245.6200 708.0400 245.6200 706.6400L245.6200 706.6400L245.6200 701.4600Q242.1200 705.8000 236.7300 708.6000Q231.3400 711.4000 223.2200 711.4000ZM228.4000 696.4200L228.4000 696.4200Q234.2800 696.4200 237.7800 693.7600Q241.2800 691.1000 242.9600 686.9700Q244.6400 682.8400 244.7800 678.5000L244.7800 678.5000Q244.9200 675.9800 244.9200 673.1100Q244.9200 670.2400 244.7800 667.7200L244.7800 667.7200Q244.6400 663.5200 242.8200 659.6700Q241 655.8200 237.5000 653.3000Q234 650.7800 228.4000 650.7800L228.4000 650.7800Q222.5200 650.7800 219.0900 653.3700Q215.6600 655.9600 214.1200 660.1600Q212.5800 664.3600 212.3000 669.4000L212.3000 669.4000Q212.1600 673.6000 212.3000 677.8000L212.3000 677.8000Q212.5800 682.8400 214.1200 687.0400Q215.6600 691.2400 219.0900 693.8300Q222.5200 696.4200 228.4000 696.4200ZM313.3800 711.4000L313.3800 711.4000Q297.8400 711.4000 288.7400 702.4400Q279.6400 693.4800 278.9400 676.9600L278.9400 676.9600Q278.8000 675.5600 278.8000 673.3900Q278.8000 671.2200 278.9400 669.9600L278.9400 669.9600Q279.5000 659.3200 283.7700 651.6900Q288.0400 644.0600 295.6000 639.9300Q303.1600 635.8000 313.3800 635.8000L313.3800 635.8000Q324.7200 635.8000 332.4200 640.4900Q340.1200 645.1800 344.0400 653.5100Q347.9600 661.8400 347.9600 672.7600L347.9600 672.7600L347.9600 675.7000Q347.9600 677.1000 346.9800 678.0800Q346.0000 679.0600 344.4600 679.0600L344.4600 679.0600L297.9800 679.0600Q297.9800 679.0600 297.9800 679.4800Q297.9800 679.9000 297.9800 680.1800L297.9800 680.1800Q298.1200 685.0800 299.8700 689.2100Q301.6200 693.3400 305.0500 695.8600Q308.4800 698.3800 313.2400 698.3800L313.2400 698.3800Q317.1600 698.3800 319.8200 697.1900Q322.4800 696 324.1600 694.4600Q325.8400 692.9200 326.5400 691.9400L326.5400 691.9400Q327.8000 690.2600 328.5700 689.9100Q329.3400 689.5600 330.8800 689.5600L330.8800 689.5600L342.9200 689.5600Q344.3200 689.5600 345.2300 690.4000Q346.1400 691.2400 346.0000 692.5000L346.0000 692.5000Q345.8600 694.7400 343.6900 697.9600Q341.5200 701.1800 337.4600 704.2600Q333.4000 707.3400 327.3100 709.3700Q321.2200 711.4000 313.3800 711.4000ZM297.9800 666.8800L297.9800 667.3000L328.9200 667.3000L328.9200 666.8800Q328.9200 661.4200 327.1000 657.2900Q325.2800 653.1600 321.7800 650.8500Q318.2800 648.5400 313.3800 648.5400L313.3800 648.5400Q308.4800 648.5400 304.9800 650.8500Q301.4800 653.1600 299.7300 657.2900Q297.9800 661.4200 297.9800 666.8800L297.9800 666.8800ZM378.4800 710L366.1600 710Q364.7600 710 363.7800 709.0200Q362.8000 708.0400 362.8000 706.6400L362.8000 706.6400L362.8000 640.5600Q362.8000 639.1600 363.7800 638.1800Q364.7600 637.2000 366.1600 637.2000L366.1600 637.2000L377.6400 637.2000Q379.0400 637.2000 380.0200 638.1800Q381.0000 639.1600 381.0000 640.5600L381.0000 640.5600L381.0000 646.3000Q384.6400 641.8200 390.3100 638.8100Q395.9800 635.8000 404.3800 635.8000L404.3800 635.8000Q412.9200 635.8000 419.2200 639.6500Q425.5200 643.5000 428.9500 650.5000Q432.3800 657.5000 432.3800 667.3000L432.3800 667.3000L432.3800 706.6400Q432.3800 708.0400 431.4000 709.0200Q430.4200 710 429.0200 710L429.0200 710L416.7000 710Q415.3000 710 414.3200 709.0200Q413.3400 708.0400 413.3400 706.6400L413.3400 706.6400L413.3400 668.1400Q413.3400 660.0200 409.3500 655.4000Q405.3600 650.7800 397.8000 650.7800L397.8000 650.7800Q390.5200 650.7800 386.1800 655.4000Q381.8400 660.0200 381.8400 668.1400L381.8400 668.1400L381.8400 706.6400Q381.8400 708.0400 380.8600 709.0200Q379.8800 710 378.4800 710L378.4800 710ZM494.4000 710L483.0600 710Q474.6600 710 468.9200 707.0600Q463.1800 704.1200 460.3800 698.3100Q457.5800 692.5000 457.5800 683.8200L457.5800 683.8200L457.5800 652.0400L446.5200 652.0400Q445.1200 652.0400 444.1400 651.0600Q443.1600 650.0800 443.1600 648.5400L443.1600 648.5400L443.1600 640.5600Q443.1600 639.1600 444.1400 638.1800Q445.1200 637.2000 446.5200 637.2000L446.5200 637.2000L457.5800 637.2000L457.5800 613.9600Q457.5800 612.5600 458.4900 611.5800Q459.4000 610.6000 460.9400 610.6000L460.9400 610.6000L472.2800 610.6000Q473.6800 610.6000 474.6600 611.5800Q475.6400 612.5600 475.6400 613.9600L475.6400 613.9600L475.6400 637.2000L493.1400 637.2000Q494.5400 637.2000 495.5200 638.1800Q496.5000 639.1600 496.5000 640.5600L496.5000 640.5600L496.5000 648.5400Q496.5000 650.0800 495.5200 651.0600Q494.5400 652.0400 493.1400 652.0400L493.1400 652.0400L475.6400 652.0400L475.6400 682.4200Q475.6400 688.1600 477.6700 691.3800Q479.7000 694.6000 484.7400 694.6000L484.7400 694.6000L494.4000 694.6000Q495.8000 694.6000 496.7800 695.5800Q497.7600 696.5600 497.7600 697.9600L497.7600 697.9600L497.7600 706.6400Q497.7600 708.0400 496.7800 709.0200Q495.8000 710 494.4000 710L494.4000 710ZM525.2000 710L513.5800 710Q512.1800 710 511.2000 709.0200Q510.2200 708.0400 510.2200 706.6400L510.2200 706.6400L510.2200 640.5600Q510.2200 639.1600 511.2000 638.1800Q512.1800 637.2000 513.5800 637.2000L513.5800 637.2000L525.2000 637.2000Q526.7400 637.2000 527.6500 638.1800Q528.5600 639.1600 528.5600 640.5600L528.5600 640.5600L528.5600 706.6400Q528.5600 708.0400 527.6500 709.0200Q526.7400 710 525.2000 710L525.2000 710ZM525.7600 625.1600L513.0200 625.1600Q511.6200 625.1600 510.6400 624.1800Q509.6600 623.2000 509.6600 621.8000L509.6600 621.8000L509.6600 611.7200Q509.6600 610.3200 510.6400 609.3400Q511.6200 608.3600 513.0200 608.3600L513.0200 608.3600L525.7600 608.3600Q527.3000 608.3600 528.2800 609.3400Q529.2600 610.3200 529.2600 611.7200L529.2600 611.7200L529.2600 621.8000Q529.2600 623.2000 528.2800 624.1800Q527.3000 625.1600 525.7600 625.1600L525.7600 625.1600ZM569.8600 710L558.3800 710Q556.9800 710 556 709.0200Q555.0200 708.0400 555.0200 706.6400L555.0200 706.6400L555.0200 652.0400L543.6800 652.0400Q542.2800 652.0400 541.3000 651.0600Q540.3200 650.0800 540.3200 648.5400L540.3200 648.5400L540.3200 640.5600Q540.3200 639.1600 541.3000 638.1800Q542.2800 637.2000 543.6800 637.2000L543.6800 637.2000L555.0200 637.2000L555.0200 631.4600Q555.0200 623.0600 558.1000 617.5300Q561.1800 612 567.2000 609.2000Q573.2200 606.4000 582.4600 606.4000L582.4600 606.4000L591.9800 606.4000Q593.5200 606.4000 594.4300 607.3800Q595.3400 608.3600 595.3400 609.7600L595.3400 609.7600L595.3400 617.7400Q595.3400 619.2800 594.4300 620.2600Q593.5200 621.2400 591.9800 621.2400L591.9800 621.2400L583.0200 621.2400Q577.4200 621.2400 575.3200 624.0400Q573.2200 626.8400 573.2200 632.1600L573.2200 632.1600L573.2200 637.2000L590.5800 637.2000Q592.1200 637.2000 593.0300 638.1800Q593.9400 639.1600 593.9400 640.5600L593.9400 640.5600L593.9400 648.5400Q593.9400 650.0800 593.0300 651.0600Q592.1200 652.0400 590.5800 652.0400L590.5800 652.0400L573.2200 652.0400L573.2200 706.6400Q573.2200 708.0400 572.2400 709.0200Q571.2600 710 569.8600 710L569.8600 710ZM620.1200 710L608.5000 710Q607.1000 710 606.1200 709.0200Q605.1400 708.0400 605.1400 706.6400L605.1400 706.6400L605.1400 640.5600Q605.1400 639.1600 606.1200 638.1800Q607.1000 637.2000 608.5000 637.2000L608.5000 637.2000L620.1200 637.2000Q621.6600 637.2000 622.5700 638.1800Q623.4800 639.1600 623.4800 640.5600L623.4800 640.5600L623.4800 706.6400Q623.4800 708.0400 622.5700 709.0200Q621.6600 710 620.1200 710L620.1200 710ZM620.6800 625.1600L607.9400 625.1600Q606.5400 625.1600 605.5600 624.1800Q604.5800 623.2000 604.5800 621.8000L604.5800 621.8000L604.5800 611.7200Q604.5800 610.3200 605.5600 609.3400Q606.5400 608.3600 607.9400 608.3600L607.9400 608.3600L620.6800 608.3600Q622.2200 608.3600 623.2000 609.3400Q624.1800 610.3200 624.1800 611.7200L624.1800 611.7200L624.1800 621.8000Q624.1800 623.2000 623.2000 624.1800Q622.2200 625.1600 620.6800 625.1600L620.6800 625.1600ZM673.6000 711.4000L673.6000 711.4000Q663.5200 711.4000 655.8900 707.6200Q648.2600 703.8400 643.9900 696.6300Q639.7200 689.4200 639.3000 679.2000L639.3000 679.2000Q639.1600 677.1000 639.1600 673.6700Q639.1600 670.2400 639.3000 668L639.3000 668Q639.7200 657.7800 643.9900 650.5700Q648.2600 643.3600 655.8900 639.5800Q663.5200 635.8000 673.6000 635.8000L673.6000 635.8000Q682.5600 635.8000 688.8600 638.2500Q695.1600 640.7000 699.2200 644.5500Q703.2800 648.4000 705.3100 652.5300Q707.3400 656.6600 707.4800 660.0200L707.4800 660.0200Q707.6200 661.5600 706.5700 662.4700Q705.5200 663.3800 704.1200 663.3800L704.1200 663.3800L691.8000 663.3800Q690.4000 663.3800 689.6300 662.6800Q688.8600 661.9800 688.1600 660.5800L688.1600 660.5800Q686.0600 654.9800 682.6300 652.6700Q679.2000 650.3600 673.8800 650.3600L673.8800 650.3600Q666.8800 650.3600 662.7500 654.7700Q658.6200 659.1800 658.3400 668.7000L658.3400 668.7000Q658.0600 674.0200 658.3400 678.5000L658.3400 678.5000Q658.6200 688.1600 662.7500 692.5000Q666.8800 696.8400 673.8800 696.8400L673.8800 696.8400Q679.3400 696.8400 682.7000 694.5300Q686.0600 692.2200 688.1600 686.6200L688.1600 686.6200Q688.8600 685.2200 689.6300 684.5200Q690.4000 683.8200 691.8000 683.8200L691.8000 683.8200L704.1200 683.8200Q705.5200 683.8200 706.5700 684.7300Q707.6200 685.6400 707.4800 687.1800L707.4800 687.1800Q707.3400 689.7000 706.1500 692.8500Q704.9600 696 702.3700 699.2900Q699.7800 702.5800 695.8600 705.3100Q691.9400 708.0400 686.4100 709.7200Q680.8800 711.4000 673.6000 711.4000ZM743.1800 711.4000L743.1800 711.4000Q735.9000 711.4000 730.0200 708.5300Q724.1400 705.6600 720.7100 700.8300Q717.2800 696 717.2800 689.9800L717.2800 689.9800Q717.2800 680.1800 725.2600 674.3700Q733.2400 668.5600 746.1200 666.6000L746.1200 666.6000L765.3000 663.8000L765.3000 660.8600Q765.3000 654.9800 762.3600 651.7600Q759.4200 648.5400 752.2800 648.5400L752.2800 648.5400Q747.2400 648.5400 744.0900 650.5700Q740.9400 652.6000 739.4000 655.9600L739.4000 655.9600Q738.2800 657.7800 736.1800 657.7800L736.1800 657.7800L725.1200 657.7800Q723.5800 657.7800 722.8100 656.9400Q722.0400 656.1000 722.0400 654.7000L722.0400 654.7000Q722.1800 652.4600 723.9300 649.2400Q725.6800 646.0200 729.2500 643.0100Q732.8200 640 738.5600 637.9000Q744.3000 635.8000 752.4200 635.8000L752.4200 635.8000Q761.2400 635.8000 767.3300 637.9700Q773.4200 640.1400 777.0600 643.7800Q780.7000 647.4200 782.3800 652.3200Q784.0600 657.2200 784.0600 662.6800L784.0600 662.6800L784.0600 706.6400Q784.0600 708.0400 783.0800 709.0200Q782.1000 710 780.7000 710L780.7000 710L769.3600 710Q767.8200 710 766.9100 709.0200Q766.0000 708.0400 766.0000 706.6400L766.0000 706.6400L766.0000 701.1800Q764.1800 703.7000 761.1000 706.0800Q758.0200 708.4600 753.6100 709.9300Q749.2000 711.4000 743.1800 711.4000ZM747.9400 698.1000L747.9400 698.1000Q752.8400 698.1000 756.8300 696Q760.8200 693.9000 763.1300 689.4900Q765.4400 685.0800 765.4400 678.3600L765.4400 678.3600L765.4400 675.4200L751.4400 677.6600Q743.1800 678.9200 739.1200 681.7200Q735.0600 684.5200 735.0600 688.5800L735.0600 688.5800Q735.0600 691.6600 736.9500 693.8300Q738.8400 696 741.7800 697.0500Q744.7200 698.1000 747.9400 698.1000ZM833.3400 740.8000L833.3400 740.8000Q829.4200 740.6600 826.4100 739.4000Q823.4000 738.1400 822.0700 736.4600Q820.7400 734.7800 822.1400 733.6600L822.1400 733.6600L824.5200 731.5600Q825.7800 730.4400 826.6900 730.9300Q827.6000 731.4200 829.0700 732.3300Q830.5400 733.2400 833.3400 733.2400L833.3400 733.2400Q835.4400 733.2400 836.9800 731.9100Q838.5200 730.5800 838.5200 728.4800L838.5200 728.4800Q838.5200 726.5200 837.0500 725.2600Q835.5800 724 833.3400 724L833.3400 724Q831.3800 724 829.9800 724.4900Q828.5800 724.9800 827.4600 725.1900Q826.3400 725.4000 825.2200 724.2800L825.2200 724.2800L822.7000 721.7600Q821.8600 720.7800 822.1400 719.7300Q822.4200 718.6800 822.9800 717.4200L822.9800 717.4200L825.9200 710.7000Q813.8800 708.8800 806.7400 700.6900Q799.6000 692.5000 799.1800 679.2000L799.1800 679.2000Q799.0400 677.1000 799.0400 673.6700Q799.0400 670.2400 799.1800 668L799.1800 668Q799.6000 657.7800 803.8700 650.5700Q808.1400 643.3600 815.7700 639.5800Q823.4000 635.8000 833.4800 635.8000L833.4800 635.8000Q842.4400 635.8000 848.7400 638.2500Q855.0400 640.7000 859.1000 644.5500Q863.1600 648.4000 865.1900 652.5300Q867.2200 656.6600 867.3600 660.0200L867.3600 660.0200Q867.5000 661.5600 866.4500 662.4700Q865.4000 663.3800 864.0000 663.3800L864.0000 663.3800L851.6800 663.3800Q850.2800 663.3800 849.5100 662.6800Q848.7400 661.9800 848.0400 660.5800L848.0400 660.5800Q845.9400 654.9800 842.5100 652.6700Q839.0800 650.3600 833.7600 650.3600L833.7600 650.3600Q826.7600 650.3600 822.6300 654.7700Q818.5000 659.1800 818.2200 668.7000L818.2200 668.7000Q817.9400 674.0200 818.2200 678.5000L818.2200 678.5000Q818.5000 688.1600 822.6300 692.5000Q826.7600 696.8400 833.7600 696.8400L833.7600 696.8400Q839.2200 696.8400 842.5800 694.5300Q845.9400 692.2200 848.0400 686.6200L848.0400 686.6200Q848.7400 685.2200 849.5100 684.5200Q850.2800 683.8200 851.6800 683.8200L851.6800 683.8200L864.0000 683.8200Q865.4000 683.8200 866.4500 684.7300Q867.5000 685.6400 867.3600 687.1800L867.3600 687.1800Q867.2200 690.2600 865.2600 694.3900Q863.3000 698.5200 859.3800 702.3700Q855.4600 706.2200 849.1600 708.8100Q842.8600 711.4000 833.9000 711.4000L833.9000 711.4000L830.9600 717.4200Q831.8000 717 833.2700 716.7200Q834.7400 716.4400 835.8600 716.4400L835.8600 716.4400Q840.7600 716.4400 843.7700 719.8000Q846.7800 723.1600 846.7800 728.3400L846.7800 728.3400Q846.7800 733.6600 843.2800 737.3000Q839.7800 740.9400 833.3400 740.8000ZM903.0600 711.4000L903.0600 711.4000Q895.7800 711.4000 889.9000 708.5300Q884.0200 705.6600 880.5900 700.8300Q877.1600 696 877.1600 689.9800L877.1600 689.9800Q877.1600 680.1800 885.1400 674.3700Q893.1200 668.5600 906.0000 666.6000L906.0000 666.6000L925.1800 663.8000L925.1800 660.8600Q925.1800 654.9800 922.2400 651.7600Q919.3000 648.5400 912.1600 648.5400L912.1600 648.5400Q907.1200 648.5400 903.9700 650.5700Q900.8200 652.6000 899.2800 655.9600L899.2800 655.9600Q898.1600 657.7800 896.0600 657.7800L896.0600 657.7800L885.0000 657.7800Q883.4600 657.7800 882.6900 656.9400Q881.9200 656.1000 881.9200 654.7000L881.9200 654.7000Q882.0600 652.4600 883.8100 649.2400Q885.5600 646.0200 889.1300 643.0100Q892.7000 640 898.4400 637.9000Q904.1800 635.8000 912.3000 635.8000L912.3000 635.8000Q921.1200 635.8000 927.2100 637.9700Q933.3000 640.1400 936.9400 643.7800Q940.5800 647.4200 942.2600 652.3200Q943.9400 657.2200 943.9400 662.6800L943.9400 662.6800L943.9400 706.6400Q943.9400 708.0400 942.9600 709.0200Q941.9800 710 940.5800 710L940.5800 710L929.2400 710Q927.7000 710 926.7900 709.0200Q925.8800 708.0400 925.8800 706.6400L925.8800 706.6400L925.8800 701.1800Q924.0600 703.7000 920.9800 706.0800Q917.9000 708.4600 913.4900 709.9300Q909.0800 711.4000 903.0600 711.4000ZM907.8200 698.1000L907.8200 698.1000Q912.7200 698.1000 916.7100 696Q920.7000 693.9000 923.0100 689.4900Q925.3200 685.0800 925.3200 678.3600L925.3200 678.3600L925.3200 675.4200L911.3200 677.6600Q903.0600 678.9200 899.0000 681.7200Q894.9400 684.5200 894.9400 688.5800L894.9400 688.5800Q894.9400 691.6600 896.8300 693.8300Q898.7200 696 901.6600 697.0500Q904.6000 698.1000 907.8200 698.1000ZM920.0000 627.4000L920.0000 627.4000Q916.3600 627.4000 914.1200 626.2100Q911.8800 625.0200 909.9900 623.7600Q908.1000 622.5000 905.8600 622.5000L905.8600 622.5000Q904.0400 622.5000 903.2700 623.5500Q902.5000 624.6000 901.8000 625.6500Q901.1000 626.7000 899.5600 626.7000L899.5600 626.7000L893.1200 626.7000Q892.1400 626.7000 891.4400 626Q890.7400 625.3000 890.7400 624.3200L890.7400 624.3200Q890.7400 622.2200 891.5100 619.6300Q892.2800 617.0400 893.9600 614.6600Q895.6400 612.2800 898.2300 610.8100Q900.8200 609.3400 904.3200 609.3400L904.3200 609.3400Q908.1000 609.3400 910.3400 610.5300Q912.5800 611.7200 914.4700 612.9800Q916.3600 614.2400 918.6000 614.2400L918.6000 614.2400Q920.4200 614.2400 921.1900 613.1200Q921.9600 612 922.6600 610.9500Q923.3600 609.9000 924.9000 609.9000L924.9000 609.9000L931.3400 609.9000Q932.4600 609.9000 933.0900 610.6700Q933.7200 611.4400 933.7200 612.4200L933.7200 612.4200Q933.7200 614.5200 932.9500 617.1100Q932.1800 619.7000 930.5000 622.0800Q928.8200 624.4600 926.2300 625.9300Q923.6400 627.4000 920.0000 627.4000ZM994.0600 711.4000L994.0600 711.4000Q982.8600 711.4000 975.2300 707.4800Q967.6000 703.5600 963.6100 696.4200Q959.6200 689.2800 959.0600 679.7600L959.0600 679.7600Q958.9200 677.2400 958.9200 673.6000Q958.9200 669.9600 959.0600 667.4400L959.0600 667.4400Q959.6200 657.7800 963.7500 650.7100Q967.8800 643.6400 975.5100 639.7200Q983.1400 635.8000 994.0600 635.8000L994.0600 635.8000Q1004.9800 635.8000 1012.6100 639.7200Q1020.2400 643.6400 1024.3700 650.7100Q1028.5000 657.7800 1029.0600 667.4400L1029.0600 667.4400Q1029.2000 669.9600 1029.2000 673.6000Q1029.2000 677.2400 1029.0600 679.7600L1029.0600 679.7600Q1028.5000 689.2800 1024.5100 696.4200Q1020.5200 703.5600 1012.8900 707.4800Q1005.2600 711.4000 994.0600 711.4000ZM994.0600 697.5400L994.0600 697.5400Q1001.4800 697.5400 1005.5400 692.8500Q1009.6000 688.1600 1010.0200 679.0600L1010.0200 679.0600Q1010.1600 676.9600 1010.1600 673.6000Q1010.1600 670.2400 1010.0200 668.1400L1010.0200 668.1400Q1009.6000 659.0400 1005.5400 654.3500Q1001.4800 649.6600 994.0600 649.6600L994.0600 649.6600Q986.6400 649.6600 982.5800 654.3500Q978.5200 659.0400 978.1000 668.1400L978.1000 668.1400Q977.9600 670.2400 977.9600 673.6000Q977.9600 676.9600 978.1000 679.0600L978.1000 679.0600Q978.5200 688.1600 982.5800 692.8500Q986.6400 697.5400 994.0600 697.5400ZM180.3800 851.4000L180.3800 851.4000Q173.1000 851.4000 167.2200 848.5300Q161.3400 845.6600 157.9100 840.8300Q154.4800 836 154.4800 829.9800L154.4800 829.9800Q154.4800 820.1800 162.4600 814.3700Q170.4400 808.5600 183.3200 806.6000L183.3200 806.6000L202.5000 803.8000L202.5000 800.8600Q202.5000 794.9800 199.5600 791.7600Q196.6200 788.5400 189.4800 788.5400L189.4800 788.5400Q184.4400 788.5400 181.2900 790.5700Q178.1400 792.6000 176.6000 795.9600L176.6000 795.9600Q175.4800 797.7800 173.3800 797.7800L173.3800 797.7800L162.3200 797.7800Q160.7800 797.7800 160.0100 796.9400Q159.2400 796.1000 159.2400 794.7000L159.2400 794.7000Q159.3800 792.4600 161.1300 789.2400Q162.8800 786.0200 166.4500 783.0100Q170.0200 780 175.7600 777.9000Q181.5000 775.8000 189.6200 775.8000L189.6200 775.8000Q198.4400 775.8000 204.5300 777.9700Q210.6200 780.1400 214.2600 783.7800Q217.9000 787.4200 219.5800 792.3200Q221.2600 797.2200 221.2600 802.6800L221.2600 802.6800L221.2600 846.6400Q221.2600 848.0400 220.2800 849.0200Q219.3000 850 217.9000 850L217.9000 850L206.5600 850Q205.0200 850 204.1100 849.0200Q203.2000 848.0400 203.2000 846.6400L203.2000 846.6400L203.2000 841.1800Q201.3800 843.7000 198.3000 846.0800Q195.2200 848.4600 190.8100 849.9300Q186.4000 851.4000 180.3800 851.4000ZM185.1400 838.1000L185.1400 838.1000Q190.0400 838.1000 194.0300 836Q198.0200 833.9000 200.3300 829.4900Q202.6400 825.0800 202.6400 818.3600L202.6400 818.3600L202.6400 815.4200L188.6400 817.6600Q180.3800 818.9200 176.3200 821.7200Q172.2600 824.5200 172.2600 828.5800L172.2600 828.5800Q172.2600 831.6600 174.1500 833.8300Q176.0400 836 178.9800 837.0500Q181.9200 838.1000 185.1400 838.1000ZM266.2000 851.4000L266.2000 851.4000Q257.6600 851.4000 251.4300 847.5500Q245.2000 843.7000 241.8400 836.6300Q238.4800 829.5600 238.4800 819.9000L238.4800 819.9000L238.4800 780.5600Q238.4800 779.1600 239.4600 778.1800Q240.4400 777.2000 241.8400 777.2000L241.8400 777.2000L254.1600 777.2000Q255.7000 777.2000 256.6100 778.1800Q257.5200 779.1600 257.5200 780.5600L257.5200 780.5600L257.5200 819.0600Q257.5200 836.4200 272.7800 836.4200L272.7800 836.4200Q280.0600 836.4200 284.3300 831.8000Q288.6000 827.1800 288.6000 819.0600L288.6000 819.0600L288.6000 780.5600Q288.6000 779.1600 289.5800 778.1800Q290.5600 777.2000 291.9600 777.2000L291.9600 777.2000L304.2800 777.2000Q305.6800 777.2000 306.6600 778.1800Q307.6400 779.1600 307.6400 780.5600L307.6400 780.5600L307.6400 846.6400Q307.6400 848.0400 306.6600 849.0200Q305.6800 850 304.2800 850L304.2800 850L292.9400 850Q291.4000 850 290.4900 849.0200Q289.5800 848.0400 289.5800 846.6400L289.5800 846.6400L289.5800 840.9000Q285.8000 845.8000 280.2000 848.6000Q274.6000 851.4000 266.2000 851.4000ZM370.3600 850L359.0200 850Q350.6200 850 344.8800 847.0600Q339.1400 844.1200 336.3400 838.3100Q333.5400 832.5000 333.5400 823.8200L333.5400 823.8200L333.5400 792.0400L322.4800 792.0400Q321.0800 792.0400 320.1000 791.0600Q319.1200 790.0800 319.1200 788.5400L319.1200 788.5400L319.1200 780.5600Q319.1200 779.1600 320.1000 778.1800Q321.0800 777.2000 322.4800 777.2000L322.4800 777.2000L333.5400 777.2000L333.5400 753.9600Q333.5400 752.5600 334.4500 751.5800Q335.3600 750.6000 336.9000 750.6000L336.9000 750.6000L348.2400 750.6000Q349.6400 750.6000 350.6200 751.5800Q351.6000 752.5600 351.6000 753.9600L351.6000 753.9600L351.6000 777.2000L369.1000 777.2000Q370.5000 777.2000 371.4800 778.1800Q372.4600 779.1600 372.4600 780.5600L372.4600 780.5600L372.4600 788.5400Q372.4600 790.0800 371.4800 791.0600Q370.5000 792.0400 369.1000 792.0400L369.1000 792.0400L351.6000 792.0400L351.6000 822.4200Q351.6000 828.1600 353.6300 831.3800Q355.6600 834.6000 360.7000 834.6000L360.7000 834.6000L370.3600 834.6000Q371.7600 834.6000 372.7400 835.5800Q373.7200 836.5600 373.7200 837.9600L373.7200 837.9600L373.7200 846.6400Q373.7200 848.0400 372.7400 849.0200Q371.7600 850 370.3600 850L370.3600 850ZM418.3800 851.4000L418.3800 851.4000Q407.1800 851.4000 399.5500 847.4800Q391.9200 843.5600 387.9300 836.4200Q383.9400 829.2800 383.3800 819.7600L383.3800 819.7600Q383.2400 817.2400 383.2400 813.6000Q383.2400 809.9600 383.3800 807.4400L383.3800 807.4400Q383.9400 797.7800 388.0700 790.7100Q392.2000 783.6400 399.8300 779.7200Q407.4600 775.8000 418.3800 775.8000L418.3800 775.8000Q429.3000 775.8000 436.9300 779.7200Q444.5600 783.6400 448.6900 790.7100Q452.8200 797.7800 453.3800 807.4400L453.3800 807.4400Q453.5200 809.9600 453.5200 813.6000Q453.5200 817.2400 453.3800 819.7600L453.3800 819.7600Q452.8200 829.2800 448.8300 836.4200Q444.8400 843.5600 437.2100 847.4800Q429.5800 851.4000 418.3800 851.4000ZM418.3800 837.5400L418.3800 837.5400Q425.8000 837.5400 429.8600 832.8500Q433.9200 828.1600 434.3400 819.0600L434.3400 819.0600Q434.4800 816.9600 434.4800 813.6000Q434.4800 810.2400 434.3400 808.1400L434.3400 808.1400Q433.9200 799.0400 429.8600 794.3500Q425.8000 789.6600 418.3800 789.6600L418.3800 789.6600Q410.9600 789.6600 406.9000 794.3500Q402.8400 799.0400 402.4200 808.1400L402.4200 808.1400Q402.2800 810.2400 402.2800 813.6000Q402.2800 816.9600 402.4200 819.0600L402.4200 819.0600Q402.8400 828.1600 406.9000 832.8500Q410.9600 837.5400 418.3800 837.5400ZM484.1800 850L472.4200 850Q471.0200 850 470.0400 849.0200Q469.0600 848.0400 469.0600 846.6400L469.0600 846.6400L469.0600 780.5600Q469.0600 779.1600 470.0400 778.1800Q471.0200 777.2000 472.4200 777.2000L472.4200 777.2000L483.3400 777.2000Q484.7400 777.2000 485.7200 778.1800Q486.7000 779.1600 486.7000 780.5600L486.7000 780.5600L486.7000 785.3200Q489.6400 781.4000 494.6100 778.6700Q499.5800 775.9400 506.4400 775.8000L506.4400 775.8000Q522.4000 775.5200 528.7000 788.2600L528.7000 788.2600Q531.9200 782.6600 538.0100 779.2300Q544.1000 775.8000 551.5200 775.8000L551.5200 775.8000Q558.8000 775.8000 564.7500 779.1600Q570.7000 782.5200 574.1300 789.3100Q577.5600 796.1000 577.5600 806.4600L577.5600 806.4600L577.5600 846.6400Q577.5600 848.0400 576.5800 849.0200Q575.6000 850 574.2000 850L574.2000 850L562.7200 850Q561.3200 850 560.3400 849.0200Q559.3600 848.0400 559.3600 846.6400L559.3600 846.6400L559.3600 807.5800Q559.3600 801.2800 557.5400 797.5700Q555.7200 793.8600 552.6400 792.3200Q549.5600 790.7800 545.7800 790.7800L545.7800 790.7800Q542.7000 790.7800 539.6200 792.3200Q536.5400 793.8600 534.5800 797.5700Q532.6200 801.2800 532.6200 807.5800L532.6200 807.5800L532.6200 846.6400Q532.6200 848.0400 531.6400 849.0200Q530.6600 850 529.2600 850L529.2600 850L517.7800 850Q516.3800 850 515.4000 849.0200Q514.4200 848.0400 514.4200 846.6400L514.4200 846.6400L514.4200 807.5800Q514.4200 801.2800 512.4600 797.5700Q510.5000 793.8600 507.4200 792.3200Q504.3400 790.7800 500.8400 790.7800L500.8400 790.7800Q497.6200 790.7800 494.5400 792.3900Q491.4600 794 489.5000 797.6400Q487.5400 801.2800 487.5400 807.5800L487.5400 807.5800L487.5400 846.6400Q487.5400 848.0400 486.5600 849.0200Q485.5800 850 484.1800 850L484.1800 850ZM616.4800 851.4000L616.4800 851.4000Q609.2000 851.4000 603.3200 848.5300Q597.4400 845.6600 594.0100 840.8300Q590.5800 836 590.5800 829.9800L590.5800 829.9800Q590.5800 820.1800 598.5600 814.3700Q606.5400 808.5600 619.4200 806.6000L619.4200 806.6000L638.6000 803.8000L638.6000 800.8600Q638.6000 794.9800 635.6600 791.7600Q632.7200 788.5400 625.5800 788.5400L625.5800 788.5400Q620.5400 788.5400 617.3900 790.5700Q614.2400 792.6000 612.7000 795.9600L612.7000 795.9600Q611.5800 797.7800 609.4800 797.7800L609.4800 797.7800L598.4200 797.7800Q596.8800 797.7800 596.1100 796.9400Q595.3400 796.1000 595.3400 794.7000L595.3400 794.7000Q595.4800 792.4600 597.2300 789.2400Q598.9800 786.0200 602.5500 783.0100Q606.1200 780 611.8600 777.9000Q617.6000 775.8000 625.7200 775.8000L625.7200 775.8000Q634.5400 775.8000 640.6300 777.9700Q646.7200 780.1400 650.3600 783.7800Q654 787.4200 655.6800 792.3200Q657.3600 797.2200 657.3600 802.6800L657.3600 802.6800L657.3600 846.6400Q657.3600 848.0400 656.3800 849.0200Q655.4000 850 654 850L654 850L642.6600 850Q641.1200 850 640.2100 849.0200Q639.3000 848.0400 639.3000 846.6400L639.3000 846.6400L639.3000 841.1800Q637.4800 843.7000 634.4000 846.0800Q631.3200 848.4600 626.9100 849.9300Q622.5000 851.4000 616.4800 851.4000ZM621.2400 838.1000L621.2400 838.1000Q626.1400 838.1000 630.1300 836Q634.1200 833.9000 636.4300 829.4900Q638.7400 825.0800 638.7400 818.3600L638.7400 818.3600L638.7400 815.4200L624.7400 817.6600Q616.4800 818.9200 612.4200 821.7200Q608.3600 824.5200 608.3600 828.5800L608.3600 828.5800Q608.3600 831.6600 610.2500 833.8300Q612.1400 836 615.0800 837.0500Q618.0200 838.1000 621.2400 838.1000ZM628.3800 766.7000L619.8400 766.7000Q617.6000 766.7000 617.6000 764.4600L617.6000 764.4600Q617.6000 763.3400 618.3000 762.6400L618.3000 762.6400L629.6400 748.7800Q631.0400 747.2400 632.0200 746.7500Q633 746.2600 634.8200 746.2600L634.8200 746.2600L648.8200 746.2600Q651.4800 746.2600 651.4800 748.9200L651.4800 748.9200Q651.4800 749.9000 650.7800 750.6000L650.7800 750.6000L633.4200 764.8800Q632.3000 765.8600 631.2500 766.2800Q630.2000 766.7000 628.3800 766.7000L628.3800 766.7000ZM719.5200 850L708.1800 850Q699.7800 850 694.0400 847.0600Q688.3000 844.1200 685.5000 838.3100Q682.7000 832.5000 682.7000 823.8200L682.7000 823.8200L682.7000 792.0400L671.6400 792.0400Q670.2400 792.0400 669.2600 791.0600Q668.2800 790.0800 668.2800 788.5400L668.2800 788.5400L668.2800 780.5600Q668.2800 779.1600 669.2600 778.1800Q670.2400 777.2000 671.6400 777.2000L671.6400 777.2000L682.7000 777.2000L682.7000 753.9600Q682.7000 752.5600 683.6100 751.5800Q684.5200 750.6000 686.0600 750.6000L686.0600 750.6000L697.4000 750.6000Q698.8000 750.6000 699.7800 751.5800Q700.7600 752.5600 700.7600 753.9600L700.7600 753.9600L700.7600 777.2000L718.2600 777.2000Q719.6600 777.2000 720.6400 778.1800Q721.6200 779.1600 721.6200 780.5600L721.6200 780.5600L721.6200 788.5400Q721.6200 790.0800 720.6400 791.0600Q719.6600 792.0400 718.2600 792.0400L718.2600 792.0400L700.7600 792.0400L700.7600 822.4200Q700.7600 828.1600 702.7900 831.3800Q704.8200 834.6000 709.8600 834.6000L709.8600 834.6000L719.5200 834.6000Q720.9200 834.6000 721.9000 835.5800Q722.8800 836.5600 722.8800 837.9600L722.8800 837.9600L722.8800 846.6400Q722.8800 848.0400 721.9000 849.0200Q720.9200 850 719.5200 850L719.5200 850ZM750.3200 850L738.7000 850Q737.3000 850 736.3200 849.0200Q735.3400 848.0400 735.3400 846.6400L735.3400 846.6400L735.3400 780.5600Q735.3400 779.1600 736.3200 778.1800Q737.3000 777.2000 738.7000 777.2000L738.7000 777.2000L750.3200 777.2000Q751.8600 777.2000 752.7700 778.1800Q753.6800 779.1600 753.6800 780.5600L753.6800 780.5600L753.6800 846.6400Q753.6800 848.0400 752.7700 849.0200Q751.8600 850 750.3200 850L750.3200 850ZM750.8800 765.1600L738.1400 765.1600Q736.7400 765.1600 735.7600 764.1800Q734.7800 763.2000 734.7800 761.8000L734.7800 761.8000L734.7800 751.7200Q734.7800 750.3200 735.7600 749.3400Q736.7400 748.3600 738.1400 748.3600L738.1400 748.3600L750.8800 748.3600Q752.4200 748.3600 753.4000 749.3400Q754.3800 750.3200 754.3800 751.7200L754.3800 751.7200L754.3800 761.8000Q754.3800 763.2000 753.4000 764.1800Q752.4200 765.1600 750.8800 765.1600L750.8800 765.1600ZM803.8000 851.4000L803.8000 851.4000Q793.7200 851.4000 786.0900 847.6200Q778.4600 843.8400 774.1900 836.6300Q769.9200 829.4200 769.5000 819.2000L769.5000 819.2000Q769.3600 817.1000 769.3600 813.6700Q769.3600 810.2400 769.5000 808L769.5000 808Q769.9200 797.7800 774.1900 790.5700Q778.4600 783.3600 786.0900 779.5800Q793.7200 775.8000 803.8000 775.8000L803.8000 775.8000Q812.7600 775.8000 819.0600 778.2500Q825.3600 780.7000 829.4200 784.5500Q833.4800 788.4000 835.5100 792.5300Q837.5400 796.6600 837.6800 800.0200L837.6800 800.0200Q837.8200 801.5600 836.7700 802.4700Q835.7200 803.3800 834.3200 803.3800L834.3200 803.3800L822.0000 803.3800Q820.6000 803.3800 819.8300 802.6800Q819.0600 801.9800 818.3600 800.5800L818.3600 800.5800Q816.2600 794.9800 812.8300 792.6700Q809.4000 790.3600 804.0800 790.3600L804.0800 790.3600Q797.0800 790.3600 792.9500 794.7700Q788.8200 799.1800 788.5400 808.7000L788.5400 808.7000Q788.2600 814.0200 788.5400 818.5000L788.5400 818.5000Q788.8200 828.1600 792.9500 832.5000Q797.0800 836.8400 804.0800 836.8400L804.0800 836.8400Q809.5400 836.8400 812.9000 834.5300Q816.2600 832.2200 818.3600 826.6200L818.3600 826.6200Q819.0600 825.2200 819.8300 824.5200Q820.6000 823.8200 822.0000 823.8200L822.0000 823.8200L834.3200 823.8200Q835.7200 823.8200 836.7700 824.7300Q837.8200 825.6400 837.6800 827.1800L837.6800 827.1800Q837.5400 829.7000 836.3500 832.8500Q835.1600 836 832.5700 839.2900Q829.9800 842.5800 826.0600 845.3100Q822.1400 848.0400 816.6100 849.7200Q811.0800 851.4000 803.8000 851.4000ZM873.3800 851.4000L873.3800 851.4000Q866.1000 851.4000 860.2200 848.5300Q854.3400 845.6600 850.9100 840.8300Q847.4800 836 847.4800 829.9800L847.4800 829.9800Q847.4800 820.1800 855.4600 814.3700Q863.4400 808.5600 876.3200 806.6000L876.3200 806.6000L895.5000 803.8000L895.5000 800.8600Q895.5000 794.9800 892.5600 791.7600Q889.6200 788.5400 882.4800 788.5400L882.4800 788.5400Q877.4400 788.5400 874.2900 790.5700Q871.1400 792.6000 869.6000 795.9600L869.6000 795.9600Q868.4800 797.7800 866.3800 797.7800L866.3800 797.7800L855.3200 797.7800Q853.7800 797.7800 853.0100 796.9400Q852.2400 796.1000 852.2400 794.7000L852.2400 794.7000Q852.3800 792.4600 854.1300 789.2400Q855.8800 786.0200 859.4500 783.0100Q863.0200 780 868.7600 777.9000Q874.5000 775.8000 882.6200 775.8000L882.6200 775.8000Q891.4400 775.8000 897.5300 777.9700Q903.6200 780.1400 907.2600 783.7800Q910.9000 787.4200 912.5800 792.3200Q914.2600 797.2200 914.2600 802.6800L914.2600 802.6800L914.2600 846.6400Q914.2600 848.0400 913.2800 849.0200Q912.3000 850 910.9000 850L910.9000 850L899.5600 850Q898.0200 850 897.1100 849.0200Q896.2000 848.0400 896.2000 846.6400L896.2000 846.6400L896.2000 841.1800Q894.3800 843.7000 891.3000 846.0800Q888.2200 848.4600 883.8100 849.9300Q879.4000 851.4000 873.3800 851.4000ZM878.1400 838.1000L878.1400 838.1000Q883.0400 838.1000 887.0300 836Q891.0200 833.9000 893.3300 829.4900Q895.6400 825.0800 895.6400 818.3600L895.6400 818.3600L895.6400 815.4200L881.6400 817.6600Q873.3800 818.9200 869.3200 821.7200Q865.2600 824.5200 865.2600 828.5800L865.2600 828.5800Q865.2600 831.6600 867.1500 833.8300Q869.0400 836 871.9800 837.0500Q874.9200 838.1000 878.1400 838.1000Z" id="title"/></g></svg>