<svg xmlns="http://www.w3.org/2000/svg" version="1.1" xmlns:xlink="http://www.w3.org/1999/xlink" xmlns:svgjs="http://svgjs.dev/svgjs" viewBox="0 0 1920 1080" id="a5018836-6d20-4b7a-8b03-86c2335571a4"><g><rect width="1920" height="1080" fill="#4e0250"/></g><g fill="#645986"><path d="M2118.71 322.496C1962.88 381.696 1840.11 286.062 1731.68 201.315C1619.52 113.904 1545.13 63.1995 1455.92 97.0926C1366.11 131.212 1344.15 218.52 1318.91 358.127C1294.11 493.487 1265.8 646.514 1109.97 705.714C954.144 764.914 831.375 669.28 722.951 584.533C610.793 497.122 536.401 446.418 447.185 480.311C357.375 514.43 335.414 601.738 310.18 741.346C285.375 876.706 257.072 1029.73 101.242 1088.93C-54.5876 1148.13 -177.357 1052.5 -285.78 967.751C-397.344 880.114 -471.736 829.41 -561.547 863.529L-602 757.045C-446.17 697.845 -323.401 793.479 -214.977 878.225C-102.819 965.637 -28.4265 1016.34 60.7891 982.448C150.6 948.329 172.56 861.02 197.794 721.413C222.599 586.053 250.307 433.253 406.732 373.827C562.562 314.627 685.331 410.261 793.754 495.007C905.913 582.419 980.305 633.123 1069.52 599.23C1159.33 565.111 1181.29 477.802 1206.53 338.195C1231.33 202.835 1259.04 50.0347 1415.46 -9.39121C1571.89 -68.8172 1694.06 27.043 1802.49 111.789C1914.64 199.201 1989.04 249.905 2078.25 216.012L2118.71 322.496Z"/></g><g fill="#ffffff" opacity="0.2"><path d="M960.041 79C960.041 79 971.953 194.974 981.699 214.484C992.529 237.245 1064 247 1064 247C1064 247 994.694 258.923 983.865 280.6C973.036 301.194 958.959 415 958.959 415C958.959 415 945.964 296.858 935.135 275.181C925.389 255.671 855 245.916 855 245.916C855 245.916 925.389 233.994 936.218 212.316C947.047 192.806 960.041 79 960.041 79Z"/><path d="M561.041 687C561.041 687 572.953 802.974 582.699 822.484C593.529 845.245 665 855 665 855C665 855 595.694 866.923 584.865 888.6C574.036 909.194 559.959 1023 559.959 1023C559.959 1023 546.964 904.858 536.135 883.181C526.389 863.671 456 853.916 456 853.916C456 853.916 526.389 841.994 537.218 820.316C548.047 800.806 561.041 687 561.041 687Z"/></g><g><path d="M178.635 139.281L184.422 144.246V166.626H215.704L219.958 172.147L215.69 177.397H184.422V198.795L178.635 203.747L173 198.795V144.232L178.635 139.281ZM195.554 195.68H219.406L223.397 200.915L219.143 206.45H195.554L191.7 201.342L195.554 195.68ZM196.382 138H219.129L223.383 143.52L219.129 148.77H196.659L192.115 143.677L196.382 138ZM323.155 148.628L328.251 154.291L323.155 159.968H246.13L241.172 154.291L246.13 148.628H323.155ZM237.043 172.147L241.849 167.893L246.669 172.147V178.393C246.669 188.879 249.417 197.515 261.668 197.515H264.14C275.147 197.515 281.197 189.86 281.197 177.952V172.005L285.879 167.75L290.699 171.862V178.379C290.699 189.007 293.723 196.946 305.56 196.946H307.618C319.178 196.946 321.235 187.869 321.373 177.952V171.578L326.056 167.608L331 171.72V178.094C330.862 191.838 327.285 207.574 308.032 207.574H305.974C294.552 207.574 288.365 202.324 285.892 195.808C283.006 202.466 275.299 208.286 264.844 208.286H262.358C242.553 208.286 237.194 195.964 237.056 178.663V172.147H237.043ZM276.391 274.744L273.642 267.089L280.796 264.969L305.974 276.721V252.491L311.07 248.095L316.291 252.491V281.829L325.641 286.226L328.251 293.311L320.959 296L276.391 274.744ZM321.235 223.011L328.113 226.27L325.917 233.497L264.002 263.119L256.571 260.146L259.596 252.776L321.235 223.011ZM231.905 263.404L237.954 268.512C237.402 286.51 222.403 296 204.669 296H202.874C194.062 296 183.759 292.6 177.157 286.083L177.834 278.855L184.298 278.002C189.118 282.256 195.858 285.229 202.183 285.229H204.117C216.091 285.229 225.303 280.136 226.27 268.085L231.905 263.404ZM226.256 251.638C225.704 239.16 216.629 234.209 204.103 234.209H202.169C194.739 234.209 189.104 237.182 184.284 241.436L177.834 240.583L177.143 233.355C183.745 226.696 192.957 223.58 202.597 223.58H204.517C222.403 223.58 237.402 232.942 237.94 251.211L231.891 256.176L226.256 251.638Z" fill="#ffffff"/></g><g fill="#ffffff" id="info-group"><path d="M167.0800 640L154.9000 640Q153.7800 640 152.8700 639.1600Q151.9600 638.3200 151.9600 637.0600L151.9600 637.0600Q151.9600 636.5000 152.2400 635.8000L152.2400 635.8000L185.9800 545.5000Q186.4000 544.1000 187.5900 543.0500Q188.7800 542 190.8800 542L190.8800 542L206.1400 542Q208.2400 542 209.3600 543.0500Q210.4800 544.1000 211.0400 545.5000L211.0400 545.5000L244.7800 635.8000Q244.9200 636.5000 244.9200 637.0600L244.9200 637.0600Q244.9200 638.3200 244.0800 639.1600Q243.2400 640 242.1200 640L242.1200 640L229.9400 640Q227.9800 640 227.0700 639.0900Q226.1600 638.1800 225.8800 637.3400L225.8800 637.3400L219.3000 620.2600L177.7200 620.2600L171.1400 637.3400Q170.8600 638.1800 169.9500 639.0900Q169.0400 640 167.0800 640L167.0800 640ZM198.4400 560.9000L182.6200 604.1600L214.4000 604.1600L198.4400 560.9000ZM283.2800 641.4000L283.2800 641.4000Q274.7400 641.4000 268.5100 637.5500Q262.2800 633.7000 258.9200 626.6300Q255.5600 619.5600 255.5600 609.9000L255.5600 609.9000L255.5600 570.5600Q255.5600 569.1600 256.5400 568.1800Q257.5200 567.2000 258.9200 567.2000L258.9200 567.2000L271.2400 567.2000Q272.7800 567.2000 273.6900 568.1800Q274.6000 569.1600 274.6000 570.5600L274.6000 570.5600L274.6000 609.0600Q274.6000 626.4200 289.8600 626.4200L289.8600 626.4200Q297.1400 626.4200 301.4100 621.8000Q305.6800 617.1800 305.6800 609.0600L305.6800 609.0600L305.6800 570.5600Q305.6800 569.1600 306.6600 568.1800Q307.6400 567.2000 309.0400 567.2000L309.0400 567.2000L321.3600 567.2000Q322.7600 567.2000 323.7400 568.1800Q324.7200 569.1600 324.7200 570.5600L324.7200 570.5600L324.7200 636.6400Q324.7200 638.0400 323.7400 639.0200Q322.7600 640 321.3600 640L321.3600 640L310.0200 640Q308.4800 640 307.5700 639.0200Q306.6600 638.0400 306.6600 636.6400L306.6600 636.6400L306.6600 630.9000Q302.8800 635.8000 297.2800 638.6000Q291.6800 641.4000 283.2800 641.4000ZM358.3200 640L346.7000 640Q345.3000 640 344.3200 639.0200Q343.3400 638.0400 343.3400 636.6400L343.3400 636.6400L343.3400 543.9600Q343.3400 542.5600 344.3200 541.5800Q345.3000 540.6000 346.7000 540.6000L346.7000 540.6000L358.3200 540.6000Q359.7200 540.6000 360.7000 541.5800Q361.6800 542.5600 361.6800 543.9600L361.6800 543.9600L361.6800 636.6400Q361.6800 638.0400 360.7000 639.0200Q359.7200 640 358.3200 640L358.3200 640ZM401.4400 641.4000L401.4400 641.4000Q394.1600 641.4000 388.2800 638.5300Q382.4000 635.6600 378.9700 630.8300Q375.5400 626 375.5400 619.9800L375.5400 619.9800Q375.5400 610.1800 383.5200 604.3700Q391.5000 598.5600 404.3800 596.6000L404.3800 596.6000L423.5600 593.8000L423.5600 590.8600Q423.5600 584.9800 420.6200 581.7600Q417.6800 578.5400 410.5400 578.5400L410.5400 578.5400Q405.5000 578.5400 402.3500 580.5700Q399.2000 582.6000 397.6600 585.9600L397.6600 585.9600Q396.5400 587.7800 394.4400 587.7800L394.4400 587.7800L383.3800 587.7800Q381.8400 587.7800 381.0700 586.9400Q380.3000 586.1000 380.3000 584.7000L380.3000 584.7000Q380.4400 582.4600 382.1900 579.2400Q383.9400 576.0200 387.5100 573.0100Q391.0800 570 396.8200 567.9000Q402.5600 565.8000 410.6800 565.8000L410.6800 565.8000Q419.5000 565.8000 425.5900 567.9700Q431.6800 570.1400 435.3200 573.7800Q438.9600 577.4200 440.6400 582.3200Q442.3200 587.2200 442.3200 592.6800L442.3200 592.6800L442.3200 636.6400Q442.3200 638.0400 441.3400 639.0200Q440.3600 640 438.9600 640L438.9600 640L427.6200 640Q426.0800 640 425.1700 639.0200Q424.2600 638.0400 424.2600 636.6400L424.2600 636.6400L424.2600 631.1800Q422.4400 633.7000 419.3600 636.0800Q416.2800 638.4600 411.8700 639.9300Q407.4600 641.4000 401.4400 641.4000ZM406.2000 628.1000L406.2000 628.1000Q411.1000 628.1000 415.0900 626Q419.0800 623.9000 421.3900 619.4900Q423.7000 615.0800 423.7000 608.3600L423.7000 608.3600L423.7000 605.4200L409.7000 607.6600Q401.4400 608.9200 397.3800 611.7200Q393.3200 614.5200 393.3200 618.5800L393.3200 618.5800Q393.3200 621.6600 395.2100 623.8300Q397.1000 626 400.0400 627.0500Q402.9800 628.1000 406.2000 628.1000ZM526.6000 641.4000L526.6000 641.4000Q516.8000 641.4000 509.6600 639.0200Q502.5200 636.6400 497.8300 632.7900Q493.1400 628.9400 490.7600 624.3900Q488.3800 619.8400 488.2400 615.3600L488.2400 615.3600Q488.2400 614.1000 489.1500 613.3300Q490.0600 612.5600 491.3200 612.5600L491.3200 612.5600L503.9200 612.5600Q505.3200 612.5600 506.3000 613.1200Q507.2800 613.6800 507.9800 615.3600L507.9800 615.3600Q509.2400 619.1400 512.1100 621.3800Q514.9800 623.6200 518.7600 624.5300Q522.5400 625.4400 526.7400 625.4400L526.7400 625.4400Q535.1400 625.4400 540.1100 621.4500Q545.0800 617.4600 545.0800 610.0400L545.0800 610.0400Q545.0800 602.6200 540.4600 599.3300Q535.8400 596.0400 527.5800 596.0400L527.5800 596.0400L513.1600 596.0400Q511.6200 596.0400 510.6400 595.1300Q509.6600 594.2200 509.6600 592.6800L509.6600 592.6800L509.6600 586.8000Q509.6600 585.4000 510.2900 584.3500Q510.9200 583.3000 511.6200 582.6000L511.6200 582.6000L536.6800 558.1000L496.6400 558.1000Q495.1000 558.1000 494.1900 557.1200Q493.2800 556.1400 493.2800 554.7400L493.2800 554.7400L493.2800 545.5000Q493.2800 543.9600 494.1900 542.9800Q495.1000 542 496.6400 542L496.6400 542L556.7000 542Q558.2400 542 559.2200 542.9800Q560.2000 543.9600 560.2000 545.5000L560.2000 545.5000L560.2000 553.9000Q560.2000 555.1600 559.6400 556.1400Q559.0800 557.1200 558.3800 557.8200L558.3800 557.8200L534.1600 582.7400L535.8400 582.8800Q544.3800 583.5800 551.0300 586.7300Q557.6800 589.8800 561.3900 595.9000Q565.1000 601.9200 565.1000 611.0200L565.1000 611.0200Q565.1000 620.5400 560.1300 627.3300Q555.1600 634.1200 546.4800 637.7600Q537.8000 641.4000 526.6000 641.4000ZM597.3000 591L583.4400 591Q582.0400 591 581.0600 590.0200Q580.0800 589.0400 580.0800 587.6400L580.0800 587.6400L580.0800 574.3400Q580.0800 572.8000 581.0600 571.8200Q582.0400 570.8400 583.4400 570.8400L583.4400 570.8400L597.3000 570.8400Q598.8400 570.8400 599.8200 571.8200Q600.8000 572.8000 600.8000 574.3400L600.8000 574.3400L600.8000 587.6400Q600.8000 589.0400 599.8200 590.0200Q598.8400 591 597.3000 591L597.3000 591ZM597.3000 640L583.4400 640Q582.0400 640 581.0600 639.0200Q580.0800 638.0400 580.0800 636.6400L580.0800 636.6400L580.0800 623.3400Q580.0800 621.8000 581.0600 620.8200Q582.0400 619.8400 583.4400 619.8400L583.4400 619.8400L597.3000 619.8400Q598.8400 619.8400 599.8200 620.8200Q600.8000 621.8000 600.8000 623.3400L600.8000 623.3400L600.8000 636.6400Q600.8000 638.0400 599.8200 639.0200Q598.8400 640 597.3000 640L597.3000 640ZM690.4000 641.4000L690.4000 641.4000Q677.3800 641.4000 668.3500 636.8500Q659.3200 632.3000 654.5600 623.8300Q649.8000 615.3600 649.2400 603.4600L649.2400 603.4600Q649.1000 597.7200 649.1000 591.1400Q649.1000 584.5600 649.2400 578.5400L649.2400 578.5400Q649.8000 566.7800 654.6300 558.2400Q659.4600 549.7000 668.4900 545.1500Q677.5200 540.6000 690.4000 540.6000L690.4000 540.6000Q699.9200 540.6000 707.4800 543.1200Q715.0400 545.6400 720.3600 550.0500Q725.6800 554.4600 728.6200 560.3400Q731.5600 566.2200 731.7000 573.0800L731.7000 573.0800Q731.8400 574.3400 730.9300 575.1800Q730.0200 576.0200 728.7600 576.0200L728.7600 576.0200L715.4600 576.0200Q713.9200 576.0200 712.9400 575.2500Q711.9600 574.4800 711.5400 572.6600L711.5400 572.6600Q709.3000 563.4200 703.8400 560.0600Q698.3800 556.7000 690.2600 556.7000L690.2600 556.7000Q680.8800 556.7000 675.2800 561.9500Q669.6800 567.2000 669.2600 579.2400L669.2600 579.2400Q668.8400 590.7200 669.2600 602.7600L669.2600 602.7600Q669.6800 614.8000 675.2800 620.0500Q680.8800 625.3000 690.2600 625.3000L690.2600 625.3000Q698.3800 625.3000 703.9100 621.8700Q709.4400 618.4400 711.5400 609.3400L711.5400 609.3400Q711.9600 607.3800 712.9400 606.6800Q713.9200 605.9800 715.4600 605.9800L715.4600 605.9800L728.7600 605.9800Q730.0200 605.9800 730.9300 606.8200Q731.8400 607.6600 731.7000 608.9200L731.7000 608.9200Q731.5600 615.7800 728.6200 621.6600Q725.6800 627.5400 720.3600 631.9500Q715.0400 636.3600 707.4800 638.8800Q699.9200 641.4000 690.4000 641.4000ZM778.8800 641.4000L778.8800 641.4000Q767.6800 641.4000 760.0500 637.4800Q752.4200 633.5600 748.4300 626.4200Q744.4400 619.2800 743.8800 609.7600L743.8800 609.7600Q743.7400 607.2400 743.7400 603.6000Q743.7400 599.9600 743.8800 597.4400L743.8800 597.4400Q744.4400 587.7800 748.5700 580.7100Q752.7000 573.6400 760.3300 569.7200Q767.9600 565.8000 778.8800 565.8000L778.8800 565.8000Q789.8000 565.8000 797.4300 569.7200Q805.0600 573.6400 809.1900 580.7100Q813.3200 587.7800 813.8800 597.4400L813.8800 597.4400Q814.0200 599.9600 814.0200 603.6000Q814.0200 607.2400 813.8800 609.7600L813.8800 609.7600Q813.3200 619.2800 809.3300 626.4200Q805.3400 633.5600 797.7100 637.4800Q790.0800 641.4000 778.8800 641.4000ZM778.8800 627.5400L778.8800 627.5400Q786.3000 627.5400 790.3600 622.8500Q794.4200 618.1600 794.8400 609.0600L794.8400 609.0600Q794.9800 606.9600 794.9800 603.6000Q794.9800 600.2400 794.8400 598.1400L794.8400 598.1400Q794.4200 589.0400 790.3600 584.3500Q786.3000 579.6600 778.8800 579.6600L778.8800 579.6600Q771.4600 579.6600 767.4000 584.3500Q763.3400 589.0400 762.9200 598.1400L762.9200 598.1400Q762.7800 600.2400 762.7800 603.6000Q762.7800 606.9600 762.9200 609.0600L762.9200 609.0600Q763.3400 618.1600 767.4000 622.8500Q771.4600 627.5400 778.8800 627.5400ZM845.1000 640L832.9200 640Q831.5200 640 830.5400 639.0200Q829.5600 638.0400 829.5600 636.6400L829.5600 636.6400L829.5600 570.7000Q829.5600 569.1600 830.5400 568.1800Q831.5200 567.2000 832.9200 567.2000L832.9200 567.2000L844.2600 567.2000Q845.6600 567.2000 846.7100 568.1800Q847.7600 569.1600 847.7600 570.7000L847.7600 570.7000L847.7600 576.4400Q850.9800 571.9600 856.0900 569.5800Q861.2000 567.2000 867.9200 567.2000L867.9200 567.2000L873.6600 567.2000Q875.2000 567.2000 876.1100 568.1800Q877.0200 569.1600 877.0200 570.5600L877.0200 570.5600L877.0200 580.6400Q877.0200 582.0400 876.1100 583.0200Q875.2000 584 873.6600 584L873.6600 584L862.7400 584Q856.0200 584 852.3100 587.7100Q848.6000 591.4200 848.6000 598.1400L848.6000 598.1400L848.6000 636.6400Q848.6000 638.0400 847.6200 639.0200Q846.6400 640 845.1000 640L845.1000 640ZM920.1400 641.4000L920.1400 641.4000Q908.9400 641.4000 901.3100 637.4800Q893.6800 633.5600 889.6900 626.4200Q885.7000 619.2800 885.1400 609.7600L885.1400 609.7600Q885 607.2400 885 603.6000Q885 599.9600 885.1400 597.4400L885.1400 597.4400Q885.7000 587.7800 889.8300 580.7100Q893.9600 573.6400 901.5900 569.7200Q909.2200 565.8000 920.1400 565.8000L920.1400 565.8000Q931.0600 565.8000 938.6900 569.7200Q946.3200 573.6400 950.4500 580.7100Q954.5800 587.7800 955.1400 597.4400L955.1400 597.4400Q955.2800 599.9600 955.2800 603.6000Q955.2800 607.2400 955.1400 609.7600L955.1400 609.7600Q954.5800 619.2800 950.5900 626.4200Q946.6000 633.5600 938.9700 637.4800Q931.3400 641.4000 920.1400 641.4000ZM920.1400 627.5400L920.1400 627.5400Q927.5600 627.5400 931.6200 622.8500Q935.6800 618.1600 936.1000 609.0600L936.1000 609.0600Q936.2400 606.9600 936.2400 603.6000Q936.2400 600.2400 936.1000 598.1400L936.1000 598.1400Q935.6800 589.0400 931.6200 584.3500Q927.5600 579.6600 920.1400 579.6600L920.1400 579.6600Q912.7200 579.6600 908.6600 584.3500Q904.6000 589.0400 904.1800 598.1400L904.1800 598.1400Q904.0400 600.2400 904.0400 603.6000Q904.0400 606.9600 904.1800 609.0600L904.1800 609.0600Q904.6000 618.1600 908.6600 622.8500Q912.7200 627.5400 920.1400 627.5400ZM997.8400 641.4000L997.8400 641.4000Q989.3000 641.4000 983.0700 637.5500Q976.8400 633.7000 973.4800 626.6300Q970.1200 619.5600 970.1200 609.9000L970.1200 609.9000L970.1200 570.5600Q970.1200 569.1600 971.1000 568.1800Q972.0800 567.2000 973.4800 567.2000L973.4800 567.2000L985.8000 567.2000Q987.3400 567.2000 988.2500 568.1800Q989.1600 569.1600 989.1600 570.5600L989.1600 570.5600L989.1600 609.0600Q989.1600 626.4200 1004.4200 626.4200L1004.4200 626.4200Q1011.7000 626.4200 1015.9700 621.8000Q1020.2400 617.1800 1020.2400 609.0600L1020.2400 609.0600L1020.2400 570.5600Q1020.2400 569.1600 1021.2200 568.1800Q1022.2000 567.2000 1023.6000 567.2000L1023.6000 567.2000L1035.9200 567.2000Q1037.3200 567.2000 1038.3000 568.1800Q1039.2800 569.1600 1039.2800 570.5600L1039.2800 570.5600L1039.2800 636.6400Q1039.2800 638.0400 1038.3000 639.0200Q1037.3200 640 1035.9200 640L1035.9200 640L1024.5800 640Q1023.0400 640 1022.1300 639.0200Q1021.2200 638.0400 1021.2200 636.6400L1021.2200 636.6400L1021.2200 630.9000Q1017.4400 635.8000 1011.8400 638.6000Q1006.2400 641.4000 997.8400 641.4000ZM1102 640L1090.6600 640Q1082.2600 640 1076.5200 637.0600Q1070.7800 634.1200 1067.9800 628.3100Q1065.1800 622.5000 1065.1800 613.8200L1065.1800 613.8200L1065.1800 582.0400L1054.1200 582.0400Q1052.7200 582.0400 1051.7400 581.0600Q1050.7600 580.0800 1050.7600 578.5400L1050.7600 578.5400L1050.7600 570.5600Q1050.7600 569.1600 1051.7400 568.1800Q1052.7200 567.2000 1054.1200 567.2000L1054.1200 567.2000L1065.1800 567.2000L1065.1800 543.9600Q1065.1800 542.5600 1066.0900 541.5800Q1067 540.6000 1068.5400 540.6000L1068.5400 540.6000L1079.8800 540.6000Q1081.2800 540.6000 1082.2600 541.5800Q1083.2400 542.5600 1083.2400 543.9600L1083.2400 543.9600L1083.2400 567.2000L1100.7400 567.2000Q1102.1400 567.2000 1103.1200 568.1800Q1104.1000 569.1600 1104.1000 570.5600L1104.1000 570.5600L1104.1000 578.5400Q1104.1000 580.0800 1103.1200 581.0600Q1102.1400 582.0400 1100.7400 582.0400L1100.7400 582.0400L1083.2400 582.0400L1083.2400 612.4200Q1083.2400 618.1600 1085.2700 621.3800Q1087.3000 624.6000 1092.3400 624.6000L1092.3400 624.6000L1102 624.6000Q1103.4000 624.6000 1104.3800 625.5800Q1105.3600 626.5600 1105.3600 627.9600L1105.3600 627.9600L1105.3600 636.6400Q1105.3600 638.0400 1104.3800 639.0200Q1103.4000 640 1102 640L1102 640ZM1132.8000 640L1121.1800 640Q1119.7800 640 1118.8000 639.0200Q1117.8200 638.0400 1117.8200 636.6400L1117.8200 636.6400L1117.8200 570.5600Q1117.8200 569.1600 1118.8000 568.1800Q1119.7800 567.2000 1121.1800 567.2000L1121.1800 567.2000L1132.8000 567.2000Q1134.3400 567.2000 1135.2500 568.1800Q1136.1600 569.1600 1136.1600 570.5600L1136.1600 570.5600L1136.1600 636.6400Q1136.1600 638.0400 1135.2500 639.0200Q1134.3400 640 1132.8000 640L1132.8000 640ZM1133.3600 555.1600L1120.6200 555.1600Q1119.2200 555.1600 1118.2400 554.1800Q1117.2600 553.2000 1117.2600 551.8000L1117.2600 551.8000L1117.2600 541.7200Q1117.2600 540.3200 1118.2400 539.3400Q1119.2200 538.3600 1120.6200 538.3600L1120.6200 538.3600L1133.3600 538.3600Q1134.9000 538.3600 1135.8800 539.3400Q1136.8600 540.3200 1136.8600 541.7200L1136.8600 541.7200L1136.8600 551.8000Q1136.8600 553.2000 1135.8800 554.1800Q1134.9000 555.1600 1133.3600 555.1600L1133.3600 555.1600ZM1170.4600 640L1158.1400 640Q1156.7400 640 1155.7600 639.0200Q1154.7800 638.0400 1154.7800 636.6400L1154.7800 636.6400L1154.7800 570.5600Q1154.7800 569.1600 1155.7600 568.1800Q1156.7400 567.2000 1158.1400 567.2000L1158.1400 567.2000L1169.6200 567.2000Q1171.0200 567.2000 1172 568.1800Q1172.9800 569.1600 1172.9800 570.5600L1172.9800 570.5600L1172.9800 576.3000Q1176.6200 571.8200 1182.2900 568.8100Q1187.9600 565.8000 1196.3600 565.8000L1196.3600 565.8000Q1204.9000 565.8000 1211.2000 569.6500Q1217.5000 573.5000 1220.9300 580.5000Q1224.3600 587.5000 1224.3600 597.3000L1224.3600 597.3000L1224.3600 636.6400Q1224.3600 638.0400 1223.3800 639.0200Q1222.4000 640 1221 640L1221 640L1208.6800 640Q1207.2800 640 1206.3000 639.0200Q1205.3200 638.0400 1205.3200 636.6400L1205.3200 636.6400L1205.3200 598.1400Q1205.3200 590.0200 1201.3300 585.4000Q1197.3400 580.7800 1189.7800 580.7800L1189.7800 580.7800Q1182.5000 580.7800 1178.1600 585.4000Q1173.8200 590.0200 1173.8200 598.1400L1173.8200 598.1400L1173.8200 636.6400Q1173.8200 638.0400 1172.8400 639.0200Q1171.8600 640 1170.4600 640L1170.4600 640ZM1273.5000 641.4000L1273.5000 641.4000Q1257.9600 641.4000 1248.8600 632.4400Q1239.7600 623.4800 1239.0600 606.9600L1239.0600 606.9600Q1238.9200 605.5600 1238.9200 603.3900Q1238.9200 601.2200 1239.0600 599.9600L1239.0600 599.9600Q1239.6200 589.3200 1243.8900 581.6900Q1248.1600 574.0600 1255.7200 569.9300Q1263.2800 565.8000 1273.5000 565.8000L1273.5000 565.8000Q1284.8400 565.8000 1292.5400 570.4900Q1300.2400 575.1800 1304.1600 583.5100Q1308.0800 591.8400 1308.0800 602.7600L1308.0800 602.7600L1308.0800 605.7000Q1308.0800 607.1000 1307.1000 608.0800Q1306.1200 609.0600 1304.5800 609.0600L1304.5800 609.0600L1258.1000 609.0600Q1258.1000 609.0600 1258.1000 609.4800Q1258.1000 609.9000 1258.1000 610.1800L1258.1000 610.1800Q1258.2400 615.0800 1259.9900 619.2100Q1261.7400 623.3400 1265.1700 625.8600Q1268.6000 628.3800 1273.3600 628.3800L1273.3600 628.3800Q1277.2800 628.3800 1279.9400 627.1900Q1282.6000 626 1284.2800 624.4600Q1285.9600 622.9200 1286.6600 621.9400L1286.6600 621.9400Q1287.9200 620.2600 1288.6900 619.9100Q1289.4600 619.5600 1291 619.5600L1291 619.5600L1303.0400 619.5600Q1304.4400 619.5600 1305.3500 620.4000Q1306.2600 621.2400 1306.1200 622.5000L1306.1200 622.5000Q1305.9800 624.7400 1303.8100 627.9600Q1301.6400 631.1800 1297.5800 634.2600Q1293.5200 637.3400 1287.4300 639.3700Q1281.3400 641.4000 1273.5000 641.4000ZM1258.1000 596.8800L1258.1000 597.3000L1289.0400 597.3000L1289.0400 596.8800Q1289.0400 591.4200 1287.2200 587.2900Q1285.4000 583.1600 1281.9000 580.8500Q1278.4000 578.5400 1273.5000 578.5400L1273.5000 578.5400Q1268.6000 578.5400 1265.1000 580.8500Q1261.6000 583.1600 1259.8500 587.2900Q1258.1000 591.4200 1258.1000 596.8800L1258.1000 596.8800ZM1350.5000 641.4000L1350.5000 641.4000Q1342.1000 641.4000 1336.1500 639.4400Q1330.2000 637.4800 1326.4200 634.5400Q1322.6400 631.6000 1320.8200 628.6600Q1319 625.7200 1318.8600 623.7600L1318.8600 623.7600Q1318.7200 622.2200 1319.7700 621.3100Q1320.8200 620.4000 1322.0800 620.4000L1322.0800 620.4000L1333.1400 620.4000Q1333.7000 620.4000 1334.1200 620.5400Q1334.5400 620.6800 1335.2400 621.3800L1335.2400 621.3800Q1337.0600 622.9200 1339.0900 624.6000Q1341.1200 626.2800 1343.9200 627.4700Q1346.7200 628.6600 1350.9200 628.6600L1350.9200 628.6600Q1356.3800 628.6600 1360.0900 626.4900Q1363.8000 624.3200 1363.8000 620.2600L1363.8000 620.2600Q1363.8000 617.3200 1362.1900 615.5000Q1360.5800 613.6800 1356.2400 612.2100Q1351.9000 610.7400 1343.9200 609.0600L1343.9200 609.0600Q1336.0800 607.2400 1330.9000 604.4400Q1325.7200 601.6400 1323.2000 597.4400Q1320.6800 593.2400 1320.6800 587.6400L1320.6800 587.6400Q1320.6800 582.1800 1323.9700 577.2100Q1327.2600 572.2400 1333.7700 569.0200Q1340.2800 565.8000 1349.9400 565.8000L1349.9400 565.8000Q1357.5000 565.8000 1363.1000 567.6900Q1368.7000 569.5800 1372.4100 572.3800Q1376.1200 575.1800 1378.0800 578.0500Q1380.0400 580.9200 1380.1800 583.0200L1380.1800 583.0200Q1380.3200 584.5600 1379.3400 585.4700Q1378.3600 586.3800 1377.1000 586.3800L1377.1000 586.3800L1366.7400 586.3800Q1366.0400 586.3800 1365.4800 586.1000Q1364.9200 585.8200 1364.3600 585.4000L1364.3600 585.4000Q1362.8200 584 1361 582.3900Q1359.1800 580.7800 1356.5900 579.6600Q1354 578.5400 1349.8000 578.5400L1349.8000 578.5400Q1344.4800 578.5400 1341.6800 580.8500Q1338.8800 583.1600 1338.8800 586.6600L1338.8800 586.6600Q1338.8800 589.0400 1340.2100 590.7900Q1341.5400 592.5400 1345.6000 594.0800Q1349.6600 595.6200 1357.9200 597.3000L1357.9200 597.3000Q1367.3000 598.9800 1372.8300 602.2700Q1378.3600 605.5600 1380.6700 609.8300Q1382.9800 614.1000 1382.9800 619.2800L1382.9800 619.2800Q1382.9800 625.5800 1379.2700 630.6200Q1375.5600 635.6600 1368.3500 638.5300Q1361.1400 641.4000 1350.5000 641.4000Z" id="title"/></g></svg>