<svg xmlns="http://www.w3.org/2000/svg" version="1.1" xmlns:xlink="http://www.w3.org/1999/xlink" xmlns:svgjs="http://svgjs.dev/svgjs" viewBox="0 0 1920 1080" id="01cd7ea9-2fea-444a-8eeb-b3c4006195f1"><g><rect width="1920" height="1080" fill="#511730"/></g><g fill="#8e443d"><path d="M528.139 1441.91C839.399 1514.3 1150.41 1320.65 1222.8 1009.39C1295.18 698.133 1101.54 387.125 790.279 314.737C479.019 242.349 168.011 435.993 95.6227 747.253C23.2348 1058.51 216.879 1369.52 528.139 1441.91Z"/></g><g fill="#ffffff" opacity="0.2"><path d="M1291.25 885.139C1353.46 858.886 1407.46 821.623 1452.27 776.616L1100.97 924.875C1164.47 924.172 1229.05 911.392 1291.25 885.139Z"/><path d="M1040.15 921.833L1492.72 730.839C1508.41 710.694 1522.29 689.649 1534.78 667.535L965.455 907.808C989.724 914.173 1014.78 919.021 1040.15 921.833Z"/><path d="M926.298 895.39L1553.2 630.818C1561.39 613.128 1568.35 594.771 1574.33 576.351L872.535 872.528C889.905 881.093 907.826 888.714 926.298 895.39Z"/><path d="M842.437 856.285L1583.49 543.54C1587.48 527.146 1590.7 510.604 1593.14 493.915L800.149 828.58C813.811 838.473 827.907 847.708 842.437 856.285Z"/><path d="M776.091 809.791L1596.46 463.571C1597.55 448.165 1598.15 432.728 1598.06 417.344L741.856 778.688C752.816 789.483 764.093 799.908 776.091 809.791Z"/><path d="M722.429 757.94L1596.95 388.865C1595.83 374.394 1594.21 359.891 1591.91 345.442L694.837 724.033C703.498 735.562 712.645 747.122 722.429 757.94Z"/><path d="M679.234 701.675L1586.78 318.666C1583.84 304.959 1580.21 291.306 1575.89 277.707L657.28 665.389C664.128 677.682 671.379 689.806 679.234 701.675Z"/><path d="M635.858 620.812C638.832 627.86 642.008 634.824 645.099 641.586L1567.14 252.46C1564.65 245.443 1561.67 238.395 1558.7 231.346C1556.15 225.305 1553.48 219.55 1550.82 213.795L628.781 602.921C631.045 608.846 633.308 614.771 635.858 620.812Z"/><path d="M620.023 577.674L1539.24 189.737C1532.51 177.157 1525.26 165.034 1517.69 153.281L608.94 536.8C611.793 550.305 615.707 564.074 620.023 577.674Z"/><path d="M603.604 510.106L1502.09 130.921C1493.54 119.106 1484.28 107.832 1474.7 96.9289L598.359 466.768C599.401 481.038 601.015 495.541 603.604 510.106Z"/><path d="M596.849 438.462L1455.67 76.0138C1444.83 64.9317 1433.55 54.5073 1421.84 44.7406L598.046 392.405C596.873 407.609 596.474 422.962 596.849 438.462Z"/><path d="M601.165 362.145L1397.98 25.8656C1384.52 15.8881 1370.34 6.4518 1356.1 -2.00908L610.415 312.69C606.339 328.883 603.323 345.339 601.165 362.145Z"/><path d="M619.172 280.05L1326.2 -18.3369C1308.95 -27.1879 1291.23 -34.8935 1273.24 -41.5387L639.695 225.837C631.709 243.442 625.069 261.428 619.172 280.05Z"/><path d="M1161.52 -69.119L697.88 126.549C682.794 146.438 669.394 167.514 657.426 189.173L1234.4 -54.3285C1210.74 -60.9484 1186.29 -66.0517 1161.52 -69.119Z"/><path d="M903.623 -33.3525C838.597 -5.90982 782.285 33.7509 736.316 81.6209L1102.51 -72.9251C1036.15 -73.3862 968.648 -60.7953 903.623 -33.3525Z"/></g><g><path d="M178.635 139.281L184.422 144.246V166.626H215.704L219.958 172.147L215.69 177.397H184.422V198.795L178.635 203.747L173 198.795V144.232L178.635 139.281ZM195.554 195.68H219.406L223.397 200.915L219.143 206.45H195.554L191.7 201.342L195.554 195.68ZM196.382 138H219.129L223.383 143.52L219.129 148.77H196.659L192.115 143.677L196.382 138ZM323.155 148.628L328.251 154.291L323.155 159.968H246.13L241.172 154.291L246.13 148.628H323.155ZM237.043 172.147L241.849 167.893L246.669 172.147V178.393C246.669 188.879 249.417 197.515 261.668 197.515H264.14C275.147 197.515 281.197 189.86 281.197 177.952V172.005L285.879 167.75L290.699 171.862V178.379C290.699 189.007 293.723 196.946 305.56 196.946H307.618C319.178 196.946 321.235 187.869 321.373 177.952V171.578L326.056 167.608L331 171.72V178.094C330.862 191.838 327.285 207.574 308.032 207.574H305.974C294.552 207.574 288.365 202.324 285.892 195.808C283.006 202.466 275.299 208.286 264.844 208.286H262.358C242.553 208.286 237.194 195.964 237.056 178.663V172.147H237.043ZM276.391 274.744L273.642 267.089L280.796 264.969L305.974 276.721V252.491L311.07 248.095L316.291 252.491V281.829L325.641 286.226L328.251 293.311L320.959 296L276.391 274.744ZM321.235 223.011L328.113 226.27L325.917 233.497L264.002 263.119L256.571 260.146L259.596 252.776L321.235 223.011ZM231.905 263.404L237.954 268.512C237.402 286.51 222.403 296 204.669 296H202.874C194.062 296 183.759 292.6 177.157 286.083L177.834 278.855L184.298 278.002C189.118 282.256 195.858 285.229 202.183 285.229H204.117C216.091 285.229 225.303 280.136 226.27 268.085L231.905 263.404ZM226.256 251.638C225.704 239.16 216.629 234.209 204.103 234.209H202.169C194.739 234.209 189.104 237.182 184.284 241.436L177.834 240.583L177.143 233.355C183.745 226.696 192.957 223.58 202.597 223.58H204.517C222.403 223.58 237.402 232.942 237.94 251.211L231.891 256.176L226.256 251.638Z" fill="#ffffff"/></g><path d="M1171 781L1171 339L1187 339L1187 781L1171 781Z" fill="#ffffff"/><g fill="#ffffff" id="info-group"><path d="M167.7300 600L159.1800 600Q158.2800 600 157.6500 599.3700Q157.0200 598.7400 157.0200 597.8400L157.0200 597.8400L157.0200 539.2500Q157.0200 538.2600 157.6500 537.6300Q158.2800 537 159.1800 537L159.1800 537L183.3000 537Q190.3200 537 195.5400 539.2050Q200.7600 541.4100 203.6400 545.8650Q206.5200 550.3200 206.5200 556.9800L206.5200 556.9800Q206.5200 563.7300 203.6400 568.0950Q200.7600 572.4600 195.5400 574.6200Q190.3200 576.7800 183.3000 576.7800L183.3000 576.7800L169.8900 576.7800L169.8900 597.8400Q169.8900 598.7400 169.3050 599.3700Q168.7200 600 167.7300 600L167.7300 600ZM169.7100 546.9900L169.7100 566.7900L182.8500 566.7900Q188.0700 566.7900 190.8600 564.3150Q193.6500 561.8400 193.6500 556.9800L193.6500 556.9800Q193.6500 552.4800 191.0400 549.7350Q188.4300 546.9900 182.8500 546.9900L182.8500 546.9900L169.7100 546.9900ZM225.2400 600L217.4100 600Q216.5100 600 215.8800 599.3700Q215.2500 598.7400 215.2500 597.8400L215.2500 597.8400L215.2500 555.4500Q215.2500 554.4600 215.8800 553.8300Q216.5100 553.2000 217.4100 553.2000L217.4100 553.2000L224.7000 553.2000Q225.6000 553.2000 226.2750 553.8300Q226.9500 554.4600 226.9500 555.4500L226.9500 555.4500L226.9500 559.1400Q229.0200 556.2600 232.3050 554.7300Q235.5900 553.2000 239.9100 553.2000L239.9100 553.2000L243.6000 553.2000Q244.5900 553.2000 245.1750 553.8300Q245.7600 554.4600 245.7600 555.3600L245.7600 555.3600L245.7600 561.8400Q245.7600 562.7400 245.1750 563.3700Q244.5900 564 243.6000 564L243.6000 564L236.5800 564Q232.2600 564 229.8750 566.3850Q227.4900 568.7700 227.4900 573.0900L227.4900 573.0900L227.4900 597.8400Q227.4900 598.7400 226.8600 599.3700Q226.2300 600 225.2400 600L225.2400 600ZM273.4800 600.9000L273.4800 600.9000Q266.2800 600.9000 261.3750 598.3800Q256.4700 595.8600 253.9050 591.2700Q251.3400 586.6800 250.9800 580.5600L250.9800 580.5600Q250.8900 578.9400 250.8900 576.6000Q250.8900 574.2600 250.9800 572.6400L250.9800 572.6400Q251.3400 566.4300 253.9950 561.8850Q256.6500 557.3400 261.5550 554.8200Q266.4600 552.3000 273.4800 552.3000L273.4800 552.3000Q280.5000 552.3000 285.4050 554.8200Q290.3100 557.3400 292.9650 561.8850Q295.6200 566.4300 295.9800 572.6400L295.9800 572.6400Q296.0700 574.2600 296.0700 576.6000Q296.0700 578.9400 295.9800 580.5600L295.9800 580.5600Q295.6200 586.6800 293.0550 591.2700Q290.4900 595.8600 285.5850 598.3800Q280.6800 600.9000 273.4800 600.9000ZM273.4800 591.9900L273.4800 591.9900Q278.2500 591.9900 280.8600 588.9750Q283.4700 585.9600 283.7400 580.1100L283.7400 580.1100Q283.8300 578.7600 283.8300 576.6000Q283.8300 574.4400 283.7400 573.0900L283.7400 573.0900Q283.4700 567.2400 280.8600 564.2250Q278.2500 561.2100 273.4800 561.2100L273.4800 561.2100Q268.7100 561.2100 266.1000 564.2250Q263.4900 567.2400 263.2200 573.0900L263.2200 573.0900Q263.1300 574.4400 263.1300 576.6000Q263.1300 578.7600 263.2200 580.1100L263.2200 580.1100Q263.4900 585.9600 266.1000 588.9750Q268.7100 591.9900 273.4800 591.9900ZM301.7400 617.1000L298.3200 617.1000Q297.4200 617.1000 296.7900 616.4700Q296.1600 615.8400 296.1600 614.9400L296.1600 614.9400L296.1600 609.7200Q296.1600 608.8200 296.7900 608.1900Q297.4200 607.5600 298.3200 607.5600L298.3200 607.5600L300.6600 607.5600Q303.4500 607.5600 304.8000 606.5700Q306.1500 605.5800 306.6000 603.8250Q307.0500 602.0700 307.0500 599.9100L307.0500 599.9100L307.0500 555.3600Q307.0500 554.4600 307.6800 553.8300Q308.3100 553.2000 309.2100 553.2000L309.2100 553.2000L317.0400 553.2000Q317.9400 553.2000 318.5700 553.8300Q319.2000 554.4600 319.2000 555.3600L319.2000 555.3600L319.2000 600.0900Q319.2000 605.4000 317.2650 609.1800Q315.3300 612.9600 311.5050 615.0300Q307.6800 617.1000 301.7400 617.1000L301.7400 617.1000ZM317.3100 545.4600L308.8500 545.4600Q307.8600 545.4600 307.2750 544.8300Q306.6900 544.2000 306.6900 543.3000L306.6900 543.3000L306.6900 536.8200Q306.6900 535.9200 307.2750 535.2900Q307.8600 534.6600 308.8500 534.6600L308.8500 534.6600L317.3100 534.6600Q318.3000 534.6600 318.9300 535.2900Q319.5600 535.9200 319.5600 536.8200L319.5600 536.8200L319.5600 543.3000Q319.5600 544.2000 318.9300 544.8300Q318.3000 545.4600 317.3100 545.4600L317.3100 545.4600ZM351.3300 600.9000L351.3300 600.9000Q341.3400 600.9000 335.4900 595.1400Q329.6400 589.3800 329.1900 578.7600L329.1900 578.7600Q329.1000 577.8600 329.1000 576.4650Q329.1000 575.0700 329.1900 574.2600L329.1900 574.2600Q329.5500 567.4200 332.2950 562.5150Q335.0400 557.6100 339.9000 554.9550Q344.7600 552.3000 351.3300 552.3000L351.3300 552.3000Q358.6200 552.3000 363.5700 555.3150Q368.5200 558.3300 371.0400 563.6850Q373.5600 569.0400 373.5600 576.0600L373.5600 576.0600L373.5600 577.9500Q373.5600 578.8500 372.9300 579.4800Q372.3000 580.1100 371.3100 580.1100L371.3100 580.1100L341.4300 580.1100Q341.4300 580.1100 341.4300 580.3800Q341.4300 580.6500 341.4300 580.8300L341.4300 580.8300Q341.5200 583.9800 342.6450 586.6350Q343.7700 589.2900 345.9750 590.9100Q348.1800 592.5300 351.2400 592.5300L351.2400 592.5300Q353.7600 592.5300 355.4700 591.7650Q357.1800 591 358.2600 590.0100Q359.3400 589.0200 359.7900 588.3900L359.7900 588.3900Q360.6000 587.3100 361.0950 587.0850Q361.5900 586.8600 362.5800 586.8600L362.5800 586.8600L370.3200 586.8600Q371.2200 586.8600 371.8050 587.4000Q372.3900 587.9400 372.3000 588.7500L372.3000 588.7500Q372.2100 590.1900 370.8150 592.2600Q369.4200 594.3300 366.8100 596.3100Q364.2000 598.2900 360.2850 599.5950Q356.3700 600.9000 351.3300 600.9000ZM341.4300 572.2800L341.4300 572.5500L361.3200 572.5500L361.3200 572.2800Q361.3200 568.7700 360.1500 566.1150Q358.9800 563.4600 356.7300 561.9750Q354.4800 560.4900 351.3300 560.4900L351.3300 560.4900Q348.1800 560.4900 345.9300 561.9750Q343.6800 563.4600 342.5550 566.1150Q341.4300 568.7700 341.4300 572.2800L341.4300 572.2800ZM411.5400 600L404.2500 600Q398.8500 600 395.1600 598.1100Q391.4700 596.2200 389.6700 592.4850Q387.8700 588.7500 387.8700 583.1700L387.8700 583.1700L387.8700 562.7400L380.7600 562.7400Q379.8600 562.7400 379.2300 562.1100Q378.6000 561.4800 378.6000 560.4900L378.6000 560.4900L378.6000 555.3600Q378.6000 554.4600 379.2300 553.8300Q379.8600 553.2000 380.7600 553.2000L380.7600 553.2000L387.8700 553.2000L387.8700 538.2600Q387.8700 537.3600 388.4550 536.7300Q389.0400 536.1000 390.0300 536.1000L390.0300 536.1000L397.3200 536.1000Q398.2200 536.1000 398.8500 536.7300Q399.4800 537.3600 399.4800 538.2600L399.4800 538.2600L399.4800 553.2000L410.7300 553.2000Q411.6300 553.2000 412.2600 553.8300Q412.8900 554.4600 412.8900 555.3600L412.8900 555.3600L412.8900 560.4900Q412.8900 561.4800 412.2600 562.1100Q411.6300 562.7400 410.7300 562.7400L410.7300 562.7400L399.4800 562.7400L399.4800 582.2700Q399.4800 585.9600 400.7850 588.0300Q402.0900 590.1000 405.3300 590.1000L405.3300 590.1000L411.5400 590.1000Q412.4400 590.1000 413.0700 590.7300Q413.7000 591.3600 413.7000 592.2600L413.7000 592.2600L413.7000 597.8400Q413.7000 598.7400 413.0700 599.3700Q412.4400 600 411.5400 600L411.5400 600ZM442.4100 600.9000L442.4100 600.9000Q435.2100 600.9000 430.3050 598.3800Q425.4000 595.8600 422.8350 591.2700Q420.2700 586.6800 419.9100 580.5600L419.9100 580.5600Q419.8200 578.9400 419.8200 576.6000Q419.8200 574.2600 419.9100 572.6400L419.9100 572.6400Q420.2700 566.4300 422.9250 561.8850Q425.5800 557.3400 430.4850 554.8200Q435.3900 552.3000 442.4100 552.3000L442.4100 552.3000Q449.4300 552.3000 454.3350 554.8200Q459.2400 557.3400 461.8950 561.8850Q464.5500 566.4300 464.9100 572.6400L464.9100 572.6400Q465.0000 574.2600 465.0000 576.6000Q465.0000 578.9400 464.9100 580.5600L464.9100 580.5600Q464.5500 586.6800 461.9850 591.2700Q459.4200 595.8600 454.5150 598.3800Q449.6100 600.9000 442.4100 600.9000ZM442.4100 591.9900L442.4100 591.9900Q447.1800 591.9900 449.7900 588.9750Q452.4000 585.9600 452.6700 580.1100L452.6700 580.1100Q452.7600 578.7600 452.7600 576.6000Q452.7600 574.4400 452.6700 573.0900L452.6700 573.0900Q452.4000 567.2400 449.7900 564.2250Q447.1800 561.2100 442.4100 561.2100L442.4100 561.2100Q437.6400 561.2100 435.0300 564.2250Q432.4200 567.2400 432.1500 573.0900L432.1500 573.0900Q432.0600 574.4400 432.0600 576.6000Q432.0600 578.7600 432.1500 580.1100L432.1500 580.1100Q432.4200 585.9600 435.0300 588.9750Q437.6400 591.9900 442.4100 591.9900ZM522.7800 600L514.5900 600Q513.6000 600 513.0150 599.3700Q512.4300 598.7400 512.4300 597.8400L512.4300 597.8400L512.4300 551.2200L498.7500 561.7500Q497.9400 562.2900 497.1300 562.1550Q496.3200 562.0200 495.6900 561.2100L495.6900 561.2100L491.9100 556.3500Q491.3700 555.5400 491.5050 554.6400Q491.6400 553.7400 492.4500 553.2000L492.4500 553.2000L512.6100 537.6300Q513.1500 537.1800 513.6900 537.0900Q514.2300 537 514.8600 537L514.8600 537L522.7800 537Q523.6800 537 524.3100 537.6300Q524.9400 538.2600 524.9400 539.1600L524.9400 539.1600L524.9400 597.8400Q524.9400 598.7400 524.3100 599.3700Q523.6800 600 522.7800 600L522.7800 600Z" id="title"/><path d="M1433.4400 652.6400L1433.4400 652.6400Q1412.8000 652.6400 1398.6400 645.8000Q1384.4800 638.9600 1377.1600 627.9200Q1369.8400 616.8800 1369.3600 604.4000L1369.3600 604.4000Q1369.1200 602.2400 1370.6800 600.9200Q1372.2400 599.6000 1374.4000 599.6000L1374.4000 599.6000L1396.7200 599.6000Q1399.3600 599.6000 1401.1600 600.6800Q1402.9600 601.7600 1403.9200 604.4000L1403.9200 604.4000Q1406.3200 611.6000 1410.7600 616.1600Q1415.2000 620.7200 1421.0800 622.8800Q1426.9600 625.0400 1433.4400 625.0400L1433.4400 625.0400Q1442.0800 625.0400 1449.1600 621.5600Q1456.2400 618.0800 1460.5600 611.1200Q1464.8800 604.1600 1464.8800 594.0800L1464.8800 594.0800Q1464.8800 585.2000 1460.8000 578.7200Q1456.7200 572.2400 1449.6400 568.5200Q1442.5600 564.8000 1433.4400 564.8000L1433.4400 564.8000Q1426.7200 564.8000 1422.4000 566.4800Q1418.0800 568.1600 1415.0800 570.3200Q1412.0800 572.4800 1409.8000 574.1600Q1407.5200 575.8400 1404.6400 575.8400L1404.6400 575.8400L1382.5600 575.8400Q1380.4000 575.8400 1378.8400 574.2800Q1377.2800 572.7200 1377.2800 570.5600L1377.2800 570.5600L1385.6800 488.4800Q1385.9200 485.3600 1387.8400 483.6800Q1389.7600 482 1392.4000 482L1392.4000 482L1482.6400 482Q1485.0400 482 1486.7200 483.6800Q1488.4000 485.3600 1488.4000 487.7600L1488.4000 487.7600L1488.4000 503.8400Q1488.4000 506.2400 1486.7200 507.9200Q1485.0400 509.6000 1482.6400 509.6000L1482.6400 509.6000L1413.2800 509.6000L1409.4400 548.7200Q1413.7600 545.8400 1420.9600 543.2000Q1428.1600 540.5600 1440.8800 540.5600L1440.8800 540.5600Q1452.4000 540.5600 1462.8400 544.2800Q1473.2800 548 1481.4400 555.0800Q1489.6000 562.1600 1494.2800 572.1200Q1498.9600 582.0800 1498.9600 594.8000L1498.9600 594.8000Q1498.9600 612.3200 1490.8000 625.2800Q1482.6400 638.2400 1468 645.4400Q1453.3600 652.6400 1433.4400 652.6400ZM1551.2800 650L1527.2800 650Q1524.8800 650 1523.2000 648.3200Q1521.5200 646.6400 1521.5200 644.2400L1521.5200 644.2400L1521.5200 620.4800Q1521.5200 617.8400 1523.2000 616.1600Q1524.8800 614.4800 1527.2800 614.4800L1527.2800 614.4800L1551.2800 614.4800Q1553.6800 614.4800 1555.3600 616.1600Q1557.0400 617.8400 1557.0400 620.4800L1557.0400 620.4800L1557.0400 644.2400Q1557.0400 646.6400 1555.3600 648.3200Q1553.6800 650 1551.2800 650L1551.2800 650ZM1646.0800 652.4000L1646.0800 652.4000Q1629.2800 652.4000 1617.0400 648.3200Q1604.8000 644.2400 1596.7600 637.6400Q1588.7200 631.0400 1584.6400 623.2400Q1580.5600 615.4400 1580.3200 607.7600L1580.3200 607.7600Q1580.3200 605.6000 1581.8800 604.2800Q1583.4400 602.9600 1585.6000 602.9600L1585.6000 602.9600L1607.2000 602.9600Q1609.6000 602.9600 1611.2800 603.9200Q1612.9600 604.8800 1614.1600 607.7600L1614.1600 607.7600Q1616.3200 614.2400 1621.2400 618.0800Q1626.1600 621.9200 1632.6400 623.4800Q1639.1200 625.0400 1646.3200 625.0400L1646.3200 625.0400Q1660.7200 625.0400 1669.2400 618.2000Q1677.7600 611.3600 1677.7600 598.6400L1677.7600 598.6400Q1677.7600 585.9200 1669.8400 580.2800Q1661.9200 574.6400 1647.7600 574.6400L1647.7600 574.6400L1623.0400 574.6400Q1620.4000 574.6400 1618.7200 573.0800Q1617.0400 571.5200 1617.0400 568.8800L1617.0400 568.8800L1617.0400 558.8000Q1617.0400 556.4000 1618.1200 554.6000Q1619.2000 552.8000 1620.4000 551.6000L1620.4000 551.6000L1663.3600 509.6000L1594.7200 509.6000Q1592.0800 509.6000 1590.5200 507.9200Q1588.9600 506.2400 1588.9600 503.8400L1588.9600 503.8400L1588.9600 488Q1588.9600 485.3600 1590.5200 483.6800Q1592.0800 482 1594.7200 482L1594.7200 482L1697.6800 482Q1700.3200 482 1702.0000 483.6800Q1703.6800 485.3600 1703.6800 488L1703.6800 488L1703.6800 502.4000Q1703.6800 504.5600 1702.7200 506.2400Q1701.7600 507.9200 1700.5600 509.1200L1700.5600 509.1200L1659.0400 551.8400L1661.9200 552.0800Q1676.5600 553.2800 1687.9600 558.6800Q1699.3600 564.0800 1705.7200 574.4000Q1712.0800 584.7200 1712.0800 600.3200L1712.0800 600.3200Q1712.0800 616.6400 1703.5600 628.2800Q1695.0400 639.9200 1680.1600 646.1600Q1665.2800 652.4000 1646.0800 652.4000Z" id="lecture-full-number"/></g></svg>