<svg xmlns="http://www.w3.org/2000/svg" version="1.1" xmlns:xlink="http://www.w3.org/1999/xlink" xmlns:svgjs="http://svgjs.dev/svgjs" viewBox="0 0 1920 1080" id="c603180c-d70f-4a5f-9fe6-b64f118b831b"><g><rect width="1920" height="1080" fill="#798086"/></g><g fill="#b949a4"><path d="M969.5 217C561.465 217 231 547.465 231 955.5C231 1363.53 561.465 1694 969.5 1694C1377.53 1694 1708 1363.53 1708 955.5C1708 547.465 1377.53 217 969.5 217ZM969.5 1309.34C773.983 1309.34 615.658 1151.02 615.658 955.5C615.658 759.983 773.983 601.658 969.5 601.658C1165.02 601.658 1323.34 759.983 1323.34 955.5C1323.34 1151.02 1165.02 1309.34 969.5 1309.34Z"/></g><g fill="#ffffff" opacity="0.2"><path d="M1432 918.479L1616.48 734V918.479H1432Z"/><path d="M1616.48 918.479L1800.52 734V918.479H1616.48Z"/><path d="M1800.52 918.479L1985 734V918.479H1800.52Z"/><path d="M1432 1102.52L1616.48 918.479V1102.52H1432Z"/><path d="M1616.48 1102.52L1800.52 918.479V1102.52H1616.48Z"/><path d="M1800.52 1102.52L1985 918.479V1102.52H1800.52Z"/><path d="M499 154.521L683.479 -29.5215V154.521H499Z"/><path d="M683.479 154.521L867.521 -29.5215V154.521H683.479Z"/><path d="M867.521 154.521L1052 -29.5215V154.521H867.521Z"/><path d="M499 339L683.479 154.521V339H499Z"/><path d="M683.479 339L867.521 154.521V339H683.479Z"/><path d="M867.521 339L1052 154.521V339H867.521Z"/></g><g><path d="M178.635 139.281L184.422 144.246V166.626H215.704L219.958 172.147L215.69 177.397H184.422V198.795L178.635 203.747L173 198.795V144.232L178.635 139.281ZM195.554 195.68H219.406L223.397 200.915L219.143 206.45H195.554L191.7 201.342L195.554 195.68ZM196.382 138H219.129L223.383 143.52L219.129 148.77H196.659L192.115 143.677L196.382 138ZM323.155 148.628L328.251 154.291L323.155 159.968H246.13L241.172 154.291L246.13 148.628H323.155ZM237.043 172.147L241.849 167.893L246.669 172.147V178.393C246.669 188.879 249.417 197.515 261.668 197.515H264.14C275.147 197.515 281.197 189.86 281.197 177.952V172.005L285.879 167.75L290.699 171.862V178.379C290.699 189.007 293.723 196.946 305.56 196.946H307.618C319.178 196.946 321.235 187.869 321.373 177.952V171.578L326.056 167.608L331 171.72V178.094C330.862 191.838 327.285 207.574 308.032 207.574H305.974C294.552 207.574 288.365 202.324 285.892 195.808C283.006 202.466 275.299 208.286 264.844 208.286H262.358C242.553 208.286 237.194 195.964 237.056 178.663V172.147H237.043ZM276.391 274.744L273.642 267.089L280.796 264.969L305.974 276.721V252.491L311.07 248.095L316.291 252.491V281.829L325.641 286.226L328.251 293.311L320.959 296L276.391 274.744ZM321.235 223.011L328.113 226.27L325.917 233.497L264.002 263.119L256.571 260.146L259.596 252.776L321.235 223.011ZM231.905 263.404L237.954 268.512C237.402 286.51 222.403 296 204.669 296H202.874C194.062 296 183.759 292.6 177.157 286.083L177.834 278.855L184.298 278.002C189.118 282.256 195.858 285.229 202.183 285.229H204.117C216.091 285.229 225.303 280.136 226.27 268.085L231.905 263.404ZM226.256 251.638C225.704 239.16 216.629 234.209 204.103 234.209H202.169C194.739 234.209 189.104 237.182 184.284 241.436L177.834 240.583L177.143 233.355C183.745 226.696 192.957 223.58 202.597 223.58H204.517C222.403 223.58 237.402 232.942 237.94 251.211L231.891 256.176L226.256 251.638Z" fill="#ffffff"/></g><g fill="#ffffff" id="info-group"><path d="M167.0800 570L154.9000 570Q153.7800 570 152.8700 569.1600Q151.9600 568.3200 151.9600 567.0600L151.9600 567.0600Q151.9600 566.5000 152.2400 565.8000L152.2400 565.8000L185.9800 475.5000Q186.4000 474.1000 187.5900 473.0500Q188.7800 472 190.8800 472L190.8800 472L206.1400 472Q208.2400 472 209.3600 473.0500Q210.4800 474.1000 211.0400 475.5000L211.0400 475.5000L244.7800 565.8000Q244.9200 566.5000 244.9200 567.0600L244.9200 567.0600Q244.9200 568.3200 244.0800 569.1600Q243.2400 570 242.1200 570L242.1200 570L229.9400 570Q227.9800 570 227.0700 569.0900Q226.1600 568.1800 225.8800 567.3400L225.8800 567.3400L219.3000 550.2600L177.7200 550.2600L171.1400 567.3400Q170.8600 568.1800 169.9500 569.0900Q169.0400 570 167.0800 570L167.0800 570ZM198.4400 490.9000L182.6200 534.1600L214.4000 534.1600L198.4400 490.9000ZM283.2800 571.4000L283.2800 571.4000Q274.7400 571.4000 268.5100 567.5500Q262.2800 563.7000 258.9200 556.6300Q255.5600 549.5600 255.5600 539.9000L255.5600 539.9000L255.5600 500.5600Q255.5600 499.1600 256.5400 498.1800Q257.5200 497.2000 258.9200 497.2000L258.9200 497.2000L271.2400 497.2000Q272.7800 497.2000 273.6900 498.1800Q274.6000 499.1600 274.6000 500.5600L274.6000 500.5600L274.6000 539.0600Q274.6000 556.4200 289.8600 556.4200L289.8600 556.4200Q297.1400 556.4200 301.4100 551.8000Q305.6800 547.1800 305.6800 539.0600L305.6800 539.0600L305.6800 500.5600Q305.6800 499.1600 306.6600 498.1800Q307.6400 497.2000 309.0400 497.2000L309.0400 497.2000L321.3600 497.2000Q322.7600 497.2000 323.7400 498.1800Q324.7200 499.1600 324.7200 500.5600L324.7200 500.5600L324.7200 566.6400Q324.7200 568.0400 323.7400 569.0200Q322.7600 570 321.3600 570L321.3600 570L310.0200 570Q308.4800 570 307.5700 569.0200Q306.6600 568.0400 306.6600 566.6400L306.6600 566.6400L306.6600 560.9000Q302.8800 565.8000 297.2800 568.6000Q291.6800 571.4000 283.2800 571.4000ZM358.3200 570L346.7000 570Q345.3000 570 344.3200 569.0200Q343.3400 568.0400 343.3400 566.6400L343.3400 566.6400L343.3400 473.9600Q343.3400 472.5600 344.3200 471.5800Q345.3000 470.6000 346.7000 470.6000L346.7000 470.6000L358.3200 470.6000Q359.7200 470.6000 360.7000 471.5800Q361.6800 472.5600 361.6800 473.9600L361.6800 473.9600L361.6800 566.6400Q361.6800 568.0400 360.7000 569.0200Q359.7200 570 358.3200 570L358.3200 570ZM401.4400 571.4000L401.4400 571.4000Q394.1600 571.4000 388.2800 568.5300Q382.4000 565.6600 378.9700 560.8300Q375.5400 556 375.5400 549.9800L375.5400 549.9800Q375.5400 540.1800 383.5200 534.3700Q391.5000 528.5600 404.3800 526.6000L404.3800 526.6000L423.5600 523.8000L423.5600 520.8600Q423.5600 514.9800 420.6200 511.7600Q417.6800 508.5400 410.5400 508.5400L410.5400 508.5400Q405.5000 508.5400 402.3500 510.5700Q399.2000 512.6000 397.6600 515.9600L397.6600 515.9600Q396.5400 517.7800 394.4400 517.7800L394.4400 517.7800L383.3800 517.7800Q381.8400 517.7800 381.0700 516.9400Q380.3000 516.1000 380.3000 514.7000L380.3000 514.7000Q380.4400 512.4600 382.1900 509.2400Q383.9400 506.0200 387.5100 503.0100Q391.0800 500 396.8200 497.9000Q402.5600 495.8000 410.6800 495.8000L410.6800 495.8000Q419.5000 495.8000 425.5900 497.9700Q431.6800 500.1400 435.3200 503.7800Q438.9600 507.4200 440.6400 512.3200Q442.3200 517.2200 442.3200 522.6800L442.3200 522.6800L442.3200 566.6400Q442.3200 568.0400 441.3400 569.0200Q440.3600 570 438.9600 570L438.9600 570L427.6200 570Q426.0800 570 425.1700 569.0200Q424.2600 568.0400 424.2600 566.6400L424.2600 566.6400L424.2600 561.1800Q422.4400 563.7000 419.3600 566.0800Q416.2800 568.4600 411.8700 569.9300Q407.4600 571.4000 401.4400 571.4000ZM406.2000 558.1000L406.2000 558.1000Q411.1000 558.1000 415.0900 556Q419.0800 553.9000 421.3900 549.4900Q423.7000 545.0800 423.7000 538.3600L423.7000 538.3600L423.7000 535.4200L409.7000 537.6600Q401.4400 538.9200 397.3800 541.7200Q393.3200 544.5200 393.3200 548.5800L393.3200 548.5800Q393.3200 551.6600 395.2100 553.8300Q397.1000 556 400.0400 557.0500Q402.9800 558.1000 406.2000 558.1000ZM550.5400 570L538.3600 570Q536.9600 570 535.9800 569.0200Q535.0000 568.0400 535.0000 566.6400L535.0000 566.6400L535.0000 548.7200L490.6200 548.7200Q489.0800 548.7200 488.1700 547.7400Q487.2600 546.7600 487.2600 545.3600L487.2600 545.3600L487.2600 535.8400Q487.2600 535 487.6100 533.8100Q487.9600 532.6200 488.8000 531.6400L488.8000 531.6400L530.1000 474.3800Q531.9200 472 535.2800 472L535.2800 472L550.5400 472Q551.9400 472 552.9200 472.9800Q553.9000 473.9600 553.9000 475.3600L553.9000 475.3600L553.9000 532.2000L566.3600 532.2000Q568.0400 532.2000 568.9500 533.1100Q569.8600 534.0200 569.8600 535.5600L569.8600 535.5600L569.8600 545.3600Q569.8600 546.7600 568.8800 547.7400Q567.9000 548.7200 566.5000 548.7200L566.5000 548.7200L553.9000 548.7200L553.9000 566.6400Q553.9000 568.0400 552.9200 569.0200Q551.9400 570 550.5400 570L550.5400 570ZM535.4200 492.3000L506.7200 532.7600L535.4200 532.7600L535.4200 492.3000ZM600.3800 521L586.5200 521Q585.1200 521 584.1400 520.0200Q583.1600 519.0400 583.1600 517.6400L583.1600 517.6400L583.1600 504.3400Q583.1600 502.8000 584.1400 501.8200Q585.1200 500.8400 586.5200 500.8400L586.5200 500.8400L600.3800 500.8400Q601.9200 500.8400 602.9000 501.8200Q603.8800 502.8000 603.8800 504.3400L603.8800 504.3400L603.8800 517.6400Q603.8800 519.0400 602.9000 520.0200Q601.9200 521 600.3800 521L600.3800 521ZM600.3800 570L586.5200 570Q585.1200 570 584.1400 569.0200Q583.1600 568.0400 583.1600 566.6400L583.1600 566.6400L583.1600 553.3400Q583.1600 551.8000 584.1400 550.8200Q585.1200 549.8400 586.5200 549.8400L586.5200 549.8400L600.3800 549.8400Q601.9200 549.8400 602.9000 550.8200Q603.8800 551.8000 603.8800 553.3400L603.8800 553.3400L603.8800 566.6400Q603.8800 568.0400 602.9000 569.0200Q601.9200 570 600.3800 570L600.3800 570ZM693.3400 571.4000L693.3400 571.4000Q680.8800 571.4000 671.9200 567.2700Q662.9600 563.1400 657.9200 554.5300Q652.8800 545.9200 652.4600 533.0400L652.4600 533.0400Q652.3200 527.0200 652.3200 521.1400Q652.3200 515.2600 652.4600 509.1000L652.4600 509.1000Q652.8800 496.3600 658.0600 487.8200Q663.2400 479.2800 672.2700 474.9400Q681.3000 470.6000 693.3400 470.6000L693.3400 470.6000Q705.3800 470.6000 714.4800 474.9400Q723.5800 479.2800 728.7600 487.8200Q733.9400 496.3600 734.3600 509.1000L734.3600 509.1000Q734.6400 515.2600 734.6400 521.1400Q734.6400 527.0200 734.3600 533.0400L734.3600 533.0400Q733.9400 545.9200 728.9000 554.5300Q723.8600 563.1400 714.8300 567.2700Q705.8000 571.4000 693.3400 571.4000ZM693.3400 555.3000L693.3400 555.3000Q702.4400 555.3000 708.1800 549.9100Q713.9200 544.5200 714.3400 532.3400L714.3400 532.3400Q714.6200 526.1800 714.6200 520.9300Q714.6200 515.6800 714.3400 509.6600L714.3400 509.6600Q714.0600 501.5400 711.3300 496.4300Q708.6000 491.3200 703.9800 489.0100Q699.3600 486.7000 693.3400 486.7000L693.3400 486.7000Q687.4600 486.7000 682.8400 489.0100Q678.2200 491.3200 675.4900 496.4300Q672.7600 501.5400 672.4800 509.6600L672.4800 509.6600Q672.3400 515.6800 672.3400 520.9300Q672.3400 526.1800 672.4800 532.3400L672.4800 532.3400Q672.9000 544.5200 678.6400 549.9100Q684.3800 555.3000 693.3400 555.3000ZM847.3400 596.6000L835.3000 596.6000Q833.9000 596.6000 832.9200 595.6200Q831.9400 594.6400 831.9400 593.2400L831.9400 593.2400L831.9400 561.4600Q828.5800 565.9400 823.2600 568.6700Q817.9400 571.4000 810.3800 571.4000L810.3800 571.4000Q803.2400 571.4000 797.7100 568.8800Q792.1800 566.3600 788.4700 561.9500Q784.7600 557.5400 782.8000 551.5900Q780.8400 545.6400 780.5600 538.6400L780.5600 538.6400Q780.4200 536.1200 780.4200 533.6000Q780.4200 531.0800 780.5600 528.7000L780.5600 528.7000Q780.9800 521.4200 782.8700 515.4000Q784.7600 509.3800 788.4700 504.9700Q792.1800 500.5600 797.7100 498.1800Q803.2400 495.8000 810.3800 495.8000L810.3800 495.8000Q818.5000 495.8000 824.0300 498.7400Q829.5600 501.6800 832.7800 506.1600L832.7800 506.1600L832.7800 500.5600Q832.7800 499.1600 833.7600 498.1800Q834.7400 497.2000 836.1400 497.2000L836.1400 497.2000L847.3400 497.2000Q848.7400 497.2000 849.7200 498.1800Q850.7000 499.1600 850.7000 500.5600L850.7000 500.5600L850.7000 593.2400Q850.7000 594.6400 849.7200 595.6200Q848.7400 596.6000 847.3400 596.6000L847.3400 596.6000ZM815.7000 556.4200L815.7000 556.4200Q821.3000 556.4200 824.8000 553.9000Q828.3000 551.3800 830.0500 547.5300Q831.8000 543.6800 831.9400 539.4800L831.9400 539.4800Q832.2200 536.8200 832.2200 534.0200Q832.2200 531.2200 831.9400 528.7000L831.9400 528.7000Q831.8000 524.3600 830.1200 520.2300Q828.4400 516.1000 824.9400 513.4400Q821.4400 510.7800 815.7000 510.7800L815.7000 510.7800Q809.8200 510.7800 806.3200 513.3700Q802.8200 515.9600 801.3500 520.1600Q799.8800 524.3600 799.6000 529.4000L799.6000 529.4000Q799.3200 533.6000 799.6000 537.8000L799.6000 537.8000Q799.8800 542.8400 801.3500 547.0400Q802.8200 551.2400 806.3200 553.8300Q809.8200 556.4200 815.7000 556.4200ZM896.3400 571.4000L896.3400 571.4000Q887.8000 571.4000 881.5700 567.5500Q875.3400 563.7000 871.9800 556.6300Q868.6200 549.5600 868.6200 539.9000L868.6200 539.9000L868.6200 500.5600Q868.6200 499.1600 869.6000 498.1800Q870.5800 497.2000 871.9800 497.2000L871.9800 497.2000L884.3000 497.2000Q885.8400 497.2000 886.7500 498.1800Q887.6600 499.1600 887.6600 500.5600L887.6600 500.5600L887.6600 539.0600Q887.6600 556.4200 902.9200 556.4200L902.9200 556.4200Q910.2000 556.4200 914.4700 551.8000Q918.7400 547.1800 918.7400 539.0600L918.7400 539.0600L918.7400 500.5600Q918.7400 499.1600 919.7200 498.1800Q920.7000 497.2000 922.1000 497.2000L922.1000 497.2000L934.4200 497.2000Q935.8200 497.2000 936.8000 498.1800Q937.7800 499.1600 937.7800 500.5600L937.7800 500.5600L937.7800 566.6400Q937.7800 568.0400 936.8000 569.0200Q935.8200 570 934.4200 570L934.4200 570L923.0800 570Q921.5400 570 920.6300 569.0200Q919.7200 568.0400 919.7200 566.6400L919.7200 566.6400L919.7200 560.9000Q915.9400 565.8000 910.3400 568.6000Q904.7400 571.4000 896.3400 571.4000ZM987.6200 571.4000L987.6200 571.4000Q972.0800 571.4000 962.9800 562.4400Q953.8800 553.4800 953.1800 536.9600L953.1800 536.9600Q953.0400 535.5600 953.0400 533.3900Q953.0400 531.2200 953.1800 529.9600L953.1800 529.9600Q953.7400 519.3200 958.0100 511.6900Q962.2800 504.0600 969.8400 499.9300Q977.4000 495.8000 987.6200 495.8000L987.6200 495.8000Q998.9600 495.8000 1006.6600 500.4900Q1014.3600 505.1800 1018.2800 513.5100Q1022.2000 521.8400 1022.2000 532.7600L1022.2000 532.7600L1022.2000 535.7000Q1022.2000 537.1000 1021.2200 538.0800Q1020.2400 539.0600 1018.7000 539.0600L1018.7000 539.0600L972.2200 539.0600Q972.2200 539.0600 972.2200 539.4800Q972.2200 539.9000 972.2200 540.1800L972.2200 540.1800Q972.3600 545.0800 974.1100 549.2100Q975.8600 553.3400 979.2900 555.8600Q982.7200 558.3800 987.4800 558.3800L987.4800 558.3800Q991.4000 558.3800 994.0600 557.1900Q996.7200 556 998.4000 554.4600Q1000.0800 552.9200 1000.7800 551.9400L1000.7800 551.9400Q1002.0400 550.2600 1002.8100 549.9100Q1003.5800 549.5600 1005.1200 549.5600L1005.1200 549.5600L1017.1600 549.5600Q1018.5600 549.5600 1019.4700 550.4000Q1020.3800 551.2400 1020.2400 552.5000L1020.2400 552.5000Q1020.1000 554.7400 1017.9300 557.9600Q1015.7600 561.1800 1011.7000 564.2600Q1007.6400 567.3400 1001.5500 569.3700Q995.4600 571.4000 987.6200 571.4000ZM972.2200 526.8800L972.2200 527.3000L1003.1600 527.3000L1003.1600 526.8800Q1003.1600 521.4200 1001.3400 517.2900Q999.5200 513.1600 996.0200 510.8500Q992.5200 508.5400 987.6200 508.5400L987.6200 508.5400Q982.7200 508.5400 979.2200 510.8500Q975.7200 513.1600 973.9700 517.2900Q972.2200 521.4200 972.2200 526.8800L972.2200 526.8800ZM1100.4600 571.4000L1100.4600 571.4000Q1084.9200 571.4000 1075.8200 562.4400Q1066.7200 553.4800 1066.0200 536.9600L1066.0200 536.9600Q1065.8800 535.5600 1065.8800 533.3900Q1065.8800 531.2200 1066.0200 529.9600L1066.0200 529.9600Q1066.5800 519.3200 1070.8500 511.6900Q1075.1200 504.0600 1082.6800 499.9300Q1090.2400 495.8000 1100.4600 495.8000L1100.4600 495.8000Q1111.8000 495.8000 1119.5000 500.4900Q1127.2000 505.1800 1131.1200 513.5100Q1135.0400 521.8400 1135.0400 532.7600L1135.0400 532.7600L1135.0400 535.7000Q1135.0400 537.1000 1134.0600 538.0800Q1133.0800 539.0600 1131.5400 539.0600L1131.5400 539.0600L1085.0600 539.0600Q1085.0600 539.0600 1085.0600 539.4800Q1085.0600 539.9000 1085.0600 540.1800L1085.0600 540.1800Q1085.2000 545.0800 1086.9500 549.2100Q1088.7000 553.3400 1092.1300 555.8600Q1095.5600 558.3800 1100.3200 558.3800L1100.3200 558.3800Q1104.2400 558.3800 1106.9000 557.1900Q1109.5600 556 1111.2400 554.4600Q1112.9200 552.9200 1113.6200 551.9400L1113.6200 551.9400Q1114.8800 550.2600 1115.6500 549.9100Q1116.4200 549.5600 1117.9600 549.5600L1117.9600 549.5600L1130 549.5600Q1131.4000 549.5600 1132.3100 550.4000Q1133.2200 551.2400 1133.0800 552.5000L1133.0800 552.5000Q1132.9400 554.7400 1130.7700 557.9600Q1128.6000 561.1800 1124.5400 564.2600Q1120.4800 567.3400 1114.3900 569.3700Q1108.3000 571.4000 1100.4600 571.4000ZM1085.0600 526.8800L1085.0600 527.3000L1116 527.3000L1116 526.8800Q1116 521.4200 1114.1800 517.2900Q1112.3600 513.1600 1108.8600 510.8500Q1105.3600 508.5400 1100.4600 508.5400L1100.4600 508.5400Q1095.5600 508.5400 1092.0600 510.8500Q1088.5600 513.1600 1086.8100 517.2900Q1085.0600 521.4200 1085.0600 526.8800L1085.0600 526.8800ZM1102.9800 486.7000L1094.4400 486.7000Q1092.2000 486.7000 1092.2000 484.4600L1092.2000 484.4600Q1092.2000 483.3400 1092.9000 482.6400L1092.9000 482.6400L1104.2400 468.7800Q1105.6400 467.2400 1106.6200 466.7500Q1107.6000 466.2600 1109.4200 466.2600L1109.4200 466.2600L1123.4200 466.2600Q1126.0800 466.2600 1126.0800 468.9200L1126.0800 468.9200Q1126.0800 469.9000 1125.3800 470.6000L1125.3800 470.6000L1108.0200 484.8800Q1106.9000 485.8600 1105.8500 486.2800Q1104.8000 486.7000 1102.9800 486.7000L1102.9800 486.7000ZM1214.1400 571.4000L1214.1400 571.4000Q1202.9400 571.4000 1195.3100 567.4800Q1187.6800 563.5600 1183.6900 556.4200Q1179.7000 549.2800 1179.1400 539.7600L1179.1400 539.7600Q1179.0000 537.2400 1179.0000 533.6000Q1179.0000 529.9600 1179.1400 527.4400L1179.1400 527.4400Q1179.7000 517.7800 1183.8300 510.7100Q1187.9600 503.6400 1195.5900 499.7200Q1203.2200 495.8000 1214.1400 495.8000L1214.1400 495.8000Q1225.0600 495.8000 1232.6900 499.7200Q1240.3200 503.6400 1244.4500 510.7100Q1248.5800 517.7800 1249.1400 527.4400L1249.1400 527.4400Q1249.2800 529.9600 1249.2800 533.6000Q1249.2800 537.2400 1249.1400 539.7600L1249.1400 539.7600Q1248.5800 549.2800 1244.5900 556.4200Q1240.6000 563.5600 1232.9700 567.4800Q1225.3400 571.4000 1214.1400 571.4000ZM1214.1400 557.5400L1214.1400 557.5400Q1221.5600 557.5400 1225.6200 552.8500Q1229.6800 548.1600 1230.1000 539.0600L1230.1000 539.0600Q1230.2400 536.9600 1230.2400 533.6000Q1230.2400 530.2400 1230.1000 528.1400L1230.1000 528.1400Q1229.6800 519.0400 1225.6200 514.3500Q1221.5600 509.6600 1214.1400 509.6600L1214.1400 509.6600Q1206.7200 509.6600 1202.6600 514.3500Q1198.6000 519.0400 1198.1800 528.1400L1198.1800 528.1400Q1198.0400 530.2400 1198.0400 533.6000Q1198.0400 536.9600 1198.1800 539.0600L1198.1800 539.0600Q1198.6000 548.1600 1202.6600 552.8500Q1206.7200 557.5400 1214.1400 557.5400ZM177.5800 710L164.2800 710Q162.8800 710 161.9000 709.0200Q160.9200 708.0400 160.9200 706.6400L160.9200 706.6400L160.9200 615.5000Q160.9200 613.9600 161.9000 612.9800Q162.8800 612 164.2800 612L164.2800 612L201.8000 612Q212.7200 612 220.8400 615.4300Q228.9600 618.8600 233.4400 625.7900Q237.9200 632.7200 237.9200 643.0800L237.9200 643.0800Q237.9200 653.5800 233.4400 660.3700Q228.9600 667.1600 220.8400 670.5200Q212.7200 673.8800 201.8000 673.8800L201.8000 673.8800L180.9400 673.8800L180.9400 706.6400Q180.9400 708.0400 180.0300 709.0200Q179.1200 710 177.5800 710L177.5800 710ZM180.6600 627.5400L180.6600 658.3400L201.1000 658.3400Q209.2200 658.3400 213.5600 654.4900Q217.9000 650.6400 217.9000 643.0800L217.9000 643.0800Q217.9000 636.0800 213.8400 631.8100Q209.7800 627.5400 201.1000 627.5400L201.1000 627.5400L180.6600 627.5400ZM283.7000 711.4000L283.7000 711.4000Q272.5000 711.4000 264.8700 707.4800Q257.2400 703.5600 253.2500 696.4200Q249.2600 689.2800 248.7000 679.7600L248.7000 679.7600Q248.5600 677.2400 248.5600 673.6000Q248.5600 669.9600 248.7000 667.4400L248.7000 667.4400Q249.2600 657.7800 253.3900 650.7100Q257.5200 643.6400 265.1500 639.7200Q272.7800 635.8000 283.7000 635.8000L283.7000 635.8000Q294.6200 635.8000 302.2500 639.7200Q309.8800 643.6400 314.0100 650.7100Q318.1400 657.7800 318.7000 667.4400L318.7000 667.4400Q318.8400 669.9600 318.8400 673.6000Q318.8400 677.2400 318.7000 679.7600L318.7000 679.7600Q318.1400 689.2800 314.1500 696.4200Q310.1600 703.5600 302.5300 707.4800Q294.9000 711.4000 283.7000 711.4000ZM283.7000 697.5400L283.7000 697.5400Q291.1200 697.5400 295.1800 692.8500Q299.2400 688.1600 299.6600 679.0600L299.6600 679.0600Q299.8000 676.9600 299.8000 673.6000Q299.8000 670.2400 299.6600 668.1400L299.6600 668.1400Q299.2400 659.0400 295.1800 654.3500Q291.1200 649.6600 283.7000 649.6600L283.7000 649.6600Q276.2800 649.6600 272.2200 654.3500Q268.1600 659.0400 267.7400 668.1400L267.7400 668.1400Q267.6000 670.2400 267.6000 673.6000Q267.6000 676.9600 267.7400 679.0600L267.7400 679.0600Q268.1600 688.1600 272.2200 692.8500Q276.2800 697.5400 283.7000 697.5400ZM361.9600 711.4000L361.9600 711.4000Q353.5600 711.4000 347.6100 709.4400Q341.6600 707.4800 337.8800 704.5400Q334.1000 701.6000 332.2800 698.6600Q330.4600 695.7200 330.3200 693.7600L330.3200 693.7600Q330.1800 692.2200 331.2300 691.3100Q332.2800 690.4000 333.5400 690.4000L333.5400 690.4000L344.6000 690.4000Q345.1600 690.4000 345.5800 690.5400Q346 690.6800 346.7000 691.3800L346.7000 691.3800Q348.5200 692.9200 350.5500 694.6000Q352.5800 696.2800 355.3800 697.4700Q358.1800 698.6600 362.3800 698.6600L362.3800 698.6600Q367.8400 698.6600 371.5500 696.4900Q375.2600 694.3200 375.2600 690.2600L375.2600 690.2600Q375.2600 687.3200 373.6500 685.5000Q372.0400 683.6800 367.7000 682.2100Q363.3600 680.7400 355.3800 679.0600L355.3800 679.0600Q347.5400 677.2400 342.3600 674.4400Q337.1800 671.6400 334.6600 667.4400Q332.1400 663.2400 332.1400 657.6400L332.1400 657.6400Q332.1400 652.1800 335.4300 647.2100Q338.7200 642.2400 345.2300 639.0200Q351.7400 635.8000 361.4000 635.8000L361.4000 635.8000Q368.9600 635.8000 374.5600 637.6900Q380.1600 639.5800 383.8700 642.3800Q387.5800 645.1800 389.5400 648.0500Q391.5000 650.9200 391.6400 653.0200L391.6400 653.0200Q391.7800 654.5600 390.8000 655.4700Q389.8200 656.3800 388.5600 656.3800L388.5600 656.3800L378.2000 656.3800Q377.5000 656.3800 376.9400 656.1000Q376.3800 655.8200 375.8200 655.4000L375.8200 655.4000Q374.2800 654 372.4600 652.3900Q370.6400 650.7800 368.0500 649.6600Q365.4600 648.5400 361.2600 648.5400L361.2600 648.5400Q355.9400 648.5400 353.1400 650.8500Q350.3400 653.1600 350.3400 656.6600L350.3400 656.6600Q350.3400 659.0400 351.6700 660.7900Q353 662.5400 357.0600 664.0800Q361.1200 665.6200 369.3800 667.3000L369.3800 667.3000Q378.7600 668.9800 384.2900 672.2700Q389.8200 675.5600 392.1300 679.8300Q394.4400 684.1000 394.4400 689.2800L394.4400 689.2800Q394.4400 695.5800 390.7300 700.6200Q387.0200 705.6600 379.8100 708.5300Q372.6000 711.4000 361.9600 711.4000ZM453.1000 710L441.7600 710Q433.3600 710 427.6200 707.0600Q421.8800 704.1200 419.0800 698.3100Q416.2800 692.5000 416.2800 683.8200L416.2800 683.8200L416.2800 652.0400L405.2200 652.0400Q403.8200 652.0400 402.8400 651.0600Q401.8600 650.0800 401.8600 648.5400L401.8600 648.5400L401.8600 640.5600Q401.8600 639.1600 402.8400 638.1800Q403.8200 637.2000 405.2200 637.2000L405.2200 637.2000L416.2800 637.2000L416.2800 613.9600Q416.2800 612.5600 417.1900 611.5800Q418.1000 610.6000 419.6400 610.6000L419.6400 610.6000L430.9800 610.6000Q432.3800 610.6000 433.3600 611.5800Q434.3400 612.5600 434.3400 613.9600L434.3400 613.9600L434.3400 637.2000L451.8400 637.2000Q453.2400 637.2000 454.2200 638.1800Q455.2000 639.1600 455.2000 640.5600L455.2000 640.5600L455.2000 648.5400Q455.2000 650.0800 454.2200 651.0600Q453.2400 652.0400 451.8400 652.0400L451.8400 652.0400L434.3400 652.0400L434.3400 682.4200Q434.3400 688.1600 436.3700 691.3800Q438.4000 694.6000 443.4400 694.6000L443.4400 694.6000L453.1000 694.6000Q454.5000 694.6000 455.4800 695.5800Q456.4600 696.5600 456.4600 697.9600L456.4600 697.9600L456.4600 706.6400Q456.4600 708.0400 455.4800 709.0200Q454.5000 710 453.1000 710L453.1000 710ZM501.8200 740.8000L501.8200 740.8000Q491.6000 740.8000 485.0200 738.1400Q478.4400 735.4800 474.6600 731.7000Q470.8800 727.9200 469.2700 724.2100Q467.6600 720.5000 467.5200 718.4000L467.5200 718.4000Q467.3800 717 468.4300 715.9500Q469.4800 714.9000 470.8800 714.9000L470.8800 714.9000L483.0600 714.9000Q484.4600 714.9000 485.3000 715.5300Q486.1400 716.1600 486.7000 717.8400L486.7000 717.8400Q487.5400 719.6600 488.9400 721.7600Q490.3400 723.8600 493.2100 725.3300Q496.0800 726.8000 501.1200 726.8000L501.1200 726.8000Q506.4400 726.8000 510.0800 725.2600Q513.7200 723.7200 515.6100 720.0800Q517.5000 716.4400 517.5000 710L517.5000 710L517.5000 700.4800Q514.1400 704.5400 508.8900 707.0600Q503.6400 709.5800 495.9400 709.5800L495.9400 709.5800Q488.5200 709.5800 482.9900 707.1300Q477.4600 704.6800 473.8200 700.2700Q470.1800 695.8600 468.2900 689.8400Q466.4000 683.8200 466.1200 676.5400L466.1200 676.5400Q465.9800 672.7600 466.1200 668.9800L466.1200 668.9800Q466.4000 661.9800 468.2900 655.9600Q470.1800 649.9400 473.8200 645.3900Q477.4600 640.8400 482.9900 638.3200Q488.5200 635.8000 495.9400 635.8000L495.9400 635.8000Q503.9200 635.8000 509.3800 638.8100Q514.8400 641.8200 518.3400 646.3000L518.3400 646.3000L518.3400 640.7000Q518.3400 639.1600 519.3200 638.1800Q520.3000 637.2000 521.7000 637.2000L521.7000 637.2000L533.0400 637.2000Q534.4400 637.2000 535.4200 638.1800Q536.4000 639.1600 536.4000 640.7000L536.4000 640.7000L536.5400 708.1800Q536.5400 718.2600 532.7600 725.5400Q528.9800 732.8200 521.3500 736.8100Q513.7200 740.8000 501.8200 740.8000ZM501.1200 694.7400L501.1200 694.7400Q506.8600 694.7400 510.3600 692.2200Q513.8600 689.7000 515.5400 685.6400Q517.2200 681.5800 517.5000 677.3800L517.5000 677.3800Q517.6400 675.5600 517.6400 672.7600Q517.6400 669.9600 517.5000 668.2800L517.5000 668.2800Q517.2200 663.9400 515.5400 659.9500Q513.8600 655.9600 510.3600 653.3700Q506.8600 650.7800 501.1200 650.7800L501.1200 650.7800Q495.3800 650.7800 491.8800 653.3700Q488.3800 655.9600 486.9100 660.1600Q485.4400 664.3600 485.1600 669.4000L485.1600 669.4000Q484.8800 672.7600 485.1600 676.2600L485.1600 676.2600Q485.4400 681.1600 486.9100 685.4300Q488.3800 689.7000 491.8800 692.2200Q495.3800 694.7400 501.1200 694.7400ZM570.7000 710L558.5200 710Q557.1200 710 556.1400 709.0200Q555.1600 708.0400 555.1600 706.6400L555.1600 706.6400L555.1600 640.7000Q555.1600 639.1600 556.1400 638.1800Q557.1200 637.2000 558.5200 637.2000L558.5200 637.2000L569.8600 637.2000Q571.2600 637.2000 572.3100 638.1800Q573.3600 639.1600 573.3600 640.7000L573.3600 640.7000L573.3600 646.4400Q576.5800 641.9600 581.6900 639.5800Q586.8000 637.2000 593.5200 637.2000L593.5200 637.2000L599.2600 637.2000Q600.8000 637.2000 601.7100 638.1800Q602.6200 639.1600 602.6200 640.5600L602.6200 640.5600L602.6200 650.6400Q602.6200 652.0400 601.7100 653.0200Q600.8000 654 599.2600 654L599.2600 654L588.3400 654Q581.6200 654 577.9100 657.7100Q574.2000 661.4200 574.2000 668.1400L574.2000 668.1400L574.2000 706.6400Q574.2000 708.0400 573.2200 709.0200Q572.2400 710 570.7000 710L570.7000 710ZM644.9000 711.4000L644.9000 711.4000Q629.3600 711.4000 620.2600 702.4400Q611.1600 693.4800 610.4600 676.9600L610.4600 676.9600Q610.3200 675.5600 610.3200 673.3900Q610.3200 671.2200 610.4600 669.9600L610.4600 669.9600Q611.0200 659.3200 615.2900 651.6900Q619.5600 644.0600 627.1200 639.9300Q634.6800 635.8000 644.9000 635.8000L644.9000 635.8000Q656.2400 635.8000 663.9400 640.4900Q671.6400 645.1800 675.5600 653.5100Q679.4800 661.8400 679.4800 672.7600L679.4800 672.7600L679.4800 675.7000Q679.4800 677.1000 678.5000 678.0800Q677.5200 679.0600 675.9800 679.0600L675.9800 679.0600L629.5000 679.0600Q629.5000 679.0600 629.5000 679.4800Q629.5000 679.9000 629.5000 680.1800L629.5000 680.1800Q629.6400 685.0800 631.3900 689.2100Q633.1400 693.3400 636.5700 695.8600Q640.0000 698.3800 644.7600 698.3800L644.7600 698.3800Q648.6800 698.3800 651.3400 697.1900Q654.0000 696 655.6800 694.4600Q657.3600 692.9200 658.0600 691.9400L658.0600 691.9400Q659.3200 690.2600 660.0900 689.9100Q660.8600 689.5600 662.4000 689.5600L662.4000 689.5600L674.4400 689.5600Q675.8400 689.5600 676.7500 690.4000Q677.6600 691.2400 677.5200 692.5000L677.5200 692.5000Q677.3800 694.7400 675.2100 697.9600Q673.0400 701.1800 668.9800 704.2600Q664.9200 707.3400 658.8300 709.3700Q652.7400 711.4000 644.9000 711.4000ZM629.5000 666.8800L629.5000 667.3000L660.4400 667.3000L660.4400 666.8800Q660.4400 661.4200 658.6200 657.2900Q656.8000 653.1600 653.3000 650.8500Q649.8000 648.5400 644.9000 648.5400L644.9000 648.5400Q640.0000 648.5400 636.5000 650.8500Q633.0000 653.1600 631.2500 657.2900Q629.5000 661.4200 629.5000 666.8800L629.5000 666.8800ZM721.9000 711.4000L721.9000 711.4000Q713.5000 711.4000 707.5500 709.4400Q701.6000 707.4800 697.8200 704.5400Q694.0400 701.6000 692.2200 698.6600Q690.4000 695.7200 690.2600 693.7600L690.2600 693.7600Q690.1200 692.2200 691.1700 691.3100Q692.2200 690.4000 693.4800 690.4000L693.4800 690.4000L704.5400 690.4000Q705.1000 690.4000 705.5200 690.5400Q705.9400 690.6800 706.6400 691.3800L706.6400 691.3800Q708.4600 692.9200 710.4900 694.6000Q712.5200 696.2800 715.3200 697.4700Q718.1200 698.6600 722.3200 698.6600L722.3200 698.6600Q727.7800 698.6600 731.4900 696.4900Q735.2000 694.3200 735.2000 690.2600L735.2000 690.2600Q735.2000 687.3200 733.5900 685.5000Q731.9800 683.6800 727.6400 682.2100Q723.3000 680.7400 715.3200 679.0600L715.3200 679.0600Q707.4800 677.2400 702.3000 674.4400Q697.1200 671.6400 694.6000 667.4400Q692.0800 663.2400 692.0800 657.6400L692.0800 657.6400Q692.0800 652.1800 695.3700 647.2100Q698.6600 642.2400 705.1700 639.0200Q711.6800 635.8000 721.3400 635.8000L721.3400 635.8000Q728.9000 635.8000 734.5000 637.6900Q740.1000 639.5800 743.8100 642.3800Q747.5200 645.1800 749.4800 648.0500Q751.4400 650.9200 751.5800 653.0200L751.5800 653.0200Q751.7200 654.5600 750.7400 655.4700Q749.7600 656.3800 748.5000 656.3800L748.5000 656.3800L738.1400 656.3800Q737.4400 656.3800 736.8800 656.1000Q736.3200 655.8200 735.7600 655.4000L735.7600 655.4000Q734.2200 654 732.4000 652.3900Q730.5800 650.7800 727.9900 649.6600Q725.4000 648.5400 721.2000 648.5400L721.2000 648.5400Q715.8800 648.5400 713.0800 650.8500Q710.2800 653.1600 710.2800 656.6600L710.2800 656.6600Q710.2800 659.0400 711.6100 660.7900Q712.9400 662.5400 717 664.0800Q721.0600 665.6200 729.3200 667.3000L729.3200 667.3000Q738.7000 668.9800 744.2300 672.2700Q749.7600 675.5600 752.0700 679.8300Q754.3800 684.1000 754.3800 689.2800L754.3800 689.2800Q754.3800 695.5800 750.6700 700.6200Q746.9600 705.6600 739.7500 708.5300Q732.5400 711.4000 721.9000 711.4000Z" id="title"/></g></svg>