<svg xmlns="http://www.w3.org/2000/svg" version="1.1" xmlns:xlink="http://www.w3.org/1999/xlink" xmlns:svgjs="http://svgjs.dev/svgjs" viewBox="0 0 1920 1080" id="258fb3eb-a82d-42fd-b224-f0ea57d3fc79"><g><rect width="1920" height="1080" fill="#7d1538"/></g><g fill="#3f828a"><path d="M969.5 217C561.465 217 231 547.465 231 955.5C231 1363.53 561.465 1694 969.5 1694C1377.53 1694 1708 1363.53 1708 955.5C1708 547.465 1377.53 217 969.5 217ZM969.5 1309.34C773.983 1309.34 615.658 1151.02 615.658 955.5C615.658 759.983 773.983 601.658 969.5 601.658C1165.02 601.658 1323.34 759.983 1323.34 955.5C1323.34 1151.02 1165.02 1309.34 969.5 1309.34Z"/></g><g fill="#ffffff" opacity="0.2"><path d="M1432 918.479L1616.48 734V918.479H1432Z"/><path d="M1616.48 918.479L1800.52 734V918.479H1616.48Z"/><path d="M1800.52 918.479L1985 734V918.479H1800.52Z"/><path d="M1432 1102.52L1616.48 918.479V1102.52H1432Z"/><path d="M1616.48 1102.52L1800.52 918.479V1102.52H1616.48Z"/><path d="M1800.52 1102.52L1985 918.479V1102.52H1800.52Z"/><path d="M499 154.521L683.479 -29.5215V154.521H499Z"/><path d="M683.479 154.521L867.521 -29.5215V154.521H683.479Z"/><path d="M867.521 154.521L1052 -29.5215V154.521H867.521Z"/><path d="M499 339L683.479 154.521V339H499Z"/><path d="M683.479 339L867.521 154.521V339H683.479Z"/><path d="M867.521 339L1052 154.521V339H867.521Z"/></g><g><path d="M178.635 139.281L184.422 144.246V166.626H215.704L219.958 172.147L215.69 177.397H184.422V198.795L178.635 203.747L173 198.795V144.232L178.635 139.281ZM195.554 195.68H219.406L223.397 200.915L219.143 206.45H195.554L191.7 201.342L195.554 195.68ZM196.382 138H219.129L223.383 143.52L219.129 148.77H196.659L192.115 143.677L196.382 138ZM323.155 148.628L328.251 154.291L323.155 159.968H246.13L241.172 154.291L246.13 148.628H323.155ZM237.043 172.147L241.849 167.893L246.669 172.147V178.393C246.669 188.879 249.417 197.515 261.668 197.515H264.14C275.147 197.515 281.197 189.86 281.197 177.952V172.005L285.879 167.75L290.699 171.862V178.379C290.699 189.007 293.723 196.946 305.56 196.946H307.618C319.178 196.946 321.235 187.869 321.373 177.952V171.578L326.056 167.608L331 171.72V178.094C330.862 191.838 327.285 207.574 308.032 207.574H305.974C294.552 207.574 288.365 202.324 285.892 195.808C283.006 202.466 275.299 208.286 264.844 208.286H262.358C242.553 208.286 237.194 195.964 237.056 178.663V172.147H237.043ZM276.391 274.744L273.642 267.089L280.796 264.969L305.974 276.721V252.491L311.07 248.095L316.291 252.491V281.829L325.641 286.226L328.251 293.311L320.959 296L276.391 274.744ZM321.235 223.011L328.113 226.27L325.917 233.497L264.002 263.119L256.571 260.146L259.596 252.776L321.235 223.011ZM231.905 263.404L237.954 268.512C237.402 286.51 222.403 296 204.669 296H202.874C194.062 296 183.759 292.6 177.157 286.083L177.834 278.855L184.298 278.002C189.118 282.256 195.858 285.229 202.183 285.229H204.117C216.091 285.229 225.303 280.136 226.27 268.085L231.905 263.404ZM226.256 251.638C225.704 239.16 216.629 234.209 204.103 234.209H202.169C194.739 234.209 189.104 237.182 184.284 241.436L177.834 240.583L177.143 233.355C183.745 226.696 192.957 223.58 202.597 223.58H204.517C222.403 223.58 237.402 232.942 237.94 251.211L231.891 256.176L226.256 251.638Z" fill="#ffffff"/></g><g fill="#ffffff" id="info-group"><path d="M167.0800 430L154.9000 430Q153.7800 430 152.8700 429.1600Q151.9600 428.3200 151.9600 427.0600L151.9600 427.0600Q151.9600 426.5000 152.2400 425.8000L152.2400 425.8000L185.9800 335.5000Q186.4000 334.1000 187.5900 333.0500Q188.7800 332 190.8800 332L190.8800 332L206.1400 332Q208.2400 332 209.3600 333.0500Q210.4800 334.1000 211.0400 335.5000L211.0400 335.5000L244.7800 425.8000Q244.9200 426.5000 244.9200 427.0600L244.9200 427.0600Q244.9200 428.3200 244.0800 429.1600Q243.2400 430 242.1200 430L242.1200 430L229.9400 430Q227.9800 430 227.0700 429.0900Q226.1600 428.1800 225.8800 427.3400L225.8800 427.3400L219.3000 410.2600L177.7200 410.2600L171.1400 427.3400Q170.8600 428.1800 169.9500 429.0900Q169.0400 430 167.0800 430L167.0800 430ZM198.4400 350.9000L182.6200 394.1600L214.4000 394.1600L198.4400 350.9000ZM283.2800 431.4000L283.2800 431.4000Q274.7400 431.4000 268.5100 427.5500Q262.2800 423.7000 258.9200 416.6300Q255.5600 409.5600 255.5600 399.9000L255.5600 399.9000L255.5600 360.5600Q255.5600 359.1600 256.5400 358.1800Q257.5200 357.2000 258.9200 357.2000L258.9200 357.2000L271.2400 357.2000Q272.7800 357.2000 273.6900 358.1800Q274.6000 359.1600 274.6000 360.5600L274.6000 360.5600L274.6000 399.0600Q274.6000 416.4200 289.8600 416.4200L289.8600 416.4200Q297.1400 416.4200 301.4100 411.8000Q305.6800 407.1800 305.6800 399.0600L305.6800 399.0600L305.6800 360.5600Q305.6800 359.1600 306.6600 358.1800Q307.6400 357.2000 309.0400 357.2000L309.0400 357.2000L321.3600 357.2000Q322.7600 357.2000 323.7400 358.1800Q324.7200 359.1600 324.7200 360.5600L324.7200 360.5600L324.7200 426.6400Q324.7200 428.0400 323.7400 429.0200Q322.7600 430 321.3600 430L321.3600 430L310.0200 430Q308.4800 430 307.5700 429.0200Q306.6600 428.0400 306.6600 426.6400L306.6600 426.6400L306.6600 420.9000Q302.8800 425.8000 297.2800 428.6000Q291.6800 431.4000 283.2800 431.4000ZM358.3200 430L346.7000 430Q345.3000 430 344.3200 429.0200Q343.3400 428.0400 343.3400 426.6400L343.3400 426.6400L343.3400 333.9600Q343.3400 332.5600 344.3200 331.5800Q345.3000 330.6000 346.7000 330.6000L346.7000 330.6000L358.3200 330.6000Q359.7200 330.6000 360.7000 331.5800Q361.6800 332.5600 361.6800 333.9600L361.6800 333.9600L361.6800 426.6400Q361.6800 428.0400 360.7000 429.0200Q359.7200 430 358.3200 430L358.3200 430ZM401.4400 431.4000L401.4400 431.4000Q394.1600 431.4000 388.2800 428.5300Q382.4000 425.6600 378.9700 420.8300Q375.5400 416 375.5400 409.9800L375.5400 409.9800Q375.5400 400.1800 383.5200 394.3700Q391.5000 388.5600 404.3800 386.6000L404.3800 386.6000L423.5600 383.8000L423.5600 380.8600Q423.5600 374.9800 420.6200 371.7600Q417.6800 368.5400 410.5400 368.5400L410.5400 368.5400Q405.5000 368.5400 402.3500 370.5700Q399.2000 372.6000 397.6600 375.9600L397.6600 375.9600Q396.5400 377.7800 394.4400 377.7800L394.4400 377.7800L383.3800 377.7800Q381.8400 377.7800 381.0700 376.9400Q380.3000 376.1000 380.3000 374.7000L380.3000 374.7000Q380.4400 372.4600 382.1900 369.2400Q383.9400 366.0200 387.5100 363.0100Q391.0800 360 396.8200 357.9000Q402.5600 355.8000 410.6800 355.8000L410.6800 355.8000Q419.5000 355.8000 425.5900 357.9700Q431.6800 360.1400 435.3200 363.7800Q438.9600 367.4200 440.6400 372.3200Q442.3200 377.2200 442.3200 382.6800L442.3200 382.6800L442.3200 426.6400Q442.3200 428.0400 441.3400 429.0200Q440.3600 430 438.9600 430L438.9600 430L427.6200 430Q426.0800 430 425.1700 429.0200Q424.2600 428.0400 424.2600 426.6400L424.2600 426.6400L424.2600 421.1800Q422.4400 423.7000 419.3600 426.0800Q416.2800 428.4600 411.8700 429.9300Q407.4600 431.4000 401.4400 431.4000ZM406.2000 418.1000L406.2000 418.1000Q411.1000 418.1000 415.0900 416Q419.0800 413.9000 421.3900 409.4900Q423.7000 405.0800 423.7000 398.3600L423.7000 398.3600L423.7000 395.4200L409.7000 397.6600Q401.4400 398.9200 397.3800 401.7200Q393.3200 404.5200 393.3200 408.5800L393.3200 408.5800Q393.3200 411.6600 395.2100 413.8300Q397.1000 416 400.0400 417.0500Q402.9800 418.1000 406.2000 418.1000ZM526.6000 431.4000L526.6000 431.4000Q516.8000 431.4000 509.6600 429.0200Q502.5200 426.6400 497.8300 422.7900Q493.1400 418.9400 490.7600 414.3900Q488.3800 409.8400 488.2400 405.3600L488.2400 405.3600Q488.2400 404.1000 489.1500 403.3300Q490.0600 402.5600 491.3200 402.5600L491.3200 402.5600L503.9200 402.5600Q505.3200 402.5600 506.3000 403.1200Q507.2800 403.6800 507.9800 405.3600L507.9800 405.3600Q509.2400 409.1400 512.1100 411.3800Q514.9800 413.6200 518.7600 414.5300Q522.5400 415.4400 526.7400 415.4400L526.7400 415.4400Q535.1400 415.4400 540.1100 411.4500Q545.0800 407.4600 545.0800 400.0400L545.0800 400.0400Q545.0800 392.6200 540.4600 389.3300Q535.8400 386.0400 527.5800 386.0400L527.5800 386.0400L513.1600 386.0400Q511.6200 386.0400 510.6400 385.1300Q509.6600 384.2200 509.6600 382.6800L509.6600 382.6800L509.6600 376.8000Q509.6600 375.4000 510.2900 374.3500Q510.9200 373.3000 511.6200 372.6000L511.6200 372.6000L536.6800 348.1000L496.6400 348.1000Q495.1000 348.1000 494.1900 347.1200Q493.2800 346.1400 493.2800 344.7400L493.2800 344.7400L493.2800 335.5000Q493.2800 333.9600 494.1900 332.9800Q495.1000 332 496.6400 332L496.6400 332L556.7000 332Q558.2400 332 559.2200 332.9800Q560.2000 333.9600 560.2000 335.5000L560.2000 335.5000L560.2000 343.9000Q560.2000 345.1600 559.6400 346.1400Q559.0800 347.1200 558.3800 347.8200L558.3800 347.8200L534.1600 372.7400L535.8400 372.8800Q544.3800 373.5800 551.0300 376.7300Q557.6800 379.8800 561.3900 385.9000Q565.1000 391.9200 565.1000 401.0200L565.1000 401.0200Q565.1000 410.5400 560.1300 417.3300Q555.1600 424.1200 546.4800 427.7600Q537.8000 431.4000 526.6000 431.4000ZM597.3000 381L583.4400 381Q582.0400 381 581.0600 380.0200Q580.0800 379.0400 580.0800 377.6400L580.0800 377.6400L580.0800 364.3400Q580.0800 362.8000 581.0600 361.8200Q582.0400 360.8400 583.4400 360.8400L583.4400 360.8400L597.3000 360.8400Q598.8400 360.8400 599.8200 361.8200Q600.8000 362.8000 600.8000 364.3400L600.8000 364.3400L600.8000 377.6400Q600.8000 379.0400 599.8200 380.0200Q598.8400 381 597.3000 381L597.3000 381ZM597.3000 430L583.4400 430Q582.0400 430 581.0600 429.0200Q580.0800 428.0400 580.0800 426.6400L580.0800 426.6400L580.0800 413.3400Q580.0800 411.8000 581.0600 410.8200Q582.0400 409.8400 583.4400 409.8400L583.4400 409.8400L597.3000 409.8400Q598.8400 409.8400 599.8200 410.8200Q600.8000 411.8000 600.8000 413.3400L600.8000 413.3400L600.8000 426.6400Q600.8000 428.0400 599.8200 429.0200Q598.8400 430 597.3000 430L597.3000 430ZM658.7600 430L646.5800 430Q645.4600 430 644.5500 429.1600Q643.6400 428.3200 643.6400 427.0600L643.6400 427.0600Q643.6400 426.5000 643.9200 425.8000L643.9200 425.8000L677.6600 335.5000Q678.0800 334.1000 679.2700 333.0500Q680.4600 332 682.5600 332L682.5600 332L697.8200 332Q699.9200 332 701.0400 333.0500Q702.1600 334.1000 702.7200 335.5000L702.7200 335.5000L736.4600 425.8000Q736.6000 426.5000 736.6000 427.0600L736.6000 427.0600Q736.6000 428.3200 735.7600 429.1600Q734.9200 430 733.8000 430L733.8000 430L721.6200 430Q719.6600 430 718.7500 429.0900Q717.8400 428.1800 717.5600 427.3400L717.5600 427.3400L710.9800 410.2600L669.4000 410.2600L662.8200 427.3400Q662.5400 428.1800 661.6300 429.0900Q660.7200 430 658.7600 430L658.7600 430ZM690.1200 350.9000L674.3000 394.1600L706.0800 394.1600L690.1200 350.9000ZM792.1800 430L780.8400 430Q772.4400 430 766.7000 427.0600Q760.9600 424.1200 758.1600 418.3100Q755.3600 412.5000 755.3600 403.8200L755.3600 403.8200L755.3600 372.0400L744.3000 372.0400Q742.9000 372.0400 741.9200 371.0600Q740.9400 370.0800 740.9400 368.5400L740.9400 368.5400L740.9400 360.5600Q740.9400 359.1600 741.9200 358.1800Q742.9000 357.2000 744.3000 357.2000L744.3000 357.2000L755.3600 357.2000L755.3600 333.9600Q755.3600 332.5600 756.2700 331.5800Q757.1800 330.6000 758.7200 330.6000L758.7200 330.6000L770.0600 330.6000Q771.4600 330.6000 772.4400 331.5800Q773.4200 332.5600 773.4200 333.9600L773.4200 333.9600L773.4200 357.2000L790.9200 357.2000Q792.3200 357.2000 793.3000 358.1800Q794.2800 359.1600 794.2800 360.5600L794.2800 360.5600L794.2800 368.5400Q794.2800 370.0800 793.3000 371.0600Q792.3200 372.0400 790.9200 372.0400L790.9200 372.0400L773.4200 372.0400L773.4200 402.4200Q773.4200 408.1600 775.4500 411.3800Q777.4800 414.6000 782.5200 414.6000L782.5200 414.6000L792.1800 414.6000Q793.5800 414.6000 794.5600 415.5800Q795.5400 416.5600 795.5400 417.9600L795.5400 417.9600L795.5400 426.6400Q795.5400 428.0400 794.5600 429.0200Q793.5800 430 792.1800 430L792.1800 430ZM835.0200 431.4000L835.0200 431.4000Q826.4800 431.4000 820.2500 427.5500Q814.0200 423.7000 810.6600 416.6300Q807.3000 409.5600 807.3000 399.9000L807.3000 399.9000L807.3000 360.5600Q807.3000 359.1600 808.2800 358.1800Q809.2600 357.2000 810.6600 357.2000L810.6600 357.2000L822.9800 357.2000Q824.5200 357.2000 825.4300 358.1800Q826.3400 359.1600 826.3400 360.5600L826.3400 360.5600L826.3400 399.0600Q826.3400 416.4200 841.6000 416.4200L841.6000 416.4200Q848.8800 416.4200 853.1500 411.8000Q857.4200 407.1800 857.4200 399.0600L857.4200 399.0600L857.4200 360.5600Q857.4200 359.1600 858.4000 358.1800Q859.3800 357.2000 860.7800 357.2000L860.7800 357.2000L873.1000 357.2000Q874.5000 357.2000 875.4800 358.1800Q876.4600 359.1600 876.4600 360.5600L876.4600 360.5600L876.4600 426.6400Q876.4600 428.0400 875.4800 429.0200Q874.5000 430 873.1000 430L873.1000 430L861.7600 430Q860.2200 430 859.3100 429.0200Q858.4000 428.0400 858.4000 426.6400L858.4000 426.6400L858.4000 420.9000Q854.6200 425.8000 849.0200 428.6000Q843.4200 431.4000 835.0200 431.4000ZM916.0800 431.4000L916.0800 431.4000Q908.8000 431.4000 902.9200 428.5300Q897.0400 425.6600 893.6100 420.8300Q890.1800 416 890.1800 409.9800L890.1800 409.9800Q890.1800 400.1800 898.1600 394.3700Q906.1400 388.5600 919.0200 386.6000L919.0200 386.6000L938.2000 383.8000L938.2000 380.8600Q938.2000 374.9800 935.2600 371.7600Q932.3200 368.5400 925.1800 368.5400L925.1800 368.5400Q920.1400 368.5400 916.9900 370.5700Q913.8400 372.6000 912.3000 375.9600L912.3000 375.9600Q911.1800 377.7800 909.0800 377.7800L909.0800 377.7800L898.0200 377.7800Q896.4800 377.7800 895.7100 376.9400Q894.9400 376.1000 894.9400 374.7000L894.9400 374.7000Q895.0800 372.4600 896.8300 369.2400Q898.5800 366.0200 902.1500 363.0100Q905.7200 360 911.4600 357.9000Q917.2000 355.8000 925.3200 355.8000L925.3200 355.8000Q934.1400 355.8000 940.2300 357.9700Q946.3200 360.1400 949.9600 363.7800Q953.6000 367.4200 955.2800 372.3200Q956.9600 377.2200 956.9600 382.6800L956.9600 382.6800L956.9600 426.6400Q956.9600 428.0400 955.9800 429.0200Q955 430 953.6000 430L953.6000 430L942.2600 430Q940.7200 430 939.8100 429.0200Q938.9000 428.0400 938.9000 426.6400L938.9000 426.6400L938.9000 421.1800Q937.0800 423.7000 934 426.0800Q930.9200 428.4600 926.5100 429.9300Q922.1000 431.4000 916.0800 431.4000ZM920.8400 418.1000L920.8400 418.1000Q925.7400 418.1000 929.7300 416Q933.7200 413.9000 936.0300 409.4900Q938.3400 405.0800 938.3400 398.3600L938.3400 398.3600L938.3400 395.4200L924.3400 397.6600Q916.0800 398.9200 912.0200 401.7200Q907.9600 404.5200 907.9600 408.5800L907.9600 408.5800Q907.9600 411.6600 909.8500 413.8300Q911.7400 416 914.6800 417.0500Q917.6200 418.1000 920.8400 418.1000ZM990.0000 430L978.3800 430Q976.9800 430 976.0000 429.0200Q975.0200 428.0400 975.0200 426.6400L975.0200 426.6400L975.0200 333.9600Q975.0200 332.5600 976.0000 331.5800Q976.9800 330.6000 978.3800 330.6000L978.3800 330.6000L990.0000 330.6000Q991.4000 330.6000 992.3800 331.5800Q993.3600 332.5600 993.3600 333.9600L993.3600 333.9600L993.3600 426.6400Q993.3600 428.0400 992.3800 429.0200Q991.4000 430 990.0000 430L990.0000 430ZM1026.9600 430L1015.3400 430Q1013.9400 430 1012.9600 429.0200Q1011.9800 428.0400 1011.9800 426.6400L1011.9800 426.6400L1011.9800 360.5600Q1011.9800 359.1600 1012.9600 358.1800Q1013.9400 357.2000 1015.3400 357.2000L1015.3400 357.2000L1026.9600 357.2000Q1028.5000 357.2000 1029.4100 358.1800Q1030.3200 359.1600 1030.3200 360.5600L1030.3200 360.5600L1030.3200 426.6400Q1030.3200 428.0400 1029.4100 429.0200Q1028.5000 430 1026.9600 430L1026.9600 430ZM1027.5200 345.1600L1014.7800 345.1600Q1013.3800 345.1600 1012.4000 344.1800Q1011.4200 343.2000 1011.4200 341.8000L1011.4200 341.8000L1011.4200 331.7200Q1011.4200 330.3200 1012.4000 329.3400Q1013.3800 328.3600 1014.7800 328.3600L1014.7800 328.3600L1027.5200 328.3600Q1029.0600 328.3600 1030.0400 329.3400Q1031.0200 330.3200 1031.0200 331.7200L1031.0200 331.7200L1031.0200 341.8000Q1031.0200 343.2000 1030.0400 344.1800Q1029.0600 345.1600 1027.5200 345.1600L1027.5200 345.1600ZM1105.7800 430L1048.6600 430Q1047.1200 430 1046.2100 429.0200Q1045.3000 428.0400 1045.3000 426.6400L1045.3000 426.6400L1045.3000 418.6600Q1045.3000 417.4000 1045.9300 416.2100Q1046.5600 415.0200 1047.2600 414.1800L1047.2600 414.1800L1083.1000 371.7600L1049.7800 371.7600Q1048.3800 371.7600 1047.4000 370.8500Q1046.4200 369.9400 1046.4200 368.4000L1046.4200 368.4000L1046.4200 360.5600Q1046.4200 359.1600 1047.4000 358.1800Q1048.3800 357.2000 1049.7800 357.2000L1049.7800 357.2000L1102.8400 357.2000Q1104.3800 357.2000 1105.2900 358.1800Q1106.2000 359.1600 1106.2000 360.5600L1106.2000 360.5600L1106.2000 369.1000Q1106.2000 370.3600 1105.6400 371.3400Q1105.0800 372.3200 1104.2400 373.3000L1104.2400 373.3000L1069.2400 415.4400L1105.7800 415.4400Q1107.1800 415.4400 1108.1600 416.3500Q1109.1400 417.2600 1109.1400 418.8000L1109.1400 418.8000L1109.1400 426.6400Q1109.1400 428.0400 1108.1600 429.0200Q1107.1800 430 1105.7800 430L1105.7800 430ZM1144.4200 431.4000L1144.4200 431.4000Q1137.1400 431.4000 1131.2600 428.5300Q1125.3800 425.6600 1121.9500 420.8300Q1118.5200 416 1118.5200 409.9800L1118.5200 409.9800Q1118.5200 400.1800 1126.5000 394.3700Q1134.4800 388.5600 1147.3600 386.6000L1147.3600 386.6000L1166.5400 383.8000L1166.5400 380.8600Q1166.5400 374.9800 1163.6000 371.7600Q1160.6600 368.5400 1153.5200 368.5400L1153.5200 368.5400Q1148.4800 368.5400 1145.3300 370.5700Q1142.1800 372.6000 1140.6400 375.9600L1140.6400 375.9600Q1139.5200 377.7800 1137.4200 377.7800L1137.4200 377.7800L1126.3600 377.7800Q1124.8200 377.7800 1124.0500 376.9400Q1123.2800 376.1000 1123.2800 374.7000L1123.2800 374.7000Q1123.4200 372.4600 1125.1700 369.2400Q1126.9200 366.0200 1130.4900 363.0100Q1134.0600 360 1139.8000 357.9000Q1145.5400 355.8000 1153.6600 355.8000L1153.6600 355.8000Q1162.4800 355.8000 1168.5700 357.9700Q1174.6600 360.1400 1178.3000 363.7800Q1181.9400 367.4200 1183.6200 372.3200Q1185.3000 377.2200 1185.3000 382.6800L1185.3000 382.6800L1185.3000 426.6400Q1185.3000 428.0400 1184.3200 429.0200Q1183.3400 430 1181.9400 430L1181.9400 430L1170.6000 430Q1169.0600 430 1168.1500 429.0200Q1167.2400 428.0400 1167.2400 426.6400L1167.2400 426.6400L1167.2400 421.1800Q1165.4200 423.7000 1162.3400 426.0800Q1159.2600 428.4600 1154.8500 429.9300Q1150.4400 431.4000 1144.4200 431.4000ZM1149.1800 418.1000L1149.1800 418.1000Q1154.0800 418.1000 1158.0700 416Q1162.0600 413.9000 1164.3700 409.4900Q1166.6800 405.0800 1166.6800 398.3600L1166.6800 398.3600L1166.6800 395.4200L1152.6800 397.6600Q1144.4200 398.9200 1140.3600 401.7200Q1136.3000 404.5200 1136.3000 408.5800L1136.3000 408.5800Q1136.3000 411.6600 1138.1900 413.8300Q1140.0800 416 1143.0200 417.0500Q1145.9600 418.1000 1149.1800 418.1000ZM1218.7600 430L1206.5800 430Q1205.1800 430 1204.2000 429.0200Q1203.2200 428.0400 1203.2200 426.6400L1203.2200 426.6400L1203.2200 360.7000Q1203.2200 359.1600 1204.2000 358.1800Q1205.1800 357.2000 1206.5800 357.2000L1206.5800 357.2000L1217.9200 357.2000Q1219.3200 357.2000 1220.3700 358.1800Q1221.4200 359.1600 1221.4200 360.7000L1221.4200 360.7000L1221.4200 366.4400Q1224.6400 361.9600 1229.7500 359.5800Q1234.8600 357.2000 1241.5800 357.2000L1241.5800 357.2000L1247.3200 357.2000Q1248.8600 357.2000 1249.7700 358.1800Q1250.6800 359.1600 1250.6800 360.5600L1250.6800 360.5600L1250.6800 370.6400Q1250.6800 372.0400 1249.7700 373.0200Q1248.8600 374 1247.3200 374L1247.3200 374L1236.4000 374Q1229.6800 374 1225.9700 377.7100Q1222.2600 381.4200 1222.2600 388.1400L1222.2600 388.1400L1222.2600 426.6400Q1222.2600 428.0400 1221.2800 429.0200Q1220.3000 430 1218.7600 430L1218.7600 430ZM1325.0200 431.4000L1325.0200 431.4000Q1309.4800 431.4000 1300.3800 422.4400Q1291.2800 413.4800 1290.5800 396.9600L1290.5800 396.9600Q1290.4400 395.5600 1290.4400 393.3900Q1290.4400 391.2200 1290.5800 389.9600L1290.5800 389.9600Q1291.1400 379.3200 1295.4100 371.6900Q1299.6800 364.0600 1307.2400 359.9300Q1314.8000 355.8000 1325.0200 355.8000L1325.0200 355.8000Q1336.3600 355.8000 1344.0600 360.4900Q1351.7600 365.1800 1355.6800 373.5100Q1359.6000 381.8400 1359.6000 392.7600L1359.6000 392.7600L1359.6000 395.7000Q1359.6000 397.1000 1358.6200 398.0800Q1357.6400 399.0600 1356.1000 399.0600L1356.1000 399.0600L1309.6200 399.0600Q1309.6200 399.0600 1309.6200 399.4800Q1309.6200 399.9000 1309.6200 400.1800L1309.6200 400.1800Q1309.7600 405.0800 1311.5100 409.2100Q1313.2600 413.3400 1316.6900 415.8600Q1320.1200 418.3800 1324.8800 418.3800L1324.8800 418.3800Q1328.8000 418.3800 1331.4600 417.1900Q1334.1200 416 1335.8000 414.4600Q1337.4800 412.9200 1338.1800 411.9400L1338.1800 411.9400Q1339.4400 410.2600 1340.2100 409.9100Q1340.9800 409.5600 1342.5200 409.5600L1342.5200 409.5600L1354.5600 409.5600Q1355.9600 409.5600 1356.8700 410.4000Q1357.7800 411.2400 1357.6400 412.5000L1357.6400 412.5000Q1357.5000 414.7400 1355.3300 417.9600Q1353.1600 421.1800 1349.1000 424.2600Q1345.0400 427.3400 1338.9500 429.3700Q1332.8600 431.4000 1325.0200 431.4000ZM1309.6200 386.8800L1309.6200 387.3000L1340.5600 387.3000L1340.5600 386.8800Q1340.5600 381.4200 1338.7400 377.2900Q1336.9200 373.1600 1333.4200 370.8500Q1329.9200 368.5400 1325.0200 368.5400L1325.0200 368.5400Q1320.1200 368.5400 1316.6200 370.8500Q1313.1200 373.1600 1311.3700 377.2900Q1309.6200 381.4200 1309.6200 386.8800L1309.6200 386.8800ZM199.1400 570L164.2800 570Q162.8800 570 161.9000 569.0200Q160.9200 568.0400 160.9200 566.6400L160.9200 566.6400L160.9200 475.5000Q160.9200 473.9600 161.9000 472.9800Q162.8800 472 164.2800 472L164.2800 472L198.4400 472Q212.5800 472 221.7500 476.3400Q230.9200 480.6800 235.6100 489.2200Q240.3000 497.7600 240.4400 510.0800L240.4400 510.0800Q240.7200 516.2400 240.7200 521Q240.7200 525.7600 240.4400 531.7800L240.4400 531.7800Q240.1600 544.8000 235.6800 553.2700Q231.2000 561.7400 222.1700 565.8700Q213.1400 570 199.1400 570L199.1400 570ZM180.3800 488.1000L180.3800 553.9000L198.4400 553.9000Q206.2800 553.9000 211.1800 551.6600Q216.0800 549.4200 218.3900 544.4500Q220.7000 539.4800 220.8400 531.3600L220.8400 531.3600Q220.9800 527.1600 221.0500 524.0100Q221.1200 520.8600 221.0500 517.7100Q220.9800 514.5600 220.8400 510.5000L220.8400 510.5000Q220.5600 499.0200 215.1000 493.5600Q209.6400 488.1000 197.7400 488.1000L197.7400 488.1000L180.3800 488.1000ZM289.0200 571.4000L289.0200 571.4000Q273.4800 571.4000 264.3800 562.4400Q255.2800 553.4800 254.5800 536.9600L254.5800 536.9600Q254.4400 535.5600 254.4400 533.3900Q254.4400 531.2200 254.5800 529.9600L254.5800 529.9600Q255.1400 519.3200 259.4100 511.6900Q263.6800 504.0600 271.2400 499.9300Q278.8000 495.8000 289.0200 495.8000L289.0200 495.8000Q300.3600 495.8000 308.0600 500.4900Q315.7600 505.1800 319.6800 513.5100Q323.6000 521.8400 323.6000 532.7600L323.6000 532.7600L323.6000 535.7000Q323.6000 537.1000 322.6200 538.0800Q321.6400 539.0600 320.1000 539.0600L320.1000 539.0600L273.6200 539.0600Q273.6200 539.0600 273.6200 539.4800Q273.6200 539.9000 273.6200 540.1800L273.6200 540.1800Q273.7600 545.0800 275.5100 549.2100Q277.2600 553.3400 280.6900 555.8600Q284.1200 558.3800 288.8800 558.3800L288.8800 558.3800Q292.8000 558.3800 295.4600 557.1900Q298.1200 556 299.8000 554.4600Q301.4800 552.9200 302.1800 551.9400L302.1800 551.9400Q303.4400 550.2600 304.2100 549.9100Q304.9800 549.5600 306.5200 549.5600L306.5200 549.5600L318.5600 549.5600Q319.9600 549.5600 320.8700 550.4000Q321.7800 551.2400 321.6400 552.5000L321.6400 552.5000Q321.5000 554.7400 319.3300 557.9600Q317.1600 561.1800 313.1000 564.2600Q309.0400 567.3400 302.9500 569.3700Q296.8600 571.4000 289.0200 571.4000ZM273.6200 526.8800L273.6200 527.3000L304.5600 527.3000L304.5600 526.8800Q304.5600 521.4200 302.7400 517.2900Q300.9200 513.1600 297.4200 510.8500Q293.9200 508.5400 289.0200 508.5400L289.0200 508.5400Q284.1200 508.5400 280.6200 510.8500Q277.1200 513.1600 275.3700 517.2900Q273.6200 521.4200 273.6200 526.8800L273.6200 526.8800ZM353.5600 570L341.9400 570Q340.5400 570 339.5600 569.0200Q338.5800 568.0400 338.5800 566.6400L338.5800 566.6400L338.5800 473.9600Q338.5800 472.5600 339.5600 471.5800Q340.5400 470.6000 341.9400 470.6000L341.9400 470.6000L353.5600 470.6000Q354.9600 470.6000 355.9400 471.5800Q356.9200 472.5600 356.9200 473.9600L356.9200 473.9600L356.9200 566.6400Q356.9200 568.0400 355.9400 569.0200Q354.9600 570 353.5600 570L353.5600 570ZM406.9000 571.4000L406.9000 571.4000Q391.3600 571.4000 382.2600 562.4400Q373.1600 553.4800 372.4600 536.9600L372.4600 536.9600Q372.3200 535.5600 372.3200 533.3900Q372.3200 531.2200 372.4600 529.9600L372.4600 529.9600Q373.0200 519.3200 377.2900 511.6900Q381.5600 504.0600 389.1200 499.9300Q396.6800 495.8000 406.9000 495.8000L406.9000 495.8000Q418.2400 495.8000 425.9400 500.4900Q433.6400 505.1800 437.5600 513.5100Q441.4800 521.8400 441.4800 532.7600L441.4800 532.7600L441.4800 535.7000Q441.4800 537.1000 440.5000 538.0800Q439.5200 539.0600 437.9800 539.0600L437.9800 539.0600L391.5000 539.0600Q391.5000 539.0600 391.5000 539.4800Q391.5000 539.9000 391.5000 540.1800L391.5000 540.1800Q391.6400 545.0800 393.3900 549.2100Q395.1400 553.3400 398.5700 555.8600Q402.0000 558.3800 406.7600 558.3800L406.7600 558.3800Q410.6800 558.3800 413.3400 557.1900Q416.0000 556 417.6800 554.4600Q419.3600 552.9200 420.0600 551.9400L420.0600 551.9400Q421.3200 550.2600 422.0900 549.9100Q422.8600 549.5600 424.4000 549.5600L424.4000 549.5600L436.4400 549.5600Q437.8400 549.5600 438.7500 550.4000Q439.6600 551.2400 439.5200 552.5000L439.5200 552.5000Q439.3800 554.7400 437.2100 557.9600Q435.0400 561.1800 430.9800 564.2600Q426.9200 567.3400 420.8300 569.3700Q414.7400 571.4000 406.9000 571.4000ZM391.5000 526.8800L391.5000 527.3000L422.4400 527.3000L422.4400 526.8800Q422.4400 521.4200 420.6200 517.2900Q418.8000 513.1600 415.3000 510.8500Q411.8000 508.5400 406.9000 508.5400L406.9000 508.5400Q402.0000 508.5400 398.5000 510.8500Q395.0000 513.1600 393.2500 517.2900Q391.5000 521.4200 391.5000 526.8800L391.5000 526.8800ZM500.5600 570L489.2200 570Q480.8200 570 475.0800 567.0600Q469.3400 564.1200 466.5400 558.3100Q463.7400 552.5000 463.7400 543.8200L463.7400 543.8200L463.7400 512.0400L452.6800 512.0400Q451.2800 512.0400 450.3000 511.0600Q449.3200 510.0800 449.3200 508.5400L449.3200 508.5400L449.3200 500.5600Q449.3200 499.1600 450.3000 498.1800Q451.2800 497.2000 452.6800 497.2000L452.6800 497.2000L463.7400 497.2000L463.7400 473.9600Q463.7400 472.5600 464.6500 471.5800Q465.5600 470.6000 467.1000 470.6000L467.1000 470.6000L478.4400 470.6000Q479.8400 470.6000 480.8200 471.5800Q481.8000 472.5600 481.8000 473.9600L481.8000 473.9600L481.8000 497.2000L499.3000 497.2000Q500.7000 497.2000 501.6800 498.1800Q502.6600 499.1600 502.6600 500.5600L502.6600 500.5600L502.6600 508.5400Q502.6600 510.0800 501.6800 511.0600Q500.7000 512.0400 499.3000 512.0400L499.3000 512.0400L481.8000 512.0400L481.8000 542.4200Q481.8000 548.1600 483.8300 551.3800Q485.8600 554.6000 490.9000 554.6000L490.9000 554.6000L500.5600 554.6000Q501.9600 554.6000 502.9400 555.5800Q503.9200 556.5600 503.9200 557.9600L503.9200 557.9600L503.9200 566.6400Q503.9200 568.0400 502.9400 569.0200Q501.9600 570 500.5600 570L500.5600 570ZM537.5200 571.4000L537.5200 571.4000Q530.2400 571.4000 524.3600 568.5300Q518.4800 565.6600 515.0500 560.8300Q511.6200 556 511.6200 549.9800L511.6200 549.9800Q511.6200 540.1800 519.6000 534.3700Q527.5800 528.5600 540.4600 526.6000L540.4600 526.6000L559.6400 523.8000L559.6400 520.8600Q559.6400 514.9800 556.7000 511.7600Q553.7600 508.5400 546.6200 508.5400L546.6200 508.5400Q541.5800 508.5400 538.4300 510.5700Q535.2800 512.6000 533.7400 515.9600L533.7400 515.9600Q532.6200 517.7800 530.5200 517.7800L530.5200 517.7800L519.4600 517.7800Q517.9200 517.7800 517.1500 516.9400Q516.3800 516.1000 516.3800 514.7000L516.3800 514.7000Q516.5200 512.4600 518.2700 509.2400Q520.0200 506.0200 523.5900 503.0100Q527.1600 500 532.9000 497.9000Q538.6400 495.8000 546.7600 495.8000L546.7600 495.8000Q555.5800 495.8000 561.6700 497.9700Q567.7600 500.1400 571.4000 503.7800Q575.0400 507.4200 576.7200 512.3200Q578.4000 517.2200 578.4000 522.6800L578.4000 522.6800L578.4000 566.6400Q578.4000 568.0400 577.4200 569.0200Q576.4400 570 575.0400 570L575.0400 570L563.7000 570Q562.1600 570 561.2500 569.0200Q560.3400 568.0400 560.3400 566.6400L560.3400 566.6400L560.3400 561.1800Q558.5200 563.7000 555.4400 566.0800Q552.3600 568.4600 547.9500 569.9300Q543.5400 571.4000 537.5200 571.4000ZM542.2800 558.1000L542.2800 558.1000Q547.1800 558.1000 551.1700 556Q555.1600 553.9000 557.4700 549.4900Q559.7800 545.0800 559.7800 538.3600L559.7800 538.3600L559.7800 535.4200L545.7800 537.6600Q537.5200 538.9200 533.4600 541.7200Q529.4000 544.5200 529.4000 548.5800L529.4000 548.5800Q529.4000 551.6600 531.2900 553.8300Q533.1800 556 536.1200 557.0500Q539.0600 558.1000 542.2800 558.1000ZM611.8600 570L599.6800 570Q598.2800 570 597.3000 569.0200Q596.3200 568.0400 596.3200 566.6400L596.3200 566.6400L596.3200 500.7000Q596.3200 499.1600 597.3000 498.1800Q598.2800 497.2000 599.6800 497.2000L599.6800 497.2000L611.0200 497.2000Q612.4200 497.2000 613.4700 498.1800Q614.5200 499.1600 614.5200 500.7000L614.5200 500.7000L614.5200 506.4400Q617.7400 501.9600 622.8500 499.5800Q627.9600 497.2000 634.6800 497.2000L634.6800 497.2000L640.4200 497.2000Q641.9600 497.2000 642.8700 498.1800Q643.7800 499.1600 643.7800 500.5600L643.7800 500.5600L643.7800 510.6400Q643.7800 512.0400 642.8700 513.0200Q641.9600 514 640.4200 514L640.4200 514L629.5000 514Q622.7800 514 619.0700 517.7100Q615.3600 521.4200 615.3600 528.1400L615.3600 528.1400L615.3600 566.6400Q615.3600 568.0400 614.3800 569.0200Q613.4000 570 611.8600 570L611.8600 570ZM713.7800 571.4000L713.7800 571.4000Q706.5000 571.4000 700.9700 568.9500Q695.4400 566.5000 691.8000 562.0200Q688.1600 557.5400 686.2000 551.4500Q684.2400 545.3600 683.9600 538.0800L683.9600 538.0800Q683.8200 535.5600 683.8200 533.5300Q683.8200 531.5000 683.9600 528.9800L683.9600 528.9800Q684.2400 521.9800 686.1300 515.9600Q688.0200 509.9400 691.7300 505.3900Q695.4400 500.8400 700.9700 498.3200Q706.5000 495.8000 713.7800 495.8000L713.7800 495.8000Q721.3400 495.8000 726.5900 498.3900Q731.8400 500.9800 735.3400 505.0400L735.3400 505.0400L735.3400 473.9600Q735.3400 472.5600 736.2500 471.5800Q737.1600 470.6000 738.7000 470.6000L738.7000 470.6000L750.6000 470.6000Q752 470.6000 752.9800 471.5800Q753.9600 472.5600 753.9600 473.9600L753.9600 473.9600L753.9600 566.6400Q753.9600 568.0400 752.9800 569.0200Q752 570 750.6000 570L750.6000 570L739.5400 570Q738 570 737.0900 569.0200Q736.1800 568.0400 736.1800 566.6400L736.1800 566.6400L736.1800 561.4600Q732.6800 565.8000 727.2900 568.6000Q721.9000 571.4000 713.7800 571.4000ZM718.9600 556.4200L718.9600 556.4200Q724.8400 556.4200 728.3400 553.7600Q731.8400 551.1000 733.5200 546.9700Q735.2000 542.8400 735.3400 538.5000L735.3400 538.5000Q735.4800 535.9800 735.4800 533.1100Q735.4800 530.2400 735.3400 527.7200L735.3400 527.7200Q735.2000 523.5200 733.3800 519.6700Q731.5600 515.8200 728.0600 513.3000Q724.5600 510.7800 718.9600 510.7800L718.9600 510.7800Q713.0800 510.7800 709.6500 513.3700Q706.2200 515.9600 704.6800 520.1600Q703.1400 524.3600 702.8600 529.4000L702.8600 529.4000Q702.7200 533.6000 702.8600 537.8000L702.8600 537.8000Q703.1400 542.8400 704.6800 547.0400Q706.2200 551.2400 709.6500 553.8300Q713.0800 556.4200 718.9600 556.4200ZM793.7200 571.4000L793.7200 571.4000Q786.4400 571.4000 780.5600 568.5300Q774.6800 565.6600 771.2500 560.8300Q767.8200 556 767.8200 549.9800L767.8200 549.9800Q767.8200 540.1800 775.8000 534.3700Q783.7800 528.5600 796.6600 526.6000L796.6600 526.6000L815.8400 523.8000L815.8400 520.8600Q815.8400 514.9800 812.9000 511.7600Q809.9600 508.5400 802.8200 508.5400L802.8200 508.5400Q797.7800 508.5400 794.6300 510.5700Q791.4800 512.6000 789.9400 515.9600L789.9400 515.9600Q788.8200 517.7800 786.7200 517.7800L786.7200 517.7800L775.6600 517.7800Q774.1200 517.7800 773.3500 516.9400Q772.5800 516.1000 772.5800 514.7000L772.5800 514.7000Q772.7200 512.4600 774.4700 509.2400Q776.2200 506.0200 779.7900 503.0100Q783.3600 500 789.1000 497.9000Q794.8400 495.8000 802.9600 495.8000L802.9600 495.8000Q811.7800 495.8000 817.8700 497.9700Q823.9600 500.1400 827.6000 503.7800Q831.2400 507.4200 832.9200 512.3200Q834.6000 517.2200 834.6000 522.6800L834.6000 522.6800L834.6000 566.6400Q834.6000 568.0400 833.6200 569.0200Q832.6400 570 831.2400 570L831.2400 570L819.9000 570Q818.3600 570 817.4500 569.0200Q816.5400 568.0400 816.5400 566.6400L816.5400 566.6400L816.5400 561.1800Q814.7200 563.7000 811.6400 566.0800Q808.5600 568.4600 804.1500 569.9300Q799.7400 571.4000 793.7200 571.4000ZM798.4800 558.1000L798.4800 558.1000Q803.3800 558.1000 807.3700 556Q811.3600 553.9000 813.6700 549.4900Q815.9800 545.0800 815.9800 538.3600L815.9800 538.3600L815.9800 535.4200L801.9800 537.6600Q793.7200 538.9200 789.6600 541.7200Q785.6000 544.5200 785.6000 548.5800L785.6000 548.5800Q785.6000 551.6600 787.4900 553.8300Q789.3800 556 792.3200 557.0500Q795.2600 558.1000 798.4800 558.1000ZM879.5400 571.4000L879.5400 571.4000Q872.2600 571.4000 866.7300 568.9500Q861.2000 566.5000 857.5600 562.0200Q853.9200 557.5400 851.9600 551.4500Q850.0000 545.3600 849.7200 538.0800L849.7200 538.0800Q849.5800 535.5600 849.5800 533.5300Q849.5800 531.5000 849.7200 528.9800L849.7200 528.9800Q850.0000 521.9800 851.8900 515.9600Q853.7800 509.9400 857.4900 505.3900Q861.2000 500.8400 866.7300 498.3200Q872.2600 495.8000 879.5400 495.8000L879.5400 495.8000Q887.1000 495.8000 892.3500 498.3900Q897.6000 500.9800 901.1000 505.0400L901.1000 505.0400L901.1000 473.9600Q901.1000 472.5600 902.0100 471.5800Q902.9200 470.6000 904.4600 470.6000L904.4600 470.6000L916.3600 470.6000Q917.7600 470.6000 918.7400 471.5800Q919.7200 472.5600 919.7200 473.9600L919.7200 473.9600L919.7200 566.6400Q919.7200 568.0400 918.7400 569.0200Q917.7600 570 916.3600 570L916.3600 570L905.3000 570Q903.7600 570 902.8500 569.0200Q901.9400 568.0400 901.9400 566.6400L901.9400 566.6400L901.9400 561.4600Q898.4400 565.8000 893.0500 568.6000Q887.6600 571.4000 879.5400 571.4000ZM884.7200 556.4200L884.7200 556.4200Q890.6000 556.4200 894.1000 553.7600Q897.6000 551.1000 899.2800 546.9700Q900.9600 542.8400 901.1000 538.5000L901.1000 538.5000Q901.2400 535.9800 901.2400 533.1100Q901.2400 530.2400 901.1000 527.7200L901.1000 527.7200Q900.9600 523.5200 899.1400 519.6700Q897.3200 515.8200 893.8200 513.3000Q890.3200 510.7800 884.7200 510.7800L884.7200 510.7800Q878.8400 510.7800 875.4100 513.3700Q871.9800 515.9600 870.4400 520.1600Q868.9000 524.3600 868.6200 529.4000L868.6200 529.4000Q868.4800 533.6000 868.6200 537.8000L868.6200 537.8000Q868.9000 542.8400 870.4400 547.0400Q871.9800 551.2400 875.4100 553.8300Q878.8400 556.4200 884.7200 556.4200ZM970.5400 571.4000L970.5400 571.4000Q959.3400 571.4000 951.7100 567.4800Q944.0800 563.5600 940.0900 556.4200Q936.1000 549.2800 935.5400 539.7600L935.5400 539.7600Q935.4000 537.2400 935.4000 533.6000Q935.4000 529.9600 935.5400 527.4400L935.5400 527.4400Q936.1000 517.7800 940.2300 510.7100Q944.3600 503.6400 951.9900 499.7200Q959.6200 495.8000 970.5400 495.8000L970.5400 495.8000Q981.4600 495.8000 989.0900 499.7200Q996.7200 503.6400 1000.8500 510.7100Q1004.9800 517.7800 1005.5400 527.4400L1005.5400 527.4400Q1005.6800 529.9600 1005.6800 533.6000Q1005.6800 537.2400 1005.5400 539.7600L1005.5400 539.7600Q1004.9800 549.2800 1000.9900 556.4200Q997.0000 563.5600 989.3700 567.4800Q981.7400 571.4000 970.5400 571.4000ZM970.5400 557.5400L970.5400 557.5400Q977.9600 557.5400 982.0200 552.8500Q986.0800 548.1600 986.5000 539.0600L986.5000 539.0600Q986.6400 536.9600 986.6400 533.6000Q986.6400 530.2400 986.5000 528.1400L986.5000 528.1400Q986.0800 519.0400 982.0200 514.3500Q977.9600 509.6600 970.5400 509.6600L970.5400 509.6600Q963.1200 509.6600 959.0600 514.3500Q955.0000 519.0400 954.5800 528.1400L954.5800 528.1400Q954.4400 530.2400 954.4400 533.6000Q954.4400 536.9600 954.5800 539.0600L954.5800 539.0600Q955.0000 548.1600 959.0600 552.8500Q963.1200 557.5400 970.5400 557.5400ZM1048.8000 571.4000L1048.8000 571.4000Q1040.4000 571.4000 1034.4500 569.4400Q1028.5000 567.4800 1024.7200 564.5400Q1020.9400 561.6000 1019.1200 558.6600Q1017.3000 555.7200 1017.1600 553.7600L1017.1600 553.7600Q1017.0200 552.2200 1018.0700 551.3100Q1019.1200 550.4000 1020.3800 550.4000L1020.3800 550.4000L1031.4400 550.4000Q1032.0000 550.4000 1032.4200 550.5400Q1032.8400 550.6800 1033.5400 551.3800L1033.5400 551.3800Q1035.3600 552.9200 1037.3900 554.6000Q1039.4200 556.2800 1042.2200 557.4700Q1045.0200 558.6600 1049.2200 558.6600L1049.2200 558.6600Q1054.6800 558.6600 1058.3900 556.4900Q1062.1000 554.3200 1062.1000 550.2600L1062.1000 550.2600Q1062.1000 547.3200 1060.4900 545.5000Q1058.8800 543.6800 1054.5400 542.2100Q1050.2000 540.7400 1042.2200 539.0600L1042.2200 539.0600Q1034.3800 537.2400 1029.2000 534.4400Q1024.0200 531.6400 1021.5000 527.4400Q1018.9800 523.2400 1018.9800 517.6400L1018.9800 517.6400Q1018.9800 512.1800 1022.2700 507.2100Q1025.5600 502.2400 1032.0700 499.0200Q1038.5800 495.8000 1048.2400 495.8000L1048.2400 495.8000Q1055.8000 495.8000 1061.4000 497.6900Q1067.0000 499.5800 1070.7100 502.3800Q1074.4200 505.1800 1076.3800 508.0500Q1078.3400 510.9200 1078.4800 513.0200L1078.4800 513.0200Q1078.6200 514.5600 1077.6400 515.4700Q1076.6600 516.3800 1075.4000 516.3800L1075.4000 516.3800L1065.0400 516.3800Q1064.3400 516.3800 1063.7800 516.1000Q1063.2200 515.8200 1062.6600 515.4000L1062.6600 515.4000Q1061.1200 514 1059.3000 512.3900Q1057.4800 510.7800 1054.8900 509.6600Q1052.3000 508.5400 1048.1000 508.5400L1048.1000 508.5400Q1042.7800 508.5400 1039.9800 510.8500Q1037.1800 513.1600 1037.1800 516.6600L1037.1800 516.6600Q1037.1800 519.0400 1038.5100 520.7900Q1039.8400 522.5400 1043.9000 524.0800Q1047.9600 525.6200 1056.2200 527.3000L1056.2200 527.3000Q1065.6000 528.9800 1071.1300 532.2700Q1076.6600 535.5600 1078.9700 539.8300Q1081.2800 544.1000 1081.2800 549.2800L1081.2800 549.2800Q1081.2800 555.5800 1077.5700 560.6200Q1073.8600 565.6600 1066.6500 568.5300Q1059.4400 571.4000 1048.8000 571.4000ZM186.2600 711.4000L186.2600 711.4000Q177.7200 711.4000 171.4900 707.5500Q165.2600 703.7000 161.9000 696.6300Q158.5400 689.5600 158.5400 679.9000L158.5400 679.9000L158.5400 640.5600Q158.5400 639.1600 159.5200 638.1800Q160.5000 637.2000 161.9000 637.2000L161.9000 637.2000L174.2200 637.2000Q175.7600 637.2000 176.6700 638.1800Q177.5800 639.1600 177.5800 640.5600L177.5800 640.5600L177.5800 679.0600Q177.5800 696.4200 192.8400 696.4200L192.8400 696.4200Q200.1200 696.4200 204.3900 691.8000Q208.6600 687.1800 208.6600 679.0600L208.6600 679.0600L208.6600 640.5600Q208.6600 639.1600 209.6400 638.1800Q210.6200 637.2000 212.0200 637.2000L212.0200 637.2000L224.3400 637.2000Q225.7400 637.2000 226.7200 638.1800Q227.7000 639.1600 227.7000 640.5600L227.7000 640.5600L227.7000 706.6400Q227.7000 708.0400 226.7200 709.0200Q225.7400 710 224.3400 710L224.3400 710L213 710Q211.4600 710 210.5500 709.0200Q209.6400 708.0400 209.6400 706.6400L209.6400 706.6400L209.6400 700.9000Q205.8600 705.8000 200.2600 708.6000Q194.6600 711.4000 186.2600 711.4000ZM290.4200 710L279.0800 710Q270.6800 710 264.9400 707.0600Q259.2000 704.1200 256.4000 698.3100Q253.6000 692.5000 253.6000 683.8200L253.6000 683.8200L253.6000 652.0400L242.5400 652.0400Q241.1400 652.0400 240.1600 651.0600Q239.1800 650.0800 239.1800 648.5400L239.1800 648.5400L239.1800 640.5600Q239.1800 639.1600 240.1600 638.1800Q241.1400 637.2000 242.5400 637.2000L242.5400 637.2000L253.6000 637.2000L253.6000 613.9600Q253.6000 612.5600 254.5100 611.5800Q255.4200 610.6000 256.9600 610.6000L256.9600 610.6000L268.3000 610.6000Q269.7000 610.6000 270.6800 611.5800Q271.6600 612.5600 271.6600 613.9600L271.6600 613.9600L271.6600 637.2000L289.1600 637.2000Q290.5600 637.2000 291.5400 638.1800Q292.5200 639.1600 292.5200 640.5600L292.5200 640.5600L292.5200 648.5400Q292.5200 650.0800 291.5400 651.0600Q290.5600 652.0400 289.1600 652.0400L289.1600 652.0400L271.6600 652.0400L271.6600 682.4200Q271.6600 688.1600 273.6900 691.3800Q275.7200 694.6000 280.7600 694.6000L280.7600 694.6000L290.4200 694.6000Q291.8200 694.6000 292.8000 695.5800Q293.7800 696.5600 293.7800 697.9600L293.7800 697.9600L293.7800 706.6400Q293.7800 708.0400 292.8000 709.0200Q291.8200 710 290.4200 710L290.4200 710ZM321.2200 710L309.6000 710Q308.2000 710 307.2200 709.0200Q306.2400 708.0400 306.2400 706.6400L306.2400 706.6400L306.2400 640.5600Q306.2400 639.1600 307.2200 638.1800Q308.2000 637.2000 309.6000 637.2000L309.6000 637.2000L321.2200 637.2000Q322.7600 637.2000 323.6700 638.1800Q324.5800 639.1600 324.5800 640.5600L324.5800 640.5600L324.5800 706.6400Q324.5800 708.0400 323.6700 709.0200Q322.7600 710 321.2200 710L321.2200 710ZM321.7800 625.1600L309.0400 625.1600Q307.6400 625.1600 306.6600 624.1800Q305.6800 623.2000 305.6800 621.8000L305.6800 621.8000L305.6800 611.7200Q305.6800 610.3200 306.6600 609.3400Q307.6400 608.3600 309.0400 608.3600L309.0400 608.3600L321.7800 608.3600Q323.3200 608.3600 324.3000 609.3400Q325.2800 610.3200 325.2800 611.7200L325.2800 611.7200L325.2800 621.8000Q325.2800 623.2000 324.3000 624.1800Q323.3200 625.1600 321.7800 625.1600L321.7800 625.1600ZM358.3200 710L346.7000 710Q345.3000 710 344.3200 709.0200Q343.3400 708.0400 343.3400 706.6400L343.3400 706.6400L343.3400 613.9600Q343.3400 612.5600 344.3200 611.5800Q345.3000 610.6000 346.7000 610.6000L346.7000 610.6000L358.3200 610.6000Q359.7200 610.6000 360.7000 611.5800Q361.6800 612.5600 361.6800 613.9600L361.6800 613.9600L361.6800 706.6400Q361.6800 708.0400 360.7000 709.0200Q359.7200 710 358.3200 710L358.3200 710ZM395.2800 710L383.6600 710Q382.2600 710 381.2800 709.0200Q380.3000 708.0400 380.3000 706.6400L380.3000 706.6400L380.3000 640.5600Q380.3000 639.1600 381.2800 638.1800Q382.2600 637.2000 383.6600 637.2000L383.6600 637.2000L395.2800 637.2000Q396.8200 637.2000 397.7300 638.1800Q398.6400 639.1600 398.6400 640.5600L398.6400 640.5600L398.6400 706.6400Q398.6400 708.0400 397.7300 709.0200Q396.8200 710 395.2800 710L395.2800 710ZM395.8400 625.1600L383.1000 625.1600Q381.7000 625.1600 380.7200 624.1800Q379.7400 623.2000 379.7400 621.8000L379.7400 621.8000L379.7400 611.7200Q379.7400 610.3200 380.7200 609.3400Q381.7000 608.3600 383.1000 608.3600L383.1000 608.3600L395.8400 608.3600Q397.3800 608.3600 398.3600 609.3400Q399.3400 610.3200 399.3400 611.7200L399.3400 611.7200L399.3400 621.8000Q399.3400 623.2000 398.3600 624.1800Q397.3800 625.1600 395.8400 625.1600L395.8400 625.1600ZM474.1000 710L416.9800 710Q415.4400 710 414.5300 709.0200Q413.6200 708.0400 413.6200 706.6400L413.6200 706.6400L413.6200 698.6600Q413.6200 697.4000 414.2500 696.2100Q414.8800 695.0200 415.5800 694.1800L415.5800 694.1800L451.4200 651.7600L418.1000 651.7600Q416.7000 651.7600 415.7200 650.8500Q414.7400 649.9400 414.7400 648.4000L414.7400 648.4000L414.7400 640.5600Q414.7400 639.1600 415.7200 638.1800Q416.7000 637.2000 418.1000 637.2000L418.1000 637.2000L471.1600 637.2000Q472.7000 637.2000 473.6100 638.1800Q474.5200 639.1600 474.5200 640.5600L474.5200 640.5600L474.5200 649.1000Q474.5200 650.3600 473.9600 651.3400Q473.4000 652.3200 472.5600 653.3000L472.5600 653.3000L437.5600 695.4400L474.1000 695.4400Q475.5000 695.4400 476.4800 696.3500Q477.4600 697.2600 477.4600 698.8000L477.4600 698.8000L477.4600 706.6400Q477.4600 708.0400 476.4800 709.0200Q475.5000 710 474.1000 710L474.1000 710ZM512.7400 711.4000L512.7400 711.4000Q505.4600 711.4000 499.5800 708.5300Q493.7000 705.6600 490.2700 700.8300Q486.8400 696 486.8400 689.9800L486.8400 689.9800Q486.8400 680.1800 494.8200 674.3700Q502.8000 668.5600 515.6800 666.6000L515.6800 666.6000L534.8600 663.8000L534.8600 660.8600Q534.8600 654.9800 531.9200 651.7600Q528.9800 648.5400 521.8400 648.5400L521.8400 648.5400Q516.8000 648.5400 513.6500 650.5700Q510.5000 652.6000 508.9600 655.9600L508.9600 655.9600Q507.8400 657.7800 505.7400 657.7800L505.7400 657.7800L494.6800 657.7800Q493.1400 657.7800 492.3700 656.9400Q491.6000 656.1000 491.6000 654.7000L491.6000 654.7000Q491.7400 652.4600 493.4900 649.2400Q495.2400 646.0200 498.8100 643.0100Q502.3800 640 508.1200 637.9000Q513.8600 635.8000 521.9800 635.8000L521.9800 635.8000Q530.8000 635.8000 536.8900 637.9700Q542.9800 640.1400 546.6200 643.7800Q550.2600 647.4200 551.9400 652.3200Q553.6200 657.2200 553.6200 662.6800L553.6200 662.6800L553.6200 706.6400Q553.6200 708.0400 552.6400 709.0200Q551.6600 710 550.2600 710L550.2600 710L538.9200 710Q537.3800 710 536.4700 709.0200Q535.5600 708.0400 535.5600 706.6400L535.5600 706.6400L535.5600 701.1800Q533.7400 703.7000 530.6600 706.0800Q527.5800 708.4600 523.1700 709.9300Q518.7600 711.4000 512.7400 711.4000ZM517.5000 698.1000L517.5000 698.1000Q522.4000 698.1000 526.3900 696Q530.3800 693.9000 532.6900 689.4900Q535 685.0800 535 678.3600L535 678.3600L535 675.4200L521 677.6600Q512.7400 678.9200 508.6800 681.7200Q504.6200 684.5200 504.6200 688.5800L504.6200 688.5800Q504.6200 691.6600 506.5100 693.8300Q508.4000 696 511.3400 697.0500Q514.2800 698.1000 517.5000 698.1000ZM587.2200 710L574.9000 710Q573.5000 710 572.5200 709.0200Q571.5400 708.0400 571.5400 706.6400L571.5400 706.6400L571.5400 640.5600Q571.5400 639.1600 572.5200 638.1800Q573.5000 637.2000 574.9000 637.2000L574.9000 637.2000L586.3800 637.2000Q587.7800 637.2000 588.7600 638.1800Q589.7400 639.1600 589.7400 640.5600L589.7400 640.5600L589.7400 646.3000Q593.3800 641.8200 599.0500 638.8100Q604.7200 635.8000 613.1200 635.8000L613.1200 635.8000Q621.6600 635.8000 627.9600 639.6500Q634.2600 643.5000 637.6900 650.5000Q641.1200 657.5000 641.1200 667.3000L641.1200 667.3000L641.1200 706.6400Q641.1200 708.0400 640.1400 709.0200Q639.1600 710 637.7600 710L637.7600 710L625.4400 710Q624.0400 710 623.0600 709.0200Q622.0800 708.0400 622.0800 706.6400L622.0800 706.6400L622.0800 668.1400Q622.0800 660.0200 618.0900 655.4000Q614.1000 650.7800 606.5400 650.7800L606.5400 650.7800Q599.2600 650.7800 594.9200 655.4000Q590.5800 660.0200 590.5800 668.1400L590.5800 668.1400L590.5800 706.6400Q590.5800 708.0400 589.6000 709.0200Q588.6200 710 587.2200 710L587.2200 710ZM685.9200 711.4000L685.9200 711.4000Q678.6400 711.4000 673.1100 708.9500Q667.5800 706.5000 663.9400 702.0200Q660.3000 697.5400 658.3400 691.4500Q656.3800 685.3600 656.1000 678.0800L656.1000 678.0800Q655.9600 675.5600 655.9600 673.5300Q655.9600 671.5000 656.1000 668.9800L656.1000 668.9800Q656.3800 661.9800 658.2700 655.9600Q660.1600 649.9400 663.8700 645.3900Q667.5800 640.8400 673.1100 638.3200Q678.6400 635.8000 685.9200 635.8000L685.9200 635.8000Q693.4800 635.8000 698.7300 638.3900Q703.9800 640.9800 707.4800 645.0400L707.4800 645.0400L707.4800 613.9600Q707.4800 612.5600 708.3900 611.5800Q709.3000 610.6000 710.8400 610.6000L710.8400 610.6000L722.7400 610.6000Q724.1400 610.6000 725.1200 611.5800Q726.1000 612.5600 726.1000 613.9600L726.1000 613.9600L726.1000 706.6400Q726.1000 708.0400 725.1200 709.0200Q724.1400 710 722.7400 710L722.7400 710L711.6800 710Q710.1400 710 709.2300 709.0200Q708.3200 708.0400 708.3200 706.6400L708.3200 706.6400L708.3200 701.4600Q704.8200 705.8000 699.4300 708.6000Q694.0400 711.4000 685.9200 711.4000ZM691.1000 696.4200L691.1000 696.4200Q696.9800 696.4200 700.4800 693.7600Q703.9800 691.1000 705.6600 686.9700Q707.3400 682.8400 707.4800 678.5000L707.4800 678.5000Q707.6200 675.9800 707.6200 673.1100Q707.6200 670.2400 707.4800 667.7200L707.4800 667.7200Q707.3400 663.5200 705.5200 659.6700Q703.7000 655.8200 700.2000 653.3000Q696.7000 650.7800 691.1000 650.7800L691.1000 650.7800Q685.2200 650.7800 681.7900 653.3700Q678.3600 655.9600 676.8200 660.1600Q675.2800 664.3600 675.0000 669.4000L675.0000 669.4000Q674.8600 673.6000 675.0000 677.8000L675.0000 677.8000Q675.2800 682.8400 676.8200 687.0400Q678.3600 691.2400 681.7900 693.8300Q685.2200 696.4200 691.1000 696.4200ZM776.9200 711.4000L776.9200 711.4000Q765.7200 711.4000 758.0900 707.4800Q750.4600 703.5600 746.4700 696.4200Q742.4800 689.2800 741.9200 679.7600L741.9200 679.7600Q741.7800 677.2400 741.7800 673.6000Q741.7800 669.9600 741.9200 667.4400L741.9200 667.4400Q742.4800 657.7800 746.6100 650.7100Q750.7400 643.6400 758.3700 639.7200Q766.0000 635.8000 776.9200 635.8000L776.9200 635.8000Q787.8400 635.8000 795.4700 639.7200Q803.1000 643.6400 807.2300 650.7100Q811.3600 657.7800 811.9200 667.4400L811.9200 667.4400Q812.0600 669.9600 812.0600 673.6000Q812.0600 677.2400 811.9200 679.7600L811.9200 679.7600Q811.3600 689.2800 807.3700 696.4200Q803.3800 703.5600 795.7500 707.4800Q788.1200 711.4000 776.9200 711.4000ZM776.9200 697.5400L776.9200 697.5400Q784.3400 697.5400 788.4000 692.8500Q792.4600 688.1600 792.8800 679.0600L792.8800 679.0600Q793.0200 676.9600 793.0200 673.6000Q793.0200 670.2400 792.8800 668.1400L792.8800 668.1400Q792.4600 659.0400 788.4000 654.3500Q784.3400 649.6600 776.9200 649.6600L776.9200 649.6600Q769.5000 649.6600 765.4400 654.3500Q761.3800 659.0400 760.9600 668.1400L760.9600 668.1400Q760.8200 670.2400 760.8200 673.6000Q760.8200 676.9600 760.9600 679.0600L760.9600 679.0600Q761.3800 688.1600 765.4400 692.8500Q769.5000 697.5400 776.9200 697.5400ZM880.8000 711.4000L880.8000 711.4000Q873.5200 711.4000 867.6400 708.5300Q861.7600 705.6600 858.3300 700.8300Q854.9000 696 854.9000 689.9800L854.9000 689.9800Q854.9000 680.1800 862.8800 674.3700Q870.8600 668.5600 883.7400 666.6000L883.7400 666.6000L902.9200 663.8000L902.9200 660.8600Q902.9200 654.9800 899.9800 651.7600Q897.0400 648.5400 889.9000 648.5400L889.9000 648.5400Q884.8600 648.5400 881.7100 650.5700Q878.5600 652.6000 877.0200 655.9600L877.0200 655.9600Q875.9000 657.7800 873.8000 657.7800L873.8000 657.7800L862.7400 657.7800Q861.2000 657.7800 860.4300 656.9400Q859.6600 656.1000 859.6600 654.7000L859.6600 654.7000Q859.8000 652.4600 861.5500 649.2400Q863.3000 646.0200 866.8700 643.0100Q870.4400 640 876.1800 637.9000Q881.9200 635.8000 890.0400 635.8000L890.0400 635.8000Q898.8600 635.8000 904.9500 637.9700Q911.0400 640.1400 914.6800 643.7800Q918.3200 647.4200 920.0000 652.3200Q921.6800 657.2200 921.6800 662.6800L921.6800 662.6800L921.6800 706.6400Q921.6800 708.0400 920.7000 709.0200Q919.7200 710 918.3200 710L918.3200 710L906.9800 710Q905.4400 710 904.5300 709.0200Q903.6200 708.0400 903.6200 706.6400L903.6200 706.6400L903.6200 701.1800Q901.8000 703.7000 898.7200 706.0800Q895.6400 708.4600 891.2300 709.9300Q886.8200 711.4000 880.8000 711.4000ZM885.5600 698.1000L885.5600 698.1000Q890.4600 698.1000 894.4500 696Q898.4400 693.9000 900.7500 689.4900Q903.0600 685.0800 903.0600 678.3600L903.0600 678.3600L903.0600 675.4200L889.0600 677.6600Q880.8000 678.9200 876.7400 681.7200Q872.6800 684.5200 872.6800 688.5800L872.6800 688.5800Q872.6800 691.6600 874.5700 693.8300Q876.4600 696 879.4000 697.0500Q882.3400 698.1000 885.5600 698.1000ZM986.7800 710L975.1600 710Q973.7600 710 972.7800 709.0200Q971.8000 708.0400 971.8000 706.6400L971.8000 706.6400L971.8000 613.9600Q971.8000 612.5600 972.7800 611.5800Q973.7600 610.6000 975.1600 610.6000L975.1600 610.6000L986.7800 610.6000Q988.1800 610.6000 989.1600 611.5800Q990.1400 612.5600 990.1400 613.9600L990.1400 613.9600L990.1400 706.6400Q990.1400 708.0400 989.1600 709.0200Q988.1800 710 986.7800 710L986.7800 710ZM1023.7400 710L1012.1200 710Q1010.7200 710 1009.7400 709.0200Q1008.7600 708.0400 1008.7600 706.6400L1008.7600 706.6400L1008.7600 640.5600Q1008.7600 639.1600 1009.7400 638.1800Q1010.7200 637.2000 1012.1200 637.2000L1012.1200 637.2000L1023.7400 637.2000Q1025.2800 637.2000 1026.1900 638.1800Q1027.1000 639.1600 1027.1000 640.5600L1027.1000 640.5600L1027.1000 706.6400Q1027.1000 708.0400 1026.1900 709.0200Q1025.2800 710 1023.7400 710L1023.7400 710ZM1024.3000 625.1600L1011.5600 625.1600Q1010.1600 625.1600 1009.1800 624.1800Q1008.2000 623.2000 1008.2000 621.8000L1008.2000 621.8000L1008.2000 611.7200Q1008.2000 610.3200 1009.1800 609.3400Q1010.1600 608.3600 1011.5600 608.3600L1011.5600 608.3600L1024.3000 608.3600Q1025.8400 608.3600 1026.8200 609.3400Q1027.8000 610.3200 1027.8000 611.7200L1027.8000 611.7200L1027.8000 621.8000Q1027.8000 623.2000 1026.8200 624.1800Q1025.8400 625.1600 1024.3000 625.1600L1024.3000 625.1600ZM1061.4000 710L1049.0800 710Q1047.6800 710 1046.7000 709.0200Q1045.7200 708.0400 1045.7200 706.6400L1045.7200 706.6400L1045.7200 640.5600Q1045.7200 639.1600 1046.7000 638.1800Q1047.6800 637.2000 1049.0800 637.2000L1049.0800 637.2000L1060.5600 637.2000Q1061.9600 637.2000 1062.9400 638.1800Q1063.9200 639.1600 1063.9200 640.5600L1063.9200 640.5600L1063.9200 646.3000Q1067.5600 641.8200 1073.2300 638.8100Q1078.9000 635.8000 1087.3000 635.8000L1087.3000 635.8000Q1095.8400 635.8000 1102.1400 639.6500Q1108.4400 643.5000 1111.8700 650.5000Q1115.3000 657.5000 1115.3000 667.3000L1115.3000 667.3000L1115.3000 706.6400Q1115.3000 708.0400 1114.3200 709.0200Q1113.3400 710 1111.9400 710L1111.9400 710L1099.6200 710Q1098.2200 710 1097.2400 709.0200Q1096.2600 708.0400 1096.2600 706.6400L1096.2600 706.6400L1096.2600 668.1400Q1096.2600 660.0200 1092.2700 655.4000Q1088.2800 650.7800 1080.7200 650.7800L1080.7200 650.7800Q1073.4400 650.7800 1069.1000 655.4000Q1064.7600 660.0200 1064.7600 668.1400L1064.7600 668.1400L1064.7600 706.6400Q1064.7600 708.0400 1063.7800 709.0200Q1062.8000 710 1061.4000 710L1061.4000 710ZM1149.0400 710L1136.5800 710Q1135.1800 710 1134.2000 709.0200Q1133.2200 708.0400 1133.2200 706.6400L1133.2200 706.6400L1133.2200 613.9600Q1133.2200 612.5600 1134.2000 611.5800Q1135.1800 610.6000 1136.5800 610.6000L1136.5800 610.6000L1149.0400 610.6000Q1150.5800 610.6000 1151.4900 611.5800Q1152.4000 612.5600 1152.4000 613.9600L1152.4000 613.9600L1152.4000 645.8800Q1156.1800 641.4000 1161.6400 638.6000Q1167.1000 635.8000 1175.0800 635.8000L1175.0800 635.8000Q1183.6200 635.8000 1189.9900 639.6500Q1196.3600 643.5000 1199.8600 650.5000Q1203.3600 657.5000 1203.3600 667.3000L1203.3600 667.3000L1203.3600 706.6400Q1203.3600 708.0400 1202.3800 709.0200Q1201.4000 710 1200.0000 710L1200.0000 710L1187.4000 710Q1186.0000 710 1185.0200 709.0200Q1184.0400 708.0400 1184.0400 706.6400L1184.0400 706.6400L1184.0400 668.1400Q1184.0400 660.0200 1180.0500 655.4000Q1176.0600 650.7800 1168.5000 650.7800L1168.5000 650.7800Q1161.2200 650.7800 1156.8100 655.4000Q1152.4000 660.0200 1152.4000 668.1400L1152.4000 668.1400L1152.4000 706.6400Q1152.4000 708.0400 1151.4900 709.0200Q1150.5800 710 1149.0400 710L1149.0400 710ZM1242.2800 711.4000L1242.2800 711.4000Q1235 711.4000 1229.1200 708.5300Q1223.2400 705.6600 1219.8100 700.8300Q1216.3800 696 1216.3800 689.9800L1216.3800 689.9800Q1216.3800 680.1800 1224.3600 674.3700Q1232.3400 668.5600 1245.2200 666.6000L1245.2200 666.6000L1264.4000 663.8000L1264.4000 660.8600Q1264.4000 654.9800 1261.4600 651.7600Q1258.5200 648.5400 1251.3800 648.5400L1251.3800 648.5400Q1246.3400 648.5400 1243.1900 650.5700Q1240.0400 652.6000 1238.5000 655.9600L1238.5000 655.9600Q1237.3800 657.7800 1235.2800 657.7800L1235.2800 657.7800L1224.2200 657.7800Q1222.6800 657.7800 1221.9100 656.9400Q1221.1400 656.1000 1221.1400 654.7000L1221.1400 654.7000Q1221.2800 652.4600 1223.0300 649.2400Q1224.7800 646.0200 1228.3500 643.0100Q1231.9200 640 1237.6600 637.9000Q1243.4000 635.8000 1251.5200 635.8000L1251.5200 635.8000Q1260.3400 635.8000 1266.4300 637.9700Q1272.5200 640.1400 1276.1600 643.7800Q1279.8000 647.4200 1281.4800 652.3200Q1283.1600 657.2200 1283.1600 662.6800L1283.1600 662.6800L1283.1600 706.6400Q1283.1600 708.0400 1282.1800 709.0200Q1281.2000 710 1279.8000 710L1279.8000 710L1268.4600 710Q1266.9200 710 1266.0100 709.0200Q1265.1000 708.0400 1265.1000 706.6400L1265.1000 706.6400L1265.1000 701.1800Q1263.2800 703.7000 1260.2000 706.0800Q1257.1200 708.4600 1252.7100 709.9300Q1248.3000 711.4000 1242.2800 711.4000ZM1247.0400 698.1000L1247.0400 698.1000Q1251.9400 698.1000 1255.9300 696Q1259.9200 693.9000 1262.2300 689.4900Q1264.5400 685.0800 1264.5400 678.3600L1264.5400 678.3600L1264.5400 675.4200L1250.5400 677.6600Q1242.2800 678.9200 1238.2200 681.7200Q1234.1600 684.5200 1234.1600 688.5800L1234.1600 688.5800Q1234.1600 691.6600 1236.0500 693.8300Q1237.9400 696 1240.8800 697.0500Q1243.8200 698.1000 1247.0400 698.1000ZM186.2600 851.4000L186.2600 851.4000Q178.9800 851.4000 173.4500 848.9500Q167.9200 846.5000 164.2800 842.0200Q160.6400 837.5400 158.6800 831.4500Q156.7200 825.3600 156.4400 818.0800L156.4400 818.0800Q156.3000 815.5600 156.3000 813.5300Q156.3000 811.5000 156.4400 808.9800L156.4400 808.9800Q156.7200 801.9800 158.6100 795.9600Q160.5000 789.9400 164.2100 785.3900Q167.9200 780.8400 173.4500 778.3200Q178.9800 775.8000 186.2600 775.8000L186.2600 775.8000Q193.8200 775.8000 199.0700 778.3900Q204.3200 780.9800 207.8200 785.0400L207.8200 785.0400L207.8200 753.9600Q207.8200 752.5600 208.7300 751.5800Q209.6400 750.6000 211.1800 750.6000L211.1800 750.6000L223.0800 750.6000Q224.4800 750.6000 225.4600 751.5800Q226.4400 752.5600 226.4400 753.9600L226.4400 753.9600L226.4400 846.6400Q226.4400 848.0400 225.4600 849.0200Q224.4800 850 223.0800 850L223.0800 850L212.0200 850Q210.4800 850 209.5700 849.0200Q208.6600 848.0400 208.6600 846.6400L208.6600 846.6400L208.6600 841.4600Q205.1600 845.8000 199.7700 848.6000Q194.3800 851.4000 186.2600 851.4000ZM191.4400 836.4200L191.4400 836.4200Q197.3200 836.4200 200.8200 833.7600Q204.3200 831.1000 206 826.9700Q207.6800 822.8400 207.8200 818.5000L207.8200 818.5000Q207.9600 815.9800 207.9600 813.1100Q207.9600 810.2400 207.8200 807.7200L207.8200 807.7200Q207.6800 803.5200 205.8600 799.6700Q204.0400 795.8200 200.5400 793.3000Q197.0400 790.7800 191.4400 790.7800L191.4400 790.7800Q185.5600 790.7800 182.1300 793.3700Q178.7000 795.9600 177.1600 800.1600Q175.6200 804.3600 175.3400 809.4000L175.3400 809.4000Q175.2000 813.6000 175.3400 817.8000L175.3400 817.8000Q175.6200 822.8400 177.1600 827.0400Q178.7000 831.2400 182.1300 833.8300Q185.5600 836.4200 191.4400 836.4200ZM276.4200 851.4000L276.4200 851.4000Q260.8800 851.4000 251.7800 842.4400Q242.6800 833.4800 241.9800 816.9600L241.9800 816.9600Q241.8400 815.5600 241.8400 813.3900Q241.8400 811.2200 241.9800 809.9600L241.9800 809.9600Q242.5400 799.3200 246.8100 791.6900Q251.0800 784.0600 258.6400 779.9300Q266.2000 775.8000 276.4200 775.8000L276.4200 775.8000Q287.7600 775.8000 295.4600 780.4900Q303.1600 785.1800 307.0800 793.5100Q311 801.8400 311 812.7600L311 812.7600L311 815.7000Q311 817.1000 310.0200 818.0800Q309.0400 819.0600 307.5000 819.0600L307.5000 819.0600L261.0200 819.0600Q261.0200 819.0600 261.0200 819.4800Q261.0200 819.9000 261.0200 820.1800L261.0200 820.1800Q261.1600 825.0800 262.9100 829.2100Q264.6600 833.3400 268.0900 835.8600Q271.5200 838.3800 276.2800 838.3800L276.2800 838.3800Q280.2000 838.3800 282.8600 837.1900Q285.5200 836 287.2000 834.4600Q288.8800 832.9200 289.5800 831.9400L289.5800 831.9400Q290.8400 830.2600 291.6100 829.9100Q292.3800 829.5600 293.9200 829.5600L293.9200 829.5600L305.9600 829.5600Q307.3600 829.5600 308.2700 830.4000Q309.1800 831.2400 309.0400 832.5000L309.0400 832.5000Q308.9000 834.7400 306.7300 837.9600Q304.5600 841.1800 300.5000 844.2600Q296.4400 847.3400 290.3500 849.3700Q284.2600 851.4000 276.4200 851.4000ZM261.0200 806.8800L261.0200 807.3000L291.9600 807.3000L291.9600 806.8800Q291.9600 801.4200 290.1400 797.2900Q288.3200 793.1600 284.8200 790.8500Q281.3200 788.5400 276.4200 788.5400L276.4200 788.5400Q271.5200 788.5400 268.0200 790.8500Q264.5200 793.1600 262.7700 797.2900Q261.0200 801.4200 261.0200 806.8800L261.0200 806.8800ZM389.4000 851.4000L389.4000 851.4000Q379.3200 851.4000 371.6900 847.6200Q364.0600 843.8400 359.7900 836.6300Q355.5200 829.4200 355.1000 819.2000L355.1000 819.2000Q354.9600 817.1000 354.9600 813.6700Q354.9600 810.2400 355.1000 808L355.1000 808Q355.5200 797.7800 359.7900 790.5700Q364.0600 783.3600 371.6900 779.5800Q379.3200 775.8000 389.4000 775.8000L389.4000 775.8000Q398.3600 775.8000 404.6600 778.2500Q410.9600 780.7000 415.0200 784.5500Q419.0800 788.4000 421.1100 792.5300Q423.1400 796.6600 423.2800 800.0200L423.2800 800.0200Q423.4200 801.5600 422.3700 802.4700Q421.3200 803.3800 419.9200 803.3800L419.9200 803.3800L407.6000 803.3800Q406.2000 803.3800 405.4300 802.6800Q404.6600 801.9800 403.9600 800.5800L403.9600 800.5800Q401.8600 794.9800 398.4300 792.6700Q395 790.3600 389.6800 790.3600L389.6800 790.3600Q382.6800 790.3600 378.5500 794.7700Q374.4200 799.1800 374.1400 808.7000L374.1400 808.7000Q373.8600 814.0200 374.1400 818.5000L374.1400 818.5000Q374.4200 828.1600 378.5500 832.5000Q382.6800 836.8400 389.6800 836.8400L389.6800 836.8400Q395.1400 836.8400 398.5000 834.5300Q401.8600 832.2200 403.9600 826.6200L403.9600 826.6200Q404.6600 825.2200 405.4300 824.5200Q406.2000 823.8200 407.6000 823.8200L407.6000 823.8200L419.9200 823.8200Q421.3200 823.8200 422.3700 824.7300Q423.4200 825.6400 423.2800 827.1800L423.2800 827.1800Q423.1400 829.7000 421.9500 832.8500Q420.7600 836 418.1700 839.2900Q415.5800 842.5800 411.6600 845.3100Q407.7400 848.0400 402.2100 849.7200Q396.6800 851.4000 389.4000 851.4000ZM470.0400 851.4000L470.0400 851.4000Q458.8400 851.4000 451.2100 847.4800Q443.5800 843.5600 439.5900 836.4200Q435.6000 829.2800 435.0400 819.7600L435.0400 819.7600Q434.9000 817.2400 434.9000 813.6000Q434.9000 809.9600 435.0400 807.4400L435.0400 807.4400Q435.6000 797.7800 439.7300 790.7100Q443.8600 783.6400 451.4900 779.7200Q459.1200 775.8000 470.0400 775.8000L470.0400 775.8000Q480.9600 775.8000 488.5900 779.7200Q496.2200 783.6400 500.3500 790.7100Q504.4800 797.7800 505.0400 807.4400L505.0400 807.4400Q505.1800 809.9600 505.1800 813.6000Q505.1800 817.2400 505.0400 819.7600L505.0400 819.7600Q504.4800 829.2800 500.4900 836.4200Q496.5000 843.5600 488.8700 847.4800Q481.2400 851.4000 470.0400 851.4000ZM470.0400 837.5400L470.0400 837.5400Q477.4600 837.5400 481.5200 832.8500Q485.5800 828.1600 486 819.0600L486 819.0600Q486.1400 816.9600 486.1400 813.6000Q486.1400 810.2400 486 808.1400L486 808.1400Q485.5800 799.0400 481.5200 794.3500Q477.4600 789.6600 470.0400 789.6600L470.0400 789.6600Q462.6200 789.6600 458.5600 794.3500Q454.5000 799.0400 454.0800 808.1400L454.0800 808.1400Q453.9400 810.2400 453.9400 813.6000Q453.9400 816.9600 454.0800 819.0600L454.0800 819.0600Q454.5000 828.1600 458.5600 832.8500Q462.6200 837.5400 470.0400 837.5400ZM535.8400 850L524.0800 850Q522.6800 850 521.7000 849.0200Q520.7200 848.0400 520.7200 846.6400L520.7200 846.6400L520.7200 780.5600Q520.7200 779.1600 521.7000 778.1800Q522.6800 777.2000 524.0800 777.2000L524.0800 777.2000L535 777.2000Q536.4000 777.2000 537.3800 778.1800Q538.3600 779.1600 538.3600 780.5600L538.3600 780.5600L538.3600 785.3200Q541.3000 781.4000 546.2700 778.6700Q551.2400 775.9400 558.1000 775.8000L558.1000 775.8000Q574.0600 775.5200 580.3600 788.2600L580.3600 788.2600Q583.5800 782.6600 589.6700 779.2300Q595.7600 775.8000 603.1800 775.8000L603.1800 775.8000Q610.4600 775.8000 616.4100 779.1600Q622.3600 782.5200 625.7900 789.3100Q629.2200 796.1000 629.2200 806.4600L629.2200 806.4600L629.2200 846.6400Q629.2200 848.0400 628.2400 849.0200Q627.2600 850 625.8600 850L625.8600 850L614.3800 850Q612.9800 850 612 849.0200Q611.0200 848.0400 611.0200 846.6400L611.0200 846.6400L611.0200 807.5800Q611.0200 801.2800 609.2000 797.5700Q607.3800 793.8600 604.3000 792.3200Q601.2200 790.7800 597.4400 790.7800L597.4400 790.7800Q594.3600 790.7800 591.2800 792.3200Q588.2000 793.8600 586.2400 797.5700Q584.2800 801.2800 584.2800 807.5800L584.2800 807.5800L584.2800 846.6400Q584.2800 848.0400 583.3000 849.0200Q582.3200 850 580.9200 850L580.9200 850L569.4400 850Q568.0400 850 567.0600 849.0200Q566.0800 848.0400 566.0800 846.6400L566.0800 846.6400L566.0800 807.5800Q566.0800 801.2800 564.1200 797.5700Q562.1600 793.8600 559.0800 792.3200Q556 790.7800 552.5000 790.7800L552.5000 790.7800Q549.2800 790.7800 546.2000 792.3900Q543.1200 794 541.1600 797.6400Q539.2000 801.2800 539.2000 807.5800L539.2000 807.5800L539.2000 846.6400Q539.2000 848.0400 538.2200 849.0200Q537.2400 850 535.8400 850L535.8400 850ZM668.1400 851.4000L668.1400 851.4000Q660.8600 851.4000 654.9800 848.5300Q649.1000 845.6600 645.6700 840.8300Q642.2400 836 642.2400 829.9800L642.2400 829.9800Q642.2400 820.1800 650.2200 814.3700Q658.2000 808.5600 671.0800 806.6000L671.0800 806.6000L690.2600 803.8000L690.2600 800.8600Q690.2600 794.9800 687.3200 791.7600Q684.3800 788.5400 677.2400 788.5400L677.2400 788.5400Q672.2000 788.5400 669.0500 790.5700Q665.9000 792.6000 664.3600 795.9600L664.3600 795.9600Q663.2400 797.7800 661.1400 797.7800L661.1400 797.7800L650.0800 797.7800Q648.5400 797.7800 647.7700 796.9400Q647 796.1000 647 794.7000L647 794.7000Q647.1400 792.4600 648.8900 789.2400Q650.6400 786.0200 654.2100 783.0100Q657.7800 780 663.5200 777.9000Q669.2600 775.8000 677.3800 775.8000L677.3800 775.8000Q686.2000 775.8000 692.2900 777.9700Q698.3800 780.1400 702.0200 783.7800Q705.6600 787.4200 707.3400 792.3200Q709.0200 797.2200 709.0200 802.6800L709.0200 802.6800L709.0200 846.6400Q709.0200 848.0400 708.0400 849.0200Q707.0600 850 705.6600 850L705.6600 850L694.3200 850Q692.7800 850 691.8700 849.0200Q690.9600 848.0400 690.9600 846.6400L690.9600 846.6400L690.9600 841.1800Q689.1400 843.7000 686.0600 846.0800Q682.9800 848.4600 678.5700 849.9300Q674.1600 851.4000 668.1400 851.4000ZM672.9000 838.1000L672.9000 838.1000Q677.8000 838.1000 681.7900 836Q685.7800 833.9000 688.0900 829.4900Q690.4000 825.0800 690.4000 818.3600L690.4000 818.3600L690.4000 815.4200L676.4000 817.6600Q668.1400 818.9200 664.0800 821.7200Q660.0200 824.5200 660.0200 828.5800L660.0200 828.5800Q660.0200 831.6600 661.9100 833.8300Q663.8000 836 666.7400 837.0500Q669.6800 838.1000 672.9000 838.1000ZM742.6200 850L730.3000 850Q728.9000 850 727.9200 849.0200Q726.9400 848.0400 726.9400 846.6400L726.9400 846.6400L726.9400 780.5600Q726.9400 779.1600 727.9200 778.1800Q728.9000 777.2000 730.3000 777.2000L730.3000 777.2000L741.7800 777.2000Q743.1800 777.2000 744.1600 778.1800Q745.1400 779.1600 745.1400 780.5600L745.1400 780.5600L745.1400 786.3000Q748.7800 781.8200 754.4500 778.8100Q760.1200 775.8000 768.5200 775.8000L768.5200 775.8000Q777.0600 775.8000 783.3600 779.6500Q789.6600 783.5000 793.0900 790.5000Q796.5200 797.5000 796.5200 807.3000L796.5200 807.3000L796.5200 846.6400Q796.5200 848.0400 795.5400 849.0200Q794.5600 850 793.1600 850L793.1600 850L780.8400 850Q779.4400 850 778.4600 849.0200Q777.4800 848.0400 777.4800 846.6400L777.4800 846.6400L777.4800 808.1400Q777.4800 800.0200 773.4900 795.4000Q769.5000 790.7800 761.9400 790.7800L761.9400 790.7800Q754.6600 790.7800 750.3200 795.4000Q745.9800 800.0200 745.9800 808.1400L745.9800 808.1400L745.9800 846.6400Q745.9800 848.0400 745 849.0200Q744.0200 850 742.6200 850L742.6200 850ZM841.3200 851.4000L841.3200 851.4000Q834.0400 851.4000 828.5100 848.9500Q822.9800 846.5000 819.3400 842.0200Q815.7000 837.5400 813.7400 831.4500Q811.7800 825.3600 811.5000 818.0800L811.5000 818.0800Q811.3600 815.5600 811.3600 813.5300Q811.3600 811.5000 811.5000 808.9800L811.5000 808.9800Q811.7800 801.9800 813.6700 795.9600Q815.5600 789.9400 819.2700 785.3900Q822.9800 780.8400 828.5100 778.3200Q834.0400 775.8000 841.3200 775.8000L841.3200 775.8000Q848.8800 775.8000 854.1300 778.3900Q859.3800 780.9800 862.8800 785.0400L862.8800 785.0400L862.8800 753.9600Q862.8800 752.5600 863.7900 751.5800Q864.7000 750.6000 866.2400 750.6000L866.2400 750.6000L878.1400 750.6000Q879.5400 750.6000 880.5200 751.5800Q881.5000 752.5600 881.5000 753.9600L881.5000 753.9600L881.5000 846.6400Q881.5000 848.0400 880.5200 849.0200Q879.5400 850 878.1400 850L878.1400 850L867.0800 850Q865.5400 850 864.6300 849.0200Q863.7200 848.0400 863.7200 846.6400L863.7200 846.6400L863.7200 841.4600Q860.2200 845.8000 854.8300 848.6000Q849.4400 851.4000 841.3200 851.4000ZM846.5000 836.4200L846.5000 836.4200Q852.3800 836.4200 855.8800 833.7600Q859.3800 831.1000 861.0600 826.9700Q862.7400 822.8400 862.8800 818.5000L862.8800 818.5000Q863.0200 815.9800 863.0200 813.1100Q863.0200 810.2400 862.8800 807.7200L862.8800 807.7200Q862.7400 803.5200 860.9200 799.6700Q859.1000 795.8200 855.6000 793.3000Q852.1000 790.7800 846.5000 790.7800L846.5000 790.7800Q840.6200 790.7800 837.1900 793.3700Q833.7600 795.9600 832.2200 800.1600Q830.6800 804.3600 830.4000 809.4000L830.4000 809.4000Q830.2600 813.6000 830.4000 817.8000L830.4000 817.8000Q830.6800 822.8400 832.2200 827.0400Q833.7600 831.2400 837.1900 833.8300Q840.6200 836.4200 846.5000 836.4200ZM932.3200 851.4000L932.3200 851.4000Q921.1200 851.4000 913.4900 847.4800Q905.8600 843.5600 901.8700 836.4200Q897.8800 829.2800 897.3200 819.7600L897.3200 819.7600Q897.1800 817.2400 897.1800 813.6000Q897.1800 809.9600 897.3200 807.4400L897.3200 807.4400Q897.8800 797.7800 902.0100 790.7100Q906.1400 783.6400 913.7700 779.7200Q921.4000 775.8000 932.3200 775.8000L932.3200 775.8000Q943.2400 775.8000 950.8700 779.7200Q958.5000 783.6400 962.6300 790.7100Q966.7600 797.7800 967.3200 807.4400L967.3200 807.4400Q967.4600 809.9600 967.4600 813.6000Q967.4600 817.2400 967.3200 819.7600L967.3200 819.7600Q966.7600 829.2800 962.7700 836.4200Q958.7800 843.5600 951.1500 847.4800Q943.5200 851.4000 932.3200 851.4000ZM932.3200 837.5400L932.3200 837.5400Q939.7400 837.5400 943.8000 832.8500Q947.8600 828.1600 948.2800 819.0600L948.2800 819.0600Q948.4200 816.9600 948.4200 813.6000Q948.4200 810.2400 948.2800 808.1400L948.2800 808.1400Q947.8600 799.0400 943.8000 794.3500Q939.7400 789.6600 932.3200 789.6600L932.3200 789.6600Q924.9000 789.6600 920.8400 794.3500Q916.7800 799.0400 916.3600 808.1400L916.3600 808.1400Q916.2200 810.2400 916.2200 813.6000Q916.2200 816.9600 916.3600 819.0600L916.3600 819.0600Q916.7800 828.1600 920.8400 832.8500Q924.9000 837.5400 932.3200 837.5400Z" id="title"/></g></svg>