<svg xmlns="http://www.w3.org/2000/svg" version="1.1" xmlns:xlink="http://www.w3.org/1999/xlink" xmlns:svgjs="http://svgjs.dev/svgjs" viewBox="0 0 1920 1080" id="fff9659a-ee6b-4bcc-ae1b-46f2409a5354"><g><rect width="1920" height="1080" fill="#8ee3ef"/></g><g fill="#f0c975"><path d="M2118.71 322.496C1962.88 381.696 1840.11 286.062 1731.68 201.315C1619.52 113.904 1545.13 63.1995 1455.92 97.0926C1366.11 131.212 1344.15 218.52 1318.91 358.127C1294.11 493.487 1265.8 646.514 1109.97 705.714C954.144 764.914 831.375 669.28 722.951 584.533C610.793 497.122 536.401 446.418 447.185 480.311C357.375 514.43 335.414 601.738 310.18 741.346C285.375 876.706 257.072 1029.73 101.242 1088.93C-54.5876 1148.13 -177.357 1052.5 -285.78 967.751C-397.344 880.114 -471.736 829.41 -561.547 863.529L-602 757.045C-446.17 697.845 -323.401 793.479 -214.977 878.225C-102.819 965.637 -28.4265 1016.34 60.7891 982.448C150.6 948.329 172.56 861.02 197.794 721.413C222.599 586.053 250.307 433.253 406.732 373.827C562.562 314.627 685.331 410.261 793.754 495.007C905.913 582.419 980.305 633.123 1069.52 599.23C1159.33 565.111 1181.29 477.802 1206.53 338.195C1231.33 202.835 1259.04 50.0347 1415.46 -9.39121C1571.89 -68.8172 1694.06 27.043 1802.49 111.789C1914.64 199.201 1989.04 249.905 2078.25 216.012L2118.71 322.496Z"/></g><g fill="#ffffff" opacity="0.4"><path d="M960.041 79C960.041 79 971.953 194.974 981.699 214.484C992.529 237.245 1064 247 1064 247C1064 247 994.694 258.923 983.865 280.6C973.036 301.194 958.959 415 958.959 415C958.959 415 945.964 296.858 935.135 275.181C925.389 255.671 855 245.916 855 245.916C855 245.916 925.389 233.994 936.218 212.316C947.047 192.806 960.041 79 960.041 79Z"/><path d="M561.041 687C561.041 687 572.953 802.974 582.699 822.484C593.529 845.245 665 855 665 855C665 855 595.694 866.923 584.865 888.6C574.036 909.194 559.959 1023 559.959 1023C559.959 1023 546.964 904.858 536.135 883.181C526.389 863.671 456 853.916 456 853.916C456 853.916 526.389 841.994 537.218 820.316C548.047 800.806 561.041 687 561.041 687Z"/></g><g><path d="M178.635 139.281L184.422 144.246V166.626H215.704L219.958 172.147L215.69 177.397H184.422V198.795L178.635 203.747L173 198.795V144.232L178.635 139.281ZM195.554 195.68H219.406L223.397 200.915L219.143 206.45H195.554L191.7 201.342L195.554 195.68ZM196.382 138H219.129L223.383 143.52L219.129 148.77H196.659L192.115 143.677L196.382 138ZM323.155 148.628L328.251 154.291L323.155 159.968H246.13L241.172 154.291L246.13 148.628H323.155ZM237.043 172.147L241.849 167.893L246.669 172.147V178.393C246.669 188.879 249.417 197.515 261.668 197.515H264.14C275.147 197.515 281.197 189.86 281.197 177.952V172.005L285.879 167.75L290.699 171.862V178.379C290.699 189.007 293.723 196.946 305.56 196.946H307.618C319.178 196.946 321.235 187.869 321.373 177.952V171.578L326.056 167.608L331 171.72V178.094C330.862 191.838 327.285 207.574 308.032 207.574H305.974C294.552 207.574 288.365 202.324 285.892 195.808C283.006 202.466 275.299 208.286 264.844 208.286H262.358C242.553 208.286 237.194 195.964 237.056 178.663V172.147H237.043ZM276.391 274.744L273.642 267.089L280.796 264.969L305.974 276.721V252.491L311.07 248.095L316.291 252.491V281.829L325.641 286.226L328.251 293.311L320.959 296L276.391 274.744ZM321.235 223.011L328.113 226.27L325.917 233.497L264.002 263.119L256.571 260.146L259.596 252.776L321.235 223.011ZM231.905 263.404L237.954 268.512C237.402 286.51 222.403 296 204.669 296H202.874C194.062 296 183.759 292.6 177.157 286.083L177.834 278.855L184.298 278.002C189.118 282.256 195.858 285.229 202.183 285.229H204.117C216.091 285.229 225.303 280.136 226.27 268.085L231.905 263.404ZM226.256 251.638C225.704 239.16 216.629 234.209 204.103 234.209H202.169C194.739 234.209 189.104 237.182 184.284 241.436L177.834 240.583L177.143 233.355C183.745 226.696 192.957 223.58 202.597 223.58H204.517C222.403 223.58 237.402 232.942 237.94 251.211L231.891 256.176L226.256 251.638Z" fill="#000000"/></g><g fill="#000000" id="info-group"><path d="M167.0800 430L154.9000 430Q153.7800 430 152.8700 429.1600Q151.9600 428.3200 151.9600 427.0600L151.9600 427.0600Q151.9600 426.5000 152.2400 425.8000L152.2400 425.8000L185.9800 335.5000Q186.4000 334.1000 187.5900 333.0500Q188.7800 332 190.8800 332L190.8800 332L206.1400 332Q208.2400 332 209.3600 333.0500Q210.4800 334.1000 211.0400 335.5000L211.0400 335.5000L244.7800 425.8000Q244.9200 426.5000 244.9200 427.0600L244.9200 427.0600Q244.9200 428.3200 244.0800 429.1600Q243.2400 430 242.1200 430L242.1200 430L229.9400 430Q227.9800 430 227.0700 429.0900Q226.1600 428.1800 225.8800 427.3400L225.8800 427.3400L219.3000 410.2600L177.7200 410.2600L171.1400 427.3400Q170.8600 428.1800 169.9500 429.0900Q169.0400 430 167.0800 430L167.0800 430ZM198.4400 350.9000L182.6200 394.1600L214.4000 394.1600L198.4400 350.9000ZM283.2800 431.4000L283.2800 431.4000Q274.7400 431.4000 268.5100 427.5500Q262.2800 423.7000 258.9200 416.6300Q255.5600 409.5600 255.5600 399.9000L255.5600 399.9000L255.5600 360.5600Q255.5600 359.1600 256.5400 358.1800Q257.5200 357.2000 258.9200 357.2000L258.9200 357.2000L271.2400 357.2000Q272.7800 357.2000 273.6900 358.1800Q274.6000 359.1600 274.6000 360.5600L274.6000 360.5600L274.6000 399.0600Q274.6000 416.4200 289.8600 416.4200L289.8600 416.4200Q297.1400 416.4200 301.4100 411.8000Q305.6800 407.1800 305.6800 399.0600L305.6800 399.0600L305.6800 360.5600Q305.6800 359.1600 306.6600 358.1800Q307.6400 357.2000 309.0400 357.2000L309.0400 357.2000L321.3600 357.2000Q322.7600 357.2000 323.7400 358.1800Q324.7200 359.1600 324.7200 360.5600L324.7200 360.5600L324.7200 426.6400Q324.7200 428.0400 323.7400 429.0200Q322.7600 430 321.3600 430L321.3600 430L310.0200 430Q308.4800 430 307.5700 429.0200Q306.6600 428.0400 306.6600 426.6400L306.6600 426.6400L306.6600 420.9000Q302.8800 425.8000 297.2800 428.6000Q291.6800 431.4000 283.2800 431.4000ZM358.3200 430L346.7000 430Q345.3000 430 344.3200 429.0200Q343.3400 428.0400 343.3400 426.6400L343.3400 426.6400L343.3400 333.9600Q343.3400 332.5600 344.3200 331.5800Q345.3000 330.6000 346.7000 330.6000L346.7000 330.6000L358.3200 330.6000Q359.7200 330.6000 360.7000 331.5800Q361.6800 332.5600 361.6800 333.9600L361.6800 333.9600L361.6800 426.6400Q361.6800 428.0400 360.7000 429.0200Q359.7200 430 358.3200 430L358.3200 430ZM401.4400 431.4000L401.4400 431.4000Q394.1600 431.4000 388.2800 428.5300Q382.4000 425.6600 378.9700 420.8300Q375.5400 416 375.5400 409.9800L375.5400 409.9800Q375.5400 400.1800 383.5200 394.3700Q391.5000 388.5600 404.3800 386.6000L404.3800 386.6000L423.5600 383.8000L423.5600 380.8600Q423.5600 374.9800 420.6200 371.7600Q417.6800 368.5400 410.5400 368.5400L410.5400 368.5400Q405.5000 368.5400 402.3500 370.5700Q399.2000 372.6000 397.6600 375.9600L397.6600 375.9600Q396.5400 377.7800 394.4400 377.7800L394.4400 377.7800L383.3800 377.7800Q381.8400 377.7800 381.0700 376.9400Q380.3000 376.1000 380.3000 374.7000L380.3000 374.7000Q380.4400 372.4600 382.1900 369.2400Q383.9400 366.0200 387.5100 363.0100Q391.0800 360 396.8200 357.9000Q402.5600 355.8000 410.6800 355.8000L410.6800 355.8000Q419.5000 355.8000 425.5900 357.9700Q431.6800 360.1400 435.3200 363.7800Q438.9600 367.4200 440.6400 372.3200Q442.3200 377.2200 442.3200 382.6800L442.3200 382.6800L442.3200 426.6400Q442.3200 428.0400 441.3400 429.0200Q440.3600 430 438.9600 430L438.9600 430L427.6200 430Q426.0800 430 425.1700 429.0200Q424.2600 428.0400 424.2600 426.6400L424.2600 426.6400L424.2600 421.1800Q422.4400 423.7000 419.3600 426.0800Q416.2800 428.4600 411.8700 429.9300Q407.4600 431.4000 401.4400 431.4000ZM406.2000 418.1000L406.2000 418.1000Q411.1000 418.1000 415.0900 416Q419.0800 413.9000 421.3900 409.4900Q423.7000 405.0800 423.7000 398.3600L423.7000 398.3600L423.7000 395.4200L409.7000 397.6600Q401.4400 398.9200 397.3800 401.7200Q393.3200 404.5200 393.3200 408.5800L393.3200 408.5800Q393.3200 411.6600 395.2100 413.8300Q397.1000 416 400.0400 417.0500Q402.9800 418.1000 406.2000 418.1000ZM559.6400 430L492.7200 430Q491.3200 430 490.3400 429.0200Q489.3600 428.0400 489.3600 426.6400L489.3600 426.6400L489.3600 419.5000Q489.3600 418.2400 489.9900 416.4900Q490.6200 414.7400 492.8600 412.9200L492.8600 412.9200L514.9800 390.9400Q524.2200 383.6600 529.8900 378.5500Q535.5600 373.4400 538.1500 369.1700Q540.7400 364.9000 540.7400 360.7000L540.7400 360.7000Q540.7400 354.4000 537.3100 350.4800Q533.8800 346.5600 526.4600 346.5600L526.4600 346.5600Q521.5600 346.5600 518.2000 348.5900Q514.8400 350.6200 512.9500 353.9800Q511.0600 357.3400 510.3600 361.4000L510.3600 361.4000Q510.0800 363.2200 508.8200 363.9200Q507.5600 364.6200 506.3000 364.6200L506.3000 364.6200L493.8400 364.6200Q492.5800 364.6200 491.7400 363.7800Q490.9000 362.9400 490.9000 361.8200L490.9000 361.8200Q491.0400 355.8000 493.4200 350.1300Q495.8000 344.4600 500.3500 340.0500Q504.9000 335.6400 511.4800 332.9800Q518.0600 330.3200 526.3200 330.3200L526.3200 330.3200Q537.9400 330.3200 545.5700 334.2400Q553.2000 338.1600 557.0500 344.8800Q560.9000 351.6000 560.9000 360L560.9000 360Q560.9000 366.5800 558.3800 372.1100Q555.8600 377.6400 551.1000 382.7500Q546.3400 387.8600 539.6200 393.1800L539.6200 393.1800L519.7400 413.3400L559.6400 413.3400Q561.1800 413.3400 562.0900 414.2500Q563.0000 415.1600 563.0000 416.7000L563.0000 416.7000L563.0000 426.6400Q563.0000 428.0400 562.0900 429.0200Q561.1800 430 559.6400 430L559.6400 430ZM595.7600 381L581.9000 381Q580.5000 381 579.5200 380.0200Q578.5400 379.0400 578.5400 377.6400L578.5400 377.6400L578.5400 364.3400Q578.5400 362.8000 579.5200 361.8200Q580.5000 360.8400 581.9000 360.8400L581.9000 360.8400L595.7600 360.8400Q597.3000 360.8400 598.2800 361.8200Q599.2600 362.8000 599.2600 364.3400L599.2600 364.3400L599.2600 377.6400Q599.2600 379.0400 598.2800 380.0200Q597.3000 381 595.7600 381L595.7600 381ZM595.7600 430L581.9000 430Q580.5000 430 579.5200 429.0200Q578.5400 428.0400 578.5400 426.6400L578.5400 426.6400L578.5400 413.3400Q578.5400 411.8000 579.5200 410.8200Q580.5000 409.8400 581.9000 409.8400L581.9000 409.8400L595.7600 409.8400Q597.3000 409.8400 598.2800 410.8200Q599.2600 411.8000 599.2600 413.3400L599.2600 413.3400L599.2600 426.6400Q599.2600 428.0400 598.2800 429.0200Q597.3000 430 595.7600 430L595.7600 430ZM717.1400 430L654.4200 430Q653.0200 430 652.0400 429.0200Q651.0600 428.0400 651.0600 426.6400L651.0600 426.6400L651.0600 335.5000Q651.0600 333.9600 652.0400 332.9800Q653.0200 332 654.4200 332L654.4200 332L716.0200 332Q717.5600 332 718.5400 332.9800Q719.5200 333.9600 719.5200 335.5000L719.5200 335.5000L719.5200 344.7400Q719.5200 346.1400 718.5400 347.1200Q717.5600 348.1000 716.0200 348.1000L716.0200 348.1000L669.9600 348.1000L669.9600 372.8800L712.9400 372.8800Q714.4800 372.8800 715.4600 373.7900Q716.4400 374.7000 716.4400 376.2400L716.4400 376.2400L716.4400 384.9200Q716.4400 386.4600 715.4600 387.3700Q714.4800 388.2800 712.9400 388.2800L712.9400 388.2800L669.9600 388.2800L669.9600 413.9000L717.1400 413.9000Q718.6800 413.9000 719.6600 414.8800Q720.6400 415.8600 720.6400 417.4000L720.6400 417.4000L720.6400 426.6400Q720.6400 428.0400 719.6600 429.0200Q718.6800 430 717.1400 430L717.1400 430ZM764.0400 431.4000L764.0400 431.4000Q755.6400 431.4000 749.6900 429.4400Q743.7400 427.4800 739.9600 424.5400Q736.1800 421.6000 734.3600 418.6600Q732.5400 415.7200 732.4000 413.7600L732.4000 413.7600Q732.2600 412.2200 733.3100 411.3100Q734.3600 410.4000 735.6200 410.4000L735.6200 410.4000L746.6800 410.4000Q747.2400 410.4000 747.6600 410.5400Q748.0800 410.6800 748.7800 411.3800L748.7800 411.3800Q750.6000 412.9200 752.6300 414.6000Q754.6600 416.2800 757.4600 417.4700Q760.2600 418.6600 764.4600 418.6600L764.4600 418.6600Q769.9200 418.6600 773.6300 416.4900Q777.3400 414.3200 777.3400 410.2600L777.3400 410.2600Q777.3400 407.3200 775.7300 405.5000Q774.1200 403.6800 769.7800 402.2100Q765.4400 400.7400 757.4600 399.0600L757.4600 399.0600Q749.6200 397.2400 744.4400 394.4400Q739.2600 391.6400 736.7400 387.4400Q734.2200 383.2400 734.2200 377.6400L734.2200 377.6400Q734.2200 372.1800 737.5100 367.2100Q740.8000 362.2400 747.3100 359.0200Q753.8200 355.8000 763.4800 355.8000L763.4800 355.8000Q771.0400 355.8000 776.6400 357.6900Q782.2400 359.5800 785.9500 362.3800Q789.6600 365.1800 791.6200 368.0500Q793.5800 370.9200 793.7200 373.0200L793.7200 373.0200Q793.8600 374.5600 792.8800 375.4700Q791.9000 376.3800 790.6400 376.3800L790.6400 376.3800L780.2800 376.3800Q779.5800 376.3800 779.0200 376.1000Q778.4600 375.8200 777.9000 375.4000L777.9000 375.4000Q776.3600 374 774.5400 372.3900Q772.7200 370.7800 770.1300 369.6600Q767.5400 368.5400 763.3400 368.5400L763.3400 368.5400Q758.0200 368.5400 755.2200 370.8500Q752.4200 373.1600 752.4200 376.6600L752.4200 376.6600Q752.4200 379.0400 753.7500 380.7900Q755.0800 382.5400 759.1400 384.0800Q763.2000 385.6200 771.4600 387.3000L771.4600 387.3000Q780.8400 388.9800 786.3700 392.2700Q791.9000 395.5600 794.2100 399.8300Q796.5200 404.1000 796.5200 409.2800L796.5200 409.2800Q796.5200 415.5800 792.8100 420.6200Q789.1000 425.6600 781.8900 428.5300Q774.6800 431.4000 764.0400 431.4000ZM855.1800 430L843.8400 430Q835.4400 430 829.7000 427.0600Q823.9600 424.1200 821.1600 418.3100Q818.3600 412.5000 818.3600 403.8200L818.3600 403.8200L818.3600 372.0400L807.3000 372.0400Q805.9000 372.0400 804.9200 371.0600Q803.9400 370.0800 803.9400 368.5400L803.9400 368.5400L803.9400 360.5600Q803.9400 359.1600 804.9200 358.1800Q805.9000 357.2000 807.3000 357.2000L807.3000 357.2000L818.3600 357.2000L818.3600 333.9600Q818.3600 332.5600 819.2700 331.5800Q820.1800 330.6000 821.7200 330.6000L821.7200 330.6000L833.0600 330.6000Q834.4600 330.6000 835.4400 331.5800Q836.4200 332.5600 836.4200 333.9600L836.4200 333.9600L836.4200 357.2000L853.9200 357.2000Q855.3200 357.2000 856.3000 358.1800Q857.2800 359.1600 857.2800 360.5600L857.2800 360.5600L857.2800 368.5400Q857.2800 370.0800 856.3000 371.0600Q855.3200 372.0400 853.9200 372.0400L853.9200 372.0400L836.4200 372.0400L836.4200 402.4200Q836.4200 408.1600 838.4500 411.3800Q840.4800 414.6000 845.5200 414.6000L845.5200 414.6000L855.1800 414.6000Q856.5800 414.6000 857.5600 415.5800Q858.5400 416.5600 858.5400 417.9600L858.5400 417.9600L858.5400 426.6400Q858.5400 428.0400 857.5600 429.0200Q856.5800 430 855.1800 430L855.1800 430ZM886.5400 430L874.3600 430Q872.9600 430 871.9800 429.0200Q871.0000 428.0400 871.0000 426.6400L871.0000 426.6400L871.0000 360.7000Q871.0000 359.1600 871.9800 358.1800Q872.9600 357.2000 874.3600 357.2000L874.3600 357.2000L885.7000 357.2000Q887.1000 357.2000 888.1500 358.1800Q889.2000 359.1600 889.2000 360.7000L889.2000 360.7000L889.2000 366.4400Q892.4200 361.9600 897.5300 359.5800Q902.6400 357.2000 909.3600 357.2000L909.3600 357.2000L915.1000 357.2000Q916.6400 357.2000 917.5500 358.1800Q918.4600 359.1600 918.4600 360.5600L918.4600 360.5600L918.4600 370.6400Q918.4600 372.0400 917.5500 373.0200Q916.6400 374 915.1000 374L915.1000 374L904.1800 374Q897.4600 374 893.7500 377.7100Q890.0400 381.4200 890.0400 388.1400L890.0400 388.1400L890.0400 426.6400Q890.0400 428.0400 889.0600 429.0200Q888.0800 430 886.5400 430L886.5400 430ZM950.5200 431.4000L950.5200 431.4000Q943.2400 431.4000 937.3600 428.5300Q931.4800 425.6600 928.0500 420.8300Q924.6200 416 924.6200 409.9800L924.6200 409.9800Q924.6200 400.1800 932.6000 394.3700Q940.5800 388.5600 953.4600 386.6000L953.4600 386.6000L972.6400 383.8000L972.6400 380.8600Q972.6400 374.9800 969.7000 371.7600Q966.7600 368.5400 959.6200 368.5400L959.6200 368.5400Q954.5800 368.5400 951.4300 370.5700Q948.2800 372.6000 946.7400 375.9600L946.7400 375.9600Q945.6200 377.7800 943.5200 377.7800L943.5200 377.7800L932.4600 377.7800Q930.9200 377.7800 930.1500 376.9400Q929.3800 376.1000 929.3800 374.7000L929.3800 374.7000Q929.5200 372.4600 931.2700 369.2400Q933.0200 366.0200 936.5900 363.0100Q940.1600 360 945.9000 357.9000Q951.6400 355.8000 959.7600 355.8000L959.7600 355.8000Q968.5800 355.8000 974.6700 357.9700Q980.7600 360.1400 984.4000 363.7800Q988.0400 367.4200 989.7200 372.3200Q991.4000 377.2200 991.4000 382.6800L991.4000 382.6800L991.4000 426.6400Q991.4000 428.0400 990.4200 429.0200Q989.4400 430 988.0400 430L988.0400 430L976.7000 430Q975.1600 430 974.2500 429.0200Q973.3400 428.0400 973.3400 426.6400L973.3400 426.6400L973.3400 421.1800Q971.5200 423.7000 968.4400 426.0800Q965.3600 428.4600 960.9500 429.9300Q956.5400 431.4000 950.5200 431.4000ZM955.2800 418.1000L955.2800 418.1000Q960.1800 418.1000 964.1700 416Q968.1600 413.9000 970.4700 409.4900Q972.7800 405.0800 972.7800 398.3600L972.7800 398.3600L972.7800 395.4200L958.7800 397.6600Q950.5200 398.9200 946.4600 401.7200Q942.4000 404.5200 942.4000 408.5800L942.4000 408.5800Q942.4000 411.6600 944.2900 413.8300Q946.1800 416 949.1200 417.0500Q952.0600 418.1000 955.2800 418.1000ZM1053.5600 430L1042.2200 430Q1033.8200 430 1028.0800 427.0600Q1022.3400 424.1200 1019.5400 418.3100Q1016.7400 412.5000 1016.7400 403.8200L1016.7400 403.8200L1016.7400 372.0400L1005.6800 372.0400Q1004.2800 372.0400 1003.3000 371.0600Q1002.3200 370.0800 1002.3200 368.5400L1002.3200 368.5400L1002.3200 360.5600Q1002.3200 359.1600 1003.3000 358.1800Q1004.2800 357.2000 1005.6800 357.2000L1005.6800 357.2000L1016.7400 357.2000L1016.7400 333.9600Q1016.7400 332.5600 1017.6500 331.5800Q1018.5600 330.6000 1020.1000 330.6000L1020.1000 330.6000L1031.4400 330.6000Q1032.8400 330.6000 1033.8200 331.5800Q1034.8000 332.5600 1034.8000 333.9600L1034.8000 333.9600L1034.8000 357.2000L1052.3000 357.2000Q1053.7000 357.2000 1054.6800 358.1800Q1055.6600 359.1600 1055.6600 360.5600L1055.6600 360.5600L1055.6600 368.5400Q1055.6600 370.0800 1054.6800 371.0600Q1053.7000 372.0400 1052.3000 372.0400L1052.3000 372.0400L1034.8000 372.0400L1034.8000 402.4200Q1034.8000 408.1600 1036.8300 411.3800Q1038.8600 414.6000 1043.9000 414.6000L1043.9000 414.6000L1053.5600 414.6000Q1054.9600 414.6000 1055.9400 415.5800Q1056.9200 416.5600 1056.9200 417.9600L1056.9200 417.9600L1056.9200 426.6400Q1056.9200 428.0400 1055.9400 429.0200Q1054.9600 430 1053.5600 430L1053.5600 430ZM1100.7400 431.4000L1100.7400 431.4000Q1085.2000 431.4000 1076.1000 422.4400Q1067.0000 413.4800 1066.3000 396.9600L1066.3000 396.9600Q1066.1600 395.5600 1066.1600 393.3900Q1066.1600 391.2200 1066.3000 389.9600L1066.3000 389.9600Q1066.8600 379.3200 1071.1300 371.6900Q1075.4000 364.0600 1082.9600 359.9300Q1090.5200 355.8000 1100.7400 355.8000L1100.7400 355.8000Q1112.0800 355.8000 1119.7800 360.4900Q1127.4800 365.1800 1131.4000 373.5100Q1135.3200 381.8400 1135.3200 392.7600L1135.3200 392.7600L1135.3200 395.7000Q1135.3200 397.1000 1134.3400 398.0800Q1133.3600 399.0600 1131.8200 399.0600L1131.8200 399.0600L1085.3400 399.0600Q1085.3400 399.0600 1085.3400 399.4800Q1085.3400 399.9000 1085.3400 400.1800L1085.3400 400.1800Q1085.4800 405.0800 1087.2300 409.2100Q1088.9800 413.3400 1092.4100 415.8600Q1095.8400 418.3800 1100.6000 418.3800L1100.6000 418.3800Q1104.5200 418.3800 1107.1800 417.1900Q1109.8400 416 1111.5200 414.4600Q1113.2000 412.9200 1113.9000 411.9400L1113.9000 411.9400Q1115.1600 410.2600 1115.9300 409.9100Q1116.7000 409.5600 1118.2400 409.5600L1118.2400 409.5600L1130.2800 409.5600Q1131.6800 409.5600 1132.5900 410.4000Q1133.5000 411.2400 1133.3600 412.5000L1133.3600 412.5000Q1133.2200 414.7400 1131.0500 417.9600Q1128.8800 421.1800 1124.8200 424.2600Q1120.7600 427.3400 1114.6700 429.3700Q1108.5800 431.4000 1100.7400 431.4000ZM1085.3400 386.8800L1085.3400 387.3000L1116.2800 387.3000L1116.2800 386.8800Q1116.2800 381.4200 1114.4600 377.2900Q1112.6400 373.1600 1109.1400 370.8500Q1105.6400 368.5400 1100.7400 368.5400L1100.7400 368.5400Q1095.8400 368.5400 1092.3400 370.8500Q1088.8400 373.1600 1087.0900 377.2900Q1085.3400 381.4200 1085.3400 386.8800L1085.3400 386.8800ZM1103.2600 346.7000L1094.7200 346.7000Q1092.4800 346.7000 1092.4800 344.4600L1092.4800 344.4600Q1092.4800 343.3400 1093.1800 342.6400L1093.1800 342.6400L1104.5200 328.7800Q1105.9200 327.2400 1106.9000 326.7500Q1107.8800 326.2600 1109.7000 326.2600L1109.7000 326.2600L1123.7000 326.2600Q1126.3600 326.2600 1126.3600 328.9200L1126.3600 328.9200Q1126.3600 329.9000 1125.6600 330.6000L1125.6600 330.6000L1108.3000 344.8800Q1107.1800 345.8600 1106.1300 346.2800Q1105.0800 346.7000 1103.2600 346.7000L1103.2600 346.7000ZM1183.0600 460.8000L1183.0600 460.8000Q1172.8400 460.8000 1166.2600 458.1400Q1159.6800 455.4800 1155.9000 451.7000Q1152.1200 447.9200 1150.5100 444.2100Q1148.9000 440.5000 1148.7600 438.4000L1148.7600 438.4000Q1148.6200 437 1149.6700 435.9500Q1150.7200 434.9000 1152.1200 434.9000L1152.1200 434.9000L1164.3000 434.9000Q1165.7000 434.9000 1166.5400 435.5300Q1167.3800 436.1600 1167.9400 437.8400L1167.9400 437.8400Q1168.7800 439.6600 1170.1800 441.7600Q1171.5800 443.8600 1174.4500 445.3300Q1177.3200 446.8000 1182.3600 446.8000L1182.3600 446.8000Q1187.6800 446.8000 1191.3200 445.2600Q1194.9600 443.7200 1196.8500 440.0800Q1198.7400 436.4400 1198.7400 430L1198.7400 430L1198.7400 420.4800Q1195.3800 424.5400 1190.1300 427.0600Q1184.8800 429.5800 1177.1800 429.5800L1177.1800 429.5800Q1169.7600 429.5800 1164.2300 427.1300Q1158.7000 424.6800 1155.0600 420.2700Q1151.4200 415.8600 1149.5300 409.8400Q1147.6400 403.8200 1147.3600 396.5400L1147.3600 396.5400Q1147.2200 392.7600 1147.3600 388.9800L1147.3600 388.9800Q1147.6400 381.9800 1149.5300 375.9600Q1151.4200 369.9400 1155.0600 365.3900Q1158.7000 360.8400 1164.2300 358.3200Q1169.7600 355.8000 1177.1800 355.8000L1177.1800 355.8000Q1185.1600 355.8000 1190.6200 358.8100Q1196.0800 361.8200 1199.5800 366.3000L1199.5800 366.3000L1199.5800 360.7000Q1199.5800 359.1600 1200.5600 358.1800Q1201.5400 357.2000 1202.9400 357.2000L1202.9400 357.2000L1214.2800 357.2000Q1215.6800 357.2000 1216.6600 358.1800Q1217.6400 359.1600 1217.6400 360.7000L1217.6400 360.7000L1217.7800 428.1800Q1217.7800 438.2600 1214.0000 445.5400Q1210.2200 452.8200 1202.5900 456.8100Q1194.9600 460.8000 1183.0600 460.8000ZM1182.3600 414.7400L1182.3600 414.7400Q1188.1000 414.7400 1191.6000 412.2200Q1195.1000 409.7000 1196.7800 405.6400Q1198.4600 401.5800 1198.7400 397.3800L1198.7400 397.3800Q1198.8800 395.5600 1198.8800 392.7600Q1198.8800 389.9600 1198.7400 388.2800L1198.7400 388.2800Q1198.4600 383.9400 1196.7800 379.9500Q1195.1000 375.9600 1191.6000 373.3700Q1188.1000 370.7800 1182.3600 370.7800L1182.3600 370.7800Q1176.6200 370.7800 1173.1200 373.3700Q1169.6200 375.9600 1168.1500 380.1600Q1166.6800 384.3600 1166.4000 389.4000L1166.4000 389.4000Q1166.1200 392.7600 1166.4000 396.2600L1166.4000 396.2600Q1166.6800 401.1600 1168.1500 405.4300Q1169.6200 409.7000 1173.1200 412.2200Q1176.6200 414.7400 1182.3600 414.7400ZM1251.3800 430L1239.7600 430Q1238.3600 430 1237.3800 429.0200Q1236.4000 428.0400 1236.4000 426.6400L1236.4000 426.6400L1236.4000 360.5600Q1236.4000 359.1600 1237.3800 358.1800Q1238.3600 357.2000 1239.7600 357.2000L1239.7600 357.2000L1251.3800 357.2000Q1252.9200 357.2000 1253.8300 358.1800Q1254.7400 359.1600 1254.7400 360.5600L1254.7400 360.5600L1254.7400 426.6400Q1254.7400 428.0400 1253.8300 429.0200Q1252.9200 430 1251.3800 430L1251.3800 430ZM1251.9400 345.1600L1239.2000 345.1600Q1237.8000 345.1600 1236.8200 344.1800Q1235.8400 343.2000 1235.8400 341.8000L1235.8400 341.8000L1235.8400 331.7200Q1235.8400 330.3200 1236.8200 329.3400Q1237.8000 328.3600 1239.2000 328.3600L1239.2000 328.3600L1251.9400 328.3600Q1253.4800 328.3600 1254.4600 329.3400Q1255.4400 330.3200 1255.4400 331.7200L1255.4400 331.7200L1255.4400 341.8000Q1255.4400 343.2000 1254.4600 344.1800Q1253.4800 345.1600 1251.9400 345.1600L1251.9400 345.1600ZM1294.5000 431.4000L1294.5000 431.4000Q1287.2200 431.4000 1281.3400 428.5300Q1275.4600 425.6600 1272.0300 420.8300Q1268.6000 416 1268.6000 409.9800L1268.6000 409.9800Q1268.6000 400.1800 1276.5800 394.3700Q1284.5600 388.5600 1297.4400 386.6000L1297.4400 386.6000L1316.6200 383.8000L1316.6200 380.8600Q1316.6200 374.9800 1313.6800 371.7600Q1310.7400 368.5400 1303.6000 368.5400L1303.6000 368.5400Q1298.5600 368.5400 1295.4100 370.5700Q1292.2600 372.6000 1290.7200 375.9600L1290.7200 375.9600Q1289.6000 377.7800 1287.5000 377.7800L1287.5000 377.7800L1276.4400 377.7800Q1274.9000 377.7800 1274.1300 376.9400Q1273.3600 376.1000 1273.3600 374.7000L1273.3600 374.7000Q1273.5000 372.4600 1275.2500 369.2400Q1277.0000 366.0200 1280.5700 363.0100Q1284.1400 360 1289.8800 357.9000Q1295.6200 355.8000 1303.7400 355.8000L1303.7400 355.8000Q1312.5600 355.8000 1318.6500 357.9700Q1324.7400 360.1400 1328.3800 363.7800Q1332.0200 367.4200 1333.7000 372.3200Q1335.3800 377.2200 1335.3800 382.6800L1335.3800 382.6800L1335.3800 426.6400Q1335.3800 428.0400 1334.4000 429.0200Q1333.4200 430 1332.0200 430L1332.0200 430L1320.6800 430Q1319.1400 430 1318.2300 429.0200Q1317.3200 428.0400 1317.3200 426.6400L1317.3200 426.6400L1317.3200 421.1800Q1315.5000 423.7000 1312.4200 426.0800Q1309.3400 428.4600 1304.9300 429.9300Q1300.5200 431.4000 1294.5000 431.4000ZM1299.2600 418.1000L1299.2600 418.1000Q1304.1600 418.1000 1308.1500 416Q1312.1400 413.9000 1314.4500 409.4900Q1316.7600 405.0800 1316.7600 398.3600L1316.7600 398.3600L1316.7600 395.4200L1302.7600 397.6600Q1294.5000 398.9200 1290.4400 401.7200Q1286.3800 404.5200 1286.3800 408.5800L1286.3800 408.5800Q1286.3800 411.6600 1288.2700 413.8300Q1290.1600 416 1293.1000 417.0500Q1296.0400 418.1000 1299.2600 418.1000ZM1380.8800 431.4000L1380.8800 431.4000Q1372.4800 431.4000 1366.5300 429.4400Q1360.5800 427.4800 1356.8000 424.5400Q1353.0200 421.6000 1351.2000 418.6600Q1349.3800 415.7200 1349.2400 413.7600L1349.2400 413.7600Q1349.1000 412.2200 1350.1500 411.3100Q1351.2000 410.4000 1352.4600 410.4000L1352.4600 410.4000L1363.5200 410.4000Q1364.0800 410.4000 1364.5000 410.5400Q1364.9200 410.6800 1365.6200 411.3800L1365.6200 411.3800Q1367.4400 412.9200 1369.4700 414.6000Q1371.5000 416.2800 1374.3000 417.4700Q1377.1000 418.6600 1381.3000 418.6600L1381.3000 418.6600Q1386.7600 418.6600 1390.4700 416.4900Q1394.1800 414.3200 1394.1800 410.2600L1394.1800 410.2600Q1394.1800 407.3200 1392.5700 405.5000Q1390.9600 403.6800 1386.6200 402.2100Q1382.2800 400.7400 1374.3000 399.0600L1374.3000 399.0600Q1366.4600 397.2400 1361.2800 394.4400Q1356.1000 391.6400 1353.5800 387.4400Q1351.0600 383.2400 1351.0600 377.6400L1351.0600 377.6400Q1351.0600 372.1800 1354.3500 367.2100Q1357.6400 362.2400 1364.1500 359.0200Q1370.6600 355.8000 1380.3200 355.8000L1380.3200 355.8000Q1387.8800 355.8000 1393.4800 357.6900Q1399.0800 359.5800 1402.7900 362.3800Q1406.5000 365.1800 1408.4600 368.0500Q1410.4200 370.9200 1410.5600 373.0200L1410.5600 373.0200Q1410.7000 374.5600 1409.7200 375.4700Q1408.7400 376.3800 1407.4800 376.3800L1407.4800 376.3800L1397.1200 376.3800Q1396.4200 376.3800 1395.8600 376.1000Q1395.3000 375.8200 1394.7400 375.4000L1394.7400 375.4000Q1393.2000 374 1391.3800 372.3900Q1389.5600 370.7800 1386.9700 369.6600Q1384.3800 368.5400 1380.1800 368.5400L1380.1800 368.5400Q1374.8600 368.5400 1372.0600 370.8500Q1369.2600 373.1600 1369.2600 376.6600L1369.2600 376.6600Q1369.2600 379.0400 1370.5900 380.7900Q1371.9200 382.5400 1375.9800 384.0800Q1380.0400 385.6200 1388.3000 387.3000L1388.3000 387.3000Q1397.6800 388.9800 1403.2100 392.2700Q1408.7400 395.5600 1411.0500 399.8300Q1413.3600 404.1000 1413.3600 409.2800L1413.3600 409.2800Q1413.3600 415.5800 1409.6500 420.6200Q1405.9400 425.6600 1398.7300 428.5300Q1391.5200 431.4000 1380.8800 431.4000ZM174.6400 596.6000L162.7400 596.6000Q161.3400 596.6000 160.3600 595.6200Q159.3800 594.6400 159.3800 593.2400L159.3800 593.2400L159.3800 500.5600Q159.3800 499.1600 160.3600 498.1800Q161.3400 497.2000 162.7400 497.2000L162.7400 497.2000L173.8000 497.2000Q175.3400 497.2000 176.2500 498.1800Q177.1600 499.1600 177.1600 500.5600L177.1600 500.5600L177.1600 506.1600Q180.5200 501.6800 185.9800 498.7400Q191.4400 495.8000 199.5600 495.8000L199.5600 495.8000Q206.9800 495.8000 212.4400 498.1800Q217.9000 500.5600 221.5400 504.9700Q225.1800 509.3800 227.1400 515.4000Q229.1000 521.4200 229.3800 528.7000L229.3800 528.7000Q229.5200 531.0800 229.5200 533.6000Q229.5200 536.1200 229.3800 538.6400L229.3800 538.6400Q229.2400 545.6400 227.2800 551.5900Q225.3200 557.5400 221.6100 561.9500Q217.9000 566.3600 212.4400 568.8800Q206.9800 571.4000 199.5600 571.4000L199.5600 571.4000Q192 571.4000 186.6800 568.6700Q181.3600 565.9400 178 561.4600L178 561.4600L178 593.2400Q178 594.6400 177.0900 595.6200Q176.1800 596.6000 174.6400 596.6000L174.6400 596.6000ZM194.3800 556.4200L194.3800 556.4200Q200.4000 556.4200 203.7600 553.8300Q207.1200 551.2400 208.6600 547.0400Q210.2000 542.8400 210.4800 537.8000L210.4800 537.8000Q210.6200 533.6000 210.4800 529.4000L210.4800 529.4000Q210.2000 524.3600 208.6600 520.1600Q207.1200 515.9600 203.7600 513.3700Q200.4000 510.7800 194.3800 510.7800L194.3800 510.7800Q188.6400 510.7800 185.0700 513.4400Q181.5000 516.1000 179.8900 520.2300Q178.2800 524.3600 178 528.7000L178 528.7000Q177.8600 531.2200 177.8600 534.0200Q177.8600 536.8200 178 539.4800L178 539.4800Q178.1400 543.6800 179.9600 547.5300Q181.7800 551.3800 185.2800 553.9000Q188.7800 556.4200 194.3800 556.4200ZM266.3400 571.4000L266.3400 571.4000Q259.0600 571.4000 253.1800 568.5300Q247.3000 565.6600 243.8700 560.8300Q240.4400 556 240.4400 549.9800L240.4400 549.9800Q240.4400 540.1800 248.4200 534.3700Q256.4000 528.5600 269.2800 526.6000L269.2800 526.6000L288.4600 523.8000L288.4600 520.8600Q288.4600 514.9800 285.5200 511.7600Q282.5800 508.5400 275.4400 508.5400L275.4400 508.5400Q270.4000 508.5400 267.2500 510.5700Q264.1000 512.6000 262.5600 515.9600L262.5600 515.9600Q261.4400 517.7800 259.3400 517.7800L259.3400 517.7800L248.2800 517.7800Q246.7400 517.7800 245.9700 516.9400Q245.2000 516.1000 245.2000 514.7000L245.2000 514.7000Q245.3400 512.4600 247.0900 509.2400Q248.8400 506.0200 252.4100 503.0100Q255.9800 500 261.7200 497.9000Q267.4600 495.8000 275.5800 495.8000L275.5800 495.8000Q284.4000 495.8000 290.4900 497.9700Q296.5800 500.1400 300.2200 503.7800Q303.8600 507.4200 305.5400 512.3200Q307.2200 517.2200 307.2200 522.6800L307.2200 522.6800L307.2200 566.6400Q307.2200 568.0400 306.2400 569.0200Q305.2600 570 303.8600 570L303.8600 570L292.5200 570Q290.9800 570 290.0700 569.0200Q289.1600 568.0400 289.1600 566.6400L289.1600 566.6400L289.1600 561.1800Q287.3400 563.7000 284.2600 566.0800Q281.1800 568.4600 276.7700 569.9300Q272.3600 571.4000 266.3400 571.4000ZM271.1000 558.1000L271.1000 558.1000Q276 558.1000 279.9900 556Q283.9800 553.9000 286.2900 549.4900Q288.6000 545.0800 288.6000 538.3600L288.6000 538.3600L288.6000 535.4200L274.6000 537.6600Q266.3400 538.9200 262.2800 541.7200Q258.2200 544.5200 258.2200 548.5800L258.2200 548.5800Q258.2200 551.6600 260.1100 553.8300Q262 556 264.9400 557.0500Q267.8800 558.1000 271.1000 558.1000ZM340.6800 570L328.5000 570Q327.1000 570 326.1200 569.0200Q325.1400 568.0400 325.1400 566.6400L325.1400 566.6400L325.1400 500.7000Q325.1400 499.1600 326.1200 498.1800Q327.1000 497.2000 328.5000 497.2000L328.5000 497.2000L339.8400 497.2000Q341.2400 497.2000 342.2900 498.1800Q343.3400 499.1600 343.3400 500.7000L343.3400 500.7000L343.3400 506.4400Q346.5600 501.9600 351.6700 499.5800Q356.7800 497.2000 363.5000 497.2000L363.5000 497.2000L369.2400 497.2000Q370.7800 497.2000 371.6900 498.1800Q372.6000 499.1600 372.6000 500.5600L372.6000 500.5600L372.6000 510.6400Q372.6000 512.0400 371.6900 513.0200Q370.7800 514 369.2400 514L369.2400 514L358.3200 514Q351.6000 514 347.8900 517.7100Q344.1800 521.4200 344.1800 528.1400L344.1800 528.1400L344.1800 566.6400Q344.1800 568.0400 343.2000 569.0200Q342.2200 570 340.6800 570L340.6800 570ZM404.6600 571.4000L404.6600 571.4000Q397.3800 571.4000 391.5000 568.5300Q385.6200 565.6600 382.1900 560.8300Q378.7600 556 378.7600 549.9800L378.7600 549.9800Q378.7600 540.1800 386.7400 534.3700Q394.7200 528.5600 407.6000 526.6000L407.6000 526.6000L426.7800 523.8000L426.7800 520.8600Q426.7800 514.9800 423.8400 511.7600Q420.9000 508.5400 413.7600 508.5400L413.7600 508.5400Q408.7200 508.5400 405.5700 510.5700Q402.4200 512.6000 400.8800 515.9600L400.8800 515.9600Q399.7600 517.7800 397.6600 517.7800L397.6600 517.7800L386.6000 517.7800Q385.0600 517.7800 384.2900 516.9400Q383.5200 516.1000 383.5200 514.7000L383.5200 514.7000Q383.6600 512.4600 385.4100 509.2400Q387.1600 506.0200 390.7300 503.0100Q394.3000 500 400.0400 497.9000Q405.7800 495.8000 413.9000 495.8000L413.9000 495.8000Q422.7200 495.8000 428.8100 497.9700Q434.9000 500.1400 438.5400 503.7800Q442.1800 507.4200 443.8600 512.3200Q445.5400 517.2200 445.5400 522.6800L445.5400 522.6800L445.5400 566.6400Q445.5400 568.0400 444.5600 569.0200Q443.5800 570 442.1800 570L442.1800 570L430.8400 570Q429.3000 570 428.3900 569.0200Q427.4800 568.0400 427.4800 566.6400L427.4800 566.6400L427.4800 561.1800Q425.6600 563.7000 422.5800 566.0800Q419.5000 568.4600 415.0900 569.9300Q410.6800 571.4000 404.6600 571.4000ZM409.4200 558.1000L409.4200 558.1000Q414.3200 558.1000 418.3100 556Q422.3000 553.9000 424.6100 549.4900Q426.9200 545.0800 426.9200 538.3600L426.9200 538.3600L426.9200 535.4200L412.9200 537.6600Q404.6600 538.9200 400.6000 541.7200Q396.5400 544.5200 396.5400 548.5800L396.5400 548.5800Q396.5400 551.6600 398.4300 553.8300Q400.3200 556 403.2600 557.0500Q406.2000 558.1000 409.4200 558.1000ZM527.7200 571.4000L527.7200 571.4000Q516.5200 571.4000 508.8900 567.4800Q501.2600 563.5600 497.2700 556.4200Q493.2800 549.2800 492.7200 539.7600L492.7200 539.7600Q492.5800 537.2400 492.5800 533.6000Q492.5800 529.9600 492.7200 527.4400L492.7200 527.4400Q493.2800 517.7800 497.4100 510.7100Q501.5400 503.6400 509.1700 499.7200Q516.8000 495.8000 527.7200 495.8000L527.7200 495.8000Q538.6400 495.8000 546.2700 499.7200Q553.9000 503.6400 558.0300 510.7100Q562.1600 517.7800 562.7200 527.4400L562.7200 527.4400Q562.8600 529.9600 562.8600 533.6000Q562.8600 537.2400 562.7200 539.7600L562.7200 539.7600Q562.1600 549.2800 558.1700 556.4200Q554.1800 563.5600 546.5500 567.4800Q538.9200 571.4000 527.7200 571.4000ZM527.7200 557.5400L527.7200 557.5400Q535.1400 557.5400 539.2000 552.8500Q543.2600 548.1600 543.6800 539.0600L543.6800 539.0600Q543.8200 536.9600 543.8200 533.6000Q543.8200 530.2400 543.6800 528.1400L543.6800 528.1400Q543.2600 519.0400 539.2000 514.3500Q535.1400 509.6600 527.7200 509.6600L527.7200 509.6600Q520.3000 509.6600 516.2400 514.3500Q512.1800 519.0400 511.7600 528.1400L511.7600 528.1400Q511.6200 530.2400 511.6200 533.6000Q511.6200 536.9600 511.7600 539.0600L511.7600 539.0600Q512.1800 548.1600 516.2400 552.8500Q520.3000 557.5400 527.7200 557.5400ZM622.6400 570L611.3000 570Q602.9000 570 597.1600 567.0600Q591.4200 564.1200 588.6200 558.3100Q585.8200 552.5000 585.8200 543.8200L585.8200 543.8200L585.8200 512.0400L574.7600 512.0400Q573.3600 512.0400 572.3800 511.0600Q571.4000 510.0800 571.4000 508.5400L571.4000 508.5400L571.4000 500.5600Q571.4000 499.1600 572.3800 498.1800Q573.3600 497.2000 574.7600 497.2000L574.7600 497.2000L585.8200 497.2000L585.8200 473.9600Q585.8200 472.5600 586.7300 471.5800Q587.6400 470.6000 589.1800 470.6000L589.1800 470.6000L600.5200 470.6000Q601.9200 470.6000 602.9000 471.5800Q603.8800 472.5600 603.8800 473.9600L603.8800 473.9600L603.8800 497.2000L621.3800 497.2000Q622.7800 497.2000 623.7600 498.1800Q624.7400 499.1600 624.7400 500.5600L624.7400 500.5600L624.7400 508.5400Q624.7400 510.0800 623.7600 511.0600Q622.7800 512.0400 621.3800 512.0400L621.3800 512.0400L603.8800 512.0400L603.8800 542.4200Q603.8800 548.1600 605.9100 551.3800Q607.9400 554.6000 612.9800 554.6000L612.9800 554.6000L622.6400 554.6000Q624.0400 554.6000 625.0200 555.5800Q626.0000 556.5600 626.0000 557.9600L626.0000 557.9600L626.0000 566.6400Q626.0000 568.0400 625.0200 569.0200Q624.0400 570 622.6400 570L622.6400 570ZM653.4400 570L641.8200 570Q640.4200 570 639.4400 569.0200Q638.4600 568.0400 638.4600 566.6400L638.4600 566.6400L638.4600 500.5600Q638.4600 499.1600 639.4400 498.1800Q640.4200 497.2000 641.8200 497.2000L641.8200 497.2000L653.4400 497.2000Q654.9800 497.2000 655.8900 498.1800Q656.8000 499.1600 656.8000 500.5600L656.8000 500.5600L656.8000 566.6400Q656.8000 568.0400 655.8900 569.0200Q654.9800 570 653.4400 570L653.4400 570ZM654 485.1600L641.2600 485.1600Q639.8600 485.1600 638.8800 484.1800Q637.9000 483.2000 637.9000 481.8000L637.9000 481.8000L637.9000 471.7200Q637.9000 470.3200 638.8800 469.3400Q639.8600 468.3600 641.2600 468.3600L641.2600 468.3600L654 468.3600Q655.5400 468.3600 656.5200 469.3400Q657.5000 470.3200 657.5000 471.7200L657.5000 471.7200L657.5000 481.8000Q657.5000 483.2000 656.5200 484.1800Q655.5400 485.1600 654 485.1600L654 485.1600ZM690.5400 570L678.7800 570Q677.3800 570 676.4000 569.0200Q675.4200 568.0400 675.4200 566.6400L675.4200 566.6400L675.4200 500.5600Q675.4200 499.1600 676.4000 498.1800Q677.3800 497.2000 678.7800 497.2000L678.7800 497.2000L689.7000 497.2000Q691.1000 497.2000 692.0800 498.1800Q693.0600 499.1600 693.0600 500.5600L693.0600 500.5600L693.0600 505.3200Q696.0000 501.4000 700.9700 498.6700Q705.9400 495.9400 712.8000 495.8000L712.8000 495.8000Q728.7600 495.5200 735.0600 508.2600L735.0600 508.2600Q738.2800 502.6600 744.3700 499.2300Q750.4600 495.8000 757.8800 495.8000L757.8800 495.8000Q765.1600 495.8000 771.1100 499.1600Q777.0600 502.5200 780.4900 509.3100Q783.9200 516.1000 783.9200 526.4600L783.9200 526.4600L783.9200 566.6400Q783.9200 568.0400 782.9400 569.0200Q781.9600 570 780.5600 570L780.5600 570L769.0800 570Q767.6800 570 766.7000 569.0200Q765.7200 568.0400 765.7200 566.6400L765.7200 566.6400L765.7200 527.5800Q765.7200 521.2800 763.9000 517.5700Q762.0800 513.8600 759.0000 512.3200Q755.9200 510.7800 752.1400 510.7800L752.1400 510.7800Q749.0600 510.7800 745.9800 512.3200Q742.9000 513.8600 740.9400 517.5700Q738.9800 521.2800 738.9800 527.5800L738.9800 527.5800L738.9800 566.6400Q738.9800 568.0400 738.0000 569.0200Q737.0200 570 735.6200 570L735.6200 570L724.1400 570Q722.7400 570 721.7600 569.0200Q720.7800 568.0400 720.7800 566.6400L720.7800 566.6400L720.7800 527.5800Q720.7800 521.2800 718.8200 517.5700Q716.8600 513.8600 713.7800 512.3200Q710.7000 510.7800 707.2000 510.7800L707.2000 510.7800Q703.9800 510.7800 700.9000 512.3900Q697.8200 514 695.8600 517.6400Q693.9000 521.2800 693.9000 527.5800L693.9000 527.5800L693.9000 566.6400Q693.9000 568.0400 692.9200 569.0200Q691.9400 570 690.5400 570L690.5400 570ZM816.6800 570L805.0600 570Q803.6600 570 802.6800 569.0200Q801.7000 568.0400 801.7000 566.6400L801.7000 566.6400L801.7000 500.5600Q801.7000 499.1600 802.6800 498.1800Q803.6600 497.2000 805.0600 497.2000L805.0600 497.2000L816.6800 497.2000Q818.2200 497.2000 819.1300 498.1800Q820.0400 499.1600 820.0400 500.5600L820.0400 500.5600L820.0400 566.6400Q820.0400 568.0400 819.1300 569.0200Q818.2200 570 816.6800 570L816.6800 570ZM817.2400 485.1600L804.5000 485.1600Q803.1000 485.1600 802.1200 484.1800Q801.1400 483.2000 801.1400 481.8000L801.1400 481.8000L801.1400 471.7200Q801.1400 470.3200 802.1200 469.3400Q803.1000 468.3600 804.5000 468.3600L804.5000 468.3600L817.2400 468.3600Q818.7800 468.3600 819.7600 469.3400Q820.7400 470.3200 820.7400 471.7200L820.7400 471.7200L820.7400 481.8000Q820.7400 483.2000 819.7600 484.1800Q818.7800 485.1600 817.2400 485.1600L817.2400 485.1600ZM895.5000 570L838.3800 570Q836.8400 570 835.9300 569.0200Q835.0200 568.0400 835.0200 566.6400L835.0200 566.6400L835.0200 558.6600Q835.0200 557.4000 835.6500 556.2100Q836.2800 555.0200 836.9800 554.1800L836.9800 554.1800L872.8200 511.7600L839.5000 511.7600Q838.1000 511.7600 837.1200 510.8500Q836.1400 509.9400 836.1400 508.4000L836.1400 508.4000L836.1400 500.5600Q836.1400 499.1600 837.1200 498.1800Q838.1000 497.2000 839.5000 497.2000L839.5000 497.2000L892.5600 497.2000Q894.1000 497.2000 895.0100 498.1800Q895.9200 499.1600 895.9200 500.5600L895.9200 500.5600L895.9200 509.1000Q895.9200 510.3600 895.3600 511.3400Q894.8000 512.3200 893.9600 513.3000L893.9600 513.3000L858.9600 555.4400L895.5000 555.4400Q896.9000 555.4400 897.8800 556.3500Q898.8600 557.2600 898.8600 558.8000L898.8600 558.8000L898.8600 566.6400Q898.8600 568.0400 897.8800 569.0200Q896.9000 570 895.5000 570L895.5000 570ZM934.1400 571.4000L934.1400 571.4000Q926.8600 571.4000 920.9800 568.5300Q915.1000 565.6600 911.6700 560.8300Q908.2400 556 908.2400 549.9800L908.2400 549.9800Q908.2400 540.1800 916.2200 534.3700Q924.2000 528.5600 937.0800 526.6000L937.0800 526.6000L956.2600 523.8000L956.2600 520.8600Q956.2600 514.9800 953.3200 511.7600Q950.3800 508.5400 943.2400 508.5400L943.2400 508.5400Q938.2000 508.5400 935.0500 510.5700Q931.9000 512.6000 930.3600 515.9600L930.3600 515.9600Q929.2400 517.7800 927.1400 517.7800L927.1400 517.7800L916.0800 517.7800Q914.5400 517.7800 913.7700 516.9400Q913.0000 516.1000 913.0000 514.7000L913.0000 514.7000Q913.1400 512.4600 914.8900 509.2400Q916.6400 506.0200 920.2100 503.0100Q923.7800 500 929.5200 497.9000Q935.2600 495.8000 943.3800 495.8000L943.3800 495.8000Q952.2000 495.8000 958.2900 497.9700Q964.3800 500.1400 968.0200 503.7800Q971.6600 507.4200 973.3400 512.3200Q975.0200 517.2200 975.0200 522.6800L975.0200 522.6800L975.0200 566.6400Q975.0200 568.0400 974.0400 569.0200Q973.0600 570 971.6600 570L971.6600 570L960.3200 570Q958.7800 570 957.8700 569.0200Q956.9600 568.0400 956.9600 566.6400L956.9600 566.6400L956.9600 561.1800Q955.1400 563.7000 952.0600 566.0800Q948.9800 568.4600 944.5700 569.9300Q940.1600 571.4000 934.1400 571.4000ZM938.9000 558.1000L938.9000 558.1000Q943.8000 558.1000 947.7900 556Q951.7800 553.9000 954.0900 549.4900Q956.4000 545.0800 956.4000 538.3600L956.4000 538.3600L956.4000 535.4200L942.4000 537.6600Q934.1400 538.9200 930.0800 541.7200Q926.0200 544.5200 926.0200 548.5800L926.0200 548.5800Q926.0200 551.6600 927.9100 553.8300Q929.8000 556 932.7400 557.0500Q935.6800 558.1000 938.9000 558.1000ZM1008.4800 570L996.3000 570Q994.9000 570 993.9200 569.0200Q992.9400 568.0400 992.9400 566.6400L992.9400 566.6400L992.9400 500.7000Q992.9400 499.1600 993.9200 498.1800Q994.9000 497.2000 996.3000 497.2000L996.3000 497.2000L1007.6400 497.2000Q1009.0400 497.2000 1010.0900 498.1800Q1011.1400 499.1600 1011.1400 500.7000L1011.1400 500.7000L1011.1400 506.4400Q1014.3600 501.9600 1019.4700 499.5800Q1024.5800 497.2000 1031.3000 497.2000L1031.3000 497.2000L1037.0400 497.2000Q1038.5800 497.2000 1039.4900 498.1800Q1040.4000 499.1600 1040.4000 500.5600L1040.4000 500.5600L1040.4000 510.6400Q1040.4000 512.0400 1039.4900 513.0200Q1038.5800 514 1037.0400 514L1037.0400 514L1026.1200 514Q1019.4000 514 1015.6900 517.7100Q1011.9800 521.4200 1011.9800 528.1400L1011.9800 528.1400L1011.9800 566.6400Q1011.9800 568.0400 1011.0000 569.0200Q1010.0200 570 1008.4800 570L1008.4800 570ZM1104.5200 571.4000L1104.5200 571.4000Q1097.2400 571.4000 1091.3600 568.5300Q1085.4800 565.6600 1082.0500 560.8300Q1078.6200 556 1078.6200 549.9800L1078.6200 549.9800Q1078.6200 540.1800 1086.6000 534.3700Q1094.5800 528.5600 1107.4600 526.6000L1107.4600 526.6000L1126.6400 523.8000L1126.6400 520.8600Q1126.6400 514.9800 1123.7000 511.7600Q1120.7600 508.5400 1113.6200 508.5400L1113.6200 508.5400Q1108.5800 508.5400 1105.4300 510.5700Q1102.2800 512.6000 1100.7400 515.9600L1100.7400 515.9600Q1099.6200 517.7800 1097.5200 517.7800L1097.5200 517.7800L1086.4600 517.7800Q1084.9200 517.7800 1084.1500 516.9400Q1083.3800 516.1000 1083.3800 514.7000L1083.3800 514.7000Q1083.5200 512.4600 1085.2700 509.2400Q1087.0200 506.0200 1090.5900 503.0100Q1094.1600 500 1099.9000 497.9000Q1105.6400 495.8000 1113.7600 495.8000L1113.7600 495.8000Q1122.5800 495.8000 1128.6700 497.9700Q1134.7600 500.1400 1138.4000 503.7800Q1142.0400 507.4200 1143.7200 512.3200Q1145.4000 517.2200 1145.4000 522.6800L1145.4000 522.6800L1145.4000 566.6400Q1145.4000 568.0400 1144.4200 569.0200Q1143.4400 570 1142.0400 570L1142.0400 570L1130.7000 570Q1129.1600 570 1128.2500 569.0200Q1127.3400 568.0400 1127.3400 566.6400L1127.3400 566.6400L1127.3400 561.1800Q1125.5200 563.7000 1122.4400 566.0800Q1119.3600 568.4600 1114.9500 569.9300Q1110.5400 571.4000 1104.5200 571.4000ZM1109.2800 558.1000L1109.2800 558.1000Q1114.1800 558.1000 1118.1700 556Q1122.1600 553.9000 1124.4700 549.4900Q1126.7800 545.0800 1126.7800 538.3600L1126.7800 538.3600L1126.7800 535.4200L1112.7800 537.6600Q1104.5200 538.9200 1100.4600 541.7200Q1096.4000 544.5200 1096.4000 548.5800L1096.4000 548.5800Q1096.4000 551.6600 1098.2900 553.8300Q1100.1800 556 1103.1200 557.0500Q1106.0600 558.1000 1109.2800 558.1000ZM174.3600 710L162.7400 710Q161.3400 710 160.3600 709.0200Q159.3800 708.0400 159.3800 706.6400L159.3800 706.6400L159.3800 613.9600Q159.3800 612.5600 160.3600 611.5800Q161.3400 610.6000 162.7400 610.6000L162.7400 610.6000L174.3600 610.6000Q175.7600 610.6000 176.7400 611.5800Q177.7200 612.5600 177.7200 613.9600L177.7200 613.9600L177.7200 706.6400Q177.7200 708.0400 176.7400 709.0200Q175.7600 710 174.3600 710L174.3600 710ZM227.7000 711.4000L227.7000 711.4000Q212.1600 711.4000 203.0600 702.4400Q193.9600 693.4800 193.2600 676.9600L193.2600 676.9600Q193.1200 675.5600 193.1200 673.3900Q193.1200 671.2200 193.2600 669.9600L193.2600 669.9600Q193.8200 659.3200 198.0900 651.6900Q202.3600 644.0600 209.9200 639.9300Q217.4800 635.8000 227.7000 635.8000L227.7000 635.8000Q239.0400 635.8000 246.7400 640.4900Q254.4400 645.1800 258.3600 653.5100Q262.2800 661.8400 262.2800 672.7600L262.2800 672.7600L262.2800 675.7000Q262.2800 677.1000 261.3000 678.0800Q260.3200 679.0600 258.7800 679.0600L258.7800 679.0600L212.3000 679.0600Q212.3000 679.0600 212.3000 679.4800Q212.3000 679.9000 212.3000 680.1800L212.3000 680.1800Q212.4400 685.0800 214.1900 689.2100Q215.9400 693.3400 219.3700 695.8600Q222.8000 698.3800 227.5600 698.3800L227.5600 698.3800Q231.4800 698.3800 234.1400 697.1900Q236.8000 696 238.4800 694.4600Q240.1600 692.9200 240.8600 691.9400L240.8600 691.9400Q242.1200 690.2600 242.8900 689.9100Q243.6600 689.5600 245.2000 689.5600L245.2000 689.5600L257.2400 689.5600Q258.6400 689.5600 259.5500 690.4000Q260.4600 691.2400 260.3200 692.5000L260.3200 692.5000Q260.1800 694.7400 258.0100 697.9600Q255.8400 701.1800 251.7800 704.2600Q247.7200 707.3400 241.6300 709.3700Q235.5400 711.4000 227.7000 711.4000ZM212.3000 666.8800L212.3000 667.3000L243.2400 667.3000L243.2400 666.8800Q243.2400 661.4200 241.4200 657.2900Q239.6000 653.1600 236.1000 650.8500Q232.6000 648.5400 227.7000 648.5400L227.7000 648.5400Q222.8000 648.5400 219.3000 650.8500Q215.8000 653.1600 214.0500 657.2900Q212.3000 661.4200 212.3000 666.8800L212.3000 666.8800ZM292.1000 710L280.4800 710Q279.0800 710 278.1000 709.0200Q277.1200 708.0400 277.1200 706.6400L277.1200 706.6400L277.1200 640.5600Q277.1200 639.1600 278.1000 638.1800Q279.0800 637.2000 280.4800 637.2000L280.4800 637.2000L292.1000 637.2000Q293.6400 637.2000 294.5500 638.1800Q295.4600 639.1600 295.4600 640.5600L295.4600 640.5600L295.4600 706.6400Q295.4600 708.0400 294.5500 709.0200Q293.6400 710 292.1000 710L292.1000 710ZM292.6600 625.1600L279.9200 625.1600Q278.5200 625.1600 277.5400 624.1800Q276.5600 623.2000 276.5600 621.8000L276.5600 621.8000L276.5600 611.7200Q276.5600 610.3200 277.5400 609.3400Q278.5200 608.3600 279.9200 608.3600L279.9200 608.3600L292.6600 608.3600Q294.2000 608.3600 295.1800 609.3400Q296.1600 610.3200 296.1600 611.7200L296.1600 611.7200L296.1600 621.8000Q296.1600 623.2000 295.1800 624.1800Q294.2000 625.1600 292.6600 625.1600L292.6600 625.1600ZM358.3200 710L346.9800 710Q338.5800 710 332.8400 707.0600Q327.1000 704.1200 324.3000 698.3100Q321.5000 692.5000 321.5000 683.8200L321.5000 683.8200L321.5000 652.0400L310.4400 652.0400Q309.0400 652.0400 308.0600 651.0600Q307.0800 650.0800 307.0800 648.5400L307.0800 648.5400L307.0800 640.5600Q307.0800 639.1600 308.0600 638.1800Q309.0400 637.2000 310.4400 637.2000L310.4400 637.2000L321.5000 637.2000L321.5000 613.9600Q321.5000 612.5600 322.4100 611.5800Q323.3200 610.6000 324.8600 610.6000L324.8600 610.6000L336.2000 610.6000Q337.6000 610.6000 338.5800 611.5800Q339.5600 612.5600 339.5600 613.9600L339.5600 613.9600L339.5600 637.2000L357.0600 637.2000Q358.4600 637.2000 359.4400 638.1800Q360.4200 639.1600 360.4200 640.5600L360.4200 640.5600L360.4200 648.5400Q360.4200 650.0800 359.4400 651.0600Q358.4600 652.0400 357.0600 652.0400L357.0600 652.0400L339.5600 652.0400L339.5600 682.4200Q339.5600 688.1600 341.5900 691.3800Q343.6200 694.6000 348.6600 694.6000L348.6600 694.6000L358.3200 694.6000Q359.7200 694.6000 360.7000 695.5800Q361.6800 696.5600 361.6800 697.9600L361.6800 697.9600L361.6800 706.6400Q361.6800 708.0400 360.7000 709.0200Q359.7200 710 358.3200 710L358.3200 710ZM401.1600 711.4000L401.1600 711.4000Q392.6200 711.4000 386.3900 707.5500Q380.1600 703.7000 376.8000 696.6300Q373.4400 689.5600 373.4400 679.9000L373.4400 679.9000L373.4400 640.5600Q373.4400 639.1600 374.4200 638.1800Q375.4000 637.2000 376.8000 637.2000L376.8000 637.2000L389.1200 637.2000Q390.6600 637.2000 391.5700 638.1800Q392.4800 639.1600 392.4800 640.5600L392.4800 640.5600L392.4800 679.0600Q392.4800 696.4200 407.7400 696.4200L407.7400 696.4200Q415.0200 696.4200 419.2900 691.8000Q423.5600 687.1800 423.5600 679.0600L423.5600 679.0600L423.5600 640.5600Q423.5600 639.1600 424.5400 638.1800Q425.5200 637.2000 426.9200 637.2000L426.9200 637.2000L439.2400 637.2000Q440.6400 637.2000 441.6200 638.1800Q442.6000 639.1600 442.6000 640.5600L442.6000 640.5600L442.6000 706.6400Q442.6000 708.0400 441.6200 709.0200Q440.6400 710 439.2400 710L439.2400 710L427.9000 710Q426.3600 710 425.4500 709.0200Q424.5400 708.0400 424.5400 706.6400L424.5400 706.6400L424.5400 700.9000Q420.7600 705.8000 415.1600 708.6000Q409.5600 711.4000 401.1600 711.4000ZM476.6200 710L464.4400 710Q463.0400 710 462.0600 709.0200Q461.0800 708.0400 461.0800 706.6400L461.0800 706.6400L461.0800 640.7000Q461.0800 639.1600 462.0600 638.1800Q463.0400 637.2000 464.4400 637.2000L464.4400 637.2000L475.7800 637.2000Q477.1800 637.2000 478.2300 638.1800Q479.2800 639.1600 479.2800 640.7000L479.2800 640.7000L479.2800 646.4400Q482.5000 641.9600 487.6100 639.5800Q492.7200 637.2000 499.4400 637.2000L499.4400 637.2000L505.1800 637.2000Q506.7200 637.2000 507.6300 638.1800Q508.5400 639.1600 508.5400 640.5600L508.5400 640.5600L508.5400 650.6400Q508.5400 652.0400 507.6300 653.0200Q506.7200 654 505.1800 654L505.1800 654L494.2600 654Q487.5400 654 483.8300 657.7100Q480.1200 661.4200 480.1200 668.1400L480.1200 668.1400L480.1200 706.6400Q480.1200 708.0400 479.1400 709.0200Q478.1600 710 476.6200 710L476.6200 710ZM540.6000 711.4000L540.6000 711.4000Q533.3200 711.4000 527.4400 708.5300Q521.5600 705.6600 518.1300 700.8300Q514.7000 696 514.7000 689.9800L514.7000 689.9800Q514.7000 680.1800 522.6800 674.3700Q530.6600 668.5600 543.5400 666.6000L543.5400 666.6000L562.7200 663.8000L562.7200 660.8600Q562.7200 654.9800 559.7800 651.7600Q556.8400 648.5400 549.7000 648.5400L549.7000 648.5400Q544.6600 648.5400 541.5100 650.5700Q538.3600 652.6000 536.8200 655.9600L536.8200 655.9600Q535.7000 657.7800 533.6000 657.7800L533.6000 657.7800L522.5400 657.7800Q521 657.7800 520.2300 656.9400Q519.4600 656.1000 519.4600 654.7000L519.4600 654.7000Q519.6000 652.4600 521.3500 649.2400Q523.1000 646.0200 526.6700 643.0100Q530.2400 640 535.9800 637.9000Q541.7200 635.8000 549.8400 635.8000L549.8400 635.8000Q558.6600 635.8000 564.7500 637.9700Q570.8400 640.1400 574.4800 643.7800Q578.1200 647.4200 579.8000 652.3200Q581.4800 657.2200 581.4800 662.6800L581.4800 662.6800L581.4800 706.6400Q581.4800 708.0400 580.5000 709.0200Q579.5200 710 578.1200 710L578.1200 710L566.7800 710Q565.2400 710 564.3300 709.0200Q563.4200 708.0400 563.4200 706.6400L563.4200 706.6400L563.4200 701.1800Q561.6000 703.7000 558.5200 706.0800Q555.4400 708.4600 551.0300 709.9300Q546.6200 711.4000 540.6000 711.4000ZM545.3600 698.1000L545.3600 698.1000Q550.2600 698.1000 554.2500 696Q558.2400 693.9000 560.5500 689.4900Q562.8600 685.0800 562.8600 678.3600L562.8600 678.3600L562.8600 675.4200L548.8600 677.6600Q540.6000 678.9200 536.5400 681.7200Q532.4800 684.5200 532.4800 688.5800L532.4800 688.5800Q532.4800 691.6600 534.3700 693.8300Q536.2600 696 539.2000 697.0500Q542.1400 698.1000 545.3600 698.1000ZM658.4800 711.4000L658.4800 711.4000Q651.2000 711.4000 645.6700 708.9500Q640.1400 706.5000 636.5000 702.0200Q632.8600 697.5400 630.9000 691.4500Q628.9400 685.3600 628.6600 678.0800L628.6600 678.0800Q628.5200 675.5600 628.5200 673.5300Q628.5200 671.5000 628.6600 668.9800L628.6600 668.9800Q628.9400 661.9800 630.8300 655.9600Q632.7200 649.9400 636.4300 645.3900Q640.1400 640.8400 645.6700 638.3200Q651.2000 635.8000 658.4800 635.8000L658.4800 635.8000Q666.0400 635.8000 671.2900 638.3900Q676.5400 640.9800 680.0400 645.0400L680.0400 645.0400L680.0400 613.9600Q680.0400 612.5600 680.9500 611.5800Q681.8600 610.6000 683.4000 610.6000L683.4000 610.6000L695.3000 610.6000Q696.7000 610.6000 697.6800 611.5800Q698.6600 612.5600 698.6600 613.9600L698.6600 613.9600L698.6600 706.6400Q698.6600 708.0400 697.6800 709.0200Q696.7000 710 695.3000 710L695.3000 710L684.2400 710Q682.7000 710 681.7900 709.0200Q680.8800 708.0400 680.8800 706.6400L680.8800 706.6400L680.8800 701.4600Q677.3800 705.8000 671.9900 708.6000Q666.6000 711.4000 658.4800 711.4000ZM663.6600 696.4200L663.6600 696.4200Q669.5400 696.4200 673.0400 693.7600Q676.5400 691.1000 678.2200 686.9700Q679.9000 682.8400 680.0400 678.5000L680.0400 678.5000Q680.1800 675.9800 680.1800 673.1100Q680.1800 670.2400 680.0400 667.7200L680.0400 667.7200Q679.9000 663.5200 678.0800 659.6700Q676.2600 655.8200 672.7600 653.3000Q669.2600 650.7800 663.6600 650.7800L663.6600 650.7800Q657.7800 650.7800 654.3500 653.3700Q650.9200 655.9600 649.3800 660.1600Q647.8400 664.3600 647.5600 669.4000L647.5600 669.4000Q647.4200 673.6000 647.5600 677.8000L647.5600 677.8000Q647.8400 682.8400 649.3800 687.0400Q650.9200 691.2400 654.3500 693.8300Q657.7800 696.4200 663.6600 696.4200ZM748.6400 711.4000L748.6400 711.4000Q733.1000 711.4000 724.0000 702.4400Q714.9000 693.4800 714.2000 676.9600L714.2000 676.9600Q714.0600 675.5600 714.0600 673.3900Q714.0600 671.2200 714.2000 669.9600L714.2000 669.9600Q714.7600 659.3200 719.0300 651.6900Q723.3000 644.0600 730.8600 639.9300Q738.4200 635.8000 748.6400 635.8000L748.6400 635.8000Q759.9800 635.8000 767.6800 640.4900Q775.3800 645.1800 779.3000 653.5100Q783.2200 661.8400 783.2200 672.7600L783.2200 672.7600L783.2200 675.7000Q783.2200 677.1000 782.2400 678.0800Q781.2600 679.0600 779.7200 679.0600L779.7200 679.0600L733.2400 679.0600Q733.2400 679.0600 733.2400 679.4800Q733.2400 679.9000 733.2400 680.1800L733.2400 680.1800Q733.3800 685.0800 735.1300 689.2100Q736.8800 693.3400 740.3100 695.8600Q743.7400 698.3800 748.5000 698.3800L748.5000 698.3800Q752.4200 698.3800 755.0800 697.1900Q757.7400 696 759.4200 694.4600Q761.1000 692.9200 761.8000 691.9400L761.8000 691.9400Q763.0600 690.2600 763.8300 689.9100Q764.6000 689.5600 766.1400 689.5600L766.1400 689.5600L778.1800 689.5600Q779.5800 689.5600 780.4900 690.4000Q781.4000 691.2400 781.2600 692.5000L781.2600 692.5000Q781.1200 694.7400 778.9500 697.9600Q776.7800 701.1800 772.7200 704.2600Q768.6600 707.3400 762.5700 709.3700Q756.4800 711.4000 748.6400 711.4000ZM733.2400 666.8800L733.2400 667.3000L764.1800 667.3000L764.1800 666.8800Q764.1800 661.4200 762.3600 657.2900Q760.5400 653.1600 757.0400 650.8500Q753.5400 648.5400 748.6400 648.5400L748.6400 648.5400Q743.7400 648.5400 740.2400 650.8500Q736.7400 653.1600 734.9900 657.2900Q733.2400 661.4200 733.2400 666.8800L733.2400 666.8800ZM870.4400 711.4000L870.4400 711.4000Q862.3200 711.4000 856.9300 708.6000Q851.5400 705.8000 848.0400 701.4600L848.0400 701.4600L848.0400 706.6400Q848.0400 708.0400 847.1300 709.0200Q846.2200 710 844.6800 710L844.6800 710L833.6200 710Q832.2200 710 831.2400 709.0200Q830.2600 708.0400 830.2600 706.6400L830.2600 706.6400L830.2600 613.9600Q830.2600 612.5600 831.2400 611.5800Q832.2200 610.6000 833.6200 610.6000L833.6200 610.6000L845.5200 610.6000Q847.0600 610.6000 847.9700 611.5800Q848.8800 612.5600 848.8800 613.9600L848.8800 613.9600L848.8800 645.0400Q852.3800 640.9800 857.6300 638.3900Q862.8800 635.8000 870.4400 635.8000L870.4400 635.8000Q877.8600 635.8000 883.3200 638.3200Q888.7800 640.8400 892.4900 645.3900Q896.2000 649.9400 898.1600 655.9600Q900.1200 661.9800 900.2600 668.9800L900.2600 668.9800Q900.4000 671.5000 900.4000 673.5300Q900.4000 675.5600 900.2600 678.0800L900.2600 678.0800Q899.9800 685.3600 898.0200 691.4500Q896.0600 697.5400 892.4200 702.0200Q888.7800 706.5000 883.3200 708.9500Q877.8600 711.4000 870.4400 711.4000ZM865.2600 696.4200L865.2600 696.4200Q871.2800 696.4200 874.6400 693.8300Q878.0000 691.2400 879.5400 687.0400Q881.0800 682.8400 881.3600 677.8000L881.3600 677.8000Q881.5000 673.6000 881.3600 669.4000L881.3600 669.4000Q881.0800 664.3600 879.5400 660.1600Q878.0000 655.9600 874.6400 653.3700Q871.2800 650.7800 865.2600 650.7800L865.2600 650.7800Q859.6600 650.7800 856.1600 653.3000Q852.6600 655.8200 850.8400 659.6700Q849.0200 663.5200 848.8800 667.7200L848.8800 667.7200Q848.7400 670.2400 848.7400 673.1100Q848.7400 675.9800 848.8800 678.5000L848.8800 678.5000Q849.1600 682.8400 850.7700 686.9700Q852.3800 691.1000 855.9500 693.7600Q859.5200 696.4200 865.2600 696.4200ZM937.0800 711.4000L937.0800 711.4000Q929.8000 711.4000 923.9200 708.5300Q918.0400 705.6600 914.6100 700.8300Q911.1800 696 911.1800 689.9800L911.1800 689.9800Q911.1800 680.1800 919.1600 674.3700Q927.1400 668.5600 940.0200 666.6000L940.0200 666.6000L959.2000 663.8000L959.2000 660.8600Q959.2000 654.9800 956.2600 651.7600Q953.3200 648.5400 946.1800 648.5400L946.1800 648.5400Q941.1400 648.5400 937.9900 650.5700Q934.8400 652.6000 933.3000 655.9600L933.3000 655.9600Q932.1800 657.7800 930.0800 657.7800L930.0800 657.7800L919.0200 657.7800Q917.4800 657.7800 916.7100 656.9400Q915.9400 656.1000 915.9400 654.7000L915.9400 654.7000Q916.0800 652.4600 917.8300 649.2400Q919.5800 646.0200 923.1500 643.0100Q926.7200 640 932.4600 637.9000Q938.2000 635.8000 946.3200 635.8000L946.3200 635.8000Q955.1400 635.8000 961.2300 637.9700Q967.3200 640.1400 970.9600 643.7800Q974.6000 647.4200 976.2800 652.3200Q977.9600 657.2200 977.9600 662.6800L977.9600 662.6800L977.9600 706.6400Q977.9600 708.0400 976.9800 709.0200Q976.0000 710 974.6000 710L974.6000 710L963.2600 710Q961.7200 710 960.8100 709.0200Q959.9000 708.0400 959.9000 706.6400L959.9000 706.6400L959.9000 701.1800Q958.0800 703.7000 955.0000 706.0800Q951.9200 708.4600 947.5100 709.9300Q943.1000 711.4000 937.0800 711.4000ZM941.8400 698.1000L941.8400 698.1000Q946.7400 698.1000 950.7300 696Q954.7200 693.9000 957.0300 689.4900Q959.3400 685.0800 959.3400 678.3600L959.3400 678.3600L959.3400 675.4200L945.3400 677.6600Q937.0800 678.9200 933.0200 681.7200Q928.9600 684.5200 928.9600 688.5800L928.9600 688.5800Q928.9600 691.6600 930.8500 693.8300Q932.7400 696 935.6800 697.0500Q938.6200 698.1000 941.8400 698.1000ZM1011.5600 710L999.2400 710Q997.8400 710 996.8600 709.0200Q995.8800 708.0400 995.8800 706.6400L995.8800 706.6400L995.8800 640.5600Q995.8800 639.1600 996.8600 638.1800Q997.8400 637.2000 999.2400 637.2000L999.2400 637.2000L1010.7200 637.2000Q1012.1200 637.2000 1013.1000 638.1800Q1014.0800 639.1600 1014.0800 640.5600L1014.0800 640.5600L1014.0800 646.3000Q1017.7200 641.8200 1023.3900 638.8100Q1029.0600 635.8000 1037.4600 635.8000L1037.4600 635.8000Q1046.0000 635.8000 1052.3000 639.6500Q1058.6000 643.5000 1062.0300 650.5000Q1065.4600 657.5000 1065.4600 667.3000L1065.4600 667.3000L1065.4600 706.6400Q1065.4600 708.0400 1064.4800 709.0200Q1063.5000 710 1062.1000 710L1062.1000 710L1049.7800 710Q1048.3800 710 1047.4000 709.0200Q1046.4200 708.0400 1046.4200 706.6400L1046.4200 706.6400L1046.4200 668.1400Q1046.4200 660.0200 1042.4300 655.4000Q1038.4400 650.7800 1030.8800 650.7800L1030.8800 650.7800Q1023.6000 650.7800 1019.2600 655.4000Q1014.9200 660.0200 1014.9200 668.1400L1014.9200 668.1400L1014.9200 706.6400Q1014.9200 708.0400 1013.9400 709.0200Q1012.9600 710 1011.5600 710L1011.5600 710ZM1114.7400 711.4000L1114.7400 711.4000Q1104.6600 711.4000 1097.0300 707.6200Q1089.4000 703.8400 1085.1300 696.6300Q1080.8600 689.4200 1080.4400 679.2000L1080.4400 679.2000Q1080.3000 677.1000 1080.3000 673.6700Q1080.3000 670.2400 1080.4400 668L1080.4400 668Q1080.8600 657.7800 1085.1300 650.5700Q1089.4000 643.3600 1097.0300 639.5800Q1104.6600 635.8000 1114.7400 635.8000L1114.7400 635.8000Q1123.7000 635.8000 1130.0000 638.2500Q1136.3000 640.7000 1140.3600 644.5500Q1144.4200 648.4000 1146.4500 652.5300Q1148.4800 656.6600 1148.6200 660.0200L1148.6200 660.0200Q1148.7600 661.5600 1147.7100 662.4700Q1146.6600 663.3800 1145.2600 663.3800L1145.2600 663.3800L1132.9400 663.3800Q1131.5400 663.3800 1130.7700 662.6800Q1130.0000 661.9800 1129.3000 660.5800L1129.3000 660.5800Q1127.2000 654.9800 1123.7700 652.6700Q1120.3400 650.3600 1115.0200 650.3600L1115.0200 650.3600Q1108.0200 650.3600 1103.8900 654.7700Q1099.7600 659.1800 1099.4800 668.7000L1099.4800 668.7000Q1099.2000 674.0200 1099.4800 678.5000L1099.4800 678.5000Q1099.7600 688.1600 1103.8900 692.5000Q1108.0200 696.8400 1115.0200 696.8400L1115.0200 696.8400Q1120.4800 696.8400 1123.8400 694.5300Q1127.2000 692.2200 1129.3000 686.6200L1129.3000 686.6200Q1130.0000 685.2200 1130.7700 684.5200Q1131.5400 683.8200 1132.9400 683.8200L1132.9400 683.8200L1145.2600 683.8200Q1146.6600 683.8200 1147.7100 684.7300Q1148.7600 685.6400 1148.6200 687.1800L1148.6200 687.1800Q1148.4800 689.7000 1147.2900 692.8500Q1146.1000 696 1143.5100 699.2900Q1140.9200 702.5800 1137.0000 705.3100Q1133.0800 708.0400 1127.5500 709.7200Q1122.0200 711.4000 1114.7400 711.4000ZM1195.3800 711.4000L1195.3800 711.4000Q1184.1800 711.4000 1176.5500 707.4800Q1168.9200 703.5600 1164.9300 696.4200Q1160.9400 689.2800 1160.3800 679.7600L1160.3800 679.7600Q1160.2400 677.2400 1160.2400 673.6000Q1160.2400 669.9600 1160.3800 667.4400L1160.3800 667.4400Q1160.9400 657.7800 1165.0700 650.7100Q1169.2000 643.6400 1176.8300 639.7200Q1184.4600 635.8000 1195.3800 635.8000L1195.3800 635.8000Q1206.3000 635.8000 1213.9300 639.7200Q1221.5600 643.6400 1225.6900 650.7100Q1229.8200 657.7800 1230.3800 667.4400L1230.3800 667.4400Q1230.5200 669.9600 1230.5200 673.6000Q1230.5200 677.2400 1230.3800 679.7600L1230.3800 679.7600Q1229.8200 689.2800 1225.8300 696.4200Q1221.8400 703.5600 1214.2100 707.4800Q1206.5800 711.4000 1195.3800 711.4000ZM1195.3800 697.5400L1195.3800 697.5400Q1202.8000 697.5400 1206.8600 692.8500Q1210.9200 688.1600 1211.3400 679.0600L1211.3400 679.0600Q1211.4800 676.9600 1211.4800 673.6000Q1211.4800 670.2400 1211.3400 668.1400L1211.3400 668.1400Q1210.9200 659.0400 1206.8600 654.3500Q1202.8000 649.6600 1195.3800 649.6600L1195.3800 649.6600Q1187.9600 649.6600 1183.9000 654.3500Q1179.8400 659.0400 1179.4200 668.1400L1179.4200 668.1400Q1179.2800 670.2400 1179.2800 673.6000Q1179.2800 676.9600 1179.4200 679.0600L1179.4200 679.0600Q1179.8400 688.1600 1183.9000 692.8500Q1187.9600 697.5400 1195.3800 697.5400ZM1305.1400 711.4000L1305.1400 711.4000Q1297.8600 711.4000 1292.3300 708.9500Q1286.8000 706.5000 1283.1600 702.0200Q1279.5200 697.5400 1277.5600 691.4500Q1275.6000 685.3600 1275.3200 678.0800L1275.3200 678.0800Q1275.1800 675.5600 1275.1800 673.5300Q1275.1800 671.5000 1275.3200 668.9800L1275.3200 668.9800Q1275.6000 661.9800 1277.4900 655.9600Q1279.3800 649.9400 1283.0900 645.3900Q1286.8000 640.8400 1292.3300 638.3200Q1297.8600 635.8000 1305.1400 635.8000L1305.1400 635.8000Q1312.7000 635.8000 1317.9500 638.3900Q1323.2000 640.9800 1326.7000 645.0400L1326.7000 645.0400L1326.7000 613.9600Q1326.7000 612.5600 1327.6100 611.5800Q1328.5200 610.6000 1330.0600 610.6000L1330.0600 610.6000L1341.9600 610.6000Q1343.3600 610.6000 1344.3400 611.5800Q1345.3200 612.5600 1345.3200 613.9600L1345.3200 613.9600L1345.3200 706.6400Q1345.3200 708.0400 1344.3400 709.0200Q1343.3600 710 1341.9600 710L1341.9600 710L1330.9000 710Q1329.3600 710 1328.4500 709.0200Q1327.5400 708.0400 1327.5400 706.6400L1327.5400 706.6400L1327.5400 701.4600Q1324.0400 705.8000 1318.6500 708.6000Q1313.2600 711.4000 1305.1400 711.4000ZM1310.3200 696.4200L1310.3200 696.4200Q1316.2000 696.4200 1319.7000 693.7600Q1323.2000 691.1000 1324.8800 686.9700Q1326.5600 682.8400 1326.7000 678.5000L1326.7000 678.5000Q1326.8400 675.9800 1326.8400 673.1100Q1326.8400 670.2400 1326.7000 667.7200L1326.7000 667.7200Q1326.5600 663.5200 1324.7400 659.6700Q1322.9200 655.8200 1319.4200 653.3000Q1315.9200 650.7800 1310.3200 650.7800L1310.3200 650.7800Q1304.4400 650.7800 1301.0100 653.3700Q1297.5800 655.9600 1296.0400 660.1600Q1294.5000 664.3600 1294.2200 669.4000L1294.2200 669.4000Q1294.0800 673.6000 1294.2200 677.8000L1294.2200 677.8000Q1294.5000 682.8400 1296.0400 687.0400Q1297.5800 691.2400 1301.0100 693.8300Q1304.4400 696.4200 1310.3200 696.4200ZM1395.3000 711.4000L1395.3000 711.4000Q1379.7600 711.4000 1370.6600 702.4400Q1361.5600 693.4800 1360.8600 676.9600L1360.8600 676.9600Q1360.7200 675.5600 1360.7200 673.3900Q1360.7200 671.2200 1360.8600 669.9600L1360.8600 669.9600Q1361.4200 659.3200 1365.6900 651.6900Q1369.9600 644.0600 1377.5200 639.9300Q1385.0800 635.8000 1395.3000 635.8000L1395.3000 635.8000Q1406.6400 635.8000 1414.3400 640.4900Q1422.0400 645.1800 1425.9600 653.5100Q1429.8800 661.8400 1429.8800 672.7600L1429.8800 672.7600L1429.8800 675.7000Q1429.8800 677.1000 1428.9000 678.0800Q1427.9200 679.0600 1426.3800 679.0600L1426.3800 679.0600L1379.9000 679.0600Q1379.9000 679.0600 1379.9000 679.4800Q1379.9000 679.9000 1379.9000 680.1800L1379.9000 680.1800Q1380.0400 685.0800 1381.7900 689.2100Q1383.5400 693.3400 1386.9700 695.8600Q1390.4000 698.3800 1395.1600 698.3800L1395.1600 698.3800Q1399.0800 698.3800 1401.7400 697.1900Q1404.4000 696 1406.0800 694.4600Q1407.7600 692.9200 1408.4600 691.9400L1408.4600 691.9400Q1409.7200 690.2600 1410.4900 689.9100Q1411.2600 689.5600 1412.8000 689.5600L1412.8000 689.5600L1424.8400 689.5600Q1426.2400 689.5600 1427.1500 690.4000Q1428.0600 691.2400 1427.9200 692.5000L1427.9200 692.5000Q1427.7800 694.7400 1425.6100 697.9600Q1423.4400 701.1800 1419.3800 704.2600Q1415.3200 707.3400 1409.2300 709.3700Q1403.1400 711.4000 1395.3000 711.4000ZM1379.9000 666.8800L1379.9000 667.3000L1410.8400 667.3000L1410.8400 666.8800Q1410.8400 661.4200 1409.0200 657.2900Q1407.2000 653.1600 1403.7000 650.8500Q1400.2000 648.5400 1395.3000 648.5400L1395.3000 648.5400Q1390.4000 648.5400 1386.9000 650.8500Q1383.4000 653.1600 1381.6500 657.2900Q1379.9000 661.4200 1379.9000 666.8800L1379.9000 666.8800ZM186.2600 851.4000L186.2600 851.4000Q178.9800 851.4000 173.4500 848.9500Q167.9200 846.5000 164.2800 842.0200Q160.6400 837.5400 158.6800 831.4500Q156.7200 825.3600 156.4400 818.0800L156.4400 818.0800Q156.3000 815.5600 156.3000 813.5300Q156.3000 811.5000 156.4400 808.9800L156.4400 808.9800Q156.7200 801.9800 158.6100 795.9600Q160.5000 789.9400 164.2100 785.3900Q167.9200 780.8400 173.4500 778.3200Q178.9800 775.8000 186.2600 775.8000L186.2600 775.8000Q193.8200 775.8000 199.0700 778.3900Q204.3200 780.9800 207.8200 785.0400L207.8200 785.0400L207.8200 753.9600Q207.8200 752.5600 208.7300 751.5800Q209.6400 750.6000 211.1800 750.6000L211.1800 750.6000L223.0800 750.6000Q224.4800 750.6000 225.4600 751.5800Q226.4400 752.5600 226.4400 753.9600L226.4400 753.9600L226.4400 846.6400Q226.4400 848.0400 225.4600 849.0200Q224.4800 850 223.0800 850L223.0800 850L212.0200 850Q210.4800 850 209.5700 849.0200Q208.6600 848.0400 208.6600 846.6400L208.6600 846.6400L208.6600 841.4600Q205.1600 845.8000 199.7700 848.6000Q194.3800 851.4000 186.2600 851.4000ZM191.4400 836.4200L191.4400 836.4200Q197.3200 836.4200 200.8200 833.7600Q204.3200 831.1000 206 826.9700Q207.6800 822.8400 207.8200 818.5000L207.8200 818.5000Q207.9600 815.9800 207.9600 813.1100Q207.9600 810.2400 207.8200 807.7200L207.8200 807.7200Q207.6800 803.5200 205.8600 799.6700Q204.0400 795.8200 200.5400 793.3000Q197.0400 790.7800 191.4400 790.7800L191.4400 790.7800Q185.5600 790.7800 182.1300 793.3700Q178.7000 795.9600 177.1600 800.1600Q175.6200 804.3600 175.3400 809.4000L175.3400 809.4000Q175.2000 813.6000 175.3400 817.8000L175.3400 817.8000Q175.6200 822.8400 177.1600 827.0400Q178.7000 831.2400 182.1300 833.8300Q185.5600 836.4200 191.4400 836.4200ZM266.2000 851.4000L266.2000 851.4000Q258.9200 851.4000 253.0400 848.5300Q247.1600 845.6600 243.7300 840.8300Q240.3000 836 240.3000 829.9800L240.3000 829.9800Q240.3000 820.1800 248.2800 814.3700Q256.2600 808.5600 269.1400 806.6000L269.1400 806.6000L288.3200 803.8000L288.3200 800.8600Q288.3200 794.9800 285.3800 791.7600Q282.4400 788.5400 275.3000 788.5400L275.3000 788.5400Q270.2600 788.5400 267.1100 790.5700Q263.9600 792.6000 262.4200 795.9600L262.4200 795.9600Q261.3000 797.7800 259.2000 797.7800L259.2000 797.7800L248.1400 797.7800Q246.6000 797.7800 245.8300 796.9400Q245.0600 796.1000 245.0600 794.7000L245.0600 794.7000Q245.2000 792.4600 246.9500 789.2400Q248.7000 786.0200 252.2700 783.0100Q255.8400 780 261.5800 777.9000Q267.3200 775.8000 275.4400 775.8000L275.4400 775.8000Q284.2600 775.8000 290.3500 777.9700Q296.4400 780.1400 300.0800 783.7800Q303.7200 787.4200 305.4000 792.3200Q307.0800 797.2200 307.0800 802.6800L307.0800 802.6800L307.0800 846.6400Q307.0800 848.0400 306.1000 849.0200Q305.1200 850 303.7200 850L303.7200 850L292.3800 850Q290.8400 850 289.9300 849.0200Q289.0200 848.0400 289.0200 846.6400L289.0200 846.6400L289.0200 841.1800Q287.2000 843.7000 284.1200 846.0800Q281.0400 848.4600 276.6300 849.9300Q272.2200 851.4000 266.2000 851.4000ZM270.9600 838.1000L270.9600 838.1000Q275.8600 838.1000 279.8500 836Q283.8400 833.9000 286.1500 829.4900Q288.4600 825.0800 288.4600 818.3600L288.4600 818.3600L288.4600 815.4200L274.4600 817.6600Q266.2000 818.9200 262.1400 821.7200Q258.0800 824.5200 258.0800 828.5800L258.0800 828.5800Q258.0800 831.6600 259.9700 833.8300Q261.8600 836 264.8000 837.0500Q267.7400 838.1000 270.9600 838.1000ZM352.0200 851.4000L352.0200 851.4000Q344.7400 851.4000 339.2100 848.9500Q333.6800 846.5000 330.0400 842.0200Q326.4000 837.5400 324.4400 831.4500Q322.4800 825.3600 322.2000 818.0800L322.2000 818.0800Q322.0600 815.5600 322.0600 813.5300Q322.0600 811.5000 322.2000 808.9800L322.2000 808.9800Q322.4800 801.9800 324.3700 795.9600Q326.2600 789.9400 329.9700 785.3900Q333.6800 780.8400 339.2100 778.3200Q344.7400 775.8000 352.0200 775.8000L352.0200 775.8000Q359.5800 775.8000 364.8300 778.3900Q370.0800 780.9800 373.5800 785.0400L373.5800 785.0400L373.5800 753.9600Q373.5800 752.5600 374.4900 751.5800Q375.4000 750.6000 376.9400 750.6000L376.9400 750.6000L388.8400 750.6000Q390.2400 750.6000 391.2200 751.5800Q392.2000 752.5600 392.2000 753.9600L392.2000 753.9600L392.2000 846.6400Q392.2000 848.0400 391.2200 849.0200Q390.2400 850 388.8400 850L388.8400 850L377.7800 850Q376.2400 850 375.3300 849.0200Q374.4200 848.0400 374.4200 846.6400L374.4200 846.6400L374.4200 841.4600Q370.9200 845.8000 365.5300 848.6000Q360.1400 851.4000 352.0200 851.4000ZM357.2000 836.4200L357.2000 836.4200Q363.0800 836.4200 366.5800 833.7600Q370.0800 831.1000 371.7600 826.9700Q373.4400 822.8400 373.5800 818.5000L373.5800 818.5000Q373.7200 815.9800 373.7200 813.1100Q373.7200 810.2400 373.5800 807.7200L373.5800 807.7200Q373.4400 803.5200 371.6200 799.6700Q369.8000 795.8200 366.3000 793.3000Q362.8000 790.7800 357.2000 790.7800L357.2000 790.7800Q351.3200 790.7800 347.8900 793.3700Q344.4600 795.9600 342.9200 800.1600Q341.3800 804.3600 341.1000 809.4000L341.1000 809.4000Q340.9600 813.6000 341.1000 817.8000L341.1000 817.8000Q341.3800 822.8400 342.9200 827.0400Q344.4600 831.2400 347.8900 833.8300Q351.3200 836.4200 357.2000 836.4200ZM443.0200 851.4000L443.0200 851.4000Q431.8200 851.4000 424.1900 847.4800Q416.5600 843.5600 412.5700 836.4200Q408.5800 829.2800 408.0200 819.7600L408.0200 819.7600Q407.8800 817.2400 407.8800 813.6000Q407.8800 809.9600 408.0200 807.4400L408.0200 807.4400Q408.5800 797.7800 412.7100 790.7100Q416.8400 783.6400 424.4700 779.7200Q432.1000 775.8000 443.0200 775.8000L443.0200 775.8000Q453.9400 775.8000 461.5700 779.7200Q469.2000 783.6400 473.3300 790.7100Q477.4600 797.7800 478.0200 807.4400L478.0200 807.4400Q478.1600 809.9600 478.1600 813.6000Q478.1600 817.2400 478.0200 819.7600L478.0200 819.7600Q477.4600 829.2800 473.4700 836.4200Q469.4800 843.5600 461.8500 847.4800Q454.2200 851.4000 443.0200 851.4000ZM443.0200 837.5400L443.0200 837.5400Q450.4400 837.5400 454.5000 832.8500Q458.5600 828.1600 458.9800 819.0600L458.9800 819.0600Q459.1200 816.9600 459.1200 813.6000Q459.1200 810.2400 458.9800 808.1400L458.9800 808.1400Q458.5600 799.0400 454.5000 794.3500Q450.4400 789.6600 443.0200 789.6600L443.0200 789.6600Q435.6000 789.6600 431.5400 794.3500Q427.4800 799.0400 427.0600 808.1400L427.0600 808.1400Q426.9200 810.2400 426.9200 813.6000Q426.9200 816.9600 427.0600 819.0600L427.0600 819.0600Q427.4800 828.1600 431.5400 832.8500Q435.6000 837.5400 443.0200 837.5400ZM521.2800 851.4000L521.2800 851.4000Q512.8800 851.4000 506.9300 849.4400Q500.9800 847.4800 497.2000 844.5400Q493.4200 841.6000 491.6000 838.6600Q489.7800 835.7200 489.6400 833.7600L489.6400 833.7600Q489.5000 832.2200 490.5500 831.3100Q491.6000 830.4000 492.8600 830.4000L492.8600 830.4000L503.9200 830.4000Q504.4800 830.4000 504.9000 830.5400Q505.3200 830.6800 506.0200 831.3800L506.0200 831.3800Q507.8400 832.9200 509.8700 834.6000Q511.9000 836.2800 514.7000 837.4700Q517.5000 838.6600 521.7000 838.6600L521.7000 838.6600Q527.1600 838.6600 530.8700 836.4900Q534.5800 834.3200 534.5800 830.2600L534.5800 830.2600Q534.5800 827.3200 532.9700 825.5000Q531.3600 823.6800 527.0200 822.2100Q522.6800 820.7400 514.7000 819.0600L514.7000 819.0600Q506.8600 817.2400 501.6800 814.4400Q496.5000 811.6400 493.9800 807.4400Q491.4600 803.2400 491.4600 797.6400L491.4600 797.6400Q491.4600 792.1800 494.7500 787.2100Q498.0400 782.2400 504.5500 779.0200Q511.0600 775.8000 520.7200 775.8000L520.7200 775.8000Q528.2800 775.8000 533.8800 777.6900Q539.4800 779.5800 543.1900 782.3800Q546.9000 785.1800 548.8600 788.0500Q550.8200 790.9200 550.9600 793.0200L550.9600 793.0200Q551.1000 794.5600 550.1200 795.4700Q549.1400 796.3800 547.8800 796.3800L547.8800 796.3800L537.5200 796.3800Q536.8200 796.3800 536.2600 796.1000Q535.7000 795.8200 535.1400 795.4000L535.1400 795.4000Q533.6000 794 531.7800 792.3900Q529.9600 790.7800 527.3700 789.6600Q524.7800 788.5400 520.5800 788.5400L520.5800 788.5400Q515.2600 788.5400 512.4600 790.8500Q509.6600 793.1600 509.6600 796.6600L509.6600 796.6600Q509.6600 799.0400 510.9900 800.7900Q512.3200 802.5400 516.3800 804.0800Q520.4400 805.6200 528.7000 807.3000L528.7000 807.3000Q538.0800 808.9800 543.6100 812.2700Q549.1400 815.5600 551.4500 819.8300Q553.7600 824.1000 553.7600 829.2800L553.7600 829.2800Q553.7600 835.5800 550.0500 840.6200Q546.3400 845.6600 539.1300 848.5300Q531.9200 851.4000 521.2800 851.4000Z" id="title"/></g></svg>