<svg xmlns="http://www.w3.org/2000/svg" version="1.1" xmlns:xlink="http://www.w3.org/1999/xlink" xmlns:svgjs="http://svgjs.dev/svgjs" viewBox="0 0 1920 1080" id="926dcd86-b85c-477c-86c8-b1626dd65ae4"><g><rect width="1920" height="1080" fill="#8ee3ef"/></g><g fill="#f0c975"><path d="M2118.71 322.496C1962.88 381.696 1840.11 286.062 1731.68 201.315C1619.52 113.904 1545.13 63.1995 1455.92 97.0926C1366.11 131.212 1344.15 218.52 1318.91 358.127C1294.11 493.487 1265.8 646.514 1109.97 705.714C954.144 764.914 831.375 669.28 722.951 584.533C610.793 497.122 536.401 446.418 447.185 480.311C357.375 514.43 335.414 601.738 310.18 741.346C285.375 876.706 257.072 1029.73 101.242 1088.93C-54.5876 1148.13 -177.357 1052.5 -285.78 967.751C-397.344 880.114 -471.736 829.41 -561.547 863.529L-602 757.045C-446.17 697.845 -323.401 793.479 -214.977 878.225C-102.819 965.637 -28.4265 1016.34 60.7891 982.448C150.6 948.329 172.56 861.02 197.794 721.413C222.599 586.053 250.307 433.253 406.732 373.827C562.562 314.627 685.331 410.261 793.754 495.007C905.913 582.419 980.305 633.123 1069.52 599.23C1159.33 565.111 1181.29 477.802 1206.53 338.195C1231.33 202.835 1259.04 50.0347 1415.46 -9.39121C1571.89 -68.8172 1694.06 27.043 1802.49 111.789C1914.64 199.201 1989.04 249.905 2078.25 216.012L2118.71 322.496Z"/></g><g fill="#ffffff" opacity="0.4"><path d="M960.041 79C960.041 79 971.953 194.974 981.699 214.484C992.529 237.245 1064 247 1064 247C1064 247 994.694 258.923 983.865 280.6C973.036 301.194 958.959 415 958.959 415C958.959 415 945.964 296.858 935.135 275.181C925.389 255.671 855 245.916 855 245.916C855 245.916 925.389 233.994 936.218 212.316C947.047 192.806 960.041 79 960.041 79Z"/><path d="M561.041 687C561.041 687 572.953 802.974 582.699 822.484C593.529 845.245 665 855 665 855C665 855 595.694 866.923 584.865 888.6C574.036 909.194 559.959 1023 559.959 1023C559.959 1023 546.964 904.858 536.135 883.181C526.389 863.671 456 853.916 456 853.916C456 853.916 526.389 841.994 537.218 820.316C548.047 800.806 561.041 687 561.041 687Z"/></g><g><path d="M178.635 139.281L184.422 144.246V166.626H215.704L219.958 172.147L215.69 177.397H184.422V198.795L178.635 203.747L173 198.795V144.232L178.635 139.281ZM195.554 195.68H219.406L223.397 200.915L219.143 206.45H195.554L191.7 201.342L195.554 195.68ZM196.382 138H219.129L223.383 143.52L219.129 148.77H196.659L192.115 143.677L196.382 138ZM323.155 148.628L328.251 154.291L323.155 159.968H246.13L241.172 154.291L246.13 148.628H323.155ZM237.043 172.147L241.849 167.893L246.669 172.147V178.393C246.669 188.879 249.417 197.515 261.668 197.515H264.14C275.147 197.515 281.197 189.86 281.197 177.952V172.005L285.879 167.75L290.699 171.862V178.379C290.699 189.007 293.723 196.946 305.56 196.946H307.618C319.178 196.946 321.235 187.869 321.373 177.952V171.578L326.056 167.608L331 171.72V178.094C330.862 191.838 327.285 207.574 308.032 207.574H305.974C294.552 207.574 288.365 202.324 285.892 195.808C283.006 202.466 275.299 208.286 264.844 208.286H262.358C242.553 208.286 237.194 195.964 237.056 178.663V172.147H237.043ZM276.391 274.744L273.642 267.089L280.796 264.969L305.974 276.721V252.491L311.07 248.095L316.291 252.491V281.829L325.641 286.226L328.251 293.311L320.959 296L276.391 274.744ZM321.235 223.011L328.113 226.27L325.917 233.497L264.002 263.119L256.571 260.146L259.596 252.776L321.235 223.011ZM231.905 263.404L237.954 268.512C237.402 286.51 222.403 296 204.669 296H202.874C194.062 296 183.759 292.6 177.157 286.083L177.834 278.855L184.298 278.002C189.118 282.256 195.858 285.229 202.183 285.229H204.117C216.091 285.229 225.303 280.136 226.27 268.085L231.905 263.404ZM226.256 251.638C225.704 239.16 216.629 234.209 204.103 234.209H202.169C194.739 234.209 189.104 237.182 184.284 241.436L177.834 240.583L177.143 233.355C183.745 226.696 192.957 223.58 202.597 223.58H204.517C222.403 223.58 237.402 232.942 237.94 251.211L231.891 256.176L226.256 251.638Z" fill="#000000"/></g><g fill="#000000" id="info-group"><path d="M167.0800 570L154.9000 570Q153.7800 570 152.8700 569.1600Q151.9600 568.3200 151.9600 567.0600L151.9600 567.0600Q151.9600 566.5000 152.2400 565.8000L152.2400 565.8000L185.9800 475.5000Q186.4000 474.1000 187.5900 473.0500Q188.7800 472 190.8800 472L190.8800 472L206.1400 472Q208.2400 472 209.3600 473.0500Q210.4800 474.1000 211.0400 475.5000L211.0400 475.5000L244.7800 565.8000Q244.9200 566.5000 244.9200 567.0600L244.9200 567.0600Q244.9200 568.3200 244.0800 569.1600Q243.2400 570 242.1200 570L242.1200 570L229.9400 570Q227.9800 570 227.0700 569.0900Q226.1600 568.1800 225.8800 567.3400L225.8800 567.3400L219.3000 550.2600L177.7200 550.2600L171.1400 567.3400Q170.8600 568.1800 169.9500 569.0900Q169.0400 570 167.0800 570L167.0800 570ZM198.4400 490.9000L182.6200 534.1600L214.4000 534.1600L198.4400 490.9000ZM283.2800 571.4000L283.2800 571.4000Q274.7400 571.4000 268.5100 567.5500Q262.2800 563.7000 258.9200 556.6300Q255.5600 549.5600 255.5600 539.9000L255.5600 539.9000L255.5600 500.5600Q255.5600 499.1600 256.5400 498.1800Q257.5200 497.2000 258.9200 497.2000L258.9200 497.2000L271.2400 497.2000Q272.7800 497.2000 273.6900 498.1800Q274.6000 499.1600 274.6000 500.5600L274.6000 500.5600L274.6000 539.0600Q274.6000 556.4200 289.8600 556.4200L289.8600 556.4200Q297.1400 556.4200 301.4100 551.8000Q305.6800 547.1800 305.6800 539.0600L305.6800 539.0600L305.6800 500.5600Q305.6800 499.1600 306.6600 498.1800Q307.6400 497.2000 309.0400 497.2000L309.0400 497.2000L321.3600 497.2000Q322.7600 497.2000 323.7400 498.1800Q324.7200 499.1600 324.7200 500.5600L324.7200 500.5600L324.7200 566.6400Q324.7200 568.0400 323.7400 569.0200Q322.7600 570 321.3600 570L321.3600 570L310.0200 570Q308.4800 570 307.5700 569.0200Q306.6600 568.0400 306.6600 566.6400L306.6600 566.6400L306.6600 560.9000Q302.8800 565.8000 297.2800 568.6000Q291.6800 571.4000 283.2800 571.4000ZM358.3200 570L346.7000 570Q345.3000 570 344.3200 569.0200Q343.3400 568.0400 343.3400 566.6400L343.3400 566.6400L343.3400 473.9600Q343.3400 472.5600 344.3200 471.5800Q345.3000 470.6000 346.7000 470.6000L346.7000 470.6000L358.3200 470.6000Q359.7200 470.6000 360.7000 471.5800Q361.6800 472.5600 361.6800 473.9600L361.6800 473.9600L361.6800 566.6400Q361.6800 568.0400 360.7000 569.0200Q359.7200 570 358.3200 570L358.3200 570ZM401.4400 571.4000L401.4400 571.4000Q394.1600 571.4000 388.2800 568.5300Q382.4000 565.6600 378.9700 560.8300Q375.5400 556 375.5400 549.9800L375.5400 549.9800Q375.5400 540.1800 383.5200 534.3700Q391.5000 528.5600 404.3800 526.6000L404.3800 526.6000L423.5600 523.8000L423.5600 520.8600Q423.5600 514.9800 420.6200 511.7600Q417.6800 508.5400 410.5400 508.5400L410.5400 508.5400Q405.5000 508.5400 402.3500 510.5700Q399.2000 512.6000 397.6600 515.9600L397.6600 515.9600Q396.5400 517.7800 394.4400 517.7800L394.4400 517.7800L383.3800 517.7800Q381.8400 517.7800 381.0700 516.9400Q380.3000 516.1000 380.3000 514.7000L380.3000 514.7000Q380.4400 512.4600 382.1900 509.2400Q383.9400 506.0200 387.5100 503.0100Q391.0800 500 396.8200 497.9000Q402.5600 495.8000 410.6800 495.8000L410.6800 495.8000Q419.5000 495.8000 425.5900 497.9700Q431.6800 500.1400 435.3200 503.7800Q438.9600 507.4200 440.6400 512.3200Q442.3200 517.2200 442.3200 522.6800L442.3200 522.6800L442.3200 566.6400Q442.3200 568.0400 441.3400 569.0200Q440.3600 570 438.9600 570L438.9600 570L427.6200 570Q426.0800 570 425.1700 569.0200Q424.2600 568.0400 424.2600 566.6400L424.2600 566.6400L424.2600 561.1800Q422.4400 563.7000 419.3600 566.0800Q416.2800 568.4600 411.8700 569.9300Q407.4600 571.4000 401.4400 571.4000ZM406.2000 558.1000L406.2000 558.1000Q411.1000 558.1000 415.0900 556Q419.0800 553.9000 421.3900 549.4900Q423.7000 545.0800 423.7000 538.3600L423.7000 538.3600L423.7000 535.4200L409.7000 537.6600Q401.4400 538.9200 397.3800 541.7200Q393.3200 544.5200 393.3200 548.5800L393.3200 548.5800Q393.3200 551.6600 395.2100 553.8300Q397.1000 556 400.0400 557.0500Q402.9800 558.1000 406.2000 558.1000ZM525.9000 571.5400L525.9000 571.5400Q513.8600 571.5400 505.6000 567.5500Q497.3400 563.5600 493.0700 557.1200Q488.8000 550.6800 488.5200 543.4000L488.5200 543.4000Q488.3800 542.1400 489.2900 541.3700Q490.2000 540.6000 491.4600 540.6000L491.4600 540.6000L504.4800 540.6000Q506.0200 540.6000 507.0700 541.2300Q508.1200 541.8600 508.6800 543.4000L508.6800 543.4000Q510.0800 547.6000 512.6700 550.2600Q515.2600 552.9200 518.6900 554.1800Q522.1200 555.4400 525.9000 555.4400L525.9000 555.4400Q530.9400 555.4400 535.0700 553.4100Q539.2000 551.3800 541.7200 547.3200Q544.2400 543.2600 544.2400 537.3800L544.2400 537.3800Q544.2400 532.2000 541.8600 528.4200Q539.4800 524.6400 535.3500 522.4700Q531.2200 520.3000 525.9000 520.3000L525.9000 520.3000Q521.9800 520.3000 519.4600 521.2800Q516.9400 522.2600 515.1900 523.5200Q513.4400 524.7800 512.1100 525.7600Q510.7800 526.7400 509.1000 526.7400L509.1000 526.7400L496.2200 526.7400Q494.9600 526.7400 494.0500 525.8300Q493.1400 524.9200 493.1400 523.6600L493.1400 523.6600L498.0400 475.7800Q498.1800 473.9600 499.3000 472.9800Q500.4200 472 501.9600 472L501.9600 472L554.6000 472Q556.0000 472 556.9800 472.9800Q557.9600 473.9600 557.9600 475.3600L557.9600 475.3600L557.9600 484.7400Q557.9600 486.1400 556.9800 487.1200Q556.0000 488.1000 554.6000 488.1000L554.6000 488.1000L514.1400 488.1000L511.9000 510.9200Q514.4200 509.2400 518.6200 507.7000Q522.8200 506.1600 530.2400 506.1600L530.2400 506.1600Q536.9600 506.1600 543.0500 508.3300Q549.1400 510.5000 553.9000 514.6300Q558.6600 518.7600 561.3900 524.5700Q564.1200 530.3800 564.1200 537.8000L564.1200 537.8000Q564.1200 548.0200 559.3600 555.5800Q554.6000 563.1400 546.0600 567.3400Q537.5200 571.5400 525.9000 571.5400ZM595.9000 521L582.0400 521Q580.6400 521 579.6600 520.0200Q578.6800 519.0400 578.6800 517.6400L578.6800 517.6400L578.6800 504.3400Q578.6800 502.8000 579.6600 501.8200Q580.6400 500.8400 582.0400 500.8400L582.0400 500.8400L595.9000 500.8400Q597.4400 500.8400 598.4200 501.8200Q599.4000 502.8000 599.4000 504.3400L599.4000 504.3400L599.4000 517.6400Q599.4000 519.0400 598.4200 520.0200Q597.4400 521 595.9000 521L595.9000 521ZM595.9000 570L582.0400 570Q580.6400 570 579.6600 569.0200Q578.6800 568.0400 578.6800 566.6400L578.6800 566.6400L578.6800 553.3400Q578.6800 551.8000 579.6600 550.8200Q580.6400 549.8400 582.0400 549.8400L582.0400 549.8400L595.9000 549.8400Q597.4400 549.8400 598.4200 550.8200Q599.4000 551.8000 599.4000 553.3400L599.4000 553.3400L599.4000 566.6400Q599.4000 568.0400 598.4200 569.0200Q597.4400 570 595.9000 570L595.9000 570ZM689.0000 571.4000L689.0000 571.4000Q675.9800 571.4000 666.9500 566.8500Q657.9200 562.3000 653.1600 553.8300Q648.4000 545.3600 647.8400 533.4600L647.8400 533.4600Q647.7000 527.7200 647.7000 521.1400Q647.7000 514.5600 647.8400 508.5400L647.8400 508.5400Q648.4000 496.7800 653.2300 488.2400Q658.0600 479.7000 667.0900 475.1500Q676.1200 470.6000 689.0000 470.6000L689.0000 470.6000Q698.5200 470.6000 706.0800 473.1200Q713.6400 475.6400 718.9600 480.0500Q724.2800 484.4600 727.2200 490.3400Q730.1600 496.2200 730.3000 503.0800L730.3000 503.0800Q730.4400 504.3400 729.5300 505.1800Q728.6200 506.0200 727.3600 506.0200L727.3600 506.0200L714.0600 506.0200Q712.5200 506.0200 711.5400 505.2500Q710.5600 504.4800 710.1400 502.6600L710.1400 502.6600Q707.9000 493.4200 702.4400 490.0600Q696.9800 486.7000 688.8600 486.7000L688.8600 486.7000Q679.4800 486.7000 673.8800 491.9500Q668.2800 497.2000 667.8600 509.2400L667.8600 509.2400Q667.4400 520.7200 667.8600 532.7600L667.8600 532.7600Q668.2800 544.8000 673.8800 550.0500Q679.4800 555.3000 688.8600 555.3000L688.8600 555.3000Q696.9800 555.3000 702.5100 551.8700Q708.0400 548.4400 710.1400 539.3400L710.1400 539.3400Q710.5600 537.3800 711.5400 536.6800Q712.5200 535.9800 714.0600 535.9800L714.0600 535.9800L727.3600 535.9800Q728.6200 535.9800 729.5300 536.8200Q730.4400 537.6600 730.3000 538.9200L730.3000 538.9200Q730.1600 545.7800 727.2200 551.6600Q724.2800 557.5400 718.9600 561.9500Q713.6400 566.3600 706.0800 568.8800Q698.5200 571.4000 689.0000 571.4000ZM777.4800 571.4000L777.4800 571.4000Q766.2800 571.4000 758.6500 567.4800Q751.0200 563.5600 747.0300 556.4200Q743.0400 549.2800 742.4800 539.7600L742.4800 539.7600Q742.3400 537.2400 742.3400 533.6000Q742.3400 529.9600 742.4800 527.4400L742.4800 527.4400Q743.0400 517.7800 747.1700 510.7100Q751.3000 503.6400 758.9300 499.7200Q766.5600 495.8000 777.4800 495.8000L777.4800 495.8000Q788.4000 495.8000 796.0300 499.7200Q803.6600 503.6400 807.7900 510.7100Q811.9200 517.7800 812.4800 527.4400L812.4800 527.4400Q812.6200 529.9600 812.6200 533.6000Q812.6200 537.2400 812.4800 539.7600L812.4800 539.7600Q811.9200 549.2800 807.9300 556.4200Q803.9400 563.5600 796.3100 567.4800Q788.6800 571.4000 777.4800 571.4000ZM777.4800 557.5400L777.4800 557.5400Q784.9000 557.5400 788.9600 552.8500Q793.0200 548.1600 793.4400 539.0600L793.4400 539.0600Q793.5800 536.9600 793.5800 533.6000Q793.5800 530.2400 793.4400 528.1400L793.4400 528.1400Q793.0200 519.0400 788.9600 514.3500Q784.9000 509.6600 777.4800 509.6600L777.4800 509.6600Q770.0600 509.6600 766.0000 514.3500Q761.9400 519.0400 761.5200 528.1400L761.5200 528.1400Q761.3800 530.2400 761.3800 533.6000Q761.3800 536.9600 761.5200 539.0600L761.5200 539.0600Q761.9400 548.1600 766.0000 552.8500Q770.0600 557.5400 777.4800 557.5400ZM843.2800 570L831.5200 570Q830.1200 570 829.1400 569.0200Q828.1600 568.0400 828.1600 566.6400L828.1600 566.6400L828.1600 500.5600Q828.1600 499.1600 829.1400 498.1800Q830.1200 497.2000 831.5200 497.2000L831.5200 497.2000L842.4400 497.2000Q843.8400 497.2000 844.8200 498.1800Q845.8000 499.1600 845.8000 500.5600L845.8000 500.5600L845.8000 505.3200Q848.7400 501.4000 853.7100 498.6700Q858.6800 495.9400 865.5400 495.8000L865.5400 495.8000Q881.5000 495.5200 887.8000 508.2600L887.8000 508.2600Q891.0200 502.6600 897.1100 499.2300Q903.2000 495.8000 910.6200 495.8000L910.6200 495.8000Q917.9000 495.8000 923.8500 499.1600Q929.8000 502.5200 933.2300 509.3100Q936.6600 516.1000 936.6600 526.4600L936.6600 526.4600L936.6600 566.6400Q936.6600 568.0400 935.6800 569.0200Q934.7000 570 933.3000 570L933.3000 570L921.8200 570Q920.4200 570 919.4400 569.0200Q918.4600 568.0400 918.4600 566.6400L918.4600 566.6400L918.4600 527.5800Q918.4600 521.2800 916.6400 517.5700Q914.8200 513.8600 911.7400 512.3200Q908.6600 510.7800 904.8800 510.7800L904.8800 510.7800Q901.8000 510.7800 898.7200 512.3200Q895.6400 513.8600 893.6800 517.5700Q891.7200 521.2800 891.7200 527.5800L891.7200 527.5800L891.7200 566.6400Q891.7200 568.0400 890.7400 569.0200Q889.7600 570 888.3600 570L888.3600 570L876.8800 570Q875.4800 570 874.5000 569.0200Q873.5200 568.0400 873.5200 566.6400L873.5200 566.6400L873.5200 527.5800Q873.5200 521.2800 871.5600 517.5700Q869.6000 513.8600 866.5200 512.3200Q863.4400 510.7800 859.9400 510.7800L859.9400 510.7800Q856.7200 510.7800 853.6400 512.3900Q850.5600 514 848.6000 517.6400Q846.6400 521.2800 846.6400 527.5800L846.6400 527.5800L846.6400 566.6400Q846.6400 568.0400 845.6600 569.0200Q844.6800 570 843.2800 570L843.2800 570ZM986.6400 571.4000L986.6400 571.4000Q975.4400 571.4000 967.8100 567.4800Q960.1800 563.5600 956.1900 556.4200Q952.2000 549.2800 951.6400 539.7600L951.6400 539.7600Q951.5000 537.2400 951.5000 533.6000Q951.5000 529.9600 951.6400 527.4400L951.6400 527.4400Q952.2000 517.7800 956.3300 510.7100Q960.4600 503.6400 968.0900 499.7200Q975.7200 495.8000 986.6400 495.8000L986.6400 495.8000Q997.5600 495.8000 1005.1900 499.7200Q1012.8200 503.6400 1016.9500 510.7100Q1021.0800 517.7800 1021.6400 527.4400L1021.6400 527.4400Q1021.7800 529.9600 1021.7800 533.6000Q1021.7800 537.2400 1021.6400 539.7600L1021.6400 539.7600Q1021.0800 549.2800 1017.0900 556.4200Q1013.1000 563.5600 1005.4700 567.4800Q997.8400 571.4000 986.6400 571.4000ZM986.6400 557.5400L986.6400 557.5400Q994.0600 557.5400 998.1200 552.8500Q1002.1800 548.1600 1002.6000 539.0600L1002.6000 539.0600Q1002.7400 536.9600 1002.7400 533.6000Q1002.7400 530.2400 1002.6000 528.1400L1002.6000 528.1400Q1002.1800 519.0400 998.1200 514.3500Q994.0600 509.6600 986.6400 509.6600L986.6400 509.6600Q979.2200 509.6600 975.1600 514.3500Q971.1000 519.0400 970.6800 528.1400L970.6800 528.1400Q970.5400 530.2400 970.5400 533.6000Q970.5400 536.9600 970.6800 539.0600L970.6800 539.0600Q971.1000 548.1600 975.1600 552.8500Q979.2200 557.5400 986.6400 557.5400ZM1100.8800 571.4000L1100.8800 571.4000Q1090.8000 571.4000 1083.1700 567.6200Q1075.5400 563.8400 1071.2700 556.6300Q1067 549.4200 1066.5800 539.2000L1066.5800 539.2000Q1066.4400 537.1000 1066.4400 533.6700Q1066.4400 530.2400 1066.5800 528L1066.5800 528Q1067 517.7800 1071.2700 510.5700Q1075.5400 503.3600 1083.1700 499.5800Q1090.8000 495.8000 1100.8800 495.8000L1100.8800 495.8000Q1109.8400 495.8000 1116.1400 498.2500Q1122.4400 500.7000 1126.5000 504.5500Q1130.5600 508.4000 1132.5900 512.5300Q1134.6200 516.6600 1134.7600 520.0200L1134.7600 520.0200Q1134.9000 521.5600 1133.8500 522.4700Q1132.8000 523.3800 1131.4000 523.3800L1131.4000 523.3800L1119.0800 523.3800Q1117.6800 523.3800 1116.9100 522.6800Q1116.1400 521.9800 1115.4400 520.5800L1115.4400 520.5800Q1113.3400 514.9800 1109.9100 512.6700Q1106.4800 510.3600 1101.1600 510.3600L1101.1600 510.3600Q1094.1600 510.3600 1090.0300 514.7700Q1085.9000 519.1800 1085.6200 528.7000L1085.6200 528.7000Q1085.3400 534.0200 1085.6200 538.5000L1085.6200 538.5000Q1085.9000 548.1600 1090.0300 552.5000Q1094.1600 556.8400 1101.1600 556.8400L1101.1600 556.8400Q1106.6200 556.8400 1109.9800 554.5300Q1113.3400 552.2200 1115.4400 546.6200L1115.4400 546.6200Q1116.1400 545.2200 1116.9100 544.5200Q1117.6800 543.8200 1119.0800 543.8200L1119.0800 543.8200L1131.4000 543.8200Q1132.8000 543.8200 1133.8500 544.7300Q1134.9000 545.6400 1134.7600 547.1800L1134.7600 547.1800Q1134.6200 549.7000 1133.4300 552.8500Q1132.2400 556 1129.6500 559.2900Q1127.0600 562.5800 1123.1400 565.3100Q1119.2200 568.0400 1113.6900 569.7200Q1108.1600 571.4000 1100.8800 571.4000ZM1164.8600 570L1152.6800 570Q1151.2800 570 1150.3000 569.0200Q1149.3200 568.0400 1149.3200 566.6400L1149.3200 566.6400L1149.3200 500.7000Q1149.3200 499.1600 1150.3000 498.1800Q1151.2800 497.2000 1152.6800 497.2000L1152.6800 497.2000L1164.0200 497.2000Q1165.4200 497.2000 1166.4700 498.1800Q1167.5200 499.1600 1167.5200 500.7000L1167.5200 500.7000L1167.5200 506.4400Q1170.7400 501.9600 1175.8500 499.5800Q1180.9600 497.2000 1187.6800 497.2000L1187.6800 497.2000L1193.4200 497.2000Q1194.9600 497.2000 1195.8700 498.1800Q1196.7800 499.1600 1196.7800 500.5600L1196.7800 500.5600L1196.7800 510.6400Q1196.7800 512.0400 1195.8700 513.0200Q1194.9600 514 1193.4200 514L1193.4200 514L1182.5000 514Q1175.7800 514 1172.0700 517.7100Q1168.3600 521.4200 1168.3600 528.1400L1168.3600 528.1400L1168.3600 566.6400Q1168.3600 568.0400 1167.3800 569.0200Q1166.4000 570 1164.8600 570L1164.8600 570ZM1222.6800 570L1211.0600 570Q1209.6600 570 1208.6800 569.0200Q1207.7000 568.0400 1207.7000 566.6400L1207.7000 566.6400L1207.7000 500.5600Q1207.7000 499.1600 1208.6800 498.1800Q1209.6600 497.2000 1211.0600 497.2000L1211.0600 497.2000L1222.6800 497.2000Q1224.2200 497.2000 1225.1300 498.1800Q1226.0400 499.1600 1226.0400 500.5600L1226.0400 500.5600L1226.0400 566.6400Q1226.0400 568.0400 1225.1300 569.0200Q1224.2200 570 1222.6800 570L1222.6800 570ZM1223.2400 485.1600L1210.5000 485.1600Q1209.1000 485.1600 1208.1200 484.1800Q1207.1400 483.2000 1207.1400 481.8000L1207.1400 481.8000L1207.1400 471.7200Q1207.1400 470.3200 1208.1200 469.3400Q1209.1000 468.3600 1210.5000 468.3600L1210.5000 468.3600L1223.2400 468.3600Q1224.7800 468.3600 1225.7600 469.3400Q1226.7400 470.3200 1226.7400 471.7200L1226.7400 471.7200L1226.7400 481.8000Q1226.7400 483.2000 1225.7600 484.1800Q1224.7800 485.1600 1223.2400 485.1600L1223.2400 485.1600ZM1265.8000 571.4000L1265.8000 571.4000Q1258.5200 571.4000 1252.6400 568.5300Q1246.7600 565.6600 1243.3300 560.8300Q1239.9000 556 1239.9000 549.9800L1239.9000 549.9800Q1239.9000 540.1800 1247.8800 534.3700Q1255.8600 528.5600 1268.7400 526.6000L1268.7400 526.6000L1287.9200 523.8000L1287.9200 520.8600Q1287.9200 514.9800 1284.9800 511.7600Q1282.0400 508.5400 1274.9000 508.5400L1274.9000 508.5400Q1269.8600 508.5400 1266.7100 510.5700Q1263.5600 512.6000 1262.0200 515.9600L1262.0200 515.9600Q1260.9000 517.7800 1258.8000 517.7800L1258.8000 517.7800L1247.7400 517.7800Q1246.2000 517.7800 1245.4300 516.9400Q1244.6600 516.1000 1244.6600 514.7000L1244.6600 514.7000Q1244.8000 512.4600 1246.5500 509.2400Q1248.3000 506.0200 1251.8700 503.0100Q1255.4400 500 1261.1800 497.9000Q1266.9200 495.8000 1275.0400 495.8000L1275.0400 495.8000Q1283.8600 495.8000 1289.9500 497.9700Q1296.0400 500.1400 1299.6800 503.7800Q1303.3200 507.4200 1305.0000 512.3200Q1306.6800 517.2200 1306.6800 522.6800L1306.6800 522.6800L1306.6800 566.6400Q1306.6800 568.0400 1305.7000 569.0200Q1304.7200 570 1303.3200 570L1303.3200 570L1291.9800 570Q1290.4400 570 1289.5300 569.0200Q1288.6200 568.0400 1288.6200 566.6400L1288.6200 566.6400L1288.6200 561.1800Q1286.8000 563.7000 1283.7200 566.0800Q1280.6400 568.4600 1276.2300 569.9300Q1271.8200 571.4000 1265.8000 571.4000ZM1270.5600 558.1000L1270.5600 558.1000Q1275.4600 558.1000 1279.4500 556Q1283.4400 553.9000 1285.7500 549.4900Q1288.0600 545.0800 1288.0600 538.3600L1288.0600 538.3600L1288.0600 535.4200L1274.0600 537.6600Q1265.8000 538.9200 1261.7400 541.7200Q1257.6800 544.5200 1257.6800 548.5800L1257.6800 548.5800Q1257.6800 551.6600 1259.5700 553.8300Q1261.4600 556 1264.4000 557.0500Q1267.3400 558.1000 1270.5600 558.1000ZM1340.1400 570L1327.9600 570Q1326.5600 570 1325.5800 569.0200Q1324.6000 568.0400 1324.6000 566.6400L1324.6000 566.6400L1324.6000 500.7000Q1324.6000 499.1600 1325.5800 498.1800Q1326.5600 497.2000 1327.9600 497.2000L1327.9600 497.2000L1339.3000 497.2000Q1340.7000 497.2000 1341.7500 498.1800Q1342.8000 499.1600 1342.8000 500.7000L1342.8000 500.7000L1342.8000 506.4400Q1346.0200 501.9600 1351.1300 499.5800Q1356.2400 497.2000 1362.9600 497.2000L1362.9600 497.2000L1368.7000 497.2000Q1370.2400 497.2000 1371.1500 498.1800Q1372.0600 499.1600 1372.0600 500.5600L1372.0600 500.5600L1372.0600 510.6400Q1372.0600 512.0400 1371.1500 513.0200Q1370.2400 514 1368.7000 514L1368.7000 514L1357.7800 514Q1351.0600 514 1347.3500 517.7100Q1343.6400 521.4200 1343.6400 528.1400L1343.6400 528.1400L1343.6400 566.6400Q1343.6400 568.0400 1342.6600 569.0200Q1341.6800 570 1340.1400 570L1340.1400 570ZM174.2200 710L162.6000 710Q161.2000 710 160.2200 709.0200Q159.2400 708.0400 159.2400 706.6400L159.2400 706.6400L159.2400 640.5600Q159.2400 639.1600 160.2200 638.1800Q161.2000 637.2000 162.6000 637.2000L162.6000 637.2000L174.2200 637.2000Q175.7600 637.2000 176.6700 638.1800Q177.5800 639.1600 177.5800 640.5600L177.5800 640.5600L177.5800 706.6400Q177.5800 708.0400 176.6700 709.0200Q175.7600 710 174.2200 710L174.2200 710ZM171.1400 626.7000L162.6000 626.7000Q160.3600 626.7000 160.3600 624.4600L160.3600 624.4600Q160.3600 623.3400 161.0600 622.6400L161.0600 622.6400L172.4000 608.7800Q173.8000 607.2400 174.7800 606.7500Q175.7600 606.2600 177.5800 606.2600L177.5800 606.2600L191.5800 606.2600Q194.2400 606.2600 194.2400 608.9200L194.2400 608.9200Q194.2400 609.9000 193.5400 610.6000L193.5400 610.6000L176.1800 624.8800Q175.0600 625.8600 174.0100 626.2800Q172.9600 626.7000 171.1400 626.7000L171.1400 626.7000ZM211.8800 710L199.5600 710Q198.1600 710 197.1800 709.0200Q196.2000 708.0400 196.2000 706.6400L196.2000 706.6400L196.2000 640.5600Q196.2000 639.1600 197.1800 638.1800Q198.1600 637.2000 199.5600 637.2000L199.5600 637.2000L211.0400 637.2000Q212.4400 637.2000 213.4200 638.1800Q214.4000 639.1600 214.4000 640.5600L214.4000 640.5600L214.4000 646.3000Q218.0400 641.8200 223.7100 638.8100Q229.3800 635.8000 237.7800 635.8000L237.7800 635.8000Q246.3200 635.8000 252.6200 639.6500Q258.9200 643.5000 262.3500 650.5000Q265.7800 657.5000 265.7800 667.3000L265.7800 667.3000L265.7800 706.6400Q265.7800 708.0400 264.8000 709.0200Q263.8200 710 262.4200 710L262.4200 710L250.1000 710Q248.7000 710 247.7200 709.0200Q246.7400 708.0400 246.7400 706.6400L246.7400 706.6400L246.7400 668.1400Q246.7400 660.0200 242.7500 655.4000Q238.7600 650.7800 231.2000 650.7800L231.2000 650.7800Q223.9200 650.7800 219.5800 655.4000Q215.2400 660.0200 215.2400 668.1400L215.2400 668.1400L215.2400 706.6400Q215.2400 708.0400 214.2600 709.0200Q213.2800 710 211.8800 710L211.8800 710ZM310.5800 711.4000L310.5800 711.4000Q303.3000 711.4000 297.7700 708.9500Q292.2400 706.5000 288.6000 702.0200Q284.9600 697.5400 283.0000 691.4500Q281.0400 685.3600 280.7600 678.0800L280.7600 678.0800Q280.6200 675.5600 280.6200 673.5300Q280.6200 671.5000 280.7600 668.9800L280.7600 668.9800Q281.0400 661.9800 282.9300 655.9600Q284.8200 649.9400 288.5300 645.3900Q292.2400 640.8400 297.7700 638.3200Q303.3000 635.8000 310.5800 635.8000L310.5800 635.8000Q318.1400 635.8000 323.3900 638.3900Q328.6400 640.9800 332.1400 645.0400L332.1400 645.0400L332.1400 613.9600Q332.1400 612.5600 333.0500 611.5800Q333.9600 610.6000 335.5000 610.6000L335.5000 610.6000L347.4000 610.6000Q348.8000 610.6000 349.7800 611.5800Q350.7600 612.5600 350.7600 613.9600L350.7600 613.9600L350.7600 706.6400Q350.7600 708.0400 349.7800 709.0200Q348.8000 710 347.4000 710L347.4000 710L336.3400 710Q334.8000 710 333.8900 709.0200Q332.9800 708.0400 332.9800 706.6400L332.9800 706.6400L332.9800 701.4600Q329.4800 705.8000 324.0900 708.6000Q318.7000 711.4000 310.5800 711.4000ZM315.7600 696.4200L315.7600 696.4200Q321.6400 696.4200 325.1400 693.7600Q328.6400 691.1000 330.3200 686.9700Q332.0000 682.8400 332.1400 678.5000L332.1400 678.5000Q332.2800 675.9800 332.2800 673.1100Q332.2800 670.2400 332.1400 667.7200L332.1400 667.7200Q332.0000 663.5200 330.1800 659.6700Q328.3600 655.8200 324.8600 653.3000Q321.3600 650.7800 315.7600 650.7800L315.7600 650.7800Q309.8800 650.7800 306.4500 653.3700Q303.0200 655.9600 301.4800 660.1600Q299.9400 664.3600 299.6600 669.4000L299.6600 669.4000Q299.5200 673.6000 299.6600 677.8000L299.6600 677.8000Q299.9400 682.8400 301.4800 687.0400Q303.0200 691.2400 306.4500 693.8300Q309.8800 696.4200 315.7600 696.4200ZM384.3600 710L372.7400 710Q371.3400 710 370.3600 709.0200Q369.3800 708.0400 369.3800 706.6400L369.3800 706.6400L369.3800 640.5600Q369.3800 639.1600 370.3600 638.1800Q371.3400 637.2000 372.7400 637.2000L372.7400 637.2000L384.3600 637.2000Q385.9000 637.2000 386.8100 638.1800Q387.7200 639.1600 387.7200 640.5600L387.7200 640.5600L387.7200 706.6400Q387.7200 708.0400 386.8100 709.0200Q385.9000 710 384.3600 710L384.3600 710ZM384.9200 625.1600L372.1800 625.1600Q370.7800 625.1600 369.8000 624.1800Q368.8200 623.2000 368.8200 621.8000L368.8200 621.8000L368.8200 611.7200Q368.8200 610.3200 369.8000 609.3400Q370.7800 608.3600 372.1800 608.3600L372.1800 608.3600L384.9200 608.3600Q386.4600 608.3600 387.4400 609.3400Q388.4200 610.3200 388.4200 611.7200L388.4200 611.7200L388.4200 621.8000Q388.4200 623.2000 387.4400 624.1800Q386.4600 625.1600 384.9200 625.1600L384.9200 625.1600ZM437.8400 711.4000L437.8400 711.4000Q427.7600 711.4000 420.1300 707.6200Q412.5000 703.8400 408.2300 696.6300Q403.9600 689.4200 403.5400 679.2000L403.5400 679.2000Q403.4000 677.1000 403.4000 673.6700Q403.4000 670.2400 403.5400 668L403.5400 668Q403.9600 657.7800 408.2300 650.5700Q412.5000 643.3600 420.1300 639.5800Q427.7600 635.8000 437.8400 635.8000L437.8400 635.8000Q446.8000 635.8000 453.1000 638.2500Q459.4000 640.7000 463.4600 644.5500Q467.5200 648.4000 469.5500 652.5300Q471.5800 656.6600 471.7200 660.0200L471.7200 660.0200Q471.8600 661.5600 470.8100 662.4700Q469.7600 663.3800 468.3600 663.3800L468.3600 663.3800L456.0400 663.3800Q454.6400 663.3800 453.8700 662.6800Q453.1000 661.9800 452.4000 660.5800L452.4000 660.5800Q450.3000 654.9800 446.8700 652.6700Q443.4400 650.3600 438.1200 650.3600L438.1200 650.3600Q431.1200 650.3600 426.9900 654.7700Q422.8600 659.1800 422.5800 668.7000L422.5800 668.7000Q422.3000 674.0200 422.5800 678.5000L422.5800 678.5000Q422.8600 688.1600 426.9900 692.5000Q431.1200 696.8400 438.1200 696.8400L438.1200 696.8400Q443.5800 696.8400 446.9400 694.5300Q450.3000 692.2200 452.4000 686.6200L452.4000 686.6200Q453.1000 685.2200 453.8700 684.5200Q454.6400 683.8200 456.0400 683.8200L456.0400 683.8200L468.3600 683.8200Q469.7600 683.8200 470.8100 684.7300Q471.8600 685.6400 471.7200 687.1800L471.7200 687.1800Q471.5800 689.7000 470.3900 692.8500Q469.2000 696 466.6100 699.2900Q464.0200 702.5800 460.1000 705.3100Q456.1800 708.0400 450.6500 709.7200Q445.1200 711.4000 437.8400 711.4000ZM517.6400 711.4000L517.6400 711.4000Q502.1000 711.4000 493 702.4400Q483.9000 693.4800 483.2000 676.9600L483.2000 676.9600Q483.0600 675.5600 483.0600 673.3900Q483.0600 671.2200 483.2000 669.9600L483.2000 669.9600Q483.7600 659.3200 488.0300 651.6900Q492.3000 644.0600 499.8600 639.9300Q507.4200 635.8000 517.6400 635.8000L517.6400 635.8000Q528.9800 635.8000 536.6800 640.4900Q544.3800 645.1800 548.3000 653.5100Q552.2200 661.8400 552.2200 672.7600L552.2200 672.7600L552.2200 675.7000Q552.2200 677.1000 551.2400 678.0800Q550.2600 679.0600 548.7200 679.0600L548.7200 679.0600L502.2400 679.0600Q502.2400 679.0600 502.2400 679.4800Q502.2400 679.9000 502.2400 680.1800L502.2400 680.1800Q502.3800 685.0800 504.1300 689.2100Q505.8800 693.3400 509.3100 695.8600Q512.7400 698.3800 517.5000 698.3800L517.5000 698.3800Q521.4200 698.3800 524.0800 697.1900Q526.7400 696 528.4200 694.4600Q530.1000 692.9200 530.8000 691.9400L530.8000 691.9400Q532.0600 690.2600 532.8300 689.9100Q533.6000 689.5600 535.1400 689.5600L535.1400 689.5600L547.1800 689.5600Q548.5800 689.5600 549.4900 690.4000Q550.4000 691.2400 550.2600 692.5000L550.2600 692.5000Q550.1200 694.7400 547.9500 697.9600Q545.7800 701.1800 541.7200 704.2600Q537.6600 707.3400 531.5700 709.3700Q525.4800 711.4000 517.6400 711.4000ZM502.2400 666.8800L502.2400 667.3000L533.1800 667.3000L533.1800 666.8800Q533.1800 661.4200 531.3600 657.2900Q529.5400 653.1600 526.0400 650.8500Q522.5400 648.5400 517.6400 648.5400L517.6400 648.5400Q512.7400 648.5400 509.2400 650.8500Q505.7400 653.1600 503.9900 657.2900Q502.2400 661.4200 502.2400 666.8800L502.2400 666.8800ZM594.6400 711.4000L594.6400 711.4000Q586.2400 711.4000 580.2900 709.4400Q574.3400 707.4800 570.5600 704.5400Q566.7800 701.6000 564.9600 698.6600Q563.1400 695.7200 563 693.7600L563 693.7600Q562.8600 692.2200 563.9100 691.3100Q564.9600 690.4000 566.2200 690.4000L566.2200 690.4000L577.2800 690.4000Q577.8400 690.4000 578.2600 690.5400Q578.6800 690.6800 579.3800 691.3800L579.3800 691.3800Q581.2000 692.9200 583.2300 694.6000Q585.2600 696.2800 588.0600 697.4700Q590.8600 698.6600 595.0600 698.6600L595.0600 698.6600Q600.5200 698.6600 604.2300 696.4900Q607.9400 694.3200 607.9400 690.2600L607.9400 690.2600Q607.9400 687.3200 606.3300 685.5000Q604.7200 683.6800 600.3800 682.2100Q596.0400 680.7400 588.0600 679.0600L588.0600 679.0600Q580.2200 677.2400 575.0400 674.4400Q569.8600 671.6400 567.3400 667.4400Q564.8200 663.2400 564.8200 657.6400L564.8200 657.6400Q564.8200 652.1800 568.1100 647.2100Q571.4000 642.2400 577.9100 639.0200Q584.4200 635.8000 594.0800 635.8000L594.0800 635.8000Q601.6400 635.8000 607.2400 637.6900Q612.8400 639.5800 616.5500 642.3800Q620.2600 645.1800 622.2200 648.0500Q624.1800 650.9200 624.3200 653.0200L624.3200 653.0200Q624.4600 654.5600 623.4800 655.4700Q622.5000 656.3800 621.2400 656.3800L621.2400 656.3800L610.8800 656.3800Q610.1800 656.3800 609.6200 656.1000Q609.0600 655.8200 608.5000 655.4000L608.5000 655.4000Q606.9600 654 605.1400 652.3900Q603.3200 650.7800 600.7300 649.6600Q598.1400 648.5400 593.9400 648.5400L593.9400 648.5400Q588.6200 648.5400 585.8200 650.8500Q583.0200 653.1600 583.0200 656.6600L583.0200 656.6600Q583.0200 659.0400 584.3500 660.7900Q585.6800 662.5400 589.7400 664.0800Q593.8000 665.6200 602.0600 667.3000L602.0600 667.3000Q611.4400 668.9800 616.9700 672.2700Q622.5000 675.5600 624.8100 679.8300Q627.1200 684.1000 627.1200 689.2800L627.1200 689.2800Q627.1200 695.5800 623.4100 700.6200Q619.7000 705.6600 612.4900 708.5300Q605.2800 711.4000 594.6400 711.4000ZM689.2800 710L676.9600 710Q675.5600 710 674.5800 709.0200Q673.6000 708.0400 673.6000 706.6400L673.6000 706.6400L673.6000 640.5600Q673.6000 639.1600 674.5800 638.1800Q675.5600 637.2000 676.9600 637.2000L676.9600 637.2000L688.4400 637.2000Q689.8400 637.2000 690.8200 638.1800Q691.8000 639.1600 691.8000 640.5600L691.8000 640.5600L691.8000 646.3000Q695.4400 641.8200 701.1100 638.8100Q706.7800 635.8000 715.1800 635.8000L715.1800 635.8000Q723.7200 635.8000 730.0200 639.6500Q736.3200 643.5000 739.7500 650.5000Q743.1800 657.5000 743.1800 667.3000L743.1800 667.3000L743.1800 706.6400Q743.1800 708.0400 742.2000 709.0200Q741.2200 710 739.8200 710L739.8200 710L727.5000 710Q726.1000 710 725.1200 709.0200Q724.1400 708.0400 724.1400 706.6400L724.1400 706.6400L724.1400 668.1400Q724.1400 660.0200 720.1500 655.4000Q716.1600 650.7800 708.6000 650.7800L708.6000 650.7800Q701.3200 650.7800 696.9800 655.4000Q692.6400 660.0200 692.6400 668.1400L692.6400 668.1400L692.6400 706.6400Q692.6400 708.0400 691.6600 709.0200Q690.6800 710 689.2800 710L689.2800 710ZM793.1600 711.4000L793.1600 711.4000Q781.9600 711.4000 774.3300 707.4800Q766.7000 703.5600 762.7100 696.4200Q758.7200 689.2800 758.1600 679.7600L758.1600 679.7600Q758.0200 677.2400 758.0200 673.6000Q758.0200 669.9600 758.1600 667.4400L758.1600 667.4400Q758.7200 657.7800 762.8500 650.7100Q766.9800 643.6400 774.6100 639.7200Q782.2400 635.8000 793.1600 635.8000L793.1600 635.8000Q804.0800 635.8000 811.7100 639.7200Q819.3400 643.6400 823.4700 650.7100Q827.6000 657.7800 828.1600 667.4400L828.1600 667.4400Q828.3000 669.9600 828.3000 673.6000Q828.3000 677.2400 828.1600 679.7600L828.1600 679.7600Q827.6000 689.2800 823.6100 696.4200Q819.6200 703.5600 811.9900 707.4800Q804.3600 711.4000 793.1600 711.4000ZM793.1600 697.5400L793.1600 697.5400Q800.5800 697.5400 804.6400 692.8500Q808.7000 688.1600 809.1200 679.0600L809.1200 679.0600Q809.2600 676.9600 809.2600 673.6000Q809.2600 670.2400 809.1200 668.1400L809.1200 668.1400Q808.7000 659.0400 804.6400 654.3500Q800.5800 649.6600 793.1600 649.6600L793.1600 649.6600Q785.7400 649.6600 781.6800 654.3500Q777.6200 659.0400 777.2000 668.1400L777.2000 668.1400Q777.0600 670.2400 777.0600 673.6000Q777.0600 676.9600 777.2000 679.0600L777.2000 679.0600Q777.6200 688.1600 781.6800 692.8500Q785.7400 697.5400 793.1600 697.5400ZM894.2400 710L880.9400 710Q879.5400 710 878.5600 709.0200Q877.5800 708.0400 877.5800 706.6400L877.5800 706.6400L877.5800 615.5000Q877.5800 613.9600 878.5600 612.9800Q879.5400 612 880.9400 612L880.9400 612L918.4600 612Q929.3800 612 937.5000 615.4300Q945.6200 618.8600 950.1000 625.7900Q954.5800 632.7200 954.5800 643.0800L954.5800 643.0800Q954.5800 653.5800 950.1000 660.3700Q945.6200 667.1600 937.5000 670.5200Q929.3800 673.8800 918.4600 673.8800L918.4600 673.8800L897.6000 673.8800L897.6000 706.6400Q897.6000 708.0400 896.6900 709.0200Q895.7800 710 894.2400 710L894.2400 710ZM897.3200 627.5400L897.3200 658.3400L917.7600 658.3400Q925.8800 658.3400 930.2200 654.4900Q934.5600 650.6400 934.5600 643.0800L934.5600 643.0800Q934.5600 636.0800 930.5000 631.8100Q926.4400 627.5400 917.7600 627.5400L917.7600 627.5400L897.3200 627.5400ZM1000.3600 711.4000L1000.3600 711.4000Q989.1600 711.4000 981.5300 707.4800Q973.9000 703.5600 969.9100 696.4200Q965.9200 689.2800 965.3600 679.7600L965.3600 679.7600Q965.2200 677.2400 965.2200 673.6000Q965.2200 669.9600 965.3600 667.4400L965.3600 667.4400Q965.9200 657.7800 970.0500 650.7100Q974.1800 643.6400 981.8100 639.7200Q989.4400 635.8000 1000.3600 635.8000L1000.3600 635.8000Q1011.2800 635.8000 1018.9100 639.7200Q1026.5400 643.6400 1030.6700 650.7100Q1034.8000 657.7800 1035.3600 667.4400L1035.3600 667.4400Q1035.5000 669.9600 1035.5000 673.6000Q1035.5000 677.2400 1035.3600 679.7600L1035.3600 679.7600Q1034.8000 689.2800 1030.8100 696.4200Q1026.8200 703.5600 1019.1900 707.4800Q1011.5600 711.4000 1000.3600 711.4000ZM1000.3600 697.5400L1000.3600 697.5400Q1007.7800 697.5400 1011.8400 692.8500Q1015.9000 688.1600 1016.3200 679.0600L1016.3200 679.0600Q1016.4600 676.9600 1016.4600 673.6000Q1016.4600 670.2400 1016.3200 668.1400L1016.3200 668.1400Q1015.9000 659.0400 1011.8400 654.3500Q1007.7800 649.6600 1000.3600 649.6600L1000.3600 649.6600Q992.9400 649.6600 988.8800 654.3500Q984.8200 659.0400 984.4000 668.1400L984.4000 668.1400Q984.2600 670.2400 984.2600 673.6000Q984.2600 676.9600 984.4000 679.0600L984.4000 679.0600Q984.8200 688.1600 988.8800 692.8500Q992.9400 697.5400 1000.3600 697.5400ZM1078.6200 711.4000L1078.6200 711.4000Q1070.2200 711.4000 1064.2700 709.4400Q1058.3200 707.4800 1054.5400 704.5400Q1050.7600 701.6000 1048.9400 698.6600Q1047.1200 695.7200 1046.9800 693.7600L1046.9800 693.7600Q1046.8400 692.2200 1047.8900 691.3100Q1048.9400 690.4000 1050.2000 690.4000L1050.2000 690.4000L1061.2600 690.4000Q1061.8200 690.4000 1062.2400 690.5400Q1062.6600 690.6800 1063.3600 691.3800L1063.3600 691.3800Q1065.1800 692.9200 1067.2100 694.6000Q1069.2400 696.2800 1072.0400 697.4700Q1074.8400 698.6600 1079.0400 698.6600L1079.0400 698.6600Q1084.5000 698.6600 1088.2100 696.4900Q1091.9200 694.3200 1091.9200 690.2600L1091.9200 690.2600Q1091.9200 687.3200 1090.3100 685.5000Q1088.7000 683.6800 1084.3600 682.2100Q1080.0200 680.7400 1072.0400 679.0600L1072.0400 679.0600Q1064.2000 677.2400 1059.0200 674.4400Q1053.8400 671.6400 1051.3200 667.4400Q1048.8000 663.2400 1048.8000 657.6400L1048.8000 657.6400Q1048.8000 652.1800 1052.0900 647.2100Q1055.3800 642.2400 1061.8900 639.0200Q1068.4000 635.8000 1078.0600 635.8000L1078.0600 635.8000Q1085.6200 635.8000 1091.2200 637.6900Q1096.8200 639.5800 1100.5300 642.3800Q1104.2400 645.1800 1106.2000 648.0500Q1108.1600 650.9200 1108.3000 653.0200L1108.3000 653.0200Q1108.4400 654.5600 1107.4600 655.4700Q1106.4800 656.3800 1105.2200 656.3800L1105.2200 656.3800L1094.8600 656.3800Q1094.1600 656.3800 1093.6000 656.1000Q1093.0400 655.8200 1092.4800 655.4000L1092.4800 655.4000Q1090.9400 654 1089.1200 652.3900Q1087.3000 650.7800 1084.7100 649.6600Q1082.1200 648.5400 1077.9200 648.5400L1077.9200 648.5400Q1072.6000 648.5400 1069.8000 650.8500Q1067.0000 653.1600 1067.0000 656.6600L1067.0000 656.6600Q1067.0000 659.0400 1068.3300 660.7900Q1069.6600 662.5400 1073.7200 664.0800Q1077.7800 665.6200 1086.0400 667.3000L1086.0400 667.3000Q1095.4200 668.9800 1100.9500 672.2700Q1106.4800 675.5600 1108.7900 679.8300Q1111.1000 684.1000 1111.1000 689.2800L1111.1000 689.2800Q1111.1000 695.5800 1107.3900 700.6200Q1103.6800 705.6600 1096.4700 708.5300Q1089.2600 711.4000 1078.6200 711.4000ZM1169.7600 710L1158.4200 710Q1150.0200 710 1144.2800 707.0600Q1138.5400 704.1200 1135.7400 698.3100Q1132.9400 692.5000 1132.9400 683.8200L1132.9400 683.8200L1132.9400 652.0400L1121.8800 652.0400Q1120.4800 652.0400 1119.5000 651.0600Q1118.5200 650.0800 1118.5200 648.5400L1118.5200 648.5400L1118.5200 640.5600Q1118.5200 639.1600 1119.5000 638.1800Q1120.4800 637.2000 1121.8800 637.2000L1121.8800 637.2000L1132.9400 637.2000L1132.9400 613.9600Q1132.9400 612.5600 1133.8500 611.5800Q1134.7600 610.6000 1136.3000 610.6000L1136.3000 610.6000L1147.6400 610.6000Q1149.0400 610.6000 1150.0200 611.5800Q1151.0000 612.5600 1151.0000 613.9600L1151.0000 613.9600L1151.0000 637.2000L1168.5000 637.2000Q1169.9000 637.2000 1170.8800 638.1800Q1171.8600 639.1600 1171.8600 640.5600L1171.8600 640.5600L1171.8600 648.5400Q1171.8600 650.0800 1170.8800 651.0600Q1169.9000 652.0400 1168.5000 652.0400L1168.5000 652.0400L1151.0000 652.0400L1151.0000 682.4200Q1151.0000 688.1600 1153.0300 691.3800Q1155.0600 694.6000 1160.1000 694.6000L1160.1000 694.6000L1169.7600 694.6000Q1171.1600 694.6000 1172.1400 695.5800Q1173.1200 696.5600 1173.1200 697.9600L1173.1200 697.9600L1173.1200 706.6400Q1173.1200 708.0400 1172.1400 709.0200Q1171.1600 710 1169.7600 710L1169.7600 710ZM1218.4800 740.8000L1218.4800 740.8000Q1208.2600 740.8000 1201.6800 738.1400Q1195.1000 735.4800 1191.3200 731.7000Q1187.5400 727.9200 1185.9300 724.2100Q1184.3200 720.5000 1184.1800 718.4000L1184.1800 718.4000Q1184.0400 717 1185.0900 715.9500Q1186.1400 714.9000 1187.5400 714.9000L1187.5400 714.9000L1199.7200 714.9000Q1201.1200 714.9000 1201.9600 715.5300Q1202.8000 716.1600 1203.3600 717.8400L1203.3600 717.8400Q1204.2000 719.6600 1205.6000 721.7600Q1207.0000 723.8600 1209.8700 725.3300Q1212.7400 726.8000 1217.7800 726.8000L1217.7800 726.8000Q1223.1000 726.8000 1226.7400 725.2600Q1230.3800 723.7200 1232.2700 720.0800Q1234.1600 716.4400 1234.1600 710L1234.1600 710L1234.1600 700.4800Q1230.8000 704.5400 1225.5500 707.0600Q1220.3000 709.5800 1212.6000 709.5800L1212.6000 709.5800Q1205.1800 709.5800 1199.6500 707.1300Q1194.1200 704.6800 1190.4800 700.2700Q1186.8400 695.8600 1184.9500 689.8400Q1183.0600 683.8200 1182.7800 676.5400L1182.7800 676.5400Q1182.6400 672.7600 1182.7800 668.9800L1182.7800 668.9800Q1183.0600 661.9800 1184.9500 655.9600Q1186.8400 649.9400 1190.4800 645.3900Q1194.1200 640.8400 1199.6500 638.3200Q1205.1800 635.8000 1212.6000 635.8000L1212.6000 635.8000Q1220.5800 635.8000 1226.0400 638.8100Q1231.5000 641.8200 1235.0000 646.3000L1235.0000 646.3000L1235.0000 640.7000Q1235.0000 639.1600 1235.9800 638.1800Q1236.9600 637.2000 1238.3600 637.2000L1238.3600 637.2000L1249.7000 637.2000Q1251.1000 637.2000 1252.0800 638.1800Q1253.0600 639.1600 1253.0600 640.7000L1253.0600 640.7000L1253.2000 708.1800Q1253.2000 718.2600 1249.4200 725.5400Q1245.6400 732.8200 1238.0100 736.8100Q1230.3800 740.8000 1218.4800 740.8000ZM1217.7800 694.7400L1217.7800 694.7400Q1223.5200 694.7400 1227.0200 692.2200Q1230.5200 689.7000 1232.2000 685.6400Q1233.8800 681.5800 1234.1600 677.3800L1234.1600 677.3800Q1234.3000 675.5600 1234.3000 672.7600Q1234.3000 669.9600 1234.1600 668.2800L1234.1600 668.2800Q1233.8800 663.9400 1232.2000 659.9500Q1230.5200 655.9600 1227.0200 653.3700Q1223.5200 650.7800 1217.7800 650.7800L1217.7800 650.7800Q1212.0400 650.7800 1208.5400 653.3700Q1205.0400 655.9600 1203.5700 660.1600Q1202.1000 664.3600 1201.8200 669.4000L1201.8200 669.4000Q1201.5400 672.7600 1201.8200 676.2600L1201.8200 676.2600Q1202.1000 681.1600 1203.5700 685.4300Q1205.0400 689.7000 1208.5400 692.2200Q1212.0400 694.7400 1217.7800 694.7400ZM1287.3600 710L1275.1800 710Q1273.7800 710 1272.8000 709.0200Q1271.8200 708.0400 1271.8200 706.6400L1271.8200 706.6400L1271.8200 640.7000Q1271.8200 639.1600 1272.8000 638.1800Q1273.7800 637.2000 1275.1800 637.2000L1275.1800 637.2000L1286.5200 637.2000Q1287.9200 637.2000 1288.9700 638.1800Q1290.0200 639.1600 1290.0200 640.7000L1290.0200 640.7000L1290.0200 646.4400Q1293.2400 641.9600 1298.3500 639.5800Q1303.4600 637.2000 1310.1800 637.2000L1310.1800 637.2000L1315.9200 637.2000Q1317.4600 637.2000 1318.3700 638.1800Q1319.2800 639.1600 1319.2800 640.5600L1319.2800 640.5600L1319.2800 650.6400Q1319.2800 652.0400 1318.3700 653.0200Q1317.4600 654 1315.9200 654L1315.9200 654L1305.0000 654Q1298.2800 654 1294.5700 657.7100Q1290.8600 661.4200 1290.8600 668.1400L1290.8600 668.1400L1290.8600 706.6400Q1290.8600 708.0400 1289.8800 709.0200Q1288.9000 710 1287.3600 710L1287.3600 710ZM1361.5600 711.4000L1361.5600 711.4000Q1346.0200 711.4000 1336.9200 702.4400Q1327.8200 693.4800 1327.1200 676.9600L1327.1200 676.9600Q1326.9800 675.5600 1326.9800 673.3900Q1326.9800 671.2200 1327.1200 669.9600L1327.1200 669.9600Q1327.6800 659.3200 1331.9500 651.6900Q1336.2200 644.0600 1343.7800 639.9300Q1351.3400 635.8000 1361.5600 635.8000L1361.5600 635.8000Q1372.9000 635.8000 1380.6000 640.4900Q1388.3000 645.1800 1392.2200 653.5100Q1396.1400 661.8400 1396.1400 672.7600L1396.1400 672.7600L1396.1400 675.7000Q1396.1400 677.1000 1395.1600 678.0800Q1394.1800 679.0600 1392.6400 679.0600L1392.6400 679.0600L1346.1600 679.0600Q1346.1600 679.0600 1346.1600 679.4800Q1346.1600 679.9000 1346.1600 680.1800L1346.1600 680.1800Q1346.3000 685.0800 1348.0500 689.2100Q1349.8000 693.3400 1353.2300 695.8600Q1356.6600 698.3800 1361.4200 698.3800L1361.4200 698.3800Q1365.3400 698.3800 1368.0000 697.1900Q1370.6600 696 1372.3400 694.4600Q1374.0200 692.9200 1374.7200 691.9400L1374.7200 691.9400Q1375.9800 690.2600 1376.7500 689.9100Q1377.5200 689.5600 1379.0600 689.5600L1379.0600 689.5600L1391.1000 689.5600Q1392.5000 689.5600 1393.4100 690.4000Q1394.3200 691.2400 1394.1800 692.5000L1394.1800 692.5000Q1394.0400 694.7400 1391.8700 697.9600Q1389.7000 701.1800 1385.6400 704.2600Q1381.5800 707.3400 1375.4900 709.3700Q1369.4000 711.4000 1361.5600 711.4000ZM1346.1600 666.8800L1346.1600 667.3000L1377.1000 667.3000L1377.1000 666.8800Q1377.1000 661.4200 1375.2800 657.2900Q1373.4600 653.1600 1369.9600 650.8500Q1366.4600 648.5400 1361.5600 648.5400L1361.5600 648.5400Q1356.6600 648.5400 1353.1600 650.8500Q1349.6600 653.1600 1347.9100 657.2900Q1346.1600 661.4200 1346.1600 666.8800L1346.1600 666.8800ZM1438.5600 711.4000L1438.5600 711.4000Q1430.1600 711.4000 1424.2100 709.4400Q1418.2600 707.4800 1414.4800 704.5400Q1410.7000 701.6000 1408.8800 698.6600Q1407.0600 695.7200 1406.9200 693.7600L1406.9200 693.7600Q1406.7800 692.2200 1407.8300 691.3100Q1408.8800 690.4000 1410.1400 690.4000L1410.1400 690.4000L1421.2000 690.4000Q1421.7600 690.4000 1422.1800 690.5400Q1422.6000 690.6800 1423.3000 691.3800L1423.3000 691.3800Q1425.1200 692.9200 1427.1500 694.6000Q1429.1800 696.2800 1431.9800 697.4700Q1434.7800 698.6600 1438.9800 698.6600L1438.9800 698.6600Q1444.4400 698.6600 1448.1500 696.4900Q1451.8600 694.3200 1451.8600 690.2600L1451.8600 690.2600Q1451.8600 687.3200 1450.2500 685.5000Q1448.6400 683.6800 1444.3000 682.2100Q1439.9600 680.7400 1431.9800 679.0600L1431.9800 679.0600Q1424.1400 677.2400 1418.9600 674.4400Q1413.7800 671.6400 1411.2600 667.4400Q1408.7400 663.2400 1408.7400 657.6400L1408.7400 657.6400Q1408.7400 652.1800 1412.0300 647.2100Q1415.3200 642.2400 1421.8300 639.0200Q1428.3400 635.8000 1438.0000 635.8000L1438.0000 635.8000Q1445.5600 635.8000 1451.1600 637.6900Q1456.7600 639.5800 1460.4700 642.3800Q1464.1800 645.1800 1466.1400 648.0500Q1468.1000 650.9200 1468.2400 653.0200L1468.2400 653.0200Q1468.3800 654.5600 1467.4000 655.4700Q1466.4200 656.3800 1465.1600 656.3800L1465.1600 656.3800L1454.8000 656.3800Q1454.1000 656.3800 1453.5400 656.1000Q1452.9800 655.8200 1452.4200 655.4000L1452.4200 655.4000Q1450.8800 654 1449.0600 652.3900Q1447.2400 650.7800 1444.6500 649.6600Q1442.0600 648.5400 1437.8600 648.5400L1437.8600 648.5400Q1432.5400 648.5400 1429.7400 650.8500Q1426.9400 653.1600 1426.9400 656.6600L1426.9400 656.6600Q1426.9400 659.0400 1428.2700 660.7900Q1429.6000 662.5400 1433.6600 664.0800Q1437.7200 665.6200 1445.9800 667.3000L1445.9800 667.3000Q1455.3600 668.9800 1460.8900 672.2700Q1466.4200 675.5600 1468.7300 679.8300Q1471.0400 684.1000 1471.0400 689.2800L1471.0400 689.2800Q1471.0400 695.5800 1467.3300 700.6200Q1463.6200 705.6600 1456.4100 708.5300Q1449.2000 711.4000 1438.5600 711.4000Z" id="title"/></g></svg>