<svg xmlns="http://www.w3.org/2000/svg" version="1.1" xmlns:xlink="http://www.w3.org/1999/xlink" xmlns:svgjs="http://svgjs.dev/svgjs" viewBox="0 0 1920 1080" id="7638db20-20b4-4945-8486-2dd47af13338"><g><rect width="1920" height="1080" fill="#798086"/></g><g fill="#b949a4"><path d="M969.5 217C561.465 217 231 547.465 231 955.5C231 1363.53 561.465 1694 969.5 1694C1377.53 1694 1708 1363.53 1708 955.5C1708 547.465 1377.53 217 969.5 217ZM969.5 1309.34C773.983 1309.34 615.658 1151.02 615.658 955.5C615.658 759.983 773.983 601.658 969.5 601.658C1165.02 601.658 1323.34 759.983 1323.34 955.5C1323.34 1151.02 1165.02 1309.34 969.5 1309.34Z"/></g><g fill="#ffffff" opacity="0.2"><path d="M1432 918.479L1616.48 734V918.479H1432Z"/><path d="M1616.48 918.479L1800.52 734V918.479H1616.48Z"/><path d="M1800.52 918.479L1985 734V918.479H1800.52Z"/><path d="M1432 1102.52L1616.48 918.479V1102.52H1432Z"/><path d="M1616.48 1102.52L1800.52 918.479V1102.52H1616.48Z"/><path d="M1800.52 1102.52L1985 918.479V1102.52H1800.52Z"/><path d="M499 154.521L683.479 -29.5215V154.521H499Z"/><path d="M683.479 154.521L867.521 -29.5215V154.521H683.479Z"/><path d="M867.521 154.521L1052 -29.5215V154.521H867.521Z"/><path d="M499 339L683.479 154.521V339H499Z"/><path d="M683.479 339L867.521 154.521V339H683.479Z"/><path d="M867.521 339L1052 154.521V339H867.521Z"/></g><g><path d="M178.635 139.281L184.422 144.246V166.626H215.704L219.958 172.147L215.69 177.397H184.422V198.795L178.635 203.747L173 198.795V144.232L178.635 139.281ZM195.554 195.68H219.406L223.397 200.915L219.143 206.45H195.554L191.7 201.342L195.554 195.68ZM196.382 138H219.129L223.383 143.52L219.129 148.77H196.659L192.115 143.677L196.382 138ZM323.155 148.628L328.251 154.291L323.155 159.968H246.13L241.172 154.291L246.13 148.628H323.155ZM237.043 172.147L241.849 167.893L246.669 172.147V178.393C246.669 188.879 249.417 197.515 261.668 197.515H264.14C275.147 197.515 281.197 189.86 281.197 177.952V172.005L285.879 167.75L290.699 171.862V178.379C290.699 189.007 293.723 196.946 305.56 196.946H307.618C319.178 196.946 321.235 187.869 321.373 177.952V171.578L326.056 167.608L331 171.72V178.094C330.862 191.838 327.285 207.574 308.032 207.574H305.974C294.552 207.574 288.365 202.324 285.892 195.808C283.006 202.466 275.299 208.286 264.844 208.286H262.358C242.553 208.286 237.194 195.964 237.056 178.663V172.147H237.043ZM276.391 274.744L273.642 267.089L280.796 264.969L305.974 276.721V252.491L311.07 248.095L316.291 252.491V281.829L325.641 286.226L328.251 293.311L320.959 296L276.391 274.744ZM321.235 223.011L328.113 226.27L325.917 233.497L264.002 263.119L256.571 260.146L259.596 252.776L321.235 223.011ZM231.905 263.404L237.954 268.512C237.402 286.51 222.403 296 204.669 296H202.874C194.062 296 183.759 292.6 177.157 286.083L177.834 278.855L184.298 278.002C189.118 282.256 195.858 285.229 202.183 285.229H204.117C216.091 285.229 225.303 280.136 226.27 268.085L231.905 263.404ZM226.256 251.638C225.704 239.16 216.629 234.209 204.103 234.209H202.169C194.739 234.209 189.104 237.182 184.284 241.436L177.834 240.583L177.143 233.355C183.745 226.696 192.957 223.58 202.597 223.58H204.517C222.403 223.58 237.402 232.942 237.94 251.211L231.891 256.176L226.256 251.638Z" fill="#ffffff"/></g><g fill="#ffffff" id="info-group"><path d="M167.0800 500L154.9000 500Q153.7800 500 152.8700 499.1600Q151.9600 498.3200 151.9600 497.0600L151.9600 497.0600Q151.9600 496.5000 152.2400 495.8000L152.2400 495.8000L185.9800 405.5000Q186.4000 404.1000 187.5900 403.0500Q188.7800 402 190.8800 402L190.8800 402L206.1400 402Q208.2400 402 209.3600 403.0500Q210.4800 404.1000 211.0400 405.5000L211.0400 405.5000L244.7800 495.8000Q244.9200 496.5000 244.9200 497.0600L244.9200 497.0600Q244.9200 498.3200 244.0800 499.1600Q243.2400 500 242.1200 500L242.1200 500L229.9400 500Q227.9800 500 227.0700 499.0900Q226.1600 498.1800 225.8800 497.3400L225.8800 497.3400L219.3000 480.2600L177.7200 480.2600L171.1400 497.3400Q170.8600 498.1800 169.9500 499.0900Q169.0400 500 167.0800 500L167.0800 500ZM198.4400 420.9000L182.6200 464.1600L214.4000 464.1600L198.4400 420.9000ZM283.2800 501.4000L283.2800 501.4000Q274.7400 501.4000 268.5100 497.5500Q262.2800 493.7000 258.9200 486.6300Q255.5600 479.5600 255.5600 469.9000L255.5600 469.9000L255.5600 430.5600Q255.5600 429.1600 256.5400 428.1800Q257.5200 427.2000 258.9200 427.2000L258.9200 427.2000L271.2400 427.2000Q272.7800 427.2000 273.6900 428.1800Q274.6000 429.1600 274.6000 430.5600L274.6000 430.5600L274.6000 469.0600Q274.6000 486.4200 289.8600 486.4200L289.8600 486.4200Q297.1400 486.4200 301.4100 481.8000Q305.6800 477.1800 305.6800 469.0600L305.6800 469.0600L305.6800 430.5600Q305.6800 429.1600 306.6600 428.1800Q307.6400 427.2000 309.0400 427.2000L309.0400 427.2000L321.3600 427.2000Q322.7600 427.2000 323.7400 428.1800Q324.7200 429.1600 324.7200 430.5600L324.7200 430.5600L324.7200 496.6400Q324.7200 498.0400 323.7400 499.0200Q322.7600 500 321.3600 500L321.3600 500L310.0200 500Q308.4800 500 307.5700 499.0200Q306.6600 498.0400 306.6600 496.6400L306.6600 496.6400L306.6600 490.9000Q302.8800 495.8000 297.2800 498.6000Q291.6800 501.4000 283.2800 501.4000ZM358.3200 500L346.7000 500Q345.3000 500 344.3200 499.0200Q343.3400 498.0400 343.3400 496.6400L343.3400 496.6400L343.3400 403.9600Q343.3400 402.5600 344.3200 401.5800Q345.3000 400.6000 346.7000 400.6000L346.7000 400.6000L358.3200 400.6000Q359.7200 400.6000 360.7000 401.5800Q361.6800 402.5600 361.6800 403.9600L361.6800 403.9600L361.6800 496.6400Q361.6800 498.0400 360.7000 499.0200Q359.7200 500 358.3200 500L358.3200 500ZM401.4400 501.4000L401.4400 501.4000Q394.1600 501.4000 388.2800 498.5300Q382.4000 495.6600 378.9700 490.8300Q375.5400 486 375.5400 479.9800L375.5400 479.9800Q375.5400 470.1800 383.5200 464.3700Q391.5000 458.5600 404.3800 456.6000L404.3800 456.6000L423.5600 453.8000L423.5600 450.8600Q423.5600 444.9800 420.6200 441.7600Q417.6800 438.5400 410.5400 438.5400L410.5400 438.5400Q405.5000 438.5400 402.3500 440.5700Q399.2000 442.6000 397.6600 445.9600L397.6600 445.9600Q396.5400 447.7800 394.4400 447.7800L394.4400 447.7800L383.3800 447.7800Q381.8400 447.7800 381.0700 446.9400Q380.3000 446.1000 380.3000 444.7000L380.3000 444.7000Q380.4400 442.4600 382.1900 439.2400Q383.9400 436.0200 387.5100 433.0100Q391.0800 430 396.8200 427.9000Q402.5600 425.8000 410.6800 425.8000L410.6800 425.8000Q419.5000 425.8000 425.5900 427.9700Q431.6800 430.1400 435.3200 433.7800Q438.9600 437.4200 440.6400 442.3200Q442.3200 447.2200 442.3200 452.6800L442.3200 452.6800L442.3200 496.6400Q442.3200 498.0400 441.3400 499.0200Q440.3600 500 438.9600 500L438.9600 500L427.6200 500Q426.0800 500 425.1700 499.0200Q424.2600 498.0400 424.2600 496.6400L424.2600 496.6400L424.2600 491.1800Q422.4400 493.7000 419.3600 496.0800Q416.2800 498.4600 411.8700 499.9300Q407.4600 501.4000 401.4400 501.4000ZM406.2000 488.1000L406.2000 488.1000Q411.1000 488.1000 415.0900 486Q419.0800 483.9000 421.3900 479.4900Q423.7000 475.0800 423.7000 468.3600L423.7000 468.3600L423.7000 465.4200L409.7000 467.6600Q401.4400 468.9200 397.3800 471.7200Q393.3200 474.5200 393.3200 478.5800L393.3200 478.5800Q393.3200 481.6600 395.2100 483.8300Q397.1000 486 400.0400 487.0500Q402.9800 488.1000 406.2000 488.1000ZM516.1000 500L503.3600 500Q502.1000 500 501.2600 499.0900Q500.4200 498.1800 500.4200 496.9200L500.4200 496.9200Q500.4200 496.3600 500.7000 495.6600L500.7000 495.6600L534.4400 418.6600L490.4800 418.6600Q488.9400 418.6600 488.0300 417.6800Q487.1200 416.7000 487.1200 415.3000L487.1200 415.3000L487.1200 405.5000Q487.1200 403.9600 488.0300 402.9800Q488.9400 402 490.4800 402L490.4800 402L551.9400 402Q553.4800 402 554.3900 402.9800Q555.3000 403.9600 555.3000 405.5000L555.3000 405.5000L555.3000 414.1800Q555.3000 416.1400 554.9500 417.4700Q554.6000 418.8000 554.0400 420.2000L554.0400 420.2000L520.5800 496.6400Q520.1600 497.6200 519.1100 498.8100Q518.0600 500 516.1000 500L516.1000 500ZM585.1200 451L571.2600 451Q569.8600 451 568.8800 450.0200Q567.9000 449.0400 567.9000 447.6400L567.9000 447.6400L567.9000 434.3400Q567.9000 432.8000 568.8800 431.8200Q569.8600 430.8400 571.2600 430.8400L571.2600 430.8400L585.1200 430.8400Q586.6600 430.8400 587.6400 431.8200Q588.6200 432.8000 588.6200 434.3400L588.6200 434.3400L588.6200 447.6400Q588.6200 449.0400 587.6400 450.0200Q586.6600 451 585.1200 451L585.1200 451ZM585.1200 500L571.2600 500Q569.8600 500 568.8800 499.0200Q567.9000 498.0400 567.9000 496.6400L567.9000 496.6400L567.9000 483.3400Q567.9000 481.8000 568.8800 480.8200Q569.8600 479.8400 571.2600 479.8400L571.2600 479.8400L585.1200 479.8400Q586.6600 479.8400 587.6400 480.8200Q588.6200 481.8000 588.6200 483.3400L588.6200 483.3400L588.6200 496.6400Q588.6200 498.0400 587.6400 499.0200Q586.6600 500 585.1200 500L585.1200 500ZM678.2200 501.4000L678.2200 501.4000Q665.2000 501.4000 656.1700 496.8500Q647.1400 492.3000 642.3800 483.8300Q637.6200 475.3600 637.0600 463.4600L637.0600 463.4600Q636.9200 457.7200 636.9200 451.1400Q636.9200 444.5600 637.0600 438.5400L637.0600 438.5400Q637.6200 426.7800 642.4500 418.2400Q647.2800 409.7000 656.3100 405.1500Q665.3400 400.6000 678.2200 400.6000L678.2200 400.6000Q687.7400 400.6000 695.3000 403.1200Q702.8600 405.6400 708.1800 410.0500Q713.5000 414.4600 716.4400 420.3400Q719.3800 426.2200 719.5200 433.0800L719.5200 433.0800Q719.6600 434.3400 718.7500 435.1800Q717.8400 436.0200 716.5800 436.0200L716.5800 436.0200L703.2800 436.0200Q701.7400 436.0200 700.7600 435.2500Q699.7800 434.4800 699.3600 432.6600L699.3600 432.6600Q697.1200 423.4200 691.6600 420.0600Q686.2000 416.7000 678.0800 416.7000L678.0800 416.7000Q668.7000 416.7000 663.1000 421.9500Q657.5000 427.2000 657.0800 439.2400L657.0800 439.2400Q656.6600 450.7200 657.0800 462.7600L657.0800 462.7600Q657.5000 474.8000 663.1000 480.0500Q668.7000 485.3000 678.0800 485.3000L678.0800 485.3000Q686.2000 485.3000 691.7300 481.8700Q697.2600 478.4400 699.3600 469.3400L699.3600 469.3400Q699.7800 467.3800 700.7600 466.6800Q701.7400 465.9800 703.2800 465.9800L703.2800 465.9800L716.5800 465.9800Q717.8400 465.9800 718.7500 466.8200Q719.6600 467.6600 719.5200 468.9200L719.5200 468.9200Q719.3800 475.7800 716.4400 481.6600Q713.5000 487.5400 708.1800 491.9500Q702.8600 496.3600 695.3000 498.8800Q687.7400 501.4000 678.2200 501.4000ZM766.7000 501.4000L766.7000 501.4000Q755.5000 501.4000 747.8700 497.4800Q740.2400 493.5600 736.2500 486.4200Q732.2600 479.2800 731.7000 469.7600L731.7000 469.7600Q731.5600 467.2400 731.5600 463.6000Q731.5600 459.9600 731.7000 457.4400L731.7000 457.4400Q732.2600 447.7800 736.3900 440.7100Q740.5200 433.6400 748.1500 429.7200Q755.7800 425.8000 766.7000 425.8000L766.7000 425.8000Q777.6200 425.8000 785.2500 429.7200Q792.8800 433.6400 797.0100 440.7100Q801.1400 447.7800 801.7000 457.4400L801.7000 457.4400Q801.8400 459.9600 801.8400 463.6000Q801.8400 467.2400 801.7000 469.7600L801.7000 469.7600Q801.1400 479.2800 797.1500 486.4200Q793.1600 493.5600 785.5300 497.4800Q777.9000 501.4000 766.7000 501.4000ZM766.7000 487.5400L766.7000 487.5400Q774.1200 487.5400 778.1800 482.8500Q782.2400 478.1600 782.6600 469.0600L782.6600 469.0600Q782.8000 466.9600 782.8000 463.6000Q782.8000 460.2400 782.6600 458.1400L782.6600 458.1400Q782.2400 449.0400 778.1800 444.3500Q774.1200 439.6600 766.7000 439.6600L766.7000 439.6600Q759.2800 439.6600 755.2200 444.3500Q751.1600 449.0400 750.7400 458.1400L750.7400 458.1400Q750.6000 460.2400 750.6000 463.6000Q750.6000 466.9600 750.7400 469.0600L750.7400 469.0600Q751.1600 478.1600 755.2200 482.8500Q759.2800 487.5400 766.7000 487.5400ZM832.5000 500L820.7400 500Q819.3400 500 818.3600 499.0200Q817.3800 498.0400 817.3800 496.6400L817.3800 496.6400L817.3800 430.5600Q817.3800 429.1600 818.3600 428.1800Q819.3400 427.2000 820.7400 427.2000L820.7400 427.2000L831.6600 427.2000Q833.0600 427.2000 834.0400 428.1800Q835.0200 429.1600 835.0200 430.5600L835.0200 430.5600L835.0200 435.3200Q837.9600 431.4000 842.9300 428.6700Q847.9000 425.9400 854.7600 425.8000L854.7600 425.8000Q870.7200 425.5200 877.0200 438.2600L877.0200 438.2600Q880.2400 432.6600 886.3300 429.2300Q892.4200 425.8000 899.8400 425.8000L899.8400 425.8000Q907.1200 425.8000 913.0700 429.1600Q919.0200 432.5200 922.4500 439.3100Q925.8800 446.1000 925.8800 456.4600L925.8800 456.4600L925.8800 496.6400Q925.8800 498.0400 924.9000 499.0200Q923.9200 500 922.5200 500L922.5200 500L911.0400 500Q909.6400 500 908.6600 499.0200Q907.6800 498.0400 907.6800 496.6400L907.6800 496.6400L907.6800 457.5800Q907.6800 451.2800 905.8600 447.5700Q904.0400 443.8600 900.9600 442.3200Q897.8800 440.7800 894.1000 440.7800L894.1000 440.7800Q891.0200 440.7800 887.9400 442.3200Q884.8600 443.8600 882.9000 447.5700Q880.9400 451.2800 880.9400 457.5800L880.9400 457.5800L880.9400 496.6400Q880.9400 498.0400 879.9600 499.0200Q878.9800 500 877.5800 500L877.5800 500L866.1000 500Q864.7000 500 863.7200 499.0200Q862.7400 498.0400 862.7400 496.6400L862.7400 496.6400L862.7400 457.5800Q862.7400 451.2800 860.7800 447.5700Q858.8200 443.8600 855.7400 442.3200Q852.6600 440.7800 849.1600 440.7800L849.1600 440.7800Q845.9400 440.7800 842.8600 442.3900Q839.7800 444 837.8200 447.6400Q835.8600 451.2800 835.8600 457.5800L835.8600 457.5800L835.8600 496.6400Q835.8600 498.0400 834.8800 499.0200Q833.9000 500 832.5000 500L832.5000 500ZM975.8600 501.4000L975.8600 501.4000Q964.6600 501.4000 957.0300 497.4800Q949.4000 493.5600 945.4100 486.4200Q941.4200 479.2800 940.8600 469.7600L940.8600 469.7600Q940.7200 467.2400 940.7200 463.6000Q940.7200 459.9600 940.8600 457.4400L940.8600 457.4400Q941.4200 447.7800 945.5500 440.7100Q949.6800 433.6400 957.3100 429.7200Q964.9400 425.8000 975.8600 425.8000L975.8600 425.8000Q986.7800 425.8000 994.4100 429.7200Q1002.0400 433.6400 1006.1700 440.7100Q1010.3000 447.7800 1010.8600 457.4400L1010.8600 457.4400Q1011 459.9600 1011 463.6000Q1011 467.2400 1010.8600 469.7600L1010.8600 469.7600Q1010.3000 479.2800 1006.3100 486.4200Q1002.3200 493.5600 994.6900 497.4800Q987.0600 501.4000 975.8600 501.4000ZM975.8600 487.5400L975.8600 487.5400Q983.2800 487.5400 987.3400 482.8500Q991.4000 478.1600 991.8200 469.0600L991.8200 469.0600Q991.9600 466.9600 991.9600 463.6000Q991.9600 460.2400 991.8200 458.1400L991.8200 458.1400Q991.4000 449.0400 987.3400 444.3500Q983.2800 439.6600 975.8600 439.6600L975.8600 439.6600Q968.4400 439.6600 964.3800 444.3500Q960.3200 449.0400 959.9000 458.1400L959.9000 458.1400Q959.7600 460.2400 959.7600 463.6000Q959.7600 466.9600 959.9000 469.0600L959.9000 469.0600Q960.3200 478.1600 964.3800 482.8500Q968.4400 487.5400 975.8600 487.5400ZM186.2600 641.4000L186.2600 641.4000Q177.7200 641.4000 171.4900 637.5500Q165.2600 633.7000 161.9000 626.6300Q158.5400 619.5600 158.5400 609.9000L158.5400 609.9000L158.5400 570.5600Q158.5400 569.1600 159.5200 568.1800Q160.5000 567.2000 161.9000 567.2000L161.9000 567.2000L174.2200 567.2000Q175.7600 567.2000 176.6700 568.1800Q177.5800 569.1600 177.5800 570.5600L177.5800 570.5600L177.5800 609.0600Q177.5800 626.4200 192.8400 626.4200L192.8400 626.4200Q200.1200 626.4200 204.3900 621.8000Q208.6600 617.1800 208.6600 609.0600L208.6600 609.0600L208.6600 570.5600Q208.6600 569.1600 209.6400 568.1800Q210.6200 567.2000 212.0200 567.2000L212.0200 567.2000L224.3400 567.2000Q225.7400 567.2000 226.7200 568.1800Q227.7000 569.1600 227.7000 570.5600L227.7000 570.5600L227.7000 636.6400Q227.7000 638.0400 226.7200 639.0200Q225.7400 640 224.3400 640L224.3400 640L213 640Q211.4600 640 210.5500 639.0200Q209.6400 638.0400 209.6400 636.6400L209.6400 636.6400L209.6400 630.9000Q205.8600 635.8000 200.2600 638.6000Q194.6600 641.4000 186.2600 641.4000ZM290.4200 640L279.0800 640Q270.6800 640 264.9400 637.0600Q259.2000 634.1200 256.4000 628.3100Q253.6000 622.5000 253.6000 613.8200L253.6000 613.8200L253.6000 582.0400L242.5400 582.0400Q241.1400 582.0400 240.1600 581.0600Q239.1800 580.0800 239.1800 578.5400L239.1800 578.5400L239.1800 570.5600Q239.1800 569.1600 240.1600 568.1800Q241.1400 567.2000 242.5400 567.2000L242.5400 567.2000L253.6000 567.2000L253.6000 543.9600Q253.6000 542.5600 254.5100 541.5800Q255.4200 540.6000 256.9600 540.6000L256.9600 540.6000L268.3000 540.6000Q269.7000 540.6000 270.6800 541.5800Q271.6600 542.5600 271.6600 543.9600L271.6600 543.9600L271.6600 567.2000L289.1600 567.2000Q290.5600 567.2000 291.5400 568.1800Q292.5200 569.1600 292.5200 570.5600L292.5200 570.5600L292.5200 578.5400Q292.5200 580.0800 291.5400 581.0600Q290.5600 582.0400 289.1600 582.0400L289.1600 582.0400L271.6600 582.0400L271.6600 612.4200Q271.6600 618.1600 273.6900 621.3800Q275.7200 624.6000 280.7600 624.6000L280.7600 624.6000L290.4200 624.6000Q291.8200 624.6000 292.8000 625.5800Q293.7800 626.5600 293.7800 627.9600L293.7800 627.9600L293.7800 636.6400Q293.7800 638.0400 292.8000 639.0200Q291.8200 640 290.4200 640L290.4200 640ZM321.2200 640L309.6000 640Q308.2000 640 307.2200 639.0200Q306.2400 638.0400 306.2400 636.6400L306.2400 636.6400L306.2400 570.5600Q306.2400 569.1600 307.2200 568.1800Q308.2000 567.2000 309.6000 567.2000L309.6000 567.2000L321.2200 567.2000Q322.7600 567.2000 323.6700 568.1800Q324.5800 569.1600 324.5800 570.5600L324.5800 570.5600L324.5800 636.6400Q324.5800 638.0400 323.6700 639.0200Q322.7600 640 321.2200 640L321.2200 640ZM321.7800 555.1600L309.0400 555.1600Q307.6400 555.1600 306.6600 554.1800Q305.6800 553.2000 305.6800 551.8000L305.6800 551.8000L305.6800 541.7200Q305.6800 540.3200 306.6600 539.3400Q307.6400 538.3600 309.0400 538.3600L309.0400 538.3600L321.7800 538.3600Q323.3200 538.3600 324.3000 539.3400Q325.2800 540.3200 325.2800 541.7200L325.2800 541.7200L325.2800 551.8000Q325.2800 553.2000 324.3000 554.1800Q323.3200 555.1600 321.7800 555.1600L321.7800 555.1600ZM358.3200 640L346.7000 640Q345.3000 640 344.3200 639.0200Q343.3400 638.0400 343.3400 636.6400L343.3400 636.6400L343.3400 543.9600Q343.3400 542.5600 344.3200 541.5800Q345.3000 540.6000 346.7000 540.6000L346.7000 540.6000L358.3200 540.6000Q359.7200 540.6000 360.7000 541.5800Q361.6800 542.5600 361.6800 543.9600L361.6800 543.9600L361.6800 636.6400Q361.6800 638.0400 360.7000 639.0200Q359.7200 640 358.3200 640L358.3200 640ZM395.2800 640L383.6600 640Q382.2600 640 381.2800 639.0200Q380.3000 638.0400 380.3000 636.6400L380.3000 636.6400L380.3000 570.5600Q380.3000 569.1600 381.2800 568.1800Q382.2600 567.2000 383.6600 567.2000L383.6600 567.2000L395.2800 567.2000Q396.8200 567.2000 397.7300 568.1800Q398.6400 569.1600 398.6400 570.5600L398.6400 570.5600L398.6400 636.6400Q398.6400 638.0400 397.7300 639.0200Q396.8200 640 395.2800 640L395.2800 640ZM395.8400 555.1600L383.1000 555.1600Q381.7000 555.1600 380.7200 554.1800Q379.7400 553.2000 379.7400 551.8000L379.7400 551.8000L379.7400 541.7200Q379.7400 540.3200 380.7200 539.3400Q381.7000 538.3600 383.1000 538.3600L383.1000 538.3600L395.8400 538.3600Q397.3800 538.3600 398.3600 539.3400Q399.3400 540.3200 399.3400 541.7200L399.3400 541.7200L399.3400 551.8000Q399.3400 553.2000 398.3600 554.1800Q397.3800 555.1600 395.8400 555.1600L395.8400 555.1600ZM474.1000 640L416.9800 640Q415.4400 640 414.5300 639.0200Q413.6200 638.0400 413.6200 636.6400L413.6200 636.6400L413.6200 628.6600Q413.6200 627.4000 414.2500 626.2100Q414.8800 625.0200 415.5800 624.1800L415.5800 624.1800L451.4200 581.7600L418.1000 581.7600Q416.7000 581.7600 415.7200 580.8500Q414.7400 579.9400 414.7400 578.4000L414.7400 578.4000L414.7400 570.5600Q414.7400 569.1600 415.7200 568.1800Q416.7000 567.2000 418.1000 567.2000L418.1000 567.2000L471.1600 567.2000Q472.7000 567.2000 473.6100 568.1800Q474.5200 569.1600 474.5200 570.5600L474.5200 570.5600L474.5200 579.1000Q474.5200 580.3600 473.9600 581.3400Q473.4000 582.3200 472.5600 583.3000L472.5600 583.3000L437.5600 625.4400L474.1000 625.4400Q475.5000 625.4400 476.4800 626.3500Q477.4600 627.2600 477.4600 628.8000L477.4600 628.8000L477.4600 636.6400Q477.4600 638.0400 476.4800 639.0200Q475.5000 640 474.1000 640L474.1000 640ZM512.7400 641.4000L512.7400 641.4000Q505.4600 641.4000 499.5800 638.5300Q493.7000 635.6600 490.2700 630.8300Q486.8400 626 486.8400 619.9800L486.8400 619.9800Q486.8400 610.1800 494.8200 604.3700Q502.8000 598.5600 515.6800 596.6000L515.6800 596.6000L534.8600 593.8000L534.8600 590.8600Q534.8600 584.9800 531.9200 581.7600Q528.9800 578.5400 521.8400 578.5400L521.8400 578.5400Q516.8000 578.5400 513.6500 580.5700Q510.5000 582.6000 508.9600 585.9600L508.9600 585.9600Q507.8400 587.7800 505.7400 587.7800L505.7400 587.7800L494.6800 587.7800Q493.1400 587.7800 492.3700 586.9400Q491.6000 586.1000 491.6000 584.7000L491.6000 584.7000Q491.7400 582.4600 493.4900 579.2400Q495.2400 576.0200 498.8100 573.0100Q502.3800 570 508.1200 567.9000Q513.8600 565.8000 521.9800 565.8000L521.9800 565.8000Q530.8000 565.8000 536.8900 567.9700Q542.9800 570.1400 546.6200 573.7800Q550.2600 577.4200 551.9400 582.3200Q553.6200 587.2200 553.6200 592.6800L553.6200 592.6800L553.6200 636.6400Q553.6200 638.0400 552.6400 639.0200Q551.6600 640 550.2600 640L550.2600 640L538.9200 640Q537.3800 640 536.4700 639.0200Q535.5600 638.0400 535.5600 636.6400L535.5600 636.6400L535.5600 631.1800Q533.7400 633.7000 530.6600 636.0800Q527.5800 638.4600 523.1700 639.9300Q518.7600 641.4000 512.7400 641.4000ZM517.5000 628.1000L517.5000 628.1000Q522.4000 628.1000 526.3900 626Q530.3800 623.9000 532.6900 619.4900Q535 615.0800 535 608.3600L535 608.3600L535 605.4200L521 607.6600Q512.7400 608.9200 508.6800 611.7200Q504.6200 614.5200 504.6200 618.5800L504.6200 618.5800Q504.6200 621.6600 506.5100 623.8300Q508.4000 626 511.3400 627.0500Q514.2800 628.1000 517.5000 628.1000ZM587.0800 640L574.9000 640Q573.5000 640 572.5200 639.0200Q571.5400 638.0400 571.5400 636.6400L571.5400 636.6400L571.5400 570.7000Q571.5400 569.1600 572.5200 568.1800Q573.5000 567.2000 574.9000 567.2000L574.9000 567.2000L586.2400 567.2000Q587.6400 567.2000 588.6900 568.1800Q589.7400 569.1600 589.7400 570.7000L589.7400 570.7000L589.7400 576.4400Q592.9600 571.9600 598.0700 569.5800Q603.1800 567.2000 609.9000 567.2000L609.9000 567.2000L615.6400 567.2000Q617.1800 567.2000 618.0900 568.1800Q619.0000 569.1600 619.0000 570.5600L619.0000 570.5600L619.0000 580.6400Q619.0000 582.0400 618.0900 583.0200Q617.1800 584 615.6400 584L615.6400 584L604.7200 584Q598.0000 584 594.2900 587.7100Q590.5800 591.4200 590.5800 598.1400L590.5800 598.1400L590.5800 636.6400Q590.5800 638.0400 589.6000 639.0200Q588.6200 640 587.0800 640L587.0800 640ZM694.1800 641.4000L694.1800 641.4000Q682.9800 641.4000 675.3500 637.4800Q667.7200 633.5600 663.7300 626.4200Q659.7400 619.2800 659.1800 609.7600L659.1800 609.7600Q659.0400 607.2400 659.0400 603.6000Q659.0400 599.9600 659.1800 597.4400L659.1800 597.4400Q659.7400 587.7800 663.8700 580.7100Q668 573.6400 675.6300 569.7200Q683.2600 565.8000 694.1800 565.8000L694.1800 565.8000Q705.1000 565.8000 712.7300 569.7200Q720.3600 573.6400 724.4900 580.7100Q728.6200 587.7800 729.1800 597.4400L729.1800 597.4400Q729.3200 599.9600 729.3200 603.6000Q729.3200 607.2400 729.1800 609.7600L729.1800 609.7600Q728.6200 619.2800 724.6300 626.4200Q720.6400 633.5600 713.0100 637.4800Q705.3800 641.4000 694.1800 641.4000ZM694.1800 627.5400L694.1800 627.5400Q701.6000 627.5400 705.6600 622.8500Q709.7200 618.1600 710.1400 609.0600L710.1400 609.0600Q710.2800 606.9600 710.2800 603.6000Q710.2800 600.2400 710.1400 598.1400L710.1400 598.1400Q709.7200 589.0400 705.6600 584.3500Q701.6000 579.6600 694.1800 579.6600L694.1800 579.6600Q686.7600 579.6600 682.7000 584.3500Q678.6400 589.0400 678.2200 598.1400L678.2200 598.1400Q678.0800 600.2400 678.0800 603.6000Q678.0800 606.9600 678.2200 609.0600L678.2200 609.0600Q678.6400 618.1600 682.7000 622.8500Q686.7600 627.5400 694.1800 627.5400ZM816.8200 640L781.9600 640Q780.5600 640 779.5800 639.0200Q778.6000 638.0400 778.6000 636.6400L778.6000 636.6400L778.6000 545.5000Q778.6000 543.9600 779.5800 542.9800Q780.5600 542 781.9600 542L781.9600 542L816.1200 542Q830.2600 542 839.4300 546.3400Q848.6000 550.6800 853.2900 559.2200Q857.9800 567.7600 858.1200 580.0800L858.1200 580.0800Q858.4000 586.2400 858.4000 591Q858.4000 595.7600 858.1200 601.7800L858.1200 601.7800Q857.8400 614.8000 853.3600 623.2700Q848.8800 631.7400 839.8500 635.8700Q830.8200 640 816.8200 640L816.8200 640ZM798.0600 558.1000L798.0600 623.9000L816.1200 623.9000Q823.9600 623.9000 828.8600 621.6600Q833.7600 619.4200 836.0700 614.4500Q838.3800 609.4800 838.5200 601.3600L838.5200 601.3600Q838.6600 597.1600 838.7300 594.0100Q838.8000 590.8600 838.7300 587.7100Q838.6600 584.5600 838.5200 580.5000L838.5200 580.5000Q838.2400 569.0200 832.7800 563.5600Q827.3200 558.1000 815.4200 558.1000L815.4200 558.1000L798.0600 558.1000ZM922.1000 640L880.3800 640Q878.9800 640 878.0000 639.0200Q877.0200 638.0400 877.0200 636.6400L877.0200 636.6400L877.0200 545.5000Q877.0200 543.9600 878.0000 542.9800Q878.9800 542 880.3800 542L880.3800 542L920.9800 542Q932.3200 542 939.4600 545.4300Q946.6000 548.8600 950.0300 554.8800Q953.4600 560.9000 953.4600 568.8800L953.4600 568.8800Q953.4600 574.2000 951.5700 578.1900Q949.6800 582.1800 946.9500 584.7000Q944.2200 587.2200 941.5600 588.6200L941.5600 588.6200Q947.0200 591.1400 951.2200 597.0200Q955.4200 602.9000 955.4200 611.0200L955.4200 611.0200Q955.4200 619.4200 951.6400 626Q947.8600 632.5800 940.4400 636.2900Q933.0200 640 922.1000 640L922.1000 640ZM896.4800 596.7400L896.4800 625.1600L919.8600 625.1600Q927.4200 625.1600 931.3400 621.0300Q935.2600 616.9000 935.2600 611.0200L935.2600 611.0200Q935.2600 604.8600 931.2700 600.8000Q927.2800 596.7400 919.8600 596.7400L919.8600 596.7400L896.4800 596.7400ZM896.4800 556.7000L896.4800 582.1800L918.4600 582.1800Q925.8800 582.1800 929.5900 578.6100Q933.3000 575.0400 933.3000 569.3000L933.3000 569.3000Q933.3000 563.4200 929.5900 560.0600Q925.8800 556.7000 918.4600 556.7000L918.4600 556.7000L896.4800 556.7000ZM1002.7400 641.4000L1002.7400 641.4000Q987.2000 641.4000 978.1000 632.4400Q969.0000 623.4800 968.3000 606.9600L968.3000 606.9600Q968.1600 605.5600 968.1600 603.3900Q968.1600 601.2200 968.3000 599.9600L968.3000 599.9600Q968.8600 589.3200 973.1300 581.6900Q977.4000 574.0600 984.9600 569.9300Q992.5200 565.8000 1002.7400 565.8000L1002.7400 565.8000Q1014.0800 565.8000 1021.7800 570.4900Q1029.4800 575.1800 1033.4000 583.5100Q1037.3200 591.8400 1037.3200 602.7600L1037.3200 602.7600L1037.3200 605.7000Q1037.3200 607.1000 1036.3400 608.0800Q1035.3600 609.0600 1033.8200 609.0600L1033.8200 609.0600L987.3400 609.0600Q987.3400 609.0600 987.3400 609.4800Q987.3400 609.9000 987.3400 610.1800L987.3400 610.1800Q987.4800 615.0800 989.2300 619.2100Q990.9800 623.3400 994.4100 625.8600Q997.8400 628.3800 1002.6000 628.3800L1002.6000 628.3800Q1006.5200 628.3800 1009.1800 627.1900Q1011.8400 626 1013.5200 624.4600Q1015.2000 622.9200 1015.9000 621.9400L1015.9000 621.9400Q1017.1600 620.2600 1017.9300 619.9100Q1018.7000 619.5600 1020.2400 619.5600L1020.2400 619.5600L1032.2800 619.5600Q1033.6800 619.5600 1034.5900 620.4000Q1035.5000 621.2400 1035.3600 622.5000L1035.3600 622.5000Q1035.2200 624.7400 1033.0500 627.9600Q1030.8800 631.1800 1026.8200 634.2600Q1022.7600 637.3400 1016.6700 639.3700Q1010.5800 641.4000 1002.7400 641.4000ZM987.3400 596.8800L987.3400 597.3000L1018.2800 597.3000L1018.2800 596.8800Q1018.2800 591.4200 1016.4600 587.2900Q1014.6400 583.1600 1011.1400 580.8500Q1007.6400 578.5400 1002.7400 578.5400L1002.7400 578.5400Q997.8400 578.5400 994.3400 580.8500Q990.8400 583.1600 989.0900 587.2900Q987.3400 591.4200 987.3400 596.8800L987.3400 596.8800ZM1073.3000 641.4000L1073.3000 641.4000Q1066.0200 641.4000 1060.1400 638.5300Q1054.2600 635.6600 1050.8300 630.8300Q1047.4000 626 1047.4000 619.9800L1047.4000 619.9800Q1047.4000 610.1800 1055.3800 604.3700Q1063.3600 598.5600 1076.2400 596.6000L1076.2400 596.6000L1095.4200 593.8000L1095.4200 590.8600Q1095.4200 584.9800 1092.4800 581.7600Q1089.5400 578.5400 1082.4000 578.5400L1082.4000 578.5400Q1077.3600 578.5400 1074.2100 580.5700Q1071.0600 582.6000 1069.5200 585.9600L1069.5200 585.9600Q1068.4000 587.7800 1066.3000 587.7800L1066.3000 587.7800L1055.2400 587.7800Q1053.7000 587.7800 1052.9300 586.9400Q1052.1600 586.1000 1052.1600 584.7000L1052.1600 584.7000Q1052.3000 582.4600 1054.0500 579.2400Q1055.8000 576.0200 1059.3700 573.0100Q1062.9400 570 1068.6800 567.9000Q1074.4200 565.8000 1082.5400 565.8000L1082.5400 565.8000Q1091.3600 565.8000 1097.4500 567.9700Q1103.5400 570.1400 1107.1800 573.7800Q1110.8200 577.4200 1112.5000 582.3200Q1114.1800 587.2200 1114.1800 592.6800L1114.1800 592.6800L1114.1800 636.6400Q1114.1800 638.0400 1113.2000 639.0200Q1112.2200 640 1110.8200 640L1110.8200 640L1099.4800 640Q1097.9400 640 1097.0300 639.0200Q1096.1200 638.0400 1096.1200 636.6400L1096.1200 636.6400L1096.1200 631.1800Q1094.3000 633.7000 1091.2200 636.0800Q1088.1400 638.4600 1083.7300 639.9300Q1079.3200 641.4000 1073.3000 641.4000ZM1078.0600 628.1000L1078.0600 628.1000Q1082.9600 628.1000 1086.9500 626Q1090.9400 623.9000 1093.2500 619.4900Q1095.5600 615.0800 1095.5600 608.3600L1095.5600 608.3600L1095.5600 605.4200L1081.5600 607.6600Q1073.3000 608.9200 1069.2400 611.7200Q1065.1800 614.5200 1065.1800 618.5800L1065.1800 618.5800Q1065.1800 621.6600 1067.0700 623.8300Q1068.9600 626 1071.9000 627.0500Q1074.8400 628.1000 1078.0600 628.1000ZM1168.2200 640L1157.8600 640Q1155.6200 640 1154.5700 638.9500Q1153.5200 637.9000 1152.8200 636.5000L1152.8200 636.5000L1126.6400 571.5400Q1126.3600 570.8400 1126.3600 570.2800L1126.3600 570.2800Q1126.3600 569.0200 1127.2700 568.1100Q1128.1800 567.2000 1129.4400 567.2000L1129.4400 567.2000L1140.7800 567.2000Q1142.4600 567.2000 1143.3000 568.1100Q1144.1400 569.0200 1144.4200 569.8600L1144.4200 569.8600L1163.0400 619L1181.6600 569.8600Q1181.9400 569.0200 1182.7800 568.1100Q1183.6200 567.2000 1185.3000 567.2000L1185.3000 567.2000L1196.7800 567.2000Q1197.9000 567.2000 1198.8100 568.1100Q1199.7200 569.0200 1199.7200 570.2800L1199.7200 570.2800Q1199.7200 570.8400 1199.5800 571.5400L1199.5800 571.5400L1173.2600 636.5000Q1172.7000 637.9000 1171.5800 638.9500Q1170.4600 640 1168.2200 640L1168.2200 640ZM1243.8200 641.4000L1243.8200 641.4000Q1228.2800 641.4000 1219.1800 632.4400Q1210.0800 623.4800 1209.3800 606.9600L1209.3800 606.9600Q1209.2400 605.5600 1209.2400 603.3900Q1209.2400 601.2200 1209.3800 599.9600L1209.3800 599.9600Q1209.9400 589.3200 1214.2100 581.6900Q1218.4800 574.0600 1226.0400 569.9300Q1233.6000 565.8000 1243.8200 565.8000L1243.8200 565.8000Q1255.1600 565.8000 1262.8600 570.4900Q1270.5600 575.1800 1274.4800 583.5100Q1278.4000 591.8400 1278.4000 602.7600L1278.4000 602.7600L1278.4000 605.7000Q1278.4000 607.1000 1277.4200 608.0800Q1276.4400 609.0600 1274.9000 609.0600L1274.9000 609.0600L1228.4200 609.0600Q1228.4200 609.0600 1228.4200 609.4800Q1228.4200 609.9000 1228.4200 610.1800L1228.4200 610.1800Q1228.5600 615.0800 1230.3100 619.2100Q1232.0600 623.3400 1235.4900 625.8600Q1238.9200 628.3800 1243.6800 628.3800L1243.6800 628.3800Q1247.6000 628.3800 1250.2600 627.1900Q1252.9200 626 1254.6000 624.4600Q1256.2800 622.9200 1256.9800 621.9400L1256.9800 621.9400Q1258.2400 620.2600 1259.0100 619.9100Q1259.7800 619.5600 1261.3200 619.5600L1261.3200 619.5600L1273.3600 619.5600Q1274.7600 619.5600 1275.6700 620.4000Q1276.5800 621.2400 1276.4400 622.5000L1276.4400 622.5000Q1276.3000 624.7400 1274.1300 627.9600Q1271.9600 631.1800 1267.9000 634.2600Q1263.8400 637.3400 1257.7500 639.3700Q1251.6600 641.4000 1243.8200 641.4000ZM1228.4200 596.8800L1228.4200 597.3000L1259.3600 597.3000L1259.3600 596.8800Q1259.3600 591.4200 1257.5400 587.2900Q1255.7200 583.1600 1252.2200 580.8500Q1248.7200 578.5400 1243.8200 578.5400L1243.8200 578.5400Q1238.9200 578.5400 1235.4200 580.8500Q1231.9200 583.1600 1230.1700 587.2900Q1228.4200 591.4200 1228.4200 596.8800L1228.4200 596.8800ZM1308.7800 640L1296.6000 640Q1295.2000 640 1294.2200 639.0200Q1293.2400 638.0400 1293.2400 636.6400L1293.2400 636.6400L1293.2400 570.7000Q1293.2400 569.1600 1294.2200 568.1800Q1295.2000 567.2000 1296.6000 567.2000L1296.6000 567.2000L1307.9400 567.2000Q1309.3400 567.2000 1310.3900 568.1800Q1311.4400 569.1600 1311.4400 570.7000L1311.4400 570.7000L1311.4400 576.4400Q1314.6600 571.9600 1319.7700 569.5800Q1324.8800 567.2000 1331.6000 567.2000L1331.6000 567.2000L1337.3400 567.2000Q1338.8800 567.2000 1339.7900 568.1800Q1340.7000 569.1600 1340.7000 570.5600L1340.7000 570.5600L1340.7000 580.6400Q1340.7000 582.0400 1339.7900 583.0200Q1338.8800 584 1337.3400 584L1337.3400 584L1326.4200 584Q1319.7000 584 1315.9900 587.7100Q1312.2800 591.4200 1312.2800 598.1400L1312.2800 598.1400L1312.2800 636.6400Q1312.2800 638.0400 1311.3000 639.0200Q1310.3200 640 1308.7800 640L1308.7800 640ZM191.4400 781.4000L191.4400 781.4000Q180.2400 781.4000 172.6100 777.4800Q164.9800 773.5600 160.9900 766.4200Q157 759.2800 156.4400 749.7600L156.4400 749.7600Q156.3000 747.2400 156.3000 743.6000Q156.3000 739.9600 156.4400 737.4400L156.4400 737.4400Q157 727.7800 161.1300 720.7100Q165.2600 713.6400 172.8900 709.7200Q180.5200 705.8000 191.4400 705.8000L191.4400 705.8000Q202.3600 705.8000 209.9900 709.7200Q217.6200 713.6400 221.7500 720.7100Q225.8800 727.7800 226.4400 737.4400L226.4400 737.4400Q226.5800 739.9600 226.5800 743.6000Q226.5800 747.2400 226.4400 749.7600L226.4400 749.7600Q225.8800 759.2800 221.8900 766.4200Q217.9000 773.5600 210.2700 777.4800Q202.6400 781.4000 191.4400 781.4000ZM191.4400 767.5400L191.4400 767.5400Q198.8600 767.5400 202.9200 762.8500Q206.9800 758.1600 207.4000 749.0600L207.4000 749.0600Q207.5400 746.9600 207.5400 743.6000Q207.5400 740.2400 207.4000 738.1400L207.4000 738.1400Q206.9800 729.0400 202.9200 724.3500Q198.8600 719.6600 191.4400 719.6600L191.4400 719.6600Q184.0200 719.6600 179.9600 724.3500Q175.9000 729.0400 175.4800 738.1400L175.4800 738.1400Q175.3400 740.2400 175.3400 743.6000Q175.3400 746.9600 175.4800 749.0600L175.4800 749.0600Q175.9000 758.1600 179.9600 762.8500Q184.0200 767.5400 191.4400 767.5400ZM269.1400 781.4000L269.1400 781.4000Q260.6000 781.4000 254.3700 777.5500Q248.1400 773.7000 244.7800 766.6300Q241.4200 759.5600 241.4200 749.9000L241.4200 749.9000L241.4200 710.5600Q241.4200 709.1600 242.4000 708.1800Q243.3800 707.2000 244.7800 707.2000L244.7800 707.2000L257.1000 707.2000Q258.6400 707.2000 259.5500 708.1800Q260.4600 709.1600 260.4600 710.5600L260.4600 710.5600L260.4600 749.0600Q260.4600 766.4200 275.7200 766.4200L275.7200 766.4200Q283 766.4200 287.2700 761.8000Q291.5400 757.1800 291.5400 749.0600L291.5400 749.0600L291.5400 710.5600Q291.5400 709.1600 292.5200 708.1800Q293.5000 707.2000 294.9000 707.2000L294.9000 707.2000L307.2200 707.2000Q308.6200 707.2000 309.6000 708.1800Q310.5800 709.1600 310.5800 710.5600L310.5800 710.5600L310.5800 776.6400Q310.5800 778.0400 309.6000 779.0200Q308.6200 780 307.2200 780L307.2200 780L295.8800 780Q294.3400 780 293.4300 779.0200Q292.5200 778.0400 292.5200 776.6400L292.5200 776.6400L292.5200 770.9000Q288.7400 775.8000 283.1400 778.6000Q277.5400 781.4000 269.1400 781.4000ZM379.4600 780L366.1600 780Q364.7600 780 363.7800 779.0200Q362.8000 778.0400 362.8000 776.6400L362.8000 776.6400L362.8000 685.5000Q362.8000 683.9600 363.7800 682.9800Q364.7600 682 366.1600 682L366.1600 682L403.6800 682Q414.6000 682 422.7200 685.4300Q430.8400 688.8600 435.3200 695.7900Q439.8000 702.7200 439.8000 713.0800L439.8000 713.0800Q439.8000 723.5800 435.3200 730.3700Q430.8400 737.1600 422.7200 740.5200Q414.6000 743.8800 403.6800 743.8800L403.6800 743.8800L382.8200 743.8800L382.8200 776.6400Q382.8200 778.0400 381.9100 779.0200Q381 780 379.4600 780L379.4600 780ZM382.5400 697.5400L382.5400 728.3400L402.9800 728.3400Q411.1000 728.3400 415.4400 724.4900Q419.7800 720.6400 419.7800 713.0800L419.7800 713.0800Q419.7800 706.0800 415.7200 701.8100Q411.6600 697.5400 402.9800 697.5400L402.9800 697.5400L382.5400 697.5400ZM493.1400 781.4000L493.1400 781.4000Q480.2600 781.4000 471.2300 776.9200Q462.2000 772.4400 457.2300 763.9700Q452.2600 755.5000 451.8400 743.7400L451.8400 743.7400Q451.7000 737.7200 451.7000 730.7900Q451.7000 723.8600 451.8400 717.7000L451.8400 717.7000Q452.2600 706.0800 457.2300 697.8200Q462.2000 689.5600 471.3700 685.0800Q480.5400 680.6000 493.1400 680.6000L493.1400 680.6000Q503.3600 680.6000 511.0600 683.3300Q518.7600 686.0600 523.8700 690.3300Q528.9800 694.6000 531.5700 699.5000Q534.1600 704.4000 534.3000 708.6000L534.3000 708.6000Q534.4400 709.8600 533.6000 710.7000Q532.7600 711.5400 531.3600 711.5400L531.3600 711.5400L516.9400 711.5400Q515.5400 711.5400 514.8400 710.9800Q514.1400 710.4200 513.5800 709.3000L513.5800 709.3000Q512.4600 706.3600 510.0800 703.4900Q507.7000 700.6200 503.6400 698.6600Q499.5800 696.7000 493.1400 696.7000L493.1400 696.7000Q483.6200 696.7000 477.9500 701.7400Q472.2800 706.7800 471.8600 718.4000L471.8600 718.4000Q471.4400 730.5800 471.8600 743.0400L471.8600 743.0400Q472.2800 754.9400 478.0900 760.1200Q483.9000 765.3000 493.4200 765.3000L493.4200 765.3000Q499.7200 765.3000 504.6900 763.0600Q509.6600 760.8200 512.5300 756.0600Q515.4000 751.3000 515.4000 743.8800L515.4000 743.8800L515.4000 739.5400L498.3200 739.5400Q496.9200 739.5400 495.9400 738.5600Q494.9600 737.5800 494.9600 736.0400L494.9600 736.0400L494.9600 728.6200Q494.9600 727.0800 495.9400 726.1000Q496.9200 725.1200 498.3200 725.1200L498.3200 725.1200L531.7800 725.1200Q533.3200 725.1200 534.2300 726.1000Q535.1400 727.0800 535.1400 728.6200L535.1400 728.6200L535.1400 743.3200Q535.1400 755.0800 530.0300 763.6200Q524.9200 772.1600 515.4700 776.7800Q506.0200 781.4000 493.1400 781.4000ZM590.8600 781.4000L590.8600 781.4000Q577.8400 781.4000 568.8100 776.8500Q559.7800 772.3000 555.0200 763.8300Q550.2600 755.3600 549.7000 743.4600L549.7000 743.4600Q549.5600 737.7200 549.5600 731.1400Q549.5600 724.5600 549.7000 718.5400L549.7000 718.5400Q550.2600 706.7800 555.0900 698.2400Q559.9200 689.7000 568.9500 685.1500Q577.9800 680.6000 590.8600 680.6000L590.8600 680.6000Q600.3800 680.6000 607.9400 683.1200Q615.5000 685.6400 620.8200 690.0500Q626.1400 694.4600 629.0800 700.3400Q632.0200 706.2200 632.1600 713.0800L632.1600 713.0800Q632.3000 714.3400 631.3900 715.1800Q630.4800 716.0200 629.2200 716.0200L629.2200 716.0200L615.9200 716.0200Q614.3800 716.0200 613.4000 715.2500Q612.4200 714.4800 612 712.6600L612 712.6600Q609.7600 703.4200 604.3000 700.0600Q598.8400 696.7000 590.7200 696.7000L590.7200 696.7000Q581.3400 696.7000 575.7400 701.9500Q570.1400 707.2000 569.7200 719.2400L569.7200 719.2400Q569.3000 730.7200 569.7200 742.7600L569.7200 742.7600Q570.1400 754.8000 575.7400 760.0500Q581.3400 765.3000 590.7200 765.3000L590.7200 765.3000Q598.8400 765.3000 604.3700 761.8700Q609.9000 758.4400 612 749.3400L612 749.3400Q612.4200 747.3800 613.4000 746.6800Q614.3800 745.9800 615.9200 745.9800L615.9200 745.9800L629.2200 745.9800Q630.4800 745.9800 631.3900 746.8200Q632.3000 747.6600 632.1600 748.9200L632.1600 748.9200Q632.0200 755.7800 629.0800 761.6600Q626.1400 767.5400 620.8200 771.9500Q615.5000 776.3600 607.9400 778.8800Q600.3800 781.4000 590.8600 781.4000ZM662.2600 780L650.6400 780Q649.2400 780 648.2600 779.0200Q647.2800 778.0400 647.2800 776.6400L647.2800 776.6400L647.2800 683.9600Q647.2800 682.5600 648.2600 681.5800Q649.2400 680.6000 650.6400 680.6000L650.6400 680.6000L662.2600 680.6000Q663.6600 680.6000 664.6400 681.5800Q665.6200 682.5600 665.6200 683.9600L665.6200 683.9600L665.6200 776.6400Q665.6200 778.0400 664.6400 779.0200Q663.6600 780 662.2600 780L662.2600 780ZM699.2200 780L687.6000 780Q686.2000 780 685.2200 779.0200Q684.2400 778.0400 684.2400 776.6400L684.2400 776.6400L684.2400 710.5600Q684.2400 709.1600 685.2200 708.1800Q686.2000 707.2000 687.6000 707.2000L687.6000 707.2000L699.2200 707.2000Q700.7600 707.2000 701.6700 708.1800Q702.5800 709.1600 702.5800 710.5600L702.5800 710.5600L702.5800 776.6400Q702.5800 778.0400 701.6700 779.0200Q700.7600 780 699.2200 780L699.2200 780ZM699.7800 695.1600L687.0400 695.1600Q685.6400 695.1600 684.6600 694.1800Q683.6800 693.2000 683.6800 691.8000L683.6800 691.8000L683.6800 681.7200Q683.6800 680.3200 684.6600 679.3400Q685.6400 678.3600 687.0400 678.3600L687.0400 678.3600L699.7800 678.3600Q701.3200 678.3600 702.3000 679.3400Q703.2800 680.3200 703.2800 681.7200L703.2800 681.7200L703.2800 691.8000Q703.2800 693.2000 702.3000 694.1800Q701.3200 695.1600 699.7800 695.1600L699.7800 695.1600ZM752.5600 781.4000L752.5600 781.4000Q737.0200 781.4000 727.9200 772.4400Q718.8200 763.4800 718.1200 746.9600L718.1200 746.9600Q717.9800 745.5600 717.9800 743.3900Q717.9800 741.2200 718.1200 739.9600L718.1200 739.9600Q718.6800 729.3200 722.9500 721.6900Q727.2200 714.0600 734.7800 709.9300Q742.3400 705.8000 752.5600 705.8000L752.5600 705.8000Q763.9000 705.8000 771.6000 710.4900Q779.3000 715.1800 783.2200 723.5100Q787.1400 731.8400 787.1400 742.7600L787.1400 742.7600L787.1400 745.7000Q787.1400 747.1000 786.1600 748.0800Q785.1800 749.0600 783.6400 749.0600L783.6400 749.0600L737.1600 749.0600Q737.1600 749.0600 737.1600 749.4800Q737.1600 749.9000 737.1600 750.1800L737.1600 750.1800Q737.3000 755.0800 739.0500 759.2100Q740.8000 763.3400 744.2300 765.8600Q747.6600 768.3800 752.4200 768.3800L752.4200 768.3800Q756.3400 768.3800 759 767.1900Q761.6600 766 763.3400 764.4600Q765.0200 762.9200 765.7200 761.9400L765.7200 761.9400Q766.9800 760.2600 767.7500 759.9100Q768.5200 759.5600 770.0600 759.5600L770.0600 759.5600L782.1000 759.5600Q783.5000 759.5600 784.4100 760.4000Q785.3200 761.2400 785.1800 762.5000L785.1800 762.5000Q785.0400 764.7400 782.8700 767.9600Q780.7000 771.1800 776.6400 774.2600Q772.5800 777.3400 766.4900 779.3700Q760.4000 781.4000 752.5600 781.4000ZM737.1600 736.8800L737.1600 737.3000L768.1000 737.3000L768.1000 736.8800Q768.1000 731.4200 766.2800 727.2900Q764.4600 723.1600 760.9600 720.8500Q757.4600 718.5400 752.5600 718.5400L752.5600 718.5400Q747.6600 718.5400 744.1600 720.8500Q740.6600 723.1600 738.9100 727.2900Q737.1600 731.4200 737.1600 736.8800L737.1600 736.8800ZM817.6600 780L805.3400 780Q803.9400 780 802.9600 779.0200Q801.9800 778.0400 801.9800 776.6400L801.9800 776.6400L801.9800 710.5600Q801.9800 709.1600 802.9600 708.1800Q803.9400 707.2000 805.3400 707.2000L805.3400 707.2000L816.8200 707.2000Q818.2200 707.2000 819.2000 708.1800Q820.1800 709.1600 820.1800 710.5600L820.1800 710.5600L820.1800 716.3000Q823.8200 711.8200 829.4900 708.8100Q835.1600 705.8000 843.5600 705.8000L843.5600 705.8000Q852.1000 705.8000 858.4000 709.6500Q864.7000 713.5000 868.1300 720.5000Q871.5600 727.5000 871.5600 737.3000L871.5600 737.3000L871.5600 776.6400Q871.5600 778.0400 870.5800 779.0200Q869.6000 780 868.2000 780L868.2000 780L855.8800 780Q854.4800 780 853.5000 779.0200Q852.5200 778.0400 852.5200 776.6400L852.5200 776.6400L852.5200 738.1400Q852.5200 730.0200 848.5300 725.4000Q844.5400 720.7800 836.9800 720.7800L836.9800 720.7800Q829.7000 720.7800 825.3600 725.4000Q821.0200 730.0200 821.0200 738.1400L821.0200 738.1400L821.0200 776.6400Q821.0200 778.0400 820.0400 779.0200Q819.0600 780 817.6600 780L817.6600 780ZM933.5800 780L922.2400 780Q913.8400 780 908.1000 777.0600Q902.3600 774.1200 899.5600 768.3100Q896.7600 762.5000 896.7600 753.8200L896.7600 753.8200L896.7600 722.0400L885.7000 722.0400Q884.3000 722.0400 883.3200 721.0600Q882.3400 720.0800 882.3400 718.5400L882.3400 718.5400L882.3400 710.5600Q882.3400 709.1600 883.3200 708.1800Q884.3000 707.2000 885.7000 707.2000L885.7000 707.2000L896.7600 707.2000L896.7600 683.9600Q896.7600 682.5600 897.6700 681.5800Q898.5800 680.6000 900.1200 680.6000L900.1200 680.6000L911.4600 680.6000Q912.8600 680.6000 913.8400 681.5800Q914.8200 682.5600 914.8200 683.9600L914.8200 683.9600L914.8200 707.2000L932.3200 707.2000Q933.7200 707.2000 934.7000 708.1800Q935.6800 709.1600 935.6800 710.5600L935.6800 710.5600L935.6800 718.5400Q935.6800 720.0800 934.7000 721.0600Q933.7200 722.0400 932.3200 722.0400L932.3200 722.0400L914.8200 722.0400L914.8200 752.4200Q914.8200 758.1600 916.8500 761.3800Q918.8800 764.6000 923.9200 764.6000L923.9200 764.6000L933.5800 764.6000Q934.9800 764.6000 935.9600 765.5800Q936.9400 766.5600 936.9400 767.9600L936.9400 767.9600L936.9400 776.6400Q936.9400 778.0400 935.9600 779.0200Q934.9800 780 933.5800 780L933.5800 780Z" id="title"/></g></svg>