<svg xmlns="http://www.w3.org/2000/svg" version="1.1" xmlns:xlink="http://www.w3.org/1999/xlink" xmlns:svgjs="http://svgjs.dev/svgjs" viewBox="0 0 1920 1080" id="86497bc1-76e4-49c3-b0f4-3a8aaa9de86c"><g><rect width="1920" height="1080" fill="#63264a"/></g><g fill="#6e8530"><path d="M969.5 217C561.465 217 231 547.465 231 955.5C231 1363.53 561.465 1694 969.5 1694C1377.53 1694 1708 1363.53 1708 955.5C1708 547.465 1377.53 217 969.5 217ZM969.5 1309.34C773.983 1309.34 615.658 1151.02 615.658 955.5C615.658 759.983 773.983 601.658 969.5 601.658C1165.02 601.658 1323.34 759.983 1323.34 955.5C1323.34 1151.02 1165.02 1309.34 969.5 1309.34Z"/></g><g fill="#ffffff" opacity="0.2"><path d="M1432 918.479L1616.48 734V918.479H1432Z"/><path d="M1616.48 918.479L1800.52 734V918.479H1616.48Z"/><path d="M1800.52 918.479L1985 734V918.479H1800.52Z"/><path d="M1432 1102.52L1616.48 918.479V1102.52H1432Z"/><path d="M1616.48 1102.52L1800.52 918.479V1102.52H1616.48Z"/><path d="M1800.52 1102.52L1985 918.479V1102.52H1800.52Z"/><path d="M499 154.521L683.479 -29.5215V154.521H499Z"/><path d="M683.479 154.521L867.521 -29.5215V154.521H683.479Z"/><path d="M867.521 154.521L1052 -29.5215V154.521H867.521Z"/><path d="M499 339L683.479 154.521V339H499Z"/><path d="M683.479 339L867.521 154.521V339H683.479Z"/><path d="M867.521 339L1052 154.521V339H867.521Z"/></g><g><path d="M178.635 139.281L184.422 144.246V166.626H215.704L219.958 172.147L215.69 177.397H184.422V198.795L178.635 203.747L173 198.795V144.232L178.635 139.281ZM195.554 195.68H219.406L223.397 200.915L219.143 206.45H195.554L191.7 201.342L195.554 195.68ZM196.382 138H219.129L223.383 143.52L219.129 148.77H196.659L192.115 143.677L196.382 138ZM323.155 148.628L328.251 154.291L323.155 159.968H246.13L241.172 154.291L246.13 148.628H323.155ZM237.043 172.147L241.849 167.893L246.669 172.147V178.393C246.669 188.879 249.417 197.515 261.668 197.515H264.14C275.147 197.515 281.197 189.86 281.197 177.952V172.005L285.879 167.75L290.699 171.862V178.379C290.699 189.007 293.723 196.946 305.56 196.946H307.618C319.178 196.946 321.235 187.869 321.373 177.952V171.578L326.056 167.608L331 171.72V178.094C330.862 191.838 327.285 207.574 308.032 207.574H305.974C294.552 207.574 288.365 202.324 285.892 195.808C283.006 202.466 275.299 208.286 264.844 208.286H262.358C242.553 208.286 237.194 195.964 237.056 178.663V172.147H237.043ZM276.391 274.744L273.642 267.089L280.796 264.969L305.974 276.721V252.491L311.07 248.095L316.291 252.491V281.829L325.641 286.226L328.251 293.311L320.959 296L276.391 274.744ZM321.235 223.011L328.113 226.27L325.917 233.497L264.002 263.119L256.571 260.146L259.596 252.776L321.235 223.011ZM231.905 263.404L237.954 268.512C237.402 286.51 222.403 296 204.669 296H202.874C194.062 296 183.759 292.6 177.157 286.083L177.834 278.855L184.298 278.002C189.118 282.256 195.858 285.229 202.183 285.229H204.117C216.091 285.229 225.303 280.136 226.27 268.085L231.905 263.404ZM226.256 251.638C225.704 239.16 216.629 234.209 204.103 234.209H202.169C194.739 234.209 189.104 237.182 184.284 241.436L177.834 240.583L177.143 233.355C183.745 226.696 192.957 223.58 202.597 223.58H204.517C222.403 223.58 237.402 232.942 237.94 251.211L231.891 256.176L226.256 251.638Z" fill="#ffffff"/></g><g fill="#ffffff" id="info-group"><path d="M167.0800 500L154.9000 500Q153.7800 500 152.8700 499.1600Q151.9600 498.3200 151.9600 497.0600L151.9600 497.0600Q151.9600 496.5000 152.2400 495.8000L152.2400 495.8000L185.9800 405.5000Q186.4000 404.1000 187.5900 403.0500Q188.7800 402 190.8800 402L190.8800 402L206.1400 402Q208.2400 402 209.3600 403.0500Q210.4800 404.1000 211.0400 405.5000L211.0400 405.5000L244.7800 495.8000Q244.9200 496.5000 244.9200 497.0600L244.9200 497.0600Q244.9200 498.3200 244.0800 499.1600Q243.2400 500 242.1200 500L242.1200 500L229.9400 500Q227.9800 500 227.0700 499.0900Q226.1600 498.1800 225.8800 497.3400L225.8800 497.3400L219.3000 480.2600L177.7200 480.2600L171.1400 497.3400Q170.8600 498.1800 169.9500 499.0900Q169.0400 500 167.0800 500L167.0800 500ZM198.4400 420.9000L182.6200 464.1600L214.4000 464.1600L198.4400 420.9000ZM283.2800 501.4000L283.2800 501.4000Q274.7400 501.4000 268.5100 497.5500Q262.2800 493.7000 258.9200 486.6300Q255.5600 479.5600 255.5600 469.9000L255.5600 469.9000L255.5600 430.5600Q255.5600 429.1600 256.5400 428.1800Q257.5200 427.2000 258.9200 427.2000L258.9200 427.2000L271.2400 427.2000Q272.7800 427.2000 273.6900 428.1800Q274.6000 429.1600 274.6000 430.5600L274.6000 430.5600L274.6000 469.0600Q274.6000 486.4200 289.8600 486.4200L289.8600 486.4200Q297.1400 486.4200 301.4100 481.8000Q305.6800 477.1800 305.6800 469.0600L305.6800 469.0600L305.6800 430.5600Q305.6800 429.1600 306.6600 428.1800Q307.6400 427.2000 309.0400 427.2000L309.0400 427.2000L321.3600 427.2000Q322.7600 427.2000 323.7400 428.1800Q324.7200 429.1600 324.7200 430.5600L324.7200 430.5600L324.7200 496.6400Q324.7200 498.0400 323.7400 499.0200Q322.7600 500 321.3600 500L321.3600 500L310.0200 500Q308.4800 500 307.5700 499.0200Q306.6600 498.0400 306.6600 496.6400L306.6600 496.6400L306.6600 490.9000Q302.8800 495.8000 297.2800 498.6000Q291.6800 501.4000 283.2800 501.4000ZM358.3200 500L346.7000 500Q345.3000 500 344.3200 499.0200Q343.3400 498.0400 343.3400 496.6400L343.3400 496.6400L343.3400 403.9600Q343.3400 402.5600 344.3200 401.5800Q345.3000 400.6000 346.7000 400.6000L346.7000 400.6000L358.3200 400.6000Q359.7200 400.6000 360.7000 401.5800Q361.6800 402.5600 361.6800 403.9600L361.6800 403.9600L361.6800 496.6400Q361.6800 498.0400 360.7000 499.0200Q359.7200 500 358.3200 500L358.3200 500ZM401.4400 501.4000L401.4400 501.4000Q394.1600 501.4000 388.2800 498.5300Q382.4000 495.6600 378.9700 490.8300Q375.5400 486 375.5400 479.9800L375.5400 479.9800Q375.5400 470.1800 383.5200 464.3700Q391.5000 458.5600 404.3800 456.6000L404.3800 456.6000L423.5600 453.8000L423.5600 450.8600Q423.5600 444.9800 420.6200 441.7600Q417.6800 438.5400 410.5400 438.5400L410.5400 438.5400Q405.5000 438.5400 402.3500 440.5700Q399.2000 442.6000 397.6600 445.9600L397.6600 445.9600Q396.5400 447.7800 394.4400 447.7800L394.4400 447.7800L383.3800 447.7800Q381.8400 447.7800 381.0700 446.9400Q380.3000 446.1000 380.3000 444.7000L380.3000 444.7000Q380.4400 442.4600 382.1900 439.2400Q383.9400 436.0200 387.5100 433.0100Q391.0800 430 396.8200 427.9000Q402.5600 425.8000 410.6800 425.8000L410.6800 425.8000Q419.5000 425.8000 425.5900 427.9700Q431.6800 430.1400 435.3200 433.7800Q438.9600 437.4200 440.6400 442.3200Q442.3200 447.2200 442.3200 452.6800L442.3200 452.6800L442.3200 496.6400Q442.3200 498.0400 441.3400 499.0200Q440.3600 500 438.9600 500L438.9600 500L427.6200 500Q426.0800 500 425.1700 499.0200Q424.2600 498.0400 424.2600 496.6400L424.2600 496.6400L424.2600 491.1800Q422.4400 493.7000 419.3600 496.0800Q416.2800 498.4600 411.8700 499.9300Q407.4600 501.4000 401.4400 501.4000ZM406.2000 488.1000L406.2000 488.1000Q411.1000 488.1000 415.0900 486Q419.0800 483.9000 421.3900 479.4900Q423.7000 475.0800 423.7000 468.3600L423.7000 468.3600L423.7000 465.4200L409.7000 467.6600Q401.4400 468.9200 397.3800 471.7200Q393.3200 474.5200 393.3200 478.5800L393.3200 478.5800Q393.3200 481.6600 395.2100 483.8300Q397.1000 486 400.0400 487.0500Q402.9800 488.1000 406.2000 488.1000ZM559.6400 500L492.7200 500Q491.3200 500 490.3400 499.0200Q489.3600 498.0400 489.3600 496.6400L489.3600 496.6400L489.3600 489.5000Q489.3600 488.2400 489.9900 486.4900Q490.6200 484.7400 492.8600 482.9200L492.8600 482.9200L514.9800 460.9400Q524.2200 453.6600 529.8900 448.5500Q535.5600 443.4400 538.1500 439.1700Q540.7400 434.9000 540.7400 430.7000L540.7400 430.7000Q540.7400 424.4000 537.3100 420.4800Q533.8800 416.5600 526.4600 416.5600L526.4600 416.5600Q521.5600 416.5600 518.2000 418.5900Q514.8400 420.6200 512.9500 423.9800Q511.0600 427.3400 510.3600 431.4000L510.3600 431.4000Q510.0800 433.2200 508.8200 433.9200Q507.5600 434.6200 506.3000 434.6200L506.3000 434.6200L493.8400 434.6200Q492.5800 434.6200 491.7400 433.7800Q490.9000 432.9400 490.9000 431.8200L490.9000 431.8200Q491.0400 425.8000 493.4200 420.1300Q495.8000 414.4600 500.3500 410.0500Q504.9000 405.6400 511.4800 402.9800Q518.0600 400.3200 526.3200 400.3200L526.3200 400.3200Q537.9400 400.3200 545.5700 404.2400Q553.2000 408.1600 557.0500 414.8800Q560.9000 421.6000 560.9000 430L560.9000 430Q560.9000 436.5800 558.3800 442.1100Q555.8600 447.6400 551.1000 452.7500Q546.3400 457.8600 539.6200 463.1800L539.6200 463.1800L519.7400 483.3400L559.6400 483.3400Q561.1800 483.3400 562.0900 484.2500Q563.0000 485.1600 563.0000 486.7000L563.0000 486.7000L563.0000 496.6400Q563.0000 498.0400 562.0900 499.0200Q561.1800 500 559.6400 500L559.6400 500ZM595.7600 451L581.9000 451Q580.5000 451 579.5200 450.0200Q578.5400 449.0400 578.5400 447.6400L578.5400 447.6400L578.5400 434.3400Q578.5400 432.8000 579.5200 431.8200Q580.5000 430.8400 581.9000 430.8400L581.9000 430.8400L595.7600 430.8400Q597.3000 430.8400 598.2800 431.8200Q599.2600 432.8000 599.2600 434.3400L599.2600 434.3400L599.2600 447.6400Q599.2600 449.0400 598.2800 450.0200Q597.3000 451 595.7600 451L595.7600 451ZM595.7600 500L581.9000 500Q580.5000 500 579.5200 499.0200Q578.5400 498.0400 578.5400 496.6400L578.5400 496.6400L578.5400 483.3400Q578.5400 481.8000 579.5200 480.8200Q580.5000 479.8400 581.9000 479.8400L581.9000 479.8400L595.7600 479.8400Q597.3000 479.8400 598.2800 480.8200Q599.2600 481.8000 599.2600 483.3400L599.2600 483.3400L599.2600 496.6400Q599.2600 498.0400 598.2800 499.0200Q597.3000 500 595.7600 500L595.7600 500ZM657.2200 500L645.0400 500Q643.9200 500 643.0100 499.1600Q642.1000 498.3200 642.1000 497.0600L642.1000 497.0600Q642.1000 496.5000 642.3800 495.8000L642.3800 495.8000L676.1200 405.5000Q676.5400 404.1000 677.7300 403.0500Q678.9200 402 681.0200 402L681.0200 402L696.2800 402Q698.3800 402 699.5000 403.0500Q700.6200 404.1000 701.1800 405.5000L701.1800 405.5000L734.9200 495.8000Q735.0600 496.5000 735.0600 497.0600L735.0600 497.0600Q735.0600 498.3200 734.2200 499.1600Q733.3800 500 732.2600 500L732.2600 500L720.0800 500Q718.1200 500 717.2100 499.0900Q716.3000 498.1800 716.0200 497.3400L716.0200 497.3400L709.4400 480.2600L667.8600 480.2600L661.2800 497.3400Q661.0000 498.1800 660.0900 499.0900Q659.1800 500 657.2200 500L657.2200 500ZM688.5800 420.9000L672.7600 464.1600L704.5400 464.1600L688.5800 420.9000ZM779.3000 530.8000L779.3000 530.8000Q769.0800 530.8000 762.5000 528.1400Q755.9200 525.4800 752.1400 521.7000Q748.3600 517.9200 746.7500 514.2100Q745.1400 510.5000 745.0000 508.4000L745.0000 508.4000Q744.8600 507 745.9100 505.9500Q746.9600 504.9000 748.3600 504.9000L748.3600 504.9000L760.5400 504.9000Q761.9400 504.9000 762.7800 505.5300Q763.6200 506.1600 764.1800 507.8400L764.1800 507.8400Q765.0200 509.6600 766.4200 511.7600Q767.8200 513.8600 770.6900 515.3300Q773.5600 516.8000 778.6000 516.8000L778.6000 516.8000Q783.9200 516.8000 787.5600 515.2600Q791.2000 513.7200 793.0900 510.0800Q794.9800 506.4400 794.9800 500L794.9800 500L794.9800 490.4800Q791.6200 494.5400 786.3700 497.0600Q781.1200 499.5800 773.4200 499.5800L773.4200 499.5800Q766.0000 499.5800 760.4700 497.1300Q754.9400 494.6800 751.3000 490.2700Q747.6600 485.8600 745.7700 479.8400Q743.8800 473.8200 743.6000 466.5400L743.6000 466.5400Q743.4600 462.7600 743.6000 458.9800L743.6000 458.9800Q743.8800 451.9800 745.7700 445.9600Q747.6600 439.9400 751.3000 435.3900Q754.9400 430.8400 760.4700 428.3200Q766.0000 425.8000 773.4200 425.8000L773.4200 425.8000Q781.4000 425.8000 786.8600 428.8100Q792.3200 431.8200 795.8200 436.3000L795.8200 436.3000L795.8200 430.7000Q795.8200 429.1600 796.8000 428.1800Q797.7800 427.2000 799.1800 427.2000L799.1800 427.2000L810.5200 427.2000Q811.9200 427.2000 812.9000 428.1800Q813.8800 429.1600 813.8800 430.7000L813.8800 430.7000L814.0200 498.1800Q814.0200 508.2600 810.2400 515.5400Q806.4600 522.8200 798.8300 526.8100Q791.2000 530.8000 779.3000 530.8000ZM778.6000 484.7400L778.6000 484.7400Q784.3400 484.7400 787.8400 482.2200Q791.3400 479.7000 793.0200 475.6400Q794.7000 471.5800 794.9800 467.3800L794.9800 467.3800Q795.1200 465.5600 795.1200 462.7600Q795.1200 459.9600 794.9800 458.2800L794.9800 458.2800Q794.7000 453.9400 793.0200 449.9500Q791.3400 445.9600 787.8400 443.3700Q784.3400 440.7800 778.6000 440.7800L778.6000 440.7800Q772.8600 440.7800 769.3600 443.3700Q765.8600 445.9600 764.3900 450.1600Q762.9200 454.3600 762.6400 459.4000L762.6400 459.4000Q762.3600 462.7600 762.6400 466.2600L762.6400 466.2600Q762.9200 471.1600 764.3900 475.4300Q765.8600 479.7000 769.3600 482.2200Q772.8600 484.7400 778.6000 484.7400ZM848.1800 500L836.0000 500Q834.6000 500 833.6200 499.0200Q832.6400 498.0400 832.6400 496.6400L832.6400 496.6400L832.6400 430.7000Q832.6400 429.1600 833.6200 428.1800Q834.6000 427.2000 836.0000 427.2000L836.0000 427.2000L847.3400 427.2000Q848.7400 427.2000 849.7900 428.1800Q850.8400 429.1600 850.8400 430.7000L850.8400 430.7000L850.8400 436.4400Q854.0600 431.9600 859.1700 429.5800Q864.2800 427.2000 871.0000 427.2000L871.0000 427.2000L876.7400 427.2000Q878.2800 427.2000 879.1900 428.1800Q880.1000 429.1600 880.1000 430.5600L880.1000 430.5600L880.1000 440.6400Q880.1000 442.0400 879.1900 443.0200Q878.2800 444 876.7400 444L876.7400 444L865.8200 444Q859.1000 444 855.3900 447.7100Q851.6800 451.4200 851.6800 458.1400L851.6800 458.1400L851.6800 496.6400Q851.6800 498.0400 850.7000 499.0200Q849.7200 500 848.1800 500L848.1800 500ZM918.0400 501.4000L918.0400 501.4000Q909.5000 501.4000 903.2700 497.5500Q897.0400 493.7000 893.6800 486.6300Q890.3200 479.5600 890.3200 469.9000L890.3200 469.9000L890.3200 430.5600Q890.3200 429.1600 891.3000 428.1800Q892.2800 427.2000 893.6800 427.2000L893.6800 427.2000L906.0000 427.2000Q907.5400 427.2000 908.4500 428.1800Q909.3600 429.1600 909.3600 430.5600L909.3600 430.5600L909.3600 469.0600Q909.3600 486.4200 924.6200 486.4200L924.6200 486.4200Q931.9000 486.4200 936.1700 481.8000Q940.4400 477.1800 940.4400 469.0600L940.4400 469.0600L940.4400 430.5600Q940.4400 429.1600 941.4200 428.1800Q942.4000 427.2000 943.8000 427.2000L943.8000 427.2000L956.1200 427.2000Q957.5200 427.2000 958.5000 428.1800Q959.4800 429.1600 959.4800 430.5600L959.4800 430.5600L959.4800 496.6400Q959.4800 498.0400 958.5000 499.0200Q957.5200 500 956.1200 500L956.1200 500L944.7800 500Q943.2400 500 942.3300 499.0200Q941.4200 498.0400 941.4200 496.6400L941.4200 496.6400L941.4200 490.9000Q937.6400 495.8000 932.0400 498.6000Q926.4400 501.4000 918.0400 501.4000ZM993.3600 526.6000L981.4600 526.6000Q980.0600 526.6000 979.0800 525.6200Q978.1000 524.6400 978.1000 523.2400L978.1000 523.2400L978.1000 430.5600Q978.1000 429.1600 979.0800 428.1800Q980.0600 427.2000 981.4600 427.2000L981.4600 427.2000L992.5200 427.2000Q994.0600 427.2000 994.9700 428.1800Q995.8800 429.1600 995.8800 430.5600L995.8800 430.5600L995.8800 436.1600Q999.2400 431.6800 1004.7000 428.7400Q1010.1600 425.8000 1018.2800 425.8000L1018.2800 425.8000Q1025.7000 425.8000 1031.1600 428.1800Q1036.6200 430.5600 1040.2600 434.9700Q1043.9000 439.3800 1045.8600 445.4000Q1047.8200 451.4200 1048.1000 458.7000L1048.1000 458.7000Q1048.2400 461.0800 1048.2400 463.6000Q1048.2400 466.1200 1048.1000 468.6400L1048.1000 468.6400Q1047.9600 475.6400 1046.0000 481.5900Q1044.0400 487.5400 1040.3300 491.9500Q1036.6200 496.3600 1031.1600 498.8800Q1025.7000 501.4000 1018.2800 501.4000L1018.2800 501.4000Q1010.7200 501.4000 1005.4000 498.6700Q1000.0800 495.9400 996.7200 491.4600L996.7200 491.4600L996.7200 523.2400Q996.7200 524.6400 995.8100 525.6200Q994.9000 526.6000 993.3600 526.6000L993.3600 526.6000ZM1013.1000 486.4200L1013.1000 486.4200Q1019.1200 486.4200 1022.4800 483.8300Q1025.8400 481.2400 1027.3800 477.0400Q1028.9200 472.8400 1029.2000 467.8000L1029.2000 467.8000Q1029.3400 463.6000 1029.2000 459.4000L1029.2000 459.4000Q1028.9200 454.3600 1027.3800 450.1600Q1025.8400 445.9600 1022.4800 443.3700Q1019.1200 440.7800 1013.1000 440.7800L1013.1000 440.7800Q1007.3600 440.7800 1003.7900 443.4400Q1000.2200 446.1000 998.6100 450.2300Q997.0000 454.3600 996.7200 458.7000L996.7200 458.7000Q996.5800 461.2200 996.5800 464.0200Q996.5800 466.8200 996.7200 469.4800L996.7200 469.4800Q996.8600 473.6800 998.6800 477.5300Q1000.5000 481.3800 1004.0000 483.9000Q1007.5000 486.4200 1013.1000 486.4200ZM1085.0600 501.4000L1085.0600 501.4000Q1077.7800 501.4000 1071.9000 498.5300Q1066.0200 495.6600 1062.5900 490.8300Q1059.1600 486 1059.1600 479.9800L1059.1600 479.9800Q1059.1600 470.1800 1067.1400 464.3700Q1075.1200 458.5600 1088 456.6000L1088 456.6000L1107.1800 453.8000L1107.1800 450.8600Q1107.1800 444.9800 1104.2400 441.7600Q1101.3000 438.5400 1094.1600 438.5400L1094.1600 438.5400Q1089.1200 438.5400 1085.9700 440.5700Q1082.8200 442.6000 1081.2800 445.9600L1081.2800 445.9600Q1080.1600 447.7800 1078.0600 447.7800L1078.0600 447.7800L1067 447.7800Q1065.4600 447.7800 1064.6900 446.9400Q1063.9200 446.1000 1063.9200 444.7000L1063.9200 444.7000Q1064.0600 442.4600 1065.8100 439.2400Q1067.5600 436.0200 1071.1300 433.0100Q1074.7000 430 1080.4400 427.9000Q1086.1800 425.8000 1094.3000 425.8000L1094.3000 425.8000Q1103.1200 425.8000 1109.2100 427.9700Q1115.3000 430.1400 1118.9400 433.7800Q1122.5800 437.4200 1124.2600 442.3200Q1125.9400 447.2200 1125.9400 452.6800L1125.9400 452.6800L1125.9400 496.6400Q1125.9400 498.0400 1124.9600 499.0200Q1123.9800 500 1122.5800 500L1122.5800 500L1111.2400 500Q1109.7000 500 1108.7900 499.0200Q1107.8800 498.0400 1107.8800 496.6400L1107.8800 496.6400L1107.8800 491.1800Q1106.0600 493.7000 1102.9800 496.0800Q1099.9000 498.4600 1095.4900 499.9300Q1091.0800 501.4000 1085.0600 501.4000ZM1089.8200 488.1000L1089.8200 488.1000Q1094.7200 488.1000 1098.7100 486Q1102.7000 483.9000 1105.0100 479.4900Q1107.3200 475.0800 1107.3200 468.3600L1107.3200 468.3600L1107.3200 465.4200L1093.3200 467.6600Q1085.0600 468.9200 1081 471.7200Q1076.9400 474.5200 1076.9400 478.5800L1076.9400 478.5800Q1076.9400 481.6600 1078.8300 483.8300Q1080.7200 486 1083.6600 487.0500Q1086.6000 488.1000 1089.8200 488.1000ZM1159.5400 500L1147.2200 500Q1145.8200 500 1144.8400 499.0200Q1143.8600 498.0400 1143.8600 496.6400L1143.8600 496.6400L1143.8600 430.5600Q1143.8600 429.1600 1144.8400 428.1800Q1145.8200 427.2000 1147.2200 427.2000L1147.2200 427.2000L1158.7000 427.2000Q1160.1000 427.2000 1161.0800 428.1800Q1162.0600 429.1600 1162.0600 430.5600L1162.0600 430.5600L1162.0600 436.3000Q1165.7000 431.8200 1171.3700 428.8100Q1177.0400 425.8000 1185.4400 425.8000L1185.4400 425.8000Q1193.9800 425.8000 1200.2800 429.6500Q1206.5800 433.5000 1210.0100 440.5000Q1213.4400 447.5000 1213.4400 457.3000L1213.4400 457.3000L1213.4400 496.6400Q1213.4400 498.0400 1212.4600 499.0200Q1211.4800 500 1210.0800 500L1210.0800 500L1197.7600 500Q1196.3600 500 1195.3800 499.0200Q1194.4000 498.0400 1194.4000 496.6400L1194.4000 496.6400L1194.4000 458.1400Q1194.4000 450.0200 1190.4100 445.4000Q1186.4200 440.7800 1178.8600 440.7800L1178.8600 440.7800Q1171.5800 440.7800 1167.2400 445.4000Q1162.9000 450.0200 1162.9000 458.1400L1162.9000 458.1400L1162.9000 496.6400Q1162.9000 498.0400 1161.9200 499.0200Q1160.9400 500 1159.5400 500L1159.5400 500ZM1258.2400 501.4000L1258.2400 501.4000Q1250.9600 501.4000 1245.4300 498.9500Q1239.9000 496.5000 1236.2600 492.0200Q1232.6200 487.5400 1230.6600 481.4500Q1228.7000 475.3600 1228.4200 468.0800L1228.4200 468.0800Q1228.2800 465.5600 1228.2800 463.5300Q1228.2800 461.5000 1228.4200 458.9800L1228.4200 458.9800Q1228.7000 451.9800 1230.5900 445.9600Q1232.4800 439.9400 1236.1900 435.3900Q1239.9000 430.8400 1245.4300 428.3200Q1250.9600 425.8000 1258.2400 425.8000L1258.2400 425.8000Q1265.8000 425.8000 1271.0500 428.3900Q1276.3000 430.9800 1279.8000 435.0400L1279.8000 435.0400L1279.8000 403.9600Q1279.8000 402.5600 1280.7100 401.5800Q1281.6200 400.6000 1283.1600 400.6000L1283.1600 400.6000L1295.0600 400.6000Q1296.4600 400.6000 1297.4400 401.5800Q1298.4200 402.5600 1298.4200 403.9600L1298.4200 403.9600L1298.4200 496.6400Q1298.4200 498.0400 1297.4400 499.0200Q1296.4600 500 1295.0600 500L1295.0600 500L1284 500Q1282.4600 500 1281.5500 499.0200Q1280.6400 498.0400 1280.6400 496.6400L1280.6400 496.6400L1280.6400 491.4600Q1277.1400 495.8000 1271.7500 498.6000Q1266.3600 501.4000 1258.2400 501.4000ZM1263.4200 486.4200L1263.4200 486.4200Q1269.3000 486.4200 1272.8000 483.7600Q1276.3000 481.1000 1277.9800 476.9700Q1279.6600 472.8400 1279.8000 468.5000L1279.8000 468.5000Q1279.9400 465.9800 1279.9400 463.1100Q1279.9400 460.2400 1279.8000 457.7200L1279.8000 457.7200Q1279.6600 453.5200 1277.8400 449.6700Q1276.0200 445.8200 1272.5200 443.3000Q1269.0200 440.7800 1263.4200 440.7800L1263.4200 440.7800Q1257.5400 440.7800 1254.1100 443.3700Q1250.6800 445.9600 1249.1400 450.1600Q1247.6000 454.3600 1247.3200 459.4000L1247.3200 459.4000Q1247.1800 463.6000 1247.3200 467.8000L1247.3200 467.8000Q1247.6000 472.8400 1249.1400 477.0400Q1250.6800 481.2400 1254.1100 483.8300Q1257.5400 486.4200 1263.4200 486.4200ZM1349.2400 501.4000L1349.2400 501.4000Q1338.0400 501.4000 1330.4100 497.4800Q1322.7800 493.5600 1318.7900 486.4200Q1314.8000 479.2800 1314.2400 469.7600L1314.2400 469.7600Q1314.1000 467.2400 1314.1000 463.6000Q1314.1000 459.9600 1314.2400 457.4400L1314.2400 457.4400Q1314.8000 447.7800 1318.9300 440.7100Q1323.0600 433.6400 1330.6900 429.7200Q1338.3200 425.8000 1349.2400 425.8000L1349.2400 425.8000Q1360.1600 425.8000 1367.7900 429.7200Q1375.4200 433.6400 1379.5500 440.7100Q1383.6800 447.7800 1384.2400 457.4400L1384.2400 457.4400Q1384.3800 459.9600 1384.3800 463.6000Q1384.3800 467.2400 1384.2400 469.7600L1384.2400 469.7600Q1383.6800 479.2800 1379.6900 486.4200Q1375.7000 493.5600 1368.0700 497.4800Q1360.4400 501.4000 1349.2400 501.4000ZM1349.2400 487.5400L1349.2400 487.5400Q1356.6600 487.5400 1360.7200 482.8500Q1364.7800 478.1600 1365.2000 469.0600L1365.2000 469.0600Q1365.3400 466.9600 1365.3400 463.6000Q1365.3400 460.2400 1365.2000 458.1400L1365.2000 458.1400Q1364.7800 449.0400 1360.7200 444.3500Q1356.6600 439.6600 1349.2400 439.6600L1349.2400 439.6600Q1341.8200 439.6600 1337.7600 444.3500Q1333.7000 449.0400 1333.2800 458.1400L1333.2800 458.1400Q1333.1400 460.2400 1333.1400 463.6000Q1333.1400 466.9600 1333.2800 469.0600L1333.2800 469.0600Q1333.7000 478.1600 1337.7600 482.8500Q1341.8200 487.5400 1349.2400 487.5400ZM186.2600 641.4000L186.2600 641.4000Q178.9800 641.4000 173.4500 638.9500Q167.9200 636.5000 164.2800 632.0200Q160.6400 627.5400 158.6800 621.4500Q156.7200 615.3600 156.4400 608.0800L156.4400 608.0800Q156.3000 605.5600 156.3000 603.5300Q156.3000 601.5000 156.4400 598.9800L156.4400 598.9800Q156.7200 591.9800 158.6100 585.9600Q160.5000 579.9400 164.2100 575.3900Q167.9200 570.8400 173.4500 568.3200Q178.9800 565.8000 186.2600 565.8000L186.2600 565.8000Q193.8200 565.8000 199.0700 568.3900Q204.3200 570.9800 207.8200 575.0400L207.8200 575.0400L207.8200 543.9600Q207.8200 542.5600 208.7300 541.5800Q209.6400 540.6000 211.1800 540.6000L211.1800 540.6000L223.0800 540.6000Q224.4800 540.6000 225.4600 541.5800Q226.4400 542.5600 226.4400 543.9600L226.4400 543.9600L226.4400 636.6400Q226.4400 638.0400 225.4600 639.0200Q224.4800 640 223.0800 640L223.0800 640L212.0200 640Q210.4800 640 209.5700 639.0200Q208.6600 638.0400 208.6600 636.6400L208.6600 636.6400L208.6600 631.4600Q205.1600 635.8000 199.7700 638.6000Q194.3800 641.4000 186.2600 641.4000ZM191.4400 626.4200L191.4400 626.4200Q197.3200 626.4200 200.8200 623.7600Q204.3200 621.1000 206 616.9700Q207.6800 612.8400 207.8200 608.5000L207.8200 608.5000Q207.9600 605.9800 207.9600 603.1100Q207.9600 600.2400 207.8200 597.7200L207.8200 597.7200Q207.6800 593.5200 205.8600 589.6700Q204.0400 585.8200 200.5400 583.3000Q197.0400 580.7800 191.4400 580.7800L191.4400 580.7800Q185.5600 580.7800 182.1300 583.3700Q178.7000 585.9600 177.1600 590.1600Q175.6200 594.3600 175.3400 599.4000L175.3400 599.4000Q175.2000 603.6000 175.3400 607.8000L175.3400 607.8000Q175.6200 612.8400 177.1600 617.0400Q178.7000 621.2400 182.1300 623.8300Q185.5600 626.4200 191.4400 626.4200ZM266.2000 641.4000L266.2000 641.4000Q258.9200 641.4000 253.0400 638.5300Q247.1600 635.6600 243.7300 630.8300Q240.3000 626 240.3000 619.9800L240.3000 619.9800Q240.3000 610.1800 248.2800 604.3700Q256.2600 598.5600 269.1400 596.6000L269.1400 596.6000L288.3200 593.8000L288.3200 590.8600Q288.3200 584.9800 285.3800 581.7600Q282.4400 578.5400 275.3000 578.5400L275.3000 578.5400Q270.2600 578.5400 267.1100 580.5700Q263.9600 582.6000 262.4200 585.9600L262.4200 585.9600Q261.3000 587.7800 259.2000 587.7800L259.2000 587.7800L248.1400 587.7800Q246.6000 587.7800 245.8300 586.9400Q245.0600 586.1000 245.0600 584.7000L245.0600 584.7000Q245.2000 582.4600 246.9500 579.2400Q248.7000 576.0200 252.2700 573.0100Q255.8400 570 261.5800 567.9000Q267.3200 565.8000 275.4400 565.8000L275.4400 565.8000Q284.2600 565.8000 290.3500 567.9700Q296.4400 570.1400 300.0800 573.7800Q303.7200 577.4200 305.4000 582.3200Q307.0800 587.2200 307.0800 592.6800L307.0800 592.6800L307.0800 636.6400Q307.0800 638.0400 306.1000 639.0200Q305.1200 640 303.7200 640L303.7200 640L292.3800 640Q290.8400 640 289.9300 639.0200Q289.0200 638.0400 289.0200 636.6400L289.0200 636.6400L289.0200 631.1800Q287.2000 633.7000 284.1200 636.0800Q281.0400 638.4600 276.6300 639.9300Q272.2200 641.4000 266.2000 641.4000ZM270.9600 628.1000L270.9600 628.1000Q275.8600 628.1000 279.8500 626Q283.8400 623.9000 286.1500 619.4900Q288.4600 615.0800 288.4600 608.3600L288.4600 608.3600L288.4600 605.4200L274.4600 607.6600Q266.2000 608.9200 262.1400 611.7200Q258.0800 614.5200 258.0800 618.5800L258.0800 618.5800Q258.0800 621.6600 259.9700 623.8300Q261.8600 626 264.8000 627.0500Q267.7400 628.1000 270.9600 628.1000ZM352.0200 641.4000L352.0200 641.4000Q344.7400 641.4000 339.2100 638.9500Q333.6800 636.5000 330.0400 632.0200Q326.4000 627.5400 324.4400 621.4500Q322.4800 615.3600 322.2000 608.0800L322.2000 608.0800Q322.0600 605.5600 322.0600 603.5300Q322.0600 601.5000 322.2000 598.9800L322.2000 598.9800Q322.4800 591.9800 324.3700 585.9600Q326.2600 579.9400 329.9700 575.3900Q333.6800 570.8400 339.2100 568.3200Q344.7400 565.8000 352.0200 565.8000L352.0200 565.8000Q359.5800 565.8000 364.8300 568.3900Q370.0800 570.9800 373.5800 575.0400L373.5800 575.0400L373.5800 543.9600Q373.5800 542.5600 374.4900 541.5800Q375.4000 540.6000 376.9400 540.6000L376.9400 540.6000L388.8400 540.6000Q390.2400 540.6000 391.2200 541.5800Q392.2000 542.5600 392.2000 543.9600L392.2000 543.9600L392.2000 636.6400Q392.2000 638.0400 391.2200 639.0200Q390.2400 640 388.8400 640L388.8400 640L377.7800 640Q376.2400 640 375.3300 639.0200Q374.4200 638.0400 374.4200 636.6400L374.4200 636.6400L374.4200 631.4600Q370.9200 635.8000 365.5300 638.6000Q360.1400 641.4000 352.0200 641.4000ZM357.2000 626.4200L357.2000 626.4200Q363.0800 626.4200 366.5800 623.7600Q370.0800 621.1000 371.7600 616.9700Q373.4400 612.8400 373.5800 608.5000L373.5800 608.5000Q373.7200 605.9800 373.7200 603.1100Q373.7200 600.2400 373.5800 597.7200L373.5800 597.7200Q373.4400 593.5200 371.6200 589.6700Q369.8000 585.8200 366.3000 583.3000Q362.8000 580.7800 357.2000 580.7800L357.2000 580.7800Q351.3200 580.7800 347.8900 583.3700Q344.4600 585.9600 342.9200 590.1600Q341.3800 594.3600 341.1000 599.4000L341.1000 599.4000Q340.9600 603.6000 341.1000 607.8000L341.1000 607.8000Q341.3800 612.8400 342.9200 617.0400Q344.4600 621.2400 347.8900 623.8300Q351.3200 626.4200 357.2000 626.4200ZM443.0200 641.4000L443.0200 641.4000Q431.8200 641.4000 424.1900 637.4800Q416.5600 633.5600 412.5700 626.4200Q408.5800 619.2800 408.0200 609.7600L408.0200 609.7600Q407.8800 607.2400 407.8800 603.6000Q407.8800 599.9600 408.0200 597.4400L408.0200 597.4400Q408.5800 587.7800 412.7100 580.7100Q416.8400 573.6400 424.4700 569.7200Q432.1000 565.8000 443.0200 565.8000L443.0200 565.8000Q453.9400 565.8000 461.5700 569.7200Q469.2000 573.6400 473.3300 580.7100Q477.4600 587.7800 478.0200 597.4400L478.0200 597.4400Q478.1600 599.9600 478.1600 603.6000Q478.1600 607.2400 478.0200 609.7600L478.0200 609.7600Q477.4600 619.2800 473.4700 626.4200Q469.4800 633.5600 461.8500 637.4800Q454.2200 641.4000 443.0200 641.4000ZM443.0200 627.5400L443.0200 627.5400Q450.4400 627.5400 454.5000 622.8500Q458.5600 618.1600 458.9800 609.0600L458.9800 609.0600Q459.1200 606.9600 459.1200 603.6000Q459.1200 600.2400 458.9800 598.1400L458.9800 598.1400Q458.5600 589.0400 454.5000 584.3500Q450.4400 579.6600 443.0200 579.6600L443.0200 579.6600Q435.6000 579.6600 431.5400 584.3500Q427.4800 589.0400 427.0600 598.1400L427.0600 598.1400Q426.9200 600.2400 426.9200 603.6000Q426.9200 606.9600 427.0600 609.0600L427.0600 609.0600Q427.4800 618.1600 431.5400 622.8500Q435.6000 627.5400 443.0200 627.5400ZM521.2800 641.4000L521.2800 641.4000Q512.8800 641.4000 506.9300 639.4400Q500.9800 637.4800 497.2000 634.5400Q493.4200 631.6000 491.6000 628.6600Q489.7800 625.7200 489.6400 623.7600L489.6400 623.7600Q489.5000 622.2200 490.5500 621.3100Q491.6000 620.4000 492.8600 620.4000L492.8600 620.4000L503.9200 620.4000Q504.4800 620.4000 504.9000 620.5400Q505.3200 620.6800 506.0200 621.3800L506.0200 621.3800Q507.8400 622.9200 509.8700 624.6000Q511.9000 626.2800 514.7000 627.4700Q517.5000 628.6600 521.7000 628.6600L521.7000 628.6600Q527.1600 628.6600 530.8700 626.4900Q534.5800 624.3200 534.5800 620.2600L534.5800 620.2600Q534.5800 617.3200 532.9700 615.5000Q531.3600 613.6800 527.0200 612.2100Q522.6800 610.7400 514.7000 609.0600L514.7000 609.0600Q506.8600 607.2400 501.6800 604.4400Q496.5000 601.6400 493.9800 597.4400Q491.4600 593.2400 491.4600 587.6400L491.4600 587.6400Q491.4600 582.1800 494.7500 577.2100Q498.0400 572.2400 504.5500 569.0200Q511.0600 565.8000 520.7200 565.8000L520.7200 565.8000Q528.2800 565.8000 533.8800 567.6900Q539.4800 569.5800 543.1900 572.3800Q546.9000 575.1800 548.8600 578.0500Q550.8200 580.9200 550.9600 583.0200L550.9600 583.0200Q551.1000 584.5600 550.1200 585.4700Q549.1400 586.3800 547.8800 586.3800L547.8800 586.3800L537.5200 586.3800Q536.8200 586.3800 536.2600 586.1000Q535.7000 585.8200 535.1400 585.4000L535.1400 585.4000Q533.6000 584 531.7800 582.3900Q529.9600 580.7800 527.3700 579.6600Q524.7800 578.5400 520.5800 578.5400L520.5800 578.5400Q515.2600 578.5400 512.4600 580.8500Q509.6600 583.1600 509.6600 586.6600L509.6600 586.6600Q509.6600 589.0400 510.9900 590.7900Q512.3200 592.5400 516.3800 594.0800Q520.4400 595.6200 528.7000 597.3000L528.7000 597.3000Q538.0800 598.9800 543.6100 602.2700Q549.1400 605.5600 551.4500 609.8300Q553.7600 614.1000 553.7600 619.2800L553.7600 619.2800Q553.7600 625.5800 550.0500 630.6200Q546.3400 635.6600 539.1300 638.5300Q531.9200 641.4000 521.2800 641.4000ZM627.2600 641.4000L627.2600 641.4000Q618.7200 641.4000 612.4900 637.5500Q606.2600 633.7000 602.9000 626.6300Q599.5400 619.5600 599.5400 609.9000L599.5400 609.9000L599.5400 570.5600Q599.5400 569.1600 600.5200 568.1800Q601.5000 567.2000 602.9000 567.2000L602.9000 567.2000L615.2200 567.2000Q616.7600 567.2000 617.6700 568.1800Q618.5800 569.1600 618.5800 570.5600L618.5800 570.5600L618.5800 609.0600Q618.5800 626.4200 633.8400 626.4200L633.8400 626.4200Q641.1200 626.4200 645.3900 621.8000Q649.6600 617.1800 649.6600 609.0600L649.6600 609.0600L649.6600 570.5600Q649.6600 569.1600 650.6400 568.1800Q651.6200 567.2000 653.0200 567.2000L653.0200 567.2000L665.3400 567.2000Q666.7400 567.2000 667.7200 568.1800Q668.7000 569.1600 668.7000 570.5600L668.7000 570.5600L668.7000 636.6400Q668.7000 638.0400 667.7200 639.0200Q666.7400 640 665.3400 640L665.3400 640L654 640Q652.4600 640 651.5500 639.0200Q650.6400 638.0400 650.6400 636.6400L650.6400 636.6400L650.6400 630.9000Q646.8600 635.8000 641.2600 638.6000Q635.6600 641.4000 627.2600 641.4000ZM731.4200 640L720.0800 640Q711.6800 640 705.9400 637.0600Q700.2000 634.1200 697.4000 628.3100Q694.6000 622.5000 694.6000 613.8200L694.6000 613.8200L694.6000 582.0400L683.5400 582.0400Q682.1400 582.0400 681.1600 581.0600Q680.1800 580.0800 680.1800 578.5400L680.1800 578.5400L680.1800 570.5600Q680.1800 569.1600 681.1600 568.1800Q682.1400 567.2000 683.5400 567.2000L683.5400 567.2000L694.6000 567.2000L694.6000 543.9600Q694.6000 542.5600 695.5100 541.5800Q696.4200 540.6000 697.9600 540.6000L697.9600 540.6000L709.3000 540.6000Q710.7000 540.6000 711.6800 541.5800Q712.6600 542.5600 712.6600 543.9600L712.6600 543.9600L712.6600 567.2000L730.1600 567.2000Q731.5600 567.2000 732.5400 568.1800Q733.5200 569.1600 733.5200 570.5600L733.5200 570.5600L733.5200 578.5400Q733.5200 580.0800 732.5400 581.0600Q731.5600 582.0400 730.1600 582.0400L730.1600 582.0400L712.6600 582.0400L712.6600 612.4200Q712.6600 618.1600 714.6900 621.3800Q716.7200 624.6000 721.7600 624.6000L721.7600 624.6000L731.4200 624.6000Q732.8200 624.6000 733.8000 625.5800Q734.7800 626.5600 734.7800 627.9600L734.7800 627.9600L734.7800 636.6400Q734.7800 638.0400 733.8000 639.0200Q732.8200 640 731.4200 640L731.4200 640ZM762.2200 640L750.6000 640Q749.2000 640 748.2200 639.0200Q747.2400 638.0400 747.2400 636.6400L747.2400 636.6400L747.2400 570.5600Q747.2400 569.1600 748.2200 568.1800Q749.2000 567.2000 750.6000 567.2000L750.6000 567.2000L762.2200 567.2000Q763.7600 567.2000 764.6700 568.1800Q765.5800 569.1600 765.5800 570.5600L765.5800 570.5600L765.5800 636.6400Q765.5800 638.0400 764.6700 639.0200Q763.7600 640 762.2200 640L762.2200 640ZM762.7800 555.1600L750.0400 555.1600Q748.6400 555.1600 747.6600 554.1800Q746.6800 553.2000 746.6800 551.8000L746.6800 551.8000L746.6800 541.7200Q746.6800 540.3200 747.6600 539.3400Q748.6400 538.3600 750.0400 538.3600L750.0400 538.3600L762.7800 538.3600Q764.3200 538.3600 765.3000 539.3400Q766.2800 540.3200 766.2800 541.7200L766.2800 541.7200L766.2800 551.8000Q766.2800 553.2000 765.3000 554.1800Q764.3200 555.1600 762.7800 555.1600L762.7800 555.1600ZM799.3200 640L787.7000 640Q786.3000 640 785.3200 639.0200Q784.3400 638.0400 784.3400 636.6400L784.3400 636.6400L784.3400 543.9600Q784.3400 542.5600 785.3200 541.5800Q786.3000 540.6000 787.7000 540.6000L787.7000 540.6000L799.3200 540.6000Q800.7200 540.6000 801.7000 541.5800Q802.6800 542.5600 802.6800 543.9600L802.6800 543.9600L802.6800 636.6400Q802.6800 638.0400 801.7000 639.0200Q800.7200 640 799.3200 640L799.3200 640ZM836.2800 640L824.6600 640Q823.2600 640 822.2800 639.0200Q821.3000 638.0400 821.3000 636.6400L821.3000 636.6400L821.3000 570.5600Q821.3000 569.1600 822.2800 568.1800Q823.2600 567.2000 824.6600 567.2000L824.6600 567.2000L836.2800 567.2000Q837.8200 567.2000 838.7300 568.1800Q839.6400 569.1600 839.6400 570.5600L839.6400 570.5600L839.6400 636.6400Q839.6400 638.0400 838.7300 639.0200Q837.8200 640 836.2800 640L836.2800 640ZM836.8400 555.1600L824.1000 555.1600Q822.7000 555.1600 821.7200 554.1800Q820.7400 553.2000 820.7400 551.8000L820.7400 551.8000L820.7400 541.7200Q820.7400 540.3200 821.7200 539.3400Q822.7000 538.3600 824.1000 538.3600L824.1000 538.3600L836.8400 538.3600Q838.3800 538.3600 839.3600 539.3400Q840.3400 540.3200 840.3400 541.7200L840.3400 541.7200L840.3400 551.8000Q840.3400 553.2000 839.3600 554.1800Q838.3800 555.1600 836.8400 555.1600L836.8400 555.1600ZM915.1000 640L857.9800 640Q856.4400 640 855.5300 639.0200Q854.6200 638.0400 854.6200 636.6400L854.6200 636.6400L854.6200 628.6600Q854.6200 627.4000 855.2500 626.2100Q855.8800 625.0200 856.5800 624.1800L856.5800 624.1800L892.4200 581.7600L859.1000 581.7600Q857.7000 581.7600 856.7200 580.8500Q855.7400 579.9400 855.7400 578.4000L855.7400 578.4000L855.7400 570.5600Q855.7400 569.1600 856.7200 568.1800Q857.7000 567.2000 859.1000 567.2000L859.1000 567.2000L912.1600 567.2000Q913.7000 567.2000 914.6100 568.1800Q915.5200 569.1600 915.5200 570.5600L915.5200 570.5600L915.5200 579.1000Q915.5200 580.3600 914.9600 581.3400Q914.4000 582.3200 913.5600 583.3000L913.5600 583.3000L878.5600 625.4400L915.1000 625.4400Q916.5000 625.4400 917.4800 626.3500Q918.4600 627.2600 918.4600 628.8000L918.4600 628.8000L918.4600 636.6400Q918.4600 638.0400 917.4800 639.0200Q916.5000 640 915.1000 640L915.1000 640ZM953.7400 641.4000L953.7400 641.4000Q946.4600 641.4000 940.5800 638.5300Q934.7000 635.6600 931.2700 630.8300Q927.8400 626 927.8400 619.9800L927.8400 619.9800Q927.8400 610.1800 935.8200 604.3700Q943.8000 598.5600 956.6800 596.6000L956.6800 596.6000L975.8600 593.8000L975.8600 590.8600Q975.8600 584.9800 972.9200 581.7600Q969.9800 578.5400 962.8400 578.5400L962.8400 578.5400Q957.8000 578.5400 954.6500 580.5700Q951.5000 582.6000 949.9600 585.9600L949.9600 585.9600Q948.8400 587.7800 946.7400 587.7800L946.7400 587.7800L935.6800 587.7800Q934.1400 587.7800 933.3700 586.9400Q932.6000 586.1000 932.6000 584.7000L932.6000 584.7000Q932.7400 582.4600 934.4900 579.2400Q936.2400 576.0200 939.8100 573.0100Q943.3800 570 949.1200 567.9000Q954.8600 565.8000 962.9800 565.8000L962.9800 565.8000Q971.8000 565.8000 977.8900 567.9700Q983.9800 570.1400 987.6200 573.7800Q991.2600 577.4200 992.9400 582.3200Q994.6200 587.2200 994.6200 592.6800L994.6200 592.6800L994.6200 636.6400Q994.6200 638.0400 993.6400 639.0200Q992.6600 640 991.2600 640L991.2600 640L979.9200 640Q978.3800 640 977.4700 639.0200Q976.5600 638.0400 976.5600 636.6400L976.5600 636.6400L976.5600 631.1800Q974.7400 633.7000 971.6600 636.0800Q968.5800 638.4600 964.1700 639.9300Q959.7600 641.4000 953.7400 641.4000ZM958.5000 628.1000L958.5000 628.1000Q963.4000 628.1000 967.3900 626Q971.3800 623.9000 973.6900 619.4900Q976.0000 615.0800 976.0000 608.3600L976.0000 608.3600L976.0000 605.4200L962.0000 607.6600Q953.7400 608.9200 949.6800 611.7200Q945.6200 614.5200 945.6200 618.5800L945.6200 618.5800Q945.6200 621.6600 947.5100 623.8300Q949.4000 626 952.3400 627.0500Q955.2800 628.1000 958.5000 628.1000ZM1028.2200 640L1015.9000 640Q1014.5000 640 1013.5200 639.0200Q1012.5400 638.0400 1012.5400 636.6400L1012.5400 636.6400L1012.5400 570.5600Q1012.5400 569.1600 1013.5200 568.1800Q1014.5000 567.2000 1015.9000 567.2000L1015.9000 567.2000L1027.3800 567.2000Q1028.7800 567.2000 1029.7600 568.1800Q1030.7400 569.1600 1030.7400 570.5600L1030.7400 570.5600L1030.7400 576.3000Q1034.3800 571.8200 1040.0500 568.8100Q1045.7200 565.8000 1054.1200 565.8000L1054.1200 565.8000Q1062.6600 565.8000 1068.9600 569.6500Q1075.2600 573.5000 1078.6900 580.5000Q1082.1200 587.5000 1082.1200 597.3000L1082.1200 597.3000L1082.1200 636.6400Q1082.1200 638.0400 1081.1400 639.0200Q1080.1600 640 1078.7600 640L1078.7600 640L1066.4400 640Q1065.0400 640 1064.0600 639.0200Q1063.0800 638.0400 1063.0800 636.6400L1063.0800 636.6400L1063.0800 598.1400Q1063.0800 590.0200 1059.0900 585.4000Q1055.1000 580.7800 1047.5400 580.7800L1047.5400 580.7800Q1040.2600 580.7800 1035.9200 585.4000Q1031.5800 590.0200 1031.5800 598.1400L1031.5800 598.1400L1031.5800 636.6400Q1031.5800 638.0400 1030.6000 639.0200Q1029.6200 640 1028.2200 640L1028.2200 640ZM1126.9200 641.4000L1126.9200 641.4000Q1119.6400 641.4000 1114.1100 638.9500Q1108.5800 636.5000 1104.9400 632.0200Q1101.3000 627.5400 1099.3400 621.4500Q1097.3800 615.3600 1097.1000 608.0800L1097.1000 608.0800Q1096.9600 605.5600 1096.9600 603.5300Q1096.9600 601.5000 1097.1000 598.9800L1097.1000 598.9800Q1097.3800 591.9800 1099.2700 585.9600Q1101.1600 579.9400 1104.8700 575.3900Q1108.5800 570.8400 1114.1100 568.3200Q1119.6400 565.8000 1126.9200 565.8000L1126.9200 565.8000Q1134.4800 565.8000 1139.7300 568.3900Q1144.9800 570.9800 1148.4800 575.0400L1148.4800 575.0400L1148.4800 543.9600Q1148.4800 542.5600 1149.3900 541.5800Q1150.3000 540.6000 1151.8400 540.6000L1151.8400 540.6000L1163.7400 540.6000Q1165.1400 540.6000 1166.1200 541.5800Q1167.1000 542.5600 1167.1000 543.9600L1167.1000 543.9600L1167.1000 636.6400Q1167.1000 638.0400 1166.1200 639.0200Q1165.1400 640 1163.7400 640L1163.7400 640L1152.6800 640Q1151.1400 640 1150.2300 639.0200Q1149.3200 638.0400 1149.3200 636.6400L1149.3200 636.6400L1149.3200 631.4600Q1145.8200 635.8000 1140.4300 638.6000Q1135.0400 641.4000 1126.9200 641.4000ZM1132.1000 626.4200L1132.1000 626.4200Q1137.9800 626.4200 1141.4800 623.7600Q1144.9800 621.1000 1146.6600 616.9700Q1148.3400 612.8400 1148.4800 608.5000L1148.4800 608.5000Q1148.6200 605.9800 1148.6200 603.1100Q1148.6200 600.2400 1148.4800 597.7200L1148.4800 597.7200Q1148.3400 593.5200 1146.5200 589.6700Q1144.7000 585.8200 1141.2000 583.3000Q1137.7000 580.7800 1132.1000 580.7800L1132.1000 580.7800Q1126.2200 580.7800 1122.7900 583.3700Q1119.3600 585.9600 1117.8200 590.1600Q1116.2800 594.3600 1116.0000 599.4000L1116.0000 599.4000Q1115.8600 603.6000 1116.0000 607.8000L1116.0000 607.8000Q1116.2800 612.8400 1117.8200 617.0400Q1119.3600 621.2400 1122.7900 623.8300Q1126.2200 626.4200 1132.1000 626.4200ZM1217.9200 641.4000L1217.9200 641.4000Q1206.7200 641.4000 1199.0900 637.4800Q1191.4600 633.5600 1187.4700 626.4200Q1183.4800 619.2800 1182.9200 609.7600L1182.9200 609.7600Q1182.7800 607.2400 1182.7800 603.6000Q1182.7800 599.9600 1182.9200 597.4400L1182.9200 597.4400Q1183.4800 587.7800 1187.6100 580.7100Q1191.7400 573.6400 1199.3700 569.7200Q1207.0000 565.8000 1217.9200 565.8000L1217.9200 565.8000Q1228.8400 565.8000 1236.4700 569.7200Q1244.1000 573.6400 1248.2300 580.7100Q1252.3600 587.7800 1252.9200 597.4400L1252.9200 597.4400Q1253.0600 599.9600 1253.0600 603.6000Q1253.0600 607.2400 1252.9200 609.7600L1252.9200 609.7600Q1252.3600 619.2800 1248.3700 626.4200Q1244.3800 633.5600 1236.7500 637.4800Q1229.1200 641.4000 1217.9200 641.4000ZM1217.9200 627.5400L1217.9200 627.5400Q1225.3400 627.5400 1229.4000 622.8500Q1233.4600 618.1600 1233.8800 609.0600L1233.8800 609.0600Q1234.0200 606.9600 1234.0200 603.6000Q1234.0200 600.2400 1233.8800 598.1400L1233.8800 598.1400Q1233.4600 589.0400 1229.4000 584.3500Q1225.3400 579.6600 1217.9200 579.6600L1217.9200 579.6600Q1210.5000 579.6600 1206.4400 584.3500Q1202.3800 589.0400 1201.9600 598.1400L1201.9600 598.1400Q1201.8200 600.2400 1201.8200 603.6000Q1201.8200 606.9600 1201.9600 609.0600L1201.9600 609.0600Q1202.3800 618.1600 1206.4400 622.8500Q1210.5000 627.5400 1217.9200 627.5400ZM1332.8600 641.4000L1332.8600 641.4000Q1321.6600 641.4000 1314.0300 637.4800Q1306.4000 633.5600 1302.4100 626.4200Q1298.4200 619.2800 1297.8600 609.7600L1297.8600 609.7600Q1297.7200 607.2400 1297.7200 603.6000Q1297.7200 599.9600 1297.8600 597.4400L1297.8600 597.4400Q1298.4200 587.7800 1302.5500 580.7100Q1306.6800 573.6400 1314.3100 569.7200Q1321.9400 565.8000 1332.8600 565.8000L1332.8600 565.8000Q1343.7800 565.8000 1351.4100 569.7200Q1359.0400 573.6400 1363.1700 580.7100Q1367.3000 587.7800 1367.8600 597.4400L1367.8600 597.4400Q1368.0000 599.9600 1368.0000 603.6000Q1368.0000 607.2400 1367.8600 609.7600L1367.8600 609.7600Q1367.3000 619.2800 1363.3100 626.4200Q1359.3200 633.5600 1351.6900 637.4800Q1344.0600 641.4000 1332.8600 641.4000ZM1332.8600 627.5400L1332.8600 627.5400Q1340.2800 627.5400 1344.3400 622.8500Q1348.4000 618.1600 1348.8200 609.0600L1348.8200 609.0600Q1348.9600 606.9600 1348.9600 603.6000Q1348.9600 600.2400 1348.8200 598.1400L1348.8200 598.1400Q1348.4000 589.0400 1344.3400 584.3500Q1340.2800 579.6600 1332.8600 579.6600L1332.8600 579.6600Q1325.4400 579.6600 1321.3800 584.3500Q1317.3200 589.0400 1316.9000 598.1400L1316.9000 598.1400Q1316.7600 600.2400 1316.7600 603.6000Q1316.7600 606.9600 1316.9000 609.0600L1316.9000 609.0600Q1317.3200 618.1600 1321.3800 622.8500Q1325.4400 627.5400 1332.8600 627.5400ZM199 781.4000L199 781.4000Q186.1200 781.4000 177.0900 776.9200Q168.0600 772.4400 163.0900 763.9700Q158.1200 755.5000 157.7000 743.7400L157.7000 743.7400Q157.5600 737.7200 157.5600 730.7900Q157.5600 723.8600 157.7000 717.7000L157.7000 717.7000Q158.1200 706.0800 163.0900 697.8200Q168.0600 689.5600 177.2300 685.0800Q186.4000 680.6000 199 680.6000L199 680.6000Q209.2200 680.6000 216.9200 683.3300Q224.6200 686.0600 229.7300 690.3300Q234.8400 694.6000 237.4300 699.5000Q240.0200 704.4000 240.1600 708.6000L240.1600 708.6000Q240.3000 709.8600 239.4600 710.7000Q238.6200 711.5400 237.2200 711.5400L237.2200 711.5400L222.8000 711.5400Q221.4000 711.5400 220.7000 710.9800Q220 710.4200 219.4400 709.3000L219.4400 709.3000Q218.3200 706.3600 215.9400 703.4900Q213.5600 700.6200 209.5000 698.6600Q205.4400 696.7000 199 696.7000L199 696.7000Q189.4800 696.7000 183.8100 701.7400Q178.1400 706.7800 177.7200 718.4000L177.7200 718.4000Q177.3000 730.5800 177.7200 743.0400L177.7200 743.0400Q178.1400 754.9400 183.9500 760.1200Q189.7600 765.3000 199.2800 765.3000L199.2800 765.3000Q205.5800 765.3000 210.5500 763.0600Q215.5200 760.8200 218.3900 756.0600Q221.2600 751.3000 221.2600 743.8800L221.2600 743.8800L221.2600 739.5400L204.1800 739.5400Q202.7800 739.5400 201.8000 738.5600Q200.8200 737.5800 200.8200 736.0400L200.8200 736.0400L200.8200 728.6200Q200.8200 727.0800 201.8000 726.1000Q202.7800 725.1200 204.1800 725.1200L204.1800 725.1200L237.6400 725.1200Q239.1800 725.1200 240.0900 726.1000Q241 727.0800 241 728.6200L241 728.6200L241 743.3200Q241 755.0800 235.8900 763.6200Q230.7800 772.1600 221.3300 776.7800Q211.8800 781.4000 199 781.4000ZM272.7800 780L260.6000 780Q259.2000 780 258.2200 779.0200Q257.2400 778.0400 257.2400 776.6400L257.2400 776.6400L257.2400 710.7000Q257.2400 709.1600 258.2200 708.1800Q259.2000 707.2000 260.6000 707.2000L260.6000 707.2000L271.9400 707.2000Q273.3400 707.2000 274.3900 708.1800Q275.4400 709.1600 275.4400 710.7000L275.4400 710.7000L275.4400 716.4400Q278.6600 711.9600 283.7700 709.5800Q288.8800 707.2000 295.6000 707.2000L295.6000 707.2000L301.3400 707.2000Q302.8800 707.2000 303.7900 708.1800Q304.7000 709.1600 304.7000 710.5600L304.7000 710.5600L304.7000 720.6400Q304.7000 722.0400 303.7900 723.0200Q302.8800 724 301.3400 724L301.3400 724L290.4200 724Q283.7000 724 279.9900 727.7100Q276.2800 731.4200 276.2800 738.1400L276.2800 738.1400L276.2800 776.6400Q276.2800 778.0400 275.3000 779.0200Q274.3200 780 272.7800 780L272.7800 780ZM347.8200 781.4000L347.8200 781.4000Q336.6200 781.4000 328.9900 777.4800Q321.3600 773.5600 317.3700 766.4200Q313.3800 759.2800 312.8200 749.7600L312.8200 749.7600Q312.6800 747.2400 312.6800 743.6000Q312.6800 739.9600 312.8200 737.4400L312.8200 737.4400Q313.3800 727.7800 317.5100 720.7100Q321.6400 713.6400 329.2700 709.7200Q336.9000 705.8000 347.8200 705.8000L347.8200 705.8000Q358.7400 705.8000 366.3700 709.7200Q374 713.6400 378.1300 720.7100Q382.2600 727.7800 382.8200 737.4400L382.8200 737.4400Q382.9600 739.9600 382.9600 743.6000Q382.9600 747.2400 382.8200 749.7600L382.8200 749.7600Q382.2600 759.2800 378.2700 766.4200Q374.2800 773.5600 366.6500 777.4800Q359.0200 781.4000 347.8200 781.4000ZM347.8200 767.5400L347.8200 767.5400Q355.2400 767.5400 359.3000 762.8500Q363.3600 758.1600 363.7800 749.0600L363.7800 749.0600Q363.9200 746.9600 363.9200 743.6000Q363.9200 740.2400 363.7800 738.1400L363.7800 738.1400Q363.3600 729.0400 359.3000 724.3500Q355.2400 719.6600 347.8200 719.6600L347.8200 719.6600Q340.4000 719.6600 336.3400 724.3500Q332.2800 729.0400 331.8600 738.1400L331.8600 738.1400Q331.7200 740.2400 331.7200 743.6000Q331.7200 746.9600 331.8600 749.0600L331.8600 749.0600Q332.2800 758.1600 336.3400 762.8500Q340.4000 767.5400 347.8200 767.5400ZM425.5200 781.4000L425.5200 781.4000Q416.9800 781.4000 410.7500 777.5500Q404.5200 773.7000 401.1600 766.6300Q397.8000 759.5600 397.8000 749.9000L397.8000 749.9000L397.8000 710.5600Q397.8000 709.1600 398.7800 708.1800Q399.7600 707.2000 401.1600 707.2000L401.1600 707.2000L413.4800 707.2000Q415.0200 707.2000 415.9300 708.1800Q416.8400 709.1600 416.8400 710.5600L416.8400 710.5600L416.8400 749.0600Q416.8400 766.4200 432.1000 766.4200L432.1000 766.4200Q439.3800 766.4200 443.6500 761.8000Q447.9200 757.1800 447.9200 749.0600L447.9200 749.0600L447.9200 710.5600Q447.9200 709.1600 448.9000 708.1800Q449.8800 707.2000 451.2800 707.2000L451.2800 707.2000L463.6000 707.2000Q465 707.2000 465.9800 708.1800Q466.9600 709.1600 466.9600 710.5600L466.9600 710.5600L466.9600 776.6400Q466.9600 778.0400 465.9800 779.0200Q465 780 463.6000 780L463.6000 780L452.2600 780Q450.7200 780 449.8100 779.0200Q448.9000 778.0400 448.9000 776.6400L448.9000 776.6400L448.9000 770.9000Q445.1200 775.8000 439.5200 778.6000Q433.9200 781.4000 425.5200 781.4000ZM500.8400 806.6000L488.9400 806.6000Q487.5400 806.6000 486.5600 805.6200Q485.5800 804.6400 485.5800 803.2400L485.5800 803.2400L485.5800 710.5600Q485.5800 709.1600 486.5600 708.1800Q487.5400 707.2000 488.9400 707.2000L488.9400 707.2000L500 707.2000Q501.5400 707.2000 502.4500 708.1800Q503.3600 709.1600 503.3600 710.5600L503.3600 710.5600L503.3600 716.1600Q506.7200 711.6800 512.1800 708.7400Q517.6400 705.8000 525.7600 705.8000L525.7600 705.8000Q533.1800 705.8000 538.6400 708.1800Q544.1000 710.5600 547.7400 714.9700Q551.3800 719.3800 553.3400 725.4000Q555.3000 731.4200 555.5800 738.7000L555.5800 738.7000Q555.7200 741.0800 555.7200 743.6000Q555.7200 746.1200 555.5800 748.6400L555.5800 748.6400Q555.4400 755.6400 553.4800 761.5900Q551.5200 767.5400 547.8100 771.9500Q544.1000 776.3600 538.6400 778.8800Q533.1800 781.4000 525.7600 781.4000L525.7600 781.4000Q518.2000 781.4000 512.8800 778.6700Q507.5600 775.9400 504.2000 771.4600L504.2000 771.4600L504.2000 803.2400Q504.2000 804.6400 503.2900 805.6200Q502.3800 806.6000 500.8400 806.6000L500.8400 806.6000ZM520.5800 766.4200L520.5800 766.4200Q526.6000 766.4200 529.9600 763.8300Q533.3200 761.2400 534.8600 757.0400Q536.4000 752.8400 536.6800 747.8000L536.6800 747.8000Q536.8200 743.6000 536.6800 739.4000L536.6800 739.4000Q536.4000 734.3600 534.8600 730.1600Q533.3200 725.9600 529.9600 723.3700Q526.6000 720.7800 520.5800 720.7800L520.5800 720.7800Q514.8400 720.7800 511.2700 723.4400Q507.7000 726.1000 506.0900 730.2300Q504.4800 734.3600 504.2000 738.7000L504.2000 738.7000Q504.0600 741.2200 504.0600 744.0200Q504.0600 746.8200 504.2000 749.4800L504.2000 749.4800Q504.3400 753.6800 506.1600 757.5300Q507.9800 761.3800 511.4800 763.9000Q514.9800 766.4200 520.5800 766.4200ZM650.2200 780L608.5000 780Q607.1000 780 606.1200 779.0200Q605.1400 778.0400 605.1400 776.6400L605.1400 776.6400L605.1400 685.5000Q605.1400 683.9600 606.1200 682.9800Q607.1000 682 608.5000 682L608.5000 682L649.1000 682Q660.4400 682 667.5800 685.4300Q674.7200 688.8600 678.1500 694.8800Q681.5800 700.9000 681.5800 708.8800L681.5800 708.8800Q681.5800 714.2000 679.6900 718.1900Q677.8000 722.1800 675.0700 724.7000Q672.3400 727.2200 669.6800 728.6200L669.6800 728.6200Q675.1400 731.1400 679.3400 737.0200Q683.5400 742.9000 683.5400 751.0200L683.5400 751.0200Q683.5400 759.4200 679.7600 766Q675.9800 772.5800 668.5600 776.2900Q661.1400 780 650.2200 780L650.2200 780ZM624.6000 736.7400L624.6000 765.1600L647.9800 765.1600Q655.5400 765.1600 659.4600 761.0300Q663.3800 756.9000 663.3800 751.0200L663.3800 751.0200Q663.3800 744.8600 659.3900 740.8000Q655.4000 736.7400 647.9800 736.7400L647.9800 736.7400L624.6000 736.7400ZM624.6000 696.7000L624.6000 722.1800L646.5800 722.1800Q654 722.1800 657.7100 718.6100Q661.4200 715.0400 661.4200 709.3000L661.4200 709.3000Q661.4200 703.4200 657.7100 700.0600Q654 696.7000 646.5800 696.7000L646.5800 696.7000L624.6000 696.7000ZM723.7200 806.6000L712.6600 806.6000Q711.5400 806.6000 710.7000 805.7600Q709.8600 804.9200 709.8600 803.8000L709.8600 803.8000Q709.8600 803.2400 709.9300 802.7500Q710 802.2600 710.4200 801.5600L710.4200 801.5600L721.3400 775.6600L694.4600 712.2400Q693.9000 710.8400 693.9000 710.2800L693.9000 710.2800Q694.0400 709.0200 694.8800 708.1100Q695.7200 707.2000 696.9800 707.2000L696.9800 707.2000L708.3200 707.2000Q710 707.2000 710.8400 708.0400Q711.6800 708.8800 712.1000 709.8600L712.1000 709.8600L730.7200 755.6400L749.9000 709.8600Q750.3200 708.7400 751.1600 707.9700Q752 707.2000 753.6800 707.2000L753.6800 707.2000L764.8800 707.2000Q766 707.2000 766.9100 708.0400Q767.8200 708.8800 767.8200 710L767.8200 710Q767.8200 710.8400 767.2600 712.2400L767.2600 712.2400L727.6400 803.9400Q727.0800 805.0600 726.2400 805.8300Q725.4000 806.6000 723.7200 806.6000L723.7200 806.6000ZM843.2800 781.4000L843.2800 781.4000Q827.7400 781.4000 818.6400 772.4400Q809.5400 763.4800 808.8400 746.9600L808.8400 746.9600Q808.7000 745.5600 808.7000 743.3900Q808.7000 741.2200 808.8400 739.9600L808.8400 739.9600Q809.4000 729.3200 813.6700 721.6900Q817.9400 714.0600 825.5000 709.9300Q833.0600 705.8000 843.2800 705.8000L843.2800 705.8000Q854.6200 705.8000 862.3200 710.4900Q870.0200 715.1800 873.9400 723.5100Q877.8600 731.8400 877.8600 742.7600L877.8600 742.7600L877.8600 745.7000Q877.8600 747.1000 876.8800 748.0800Q875.9000 749.0600 874.3600 749.0600L874.3600 749.0600L827.8800 749.0600Q827.8800 749.0600 827.8800 749.4800Q827.8800 749.9000 827.8800 750.1800L827.8800 750.1800Q828.0200 755.0800 829.7700 759.2100Q831.5200 763.3400 834.9500 765.8600Q838.3800 768.3800 843.1400 768.3800L843.1400 768.3800Q847.0600 768.3800 849.7200 767.1900Q852.3800 766 854.0600 764.4600Q855.7400 762.9200 856.4400 761.9400L856.4400 761.9400Q857.7000 760.2600 858.4700 759.9100Q859.2400 759.5600 860.7800 759.5600L860.7800 759.5600L872.8200 759.5600Q874.2200 759.5600 875.1300 760.4000Q876.0400 761.2400 875.9000 762.5000L875.9000 762.5000Q875.7600 764.7400 873.5900 767.9600Q871.4200 771.1800 867.3600 774.2600Q863.3000 777.3400 857.2100 779.3700Q851.1200 781.4000 843.2800 781.4000ZM827.8800 736.8800L827.8800 737.3000L858.8200 737.3000L858.8200 736.8800Q858.8200 731.4200 857.0000 727.2900Q855.1800 723.1600 851.6800 720.8500Q848.1800 718.5400 843.2800 718.5400L843.2800 718.5400Q838.3800 718.5400 834.8800 720.8500Q831.3800 723.1600 829.6300 727.2900Q827.8800 731.4200 827.8800 736.8800L827.8800 736.8800ZM942.5400 780L929.8000 780Q928.4000 780 927.4200 779.0900Q926.4400 778.1800 926.4400 776.6400L926.4400 776.6400L926.4400 685.5000Q926.4400 683.9600 927.4200 682.9800Q928.4000 682 929.8000 682L929.8000 682L942.5400 682Q944.0800 682 944.9900 682.9800Q945.9000 683.9600 945.9000 685.5000L945.9000 685.5000L945.9000 721.6200L987.2000 721.6200L987.2000 685.5000Q987.2000 683.9600 988.1800 682.9800Q989.1600 682 990.5600 682L990.5600 682L1003.1600 682Q1004.7000 682 1005.6800 682.9800Q1006.6600 683.9600 1006.6600 685.5000L1006.6600 685.5000L1006.6600 776.6400Q1006.6600 778.0400 1005.6800 779.0200Q1004.7000 780 1003.1600 780L1003.1600 780L990.5600 780Q989.1600 780 988.1800 779.0200Q987.2000 778.0400 987.2000 776.6400L987.2000 776.6400L987.2000 739.1200L945.9000 739.1200L945.9000 776.6400Q945.9000 778.0400 944.9900 779.0200Q944.0800 780 942.5400 780L942.5400 780ZM1047.9600 781.4000L1047.9600 781.4000Q1040.6800 781.4000 1034.8000 778.5300Q1028.9200 775.6600 1025.4900 770.8300Q1022.0600 766 1022.0600 759.9800L1022.0600 759.9800Q1022.0600 750.1800 1030.0400 744.3700Q1038.0200 738.5600 1050.9000 736.6000L1050.9000 736.6000L1070.0800 733.8000L1070.0800 730.8600Q1070.0800 724.9800 1067.1400 721.7600Q1064.2000 718.5400 1057.0600 718.5400L1057.0600 718.5400Q1052.0200 718.5400 1048.8700 720.5700Q1045.7200 722.6000 1044.1800 725.9600L1044.1800 725.9600Q1043.0600 727.7800 1040.9600 727.7800L1040.9600 727.7800L1029.9000 727.7800Q1028.3600 727.7800 1027.5900 726.9400Q1026.8200 726.1000 1026.8200 724.7000L1026.8200 724.7000Q1026.9600 722.4600 1028.7100 719.2400Q1030.4600 716.0200 1034.0300 713.0100Q1037.6000 710 1043.3400 707.9000Q1049.0800 705.8000 1057.2000 705.8000L1057.2000 705.8000Q1066.0200 705.8000 1072.1100 707.9700Q1078.2000 710.1400 1081.8400 713.7800Q1085.4800 717.4200 1087.1600 722.3200Q1088.8400 727.2200 1088.8400 732.6800L1088.8400 732.6800L1088.8400 776.6400Q1088.8400 778.0400 1087.8600 779.0200Q1086.8800 780 1085.4800 780L1085.4800 780L1074.1400 780Q1072.6000 780 1071.6900 779.0200Q1070.7800 778.0400 1070.7800 776.6400L1070.7800 776.6400L1070.7800 771.1800Q1068.9600 773.7000 1065.8800 776.0800Q1062.8000 778.4600 1058.3900 779.9300Q1053.9800 781.4000 1047.9600 781.4000ZM1052.7200 768.1000L1052.7200 768.1000Q1057.6200 768.1000 1061.6100 766Q1065.6000 763.9000 1067.9100 759.4900Q1070.2200 755.0800 1070.2200 748.3600L1070.2200 748.3600L1070.2200 745.4200L1056.2200 747.6600Q1047.9600 748.9200 1043.9000 751.7200Q1039.8400 754.5200 1039.8400 758.5800L1039.8400 758.5800Q1039.8400 761.6600 1041.7300 763.8300Q1043.6200 766 1046.5600 767.0500Q1049.5000 768.1000 1052.7200 768.1000ZM1142.8800 780L1132.5200 780Q1130.2800 780 1129.2300 778.9500Q1128.1800 777.9000 1127.4800 776.5000L1127.4800 776.5000L1101.3000 711.5400Q1101.0200 710.8400 1101.0200 710.2800L1101.0200 710.2800Q1101.0200 709.0200 1101.9300 708.1100Q1102.8400 707.2000 1104.1000 707.2000L1104.1000 707.2000L1115.4400 707.2000Q1117.1200 707.2000 1117.9600 708.1100Q1118.8000 709.0200 1119.0800 709.8600L1119.0800 709.8600L1137.7000 759L1156.3200 709.8600Q1156.6000 709.0200 1157.4400 708.1100Q1158.2800 707.2000 1159.9600 707.2000L1159.9600 707.2000L1171.4400 707.2000Q1172.5600 707.2000 1173.4700 708.1100Q1174.3800 709.0200 1174.3800 710.2800L1174.3800 710.2800Q1174.3800 710.8400 1174.2400 711.5400L1174.2400 711.5400L1147.9200 776.5000Q1147.3600 777.9000 1146.2400 778.9500Q1145.1200 780 1142.8800 780L1142.8800 780ZM1202.1000 780L1190.4800 780Q1189.0800 780 1188.1000 779.0200Q1187.1200 778.0400 1187.1200 776.6400L1187.1200 776.6400L1187.1200 710.5600Q1187.1200 709.1600 1188.1000 708.1800Q1189.0800 707.2000 1190.4800 707.2000L1190.4800 707.2000L1202.1000 707.2000Q1203.6400 707.2000 1204.5500 708.1800Q1205.4600 709.1600 1205.4600 710.5600L1205.4600 710.5600L1205.4600 776.6400Q1205.4600 778.0400 1204.5500 779.0200Q1203.6400 780 1202.1000 780L1202.1000 780ZM1202.6600 695.1600L1189.9200 695.1600Q1188.5200 695.1600 1187.5400 694.1800Q1186.5600 693.2000 1186.5600 691.8000L1186.5600 691.8000L1186.5600 681.7200Q1186.5600 680.3200 1187.5400 679.3400Q1188.5200 678.3600 1189.9200 678.3600L1189.9200 678.3600L1202.6600 678.3600Q1204.2000 678.3600 1205.1800 679.3400Q1206.1600 680.3200 1206.1600 681.7200L1206.1600 681.7200L1206.1600 691.8000Q1206.1600 693.2000 1205.1800 694.1800Q1204.2000 695.1600 1202.6600 695.1600L1202.6600 695.1600ZM1239.7600 780L1227.4400 780Q1226.0400 780 1225.0600 779.0200Q1224.0800 778.0400 1224.0800 776.6400L1224.0800 776.6400L1224.0800 710.5600Q1224.0800 709.1600 1225.0600 708.1800Q1226.0400 707.2000 1227.4400 707.2000L1227.4400 707.2000L1238.9200 707.2000Q1240.3200 707.2000 1241.3000 708.1800Q1242.2800 709.1600 1242.2800 710.5600L1242.2800 710.5600L1242.2800 716.3000Q1245.9200 711.8200 1251.5900 708.8100Q1257.2600 705.8000 1265.6600 705.8000L1265.6600 705.8000Q1274.2000 705.8000 1280.5000 709.6500Q1286.8000 713.5000 1290.2300 720.5000Q1293.6600 727.5000 1293.6600 737.3000L1293.6600 737.3000L1293.6600 776.6400Q1293.6600 778.0400 1292.6800 779.0200Q1291.7000 780 1290.3000 780L1290.3000 780L1277.9800 780Q1276.5800 780 1275.6000 779.0200Q1274.6200 778.0400 1274.6200 776.6400L1274.6200 776.6400L1274.6200 738.1400Q1274.6200 730.0200 1270.6300 725.4000Q1266.6400 720.7800 1259.0800 720.7800L1259.0800 720.7800Q1251.8000 720.7800 1247.4600 725.4000Q1243.1200 730.0200 1243.1200 738.1400L1243.1200 738.1400L1243.1200 776.6400Q1243.1200 778.0400 1242.1400 779.0200Q1241.1600 780 1239.7600 780L1239.7600 780ZM1344.3400 810.8000L1344.3400 810.8000Q1334.1200 810.8000 1327.5400 808.1400Q1320.9600 805.4800 1317.1800 801.7000Q1313.4000 797.9200 1311.7900 794.2100Q1310.1800 790.5000 1310.0400 788.4000L1310.0400 788.4000Q1309.9000 787 1310.9500 785.9500Q1312.0000 784.9000 1313.4000 784.9000L1313.4000 784.9000L1325.5800 784.9000Q1326.9800 784.9000 1327.8200 785.5300Q1328.6600 786.1600 1329.2200 787.8400L1329.2200 787.8400Q1330.0600 789.6600 1331.4600 791.7600Q1332.8600 793.8600 1335.7300 795.3300Q1338.6000 796.8000 1343.6400 796.8000L1343.6400 796.8000Q1348.9600 796.8000 1352.6000 795.2600Q1356.2400 793.7200 1358.1300 790.0800Q1360.0200 786.4400 1360.0200 780L1360.0200 780L1360.0200 770.4800Q1356.6600 774.5400 1351.4100 777.0600Q1346.1600 779.5800 1338.4600 779.5800L1338.4600 779.5800Q1331.0400 779.5800 1325.5100 777.1300Q1319.9800 774.6800 1316.3400 770.2700Q1312.7000 765.8600 1310.8100 759.8400Q1308.9200 753.8200 1308.6400 746.5400L1308.6400 746.5400Q1308.5000 742.7600 1308.6400 738.9800L1308.6400 738.9800Q1308.9200 731.9800 1310.8100 725.9600Q1312.7000 719.9400 1316.3400 715.3900Q1319.9800 710.8400 1325.5100 708.3200Q1331.0400 705.8000 1338.4600 705.8000L1338.4600 705.8000Q1346.4400 705.8000 1351.9000 708.8100Q1357.3600 711.8200 1360.8600 716.3000L1360.8600 716.3000L1360.8600 710.7000Q1360.8600 709.1600 1361.8400 708.1800Q1362.8200 707.2000 1364.2200 707.2000L1364.2200 707.2000L1375.5600 707.2000Q1376.9600 707.2000 1377.9400 708.1800Q1378.9200 709.1600 1378.9200 710.7000L1378.9200 710.7000L1379.0600 778.1800Q1379.0600 788.2600 1375.2800 795.5400Q1371.5000 802.8200 1363.8700 806.8100Q1356.2400 810.8000 1344.3400 810.8000ZM1343.6400 764.7400L1343.6400 764.7400Q1349.3800 764.7400 1352.8800 762.2200Q1356.3800 759.7000 1358.0600 755.6400Q1359.7400 751.5800 1360.0200 747.3800L1360.0200 747.3800Q1360.1600 745.5600 1360.1600 742.7600Q1360.1600 739.9600 1360.0200 738.2800L1360.0200 738.2800Q1359.7400 733.9400 1358.0600 729.9500Q1356.3800 725.9600 1352.8800 723.3700Q1349.3800 720.7800 1343.6400 720.7800L1343.6400 720.7800Q1337.9000 720.7800 1334.4000 723.3700Q1330.9000 725.9600 1329.4300 730.1600Q1327.9600 734.3600 1327.6800 739.4000L1327.6800 739.4000Q1327.4000 742.7600 1327.6800 746.2600L1327.6800 746.2600Q1327.9600 751.1600 1329.4300 755.4300Q1330.9000 759.7000 1334.4000 762.2200Q1337.9000 764.7400 1343.6400 764.7400Z" id="title"/></g></svg>