<svg xmlns="http://www.w3.org/2000/svg" version="1.1" xmlns:xlink="http://www.w3.org/1999/xlink" xmlns:svgjs="http://svgjs.dev/svgjs" viewBox="0 0 1920 1080" id="75373a80-5b94-4065-bdc4-febb4719fdc6"><g><rect width="1920" height="1080" fill="#b96517"/></g><g fill="#7c6ca6"><path d="M468.687 1264C468.687 952.926 216.448 701.313 -94 701.313L-94 138C527.522 138 1031.37 641.852 1031.37 1264L468.687 1264Z"/></g><g fill="#ffffff" opacity="0.2"><path d="M265.263 1365.25C288.869 1380.05 295.985 1411.12 281.176 1434.72C266.367 1458.33 235.301 1465.44 211.695 1450.64C188.088 1435.83 180.973 1404.77 195.781 1381.16C210.59 1357.55 241.656 1350.44 265.263 1365.25ZM355.971 1125.81C341.163 1149.42 348.278 1180.48 371.884 1195.29C395.491 1210.09 426.558 1202.98 441.366 1179.37C456.175 1155.77 449.06 1124.7 425.453 1109.9C401.846 1095.09 370.78 1102.21 355.971 1125.81ZM516.161 870.463C501.353 894.069 508.468 925.132 532.075 939.938C555.681 954.745 586.748 947.629 601.556 924.023C616.365 900.418 609.25 869.355 585.643 854.549C562.036 839.742 530.97 846.858 516.161 870.463ZM676.352 615.114C661.543 638.72 668.658 669.783 692.265 684.589C715.872 699.395 746.938 692.28 761.746 668.674C776.555 645.069 769.44 614.006 745.833 599.2C722.227 584.393 691.16 591.509 676.352 615.114ZM836.542 359.766C821.733 383.371 828.848 414.434 852.455 429.24C876.062 444.047 907.128 436.931 921.937 413.325C936.745 389.72 929.63 358.657 906.023 343.851C882.417 329.044 851.35 336.16 836.542 359.766ZM451.145 1541.33C436.336 1564.93 443.451 1596 467.058 1610.8C490.665 1625.61 521.731 1618.49 536.54 1594.89C551.349 1571.28 544.233 1540.22 520.627 1525.41C497.02 1510.61 465.953 1517.72 451.145 1541.33ZM611.335 1285.98C596.526 1309.58 603.642 1340.65 627.248 1355.45C650.855 1370.26 681.922 1363.14 696.73 1339.54C711.539 1315.93 704.424 1284.87 680.817 1270.06C657.21 1255.26 626.143 1262.37 611.335 1285.98ZM771.525 1030.63C756.717 1054.23 763.832 1085.3 787.439 1100.1C811.045 1114.91 842.112 1107.79 856.92 1084.19C871.729 1060.58 864.614 1029.52 841.007 1014.71C817.4 999.908 786.334 1007.02 771.525 1030.63ZM931.716 775.28C916.907 798.886 924.022 829.949 947.629 844.755C971.236 859.561 1002.3 852.446 1017.11 828.84C1031.92 805.235 1024.8 774.172 1001.2 759.365C977.591 744.559 946.524 751.675 931.716 775.28ZM1091.91 519.931C1077.1 543.537 1084.21 574.6 1107.82 589.406C1131.43 604.212 1162.49 597.097 1177.3 573.491C1192.11 549.886 1184.99 518.823 1161.39 504.016C1137.78 489.21 1106.71 496.326 1091.91 519.931ZM706.509 1701.49C691.7 1725.1 698.815 1756.16 722.422 1770.97C746.029 1785.77 777.095 1778.66 791.904 1755.05C806.713 1731.45 799.597 1700.38 775.991 1685.58C752.384 1670.77 721.317 1677.89 706.509 1701.49ZM866.699 1446.14C851.89 1469.75 859.006 1500.81 882.612 1515.62C906.219 1530.43 937.286 1523.31 952.094 1499.7C966.903 1476.1 959.788 1445.03 936.181 1430.23C912.574 1415.42 881.508 1422.54 866.699 1446.14ZM1026.89 1190.79C1012.08 1214.4 1019.2 1245.46 1042.8 1260.27C1066.41 1275.08 1097.48 1267.96 1112.28 1244.36C1127.09 1220.75 1119.98 1189.69 1096.37 1174.88C1072.76 1160.07 1041.7 1167.19 1026.89 1190.79ZM1187.08 935.446C1172.27 959.052 1179.39 990.115 1202.99 1004.92C1226.6 1019.73 1257.67 1012.61 1272.47 989.006C1287.28 965.401 1280.17 934.338 1256.56 919.531C1232.95 904.725 1201.89 911.841 1187.08 935.446ZM1347.27 680.097C1332.46 703.703 1339.58 734.766 1363.18 749.572C1386.79 764.378 1417.86 757.262 1432.66 733.657C1447.47 710.052 1440.36 678.989 1416.75 664.182C1393.14 649.376 1361.91 656.53 1347.27 680.097ZM961.873 1861.66C947.064 1885.26 954.179 1916.33 977.786 1931.13C1001.39 1945.94 1032.46 1938.82 1047.27 1915.22C1062.08 1891.61 1054.96 1860.55 1031.35 1845.74C1007.75 1830.94 976.681 1838.05 961.873 1861.66ZM1122.06 1606.31C1107.25 1629.91 1114.37 1660.98 1137.98 1675.78C1161.58 1690.59 1192.65 1683.48 1207.46 1659.87C1222.27 1636.26 1215.15 1605.2 1191.54 1590.39C1167.94 1575.59 1136.87 1582.7 1122.06 1606.31ZM1282.25 1350.96C1267.44 1374.57 1274.56 1405.63 1298.17 1420.44C1321.77 1435.24 1352.84 1428.13 1367.65 1404.52C1382.46 1380.92 1375.34 1349.85 1351.74 1335.05C1328.13 1320.24 1297.06 1327.35 1282.25 1350.96ZM1442.44 1095.61C1427.63 1119.22 1434.75 1150.28 1458.36 1165.09C1481.96 1179.89 1513.03 1172.78 1527.84 1149.17C1542.65 1125.57 1535.53 1094.5 1511.93 1079.7C1488.32 1064.89 1457.09 1072.04 1442.44 1095.61ZM1602.63 840.263C1587.83 863.868 1594.94 894.931 1618.55 909.738C1642.15 924.544 1673.22 917.428 1688.03 893.823C1702.84 870.217 1695.72 839.154 1672.12 824.348C1648.51 809.542 1617.28 816.696 1602.63 840.263ZM1217.24 2021.82C1202.43 2045.43 1209.54 2076.49 1233.15 2091.3C1256.76 2106.11 1287.82 2098.99 1302.63 2075.38C1317.44 2051.78 1310.33 2020.72 1286.72 2005.91C1263.11 1991.1 1232.05 1998.22 1217.24 2021.82ZM1377.43 1766.47C1362.62 1790.08 1369.73 1821.14 1393.34 1835.95C1416.95 1850.76 1448.01 1843.64 1462.82 1820.04C1477.63 1796.43 1470.52 1765.37 1446.91 1750.56C1423.3 1735.75 1392.24 1742.87 1377.43 1766.47ZM1537.62 1511.13C1522.81 1534.73 1529.92 1565.8 1553.53 1580.6C1577.14 1595.41 1608.2 1588.29 1623.01 1564.69C1637.82 1541.08 1630.71 1510.02 1607.1 1495.21C1583.49 1480.4 1552.26 1487.56 1537.62 1511.13ZM1697.81 1255.78C1683 1279.38 1690.11 1310.45 1713.72 1325.25C1737.33 1340.06 1768.39 1332.94 1783.2 1309.34C1798.01 1285.73 1790.9 1254.67 1767.29 1239.86C1743.68 1225.06 1712.45 1232.21 1697.81 1255.78ZM1857.83 1000.47C1843.02 1024.07 1850.14 1055.14 1873.74 1069.94C1897.35 1084.75 1928.42 1077.63 1943.23 1054.03C1958.03 1030.42 1950.92 999.358 1927.31 984.551C1903.87 969.707 1872.64 976.861 1857.83 1000.47Z"/></g><g><path d="M178.635 139.281L184.422 144.246V166.626H215.704L219.958 172.147L215.69 177.397H184.422V198.795L178.635 203.747L173 198.795V144.232L178.635 139.281ZM195.554 195.68H219.406L223.397 200.915L219.143 206.45H195.554L191.7 201.342L195.554 195.68ZM196.382 138H219.129L223.383 143.52L219.129 148.77H196.659L192.115 143.677L196.382 138ZM323.155 148.628L328.251 154.291L323.155 159.968H246.13L241.172 154.291L246.13 148.628H323.155ZM237.043 172.147L241.849 167.893L246.669 172.147V178.393C246.669 188.879 249.417 197.515 261.668 197.515H264.14C275.147 197.515 281.197 189.86 281.197 177.952V172.005L285.879 167.75L290.699 171.862V178.379C290.699 189.007 293.723 196.946 305.56 196.946H307.618C319.178 196.946 321.235 187.869 321.373 177.952V171.578L326.056 167.608L331 171.72V178.094C330.862 191.838 327.285 207.574 308.032 207.574H305.974C294.552 207.574 288.365 202.324 285.892 195.808C283.006 202.466 275.299 208.286 264.844 208.286H262.358C242.553 208.286 237.194 195.964 237.056 178.663V172.147H237.043ZM276.391 274.744L273.642 267.089L280.796 264.969L305.974 276.721V252.491L311.07 248.095L316.291 252.491V281.829L325.641 286.226L328.251 293.311L320.959 296L276.391 274.744ZM321.235 223.011L328.113 226.27L325.917 233.497L264.002 263.119L256.571 260.146L259.596 252.776L321.235 223.011ZM231.905 263.404L237.954 268.512C237.402 286.51 222.403 296 204.669 296H202.874C194.062 296 183.759 292.6 177.157 286.083L177.834 278.855L184.298 278.002C189.118 282.256 195.858 285.229 202.183 285.229H204.117C216.091 285.229 225.303 280.136 226.27 268.085L231.905 263.404ZM226.256 251.638C225.704 239.16 216.629 234.209 204.103 234.209H202.169C194.739 234.209 189.104 237.182 184.284 241.436L177.834 240.583L177.143 233.355C183.745 226.696 192.957 223.58 202.597 223.58H204.517C222.403 223.58 237.402 232.942 237.94 251.211L231.891 256.176L226.256 251.638Z" fill="#ffffff"/></g><path d="M1171 781L1171 339L1187 339L1187 781L1171 781Z" fill="#ffffff"/><g fill="#ffffff" id="info-group"><path d="M181.3200 600.9000L181.3200 600.9000Q172.9500 600.9000 167.1450 597.9750Q161.3400 595.0500 158.2800 589.6050Q155.2200 584.1600 154.8600 576.5100L154.8600 576.5100Q154.7700 572.8200 154.7700 568.5900Q154.7700 564.3600 154.8600 560.4900L154.8600 560.4900Q155.2200 552.9300 158.3250 547.4400Q161.4300 541.9500 167.2350 539.0250Q173.0400 536.1000 181.3200 536.1000L181.3200 536.1000Q187.4400 536.1000 192.3000 537.7200Q197.1600 539.3400 200.5800 542.1750Q204 545.0100 205.8900 548.7900Q207.7800 552.5700 207.8700 556.9800L207.8700 556.9800Q207.9600 557.7900 207.3750 558.3300Q206.7900 558.8700 205.9800 558.8700L205.9800 558.8700L197.4300 558.8700Q196.4400 558.8700 195.8100 558.3750Q195.1800 557.8800 194.9100 556.7100L194.9100 556.7100Q193.4700 550.7700 189.9600 548.6100Q186.4500 546.4500 181.2300 546.4500L181.2300 546.4500Q175.2000 546.4500 171.6000 549.8250Q168 553.2000 167.7300 560.9400L167.7300 560.9400Q167.4600 568.3200 167.7300 576.0600L167.7300 576.0600Q168 583.8000 171.6000 587.1750Q175.2000 590.5500 181.2300 590.5500L181.2300 590.5500Q186.4500 590.5500 190.0050 588.3450Q193.5600 586.1400 194.9100 580.2900L194.9100 580.2900Q195.1800 579.0300 195.8100 578.5800Q196.4400 578.1300 197.4300 578.1300L197.4300 578.1300L205.9800 578.1300Q206.7900 578.1300 207.3750 578.6700Q207.9600 579.2100 207.8700 580.0200L207.8700 580.0200Q207.7800 584.4300 205.8900 588.2100Q204 591.9900 200.5800 594.8250Q197.1600 597.6600 192.3000 599.2800Q187.4400 600.9000 181.3200 600.9000ZM240.4500 600.9000L240.4500 600.9000Q232.0800 600.9000 226.4550 598.4250Q220.8300 595.9500 217.9050 591.9450Q214.9800 587.9400 214.8000 583.5300L214.8000 583.5300Q214.8000 582.7200 215.3400 582.1800Q215.8800 581.6400 216.6900 581.6400L216.6900 581.6400L224.7000 581.6400Q225.8700 581.6400 226.4550 582.1350Q227.0400 582.6300 227.4900 583.3500L227.4900 583.3500Q228.0300 585.0600 229.5600 586.7250Q231.0900 588.3900 233.7450 589.4700Q236.4000 590.5500 240.4500 590.5500L240.4500 590.5500Q246.9300 590.5500 250.1250 588.3900Q253.3200 586.2300 253.3200 582.5400L253.3200 582.5400Q253.3200 579.9300 251.6100 578.3550Q249.9000 576.7800 246.3450 575.4750Q242.7900 574.1700 236.9400 572.7300L236.9400 572.7300Q230.1900 571.1100 225.6450 568.8150Q221.1000 566.5200 218.8050 563.0100Q216.5100 559.5000 216.5100 554.1000L216.5100 554.1000Q216.5100 548.8800 219.3450 544.8300Q222.1800 540.7800 227.4450 538.4400Q232.7100 536.1000 240 536.1000L240 536.1000Q245.8500 536.1000 250.3500 537.6750Q254.8500 539.2500 257.8200 541.8150Q260.7900 544.3800 262.3650 547.3050Q263.9400 550.2300 264.0300 553.0200L264.0300 553.0200Q264.0300 553.7400 263.5350 554.3250Q263.0400 554.9100 262.1400 554.9100L262.1400 554.9100L253.7700 554.9100Q253.0500 554.9100 252.3300 554.5500Q251.6100 554.1900 251.1600 553.2000L251.1600 553.2000Q250.6200 550.4100 247.6500 548.4300Q244.6800 546.4500 240 546.4500L240 546.4500Q235.1400 546.4500 232.1700 548.2500Q229.2000 550.0500 229.2000 553.8300L229.2000 553.8300Q229.2000 556.3500 230.6850 558.0150Q232.1700 559.6800 235.4550 560.9400Q238.7400 562.2000 244.1400 563.6400L244.1400 563.6400Q251.7900 565.3500 256.6500 567.6000Q261.5100 569.8500 263.7600 573.3150Q266.0100 576.7800 266.0100 582.0900L266.0100 582.0900Q266.0100 588.0300 262.8150 592.2150Q259.6200 596.4000 253.8600 598.6500Q248.1000 600.9000 240.4500 600.9000ZM298.2300 600.9000L298.2300 600.9000Q289.8600 600.9000 284.2350 598.4250Q278.6100 595.9500 275.6850 591.9450Q272.7600 587.9400 272.5800 583.5300L272.5800 583.5300Q272.5800 582.7200 273.1200 582.1800Q273.6600 581.6400 274.4700 581.6400L274.4700 581.6400L282.4800 581.6400Q283.6500 581.6400 284.2350 582.1350Q284.8200 582.6300 285.2700 583.3500L285.2700 583.3500Q285.8100 585.0600 287.3400 586.7250Q288.8700 588.3900 291.5250 589.4700Q294.1800 590.5500 298.2300 590.5500L298.2300 590.5500Q304.7100 590.5500 307.9050 588.3900Q311.1000 586.2300 311.1000 582.5400L311.1000 582.5400Q311.1000 579.9300 309.3900 578.3550Q307.6800 576.7800 304.1250 575.4750Q300.5700 574.1700 294.7200 572.7300L294.7200 572.7300Q287.9700 571.1100 283.4250 568.8150Q278.8800 566.5200 276.5850 563.0100Q274.2900 559.5000 274.2900 554.1000L274.2900 554.1000Q274.2900 548.8800 277.1250 544.8300Q279.9600 540.7800 285.2250 538.4400Q290.4900 536.1000 297.7800 536.1000L297.7800 536.1000Q303.6300 536.1000 308.1300 537.6750Q312.6300 539.2500 315.6000 541.8150Q318.5700 544.3800 320.1450 547.3050Q321.7200 550.2300 321.8100 553.0200L321.8100 553.0200Q321.8100 553.7400 321.3150 554.3250Q320.8200 554.9100 319.9200 554.9100L319.9200 554.9100L311.5500 554.9100Q310.8300 554.9100 310.1100 554.5500Q309.3900 554.1900 308.9400 553.2000L308.9400 553.2000Q308.4000 550.4100 305.4300 548.4300Q302.4600 546.4500 297.7800 546.4500L297.7800 546.4500Q292.9200 546.4500 289.9500 548.2500Q286.9800 550.0500 286.9800 553.8300L286.9800 553.8300Q286.9800 556.3500 288.4650 558.0150Q289.9500 559.6800 293.2350 560.9400Q296.5200 562.2000 301.9200 563.6400L301.9200 563.6400Q309.5700 565.3500 314.4300 567.6000Q319.2900 569.8500 321.5400 573.3150Q323.7900 576.7800 323.7900 582.0900L323.7900 582.0900Q323.7900 588.0300 320.5950 592.2150Q317.4000 596.4000 311.6400 598.6500Q305.8800 600.9000 298.2300 600.9000Z" id="title"/><path d="M1475.6800 650L1454.8000 650Q1452.4000 650 1450.7200 648.3200Q1449.0400 646.6400 1449.0400 644.2400L1449.0400 644.2400L1449.0400 613.5200L1372.9600 613.5200Q1370.3200 613.5200 1368.7600 611.8400Q1367.2000 610.1600 1367.2000 607.7600L1367.2000 607.7600L1367.2000 591.4400Q1367.2000 590 1367.8000 587.9600Q1368.4000 585.9200 1369.8400 584.2400L1369.8400 584.2400L1440.6400 486.0800Q1443.7600 482 1449.5200 482L1449.5200 482L1475.6800 482Q1478.0800 482 1479.7600 483.6800Q1481.4400 485.3600 1481.4400 487.7600L1481.4400 487.7600L1481.4400 585.2000L1502.8000 585.2000Q1505.6800 585.2000 1507.2400 586.7600Q1508.8000 588.3200 1508.8000 590.9600L1508.8000 590.9600L1508.8000 607.7600Q1508.8000 610.1600 1507.1200 611.8400Q1505.4400 613.5200 1503.0400 613.5200L1503.0400 613.5200L1481.4400 613.5200L1481.4400 644.2400Q1481.4400 646.6400 1479.7600 648.3200Q1478.0800 650 1475.6800 650L1475.6800 650ZM1449.7600 516.8000L1400.5600 586.1600L1449.7600 586.1600L1449.7600 516.8000ZM1558 650L1534 650Q1531.6000 650 1529.9200 648.3200Q1528.2400 646.6400 1528.2400 644.2400L1528.2400 644.2400L1528.2400 620.4800Q1528.2400 617.8400 1529.9200 616.1600Q1531.6000 614.4800 1534 614.4800L1534 614.4800L1558 614.4800Q1560.4000 614.4800 1562.0800 616.1600Q1563.7600 617.8400 1563.7600 620.4800L1563.7600 620.4800L1563.7600 644.2400Q1563.7600 646.6400 1562.0800 648.3200Q1560.4000 650 1558 650L1558 650ZM1709.4400 650L1594.7200 650Q1592.3200 650 1590.6400 648.3200Q1588.9600 646.6400 1588.9600 644.2400L1588.9600 644.2400L1588.9600 632Q1588.9600 629.8400 1590.0400 626.8400Q1591.1200 623.8400 1594.9600 620.7200L1594.9600 620.7200L1632.8800 583.0400Q1648.7200 570.5600 1658.4400 561.8000Q1668.1600 553.0400 1672.6000 545.7200Q1677.0400 538.4000 1677.0400 531.2000L1677.0400 531.2000Q1677.0400 520.4000 1671.1600 513.6800Q1665.2800 506.9600 1652.5600 506.9600L1652.5600 506.9600Q1644.1600 506.9600 1638.4000 510.4400Q1632.6400 513.9200 1629.4000 519.6800Q1626.1600 525.4400 1624.9600 532.4000L1624.9600 532.4000Q1624.4800 535.5200 1622.3200 536.7200Q1620.1600 537.9200 1618.0000 537.9200L1618.0000 537.9200L1596.6400 537.9200Q1594.4800 537.9200 1593.0400 536.4800Q1591.6000 535.0400 1591.6000 533.1200L1591.6000 533.1200Q1591.8400 522.8000 1595.9200 513.0800Q1600.0000 503.3600 1607.8000 495.8000Q1615.6000 488.2400 1626.8800 483.6800Q1638.1600 479.1200 1652.3200 479.1200L1652.3200 479.1200Q1672.2400 479.1200 1685.3200 485.8400Q1698.4000 492.5600 1705.0000 504.0800Q1711.6000 515.6000 1711.6000 530L1711.6000 530Q1711.6000 541.2800 1707.2800 550.7600Q1702.9600 560.2400 1694.8000 569Q1686.6400 577.7600 1675.1200 586.8800L1675.1200 586.8800L1641.0400 621.4400L1709.4400 621.4400Q1712.0800 621.4400 1713.6400 623Q1715.2000 624.5600 1715.2000 627.2000L1715.2000 627.2000L1715.2000 644.2400Q1715.2000 646.6400 1713.6400 648.3200Q1712.0800 650 1709.4400 650L1709.4400 650Z" id="lecture-full-number"/></g></svg>