<svg xmlns="http://www.w3.org/2000/svg" version="1.1" xmlns:xlink="http://www.w3.org/1999/xlink" xmlns:svgjs="http://svgjs.dev/svgjs" viewBox="0 0 1920 1080" id="2a598118-b6a9-4ee5-90f2-364025ed7dd1"><g><rect width="1920" height="1080" fill="#798086"/></g><g fill="#b949a4"><path d="M969.5 217C561.465 217 231 547.465 231 955.5C231 1363.53 561.465 1694 969.5 1694C1377.53 1694 1708 1363.53 1708 955.5C1708 547.465 1377.53 217 969.5 217ZM969.5 1309.34C773.983 1309.34 615.658 1151.02 615.658 955.5C615.658 759.983 773.983 601.658 969.5 601.658C1165.02 601.658 1323.34 759.983 1323.34 955.5C1323.34 1151.02 1165.02 1309.34 969.5 1309.34Z"/></g><g fill="#ffffff" opacity="0.2"><path d="M1432 918.479L1616.48 734V918.479H1432Z"/><path d="M1616.48 918.479L1800.52 734V918.479H1616.48Z"/><path d="M1800.52 918.479L1985 734V918.479H1800.52Z"/><path d="M1432 1102.52L1616.48 918.479V1102.52H1432Z"/><path d="M1616.48 1102.52L1800.52 918.479V1102.52H1616.48Z"/><path d="M1800.52 1102.52L1985 918.479V1102.52H1800.52Z"/><path d="M499 154.521L683.479 -29.5215V154.521H499Z"/><path d="M683.479 154.521L867.521 -29.5215V154.521H683.479Z"/><path d="M867.521 154.521L1052 -29.5215V154.521H867.521Z"/><path d="M499 339L683.479 154.521V339H499Z"/><path d="M683.479 339L867.521 154.521V339H683.479Z"/><path d="M867.521 339L1052 154.521V339H867.521Z"/></g><g><path d="M178.635 139.281L184.422 144.246V166.626H215.704L219.958 172.147L215.69 177.397H184.422V198.795L178.635 203.747L173 198.795V144.232L178.635 139.281ZM195.554 195.68H219.406L223.397 200.915L219.143 206.45H195.554L191.7 201.342L195.554 195.68ZM196.382 138H219.129L223.383 143.52L219.129 148.77H196.659L192.115 143.677L196.382 138ZM323.155 148.628L328.251 154.291L323.155 159.968H246.13L241.172 154.291L246.13 148.628H323.155ZM237.043 172.147L241.849 167.893L246.669 172.147V178.393C246.669 188.879 249.417 197.515 261.668 197.515H264.14C275.147 197.515 281.197 189.86 281.197 177.952V172.005L285.879 167.75L290.699 171.862V178.379C290.699 189.007 293.723 196.946 305.56 196.946H307.618C319.178 196.946 321.235 187.869 321.373 177.952V171.578L326.056 167.608L331 171.72V178.094C330.862 191.838 327.285 207.574 308.032 207.574H305.974C294.552 207.574 288.365 202.324 285.892 195.808C283.006 202.466 275.299 208.286 264.844 208.286H262.358C242.553 208.286 237.194 195.964 237.056 178.663V172.147H237.043ZM276.391 274.744L273.642 267.089L280.796 264.969L305.974 276.721V252.491L311.07 248.095L316.291 252.491V281.829L325.641 286.226L328.251 293.311L320.959 296L276.391 274.744ZM321.235 223.011L328.113 226.27L325.917 233.497L264.002 263.119L256.571 260.146L259.596 252.776L321.235 223.011ZM231.905 263.404L237.954 268.512C237.402 286.51 222.403 296 204.669 296H202.874C194.062 296 183.759 292.6 177.157 286.083L177.834 278.855L184.298 278.002C189.118 282.256 195.858 285.229 202.183 285.229H204.117C216.091 285.229 225.303 280.136 226.27 268.085L231.905 263.404ZM226.256 251.638C225.704 239.16 216.629 234.209 204.103 234.209H202.169C194.739 234.209 189.104 237.182 184.284 241.436L177.834 240.583L177.143 233.355C183.745 226.696 192.957 223.58 202.597 223.58H204.517C222.403 223.58 237.402 232.942 237.94 251.211L231.891 256.176L226.256 251.638Z" fill="#ffffff"/></g><g fill="#ffffff" id="info-group"><path d="M167.0800 360L154.9000 360Q153.7800 360 152.8700 359.1600Q151.9600 358.3200 151.9600 357.0600L151.9600 357.0600Q151.9600 356.5000 152.2400 355.8000L152.2400 355.8000L185.9800 265.5000Q186.4000 264.1000 187.5900 263.0500Q188.7800 262 190.8800 262L190.8800 262L206.1400 262Q208.2400 262 209.3600 263.0500Q210.4800 264.1000 211.0400 265.5000L211.0400 265.5000L244.7800 355.8000Q244.9200 356.5000 244.9200 357.0600L244.9200 357.0600Q244.9200 358.3200 244.0800 359.1600Q243.2400 360 242.1200 360L242.1200 360L229.9400 360Q227.9800 360 227.0700 359.0900Q226.1600 358.1800 225.8800 357.3400L225.8800 357.3400L219.3000 340.2600L177.7200 340.2600L171.1400 357.3400Q170.8600 358.1800 169.9500 359.0900Q169.0400 360 167.0800 360L167.0800 360ZM198.4400 280.9000L182.6200 324.1600L214.4000 324.1600L198.4400 280.9000ZM283.2800 361.4000L283.2800 361.4000Q274.7400 361.4000 268.5100 357.5500Q262.2800 353.7000 258.9200 346.6300Q255.5600 339.5600 255.5600 329.9000L255.5600 329.9000L255.5600 290.5600Q255.5600 289.1600 256.5400 288.1800Q257.5200 287.2000 258.9200 287.2000L258.9200 287.2000L271.2400 287.2000Q272.7800 287.2000 273.6900 288.1800Q274.6000 289.1600 274.6000 290.5600L274.6000 290.5600L274.6000 329.0600Q274.6000 346.4200 289.8600 346.4200L289.8600 346.4200Q297.1400 346.4200 301.4100 341.8000Q305.6800 337.1800 305.6800 329.0600L305.6800 329.0600L305.6800 290.5600Q305.6800 289.1600 306.6600 288.1800Q307.6400 287.2000 309.0400 287.2000L309.0400 287.2000L321.3600 287.2000Q322.7600 287.2000 323.7400 288.1800Q324.7200 289.1600 324.7200 290.5600L324.7200 290.5600L324.7200 356.6400Q324.7200 358.0400 323.7400 359.0200Q322.7600 360 321.3600 360L321.3600 360L310.0200 360Q308.4800 360 307.5700 359.0200Q306.6600 358.0400 306.6600 356.6400L306.6600 356.6400L306.6600 350.9000Q302.8800 355.8000 297.2800 358.6000Q291.6800 361.4000 283.2800 361.4000ZM358.3200 360L346.7000 360Q345.3000 360 344.3200 359.0200Q343.3400 358.0400 343.3400 356.6400L343.3400 356.6400L343.3400 263.9600Q343.3400 262.5600 344.3200 261.5800Q345.3000 260.6000 346.7000 260.6000L346.7000 260.6000L358.3200 260.6000Q359.7200 260.6000 360.7000 261.5800Q361.6800 262.5600 361.6800 263.9600L361.6800 263.9600L361.6800 356.6400Q361.6800 358.0400 360.7000 359.0200Q359.7200 360 358.3200 360L358.3200 360ZM401.4400 361.4000L401.4400 361.4000Q394.1600 361.4000 388.2800 358.5300Q382.4000 355.6600 378.9700 350.8300Q375.5400 346 375.5400 339.9800L375.5400 339.9800Q375.5400 330.1800 383.5200 324.3700Q391.5000 318.5600 404.3800 316.6000L404.3800 316.6000L423.5600 313.8000L423.5600 310.8600Q423.5600 304.9800 420.6200 301.7600Q417.6800 298.5400 410.5400 298.5400L410.5400 298.5400Q405.5000 298.5400 402.3500 300.5700Q399.2000 302.6000 397.6600 305.9600L397.6600 305.9600Q396.5400 307.7800 394.4400 307.7800L394.4400 307.7800L383.3800 307.7800Q381.8400 307.7800 381.0700 306.9400Q380.3000 306.1000 380.3000 304.7000L380.3000 304.7000Q380.4400 302.4600 382.1900 299.2400Q383.9400 296.0200 387.5100 293.0100Q391.0800 290 396.8200 287.9000Q402.5600 285.8000 410.6800 285.8000L410.6800 285.8000Q419.5000 285.8000 425.5900 287.9700Q431.6800 290.1400 435.3200 293.7800Q438.9600 297.4200 440.6400 302.3200Q442.3200 307.2200 442.3200 312.6800L442.3200 312.6800L442.3200 356.6400Q442.3200 358.0400 441.3400 359.0200Q440.3600 360 438.9600 360L438.9600 360L427.6200 360Q426.0800 360 425.1700 359.0200Q424.2600 358.0400 424.2600 356.6400L424.2600 356.6400L424.2600 351.1800Q422.4400 353.7000 419.3600 356.0800Q416.2800 358.4600 411.8700 359.9300Q407.4600 361.4000 401.4400 361.4000ZM406.2000 348.1000L406.2000 348.1000Q411.1000 348.1000 415.0900 346Q419.0800 343.9000 421.3900 339.4900Q423.7000 335.0800 423.7000 328.3600L423.7000 328.3600L423.7000 325.4200L409.7000 327.6600Q401.4400 328.9200 397.3800 331.7200Q393.3200 334.5200 393.3200 338.5800L393.3200 338.5800Q393.3200 341.6600 395.2100 343.8300Q397.1000 346 400.0400 347.0500Q402.9800 348.1000 406.2000 348.1000ZM525.9000 361.5400L525.9000 361.5400Q513.8600 361.5400 505.6000 357.5500Q497.3400 353.5600 493.0700 347.1200Q488.8000 340.6800 488.5200 333.4000L488.5200 333.4000Q488.3800 332.1400 489.2900 331.3700Q490.2000 330.6000 491.4600 330.6000L491.4600 330.6000L504.4800 330.6000Q506.0200 330.6000 507.0700 331.2300Q508.1200 331.8600 508.6800 333.4000L508.6800 333.4000Q510.0800 337.6000 512.6700 340.2600Q515.2600 342.9200 518.6900 344.1800Q522.1200 345.4400 525.9000 345.4400L525.9000 345.4400Q530.9400 345.4400 535.0700 343.4100Q539.2000 341.3800 541.7200 337.3200Q544.2400 333.2600 544.2400 327.3800L544.2400 327.3800Q544.2400 322.2000 541.8600 318.4200Q539.4800 314.6400 535.3500 312.4700Q531.2200 310.3000 525.9000 310.3000L525.9000 310.3000Q521.9800 310.3000 519.4600 311.2800Q516.9400 312.2600 515.1900 313.5200Q513.4400 314.7800 512.1100 315.7600Q510.7800 316.7400 509.1000 316.7400L509.1000 316.7400L496.2200 316.7400Q494.9600 316.7400 494.0500 315.8300Q493.1400 314.9200 493.1400 313.6600L493.1400 313.6600L498.0400 265.7800Q498.1800 263.9600 499.3000 262.9800Q500.4200 262 501.9600 262L501.9600 262L554.6000 262Q556.0000 262 556.9800 262.9800Q557.9600 263.9600 557.9600 265.3600L557.9600 265.3600L557.9600 274.7400Q557.9600 276.1400 556.9800 277.1200Q556.0000 278.1000 554.6000 278.1000L554.6000 278.1000L514.1400 278.1000L511.9000 300.9200Q514.4200 299.2400 518.6200 297.7000Q522.8200 296.1600 530.2400 296.1600L530.2400 296.1600Q536.9600 296.1600 543.0500 298.3300Q549.1400 300.5000 553.9000 304.6300Q558.6600 308.7600 561.3900 314.5700Q564.1200 320.3800 564.1200 327.8000L564.1200 327.8000Q564.1200 338.0200 559.3600 345.5800Q554.6000 353.1400 546.0600 357.3400Q537.5200 361.5400 525.9000 361.5400ZM595.9000 311L582.0400 311Q580.6400 311 579.6600 310.0200Q578.6800 309.0400 578.6800 307.6400L578.6800 307.6400L578.6800 294.3400Q578.6800 292.8000 579.6600 291.8200Q580.6400 290.8400 582.0400 290.8400L582.0400 290.8400L595.9000 290.8400Q597.4400 290.8400 598.4200 291.8200Q599.4000 292.8000 599.4000 294.3400L599.4000 294.3400L599.4000 307.6400Q599.4000 309.0400 598.4200 310.0200Q597.4400 311 595.9000 311L595.9000 311ZM595.9000 360L582.0400 360Q580.6400 360 579.6600 359.0200Q578.6800 358.0400 578.6800 356.6400L578.6800 356.6400L578.6800 343.3400Q578.6800 341.8000 579.6600 340.8200Q580.6400 339.8400 582.0400 339.8400L582.0400 339.8400L595.9000 339.8400Q597.4400 339.8400 598.4200 340.8200Q599.4000 341.8000 599.4000 343.3400L599.4000 343.3400L599.4000 356.6400Q599.4000 358.0400 598.4200 359.0200Q597.4400 360 595.9000 360L595.9000 360ZM689.0000 361.4000L689.0000 361.4000Q675.9800 361.4000 666.9500 356.8500Q657.9200 352.3000 653.1600 343.8300Q648.4000 335.3600 647.8400 323.4600L647.8400 323.4600Q647.7000 317.7200 647.7000 311.1400Q647.7000 304.5600 647.8400 298.5400L647.8400 298.5400Q648.4000 286.7800 653.2300 278.2400Q658.0600 269.7000 667.0900 265.1500Q676.1200 260.6000 689.0000 260.6000L689.0000 260.6000Q698.5200 260.6000 706.0800 263.1200Q713.6400 265.6400 718.9600 270.0500Q724.2800 274.4600 727.2200 280.3400Q730.1600 286.2200 730.3000 293.0800L730.3000 293.0800Q730.4400 294.3400 729.5300 295.1800Q728.6200 296.0200 727.3600 296.0200L727.3600 296.0200L714.0600 296.0200Q712.5200 296.0200 711.5400 295.2500Q710.5600 294.4800 710.1400 292.6600L710.1400 292.6600Q707.9000 283.4200 702.4400 280.0600Q696.9800 276.7000 688.8600 276.7000L688.8600 276.7000Q679.4800 276.7000 673.8800 281.9500Q668.2800 287.2000 667.8600 299.2400L667.8600 299.2400Q667.4400 310.7200 667.8600 322.7600L667.8600 322.7600Q668.2800 334.8000 673.8800 340.0500Q679.4800 345.3000 688.8600 345.3000L688.8600 345.3000Q696.9800 345.3000 702.5100 341.8700Q708.0400 338.4400 710.1400 329.3400L710.1400 329.3400Q710.5600 327.3800 711.5400 326.6800Q712.5200 325.9800 714.0600 325.9800L714.0600 325.9800L727.3600 325.9800Q728.6200 325.9800 729.5300 326.8200Q730.4400 327.6600 730.3000 328.9200L730.3000 328.9200Q730.1600 335.7800 727.2200 341.6600Q724.2800 347.5400 718.9600 351.9500Q713.6400 356.3600 706.0800 358.8800Q698.5200 361.4000 689.0000 361.4000ZM777.4800 361.4000L777.4800 361.4000Q766.2800 361.4000 758.6500 357.4800Q751.0200 353.5600 747.0300 346.4200Q743.0400 339.2800 742.4800 329.7600L742.4800 329.7600Q742.3400 327.2400 742.3400 323.6000Q742.3400 319.9600 742.4800 317.4400L742.4800 317.4400Q743.0400 307.7800 747.1700 300.7100Q751.3000 293.6400 758.9300 289.7200Q766.5600 285.8000 777.4800 285.8000L777.4800 285.8000Q788.4000 285.8000 796.0300 289.7200Q803.6600 293.6400 807.7900 300.7100Q811.9200 307.7800 812.4800 317.4400L812.4800 317.4400Q812.6200 319.9600 812.6200 323.6000Q812.6200 327.2400 812.4800 329.7600L812.4800 329.7600Q811.9200 339.2800 807.9300 346.4200Q803.9400 353.5600 796.3100 357.4800Q788.6800 361.4000 777.4800 361.4000ZM777.4800 347.5400L777.4800 347.5400Q784.9000 347.5400 788.9600 342.8500Q793.0200 338.1600 793.4400 329.0600L793.4400 329.0600Q793.5800 326.9600 793.5800 323.6000Q793.5800 320.2400 793.4400 318.1400L793.4400 318.1400Q793.0200 309.0400 788.9600 304.3500Q784.9000 299.6600 777.4800 299.6600L777.4800 299.6600Q770.0600 299.6600 766.0000 304.3500Q761.9400 309.0400 761.5200 318.1400L761.5200 318.1400Q761.3800 320.2400 761.3800 323.6000Q761.3800 326.9600 761.5200 329.0600L761.5200 329.0600Q761.9400 338.1600 766.0000 342.8500Q770.0600 347.5400 777.4800 347.5400ZM843.2800 360L831.5200 360Q830.1200 360 829.1400 359.0200Q828.1600 358.0400 828.1600 356.6400L828.1600 356.6400L828.1600 290.5600Q828.1600 289.1600 829.1400 288.1800Q830.1200 287.2000 831.5200 287.2000L831.5200 287.2000L842.4400 287.2000Q843.8400 287.2000 844.8200 288.1800Q845.8000 289.1600 845.8000 290.5600L845.8000 290.5600L845.8000 295.3200Q848.7400 291.4000 853.7100 288.6700Q858.6800 285.9400 865.5400 285.8000L865.5400 285.8000Q881.5000 285.5200 887.8000 298.2600L887.8000 298.2600Q891.0200 292.6600 897.1100 289.2300Q903.2000 285.8000 910.6200 285.8000L910.6200 285.8000Q917.9000 285.8000 923.8500 289.1600Q929.8000 292.5200 933.2300 299.3100Q936.6600 306.1000 936.6600 316.4600L936.6600 316.4600L936.6600 356.6400Q936.6600 358.0400 935.6800 359.0200Q934.7000 360 933.3000 360L933.3000 360L921.8200 360Q920.4200 360 919.4400 359.0200Q918.4600 358.0400 918.4600 356.6400L918.4600 356.6400L918.4600 317.5800Q918.4600 311.2800 916.6400 307.5700Q914.8200 303.8600 911.7400 302.3200Q908.6600 300.7800 904.8800 300.7800L904.8800 300.7800Q901.8000 300.7800 898.7200 302.3200Q895.6400 303.8600 893.6800 307.5700Q891.7200 311.2800 891.7200 317.5800L891.7200 317.5800L891.7200 356.6400Q891.7200 358.0400 890.7400 359.0200Q889.7600 360 888.3600 360L888.3600 360L876.8800 360Q875.4800 360 874.5000 359.0200Q873.5200 358.0400 873.5200 356.6400L873.5200 356.6400L873.5200 317.5800Q873.5200 311.2800 871.5600 307.5700Q869.6000 303.8600 866.5200 302.3200Q863.4400 300.7800 859.9400 300.7800L859.9400 300.7800Q856.7200 300.7800 853.6400 302.3900Q850.5600 304 848.6000 307.6400Q846.6400 311.2800 846.6400 317.5800L846.6400 317.5800L846.6400 356.6400Q846.6400 358.0400 845.6600 359.0200Q844.6800 360 843.2800 360L843.2800 360ZM986.6400 361.4000L986.6400 361.4000Q975.4400 361.4000 967.8100 357.4800Q960.1800 353.5600 956.1900 346.4200Q952.2000 339.2800 951.6400 329.7600L951.6400 329.7600Q951.5000 327.2400 951.5000 323.6000Q951.5000 319.9600 951.6400 317.4400L951.6400 317.4400Q952.2000 307.7800 956.3300 300.7100Q960.4600 293.6400 968.0900 289.7200Q975.7200 285.8000 986.6400 285.8000L986.6400 285.8000Q997.5600 285.8000 1005.1900 289.7200Q1012.8200 293.6400 1016.9500 300.7100Q1021.0800 307.7800 1021.6400 317.4400L1021.6400 317.4400Q1021.7800 319.9600 1021.7800 323.6000Q1021.7800 327.2400 1021.6400 329.7600L1021.6400 329.7600Q1021.0800 339.2800 1017.0900 346.4200Q1013.1000 353.5600 1005.4700 357.4800Q997.8400 361.4000 986.6400 361.4000ZM986.6400 347.5400L986.6400 347.5400Q994.0600 347.5400 998.1200 342.8500Q1002.1800 338.1600 1002.6000 329.0600L1002.6000 329.0600Q1002.7400 326.9600 1002.7400 323.6000Q1002.7400 320.2400 1002.6000 318.1400L1002.6000 318.1400Q1002.1800 309.0400 998.1200 304.3500Q994.0600 299.6600 986.6400 299.6600L986.6400 299.6600Q979.2200 299.6600 975.1600 304.3500Q971.1000 309.0400 970.6800 318.1400L970.6800 318.1400Q970.5400 320.2400 970.5400 323.6000Q970.5400 326.9600 970.6800 329.0600L970.6800 329.0600Q971.1000 338.1600 975.1600 342.8500Q979.2200 347.5400 986.6400 347.5400ZM174.2200 500L162.6000 500Q161.2000 500 160.2200 499.0200Q159.2400 498.0400 159.2400 496.6400L159.2400 496.6400L159.2400 430.5600Q159.2400 429.1600 160.2200 428.1800Q161.2000 427.2000 162.6000 427.2000L162.6000 427.2000L174.2200 427.2000Q175.7600 427.2000 176.6700 428.1800Q177.5800 429.1600 177.5800 430.5600L177.5800 430.5600L177.5800 496.6400Q177.5800 498.0400 176.6700 499.0200Q175.7600 500 174.2200 500L174.2200 500ZM174.7800 415.1600L162.0400 415.1600Q160.6400 415.1600 159.6600 414.1800Q158.6800 413.2000 158.6800 411.8000L158.6800 411.8000L158.6800 401.7200Q158.6800 400.3200 159.6600 399.3400Q160.6400 398.3600 162.0400 398.3600L162.0400 398.3600L174.7800 398.3600Q176.3200 398.3600 177.3000 399.3400Q178.2800 400.3200 178.2800 401.7200L178.2800 401.7200L178.2800 411.8000Q178.2800 413.2000 177.3000 414.1800Q176.3200 415.1600 174.7800 415.1600L174.7800 415.1600ZM211.8800 500L199.5600 500Q198.1600 500 197.1800 499.0200Q196.2000 498.0400 196.2000 496.6400L196.2000 496.6400L196.2000 430.5600Q196.2000 429.1600 197.1800 428.1800Q198.1600 427.2000 199.5600 427.2000L199.5600 427.2000L211.0400 427.2000Q212.4400 427.2000 213.4200 428.1800Q214.4000 429.1600 214.4000 430.5600L214.4000 430.5600L214.4000 436.3000Q218.0400 431.8200 223.7100 428.8100Q229.3800 425.8000 237.7800 425.8000L237.7800 425.8000Q246.3200 425.8000 252.6200 429.6500Q258.9200 433.5000 262.3500 440.5000Q265.7800 447.5000 265.7800 457.3000L265.7800 457.3000L265.7800 496.6400Q265.7800 498.0400 264.8000 499.0200Q263.8200 500 262.4200 500L262.4200 500L250.1000 500Q248.7000 500 247.7200 499.0200Q246.7400 498.0400 246.7400 496.6400L246.7400 496.6400L246.7400 458.1400Q246.7400 450.0200 242.7500 445.4000Q238.7600 440.7800 231.2000 440.7800L231.2000 440.7800Q223.9200 440.7800 219.5800 445.4000Q215.2400 450.0200 215.2400 458.1400L215.2400 458.1400L215.2400 496.6400Q215.2400 498.0400 214.2600 499.0200Q213.2800 500 211.8800 500L211.8800 500ZM311.1400 501.4000L311.1400 501.4000Q302.7400 501.4000 296.7900 499.4400Q290.8400 497.4800 287.0600 494.5400Q283.2800 491.6000 281.4600 488.6600Q279.6400 485.7200 279.5000 483.7600L279.5000 483.7600Q279.3600 482.2200 280.4100 481.3100Q281.4600 480.4000 282.7200 480.4000L282.7200 480.4000L293.7800 480.4000Q294.3400 480.4000 294.7600 480.5400Q295.1800 480.6800 295.8800 481.3800L295.8800 481.3800Q297.7000 482.9200 299.7300 484.6000Q301.7600 486.2800 304.5600 487.4700Q307.3600 488.6600 311.5600 488.6600L311.5600 488.6600Q317.0200 488.6600 320.7300 486.4900Q324.4400 484.3200 324.4400 480.2600L324.4400 480.2600Q324.4400 477.3200 322.8300 475.5000Q321.2200 473.6800 316.8800 472.2100Q312.5400 470.7400 304.5600 469.0600L304.5600 469.0600Q296.7200 467.2400 291.5400 464.4400Q286.3600 461.6400 283.8400 457.4400Q281.3200 453.2400 281.3200 447.6400L281.3200 447.6400Q281.3200 442.1800 284.6100 437.2100Q287.9000 432.2400 294.4100 429.0200Q300.9200 425.8000 310.5800 425.8000L310.5800 425.8000Q318.1400 425.8000 323.7400 427.6900Q329.3400 429.5800 333.0500 432.3800Q336.7600 435.1800 338.7200 438.0500Q340.6800 440.9200 340.8200 443.0200L340.8200 443.0200Q340.9600 444.5600 339.9800 445.4700Q339.0000 446.3800 337.7400 446.3800L337.7400 446.3800L327.3800 446.3800Q326.6800 446.3800 326.1200 446.1000Q325.5600 445.8200 325.0000 445.4000L325.0000 445.4000Q323.4600 444 321.6400 442.3900Q319.8200 440.7800 317.2300 439.6600Q314.6400 438.5400 310.4400 438.5400L310.4400 438.5400Q305.1200 438.5400 302.3200 440.8500Q299.5200 443.1600 299.5200 446.6600L299.5200 446.6600Q299.5200 449.0400 300.8500 450.7900Q302.1800 452.5400 306.2400 454.0800Q310.3000 455.6200 318.5600 457.3000L318.5600 457.3000Q327.9400 458.9800 333.4700 462.2700Q339.0000 465.5600 341.3100 469.8300Q343.6200 474.1000 343.6200 479.2800L343.6200 479.2800Q343.6200 485.5800 339.9100 490.6200Q336.2000 495.6600 328.9900 498.5300Q321.7800 501.4000 311.1400 501.4000ZM402.2800 500L390.9400 500Q382.5400 500 376.8000 497.0600Q371.0600 494.1200 368.2600 488.3100Q365.4600 482.5000 365.4600 473.8200L365.4600 473.8200L365.4600 442.0400L354.4000 442.0400Q353.0000 442.0400 352.0200 441.0600Q351.0400 440.0800 351.0400 438.5400L351.0400 438.5400L351.0400 430.5600Q351.0400 429.1600 352.0200 428.1800Q353.0000 427.2000 354.4000 427.2000L354.4000 427.2000L365.4600 427.2000L365.4600 403.9600Q365.4600 402.5600 366.3700 401.5800Q367.2800 400.6000 368.8200 400.6000L368.8200 400.6000L380.1600 400.6000Q381.5600 400.6000 382.5400 401.5800Q383.5200 402.5600 383.5200 403.9600L383.5200 403.9600L383.5200 427.2000L401.0200 427.2000Q402.4200 427.2000 403.4000 428.1800Q404.3800 429.1600 404.3800 430.5600L404.3800 430.5600L404.3800 438.5400Q404.3800 440.0800 403.4000 441.0600Q402.4200 442.0400 401.0200 442.0400L401.0200 442.0400L383.5200 442.0400L383.5200 472.4200Q383.5200 478.1600 385.5500 481.3800Q387.5800 484.6000 392.6200 484.6000L392.6200 484.6000L402.2800 484.6000Q403.6800 484.6000 404.6600 485.5800Q405.6400 486.5600 405.6400 487.9600L405.6400 487.9600L405.6400 496.6400Q405.6400 498.0400 404.6600 499.0200Q403.6800 500 402.2800 500L402.2800 500ZM439.2400 501.4000L439.2400 501.4000Q431.9600 501.4000 426.0800 498.5300Q420.2000 495.6600 416.7700 490.8300Q413.3400 486 413.3400 479.9800L413.3400 479.9800Q413.3400 470.1800 421.3200 464.3700Q429.3000 458.5600 442.1800 456.6000L442.1800 456.6000L461.3600 453.8000L461.3600 450.8600Q461.3600 444.9800 458.4200 441.7600Q455.4800 438.5400 448.3400 438.5400L448.3400 438.5400Q443.3000 438.5400 440.1500 440.5700Q437.0000 442.6000 435.4600 445.9600L435.4600 445.9600Q434.3400 447.7800 432.2400 447.7800L432.2400 447.7800L421.1800 447.7800Q419.6400 447.7800 418.8700 446.9400Q418.1000 446.1000 418.1000 444.7000L418.1000 444.7000Q418.2400 442.4600 419.9900 439.2400Q421.7400 436.0200 425.3100 433.0100Q428.8800 430 434.6200 427.9000Q440.3600 425.8000 448.4800 425.8000L448.4800 425.8000Q457.3000 425.8000 463.3900 427.9700Q469.4800 430.1400 473.1200 433.7800Q476.7600 437.4200 478.4400 442.3200Q480.1200 447.2200 480.1200 452.6800L480.1200 452.6800L480.1200 496.6400Q480.1200 498.0400 479.1400 499.0200Q478.1600 500 476.7600 500L476.7600 500L465.4200 500Q463.8800 500 462.9700 499.0200Q462.0600 498.0400 462.0600 496.6400L462.0600 496.6400L462.0600 491.1800Q460.2400 493.7000 457.1600 496.0800Q454.0800 498.4600 449.6700 499.9300Q445.2600 501.4000 439.2400 501.4000ZM444.0000 488.1000L444.0000 488.1000Q448.9000 488.1000 452.8900 486Q456.8800 483.9000 459.1900 479.4900Q461.5000 475.0800 461.5000 468.3600L461.5000 468.3600L461.5000 465.4200L447.5000 467.6600Q439.2400 468.9200 435.1800 471.7200Q431.1200 474.5200 431.1200 478.5800L431.1200 478.5800Q431.1200 481.6600 433.0100 483.8300Q434.9000 486 437.8400 487.0500Q440.7800 488.1000 444.0000 488.1000ZM513.1600 500L501.5400 500Q500.1400 500 499.1600 499.0200Q498.1800 498.0400 498.1800 496.6400L498.1800 496.6400L498.1800 403.9600Q498.1800 402.5600 499.1600 401.5800Q500.1400 400.6000 501.5400 400.6000L501.5400 400.6000L513.1600 400.6000Q514.5600 400.6000 515.5400 401.5800Q516.5200 402.5600 516.5200 403.9600L516.5200 403.9600L516.5200 496.6400Q516.5200 498.0400 515.5400 499.0200Q514.5600 500 513.1600 500L513.1600 500ZM556.2800 501.4000L556.2800 501.4000Q549.0000 501.4000 543.1200 498.5300Q537.2400 495.6600 533.8100 490.8300Q530.3800 486 530.3800 479.9800L530.3800 479.9800Q530.3800 470.1800 538.3600 464.3700Q546.3400 458.5600 559.2200 456.6000L559.2200 456.6000L578.4000 453.8000L578.4000 450.8600Q578.4000 444.9800 575.4600 441.7600Q572.5200 438.5400 565.3800 438.5400L565.3800 438.5400Q560.3400 438.5400 557.1900 440.5700Q554.0400 442.6000 552.5000 445.9600L552.5000 445.9600Q551.3800 447.7800 549.2800 447.7800L549.2800 447.7800L538.2200 447.7800Q536.6800 447.7800 535.9100 446.9400Q535.1400 446.1000 535.1400 444.7000L535.1400 444.7000Q535.2800 442.4600 537.0300 439.2400Q538.7800 436.0200 542.3500 433.0100Q545.9200 430 551.6600 427.9000Q557.4000 425.8000 565.5200 425.8000L565.5200 425.8000Q574.3400 425.8000 580.4300 427.9700Q586.5200 430.1400 590.1600 433.7800Q593.8000 437.4200 595.4800 442.3200Q597.1600 447.2200 597.1600 452.6800L597.1600 452.6800L597.1600 496.6400Q597.1600 498.0400 596.1800 499.0200Q595.2000 500 593.8000 500L593.8000 500L582.4600 500Q580.9200 500 580.0100 499.0200Q579.1000 498.0400 579.1000 496.6400L579.1000 496.6400L579.1000 491.1800Q577.2800 493.7000 574.2000 496.0800Q571.1200 498.4600 566.7100 499.9300Q562.3000 501.4000 556.2800 501.4000ZM561.0400 488.1000L561.0400 488.1000Q565.9400 488.1000 569.9300 486Q573.9200 483.9000 576.2300 479.4900Q578.5400 475.0800 578.5400 468.3600L578.5400 468.3600L578.5400 465.4200L564.5400 467.6600Q556.2800 468.9200 552.2200 471.7200Q548.1600 474.5200 548.1600 478.5800L548.1600 478.5800Q548.1600 481.6600 550.0500 483.8300Q551.9400 486 554.8800 487.0500Q557.8200 488.1000 561.0400 488.1000ZM630.6200 500L618.4400 500Q617.0400 500 616.0600 499.0200Q615.0800 498.0400 615.0800 496.6400L615.0800 496.6400L615.0800 430.7000Q615.0800 429.1600 616.0600 428.1800Q617.0400 427.2000 618.4400 427.2000L618.4400 427.2000L629.7800 427.2000Q631.1800 427.2000 632.2300 428.1800Q633.2800 429.1600 633.2800 430.7000L633.2800 430.7000L633.2800 436.4400Q636.5000 431.9600 641.6100 429.5800Q646.7200 427.2000 653.4400 427.2000L653.4400 427.2000L659.1800 427.2000Q660.7200 427.2000 661.6300 428.1800Q662.5400 429.1600 662.5400 430.5600L662.5400 430.5600L662.5400 440.6400Q662.5400 442.0400 661.6300 443.0200Q660.7200 444 659.1800 444L659.1800 444L648.2600 444Q641.5400 444 637.8300 447.7100Q634.1200 451.4200 634.1200 458.1400L634.1200 458.1400L634.1200 496.6400Q634.1200 498.0400 633.1400 499.0200Q632.1600 500 630.6200 500L630.6200 500ZM737.7200 501.4000L737.7200 501.4000Q726.5200 501.4000 718.8900 497.4800Q711.2600 493.5600 707.2700 486.4200Q703.2800 479.2800 702.7200 469.7600L702.7200 469.7600Q702.5800 467.2400 702.5800 463.6000Q702.5800 459.9600 702.7200 457.4400L702.7200 457.4400Q703.2800 447.7800 707.4100 440.7100Q711.5400 433.6400 719.1700 429.7200Q726.8000 425.8000 737.7200 425.8000L737.7200 425.8000Q748.6400 425.8000 756.2700 429.7200Q763.9000 433.6400 768.0300 440.7100Q772.1600 447.7800 772.7200 457.4400L772.7200 457.4400Q772.8600 459.9600 772.8600 463.6000Q772.8600 467.2400 772.7200 469.7600L772.7200 469.7600Q772.1600 479.2800 768.1700 486.4200Q764.1800 493.5600 756.5500 497.4800Q748.9200 501.4000 737.7200 501.4000ZM737.7200 487.5400L737.7200 487.5400Q745.1400 487.5400 749.2000 482.8500Q753.2600 478.1600 753.6800 469.0600L753.6800 469.0600Q753.8200 466.9600 753.8200 463.6000Q753.8200 460.2400 753.6800 458.1400L753.6800 458.1400Q753.2600 449.0400 749.2000 444.3500Q745.1400 439.6600 737.7200 439.6600L737.7200 439.6600Q730.3000 439.6600 726.2400 444.3500Q722.1800 449.0400 721.7600 458.1400L721.7600 458.1400Q721.6200 460.2400 721.6200 463.6000Q721.6200 466.9600 721.7600 469.0600L721.7600 469.0600Q722.1800 478.1600 726.2400 482.8500Q730.3000 487.5400 737.7200 487.5400ZM838.8000 500L825.5000 500Q824.1000 500 823.1200 499.0200Q822.1400 498.0400 822.1400 496.6400L822.1400 496.6400L822.1400 405.5000Q822.1400 403.9600 823.1200 402.9800Q824.1000 402 825.5000 402L825.5000 402L863.0200 402Q873.9400 402 882.0600 405.4300Q890.1800 408.8600 894.6600 415.7900Q899.1400 422.7200 899.1400 433.0800L899.1400 433.0800Q899.1400 443.5800 894.6600 450.3700Q890.1800 457.1600 882.0600 460.5200Q873.9400 463.8800 863.0200 463.8800L863.0200 463.8800L842.1600 463.8800L842.1600 496.6400Q842.1600 498.0400 841.2500 499.0200Q840.3400 500 838.8000 500L838.8000 500ZM841.8800 417.5400L841.8800 448.3400L862.3200 448.3400Q870.4400 448.3400 874.7800 444.4900Q879.1200 440.6400 879.1200 433.0800L879.1200 433.0800Q879.1200 426.0800 875.0600 421.8100Q871.0000 417.5400 862.3200 417.5400L862.3200 417.5400L841.8800 417.5400ZM944.9200 501.4000L944.9200 501.4000Q933.7200 501.4000 926.0900 497.4800Q918.4600 493.5600 914.4700 486.4200Q910.4800 479.2800 909.9200 469.7600L909.9200 469.7600Q909.7800 467.2400 909.7800 463.6000Q909.7800 459.9600 909.9200 457.4400L909.9200 457.4400Q910.4800 447.7800 914.6100 440.7100Q918.7400 433.6400 926.3700 429.7200Q934.0000 425.8000 944.9200 425.8000L944.9200 425.8000Q955.8400 425.8000 963.4700 429.7200Q971.1000 433.6400 975.2300 440.7100Q979.3600 447.7800 979.9200 457.4400L979.9200 457.4400Q980.0600 459.9600 980.0600 463.6000Q980.0600 467.2400 979.9200 469.7600L979.9200 469.7600Q979.3600 479.2800 975.3700 486.4200Q971.3800 493.5600 963.7500 497.4800Q956.1200 501.4000 944.9200 501.4000ZM944.9200 487.5400L944.9200 487.5400Q952.3400 487.5400 956.4000 482.8500Q960.4600 478.1600 960.8800 469.0600L960.8800 469.0600Q961.0200 466.9600 961.0200 463.6000Q961.0200 460.2400 960.8800 458.1400L960.8800 458.1400Q960.4600 449.0400 956.4000 444.3500Q952.3400 439.6600 944.9200 439.6600L944.9200 439.6600Q937.5000 439.6600 933.4400 444.3500Q929.3800 449.0400 928.9600 458.1400L928.9600 458.1400Q928.8200 460.2400 928.8200 463.6000Q928.8200 466.9600 928.9600 469.0600L928.9600 469.0600Q929.3800 478.1600 933.4400 482.8500Q937.5000 487.5400 944.9200 487.5400ZM1023.1800 501.4000L1023.1800 501.4000Q1014.7800 501.4000 1008.8300 499.4400Q1002.8800 497.4800 999.1000 494.5400Q995.3200 491.6000 993.5000 488.6600Q991.6800 485.7200 991.5400 483.7600L991.5400 483.7600Q991.4000 482.2200 992.4500 481.3100Q993.5000 480.4000 994.7600 480.4000L994.7600 480.4000L1005.8200 480.4000Q1006.3800 480.4000 1006.8000 480.5400Q1007.2200 480.6800 1007.9200 481.3800L1007.9200 481.3800Q1009.7400 482.9200 1011.7700 484.6000Q1013.8000 486.2800 1016.6000 487.4700Q1019.4000 488.6600 1023.6000 488.6600L1023.6000 488.6600Q1029.0600 488.6600 1032.7700 486.4900Q1036.4800 484.3200 1036.4800 480.2600L1036.4800 480.2600Q1036.4800 477.3200 1034.8700 475.5000Q1033.2600 473.6800 1028.9200 472.2100Q1024.5800 470.7400 1016.6000 469.0600L1016.6000 469.0600Q1008.7600 467.2400 1003.5800 464.4400Q998.4000 461.6400 995.8800 457.4400Q993.3600 453.2400 993.3600 447.6400L993.3600 447.6400Q993.3600 442.1800 996.6500 437.2100Q999.9400 432.2400 1006.4500 429.0200Q1012.9600 425.8000 1022.6200 425.8000L1022.6200 425.8000Q1030.1800 425.8000 1035.7800 427.6900Q1041.3800 429.5800 1045.0900 432.3800Q1048.8000 435.1800 1050.7600 438.0500Q1052.7200 440.9200 1052.8600 443.0200L1052.8600 443.0200Q1053.0000 444.5600 1052.0200 445.4700Q1051.0400 446.3800 1049.7800 446.3800L1049.7800 446.3800L1039.4200 446.3800Q1038.7200 446.3800 1038.1600 446.1000Q1037.6000 445.8200 1037.0400 445.4000L1037.0400 445.4000Q1035.5000 444 1033.6800 442.3900Q1031.8600 440.7800 1029.2700 439.6600Q1026.6800 438.5400 1022.4800 438.5400L1022.4800 438.5400Q1017.1600 438.5400 1014.3600 440.8500Q1011.5600 443.1600 1011.5600 446.6600L1011.5600 446.6600Q1011.5600 449.0400 1012.8900 450.7900Q1014.2200 452.5400 1018.2800 454.0800Q1022.3400 455.6200 1030.6000 457.3000L1030.6000 457.3000Q1039.9800 458.9800 1045.5100 462.2700Q1051.0400 465.5600 1053.3500 469.8300Q1055.6600 474.1000 1055.6600 479.2800L1055.6600 479.2800Q1055.6600 485.5800 1051.9500 490.6200Q1048.2400 495.6600 1041.0300 498.5300Q1033.8200 501.4000 1023.1800 501.4000ZM1114.3200 500L1102.9800 500Q1094.5800 500 1088.8400 497.0600Q1083.1000 494.1200 1080.3000 488.3100Q1077.5000 482.5000 1077.5000 473.8200L1077.5000 473.8200L1077.5000 442.0400L1066.4400 442.0400Q1065.0400 442.0400 1064.0600 441.0600Q1063.0800 440.0800 1063.0800 438.5400L1063.0800 438.5400L1063.0800 430.5600Q1063.0800 429.1600 1064.0600 428.1800Q1065.0400 427.2000 1066.4400 427.2000L1066.4400 427.2000L1077.5000 427.2000L1077.5000 403.9600Q1077.5000 402.5600 1078.4100 401.5800Q1079.3200 400.6000 1080.8600 400.6000L1080.8600 400.6000L1092.2000 400.6000Q1093.6000 400.6000 1094.5800 401.5800Q1095.5600 402.5600 1095.5600 403.9600L1095.5600 403.9600L1095.5600 427.2000L1113.0600 427.2000Q1114.4600 427.2000 1115.4400 428.1800Q1116.4200 429.1600 1116.4200 430.5600L1116.4200 430.5600L1116.4200 438.5400Q1116.4200 440.0800 1115.4400 441.0600Q1114.4600 442.0400 1113.0600 442.0400L1113.0600 442.0400L1095.5600 442.0400L1095.5600 472.4200Q1095.5600 478.1600 1097.5900 481.3800Q1099.6200 484.6000 1104.6600 484.6000L1104.6600 484.6000L1114.3200 484.6000Q1115.7200 484.6000 1116.7000 485.5800Q1117.6800 486.5600 1117.6800 487.9600L1117.6800 487.9600L1117.6800 496.6400Q1117.6800 498.0400 1116.7000 499.0200Q1115.7200 500 1114.3200 500L1114.3200 500ZM1163.0400 530.8000L1163.0400 530.8000Q1152.8200 530.8000 1146.2400 528.1400Q1139.6600 525.4800 1135.8800 521.7000Q1132.1000 517.9200 1130.4900 514.2100Q1128.8800 510.5000 1128.7400 508.4000L1128.7400 508.4000Q1128.6000 507 1129.6500 505.9500Q1130.7000 504.9000 1132.1000 504.9000L1132.1000 504.9000L1144.2800 504.9000Q1145.6800 504.9000 1146.5200 505.5300Q1147.3600 506.1600 1147.9200 507.8400L1147.9200 507.8400Q1148.7600 509.6600 1150.1600 511.7600Q1151.5600 513.8600 1154.4300 515.3300Q1157.3000 516.8000 1162.3400 516.8000L1162.3400 516.8000Q1167.6600 516.8000 1171.3000 515.2600Q1174.9400 513.7200 1176.8300 510.0800Q1178.7200 506.4400 1178.7200 500L1178.7200 500L1178.7200 490.4800Q1175.3600 494.5400 1170.1100 497.0600Q1164.8600 499.5800 1157.1600 499.5800L1157.1600 499.5800Q1149.7400 499.5800 1144.2100 497.1300Q1138.6800 494.6800 1135.0400 490.2700Q1131.4000 485.8600 1129.5100 479.8400Q1127.6200 473.8200 1127.3400 466.5400L1127.3400 466.5400Q1127.2000 462.7600 1127.3400 458.9800L1127.3400 458.9800Q1127.6200 451.9800 1129.5100 445.9600Q1131.4000 439.9400 1135.0400 435.3900Q1138.6800 430.8400 1144.2100 428.3200Q1149.7400 425.8000 1157.1600 425.8000L1157.1600 425.8000Q1165.1400 425.8000 1170.6000 428.8100Q1176.0600 431.8200 1179.5600 436.3000L1179.5600 436.3000L1179.5600 430.7000Q1179.5600 429.1600 1180.5400 428.1800Q1181.5200 427.2000 1182.9200 427.2000L1182.9200 427.2000L1194.2600 427.2000Q1195.6600 427.2000 1196.6400 428.1800Q1197.6200 429.1600 1197.6200 430.7000L1197.6200 430.7000L1197.7600 498.1800Q1197.7600 508.2600 1193.9800 515.5400Q1190.2000 522.8200 1182.5700 526.8100Q1174.9400 530.8000 1163.0400 530.8000ZM1162.3400 484.7400L1162.3400 484.7400Q1168.0800 484.7400 1171.5800 482.2200Q1175.0800 479.7000 1176.7600 475.6400Q1178.4400 471.5800 1178.7200 467.3800L1178.7200 467.3800Q1178.8600 465.5600 1178.8600 462.7600Q1178.8600 459.9600 1178.7200 458.2800L1178.7200 458.2800Q1178.4400 453.9400 1176.7600 449.9500Q1175.0800 445.9600 1171.5800 443.3700Q1168.0800 440.7800 1162.3400 440.7800L1162.3400 440.7800Q1156.6000 440.7800 1153.1000 443.3700Q1149.6000 445.9600 1148.1300 450.1600Q1146.6600 454.3600 1146.3800 459.4000L1146.3800 459.4000Q1146.1000 462.7600 1146.3800 466.2600L1146.3800 466.2600Q1146.6600 471.1600 1148.1300 475.4300Q1149.6000 479.7000 1153.1000 482.2200Q1156.6000 484.7400 1162.3400 484.7400ZM1231.9200 500L1219.7400 500Q1218.3400 500 1217.3600 499.0200Q1216.3800 498.0400 1216.3800 496.6400L1216.3800 496.6400L1216.3800 430.7000Q1216.3800 429.1600 1217.3600 428.1800Q1218.3400 427.2000 1219.7400 427.2000L1219.7400 427.2000L1231.0800 427.2000Q1232.4800 427.2000 1233.5300 428.1800Q1234.5800 429.1600 1234.5800 430.7000L1234.5800 430.7000L1234.5800 436.4400Q1237.8000 431.9600 1242.9100 429.5800Q1248.0200 427.2000 1254.7400 427.2000L1254.7400 427.2000L1260.4800 427.2000Q1262.0200 427.2000 1262.9300 428.1800Q1263.8400 429.1600 1263.8400 430.5600L1263.8400 430.5600L1263.8400 440.6400Q1263.8400 442.0400 1262.9300 443.0200Q1262.0200 444 1260.4800 444L1260.4800 444L1249.5600 444Q1242.8400 444 1239.1300 447.7100Q1235.4200 451.4200 1235.4200 458.1400L1235.4200 458.1400L1235.4200 496.6400Q1235.4200 498.0400 1234.4400 499.0200Q1233.4600 500 1231.9200 500L1231.9200 500ZM1306.1200 501.4000L1306.1200 501.4000Q1290.5800 501.4000 1281.4800 492.4400Q1272.3800 483.4800 1271.6800 466.9600L1271.6800 466.9600Q1271.5400 465.5600 1271.5400 463.3900Q1271.5400 461.2200 1271.6800 459.9600L1271.6800 459.9600Q1272.2400 449.3200 1276.5100 441.6900Q1280.7800 434.0600 1288.3400 429.9300Q1295.9000 425.8000 1306.1200 425.8000L1306.1200 425.8000Q1317.4600 425.8000 1325.1600 430.4900Q1332.8600 435.1800 1336.7800 443.5100Q1340.7000 451.8400 1340.7000 462.7600L1340.7000 462.7600L1340.7000 465.7000Q1340.7000 467.1000 1339.7200 468.0800Q1338.7400 469.0600 1337.2000 469.0600L1337.2000 469.0600L1290.7200 469.0600Q1290.7200 469.0600 1290.7200 469.4800Q1290.7200 469.9000 1290.7200 470.1800L1290.7200 470.1800Q1290.8600 475.0800 1292.6100 479.2100Q1294.3600 483.3400 1297.7900 485.8600Q1301.2200 488.3800 1305.9800 488.3800L1305.9800 488.3800Q1309.9000 488.3800 1312.5600 487.1900Q1315.2200 486 1316.9000 484.4600Q1318.5800 482.9200 1319.2800 481.9400L1319.2800 481.9400Q1320.5400 480.2600 1321.3100 479.9100Q1322.0800 479.5600 1323.6200 479.5600L1323.6200 479.5600L1335.6600 479.5600Q1337.0600 479.5600 1337.9700 480.4000Q1338.8800 481.2400 1338.7400 482.5000L1338.7400 482.5000Q1338.6000 484.7400 1336.4300 487.9600Q1334.2600 491.1800 1330.2000 494.2600Q1326.1400 497.3400 1320.0500 499.3700Q1313.9600 501.4000 1306.1200 501.4000ZM1290.7200 456.8800L1290.7200 457.3000L1321.6600 457.3000L1321.6600 456.8800Q1321.6600 451.4200 1319.8400 447.2900Q1318.0200 443.1600 1314.5200 440.8500Q1311.0200 438.5400 1306.1200 438.5400L1306.1200 438.5400Q1301.2200 438.5400 1297.7200 440.8500Q1294.2200 443.1600 1292.4700 447.2900Q1290.7200 451.4200 1290.7200 456.8800L1290.7200 456.8800ZM1383.1200 501.4000L1383.1200 501.4000Q1374.7200 501.4000 1368.7700 499.4400Q1362.8200 497.4800 1359.0400 494.5400Q1355.2600 491.6000 1353.4400 488.6600Q1351.6200 485.7200 1351.4800 483.7600L1351.4800 483.7600Q1351.3400 482.2200 1352.3900 481.3100Q1353.4400 480.4000 1354.7000 480.4000L1354.7000 480.4000L1365.7600 480.4000Q1366.3200 480.4000 1366.7400 480.5400Q1367.1600 480.6800 1367.8600 481.3800L1367.8600 481.3800Q1369.6800 482.9200 1371.7100 484.6000Q1373.7400 486.2800 1376.5400 487.4700Q1379.3400 488.6600 1383.5400 488.6600L1383.5400 488.6600Q1389.0000 488.6600 1392.7100 486.4900Q1396.4200 484.3200 1396.4200 480.2600L1396.4200 480.2600Q1396.4200 477.3200 1394.8100 475.5000Q1393.2000 473.6800 1388.8600 472.2100Q1384.5200 470.7400 1376.5400 469.0600L1376.5400 469.0600Q1368.7000 467.2400 1363.5200 464.4400Q1358.3400 461.6400 1355.8200 457.4400Q1353.3000 453.2400 1353.3000 447.6400L1353.3000 447.6400Q1353.3000 442.1800 1356.5900 437.2100Q1359.8800 432.2400 1366.3900 429.0200Q1372.9000 425.8000 1382.5600 425.8000L1382.5600 425.8000Q1390.1200 425.8000 1395.7200 427.6900Q1401.3200 429.5800 1405.0300 432.3800Q1408.7400 435.1800 1410.7000 438.0500Q1412.6600 440.9200 1412.8000 443.0200L1412.8000 443.0200Q1412.9400 444.5600 1411.9600 445.4700Q1410.9800 446.3800 1409.7200 446.3800L1409.7200 446.3800L1399.3600 446.3800Q1398.6600 446.3800 1398.1000 446.1000Q1397.5400 445.8200 1396.9800 445.4000L1396.9800 445.4000Q1395.4400 444 1393.6200 442.3900Q1391.8000 440.7800 1389.2100 439.6600Q1386.6200 438.5400 1382.4200 438.5400L1382.4200 438.5400Q1377.1000 438.5400 1374.3000 440.8500Q1371.5000 443.1600 1371.5000 446.6600L1371.5000 446.6600Q1371.5000 449.0400 1372.8300 450.7900Q1374.1600 452.5400 1378.2200 454.0800Q1382.2800 455.6200 1390.5400 457.3000L1390.5400 457.3000Q1399.9200 458.9800 1405.4500 462.2700Q1410.9800 465.5600 1413.2900 469.8300Q1415.6000 474.1000 1415.6000 479.2800L1415.6000 479.2800Q1415.6000 485.5800 1411.8900 490.6200Q1408.1800 495.6600 1400.9700 498.5300Q1393.7600 501.4000 1383.1200 501.4000ZM190.6000 641.4000L190.6000 641.4000Q175.0600 641.4000 165.9600 632.4400Q156.8600 623.4800 156.1600 606.9600L156.1600 606.9600Q156.0200 605.5600 156.0200 603.3900Q156.0200 601.2200 156.1600 599.9600L156.1600 599.9600Q156.7200 589.3200 160.9900 581.6900Q165.2600 574.0600 172.8200 569.9300Q180.3800 565.8000 190.6000 565.8000L190.6000 565.8000Q201.9400 565.8000 209.6400 570.4900Q217.3400 575.1800 221.2600 583.5100Q225.1800 591.8400 225.1800 602.7600L225.1800 602.7600L225.1800 605.7000Q225.1800 607.1000 224.2000 608.0800Q223.2200 609.0600 221.6800 609.0600L221.6800 609.0600L175.2000 609.0600Q175.2000 609.0600 175.2000 609.4800Q175.2000 609.9000 175.2000 610.1800L175.2000 610.1800Q175.3400 615.0800 177.0900 619.2100Q178.8400 623.3400 182.2700 625.8600Q185.7000 628.3800 190.4600 628.3800L190.4600 628.3800Q194.3800 628.3800 197.0400 627.1900Q199.7000 626 201.3800 624.4600Q203.0600 622.9200 203.7600 621.9400L203.7600 621.9400Q205.0200 620.2600 205.7900 619.9100Q206.5600 619.5600 208.1000 619.5600L208.1000 619.5600L220.1400 619.5600Q221.5400 619.5600 222.4500 620.4000Q223.3600 621.2400 223.2200 622.5000L223.2200 622.5000Q223.0800 624.7400 220.9100 627.9600Q218.7400 631.1800 214.6800 634.2600Q210.6200 637.3400 204.5300 639.3700Q198.4400 641.4000 190.6000 641.4000ZM175.2000 596.8800L175.2000 597.3000L206.1400 597.3000L206.1400 596.8800Q206.1400 591.4200 204.3200 587.2900Q202.5000 583.1600 199 580.8500Q195.5000 578.5400 190.6000 578.5400L190.6000 578.5400Q185.7000 578.5400 182.2000 580.8500Q178.7000 583.1600 176.9500 587.2900Q175.2000 591.4200 175.2000 596.8800L175.2000 596.8800ZM303.5800 641.4000L303.5800 641.4000Q293.5000 641.4000 285.8700 637.6200Q278.2400 633.8400 273.9700 626.6300Q269.7000 619.4200 269.2800 609.2000L269.2800 609.2000Q269.1400 607.1000 269.1400 603.6700Q269.1400 600.2400 269.2800 598L269.2800 598Q269.7000 587.7800 273.9700 580.5700Q278.2400 573.3600 285.8700 569.5800Q293.5000 565.8000 303.5800 565.8000L303.5800 565.8000Q312.5400 565.8000 318.8400 568.2500Q325.1400 570.7000 329.2000 574.5500Q333.2600 578.4000 335.2900 582.5300Q337.3200 586.6600 337.4600 590.0200L337.4600 590.0200Q337.6000 591.5600 336.5500 592.4700Q335.5000 593.3800 334.1000 593.3800L334.1000 593.3800L321.7800 593.3800Q320.3800 593.3800 319.6100 592.6800Q318.8400 591.9800 318.1400 590.5800L318.1400 590.5800Q316.0400 584.9800 312.6100 582.6700Q309.1800 580.3600 303.8600 580.3600L303.8600 580.3600Q296.8600 580.3600 292.7300 584.7700Q288.6000 589.1800 288.3200 598.7000L288.3200 598.7000Q288.0400 604.0200 288.3200 608.5000L288.3200 608.5000Q288.6000 618.1600 292.7300 622.5000Q296.8600 626.8400 303.8600 626.8400L303.8600 626.8400Q309.3200 626.8400 312.6800 624.5300Q316.0400 622.2200 318.1400 616.6200L318.1400 616.6200Q318.8400 615.2200 319.6100 614.5200Q320.3800 613.8200 321.7800 613.8200L321.7800 613.8200L334.1000 613.8200Q335.5000 613.8200 336.5500 614.7300Q337.6000 615.6400 337.4600 617.1800L337.4600 617.1800Q337.3200 619.7000 336.1300 622.8500Q334.9400 626 332.3500 629.2900Q329.7600 632.5800 325.8400 635.3100Q321.9200 638.0400 316.3900 639.7200Q310.8600 641.4000 303.5800 641.4000ZM384.2200 641.4000L384.2200 641.4000Q373.0200 641.4000 365.3900 637.4800Q357.7600 633.5600 353.7700 626.4200Q349.7800 619.2800 349.2200 609.7600L349.2200 609.7600Q349.0800 607.2400 349.0800 603.6000Q349.0800 599.9600 349.2200 597.4400L349.2200 597.4400Q349.7800 587.7800 353.9100 580.7100Q358.0400 573.6400 365.6700 569.7200Q373.3000 565.8000 384.2200 565.8000L384.2200 565.8000Q395.1400 565.8000 402.7700 569.7200Q410.4000 573.6400 414.5300 580.7100Q418.6600 587.7800 419.2200 597.4400L419.2200 597.4400Q419.3600 599.9600 419.3600 603.6000Q419.3600 607.2400 419.2200 609.7600L419.2200 609.7600Q418.6600 619.2800 414.6700 626.4200Q410.6800 633.5600 403.0500 637.4800Q395.4200 641.4000 384.2200 641.4000ZM384.2200 627.5400L384.2200 627.5400Q391.6400 627.5400 395.7000 622.8500Q399.7600 618.1600 400.1800 609.0600L400.1800 609.0600Q400.3200 606.9600 400.3200 603.6000Q400.3200 600.2400 400.1800 598.1400L400.1800 598.1400Q399.7600 589.0400 395.7000 584.3500Q391.6400 579.6600 384.2200 579.6600L384.2200 579.6600Q376.8000 579.6600 372.7400 584.3500Q368.6800 589.0400 368.2600 598.1400L368.2600 598.1400Q368.1200 600.2400 368.1200 603.6000Q368.1200 606.9600 368.2600 609.0600L368.2600 609.0600Q368.6800 618.1600 372.7400 622.8500Q376.8000 627.5400 384.2200 627.5400ZM450.0200 640L438.2600 640Q436.8600 640 435.8800 639.0200Q434.9000 638.0400 434.9000 636.6400L434.9000 636.6400L434.9000 570.5600Q434.9000 569.1600 435.8800 568.1800Q436.8600 567.2000 438.2600 567.2000L438.2600 567.2000L449.1800 567.2000Q450.5800 567.2000 451.5600 568.1800Q452.5400 569.1600 452.5400 570.5600L452.5400 570.5600L452.5400 575.3200Q455.4800 571.4000 460.4500 568.6700Q465.4200 565.9400 472.2800 565.8000L472.2800 565.8000Q488.2400 565.5200 494.5400 578.2600L494.5400 578.2600Q497.7600 572.6600 503.8500 569.2300Q509.9400 565.8000 517.3600 565.8000L517.3600 565.8000Q524.6400 565.8000 530.5900 569.1600Q536.5400 572.5200 539.9700 579.3100Q543.4000 586.1000 543.4000 596.4600L543.4000 596.4600L543.4000 636.6400Q543.4000 638.0400 542.4200 639.0200Q541.4400 640 540.0400 640L540.0400 640L528.5600 640Q527.1600 640 526.1800 639.0200Q525.2000 638.0400 525.2000 636.6400L525.2000 636.6400L525.2000 597.5800Q525.2000 591.2800 523.3800 587.5700Q521.5600 583.8600 518.4800 582.3200Q515.4000 580.7800 511.6200 580.7800L511.6200 580.7800Q508.5400 580.7800 505.4600 582.3200Q502.3800 583.8600 500.4200 587.5700Q498.4600 591.2800 498.4600 597.5800L498.4600 597.5800L498.4600 636.6400Q498.4600 638.0400 497.4800 639.0200Q496.5000 640 495.1000 640L495.1000 640L483.6200 640Q482.2200 640 481.2400 639.0200Q480.2600 638.0400 480.2600 636.6400L480.2600 636.6400L480.2600 597.5800Q480.2600 591.2800 478.3000 587.5700Q476.3400 583.8600 473.2600 582.3200Q470.1800 580.7800 466.6800 580.7800L466.6800 580.7800Q463.4600 580.7800 460.3800 582.3900Q457.3000 584 455.3400 587.6400Q453.3800 591.2800 453.3800 597.5800L453.3800 597.5800L453.3800 636.6400Q453.3800 638.0400 452.4000 639.0200Q451.4200 640 450.0200 640L450.0200 640ZM593.3800 641.4000L593.3800 641.4000Q582.1800 641.4000 574.5500 637.4800Q566.9200 633.5600 562.9300 626.4200Q558.9400 619.2800 558.3800 609.7600L558.3800 609.7600Q558.2400 607.2400 558.2400 603.6000Q558.2400 599.9600 558.3800 597.4400L558.3800 597.4400Q558.9400 587.7800 563.0700 580.7100Q567.2000 573.6400 574.8300 569.7200Q582.4600 565.8000 593.3800 565.8000L593.3800 565.8000Q604.3000 565.8000 611.9300 569.7200Q619.5600 573.6400 623.6900 580.7100Q627.8200 587.7800 628.3800 597.4400L628.3800 597.4400Q628.5200 599.9600 628.5200 603.6000Q628.5200 607.2400 628.3800 609.7600L628.3800 609.7600Q627.8200 619.2800 623.8300 626.4200Q619.8400 633.5600 612.2100 637.4800Q604.5800 641.4000 593.3800 641.4000ZM593.3800 627.5400L593.3800 627.5400Q600.8000 627.5400 604.8600 622.8500Q608.9200 618.1600 609.3400 609.0600L609.3400 609.0600Q609.4800 606.9600 609.4800 603.6000Q609.4800 600.2400 609.3400 598.1400L609.3400 598.1400Q608.9200 589.0400 604.8600 584.3500Q600.8000 579.6600 593.3800 579.6600L593.3800 579.6600Q585.9600 579.6600 581.9000 584.3500Q577.8400 589.0400 577.4200 598.1400L577.4200 598.1400Q577.2800 600.2400 577.2800 603.6000Q577.2800 606.9600 577.4200 609.0600L577.4200 609.0600Q577.8400 618.1600 581.9000 622.8500Q585.9600 627.5400 593.3800 627.5400ZM691.1000 640L679.4800 640Q678.0800 640 677.1000 639.0200Q676.1200 638.0400 676.1200 636.6400L676.1200 636.6400L676.1200 570.5600Q676.1200 569.1600 677.1000 568.1800Q678.0800 567.2000 679.4800 567.2000L679.4800 567.2000L691.1000 567.2000Q692.6400 567.2000 693.5500 568.1800Q694.4600 569.1600 694.4600 570.5600L694.4600 570.5600L694.4600 636.6400Q694.4600 638.0400 693.5500 639.0200Q692.6400 640 691.1000 640L691.1000 640ZM691.6600 555.1600L678.9200 555.1600Q677.5200 555.1600 676.5400 554.1800Q675.5600 553.2000 675.5600 551.8000L675.5600 551.8000L675.5600 541.7200Q675.5600 540.3200 676.5400 539.3400Q677.5200 538.3600 678.9200 538.3600L678.9200 538.3600L691.6600 538.3600Q693.2000 538.3600 694.1800 539.3400Q695.1600 540.3200 695.1600 541.7200L695.1600 541.7200L695.1600 551.8000Q695.1600 553.2000 694.1800 554.1800Q693.2000 555.1600 691.6600 555.1600L691.6600 555.1600ZM728.7600 640L716.4400 640Q715.0400 640 714.0600 639.0200Q713.0800 638.0400 713.0800 636.6400L713.0800 636.6400L713.0800 570.5600Q713.0800 569.1600 714.0600 568.1800Q715.0400 567.2000 716.4400 567.2000L716.4400 567.2000L727.9200 567.2000Q729.3200 567.2000 730.3000 568.1800Q731.2800 569.1600 731.2800 570.5600L731.2800 570.5600L731.2800 576.3000Q734.9200 571.8200 740.5900 568.8100Q746.2600 565.8000 754.6600 565.8000L754.6600 565.8000Q763.2000 565.8000 769.5000 569.6500Q775.8000 573.5000 779.2300 580.5000Q782.6600 587.5000 782.6600 597.3000L782.6600 597.3000L782.6600 636.6400Q782.6600 638.0400 781.6800 639.0200Q780.7000 640 779.3000 640L779.3000 640L766.9800 640Q765.5800 640 764.6000 639.0200Q763.6200 638.0400 763.6200 636.6400L763.6200 636.6400L763.6200 598.1400Q763.6200 590.0200 759.6300 585.4000Q755.6400 580.7800 748.0800 580.7800L748.0800 580.7800Q740.8000 580.7800 736.4600 585.4000Q732.1200 590.0200 732.1200 598.1400L732.1200 598.1400L732.1200 636.6400Q732.1200 638.0400 731.1400 639.0200Q730.1600 640 728.7600 640L728.7600 640ZM828.0200 641.4000L828.0200 641.4000Q819.6200 641.4000 813.6700 639.4400Q807.7200 637.4800 803.9400 634.5400Q800.1600 631.6000 798.3400 628.6600Q796.5200 625.7200 796.3800 623.7600L796.3800 623.7600Q796.2400 622.2200 797.2900 621.3100Q798.3400 620.4000 799.6000 620.4000L799.6000 620.4000L810.6600 620.4000Q811.2200 620.4000 811.6400 620.5400Q812.0600 620.6800 812.7600 621.3800L812.7600 621.3800Q814.5800 622.9200 816.6100 624.6000Q818.6400 626.2800 821.4400 627.4700Q824.2400 628.6600 828.4400 628.6600L828.4400 628.6600Q833.9000 628.6600 837.6100 626.4900Q841.3200 624.3200 841.3200 620.2600L841.3200 620.2600Q841.3200 617.3200 839.7100 615.5000Q838.1000 613.6800 833.7600 612.2100Q829.4200 610.7400 821.4400 609.0600L821.4400 609.0600Q813.6000 607.2400 808.4200 604.4400Q803.2400 601.6400 800.7200 597.4400Q798.2000 593.2400 798.2000 587.6400L798.2000 587.6400Q798.2000 582.1800 801.4900 577.2100Q804.7800 572.2400 811.2900 569.0200Q817.8000 565.8000 827.4600 565.8000L827.4600 565.8000Q835.0200 565.8000 840.6200 567.6900Q846.2200 569.5800 849.9300 572.3800Q853.6400 575.1800 855.6000 578.0500Q857.5600 580.9200 857.7000 583.0200L857.7000 583.0200Q857.8400 584.5600 856.8600 585.4700Q855.8800 586.3800 854.6200 586.3800L854.6200 586.3800L844.2600 586.3800Q843.5600 586.3800 843.0000 586.1000Q842.4400 585.8200 841.8800 585.4000L841.8800 585.4000Q840.3400 584 838.5200 582.3900Q836.7000 580.7800 834.1100 579.6600Q831.5200 578.5400 827.3200 578.5400L827.3200 578.5400Q822.0000 578.5400 819.2000 580.8500Q816.4000 583.1600 816.4000 586.6600L816.4000 586.6600Q816.4000 589.0400 817.7300 590.7900Q819.0600 592.5400 823.1200 594.0800Q827.1800 595.6200 835.4400 597.3000L835.4400 597.3000Q844.8200 598.9800 850.3500 602.2700Q855.8800 605.5600 858.1900 609.8300Q860.5000 614.1000 860.5000 619.2800L860.5000 619.2800Q860.5000 625.5800 856.7900 630.6200Q853.0800 635.6600 845.8700 638.5300Q838.6600 641.4000 828.0200 641.4000ZM919.1600 640L907.8200 640Q899.4200 640 893.6800 637.0600Q887.9400 634.1200 885.1400 628.3100Q882.3400 622.5000 882.3400 613.8200L882.3400 613.8200L882.3400 582.0400L871.2800 582.0400Q869.8800 582.0400 868.9000 581.0600Q867.9200 580.0800 867.9200 578.5400L867.9200 578.5400L867.9200 570.5600Q867.9200 569.1600 868.9000 568.1800Q869.8800 567.2000 871.2800 567.2000L871.2800 567.2000L882.3400 567.2000L882.3400 543.9600Q882.3400 542.5600 883.2500 541.5800Q884.1600 540.6000 885.7000 540.6000L885.7000 540.6000L897.0400 540.6000Q898.4400 540.6000 899.4200 541.5800Q900.4000 542.5600 900.4000 543.9600L900.4000 543.9600L900.4000 567.2000L917.9000 567.2000Q919.3000 567.2000 920.2800 568.1800Q921.2600 569.1600 921.2600 570.5600L921.2600 570.5600L921.2600 578.5400Q921.2600 580.0800 920.2800 581.0600Q919.3000 582.0400 917.9000 582.0400L917.9000 582.0400L900.4000 582.0400L900.4000 612.4200Q900.4000 618.1600 902.4300 621.3800Q904.4600 624.6000 909.5000 624.6000L909.5000 624.6000L919.1600 624.6000Q920.5600 624.6000 921.5400 625.5800Q922.5200 626.5600 922.5200 627.9600L922.5200 627.9600L922.5200 636.6400Q922.5200 638.0400 921.5400 639.0200Q920.5600 640 919.1600 640L919.1600 640ZM956.1200 641.4000L956.1200 641.4000Q948.8400 641.4000 942.9600 638.5300Q937.0800 635.6600 933.6500 630.8300Q930.2200 626 930.2200 619.9800L930.2200 619.9800Q930.2200 610.1800 938.2000 604.3700Q946.1800 598.5600 959.0600 596.6000L959.0600 596.6000L978.2400 593.8000L978.2400 590.8600Q978.2400 584.9800 975.3000 581.7600Q972.3600 578.5400 965.2200 578.5400L965.2200 578.5400Q960.1800 578.5400 957.0300 580.5700Q953.8800 582.6000 952.3400 585.9600L952.3400 585.9600Q951.2200 587.7800 949.1200 587.7800L949.1200 587.7800L938.0600 587.7800Q936.5200 587.7800 935.7500 586.9400Q934.9800 586.1000 934.9800 584.7000L934.9800 584.7000Q935.1200 582.4600 936.8700 579.2400Q938.6200 576.0200 942.1900 573.0100Q945.7600 570 951.5000 567.9000Q957.2400 565.8000 965.3600 565.8000L965.3600 565.8000Q974.1800 565.8000 980.2700 567.9700Q986.3600 570.1400 990.0000 573.7800Q993.6400 577.4200 995.3200 582.3200Q997.0000 587.2200 997.0000 592.6800L997.0000 592.6800L997.0000 636.6400Q997.0000 638.0400 996.0200 639.0200Q995.0400 640 993.6400 640L993.6400 640L982.3000 640Q980.7600 640 979.8500 639.0200Q978.9400 638.0400 978.9400 636.6400L978.9400 636.6400L978.9400 631.1800Q977.1200 633.7000 974.0400 636.0800Q970.9600 638.4600 966.5500 639.9300Q962.1400 641.4000 956.1200 641.4000ZM960.8800 628.1000L960.8800 628.1000Q965.7800 628.1000 969.7700 626Q973.7600 623.9000 976.0700 619.4900Q978.3800 615.0800 978.3800 608.3600L978.3800 608.3600L978.3800 605.4200L964.3800 607.6600Q956.1200 608.9200 952.0600 611.7200Q948.0000 614.5200 948.0000 618.5800L948.0000 618.5800Q948.0000 621.6600 949.8900 623.8300Q951.7800 626 954.7200 627.0500Q957.6600 628.1000 960.8800 628.1000ZM1030.0400 640L1018.4200 640Q1017.0200 640 1016.0400 639.0200Q1015.0600 638.0400 1015.0600 636.6400L1015.0600 636.6400L1015.0600 543.9600Q1015.0600 542.5600 1016.0400 541.5800Q1017.0200 540.6000 1018.4200 540.6000L1018.4200 540.6000L1030.0400 540.6000Q1031.4400 540.6000 1032.4200 541.5800Q1033.4000 542.5600 1033.4000 543.9600L1033.4000 543.9600L1033.4000 636.6400Q1033.4000 638.0400 1032.4200 639.0200Q1031.4400 640 1030.0400 640L1030.0400 640ZM1073.1600 641.4000L1073.1600 641.4000Q1065.8800 641.4000 1060.0000 638.5300Q1054.1200 635.6600 1050.6900 630.8300Q1047.2600 626 1047.2600 619.9800L1047.2600 619.9800Q1047.2600 610.1800 1055.2400 604.3700Q1063.2200 598.5600 1076.1000 596.6000L1076.1000 596.6000L1095.2800 593.8000L1095.2800 590.8600Q1095.2800 584.9800 1092.3400 581.7600Q1089.4000 578.5400 1082.2600 578.5400L1082.2600 578.5400Q1077.2200 578.5400 1074.0700 580.5700Q1070.9200 582.6000 1069.3800 585.9600L1069.3800 585.9600Q1068.2600 587.7800 1066.1600 587.7800L1066.1600 587.7800L1055.1000 587.7800Q1053.5600 587.7800 1052.7900 586.9400Q1052.0200 586.1000 1052.0200 584.7000L1052.0200 584.7000Q1052.1600 582.4600 1053.9100 579.2400Q1055.6600 576.0200 1059.2300 573.0100Q1062.8000 570 1068.5400 567.9000Q1074.2800 565.8000 1082.4000 565.8000L1082.4000 565.8000Q1091.2200 565.8000 1097.3100 567.9700Q1103.4000 570.1400 1107.0400 573.7800Q1110.6800 577.4200 1112.3600 582.3200Q1114.0400 587.2200 1114.0400 592.6800L1114.0400 592.6800L1114.0400 636.6400Q1114.0400 638.0400 1113.0600 639.0200Q1112.0800 640 1110.6800 640L1110.6800 640L1099.3400 640Q1097.8000 640 1096.8900 639.0200Q1095.9800 638.0400 1095.9800 636.6400L1095.9800 636.6400L1095.9800 631.1800Q1094.1600 633.7000 1091.0800 636.0800Q1088.0000 638.4600 1083.5900 639.9300Q1079.1800 641.4000 1073.1600 641.4000ZM1077.9200 628.1000L1077.9200 628.1000Q1082.8200 628.1000 1086.8100 626Q1090.8000 623.9000 1093.1100 619.4900Q1095.4200 615.0800 1095.4200 608.3600L1095.4200 608.3600L1095.4200 605.4200L1081.4200 607.6600Q1073.1600 608.9200 1069.1000 611.7200Q1065.0400 614.5200 1065.0400 618.5800L1065.0400 618.5800Q1065.0400 621.6600 1066.9300 623.8300Q1068.8200 626 1071.7600 627.0500Q1074.7000 628.1000 1077.9200 628.1000ZM1147.5000 640L1135.3200 640Q1133.9200 640 1132.9400 639.0200Q1131.9600 638.0400 1131.9600 636.6400L1131.9600 636.6400L1131.9600 570.7000Q1131.9600 569.1600 1132.9400 568.1800Q1133.9200 567.2000 1135.3200 567.2000L1135.3200 567.2000L1146.6600 567.2000Q1148.0600 567.2000 1149.1100 568.1800Q1150.1600 569.1600 1150.1600 570.7000L1150.1600 570.7000L1150.1600 576.4400Q1153.3800 571.9600 1158.4900 569.5800Q1163.6000 567.2000 1170.3200 567.2000L1170.3200 567.2000L1176.0600 567.2000Q1177.6000 567.2000 1178.5100 568.1800Q1179.4200 569.1600 1179.4200 570.5600L1179.4200 570.5600L1179.4200 580.6400Q1179.4200 582.0400 1178.5100 583.0200Q1177.6000 584 1176.0600 584L1176.0600 584L1165.1400 584Q1158.4200 584 1154.7100 587.7100Q1151.0000 591.4200 1151.0000 598.1400L1151.0000 598.1400L1151.0000 636.6400Q1151.0000 638.0400 1150.0200 639.0200Q1149.0400 640 1147.5000 640L1147.5000 640ZM1243.5400 641.4000L1243.5400 641.4000Q1236.2600 641.4000 1230.3800 638.5300Q1224.5000 635.6600 1221.0700 630.8300Q1217.6400 626 1217.6400 619.9800L1217.6400 619.9800Q1217.6400 610.1800 1225.6200 604.3700Q1233.6000 598.5600 1246.4800 596.6000L1246.4800 596.6000L1265.6600 593.8000L1265.6600 590.8600Q1265.6600 584.9800 1262.7200 581.7600Q1259.7800 578.5400 1252.6400 578.5400L1252.6400 578.5400Q1247.6000 578.5400 1244.4500 580.5700Q1241.3000 582.6000 1239.7600 585.9600L1239.7600 585.9600Q1238.6400 587.7800 1236.5400 587.7800L1236.5400 587.7800L1225.4800 587.7800Q1223.9400 587.7800 1223.1700 586.9400Q1222.4000 586.1000 1222.4000 584.7000L1222.4000 584.7000Q1222.5400 582.4600 1224.2900 579.2400Q1226.0400 576.0200 1229.6100 573.0100Q1233.1800 570 1238.9200 567.9000Q1244.6600 565.8000 1252.7800 565.8000L1252.7800 565.8000Q1261.6000 565.8000 1267.6900 567.9700Q1273.7800 570.1400 1277.4200 573.7800Q1281.0600 577.4200 1282.7400 582.3200Q1284.4200 587.2200 1284.4200 592.6800L1284.4200 592.6800L1284.4200 636.6400Q1284.4200 638.0400 1283.4400 639.0200Q1282.4600 640 1281.0600 640L1281.0600 640L1269.7200 640Q1268.1800 640 1267.2700 639.0200Q1266.3600 638.0400 1266.3600 636.6400L1266.3600 636.6400L1266.3600 631.1800Q1264.5400 633.7000 1261.4600 636.0800Q1258.3800 638.4600 1253.9700 639.9300Q1249.5600 641.4000 1243.5400 641.4000ZM1248.3000 628.1000L1248.3000 628.1000Q1253.2000 628.1000 1257.1900 626Q1261.1800 623.9000 1263.4900 619.4900Q1265.8000 615.0800 1265.8000 608.3600L1265.8000 608.3600L1265.8000 605.4200L1251.8000 607.6600Q1243.5400 608.9200 1239.4800 611.7200Q1235.4200 614.5200 1235.4200 618.5800L1235.4200 618.5800Q1235.4200 621.6600 1237.3100 623.8300Q1239.2000 626 1242.1400 627.0500Q1245.0800 628.1000 1248.3000 628.1000ZM174.2200 780L162.6000 780Q161.2000 780 160.2200 779.0200Q159.2400 778.0400 159.2400 776.6400L159.2400 776.6400L159.2400 710.5600Q159.2400 709.1600 160.2200 708.1800Q161.2000 707.2000 162.6000 707.2000L162.6000 707.2000L174.2200 707.2000Q175.7600 707.2000 176.6700 708.1800Q177.5800 709.1600 177.5800 710.5600L177.5800 710.5600L177.5800 776.6400Q177.5800 778.0400 176.6700 779.0200Q175.7600 780 174.2200 780L174.2200 780ZM174.7800 695.1600L162.0400 695.1600Q160.6400 695.1600 159.6600 694.1800Q158.6800 693.2000 158.6800 691.8000L158.6800 691.8000L158.6800 681.7200Q158.6800 680.3200 159.6600 679.3400Q160.6400 678.3600 162.0400 678.3600L162.0400 678.3600L174.7800 678.3600Q176.3200 678.3600 177.3000 679.3400Q178.2800 680.3200 178.2800 681.7200L178.2800 681.7200L178.2800 691.8000Q178.2800 693.2000 177.3000 694.1800Q176.3200 695.1600 174.7800 695.1600L174.7800 695.1600ZM211.8800 780L199.5600 780Q198.1600 780 197.1800 779.0200Q196.2000 778.0400 196.2000 776.6400L196.2000 776.6400L196.2000 710.5600Q196.2000 709.1600 197.1800 708.1800Q198.1600 707.2000 199.5600 707.2000L199.5600 707.2000L211.0400 707.2000Q212.4400 707.2000 213.4200 708.1800Q214.4000 709.1600 214.4000 710.5600L214.4000 710.5600L214.4000 716.3000Q218.0400 711.8200 223.7100 708.8100Q229.3800 705.8000 237.7800 705.8000L237.7800 705.8000Q246.3200 705.8000 252.6200 709.6500Q258.9200 713.5000 262.3500 720.5000Q265.7800 727.5000 265.7800 737.3000L265.7800 737.3000L265.7800 776.6400Q265.7800 778.0400 264.8000 779.0200Q263.8200 780 262.4200 780L262.4200 780L250.1000 780Q248.7000 780 247.7200 779.0200Q246.7400 778.0400 246.7400 776.6400L246.7400 776.6400L246.7400 738.1400Q246.7400 730.0200 242.7500 725.4000Q238.7600 720.7800 231.2000 720.7800L231.2000 720.7800Q223.9200 720.7800 219.5800 725.4000Q215.2400 730.0200 215.2400 738.1400L215.2400 738.1400L215.2400 776.6400Q215.2400 778.0400 214.2600 779.0200Q213.2800 780 211.8800 780L211.8800 780ZM327.8000 780L316.4600 780Q308.0600 780 302.3200 777.0600Q296.5800 774.1200 293.7800 768.3100Q290.9800 762.5000 290.9800 753.8200L290.9800 753.8200L290.9800 722.0400L279.9200 722.0400Q278.5200 722.0400 277.5400 721.0600Q276.5600 720.0800 276.5600 718.5400L276.5600 718.5400L276.5600 710.5600Q276.5600 709.1600 277.5400 708.1800Q278.5200 707.2000 279.9200 707.2000L279.9200 707.2000L290.9800 707.2000L290.9800 683.9600Q290.9800 682.5600 291.8900 681.5800Q292.8000 680.6000 294.3400 680.6000L294.3400 680.6000L305.6800 680.6000Q307.0800 680.6000 308.0600 681.5800Q309.0400 682.5600 309.0400 683.9600L309.0400 683.9600L309.0400 707.2000L326.5400 707.2000Q327.9400 707.2000 328.9200 708.1800Q329.9000 709.1600 329.9000 710.5600L329.9000 710.5600L329.9000 718.5400Q329.9000 720.0800 328.9200 721.0600Q327.9400 722.0400 326.5400 722.0400L326.5400 722.0400L309.0400 722.0400L309.0400 752.4200Q309.0400 758.1600 311.0700 761.3800Q313.1000 764.6000 318.1400 764.6000L318.1400 764.6000L327.8000 764.6000Q329.2000 764.6000 330.1800 765.5800Q331.1600 766.5600 331.1600 767.9600L331.1600 767.9600L331.1600 776.6400Q331.1600 778.0400 330.1800 779.0200Q329.2000 780 327.8000 780L327.8000 780ZM374.9800 781.4000L374.9800 781.4000Q359.4400 781.4000 350.3400 772.4400Q341.2400 763.4800 340.5400 746.9600L340.5400 746.9600Q340.4000 745.5600 340.4000 743.3900Q340.4000 741.2200 340.5400 739.9600L340.5400 739.9600Q341.1000 729.3200 345.3700 721.6900Q349.6400 714.0600 357.2000 709.9300Q364.7600 705.8000 374.9800 705.8000L374.9800 705.8000Q386.3200 705.8000 394.0200 710.4900Q401.7200 715.1800 405.6400 723.5100Q409.5600 731.8400 409.5600 742.7600L409.5600 742.7600L409.5600 745.7000Q409.5600 747.1000 408.5800 748.0800Q407.6000 749.0600 406.0600 749.0600L406.0600 749.0600L359.5800 749.0600Q359.5800 749.0600 359.5800 749.4800Q359.5800 749.9000 359.5800 750.1800L359.5800 750.1800Q359.7200 755.0800 361.4700 759.2100Q363.2200 763.3400 366.6500 765.8600Q370.0800 768.3800 374.8400 768.3800L374.8400 768.3800Q378.7600 768.3800 381.4200 767.1900Q384.0800 766 385.7600 764.4600Q387.4400 762.9200 388.1400 761.9400L388.1400 761.9400Q389.4000 760.2600 390.1700 759.9100Q390.9400 759.5600 392.4800 759.5600L392.4800 759.5600L404.5200 759.5600Q405.9200 759.5600 406.8300 760.4000Q407.7400 761.2400 407.6000 762.5000L407.6000 762.5000Q407.4600 764.7400 405.2900 767.9600Q403.1200 771.1800 399.0600 774.2600Q395.0000 777.3400 388.9100 779.3700Q382.8200 781.4000 374.9800 781.4000ZM359.5800 736.8800L359.5800 737.3000L390.5200 737.3000L390.5200 736.8800Q390.5200 731.4200 388.7000 727.2900Q386.8800 723.1600 383.3800 720.8500Q379.8800 718.5400 374.9800 718.5400L374.9800 718.5400Q370.0800 718.5400 366.5800 720.8500Q363.0800 723.1600 361.3300 727.2900Q359.5800 731.4200 359.5800 736.8800L359.5800 736.8800ZM439.9400 780L427.7600 780Q426.3600 780 425.3800 779.0200Q424.4000 778.0400 424.4000 776.6400L424.4000 776.6400L424.4000 710.7000Q424.4000 709.1600 425.3800 708.1800Q426.3600 707.2000 427.7600 707.2000L427.7600 707.2000L439.1000 707.2000Q440.5000 707.2000 441.5500 708.1800Q442.6000 709.1600 442.6000 710.7000L442.6000 710.7000L442.6000 716.4400Q445.8200 711.9600 450.9300 709.5800Q456.0400 707.2000 462.7600 707.2000L462.7600 707.2000L468.5000 707.2000Q470.0400 707.2000 470.9500 708.1800Q471.8600 709.1600 471.8600 710.5600L471.8600 710.5600L471.8600 720.6400Q471.8600 722.0400 470.9500 723.0200Q470.0400 724 468.5000 724L468.5000 724L457.5800 724Q450.8600 724 447.1500 727.7100Q443.4400 731.4200 443.4400 738.1400L443.4400 738.1400L443.4400 776.6400Q443.4400 778.0400 442.4600 779.0200Q441.4800 780 439.9400 780L439.9400 780ZM505.4600 780L493.9800 780Q492.5800 780 491.6000 779.0200Q490.6200 778.0400 490.6200 776.6400L490.6200 776.6400L490.6200 722.0400L479.2800 722.0400Q477.8800 722.0400 476.9000 721.0600Q475.9200 720.0800 475.9200 718.5400L475.9200 718.5400L475.9200 710.5600Q475.9200 709.1600 476.9000 708.1800Q477.8800 707.2000 479.2800 707.2000L479.2800 707.2000L490.6200 707.2000L490.6200 701.4600Q490.6200 693.0600 493.7000 687.5300Q496.7800 682 502.8000 679.2000Q508.8200 676.4000 518.0600 676.4000L518.0600 676.4000L527.5800 676.4000Q529.1200 676.4000 530.0300 677.3800Q530.9400 678.3600 530.9400 679.7600L530.9400 679.7600L530.9400 687.7400Q530.9400 689.2800 530.0300 690.2600Q529.1200 691.2400 527.5800 691.2400L527.5800 691.2400L518.6200 691.2400Q513.0200 691.2400 510.9200 694.0400Q508.8200 696.8400 508.8200 702.1600L508.8200 702.1600L508.8200 707.2000L526.1800 707.2000Q527.7200 707.2000 528.6300 708.1800Q529.5400 709.1600 529.5400 710.5600L529.5400 710.5600L529.5400 718.5400Q529.5400 720.0800 528.6300 721.0600Q527.7200 722.0400 526.1800 722.0400L526.1800 722.0400L508.8200 722.0400L508.8200 776.6400Q508.8200 778.0400 507.8400 779.0200Q506.8600 780 505.4600 780L505.4600 780ZM561.8800 781.4000L561.8800 781.4000Q554.6000 781.4000 548.7200 778.5300Q542.8400 775.6600 539.4100 770.8300Q535.9800 766 535.9800 759.9800L535.9800 759.9800Q535.9800 750.1800 543.9600 744.3700Q551.9400 738.5600 564.8200 736.6000L564.8200 736.6000L584.0000 733.8000L584.0000 730.8600Q584.0000 724.9800 581.0600 721.7600Q578.1200 718.5400 570.9800 718.5400L570.9800 718.5400Q565.9400 718.5400 562.7900 720.5700Q559.6400 722.6000 558.1000 725.9600L558.1000 725.9600Q556.9800 727.7800 554.8800 727.7800L554.8800 727.7800L543.8200 727.7800Q542.2800 727.7800 541.5100 726.9400Q540.7400 726.1000 540.7400 724.7000L540.7400 724.7000Q540.8800 722.4600 542.6300 719.2400Q544.3800 716.0200 547.9500 713.0100Q551.5200 710 557.2600 707.9000Q563.0000 705.8000 571.1200 705.8000L571.1200 705.8000Q579.9400 705.8000 586.0300 707.9700Q592.1200 710.1400 595.7600 713.7800Q599.4000 717.4200 601.0800 722.3200Q602.7600 727.2200 602.7600 732.6800L602.7600 732.6800L602.7600 776.6400Q602.7600 778.0400 601.7800 779.0200Q600.8000 780 599.4000 780L599.4000 780L588.0600 780Q586.5200 780 585.6100 779.0200Q584.7000 778.0400 584.7000 776.6400L584.7000 776.6400L584.7000 771.1800Q582.8800 773.7000 579.8000 776.0800Q576.7200 778.4600 572.3100 779.9300Q567.9000 781.4000 561.8800 781.4000ZM566.6400 768.1000L566.6400 768.1000Q571.5400 768.1000 575.5300 766Q579.5200 763.9000 581.8300 759.4900Q584.1400 755.0800 584.1400 748.3600L584.1400 748.3600L584.1400 745.4200L570.1400 747.6600Q561.8800 748.9200 557.8200 751.7200Q553.7600 754.5200 553.7600 758.5800L553.7600 758.5800Q553.7600 761.6600 555.6500 763.8300Q557.5400 766 560.4800 767.0500Q563.4200 768.1000 566.6400 768.1000ZM652.1800 781.4000L652.1800 781.4000Q642.1000 781.4000 634.4700 777.6200Q626.8400 773.8400 622.5700 766.6300Q618.3000 759.4200 617.8800 749.2000L617.8800 749.2000Q617.7400 747.1000 617.7400 743.6700Q617.7400 740.2400 617.8800 738L617.8800 738Q618.3000 727.7800 622.5700 720.5700Q626.8400 713.3600 634.4700 709.5800Q642.1000 705.8000 652.1800 705.8000L652.1800 705.8000Q661.1400 705.8000 667.4400 708.2500Q673.7400 710.7000 677.8000 714.5500Q681.8600 718.4000 683.8900 722.5300Q685.9200 726.6600 686.0600 730.0200L686.0600 730.0200Q686.2000 731.5600 685.1500 732.4700Q684.1000 733.3800 682.7000 733.3800L682.7000 733.3800L670.3800 733.3800Q668.9800 733.3800 668.2100 732.6800Q667.4400 731.9800 666.7400 730.5800L666.7400 730.5800Q664.6400 724.9800 661.2100 722.6700Q657.7800 720.3600 652.4600 720.3600L652.4600 720.3600Q645.4600 720.3600 641.3300 724.7700Q637.2000 729.1800 636.9200 738.7000L636.9200 738.7000Q636.6400 744.0200 636.9200 748.5000L636.9200 748.5000Q637.2000 758.1600 641.3300 762.5000Q645.4600 766.8400 652.4600 766.8400L652.4600 766.8400Q657.9200 766.8400 661.2800 764.5300Q664.6400 762.2200 666.7400 756.6200L666.7400 756.6200Q667.4400 755.2200 668.2100 754.5200Q668.9800 753.8200 670.3800 753.8200L670.3800 753.8200L682.7000 753.8200Q684.1000 753.8200 685.1500 754.7300Q686.2000 755.6400 686.0600 757.1800L686.0600 757.1800Q685.9200 759.7000 684.7300 762.8500Q683.5400 766 680.9500 769.2900Q678.3600 772.5800 674.4400 775.3100Q670.5200 778.0400 664.9900 779.7200Q659.4600 781.4000 652.1800 781.4000ZM731.9800 781.4000L731.9800 781.4000Q716.4400 781.4000 707.3400 772.4400Q698.2400 763.4800 697.5400 746.9600L697.5400 746.9600Q697.4000 745.5600 697.4000 743.3900Q697.4000 741.2200 697.5400 739.9600L697.5400 739.9600Q698.1000 729.3200 702.3700 721.6900Q706.6400 714.0600 714.2000 709.9300Q721.7600 705.8000 731.9800 705.8000L731.9800 705.8000Q743.3200 705.8000 751.0200 710.4900Q758.7200 715.1800 762.6400 723.5100Q766.5600 731.8400 766.5600 742.7600L766.5600 742.7600L766.5600 745.7000Q766.5600 747.1000 765.5800 748.0800Q764.6000 749.0600 763.0600 749.0600L763.0600 749.0600L716.5800 749.0600Q716.5800 749.0600 716.5800 749.4800Q716.5800 749.9000 716.5800 750.1800L716.5800 750.1800Q716.7200 755.0800 718.4700 759.2100Q720.2200 763.3400 723.6500 765.8600Q727.0800 768.3800 731.8400 768.3800L731.8400 768.3800Q735.7600 768.3800 738.4200 767.1900Q741.0800 766 742.7600 764.4600Q744.4400 762.9200 745.1400 761.9400L745.1400 761.9400Q746.4000 760.2600 747.1700 759.9100Q747.9400 759.5600 749.4800 759.5600L749.4800 759.5600L761.5200 759.5600Q762.9200 759.5600 763.8300 760.4000Q764.7400 761.2400 764.6000 762.5000L764.6000 762.5000Q764.4600 764.7400 762.2900 767.9600Q760.1200 771.1800 756.0600 774.2600Q752.0000 777.3400 745.9100 779.3700Q739.8200 781.4000 731.9800 781.4000ZM716.5800 736.8800L716.5800 737.3000L747.5200 737.3000L747.5200 736.8800Q747.5200 731.4200 745.7000 727.2900Q743.8800 723.1600 740.3800 720.8500Q736.8800 718.5400 731.9800 718.5400L731.9800 718.5400Q727.0800 718.5400 723.5800 720.8500Q720.0800 723.1600 718.3300 727.2900Q716.5800 731.4200 716.5800 736.8800L716.5800 736.8800ZM849.5800 780L839.2200 780Q836.9800 780 835.9300 778.9500Q834.8800 777.9000 834.1800 776.5000L834.1800 776.5000L808.0000 711.5400Q807.7200 710.8400 807.7200 710.2800L807.7200 710.2800Q807.7200 709.0200 808.6300 708.1100Q809.5400 707.2000 810.8000 707.2000L810.8000 707.2000L822.1400 707.2000Q823.8200 707.2000 824.6600 708.1100Q825.5000 709.0200 825.7800 709.8600L825.7800 709.8600L844.4000 759L863.0200 709.8600Q863.3000 709.0200 864.1400 708.1100Q864.9800 707.2000 866.6600 707.2000L866.6600 707.2000L878.1400 707.2000Q879.2600 707.2000 880.1700 708.1100Q881.0800 709.0200 881.0800 710.2800L881.0800 710.2800Q881.0800 710.8400 880.9400 711.5400L880.9400 711.5400L854.6200 776.5000Q854.0600 777.9000 852.9400 778.9500Q851.8200 780 849.5800 780L849.5800 780ZM908.8000 780L897.1800 780Q895.7800 780 894.8000 779.0200Q893.8200 778.0400 893.8200 776.6400L893.8200 776.6400L893.8200 710.5600Q893.8200 709.1600 894.8000 708.1800Q895.7800 707.2000 897.1800 707.2000L897.1800 707.2000L908.8000 707.2000Q910.3400 707.2000 911.2500 708.1800Q912.1600 709.1600 912.1600 710.5600L912.1600 710.5600L912.1600 776.6400Q912.1600 778.0400 911.2500 779.0200Q910.3400 780 908.8000 780L908.8000 780ZM909.3600 695.1600L896.6200 695.1600Q895.2200 695.1600 894.2400 694.1800Q893.2600 693.2000 893.2600 691.8000L893.2600 691.8000L893.2600 681.7200Q893.2600 680.3200 894.2400 679.3400Q895.2200 678.3600 896.6200 678.3600L896.6200 678.3600L909.3600 678.3600Q910.9000 678.3600 911.8800 679.3400Q912.8600 680.3200 912.8600 681.7200L912.8600 681.7200L912.8600 691.8000Q912.8600 693.2000 911.8800 694.1800Q910.9000 695.1600 909.3600 695.1600L909.3600 695.1600ZM958.3600 781.4000L958.3600 781.4000Q949.9600 781.4000 944.0100 779.4400Q938.0600 777.4800 934.2800 774.5400Q930.5000 771.6000 928.6800 768.6600Q926.8600 765.7200 926.7200 763.7600L926.7200 763.7600Q926.5800 762.2200 927.6300 761.3100Q928.6800 760.4000 929.9400 760.4000L929.9400 760.4000L941.0000 760.4000Q941.5600 760.4000 941.9800 760.5400Q942.4000 760.6800 943.1000 761.3800L943.1000 761.3800Q944.9200 762.9200 946.9500 764.6000Q948.9800 766.2800 951.7800 767.4700Q954.5800 768.6600 958.7800 768.6600L958.7800 768.6600Q964.2400 768.6600 967.9500 766.4900Q971.6600 764.3200 971.6600 760.2600L971.6600 760.2600Q971.6600 757.3200 970.0500 755.5000Q968.4400 753.6800 964.1000 752.2100Q959.7600 750.7400 951.7800 749.0600L951.7800 749.0600Q943.9400 747.2400 938.7600 744.4400Q933.5800 741.6400 931.0600 737.4400Q928.5400 733.2400 928.5400 727.6400L928.5400 727.6400Q928.5400 722.1800 931.8300 717.2100Q935.1200 712.2400 941.6300 709.0200Q948.1400 705.8000 957.8000 705.8000L957.8000 705.8000Q965.3600 705.8000 970.9600 707.6900Q976.5600 709.5800 980.2700 712.3800Q983.9800 715.1800 985.9400 718.0500Q987.9000 720.9200 988.0400 723.0200L988.0400 723.0200Q988.1800 724.5600 987.2000 725.4700Q986.2200 726.3800 984.9600 726.3800L984.9600 726.3800L974.6000 726.3800Q973.9000 726.3800 973.3400 726.1000Q972.7800 725.8200 972.2200 725.4000L972.2200 725.4000Q970.6800 724 968.8600 722.3900Q967.0400 720.7800 964.4500 719.6600Q961.8600 718.5400 957.6600 718.5400L957.6600 718.5400Q952.3400 718.5400 949.5400 720.8500Q946.7400 723.1600 946.7400 726.6600L946.7400 726.6600Q946.7400 729.0400 948.0700 730.7900Q949.4000 732.5400 953.4600 734.0800Q957.5200 735.6200 965.7800 737.3000L965.7800 737.3000Q975.1600 738.9800 980.6900 742.2700Q986.2200 745.5600 988.5300 749.8300Q990.8400 754.1000 990.8400 759.2800L990.8400 759.2800Q990.8400 765.5800 987.1300 770.6200Q983.4200 775.6600 976.2100 778.5300Q969.0000 781.4000 958.3600 781.4000ZM1032.2800 781.4000L1032.2800 781.4000Q1023.7400 781.4000 1017.5100 777.5500Q1011.2800 773.7000 1007.9200 766.6300Q1004.5600 759.5600 1004.5600 749.9000L1004.5600 749.9000L1004.5600 710.5600Q1004.5600 709.1600 1005.5400 708.1800Q1006.5200 707.2000 1007.9200 707.2000L1007.9200 707.2000L1020.2400 707.2000Q1021.7800 707.2000 1022.6900 708.1800Q1023.6000 709.1600 1023.6000 710.5600L1023.6000 710.5600L1023.6000 749.0600Q1023.6000 766.4200 1038.8600 766.4200L1038.8600 766.4200Q1046.1400 766.4200 1050.4100 761.8000Q1054.6800 757.1800 1054.6800 749.0600L1054.6800 749.0600L1054.6800 710.5600Q1054.6800 709.1600 1055.6600 708.1800Q1056.6400 707.2000 1058.0400 707.2000L1058.0400 707.2000L1070.3600 707.2000Q1071.7600 707.2000 1072.7400 708.1800Q1073.7200 709.1600 1073.7200 710.5600L1073.7200 710.5600L1073.7200 776.6400Q1073.7200 778.0400 1072.7400 779.0200Q1071.7600 780 1070.3600 780L1070.3600 780L1059.0200 780Q1057.4800 780 1056.5700 779.0200Q1055.6600 778.0400 1055.6600 776.6400L1055.6600 776.6400L1055.6600 770.9000Q1051.8800 775.8000 1046.2800 778.6000Q1040.6800 781.4000 1032.2800 781.4000ZM1113.3400 781.4000L1113.3400 781.4000Q1106.0600 781.4000 1100.1800 778.5300Q1094.3000 775.6600 1090.8700 770.8300Q1087.4400 766 1087.4400 759.9800L1087.4400 759.9800Q1087.4400 750.1800 1095.4200 744.3700Q1103.4000 738.5600 1116.2800 736.6000L1116.2800 736.6000L1135.4600 733.8000L1135.4600 730.8600Q1135.4600 724.9800 1132.5200 721.7600Q1129.5800 718.5400 1122.4400 718.5400L1122.4400 718.5400Q1117.4000 718.5400 1114.2500 720.5700Q1111.1000 722.6000 1109.5600 725.9600L1109.5600 725.9600Q1108.4400 727.7800 1106.3400 727.7800L1106.3400 727.7800L1095.2800 727.7800Q1093.7400 727.7800 1092.9700 726.9400Q1092.2000 726.1000 1092.2000 724.7000L1092.2000 724.7000Q1092.3400 722.4600 1094.0900 719.2400Q1095.8400 716.0200 1099.4100 713.0100Q1102.9800 710 1108.7200 707.9000Q1114.4600 705.8000 1122.5800 705.8000L1122.5800 705.8000Q1131.4000 705.8000 1137.4900 707.9700Q1143.5800 710.1400 1147.2200 713.7800Q1150.8600 717.4200 1152.5400 722.3200Q1154.2200 727.2200 1154.2200 732.6800L1154.2200 732.6800L1154.2200 776.6400Q1154.2200 778.0400 1153.2400 779.0200Q1152.2600 780 1150.8600 780L1150.8600 780L1139.5200 780Q1137.9800 780 1137.0700 779.0200Q1136.1600 778.0400 1136.1600 776.6400L1136.1600 776.6400L1136.1600 771.1800Q1134.3400 773.7000 1131.2600 776.0800Q1128.1800 778.4600 1123.7700 779.9300Q1119.3600 781.4000 1113.3400 781.4000ZM1118.1000 768.1000L1118.1000 768.1000Q1123.0000 768.1000 1126.9900 766Q1130.9800 763.9000 1133.2900 759.4900Q1135.6000 755.0800 1135.6000 748.3600L1135.6000 748.3600L1135.6000 745.4200L1121.6000 747.6600Q1113.3400 748.9200 1109.2800 751.7200Q1105.2200 754.5200 1105.2200 758.5800L1105.2200 758.5800Q1105.2200 761.6600 1107.1100 763.8300Q1109.0000 766 1111.9400 767.0500Q1114.8800 768.1000 1118.1000 768.1000ZM1187.2600 780L1175.6400 780Q1174.2400 780 1173.2600 779.0200Q1172.2800 778.0400 1172.2800 776.6400L1172.2800 776.6400L1172.2800 683.9600Q1172.2800 682.5600 1173.2600 681.5800Q1174.2400 680.6000 1175.6400 680.6000L1175.6400 680.6000L1187.2600 680.6000Q1188.6600 680.6000 1189.6400 681.5800Q1190.6200 682.5600 1190.6200 683.9600L1190.6200 683.9600L1190.6200 776.6400Q1190.6200 778.0400 1189.6400 779.0200Q1188.6600 780 1187.2600 780L1187.2600 780ZM177.5800 920L164.2800 920Q162.8800 920 161.9000 919.0200Q160.9200 918.0400 160.9200 916.6400L160.9200 916.6400L160.9200 825.5000Q160.9200 823.9600 161.9000 822.9800Q162.8800 822 164.2800 822L164.2800 822L201.8000 822Q212.7200 822 220.8400 825.4300Q228.9600 828.8600 233.4400 835.7900Q237.9200 842.7200 237.9200 853.0800L237.9200 853.0800Q237.9200 863.5800 233.4400 870.3700Q228.9600 877.1600 220.8400 880.5200Q212.7200 883.8800 201.8000 883.8800L201.8000 883.8800L180.9400 883.8800L180.9400 916.6400Q180.9400 918.0400 180.0300 919.0200Q179.1200 920 177.5800 920L177.5800 920ZM180.6600 837.5400L180.6600 868.3400L201.1000 868.3400Q209.2200 868.3400 213.5600 864.4900Q217.9000 860.6400 217.9000 853.0800L217.9000 853.0800Q217.9000 846.0800 213.8400 841.8100Q209.7800 837.5400 201.1000 837.5400L201.1000 837.5400L180.6600 837.5400ZM291.2600 921.4000L291.2600 921.4000Q278.3800 921.4000 269.3500 916.9200Q260.3200 912.4400 255.3500 903.9700Q250.3800 895.5000 249.9600 883.7400L249.9600 883.7400Q249.8200 877.7200 249.8200 870.7900Q249.8200 863.8600 249.9600 857.7000L249.9600 857.7000Q250.3800 846.0800 255.3500 837.8200Q260.3200 829.5600 269.4900 825.0800Q278.6600 820.6000 291.2600 820.6000L291.2600 820.6000Q301.4800 820.6000 309.1800 823.3300Q316.8800 826.0600 321.9900 830.3300Q327.1000 834.6000 329.6900 839.5000Q332.2800 844.4000 332.4200 848.6000L332.4200 848.6000Q332.5600 849.8600 331.7200 850.7000Q330.8800 851.5400 329.4800 851.5400L329.4800 851.5400L315.0600 851.5400Q313.6600 851.5400 312.9600 850.9800Q312.2600 850.4200 311.7000 849.3000L311.7000 849.3000Q310.5800 846.3600 308.2000 843.4900Q305.8200 840.6200 301.7600 838.6600Q297.7000 836.7000 291.2600 836.7000L291.2600 836.7000Q281.7400 836.7000 276.0700 841.7400Q270.4000 846.7800 269.9800 858.4000L269.9800 858.4000Q269.5600 870.5800 269.9800 883.0400L269.9800 883.0400Q270.4000 894.9400 276.2100 900.1200Q282.0200 905.3000 291.5400 905.3000L291.5400 905.3000Q297.8400 905.3000 302.8100 903.0600Q307.7800 900.8200 310.6500 896.0600Q313.5200 891.3000 313.5200 883.8800L313.5200 883.8800L313.5200 879.5400L296.4400 879.5400Q295.0400 879.5400 294.0600 878.5600Q293.0800 877.5800 293.0800 876.0400L293.0800 876.0400L293.0800 868.6200Q293.0800 867.0800 294.0600 866.1000Q295.0400 865.1200 296.4400 865.1200L296.4400 865.1200L329.9000 865.1200Q331.4400 865.1200 332.3500 866.1000Q333.2600 867.0800 333.2600 868.6200L333.2600 868.6200L333.2600 883.3200Q333.2600 895.0800 328.1500 903.6200Q323.0400 912.1600 313.5900 916.7800Q304.1400 921.4000 291.2600 921.4000ZM388.9800 921.4000L388.9800 921.4000Q375.9600 921.4000 366.9300 916.8500Q357.9000 912.3000 353.1400 903.8300Q348.3800 895.3600 347.8200 883.4600L347.8200 883.4600Q347.6800 877.7200 347.6800 871.1400Q347.6800 864.5600 347.8200 858.5400L347.8200 858.5400Q348.3800 846.7800 353.2100 838.2400Q358.0400 829.7000 367.0700 825.1500Q376.1000 820.6000 388.9800 820.6000L388.9800 820.6000Q398.5000 820.6000 406.0600 823.1200Q413.6200 825.6400 418.9400 830.0500Q424.2600 834.4600 427.2000 840.3400Q430.1400 846.2200 430.2800 853.0800L430.2800 853.0800Q430.4200 854.3400 429.5100 855.1800Q428.6000 856.0200 427.3400 856.0200L427.3400 856.0200L414.0400 856.0200Q412.5000 856.0200 411.5200 855.2500Q410.5400 854.4800 410.1200 852.6600L410.1200 852.6600Q407.8800 843.4200 402.4200 840.0600Q396.9600 836.7000 388.8400 836.7000L388.8400 836.7000Q379.4600 836.7000 373.8600 841.9500Q368.2600 847.2000 367.8400 859.2400L367.8400 859.2400Q367.4200 870.7200 367.8400 882.7600L367.8400 882.7600Q368.2600 894.8000 373.8600 900.0500Q379.4600 905.3000 388.8400 905.3000L388.8400 905.3000Q396.9600 905.3000 402.4900 901.8700Q408.0200 898.4400 410.1200 889.3400L410.1200 889.3400Q410.5400 887.3800 411.5200 886.6800Q412.5000 885.9800 414.0400 885.9800L414.0400 885.9800L427.3400 885.9800Q428.6000 885.9800 429.5100 886.8200Q430.4200 887.6600 430.2800 888.9200L430.2800 888.9200Q430.1400 895.7800 427.2000 901.6600Q424.2600 907.5400 418.9400 911.9500Q413.6200 916.3600 406.0600 918.8800Q398.5000 921.4000 388.9800 921.4000ZM460.3800 920L448.7600 920Q447.3600 920 446.3800 919.0200Q445.4000 918.0400 445.4000 916.6400L445.4000 916.6400L445.4000 823.9600Q445.4000 822.5600 446.3800 821.5800Q447.3600 820.6000 448.7600 820.6000L448.7600 820.6000L460.3800 820.6000Q461.7800 820.6000 462.7600 821.5800Q463.7400 822.5600 463.7400 823.9600L463.7400 823.9600L463.7400 916.6400Q463.7400 918.0400 462.7600 919.0200Q461.7800 920 460.3800 920L460.3800 920ZM497.3400 920L485.7200 920Q484.3200 920 483.3400 919.0200Q482.3600 918.0400 482.3600 916.6400L482.3600 916.6400L482.3600 850.5600Q482.3600 849.1600 483.3400 848.1800Q484.3200 847.2000 485.7200 847.2000L485.7200 847.2000L497.3400 847.2000Q498.8800 847.2000 499.7900 848.1800Q500.7000 849.1600 500.7000 850.5600L500.7000 850.5600L500.7000 916.6400Q500.7000 918.0400 499.7900 919.0200Q498.8800 920 497.3400 920L497.3400 920ZM497.9000 835.1600L485.1600 835.1600Q483.7600 835.1600 482.7800 834.1800Q481.8000 833.2000 481.8000 831.8000L481.8000 831.8000L481.8000 821.7200Q481.8000 820.3200 482.7800 819.3400Q483.7600 818.3600 485.1600 818.3600L485.1600 818.3600L497.9000 818.3600Q499.4400 818.3600 500.4200 819.3400Q501.4000 820.3200 501.4000 821.7200L501.4000 821.7200L501.4000 831.8000Q501.4000 833.2000 500.4200 834.1800Q499.4400 835.1600 497.9000 835.1600L497.9000 835.1600ZM550.6800 921.4000L550.6800 921.4000Q535.1400 921.4000 526.0400 912.4400Q516.9400 903.4800 516.2400 886.9600L516.2400 886.9600Q516.1000 885.5600 516.1000 883.3900Q516.1000 881.2200 516.2400 879.9600L516.2400 879.9600Q516.8000 869.3200 521.0700 861.6900Q525.3400 854.0600 532.9000 849.9300Q540.4600 845.8000 550.6800 845.8000L550.6800 845.8000Q562.0200 845.8000 569.7200 850.4900Q577.4200 855.1800 581.3400 863.5100Q585.2600 871.8400 585.2600 882.7600L585.2600 882.7600L585.2600 885.7000Q585.2600 887.1000 584.2800 888.0800Q583.3000 889.0600 581.7600 889.0600L581.7600 889.0600L535.2800 889.0600Q535.2800 889.0600 535.2800 889.4800Q535.2800 889.9000 535.2800 890.1800L535.2800 890.1800Q535.4200 895.0800 537.1700 899.2100Q538.9200 903.3400 542.3500 905.8600Q545.7800 908.3800 550.5400 908.3800L550.5400 908.3800Q554.4600 908.3800 557.1200 907.1900Q559.7800 906 561.4600 904.4600Q563.1400 902.9200 563.8400 901.9400L563.8400 901.9400Q565.1000 900.2600 565.8700 899.9100Q566.6400 899.5600 568.1800 899.5600L568.1800 899.5600L580.2200 899.5600Q581.6200 899.5600 582.5300 900.4000Q583.4400 901.2400 583.3000 902.5000L583.3000 902.5000Q583.1600 904.7400 580.9900 907.9600Q578.8200 911.1800 574.7600 914.2600Q570.7000 917.3400 564.6100 919.3700Q558.5200 921.4000 550.6800 921.4000ZM535.2800 876.8800L535.2800 877.3000L566.2200 877.3000L566.2200 876.8800Q566.2200 871.4200 564.4000 867.2900Q562.5800 863.1600 559.0800 860.8500Q555.5800 858.5400 550.6800 858.5400L550.6800 858.5400Q545.7800 858.5400 542.2800 860.8500Q538.7800 863.1600 537.0300 867.2900Q535.2800 871.4200 535.2800 876.8800L535.2800 876.8800ZM615.7800 920L603.4600 920Q602.0600 920 601.0800 919.0200Q600.1000 918.0400 600.1000 916.6400L600.1000 916.6400L600.1000 850.5600Q600.1000 849.1600 601.0800 848.1800Q602.0600 847.2000 603.4600 847.2000L603.4600 847.2000L614.9400 847.2000Q616.3400 847.2000 617.3200 848.1800Q618.3000 849.1600 618.3000 850.5600L618.3000 850.5600L618.3000 856.3000Q621.9400 851.8200 627.6100 848.8100Q633.2800 845.8000 641.6800 845.8000L641.6800 845.8000Q650.2200 845.8000 656.5200 849.6500Q662.8200 853.5000 666.2500 860.5000Q669.6800 867.5000 669.6800 877.3000L669.6800 877.3000L669.6800 916.6400Q669.6800 918.0400 668.7000 919.0200Q667.7200 920 666.3200 920L666.3200 920L654 920Q652.6000 920 651.6200 919.0200Q650.6400 918.0400 650.6400 916.6400L650.6400 916.6400L650.6400 878.1400Q650.6400 870.0200 646.6500 865.4000Q642.6600 860.7800 635.1000 860.7800L635.1000 860.7800Q627.8200 860.7800 623.4800 865.4000Q619.1400 870.0200 619.1400 878.1400L619.1400 878.1400L619.1400 916.6400Q619.1400 918.0400 618.1600 919.0200Q617.1800 920 615.7800 920L615.7800 920ZM731.7000 920L720.3600 920Q711.9600 920 706.2200 917.0600Q700.4800 914.1200 697.6800 908.3100Q694.8800 902.5000 694.8800 893.8200L694.8800 893.8200L694.8800 862.0400L683.8200 862.0400Q682.4200 862.0400 681.4400 861.0600Q680.4600 860.0800 680.4600 858.5400L680.4600 858.5400L680.4600 850.5600Q680.4600 849.1600 681.4400 848.1800Q682.4200 847.2000 683.8200 847.2000L683.8200 847.2000L694.8800 847.2000L694.8800 823.9600Q694.8800 822.5600 695.7900 821.5800Q696.7000 820.6000 698.2400 820.6000L698.2400 820.6000L709.5800 820.6000Q710.9800 820.6000 711.9600 821.5800Q712.9400 822.5600 712.9400 823.9600L712.9400 823.9600L712.9400 847.2000L730.4400 847.2000Q731.8400 847.2000 732.8200 848.1800Q733.8000 849.1600 733.8000 850.5600L733.8000 850.5600L733.8000 858.5400Q733.8000 860.0800 732.8200 861.0600Q731.8400 862.0400 730.4400 862.0400L730.4400 862.0400L712.9400 862.0400L712.9400 892.4200Q712.9400 898.1600 714.9700 901.3800Q717 904.6000 722.0400 904.6000L722.0400 904.6000L731.7000 904.6000Q733.1000 904.6000 734.0800 905.5800Q735.0600 906.5600 735.0600 907.9600L735.0600 907.9600L735.0600 916.6400Q735.0600 918.0400 734.0800 919.0200Q733.1000 920 731.7000 920L731.7000 920Z" id="title"/></g></svg>