<svg xmlns="http://www.w3.org/2000/svg" version="1.1" xmlns:xlink="http://www.w3.org/1999/xlink" xmlns:svgjs="http://svgjs.dev/svgjs" viewBox="0 0 1920 1080" id="daae8cee-fb5c-447b-b00d-3016d0aa8a3b"><g><rect width="1920" height="1080" fill="#4e0250"/></g><g fill="#645986"><path d="M2118.71 322.496C1962.88 381.696 1840.11 286.062 1731.68 201.315C1619.52 113.904 1545.13 63.1995 1455.92 97.0926C1366.11 131.212 1344.15 218.52 1318.91 358.127C1294.11 493.487 1265.8 646.514 1109.97 705.714C954.144 764.914 831.375 669.28 722.951 584.533C610.793 497.122 536.401 446.418 447.185 480.311C357.375 514.43 335.414 601.738 310.18 741.346C285.375 876.706 257.072 1029.73 101.242 1088.93C-54.5876 1148.13 -177.357 1052.5 -285.78 967.751C-397.344 880.114 -471.736 829.41 -561.547 863.529L-602 757.045C-446.17 697.845 -323.401 793.479 -214.977 878.225C-102.819 965.637 -28.4265 1016.34 60.7891 982.448C150.6 948.329 172.56 861.02 197.794 721.413C222.599 586.053 250.307 433.253 406.732 373.827C562.562 314.627 685.331 410.261 793.754 495.007C905.913 582.419 980.305 633.123 1069.52 599.23C1159.33 565.111 1181.29 477.802 1206.53 338.195C1231.33 202.835 1259.04 50.0347 1415.46 -9.39121C1571.89 -68.8172 1694.06 27.043 1802.49 111.789C1914.64 199.201 1989.04 249.905 2078.25 216.012L2118.71 322.496Z"/></g><g fill="#ffffff" opacity="0.2"><path d="M960.041 79C960.041 79 971.953 194.974 981.699 214.484C992.529 237.245 1064 247 1064 247C1064 247 994.694 258.923 983.865 280.6C973.036 301.194 958.959 415 958.959 415C958.959 415 945.964 296.858 935.135 275.181C925.389 255.671 855 245.916 855 245.916C855 245.916 925.389 233.994 936.218 212.316C947.047 192.806 960.041 79 960.041 79Z"/><path d="M561.041 687C561.041 687 572.953 802.974 582.699 822.484C593.529 845.245 665 855 665 855C665 855 595.694 866.923 584.865 888.6C574.036 909.194 559.959 1023 559.959 1023C559.959 1023 546.964 904.858 536.135 883.181C526.389 863.671 456 853.916 456 853.916C456 853.916 526.389 841.994 537.218 820.316C548.047 800.806 561.041 687 561.041 687Z"/></g><g><path d="M178.635 139.281L184.422 144.246V166.626H215.704L219.958 172.147L215.69 177.397H184.422V198.795L178.635 203.747L173 198.795V144.232L178.635 139.281ZM195.554 195.68H219.406L223.397 200.915L219.143 206.45H195.554L191.7 201.342L195.554 195.68ZM196.382 138H219.129L223.383 143.52L219.129 148.77H196.659L192.115 143.677L196.382 138ZM323.155 148.628L328.251 154.291L323.155 159.968H246.13L241.172 154.291L246.13 148.628H323.155ZM237.043 172.147L241.849 167.893L246.669 172.147V178.393C246.669 188.879 249.417 197.515 261.668 197.515H264.14C275.147 197.515 281.197 189.86 281.197 177.952V172.005L285.879 167.75L290.699 171.862V178.379C290.699 189.007 293.723 196.946 305.56 196.946H307.618C319.178 196.946 321.235 187.869 321.373 177.952V171.578L326.056 167.608L331 171.72V178.094C330.862 191.838 327.285 207.574 308.032 207.574H305.974C294.552 207.574 288.365 202.324 285.892 195.808C283.006 202.466 275.299 208.286 264.844 208.286H262.358C242.553 208.286 237.194 195.964 237.056 178.663V172.147H237.043ZM276.391 274.744L273.642 267.089L280.796 264.969L305.974 276.721V252.491L311.07 248.095L316.291 252.491V281.829L325.641 286.226L328.251 293.311L320.959 296L276.391 274.744ZM321.235 223.011L328.113 226.27L325.917 233.497L264.002 263.119L256.571 260.146L259.596 252.776L321.235 223.011ZM231.905 263.404L237.954 268.512C237.402 286.51 222.403 296 204.669 296H202.874C194.062 296 183.759 292.6 177.157 286.083L177.834 278.855L184.298 278.002C189.118 282.256 195.858 285.229 202.183 285.229H204.117C216.091 285.229 225.303 280.136 226.27 268.085L231.905 263.404ZM226.256 251.638C225.704 239.16 216.629 234.209 204.103 234.209H202.169C194.739 234.209 189.104 237.182 184.284 241.436L177.834 240.583L177.143 233.355C183.745 226.696 192.957 223.58 202.597 223.58H204.517C222.403 223.58 237.402 232.942 237.94 251.211L231.891 256.176L226.256 251.638Z" fill="#ffffff"/></g><g fill="#ffffff" id="info-group"><path d="M167.0800 640L154.9000 640Q153.7800 640 152.8700 639.1600Q151.9600 638.3200 151.9600 637.0600L151.9600 637.0600Q151.9600 636.5000 152.2400 635.8000L152.2400 635.8000L185.9800 545.5000Q186.4000 544.1000 187.5900 543.0500Q188.7800 542 190.8800 542L190.8800 542L206.1400 542Q208.2400 542 209.3600 543.0500Q210.4800 544.1000 211.0400 545.5000L211.0400 545.5000L244.7800 635.8000Q244.9200 636.5000 244.9200 637.0600L244.9200 637.0600Q244.9200 638.3200 244.0800 639.1600Q243.2400 640 242.1200 640L242.1200 640L229.9400 640Q227.9800 640 227.0700 639.0900Q226.1600 638.1800 225.8800 637.3400L225.8800 637.3400L219.3000 620.2600L177.7200 620.2600L171.1400 637.3400Q170.8600 638.1800 169.9500 639.0900Q169.0400 640 167.0800 640L167.0800 640ZM198.4400 560.9000L182.6200 604.1600L214.4000 604.1600L198.4400 560.9000ZM283.2800 641.4000L283.2800 641.4000Q274.7400 641.4000 268.5100 637.5500Q262.2800 633.7000 258.9200 626.6300Q255.5600 619.5600 255.5600 609.9000L255.5600 609.9000L255.5600 570.5600Q255.5600 569.1600 256.5400 568.1800Q257.5200 567.2000 258.9200 567.2000L258.9200 567.2000L271.2400 567.2000Q272.7800 567.2000 273.6900 568.1800Q274.6000 569.1600 274.6000 570.5600L274.6000 570.5600L274.6000 609.0600Q274.6000 626.4200 289.8600 626.4200L289.8600 626.4200Q297.1400 626.4200 301.4100 621.8000Q305.6800 617.1800 305.6800 609.0600L305.6800 609.0600L305.6800 570.5600Q305.6800 569.1600 306.6600 568.1800Q307.6400 567.2000 309.0400 567.2000L309.0400 567.2000L321.3600 567.2000Q322.7600 567.2000 323.7400 568.1800Q324.7200 569.1600 324.7200 570.5600L324.7200 570.5600L324.7200 636.6400Q324.7200 638.0400 323.7400 639.0200Q322.7600 640 321.3600 640L321.3600 640L310.0200 640Q308.4800 640 307.5700 639.0200Q306.6600 638.0400 306.6600 636.6400L306.6600 636.6400L306.6600 630.9000Q302.8800 635.8000 297.2800 638.6000Q291.6800 641.4000 283.2800 641.4000ZM358.3200 640L346.7000 640Q345.3000 640 344.3200 639.0200Q343.3400 638.0400 343.3400 636.6400L343.3400 636.6400L343.3400 543.9600Q343.3400 542.5600 344.3200 541.5800Q345.3000 540.6000 346.7000 540.6000L346.7000 540.6000L358.3200 540.6000Q359.7200 540.6000 360.7000 541.5800Q361.6800 542.5600 361.6800 543.9600L361.6800 543.9600L361.6800 636.6400Q361.6800 638.0400 360.7000 639.0200Q359.7200 640 358.3200 640L358.3200 640ZM401.4400 641.4000L401.4400 641.4000Q394.1600 641.4000 388.2800 638.5300Q382.4000 635.6600 378.9700 630.8300Q375.5400 626 375.5400 619.9800L375.5400 619.9800Q375.5400 610.1800 383.5200 604.3700Q391.5000 598.5600 404.3800 596.6000L404.3800 596.6000L423.5600 593.8000L423.5600 590.8600Q423.5600 584.9800 420.6200 581.7600Q417.6800 578.5400 410.5400 578.5400L410.5400 578.5400Q405.5000 578.5400 402.3500 580.5700Q399.2000 582.6000 397.6600 585.9600L397.6600 585.9600Q396.5400 587.7800 394.4400 587.7800L394.4400 587.7800L383.3800 587.7800Q381.8400 587.7800 381.0700 586.9400Q380.3000 586.1000 380.3000 584.7000L380.3000 584.7000Q380.4400 582.4600 382.1900 579.2400Q383.9400 576.0200 387.5100 573.0100Q391.0800 570 396.8200 567.9000Q402.5600 565.8000 410.6800 565.8000L410.6800 565.8000Q419.5000 565.8000 425.5900 567.9700Q431.6800 570.1400 435.3200 573.7800Q438.9600 577.4200 440.6400 582.3200Q442.3200 587.2200 442.3200 592.6800L442.3200 592.6800L442.3200 636.6400Q442.3200 638.0400 441.3400 639.0200Q440.3600 640 438.9600 640L438.9600 640L427.6200 640Q426.0800 640 425.1700 639.0200Q424.2600 638.0400 424.2600 636.6400L424.2600 636.6400L424.2600 631.1800Q422.4400 633.7000 419.3600 636.0800Q416.2800 638.4600 411.8700 639.9300Q407.4600 641.4000 401.4400 641.4000ZM406.2000 628.1000L406.2000 628.1000Q411.1000 628.1000 415.0900 626Q419.0800 623.9000 421.3900 619.4900Q423.7000 615.0800 423.7000 608.3600L423.7000 608.3600L423.7000 605.4200L409.7000 607.6600Q401.4400 608.9200 397.3800 611.7200Q393.3200 614.5200 393.3200 618.5800L393.3200 618.5800Q393.3200 621.6600 395.2100 623.8300Q397.1000 626 400.0400 627.0500Q402.9800 628.1000 406.2000 628.1000ZM527.7200 641.4000L527.7200 641.4000Q515.6800 641.4000 507.0000 636.8500Q498.3200 632.3000 493.5600 624.5300Q488.8000 616.7600 488.8000 607.1000L488.8000 607.1000Q488.8000 602.7600 489.9200 598.7000Q491.0400 594.6400 492.8600 591Q494.6800 587.3600 496.4300 584.4900Q498.1800 581.6200 499.5800 579.9400L499.5800 579.9400L525.2000 544.8000Q525.7600 544.1000 526.8800 543.0500Q528.0000 542 529.9600 542L529.9600 542L542.9800 542Q544.2400 542 545.0800 542.9100Q545.9200 543.8200 545.9200 545.0800L545.9200 545.0800Q545.9200 545.6400 545.7100 546.1300Q545.5000 546.6200 545.2200 546.9000L545.2200 546.9000L525.6200 574.0600Q526.8800 573.6400 528.5600 573.5000Q530.2400 573.3600 531.6400 573.3600L531.6400 573.3600Q538.6400 573.5000 544.9400 576.0900Q551.2400 578.6800 556.0000 583.1600Q560.7600 587.6400 563.4900 593.6600Q566.2200 599.6800 566.2200 606.8200L566.2200 606.8200Q566.2200 616.0600 561.6000 623.9700Q556.9800 631.8800 548.3700 636.6400Q539.7600 641.4000 527.7200 641.4000ZM527.5800 625.3000L527.5800 625.3000Q532.6200 625.3000 536.8900 623.2000Q541.1600 621.1000 543.8200 617.0400Q546.4800 612.9800 546.4800 606.9600L546.4800 606.9600Q546.4800 601.0800 543.8200 597.0200Q541.1600 592.9600 536.8900 590.8600Q532.6200 588.7600 527.5800 588.7600L527.5800 588.7600Q522.5400 588.7600 518.2700 590.8600Q514.0000 592.9600 511.3400 597.0200Q508.6800 601.0800 508.6800 606.9600L508.6800 606.9600Q508.6800 612.9800 511.3400 617.0400Q514.0000 621.1000 518.2700 623.2000Q522.5400 625.3000 527.5800 625.3000ZM596.8800 591L583.0200 591Q581.6200 591 580.6400 590.0200Q579.6600 589.0400 579.6600 587.6400L579.6600 587.6400L579.6600 574.3400Q579.6600 572.8000 580.6400 571.8200Q581.6200 570.8400 583.0200 570.8400L583.0200 570.8400L596.8800 570.8400Q598.4200 570.8400 599.4000 571.8200Q600.3800 572.8000 600.3800 574.3400L600.3800 574.3400L600.3800 587.6400Q600.3800 589.0400 599.4000 590.0200Q598.4200 591 596.8800 591L596.8800 591ZM596.8800 640L583.0200 640Q581.6200 640 580.6400 639.0200Q579.6600 638.0400 579.6600 636.6400L579.6600 636.6400L579.6600 623.3400Q579.6600 621.8000 580.6400 620.8200Q581.6200 619.8400 583.0200 619.8400L583.0200 619.8400L596.8800 619.8400Q598.4200 619.8400 599.4000 620.8200Q600.3800 621.8000 600.3800 623.3400L600.3800 623.3400L600.3800 636.6400Q600.3800 638.0400 599.4000 639.0200Q598.4200 640 596.8800 640L596.8800 640ZM689.9800 640L677.1000 640Q675.7000 640 674.7200 639.0200Q673.7400 638.0400 673.7400 636.6400L673.7400 636.6400L673.7400 559.2200L647.8400 559.2200Q646.4400 559.2200 645.4600 558.2400Q644.4800 557.2600 644.4800 555.8600L644.4800 555.8600L644.4800 545.5000Q644.4800 543.9600 645.4600 542.9800Q646.4400 542 647.8400 542L647.8400 542L719.2400 542Q720.7800 542 721.7600 542.9800Q722.7400 543.9600 722.7400 545.5000L722.7400 545.5000L722.7400 555.8600Q722.7400 557.2600 721.7600 558.2400Q720.7800 559.2200 719.2400 559.2200L719.2400 559.2200L693.4800 559.2200L693.4800 636.6400Q693.4800 638.0400 692.5000 639.0200Q691.5200 640 689.9800 640L689.9800 640ZM775.1000 640L740.2400 640Q738.8400 640 737.8600 639.0200Q736.8800 638.0400 736.8800 636.6400L736.8800 636.6400L736.8800 545.5000Q736.8800 543.9600 737.8600 542.9800Q738.8400 542 740.2400 542L740.2400 542L774.4000 542Q788.5400 542 797.7100 546.3400Q806.8800 550.6800 811.5700 559.2200Q816.2600 567.7600 816.4000 580.0800L816.4000 580.0800Q816.6800 586.2400 816.6800 591Q816.6800 595.7600 816.4000 601.7800L816.4000 601.7800Q816.1200 614.8000 811.6400 623.2700Q807.1600 631.7400 798.1300 635.8700Q789.1000 640 775.1000 640L775.1000 640ZM756.3400 558.1000L756.3400 623.9000L774.4000 623.9000Q782.2400 623.9000 787.1400 621.6600Q792.0400 619.4200 794.3500 614.4500Q796.6600 609.4800 796.8000 601.3600L796.8000 601.3600Q796.9400 597.1600 797.0100 594.0100Q797.0800 590.8600 797.0100 587.7100Q796.9400 584.5600 796.8000 580.5000L796.8000 580.5000Q796.5200 569.0200 791.0600 563.5600Q785.6000 558.1000 773.7000 558.1000L773.7000 558.1000L756.3400 558.1000ZM873.5200 640L838.6600 640Q837.2600 640 836.2800 639.0200Q835.3000 638.0400 835.3000 636.6400L835.3000 636.6400L835.3000 545.5000Q835.3000 543.9600 836.2800 542.9800Q837.2600 542 838.6600 542L838.6600 542L872.8200 542Q886.9600 542 896.1300 546.3400Q905.3000 550.6800 909.9900 559.2200Q914.6800 567.7600 914.8200 580.0800L914.8200 580.0800Q915.1000 586.2400 915.1000 591Q915.1000 595.7600 914.8200 601.7800L914.8200 601.7800Q914.5400 614.8000 910.0600 623.2700Q905.5800 631.7400 896.5500 635.8700Q887.5200 640 873.5200 640L873.5200 640ZM854.7600 558.1000L854.7600 623.9000L872.8200 623.9000Q880.6600 623.9000 885.5600 621.6600Q890.4600 619.4200 892.7700 614.4500Q895.0800 609.4800 895.2200 601.3600L895.2200 601.3600Q895.3600 597.1600 895.4300 594.0100Q895.5000 590.8600 895.4300 587.7100Q895.3600 584.5600 895.2200 580.5000L895.2200 580.5000Q894.9400 569.0200 889.4800 563.5600Q884.0200 558.1000 872.1200 558.1000L872.1200 558.1000L854.7600 558.1000Z" id="title"/></g></svg>