<svg xmlns="http://www.w3.org/2000/svg" version="1.1" xmlns:xlink="http://www.w3.org/1999/xlink" xmlns:svgjs="http://svgjs.dev/svgjs" viewBox="0 0 1920 1080" id="ccd27760-4e15-4ee0-a692-8c054183e98c"><g><rect width="1920" height="1080" fill="#8ee3ef"/></g><g fill="#f0c975"><path d="M2118.71 322.496C1962.88 381.696 1840.11 286.062 1731.68 201.315C1619.52 113.904 1545.13 63.1995 1455.92 97.0926C1366.11 131.212 1344.15 218.52 1318.91 358.127C1294.11 493.487 1265.8 646.514 1109.97 705.714C954.144 764.914 831.375 669.28 722.951 584.533C610.793 497.122 536.401 446.418 447.185 480.311C357.375 514.43 335.414 601.738 310.18 741.346C285.375 876.706 257.072 1029.73 101.242 1088.93C-54.5876 1148.13 -177.357 1052.5 -285.78 967.751C-397.344 880.114 -471.736 829.41 -561.547 863.529L-602 757.045C-446.17 697.845 -323.401 793.479 -214.977 878.225C-102.819 965.637 -28.4265 1016.34 60.7891 982.448C150.6 948.329 172.56 861.02 197.794 721.413C222.599 586.053 250.307 433.253 406.732 373.827C562.562 314.627 685.331 410.261 793.754 495.007C905.913 582.419 980.305 633.123 1069.52 599.23C1159.33 565.111 1181.29 477.802 1206.53 338.195C1231.33 202.835 1259.04 50.0347 1415.46 -9.39121C1571.89 -68.8172 1694.06 27.043 1802.49 111.789C1914.64 199.201 1989.04 249.905 2078.25 216.012L2118.71 322.496Z"/></g><g fill="#ffffff" opacity="0.4"><path d="M960.041 79C960.041 79 971.953 194.974 981.699 214.484C992.529 237.245 1064 247 1064 247C1064 247 994.694 258.923 983.865 280.6C973.036 301.194 958.959 415 958.959 415C958.959 415 945.964 296.858 935.135 275.181C925.389 255.671 855 245.916 855 245.916C855 245.916 925.389 233.994 936.218 212.316C947.047 192.806 960.041 79 960.041 79Z"/><path d="M561.041 687C561.041 687 572.953 802.974 582.699 822.484C593.529 845.245 665 855 665 855C665 855 595.694 866.923 584.865 888.6C574.036 909.194 559.959 1023 559.959 1023C559.959 1023 546.964 904.858 536.135 883.181C526.389 863.671 456 853.916 456 853.916C456 853.916 526.389 841.994 537.218 820.316C548.047 800.806 561.041 687 561.041 687Z"/></g><g><path d="M178.635 139.281L184.422 144.246V166.626H215.704L219.958 172.147L215.69 177.397H184.422V198.795L178.635 203.747L173 198.795V144.232L178.635 139.281ZM195.554 195.68H219.406L223.397 200.915L219.143 206.45H195.554L191.7 201.342L195.554 195.68ZM196.382 138H219.129L223.383 143.52L219.129 148.77H196.659L192.115 143.677L196.382 138ZM323.155 148.628L328.251 154.291L323.155 159.968H246.13L241.172 154.291L246.13 148.628H323.155ZM237.043 172.147L241.849 167.893L246.669 172.147V178.393C246.669 188.879 249.417 197.515 261.668 197.515H264.14C275.147 197.515 281.197 189.86 281.197 177.952V172.005L285.879 167.75L290.699 171.862V178.379C290.699 189.007 293.723 196.946 305.56 196.946H307.618C319.178 196.946 321.235 187.869 321.373 177.952V171.578L326.056 167.608L331 171.72V178.094C330.862 191.838 327.285 207.574 308.032 207.574H305.974C294.552 207.574 288.365 202.324 285.892 195.808C283.006 202.466 275.299 208.286 264.844 208.286H262.358C242.553 208.286 237.194 195.964 237.056 178.663V172.147H237.043ZM276.391 274.744L273.642 267.089L280.796 264.969L305.974 276.721V252.491L311.07 248.095L316.291 252.491V281.829L325.641 286.226L328.251 293.311L320.959 296L276.391 274.744ZM321.235 223.011L328.113 226.27L325.917 233.497L264.002 263.119L256.571 260.146L259.596 252.776L321.235 223.011ZM231.905 263.404L237.954 268.512C237.402 286.51 222.403 296 204.669 296H202.874C194.062 296 183.759 292.6 177.157 286.083L177.834 278.855L184.298 278.002C189.118 282.256 195.858 285.229 202.183 285.229H204.117C216.091 285.229 225.303 280.136 226.27 268.085L231.905 263.404ZM226.256 251.638C225.704 239.16 216.629 234.209 204.103 234.209H202.169C194.739 234.209 189.104 237.182 184.284 241.436L177.834 240.583L177.143 233.355C183.745 226.696 192.957 223.58 202.597 223.58H204.517C222.403 223.58 237.402 232.942 237.94 251.211L231.891 256.176L226.256 251.638Z" fill="#000000"/></g><g fill="#000000" id="info-group"><path d="M167.0800 500L154.9000 500Q153.7800 500 152.8700 499.1600Q151.9600 498.3200 151.9600 497.0600L151.9600 497.0600Q151.9600 496.5000 152.2400 495.8000L152.2400 495.8000L185.9800 405.5000Q186.4000 404.1000 187.5900 403.0500Q188.7800 402 190.8800 402L190.8800 402L206.1400 402Q208.2400 402 209.3600 403.0500Q210.4800 404.1000 211.0400 405.5000L211.0400 405.5000L244.7800 495.8000Q244.9200 496.5000 244.9200 497.0600L244.9200 497.0600Q244.9200 498.3200 244.0800 499.1600Q243.2400 500 242.1200 500L242.1200 500L229.9400 500Q227.9800 500 227.0700 499.0900Q226.1600 498.1800 225.8800 497.3400L225.8800 497.3400L219.3000 480.2600L177.7200 480.2600L171.1400 497.3400Q170.8600 498.1800 169.9500 499.0900Q169.0400 500 167.0800 500L167.0800 500ZM198.4400 420.9000L182.6200 464.1600L214.4000 464.1600L198.4400 420.9000ZM283.2800 501.4000L283.2800 501.4000Q274.7400 501.4000 268.5100 497.5500Q262.2800 493.7000 258.9200 486.6300Q255.5600 479.5600 255.5600 469.9000L255.5600 469.9000L255.5600 430.5600Q255.5600 429.1600 256.5400 428.1800Q257.5200 427.2000 258.9200 427.2000L258.9200 427.2000L271.2400 427.2000Q272.7800 427.2000 273.6900 428.1800Q274.6000 429.1600 274.6000 430.5600L274.6000 430.5600L274.6000 469.0600Q274.6000 486.4200 289.8600 486.4200L289.8600 486.4200Q297.1400 486.4200 301.4100 481.8000Q305.6800 477.1800 305.6800 469.0600L305.6800 469.0600L305.6800 430.5600Q305.6800 429.1600 306.6600 428.1800Q307.6400 427.2000 309.0400 427.2000L309.0400 427.2000L321.3600 427.2000Q322.7600 427.2000 323.7400 428.1800Q324.7200 429.1600 324.7200 430.5600L324.7200 430.5600L324.7200 496.6400Q324.7200 498.0400 323.7400 499.0200Q322.7600 500 321.3600 500L321.3600 500L310.0200 500Q308.4800 500 307.5700 499.0200Q306.6600 498.0400 306.6600 496.6400L306.6600 496.6400L306.6600 490.9000Q302.8800 495.8000 297.2800 498.6000Q291.6800 501.4000 283.2800 501.4000ZM358.3200 500L346.7000 500Q345.3000 500 344.3200 499.0200Q343.3400 498.0400 343.3400 496.6400L343.3400 496.6400L343.3400 403.9600Q343.3400 402.5600 344.3200 401.5800Q345.3000 400.6000 346.7000 400.6000L346.7000 400.6000L358.3200 400.6000Q359.7200 400.6000 360.7000 401.5800Q361.6800 402.5600 361.6800 403.9600L361.6800 403.9600L361.6800 496.6400Q361.6800 498.0400 360.7000 499.0200Q359.7200 500 358.3200 500L358.3200 500ZM401.4400 501.4000L401.4400 501.4000Q394.1600 501.4000 388.2800 498.5300Q382.4000 495.6600 378.9700 490.8300Q375.5400 486 375.5400 479.9800L375.5400 479.9800Q375.5400 470.1800 383.5200 464.3700Q391.5000 458.5600 404.3800 456.6000L404.3800 456.6000L423.5600 453.8000L423.5600 450.8600Q423.5600 444.9800 420.6200 441.7600Q417.6800 438.5400 410.5400 438.5400L410.5400 438.5400Q405.5000 438.5400 402.3500 440.5700Q399.2000 442.6000 397.6600 445.9600L397.6600 445.9600Q396.5400 447.7800 394.4400 447.7800L394.4400 447.7800L383.3800 447.7800Q381.8400 447.7800 381.0700 446.9400Q380.3000 446.1000 380.3000 444.7000L380.3000 444.7000Q380.4400 442.4600 382.1900 439.2400Q383.9400 436.0200 387.5100 433.0100Q391.0800 430 396.8200 427.9000Q402.5600 425.8000 410.6800 425.8000L410.6800 425.8000Q419.5000 425.8000 425.5900 427.9700Q431.6800 430.1400 435.3200 433.7800Q438.9600 437.4200 440.6400 442.3200Q442.3200 447.2200 442.3200 452.6800L442.3200 452.6800L442.3200 496.6400Q442.3200 498.0400 441.3400 499.0200Q440.3600 500 438.9600 500L438.9600 500L427.6200 500Q426.0800 500 425.1700 499.0200Q424.2600 498.0400 424.2600 496.6400L424.2600 496.6400L424.2600 491.1800Q422.4400 493.7000 419.3600 496.0800Q416.2800 498.4600 411.8700 499.9300Q407.4600 501.4000 401.4400 501.4000ZM406.2000 488.1000L406.2000 488.1000Q411.1000 488.1000 415.0900 486Q419.0800 483.9000 421.3900 479.4900Q423.7000 475.0800 423.7000 468.3600L423.7000 468.3600L423.7000 465.4200L409.7000 467.6600Q401.4400 468.9200 397.3800 471.7200Q393.3200 474.5200 393.3200 478.5800L393.3200 478.5800Q393.3200 481.6600 395.2100 483.8300Q397.1000 486 400.0400 487.0500Q402.9800 488.1000 406.2000 488.1000ZM550.5400 500L538.3600 500Q536.9600 500 535.9800 499.0200Q535.0000 498.0400 535.0000 496.6400L535.0000 496.6400L535.0000 478.7200L490.6200 478.7200Q489.0800 478.7200 488.1700 477.7400Q487.2600 476.7600 487.2600 475.3600L487.2600 475.3600L487.2600 465.8400Q487.2600 465 487.6100 463.8100Q487.9600 462.6200 488.8000 461.6400L488.8000 461.6400L530.1000 404.3800Q531.9200 402 535.2800 402L535.2800 402L550.5400 402Q551.9400 402 552.9200 402.9800Q553.9000 403.9600 553.9000 405.3600L553.9000 405.3600L553.9000 462.2000L566.3600 462.2000Q568.0400 462.2000 568.9500 463.1100Q569.8600 464.0200 569.8600 465.5600L569.8600 465.5600L569.8600 475.3600Q569.8600 476.7600 568.8800 477.7400Q567.9000 478.7200 566.5000 478.7200L566.5000 478.7200L553.9000 478.7200L553.9000 496.6400Q553.9000 498.0400 552.9200 499.0200Q551.9400 500 550.5400 500L550.5400 500ZM535.4200 422.3000L506.7200 462.7600L535.4200 462.7600L535.4200 422.3000ZM600.3800 451L586.5200 451Q585.1200 451 584.1400 450.0200Q583.1600 449.0400 583.1600 447.6400L583.1600 447.6400L583.1600 434.3400Q583.1600 432.8000 584.1400 431.8200Q585.1200 430.8400 586.5200 430.8400L586.5200 430.8400L600.3800 430.8400Q601.9200 430.8400 602.9000 431.8200Q603.8800 432.8000 603.8800 434.3400L603.8800 434.3400L603.8800 447.6400Q603.8800 449.0400 602.9000 450.0200Q601.9200 451 600.3800 451L600.3800 451ZM600.3800 500L586.5200 500Q585.1200 500 584.1400 499.0200Q583.1600 498.0400 583.1600 496.6400L583.1600 496.6400L583.1600 483.3400Q583.1600 481.8000 584.1400 480.8200Q585.1200 479.8400 586.5200 479.8400L586.5200 479.8400L600.3800 479.8400Q601.9200 479.8400 602.9000 480.8200Q603.8800 481.8000 603.8800 483.3400L603.8800 483.3400L603.8800 496.6400Q603.8800 498.0400 602.9000 499.0200Q601.9200 500 600.3800 500L600.3800 500ZM731.5600 509.1000L718.5400 509.1000Q716.5800 509.1000 715.3900 507.9100Q714.2000 506.7200 713.5000 505.8800L713.5000 505.8800L708.3200 498.8800Q701.7400 501.4000 693.3400 501.4000L693.3400 501.4000Q680.8800 501.4000 671.8500 497.2700Q662.8200 493.1400 657.8500 484.5300Q652.8800 475.9200 652.3200 463.0400L652.3200 463.0400Q652.1800 457.0200 652.1800 451.1400Q652.1800 445.2600 652.3200 439.1000L652.3200 439.1000Q652.8800 426.3600 657.9900 417.8200Q663.1000 409.2800 672.2000 404.9400Q681.3000 400.6000 693.3400 400.6000L693.3400 400.6000Q705.3800 400.6000 714.4800 404.9400Q723.5800 409.2800 728.7600 417.8200Q733.9400 426.3600 734.2200 439.1000L734.2200 439.1000Q734.5000 445.2600 734.5000 451.1400Q734.5000 457.0200 734.2200 463.0400L734.2200 463.0400Q733.5200 481.3800 724.1400 490.9000L724.1400 490.9000L733.9400 504.7600Q734.0800 504.9000 734.2200 505.2500Q734.3600 505.6000 734.3600 506.1600L734.3600 506.1600Q734.5000 507.4200 733.5900 508.2600Q732.6800 509.1000 731.5600 509.1000L731.5600 509.1000ZM693.3400 485.3000L693.3400 485.3000Q702.3000 485.3000 708.0400 479.9100Q713.7800 474.5200 714.2000 462.3400L714.2000 462.3400Q714.4800 456.1800 714.4800 450.9300Q714.4800 445.6800 714.2000 439.6600L714.2000 439.6600Q714.0600 431.5400 711.2600 426.4300Q708.4600 421.3200 703.9100 419.0100Q699.3600 416.7000 693.3400 416.7000L693.3400 416.7000Q687.4600 416.7000 682.8400 419.0100Q678.2200 421.3200 675.4900 426.4300Q672.7600 431.5400 672.3400 439.6600L672.3400 439.6600Q672.2000 445.6800 672.2000 450.9300Q672.2000 456.1800 672.3400 462.3400L672.3400 462.3400Q672.9000 474.5200 678.6400 479.9100Q684.3800 485.3000 693.3400 485.3000ZM778.3200 501.4000L778.3200 501.4000Q769.7800 501.4000 763.5500 497.5500Q757.3200 493.7000 753.9600 486.6300Q750.6000 479.5600 750.6000 469.9000L750.6000 469.9000L750.6000 430.5600Q750.6000 429.1600 751.5800 428.1800Q752.5600 427.2000 753.9600 427.2000L753.9600 427.2000L766.2800 427.2000Q767.8200 427.2000 768.7300 428.1800Q769.6400 429.1600 769.6400 430.5600L769.6400 430.5600L769.6400 469.0600Q769.6400 486.4200 784.9000 486.4200L784.9000 486.4200Q792.1800 486.4200 796.4500 481.8000Q800.7200 477.1800 800.7200 469.0600L800.7200 469.0600L800.7200 430.5600Q800.7200 429.1600 801.7000 428.1800Q802.6800 427.2000 804.0800 427.2000L804.0800 427.2000L816.4000 427.2000Q817.8000 427.2000 818.7800 428.1800Q819.7600 429.1600 819.7600 430.5600L819.7600 430.5600L819.7600 496.6400Q819.7600 498.0400 818.7800 499.0200Q817.8000 500 816.4000 500L816.4000 500L805.0600 500Q803.5200 500 802.6100 499.0200Q801.7000 498.0400 801.7000 496.6400L801.7000 496.6400L801.7000 490.9000Q797.9200 495.8000 792.3200 498.6000Q786.7200 501.4000 778.3200 501.4000ZM859.3800 501.4000L859.3800 501.4000Q852.1000 501.4000 846.2200 498.5300Q840.3400 495.6600 836.9100 490.8300Q833.4800 486 833.4800 479.9800L833.4800 479.9800Q833.4800 470.1800 841.4600 464.3700Q849.4400 458.5600 862.3200 456.6000L862.3200 456.6000L881.5000 453.8000L881.5000 450.8600Q881.5000 444.9800 878.5600 441.7600Q875.6200 438.5400 868.4800 438.5400L868.4800 438.5400Q863.4400 438.5400 860.2900 440.5700Q857.1400 442.6000 855.6000 445.9600L855.6000 445.9600Q854.4800 447.7800 852.3800 447.7800L852.3800 447.7800L841.3200 447.7800Q839.7800 447.7800 839.0100 446.9400Q838.2400 446.1000 838.2400 444.7000L838.2400 444.7000Q838.3800 442.4600 840.1300 439.2400Q841.8800 436.0200 845.4500 433.0100Q849.0200 430 854.7600 427.9000Q860.5000 425.8000 868.6200 425.8000L868.6200 425.8000Q877.4400 425.8000 883.5300 427.9700Q889.6200 430.1400 893.2600 433.7800Q896.9000 437.4200 898.5800 442.3200Q900.2600 447.2200 900.2600 452.6800L900.2600 452.6800L900.2600 496.6400Q900.2600 498.0400 899.2800 499.0200Q898.3000 500 896.9000 500L896.9000 500L885.5600 500Q884.0200 500 883.1100 499.0200Q882.2000 498.0400 882.2000 496.6400L882.2000 496.6400L882.2000 491.1800Q880.3800 493.7000 877.3000 496.0800Q874.2200 498.4600 869.8100 499.9300Q865.4000 501.4000 859.3800 501.4000ZM864.1400 488.1000L864.1400 488.1000Q869.0400 488.1000 873.0300 486Q877.0200 483.9000 879.3300 479.4900Q881.6400 475.0800 881.6400 468.3600L881.6400 468.3600L881.6400 465.4200L867.6400 467.6600Q859.3800 468.9200 855.3200 471.7200Q851.2600 474.5200 851.2600 478.5800L851.2600 478.5800Q851.2600 481.6600 853.1500 483.8300Q855.0400 486 857.9800 487.0500Q860.9200 488.1000 864.1400 488.1000ZM933.1600 500L921.5400 500Q920.1400 500 919.1600 499.0200Q918.1800 498.0400 918.1800 496.6400L918.1800 496.6400L918.1800 430.5600Q918.1800 429.1600 919.1600 428.1800Q920.1400 427.2000 921.5400 427.2000L921.5400 427.2000L933.1600 427.2000Q934.7000 427.2000 935.6100 428.1800Q936.5200 429.1600 936.5200 430.5600L936.5200 430.5600L936.5200 496.6400Q936.5200 498.0400 935.6100 499.0200Q934.7000 500 933.1600 500L933.1600 500ZM933.7200 415.1600L920.9800 415.1600Q919.5800 415.1600 918.6000 414.1800Q917.6200 413.2000 917.6200 411.8000L917.6200 411.8000L917.6200 401.7200Q917.6200 400.3200 918.6000 399.3400Q919.5800 398.3600 920.9800 398.3600L920.9800 398.3600L933.7200 398.3600Q935.2600 398.3600 936.2400 399.3400Q937.2200 400.3200 937.2200 401.7200L937.2200 401.7200L937.2200 411.8000Q937.2200 413.2000 936.2400 414.1800Q935.2600 415.1600 933.7200 415.1600L933.7200 415.1600ZM982.7200 501.4000L982.7200 501.4000Q974.3200 501.4000 968.3700 499.4400Q962.4200 497.4800 958.6400 494.5400Q954.8600 491.6000 953.0400 488.6600Q951.2200 485.7200 951.0800 483.7600L951.0800 483.7600Q950.9400 482.2200 951.9900 481.3100Q953.0400 480.4000 954.3000 480.4000L954.3000 480.4000L965.3600 480.4000Q965.9200 480.4000 966.3400 480.5400Q966.7600 480.6800 967.4600 481.3800L967.4600 481.3800Q969.2800 482.9200 971.3100 484.6000Q973.3400 486.2800 976.1400 487.4700Q978.9400 488.6600 983.1400 488.6600L983.1400 488.6600Q988.6000 488.6600 992.3100 486.4900Q996.0200 484.3200 996.0200 480.2600L996.0200 480.2600Q996.0200 477.3200 994.4100 475.5000Q992.8000 473.6800 988.4600 472.2100Q984.1200 470.7400 976.1400 469.0600L976.1400 469.0600Q968.3000 467.2400 963.1200 464.4400Q957.9400 461.6400 955.4200 457.4400Q952.9000 453.2400 952.9000 447.6400L952.9000 447.6400Q952.9000 442.1800 956.1900 437.2100Q959.4800 432.2400 965.9900 429.0200Q972.5000 425.8000 982.1600 425.8000L982.1600 425.8000Q989.7200 425.8000 995.3200 427.6900Q1000.9200 429.5800 1004.6300 432.3800Q1008.3400 435.1800 1010.3000 438.0500Q1012.2600 440.9200 1012.4000 443.0200L1012.4000 443.0200Q1012.5400 444.5600 1011.5600 445.4700Q1010.5800 446.3800 1009.3200 446.3800L1009.3200 446.3800L998.9600 446.3800Q998.2600 446.3800 997.7000 446.1000Q997.1400 445.8200 996.5800 445.4000L996.5800 445.4000Q995.0400 444 993.2200 442.3900Q991.4000 440.7800 988.8100 439.6600Q986.2200 438.5400 982.0200 438.5400L982.0200 438.5400Q976.7000 438.5400 973.9000 440.8500Q971.1000 443.1600 971.1000 446.6600L971.1000 446.6600Q971.1000 449.0400 972.4300 450.7900Q973.7600 452.5400 977.8200 454.0800Q981.8800 455.6200 990.1400 457.3000L990.1400 457.3000Q999.5200 458.9800 1005.0500 462.2700Q1010.5800 465.5600 1012.8900 469.8300Q1015.2000 474.1000 1015.2000 479.2800L1015.2000 479.2800Q1015.2000 485.5800 1011.4900 490.6200Q1007.7800 495.6600 1000.5700 498.5300Q993.3600 501.4000 982.7200 501.4000ZM1089.2600 501.4000L1089.2600 501.4000Q1080.8600 501.4000 1074.9100 499.4400Q1068.9600 497.4800 1065.1800 494.5400Q1061.4000 491.6000 1059.5800 488.6600Q1057.7600 485.7200 1057.6200 483.7600L1057.6200 483.7600Q1057.4800 482.2200 1058.5300 481.3100Q1059.5800 480.4000 1060.8400 480.4000L1060.8400 480.4000L1071.9000 480.4000Q1072.4600 480.4000 1072.8800 480.5400Q1073.3000 480.6800 1074 481.3800L1074 481.3800Q1075.8200 482.9200 1077.8500 484.6000Q1079.8800 486.2800 1082.6800 487.4700Q1085.4800 488.6600 1089.6800 488.6600L1089.6800 488.6600Q1095.1400 488.6600 1098.8500 486.4900Q1102.5600 484.3200 1102.5600 480.2600L1102.5600 480.2600Q1102.5600 477.3200 1100.9500 475.5000Q1099.3400 473.6800 1095 472.2100Q1090.6600 470.7400 1082.6800 469.0600L1082.6800 469.0600Q1074.8400 467.2400 1069.6600 464.4400Q1064.4800 461.6400 1061.9600 457.4400Q1059.4400 453.2400 1059.4400 447.6400L1059.4400 447.6400Q1059.4400 442.1800 1062.7300 437.2100Q1066.0200 432.2400 1072.5300 429.0200Q1079.0400 425.8000 1088.7000 425.8000L1088.7000 425.8000Q1096.2600 425.8000 1101.8600 427.6900Q1107.4600 429.5800 1111.1700 432.3800Q1114.8800 435.1800 1116.8400 438.0500Q1118.8000 440.9200 1118.9400 443.0200L1118.9400 443.0200Q1119.0800 444.5600 1118.1000 445.4700Q1117.1200 446.3800 1115.8600 446.3800L1115.8600 446.3800L1105.5000 446.3800Q1104.8000 446.3800 1104.2400 446.1000Q1103.6800 445.8200 1103.1200 445.4000L1103.1200 445.4000Q1101.5800 444 1099.7600 442.3900Q1097.9400 440.7800 1095.3500 439.6600Q1092.7600 438.5400 1088.5600 438.5400L1088.5600 438.5400Q1083.2400 438.5400 1080.4400 440.8500Q1077.6400 443.1600 1077.6400 446.6600L1077.6400 446.6600Q1077.6400 449.0400 1078.9700 450.7900Q1080.3000 452.5400 1084.3600 454.0800Q1088.4200 455.6200 1096.6800 457.3000L1096.6800 457.3000Q1106.0600 458.9800 1111.5900 462.2700Q1117.1200 465.5600 1119.4300 469.8300Q1121.7400 474.1000 1121.7400 479.2800L1121.7400 479.2800Q1121.7400 485.5800 1118.0300 490.6200Q1114.3200 495.6600 1107.1100 498.5300Q1099.9000 501.4000 1089.2600 501.4000ZM1157.3000 501.4000L1157.3000 501.4000Q1150.0200 501.4000 1144.1400 498.5300Q1138.2600 495.6600 1134.8300 490.8300Q1131.4000 486 1131.4000 479.9800L1131.4000 479.9800Q1131.4000 470.1800 1139.3800 464.3700Q1147.3600 458.5600 1160.2400 456.6000L1160.2400 456.6000L1179.4200 453.8000L1179.4200 450.8600Q1179.4200 444.9800 1176.4800 441.7600Q1173.5400 438.5400 1166.4000 438.5400L1166.4000 438.5400Q1161.3600 438.5400 1158.2100 440.5700Q1155.0600 442.6000 1153.5200 445.9600L1153.5200 445.9600Q1152.4000 447.7800 1150.3000 447.7800L1150.3000 447.7800L1139.2400 447.7800Q1137.7000 447.7800 1136.9300 446.9400Q1136.1600 446.1000 1136.1600 444.7000L1136.1600 444.7000Q1136.3000 442.4600 1138.0500 439.2400Q1139.8000 436.0200 1143.3700 433.0100Q1146.9400 430 1152.6800 427.9000Q1158.4200 425.8000 1166.5400 425.8000L1166.5400 425.8000Q1175.3600 425.8000 1181.4500 427.9700Q1187.5400 430.1400 1191.1800 433.7800Q1194.8200 437.4200 1196.5000 442.3200Q1198.1800 447.2200 1198.1800 452.6800L1198.1800 452.6800L1198.1800 496.6400Q1198.1800 498.0400 1197.2000 499.0200Q1196.2200 500 1194.8200 500L1194.8200 500L1183.4800 500Q1181.9400 500 1181.0300 499.0200Q1180.1200 498.0400 1180.1200 496.6400L1180.1200 496.6400L1180.1200 491.1800Q1178.3000 493.7000 1175.2200 496.0800Q1172.1400 498.4600 1167.7300 499.9300Q1163.3200 501.4000 1157.3000 501.4000ZM1162.0600 488.1000L1162.0600 488.1000Q1166.9600 488.1000 1170.9500 486Q1174.9400 483.9000 1177.2500 479.4900Q1179.5600 475.0800 1179.5600 468.3600L1179.5600 468.3600L1179.5600 465.4200L1165.5600 467.6600Q1157.3000 468.9200 1153.2400 471.7200Q1149.1800 474.5200 1149.1800 478.5800L1149.1800 478.5800Q1149.1800 481.6600 1151.0700 483.8300Q1152.9600 486 1155.9000 487.0500Q1158.8400 488.1000 1162.0600 488.1000ZM1174.2400 417.4000L1174.2400 417.4000Q1170.6000 417.4000 1168.3600 416.2100Q1166.1200 415.0200 1164.2300 413.7600Q1162.3400 412.5000 1160.1000 412.5000L1160.1000 412.5000Q1158.2800 412.5000 1157.5100 413.5500Q1156.7400 414.6000 1156.0400 415.6500Q1155.3400 416.7000 1153.8000 416.7000L1153.8000 416.7000L1147.3600 416.7000Q1146.3800 416.7000 1145.6800 416Q1144.9800 415.3000 1144.9800 414.3200L1144.9800 414.3200Q1144.9800 412.2200 1145.7500 409.6300Q1146.5200 407.0400 1148.2000 404.6600Q1149.8800 402.2800 1152.4700 400.8100Q1155.0600 399.3400 1158.5600 399.3400L1158.5600 399.3400Q1162.3400 399.3400 1164.5800 400.5300Q1166.8200 401.7200 1168.7100 402.9800Q1170.6000 404.2400 1172.8400 404.2400L1172.8400 404.2400Q1174.6600 404.2400 1175.4300 403.1200Q1176.2000 402 1176.9000 400.9500Q1177.6000 399.9000 1179.1400 399.9000L1179.1400 399.9000L1185.5800 399.9000Q1186.7000 399.9000 1187.3300 400.6700Q1187.9600 401.4400 1187.9600 402.4200L1187.9600 402.4200Q1187.9600 404.5200 1187.1900 407.1100Q1186.4200 409.7000 1184.7400 412.0800Q1183.0600 414.4600 1180.4700 415.9300Q1177.8800 417.4000 1174.2400 417.4000ZM1248.3000 501.4000L1248.3000 501.4000Q1237.1000 501.4000 1229.4700 497.4800Q1221.8400 493.5600 1217.8500 486.4200Q1213.8600 479.2800 1213.3000 469.7600L1213.3000 469.7600Q1213.1600 467.2400 1213.1600 463.6000Q1213.1600 459.9600 1213.3000 457.4400L1213.3000 457.4400Q1213.8600 447.7800 1217.9900 440.7100Q1222.1200 433.6400 1229.7500 429.7200Q1237.3800 425.8000 1248.3000 425.8000L1248.3000 425.8000Q1259.2200 425.8000 1266.8500 429.7200Q1274.4800 433.6400 1278.6100 440.7100Q1282.7400 447.7800 1283.3000 457.4400L1283.3000 457.4400Q1283.4400 459.9600 1283.4400 463.6000Q1283.4400 467.2400 1283.3000 469.7600L1283.3000 469.7600Q1282.7400 479.2800 1278.7500 486.4200Q1274.7600 493.5600 1267.1300 497.4800Q1259.5000 501.4000 1248.3000 501.4000ZM1248.3000 487.5400L1248.3000 487.5400Q1255.7200 487.5400 1259.7800 482.8500Q1263.8400 478.1600 1264.2600 469.0600L1264.2600 469.0600Q1264.4000 466.9600 1264.4000 463.6000Q1264.4000 460.2400 1264.2600 458.1400L1264.2600 458.1400Q1263.8400 449.0400 1259.7800 444.3500Q1255.7200 439.6600 1248.3000 439.6600L1248.3000 439.6600Q1240.8800 439.6600 1236.8200 444.3500Q1232.7600 449.0400 1232.3400 458.1400L1232.3400 458.1400Q1232.2000 460.2400 1232.2000 463.6000Q1232.2000 466.9600 1232.3400 469.0600L1232.3400 469.0600Q1232.7600 478.1600 1236.8200 482.8500Q1240.8800 487.5400 1248.3000 487.5400ZM1363.2400 501.4000L1363.2400 501.4000Q1352.0400 501.4000 1344.4100 497.4800Q1336.7800 493.5600 1332.7900 486.4200Q1328.8000 479.2800 1328.2400 469.7600L1328.2400 469.7600Q1328.1000 467.2400 1328.1000 463.6000Q1328.1000 459.9600 1328.2400 457.4400L1328.2400 457.4400Q1328.8000 447.7800 1332.9300 440.7100Q1337.0600 433.6400 1344.6900 429.7200Q1352.3200 425.8000 1363.2400 425.8000L1363.2400 425.8000Q1374.1600 425.8000 1381.7900 429.7200Q1389.4200 433.6400 1393.5500 440.7100Q1397.6800 447.7800 1398.2400 457.4400L1398.2400 457.4400Q1398.3800 459.9600 1398.3800 463.6000Q1398.3800 467.2400 1398.2400 469.7600L1398.2400 469.7600Q1397.6800 479.2800 1393.6900 486.4200Q1389.7000 493.5600 1382.0700 497.4800Q1374.4400 501.4000 1363.2400 501.4000ZM1363.2400 487.5400L1363.2400 487.5400Q1370.6600 487.5400 1374.7200 482.8500Q1378.7800 478.1600 1379.2000 469.0600L1379.2000 469.0600Q1379.3400 466.9600 1379.3400 463.6000Q1379.3400 460.2400 1379.2000 458.1400L1379.2000 458.1400Q1378.7800 449.0400 1374.7200 444.3500Q1370.6600 439.6600 1363.2400 439.6600L1363.2400 439.6600Q1355.8200 439.6600 1351.7600 444.3500Q1347.7000 449.0400 1347.2800 458.1400L1347.2800 458.1400Q1347.1400 460.2400 1347.1400 463.6000Q1347.1400 466.9600 1347.2800 469.0600L1347.2800 469.0600Q1347.7000 478.1600 1351.7600 482.8500Q1355.8200 487.5400 1363.2400 487.5400ZM1441.5000 501.4000L1441.5000 501.4000Q1433.1000 501.4000 1427.1500 499.4400Q1421.2000 497.4800 1417.4200 494.5400Q1413.6400 491.6000 1411.8200 488.6600Q1410.0000 485.7200 1409.8600 483.7600L1409.8600 483.7600Q1409.7200 482.2200 1410.7700 481.3100Q1411.8200 480.4000 1413.0800 480.4000L1413.0800 480.4000L1424.1400 480.4000Q1424.7000 480.4000 1425.1200 480.5400Q1425.5400 480.6800 1426.2400 481.3800L1426.2400 481.3800Q1428.0600 482.9200 1430.0900 484.6000Q1432.1200 486.2800 1434.9200 487.4700Q1437.7200 488.6600 1441.9200 488.6600L1441.9200 488.6600Q1447.3800 488.6600 1451.0900 486.4900Q1454.8000 484.3200 1454.8000 480.2600L1454.8000 480.2600Q1454.8000 477.3200 1453.1900 475.5000Q1451.5800 473.6800 1447.2400 472.2100Q1442.9000 470.7400 1434.9200 469.0600L1434.9200 469.0600Q1427.0800 467.2400 1421.9000 464.4400Q1416.7200 461.6400 1414.2000 457.4400Q1411.6800 453.2400 1411.6800 447.6400L1411.6800 447.6400Q1411.6800 442.1800 1414.9700 437.2100Q1418.2600 432.2400 1424.7700 429.0200Q1431.2800 425.8000 1440.9400 425.8000L1440.9400 425.8000Q1448.5000 425.8000 1454.1000 427.6900Q1459.7000 429.5800 1463.4100 432.3800Q1467.1200 435.1800 1469.0800 438.0500Q1471.0400 440.9200 1471.1800 443.0200L1471.1800 443.0200Q1471.3200 444.5600 1470.3400 445.4700Q1469.3600 446.3800 1468.1000 446.3800L1468.1000 446.3800L1457.7400 446.3800Q1457.0400 446.3800 1456.4800 446.1000Q1455.9200 445.8200 1455.3600 445.4000L1455.3600 445.4000Q1453.8200 444 1452.0000 442.3900Q1450.1800 440.7800 1447.5900 439.6600Q1445.0000 438.5400 1440.8000 438.5400L1440.8000 438.5400Q1435.4800 438.5400 1432.6800 440.8500Q1429.8800 443.1600 1429.8800 446.6600L1429.8800 446.6600Q1429.8800 449.0400 1431.2100 450.7900Q1432.5400 452.5400 1436.6000 454.0800Q1440.6600 455.6200 1448.9200 457.3000L1448.9200 457.3000Q1458.3000 458.9800 1463.8300 462.2700Q1469.3600 465.5600 1471.6700 469.8300Q1473.9800 474.1000 1473.9800 479.2800L1473.9800 479.2800Q1473.9800 485.5800 1470.2700 490.6200Q1466.5600 495.6600 1459.3500 498.5300Q1452.1400 501.4000 1441.5000 501.4000ZM186.2600 641.4000L186.2600 641.4000Q178.9800 641.4000 173.4500 638.9500Q167.9200 636.5000 164.2800 632.0200Q160.6400 627.5400 158.6800 621.4500Q156.7200 615.3600 156.4400 608.0800L156.4400 608.0800Q156.3000 605.5600 156.3000 603.5300Q156.3000 601.5000 156.4400 598.9800L156.4400 598.9800Q156.7200 591.9800 158.6100 585.9600Q160.5000 579.9400 164.2100 575.3900Q167.9200 570.8400 173.4500 568.3200Q178.9800 565.8000 186.2600 565.8000L186.2600 565.8000Q193.8200 565.8000 199.0700 568.3900Q204.3200 570.9800 207.8200 575.0400L207.8200 575.0400L207.8200 543.9600Q207.8200 542.5600 208.7300 541.5800Q209.6400 540.6000 211.1800 540.6000L211.1800 540.6000L223.0800 540.6000Q224.4800 540.6000 225.4600 541.5800Q226.4400 542.5600 226.4400 543.9600L226.4400 543.9600L226.4400 636.6400Q226.4400 638.0400 225.4600 639.0200Q224.4800 640 223.0800 640L223.0800 640L212.0200 640Q210.4800 640 209.5700 639.0200Q208.6600 638.0400 208.6600 636.6400L208.6600 636.6400L208.6600 631.4600Q205.1600 635.8000 199.7700 638.6000Q194.3800 641.4000 186.2600 641.4000ZM191.4400 626.4200L191.4400 626.4200Q197.3200 626.4200 200.8200 623.7600Q204.3200 621.1000 206 616.9700Q207.6800 612.8400 207.8200 608.5000L207.8200 608.5000Q207.9600 605.9800 207.9600 603.1100Q207.9600 600.2400 207.8200 597.7200L207.8200 597.7200Q207.6800 593.5200 205.8600 589.6700Q204.0400 585.8200 200.5400 583.3000Q197.0400 580.7800 191.4400 580.7800L191.4400 580.7800Q185.5600 580.7800 182.1300 583.3700Q178.7000 585.9600 177.1600 590.1600Q175.6200 594.3600 175.3400 599.4000L175.3400 599.4000Q175.2000 603.6000 175.3400 607.8000L175.3400 607.8000Q175.6200 612.8400 177.1600 617.0400Q178.7000 621.2400 182.1300 623.8300Q185.5600 626.4200 191.4400 626.4200ZM260.0400 640L248.4200 640Q247.0200 640 246.0400 639.0200Q245.0600 638.0400 245.0600 636.6400L245.0600 636.6400L245.0600 570.5600Q245.0600 569.1600 246.0400 568.1800Q247.0200 567.2000 248.4200 567.2000L248.4200 567.2000L260.0400 567.2000Q261.5800 567.2000 262.4900 568.1800Q263.4000 569.1600 263.4000 570.5600L263.4000 570.5600L263.4000 636.6400Q263.4000 638.0400 262.4900 639.0200Q261.5800 640 260.0400 640L260.0400 640ZM260.6000 555.1600L247.8600 555.1600Q246.4600 555.1600 245.4800 554.1800Q244.5000 553.2000 244.5000 551.8000L244.5000 551.8000L244.5000 541.7200Q244.5000 540.3200 245.4800 539.3400Q246.4600 538.3600 247.8600 538.3600L247.8600 538.3600L260.6000 538.3600Q262.1400 538.3600 263.1200 539.3400Q264.1000 540.3200 264.1000 541.7200L264.1000 541.7200L264.1000 551.8000Q264.1000 553.2000 263.1200 554.1800Q262.1400 555.1600 260.6000 555.1600L260.6000 555.1600ZM304.7000 640L293.2200 640Q291.8200 640 290.8400 639.0200Q289.8600 638.0400 289.8600 636.6400L289.8600 636.6400L289.8600 582.0400L278.5200 582.0400Q277.1200 582.0400 276.1400 581.0600Q275.1600 580.0800 275.1600 578.5400L275.1600 578.5400L275.1600 570.5600Q275.1600 569.1600 276.1400 568.1800Q277.1200 567.2000 278.5200 567.2000L278.5200 567.2000L289.8600 567.2000L289.8600 561.4600Q289.8600 553.0600 292.9400 547.5300Q296.0200 542 302.0400 539.2000Q308.0600 536.4000 317.3000 536.4000L317.3000 536.4000L326.8200 536.4000Q328.3600 536.4000 329.2700 537.3800Q330.1800 538.3600 330.1800 539.7600L330.1800 539.7600L330.1800 547.7400Q330.1800 549.2800 329.2700 550.2600Q328.3600 551.2400 326.8200 551.2400L326.8200 551.2400L317.8600 551.2400Q312.2600 551.2400 310.1600 554.0400Q308.0600 556.8400 308.0600 562.1600L308.0600 562.1600L308.0600 567.2000L325.4200 567.2000Q326.9600 567.2000 327.8700 568.1800Q328.7800 569.1600 328.7800 570.5600L328.7800 570.5600L328.7800 578.5400Q328.7800 580.0800 327.8700 581.0600Q326.9600 582.0400 325.4200 582.0400L325.4200 582.0400L308.0600 582.0400L308.0600 636.6400Q308.0600 638.0400 307.0800 639.0200Q306.1000 640 304.7000 640L304.7000 640ZM371.3400 641.4000L371.3400 641.4000Q355.8000 641.4000 346.7000 632.4400Q337.6000 623.4800 336.9000 606.9600L336.9000 606.9600Q336.7600 605.5600 336.7600 603.3900Q336.7600 601.2200 336.9000 599.9600L336.9000 599.9600Q337.4600 589.3200 341.7300 581.6900Q346 574.0600 353.5600 569.9300Q361.1200 565.8000 371.3400 565.8000L371.3400 565.8000Q382.6800 565.8000 390.3800 570.4900Q398.0800 575.1800 402 583.5100Q405.9200 591.8400 405.9200 602.7600L405.9200 602.7600L405.9200 605.7000Q405.9200 607.1000 404.9400 608.0800Q403.9600 609.0600 402.4200 609.0600L402.4200 609.0600L355.9400 609.0600Q355.9400 609.0600 355.9400 609.4800Q355.9400 609.9000 355.9400 610.1800L355.9400 610.1800Q356.0800 615.0800 357.8300 619.2100Q359.5800 623.3400 363.0100 625.8600Q366.4400 628.3800 371.2000 628.3800L371.2000 628.3800Q375.1200 628.3800 377.7800 627.1900Q380.4400 626 382.1200 624.4600Q383.8000 622.9200 384.5000 621.9400L384.5000 621.9400Q385.7600 620.2600 386.5300 619.9100Q387.3000 619.5600 388.8400 619.5600L388.8400 619.5600L400.8800 619.5600Q402.2800 619.5600 403.1900 620.4000Q404.1000 621.2400 403.9600 622.5000L403.9600 622.5000Q403.8200 624.7400 401.6500 627.9600Q399.4800 631.1800 395.4200 634.2600Q391.3600 637.3400 385.2700 639.3700Q379.1800 641.4000 371.3400 641.4000ZM355.9400 596.8800L355.9400 597.3000L386.8800 597.3000L386.8800 596.8800Q386.8800 591.4200 385.0600 587.2900Q383.2400 583.1600 379.7400 580.8500Q376.2400 578.5400 371.3400 578.5400L371.3400 578.5400Q366.4400 578.5400 362.9400 580.8500Q359.4400 583.1600 357.6900 587.2900Q355.9400 591.4200 355.9400 596.8800L355.9400 596.8800ZM436.3000 640L424.1200 640Q422.7200 640 421.7400 639.0200Q420.7600 638.0400 420.7600 636.6400L420.7600 636.6400L420.7600 570.7000Q420.7600 569.1600 421.7400 568.1800Q422.7200 567.2000 424.1200 567.2000L424.1200 567.2000L435.4600 567.2000Q436.8600 567.2000 437.9100 568.1800Q438.9600 569.1600 438.9600 570.7000L438.9600 570.7000L438.9600 576.4400Q442.1800 571.9600 447.2900 569.5800Q452.4000 567.2000 459.1200 567.2000L459.1200 567.2000L464.8600 567.2000Q466.4000 567.2000 467.3100 568.1800Q468.2200 569.1600 468.2200 570.5600L468.2200 570.5600L468.2200 580.6400Q468.2200 582.0400 467.3100 583.0200Q466.4000 584 464.8600 584L464.8600 584L453.9400 584Q447.2200 584 443.5100 587.7100Q439.8000 591.4200 439.8000 598.1400L439.8000 598.1400L439.8000 636.6400Q439.8000 638.0400 438.8200 639.0200Q437.8400 640 436.3000 640L436.3000 640ZM510.5000 641.4000L510.5000 641.4000Q494.9600 641.4000 485.8600 632.4400Q476.7600 623.4800 476.0600 606.9600L476.0600 606.9600Q475.9200 605.5600 475.9200 603.3900Q475.9200 601.2200 476.0600 599.9600L476.0600 599.9600Q476.6200 589.3200 480.8900 581.6900Q485.1600 574.0600 492.7200 569.9300Q500.2800 565.8000 510.5000 565.8000L510.5000 565.8000Q521.8400 565.8000 529.5400 570.4900Q537.2400 575.1800 541.1600 583.5100Q545.0800 591.8400 545.0800 602.7600L545.0800 602.7600L545.0800 605.7000Q545.0800 607.1000 544.1000 608.0800Q543.1200 609.0600 541.5800 609.0600L541.5800 609.0600L495.1000 609.0600Q495.1000 609.0600 495.1000 609.4800Q495.1000 609.9000 495.1000 610.1800L495.1000 610.1800Q495.2400 615.0800 496.9900 619.2100Q498.7400 623.3400 502.1700 625.8600Q505.6000 628.3800 510.3600 628.3800L510.3600 628.3800Q514.2800 628.3800 516.9400 627.1900Q519.6000 626 521.2800 624.4600Q522.9600 622.9200 523.6600 621.9400L523.6600 621.9400Q524.9200 620.2600 525.6900 619.9100Q526.4600 619.5600 528 619.5600L528 619.5600L540.0400 619.5600Q541.4400 619.5600 542.3500 620.4000Q543.2600 621.2400 543.1200 622.5000L543.1200 622.5000Q542.9800 624.7400 540.8100 627.9600Q538.6400 631.1800 534.5800 634.2600Q530.5200 637.3400 524.4300 639.3700Q518.3400 641.4000 510.5000 641.4000ZM495.1000 596.8800L495.1000 597.3000L526.0400 597.3000L526.0400 596.8800Q526.0400 591.4200 524.2200 587.2900Q522.4000 583.1600 518.9000 580.8500Q515.4000 578.5400 510.5000 578.5400L510.5000 578.5400Q505.6000 578.5400 502.1000 580.8500Q498.6000 583.1600 496.8500 587.2900Q495.1000 591.4200 495.1000 596.8800L495.1000 596.8800ZM575.6000 640L563.2800 640Q561.8800 640 560.9000 639.0200Q559.9200 638.0400 559.9200 636.6400L559.9200 636.6400L559.9200 570.5600Q559.9200 569.1600 560.9000 568.1800Q561.8800 567.2000 563.2800 567.2000L563.2800 567.2000L574.7600 567.2000Q576.1600 567.2000 577.1400 568.1800Q578.1200 569.1600 578.1200 570.5600L578.1200 570.5600L578.1200 576.3000Q581.7600 571.8200 587.4300 568.8100Q593.1000 565.8000 601.5000 565.8000L601.5000 565.8000Q610.0400 565.8000 616.3400 569.6500Q622.6400 573.5000 626.0700 580.5000Q629.5000 587.5000 629.5000 597.3000L629.5000 597.3000L629.5000 636.6400Q629.5000 638.0400 628.5200 639.0200Q627.5400 640 626.1400 640L626.1400 640L613.8200 640Q612.4200 640 611.4400 639.0200Q610.4600 638.0400 610.4600 636.6400L610.4600 636.6400L610.4600 598.1400Q610.4600 590.0200 606.4700 585.4000Q602.4800 580.7800 594.9200 580.7800L594.9200 580.7800Q587.6400 580.7800 583.3000 585.4000Q578.9600 590.0200 578.9600 598.1400L578.9600 598.1400L578.9600 636.6400Q578.9600 638.0400 577.9800 639.0200Q577 640 575.6000 640L575.6000 640ZM691.5200 640L680.1800 640Q671.7800 640 666.0400 637.0600Q660.3000 634.1200 657.5000 628.3100Q654.7000 622.5000 654.7000 613.8200L654.7000 613.8200L654.7000 582.0400L643.6400 582.0400Q642.2400 582.0400 641.2600 581.0600Q640.2800 580.0800 640.2800 578.5400L640.2800 578.5400L640.2800 570.5600Q640.2800 569.1600 641.2600 568.1800Q642.2400 567.2000 643.6400 567.2000L643.6400 567.2000L654.7000 567.2000L654.7000 543.9600Q654.7000 542.5600 655.6100 541.5800Q656.5200 540.6000 658.0600 540.6000L658.0600 540.6000L669.4000 540.6000Q670.8000 540.6000 671.7800 541.5800Q672.7600 542.5600 672.7600 543.9600L672.7600 543.9600L672.7600 567.2000L690.2600 567.2000Q691.6600 567.2000 692.6400 568.1800Q693.6200 569.1600 693.6200 570.5600L693.6200 570.5600L693.6200 578.5400Q693.6200 580.0800 692.6400 581.0600Q691.6600 582.0400 690.2600 582.0400L690.2600 582.0400L672.7600 582.0400L672.7600 612.4200Q672.7600 618.1600 674.7900 621.3800Q676.8200 624.6000 681.8600 624.6000L681.8600 624.6000L691.5200 624.6000Q692.9200 624.6000 693.9000 625.5800Q694.8800 626.5600 694.8800 627.9600L694.8800 627.9600L694.8800 636.6400Q694.8800 638.0400 693.9000 639.0200Q692.9200 640 691.5200 640L691.5200 640ZM738.7000 641.4000L738.7000 641.4000Q723.1600 641.4000 714.0600 632.4400Q704.9600 623.4800 704.2600 606.9600L704.2600 606.9600Q704.1200 605.5600 704.1200 603.3900Q704.1200 601.2200 704.2600 599.9600L704.2600 599.9600Q704.8200 589.3200 709.0900 581.6900Q713.3600 574.0600 720.9200 569.9300Q728.4800 565.8000 738.7000 565.8000L738.7000 565.8000Q750.0400 565.8000 757.7400 570.4900Q765.4400 575.1800 769.3600 583.5100Q773.2800 591.8400 773.2800 602.7600L773.2800 602.7600L773.2800 605.7000Q773.2800 607.1000 772.3000 608.0800Q771.3200 609.0600 769.7800 609.0600L769.7800 609.0600L723.3000 609.0600Q723.3000 609.0600 723.3000 609.4800Q723.3000 609.9000 723.3000 610.1800L723.3000 610.1800Q723.4400 615.0800 725.1900 619.2100Q726.9400 623.3400 730.3700 625.8600Q733.8000 628.3800 738.5600 628.3800L738.5600 628.3800Q742.4800 628.3800 745.1400 627.1900Q747.8000 626 749.4800 624.4600Q751.1600 622.9200 751.8600 621.9400L751.8600 621.9400Q753.1200 620.2600 753.8900 619.9100Q754.6600 619.5600 756.2000 619.5600L756.2000 619.5600L768.2400 619.5600Q769.6400 619.5600 770.5500 620.4000Q771.4600 621.2400 771.3200 622.5000L771.3200 622.5000Q771.1800 624.7400 769.0100 627.9600Q766.8400 631.1800 762.7800 634.2600Q758.7200 637.3400 752.6300 639.3700Q746.5400 641.4000 738.7000 641.4000ZM723.3000 596.8800L723.3000 597.3000L754.2400 597.3000L754.2400 596.8800Q754.2400 591.4200 752.4200 587.2900Q750.6000 583.1600 747.1000 580.8500Q743.6000 578.5400 738.7000 578.5400L738.7000 578.5400Q733.8000 578.5400 730.3000 580.8500Q726.8000 583.1600 725.0500 587.2900Q723.3000 591.4200 723.3000 596.8800L723.3000 596.8800ZM815.7000 641.4000L815.7000 641.4000Q807.3000 641.4000 801.3500 639.4400Q795.4000 637.4800 791.6200 634.5400Q787.8400 631.6000 786.0200 628.6600Q784.2000 625.7200 784.0600 623.7600L784.0600 623.7600Q783.9200 622.2200 784.9700 621.3100Q786.0200 620.4000 787.2800 620.4000L787.2800 620.4000L798.3400 620.4000Q798.9000 620.4000 799.3200 620.5400Q799.7400 620.6800 800.4400 621.3800L800.4400 621.3800Q802.2600 622.9200 804.2900 624.6000Q806.3200 626.2800 809.1200 627.4700Q811.9200 628.6600 816.1200 628.6600L816.1200 628.6600Q821.5800 628.6600 825.2900 626.4900Q829.0000 624.3200 829.0000 620.2600L829.0000 620.2600Q829.0000 617.3200 827.3900 615.5000Q825.7800 613.6800 821.4400 612.2100Q817.1000 610.7400 809.1200 609.0600L809.1200 609.0600Q801.2800 607.2400 796.1000 604.4400Q790.9200 601.6400 788.4000 597.4400Q785.8800 593.2400 785.8800 587.6400L785.8800 587.6400Q785.8800 582.1800 789.1700 577.2100Q792.4600 572.2400 798.9700 569.0200Q805.4800 565.8000 815.1400 565.8000L815.1400 565.8000Q822.7000 565.8000 828.3000 567.6900Q833.9000 569.5800 837.6100 572.3800Q841.3200 575.1800 843.2800 578.0500Q845.2400 580.9200 845.3800 583.0200L845.3800 583.0200Q845.5200 584.5600 844.5400 585.4700Q843.5600 586.3800 842.3000 586.3800L842.3000 586.3800L831.9400 586.3800Q831.2400 586.3800 830.6800 586.1000Q830.1200 585.8200 829.5600 585.4000L829.5600 585.4000Q828.0200 584 826.2000 582.3900Q824.3800 580.7800 821.7900 579.6600Q819.2000 578.5400 815.0000 578.5400L815.0000 578.5400Q809.6800 578.5400 806.8800 580.8500Q804.0800 583.1600 804.0800 586.6600L804.0800 586.6600Q804.0800 589.0400 805.4100 590.7900Q806.7400 592.5400 810.8000 594.0800Q814.8600 595.6200 823.1200 597.3000L823.1200 597.3000Q832.5000 598.9800 838.0300 602.2700Q843.5600 605.5600 845.8700 609.8300Q848.1800 614.1000 848.1800 619.2800L848.1800 619.2800Q848.1800 625.5800 844.4700 630.6200Q840.7600 635.6600 833.5500 638.5300Q826.3400 641.4000 815.7000 641.4000ZM938.9000 640L927.5600 640Q919.1600 640 913.4200 637.0600Q907.6800 634.1200 904.8800 628.3100Q902.0800 622.5000 902.0800 613.8200L902.0800 613.8200L902.0800 582.0400L891.0200 582.0400Q889.6200 582.0400 888.6400 581.0600Q887.6600 580.0800 887.6600 578.5400L887.6600 578.5400L887.6600 570.5600Q887.6600 569.1600 888.6400 568.1800Q889.6200 567.2000 891.0200 567.2000L891.0200 567.2000L902.0800 567.2000L902.0800 543.9600Q902.0800 542.5600 902.9900 541.5800Q903.9000 540.6000 905.4400 540.6000L905.4400 540.6000L916.7800 540.6000Q918.1800 540.6000 919.1600 541.5800Q920.1400 542.5600 920.1400 543.9600L920.1400 543.9600L920.1400 567.2000L937.6400 567.2000Q939.0400 567.2000 940.0200 568.1800Q941.0000 569.1600 941.0000 570.5600L941.0000 570.5600L941.0000 578.5400Q941.0000 580.0800 940.0200 581.0600Q939.0400 582.0400 937.6400 582.0400L937.6400 582.0400L920.1400 582.0400L920.1400 612.4200Q920.1400 618.1600 922.1700 621.3800Q924.2000 624.6000 929.2400 624.6000L929.2400 624.6000L938.9000 624.6000Q940.3000 624.6000 941.2800 625.5800Q942.2600 626.5600 942.2600 627.9600L942.2600 627.9600L942.2600 636.6400Q942.2600 638.0400 941.2800 639.0200Q940.3000 640 938.9000 640L938.9000 640ZM969.7000 640L958.0800 640Q956.6800 640 955.7000 639.0200Q954.7200 638.0400 954.7200 636.6400L954.7200 636.6400L954.7200 570.5600Q954.7200 569.1600 955.7000 568.1800Q956.6800 567.2000 958.0800 567.2000L958.0800 567.2000L969.7000 567.2000Q971.2400 567.2000 972.1500 568.1800Q973.0600 569.1600 973.0600 570.5600L973.0600 570.5600L973.0600 636.6400Q973.0600 638.0400 972.1500 639.0200Q971.2400 640 969.7000 640L969.7000 640ZM970.2600 555.1600L957.5200 555.1600Q956.1200 555.1600 955.1400 554.1800Q954.1600 553.2000 954.1600 551.8000L954.1600 551.8000L954.1600 541.7200Q954.1600 540.3200 955.1400 539.3400Q956.1200 538.3600 957.5200 538.3600L957.5200 538.3600L970.2600 538.3600Q971.8000 538.3600 972.7800 539.3400Q973.7600 540.3200 973.7600 541.7200L973.7600 541.7200L973.7600 551.8000Q973.7600 553.2000 972.7800 554.1800Q971.8000 555.1600 970.2600 555.1600L970.2600 555.1600ZM1007.0800 666.6000L995.1800 666.6000Q993.7800 666.6000 992.8000 665.6200Q991.8200 664.6400 991.8200 663.2400L991.8200 663.2400L991.8200 570.5600Q991.8200 569.1600 992.8000 568.1800Q993.7800 567.2000 995.1800 567.2000L995.1800 567.2000L1006.2400 567.2000Q1007.7800 567.2000 1008.6900 568.1800Q1009.6000 569.1600 1009.6000 570.5600L1009.6000 570.5600L1009.6000 576.1600Q1012.9600 571.6800 1018.4200 568.7400Q1023.8800 565.8000 1032.0000 565.8000L1032.0000 565.8000Q1039.4200 565.8000 1044.8800 568.1800Q1050.3400 570.5600 1053.9800 574.9700Q1057.6200 579.3800 1059.5800 585.4000Q1061.5400 591.4200 1061.8200 598.7000L1061.8200 598.7000Q1061.9600 601.0800 1061.9600 603.6000Q1061.9600 606.1200 1061.8200 608.6400L1061.8200 608.6400Q1061.6800 615.6400 1059.7200 621.5900Q1057.7600 627.5400 1054.0500 631.9500Q1050.3400 636.3600 1044.8800 638.8800Q1039.4200 641.4000 1032.0000 641.4000L1032.0000 641.4000Q1024.4400 641.4000 1019.1200 638.6700Q1013.8000 635.9400 1010.4400 631.4600L1010.4400 631.4600L1010.4400 663.2400Q1010.4400 664.6400 1009.5300 665.6200Q1008.6200 666.6000 1007.0800 666.6000L1007.0800 666.6000ZM1026.8200 626.4200L1026.8200 626.4200Q1032.8400 626.4200 1036.2000 623.8300Q1039.5600 621.2400 1041.1000 617.0400Q1042.6400 612.8400 1042.9200 607.8000L1042.9200 607.8000Q1043.0600 603.6000 1042.9200 599.4000L1042.9200 599.4000Q1042.6400 594.3600 1041.1000 590.1600Q1039.5600 585.9600 1036.2000 583.3700Q1032.8400 580.7800 1026.8200 580.7800L1026.8200 580.7800Q1021.0800 580.7800 1017.5100 583.4400Q1013.9400 586.1000 1012.3300 590.2300Q1010.7200 594.3600 1010.4400 598.7000L1010.4400 598.7000Q1010.3000 601.2200 1010.3000 604.0200Q1010.3000 606.8200 1010.4400 609.4800L1010.4400 609.4800Q1010.5800 613.6800 1012.4000 617.5300Q1014.2200 621.3800 1017.7200 623.9000Q1021.2200 626.4200 1026.8200 626.4200ZM1109.8400 641.4000L1109.8400 641.4000Q1098.6400 641.4000 1091.0100 637.4800Q1083.3800 633.5600 1079.3900 626.4200Q1075.4000 619.2800 1074.8400 609.7600L1074.8400 609.7600Q1074.7000 607.2400 1074.7000 603.6000Q1074.7000 599.9600 1074.8400 597.4400L1074.8400 597.4400Q1075.4000 587.7800 1079.5300 580.7100Q1083.6600 573.6400 1091.2900 569.7200Q1098.9200 565.8000 1109.8400 565.8000L1109.8400 565.8000Q1120.7600 565.8000 1128.3900 569.7200Q1136.0200 573.6400 1140.1500 580.7100Q1144.2800 587.7800 1144.8400 597.4400L1144.8400 597.4400Q1144.9800 599.9600 1144.9800 603.6000Q1144.9800 607.2400 1144.8400 609.7600L1144.8400 609.7600Q1144.2800 619.2800 1140.2900 626.4200Q1136.3000 633.5600 1128.6700 637.4800Q1121.0400 641.4000 1109.8400 641.4000ZM1109.8400 627.5400L1109.8400 627.5400Q1117.2600 627.5400 1121.3200 622.8500Q1125.3800 618.1600 1125.8000 609.0600L1125.8000 609.0600Q1125.9400 606.9600 1125.9400 603.6000Q1125.9400 600.2400 1125.8000 598.1400L1125.8000 598.1400Q1125.3800 589.0400 1121.3200 584.3500Q1117.2600 579.6600 1109.8400 579.6600L1109.8400 579.6600Q1102.4200 579.6600 1098.3600 584.3500Q1094.3000 589.0400 1093.8800 598.1400L1093.8800 598.1400Q1093.7400 600.2400 1093.7400 603.6000Q1093.7400 606.9600 1093.8800 609.0600L1093.8800 609.0600Q1094.3000 618.1600 1098.3600 622.8500Q1102.4200 627.5400 1109.8400 627.5400ZM1188.1000 641.4000L1188.1000 641.4000Q1179.7000 641.4000 1173.7500 639.4400Q1167.8000 637.4800 1164.0200 634.5400Q1160.2400 631.6000 1158.4200 628.6600Q1156.6000 625.7200 1156.4600 623.7600L1156.4600 623.7600Q1156.3200 622.2200 1157.3700 621.3100Q1158.4200 620.4000 1159.6800 620.4000L1159.6800 620.4000L1170.7400 620.4000Q1171.3000 620.4000 1171.7200 620.5400Q1172.1400 620.6800 1172.8400 621.3800L1172.8400 621.3800Q1174.6600 622.9200 1176.6900 624.6000Q1178.7200 626.2800 1181.5200 627.4700Q1184.3200 628.6600 1188.5200 628.6600L1188.5200 628.6600Q1193.9800 628.6600 1197.6900 626.4900Q1201.4000 624.3200 1201.4000 620.2600L1201.4000 620.2600Q1201.4000 617.3200 1199.7900 615.5000Q1198.1800 613.6800 1193.8400 612.2100Q1189.5000 610.7400 1181.5200 609.0600L1181.5200 609.0600Q1173.6800 607.2400 1168.5000 604.4400Q1163.3200 601.6400 1160.8000 597.4400Q1158.2800 593.2400 1158.2800 587.6400L1158.2800 587.6400Q1158.2800 582.1800 1161.5700 577.2100Q1164.8600 572.2400 1171.3700 569.0200Q1177.8800 565.8000 1187.5400 565.8000L1187.5400 565.8000Q1195.1000 565.8000 1200.7000 567.6900Q1206.3000 569.5800 1210.0100 572.3800Q1213.7200 575.1800 1215.6800 578.0500Q1217.6400 580.9200 1217.7800 583.0200L1217.7800 583.0200Q1217.9200 584.5600 1216.9400 585.4700Q1215.9600 586.3800 1214.7000 586.3800L1214.7000 586.3800L1204.3400 586.3800Q1203.6400 586.3800 1203.0800 586.1000Q1202.5200 585.8200 1201.9600 585.4000L1201.9600 585.4000Q1200.4200 584 1198.6000 582.3900Q1196.7800 580.7800 1194.1900 579.6600Q1191.6000 578.5400 1187.4000 578.5400L1187.4000 578.5400Q1182.0800 578.5400 1179.2800 580.8500Q1176.4800 583.1600 1176.4800 586.6600L1176.4800 586.6600Q1176.4800 589.0400 1177.8100 590.7900Q1179.1400 592.5400 1183.2000 594.0800Q1187.2600 595.6200 1195.5200 597.3000L1195.5200 597.3000Q1204.9000 598.9800 1210.4300 602.2700Q1215.9600 605.5600 1218.2700 609.8300Q1220.5800 614.1000 1220.5800 619.2800L1220.5800 619.2800Q1220.5800 625.5800 1216.8700 630.6200Q1213.1600 635.6600 1205.9500 638.5300Q1198.7400 641.4000 1188.1000 641.4000ZM1294.0800 641.4000L1294.0800 641.4000Q1286.8000 641.4000 1281.2700 638.9500Q1275.7400 636.5000 1272.1000 632.0200Q1268.4600 627.5400 1266.5000 621.4500Q1264.5400 615.3600 1264.2600 608.0800L1264.2600 608.0800Q1264.1200 605.5600 1264.1200 603.5300Q1264.1200 601.5000 1264.2600 598.9800L1264.2600 598.9800Q1264.5400 591.9800 1266.4300 585.9600Q1268.3200 579.9400 1272.0300 575.3900Q1275.7400 570.8400 1281.2700 568.3200Q1286.8000 565.8000 1294.0800 565.8000L1294.0800 565.8000Q1301.6400 565.8000 1306.8900 568.3900Q1312.1400 570.9800 1315.6400 575.0400L1315.6400 575.0400L1315.6400 543.9600Q1315.6400 542.5600 1316.5500 541.5800Q1317.4600 540.6000 1319 540.6000L1319 540.6000L1330.9000 540.6000Q1332.3000 540.6000 1333.2800 541.5800Q1334.2600 542.5600 1334.2600 543.9600L1334.2600 543.9600L1334.2600 636.6400Q1334.2600 638.0400 1333.2800 639.0200Q1332.3000 640 1330.9000 640L1330.9000 640L1319.8400 640Q1318.3000 640 1317.3900 639.0200Q1316.4800 638.0400 1316.4800 636.6400L1316.4800 636.6400L1316.4800 631.4600Q1312.9800 635.8000 1307.5900 638.6000Q1302.2000 641.4000 1294.0800 641.4000ZM1299.2600 626.4200L1299.2600 626.4200Q1305.1400 626.4200 1308.6400 623.7600Q1312.1400 621.1000 1313.8200 616.9700Q1315.5000 612.8400 1315.6400 608.5000L1315.6400 608.5000Q1315.7800 605.9800 1315.7800 603.1100Q1315.7800 600.2400 1315.6400 597.7200L1315.6400 597.7200Q1315.5000 593.5200 1313.6800 589.6700Q1311.8600 585.8200 1308.3600 583.3000Q1304.8600 580.7800 1299.2600 580.7800L1299.2600 580.7800Q1293.3800 580.7800 1289.9500 583.3700Q1286.5200 585.9600 1284.9800 590.1600Q1283.4400 594.3600 1283.1600 599.4000L1283.1600 599.4000Q1283.0200 603.6000 1283.1600 607.8000L1283.1600 607.8000Q1283.4400 612.8400 1284.9800 617.0400Q1286.5200 621.2400 1289.9500 623.8300Q1293.3800 626.4200 1299.2600 626.4200ZM1384.2400 641.4000L1384.2400 641.4000Q1368.7000 641.4000 1359.6000 632.4400Q1350.5000 623.4800 1349.8000 606.9600L1349.8000 606.9600Q1349.6600 605.5600 1349.6600 603.3900Q1349.6600 601.2200 1349.8000 599.9600L1349.8000 599.9600Q1350.3600 589.3200 1354.6300 581.6900Q1358.9000 574.0600 1366.4600 569.9300Q1374.0200 565.8000 1384.2400 565.8000L1384.2400 565.8000Q1395.5800 565.8000 1403.2800 570.4900Q1410.9800 575.1800 1414.9000 583.5100Q1418.8200 591.8400 1418.8200 602.7600L1418.8200 602.7600L1418.8200 605.7000Q1418.8200 607.1000 1417.8400 608.0800Q1416.8600 609.0600 1415.3200 609.0600L1415.3200 609.0600L1368.8400 609.0600Q1368.8400 609.0600 1368.8400 609.4800Q1368.8400 609.9000 1368.8400 610.1800L1368.8400 610.1800Q1368.9800 615.0800 1370.7300 619.2100Q1372.4800 623.3400 1375.9100 625.8600Q1379.3400 628.3800 1384.1000 628.3800L1384.1000 628.3800Q1388.0200 628.3800 1390.6800 627.1900Q1393.3400 626 1395.0200 624.4600Q1396.7000 622.9200 1397.4000 621.9400L1397.4000 621.9400Q1398.6600 620.2600 1399.4300 619.9100Q1400.2000 619.5600 1401.7400 619.5600L1401.7400 619.5600L1413.7800 619.5600Q1415.1800 619.5600 1416.0900 620.4000Q1417 621.2400 1416.8600 622.5000L1416.8600 622.5000Q1416.7200 624.7400 1414.5500 627.9600Q1412.3800 631.1800 1408.3200 634.2600Q1404.2600 637.3400 1398.1700 639.3700Q1392.0800 641.4000 1384.2400 641.4000ZM1368.8400 596.8800L1368.8400 597.3000L1399.7800 597.3000L1399.7800 596.8800Q1399.7800 591.4200 1397.9600 587.2900Q1396.1400 583.1600 1392.6400 580.8500Q1389.1400 578.5400 1384.2400 578.5400L1384.2400 578.5400Q1379.3400 578.5400 1375.8400 580.8500Q1372.3400 583.1600 1370.5900 587.2900Q1368.8400 591.4200 1368.8400 596.8800L1368.8400 596.8800ZM177.4400 780L164.2800 780Q162.8800 780 161.9000 779.0200Q160.9200 778.0400 160.9200 776.6400L160.9200 776.6400L160.9200 685.3600Q160.9200 683.9600 161.9000 682.9800Q162.8800 682 164.2800 682L164.2800 682L177.4400 682Q178.9800 682 179.8900 682.9800Q180.8000 683.9600 180.8000 685.3600L180.8000 685.3600L180.8000 776.6400Q180.8000 778.0400 179.8900 779.0200Q178.9800 780 177.4400 780L177.4400 780ZM174.3600 675L164.7000 675Q162.4600 675 162.4600 672.7600L162.4600 672.7600Q162.4600 671.6400 163.1600 670.9400L163.1600 670.9400L174.5000 657.0800Q175.9000 655.5400 176.8800 655.0500Q177.8600 654.5600 179.6800 654.5600L179.6800 654.5600L194.6600 654.5600Q197.3200 654.5600 197.3200 657.2200L197.3200 657.2200Q197.3200 658.2000 196.6200 658.9000L196.6200 658.9000L179.2600 673.1800Q178.1400 674.1600 177.0900 674.5800Q176.0400 675 174.3600 675L174.3600 675ZM216.7800 780L204.4600 780Q203.0600 780 202.0800 779.0200Q201.1000 778.0400 201.1000 776.6400L201.1000 776.6400L201.1000 710.5600Q201.1000 709.1600 202.0800 708.1800Q203.0600 707.2000 204.4600 707.2000L204.4600 707.2000L215.9400 707.2000Q217.3400 707.2000 218.3200 708.1800Q219.3000 709.1600 219.3000 710.5600L219.3000 710.5600L219.3000 716.3000Q222.9400 711.8200 228.6100 708.8100Q234.2800 705.8000 242.6800 705.8000L242.6800 705.8000Q251.2200 705.8000 257.5200 709.6500Q263.8200 713.5000 267.2500 720.5000Q270.6800 727.5000 270.6800 737.3000L270.6800 737.3000L270.6800 776.6400Q270.6800 778.0400 269.7000 779.0200Q268.7200 780 267.3200 780L267.3200 780L255.0000 780Q253.6000 780 252.6200 779.0200Q251.6400 778.0400 251.6400 776.6400L251.6400 776.6400L251.6400 738.1400Q251.6400 730.0200 247.6500 725.4000Q243.6600 720.7800 236.1000 720.7800L236.1000 720.7800Q228.8200 720.7800 224.4800 725.4000Q220.1400 730.0200 220.1400 738.1400L220.1400 738.1400L220.1400 776.6400Q220.1400 778.0400 219.1600 779.0200Q218.1800 780 216.7800 780L216.7800 780ZM315.4800 781.4000L315.4800 781.4000Q308.2000 781.4000 302.6700 778.9500Q297.1400 776.5000 293.5000 772.0200Q289.8600 767.5400 287.9000 761.4500Q285.9400 755.3600 285.6600 748.0800L285.6600 748.0800Q285.5200 745.5600 285.5200 743.5300Q285.5200 741.5000 285.6600 738.9800L285.6600 738.9800Q285.9400 731.9800 287.8300 725.9600Q289.7200 719.9400 293.4300 715.3900Q297.1400 710.8400 302.6700 708.3200Q308.2000 705.8000 315.4800 705.8000L315.4800 705.8000Q323.0400 705.8000 328.2900 708.3900Q333.5400 710.9800 337.0400 715.0400L337.0400 715.0400L337.0400 683.9600Q337.0400 682.5600 337.9500 681.5800Q338.8600 680.6000 340.4000 680.6000L340.4000 680.6000L352.3000 680.6000Q353.7000 680.6000 354.6800 681.5800Q355.6600 682.5600 355.6600 683.9600L355.6600 683.9600L355.6600 776.6400Q355.6600 778.0400 354.6800 779.0200Q353.7000 780 352.3000 780L352.3000 780L341.2400 780Q339.7000 780 338.7900 779.0200Q337.8800 778.0400 337.8800 776.6400L337.8800 776.6400L337.8800 771.4600Q334.3800 775.8000 328.9900 778.6000Q323.6000 781.4000 315.4800 781.4000ZM320.6600 766.4200L320.6600 766.4200Q326.5400 766.4200 330.0400 763.7600Q333.5400 761.1000 335.2200 756.9700Q336.9000 752.8400 337.0400 748.5000L337.0400 748.5000Q337.1800 745.9800 337.1800 743.1100Q337.1800 740.2400 337.0400 737.7200L337.0400 737.7200Q336.9000 733.5200 335.0800 729.6700Q333.2600 725.8200 329.7600 723.3000Q326.2600 720.7800 320.6600 720.7800L320.6600 720.7800Q314.7800 720.7800 311.3500 723.3700Q307.9200 725.9600 306.3800 730.1600Q304.8400 734.3600 304.5600 739.4000L304.5600 739.4000Q304.4200 743.6000 304.5600 747.8000L304.5600 747.8000Q304.8400 752.8400 306.3800 757.0400Q307.9200 761.2400 311.3500 763.8300Q314.7800 766.4200 320.6600 766.4200ZM389.2600 780L377.6400 780Q376.2400 780 375.2600 779.0200Q374.2800 778.0400 374.2800 776.6400L374.2800 776.6400L374.2800 710.5600Q374.2800 709.1600 375.2600 708.1800Q376.2400 707.2000 377.6400 707.2000L377.6400 707.2000L389.2600 707.2000Q390.8000 707.2000 391.7100 708.1800Q392.6200 709.1600 392.6200 710.5600L392.6200 710.5600L392.6200 776.6400Q392.6200 778.0400 391.7100 779.0200Q390.8000 780 389.2600 780L389.2600 780ZM389.8200 695.1600L377.0800 695.1600Q375.6800 695.1600 374.7000 694.1800Q373.7200 693.2000 373.7200 691.8000L373.7200 691.8000L373.7200 681.7200Q373.7200 680.3200 374.7000 679.3400Q375.6800 678.3600 377.0800 678.3600L377.0800 678.3600L389.8200 678.3600Q391.3600 678.3600 392.3400 679.3400Q393.3200 680.3200 393.3200 681.7200L393.3200 681.7200L393.3200 691.8000Q393.3200 693.2000 392.3400 694.1800Q391.3600 695.1600 389.8200 695.1600L389.8200 695.1600ZM442.7400 781.4000L442.7400 781.4000Q432.6600 781.4000 425.0300 777.6200Q417.4000 773.8400 413.1300 766.6300Q408.8600 759.4200 408.4400 749.2000L408.4400 749.2000Q408.3000 747.1000 408.3000 743.6700Q408.3000 740.2400 408.4400 738L408.4400 738Q408.8600 727.7800 413.1300 720.5700Q417.4000 713.3600 425.0300 709.5800Q432.6600 705.8000 442.7400 705.8000L442.7400 705.8000Q451.7000 705.8000 458 708.2500Q464.3000 710.7000 468.3600 714.5500Q472.4200 718.4000 474.4500 722.5300Q476.4800 726.6600 476.6200 730.0200L476.6200 730.0200Q476.7600 731.5600 475.7100 732.4700Q474.6600 733.3800 473.2600 733.3800L473.2600 733.3800L460.9400 733.3800Q459.5400 733.3800 458.7700 732.6800Q458 731.9800 457.3000 730.5800L457.3000 730.5800Q455.2000 724.9800 451.7700 722.6700Q448.3400 720.3600 443.0200 720.3600L443.0200 720.3600Q436.0200 720.3600 431.8900 724.7700Q427.7600 729.1800 427.4800 738.7000L427.4800 738.7000Q427.2000 744.0200 427.4800 748.5000L427.4800 748.5000Q427.7600 758.1600 431.8900 762.5000Q436.0200 766.8400 443.0200 766.8400L443.0200 766.8400Q448.4800 766.8400 451.8400 764.5300Q455.2000 762.2200 457.3000 756.6200L457.3000 756.6200Q458 755.2200 458.7700 754.5200Q459.5400 753.8200 460.9400 753.8200L460.9400 753.8200L473.2600 753.8200Q474.6600 753.8200 475.7100 754.7300Q476.7600 755.6400 476.6200 757.1800L476.6200 757.1800Q476.4800 759.7000 475.2900 762.8500Q474.1000 766 471.5100 769.2900Q468.9200 772.5800 465 775.3100Q461.0800 778.0400 455.5500 779.7200Q450.0200 781.4000 442.7400 781.4000ZM522.5400 781.4000L522.5400 781.4000Q507 781.4000 497.9000 772.4400Q488.8000 763.4800 488.1000 746.9600L488.1000 746.9600Q487.9600 745.5600 487.9600 743.3900Q487.9600 741.2200 488.1000 739.9600L488.1000 739.9600Q488.6600 729.3200 492.9300 721.6900Q497.2000 714.0600 504.7600 709.9300Q512.3200 705.8000 522.5400 705.8000L522.5400 705.8000Q533.8800 705.8000 541.5800 710.4900Q549.2800 715.1800 553.2000 723.5100Q557.1200 731.8400 557.1200 742.7600L557.1200 742.7600L557.1200 745.7000Q557.1200 747.1000 556.1400 748.0800Q555.1600 749.0600 553.6200 749.0600L553.6200 749.0600L507.1400 749.0600Q507.1400 749.0600 507.1400 749.4800Q507.1400 749.9000 507.1400 750.1800L507.1400 750.1800Q507.2800 755.0800 509.0300 759.2100Q510.7800 763.3400 514.2100 765.8600Q517.6400 768.3800 522.4000 768.3800L522.4000 768.3800Q526.3200 768.3800 528.9800 767.1900Q531.6400 766 533.3200 764.4600Q535 762.9200 535.7000 761.9400L535.7000 761.9400Q536.9600 760.2600 537.7300 759.9100Q538.5000 759.5600 540.0400 759.5600L540.0400 759.5600L552.0800 759.5600Q553.4800 759.5600 554.3900 760.4000Q555.3000 761.2400 555.1600 762.5000L555.1600 762.5000Q555.0200 764.7400 552.8500 767.9600Q550.6800 771.1800 546.6200 774.2600Q542.5600 777.3400 536.4700 779.3700Q530.3800 781.4000 522.5400 781.4000ZM507.1400 736.8800L507.1400 737.3000L538.0800 737.3000L538.0800 736.8800Q538.0800 731.4200 536.2600 727.2900Q534.4400 723.1600 530.9400 720.8500Q527.4400 718.5400 522.5400 718.5400L522.5400 718.5400Q517.6400 718.5400 514.1400 720.8500Q510.6400 723.1600 508.8900 727.2900Q507.1400 731.4200 507.1400 736.8800L507.1400 736.8800ZM599.5400 781.4000L599.5400 781.4000Q591.1400 781.4000 585.1900 779.4400Q579.2400 777.4800 575.4600 774.5400Q571.6800 771.6000 569.8600 768.6600Q568.0400 765.7200 567.9000 763.7600L567.9000 763.7600Q567.7600 762.2200 568.8100 761.3100Q569.8600 760.4000 571.1200 760.4000L571.1200 760.4000L582.1800 760.4000Q582.7400 760.4000 583.1600 760.5400Q583.5800 760.6800 584.2800 761.3800L584.2800 761.3800Q586.1000 762.9200 588.1300 764.6000Q590.1600 766.2800 592.9600 767.4700Q595.7600 768.6600 599.9600 768.6600L599.9600 768.6600Q605.4200 768.6600 609.1300 766.4900Q612.8400 764.3200 612.8400 760.2600L612.8400 760.2600Q612.8400 757.3200 611.2300 755.5000Q609.6200 753.6800 605.2800 752.2100Q600.9400 750.7400 592.9600 749.0600L592.9600 749.0600Q585.1200 747.2400 579.9400 744.4400Q574.7600 741.6400 572.2400 737.4400Q569.7200 733.2400 569.7200 727.6400L569.7200 727.6400Q569.7200 722.1800 573.0100 717.2100Q576.3000 712.2400 582.8100 709.0200Q589.3200 705.8000 598.9800 705.8000L598.9800 705.8000Q606.5400 705.8000 612.1400 707.6900Q617.7400 709.5800 621.4500 712.3800Q625.1600 715.1800 627.1200 718.0500Q629.0800 720.9200 629.2200 723.0200L629.2200 723.0200Q629.3600 724.5600 628.3800 725.4700Q627.4000 726.3800 626.1400 726.3800L626.1400 726.3800L615.7800 726.3800Q615.0800 726.3800 614.5200 726.1000Q613.9600 725.8200 613.4000 725.4000L613.4000 725.4000Q611.8600 724 610.0400 722.3900Q608.2200 720.7800 605.6300 719.6600Q603.0400 718.5400 598.8400 718.5400L598.8400 718.5400Q593.5200 718.5400 590.7200 720.8500Q587.9200 723.1600 587.9200 726.6600L587.9200 726.6600Q587.9200 729.0400 589.2500 730.7900Q590.5800 732.5400 594.6400 734.0800Q598.7000 735.6200 606.9600 737.3000L606.9600 737.3000Q616.3400 738.9800 621.8700 742.2700Q627.4000 745.5600 629.7100 749.8300Q632.0200 754.1000 632.0200 759.2800L632.0200 759.2800Q632.0200 765.5800 628.3100 770.6200Q624.6000 775.6600 617.3900 778.5300Q610.1800 781.4000 599.5400 781.4000Z" id="title"/></g></svg>