<svg xmlns="http://www.w3.org/2000/svg" version="1.1" xmlns:xlink="http://www.w3.org/1999/xlink" xmlns:svgjs="http://svgjs.dev/svgjs" viewBox="0 0 1920 1080" id="98bdad92-1044-4ea7-a34b-6958810720a7"><g><rect width="1920" height="1080" fill="#f7ebec"/></g><g fill="#ddbdd5"><path d="M969.5 217C561.465 217 231 547.465 231 955.5C231 1363.53 561.465 1694 969.5 1694C1377.53 1694 1708 1363.53 1708 955.5C1708 547.465 1377.53 217 969.5 217ZM969.5 1309.34C773.983 1309.34 615.658 1151.02 615.658 955.5C615.658 759.983 773.983 601.658 969.5 601.658C1165.02 601.658 1323.34 759.983 1323.34 955.5C1323.34 1151.02 1165.02 1309.34 969.5 1309.34Z"/></g><g fill="#ffffff" opacity="0.4"><path d="M1432 918.479L1616.48 734V918.479H1432Z"/><path d="M1616.48 918.479L1800.52 734V918.479H1616.48Z"/><path d="M1800.52 918.479L1985 734V918.479H1800.52Z"/><path d="M1432 1102.52L1616.48 918.479V1102.52H1432Z"/><path d="M1616.48 1102.52L1800.52 918.479V1102.52H1616.48Z"/><path d="M1800.52 1102.52L1985 918.479V1102.52H1800.52Z"/><path d="M499 154.521L683.479 -29.5215V154.521H499Z"/><path d="M683.479 154.521L867.521 -29.5215V154.521H683.479Z"/><path d="M867.521 154.521L1052 -29.5215V154.521H867.521Z"/><path d="M499 339L683.479 154.521V339H499Z"/><path d="M683.479 339L867.521 154.521V339H683.479Z"/><path d="M867.521 339L1052 154.521V339H867.521Z"/></g><g><path d="M178.635 139.281L184.422 144.246V166.626H215.704L219.958 172.147L215.69 177.397H184.422V198.795L178.635 203.747L173 198.795V144.232L178.635 139.281ZM195.554 195.68H219.406L223.397 200.915L219.143 206.45H195.554L191.7 201.342L195.554 195.68ZM196.382 138H219.129L223.383 143.52L219.129 148.77H196.659L192.115 143.677L196.382 138ZM323.155 148.628L328.251 154.291L323.155 159.968H246.13L241.172 154.291L246.13 148.628H323.155ZM237.043 172.147L241.849 167.893L246.669 172.147V178.393C246.669 188.879 249.417 197.515 261.668 197.515H264.14C275.147 197.515 281.197 189.86 281.197 177.952V172.005L285.879 167.75L290.699 171.862V178.379C290.699 189.007 293.723 196.946 305.56 196.946H307.618C319.178 196.946 321.235 187.869 321.373 177.952V171.578L326.056 167.608L331 171.72V178.094C330.862 191.838 327.285 207.574 308.032 207.574H305.974C294.552 207.574 288.365 202.324 285.892 195.808C283.006 202.466 275.299 208.286 264.844 208.286H262.358C242.553 208.286 237.194 195.964 237.056 178.663V172.147H237.043ZM276.391 274.744L273.642 267.089L280.796 264.969L305.974 276.721V252.491L311.07 248.095L316.291 252.491V281.829L325.641 286.226L328.251 293.311L320.959 296L276.391 274.744ZM321.235 223.011L328.113 226.27L325.917 233.497L264.002 263.119L256.571 260.146L259.596 252.776L321.235 223.011ZM231.905 263.404L237.954 268.512C237.402 286.51 222.403 296 204.669 296H202.874C194.062 296 183.759 292.6 177.157 286.083L177.834 278.855L184.298 278.002C189.118 282.256 195.858 285.229 202.183 285.229H204.117C216.091 285.229 225.303 280.136 226.27 268.085L231.905 263.404ZM226.256 251.638C225.704 239.16 216.629 234.209 204.103 234.209H202.169C194.739 234.209 189.104 237.182 184.284 241.436L177.834 240.583L177.143 233.355C183.745 226.696 192.957 223.58 202.597 223.58H204.517C222.403 223.58 237.402 232.942 237.94 251.211L231.891 256.176L226.256 251.638Z" fill="#000000"/></g><g fill="#000000" id="info-group"><path d="M167.0800 500L154.9000 500Q153.7800 500 152.8700 499.1600Q151.9600 498.3200 151.9600 497.0600L151.9600 497.0600Q151.9600 496.5000 152.2400 495.8000L152.2400 495.8000L185.9800 405.5000Q186.4000 404.1000 187.5900 403.0500Q188.7800 402 190.8800 402L190.8800 402L206.1400 402Q208.2400 402 209.3600 403.0500Q210.4800 404.1000 211.0400 405.5000L211.0400 405.5000L244.7800 495.8000Q244.9200 496.5000 244.9200 497.0600L244.9200 497.0600Q244.9200 498.3200 244.0800 499.1600Q243.2400 500 242.1200 500L242.1200 500L229.9400 500Q227.9800 500 227.0700 499.0900Q226.1600 498.1800 225.8800 497.3400L225.8800 497.3400L219.3000 480.2600L177.7200 480.2600L171.1400 497.3400Q170.8600 498.1800 169.9500 499.0900Q169.0400 500 167.0800 500L167.0800 500ZM198.4400 420.9000L182.6200 464.1600L214.4000 464.1600L198.4400 420.9000ZM283.2800 501.4000L283.2800 501.4000Q274.7400 501.4000 268.5100 497.5500Q262.2800 493.7000 258.9200 486.6300Q255.5600 479.5600 255.5600 469.9000L255.5600 469.9000L255.5600 430.5600Q255.5600 429.1600 256.5400 428.1800Q257.5200 427.2000 258.9200 427.2000L258.9200 427.2000L271.2400 427.2000Q272.7800 427.2000 273.6900 428.1800Q274.6000 429.1600 274.6000 430.5600L274.6000 430.5600L274.6000 469.0600Q274.6000 486.4200 289.8600 486.4200L289.8600 486.4200Q297.1400 486.4200 301.4100 481.8000Q305.6800 477.1800 305.6800 469.0600L305.6800 469.0600L305.6800 430.5600Q305.6800 429.1600 306.6600 428.1800Q307.6400 427.2000 309.0400 427.2000L309.0400 427.2000L321.3600 427.2000Q322.7600 427.2000 323.7400 428.1800Q324.7200 429.1600 324.7200 430.5600L324.7200 430.5600L324.7200 496.6400Q324.7200 498.0400 323.7400 499.0200Q322.7600 500 321.3600 500L321.3600 500L310.0200 500Q308.4800 500 307.5700 499.0200Q306.6600 498.0400 306.6600 496.6400L306.6600 496.6400L306.6600 490.9000Q302.8800 495.8000 297.2800 498.6000Q291.6800 501.4000 283.2800 501.4000ZM358.3200 500L346.7000 500Q345.3000 500 344.3200 499.0200Q343.3400 498.0400 343.3400 496.6400L343.3400 496.6400L343.3400 403.9600Q343.3400 402.5600 344.3200 401.5800Q345.3000 400.6000 346.7000 400.6000L346.7000 400.6000L358.3200 400.6000Q359.7200 400.6000 360.7000 401.5800Q361.6800 402.5600 361.6800 403.9600L361.6800 403.9600L361.6800 496.6400Q361.6800 498.0400 360.7000 499.0200Q359.7200 500 358.3200 500L358.3200 500ZM401.4400 501.4000L401.4400 501.4000Q394.1600 501.4000 388.2800 498.5300Q382.4000 495.6600 378.9700 490.8300Q375.5400 486 375.5400 479.9800L375.5400 479.9800Q375.5400 470.1800 383.5200 464.3700Q391.5000 458.5600 404.3800 456.6000L404.3800 456.6000L423.5600 453.8000L423.5600 450.8600Q423.5600 444.9800 420.6200 441.7600Q417.6800 438.5400 410.5400 438.5400L410.5400 438.5400Q405.5000 438.5400 402.3500 440.5700Q399.2000 442.6000 397.6600 445.9600L397.6600 445.9600Q396.5400 447.7800 394.4400 447.7800L394.4400 447.7800L383.3800 447.7800Q381.8400 447.7800 381.0700 446.9400Q380.3000 446.1000 380.3000 444.7000L380.3000 444.7000Q380.4400 442.4600 382.1900 439.2400Q383.9400 436.0200 387.5100 433.0100Q391.0800 430 396.8200 427.9000Q402.5600 425.8000 410.6800 425.8000L410.6800 425.8000Q419.5000 425.8000 425.5900 427.9700Q431.6800 430.1400 435.3200 433.7800Q438.9600 437.4200 440.6400 442.3200Q442.3200 447.2200 442.3200 452.6800L442.3200 452.6800L442.3200 496.6400Q442.3200 498.0400 441.3400 499.0200Q440.3600 500 438.9600 500L438.9600 500L427.6200 500Q426.0800 500 425.1700 499.0200Q424.2600 498.0400 424.2600 496.6400L424.2600 496.6400L424.2600 491.1800Q422.4400 493.7000 419.3600 496.0800Q416.2800 498.4600 411.8700 499.9300Q407.4600 501.4000 401.4400 501.4000ZM406.2000 488.1000L406.2000 488.1000Q411.1000 488.1000 415.0900 486Q419.0800 483.9000 421.3900 479.4900Q423.7000 475.0800 423.7000 468.3600L423.7000 468.3600L423.7000 465.4200L409.7000 467.6600Q401.4400 468.9200 397.3800 471.7200Q393.3200 474.5200 393.3200 478.5800L393.3200 478.5800Q393.3200 481.6600 395.2100 483.8300Q397.1000 486 400.0400 487.0500Q402.9800 488.1000 406.2000 488.1000ZM534.5800 500L521.8400 500Q520.3000 500 519.3900 499.0200Q518.4800 498.0400 518.4800 496.6400L518.4800 496.6400L518.4800 424.1200L497.2000 440.5000Q495.9400 441.3400 494.6800 441.1300Q493.4200 440.9200 492.4400 439.6600L492.4400 439.6600L486.5600 432.1000Q485.7200 430.8400 485.9300 429.4400Q486.1400 428.0400 487.4000 427.2000L487.4000 427.2000L518.7600 402.9800Q519.6000 402.2800 520.4400 402.1400Q521.2800 402 522.2600 402L522.2600 402L534.5800 402Q535.9800 402 536.9600 402.9800Q537.9400 403.9600 537.9400 405.3600L537.9400 405.3600L537.9400 496.6400Q537.9400 498.0400 536.9600 499.0200Q535.9800 500 534.5800 500L534.5800 500ZM573.9200 451L560.0600 451Q558.6600 451 557.6800 450.0200Q556.7000 449.0400 556.7000 447.6400L556.7000 447.6400L556.7000 434.3400Q556.7000 432.8000 557.6800 431.8200Q558.6600 430.8400 560.0600 430.8400L560.0600 430.8400L573.9200 430.8400Q575.4600 430.8400 576.4400 431.8200Q577.4200 432.8000 577.4200 434.3400L577.4200 434.3400L577.4200 447.6400Q577.4200 449.0400 576.4400 450.0200Q575.4600 451 573.9200 451L573.9200 451ZM573.9200 500L560.0600 500Q558.6600 500 557.6800 499.0200Q556.7000 498.0400 556.7000 496.6400L556.7000 496.6400L556.7000 483.3400Q556.7000 481.8000 557.6800 480.8200Q558.6600 479.8400 560.0600 479.8400L560.0600 479.8400L573.9200 479.8400Q575.4600 479.8400 576.4400 480.8200Q577.4200 481.8000 577.4200 483.3400L577.4200 483.3400L577.4200 496.6400Q577.4200 498.0400 576.4400 499.0200Q575.4600 500 573.9200 500L573.9200 500ZM666.8800 501.4000L666.8800 501.4000Q654.4200 501.4000 645.4600 497.2700Q636.5000 493.1400 631.4600 484.5300Q626.4200 475.9200 626.0000 463.0400L626.0000 463.0400Q625.8600 457.0200 625.8600 451.1400Q625.8600 445.2600 626.0000 439.1000L626.0000 439.1000Q626.4200 426.3600 631.6000 417.8200Q636.7800 409.2800 645.8100 404.9400Q654.8400 400.6000 666.8800 400.6000L666.8800 400.6000Q678.9200 400.6000 688.0200 404.9400Q697.1200 409.2800 702.3000 417.8200Q707.4800 426.3600 707.9000 439.1000L707.9000 439.1000Q708.1800 445.2600 708.1800 451.1400Q708.1800 457.0200 707.9000 463.0400L707.9000 463.0400Q707.4800 475.9200 702.4400 484.5300Q697.4000 493.1400 688.3700 497.2700Q679.3400 501.4000 666.8800 501.4000ZM666.8800 485.3000L666.8800 485.3000Q675.9800 485.3000 681.7200 479.9100Q687.4600 474.5200 687.8800 462.3400L687.8800 462.3400Q688.1600 456.1800 688.1600 450.9300Q688.1600 445.6800 687.8800 439.6600L687.8800 439.6600Q687.6000 431.5400 684.8700 426.4300Q682.1400 421.3200 677.5200 419.0100Q672.9000 416.7000 666.8800 416.7000L666.8800 416.7000Q661.0000 416.7000 656.3800 419.0100Q651.7600 421.3200 649.0300 426.4300Q646.3000 431.5400 646.0200 439.6600L646.0200 439.6600Q645.8800 445.6800 645.8800 450.9300Q645.8800 456.1800 646.0200 462.3400L646.0200 462.3400Q646.4400 474.5200 652.1800 479.9100Q657.9200 485.3000 666.8800 485.3000ZM820.8800 526.6000L808.8400 526.6000Q807.4400 526.6000 806.4600 525.6200Q805.4800 524.6400 805.4800 523.2400L805.4800 523.2400L805.4800 491.4600Q802.1200 495.9400 796.8000 498.6700Q791.4800 501.4000 783.9200 501.4000L783.9200 501.4000Q776.7800 501.4000 771.2500 498.8800Q765.7200 496.3600 762.0100 491.9500Q758.3000 487.5400 756.3400 481.5900Q754.3800 475.6400 754.1000 468.6400L754.1000 468.6400Q753.9600 466.1200 753.9600 463.6000Q753.9600 461.0800 754.1000 458.7000L754.1000 458.7000Q754.5200 451.4200 756.4100 445.4000Q758.3000 439.3800 762.0100 434.9700Q765.7200 430.5600 771.2500 428.1800Q776.7800 425.8000 783.9200 425.8000L783.9200 425.8000Q792.0400 425.8000 797.5700 428.7400Q803.1000 431.6800 806.3200 436.1600L806.3200 436.1600L806.3200 430.5600Q806.3200 429.1600 807.3000 428.1800Q808.2800 427.2000 809.6800 427.2000L809.6800 427.2000L820.8800 427.2000Q822.2800 427.2000 823.2600 428.1800Q824.2400 429.1600 824.2400 430.5600L824.2400 430.5600L824.2400 523.2400Q824.2400 524.6400 823.2600 525.6200Q822.2800 526.6000 820.8800 526.6000L820.8800 526.6000ZM789.2400 486.4200L789.2400 486.4200Q794.8400 486.4200 798.3400 483.9000Q801.8400 481.3800 803.5900 477.5300Q805.3400 473.6800 805.4800 469.4800L805.4800 469.4800Q805.7600 466.8200 805.7600 464.0200Q805.7600 461.2200 805.4800 458.7000L805.4800 458.7000Q805.3400 454.3600 803.6600 450.2300Q801.9800 446.1000 798.4800 443.4400Q794.9800 440.7800 789.2400 440.7800L789.2400 440.7800Q783.3600 440.7800 779.8600 443.3700Q776.3600 445.9600 774.8900 450.1600Q773.4200 454.3600 773.1400 459.4000L773.1400 459.4000Q772.8600 463.6000 773.1400 467.8000L773.1400 467.8000Q773.4200 472.8400 774.8900 477.0400Q776.3600 481.2400 779.8600 483.8300Q783.3600 486.4200 789.2400 486.4200ZM869.8800 501.4000L869.8800 501.4000Q861.3400 501.4000 855.1100 497.5500Q848.8800 493.7000 845.5200 486.6300Q842.1600 479.5600 842.1600 469.9000L842.1600 469.9000L842.1600 430.5600Q842.1600 429.1600 843.1400 428.1800Q844.1200 427.2000 845.5200 427.2000L845.5200 427.2000L857.8400 427.2000Q859.3800 427.2000 860.2900 428.1800Q861.2000 429.1600 861.2000 430.5600L861.2000 430.5600L861.2000 469.0600Q861.2000 486.4200 876.4600 486.4200L876.4600 486.4200Q883.7400 486.4200 888.0100 481.8000Q892.2800 477.1800 892.2800 469.0600L892.2800 469.0600L892.2800 430.5600Q892.2800 429.1600 893.2600 428.1800Q894.2400 427.2000 895.6400 427.2000L895.6400 427.2000L907.9600 427.2000Q909.3600 427.2000 910.3400 428.1800Q911.3200 429.1600 911.3200 430.5600L911.3200 430.5600L911.3200 496.6400Q911.3200 498.0400 910.3400 499.0200Q909.3600 500 907.9600 500L907.9600 500L896.6200 500Q895.0800 500 894.1700 499.0200Q893.2600 498.0400 893.2600 496.6400L893.2600 496.6400L893.2600 490.9000Q889.4800 495.8000 883.8800 498.6000Q878.2800 501.4000 869.8800 501.4000ZM961.1600 501.4000L961.1600 501.4000Q945.6200 501.4000 936.5200 492.4400Q927.4200 483.4800 926.7200 466.9600L926.7200 466.9600Q926.5800 465.5600 926.5800 463.3900Q926.5800 461.2200 926.7200 459.9600L926.7200 459.9600Q927.2800 449.3200 931.5500 441.6900Q935.8200 434.0600 943.3800 429.9300Q950.9400 425.8000 961.1600 425.8000L961.1600 425.8000Q972.5000 425.8000 980.2000 430.4900Q987.9000 435.1800 991.8200 443.5100Q995.7400 451.8400 995.7400 462.7600L995.7400 462.7600L995.7400 465.7000Q995.7400 467.1000 994.7600 468.0800Q993.7800 469.0600 992.2400 469.0600L992.2400 469.0600L945.7600 469.0600Q945.7600 469.0600 945.7600 469.4800Q945.7600 469.9000 945.7600 470.1800L945.7600 470.1800Q945.9000 475.0800 947.6500 479.2100Q949.4000 483.3400 952.8300 485.8600Q956.2600 488.3800 961.0200 488.3800L961.0200 488.3800Q964.9400 488.3800 967.6000 487.1900Q970.2600 486 971.9400 484.4600Q973.6200 482.9200 974.3200 481.9400L974.3200 481.9400Q975.5800 480.2600 976.3500 479.9100Q977.1200 479.5600 978.6600 479.5600L978.6600 479.5600L990.7000 479.5600Q992.1000 479.5600 993.0100 480.4000Q993.9200 481.2400 993.7800 482.5000L993.7800 482.5000Q993.6400 484.7400 991.4700 487.9600Q989.3000 491.1800 985.2400 494.2600Q981.1800 497.3400 975.0900 499.3700Q969.0000 501.4000 961.1600 501.4000ZM945.7600 456.8800L945.7600 457.3000L976.7000 457.3000L976.7000 456.8800Q976.7000 451.4200 974.8800 447.2900Q973.0600 443.1600 969.5600 440.8500Q966.0600 438.5400 961.1600 438.5400L961.1600 438.5400Q956.2600 438.5400 952.7600 440.8500Q949.2600 443.1600 947.5100 447.2900Q945.7600 451.4200 945.7600 456.8800L945.7600 456.8800ZM1063.7800 501.4000L1063.7800 501.4000Q1056.5000 501.4000 1050.6200 498.5300Q1044.7400 495.6600 1041.3100 490.8300Q1037.8800 486 1037.8800 479.9800L1037.8800 479.9800Q1037.8800 470.1800 1045.8600 464.3700Q1053.8400 458.5600 1066.7200 456.6000L1066.7200 456.6000L1085.9000 453.8000L1085.9000 450.8600Q1085.9000 444.9800 1082.9600 441.7600Q1080.0200 438.5400 1072.8800 438.5400L1072.8800 438.5400Q1067.8400 438.5400 1064.6900 440.5700Q1061.5400 442.6000 1060 445.9600L1060 445.9600Q1058.8800 447.7800 1056.7800 447.7800L1056.7800 447.7800L1045.7200 447.7800Q1044.1800 447.7800 1043.4100 446.9400Q1042.6400 446.1000 1042.6400 444.7000L1042.6400 444.7000Q1042.7800 442.4600 1044.5300 439.2400Q1046.2800 436.0200 1049.8500 433.0100Q1053.4200 430 1059.1600 427.9000Q1064.9000 425.8000 1073.0200 425.8000L1073.0200 425.8000Q1081.8400 425.8000 1087.9300 427.9700Q1094.0200 430.1400 1097.6600 433.7800Q1101.3000 437.4200 1102.9800 442.3200Q1104.6600 447.2200 1104.6600 452.6800L1104.6600 452.6800L1104.6600 496.6400Q1104.6600 498.0400 1103.6800 499.0200Q1102.7000 500 1101.3000 500L1101.3000 500L1089.9600 500Q1088.4200 500 1087.5100 499.0200Q1086.6000 498.0400 1086.6000 496.6400L1086.6000 496.6400L1086.6000 491.1800Q1084.7800 493.7000 1081.7000 496.0800Q1078.6200 498.4600 1074.2100 499.9300Q1069.8000 501.4000 1063.7800 501.4000ZM1068.5400 488.1000L1068.5400 488.1000Q1073.4400 488.1000 1077.4300 486Q1081.4200 483.9000 1083.7300 479.4900Q1086.0400 475.0800 1086.0400 468.3600L1086.0400 468.3600L1086.0400 465.4200L1072.0400 467.6600Q1063.7800 468.9200 1059.7200 471.7200Q1055.6600 474.5200 1055.6600 478.5800L1055.6600 478.5800Q1055.6600 481.6600 1057.5500 483.8300Q1059.4400 486 1062.3800 487.0500Q1065.3200 488.1000 1068.5400 488.1000ZM194.9400 641.4000L194.9400 641.4000Q181.9200 641.4000 173.1700 637.5500Q164.4200 633.7000 159.8700 627.4700Q155.3200 621.2400 155.0400 614.3800L155.0400 614.3800Q155.0400 613.1200 155.8800 612.2800Q156.7200 611.4400 157.9800 611.4400L157.9800 611.4400L170.4400 611.4400Q172.2600 611.4400 173.1700 612.2100Q174.0800 612.9800 174.7800 614.1000L174.7800 614.1000Q175.6200 616.7600 178 619.3500Q180.3800 621.9400 184.5100 623.6200Q188.6400 625.3000 194.9400 625.3000L194.9400 625.3000Q205.0200 625.3000 209.9900 621.9400Q214.9600 618.5800 214.9600 612.8400L214.9600 612.8400Q214.9600 608.7800 212.3000 606.3300Q209.6400 603.8800 204.1100 601.8500Q198.5800 599.8200 189.4800 597.5800L189.4800 597.5800Q178.9800 595.0600 171.9100 591.4900Q164.8400 587.9200 161.2700 582.4600Q157.7000 577 157.7000 568.6000L157.7000 568.6000Q157.7000 560.4800 162.1100 554.1800Q166.5200 547.8800 174.7100 544.2400Q182.9000 540.6000 194.2400 540.6000L194.2400 540.6000Q203.3400 540.6000 210.3400 543.0500Q217.3400 545.5000 221.9600 549.4900Q226.5800 553.4800 229.0300 558.0300Q231.4800 562.5800 231.6200 566.9200L231.6200 566.9200Q231.6200 568.0400 230.8500 568.9500Q230.0800 569.8600 228.6800 569.8600L228.6800 569.8600L215.6600 569.8600Q214.5400 569.8600 213.4200 569.3000Q212.3000 568.7400 211.6000 567.2000L211.6000 567.2000Q210.7600 562.8600 206.1400 559.7800Q201.5200 556.7000 194.2400 556.7000L194.2400 556.7000Q186.6800 556.7000 182.0600 559.5000Q177.4400 562.3000 177.4400 568.1800L177.4400 568.1800Q177.4400 572.1000 179.7500 574.6900Q182.0600 577.2800 187.1700 579.2400Q192.2800 581.2000 200.6800 583.4400L200.6800 583.4400Q212.5800 586.1000 220.1400 589.6000Q227.7000 593.1000 231.2000 598.4900Q234.7000 603.8800 234.7000 612.1400L234.7000 612.1400Q234.7000 621.3800 229.7300 627.8900Q224.7600 634.4000 215.8000 637.9000Q206.8400 641.4000 194.9400 641.4000ZM264.1000 640L252.4800 640Q251.0800 640 250.1000 639.0200Q249.1200 638.0400 249.1200 636.6400L249.1200 636.6400L249.1200 570.5600Q249.1200 569.1600 250.1000 568.1800Q251.0800 567.2000 252.4800 567.2000L252.4800 567.2000L264.1000 567.2000Q265.6400 567.2000 266.5500 568.1800Q267.4600 569.1600 267.4600 570.5600L267.4600 570.5600L267.4600 636.6400Q267.4600 638.0400 266.5500 639.0200Q265.6400 640 264.1000 640L264.1000 640ZM264.6600 555.1600L251.9200 555.1600Q250.5200 555.1600 249.5400 554.1800Q248.5600 553.2000 248.5600 551.8000L248.5600 551.8000L248.5600 541.7200Q248.5600 540.3200 249.5400 539.3400Q250.5200 538.3600 251.9200 538.3600L251.9200 538.3600L264.6600 538.3600Q266.2000 538.3600 267.1800 539.3400Q268.1600 540.3200 268.1600 541.7200L268.1600 541.7200L268.1600 551.8000Q268.1600 553.2000 267.1800 554.1800Q266.2000 555.1600 264.6600 555.1600L264.6600 555.1600ZM318.9800 670.8000L318.9800 670.8000Q308.7600 670.8000 302.1800 668.1400Q295.6000 665.4800 291.8200 661.7000Q288.0400 657.9200 286.4300 654.2100Q284.8200 650.5000 284.6800 648.4000L284.6800 648.4000Q284.5400 647 285.5900 645.9500Q286.6400 644.9000 288.0400 644.9000L288.0400 644.9000L300.2200 644.9000Q301.6200 644.9000 302.4600 645.5300Q303.3000 646.1600 303.8600 647.8400L303.8600 647.8400Q304.7000 649.6600 306.1000 651.7600Q307.5000 653.8600 310.3700 655.3300Q313.2400 656.8000 318.2800 656.8000L318.2800 656.8000Q323.6000 656.8000 327.2400 655.2600Q330.8800 653.7200 332.7700 650.0800Q334.6600 646.4400 334.6600 640L334.6600 640L334.6600 630.4800Q331.3000 634.5400 326.0500 637.0600Q320.8000 639.5800 313.1000 639.5800L313.1000 639.5800Q305.6800 639.5800 300.1500 637.1300Q294.6200 634.6800 290.9800 630.2700Q287.3400 625.8600 285.4500 619.8400Q283.5600 613.8200 283.2800 606.5400L283.2800 606.5400Q283.1400 602.7600 283.2800 598.9800L283.2800 598.9800Q283.5600 591.9800 285.4500 585.9600Q287.3400 579.9400 290.9800 575.3900Q294.6200 570.8400 300.1500 568.3200Q305.6800 565.8000 313.1000 565.8000L313.1000 565.8000Q321.0800 565.8000 326.5400 568.8100Q332 571.8200 335.5000 576.3000L335.5000 576.3000L335.5000 570.7000Q335.5000 569.1600 336.4800 568.1800Q337.4600 567.2000 338.8600 567.2000L338.8600 567.2000L350.2000 567.2000Q351.6000 567.2000 352.5800 568.1800Q353.5600 569.1600 353.5600 570.7000L353.5600 570.7000L353.7000 638.1800Q353.7000 648.2600 349.9200 655.5400Q346.1400 662.8200 338.5100 666.8100Q330.8800 670.8000 318.9800 670.8000ZM318.2800 624.7400L318.2800 624.7400Q324.0200 624.7400 327.5200 622.2200Q331.0200 619.7000 332.7000 615.6400Q334.3800 611.5800 334.6600 607.3800L334.6600 607.3800Q334.8000 605.5600 334.8000 602.7600Q334.8000 599.9600 334.6600 598.2800L334.6600 598.2800Q334.3800 593.9400 332.7000 589.9500Q331.0200 585.9600 327.5200 583.3700Q324.0200 580.7800 318.2800 580.7800L318.2800 580.7800Q312.5400 580.7800 309.0400 583.3700Q305.5400 585.9600 304.0700 590.1600Q302.6000 594.3600 302.3200 599.4000L302.3200 599.4000Q302.0400 602.7600 302.3200 606.2600L302.3200 606.2600Q302.6000 611.1600 304.0700 615.4300Q305.5400 619.7000 309.0400 622.2200Q312.5400 624.7400 318.2800 624.7400ZM387.4400 640L375.8200 640Q374.4200 640 373.4400 639.0200Q372.4600 638.0400 372.4600 636.6400L372.4600 636.6400L372.4600 543.9600Q372.4600 542.5600 373.4400 541.5800Q374.4200 540.6000 375.8200 540.6000L375.8200 540.6000L387.4400 540.6000Q388.8400 540.6000 389.8200 541.5800Q390.8000 542.5600 390.8000 543.9600L390.8000 543.9600L390.8000 636.6400Q390.8000 638.0400 389.8200 639.0200Q388.8400 640 387.4400 640L387.4400 640ZM430.5600 641.4000L430.5600 641.4000Q423.2800 641.4000 417.4000 638.5300Q411.5200 635.6600 408.0900 630.8300Q404.6600 626 404.6600 619.9800L404.6600 619.9800Q404.6600 610.1800 412.6400 604.3700Q420.6200 598.5600 433.5000 596.6000L433.5000 596.6000L452.6800 593.8000L452.6800 590.8600Q452.6800 584.9800 449.7400 581.7600Q446.8000 578.5400 439.6600 578.5400L439.6600 578.5400Q434.6200 578.5400 431.4700 580.5700Q428.3200 582.6000 426.7800 585.9600L426.7800 585.9600Q425.6600 587.7800 423.5600 587.7800L423.5600 587.7800L412.5000 587.7800Q410.9600 587.7800 410.1900 586.9400Q409.4200 586.1000 409.4200 584.7000L409.4200 584.7000Q409.5600 582.4600 411.3100 579.2400Q413.0600 576.0200 416.6300 573.0100Q420.2000 570 425.9400 567.9000Q431.6800 565.8000 439.8000 565.8000L439.8000 565.8000Q448.6200 565.8000 454.7100 567.9700Q460.8000 570.1400 464.4400 573.7800Q468.0800 577.4200 469.7600 582.3200Q471.4400 587.2200 471.4400 592.6800L471.4400 592.6800L471.4400 636.6400Q471.4400 638.0400 470.4600 639.0200Q469.4800 640 468.0800 640L468.0800 640L456.7400 640Q455.2000 640 454.2900 639.0200Q453.3800 638.0400 453.3800 636.6400L453.3800 636.6400L453.3800 631.1800Q451.5600 633.7000 448.4800 636.0800Q445.4000 638.4600 440.9900 639.9300Q436.5800 641.4000 430.5600 641.4000ZM435.3200 628.1000L435.3200 628.1000Q440.2200 628.1000 444.2100 626Q448.2000 623.9000 450.5100 619.4900Q452.8200 615.0800 452.8200 608.3600L452.8200 608.3600L452.8200 605.4200L438.8200 607.6600Q430.5600 608.9200 426.5000 611.7200Q422.4400 614.5200 422.4400 618.5800L422.4400 618.5800Q422.4400 621.6600 424.3300 623.8300Q426.2200 626 429.1600 627.0500Q432.1000 628.1000 435.3200 628.1000ZM561.3200 640L526.4600 640Q525.0600 640 524.0800 639.0200Q523.1000 638.0400 523.1000 636.6400L523.1000 636.6400L523.1000 545.5000Q523.1000 543.9600 524.0800 542.9800Q525.0600 542 526.4600 542L526.4600 542L560.6200 542Q574.7600 542 583.9300 546.3400Q593.1000 550.6800 597.7900 559.2200Q602.4800 567.7600 602.6200 580.0800L602.6200 580.0800Q602.9000 586.2400 602.9000 591Q602.9000 595.7600 602.6200 601.7800L602.6200 601.7800Q602.3400 614.8000 597.8600 623.2700Q593.3800 631.7400 584.3500 635.8700Q575.3200 640 561.3200 640L561.3200 640ZM542.5600 558.1000L542.5600 623.9000L560.6200 623.9000Q568.4600 623.9000 573.3600 621.6600Q578.2600 619.4200 580.5700 614.4500Q582.8800 609.4800 583.0200 601.3600L583.0200 601.3600Q583.1600 597.1600 583.2300 594.0100Q583.3000 590.8600 583.2300 587.7100Q583.1600 584.5600 583.0200 580.5000L583.0200 580.5000Q582.7400 569.0200 577.2800 563.5600Q571.8200 558.1000 559.9200 558.1000L559.9200 558.1000L542.5600 558.1000ZM659.7400 640L624.8800 640Q623.4800 640 622.5000 639.0200Q621.5200 638.0400 621.5200 636.6400L621.5200 636.6400L621.5200 545.5000Q621.5200 543.9600 622.5000 542.9800Q623.4800 542 624.8800 542L624.8800 542L659.0400 542Q673.1800 542 682.3500 546.3400Q691.5200 550.6800 696.2100 559.2200Q700.9000 567.7600 701.0400 580.0800L701.0400 580.0800Q701.3200 586.2400 701.3200 591Q701.3200 595.7600 701.0400 601.7800L701.0400 601.7800Q700.7600 614.8000 696.2800 623.2700Q691.8000 631.7400 682.7700 635.8700Q673.7400 640 659.7400 640L659.7400 640ZM640.9800 558.1000L640.9800 623.9000L659.0400 623.9000Q666.8800 623.9000 671.7800 621.6600Q676.6800 619.4200 678.9900 614.4500Q681.3000 609.4800 681.4400 601.3600L681.4400 601.3600Q681.5800 597.1600 681.6500 594.0100Q681.7200 590.8600 681.6500 587.7100Q681.5800 584.5600 681.4400 580.5000L681.4400 580.5000Q681.1600 569.0200 675.7000 563.5600Q670.2400 558.1000 658.3400 558.1000L658.3400 558.1000L640.9800 558.1000ZM784.0600 640L723.3000 640Q721.9000 640 720.9200 639.0200Q719.9400 638.0400 719.9400 636.6400L719.9400 636.6400L719.9400 545.3600Q719.9400 543.9600 720.9200 542.9800Q721.9000 542 723.3000 542L723.3000 542L736.3200 542Q737.7200 542 738.7000 542.9800Q739.6800 543.9600 739.6800 545.3600L739.6800 545.3600L739.6800 623.3400L784.0600 623.3400Q785.6000 623.3400 786.5800 624.3200Q787.5600 625.3000 787.5600 626.8400L787.5600 626.8400L787.5600 636.6400Q787.5600 638.0400 786.5800 639.0200Q785.6000 640 784.0600 640L784.0600 640ZM847.0600 640L834.8800 640Q833.4800 640 832.5000 639.0200Q831.5200 638.0400 831.5200 636.6400L831.5200 636.6400L831.5200 570.7000Q831.5200 569.1600 832.5000 568.1800Q833.4800 567.2000 834.8800 567.2000L834.8800 567.2000L846.2200 567.2000Q847.6200 567.2000 848.6700 568.1800Q849.7200 569.1600 849.7200 570.7000L849.7200 570.7000L849.7200 576.4400Q852.9400 571.9600 858.0500 569.5800Q863.1600 567.2000 869.8800 567.2000L869.8800 567.2000L875.6200 567.2000Q877.1600 567.2000 878.0700 568.1800Q878.9800 569.1600 878.9800 570.5600L878.9800 570.5600L878.9800 580.6400Q878.9800 582.0400 878.0700 583.0200Q877.1600 584 875.6200 584L875.6200 584L864.7000 584Q857.9800 584 854.2700 587.7100Q850.5600 591.4200 850.5600 598.1400L850.5600 598.1400L850.5600 636.6400Q850.5600 638.0400 849.5800 639.0200Q848.6000 640 847.0600 640L847.0600 640ZM921.2600 641.4000L921.2600 641.4000Q905.7200 641.4000 896.6200 632.4400Q887.5200 623.4800 886.8200 606.9600L886.8200 606.9600Q886.6800 605.5600 886.6800 603.3900Q886.6800 601.2200 886.8200 599.9600L886.8200 599.9600Q887.3800 589.3200 891.6500 581.6900Q895.9200 574.0600 903.4800 569.9300Q911.0400 565.8000 921.2600 565.8000L921.2600 565.8000Q932.6000 565.8000 940.3000 570.4900Q948.0000 575.1800 951.9200 583.5100Q955.8400 591.8400 955.8400 602.7600L955.8400 602.7600L955.8400 605.7000Q955.8400 607.1000 954.8600 608.0800Q953.8800 609.0600 952.3400 609.0600L952.3400 609.0600L905.8600 609.0600Q905.8600 609.0600 905.8600 609.4800Q905.8600 609.9000 905.8600 610.1800L905.8600 610.1800Q906.0000 615.0800 907.7500 619.2100Q909.5000 623.3400 912.9300 625.8600Q916.3600 628.3800 921.1200 628.3800L921.1200 628.3800Q925.0400 628.3800 927.7000 627.1900Q930.3600 626 932.0400 624.4600Q933.7200 622.9200 934.4200 621.9400L934.4200 621.9400Q935.6800 620.2600 936.4500 619.9100Q937.2200 619.5600 938.7600 619.5600L938.7600 619.5600L950.8000 619.5600Q952.2000 619.5600 953.1100 620.4000Q954.0200 621.2400 953.8800 622.5000L953.8800 622.5000Q953.7400 624.7400 951.5700 627.9600Q949.4000 631.1800 945.3400 634.2600Q941.2800 637.3400 935.1900 639.3700Q929.1000 641.4000 921.2600 641.4000ZM905.8600 596.8800L905.8600 597.3000L936.8000 597.3000L936.8000 596.8800Q936.8000 591.4200 934.9800 587.2900Q933.1600 583.1600 929.6600 580.8500Q926.1600 578.5400 921.2600 578.5400L921.2600 578.5400Q916.3600 578.5400 912.8600 580.8500Q909.3600 583.1600 907.6100 587.2900Q905.8600 591.4200 905.8600 596.8800L905.8600 596.8800ZM986.0800 666.6000L974.1800 666.6000Q972.7800 666.6000 971.8000 665.6200Q970.8200 664.6400 970.8200 663.2400L970.8200 663.2400L970.8200 570.5600Q970.8200 569.1600 971.8000 568.1800Q972.7800 567.2000 974.1800 567.2000L974.1800 567.2000L985.2400 567.2000Q986.7800 567.2000 987.6900 568.1800Q988.6000 569.1600 988.6000 570.5600L988.6000 570.5600L988.6000 576.1600Q991.9600 571.6800 997.4200 568.7400Q1002.8800 565.8000 1011.0000 565.8000L1011.0000 565.8000Q1018.4200 565.8000 1023.8800 568.1800Q1029.3400 570.5600 1032.9800 574.9700Q1036.6200 579.3800 1038.5800 585.4000Q1040.5400 591.4200 1040.8200 598.7000L1040.8200 598.7000Q1040.9600 601.0800 1040.9600 603.6000Q1040.9600 606.1200 1040.8200 608.6400L1040.8200 608.6400Q1040.6800 615.6400 1038.7200 621.5900Q1036.7600 627.5400 1033.0500 631.9500Q1029.3400 636.3600 1023.8800 638.8800Q1018.4200 641.4000 1011.0000 641.4000L1011.0000 641.4000Q1003.4400 641.4000 998.1200 638.6700Q992.8000 635.9400 989.4400 631.4600L989.4400 631.4600L989.4400 663.2400Q989.4400 664.6400 988.5300 665.6200Q987.6200 666.6000 986.0800 666.6000L986.0800 666.6000ZM1005.8200 626.4200L1005.8200 626.4200Q1011.8400 626.4200 1015.2000 623.8300Q1018.5600 621.2400 1020.1000 617.0400Q1021.6400 612.8400 1021.9200 607.8000L1021.9200 607.8000Q1022.0600 603.6000 1021.9200 599.4000L1021.9200 599.4000Q1021.6400 594.3600 1020.1000 590.1600Q1018.5600 585.9600 1015.2000 583.3700Q1011.8400 580.7800 1005.8200 580.7800L1005.8200 580.7800Q1000.0800 580.7800 996.5100 583.4400Q992.9400 586.1000 991.3300 590.2300Q989.7200 594.3600 989.4400 598.7000L989.4400 598.7000Q989.3000 601.2200 989.3000 604.0200Q989.3000 606.8200 989.4400 609.4800L989.4400 609.4800Q989.5800 613.6800 991.4000 617.5300Q993.2200 621.3800 996.7200 623.9000Q1000.2200 626.4200 1005.8200 626.4200ZM1072.1800 640L1060 640Q1058.6000 640 1057.6200 639.0200Q1056.6400 638.0400 1056.6400 636.6400L1056.6400 636.6400L1056.6400 570.7000Q1056.6400 569.1600 1057.6200 568.1800Q1058.6000 567.2000 1060 567.2000L1060 567.2000L1071.3400 567.2000Q1072.7400 567.2000 1073.7900 568.1800Q1074.8400 569.1600 1074.8400 570.7000L1074.8400 570.7000L1074.8400 576.4400Q1078.0600 571.9600 1083.1700 569.5800Q1088.2800 567.2000 1095 567.2000L1095 567.2000L1100.7400 567.2000Q1102.2800 567.2000 1103.1900 568.1800Q1104.1000 569.1600 1104.1000 570.5600L1104.1000 570.5600L1104.1000 580.6400Q1104.1000 582.0400 1103.1900 583.0200Q1102.2800 584 1100.7400 584L1100.7400 584L1089.8200 584Q1083.1000 584 1079.3900 587.7100Q1075.6800 591.4200 1075.6800 598.1400L1075.6800 598.1400L1075.6800 636.6400Q1075.6800 638.0400 1074.7000 639.0200Q1073.7200 640 1072.1800 640L1072.1800 640ZM1146.3800 641.4000L1146.3800 641.4000Q1130.8400 641.4000 1121.7400 632.4400Q1112.6400 623.4800 1111.9400 606.9600L1111.9400 606.9600Q1111.8000 605.5600 1111.8000 603.3900Q1111.8000 601.2200 1111.9400 599.9600L1111.9400 599.9600Q1112.5000 589.3200 1116.7700 581.6900Q1121.0400 574.0600 1128.6000 569.9300Q1136.1600 565.8000 1146.3800 565.8000L1146.3800 565.8000Q1157.7200 565.8000 1165.4200 570.4900Q1173.1200 575.1800 1177.0400 583.5100Q1180.9600 591.8400 1180.9600 602.7600L1180.9600 602.7600L1180.9600 605.7000Q1180.9600 607.1000 1179.9800 608.0800Q1179.0000 609.0600 1177.4600 609.0600L1177.4600 609.0600L1130.9800 609.0600Q1130.9800 609.0600 1130.9800 609.4800Q1130.9800 609.9000 1130.9800 610.1800L1130.9800 610.1800Q1131.1200 615.0800 1132.8700 619.2100Q1134.6200 623.3400 1138.0500 625.8600Q1141.4800 628.3800 1146.2400 628.3800L1146.2400 628.3800Q1150.1600 628.3800 1152.8200 627.1900Q1155.4800 626 1157.1600 624.4600Q1158.8400 622.9200 1159.5400 621.9400L1159.5400 621.9400Q1160.8000 620.2600 1161.5700 619.9100Q1162.3400 619.5600 1163.8800 619.5600L1163.8800 619.5600L1175.9200 619.5600Q1177.3200 619.5600 1178.2300 620.4000Q1179.1400 621.2400 1179.0000 622.5000L1179.0000 622.5000Q1178.8600 624.7400 1176.6900 627.9600Q1174.5200 631.1800 1170.4600 634.2600Q1166.4000 637.3400 1160.3100 639.3700Q1154.2200 641.4000 1146.3800 641.4000ZM1130.9800 596.8800L1130.9800 597.3000L1161.9200 597.3000L1161.9200 596.8800Q1161.9200 591.4200 1160.1000 587.2900Q1158.2800 583.1600 1154.7800 580.8500Q1151.2800 578.5400 1146.3800 578.5400L1146.3800 578.5400Q1141.4800 578.5400 1137.9800 580.8500Q1134.4800 583.1600 1132.7300 587.2900Q1130.9800 591.4200 1130.9800 596.8800L1130.9800 596.8800ZM1223.3800 641.4000L1223.3800 641.4000Q1214.9800 641.4000 1209.0300 639.4400Q1203.0800 637.4800 1199.3000 634.5400Q1195.5200 631.6000 1193.7000 628.6600Q1191.8800 625.7200 1191.7400 623.7600L1191.7400 623.7600Q1191.6000 622.2200 1192.6500 621.3100Q1193.7000 620.4000 1194.9600 620.4000L1194.9600 620.4000L1206.0200 620.4000Q1206.5800 620.4000 1207.0000 620.5400Q1207.4200 620.6800 1208.1200 621.3800L1208.1200 621.3800Q1209.9400 622.9200 1211.9700 624.6000Q1214.0000 626.2800 1216.8000 627.4700Q1219.6000 628.6600 1223.8000 628.6600L1223.8000 628.6600Q1229.2600 628.6600 1232.9700 626.4900Q1236.6800 624.3200 1236.6800 620.2600L1236.6800 620.2600Q1236.6800 617.3200 1235.0700 615.5000Q1233.4600 613.6800 1229.1200 612.2100Q1224.7800 610.7400 1216.8000 609.0600L1216.8000 609.0600Q1208.9600 607.2400 1203.7800 604.4400Q1198.6000 601.6400 1196.0800 597.4400Q1193.5600 593.2400 1193.5600 587.6400L1193.5600 587.6400Q1193.5600 582.1800 1196.8500 577.2100Q1200.1400 572.2400 1206.6500 569.0200Q1213.1600 565.8000 1222.8200 565.8000L1222.8200 565.8000Q1230.3800 565.8000 1235.9800 567.6900Q1241.5800 569.5800 1245.2900 572.3800Q1249.0000 575.1800 1250.9600 578.0500Q1252.9200 580.9200 1253.0600 583.0200L1253.0600 583.0200Q1253.2000 584.5600 1252.2200 585.4700Q1251.2400 586.3800 1249.9800 586.3800L1249.9800 586.3800L1239.6200 586.3800Q1238.9200 586.3800 1238.3600 586.1000Q1237.8000 585.8200 1237.2400 585.4000L1237.2400 585.4000Q1235.7000 584 1233.8800 582.3900Q1232.0600 580.7800 1229.4700 579.6600Q1226.8800 578.5400 1222.6800 578.5400L1222.6800 578.5400Q1217.3600 578.5400 1214.5600 580.8500Q1211.7600 583.1600 1211.7600 586.6600L1211.7600 586.6600Q1211.7600 589.0400 1213.0900 590.7900Q1214.4200 592.5400 1218.4800 594.0800Q1222.5400 595.6200 1230.8000 597.3000L1230.8000 597.3000Q1240.1800 598.9800 1245.7100 602.2700Q1251.2400 605.5600 1253.5500 609.8300Q1255.8600 614.1000 1255.8600 619.2800L1255.8600 619.2800Q1255.8600 625.5800 1252.1500 630.6200Q1248.4400 635.6600 1241.2300 638.5300Q1234.0200 641.4000 1223.3800 641.4000ZM1301.6400 641.4000L1301.6400 641.4000Q1286.1000 641.4000 1277.0000 632.4400Q1267.9000 623.4800 1267.2000 606.9600L1267.2000 606.9600Q1267.0600 605.5600 1267.0600 603.3900Q1267.0600 601.2200 1267.2000 599.9600L1267.2000 599.9600Q1267.7600 589.3200 1272.0300 581.6900Q1276.3000 574.0600 1283.8600 569.9300Q1291.4200 565.8000 1301.6400 565.8000L1301.6400 565.8000Q1312.9800 565.8000 1320.6800 570.4900Q1328.3800 575.1800 1332.3000 583.5100Q1336.2200 591.8400 1336.2200 602.7600L1336.2200 602.7600L1336.2200 605.7000Q1336.2200 607.1000 1335.2400 608.0800Q1334.2600 609.0600 1332.7200 609.0600L1332.7200 609.0600L1286.2400 609.0600Q1286.2400 609.0600 1286.2400 609.4800Q1286.2400 609.9000 1286.2400 610.1800L1286.2400 610.1800Q1286.3800 615.0800 1288.1300 619.2100Q1289.8800 623.3400 1293.3100 625.8600Q1296.7400 628.3800 1301.5000 628.3800L1301.5000 628.3800Q1305.4200 628.3800 1308.0800 627.1900Q1310.7400 626 1312.4200 624.4600Q1314.1000 622.9200 1314.8000 621.9400L1314.8000 621.9400Q1316.0600 620.2600 1316.8300 619.9100Q1317.6000 619.5600 1319.1400 619.5600L1319.1400 619.5600L1331.1800 619.5600Q1332.5800 619.5600 1333.4900 620.4000Q1334.4000 621.2400 1334.2600 622.5000L1334.2600 622.5000Q1334.1200 624.7400 1331.9500 627.9600Q1329.7800 631.1800 1325.7200 634.2600Q1321.6600 637.3400 1315.5700 639.3700Q1309.4800 641.4000 1301.6400 641.4000ZM1286.2400 596.8800L1286.2400 597.3000L1317.1800 597.3000L1317.1800 596.8800Q1317.1800 591.4200 1315.3600 587.2900Q1313.5400 583.1600 1310.0400 580.8500Q1306.5400 578.5400 1301.6400 578.5400L1301.6400 578.5400Q1296.7400 578.5400 1293.2400 580.8500Q1289.7400 583.1600 1287.9900 587.2900Q1286.2400 591.4200 1286.2400 596.8800L1286.2400 596.8800ZM1366.7400 640L1354.4200 640Q1353.0200 640 1352.0400 639.0200Q1351.0600 638.0400 1351.0600 636.6400L1351.0600 636.6400L1351.0600 570.5600Q1351.0600 569.1600 1352.0400 568.1800Q1353.0200 567.2000 1354.4200 567.2000L1354.4200 567.2000L1365.9000 567.2000Q1367.3000 567.2000 1368.2800 568.1800Q1369.2600 569.1600 1369.2600 570.5600L1369.2600 570.5600L1369.2600 576.3000Q1372.9000 571.8200 1378.5700 568.8100Q1384.2400 565.8000 1392.6400 565.8000L1392.6400 565.8000Q1401.1800 565.8000 1407.4800 569.6500Q1413.7800 573.5000 1417.2100 580.5000Q1420.6400 587.5000 1420.6400 597.3000L1420.6400 597.3000L1420.6400 636.6400Q1420.6400 638.0400 1419.6600 639.0200Q1418.6800 640 1417.2800 640L1417.2800 640L1404.9600 640Q1403.5600 640 1402.5800 639.0200Q1401.6000 638.0400 1401.6000 636.6400L1401.6000 636.6400L1401.6000 598.1400Q1401.6000 590.0200 1397.6100 585.4000Q1393.6200 580.7800 1386.0600 580.7800L1386.0600 580.7800Q1378.7800 580.7800 1374.4400 585.4000Q1370.1000 590.0200 1370.1000 598.1400L1370.1000 598.1400L1370.1000 636.6400Q1370.1000 638.0400 1369.1200 639.0200Q1368.1400 640 1366.7400 640L1366.7400 640ZM1482.6600 640L1471.3200 640Q1462.9200 640 1457.1800 637.0600Q1451.4400 634.1200 1448.6400 628.3100Q1445.8400 622.5000 1445.8400 613.8200L1445.8400 613.8200L1445.8400 582.0400L1434.7800 582.0400Q1433.3800 582.0400 1432.4000 581.0600Q1431.4200 580.0800 1431.4200 578.5400L1431.4200 578.5400L1431.4200 570.5600Q1431.4200 569.1600 1432.4000 568.1800Q1433.3800 567.2000 1434.7800 567.2000L1434.7800 567.2000L1445.8400 567.2000L1445.8400 543.9600Q1445.8400 542.5600 1446.7500 541.5800Q1447.6600 540.6000 1449.2000 540.6000L1449.2000 540.6000L1460.5400 540.6000Q1461.9400 540.6000 1462.9200 541.5800Q1463.9000 542.5600 1463.9000 543.9600L1463.9000 543.9600L1463.9000 567.2000L1481.4000 567.2000Q1482.8000 567.2000 1483.7800 568.1800Q1484.7600 569.1600 1484.7600 570.5600L1484.7600 570.5600L1484.7600 578.5400Q1484.7600 580.0800 1483.7800 581.0600Q1482.8000 582.0400 1481.4000 582.0400L1481.4000 582.0400L1463.9000 582.0400L1463.9000 612.4200Q1463.9000 618.1600 1465.9300 621.3800Q1467.9600 624.6000 1473.0000 624.6000L1473.0000 624.6000L1482.6600 624.6000Q1484.0600 624.6000 1485.0400 625.5800Q1486.0200 626.5600 1486.0200 627.9600L1486.0200 627.9600L1486.0200 636.6400Q1486.0200 638.0400 1485.0400 639.0200Q1484.0600 640 1482.6600 640L1482.6600 640ZM1519.6200 641.4000L1519.6200 641.4000Q1512.3400 641.4000 1506.4600 638.5300Q1500.5800 635.6600 1497.1500 630.8300Q1493.7200 626 1493.7200 619.9800L1493.7200 619.9800Q1493.7200 610.1800 1501.7000 604.3700Q1509.6800 598.5600 1522.5600 596.6000L1522.5600 596.6000L1541.7400 593.8000L1541.7400 590.8600Q1541.7400 584.9800 1538.8000 581.7600Q1535.8600 578.5400 1528.7200 578.5400L1528.7200 578.5400Q1523.6800 578.5400 1520.5300 580.5700Q1517.3800 582.6000 1515.8400 585.9600L1515.8400 585.9600Q1514.7200 587.7800 1512.6200 587.7800L1512.6200 587.7800L1501.5600 587.7800Q1500.0200 587.7800 1499.2500 586.9400Q1498.4800 586.1000 1498.4800 584.7000L1498.4800 584.7000Q1498.6200 582.4600 1500.3700 579.2400Q1502.1200 576.0200 1505.6900 573.0100Q1509.2600 570 1515.0000 567.9000Q1520.7400 565.8000 1528.8600 565.8000L1528.8600 565.8000Q1537.6800 565.8000 1543.7700 567.9700Q1549.8600 570.1400 1553.5000 573.7800Q1557.1400 577.4200 1558.8200 582.3200Q1560.5000 587.2200 1560.5000 592.6800L1560.5000 592.6800L1560.5000 636.6400Q1560.5000 638.0400 1559.5200 639.0200Q1558.5400 640 1557.1400 640L1557.1400 640L1545.8000 640Q1544.2600 640 1543.3500 639.0200Q1542.4400 638.0400 1542.4400 636.6400L1542.4400 636.6400L1542.4400 631.1800Q1540.6200 633.7000 1537.5400 636.0800Q1534.4600 638.4600 1530.0500 639.9300Q1525.6400 641.4000 1519.6200 641.4000ZM1524.3800 628.1000L1524.3800 628.1000Q1529.2800 628.1000 1533.2700 626Q1537.2600 623.9000 1539.5700 619.4900Q1541.8800 615.0800 1541.8800 608.3600L1541.8800 608.3600L1541.8800 605.4200L1527.8800 607.6600Q1519.6200 608.9200 1515.5600 611.7200Q1511.5000 614.5200 1511.5000 618.5800L1511.5000 618.5800Q1511.5000 621.6600 1513.3900 623.8300Q1515.2800 626 1518.2200 627.0500Q1521.1600 628.1000 1524.3800 628.1000ZM190.6000 781.4000L190.6000 781.4000Q175.0600 781.4000 165.9600 772.4400Q156.8600 763.4800 156.1600 746.9600L156.1600 746.9600Q156.0200 745.5600 156.0200 743.3900Q156.0200 741.2200 156.1600 739.9600L156.1600 739.9600Q156.7200 729.3200 160.9900 721.6900Q165.2600 714.0600 172.8200 709.9300Q180.3800 705.8000 190.6000 705.8000L190.6000 705.8000Q201.9400 705.8000 209.6400 710.4900Q217.3400 715.1800 221.2600 723.5100Q225.1800 731.8400 225.1800 742.7600L225.1800 742.7600L225.1800 745.7000Q225.1800 747.1000 224.2000 748.0800Q223.2200 749.0600 221.6800 749.0600L221.6800 749.0600L175.2000 749.0600Q175.2000 749.0600 175.2000 749.4800Q175.2000 749.9000 175.2000 750.1800L175.2000 750.1800Q175.3400 755.0800 177.0900 759.2100Q178.8400 763.3400 182.2700 765.8600Q185.7000 768.3800 190.4600 768.3800L190.4600 768.3800Q194.3800 768.3800 197.0400 767.1900Q199.7000 766 201.3800 764.4600Q203.0600 762.9200 203.7600 761.9400L203.7600 761.9400Q205.0200 760.2600 205.7900 759.9100Q206.5600 759.5600 208.1000 759.5600L208.1000 759.5600L220.1400 759.5600Q221.5400 759.5600 222.4500 760.4000Q223.3600 761.2400 223.2200 762.5000L223.2200 762.5000Q223.0800 764.7400 220.9100 767.9600Q218.7400 771.1800 214.6800 774.2600Q210.6200 777.3400 204.5300 779.3700Q198.4400 781.4000 190.6000 781.4000ZM175.2000 736.8800L175.2000 737.3000L206.1400 737.3000L206.1400 736.8800Q206.1400 731.4200 204.3200 727.2900Q202.5000 723.1600 199 720.8500Q195.5000 718.5400 190.6000 718.5400L190.6000 718.5400Q185.7000 718.5400 182.2000 720.8500Q178.7000 723.1600 176.9500 727.2900Q175.2000 731.4200 175.2000 736.8800L175.2000 736.8800ZM255.1400 780L243.3800 780Q241.9800 780 241 779.0200Q240.0200 778.0400 240.0200 776.6400L240.0200 776.6400L240.0200 710.5600Q240.0200 709.1600 241 708.1800Q241.9800 707.2000 243.3800 707.2000L243.3800 707.2000L254.3000 707.2000Q255.7000 707.2000 256.6800 708.1800Q257.6600 709.1600 257.6600 710.5600L257.6600 710.5600L257.6600 715.3200Q260.6000 711.4000 265.5700 708.6700Q270.5400 705.9400 277.4000 705.8000L277.4000 705.8000Q293.3600 705.5200 299.6600 718.2600L299.6600 718.2600Q302.8800 712.6600 308.9700 709.2300Q315.0600 705.8000 322.4800 705.8000L322.4800 705.8000Q329.7600 705.8000 335.7100 709.1600Q341.6600 712.5200 345.0900 719.3100Q348.5200 726.1000 348.5200 736.4600L348.5200 736.4600L348.5200 776.6400Q348.5200 778.0400 347.5400 779.0200Q346.5600 780 345.1600 780L345.1600 780L333.6800 780Q332.2800 780 331.3000 779.0200Q330.3200 778.0400 330.3200 776.6400L330.3200 776.6400L330.3200 737.5800Q330.3200 731.2800 328.5000 727.5700Q326.6800 723.8600 323.6000 722.3200Q320.5200 720.7800 316.7400 720.7800L316.7400 720.7800Q313.6600 720.7800 310.5800 722.3200Q307.5000 723.8600 305.5400 727.5700Q303.5800 731.2800 303.5800 737.5800L303.5800 737.5800L303.5800 776.6400Q303.5800 778.0400 302.6000 779.0200Q301.6200 780 300.2200 780L300.2200 780L288.7400 780Q287.3400 780 286.3600 779.0200Q285.3800 778.0400 285.3800 776.6400L285.3800 776.6400L285.3800 737.5800Q285.3800 731.2800 283.4200 727.5700Q281.4600 723.8600 278.3800 722.3200Q275.3000 720.7800 271.8000 720.7800L271.8000 720.7800Q268.5800 720.7800 265.5000 722.3900Q262.4200 724 260.4600 727.6400Q258.5000 731.2800 258.5000 737.5800L258.5000 737.5800L258.5000 776.6400Q258.5000 778.0400 257.5200 779.0200Q256.5400 780 255.1400 780L255.1400 780ZM434.0600 781.4000L434.0600 781.4000Q421.0400 781.4000 412.2900 777.5500Q403.5400 773.7000 398.9900 767.4700Q394.4400 761.2400 394.1600 754.3800L394.1600 754.3800Q394.1600 753.1200 395 752.2800Q395.8400 751.4400 397.1000 751.4400L397.1000 751.4400L409.5600 751.4400Q411.3800 751.4400 412.2900 752.2100Q413.2000 752.9800 413.9000 754.1000L413.9000 754.1000Q414.7400 756.7600 417.1200 759.3500Q419.5000 761.9400 423.6300 763.6200Q427.7600 765.3000 434.0600 765.3000L434.0600 765.3000Q444.1400 765.3000 449.1100 761.9400Q454.0800 758.5800 454.0800 752.8400L454.0800 752.8400Q454.0800 748.7800 451.4200 746.3300Q448.7600 743.8800 443.2300 741.8500Q437.7000 739.8200 428.6000 737.5800L428.6000 737.5800Q418.1000 735.0600 411.0300 731.4900Q403.9600 727.9200 400.3900 722.4600Q396.8200 717 396.8200 708.6000L396.8200 708.6000Q396.8200 700.4800 401.2300 694.1800Q405.6400 687.8800 413.8300 684.2400Q422.0200 680.6000 433.3600 680.6000L433.3600 680.6000Q442.4600 680.6000 449.4600 683.0500Q456.4600 685.5000 461.0800 689.4900Q465.7000 693.4800 468.1500 698.0300Q470.6000 702.5800 470.7400 706.9200L470.7400 706.9200Q470.7400 708.0400 469.9700 708.9500Q469.2000 709.8600 467.8000 709.8600L467.8000 709.8600L454.7800 709.8600Q453.6600 709.8600 452.5400 709.3000Q451.4200 708.7400 450.7200 707.2000L450.7200 707.2000Q449.8800 702.8600 445.2600 699.7800Q440.6400 696.7000 433.3600 696.7000L433.3600 696.7000Q425.8000 696.7000 421.1800 699.5000Q416.5600 702.3000 416.5600 708.1800L416.5600 708.1800Q416.5600 712.1000 418.8700 714.6900Q421.1800 717.2800 426.2900 719.2400Q431.4000 721.2000 439.8000 723.4400L439.8000 723.4400Q451.7000 726.1000 459.2600 729.6000Q466.8200 733.1000 470.3200 738.4900Q473.8200 743.8800 473.8200 752.1400L473.8200 752.1400Q473.8200 761.3800 468.8500 767.8900Q463.8800 774.4000 454.9200 777.9000Q445.9600 781.4000 434.0600 781.4000ZM565.8000 789.1000L552.7800 789.1000Q550.8200 789.1000 549.6300 787.9100Q548.4400 786.7200 547.7400 785.8800L547.7400 785.8800L542.5600 778.8800Q535.9800 781.4000 527.5800 781.4000L527.5800 781.4000Q515.1200 781.4000 506.0900 777.2700Q497.0600 773.1400 492.0900 764.5300Q487.1200 755.9200 486.5600 743.0400L486.5600 743.0400Q486.4200 737.0200 486.4200 731.1400Q486.4200 725.2600 486.5600 719.1000L486.5600 719.1000Q487.1200 706.3600 492.2300 697.8200Q497.3400 689.2800 506.4400 684.9400Q515.5400 680.6000 527.5800 680.6000L527.5800 680.6000Q539.6200 680.6000 548.7200 684.9400Q557.8200 689.2800 563 697.8200Q568.1800 706.3600 568.4600 719.1000L568.4600 719.1000Q568.7400 725.2600 568.7400 731.1400Q568.7400 737.0200 568.4600 743.0400L568.4600 743.0400Q567.7600 761.3800 558.3800 770.9000L558.3800 770.9000L568.1800 784.7600Q568.3200 784.9000 568.4600 785.2500Q568.6000 785.6000 568.6000 786.1600L568.6000 786.1600Q568.7400 787.4200 567.8300 788.2600Q566.9200 789.1000 565.8000 789.1000L565.8000 789.1000ZM527.5800 765.3000L527.5800 765.3000Q536.5400 765.3000 542.2800 759.9100Q548.0200 754.5200 548.4400 742.3400L548.4400 742.3400Q548.7200 736.1800 548.7200 730.9300Q548.7200 725.6800 548.4400 719.6600L548.4400 719.6600Q548.3000 711.5400 545.5000 706.4300Q542.7000 701.3200 538.1500 699.0100Q533.6000 696.7000 527.5800 696.7000L527.5800 696.7000Q521.7000 696.7000 517.0800 699.0100Q512.4600 701.3200 509.7300 706.4300Q507 711.5400 506.5800 719.6600L506.5800 719.6600Q506.4400 725.6800 506.4400 730.9300Q506.4400 736.1800 506.5800 742.3400L506.5800 742.3400Q507.1400 754.5200 512.8800 759.9100Q518.6200 765.3000 527.5800 765.3000ZM651.3400 780L590.5800 780Q589.1800 780 588.2000 779.0200Q587.2200 778.0400 587.2200 776.6400L587.2200 776.6400L587.2200 685.3600Q587.2200 683.9600 588.2000 682.9800Q589.1800 682 590.5800 682L590.5800 682L603.6000 682Q605 682 605.9800 682.9800Q606.9600 683.9600 606.9600 685.3600L606.9600 685.3600L606.9600 763.3400L651.3400 763.3400Q652.8800 763.3400 653.8600 764.3200Q654.8400 765.3000 654.8400 766.8400L654.8400 766.8400L654.8400 776.6400Q654.8400 778.0400 653.8600 779.0200Q652.8800 780 651.3400 780L651.3400 780Z" id="title"/></g></svg>