<svg xmlns="http://www.w3.org/2000/svg" version="1.1" xmlns:xlink="http://www.w3.org/1999/xlink" xmlns:svgjs="http://svgjs.dev/svgjs" viewBox="0 0 1920 1080" id="d821dbbc-57cf-4803-bc9c-85bbf6cb77f1"><g><rect width="1920" height="1080" fill="#b6244f"/></g><g fill="#b89685"><path d="M468.687 1264C468.687 952.926 216.448 701.313 -94 701.313L-94 138C527.522 138 1031.37 641.852 1031.37 1264L468.687 1264Z"/></g><g fill="#ffffff" opacity="0.2"><path d="M265.263 1365.25C288.869 1380.05 295.985 1411.12 281.176 1434.72C266.367 1458.33 235.301 1465.44 211.695 1450.64C188.088 1435.83 180.973 1404.77 195.781 1381.16C210.59 1357.55 241.656 1350.44 265.263 1365.25ZM355.971 1125.81C341.163 1149.42 348.278 1180.48 371.884 1195.29C395.491 1210.09 426.558 1202.98 441.366 1179.37C456.175 1155.77 449.06 1124.7 425.453 1109.9C401.846 1095.09 370.78 1102.21 355.971 1125.81ZM516.161 870.463C501.353 894.069 508.468 925.132 532.075 939.938C555.681 954.745 586.748 947.629 601.556 924.023C616.365 900.418 609.25 869.355 585.643 854.549C562.036 839.742 530.97 846.858 516.161 870.463ZM676.352 615.114C661.543 638.72 668.658 669.783 692.265 684.589C715.872 699.395 746.938 692.28 761.746 668.674C776.555 645.069 769.44 614.006 745.833 599.2C722.227 584.393 691.16 591.509 676.352 615.114ZM836.542 359.766C821.733 383.371 828.848 414.434 852.455 429.24C876.062 444.047 907.128 436.931 921.937 413.325C936.745 389.72 929.63 358.657 906.023 343.851C882.417 329.044 851.35 336.16 836.542 359.766ZM451.145 1541.33C436.336 1564.93 443.451 1596 467.058 1610.8C490.665 1625.61 521.731 1618.49 536.54 1594.89C551.349 1571.28 544.233 1540.22 520.627 1525.41C497.02 1510.61 465.953 1517.72 451.145 1541.33ZM611.335 1285.98C596.526 1309.58 603.642 1340.65 627.248 1355.45C650.855 1370.26 681.922 1363.14 696.73 1339.54C711.539 1315.93 704.424 1284.87 680.817 1270.06C657.21 1255.26 626.143 1262.37 611.335 1285.98ZM771.525 1030.63C756.717 1054.23 763.832 1085.3 787.439 1100.1C811.045 1114.91 842.112 1107.79 856.92 1084.19C871.729 1060.58 864.614 1029.52 841.007 1014.71C817.4 999.908 786.334 1007.02 771.525 1030.63ZM931.716 775.28C916.907 798.886 924.022 829.949 947.629 844.755C971.236 859.561 1002.3 852.446 1017.11 828.84C1031.92 805.235 1024.8 774.172 1001.2 759.365C977.591 744.559 946.524 751.675 931.716 775.28ZM1091.91 519.931C1077.1 543.537 1084.21 574.6 1107.82 589.406C1131.43 604.212 1162.49 597.097 1177.3 573.491C1192.11 549.886 1184.99 518.823 1161.39 504.016C1137.78 489.21 1106.71 496.326 1091.91 519.931ZM706.509 1701.49C691.7 1725.1 698.815 1756.16 722.422 1770.97C746.029 1785.77 777.095 1778.66 791.904 1755.05C806.713 1731.45 799.597 1700.38 775.991 1685.58C752.384 1670.77 721.317 1677.89 706.509 1701.49ZM866.699 1446.14C851.89 1469.75 859.006 1500.81 882.612 1515.62C906.219 1530.43 937.286 1523.31 952.094 1499.7C966.903 1476.1 959.788 1445.03 936.181 1430.23C912.574 1415.42 881.508 1422.54 866.699 1446.14ZM1026.89 1190.79C1012.08 1214.4 1019.2 1245.46 1042.8 1260.27C1066.41 1275.08 1097.48 1267.96 1112.28 1244.36C1127.09 1220.75 1119.98 1189.69 1096.37 1174.88C1072.76 1160.07 1041.7 1167.19 1026.89 1190.79ZM1187.08 935.446C1172.27 959.052 1179.39 990.115 1202.99 1004.92C1226.6 1019.73 1257.67 1012.61 1272.47 989.006C1287.28 965.401 1280.17 934.338 1256.56 919.531C1232.95 904.725 1201.89 911.841 1187.08 935.446ZM1347.27 680.097C1332.46 703.703 1339.58 734.766 1363.18 749.572C1386.79 764.378 1417.86 757.262 1432.66 733.657C1447.47 710.052 1440.36 678.989 1416.75 664.182C1393.14 649.376 1361.91 656.53 1347.27 680.097ZM961.873 1861.66C947.064 1885.26 954.179 1916.33 977.786 1931.13C1001.39 1945.94 1032.46 1938.82 1047.27 1915.22C1062.08 1891.61 1054.96 1860.55 1031.35 1845.74C1007.75 1830.94 976.681 1838.05 961.873 1861.66ZM1122.06 1606.31C1107.25 1629.91 1114.37 1660.98 1137.98 1675.78C1161.58 1690.59 1192.65 1683.48 1207.46 1659.87C1222.27 1636.26 1215.15 1605.2 1191.54 1590.39C1167.94 1575.59 1136.87 1582.7 1122.06 1606.31ZM1282.25 1350.96C1267.44 1374.57 1274.56 1405.63 1298.17 1420.44C1321.77 1435.24 1352.84 1428.13 1367.65 1404.52C1382.46 1380.92 1375.34 1349.85 1351.74 1335.05C1328.13 1320.24 1297.06 1327.35 1282.25 1350.96ZM1442.44 1095.61C1427.63 1119.22 1434.75 1150.28 1458.36 1165.09C1481.96 1179.89 1513.03 1172.78 1527.84 1149.17C1542.65 1125.57 1535.53 1094.5 1511.93 1079.7C1488.32 1064.89 1457.09 1072.04 1442.44 1095.61ZM1602.63 840.263C1587.83 863.868 1594.94 894.931 1618.55 909.738C1642.15 924.544 1673.22 917.428 1688.03 893.823C1702.84 870.217 1695.72 839.154 1672.12 824.348C1648.51 809.542 1617.28 816.696 1602.63 840.263ZM1217.24 2021.82C1202.43 2045.43 1209.54 2076.49 1233.15 2091.3C1256.76 2106.11 1287.82 2098.99 1302.63 2075.38C1317.44 2051.78 1310.33 2020.72 1286.72 2005.91C1263.11 1991.1 1232.05 1998.22 1217.24 2021.82ZM1377.43 1766.47C1362.62 1790.08 1369.73 1821.14 1393.34 1835.95C1416.95 1850.76 1448.01 1843.64 1462.82 1820.04C1477.63 1796.43 1470.52 1765.37 1446.91 1750.56C1423.3 1735.75 1392.24 1742.87 1377.43 1766.47ZM1537.62 1511.13C1522.81 1534.73 1529.92 1565.8 1553.53 1580.6C1577.14 1595.41 1608.2 1588.29 1623.01 1564.69C1637.82 1541.08 1630.71 1510.02 1607.1 1495.21C1583.49 1480.4 1552.26 1487.56 1537.62 1511.13ZM1697.81 1255.78C1683 1279.38 1690.11 1310.45 1713.72 1325.25C1737.33 1340.06 1768.39 1332.94 1783.2 1309.34C1798.01 1285.73 1790.9 1254.67 1767.29 1239.86C1743.68 1225.06 1712.45 1232.21 1697.81 1255.78ZM1857.83 1000.47C1843.02 1024.07 1850.14 1055.14 1873.74 1069.94C1897.35 1084.75 1928.42 1077.63 1943.23 1054.03C1958.03 1030.42 1950.92 999.358 1927.31 984.551C1903.87 969.707 1872.64 976.861 1857.83 1000.47Z"/></g><g><path d="M178.635 139.281L184.422 144.246V166.626H215.704L219.958 172.147L215.69 177.397H184.422V198.795L178.635 203.747L173 198.795V144.232L178.635 139.281ZM195.554 195.68H219.406L223.397 200.915L219.143 206.45H195.554L191.7 201.342L195.554 195.68ZM196.382 138H219.129L223.383 143.52L219.129 148.77H196.659L192.115 143.677L196.382 138ZM323.155 148.628L328.251 154.291L323.155 159.968H246.13L241.172 154.291L246.13 148.628H323.155ZM237.043 172.147L241.849 167.893L246.669 172.147V178.393C246.669 188.879 249.417 197.515 261.668 197.515H264.14C275.147 197.515 281.197 189.86 281.197 177.952V172.005L285.879 167.75L290.699 171.862V178.379C290.699 189.007 293.723 196.946 305.56 196.946H307.618C319.178 196.946 321.235 187.869 321.373 177.952V171.578L326.056 167.608L331 171.72V178.094C330.862 191.838 327.285 207.574 308.032 207.574H305.974C294.552 207.574 288.365 202.324 285.892 195.808C283.006 202.466 275.299 208.286 264.844 208.286H262.358C242.553 208.286 237.194 195.964 237.056 178.663V172.147H237.043ZM276.391 274.744L273.642 267.089L280.796 264.969L305.974 276.721V252.491L311.07 248.095L316.291 252.491V281.829L325.641 286.226L328.251 293.311L320.959 296L276.391 274.744ZM321.235 223.011L328.113 226.27L325.917 233.497L264.002 263.119L256.571 260.146L259.596 252.776L321.235 223.011ZM231.905 263.404L237.954 268.512C237.402 286.51 222.403 296 204.669 296H202.874C194.062 296 183.759 292.6 177.157 286.083L177.834 278.855L184.298 278.002C189.118 282.256 195.858 285.229 202.183 285.229H204.117C216.091 285.229 225.303 280.136 226.27 268.085L231.905 263.404ZM226.256 251.638C225.704 239.16 216.629 234.209 204.103 234.209H202.169C194.739 234.209 189.104 237.182 184.284 241.436L177.834 240.583L177.143 233.355C183.745 226.696 192.957 223.58 202.597 223.58H204.517C222.403 223.58 237.402 232.942 237.94 251.211L231.891 256.176L226.256 251.638Z" fill="#ffffff"/></g><path d="M1171 781L1171 339L1187 339L1187 781L1171 781Z" fill="#ffffff"/><g fill="#ffffff" id="info-group"><path d="M167.6400 555L159.1800 555Q158.2800 555 157.6500 554.3700Q157.0200 553.7400 157.0200 552.8400L157.0200 552.8400L157.0200 494.1600Q157.0200 493.2600 157.6500 492.6300Q158.2800 492 159.1800 492L159.1800 492L167.6400 492Q168.6300 492 169.2150 492.6300Q169.8000 493.2600 169.8000 494.1600L169.8000 494.1600L169.8000 552.8400Q169.8000 553.7400 169.2150 554.3700Q168.6300 555 167.6400 555L167.6400 555ZM192.9300 555L185.0100 555Q184.1100 555 183.4800 554.3700Q182.8500 553.7400 182.8500 552.8400L182.8500 552.8400L182.8500 510.3600Q182.8500 509.4600 183.4800 508.8300Q184.1100 508.2000 185.0100 508.2000L185.0100 508.2000L192.3900 508.2000Q193.2900 508.2000 193.9200 508.8300Q194.5500 509.4600 194.5500 510.3600L194.5500 510.3600L194.5500 514.0500Q196.8900 511.1700 200.5350 509.2350Q204.1800 507.3000 209.5800 507.3000L209.5800 507.3000Q215.0700 507.3000 219.1200 509.7750Q223.1700 512.2500 225.3750 516.7500Q227.5800 521.2500 227.5800 527.5500L227.5800 527.5500L227.5800 552.8400Q227.5800 553.7400 226.9500 554.3700Q226.3200 555 225.4200 555L225.4200 555L217.5000 555Q216.6000 555 215.9700 554.3700Q215.3400 553.7400 215.3400 552.8400L215.3400 552.8400L215.3400 528.0900Q215.3400 522.8700 212.7750 519.9000Q210.2100 516.9300 205.3500 516.9300L205.3500 516.9300Q200.6700 516.9300 197.8800 519.9000Q195.0900 522.8700 195.0900 528.0900L195.0900 528.0900L195.0900 552.8400Q195.0900 553.7400 194.4600 554.3700Q193.8300 555 192.9300 555L192.9300 555ZM267.4500 555L260.1600 555Q254.7600 555 251.0700 553.1100Q247.3800 551.2200 245.5800 547.4850Q243.7800 543.7500 243.7800 538.1700L243.7800 538.1700L243.7800 517.7400L236.6700 517.7400Q235.7700 517.7400 235.1400 517.1100Q234.5100 516.4800 234.5100 515.4900L234.5100 515.4900L234.5100 510.3600Q234.5100 509.4600 235.1400 508.8300Q235.7700 508.2000 236.6700 508.2000L236.6700 508.2000L243.7800 508.2000L243.7800 493.2600Q243.7800 492.3600 244.3650 491.7300Q244.9500 491.1000 245.9400 491.1000L245.9400 491.1000L253.2300 491.1000Q254.1300 491.1000 254.7600 491.7300Q255.3900 492.3600 255.3900 493.2600L255.3900 493.2600L255.3900 508.2000L266.6400 508.2000Q267.5400 508.2000 268.1700 508.8300Q268.8000 509.4600 268.8000 510.3600L268.8000 510.3600L268.8000 515.4900Q268.8000 516.4800 268.1700 517.1100Q267.5400 517.7400 266.6400 517.7400L266.6400 517.7400L255.3900 517.7400L255.3900 537.2700Q255.3900 540.9600 256.6950 543.0300Q258 545.1000 261.2400 545.1000L261.2400 545.1000L267.4500 545.1000Q268.3500 545.1000 268.9800 545.7300Q269.6100 546.3600 269.6100 547.2600L269.6100 547.2600L269.6100 552.8400Q269.6100 553.7400 268.9800 554.3700Q268.3500 555 267.4500 555L267.4500 555ZM287.6100 555L279.7800 555Q278.8800 555 278.2500 554.3700Q277.6200 553.7400 277.6200 552.8400L277.6200 552.8400L277.6200 510.4500Q277.6200 509.4600 278.2500 508.8300Q278.8800 508.2000 279.7800 508.2000L279.7800 508.2000L287.0700 508.2000Q287.9700 508.2000 288.6450 508.8300Q289.3200 509.4600 289.3200 510.4500L289.3200 510.4500L289.3200 514.1400Q291.3900 511.2600 294.6750 509.7300Q297.9600 508.2000 302.2800 508.2000L302.2800 508.2000L305.9700 508.2000Q306.9600 508.2000 307.5450 508.8300Q308.1300 509.4600 308.1300 510.3600L308.1300 510.3600L308.1300 516.8400Q308.1300 517.7400 307.5450 518.3700Q306.9600 519 305.9700 519L305.9700 519L298.9500 519Q294.6300 519 292.2450 521.3850Q289.8600 523.7700 289.8600 528.0900L289.8600 528.0900L289.8600 552.8400Q289.8600 553.7400 289.2300 554.3700Q288.6000 555 287.6100 555L287.6100 555ZM335.8500 555.9000L335.8500 555.9000Q328.6500 555.9000 323.7450 553.3800Q318.8400 550.8600 316.2750 546.2700Q313.7100 541.6800 313.3500 535.5600L313.3500 535.5600Q313.2600 533.9400 313.2600 531.6000Q313.2600 529.2600 313.3500 527.6400L313.3500 527.6400Q313.7100 521.4300 316.3650 516.8850Q319.0200 512.3400 323.9250 509.8200Q328.8300 507.3000 335.8500 507.3000L335.8500 507.3000Q342.8700 507.3000 347.7750 509.8200Q352.6800 512.3400 355.3350 516.8850Q357.9900 521.4300 358.3500 527.6400L358.3500 527.6400Q358.4400 529.2600 358.4400 531.6000Q358.4400 533.9400 358.3500 535.5600L358.3500 535.5600Q357.9900 541.6800 355.4250 546.2700Q352.8600 550.8600 347.9550 553.3800Q343.0500 555.9000 335.8500 555.9000ZM335.8500 546.9900L335.8500 546.9900Q340.6200 546.9900 343.2300 543.9750Q345.8400 540.9600 346.1100 535.1100L346.1100 535.1100Q346.2000 533.7600 346.2000 531.6000Q346.2000 529.4400 346.1100 528.0900L346.1100 528.0900Q345.8400 522.2400 343.2300 519.2250Q340.6200 516.2100 335.8500 516.2100L335.8500 516.2100Q331.0800 516.2100 328.4700 519.2250Q325.8600 522.2400 325.5900 528.0900L325.5900 528.0900Q325.5000 529.4400 325.5000 531.6000Q325.5000 533.7600 325.5900 535.1100L325.5900 535.1100Q325.8600 540.9600 328.4700 543.9750Q331.0800 546.9900 335.8500 546.9900ZM385.8000 555.9000L385.8000 555.9000Q381.1200 555.9000 377.5650 554.3250Q374.0100 552.7500 371.6700 549.8700Q369.3300 546.9900 368.0700 543.0750Q366.8100 539.1600 366.6300 534.4800L366.6300 534.4800Q366.5400 532.8600 366.5400 531.5550Q366.5400 530.2500 366.6300 528.6300L366.6300 528.6300Q366.8100 524.1300 368.0250 520.2600Q369.2400 516.3900 371.6250 513.4650Q374.0100 510.5400 377.5650 508.9200Q381.1200 507.3000 385.8000 507.3000L385.8000 507.3000Q390.6600 507.3000 394.0350 508.9650Q397.4100 510.6300 399.6600 513.2400L399.6600 513.2400L399.6600 493.2600Q399.6600 492.3600 400.2450 491.7300Q400.8300 491.1000 401.8200 491.1000L401.8200 491.1000L409.4700 491.1000Q410.3700 491.1000 411 491.7300Q411.6300 492.3600 411.6300 493.2600L411.6300 493.2600L411.6300 552.8400Q411.6300 553.7400 411 554.3700Q410.3700 555 409.4700 555L409.4700 555L402.3600 555Q401.3700 555 400.7850 554.3700Q400.2000 553.7400 400.2000 552.8400L400.2000 552.8400L400.2000 549.5100Q397.9500 552.3000 394.4850 554.1000Q391.0200 555.9000 385.8000 555.9000ZM389.1300 546.2700L389.1300 546.2700Q392.9100 546.2700 395.1600 544.5600Q397.4100 542.8500 398.4900 540.1950Q399.5700 537.5400 399.6600 534.7500L399.6600 534.7500Q399.7500 533.1300 399.7500 531.2850Q399.7500 529.4400 399.6600 527.8200L399.6600 527.8200Q399.5700 525.1200 398.4000 522.6450Q397.2300 520.1700 394.9800 518.5500Q392.7300 516.9300 389.1300 516.9300L389.1300 516.9300Q385.3500 516.9300 383.1450 518.5950Q380.9400 520.2600 379.9500 522.9600Q378.9600 525.6600 378.7800 528.9000L378.7800 528.9000Q378.6900 531.6000 378.7800 534.3000L378.7800 534.3000Q378.9600 537.5400 379.9500 540.2400Q380.9400 542.9400 383.1450 544.6050Q385.3500 546.2700 389.1300 546.2700ZM440.9700 555.9000L440.9700 555.9000Q435.4800 555.9000 431.4750 553.4250Q427.4700 550.9500 425.3100 546.4050Q423.1500 541.8600 423.1500 535.6500L423.1500 535.6500L423.1500 510.3600Q423.1500 509.4600 423.7800 508.8300Q424.4100 508.2000 425.3100 508.2000L425.3100 508.2000L433.2300 508.2000Q434.2200 508.2000 434.8050 508.8300Q435.3900 509.4600 435.3900 510.3600L435.3900 510.3600L435.3900 535.1100Q435.3900 546.2700 445.2000 546.2700L445.2000 546.2700Q449.8800 546.2700 452.6250 543.3000Q455.3700 540.3300 455.3700 535.1100L455.3700 535.1100L455.3700 510.3600Q455.3700 509.4600 456 508.8300Q456.6300 508.2000 457.5300 508.2000L457.5300 508.2000L465.4500 508.2000Q466.3500 508.2000 466.9800 508.8300Q467.6100 509.4600 467.6100 510.3600L467.6100 510.3600L467.6100 552.8400Q467.6100 553.7400 466.9800 554.3700Q466.3500 555 465.4500 555L465.4500 555L458.1600 555Q457.1700 555 456.5850 554.3700Q456 553.7400 456 552.8400L456 552.8400L456 549.1500Q453.5700 552.3000 449.9700 554.1000Q446.3700 555.9000 440.9700 555.9000ZM499.6500 574.8000L499.6500 574.8000Q497.1300 574.7100 495.1950 573.9000Q493.2600 573.0900 492.4050 572.0100Q491.5500 570.9300 492.4500 570.2100L492.4500 570.2100L493.9800 568.8600Q494.7900 568.1400 495.3750 568.4550Q495.9600 568.7700 496.9050 569.3550Q497.8500 569.9400 499.6500 569.9400L499.6500 569.9400Q501 569.9400 501.9900 569.0850Q502.9800 568.2300 502.9800 566.8800L502.9800 566.8800Q502.9800 565.6200 502.0350 564.8100Q501.0900 564 499.6500 564L499.6500 564Q498.3900 564 497.4900 564.3150Q496.5900 564.6300 495.8700 564.7650Q495.1500 564.9000 494.4300 564.1800L494.4300 564.1800L492.8100 562.5600Q492.2700 561.9300 492.4500 561.2550Q492.6300 560.5800 492.9900 559.7700L492.9900 559.7700L494.8800 555.4500Q487.1400 554.2800 482.5500 549.0150Q477.9600 543.7500 477.6900 535.2000L477.6900 535.2000Q477.6000 533.8500 477.6000 531.6450Q477.6000 529.4400 477.6900 528L477.6900 528Q477.9600 521.4300 480.7050 516.7950Q483.4500 512.1600 488.3550 509.7300Q493.2600 507.3000 499.7400 507.3000L499.7400 507.3000Q505.5000 507.3000 509.5500 508.8750Q513.6000 510.4500 516.2100 512.9250Q518.8200 515.4000 520.1250 518.0550Q521.4300 520.7100 521.5200 522.8700L521.5200 522.8700Q521.6100 523.8600 520.9350 524.4450Q520.2600 525.0300 519.3600 525.0300L519.3600 525.0300L511.4400 525.0300Q510.5400 525.0300 510.0450 524.5800Q509.5500 524.1300 509.1000 523.2300L509.1000 523.2300Q507.7500 519.6300 505.5450 518.1450Q503.3400 516.6600 499.9200 516.6600L499.9200 516.6600Q495.4200 516.6600 492.7650 519.4950Q490.1100 522.3300 489.9300 528.4500L489.9300 528.4500Q489.7500 531.8700 489.9300 534.7500L489.9300 534.7500Q490.1100 540.9600 492.7650 543.7500Q495.4200 546.5400 499.9200 546.5400L499.9200 546.5400Q503.4300 546.5400 505.5900 545.0550Q507.7500 543.5700 509.1000 539.9700L509.1000 539.9700Q509.5500 539.0700 510.0450 538.6200Q510.5400 538.1700 511.4400 538.1700L511.4400 538.1700L519.3600 538.1700Q520.2600 538.1700 520.9350 538.7550Q521.6100 539.3400 521.5200 540.3300L521.5200 540.3300Q521.4300 542.3100 520.1700 544.9650Q518.9100 547.6200 516.3900 550.0950Q513.8700 552.5700 509.8200 554.2350Q505.7700 555.9000 500.0100 555.9000L500.0100 555.9000L498.1200 559.7700Q498.6600 559.5000 499.6050 559.3200Q500.5500 559.1400 501.2700 559.1400L501.2700 559.1400Q504.4200 559.1400 506.3550 561.3000Q508.2900 563.4600 508.2900 566.7900L508.2900 566.7900Q508.2900 570.2100 506.0400 572.5500Q503.7900 574.8900 499.6500 574.8000ZM544.4700 555.9000L544.4700 555.9000Q539.7900 555.9000 536.0100 554.0550Q532.2300 552.2100 530.0250 549.1050Q527.8200 546 527.8200 542.1300L527.8200 542.1300Q527.8200 535.8300 532.9500 532.0950Q538.0800 528.3600 546.3600 527.1000L546.3600 527.1000L558.6900 525.3000L558.6900 523.4100Q558.6900 519.6300 556.8000 517.5600Q554.9100 515.4900 550.3200 515.4900L550.3200 515.4900Q547.0800 515.4900 545.0550 516.7950Q543.0300 518.1000 542.0400 520.2600L542.0400 520.2600Q541.3200 521.4300 539.9700 521.4300L539.9700 521.4300L532.8600 521.4300Q531.8700 521.4300 531.3750 520.8900Q530.8800 520.3500 530.8800 519.4500L530.8800 519.4500Q530.9700 518.0100 532.0950 515.9400Q533.2200 513.8700 535.5150 511.9350Q537.8100 510 541.5000 508.6500Q545.1900 507.3000 550.4100 507.3000L550.4100 507.3000Q556.0800 507.3000 559.9950 508.6950Q563.9100 510.0900 566.2500 512.4300Q568.5900 514.7700 569.6700 517.9200Q570.7500 521.0700 570.7500 524.5800L570.7500 524.5800L570.7500 552.8400Q570.7500 553.7400 570.1200 554.3700Q569.4900 555 568.5900 555L568.5900 555L561.3000 555Q560.3100 555 559.7250 554.3700Q559.1400 553.7400 559.1400 552.8400L559.1400 552.8400L559.1400 549.3300Q557.9700 550.9500 555.9900 552.4800Q554.0100 554.0100 551.1750 554.9550Q548.3400 555.9000 544.4700 555.9000ZM547.5300 547.3500L547.5300 547.3500Q550.6800 547.3500 553.2450 546Q555.8100 544.6500 557.2950 541.8150Q558.7800 538.9800 558.7800 534.6600L558.7800 534.6600L558.7800 532.7700L549.7800 534.2100Q544.4700 535.0200 541.8600 536.8200Q539.2500 538.6200 539.2500 541.2300L539.2500 541.2300Q539.2500 543.2100 540.4650 544.6050Q541.6800 546 543.5700 546.6750Q545.4600 547.3500 547.5300 547.3500ZM555.3600 501.9000L555.3600 501.9000Q553.0200 501.9000 551.5800 501.1350Q550.1400 500.3700 548.9250 499.5600Q547.7100 498.7500 546.2700 498.7500L546.2700 498.7500Q545.1000 498.7500 544.6050 499.4250Q544.1100 500.1000 543.6600 500.7750Q543.2100 501.4500 542.2200 501.4500L542.2200 501.4500L538.0800 501.4500Q537.4500 501.4500 537 501Q536.5500 500.5500 536.5500 499.9200L536.5500 499.9200Q536.5500 498.5700 537.0450 496.9050Q537.5400 495.2400 538.6200 493.7100Q539.7000 492.1800 541.3650 491.2350Q543.0300 490.2900 545.2800 490.2900L545.2800 490.2900Q547.7100 490.2900 549.1500 491.0550Q550.5900 491.8200 551.8050 492.6300Q553.0200 493.4400 554.4600 493.4400L554.4600 493.4400Q555.6300 493.4400 556.1250 492.7200Q556.6200 492 557.0700 491.3250Q557.5200 490.6500 558.5100 490.6500L558.5100 490.6500L562.6500 490.6500Q563.3700 490.6500 563.7750 491.1450Q564.1800 491.6400 564.1800 492.2700L564.1800 492.2700Q564.1800 493.6200 563.6850 495.2850Q563.1900 496.9500 562.1100 498.4800Q561.0300 500.0100 559.3650 500.9550Q557.7000 501.9000 555.3600 501.9000ZM602.9700 555.9000L602.9700 555.9000Q595.7700 555.9000 590.8650 553.3800Q585.9600 550.8600 583.3950 546.2700Q580.8300 541.6800 580.4700 535.5600L580.4700 535.5600Q580.3800 533.9400 580.3800 531.6000Q580.3800 529.2600 580.4700 527.6400L580.4700 527.6400Q580.8300 521.4300 583.4850 516.8850Q586.1400 512.3400 591.0450 509.8200Q595.9500 507.3000 602.9700 507.3000L602.9700 507.3000Q609.9900 507.3000 614.8950 509.8200Q619.8000 512.3400 622.4550 516.8850Q625.1100 521.4300 625.4700 527.6400L625.4700 527.6400Q625.5600 529.2600 625.5600 531.6000Q625.5600 533.9400 625.4700 535.5600L625.4700 535.5600Q625.1100 541.6800 622.5450 546.2700Q619.9800 550.8600 615.0750 553.3800Q610.1700 555.9000 602.9700 555.9000ZM602.9700 546.9900L602.9700 546.9900Q607.7400 546.9900 610.3500 543.9750Q612.9600 540.9600 613.2300 535.1100L613.2300 535.1100Q613.3200 533.7600 613.3200 531.6000Q613.3200 529.4400 613.2300 528.0900L613.2300 528.0900Q612.9600 522.2400 610.3500 519.2250Q607.7400 516.2100 602.9700 516.2100L602.9700 516.2100Q598.2000 516.2100 595.5900 519.2250Q592.9800 522.2400 592.7100 528.0900L592.7100 528.0900Q592.6200 529.4400 592.6200 531.6000Q592.6200 533.7600 592.7100 535.1100L592.7100 535.1100Q592.9800 540.9600 595.5900 543.9750Q598.2000 546.9900 602.9700 546.9900ZM669.7500 555.9000L669.7500 555.9000Q665.0700 555.9000 661.2900 554.0550Q657.5100 552.2100 655.3050 549.1050Q653.1000 546 653.1000 542.1300L653.1000 542.1300Q653.1000 535.8300 658.2300 532.0950Q663.3600 528.3600 671.6400 527.1000L671.6400 527.1000L683.9700 525.3000L683.9700 523.4100Q683.9700 519.6300 682.0800 517.5600Q680.1900 515.4900 675.6000 515.4900L675.6000 515.4900Q672.3600 515.4900 670.3350 516.7950Q668.3100 518.1000 667.3200 520.2600L667.3200 520.2600Q666.6000 521.4300 665.2500 521.4300L665.2500 521.4300L658.1400 521.4300Q657.1500 521.4300 656.6550 520.8900Q656.1600 520.3500 656.1600 519.4500L656.1600 519.4500Q656.2500 518.0100 657.3750 515.9400Q658.5000 513.8700 660.7950 511.9350Q663.0900 510 666.7800 508.6500Q670.4700 507.3000 675.6900 507.3000L675.6900 507.3000Q681.3600 507.3000 685.2750 508.6950Q689.1900 510.0900 691.5300 512.4300Q693.8700 514.7700 694.9500 517.9200Q696.0300 521.0700 696.0300 524.5800L696.0300 524.5800L696.0300 552.8400Q696.0300 553.7400 695.4000 554.3700Q694.7700 555 693.8700 555L693.8700 555L686.5800 555Q685.5900 555 685.0050 554.3700Q684.4200 553.7400 684.4200 552.8400L684.4200 552.8400L684.4200 549.3300Q683.2500 550.9500 681.2700 552.4800Q679.2900 554.0100 676.4550 554.9550Q673.6200 555.9000 669.7500 555.9000ZM672.8100 547.3500L672.8100 547.3500Q675.9600 547.3500 678.5250 546Q681.0900 544.6500 682.5750 541.8150Q684.0600 538.9800 684.0600 534.6600L684.0600 534.6600L684.0600 532.7700L675.0600 534.2100Q669.7500 535.0200 667.1400 536.8200Q664.5300 538.6200 664.5300 541.2300L664.5300 541.2300Q664.5300 543.2100 665.7450 544.6050Q666.9600 546 668.8500 546.6750Q670.7400 547.3500 672.8100 547.3500ZM728.2500 555.9000L728.2500 555.9000Q721.0500 555.9000 716.1450 553.3800Q711.2400 550.8600 708.6750 546.2700Q706.1100 541.6800 705.7500 535.5600L705.7500 535.5600Q705.6600 533.9400 705.6600 531.6000Q705.6600 529.2600 705.7500 527.6400L705.7500 527.6400Q706.1100 521.4300 708.7650 516.8850Q711.4200 512.3400 716.3250 509.8200Q721.2300 507.3000 728.2500 507.3000L728.2500 507.3000Q735.2700 507.3000 740.1750 509.8200Q745.0800 512.3400 747.7350 516.8850Q750.3900 521.4300 750.7500 527.6400L750.7500 527.6400Q750.8400 529.2600 750.8400 531.6000Q750.8400 533.9400 750.7500 535.5600L750.7500 535.5600Q750.3900 541.6800 747.8250 546.2700Q745.2600 550.8600 740.3550 553.3800Q735.4500 555.9000 728.2500 555.9000ZM728.2500 546.9900L728.2500 546.9900Q733.0200 546.9900 735.6300 543.9750Q738.2400 540.9600 738.5100 535.1100L738.5100 535.1100Q738.6000 533.7600 738.6000 531.6000Q738.6000 529.4400 738.5100 528.0900L738.5100 528.0900Q738.2400 522.2400 735.6300 519.2250Q733.0200 516.2100 728.2500 516.2100L728.2500 516.2100Q723.4800 516.2100 720.8700 519.2250Q718.2600 522.2400 717.9900 528.0900L717.9900 528.0900Q717.9000 529.4400 717.9000 531.6000Q717.9000 533.7600 717.9900 535.1100L717.9900 535.1100Q718.2600 540.9600 720.8700 543.9750Q723.4800 546.9900 728.2500 546.9900ZM181.3200 645L173.0400 645Q172.1400 645 171.5100 644.3700Q170.8800 643.7400 170.8800 642.8400L170.8800 642.8400L170.8800 593.0700L154.2300 593.0700Q153.3300 593.0700 152.7000 592.4400Q152.0700 591.8100 152.0700 590.9100L152.0700 590.9100L152.0700 584.2500Q152.0700 583.2600 152.7000 582.6300Q153.3300 582 154.2300 582L154.2300 582L200.1300 582Q201.1200 582 201.7500 582.6300Q202.3800 583.2600 202.3800 584.2500L202.3800 584.2500L202.3800 590.9100Q202.3800 591.8100 201.7500 592.4400Q201.1200 593.0700 200.1300 593.0700L200.1300 593.0700L183.5700 593.0700L183.5700 642.8400Q183.5700 643.7400 182.9400 644.3700Q182.3100 645 181.3200 645L181.3200 645ZM225.9600 662.1000L218.8500 662.1000Q218.1300 662.1000 217.5900 661.5600Q217.0500 661.0200 217.0500 660.3000L217.0500 660.3000Q217.0500 659.9400 217.0950 659.6250Q217.1400 659.3100 217.4100 658.8600L217.4100 658.8600L224.4300 642.2100L207.1500 601.4400Q206.7900 600.5400 206.7900 600.1800L206.7900 600.1800Q206.8800 599.3700 207.4200 598.7850Q207.9600 598.2000 208.7700 598.2000L208.7700 598.2000L216.0600 598.2000Q217.1400 598.2000 217.6800 598.7400Q218.2200 599.2800 218.4900 599.9100L218.4900 599.9100L230.4600 629.3400L242.7900 599.9100Q243.0600 599.1900 243.6000 598.6950Q244.1400 598.2000 245.2200 598.2000L245.2200 598.2000L252.4200 598.2000Q253.1400 598.2000 253.7250 598.7400Q254.3100 599.2800 254.3100 600L254.3100 600Q254.3100 600.5400 253.9500 601.4400L253.9500 601.4400L228.4800 660.3900Q228.1200 661.1100 227.5800 661.6050Q227.0400 662.1000 225.9600 662.1000L225.9600 662.1000ZM271.9500 662.1000L264.3000 662.1000Q263.4000 662.1000 262.7700 661.4700Q262.1400 660.8400 262.1400 659.9400L262.1400 659.9400L262.1400 600.3600Q262.1400 599.4600 262.7700 598.8300Q263.4000 598.2000 264.3000 598.2000L264.3000 598.2000L271.4100 598.2000Q272.4000 598.2000 272.9850 598.8300Q273.5700 599.4600 273.5700 600.3600L273.5700 600.3600L273.5700 603.9600Q275.7300 601.0800 279.2400 599.1900Q282.7500 597.3000 287.9700 597.3000L287.9700 597.3000Q292.7400 597.3000 296.2500 598.8300Q299.7600 600.3600 302.1000 603.1950Q304.4400 606.0300 305.7000 609.9000Q306.9600 613.7700 307.1400 618.4500L307.1400 618.4500Q307.2300 619.9800 307.2300 621.6000Q307.2300 623.2200 307.1400 624.8400L307.1400 624.8400Q307.0500 629.3400 305.7900 633.1650Q304.5300 636.9900 302.1450 639.8250Q299.7600 642.6600 296.2500 644.2800Q292.7400 645.9000 287.9700 645.9000L287.9700 645.9000Q283.1100 645.9000 279.6900 644.1450Q276.2700 642.3900 274.1100 639.5100L274.1100 639.5100L274.1100 659.9400Q274.1100 660.8400 273.5250 661.4700Q272.9400 662.1000 271.9500 662.1000L271.9500 662.1000ZM284.6400 636.2700L284.6400 636.2700Q288.5100 636.2700 290.6700 634.6050Q292.8300 632.9400 293.8200 630.2400Q294.8100 627.5400 294.9900 624.3000L294.9900 624.3000Q295.0800 621.6000 294.9900 618.9000L294.9900 618.9000Q294.8100 615.6600 293.8200 612.9600Q292.8300 610.2600 290.6700 608.5950Q288.5100 606.9300 284.6400 606.9300L284.6400 606.9300Q280.9500 606.9300 278.6550 608.6400Q276.3600 610.3500 275.3250 613.0050Q274.2900 615.6600 274.1100 618.4500L274.1100 618.4500Q274.0200 620.0700 274.0200 621.8700Q274.0200 623.6700 274.1100 625.3800L274.1100 625.3800Q274.2000 628.0800 275.3700 630.5550Q276.5400 633.0300 278.7900 634.6500Q281.0400 636.2700 284.6400 636.2700ZM337.4700 645.9000L337.4700 645.9000Q327.4800 645.9000 321.6300 640.1400Q315.7800 634.3800 315.3300 623.7600L315.3300 623.7600Q315.2400 622.8600 315.2400 621.4650Q315.2400 620.0700 315.3300 619.2600L315.3300 619.2600Q315.6900 612.4200 318.4350 607.5150Q321.1800 602.6100 326.0400 599.9550Q330.9000 597.3000 337.4700 597.3000L337.4700 597.3000Q344.7600 597.3000 349.7100 600.3150Q354.6600 603.3300 357.1800 608.6850Q359.7000 614.0400 359.7000 621.0600L359.7000 621.0600L359.7000 622.9500Q359.7000 623.8500 359.0700 624.4800Q358.4400 625.1100 357.4500 625.1100L357.4500 625.1100L327.5700 625.1100Q327.5700 625.1100 327.5700 625.3800Q327.5700 625.6500 327.5700 625.8300L327.5700 625.8300Q327.6600 628.9800 328.7850 631.6350Q329.9100 634.2900 332.1150 635.9100Q334.3200 637.5300 337.3800 637.5300L337.3800 637.5300Q339.9000 637.5300 341.6100 636.7650Q343.3200 636 344.4000 635.0100Q345.4800 634.0200 345.9300 633.3900L345.9300 633.3900Q346.7400 632.3100 347.2350 632.0850Q347.7300 631.8600 348.7200 631.8600L348.7200 631.8600L356.4600 631.8600Q357.3600 631.8600 357.9450 632.4000Q358.5300 632.9400 358.4400 633.7500L358.4400 633.7500Q358.3500 635.1900 356.9550 637.2600Q355.5600 639.3300 352.9500 641.3100Q350.3400 643.2900 346.4250 644.5950Q342.5100 645.9000 337.4700 645.9000ZM327.5700 617.2800L327.5700 617.5500L347.4600 617.5500L347.4600 617.2800Q347.4600 613.7700 346.2900 611.1150Q345.1200 608.4600 342.8700 606.9750Q340.6200 605.4900 337.4700 605.4900L337.4700 605.4900Q334.3200 605.4900 332.0700 606.9750Q329.8200 608.4600 328.6950 611.1150Q327.5700 613.7700 327.5700 617.2800L327.5700 617.2800ZM392.1900 645.9000L392.1900 645.9000Q383.8200 645.9000 378.1950 643.4250Q372.5700 640.9500 369.6450 636.9450Q366.7200 632.9400 366.5400 628.5300L366.5400 628.5300Q366.5400 627.7200 367.0800 627.1800Q367.6200 626.6400 368.4300 626.6400L368.4300 626.6400L376.4400 626.6400Q377.6100 626.6400 378.1950 627.1350Q378.7800 627.6300 379.2300 628.3500L379.2300 628.3500Q379.7700 630.0600 381.3000 631.7250Q382.8300 633.3900 385.4850 634.4700Q388.1400 635.5500 392.1900 635.5500L392.1900 635.5500Q398.6700 635.5500 401.8650 633.3900Q405.0600 631.2300 405.0600 627.5400L405.0600 627.5400Q405.0600 624.9300 403.3500 623.3550Q401.6400 621.7800 398.0850 620.4750Q394.5300 619.1700 388.6800 617.7300L388.6800 617.7300Q381.9300 616.1100 377.3850 613.8150Q372.8400 611.5200 370.5450 608.0100Q368.2500 604.5000 368.2500 599.1000L368.2500 599.1000Q368.2500 593.8800 371.0850 589.8300Q373.9200 585.7800 379.1850 583.4400Q384.4500 581.1000 391.7400 581.1000L391.7400 581.1000Q397.5900 581.1000 402.0900 582.6750Q406.5900 584.2500 409.5600 586.8150Q412.5300 589.3800 414.1050 592.3050Q415.6800 595.2300 415.7700 598.0200L415.7700 598.0200Q415.7700 598.7400 415.2750 599.3250Q414.7800 599.9100 413.8800 599.9100L413.8800 599.9100L405.5100 599.9100Q404.7900 599.9100 404.0700 599.5500Q403.3500 599.1900 402.9000 598.2000L402.9000 598.2000Q402.3600 595.4100 399.3900 593.4300Q396.4200 591.4500 391.7400 591.4500L391.7400 591.4500Q386.8800 591.4500 383.9100 593.2500Q380.9400 595.0500 380.9400 598.8300L380.9400 598.8300Q380.9400 601.3500 382.4250 603.0150Q383.9100 604.6800 387.1950 605.9400Q390.4800 607.2000 395.8800 608.6400L395.8800 608.6400Q403.5300 610.3500 408.3900 612.6000Q413.2500 614.8500 415.5000 618.3150Q417.7500 621.7800 417.7500 627.0900L417.7500 627.0900Q417.7500 633.0300 414.5550 637.2150Q411.3600 641.4000 405.6000 643.6500Q399.8400 645.9000 392.1900 645.9000ZM447.2700 645.9000L447.2700 645.9000Q440.7900 645.9000 435.8850 643.4700Q430.9800 641.0400 428.2350 636.4050Q425.4900 631.7700 425.2200 625.2000L425.2200 625.2000Q425.1300 623.8500 425.1300 621.6450Q425.1300 619.4400 425.2200 618L425.2200 618Q425.4900 611.4300 428.2350 606.7950Q430.9800 602.1600 435.8850 599.7300Q440.7900 597.3000 447.2700 597.3000L447.2700 597.3000Q453.0300 597.3000 457.0800 598.8750Q461.1300 600.4500 463.7400 602.9250Q466.3500 605.4000 467.6550 608.0550Q468.9600 610.7100 469.0500 612.8700L469.0500 612.8700Q469.1400 613.8600 468.4650 614.4450Q467.7900 615.0300 466.8900 615.0300L466.8900 615.0300L458.9700 615.0300Q458.0700 615.0300 457.5750 614.5800Q457.0800 614.1300 456.6300 613.2300L456.6300 613.2300Q455.2800 609.6300 453.0750 608.1450Q450.8700 606.6600 447.4500 606.6600L447.4500 606.6600Q442.9500 606.6600 440.2950 609.4950Q437.6400 612.3300 437.4600 618.4500L437.4600 618.4500Q437.2800 621.8700 437.4600 624.7500L437.4600 624.7500Q437.6400 630.9600 440.2950 633.7500Q442.9500 636.5400 447.4500 636.5400L447.4500 636.5400Q450.9600 636.5400 453.1200 635.0550Q455.2800 633.5700 456.6300 629.9700L456.6300 629.9700Q457.0800 629.0700 457.5750 628.6200Q458.0700 628.1700 458.9700 628.1700L458.9700 628.1700L466.8900 628.1700Q467.7900 628.1700 468.4650 628.7550Q469.1400 629.3400 469.0500 630.3300L469.0500 630.3300Q468.9600 631.9500 468.1950 633.9750Q467.4300 636 465.7650 638.1150Q464.1000 640.2300 461.5800 641.9850Q459.0600 643.7400 455.5050 644.8200Q451.9500 645.9000 447.2700 645.9000ZM488.4000 645L480.5700 645Q479.6700 645 479.0400 644.3700Q478.4100 643.7400 478.4100 642.8400L478.4100 642.8400L478.4100 600.4500Q478.4100 599.4600 479.0400 598.8300Q479.6700 598.2000 480.5700 598.2000L480.5700 598.2000L487.8600 598.2000Q488.7600 598.2000 489.4350 598.8300Q490.1100 599.4600 490.1100 600.4500L490.1100 600.4500L490.1100 604.1400Q492.1800 601.2600 495.4650 599.7300Q498.7500 598.2000 503.0700 598.2000L503.0700 598.2000L506.7600 598.2000Q507.7500 598.2000 508.3350 598.8300Q508.9200 599.4600 508.9200 600.3600L508.9200 600.3600L508.9200 606.8400Q508.9200 607.7400 508.3350 608.3700Q507.7500 609 506.7600 609L506.7600 609L499.7400 609Q495.4200 609 493.0350 611.3850Q490.6500 613.7700 490.6500 618.0900L490.6500 618.0900L490.6500 642.8400Q490.6500 643.7400 490.0200 644.3700Q489.3900 645 488.4000 645L488.4000 645ZM525.5700 645L518.1000 645Q517.2000 645 516.5700 644.3700Q515.9400 643.7400 515.9400 642.8400L515.9400 642.8400L515.9400 600.3600Q515.9400 599.4600 516.5700 598.8300Q517.2000 598.2000 518.1000 598.2000L518.1000 598.2000L525.5700 598.2000Q526.5600 598.2000 527.1450 598.8300Q527.7300 599.4600 527.7300 600.3600L527.7300 600.3600L527.7300 642.8400Q527.7300 643.7400 527.1450 644.3700Q526.5600 645 525.5700 645L525.5700 645ZM525.9300 590.4600L517.7400 590.4600Q516.8400 590.4600 516.2100 589.8300Q515.5800 589.2000 515.5800 588.3000L515.5800 588.3000L515.5800 581.8200Q515.5800 580.9200 516.2100 580.2900Q516.8400 579.6600 517.7400 579.6600L517.7400 579.6600L525.9300 579.6600Q526.9200 579.6600 527.5500 580.2900Q528.1800 580.9200 528.1800 581.8200L528.1800 581.8200L528.1800 588.3000Q528.1800 589.2000 527.5500 589.8300Q526.9200 590.4600 525.9300 590.4600L525.9300 590.4600ZM549.6000 662.1000L541.9500 662.1000Q541.0500 662.1000 540.4200 661.4700Q539.7900 660.8400 539.7900 659.9400L539.7900 659.9400L539.7900 600.3600Q539.7900 599.4600 540.4200 598.8300Q541.0500 598.2000 541.9500 598.2000L541.9500 598.2000L549.0600 598.2000Q550.0500 598.2000 550.6350 598.8300Q551.2200 599.4600 551.2200 600.3600L551.2200 600.3600L551.2200 603.9600Q553.3800 601.0800 556.8900 599.1900Q560.4000 597.3000 565.6200 597.3000L565.6200 597.3000Q570.3900 597.3000 573.9000 598.8300Q577.4100 600.3600 579.7500 603.1950Q582.0900 606.0300 583.3500 609.9000Q584.6100 613.7700 584.7900 618.4500L584.7900 618.4500Q584.8800 619.9800 584.8800 621.6000Q584.8800 623.2200 584.7900 624.8400L584.7900 624.8400Q584.7000 629.3400 583.4400 633.1650Q582.1800 636.9900 579.7950 639.8250Q577.4100 642.6600 573.9000 644.2800Q570.3900 645.9000 565.6200 645.9000L565.6200 645.9000Q560.7600 645.9000 557.3400 644.1450Q553.9200 642.3900 551.7600 639.5100L551.7600 639.5100L551.7600 659.9400Q551.7600 660.8400 551.1750 661.4700Q550.5900 662.1000 549.6000 662.1000L549.6000 662.1000ZM562.2900 636.2700L562.2900 636.2700Q566.1600 636.2700 568.3200 634.6050Q570.4800 632.9400 571.4700 630.2400Q572.4600 627.5400 572.6400 624.3000L572.6400 624.3000Q572.7300 621.6000 572.6400 618.9000L572.6400 618.9000Q572.4600 615.6600 571.4700 612.9600Q570.4800 610.2600 568.3200 608.5950Q566.1600 606.9300 562.2900 606.9300L562.2900 606.9300Q558.6000 606.9300 556.3050 608.6400Q554.0100 610.3500 552.9750 613.0050Q551.9400 615.6600 551.7600 618.4500L551.7600 618.4500Q551.6700 620.0700 551.6700 621.8700Q551.6700 623.6700 551.7600 625.3800L551.7600 625.3800Q551.8500 628.0800 553.0200 630.5550Q554.1900 633.0300 556.4400 634.6500Q558.6900 636.2700 562.2900 636.2700ZM623.4000 645L616.1100 645Q610.7100 645 607.0200 643.1100Q603.3300 641.2200 601.5300 637.4850Q599.7300 633.7500 599.7300 628.1700L599.7300 628.1700L599.7300 607.7400L592.6200 607.7400Q591.7200 607.7400 591.0900 607.1100Q590.4600 606.4800 590.4600 605.4900L590.4600 605.4900L590.4600 600.3600Q590.4600 599.4600 591.0900 598.8300Q591.7200 598.2000 592.6200 598.2000L592.6200 598.2000L599.7300 598.2000L599.7300 583.2600Q599.7300 582.3600 600.3150 581.7300Q600.9000 581.1000 601.8900 581.1000L601.8900 581.1000L609.1800 581.1000Q610.0800 581.1000 610.7100 581.7300Q611.3400 582.3600 611.3400 583.2600L611.3400 583.2600L611.3400 598.2000L622.5900 598.2000Q623.4900 598.2000 624.1200 598.8300Q624.7500 599.4600 624.7500 600.3600L624.7500 600.3600L624.7500 605.4900Q624.7500 606.4800 624.1200 607.1100Q623.4900 607.7400 622.5900 607.7400L622.5900 607.7400L611.3400 607.7400L611.3400 627.2700Q611.3400 630.9600 612.6450 633.0300Q613.9500 635.1000 617.1900 635.1000L617.1900 635.1000L623.4000 635.1000Q624.3000 635.1000 624.9300 635.7300Q625.5600 636.3600 625.5600 637.2600L625.5600 637.2600L625.5600 642.8400Q625.5600 643.7400 624.9300 644.3700Q624.3000 645 623.4000 645L623.4000 645Z" id="title"/><path d="M1448.3400 640L1343.1800 640Q1340.9800 640 1339.4400 638.4600Q1337.9000 636.9200 1337.9000 634.7200L1337.9000 634.7200L1337.9000 623.5000Q1337.9000 621.5200 1338.8900 618.7700Q1339.8800 616.0200 1343.4000 613.1600L1343.4000 613.1600L1378.1600 578.6200Q1392.6800 567.1800 1401.5900 559.1500Q1410.5000 551.1200 1414.5700 544.4100Q1418.6400 537.7000 1418.6400 531.1000L1418.6400 531.1000Q1418.6400 521.2000 1413.2500 515.0400Q1407.8600 508.8800 1396.2000 508.8800L1396.2000 508.8800Q1388.5000 508.8800 1383.2200 512.0700Q1377.9400 515.2600 1374.9700 520.5400Q1372 525.8200 1370.9000 532.2000L1370.9000 532.2000Q1370.4600 535.0600 1368.4800 536.1600Q1366.5000 537.2600 1364.5200 537.2600L1364.5200 537.2600L1344.9400 537.2600Q1342.9600 537.2600 1341.6400 535.9400Q1340.3200 534.6200 1340.3200 532.8600L1340.3200 532.8600Q1340.5400 523.4000 1344.2800 514.4900Q1348.0200 505.5800 1355.1700 498.6500Q1362.3200 491.7200 1372.6600 487.5400Q1383 483.3600 1395.9800 483.3600L1395.9800 483.3600Q1414.2400 483.3600 1426.2300 489.5200Q1438.2200 495.6800 1444.2700 506.2400Q1450.3200 516.8000 1450.3200 530L1450.3200 530Q1450.3200 540.3400 1446.3600 549.0300Q1442.4000 557.7200 1434.9200 565.7500Q1427.4400 573.7800 1416.8800 582.1400L1416.8800 582.1400L1385.6400 613.8200L1448.3400 613.8200Q1450.7600 613.8200 1452.1900 615.2500Q1453.6200 616.6800 1453.6200 619.1000L1453.6200 619.1000L1453.6200 634.7200Q1453.6200 636.9200 1452.1900 638.4600Q1450.7600 640 1448.3400 640L1448.3400 640ZM1534.3600 642.2000L1534.3600 642.2000Q1515.4400 642.2000 1501.8000 635.0500Q1488.1600 627.9000 1480.6800 615.6900Q1473.2000 603.4800 1473.2000 588.3000L1473.2000 588.3000Q1473.2000 581.4800 1474.9600 575.1000Q1476.7200 568.7200 1479.5800 563Q1482.4400 557.2800 1485.1900 552.7700Q1487.9400 548.2600 1490.1400 545.6200L1490.1400 545.6200L1530.4000 490.4000Q1531.2800 489.3000 1533.0400 487.6500Q1534.8000 486 1537.8800 486L1537.8800 486L1558.3400 486Q1560.3200 486 1561.6400 487.4300Q1562.9600 488.8600 1562.9600 490.8400L1562.9600 490.8400Q1562.9600 491.7200 1562.6300 492.4900Q1562.3000 493.2600 1561.8600 493.7000L1561.8600 493.7000L1531.0600 536.3800Q1533.0400 535.7200 1535.6800 535.5000Q1538.3200 535.2800 1540.5200 535.2800L1540.5200 535.2800Q1551.5200 535.5000 1561.4200 539.5700Q1571.3200 543.6400 1578.8000 550.6800Q1586.2800 557.7200 1590.5700 567.1800Q1594.8600 576.6400 1594.8600 587.8600L1594.8600 587.8600Q1594.8600 602.3800 1587.6000 614.8100Q1580.3400 627.2400 1566.8100 634.7200Q1553.2800 642.2000 1534.3600 642.2000ZM1534.1400 616.9000L1534.1400 616.9000Q1542.0600 616.9000 1548.7700 613.6000Q1555.4800 610.3000 1559.6600 603.9200Q1563.8400 597.5400 1563.8400 588.0800L1563.8400 588.0800Q1563.8400 578.8400 1559.6600 572.4600Q1555.4800 566.0800 1548.7700 562.7800Q1542.0600 559.4800 1534.1400 559.4800L1534.1400 559.4800Q1526.2200 559.4800 1519.5100 562.7800Q1512.8000 566.0800 1508.6200 572.4600Q1504.4400 578.8400 1504.4400 588.0800L1504.4400 588.0800Q1504.4400 597.5400 1508.6200 603.9200Q1512.8000 610.3000 1519.5100 613.6000Q1526.2200 616.9000 1534.1400 616.9000ZM1642.6000 640L1620.6000 640Q1618.4000 640 1616.8600 638.4600Q1615.3200 636.9200 1615.3200 634.7200L1615.3200 634.7200L1615.3200 612.9400Q1615.3200 610.5200 1616.8600 608.9800Q1618.4000 607.4400 1620.6000 607.4400L1620.6000 607.4400L1642.6000 607.4400Q1644.8000 607.4400 1646.3400 608.9800Q1647.8800 610.5200 1647.8800 612.9400L1647.8800 612.9400L1647.8800 634.7200Q1647.8800 636.9200 1646.3400 638.4600Q1644.8000 640 1642.6000 640L1642.6000 640ZM1731.7000 642.2000L1731.7000 642.2000Q1717.1800 642.2000 1705.7400 638.6800Q1694.3000 635.1600 1686.4900 628.7800Q1678.6800 622.4000 1674.6100 613.8200Q1670.5400 605.2400 1670.5400 594.6800L1670.5400 594.6800Q1670.5400 581.9200 1676.8100 572.5700Q1683.0800 563.2200 1693.2000 558.1600L1693.2000 558.1600Q1685.0600 553.1000 1680.5500 545.1800Q1676.0400 537.2600 1676.0400 526.7000L1676.0400 526.7000Q1676.0400 513.9400 1682.5300 504.3700Q1689.0200 494.8000 1701.4500 489.3000Q1713.8800 483.8000 1731.7000 483.8000L1731.7000 483.8000Q1749.5200 483.8000 1761.8400 489.1900Q1774.1600 494.5800 1780.5400 504.1500Q1786.9200 513.7200 1786.9200 526.4800L1786.9200 526.4800Q1786.9200 537.0400 1782.5200 544.9600Q1778.1200 552.8800 1770.2000 558.1600L1770.2000 558.1600Q1780.5400 563 1786.7000 572.5700Q1792.8600 582.1400 1792.8600 594.9000L1792.8600 594.9000Q1792.8600 608.7600 1785.7100 619.4300Q1778.5600 630.1000 1764.8100 636.1500Q1751.0600 642.2000 1731.7000 642.2000ZM1731.7000 619.3200L1731.7000 619.3200Q1740.2800 619.3200 1747.2100 616.3500Q1754.1400 613.3800 1758.2100 607.8800Q1762.2800 602.3800 1762.2800 594.9000L1762.2800 594.9000Q1762.2800 587.2000 1758.2100 581.8100Q1754.1400 576.4200 1747.2100 573.4500Q1740.2800 570.4800 1731.7000 570.4800L1731.7000 570.4800Q1723.1200 570.4800 1716.1900 573.4500Q1709.2600 576.4200 1705.1900 581.8100Q1701.1200 587.2000 1701.1200 594.9000L1701.1200 594.9000Q1701.1200 602.3800 1705.1900 607.8800Q1709.2600 613.3800 1716.1900 616.3500Q1723.1200 619.3200 1731.7000 619.3200ZM1731.7000 548.7000L1731.7000 548.7000Q1738.9600 548.4800 1745.0100 545.8400Q1751.0600 543.2000 1754.6900 538.5800Q1758.3200 533.9600 1758.3200 527.8000L1758.3200 527.8000Q1758.3200 521.4200 1754.9100 516.6900Q1751.5000 511.9600 1745.4500 509.3200Q1739.4000 506.6800 1731.7000 506.6800L1731.7000 506.6800Q1724.0000 506.6800 1717.9500 509.3200Q1711.9000 511.9600 1708.4900 516.6900Q1705.0800 521.4200 1705.0800 527.8000L1705.0800 527.8000Q1705.0800 534.1800 1708.4900 538.8000Q1711.9000 543.4200 1717.9500 546.0600Q1724.0000 548.7000 1731.7000 548.7000Z" id="lecture-full-number"/></g></svg>