<svg xmlns="http://www.w3.org/2000/svg" version="1.1" xmlns:xlink="http://www.w3.org/1999/xlink" xmlns:svgjs="http://svgjs.dev/svgjs" viewBox="0 0 1920 1080" id="d82663a0-3fbe-45f6-bd7b-4303e67b7fa0"><g><rect width="1920" height="1080" fill="#b6244f"/></g><g fill="#b89685"><path d="M2118.71 322.496C1962.88 381.696 1840.11 286.062 1731.68 201.315C1619.52 113.904 1545.13 63.1995 1455.92 97.0926C1366.11 131.212 1344.15 218.52 1318.91 358.127C1294.11 493.487 1265.8 646.514 1109.97 705.714C954.144 764.914 831.375 669.28 722.951 584.533C610.793 497.122 536.401 446.418 447.185 480.311C357.375 514.43 335.414 601.738 310.18 741.346C285.375 876.706 257.072 1029.73 101.242 1088.93C-54.5876 1148.13 -177.357 1052.5 -285.78 967.751C-397.344 880.114 -471.736 829.41 -561.547 863.529L-602 757.045C-446.17 697.845 -323.401 793.479 -214.977 878.225C-102.819 965.637 -28.4265 1016.34 60.7891 982.448C150.6 948.329 172.56 861.02 197.794 721.413C222.599 586.053 250.307 433.253 406.732 373.827C562.562 314.627 685.331 410.261 793.754 495.007C905.913 582.419 980.305 633.123 1069.52 599.23C1159.33 565.111 1181.29 477.802 1206.53 338.195C1231.33 202.835 1259.04 50.0347 1415.46 -9.39121C1571.89 -68.8172 1694.06 27.043 1802.49 111.789C1914.64 199.201 1989.04 249.905 2078.25 216.012L2118.71 322.496Z"/></g><g fill="#ffffff" opacity="0.2"><path d="M960.041 79C960.041 79 971.953 194.974 981.699 214.484C992.529 237.245 1064 247 1064 247C1064 247 994.694 258.923 983.865 280.6C973.036 301.194 958.959 415 958.959 415C958.959 415 945.964 296.858 935.135 275.181C925.389 255.671 855 245.916 855 245.916C855 245.916 925.389 233.994 936.218 212.316C947.047 192.806 960.041 79 960.041 79Z"/><path d="M561.041 687C561.041 687 572.953 802.974 582.699 822.484C593.529 845.245 665 855 665 855C665 855 595.694 866.923 584.865 888.6C574.036 909.194 559.959 1023 559.959 1023C559.959 1023 546.964 904.858 536.135 883.181C526.389 863.671 456 853.916 456 853.916C456 853.916 526.389 841.994 537.218 820.316C548.047 800.806 561.041 687 561.041 687Z"/></g><g><path d="M178.635 139.281L184.422 144.246V166.626H215.704L219.958 172.147L215.69 177.397H184.422V198.795L178.635 203.747L173 198.795V144.232L178.635 139.281ZM195.554 195.68H219.406L223.397 200.915L219.143 206.45H195.554L191.7 201.342L195.554 195.68ZM196.382 138H219.129L223.383 143.52L219.129 148.77H196.659L192.115 143.677L196.382 138ZM323.155 148.628L328.251 154.291L323.155 159.968H246.13L241.172 154.291L246.13 148.628H323.155ZM237.043 172.147L241.849 167.893L246.669 172.147V178.393C246.669 188.879 249.417 197.515 261.668 197.515H264.14C275.147 197.515 281.197 189.86 281.197 177.952V172.005L285.879 167.75L290.699 171.862V178.379C290.699 189.007 293.723 196.946 305.56 196.946H307.618C319.178 196.946 321.235 187.869 321.373 177.952V171.578L326.056 167.608L331 171.72V178.094C330.862 191.838 327.285 207.574 308.032 207.574H305.974C294.552 207.574 288.365 202.324 285.892 195.808C283.006 202.466 275.299 208.286 264.844 208.286H262.358C242.553 208.286 237.194 195.964 237.056 178.663V172.147H237.043ZM276.391 274.744L273.642 267.089L280.796 264.969L305.974 276.721V252.491L311.07 248.095L316.291 252.491V281.829L325.641 286.226L328.251 293.311L320.959 296L276.391 274.744ZM321.235 223.011L328.113 226.27L325.917 233.497L264.002 263.119L256.571 260.146L259.596 252.776L321.235 223.011ZM231.905 263.404L237.954 268.512C237.402 286.51 222.403 296 204.669 296H202.874C194.062 296 183.759 292.6 177.157 286.083L177.834 278.855L184.298 278.002C189.118 282.256 195.858 285.229 202.183 285.229H204.117C216.091 285.229 225.303 280.136 226.27 268.085L231.905 263.404ZM226.256 251.638C225.704 239.16 216.629 234.209 204.103 234.209H202.169C194.739 234.209 189.104 237.182 184.284 241.436L177.834 240.583L177.143 233.355C183.745 226.696 192.957 223.58 202.597 223.58H204.517C222.403 223.58 237.402 232.942 237.94 251.211L231.891 256.176L226.256 251.638Z" fill="#ffffff"/></g><path d="M1171 781L1171 339L1187 339L1187 781L1171 781Z" fill="#ffffff"/><g fill="#ffffff" id="info-group"><path d="M178.8900 555.9000L178.8900 555.9000Q170.5200 555.9000 164.8950 553.4250Q159.2700 550.9500 156.3450 546.9450Q153.4200 542.9400 153.2400 538.5300L153.2400 538.5300Q153.2400 537.7200 153.7800 537.1800Q154.3200 536.6400 155.1300 536.6400L155.1300 536.6400L163.1400 536.6400Q164.3100 536.6400 164.8950 537.1350Q165.4800 537.6300 165.9300 538.3500L165.9300 538.3500Q166.4700 540.0600 168 541.7250Q169.5300 543.3900 172.1850 544.4700Q174.8400 545.5500 178.8900 545.5500L178.8900 545.5500Q185.3700 545.5500 188.5650 543.3900Q191.7600 541.2300 191.7600 537.5400L191.7600 537.5400Q191.7600 534.9300 190.0500 533.3550Q188.3400 531.7800 184.7850 530.4750Q181.2300 529.1700 175.3800 527.7300L175.3800 527.7300Q168.6300 526.1100 164.0850 523.8150Q159.5400 521.5200 157.2450 518.0100Q154.9500 514.5000 154.9500 509.1000L154.9500 509.1000Q154.9500 503.8800 157.7850 499.8300Q160.6200 495.7800 165.8850 493.4400Q171.1500 491.1000 178.4400 491.1000L178.4400 491.1000Q184.2900 491.1000 188.7900 492.6750Q193.2900 494.2500 196.2600 496.8150Q199.2300 499.3800 200.8050 502.3050Q202.3800 505.2300 202.4700 508.0200L202.4700 508.0200Q202.4700 508.7400 201.9750 509.3250Q201.4800 509.9100 200.5800 509.9100L200.5800 509.9100L192.2100 509.9100Q191.4900 509.9100 190.7700 509.5500Q190.0500 509.1900 189.6000 508.2000L189.6000 508.2000Q189.0600 505.4100 186.0900 503.4300Q183.1200 501.4500 178.4400 501.4500L178.4400 501.4500Q173.5800 501.4500 170.6100 503.2500Q167.6400 505.0500 167.6400 508.8300L167.6400 508.8300Q167.6400 511.3500 169.1250 513.0150Q170.6100 514.6800 173.8950 515.9400Q177.1800 517.2000 182.5800 518.6400L182.5800 518.6400Q190.2300 520.3500 195.0900 522.6000Q199.9500 524.8500 202.2000 528.3150Q204.4500 531.7800 204.4500 537.0900L204.4500 537.0900Q204.4500 543.0300 201.2550 547.2150Q198.0600 551.4000 192.3000 553.6500Q186.5400 555.9000 178.8900 555.9000ZM233.8800 555.9000L233.8800 555.9000Q223.8900 555.9000 218.0400 550.1400Q212.1900 544.3800 211.7400 533.7600L211.7400 533.7600Q211.6500 532.8600 211.6500 531.4650Q211.6500 530.0700 211.7400 529.2600L211.7400 529.2600Q212.1000 522.4200 214.8450 517.5150Q217.5900 512.6100 222.4500 509.9550Q227.3100 507.3000 233.8800 507.3000L233.8800 507.3000Q241.1700 507.3000 246.1200 510.3150Q251.0700 513.3300 253.5900 518.6850Q256.1100 524.0400 256.1100 531.0600L256.1100 531.0600L256.1100 532.9500Q256.1100 533.8500 255.4800 534.4800Q254.8500 535.1100 253.8600 535.1100L253.8600 535.1100L223.9800 535.1100Q223.9800 535.1100 223.9800 535.3800Q223.9800 535.6500 223.9800 535.8300L223.9800 535.8300Q224.0700 538.9800 225.1950 541.6350Q226.3200 544.2900 228.5250 545.9100Q230.7300 547.5300 233.7900 547.5300L233.7900 547.5300Q236.3100 547.5300 238.0200 546.7650Q239.7300 546 240.8100 545.0100Q241.8900 544.0200 242.3400 543.3900L242.3400 543.3900Q243.1500 542.3100 243.6450 542.0850Q244.1400 541.8600 245.1300 541.8600L245.1300 541.8600L252.8700 541.8600Q253.7700 541.8600 254.3550 542.4000Q254.9400 542.9400 254.8500 543.7500L254.8500 543.7500Q254.7600 545.1900 253.3650 547.2600Q251.9700 549.3300 249.3600 551.3100Q246.7500 553.2900 242.8350 554.5950Q238.9200 555.9000 233.8800 555.9000ZM223.9800 527.2800L223.9800 527.5500L243.8700 527.5500L243.8700 527.2800Q243.8700 523.7700 242.7000 521.1150Q241.5300 518.4600 239.2800 516.9750Q237.0300 515.4900 233.8800 515.4900L233.8800 515.4900Q230.7300 515.4900 228.4800 516.9750Q226.2300 518.4600 225.1050 521.1150Q223.9800 523.7700 223.9800 527.2800L223.9800 527.2800ZM275.6400 555L267.8100 555Q266.9100 555 266.2800 554.3700Q265.6500 553.7400 265.6500 552.8400L265.6500 552.8400L265.6500 510.4500Q265.6500 509.4600 266.2800 508.8300Q266.9100 508.2000 267.8100 508.2000L267.8100 508.2000L275.1000 508.2000Q276 508.2000 276.6750 508.8300Q277.3500 509.4600 277.3500 510.4500L277.3500 510.4500L277.3500 514.1400Q279.4200 511.2600 282.7050 509.7300Q285.9900 508.2000 290.3100 508.2000L290.3100 508.2000L294 508.2000Q294.9900 508.2000 295.5750 508.8300Q296.1600 509.4600 296.1600 510.3600L296.1600 510.3600L296.1600 516.8400Q296.1600 517.7400 295.5750 518.3700Q294.9900 519 294 519L294 519L286.9800 519Q282.6600 519 280.2750 521.3850Q277.8900 523.7700 277.8900 528.0900L277.8900 528.0900L277.8900 552.8400Q277.8900 553.7400 277.2600 554.3700Q276.6300 555 275.6400 555L275.6400 555ZM326.4000 555L319.7400 555Q318.3000 555 317.6250 554.3250Q316.9500 553.6500 316.5000 552.7500L316.5000 552.7500L299.6700 510.9900Q299.4900 510.5400 299.4900 510.1800L299.4900 510.1800Q299.4900 509.3700 300.0750 508.7850Q300.6600 508.2000 301.4700 508.2000L301.4700 508.2000L308.7600 508.2000Q309.8400 508.2000 310.3800 508.7850Q310.9200 509.3700 311.1000 509.9100L311.1000 509.9100L323.0700 541.5000L335.0400 509.9100Q335.2200 509.3700 335.7600 508.7850Q336.3000 508.2000 337.3800 508.2000L337.3800 508.2000L344.7600 508.2000Q345.4800 508.2000 346.0650 508.7850Q346.6500 509.3700 346.6500 510.1800L346.6500 510.1800Q346.6500 510.5400 346.5600 510.9900L346.5600 510.9900L329.6400 552.7500Q329.2800 553.6500 328.5600 554.3250Q327.8400 555 326.4000 555L326.4000 555ZM364.4700 555L357 555Q356.1000 555 355.4700 554.3700Q354.8400 553.7400 354.8400 552.8400L354.8400 552.8400L354.8400 510.3600Q354.8400 509.4600 355.4700 508.8300Q356.1000 508.2000 357 508.2000L357 508.2000L364.4700 508.2000Q365.4600 508.2000 366.0450 508.8300Q366.6300 509.4600 366.6300 510.3600L366.6300 510.3600L366.6300 552.8400Q366.6300 553.7400 366.0450 554.3700Q365.4600 555 364.4700 555L364.4700 555ZM364.8300 500.4600L356.6400 500.4600Q355.7400 500.4600 355.1100 499.8300Q354.4800 499.2000 354.4800 498.3000L354.4800 498.3000L354.4800 491.8200Q354.4800 490.9200 355.1100 490.2900Q355.7400 489.6600 356.6400 489.6600L356.6400 489.6600L364.8300 489.6600Q365.8200 489.6600 366.4500 490.2900Q367.0800 490.9200 367.0800 491.8200L367.0800 491.8200L367.0800 498.3000Q367.0800 499.2000 366.4500 499.8300Q365.8200 500.4600 364.8300 500.4600L364.8300 500.4600ZM395.9700 555.9000L395.9700 555.9000Q391.2900 555.9000 387.7350 554.3250Q384.1800 552.7500 381.8400 549.8700Q379.5000 546.9900 378.2400 543.0750Q376.9800 539.1600 376.8000 534.4800L376.8000 534.4800Q376.7100 532.8600 376.7100 531.5550Q376.7100 530.2500 376.8000 528.6300L376.8000 528.6300Q376.9800 524.1300 378.1950 520.2600Q379.4100 516.3900 381.7950 513.4650Q384.1800 510.5400 387.7350 508.9200Q391.2900 507.3000 395.9700 507.3000L395.9700 507.3000Q400.8300 507.3000 404.2050 508.9650Q407.5800 510.6300 409.8300 513.2400L409.8300 513.2400L409.8300 493.2600Q409.8300 492.3600 410.4150 491.7300Q411.0000 491.1000 411.9900 491.1000L411.9900 491.1000L419.6400 491.1000Q420.5400 491.1000 421.1700 491.7300Q421.8000 492.3600 421.8000 493.2600L421.8000 493.2600L421.8000 552.8400Q421.8000 553.7400 421.1700 554.3700Q420.5400 555 419.6400 555L419.6400 555L412.5300 555Q411.5400 555 410.9550 554.3700Q410.3700 553.7400 410.3700 552.8400L410.3700 552.8400L410.3700 549.5100Q408.1200 552.3000 404.6550 554.1000Q401.1900 555.9000 395.9700 555.9000ZM399.3000 546.2700L399.3000 546.2700Q403.0800 546.2700 405.3300 544.5600Q407.5800 542.8500 408.6600 540.1950Q409.7400 537.5400 409.8300 534.7500L409.8300 534.7500Q409.9200 533.1300 409.9200 531.2850Q409.9200 529.4400 409.8300 527.8200L409.8300 527.8200Q409.7400 525.1200 408.5700 522.6450Q407.4000 520.1700 405.1500 518.5500Q402.9000 516.9300 399.3000 516.9300L399.3000 516.9300Q395.5200 516.9300 393.3150 518.5950Q391.1100 520.2600 390.1200 522.9600Q389.1300 525.6600 388.9500 528.9000L388.9500 528.9000Q388.8600 531.6000 388.9500 534.3000L388.9500 534.3000Q389.1300 537.5400 390.1200 540.2400Q391.1100 542.9400 393.3150 544.6050Q395.5200 546.2700 399.3000 546.2700ZM454.4700 555.9000L454.4700 555.9000Q447.2700 555.9000 442.3650 553.3800Q437.4600 550.8600 434.8950 546.2700Q432.3300 541.6800 431.9700 535.5600L431.9700 535.5600Q431.8800 533.9400 431.8800 531.6000Q431.8800 529.2600 431.9700 527.6400L431.9700 527.6400Q432.3300 521.4300 434.9850 516.8850Q437.6400 512.3400 442.5450 509.8200Q447.4500 507.3000 454.4700 507.3000L454.4700 507.3000Q461.4900 507.3000 466.3950 509.8200Q471.3000 512.3400 473.9550 516.8850Q476.6100 521.4300 476.9700 527.6400L476.9700 527.6400Q477.0600 529.2600 477.0600 531.6000Q477.0600 533.9400 476.9700 535.5600L476.9700 535.5600Q476.6100 541.6800 474.0450 546.2700Q471.4800 550.8600 466.5750 553.3800Q461.6700 555.9000 454.4700 555.9000ZM454.4700 546.9900L454.4700 546.9900Q459.2400 546.9900 461.8500 543.9750Q464.4600 540.9600 464.7300 535.1100L464.7300 535.1100Q464.8200 533.7600 464.8200 531.6000Q464.8200 529.4400 464.7300 528.0900L464.7300 528.0900Q464.4600 522.2400 461.8500 519.2250Q459.2400 516.2100 454.4700 516.2100L454.4700 516.2100Q449.7000 516.2100 447.0900 519.2250Q444.4800 522.2400 444.2100 528.0900L444.2100 528.0900Q444.1200 529.4400 444.1200 531.6000Q444.1200 533.7600 444.2100 535.1100L444.2100 535.1100Q444.4800 540.9600 447.0900 543.9750Q449.7000 546.9900 454.4700 546.9900ZM497.0400 555L489.2100 555Q488.3100 555 487.6800 554.3700Q487.0500 553.7400 487.0500 552.8400L487.0500 552.8400L487.0500 510.4500Q487.0500 509.4600 487.6800 508.8300Q488.3100 508.2000 489.2100 508.2000L489.2100 508.2000L496.5000 508.2000Q497.4000 508.2000 498.0750 508.8300Q498.7500 509.4600 498.7500 510.4500L498.7500 510.4500L498.7500 514.1400Q500.8200 511.2600 504.1050 509.7300Q507.3900 508.2000 511.7100 508.2000L511.7100 508.2000L515.4000 508.2000Q516.3900 508.2000 516.9750 508.8300Q517.5600 509.4600 517.5600 510.3600L517.5600 510.3600L517.5600 516.8400Q517.5600 517.7400 516.9750 518.3700Q516.3900 519 515.4000 519L515.4000 519L508.3800 519Q504.0600 519 501.6750 521.3850Q499.2900 523.7700 499.2900 528.0900L499.2900 528.0900L499.2900 552.8400Q499.2900 553.7400 498.6600 554.3700Q498.0300 555 497.0400 555L497.0400 555ZM544.7400 555.9000L544.7400 555.9000Q534.7500 555.9000 528.9000 550.1400Q523.0500 544.3800 522.6000 533.7600L522.6000 533.7600Q522.5100 532.8600 522.5100 531.4650Q522.5100 530.0700 522.6000 529.2600L522.6000 529.2600Q522.9600 522.4200 525.7050 517.5150Q528.4500 512.6100 533.3100 509.9550Q538.1700 507.3000 544.7400 507.3000L544.7400 507.3000Q552.0300 507.3000 556.9800 510.3150Q561.9300 513.3300 564.4500 518.6850Q566.9700 524.0400 566.9700 531.0600L566.9700 531.0600L566.9700 532.9500Q566.9700 533.8500 566.3400 534.4800Q565.7100 535.1100 564.7200 535.1100L564.7200 535.1100L534.8400 535.1100Q534.8400 535.1100 534.8400 535.3800Q534.8400 535.6500 534.8400 535.8300L534.8400 535.8300Q534.9300 538.9800 536.0550 541.6350Q537.1800 544.2900 539.3850 545.9100Q541.5900 547.5300 544.6500 547.5300L544.6500 547.5300Q547.1700 547.5300 548.8800 546.7650Q550.5900 546 551.6700 545.0100Q552.7500 544.0200 553.2000 543.3900L553.2000 543.3900Q554.0100 542.3100 554.5050 542.0850Q555 541.8600 555.9900 541.8600L555.9900 541.8600L563.7300 541.8600Q564.6300 541.8600 565.2150 542.4000Q565.8000 542.9400 565.7100 543.7500L565.7100 543.7500Q565.6200 545.1900 564.2250 547.2600Q562.8300 549.3300 560.2200 551.3100Q557.6100 553.2900 553.6950 554.5950Q549.7800 555.9000 544.7400 555.9000ZM534.8400 527.2800L534.8400 527.5500L554.7300 527.5500L554.7300 527.2800Q554.7300 523.7700 553.5600 521.1150Q552.3900 518.4600 550.1400 516.9750Q547.8900 515.4900 544.7400 515.4900L544.7400 515.4900Q541.5900 515.4900 539.3400 516.9750Q537.0900 518.4600 535.9650 521.1150Q534.8400 523.7700 534.8400 527.2800L534.8400 527.2800ZM594.2400 555.9000L594.2400 555.9000Q588.8400 555.9000 585.0150 554.6400Q581.1900 553.3800 578.7600 551.4900Q576.3300 549.6000 575.1600 547.7100Q573.9900 545.8200 573.9000 544.5600L573.9000 544.5600Q573.8100 543.5700 574.4850 542.9850Q575.1600 542.4000 575.9700 542.4000L575.9700 542.4000L583.0800 542.4000Q583.4400 542.4000 583.7100 542.4900Q583.9800 542.5800 584.4300 543.0300L584.4300 543.0300Q585.6000 544.0200 586.9050 545.1000Q588.2100 546.1800 590.0100 546.9450Q591.8100 547.7100 594.5100 547.7100L594.5100 547.7100Q598.0200 547.7100 600.4050 546.3150Q602.7900 544.9200 602.7900 542.3100L602.7900 542.3100Q602.7900 540.4200 601.7550 539.2500Q600.7200 538.0800 597.9300 537.1350Q595.1400 536.1900 590.0100 535.1100L590.0100 535.1100Q584.9700 533.9400 581.6400 532.1400Q578.3100 530.3400 576.6900 527.6400Q575.0700 524.9400 575.0700 521.3400L575.0700 521.3400Q575.0700 517.8300 577.1850 514.6350Q579.3000 511.4400 583.4850 509.3700Q587.6700 507.3000 593.8800 507.3000L593.8800 507.3000Q598.7400 507.3000 602.3400 508.5150Q605.9400 509.7300 608.3250 511.5300Q610.7100 513.3300 611.9700 515.1750Q613.2300 517.0200 613.3200 518.3700L613.3200 518.3700Q613.4100 519.3600 612.7800 519.9450Q612.1500 520.5300 611.3400 520.5300L611.3400 520.5300L604.6800 520.5300Q604.2300 520.5300 603.8700 520.3500Q603.5100 520.1700 603.1500 519.9000L603.1500 519.9000Q602.1600 519 600.9900 517.9650Q599.8200 516.9300 598.1550 516.2100Q596.4900 515.4900 593.7900 515.4900L593.7900 515.4900Q590.3700 515.4900 588.5700 516.9750Q586.7700 518.4600 586.7700 520.7100L586.7700 520.7100Q586.7700 522.2400 587.6250 523.3650Q588.4800 524.4900 591.0900 525.4800Q593.7000 526.4700 599.0100 527.5500L599.0100 527.5500Q605.0400 528.6300 608.5950 530.7450Q612.1500 532.8600 613.6350 535.6050Q615.1200 538.3500 615.1200 541.6800L615.1200 541.6800Q615.1200 545.7300 612.7350 548.9700Q610.3500 552.2100 605.7150 554.0550Q601.0800 555.9000 594.2400 555.9000ZM662.3700 555.9000L662.3700 555.9000Q657.6900 555.9000 654.1350 554.3250Q650.5800 552.7500 648.2400 549.8700Q645.9000 546.9900 644.6400 543.0750Q643.3800 539.1600 643.2000 534.4800L643.2000 534.4800Q643.1100 532.8600 643.1100 531.5550Q643.1100 530.2500 643.2000 528.6300L643.2000 528.6300Q643.3800 524.1300 644.5950 520.2600Q645.8100 516.3900 648.1950 513.4650Q650.5800 510.5400 654.1350 508.9200Q657.6900 507.3000 662.3700 507.3000L662.3700 507.3000Q667.2300 507.3000 670.6050 508.9650Q673.9800 510.6300 676.2300 513.2400L676.2300 513.2400L676.2300 493.2600Q676.2300 492.3600 676.8150 491.7300Q677.4000 491.1000 678.3900 491.1000L678.3900 491.1000L686.0400 491.1000Q686.9400 491.1000 687.5700 491.7300Q688.2000 492.3600 688.2000 493.2600L688.2000 493.2600L688.2000 552.8400Q688.2000 553.7400 687.5700 554.3700Q686.9400 555 686.0400 555L686.0400 555L678.9300 555Q677.9400 555 677.3550 554.3700Q676.7700 553.7400 676.7700 552.8400L676.7700 552.8400L676.7700 549.5100Q674.5200 552.3000 671.0550 554.1000Q667.5900 555.9000 662.3700 555.9000ZM665.7000 546.2700L665.7000 546.2700Q669.4800 546.2700 671.7300 544.5600Q673.9800 542.8500 675.0600 540.1950Q676.1400 537.5400 676.2300 534.7500L676.2300 534.7500Q676.3200 533.1300 676.3200 531.2850Q676.3200 529.4400 676.2300 527.8200L676.2300 527.8200Q676.1400 525.1200 674.9700 522.6450Q673.8000 520.1700 671.5500 518.5500Q669.3000 516.9300 665.7000 516.9300L665.7000 516.9300Q661.9200 516.9300 659.7150 518.5950Q657.5100 520.2600 656.5200 522.9600Q655.5300 525.6600 655.3500 528.9000L655.3500 528.9000Q655.2600 531.6000 655.3500 534.3000L655.3500 534.3000Q655.5300 537.5400 656.5200 540.2400Q657.5100 542.9400 659.7150 544.6050Q661.9200 546.2700 665.7000 546.2700ZM720.3300 555.9000L720.3300 555.9000Q710.3400 555.9000 704.4900 550.1400Q698.6400 544.3800 698.1900 533.7600L698.1900 533.7600Q698.1000 532.8600 698.1000 531.4650Q698.1000 530.0700 698.1900 529.2600L698.1900 529.2600Q698.5500 522.4200 701.2950 517.5150Q704.0400 512.6100 708.9000 509.9550Q713.7600 507.3000 720.3300 507.3000L720.3300 507.3000Q727.6200 507.3000 732.5700 510.3150Q737.5200 513.3300 740.0400 518.6850Q742.5600 524.0400 742.5600 531.0600L742.5600 531.0600L742.5600 532.9500Q742.5600 533.8500 741.9300 534.4800Q741.3000 535.1100 740.3100 535.1100L740.3100 535.1100L710.4300 535.1100Q710.4300 535.1100 710.4300 535.3800Q710.4300 535.6500 710.4300 535.8300L710.4300 535.8300Q710.5200 538.9800 711.6450 541.6350Q712.7700 544.2900 714.9750 545.9100Q717.1800 547.5300 720.2400 547.5300L720.2400 547.5300Q722.7600 547.5300 724.4700 546.7650Q726.1800 546 727.2600 545.0100Q728.3400 544.0200 728.7900 543.3900L728.7900 543.3900Q729.6000 542.3100 730.0950 542.0850Q730.5900 541.8600 731.5800 541.8600L731.5800 541.8600L739.3200 541.8600Q740.2200 541.8600 740.8050 542.4000Q741.3900 542.9400 741.3000 543.7500L741.3000 543.7500Q741.2100 545.1900 739.8150 547.2600Q738.4200 549.3300 735.8100 551.3100Q733.2000 553.2900 729.2850 554.5950Q725.3700 555.9000 720.3300 555.9000ZM710.4300 527.2800L710.4300 527.5500L730.3200 527.5500L730.3200 527.2800Q730.3200 523.7700 729.1500 521.1150Q727.9800 518.4600 725.7300 516.9750Q723.4800 515.4900 720.3300 515.4900L720.3300 515.4900Q717.1800 515.4900 714.9300 516.9750Q712.6800 518.4600 711.5550 521.1150Q710.4300 523.7700 710.4300 527.2800L710.4300 527.2800ZM160.9800 645L153.1500 645Q152.4300 645 151.8450 644.4600Q151.2600 643.9200 151.2600 643.1100L151.2600 643.1100Q151.2600 642.7500 151.4400 642.3000L151.4400 642.3000L173.1300 584.2500Q173.4000 583.3500 174.1650 582.6750Q174.9300 582 176.2800 582L176.2800 582L186.0900 582Q187.4400 582 188.1600 582.6750Q188.8800 583.3500 189.2400 584.2500L189.2400 584.2500L210.9300 642.3000Q211.0200 642.7500 211.0200 643.1100L211.0200 643.1100Q211.0200 643.9200 210.4800 644.4600Q209.9400 645 209.2200 645L209.2200 645L201.3900 645Q200.1300 645 199.5450 644.4150Q198.9600 643.8300 198.7800 643.2900L198.7800 643.2900L194.5500 632.3100L167.8200 632.3100L163.5900 643.2900Q163.4100 643.8300 162.8250 644.4150Q162.2400 645 160.9800 645L160.9800 645ZM181.1400 594.1500L170.9700 621.9600L191.4000 621.9600L181.1400 594.1500ZM228.2100 662.1000L220.5600 662.1000Q219.6600 662.1000 219.0300 661.4700Q218.4000 660.8400 218.4000 659.9400L218.4000 659.9400L218.4000 600.3600Q218.4000 599.4600 219.0300 598.8300Q219.6600 598.2000 220.5600 598.2000L220.5600 598.2000L227.6700 598.2000Q228.6600 598.2000 229.2450 598.8300Q229.8300 599.4600 229.8300 600.3600L229.8300 600.3600L229.8300 603.9600Q231.9900 601.0800 235.5000 599.1900Q239.0100 597.3000 244.2300 597.3000L244.2300 597.3000Q249 597.3000 252.5100 598.8300Q256.0200 600.3600 258.3600 603.1950Q260.7000 606.0300 261.9600 609.9000Q263.2200 613.7700 263.4000 618.4500L263.4000 618.4500Q263.4900 619.9800 263.4900 621.6000Q263.4900 623.2200 263.4000 624.8400L263.4000 624.8400Q263.3100 629.3400 262.0500 633.1650Q260.7900 636.9900 258.4050 639.8250Q256.0200 642.6600 252.5100 644.2800Q249 645.9000 244.2300 645.9000L244.2300 645.9000Q239.3700 645.9000 235.9500 644.1450Q232.5300 642.3900 230.3700 639.5100L230.3700 639.5100L230.3700 659.9400Q230.3700 660.8400 229.7850 661.4700Q229.2000 662.1000 228.2100 662.1000L228.2100 662.1000ZM240.9000 636.2700L240.9000 636.2700Q244.7700 636.2700 246.9300 634.6050Q249.0900 632.9400 250.0800 630.2400Q251.0700 627.5400 251.2500 624.3000L251.2500 624.3000Q251.3400 621.6000 251.2500 618.9000L251.2500 618.9000Q251.0700 615.6600 250.0800 612.9600Q249.0900 610.2600 246.9300 608.5950Q244.7700 606.9300 240.9000 606.9300L240.9000 606.9300Q237.2100 606.9300 234.9150 608.6400Q232.6200 610.3500 231.5850 613.0050Q230.5500 615.6600 230.3700 618.4500L230.3700 618.4500Q230.2800 620.0700 230.2800 621.8700Q230.2800 623.6700 230.3700 625.3800L230.3700 625.3800Q230.4600 628.0800 231.6300 630.5550Q232.8000 633.0300 235.0500 634.6500Q237.3000 636.2700 240.9000 636.2700ZM283.2900 645L275.8200 645Q274.9200 645 274.2900 644.3700Q273.6600 643.7400 273.6600 642.8400L273.6600 642.8400L273.6600 583.2600Q273.6600 582.3600 274.2900 581.7300Q274.9200 581.1000 275.8200 581.1000L275.8200 581.1000L283.2900 581.1000Q284.1900 581.1000 284.8200 581.7300Q285.4500 582.3600 285.4500 583.2600L285.4500 583.2600L285.4500 642.8400Q285.4500 643.7400 284.8200 644.3700Q284.1900 645 283.2900 645L283.2900 645ZM307.0500 645L299.5800 645Q298.6800 645 298.0500 644.3700Q297.4200 643.7400 297.4200 642.8400L297.4200 642.8400L297.4200 600.3600Q297.4200 599.4600 298.0500 598.8300Q298.6800 598.2000 299.5800 598.2000L299.5800 598.2000L307.0500 598.2000Q308.0400 598.2000 308.6250 598.8300Q309.2100 599.4600 309.2100 600.3600L309.2100 600.3600L309.2100 642.8400Q309.2100 643.7400 308.6250 644.3700Q308.0400 645 307.0500 645L307.0500 645ZM307.4100 590.4600L299.2200 590.4600Q298.3200 590.4600 297.6900 589.8300Q297.0600 589.2000 297.0600 588.3000L297.0600 588.3000L297.0600 581.8200Q297.0600 580.9200 297.6900 580.2900Q298.3200 579.6600 299.2200 579.6600L299.2200 579.6600L307.4100 579.6600Q308.4000 579.6600 309.0300 580.2900Q309.6600 580.9200 309.6600 581.8200L309.6600 581.8200L309.6600 588.3000Q309.6600 589.2000 309.0300 589.8300Q308.4000 590.4600 307.4100 590.4600L307.4100 590.4600ZM341.4300 645.9000L341.4300 645.9000Q334.9500 645.9000 330.0450 643.4700Q325.1400 641.0400 322.3950 636.4050Q319.6500 631.7700 319.3800 625.2000L319.3800 625.2000Q319.2900 623.8500 319.2900 621.6450Q319.2900 619.4400 319.3800 618L319.3800 618Q319.6500 611.4300 322.3950 606.7950Q325.1400 602.1600 330.0450 599.7300Q334.9500 597.3000 341.4300 597.3000L341.4300 597.3000Q347.1900 597.3000 351.2400 598.8750Q355.2900 600.4500 357.9000 602.9250Q360.5100 605.4000 361.8150 608.0550Q363.1200 610.7100 363.2100 612.8700L363.2100 612.8700Q363.3000 613.8600 362.6250 614.4450Q361.9500 615.0300 361.0500 615.0300L361.0500 615.0300L353.1300 615.0300Q352.2300 615.0300 351.7350 614.5800Q351.2400 614.1300 350.7900 613.2300L350.7900 613.2300Q349.4400 609.6300 347.2350 608.1450Q345.0300 606.6600 341.6100 606.6600L341.6100 606.6600Q337.1100 606.6600 334.4550 609.4950Q331.8000 612.3300 331.6200 618.4500L331.6200 618.4500Q331.4400 621.8700 331.6200 624.7500L331.6200 624.7500Q331.8000 630.9600 334.4550 633.7500Q337.1100 636.5400 341.6100 636.5400L341.6100 636.5400Q345.1200 636.5400 347.2800 635.0550Q349.4400 633.5700 350.7900 629.9700L350.7900 629.9700Q351.2400 629.0700 351.7350 628.6200Q352.2300 628.1700 353.1300 628.1700L353.1300 628.1700L361.0500 628.1700Q361.9500 628.1700 362.6250 628.7550Q363.3000 629.3400 363.2100 630.3300L363.2100 630.3300Q363.1200 631.9500 362.3550 633.9750Q361.5900 636 359.9250 638.1150Q358.2600 640.2300 355.7400 641.9850Q353.2200 643.7400 349.6650 644.8200Q346.1100 645.9000 341.4300 645.9000ZM386.1600 645.9000L386.1600 645.9000Q381.4800 645.9000 377.7000 644.0550Q373.9200 642.2100 371.7150 639.1050Q369.5100 636 369.5100 632.1300L369.5100 632.1300Q369.5100 625.8300 374.6400 622.0950Q379.7700 618.3600 388.0500 617.1000L388.0500 617.1000L400.3800 615.3000L400.3800 613.4100Q400.3800 609.6300 398.4900 607.5600Q396.6000 605.4900 392.0100 605.4900L392.0100 605.4900Q388.7700 605.4900 386.7450 606.7950Q384.7200 608.1000 383.7300 610.2600L383.7300 610.2600Q383.0100 611.4300 381.6600 611.4300L381.6600 611.4300L374.5500 611.4300Q373.5600 611.4300 373.0650 610.8900Q372.5700 610.3500 372.5700 609.4500L372.5700 609.4500Q372.6600 608.0100 373.7850 605.9400Q374.9100 603.8700 377.2050 601.9350Q379.5000 600 383.1900 598.6500Q386.8800 597.3000 392.1000 597.3000L392.1000 597.3000Q397.7700 597.3000 401.6850 598.6950Q405.6000 600.0900 407.9400 602.4300Q410.2800 604.7700 411.3600 607.9200Q412.4400 611.0700 412.4400 614.5800L412.4400 614.5800L412.4400 642.8400Q412.4400 643.7400 411.8100 644.3700Q411.1800 645 410.2800 645L410.2800 645L402.9900 645Q402 645 401.4150 644.3700Q400.8300 643.7400 400.8300 642.8400L400.8300 642.8400L400.8300 639.3300Q399.6600 640.9500 397.6800 642.4800Q395.7000 644.0100 392.8650 644.9550Q390.0300 645.9000 386.1600 645.9000ZM389.2200 637.3500L389.2200 637.3500Q392.3700 637.3500 394.9350 636Q397.5000 634.6500 398.9850 631.8150Q400.4700 628.9800 400.4700 624.6600L400.4700 624.6600L400.4700 622.7700L391.4700 624.2100Q386.1600 625.0200 383.5500 626.8200Q380.9400 628.6200 380.9400 631.2300L380.9400 631.2300Q380.9400 633.2100 382.1550 634.6050Q383.3700 636 385.2600 636.6750Q387.1500 637.3500 389.2200 637.3500ZM444.1200 664.8000L444.1200 664.8000Q441.6000 664.7100 439.6650 663.9000Q437.7300 663.0900 436.8750 662.0100Q436.0200 660.9300 436.9200 660.2100L436.9200 660.2100L438.4500 658.8600Q439.2600 658.1400 439.8450 658.4550Q440.4300 658.7700 441.3750 659.3550Q442.3200 659.9400 444.1200 659.9400L444.1200 659.9400Q445.4700 659.9400 446.4600 659.0850Q447.4500 658.2300 447.4500 656.8800L447.4500 656.8800Q447.4500 655.6200 446.5050 654.8100Q445.5600 654 444.1200 654L444.1200 654Q442.8600 654 441.9600 654.3150Q441.0600 654.6300 440.3400 654.7650Q439.6200 654.9000 438.9000 654.1800L438.9000 654.1800L437.2800 652.5600Q436.7400 651.9300 436.9200 651.2550Q437.1000 650.5800 437.4600 649.7700L437.4600 649.7700L439.3500 645.4500Q431.6100 644.2800 427.0200 639.0150Q422.4300 633.7500 422.1600 625.2000L422.1600 625.2000Q422.0700 623.8500 422.0700 621.6450Q422.0700 619.4400 422.1600 618L422.1600 618Q422.4300 611.4300 425.1750 606.7950Q427.9200 602.1600 432.8250 599.7300Q437.7300 597.3000 444.2100 597.3000L444.2100 597.3000Q449.9700 597.3000 454.0200 598.8750Q458.0700 600.4500 460.6800 602.9250Q463.2900 605.4000 464.5950 608.0550Q465.9000 610.7100 465.9900 612.8700L465.9900 612.8700Q466.0800 613.8600 465.4050 614.4450Q464.7300 615.0300 463.8300 615.0300L463.8300 615.0300L455.9100 615.0300Q455.0100 615.0300 454.5150 614.5800Q454.0200 614.1300 453.5700 613.2300L453.5700 613.2300Q452.2200 609.6300 450.0150 608.1450Q447.8100 606.6600 444.3900 606.6600L444.3900 606.6600Q439.8900 606.6600 437.2350 609.4950Q434.5800 612.3300 434.4000 618.4500L434.4000 618.4500Q434.2200 621.8700 434.4000 624.7500L434.4000 624.7500Q434.5800 630.9600 437.2350 633.7500Q439.8900 636.5400 444.3900 636.5400L444.3900 636.5400Q447.9000 636.5400 450.0600 635.0550Q452.2200 633.5700 453.5700 629.9700L453.5700 629.9700Q454.0200 629.0700 454.5150 628.6200Q455.0100 628.1700 455.9100 628.1700L455.9100 628.1700L463.8300 628.1700Q464.7300 628.1700 465.4050 628.7550Q466.0800 629.3400 465.9900 630.3300L465.9900 630.3300Q465.9000 632.3100 464.6400 634.9650Q463.3800 637.6200 460.8600 640.0950Q458.3400 642.5700 454.2900 644.2350Q450.2400 645.9000 444.4800 645.9000L444.4800 645.9000L442.5900 649.7700Q443.1300 649.5000 444.0750 649.3200Q445.0200 649.1400 445.7400 649.1400L445.7400 649.1400Q448.8900 649.1400 450.8250 651.3000Q452.7600 653.4600 452.7600 656.7900L452.7600 656.7900Q452.7600 660.2100 450.5100 662.5500Q448.2600 664.8900 444.1200 664.8000ZM488.9400 645.9000L488.9400 645.9000Q484.2600 645.9000 480.4800 644.0550Q476.7000 642.2100 474.4950 639.1050Q472.2900 636 472.2900 632.1300L472.2900 632.1300Q472.2900 625.8300 477.4200 622.0950Q482.5500 618.3600 490.8300 617.1000L490.8300 617.1000L503.1600 615.3000L503.1600 613.4100Q503.1600 609.6300 501.2700 607.5600Q499.3800 605.4900 494.7900 605.4900L494.7900 605.4900Q491.5500 605.4900 489.5250 606.7950Q487.5000 608.1000 486.5100 610.2600L486.5100 610.2600Q485.7900 611.4300 484.4400 611.4300L484.4400 611.4300L477.3300 611.4300Q476.3400 611.4300 475.8450 610.8900Q475.3500 610.3500 475.3500 609.4500L475.3500 609.4500Q475.4400 608.0100 476.5650 605.9400Q477.6900 603.8700 479.9850 601.9350Q482.2800 600 485.9700 598.6500Q489.6600 597.3000 494.8800 597.3000L494.8800 597.3000Q500.5500 597.3000 504.4650 598.6950Q508.3800 600.0900 510.7200 602.4300Q513.0600 604.7700 514.1400 607.9200Q515.2200 611.0700 515.2200 614.5800L515.2200 614.5800L515.2200 642.8400Q515.2200 643.7400 514.5900 644.3700Q513.9600 645 513.0600 645L513.0600 645L505.7700 645Q504.7800 645 504.1950 644.3700Q503.6100 643.7400 503.6100 642.8400L503.6100 642.8400L503.6100 639.3300Q502.4400 640.9500 500.4600 642.4800Q498.4800 644.0100 495.6450 644.9550Q492.8100 645.9000 488.9400 645.9000ZM492.0000 637.3500L492.0000 637.3500Q495.1500 637.3500 497.7150 636Q500.2800 634.6500 501.7650 631.8150Q503.2500 628.9800 503.2500 624.6600L503.2500 624.6600L503.2500 622.7700L494.2500 624.2100Q488.9400 625.0200 486.3300 626.8200Q483.7200 628.6200 483.7200 631.2300L483.7200 631.2300Q483.7200 633.2100 484.9350 634.6050Q486.1500 636 488.0400 636.6750Q489.9300 637.3500 492.0000 637.3500ZM499.8300 591.9000L499.8300 591.9000Q497.4900 591.9000 496.0500 591.1350Q494.6100 590.3700 493.3950 589.5600Q492.1800 588.7500 490.7400 588.7500L490.7400 588.7500Q489.5700 588.7500 489.0750 589.4250Q488.5800 590.1000 488.1300 590.7750Q487.6800 591.4500 486.6900 591.4500L486.6900 591.4500L482.5500 591.4500Q481.9200 591.4500 481.4700 591Q481.0200 590.5500 481.0200 589.9200L481.0200 589.9200Q481.0200 588.5700 481.5150 586.9050Q482.0100 585.2400 483.0900 583.7100Q484.1700 582.1800 485.8350 581.2350Q487.5000 580.2900 489.7500 580.2900L489.7500 580.2900Q492.1800 580.2900 493.6200 581.0550Q495.0600 581.8200 496.2750 582.6300Q497.4900 583.4400 498.9300 583.4400L498.9300 583.4400Q500.1000 583.4400 500.5950 582.7200Q501.0900 582 501.5400 581.3250Q501.9900 580.6500 502.9800 580.6500L502.9800 580.6500L507.1200 580.6500Q507.8400 580.6500 508.2450 581.1450Q508.6500 581.6400 508.6500 582.2700L508.6500 582.2700Q508.6500 583.6200 508.1550 585.2850Q507.6600 586.9500 506.5800 588.4800Q505.5000 590.0100 503.8350 590.9550Q502.1700 591.9000 499.8300 591.9000ZM547.4400 645.9000L547.4400 645.9000Q540.2400 645.9000 535.3350 643.3800Q530.4300 640.8600 527.8650 636.2700Q525.3000 631.6800 524.9400 625.5600L524.9400 625.5600Q524.8500 623.9400 524.8500 621.6000Q524.8500 619.2600 524.9400 617.6400L524.9400 617.6400Q525.3000 611.4300 527.9550 606.8850Q530.6100 602.3400 535.5150 599.8200Q540.4200 597.3000 547.4400 597.3000L547.4400 597.3000Q554.4600 597.3000 559.3650 599.8200Q564.2700 602.3400 566.9250 606.8850Q569.5800 611.4300 569.9400 617.6400L569.9400 617.6400Q570.0300 619.2600 570.0300 621.6000Q570.0300 623.9400 569.9400 625.5600L569.9400 625.5600Q569.5800 631.6800 567.0150 636.2700Q564.4500 640.8600 559.5450 643.3800Q554.6400 645.9000 547.4400 645.9000ZM547.4400 636.9900L547.4400 636.9900Q552.2100 636.9900 554.8200 633.9750Q557.4300 630.9600 557.7000 625.1100L557.7000 625.1100Q557.7900 623.7600 557.7900 621.6000Q557.7900 619.4400 557.7000 618.0900L557.7000 618.0900Q557.4300 612.2400 554.8200 609.2250Q552.2100 606.2100 547.4400 606.2100L547.4400 606.2100Q542.6700 606.2100 540.0600 609.2250Q537.4500 612.2400 537.1800 618.0900L537.1800 618.0900Q537.0900 619.4400 537.0900 621.6000Q537.0900 623.7600 537.1800 625.1100L537.1800 625.1100Q537.4500 630.9600 540.0600 633.9750Q542.6700 636.9900 547.4400 636.9900Z" id="title"/><path d="M1491.2800 650L1376.5600 650Q1374.1600 650 1372.4800 648.3200Q1370.8000 646.6400 1370.8000 644.2400L1370.8000 644.2400L1370.8000 632Q1370.8000 629.8400 1371.8800 626.8400Q1372.9600 623.8400 1376.8000 620.7200L1376.8000 620.7200L1414.7200 583.0400Q1430.5600 570.5600 1440.2800 561.8000Q1450 553.0400 1454.4400 545.7200Q1458.8800 538.4000 1458.8800 531.2000L1458.8800 531.2000Q1458.8800 520.4000 1453 513.6800Q1447.1200 506.9600 1434.4000 506.9600L1434.4000 506.9600Q1426 506.9600 1420.2400 510.4400Q1414.4800 513.9200 1411.2400 519.6800Q1408 525.4400 1406.8000 532.4000L1406.8000 532.4000Q1406.3200 535.5200 1404.1600 536.7200Q1402 537.9200 1399.8400 537.9200L1399.8400 537.9200L1378.4800 537.9200Q1376.3200 537.9200 1374.8800 536.4800Q1373.4400 535.0400 1373.4400 533.1200L1373.4400 533.1200Q1373.6800 522.8000 1377.7600 513.0800Q1381.8400 503.3600 1389.6400 495.8000Q1397.4400 488.2400 1408.7200 483.6800Q1420 479.1200 1434.1600 479.1200L1434.1600 479.1200Q1454.0800 479.1200 1467.1600 485.8400Q1480.2400 492.5600 1486.8400 504.0800Q1493.4400 515.6000 1493.4400 530L1493.4400 530Q1493.4400 541.2800 1489.1200 550.7600Q1484.8000 560.2400 1476.6400 569Q1468.4800 577.7600 1456.9600 586.8800L1456.9600 586.8800L1422.8800 621.4400L1491.2800 621.4400Q1493.9200 621.4400 1495.4800 623Q1497.0400 624.5600 1497.0400 627.2000L1497.0400 627.2000L1497.0400 644.2400Q1497.0400 646.6400 1495.4800 648.3200Q1493.9200 650 1491.2800 650L1491.2800 650ZM1552.7200 650L1528.7200 650Q1526.3200 650 1524.6400 648.3200Q1522.9600 646.6400 1522.9600 644.2400L1522.9600 644.2400L1522.9600 620.4800Q1522.9600 617.8400 1524.6400 616.1600Q1526.3200 614.4800 1528.7200 614.4800L1528.7200 614.4800L1552.7200 614.4800Q1555.1200 614.4800 1556.8000 616.1600Q1558.4800 617.8400 1558.4800 620.4800L1558.4800 620.4800L1558.4800 644.2400Q1558.4800 646.6400 1556.8000 648.3200Q1555.1200 650 1552.7200 650L1552.7200 650ZM1704.1600 650L1589.4400 650Q1587.0400 650 1585.3600 648.3200Q1583.6800 646.6400 1583.6800 644.2400L1583.6800 644.2400L1583.6800 632Q1583.6800 629.8400 1584.7600 626.8400Q1585.8400 623.8400 1589.6800 620.7200L1589.6800 620.7200L1627.6000 583.0400Q1643.4400 570.5600 1653.1600 561.8000Q1662.8800 553.0400 1667.3200 545.7200Q1671.7600 538.4000 1671.7600 531.2000L1671.7600 531.2000Q1671.7600 520.4000 1665.8800 513.6800Q1660.0000 506.9600 1647.2800 506.9600L1647.2800 506.9600Q1638.8800 506.9600 1633.1200 510.4400Q1627.3600 513.9200 1624.1200 519.6800Q1620.8800 525.4400 1619.6800 532.4000L1619.6800 532.4000Q1619.2000 535.5200 1617.0400 536.7200Q1614.8800 537.9200 1612.7200 537.9200L1612.7200 537.9200L1591.3600 537.9200Q1589.2000 537.9200 1587.7600 536.4800Q1586.3200 535.0400 1586.3200 533.1200L1586.3200 533.1200Q1586.5600 522.8000 1590.6400 513.0800Q1594.7200 503.3600 1602.5200 495.8000Q1610.3200 488.2400 1621.6000 483.6800Q1632.8800 479.1200 1647.0400 479.1200L1647.0400 479.1200Q1666.9600 479.1200 1680.0400 485.8400Q1693.1200 492.5600 1699.7200 504.0800Q1706.3200 515.6000 1706.3200 530L1706.3200 530Q1706.3200 541.2800 1702 550.7600Q1697.6800 560.2400 1689.5200 569Q1681.3600 577.7600 1669.8400 586.8800L1669.8400 586.8800L1635.7600 621.4400L1704.1600 621.4400Q1706.8000 621.4400 1708.3600 623Q1709.9200 624.5600 1709.9200 627.2000L1709.9200 627.2000L1709.9200 644.2400Q1709.9200 646.6400 1708.3600 648.3200Q1706.8000 650 1704.1600 650L1704.1600 650Z" id="lecture-full-number"/></g></svg>