<svg xmlns="http://www.w3.org/2000/svg" version="1.1" xmlns:xlink="http://www.w3.org/1999/xlink" xmlns:svgjs="http://svgjs.dev/svgjs" viewBox="0 0 1920 1080" id="559592a0-4dc9-4af9-bc17-4ca5bd697867"><g><rect width="1920" height="1080" fill="#7d1538"/></g><g fill="#3f828a"><path d="M969.5 217C561.465 217 231 547.465 231 955.5C231 1363.53 561.465 1694 969.5 1694C1377.53 1694 1708 1363.53 1708 955.5C1708 547.465 1377.53 217 969.5 217ZM969.5 1309.34C773.983 1309.34 615.658 1151.02 615.658 955.5C615.658 759.983 773.983 601.658 969.5 601.658C1165.02 601.658 1323.34 759.983 1323.34 955.5C1323.34 1151.02 1165.02 1309.34 969.5 1309.34Z"/></g><g fill="#ffffff" opacity="0.2"><path d="M1432 918.479L1616.48 734V918.479H1432Z"/><path d="M1616.48 918.479L1800.52 734V918.479H1616.48Z"/><path d="M1800.52 918.479L1985 734V918.479H1800.52Z"/><path d="M1432 1102.52L1616.48 918.479V1102.52H1432Z"/><path d="M1616.48 1102.52L1800.52 918.479V1102.52H1616.48Z"/><path d="M1800.52 1102.52L1985 918.479V1102.52H1800.52Z"/><path d="M499 154.521L683.479 -29.5215V154.521H499Z"/><path d="M683.479 154.521L867.521 -29.5215V154.521H683.479Z"/><path d="M867.521 154.521L1052 -29.5215V154.521H867.521Z"/><path d="M499 339L683.479 154.521V339H499Z"/><path d="M683.479 339L867.521 154.521V339H683.479Z"/><path d="M867.521 339L1052 154.521V339H867.521Z"/></g><g><path d="M178.635 139.281L184.422 144.246V166.626H215.704L219.958 172.147L215.69 177.397H184.422V198.795L178.635 203.747L173 198.795V144.232L178.635 139.281ZM195.554 195.68H219.406L223.397 200.915L219.143 206.45H195.554L191.7 201.342L195.554 195.68ZM196.382 138H219.129L223.383 143.52L219.129 148.77H196.659L192.115 143.677L196.382 138ZM323.155 148.628L328.251 154.291L323.155 159.968H246.13L241.172 154.291L246.13 148.628H323.155ZM237.043 172.147L241.849 167.893L246.669 172.147V178.393C246.669 188.879 249.417 197.515 261.668 197.515H264.14C275.147 197.515 281.197 189.86 281.197 177.952V172.005L285.879 167.75L290.699 171.862V178.379C290.699 189.007 293.723 196.946 305.56 196.946H307.618C319.178 196.946 321.235 187.869 321.373 177.952V171.578L326.056 167.608L331 171.72V178.094C330.862 191.838 327.285 207.574 308.032 207.574H305.974C294.552 207.574 288.365 202.324 285.892 195.808C283.006 202.466 275.299 208.286 264.844 208.286H262.358C242.553 208.286 237.194 195.964 237.056 178.663V172.147H237.043ZM276.391 274.744L273.642 267.089L280.796 264.969L305.974 276.721V252.491L311.07 248.095L316.291 252.491V281.829L325.641 286.226L328.251 293.311L320.959 296L276.391 274.744ZM321.235 223.011L328.113 226.27L325.917 233.497L264.002 263.119L256.571 260.146L259.596 252.776L321.235 223.011ZM231.905 263.404L237.954 268.512C237.402 286.51 222.403 296 204.669 296H202.874C194.062 296 183.759 292.6 177.157 286.083L177.834 278.855L184.298 278.002C189.118 282.256 195.858 285.229 202.183 285.229H204.117C216.091 285.229 225.303 280.136 226.27 268.085L231.905 263.404ZM226.256 251.638C225.704 239.16 216.629 234.209 204.103 234.209H202.169C194.739 234.209 189.104 237.182 184.284 241.436L177.834 240.583L177.143 233.355C183.745 226.696 192.957 223.58 202.597 223.58H204.517C222.403 223.58 237.402 232.942 237.94 251.211L231.891 256.176L226.256 251.638Z" fill="#ffffff"/></g><g fill="#ffffff" id="info-group"><path d="M167.0800 430L154.9000 430Q153.7800 430 152.8700 429.1600Q151.9600 428.3200 151.9600 427.0600L151.9600 427.0600Q151.9600 426.5000 152.2400 425.8000L152.2400 425.8000L185.9800 335.5000Q186.4000 334.1000 187.5900 333.0500Q188.7800 332 190.8800 332L190.8800 332L206.1400 332Q208.2400 332 209.3600 333.0500Q210.4800 334.1000 211.0400 335.5000L211.0400 335.5000L244.7800 425.8000Q244.9200 426.5000 244.9200 427.0600L244.9200 427.0600Q244.9200 428.3200 244.0800 429.1600Q243.2400 430 242.1200 430L242.1200 430L229.9400 430Q227.9800 430 227.0700 429.0900Q226.1600 428.1800 225.8800 427.3400L225.8800 427.3400L219.3000 410.2600L177.7200 410.2600L171.1400 427.3400Q170.8600 428.1800 169.9500 429.0900Q169.0400 430 167.0800 430L167.0800 430ZM198.4400 350.9000L182.6200 394.1600L214.4000 394.1600L198.4400 350.9000ZM283.2800 431.4000L283.2800 431.4000Q274.7400 431.4000 268.5100 427.5500Q262.2800 423.7000 258.9200 416.6300Q255.5600 409.5600 255.5600 399.9000L255.5600 399.9000L255.5600 360.5600Q255.5600 359.1600 256.5400 358.1800Q257.5200 357.2000 258.9200 357.2000L258.9200 357.2000L271.2400 357.2000Q272.7800 357.2000 273.6900 358.1800Q274.6000 359.1600 274.6000 360.5600L274.6000 360.5600L274.6000 399.0600Q274.6000 416.4200 289.8600 416.4200L289.8600 416.4200Q297.1400 416.4200 301.4100 411.8000Q305.6800 407.1800 305.6800 399.0600L305.6800 399.0600L305.6800 360.5600Q305.6800 359.1600 306.6600 358.1800Q307.6400 357.2000 309.0400 357.2000L309.0400 357.2000L321.3600 357.2000Q322.7600 357.2000 323.7400 358.1800Q324.7200 359.1600 324.7200 360.5600L324.7200 360.5600L324.7200 426.6400Q324.7200 428.0400 323.7400 429.0200Q322.7600 430 321.3600 430L321.3600 430L310.0200 430Q308.4800 430 307.5700 429.0200Q306.6600 428.0400 306.6600 426.6400L306.6600 426.6400L306.6600 420.9000Q302.8800 425.8000 297.2800 428.6000Q291.6800 431.4000 283.2800 431.4000ZM358.3200 430L346.7000 430Q345.3000 430 344.3200 429.0200Q343.3400 428.0400 343.3400 426.6400L343.3400 426.6400L343.3400 333.9600Q343.3400 332.5600 344.3200 331.5800Q345.3000 330.6000 346.7000 330.6000L346.7000 330.6000L358.3200 330.6000Q359.7200 330.6000 360.7000 331.5800Q361.6800 332.5600 361.6800 333.9600L361.6800 333.9600L361.6800 426.6400Q361.6800 428.0400 360.7000 429.0200Q359.7200 430 358.3200 430L358.3200 430ZM401.4400 431.4000L401.4400 431.4000Q394.1600 431.4000 388.2800 428.5300Q382.4000 425.6600 378.9700 420.8300Q375.5400 416 375.5400 409.9800L375.5400 409.9800Q375.5400 400.1800 383.5200 394.3700Q391.5000 388.5600 404.3800 386.6000L404.3800 386.6000L423.5600 383.8000L423.5600 380.8600Q423.5600 374.9800 420.6200 371.7600Q417.6800 368.5400 410.5400 368.5400L410.5400 368.5400Q405.5000 368.5400 402.3500 370.5700Q399.2000 372.6000 397.6600 375.9600L397.6600 375.9600Q396.5400 377.7800 394.4400 377.7800L394.4400 377.7800L383.3800 377.7800Q381.8400 377.7800 381.0700 376.9400Q380.3000 376.1000 380.3000 374.7000L380.3000 374.7000Q380.4400 372.4600 382.1900 369.2400Q383.9400 366.0200 387.5100 363.0100Q391.0800 360 396.8200 357.9000Q402.5600 355.8000 410.6800 355.8000L410.6800 355.8000Q419.5000 355.8000 425.5900 357.9700Q431.6800 360.1400 435.3200 363.7800Q438.9600 367.4200 440.6400 372.3200Q442.3200 377.2200 442.3200 382.6800L442.3200 382.6800L442.3200 426.6400Q442.3200 428.0400 441.3400 429.0200Q440.3600 430 438.9600 430L438.9600 430L427.6200 430Q426.0800 430 425.1700 429.0200Q424.2600 428.0400 424.2600 426.6400L424.2600 426.6400L424.2600 421.1800Q422.4400 423.7000 419.3600 426.0800Q416.2800 428.4600 411.8700 429.9300Q407.4600 431.4000 401.4400 431.4000ZM406.2000 418.1000L406.2000 418.1000Q411.1000 418.1000 415.0900 416Q419.0800 413.9000 421.3900 409.4900Q423.7000 405.0800 423.7000 398.3600L423.7000 398.3600L423.7000 395.4200L409.7000 397.6600Q401.4400 398.9200 397.3800 401.7200Q393.3200 404.5200 393.3200 408.5800L393.3200 408.5800Q393.3200 411.6600 395.2100 413.8300Q397.1000 416 400.0400 417.0500Q402.9800 418.1000 406.2000 418.1000ZM559.6400 430L492.7200 430Q491.3200 430 490.3400 429.0200Q489.3600 428.0400 489.3600 426.6400L489.3600 426.6400L489.3600 419.5000Q489.3600 418.2400 489.9900 416.4900Q490.6200 414.7400 492.8600 412.9200L492.8600 412.9200L514.9800 390.9400Q524.2200 383.6600 529.8900 378.5500Q535.5600 373.4400 538.1500 369.1700Q540.7400 364.9000 540.7400 360.7000L540.7400 360.7000Q540.7400 354.4000 537.3100 350.4800Q533.8800 346.5600 526.4600 346.5600L526.4600 346.5600Q521.5600 346.5600 518.2000 348.5900Q514.8400 350.6200 512.9500 353.9800Q511.0600 357.3400 510.3600 361.4000L510.3600 361.4000Q510.0800 363.2200 508.8200 363.9200Q507.5600 364.6200 506.3000 364.6200L506.3000 364.6200L493.8400 364.6200Q492.5800 364.6200 491.7400 363.7800Q490.9000 362.9400 490.9000 361.8200L490.9000 361.8200Q491.0400 355.8000 493.4200 350.1300Q495.8000 344.4600 500.3500 340.0500Q504.9000 335.6400 511.4800 332.9800Q518.0600 330.3200 526.3200 330.3200L526.3200 330.3200Q537.9400 330.3200 545.5700 334.2400Q553.2000 338.1600 557.0500 344.8800Q560.9000 351.6000 560.9000 360L560.9000 360Q560.9000 366.5800 558.3800 372.1100Q555.8600 377.6400 551.1000 382.7500Q546.3400 387.8600 539.6200 393.1800L539.6200 393.1800L519.7400 413.3400L559.6400 413.3400Q561.1800 413.3400 562.0900 414.2500Q563.0000 415.1600 563.0000 416.7000L563.0000 416.7000L563.0000 426.6400Q563.0000 428.0400 562.0900 429.0200Q561.1800 430 559.6400 430L559.6400 430ZM595.7600 381L581.9000 381Q580.5000 381 579.5200 380.0200Q578.5400 379.0400 578.5400 377.6400L578.5400 377.6400L578.5400 364.3400Q578.5400 362.8000 579.5200 361.8200Q580.5000 360.8400 581.9000 360.8400L581.9000 360.8400L595.7600 360.8400Q597.3000 360.8400 598.2800 361.8200Q599.2600 362.8000 599.2600 364.3400L599.2600 364.3400L599.2600 377.6400Q599.2600 379.0400 598.2800 380.0200Q597.3000 381 595.7600 381L595.7600 381ZM595.7600 430L581.9000 430Q580.5000 430 579.5200 429.0200Q578.5400 428.0400 578.5400 426.6400L578.5400 426.6400L578.5400 413.3400Q578.5400 411.8000 579.5200 410.8200Q580.5000 409.8400 581.9000 409.8400L581.9000 409.8400L595.7600 409.8400Q597.3000 409.8400 598.2800 410.8200Q599.2600 411.8000 599.2600 413.3400L599.2600 413.3400L599.2600 426.6400Q599.2600 428.0400 598.2800 429.0200Q597.3000 430 595.7600 430L595.7600 430ZM667.5800 430L654.4200 430Q653.0200 430 652.0400 429.0200Q651.0600 428.0400 651.0600 426.6400L651.0600 426.6400L651.0600 335.3600Q651.0600 333.9600 652.0400 332.9800Q653.0200 332 654.4200 332L654.4200 332L667.5800 332Q669.1200 332 670.0300 332.9800Q670.9400 333.9600 670.9400 335.3600L670.9400 335.3600L670.9400 426.6400Q670.9400 428.0400 670.0300 429.0200Q669.1200 430 667.5800 430L667.5800 430ZM706.9200 430L694.6000 430Q693.2000 430 692.2200 429.0200Q691.2400 428.0400 691.2400 426.6400L691.2400 426.6400L691.2400 360.5600Q691.2400 359.1600 692.2200 358.1800Q693.2000 357.2000 694.6000 357.2000L694.6000 357.2000L706.0800 357.2000Q707.4800 357.2000 708.4600 358.1800Q709.4400 359.1600 709.4400 360.5600L709.4400 360.5600L709.4400 366.3000Q713.0800 361.8200 718.7500 358.8100Q724.4200 355.8000 732.8200 355.8000L732.8200 355.8000Q741.3600 355.8000 747.6600 359.6500Q753.9600 363.5000 757.3900 370.5000Q760.8200 377.5000 760.8200 387.3000L760.8200 387.3000L760.8200 426.6400Q760.8200 428.0400 759.8400 429.0200Q758.8600 430 757.4600 430L757.4600 430L745.1400 430Q743.7400 430 742.7600 429.0200Q741.7800 428.0400 741.7800 426.6400L741.7800 426.6400L741.7800 388.1400Q741.7800 380.0200 737.7900 375.4000Q733.8000 370.7800 726.2400 370.7800L726.2400 370.7800Q718.9600 370.7800 714.6200 375.4000Q710.2800 380.0200 710.2800 388.1400L710.2800 388.1400L710.2800 426.6400Q710.2800 428.0400 709.3000 429.0200Q708.3200 430 706.9200 430L706.9200 430ZM806.1800 431.4000L806.1800 431.4000Q797.7800 431.4000 791.8300 429.4400Q785.8800 427.4800 782.1000 424.5400Q778.3200 421.6000 776.5000 418.6600Q774.6800 415.7200 774.5400 413.7600L774.5400 413.7600Q774.4000 412.2200 775.4500 411.3100Q776.5000 410.4000 777.7600 410.4000L777.7600 410.4000L788.8200 410.4000Q789.3800 410.4000 789.8000 410.5400Q790.2200 410.6800 790.9200 411.3800L790.9200 411.3800Q792.7400 412.9200 794.7700 414.6000Q796.8000 416.2800 799.6000 417.4700Q802.4000 418.6600 806.6000 418.6600L806.6000 418.6600Q812.0600 418.6600 815.7700 416.4900Q819.4800 414.3200 819.4800 410.2600L819.4800 410.2600Q819.4800 407.3200 817.8700 405.5000Q816.2600 403.6800 811.9200 402.2100Q807.5800 400.7400 799.6000 399.0600L799.6000 399.0600Q791.7600 397.2400 786.5800 394.4400Q781.4000 391.6400 778.8800 387.4400Q776.3600 383.2400 776.3600 377.6400L776.3600 377.6400Q776.3600 372.1800 779.6500 367.2100Q782.9400 362.2400 789.4500 359.0200Q795.9600 355.8000 805.6200 355.8000L805.6200 355.8000Q813.1800 355.8000 818.7800 357.6900Q824.3800 359.5800 828.0900 362.3800Q831.8000 365.1800 833.7600 368.0500Q835.7200 370.9200 835.8600 373.0200L835.8600 373.0200Q836.0000 374.5600 835.0200 375.4700Q834.0400 376.3800 832.7800 376.3800L832.7800 376.3800L822.4200 376.3800Q821.7200 376.3800 821.1600 376.1000Q820.6000 375.8200 820.0400 375.4000L820.0400 375.4000Q818.5000 374 816.6800 372.3900Q814.8600 370.7800 812.2700 369.6600Q809.6800 368.5400 805.4800 368.5400L805.4800 368.5400Q800.1600 368.5400 797.3600 370.8500Q794.5600 373.1600 794.5600 376.6600L794.5600 376.6600Q794.5600 379.0400 795.8900 380.7900Q797.2200 382.5400 801.2800 384.0800Q805.3400 385.6200 813.6000 387.3000L813.6000 387.3000Q822.9800 388.9800 828.5100 392.2700Q834.0400 395.5600 836.3500 399.8300Q838.6600 404.1000 838.6600 409.2800L838.6600 409.2800Q838.6600 415.5800 834.9500 420.6200Q831.2400 425.6600 824.0300 428.5300Q816.8200 431.4000 806.1800 431.4000ZM884.4400 431.4000L884.4400 431.4000Q868.9000 431.4000 859.8000 422.4400Q850.7000 413.4800 850.0000 396.9600L850.0000 396.9600Q849.8600 395.5600 849.8600 393.3900Q849.8600 391.2200 850.0000 389.9600L850.0000 389.9600Q850.5600 379.3200 854.8300 371.6900Q859.1000 364.0600 866.6600 359.9300Q874.2200 355.8000 884.4400 355.8000L884.4400 355.8000Q895.7800 355.8000 903.4800 360.4900Q911.1800 365.1800 915.1000 373.5100Q919.0200 381.8400 919.0200 392.7600L919.0200 392.7600L919.0200 395.7000Q919.0200 397.1000 918.0400 398.0800Q917.0600 399.0600 915.5200 399.0600L915.5200 399.0600L869.0400 399.0600Q869.0400 399.0600 869.0400 399.4800Q869.0400 399.9000 869.0400 400.1800L869.0400 400.1800Q869.1800 405.0800 870.9300 409.2100Q872.6800 413.3400 876.1100 415.8600Q879.5400 418.3800 884.3000 418.3800L884.3000 418.3800Q888.2200 418.3800 890.8800 417.1900Q893.5400 416 895.2200 414.4600Q896.9000 412.9200 897.6000 411.9400L897.6000 411.9400Q898.8600 410.2600 899.6300 409.9100Q900.4000 409.5600 901.9400 409.5600L901.9400 409.5600L913.9800 409.5600Q915.3800 409.5600 916.2900 410.4000Q917.2000 411.2400 917.0600 412.5000L917.0600 412.5000Q916.9200 414.7400 914.7500 417.9600Q912.5800 421.1800 908.5200 424.2600Q904.4600 427.3400 898.3700 429.3700Q892.2800 431.4000 884.4400 431.4000ZM869.0400 386.8800L869.0400 387.3000L899.9800 387.3000L899.9800 386.8800Q899.9800 381.4200 898.1600 377.2900Q896.3400 373.1600 892.8400 370.8500Q889.3400 368.5400 884.4400 368.5400L884.4400 368.5400Q879.5400 368.5400 876.0400 370.8500Q872.5400 373.1600 870.7900 377.2900Q869.0400 381.4200 869.0400 386.8800L869.0400 386.8800ZM949.4000 430L937.2200 430Q935.8200 430 934.8400 429.0200Q933.8600 428.0400 933.8600 426.6400L933.8600 426.6400L933.8600 360.7000Q933.8600 359.1600 934.8400 358.1800Q935.8200 357.2000 937.2200 357.2000L937.2200 357.2000L948.5600 357.2000Q949.9600 357.2000 951.0100 358.1800Q952.0600 359.1600 952.0600 360.7000L952.0600 360.7000L952.0600 366.4400Q955.2800 361.9600 960.3900 359.5800Q965.5000 357.2000 972.2200 357.2000L972.2200 357.2000L977.9600 357.2000Q979.5000 357.2000 980.4100 358.1800Q981.3200 359.1600 981.3200 360.5600L981.3200 360.5600L981.3200 370.6400Q981.3200 372.0400 980.4100 373.0200Q979.5000 374 977.9600 374L977.9600 374L967.0400 374Q960.3200 374 956.6100 377.7100Q952.9000 381.4200 952.9000 388.1400L952.9000 388.1400L952.9000 426.6400Q952.9000 428.0400 951.9200 429.0200Q950.9400 430 949.4000 430L949.4000 430ZM1007.2200 430L995.6000 430Q994.2000 430 993.2200 429.0200Q992.2400 428.0400 992.2400 426.6400L992.2400 426.6400L992.2400 360.5600Q992.2400 359.1600 993.2200 358.1800Q994.2000 357.2000 995.6000 357.2000L995.6000 357.2000L1007.2200 357.2000Q1008.7600 357.2000 1009.6700 358.1800Q1010.5800 359.1600 1010.5800 360.5600L1010.5800 360.5600L1010.5800 426.6400Q1010.5800 428.0400 1009.6700 429.0200Q1008.7600 430 1007.2200 430L1007.2200 430ZM1007.7800 345.1600L995.0400 345.1600Q993.6400 345.1600 992.6600 344.1800Q991.6800 343.2000 991.6800 341.8000L991.6800 341.8000L991.6800 331.7200Q991.6800 330.3200 992.6600 329.3400Q993.6400 328.3600 995.0400 328.3600L995.0400 328.3600L1007.7800 328.3600Q1009.3200 328.3600 1010.3000 329.3400Q1011.2800 330.3200 1011.2800 331.7200L1011.2800 331.7200L1011.2800 341.8000Q1011.2800 343.2000 1010.3000 344.1800Q1009.3200 345.1600 1007.7800 345.1600L1007.7800 345.1600ZM1044.7400 430L1032.5600 430Q1031.1600 430 1030.1800 429.0200Q1029.2000 428.0400 1029.2000 426.6400L1029.2000 426.6400L1029.2000 360.7000Q1029.2000 359.1600 1030.1800 358.1800Q1031.1600 357.2000 1032.5600 357.2000L1032.5600 357.2000L1043.9000 357.2000Q1045.3000 357.2000 1046.3500 358.1800Q1047.4000 359.1600 1047.4000 360.7000L1047.4000 360.7000L1047.4000 366.4400Q1050.6200 361.9600 1055.7300 359.5800Q1060.8400 357.2000 1067.5600 357.2000L1067.5600 357.2000L1073.3000 357.2000Q1074.8400 357.2000 1075.7500 358.1800Q1076.6600 359.1600 1076.6600 360.5600L1076.6600 360.5600L1076.6600 370.6400Q1076.6600 372.0400 1075.7500 373.0200Q1074.8400 374 1073.3000 374L1073.3000 374L1062.3800 374Q1055.6600 374 1051.9500 377.7100Q1048.2400 381.4200 1048.2400 388.1400L1048.2400 388.1400L1048.2400 426.6400Q1048.2400 428.0400 1047.2600 429.0200Q1046.2800 430 1044.7400 430L1044.7400 430ZM1093.8800 440.5000L1086.7400 440.5000Q1085.4800 440.5000 1084.7800 439.6600Q1084.0800 438.8200 1084.2200 437.5600L1084.2200 437.5600L1088.0000 413.7600Q1088.2800 411.9400 1089.3300 410.6100Q1090.3800 409.2800 1092.4800 409.2800L1092.4800 409.2800L1105.3600 409.2800Q1106.4800 409.2800 1107.1800 410.0500Q1107.8800 410.8200 1107.8800 411.9400L1107.8800 411.9400Q1107.8800 412.9200 1107.4600 413.7600L1107.4600 413.7600L1098.5000 437Q1097.9400 438.4000 1096.8900 439.4500Q1095.8400 440.5000 1093.8800 440.5000L1093.8800 440.5000ZM206 570L164.2800 570Q162.8800 570 161.9000 569.0200Q160.9200 568.0400 160.9200 566.6400L160.9200 566.6400L160.9200 475.5000Q160.9200 473.9600 161.9000 472.9800Q162.8800 472 164.2800 472L164.2800 472L204.8800 472Q216.2200 472 223.3600 475.4300Q230.5000 478.8600 233.9300 484.8800Q237.3600 490.9000 237.3600 498.8800L237.3600 498.8800Q237.3600 504.2000 235.4700 508.1900Q233.5800 512.1800 230.8500 514.7000Q228.1200 517.2200 225.4600 518.6200L225.4600 518.6200Q230.9200 521.1400 235.1200 527.0200Q239.3200 532.9000 239.3200 541.0200L239.3200 541.0200Q239.3200 549.4200 235.5400 556Q231.7600 562.5800 224.3400 566.2900Q216.9200 570 206 570L206 570ZM180.3800 526.7400L180.3800 555.1600L203.7600 555.1600Q211.3200 555.1600 215.2400 551.0300Q219.1600 546.9000 219.1600 541.0200L219.1600 541.0200Q219.1600 534.8600 215.1700 530.8000Q211.1800 526.7400 203.7600 526.7400L203.7600 526.7400L180.3800 526.7400ZM180.3800 486.7000L180.3800 512.1800L202.3600 512.1800Q209.7800 512.1800 213.4900 508.6100Q217.2000 505.0400 217.2000 499.3000L217.2000 499.3000Q217.2000 493.4200 213.4900 490.0600Q209.7800 486.7000 202.3600 486.7000L202.3600 486.7000L180.3800 486.7000ZM282.3000 571.4000L282.3000 571.4000Q273.7600 571.4000 267.5300 567.5500Q261.3000 563.7000 257.9400 556.6300Q254.5800 549.5600 254.5800 539.9000L254.5800 539.9000L254.5800 500.5600Q254.5800 499.1600 255.5600 498.1800Q256.5400 497.2000 257.9400 497.2000L257.9400 497.2000L270.2600 497.2000Q271.8000 497.2000 272.7100 498.1800Q273.6200 499.1600 273.6200 500.5600L273.6200 500.5600L273.6200 539.0600Q273.6200 556.4200 288.8800 556.4200L288.8800 556.4200Q296.1600 556.4200 300.4300 551.8000Q304.7000 547.1800 304.7000 539.0600L304.7000 539.0600L304.7000 500.5600Q304.7000 499.1600 305.6800 498.1800Q306.6600 497.2000 308.0600 497.2000L308.0600 497.2000L320.3800 497.2000Q321.7800 497.2000 322.7600 498.1800Q323.7400 499.1600 323.7400 500.5600L323.7400 500.5600L323.7400 566.6400Q323.7400 568.0400 322.7600 569.0200Q321.7800 570 320.3800 570L320.3800 570L309.0400 570Q307.5000 570 306.5900 569.0200Q305.6800 568.0400 305.6800 566.6400L305.6800 566.6400L305.6800 560.9000Q301.9000 565.8000 296.3000 568.6000Q290.7000 571.4000 282.3000 571.4000ZM369.8000 571.4000L369.8000 571.4000Q361.4000 571.4000 355.4500 569.4400Q349.5000 567.4800 345.7200 564.5400Q341.9400 561.6000 340.1200 558.6600Q338.3000 555.7200 338.1600 553.7600L338.1600 553.7600Q338.0200 552.2200 339.0700 551.3100Q340.1200 550.4000 341.3800 550.4000L341.3800 550.4000L352.4400 550.4000Q353 550.4000 353.4200 550.5400Q353.8400 550.6800 354.5400 551.3800L354.5400 551.3800Q356.3600 552.9200 358.3900 554.6000Q360.4200 556.2800 363.2200 557.4700Q366.0200 558.6600 370.2200 558.6600L370.2200 558.6600Q375.6800 558.6600 379.3900 556.4900Q383.1000 554.3200 383.1000 550.2600L383.1000 550.2600Q383.1000 547.3200 381.4900 545.5000Q379.8800 543.6800 375.5400 542.2100Q371.2000 540.7400 363.2200 539.0600L363.2200 539.0600Q355.3800 537.2400 350.2000 534.4400Q345.0200 531.6400 342.5000 527.4400Q339.9800 523.2400 339.9800 517.6400L339.9800 517.6400Q339.9800 512.1800 343.2700 507.2100Q346.5600 502.2400 353.0700 499.0200Q359.5800 495.8000 369.2400 495.8000L369.2400 495.8000Q376.8000 495.8000 382.4000 497.6900Q388 499.5800 391.7100 502.3800Q395.4200 505.1800 397.3800 508.0500Q399.3400 510.9200 399.4800 513.0200L399.4800 513.0200Q399.6200 514.5600 398.6400 515.4700Q397.6600 516.3800 396.4000 516.3800L396.4000 516.3800L386.0400 516.3800Q385.3400 516.3800 384.7800 516.1000Q384.2200 515.8200 383.6600 515.4000L383.6600 515.4000Q382.1200 514 380.3000 512.3900Q378.4800 510.7800 375.8900 509.6600Q373.3000 508.5400 369.1000 508.5400L369.1000 508.5400Q363.7800 508.5400 360.9800 510.8500Q358.1800 513.1600 358.1800 516.6600L358.1800 516.6600Q358.1800 519.0400 359.5100 520.7900Q360.8400 522.5400 364.9000 524.0800Q368.9600 525.6200 377.2200 527.3000L377.2200 527.3000Q386.6000 528.9800 392.1300 532.2700Q397.6600 535.5600 399.9700 539.8300Q402.2800 544.1000 402.2800 549.2800L402.2800 549.2800Q402.2800 555.5800 398.5700 560.6200Q394.8600 565.6600 387.6500 568.5300Q380.4400 571.4000 369.8000 571.4000ZM448.2000 571.4000L448.2000 571.4000Q438.1200 571.4000 430.4900 567.6200Q422.8600 563.8400 418.5900 556.6300Q414.3200 549.4200 413.9000 539.2000L413.9000 539.2000Q413.7600 537.1000 413.7600 533.6700Q413.7600 530.2400 413.9000 528L413.9000 528Q414.3200 517.7800 418.5900 510.5700Q422.8600 503.3600 430.4900 499.5800Q438.1200 495.8000 448.2000 495.8000L448.2000 495.8000Q457.1600 495.8000 463.4600 498.2500Q469.7600 500.7000 473.8200 504.5500Q477.8800 508.4000 479.9100 512.5300Q481.9400 516.6600 482.0800 520.0200L482.0800 520.0200Q482.2200 521.5600 481.1700 522.4700Q480.1200 523.3800 478.7200 523.3800L478.7200 523.3800L466.4000 523.3800Q465.0000 523.3800 464.2300 522.6800Q463.4600 521.9800 462.7600 520.5800L462.7600 520.5800Q460.6600 514.9800 457.2300 512.6700Q453.8000 510.3600 448.4800 510.3600L448.4800 510.3600Q441.4800 510.3600 437.3500 514.7700Q433.2200 519.1800 432.9400 528.7000L432.9400 528.7000Q432.6600 534.0200 432.9400 538.5000L432.9400 538.5000Q433.2200 548.1600 437.3500 552.5000Q441.4800 556.8400 448.4800 556.8400L448.4800 556.8400Q453.9400 556.8400 457.3000 554.5300Q460.6600 552.2200 462.7600 546.6200L462.7600 546.6200Q463.4600 545.2200 464.2300 544.5200Q465.0000 543.8200 466.4000 543.8200L466.4000 543.8200L478.7200 543.8200Q480.1200 543.8200 481.1700 544.7300Q482.2200 545.6400 482.0800 547.1800L482.0800 547.1800Q481.9400 549.7000 480.7500 552.8500Q479.5600 556 476.9700 559.2900Q474.3800 562.5800 470.4600 565.3100Q466.5400 568.0400 461.0100 569.7200Q455.4800 571.4000 448.2000 571.4000ZM517.7800 571.4000L517.7800 571.4000Q510.5000 571.4000 504.6200 568.5300Q498.7400 565.6600 495.3100 560.8300Q491.8800 556 491.8800 549.9800L491.8800 549.9800Q491.8800 540.1800 499.8600 534.3700Q507.8400 528.5600 520.7200 526.6000L520.7200 526.6000L539.9000 523.8000L539.9000 520.8600Q539.9000 514.9800 536.9600 511.7600Q534.0200 508.5400 526.8800 508.5400L526.8800 508.5400Q521.8400 508.5400 518.6900 510.5700Q515.5400 512.6000 514 515.9600L514 515.9600Q512.8800 517.7800 510.7800 517.7800L510.7800 517.7800L499.7200 517.7800Q498.1800 517.7800 497.4100 516.9400Q496.6400 516.1000 496.6400 514.7000L496.6400 514.7000Q496.7800 512.4600 498.5300 509.2400Q500.2800 506.0200 503.8500 503.0100Q507.4200 500 513.1600 497.9000Q518.9000 495.8000 527.0200 495.8000L527.0200 495.8000Q535.8400 495.8000 541.9300 497.9700Q548.0200 500.1400 551.6600 503.7800Q555.3000 507.4200 556.9800 512.3200Q558.6600 517.2200 558.6600 522.6800L558.6600 522.6800L558.6600 566.6400Q558.6600 568.0400 557.6800 569.0200Q556.7000 570 555.3000 570L555.3000 570L543.9600 570Q542.4200 570 541.5100 569.0200Q540.6000 568.0400 540.6000 566.6400L540.6000 566.6400L540.6000 561.1800Q538.7800 563.7000 535.7000 566.0800Q532.6200 568.4600 528.2100 569.9300Q523.8000 571.4000 517.7800 571.4000ZM522.5400 558.1000L522.5400 558.1000Q527.4400 558.1000 531.4300 556Q535.4200 553.9000 537.7300 549.4900Q540.0400 545.0800 540.0400 538.3600L540.0400 538.3600L540.0400 535.4200L526.0400 537.6600Q517.7800 538.9200 513.7200 541.7200Q509.6600 544.5200 509.6600 548.5800L509.6600 548.5800Q509.6600 551.6600 511.5500 553.8300Q513.4400 556 516.3800 557.0500Q519.3200 558.1000 522.5400 558.1000ZM592.1200 570L579.9400 570Q578.5400 570 577.5600 569.0200Q576.5800 568.0400 576.5800 566.6400L576.5800 566.6400L576.5800 500.7000Q576.5800 499.1600 577.5600 498.1800Q578.5400 497.2000 579.9400 497.2000L579.9400 497.2000L591.2800 497.2000Q592.6800 497.2000 593.7300 498.1800Q594.7800 499.1600 594.7800 500.7000L594.7800 500.7000L594.7800 506.4400Q598 501.9600 603.1100 499.5800Q608.2200 497.2000 614.9400 497.2000L614.9400 497.2000L620.6800 497.2000Q622.2200 497.2000 623.1300 498.1800Q624.0400 499.1600 624.0400 500.5600L624.0400 500.5600L624.0400 510.6400Q624.0400 512.0400 623.1300 513.0200Q622.2200 514 620.6800 514L620.6800 514L609.7600 514Q603.0400 514 599.3300 517.7100Q595.6200 521.4200 595.6200 528.1400L595.6200 528.1400L595.6200 566.6400Q595.6200 568.0400 594.6400 569.0200Q593.6600 570 592.1200 570L592.1200 570ZM698.3800 571.4000L698.3800 571.4000Q682.8400 571.4000 673.7400 562.4400Q664.6400 553.4800 663.9400 536.9600L663.9400 536.9600Q663.8000 535.5600 663.8000 533.3900Q663.8000 531.2200 663.9400 529.9600L663.9400 529.9600Q664.5000 519.3200 668.7700 511.6900Q673.0400 504.0600 680.6000 499.9300Q688.1600 495.8000 698.3800 495.8000L698.3800 495.8000Q709.7200 495.8000 717.4200 500.4900Q725.1200 505.1800 729.0400 513.5100Q732.9600 521.8400 732.9600 532.7600L732.9600 532.7600L732.9600 535.7000Q732.9600 537.1000 731.9800 538.0800Q731 539.0600 729.4600 539.0600L729.4600 539.0600L682.9800 539.0600Q682.9800 539.0600 682.9800 539.4800Q682.9800 539.9000 682.9800 540.1800L682.9800 540.1800Q683.1200 545.0800 684.8700 549.2100Q686.6200 553.3400 690.0500 555.8600Q693.4800 558.3800 698.2400 558.3800L698.2400 558.3800Q702.1600 558.3800 704.8200 557.1900Q707.4800 556 709.1600 554.4600Q710.8400 552.9200 711.5400 551.9400L711.5400 551.9400Q712.8000 550.2600 713.5700 549.9100Q714.3400 549.5600 715.8800 549.5600L715.8800 549.5600L727.9200 549.5600Q729.3200 549.5600 730.2300 550.4000Q731.1400 551.2400 731 552.5000L731 552.5000Q730.8600 554.7400 728.6900 557.9600Q726.5200 561.1800 722.4600 564.2600Q718.4000 567.3400 712.3100 569.3700Q706.2200 571.4000 698.3800 571.4000ZM682.9800 526.8800L682.9800 527.3000L713.9200 527.3000L713.9200 526.8800Q713.9200 521.4200 712.1000 517.2900Q710.2800 513.1600 706.7800 510.8500Q703.2800 508.5400 698.3800 508.5400L698.3800 508.5400Q693.4800 508.5400 689.9800 510.8500Q686.4800 513.1600 684.7300 517.2900Q682.9800 521.4200 682.9800 526.8800L682.9800 526.8800ZM797.2200 570L784.9000 570Q783.5000 570 782.5200 569.0200Q781.5400 568.0400 781.5400 566.6400L781.5400 566.6400L781.5400 475.5000Q781.5400 473.9600 782.5200 472.9800Q783.5000 472 784.9000 472L784.9000 472L845.6600 472Q847.2000 472 848.1800 472.9800Q849.1600 473.9600 849.1600 475.5000L849.1600 475.5000L849.1600 485.3000Q849.1600 486.8400 848.1800 487.7500Q847.2000 488.6600 845.6600 488.6600L845.6600 488.6600L800.7200 488.6600L800.7200 515.2600L842.8600 515.2600Q844.4000 515.2600 845.3800 516.2400Q846.3600 517.2200 846.3600 518.7600L846.3600 518.7600L846.3600 528.5600Q846.3600 529.9600 845.3800 530.9400Q844.4000 531.9200 842.8600 531.9200L842.8600 531.9200L800.7200 531.9200L800.7200 566.6400Q800.7200 568.0400 799.7400 569.0200Q798.7600 570 797.2200 570L797.2200 570ZM878.9800 570L867.3600 570Q865.9600 570 864.9800 569.0200Q864.0000 568.0400 864.0000 566.6400L864.0000 566.6400L864.0000 500.5600Q864.0000 499.1600 864.9800 498.1800Q865.9600 497.2000 867.3600 497.2000L867.3600 497.2000L878.9800 497.2000Q880.5200 497.2000 881.4300 498.1800Q882.3400 499.1600 882.3400 500.5600L882.3400 500.5600L882.3400 566.6400Q882.3400 568.0400 881.4300 569.0200Q880.5200 570 878.9800 570L878.9800 570ZM879.5400 485.1600L866.8000 485.1600Q865.4000 485.1600 864.4200 484.1800Q863.4400 483.2000 863.4400 481.8000L863.4400 481.8000L863.4400 471.7200Q863.4400 470.3200 864.4200 469.3400Q865.4000 468.3600 866.8000 468.3600L866.8000 468.3600L879.5400 468.3600Q881.0800 468.3600 882.0600 469.3400Q883.0400 470.3200 883.0400 471.7200L883.0400 471.7200L883.0400 481.8000Q883.0400 483.2000 882.0600 484.1800Q881.0800 485.1600 879.5400 485.1600L879.5400 485.1600ZM916.0800 570L904.4600 570Q903.0600 570 902.0800 569.0200Q901.1000 568.0400 901.1000 566.6400L901.1000 566.6400L901.1000 473.9600Q901.1000 472.5600 902.0800 471.5800Q903.0600 470.6000 904.4600 470.6000L904.4600 470.6000L916.0800 470.6000Q917.4800 470.6000 918.4600 471.5800Q919.4400 472.5600 919.4400 473.9600L919.4400 473.9600L919.4400 566.6400Q919.4400 568.0400 918.4600 569.0200Q917.4800 570 916.0800 570L916.0800 570ZM982.3000 570L970.9600 570Q962.5600 570 956.8200 567.0600Q951.0800 564.1200 948.2800 558.3100Q945.4800 552.5000 945.4800 543.8200L945.4800 543.8200L945.4800 512.0400L934.4200 512.0400Q933.0200 512.0400 932.0400 511.0600Q931.0600 510.0800 931.0600 508.5400L931.0600 508.5400L931.0600 500.5600Q931.0600 499.1600 932.0400 498.1800Q933.0200 497.2000 934.4200 497.2000L934.4200 497.2000L945.4800 497.2000L945.4800 473.9600Q945.4800 472.5600 946.3900 471.5800Q947.3000 470.6000 948.8400 470.6000L948.8400 470.6000L960.1800 470.6000Q961.5800 470.6000 962.5600 471.5800Q963.5400 472.5600 963.5400 473.9600L963.5400 473.9600L963.5400 497.2000L981.0400 497.2000Q982.4400 497.2000 983.4200 498.1800Q984.4000 499.1600 984.4000 500.5600L984.4000 500.5600L984.4000 508.5400Q984.4000 510.0800 983.4200 511.0600Q982.4400 512.0400 981.0400 512.0400L981.0400 512.0400L963.5400 512.0400L963.5400 542.4200Q963.5400 548.1600 965.5700 551.3800Q967.6000 554.6000 972.6400 554.6000L972.6400 554.6000L982.3000 554.6000Q983.7000 554.6000 984.6800 555.5800Q985.6600 556.5600 985.6600 557.9600L985.6600 557.9600L985.6600 566.6400Q985.6600 568.0400 984.6800 569.0200Q983.7000 570 982.3000 570L982.3000 570ZM1013.6600 570L1001.4800 570Q1000.0800 570 999.1000 569.0200Q998.1200 568.0400 998.1200 566.6400L998.1200 566.6400L998.1200 500.7000Q998.1200 499.1600 999.1000 498.1800Q1000.0800 497.2000 1001.4800 497.2000L1001.4800 497.2000L1012.8200 497.2000Q1014.2200 497.2000 1015.2700 498.1800Q1016.3200 499.1600 1016.3200 500.7000L1016.3200 500.7000L1016.3200 506.4400Q1019.5400 501.9600 1024.6500 499.5800Q1029.7600 497.2000 1036.4800 497.2000L1036.4800 497.2000L1042.2200 497.2000Q1043.7600 497.2000 1044.6700 498.1800Q1045.5800 499.1600 1045.5800 500.5600L1045.5800 500.5600L1045.5800 510.6400Q1045.5800 512.0400 1044.6700 513.0200Q1043.7600 514 1042.2200 514L1042.2200 514L1031.3000 514Q1024.5800 514 1020.8700 517.7100Q1017.1600 521.4200 1017.1600 528.1400L1017.1600 528.1400L1017.1600 566.6400Q1017.1600 568.0400 1016.1800 569.0200Q1015.2000 570 1013.6600 570L1013.6600 570ZM1077.6400 571.4000L1077.6400 571.4000Q1070.3600 571.4000 1064.4800 568.5300Q1058.6000 565.6600 1055.1700 560.8300Q1051.7400 556 1051.7400 549.9800L1051.7400 549.9800Q1051.7400 540.1800 1059.7200 534.3700Q1067.7000 528.5600 1080.5800 526.6000L1080.5800 526.6000L1099.7600 523.8000L1099.7600 520.8600Q1099.7600 514.9800 1096.8200 511.7600Q1093.8800 508.5400 1086.7400 508.5400L1086.7400 508.5400Q1081.7000 508.5400 1078.5500 510.5700Q1075.4000 512.6000 1073.8600 515.9600L1073.8600 515.9600Q1072.7400 517.7800 1070.6400 517.7800L1070.6400 517.7800L1059.5800 517.7800Q1058.0400 517.7800 1057.2700 516.9400Q1056.5000 516.1000 1056.5000 514.7000L1056.5000 514.7000Q1056.6400 512.4600 1058.3900 509.2400Q1060.1400 506.0200 1063.7100 503.0100Q1067.2800 500 1073.0200 497.9000Q1078.7600 495.8000 1086.8800 495.8000L1086.8800 495.8000Q1095.7000 495.8000 1101.7900 497.9700Q1107.8800 500.1400 1111.5200 503.7800Q1115.1600 507.4200 1116.8400 512.3200Q1118.5200 517.2200 1118.5200 522.6800L1118.5200 522.6800L1118.5200 566.6400Q1118.5200 568.0400 1117.5400 569.0200Q1116.5600 570 1115.1600 570L1115.1600 570L1103.8200 570Q1102.2800 570 1101.3700 569.0200Q1100.4600 568.0400 1100.4600 566.6400L1100.4600 566.6400L1100.4600 561.1800Q1098.6400 563.7000 1095.5600 566.0800Q1092.4800 568.4600 1088.0700 569.9300Q1083.6600 571.4000 1077.6400 571.4000ZM1082.4000 558.1000L1082.4000 558.1000Q1087.3000 558.1000 1091.2900 556Q1095.2800 553.9000 1097.5900 549.4900Q1099.9000 545.0800 1099.9000 538.3600L1099.9000 538.3600L1099.9000 535.4200L1085.9000 537.6600Q1077.6400 538.9200 1073.5800 541.7200Q1069.5200 544.5200 1069.5200 548.5800L1069.5200 548.5800Q1069.5200 551.6600 1071.4100 553.8300Q1073.3000 556 1076.2400 557.0500Q1079.1800 558.1000 1082.4000 558.1000ZM1151.9800 570L1139.8000 570Q1138.4000 570 1137.4200 569.0200Q1136.4400 568.0400 1136.4400 566.6400L1136.4400 566.6400L1136.4400 500.7000Q1136.4400 499.1600 1137.4200 498.1800Q1138.4000 497.2000 1139.8000 497.2000L1139.8000 497.2000L1151.1400 497.2000Q1152.5400 497.2000 1153.5900 498.1800Q1154.6400 499.1600 1154.6400 500.7000L1154.6400 500.7000L1154.6400 506.4400Q1157.8600 501.9600 1162.9700 499.5800Q1168.0800 497.2000 1174.8000 497.2000L1174.8000 497.2000L1180.5400 497.2000Q1182.0800 497.2000 1182.9900 498.1800Q1183.9000 499.1600 1183.9000 500.5600L1183.9000 500.5600L1183.9000 510.6400Q1183.9000 512.0400 1182.9900 513.0200Q1182.0800 514 1180.5400 514L1180.5400 514L1169.6200 514Q1162.9000 514 1159.1900 517.7100Q1155.4800 521.4200 1155.4800 528.1400L1155.4800 528.1400L1155.4800 566.6400Q1155.4800 568.0400 1154.5000 569.0200Q1153.5200 570 1151.9800 570L1151.9800 570ZM186.2600 711.4000L186.2600 711.4000Q178.9800 711.4000 173.4500 708.9500Q167.9200 706.5000 164.2800 702.0200Q160.6400 697.5400 158.6800 691.4500Q156.7200 685.3600 156.4400 678.0800L156.4400 678.0800Q156.3000 675.5600 156.3000 673.5300Q156.3000 671.5000 156.4400 668.9800L156.4400 668.9800Q156.7200 661.9800 158.6100 655.9600Q160.5000 649.9400 164.2100 645.3900Q167.9200 640.8400 173.4500 638.3200Q178.9800 635.8000 186.2600 635.8000L186.2600 635.8000Q193.8200 635.8000 199.0700 638.3900Q204.3200 640.9800 207.8200 645.0400L207.8200 645.0400L207.8200 613.9600Q207.8200 612.5600 208.7300 611.5800Q209.6400 610.6000 211.1800 610.6000L211.1800 610.6000L223.0800 610.6000Q224.4800 610.6000 225.4600 611.5800Q226.4400 612.5600 226.4400 613.9600L226.4400 613.9600L226.4400 706.6400Q226.4400 708.0400 225.4600 709.0200Q224.4800 710 223.0800 710L223.0800 710L212.0200 710Q210.4800 710 209.5700 709.0200Q208.6600 708.0400 208.6600 706.6400L208.6600 706.6400L208.6600 701.4600Q205.1600 705.8000 199.7700 708.6000Q194.3800 711.4000 186.2600 711.4000ZM191.4400 696.4200L191.4400 696.4200Q197.3200 696.4200 200.8200 693.7600Q204.3200 691.1000 206 686.9700Q207.6800 682.8400 207.8200 678.5000L207.8200 678.5000Q207.9600 675.9800 207.9600 673.1100Q207.9600 670.2400 207.8200 667.7200L207.8200 667.7200Q207.6800 663.5200 205.8600 659.6700Q204.0400 655.8200 200.5400 653.3000Q197.0400 650.7800 191.4400 650.7800L191.4400 650.7800Q185.5600 650.7800 182.1300 653.3700Q178.7000 655.9600 177.1600 660.1600Q175.6200 664.3600 175.3400 669.4000L175.3400 669.4000Q175.2000 673.6000 175.3400 677.8000L175.3400 677.8000Q175.6200 682.8400 177.1600 687.0400Q178.7000 691.2400 182.1300 693.8300Q185.5600 696.4200 191.4400 696.4200ZM266.2000 711.4000L266.2000 711.4000Q258.9200 711.4000 253.0400 708.5300Q247.1600 705.6600 243.7300 700.8300Q240.3000 696 240.3000 689.9800L240.3000 689.9800Q240.3000 680.1800 248.2800 674.3700Q256.2600 668.5600 269.1400 666.6000L269.1400 666.6000L288.3200 663.8000L288.3200 660.8600Q288.3200 654.9800 285.3800 651.7600Q282.4400 648.5400 275.3000 648.5400L275.3000 648.5400Q270.2600 648.5400 267.1100 650.5700Q263.9600 652.6000 262.4200 655.9600L262.4200 655.9600Q261.3000 657.7800 259.2000 657.7800L259.2000 657.7800L248.1400 657.7800Q246.6000 657.7800 245.8300 656.9400Q245.0600 656.1000 245.0600 654.7000L245.0600 654.7000Q245.2000 652.4600 246.9500 649.2400Q248.7000 646.0200 252.2700 643.0100Q255.8400 640 261.5800 637.9000Q267.3200 635.8000 275.4400 635.8000L275.4400 635.8000Q284.2600 635.8000 290.3500 637.9700Q296.4400 640.1400 300.0800 643.7800Q303.7200 647.4200 305.4000 652.3200Q307.0800 657.2200 307.0800 662.6800L307.0800 662.6800L307.0800 706.6400Q307.0800 708.0400 306.1000 709.0200Q305.1200 710 303.7200 710L303.7200 710L292.3800 710Q290.8400 710 289.9300 709.0200Q289.0200 708.0400 289.0200 706.6400L289.0200 706.6400L289.0200 701.1800Q287.2000 703.7000 284.1200 706.0800Q281.0400 708.4600 276.6300 709.9300Q272.2200 711.4000 266.2000 711.4000ZM270.9600 698.1000L270.9600 698.1000Q275.8600 698.1000 279.8500 696Q283.8400 693.9000 286.1500 689.4900Q288.4600 685.0800 288.4600 678.3600L288.4600 678.3600L288.4600 675.4200L274.4600 677.6600Q266.2000 678.9200 262.1400 681.7200Q258.0800 684.5200 258.0800 688.5800L258.0800 688.5800Q258.0800 691.6600 259.9700 693.8300Q261.8600 696 264.8000 697.0500Q267.7400 698.1000 270.9600 698.1000ZM352.0200 711.4000L352.0200 711.4000Q344.7400 711.4000 339.2100 708.9500Q333.6800 706.5000 330.0400 702.0200Q326.4000 697.5400 324.4400 691.4500Q322.4800 685.3600 322.2000 678.0800L322.2000 678.0800Q322.0600 675.5600 322.0600 673.5300Q322.0600 671.5000 322.2000 668.9800L322.2000 668.9800Q322.4800 661.9800 324.3700 655.9600Q326.2600 649.9400 329.9700 645.3900Q333.6800 640.8400 339.2100 638.3200Q344.7400 635.8000 352.0200 635.8000L352.0200 635.8000Q359.5800 635.8000 364.8300 638.3900Q370.0800 640.9800 373.5800 645.0400L373.5800 645.0400L373.5800 613.9600Q373.5800 612.5600 374.4900 611.5800Q375.4000 610.6000 376.9400 610.6000L376.9400 610.6000L388.8400 610.6000Q390.2400 610.6000 391.2200 611.5800Q392.2000 612.5600 392.2000 613.9600L392.2000 613.9600L392.2000 706.6400Q392.2000 708.0400 391.2200 709.0200Q390.2400 710 388.8400 710L388.8400 710L377.7800 710Q376.2400 710 375.3300 709.0200Q374.4200 708.0400 374.4200 706.6400L374.4200 706.6400L374.4200 701.4600Q370.9200 705.8000 365.5300 708.6000Q360.1400 711.4000 352.0200 711.4000ZM357.2000 696.4200L357.2000 696.4200Q363.0800 696.4200 366.5800 693.7600Q370.0800 691.1000 371.7600 686.9700Q373.4400 682.8400 373.5800 678.5000L373.5800 678.5000Q373.7200 675.9800 373.7200 673.1100Q373.7200 670.2400 373.5800 667.7200L373.5800 667.7200Q373.4400 663.5200 371.6200 659.6700Q369.8000 655.8200 366.3000 653.3000Q362.8000 650.7800 357.2000 650.7800L357.2000 650.7800Q351.3200 650.7800 347.8900 653.3700Q344.4600 655.9600 342.9200 660.1600Q341.3800 664.3600 341.1000 669.4000L341.1000 669.4000Q340.9600 673.6000 341.1000 677.8000L341.1000 677.8000Q341.3800 682.8400 342.9200 687.0400Q344.4600 691.2400 347.8900 693.8300Q351.3200 696.4200 357.2000 696.4200ZM443.0200 711.4000L443.0200 711.4000Q431.8200 711.4000 424.1900 707.4800Q416.5600 703.5600 412.5700 696.4200Q408.5800 689.2800 408.0200 679.7600L408.0200 679.7600Q407.8800 677.2400 407.8800 673.6000Q407.8800 669.9600 408.0200 667.4400L408.0200 667.4400Q408.5800 657.7800 412.7100 650.7100Q416.8400 643.6400 424.4700 639.7200Q432.1000 635.8000 443.0200 635.8000L443.0200 635.8000Q453.9400 635.8000 461.5700 639.7200Q469.2000 643.6400 473.3300 650.7100Q477.4600 657.7800 478.0200 667.4400L478.0200 667.4400Q478.1600 669.9600 478.1600 673.6000Q478.1600 677.2400 478.0200 679.7600L478.0200 679.7600Q477.4600 689.2800 473.4700 696.4200Q469.4800 703.5600 461.8500 707.4800Q454.2200 711.4000 443.0200 711.4000ZM443.0200 697.5400L443.0200 697.5400Q450.4400 697.5400 454.5000 692.8500Q458.5600 688.1600 458.9800 679.0600L458.9800 679.0600Q459.1200 676.9600 459.1200 673.6000Q459.1200 670.2400 458.9800 668.1400L458.9800 668.1400Q458.5600 659.0400 454.5000 654.3500Q450.4400 649.6600 443.0200 649.6600L443.0200 649.6600Q435.6000 649.6600 431.5400 654.3500Q427.4800 659.0400 427.0600 668.1400L427.0600 668.1400Q426.9200 670.2400 426.9200 673.6000Q426.9200 676.9600 427.0600 679.0600L427.0600 679.0600Q427.4800 688.1600 431.5400 692.8500Q435.6000 697.5400 443.0200 697.5400ZM521.2800 711.4000L521.2800 711.4000Q512.8800 711.4000 506.9300 709.4400Q500.9800 707.4800 497.2000 704.5400Q493.4200 701.6000 491.6000 698.6600Q489.7800 695.7200 489.6400 693.7600L489.6400 693.7600Q489.5000 692.2200 490.5500 691.3100Q491.6000 690.4000 492.8600 690.4000L492.8600 690.4000L503.9200 690.4000Q504.4800 690.4000 504.9000 690.5400Q505.3200 690.6800 506.0200 691.3800L506.0200 691.3800Q507.8400 692.9200 509.8700 694.6000Q511.9000 696.2800 514.7000 697.4700Q517.5000 698.6600 521.7000 698.6600L521.7000 698.6600Q527.1600 698.6600 530.8700 696.4900Q534.5800 694.3200 534.5800 690.2600L534.5800 690.2600Q534.5800 687.3200 532.9700 685.5000Q531.3600 683.6800 527.0200 682.2100Q522.6800 680.7400 514.7000 679.0600L514.7000 679.0600Q506.8600 677.2400 501.6800 674.4400Q496.5000 671.6400 493.9800 667.4400Q491.4600 663.2400 491.4600 657.6400L491.4600 657.6400Q491.4600 652.1800 494.7500 647.2100Q498.0400 642.2400 504.5500 639.0200Q511.0600 635.8000 520.7200 635.8000L520.7200 635.8000Q528.2800 635.8000 533.8800 637.6900Q539.4800 639.5800 543.1900 642.3800Q546.9000 645.1800 548.8600 648.0500Q550.8200 650.9200 550.9600 653.0200L550.9600 653.0200Q551.1000 654.5600 550.1200 655.4700Q549.1400 656.3800 547.8800 656.3800L547.8800 656.3800L537.5200 656.3800Q536.8200 656.3800 536.2600 656.1000Q535.7000 655.8200 535.1400 655.4000L535.1400 655.4000Q533.6000 654 531.7800 652.3900Q529.9600 650.7800 527.3700 649.6600Q524.7800 648.5400 520.5800 648.5400L520.5800 648.5400Q515.2600 648.5400 512.4600 650.8500Q509.6600 653.1600 509.6600 656.6600L509.6600 656.6600Q509.6600 659.0400 510.9900 660.7900Q512.3200 662.5400 516.3800 664.0800Q520.4400 665.6200 528.7000 667.3000L528.7000 667.3000Q538.0800 668.9800 543.6100 672.2700Q549.1400 675.5600 551.4500 679.8300Q553.7600 684.1000 553.7600 689.2800L553.7600 689.2800Q553.7600 695.5800 550.0500 700.6200Q546.3400 705.6600 539.1300 708.5300Q531.9200 711.4000 521.2800 711.4000ZM627.2600 711.4000L627.2600 711.4000Q618.7200 711.4000 612.4900 707.5500Q606.2600 703.7000 602.9000 696.6300Q599.5400 689.5600 599.5400 679.9000L599.5400 679.9000L599.5400 640.5600Q599.5400 639.1600 600.5200 638.1800Q601.5000 637.2000 602.9000 637.2000L602.9000 637.2000L615.2200 637.2000Q616.7600 637.2000 617.6700 638.1800Q618.5800 639.1600 618.5800 640.5600L618.5800 640.5600L618.5800 679.0600Q618.5800 696.4200 633.8400 696.4200L633.8400 696.4200Q641.1200 696.4200 645.3900 691.8000Q649.6600 687.1800 649.6600 679.0600L649.6600 679.0600L649.6600 640.5600Q649.6600 639.1600 650.6400 638.1800Q651.6200 637.2000 653.0200 637.2000L653.0200 637.2000L665.3400 637.2000Q666.7400 637.2000 667.7200 638.1800Q668.7000 639.1600 668.7000 640.5600L668.7000 640.5600L668.7000 706.6400Q668.7000 708.0400 667.7200 709.0200Q666.7400 710 665.3400 710L665.3400 710L654 710Q652.4600 710 651.5500 709.0200Q650.6400 708.0400 650.6400 706.6400L650.6400 706.6400L650.6400 700.9000Q646.8600 705.8000 641.2600 708.6000Q635.6600 711.4000 627.2600 711.4000ZM731.4200 710L720.0800 710Q711.6800 710 705.9400 707.0600Q700.2000 704.1200 697.4000 698.3100Q694.6000 692.5000 694.6000 683.8200L694.6000 683.8200L694.6000 652.0400L683.5400 652.0400Q682.1400 652.0400 681.1600 651.0600Q680.1800 650.0800 680.1800 648.5400L680.1800 648.5400L680.1800 640.5600Q680.1800 639.1600 681.1600 638.1800Q682.1400 637.2000 683.5400 637.2000L683.5400 637.2000L694.6000 637.2000L694.6000 613.9600Q694.6000 612.5600 695.5100 611.5800Q696.4200 610.6000 697.9600 610.6000L697.9600 610.6000L709.3000 610.6000Q710.7000 610.6000 711.6800 611.5800Q712.6600 612.5600 712.6600 613.9600L712.6600 613.9600L712.6600 637.2000L730.1600 637.2000Q731.5600 637.2000 732.5400 638.1800Q733.5200 639.1600 733.5200 640.5600L733.5200 640.5600L733.5200 648.5400Q733.5200 650.0800 732.5400 651.0600Q731.5600 652.0400 730.1600 652.0400L730.1600 652.0400L712.6600 652.0400L712.6600 682.4200Q712.6600 688.1600 714.6900 691.3800Q716.7200 694.6000 721.7600 694.6000L721.7600 694.6000L731.4200 694.6000Q732.8200 694.6000 733.8000 695.5800Q734.7800 696.5600 734.7800 697.9600L734.7800 697.9600L734.7800 706.6400Q734.7800 708.0400 733.8000 709.0200Q732.8200 710 731.4200 710L731.4200 710ZM762.2200 710L750.6000 710Q749.2000 710 748.2200 709.0200Q747.2400 708.0400 747.2400 706.6400L747.2400 706.6400L747.2400 640.5600Q747.2400 639.1600 748.2200 638.1800Q749.2000 637.2000 750.6000 637.2000L750.6000 637.2000L762.2200 637.2000Q763.7600 637.2000 764.6700 638.1800Q765.5800 639.1600 765.5800 640.5600L765.5800 640.5600L765.5800 706.6400Q765.5800 708.0400 764.6700 709.0200Q763.7600 710 762.2200 710L762.2200 710ZM762.7800 625.1600L750.0400 625.1600Q748.6400 625.1600 747.6600 624.1800Q746.6800 623.2000 746.6800 621.8000L746.6800 621.8000L746.6800 611.7200Q746.6800 610.3200 747.6600 609.3400Q748.6400 608.3600 750.0400 608.3600L750.0400 608.3600L762.7800 608.3600Q764.3200 608.3600 765.3000 609.3400Q766.2800 610.3200 766.2800 611.7200L766.2800 611.7200L766.2800 621.8000Q766.2800 623.2000 765.3000 624.1800Q764.3200 625.1600 762.7800 625.1600L762.7800 625.1600ZM799.3200 710L787.7000 710Q786.3000 710 785.3200 709.0200Q784.3400 708.0400 784.3400 706.6400L784.3400 706.6400L784.3400 613.9600Q784.3400 612.5600 785.3200 611.5800Q786.3000 610.6000 787.7000 610.6000L787.7000 610.6000L799.3200 610.6000Q800.7200 610.6000 801.7000 611.5800Q802.6800 612.5600 802.6800 613.9600L802.6800 613.9600L802.6800 706.6400Q802.6800 708.0400 801.7000 709.0200Q800.7200 710 799.3200 710L799.3200 710ZM836.2800 710L824.6600 710Q823.2600 710 822.2800 709.0200Q821.3000 708.0400 821.3000 706.6400L821.3000 706.6400L821.3000 640.5600Q821.3000 639.1600 822.2800 638.1800Q823.2600 637.2000 824.6600 637.2000L824.6600 637.2000L836.2800 637.2000Q837.8200 637.2000 838.7300 638.1800Q839.6400 639.1600 839.6400 640.5600L839.6400 640.5600L839.6400 706.6400Q839.6400 708.0400 838.7300 709.0200Q837.8200 710 836.2800 710L836.2800 710ZM836.8400 625.1600L824.1000 625.1600Q822.7000 625.1600 821.7200 624.1800Q820.7400 623.2000 820.7400 621.8000L820.7400 621.8000L820.7400 611.7200Q820.7400 610.3200 821.7200 609.3400Q822.7000 608.3600 824.1000 608.3600L824.1000 608.3600L836.8400 608.3600Q838.3800 608.3600 839.3600 609.3400Q840.3400 610.3200 840.3400 611.7200L840.3400 611.7200L840.3400 621.8000Q840.3400 623.2000 839.3600 624.1800Q838.3800 625.1600 836.8400 625.1600L836.8400 625.1600ZM915.1000 710L857.9800 710Q856.4400 710 855.5300 709.0200Q854.6200 708.0400 854.6200 706.6400L854.6200 706.6400L854.6200 698.6600Q854.6200 697.4000 855.2500 696.2100Q855.8800 695.0200 856.5800 694.1800L856.5800 694.1800L892.4200 651.7600L859.1000 651.7600Q857.7000 651.7600 856.7200 650.8500Q855.7400 649.9400 855.7400 648.4000L855.7400 648.4000L855.7400 640.5600Q855.7400 639.1600 856.7200 638.1800Q857.7000 637.2000 859.1000 637.2000L859.1000 637.2000L912.1600 637.2000Q913.7000 637.2000 914.6100 638.1800Q915.5200 639.1600 915.5200 640.5600L915.5200 640.5600L915.5200 649.1000Q915.5200 650.3600 914.9600 651.3400Q914.4000 652.3200 913.5600 653.3000L913.5600 653.3000L878.5600 695.4400L915.1000 695.4400Q916.5000 695.4400 917.4800 696.3500Q918.4600 697.2600 918.4600 698.8000L918.4600 698.8000L918.4600 706.6400Q918.4600 708.0400 917.4800 709.0200Q916.5000 710 915.1000 710L915.1000 710ZM953.7400 711.4000L953.7400 711.4000Q946.4600 711.4000 940.5800 708.5300Q934.7000 705.6600 931.2700 700.8300Q927.8400 696 927.8400 689.9800L927.8400 689.9800Q927.8400 680.1800 935.8200 674.3700Q943.8000 668.5600 956.6800 666.6000L956.6800 666.6000L975.8600 663.8000L975.8600 660.8600Q975.8600 654.9800 972.9200 651.7600Q969.9800 648.5400 962.8400 648.5400L962.8400 648.5400Q957.8000 648.5400 954.6500 650.5700Q951.5000 652.6000 949.9600 655.9600L949.9600 655.9600Q948.8400 657.7800 946.7400 657.7800L946.7400 657.7800L935.6800 657.7800Q934.1400 657.7800 933.3700 656.9400Q932.6000 656.1000 932.6000 654.7000L932.6000 654.7000Q932.7400 652.4600 934.4900 649.2400Q936.2400 646.0200 939.8100 643.0100Q943.3800 640 949.1200 637.9000Q954.8600 635.8000 962.9800 635.8000L962.9800 635.8000Q971.8000 635.8000 977.8900 637.9700Q983.9800 640.1400 987.6200 643.7800Q991.2600 647.4200 992.9400 652.3200Q994.6200 657.2200 994.6200 662.6800L994.6200 662.6800L994.6200 706.6400Q994.6200 708.0400 993.6400 709.0200Q992.6600 710 991.2600 710L991.2600 710L979.9200 710Q978.3800 710 977.4700 709.0200Q976.5600 708.0400 976.5600 706.6400L976.5600 706.6400L976.5600 701.1800Q974.7400 703.7000 971.6600 706.0800Q968.5800 708.4600 964.1700 709.9300Q959.7600 711.4000 953.7400 711.4000ZM958.5000 698.1000L958.5000 698.1000Q963.4000 698.1000 967.3900 696Q971.3800 693.9000 973.6900 689.4900Q976.0000 685.0800 976.0000 678.3600L976.0000 678.3600L976.0000 675.4200L962.0000 677.6600Q953.7400 678.9200 949.6800 681.7200Q945.6200 684.5200 945.6200 688.5800L945.6200 688.5800Q945.6200 691.6600 947.5100 693.8300Q949.4000 696 952.3400 697.0500Q955.2800 698.1000 958.5000 698.1000ZM1028.2200 710L1015.9000 710Q1014.5000 710 1013.5200 709.0200Q1012.5400 708.0400 1012.5400 706.6400L1012.5400 706.6400L1012.5400 640.5600Q1012.5400 639.1600 1013.5200 638.1800Q1014.5000 637.2000 1015.9000 637.2000L1015.9000 637.2000L1027.3800 637.2000Q1028.7800 637.2000 1029.7600 638.1800Q1030.7400 639.1600 1030.7400 640.5600L1030.7400 640.5600L1030.7400 646.3000Q1034.3800 641.8200 1040.0500 638.8100Q1045.7200 635.8000 1054.1200 635.8000L1054.1200 635.8000Q1062.6600 635.8000 1068.9600 639.6500Q1075.2600 643.5000 1078.6900 650.5000Q1082.1200 657.5000 1082.1200 667.3000L1082.1200 667.3000L1082.1200 706.6400Q1082.1200 708.0400 1081.1400 709.0200Q1080.1600 710 1078.7600 710L1078.7600 710L1066.4400 710Q1065.0400 710 1064.0600 709.0200Q1063.0800 708.0400 1063.0800 706.6400L1063.0800 706.6400L1063.0800 668.1400Q1063.0800 660.0200 1059.0900 655.4000Q1055.1000 650.7800 1047.5400 650.7800L1047.5400 650.7800Q1040.2600 650.7800 1035.9200 655.4000Q1031.5800 660.0200 1031.5800 668.1400L1031.5800 668.1400L1031.5800 706.6400Q1031.5800 708.0400 1030.6000 709.0200Q1029.6200 710 1028.2200 710L1028.2200 710ZM1126.9200 711.4000L1126.9200 711.4000Q1119.6400 711.4000 1114.1100 708.9500Q1108.5800 706.5000 1104.9400 702.0200Q1101.3000 697.5400 1099.3400 691.4500Q1097.3800 685.3600 1097.1000 678.0800L1097.1000 678.0800Q1096.9600 675.5600 1096.9600 673.5300Q1096.9600 671.5000 1097.1000 668.9800L1097.1000 668.9800Q1097.3800 661.9800 1099.2700 655.9600Q1101.1600 649.9400 1104.8700 645.3900Q1108.5800 640.8400 1114.1100 638.3200Q1119.6400 635.8000 1126.9200 635.8000L1126.9200 635.8000Q1134.4800 635.8000 1139.7300 638.3900Q1144.9800 640.9800 1148.4800 645.0400L1148.4800 645.0400L1148.4800 613.9600Q1148.4800 612.5600 1149.3900 611.5800Q1150.3000 610.6000 1151.8400 610.6000L1151.8400 610.6000L1163.7400 610.6000Q1165.1400 610.6000 1166.1200 611.5800Q1167.1000 612.5600 1167.1000 613.9600L1167.1000 613.9600L1167.1000 706.6400Q1167.1000 708.0400 1166.1200 709.0200Q1165.1400 710 1163.7400 710L1163.7400 710L1152.6800 710Q1151.1400 710 1150.2300 709.0200Q1149.3200 708.0400 1149.3200 706.6400L1149.3200 706.6400L1149.3200 701.4600Q1145.8200 705.8000 1140.4300 708.6000Q1135.0400 711.4000 1126.9200 711.4000ZM1132.1000 696.4200L1132.1000 696.4200Q1137.9800 696.4200 1141.4800 693.7600Q1144.9800 691.1000 1146.6600 686.9700Q1148.3400 682.8400 1148.4800 678.5000L1148.4800 678.5000Q1148.6200 675.9800 1148.6200 673.1100Q1148.6200 670.2400 1148.4800 667.7200L1148.4800 667.7200Q1148.3400 663.5200 1146.5200 659.6700Q1144.7000 655.8200 1141.2000 653.3000Q1137.7000 650.7800 1132.1000 650.7800L1132.1000 650.7800Q1126.2200 650.7800 1122.7900 653.3700Q1119.3600 655.9600 1117.8200 660.1600Q1116.2800 664.3600 1116.0000 669.4000L1116.0000 669.4000Q1115.8600 673.6000 1116.0000 677.8000L1116.0000 677.8000Q1116.2800 682.8400 1117.8200 687.0400Q1119.3600 691.2400 1122.7900 693.8300Q1126.2200 696.4200 1132.1000 696.4200ZM1217.9200 711.4000L1217.9200 711.4000Q1206.7200 711.4000 1199.0900 707.4800Q1191.4600 703.5600 1187.4700 696.4200Q1183.4800 689.2800 1182.9200 679.7600L1182.9200 679.7600Q1182.7800 677.2400 1182.7800 673.6000Q1182.7800 669.9600 1182.9200 667.4400L1182.9200 667.4400Q1183.4800 657.7800 1187.6100 650.7100Q1191.7400 643.6400 1199.3700 639.7200Q1207.0000 635.8000 1217.9200 635.8000L1217.9200 635.8000Q1228.8400 635.8000 1236.4700 639.7200Q1244.1000 643.6400 1248.2300 650.7100Q1252.3600 657.7800 1252.9200 667.4400L1252.9200 667.4400Q1253.0600 669.9600 1253.0600 673.6000Q1253.0600 677.2400 1252.9200 679.7600L1252.9200 679.7600Q1252.3600 689.2800 1248.3700 696.4200Q1244.3800 703.5600 1236.7500 707.4800Q1229.1200 711.4000 1217.9200 711.4000ZM1217.9200 697.5400L1217.9200 697.5400Q1225.3400 697.5400 1229.4000 692.8500Q1233.4600 688.1600 1233.8800 679.0600L1233.8800 679.0600Q1234.0200 676.9600 1234.0200 673.6000Q1234.0200 670.2400 1233.8800 668.1400L1233.8800 668.1400Q1233.4600 659.0400 1229.4000 654.3500Q1225.3400 649.6600 1217.9200 649.6600L1217.9200 649.6600Q1210.5000 649.6600 1206.4400 654.3500Q1202.3800 659.0400 1201.9600 668.1400L1201.9600 668.1400Q1201.8200 670.2400 1201.8200 673.6000Q1201.8200 676.9600 1201.9600 679.0600L1201.9600 679.0600Q1202.3800 688.1600 1206.4400 692.8500Q1210.5000 697.5400 1217.9200 697.5400ZM1321.8000 711.4000L1321.8000 711.4000Q1314.5200 711.4000 1308.6400 708.5300Q1302.7600 705.6600 1299.3300 700.8300Q1295.9000 696 1295.9000 689.9800L1295.9000 689.9800Q1295.9000 680.1800 1303.8800 674.3700Q1311.8600 668.5600 1324.7400 666.6000L1324.7400 666.6000L1343.9200 663.8000L1343.9200 660.8600Q1343.9200 654.9800 1340.9800 651.7600Q1338.0400 648.5400 1330.9000 648.5400L1330.9000 648.5400Q1325.8600 648.5400 1322.7100 650.5700Q1319.5600 652.6000 1318.0200 655.9600L1318.0200 655.9600Q1316.9000 657.7800 1314.8000 657.7800L1314.8000 657.7800L1303.7400 657.7800Q1302.2000 657.7800 1301.4300 656.9400Q1300.6600 656.1000 1300.6600 654.7000L1300.6600 654.7000Q1300.8000 652.4600 1302.5500 649.2400Q1304.3000 646.0200 1307.8700 643.0100Q1311.4400 640 1317.1800 637.9000Q1322.9200 635.8000 1331.0400 635.8000L1331.0400 635.8000Q1339.8600 635.8000 1345.9500 637.9700Q1352.0400 640.1400 1355.6800 643.7800Q1359.3200 647.4200 1361.0000 652.3200Q1362.6800 657.2200 1362.6800 662.6800L1362.6800 662.6800L1362.6800 706.6400Q1362.6800 708.0400 1361.7000 709.0200Q1360.7200 710 1359.3200 710L1359.3200 710L1347.9800 710Q1346.4400 710 1345.5300 709.0200Q1344.6200 708.0400 1344.6200 706.6400L1344.6200 706.6400L1344.6200 701.1800Q1342.8000 703.7000 1339.7200 706.0800Q1336.6400 708.4600 1332.2300 709.9300Q1327.8200 711.4000 1321.8000 711.4000ZM1326.5600 698.1000L1326.5600 698.1000Q1331.4600 698.1000 1335.4500 696Q1339.4400 693.9000 1341.7500 689.4900Q1344.0600 685.0800 1344.0600 678.3600L1344.0600 678.3600L1344.0600 675.4200L1330.0600 677.6600Q1321.8000 678.9200 1317.7400 681.7200Q1313.6800 684.5200 1313.6800 688.5800L1313.6800 688.5800Q1313.6800 691.6600 1315.5700 693.8300Q1317.4600 696 1320.4000 697.0500Q1323.3400 698.1000 1326.5600 698.1000ZM174.3600 850L162.7400 850Q161.3400 850 160.3600 849.0200Q159.3800 848.0400 159.3800 846.6400L159.3800 846.6400L159.3800 753.9600Q159.3800 752.5600 160.3600 751.5800Q161.3400 750.6000 162.7400 750.6000L162.7400 750.6000L174.3600 750.6000Q175.7600 750.6000 176.7400 751.5800Q177.7200 752.5600 177.7200 753.9600L177.7200 753.9600L177.7200 846.6400Q177.7200 848.0400 176.7400 849.0200Q175.7600 850 174.3600 850L174.3600 850ZM211.3200 850L199.7000 850Q198.3000 850 197.3200 849.0200Q196.3400 848.0400 196.3400 846.6400L196.3400 846.6400L196.3400 780.5600Q196.3400 779.1600 197.3200 778.1800Q198.3000 777.2000 199.7000 777.2000L199.7000 777.2000L211.3200 777.2000Q212.8600 777.2000 213.7700 778.1800Q214.6800 779.1600 214.6800 780.5600L214.6800 780.5600L214.6800 846.6400Q214.6800 848.0400 213.7700 849.0200Q212.8600 850 211.3200 850L211.3200 850ZM211.8800 765.1600L199.1400 765.1600Q197.7400 765.1600 196.7600 764.1800Q195.7800 763.2000 195.7800 761.8000L195.7800 761.8000L195.7800 751.7200Q195.7800 750.3200 196.7600 749.3400Q197.7400 748.3600 199.1400 748.3600L199.1400 748.3600L211.8800 748.3600Q213.4200 748.3600 214.4000 749.3400Q215.3800 750.3200 215.3800 751.7200L215.3800 751.7200L215.3800 761.8000Q215.3800 763.2000 214.4000 764.1800Q213.4200 765.1600 211.8800 765.1600L211.8800 765.1600ZM248.9800 850L236.6600 850Q235.2600 850 234.2800 849.0200Q233.3000 848.0400 233.3000 846.6400L233.3000 846.6400L233.3000 780.5600Q233.3000 779.1600 234.2800 778.1800Q235.2600 777.2000 236.6600 777.2000L236.6600 777.2000L248.1400 777.2000Q249.5400 777.2000 250.5200 778.1800Q251.5000 779.1600 251.5000 780.5600L251.5000 780.5600L251.5000 786.3000Q255.1400 781.8200 260.8100 778.8100Q266.4800 775.8000 274.8800 775.8000L274.8800 775.8000Q283.4200 775.8000 289.7200 779.6500Q296.0200 783.5000 299.4500 790.5000Q302.8800 797.5000 302.8800 807.3000L302.8800 807.3000L302.8800 846.6400Q302.8800 848.0400 301.9000 849.0200Q300.9200 850 299.5200 850L299.5200 850L287.2000 850Q285.8000 850 284.8200 849.0200Q283.8400 848.0400 283.8400 846.6400L283.8400 846.6400L283.8400 808.1400Q283.8400 800.0200 279.8500 795.4000Q275.8600 790.7800 268.3000 790.7800L268.3000 790.7800Q261.0200 790.7800 256.6800 795.4000Q252.3400 800.0200 252.3400 808.1400L252.3400 808.1400L252.3400 846.6400Q252.3400 848.0400 251.3600 849.0200Q250.3800 850 248.9800 850L248.9800 850ZM336.6200 850L324.1600 850Q322.7600 850 321.7800 849.0200Q320.8000 848.0400 320.8000 846.6400L320.8000 846.6400L320.8000 753.9600Q320.8000 752.5600 321.7800 751.5800Q322.7600 750.6000 324.1600 750.6000L324.1600 750.6000L336.6200 750.6000Q338.1600 750.6000 339.0700 751.5800Q339.9800 752.5600 339.9800 753.9600L339.9800 753.9600L339.9800 785.8800Q343.7600 781.4000 349.2200 778.6000Q354.6800 775.8000 362.6600 775.8000L362.6600 775.8000Q371.2000 775.8000 377.5700 779.6500Q383.9400 783.5000 387.4400 790.5000Q390.9400 797.5000 390.9400 807.3000L390.9400 807.3000L390.9400 846.6400Q390.9400 848.0400 389.9600 849.0200Q388.9800 850 387.5800 850L387.5800 850L374.9800 850Q373.5800 850 372.6000 849.0200Q371.6200 848.0400 371.6200 846.6400L371.6200 846.6400L371.6200 808.1400Q371.6200 800.0200 367.6300 795.4000Q363.6400 790.7800 356.0800 790.7800L356.0800 790.7800Q348.8000 790.7800 344.3900 795.4000Q339.9800 800.0200 339.9800 808.1400L339.9800 808.1400L339.9800 846.6400Q339.9800 848.0400 339.0700 849.0200Q338.1600 850 336.6200 850L336.6200 850ZM429.8600 851.4000L429.8600 851.4000Q422.5800 851.4000 416.7000 848.5300Q410.8200 845.6600 407.3900 840.8300Q403.9600 836 403.9600 829.9800L403.9600 829.9800Q403.9600 820.1800 411.9400 814.3700Q419.9200 808.5600 432.8000 806.6000L432.8000 806.6000L451.9800 803.8000L451.9800 800.8600Q451.9800 794.9800 449.0400 791.7600Q446.1000 788.5400 438.9600 788.5400L438.9600 788.5400Q433.9200 788.5400 430.7700 790.5700Q427.6200 792.6000 426.0800 795.9600L426.0800 795.9600Q424.9600 797.7800 422.8600 797.7800L422.8600 797.7800L411.8000 797.7800Q410.2600 797.7800 409.4900 796.9400Q408.7200 796.1000 408.7200 794.7000L408.7200 794.7000Q408.8600 792.4600 410.6100 789.2400Q412.3600 786.0200 415.9300 783.0100Q419.5000 780 425.2400 777.9000Q430.9800 775.8000 439.1000 775.8000L439.1000 775.8000Q447.9200 775.8000 454.0100 777.9700Q460.1000 780.1400 463.7400 783.7800Q467.3800 787.4200 469.0600 792.3200Q470.7400 797.2200 470.7400 802.6800L470.7400 802.6800L470.7400 846.6400Q470.7400 848.0400 469.7600 849.0200Q468.7800 850 467.3800 850L467.3800 850L456.0400 850Q454.5000 850 453.5900 849.0200Q452.6800 848.0400 452.6800 846.6400L452.6800 846.6400L452.6800 841.1800Q450.8600 843.7000 447.7800 846.0800Q444.7000 848.4600 440.2900 849.9300Q435.8800 851.4000 429.8600 851.4000ZM434.6200 838.1000L434.6200 838.1000Q439.5200 838.1000 443.5100 836Q447.5000 833.9000 449.8100 829.4900Q452.1200 825.0800 452.1200 818.3600L452.1200 818.3600L452.1200 815.4200L438.1200 817.6600Q429.8600 818.9200 425.8000 821.7200Q421.7400 824.5200 421.7400 828.5800L421.7400 828.5800Q421.7400 831.6600 423.6300 833.8300Q425.5200 836 428.4600 837.0500Q431.4000 838.1000 434.6200 838.1000ZM547.7400 851.4000L547.7400 851.4000Q540.4600 851.4000 534.9300 848.9500Q529.4000 846.5000 525.7600 842.0200Q522.1200 837.5400 520.1600 831.4500Q518.2000 825.3600 517.9200 818.0800L517.9200 818.0800Q517.7800 815.5600 517.7800 813.5300Q517.7800 811.5000 517.9200 808.9800L517.9200 808.9800Q518.2000 801.9800 520.0900 795.9600Q521.9800 789.9400 525.6900 785.3900Q529.4000 780.8400 534.9300 778.3200Q540.4600 775.8000 547.7400 775.8000L547.7400 775.8000Q555.3000 775.8000 560.5500 778.3900Q565.8000 780.9800 569.3000 785.0400L569.3000 785.0400L569.3000 753.9600Q569.3000 752.5600 570.2100 751.5800Q571.1200 750.6000 572.6600 750.6000L572.6600 750.6000L584.5600 750.6000Q585.9600 750.6000 586.9400 751.5800Q587.9200 752.5600 587.9200 753.9600L587.9200 753.9600L587.9200 846.6400Q587.9200 848.0400 586.9400 849.0200Q585.9600 850 584.5600 850L584.5600 850L573.5000 850Q571.9600 850 571.0500 849.0200Q570.1400 848.0400 570.1400 846.6400L570.1400 846.6400L570.1400 841.4600Q566.6400 845.8000 561.2500 848.6000Q555.8600 851.4000 547.7400 851.4000ZM552.9200 836.4200L552.9200 836.4200Q558.8000 836.4200 562.3000 833.7600Q565.8000 831.1000 567.4800 826.9700Q569.1600 822.8400 569.3000 818.5000L569.3000 818.5000Q569.4400 815.9800 569.4400 813.1100Q569.4400 810.2400 569.3000 807.7200L569.3000 807.7200Q569.1600 803.5200 567.3400 799.6700Q565.5200 795.8200 562.0200 793.3000Q558.5200 790.7800 552.9200 790.7800L552.9200 790.7800Q547.0400 790.7800 543.6100 793.3700Q540.1800 795.9600 538.6400 800.1600Q537.1000 804.3600 536.8200 809.4000L536.8200 809.4000Q536.6800 813.6000 536.8200 817.8000L536.8200 817.8000Q537.1000 822.8400 538.6400 827.0400Q540.1800 831.2400 543.6100 833.8300Q547.0400 836.4200 552.9200 836.4200ZM637.9000 851.4000L637.9000 851.4000Q622.3600 851.4000 613.2600 842.4400Q604.1600 833.4800 603.4600 816.9600L603.4600 816.9600Q603.3200 815.5600 603.3200 813.3900Q603.3200 811.2200 603.4600 809.9600L603.4600 809.9600Q604.0200 799.3200 608.2900 791.6900Q612.5600 784.0600 620.1200 779.9300Q627.6800 775.8000 637.9000 775.8000L637.9000 775.8000Q649.2400 775.8000 656.9400 780.4900Q664.6400 785.1800 668.5600 793.5100Q672.4800 801.8400 672.4800 812.7600L672.4800 812.7600L672.4800 815.7000Q672.4800 817.1000 671.5000 818.0800Q670.5200 819.0600 668.9800 819.0600L668.9800 819.0600L622.5000 819.0600Q622.5000 819.0600 622.5000 819.4800Q622.5000 819.9000 622.5000 820.1800L622.5000 820.1800Q622.6400 825.0800 624.3900 829.2100Q626.1400 833.3400 629.5700 835.8600Q633.0000 838.3800 637.7600 838.3800L637.7600 838.3800Q641.6800 838.3800 644.3400 837.1900Q647.0000 836 648.6800 834.4600Q650.3600 832.9200 651.0600 831.9400L651.0600 831.9400Q652.3200 830.2600 653.0900 829.9100Q653.8600 829.5600 655.4000 829.5600L655.4000 829.5600L667.4400 829.5600Q668.8400 829.5600 669.7500 830.4000Q670.6600 831.2400 670.5200 832.5000L670.5200 832.5000Q670.3800 834.7400 668.2100 837.9600Q666.0400 841.1800 661.9800 844.2600Q657.9200 847.3400 651.8300 849.3700Q645.7400 851.4000 637.9000 851.4000ZM622.5000 806.8800L622.5000 807.3000L653.4400 807.3000L653.4400 806.8800Q653.4400 801.4200 651.6200 797.2900Q649.8000 793.1600 646.3000 790.8500Q642.8000 788.5400 637.9000 788.5400L637.9000 788.5400Q633.0000 788.5400 629.5000 790.8500Q626.0000 793.1600 624.2500 797.2900Q622.5000 801.4200 622.5000 806.8800L622.5000 806.8800ZM750.8800 851.4000L750.8800 851.4000Q740.8000 851.4000 733.1700 847.6200Q725.5400 843.8400 721.2700 836.6300Q717.0000 829.4200 716.5800 819.2000L716.5800 819.2000Q716.4400 817.1000 716.4400 813.6700Q716.4400 810.2400 716.5800 808L716.5800 808Q717.0000 797.7800 721.2700 790.5700Q725.5400 783.3600 733.1700 779.5800Q740.8000 775.8000 750.8800 775.8000L750.8800 775.8000Q759.8400 775.8000 766.1400 778.2500Q772.4400 780.7000 776.5000 784.5500Q780.5600 788.4000 782.5900 792.5300Q784.6200 796.6600 784.7600 800.0200L784.7600 800.0200Q784.9000 801.5600 783.8500 802.4700Q782.8000 803.3800 781.4000 803.3800L781.4000 803.3800L769.0800 803.3800Q767.6800 803.3800 766.9100 802.6800Q766.1400 801.9800 765.4400 800.5800L765.4400 800.5800Q763.3400 794.9800 759.9100 792.6700Q756.4800 790.3600 751.1600 790.3600L751.1600 790.3600Q744.1600 790.3600 740.0300 794.7700Q735.9000 799.1800 735.6200 808.7000L735.6200 808.7000Q735.3400 814.0200 735.6200 818.5000L735.6200 818.5000Q735.9000 828.1600 740.0300 832.5000Q744.1600 836.8400 751.1600 836.8400L751.1600 836.8400Q756.6200 836.8400 759.9800 834.5300Q763.3400 832.2200 765.4400 826.6200L765.4400 826.6200Q766.1400 825.2200 766.9100 824.5200Q767.6800 823.8200 769.0800 823.8200L769.0800 823.8200L781.4000 823.8200Q782.8000 823.8200 783.8500 824.7300Q784.9000 825.6400 784.7600 827.1800L784.7600 827.1800Q784.6200 829.7000 783.4300 832.8500Q782.2400 836 779.6500 839.2900Q777.0600 842.5800 773.1400 845.3100Q769.2200 848.0400 763.6900 849.7200Q758.1600 851.4000 750.8800 851.4000ZM831.5200 851.4000L831.5200 851.4000Q820.3200 851.4000 812.6900 847.4800Q805.0600 843.5600 801.0700 836.4200Q797.0800 829.2800 796.5200 819.7600L796.5200 819.7600Q796.3800 817.2400 796.3800 813.6000Q796.3800 809.9600 796.5200 807.4400L796.5200 807.4400Q797.0800 797.7800 801.2100 790.7100Q805.3400 783.6400 812.9700 779.7200Q820.6000 775.8000 831.5200 775.8000L831.5200 775.8000Q842.4400 775.8000 850.0700 779.7200Q857.7000 783.6400 861.8300 790.7100Q865.9600 797.7800 866.5200 807.4400L866.5200 807.4400Q866.6600 809.9600 866.6600 813.6000Q866.6600 817.2400 866.5200 819.7600L866.5200 819.7600Q865.9600 829.2800 861.9700 836.4200Q857.9800 843.5600 850.3500 847.4800Q842.7200 851.4000 831.5200 851.4000ZM831.5200 837.5400L831.5200 837.5400Q838.9400 837.5400 843.0000 832.8500Q847.0600 828.1600 847.4800 819.0600L847.4800 819.0600Q847.6200 816.9600 847.6200 813.6000Q847.6200 810.2400 847.4800 808.1400L847.4800 808.1400Q847.0600 799.0400 843.0000 794.3500Q838.9400 789.6600 831.5200 789.6600L831.5200 789.6600Q824.1000 789.6600 820.0400 794.3500Q815.9800 799.0400 815.5600 808.1400L815.5600 808.1400Q815.4200 810.2400 815.4200 813.6000Q815.4200 816.9600 815.5600 819.0600L815.5600 819.0600Q815.9800 828.1600 820.0400 832.8500Q824.1000 837.5400 831.5200 837.5400ZM897.3200 850L885.5600 850Q884.1600 850 883.1800 849.0200Q882.2000 848.0400 882.2000 846.6400L882.2000 846.6400L882.2000 780.5600Q882.2000 779.1600 883.1800 778.1800Q884.1600 777.2000 885.5600 777.2000L885.5600 777.2000L896.4800 777.2000Q897.8800 777.2000 898.8600 778.1800Q899.8400 779.1600 899.8400 780.5600L899.8400 780.5600L899.8400 785.3200Q902.7800 781.4000 907.7500 778.6700Q912.7200 775.9400 919.5800 775.8000L919.5800 775.8000Q935.5400 775.5200 941.8400 788.2600L941.8400 788.2600Q945.0600 782.6600 951.1500 779.2300Q957.2400 775.8000 964.6600 775.8000L964.6600 775.8000Q971.9400 775.8000 977.8900 779.1600Q983.8400 782.5200 987.2700 789.3100Q990.7000 796.1000 990.7000 806.4600L990.7000 806.4600L990.7000 846.6400Q990.7000 848.0400 989.7200 849.0200Q988.7400 850 987.3400 850L987.3400 850L975.8600 850Q974.4600 850 973.4800 849.0200Q972.5000 848.0400 972.5000 846.6400L972.5000 846.6400L972.5000 807.5800Q972.5000 801.2800 970.6800 797.5700Q968.8600 793.8600 965.7800 792.3200Q962.7000 790.7800 958.9200 790.7800L958.9200 790.7800Q955.8400 790.7800 952.7600 792.3200Q949.6800 793.8600 947.7200 797.5700Q945.7600 801.2800 945.7600 807.5800L945.7600 807.5800L945.7600 846.6400Q945.7600 848.0400 944.7800 849.0200Q943.8000 850 942.4000 850L942.4000 850L930.9200 850Q929.5200 850 928.5400 849.0200Q927.5600 848.0400 927.5600 846.6400L927.5600 846.6400L927.5600 807.5800Q927.5600 801.2800 925.6000 797.5700Q923.6400 793.8600 920.5600 792.3200Q917.4800 790.7800 913.9800 790.7800L913.9800 790.7800Q910.7600 790.7800 907.6800 792.3900Q904.6000 794 902.6400 797.6400Q900.6800 801.2800 900.6800 807.5800L900.6800 807.5800L900.6800 846.6400Q900.6800 848.0400 899.7000 849.0200Q898.7200 850 897.3200 850L897.3200 850ZM1029.6200 851.4000L1029.6200 851.4000Q1022.3400 851.4000 1016.4600 848.5300Q1010.5800 845.6600 1007.1500 840.8300Q1003.7200 836 1003.7200 829.9800L1003.7200 829.9800Q1003.7200 820.1800 1011.7000 814.3700Q1019.6800 808.5600 1032.5600 806.6000L1032.5600 806.6000L1051.7400 803.8000L1051.7400 800.8600Q1051.7400 794.9800 1048.8000 791.7600Q1045.8600 788.5400 1038.7200 788.5400L1038.7200 788.5400Q1033.6800 788.5400 1030.5300 790.5700Q1027.3800 792.6000 1025.8400 795.9600L1025.8400 795.9600Q1024.7200 797.7800 1022.6200 797.7800L1022.6200 797.7800L1011.5600 797.7800Q1010.0200 797.7800 1009.2500 796.9400Q1008.4800 796.1000 1008.4800 794.7000L1008.4800 794.7000Q1008.6200 792.4600 1010.3700 789.2400Q1012.1200 786.0200 1015.6900 783.0100Q1019.2600 780 1025.0000 777.9000Q1030.7400 775.8000 1038.8600 775.8000L1038.8600 775.8000Q1047.6800 775.8000 1053.7700 777.9700Q1059.8600 780.1400 1063.5000 783.7800Q1067.1400 787.4200 1068.8200 792.3200Q1070.5000 797.2200 1070.5000 802.6800L1070.5000 802.6800L1070.5000 846.6400Q1070.5000 848.0400 1069.5200 849.0200Q1068.5400 850 1067.1400 850L1067.1400 850L1055.8000 850Q1054.2600 850 1053.3500 849.0200Q1052.4400 848.0400 1052.4400 846.6400L1052.4400 846.6400L1052.4400 841.1800Q1050.6200 843.7000 1047.5400 846.0800Q1044.4600 848.4600 1040.0500 849.9300Q1035.6400 851.4000 1029.6200 851.4000ZM1034.3800 838.1000L1034.3800 838.1000Q1039.2800 838.1000 1043.2700 836Q1047.2600 833.9000 1049.5700 829.4900Q1051.8800 825.0800 1051.8800 818.3600L1051.8800 818.3600L1051.8800 815.4200L1037.8800 817.6600Q1029.6200 818.9200 1025.5600 821.7200Q1021.5000 824.5200 1021.5000 828.5800L1021.5000 828.5800Q1021.5000 831.6600 1023.3900 833.8300Q1025.2800 836 1028.2200 837.0500Q1031.1600 838.1000 1034.3800 838.1000ZM1104.1000 850L1091.7800 850Q1090.3800 850 1089.4000 849.0200Q1088.4200 848.0400 1088.4200 846.6400L1088.4200 846.6400L1088.4200 780.5600Q1088.4200 779.1600 1089.4000 778.1800Q1090.3800 777.2000 1091.7800 777.2000L1091.7800 777.2000L1103.2600 777.2000Q1104.6600 777.2000 1105.6400 778.1800Q1106.6200 779.1600 1106.6200 780.5600L1106.6200 780.5600L1106.6200 786.3000Q1110.2600 781.8200 1115.9300 778.8100Q1121.6000 775.8000 1130 775.8000L1130 775.8000Q1138.5400 775.8000 1144.8400 779.6500Q1151.1400 783.5000 1154.5700 790.5000Q1158 797.5000 1158 807.3000L1158 807.3000L1158 846.6400Q1158 848.0400 1157.0200 849.0200Q1156.0400 850 1154.6400 850L1154.6400 850L1142.3200 850Q1140.9200 850 1139.9400 849.0200Q1138.9600 848.0400 1138.9600 846.6400L1138.9600 846.6400L1138.9600 808.1400Q1138.9600 800.0200 1134.9700 795.4000Q1130.9800 790.7800 1123.4200 790.7800L1123.4200 790.7800Q1116.1400 790.7800 1111.8000 795.4000Q1107.4600 800.0200 1107.4600 808.1400L1107.4600 808.1400L1107.4600 846.6400Q1107.4600 848.0400 1106.4800 849.0200Q1105.5000 850 1104.1000 850L1104.1000 850ZM1202.8000 851.4000L1202.8000 851.4000Q1195.5200 851.4000 1189.9900 848.9500Q1184.4600 846.5000 1180.8200 842.0200Q1177.1800 837.5400 1175.2200 831.4500Q1173.2600 825.3600 1172.9800 818.0800L1172.9800 818.0800Q1172.8400 815.5600 1172.8400 813.5300Q1172.8400 811.5000 1172.9800 808.9800L1172.9800 808.9800Q1173.2600 801.9800 1175.1500 795.9600Q1177.0400 789.9400 1180.7500 785.3900Q1184.4600 780.8400 1189.9900 778.3200Q1195.5200 775.8000 1202.8000 775.8000L1202.8000 775.8000Q1210.3600 775.8000 1215.6100 778.3900Q1220.8600 780.9800 1224.3600 785.0400L1224.3600 785.0400L1224.3600 753.9600Q1224.3600 752.5600 1225.2700 751.5800Q1226.1800 750.6000 1227.7200 750.6000L1227.7200 750.6000L1239.6200 750.6000Q1241.0200 750.6000 1242 751.5800Q1242.9800 752.5600 1242.9800 753.9600L1242.9800 753.9600L1242.9800 846.6400Q1242.9800 848.0400 1242 849.0200Q1241.0200 850 1239.6200 850L1239.6200 850L1228.5600 850Q1227.0200 850 1226.1100 849.0200Q1225.2000 848.0400 1225.2000 846.6400L1225.2000 846.6400L1225.2000 841.4600Q1221.7000 845.8000 1216.3100 848.6000Q1210.9200 851.4000 1202.8000 851.4000ZM1207.9800 836.4200L1207.9800 836.4200Q1213.8600 836.4200 1217.3600 833.7600Q1220.8600 831.1000 1222.5400 826.9700Q1224.2200 822.8400 1224.3600 818.5000L1224.3600 818.5000Q1224.5000 815.9800 1224.5000 813.1100Q1224.5000 810.2400 1224.3600 807.7200L1224.3600 807.7200Q1224.2200 803.5200 1222.4000 799.6700Q1220.5800 795.8200 1217.0800 793.3000Q1213.5800 790.7800 1207.9800 790.7800L1207.9800 790.7800Q1202.1000 790.7800 1198.6700 793.3700Q1195.2400 795.9600 1193.7000 800.1600Q1192.1600 804.3600 1191.8800 809.4000L1191.8800 809.4000Q1191.7400 813.6000 1191.8800 817.8000L1191.8800 817.8000Q1192.1600 822.8400 1193.7000 827.0400Q1195.2400 831.2400 1198.6700 833.8300Q1202.1000 836.4200 1207.9800 836.4200ZM1293.8000 851.4000L1293.8000 851.4000Q1282.6000 851.4000 1274.9700 847.4800Q1267.3400 843.5600 1263.3500 836.4200Q1259.3600 829.2800 1258.8000 819.7600L1258.8000 819.7600Q1258.6600 817.2400 1258.6600 813.6000Q1258.6600 809.9600 1258.8000 807.4400L1258.8000 807.4400Q1259.3600 797.7800 1263.4900 790.7100Q1267.6200 783.6400 1275.2500 779.7200Q1282.8800 775.8000 1293.8000 775.8000L1293.8000 775.8000Q1304.7200 775.8000 1312.3500 779.7200Q1319.9800 783.6400 1324.1100 790.7100Q1328.2400 797.7800 1328.8000 807.4400L1328.8000 807.4400Q1328.9400 809.9600 1328.9400 813.6000Q1328.9400 817.2400 1328.8000 819.7600L1328.8000 819.7600Q1328.2400 829.2800 1324.2500 836.4200Q1320.2600 843.5600 1312.6300 847.4800Q1305 851.4000 1293.8000 851.4000ZM1293.8000 837.5400L1293.8000 837.5400Q1301.2200 837.5400 1305.2800 832.8500Q1309.3400 828.1600 1309.7600 819.0600L1309.7600 819.0600Q1309.9000 816.9600 1309.9000 813.6000Q1309.9000 810.2400 1309.7600 808.1400L1309.7600 808.1400Q1309.3400 799.0400 1305.2800 794.3500Q1301.2200 789.6600 1293.8000 789.6600L1293.8000 789.6600Q1286.3800 789.6600 1282.3200 794.3500Q1278.2600 799.0400 1277.8400 808.1400L1277.8400 808.1400Q1277.7000 810.2400 1277.7000 813.6000Q1277.7000 816.9600 1277.8400 819.0600L1277.8400 819.0600Q1278.2600 828.1600 1282.3200 832.8500Q1286.3800 837.5400 1293.8000 837.5400Z" id="title"/></g></svg>