<svg xmlns="http://www.w3.org/2000/svg" version="1.1" xmlns:xlink="http://www.w3.org/1999/xlink" xmlns:svgjs="http://svgjs.dev/svgjs" viewBox="0 0 1920 1080" id="4afb3637-ce98-4366-a2c4-08aaa4592241"><g><rect width="1920" height="1080" fill="#4e0250"/></g><g fill="#645986"><path d="M2118.71 322.496C1962.88 381.696 1840.11 286.062 1731.68 201.315C1619.52 113.904 1545.13 63.1995 1455.92 97.0926C1366.11 131.212 1344.15 218.52 1318.91 358.127C1294.11 493.487 1265.8 646.514 1109.97 705.714C954.144 764.914 831.375 669.28 722.951 584.533C610.793 497.122 536.401 446.418 447.185 480.311C357.375 514.43 335.414 601.738 310.18 741.346C285.375 876.706 257.072 1029.73 101.242 1088.93C-54.5876 1148.13 -177.357 1052.5 -285.78 967.751C-397.344 880.114 -471.736 829.41 -561.547 863.529L-602 757.045C-446.17 697.845 -323.401 793.479 -214.977 878.225C-102.819 965.637 -28.4265 1016.34 60.7891 982.448C150.6 948.329 172.56 861.02 197.794 721.413C222.599 586.053 250.307 433.253 406.732 373.827C562.562 314.627 685.331 410.261 793.754 495.007C905.913 582.419 980.305 633.123 1069.52 599.23C1159.33 565.111 1181.29 477.802 1206.53 338.195C1231.33 202.835 1259.04 50.0347 1415.46 -9.39121C1571.89 -68.8172 1694.06 27.043 1802.49 111.789C1914.64 199.201 1989.04 249.905 2078.25 216.012L2118.71 322.496Z"/></g><g fill="#ffffff" opacity="0.2"><path d="M960.041 79C960.041 79 971.953 194.974 981.699 214.484C992.529 237.245 1064 247 1064 247C1064 247 994.694 258.923 983.865 280.6C973.036 301.194 958.959 415 958.959 415C958.959 415 945.964 296.858 935.135 275.181C925.389 255.671 855 245.916 855 245.916C855 245.916 925.389 233.994 936.218 212.316C947.047 192.806 960.041 79 960.041 79Z"/><path d="M561.041 687C561.041 687 572.953 802.974 582.699 822.484C593.529 845.245 665 855 665 855C665 855 595.694 866.923 584.865 888.6C574.036 909.194 559.959 1023 559.959 1023C559.959 1023 546.964 904.858 536.135 883.181C526.389 863.671 456 853.916 456 853.916C456 853.916 526.389 841.994 537.218 820.316C548.047 800.806 561.041 687 561.041 687Z"/></g><g><path d="M178.635 139.281L184.422 144.246V166.626H215.704L219.958 172.147L215.69 177.397H184.422V198.795L178.635 203.747L173 198.795V144.232L178.635 139.281ZM195.554 195.68H219.406L223.397 200.915L219.143 206.45H195.554L191.7 201.342L195.554 195.68ZM196.382 138H219.129L223.383 143.52L219.129 148.77H196.659L192.115 143.677L196.382 138ZM323.155 148.628L328.251 154.291L323.155 159.968H246.13L241.172 154.291L246.13 148.628H323.155ZM237.043 172.147L241.849 167.893L246.669 172.147V178.393C246.669 188.879 249.417 197.515 261.668 197.515H264.14C275.147 197.515 281.197 189.86 281.197 177.952V172.005L285.879 167.75L290.699 171.862V178.379C290.699 189.007 293.723 196.946 305.56 196.946H307.618C319.178 196.946 321.235 187.869 321.373 177.952V171.578L326.056 167.608L331 171.72V178.094C330.862 191.838 327.285 207.574 308.032 207.574H305.974C294.552 207.574 288.365 202.324 285.892 195.808C283.006 202.466 275.299 208.286 264.844 208.286H262.358C242.553 208.286 237.194 195.964 237.056 178.663V172.147H237.043ZM276.391 274.744L273.642 267.089L280.796 264.969L305.974 276.721V252.491L311.07 248.095L316.291 252.491V281.829L325.641 286.226L328.251 293.311L320.959 296L276.391 274.744ZM321.235 223.011L328.113 226.27L325.917 233.497L264.002 263.119L256.571 260.146L259.596 252.776L321.235 223.011ZM231.905 263.404L237.954 268.512C237.402 286.51 222.403 296 204.669 296H202.874C194.062 296 183.759 292.6 177.157 286.083L177.834 278.855L184.298 278.002C189.118 282.256 195.858 285.229 202.183 285.229H204.117C216.091 285.229 225.303 280.136 226.27 268.085L231.905 263.404ZM226.256 251.638C225.704 239.16 216.629 234.209 204.103 234.209H202.169C194.739 234.209 189.104 237.182 184.284 241.436L177.834 240.583L177.143 233.355C183.745 226.696 192.957 223.58 202.597 223.58H204.517C222.403 223.58 237.402 232.942 237.94 251.211L231.891 256.176L226.256 251.638Z" fill="#ffffff"/></g><g fill="#ffffff" id="info-group"><path d="M167.0800 640L154.9000 640Q153.7800 640 152.8700 639.1600Q151.9600 638.3200 151.9600 637.0600L151.9600 637.0600Q151.9600 636.5000 152.2400 635.8000L152.2400 635.8000L185.9800 545.5000Q186.4000 544.1000 187.5900 543.0500Q188.7800 542 190.8800 542L190.8800 542L206.1400 542Q208.2400 542 209.3600 543.0500Q210.4800 544.1000 211.0400 545.5000L211.0400 545.5000L244.7800 635.8000Q244.9200 636.5000 244.9200 637.0600L244.9200 637.0600Q244.9200 638.3200 244.0800 639.1600Q243.2400 640 242.1200 640L242.1200 640L229.9400 640Q227.9800 640 227.0700 639.0900Q226.1600 638.1800 225.8800 637.3400L225.8800 637.3400L219.3000 620.2600L177.7200 620.2600L171.1400 637.3400Q170.8600 638.1800 169.9500 639.0900Q169.0400 640 167.0800 640L167.0800 640ZM198.4400 560.9000L182.6200 604.1600L214.4000 604.1600L198.4400 560.9000ZM283.2800 641.4000L283.2800 641.4000Q274.7400 641.4000 268.5100 637.5500Q262.2800 633.7000 258.9200 626.6300Q255.5600 619.5600 255.5600 609.9000L255.5600 609.9000L255.5600 570.5600Q255.5600 569.1600 256.5400 568.1800Q257.5200 567.2000 258.9200 567.2000L258.9200 567.2000L271.2400 567.2000Q272.7800 567.2000 273.6900 568.1800Q274.6000 569.1600 274.6000 570.5600L274.6000 570.5600L274.6000 609.0600Q274.6000 626.4200 289.8600 626.4200L289.8600 626.4200Q297.1400 626.4200 301.4100 621.8000Q305.6800 617.1800 305.6800 609.0600L305.6800 609.0600L305.6800 570.5600Q305.6800 569.1600 306.6600 568.1800Q307.6400 567.2000 309.0400 567.2000L309.0400 567.2000L321.3600 567.2000Q322.7600 567.2000 323.7400 568.1800Q324.7200 569.1600 324.7200 570.5600L324.7200 570.5600L324.7200 636.6400Q324.7200 638.0400 323.7400 639.0200Q322.7600 640 321.3600 640L321.3600 640L310.0200 640Q308.4800 640 307.5700 639.0200Q306.6600 638.0400 306.6600 636.6400L306.6600 636.6400L306.6600 630.9000Q302.8800 635.8000 297.2800 638.6000Q291.6800 641.4000 283.2800 641.4000ZM358.3200 640L346.7000 640Q345.3000 640 344.3200 639.0200Q343.3400 638.0400 343.3400 636.6400L343.3400 636.6400L343.3400 543.9600Q343.3400 542.5600 344.3200 541.5800Q345.3000 540.6000 346.7000 540.6000L346.7000 540.6000L358.3200 540.6000Q359.7200 540.6000 360.7000 541.5800Q361.6800 542.5600 361.6800 543.9600L361.6800 543.9600L361.6800 636.6400Q361.6800 638.0400 360.7000 639.0200Q359.7200 640 358.3200 640L358.3200 640ZM401.4400 641.4000L401.4400 641.4000Q394.1600 641.4000 388.2800 638.5300Q382.4000 635.6600 378.9700 630.8300Q375.5400 626 375.5400 619.9800L375.5400 619.9800Q375.5400 610.1800 383.5200 604.3700Q391.5000 598.5600 404.3800 596.6000L404.3800 596.6000L423.5600 593.8000L423.5600 590.8600Q423.5600 584.9800 420.6200 581.7600Q417.6800 578.5400 410.5400 578.5400L410.5400 578.5400Q405.5000 578.5400 402.3500 580.5700Q399.2000 582.6000 397.6600 585.9600L397.6600 585.9600Q396.5400 587.7800 394.4400 587.7800L394.4400 587.7800L383.3800 587.7800Q381.8400 587.7800 381.0700 586.9400Q380.3000 586.1000 380.3000 584.7000L380.3000 584.7000Q380.4400 582.4600 382.1900 579.2400Q383.9400 576.0200 387.5100 573.0100Q391.0800 570 396.8200 567.9000Q402.5600 565.8000 410.6800 565.8000L410.6800 565.8000Q419.5000 565.8000 425.5900 567.9700Q431.6800 570.1400 435.3200 573.7800Q438.9600 577.4200 440.6400 582.3200Q442.3200 587.2200 442.3200 592.6800L442.3200 592.6800L442.3200 636.6400Q442.3200 638.0400 441.3400 639.0200Q440.3600 640 438.9600 640L438.9600 640L427.6200 640Q426.0800 640 425.1700 639.0200Q424.2600 638.0400 424.2600 636.6400L424.2600 636.6400L424.2600 631.1800Q422.4400 633.7000 419.3600 636.0800Q416.2800 638.4600 411.8700 639.9300Q407.4600 641.4000 401.4400 641.4000ZM406.2000 628.1000L406.2000 628.1000Q411.1000 628.1000 415.0900 626Q419.0800 623.9000 421.3900 619.4900Q423.7000 615.0800 423.7000 608.3600L423.7000 608.3600L423.7000 605.4200L409.7000 607.6600Q401.4400 608.9200 397.3800 611.7200Q393.3200 614.5200 393.3200 618.5800L393.3200 618.5800Q393.3200 621.6600 395.2100 623.8300Q397.1000 626 400.0400 627.0500Q402.9800 628.1000 406.2000 628.1000ZM528.9800 641.4000L528.9800 641.4000Q519.7400 641.4000 512.4600 639.1600Q505.1800 636.9200 500.2100 632.8600Q495.2400 628.8000 492.6500 623.3400Q490.0600 617.8800 490.0600 611.1600L490.0600 611.1600Q490.0600 603.0400 494.0500 597.0900Q498.0400 591.1400 504.4800 587.9200L504.4800 587.9200Q499.3000 584.7000 496.4300 579.6600Q493.5600 574.6200 493.5600 567.9000L493.5600 567.9000Q493.5600 559.7800 497.6900 553.6900Q501.8200 547.6000 509.7300 544.1000Q517.6400 540.6000 528.9800 540.6000L528.9800 540.6000Q540.3200 540.6000 548.1600 544.0300Q556.0000 547.4600 560.0600 553.5500Q564.1200 559.6400 564.1200 567.7600L564.1200 567.7600Q564.1200 574.4800 561.3200 579.5200Q558.5200 584.5600 553.4800 587.9200L553.4800 587.9200Q560.0600 591 563.9800 597.0900Q567.9000 603.1800 567.9000 611.3000L567.9000 611.3000Q567.9000 620.1200 563.3500 626.9100Q558.8000 633.7000 550.0500 637.5500Q541.3000 641.4000 528.9800 641.4000ZM528.9800 626.8400L528.9800 626.8400Q534.4400 626.8400 538.8500 624.9500Q543.2600 623.0600 545.8500 619.5600Q548.4400 616.0600 548.4400 611.3000L548.4400 611.3000Q548.4400 606.4000 545.8500 602.9700Q543.2600 599.5400 538.8500 597.6500Q534.4400 595.7600 528.9800 595.7600L528.9800 595.7600Q523.5200 595.7600 519.1100 597.6500Q514.7000 599.5400 512.1100 602.9700Q509.5200 606.4000 509.5200 611.3000L509.5200 611.3000Q509.5200 616.0600 512.1100 619.5600Q514.7000 623.0600 519.1100 624.9500Q523.5200 626.8400 528.9800 626.8400ZM528.9800 581.9000L528.9800 581.9000Q533.6000 581.7600 537.4500 580.0800Q541.3000 578.4000 543.6100 575.4600Q545.9200 572.5200 545.9200 568.6000L545.9200 568.6000Q545.9200 564.5400 543.7500 561.5300Q541.5800 558.5200 537.7300 556.8400Q533.8800 555.1600 528.9800 555.1600L528.9800 555.1600Q524.0800 555.1600 520.2300 556.8400Q516.3800 558.5200 514.2100 561.5300Q512.0400 564.5400 512.0400 568.6000L512.0400 568.6000Q512.0400 572.6600 514.2100 575.6000Q516.3800 578.5400 520.2300 580.2200Q524.0800 581.9000 528.9800 581.9000ZM600.9400 591L587.0800 591Q585.6800 591 584.7000 590.0200Q583.7200 589.0400 583.7200 587.6400L583.7200 587.6400L583.7200 574.3400Q583.7200 572.8000 584.7000 571.8200Q585.6800 570.8400 587.0800 570.8400L587.0800 570.8400L600.9400 570.8400Q602.4800 570.8400 603.4600 571.8200Q604.4400 572.8000 604.4400 574.3400L604.4400 574.3400L604.4400 587.6400Q604.4400 589.0400 603.4600 590.0200Q602.4800 591 600.9400 591L600.9400 591ZM600.9400 640L587.0800 640Q585.6800 640 584.7000 639.0200Q583.7200 638.0400 583.7200 636.6400L583.7200 636.6400L583.7200 623.3400Q583.7200 621.8000 584.7000 620.8200Q585.6800 619.8400 587.0800 619.8400L587.0800 619.8400L600.9400 619.8400Q602.4800 619.8400 603.4600 620.8200Q604.4400 621.8000 604.4400 623.3400L604.4400 623.3400L604.4400 636.6400Q604.4400 638.0400 603.4600 639.0200Q602.4800 640 600.9400 640L600.9400 640ZM701.3200 640L659.6000 640Q658.2000 640 657.2200 639.0200Q656.2400 638.0400 656.2400 636.6400L656.2400 636.6400L656.2400 545.5000Q656.2400 543.9600 657.2200 542.9800Q658.2000 542 659.6000 542L659.6000 542L700.2000 542Q711.5400 542 718.6800 545.4300Q725.8200 548.8600 729.2500 554.8800Q732.6800 560.9000 732.6800 568.8800L732.6800 568.8800Q732.6800 574.2000 730.7900 578.1900Q728.9000 582.1800 726.1700 584.7000Q723.4400 587.2200 720.7800 588.6200L720.7800 588.6200Q726.2400 591.1400 730.4400 597.0200Q734.6400 602.9000 734.6400 611.0200L734.6400 611.0200Q734.6400 619.4200 730.8600 626Q727.0800 632.5800 719.6600 636.2900Q712.2400 640 701.3200 640L701.3200 640ZM675.7000 596.7400L675.7000 625.1600L699.0800 625.1600Q706.6400 625.1600 710.5600 621.0300Q714.4800 616.9000 714.4800 611.0200L714.4800 611.0200Q714.4800 604.8600 710.4900 600.8000Q706.5000 596.7400 699.0800 596.7400L699.0800 596.7400L675.7000 596.7400ZM675.7000 556.7000L675.7000 582.1800L697.6800 582.1800Q705.1000 582.1800 708.8100 578.6100Q712.5200 575.0400 712.5200 569.3000L712.5200 569.3000Q712.5200 563.4200 708.8100 560.0600Q705.1000 556.7000 697.6800 556.7000L697.6800 556.7000L675.7000 556.7000ZM777.6200 641.4000L777.6200 641.4000Q769.0800 641.4000 762.8500 637.5500Q756.6200 633.7000 753.2600 626.6300Q749.9000 619.5600 749.9000 609.9000L749.9000 609.9000L749.9000 570.5600Q749.9000 569.1600 750.8800 568.1800Q751.8600 567.2000 753.2600 567.2000L753.2600 567.2000L765.5800 567.2000Q767.1200 567.2000 768.0300 568.1800Q768.9400 569.1600 768.9400 570.5600L768.9400 570.5600L768.9400 609.0600Q768.9400 626.4200 784.2000 626.4200L784.2000 626.4200Q791.4800 626.4200 795.7500 621.8000Q800.0200 617.1800 800.0200 609.0600L800.0200 609.0600L800.0200 570.5600Q800.0200 569.1600 801.0000 568.1800Q801.9800 567.2000 803.3800 567.2000L803.3800 567.2000L815.7000 567.2000Q817.1000 567.2000 818.0800 568.1800Q819.0600 569.1600 819.0600 570.5600L819.0600 570.5600L819.0600 636.6400Q819.0600 638.0400 818.0800 639.0200Q817.1000 640 815.7000 640L815.7000 640L804.3600 640Q802.8200 640 801.9100 639.0200Q801.0000 638.0400 801.0000 636.6400L801.0000 636.6400L801.0000 630.9000Q797.2200 635.8000 791.6200 638.6000Q786.0200 641.4000 777.6200 641.4000ZM877.8600 641.4000L877.8600 641.4000Q869.7400 641.4000 864.3500 638.6000Q858.9600 635.8000 855.4600 631.4600L855.4600 631.4600L855.4600 636.6400Q855.4600 638.0400 854.5500 639.0200Q853.6400 640 852.1000 640L852.1000 640L841.0400 640Q839.6400 640 838.6600 639.0200Q837.6800 638.0400 837.6800 636.6400L837.6800 636.6400L837.6800 543.9600Q837.6800 542.5600 838.6600 541.5800Q839.6400 540.6000 841.0400 540.6000L841.0400 540.6000L852.9400 540.6000Q854.4800 540.6000 855.3900 541.5800Q856.3000 542.5600 856.3000 543.9600L856.3000 543.9600L856.3000 575.0400Q859.8000 570.9800 865.0500 568.3900Q870.3000 565.8000 877.8600 565.8000L877.8600 565.8000Q885.2800 565.8000 890.7400 568.3200Q896.2000 570.8400 899.9100 575.3900Q903.6200 579.9400 905.5800 585.9600Q907.5400 591.9800 907.6800 598.9800L907.6800 598.9800Q907.8200 601.5000 907.8200 603.5300Q907.8200 605.5600 907.6800 608.0800L907.6800 608.0800Q907.4000 615.3600 905.4400 621.4500Q903.4800 627.5400 899.8400 632.0200Q896.2000 636.5000 890.7400 638.9500Q885.2800 641.4000 877.8600 641.4000ZM872.6800 626.4200L872.6800 626.4200Q878.7000 626.4200 882.0600 623.8300Q885.4200 621.2400 886.9600 617.0400Q888.5000 612.8400 888.7800 607.8000L888.7800 607.8000Q888.9200 603.6000 888.7800 599.4000L888.7800 599.4000Q888.5000 594.3600 886.9600 590.1600Q885.4200 585.9600 882.0600 583.3700Q878.7000 580.7800 872.6800 580.7800L872.6800 580.7800Q867.0800 580.7800 863.5800 583.3000Q860.0800 585.8200 858.2600 589.6700Q856.4400 593.5200 856.3000 597.7200L856.3000 597.7200Q856.1600 600.2400 856.1600 603.1100Q856.1600 605.9800 856.3000 608.5000L856.3000 608.5000Q856.5800 612.8400 858.1900 616.9700Q859.8000 621.1000 863.3700 623.7600Q866.9400 626.4200 872.6800 626.4200ZM963.6800 641.4000L963.6800 641.4000Q955.5600 641.4000 950.1700 638.6000Q944.7800 635.8000 941.2800 631.4600L941.2800 631.4600L941.2800 636.6400Q941.2800 638.0400 940.3700 639.0200Q939.4600 640 937.9200 640L937.9200 640L926.8600 640Q925.4600 640 924.4800 639.0200Q923.5000 638.0400 923.5000 636.6400L923.5000 636.6400L923.5000 543.9600Q923.5000 542.5600 924.4800 541.5800Q925.4600 540.6000 926.8600 540.6000L926.8600 540.6000L938.7600 540.6000Q940.3000 540.6000 941.2100 541.5800Q942.1200 542.5600 942.1200 543.9600L942.1200 543.9600L942.1200 575.0400Q945.6200 570.9800 950.8700 568.3900Q956.1200 565.8000 963.6800 565.8000L963.6800 565.8000Q971.1000 565.8000 976.5600 568.3200Q982.0200 570.8400 985.7300 575.3900Q989.4400 579.9400 991.4000 585.9600Q993.3600 591.9800 993.5000 598.9800L993.5000 598.9800Q993.6400 601.5000 993.6400 603.5300Q993.6400 605.5600 993.5000 608.0800L993.5000 608.0800Q993.2200 615.3600 991.2600 621.4500Q989.3000 627.5400 985.6600 632.0200Q982.0200 636.5000 976.5600 638.9500Q971.1000 641.4000 963.6800 641.4000ZM958.5000 626.4200L958.5000 626.4200Q964.5200 626.4200 967.8800 623.8300Q971.2400 621.2400 972.7800 617.0400Q974.3200 612.8400 974.6000 607.8000L974.6000 607.8000Q974.7400 603.6000 974.6000 599.4000L974.6000 599.4000Q974.3200 594.3600 972.7800 590.1600Q971.2400 585.9600 967.8800 583.3700Q964.5200 580.7800 958.5000 580.7800L958.5000 580.7800Q952.9000 580.7800 949.4000 583.3000Q945.9000 585.8200 944.0800 589.6700Q942.2600 593.5200 942.1200 597.7200L942.1200 597.7200Q941.9800 600.2400 941.9800 603.1100Q941.9800 605.9800 942.1200 608.5000L942.1200 608.5000Q942.4000 612.8400 944.0100 616.9700Q945.6200 621.1000 949.1900 623.7600Q952.7600 626.4200 958.5000 626.4200ZM1024.3000 640L1012.6800 640Q1011.2800 640 1010.3000 639.0200Q1009.3200 638.0400 1009.3200 636.6400L1009.3200 636.6400L1009.3200 543.9600Q1009.3200 542.5600 1010.3000 541.5800Q1011.2800 540.6000 1012.6800 540.6000L1012.6800 540.6000L1024.3000 540.6000Q1025.7000 540.6000 1026.6800 541.5800Q1027.6600 542.5600 1027.6600 543.9600L1027.6600 543.9600L1027.6600 636.6400Q1027.6600 638.0400 1026.6800 639.0200Q1025.7000 640 1024.3000 640L1024.3000 640ZM1077.6400 641.4000L1077.6400 641.4000Q1062.1000 641.4000 1053.0000 632.4400Q1043.9000 623.4800 1043.2000 606.9600L1043.2000 606.9600Q1043.0600 605.5600 1043.0600 603.3900Q1043.0600 601.2200 1043.2000 599.9600L1043.2000 599.9600Q1043.7600 589.3200 1048.0300 581.6900Q1052.3000 574.0600 1059.8600 569.9300Q1067.4200 565.8000 1077.6400 565.8000L1077.6400 565.8000Q1088.9800 565.8000 1096.6800 570.4900Q1104.3800 575.1800 1108.3000 583.5100Q1112.2200 591.8400 1112.2200 602.7600L1112.2200 602.7600L1112.2200 605.7000Q1112.2200 607.1000 1111.2400 608.0800Q1110.2600 609.0600 1108.7200 609.0600L1108.7200 609.0600L1062.2400 609.0600Q1062.2400 609.0600 1062.2400 609.4800Q1062.2400 609.9000 1062.2400 610.1800L1062.2400 610.1800Q1062.3800 615.0800 1064.1300 619.2100Q1065.8800 623.3400 1069.3100 625.8600Q1072.7400 628.3800 1077.5000 628.3800L1077.5000 628.3800Q1081.4200 628.3800 1084.0800 627.1900Q1086.7400 626 1088.4200 624.4600Q1090.1000 622.9200 1090.8000 621.9400L1090.8000 621.9400Q1092.0600 620.2600 1092.8300 619.9100Q1093.6000 619.5600 1095.1400 619.5600L1095.1400 619.5600L1107.1800 619.5600Q1108.5800 619.5600 1109.4900 620.4000Q1110.4000 621.2400 1110.2600 622.5000L1110.2600 622.5000Q1110.1200 624.7400 1107.9500 627.9600Q1105.7800 631.1800 1101.7200 634.2600Q1097.6600 637.3400 1091.5700 639.3700Q1085.4800 641.4000 1077.6400 641.4000ZM1062.2400 596.8800L1062.2400 597.3000L1093.1800 597.3000L1093.1800 596.8800Q1093.1800 591.4200 1091.3600 587.2900Q1089.5400 583.1600 1086.0400 580.8500Q1082.5400 578.5400 1077.6400 578.5400L1077.6400 578.5400Q1072.7400 578.5400 1069.2400 580.8500Q1065.7400 583.1600 1063.9900 587.2900Q1062.2400 591.4200 1062.2400 596.8800L1062.2400 596.8800ZM1194.8200 641.4000L1194.8200 641.4000Q1181.8000 641.4000 1173.0500 637.5500Q1164.3000 633.7000 1159.7500 627.4700Q1155.2000 621.2400 1154.9200 614.3800L1154.9200 614.3800Q1154.9200 613.1200 1155.7600 612.2800Q1156.6000 611.4400 1157.8600 611.4400L1157.8600 611.4400L1170.3200 611.4400Q1172.1400 611.4400 1173.0500 612.2100Q1173.9600 612.9800 1174.6600 614.1000L1174.6600 614.1000Q1175.5000 616.7600 1177.8800 619.3500Q1180.2600 621.9400 1184.3900 623.6200Q1188.5200 625.3000 1194.8200 625.3000L1194.8200 625.3000Q1204.9000 625.3000 1209.8700 621.9400Q1214.8400 618.5800 1214.8400 612.8400L1214.8400 612.8400Q1214.8400 608.7800 1212.1800 606.3300Q1209.5200 603.8800 1203.9900 601.8500Q1198.4600 599.8200 1189.3600 597.5800L1189.3600 597.5800Q1178.8600 595.0600 1171.7900 591.4900Q1164.7200 587.9200 1161.1500 582.4600Q1157.5800 577 1157.5800 568.6000L1157.5800 568.6000Q1157.5800 560.4800 1161.9900 554.1800Q1166.4000 547.8800 1174.5900 544.2400Q1182.7800 540.6000 1194.1200 540.6000L1194.1200 540.6000Q1203.2200 540.6000 1210.2200 543.0500Q1217.2200 545.5000 1221.8400 549.4900Q1226.4600 553.4800 1228.9100 558.0300Q1231.3600 562.5800 1231.5000 566.9200L1231.5000 566.9200Q1231.5000 568.0400 1230.7300 568.9500Q1229.9600 569.8600 1228.5600 569.8600L1228.5600 569.8600L1215.5400 569.8600Q1214.4200 569.8600 1213.3000 569.3000Q1212.1800 568.7400 1211.4800 567.2000L1211.4800 567.2000Q1210.6400 562.8600 1206.0200 559.7800Q1201.4000 556.7000 1194.1200 556.7000L1194.1200 556.7000Q1186.5600 556.7000 1181.9400 559.5000Q1177.3200 562.3000 1177.3200 568.1800L1177.3200 568.1800Q1177.3200 572.1000 1179.6300 574.6900Q1181.9400 577.2800 1187.0500 579.2400Q1192.1600 581.2000 1200.5600 583.4400L1200.5600 583.4400Q1212.4600 586.1000 1220.0200 589.6000Q1227.5800 593.1000 1231.0800 598.4900Q1234.5800 603.8800 1234.5800 612.1400L1234.5800 612.1400Q1234.5800 621.3800 1229.6100 627.8900Q1224.6400 634.4000 1215.6800 637.9000Q1206.7200 641.4000 1194.8200 641.4000ZM1281.2000 641.4000L1281.2000 641.4000Q1270.0000 641.4000 1262.3700 637.4800Q1254.7400 633.5600 1250.7500 626.4200Q1246.7600 619.2800 1246.2000 609.7600L1246.2000 609.7600Q1246.0600 607.2400 1246.0600 603.6000Q1246.0600 599.9600 1246.2000 597.4400L1246.2000 597.4400Q1246.7600 587.7800 1250.8900 580.7100Q1255.0200 573.6400 1262.6500 569.7200Q1270.2800 565.8000 1281.2000 565.8000L1281.2000 565.8000Q1292.1200 565.8000 1299.7500 569.7200Q1307.3800 573.6400 1311.5100 580.7100Q1315.6400 587.7800 1316.2000 597.4400L1316.2000 597.4400Q1316.3400 599.9600 1316.3400 603.6000Q1316.3400 607.2400 1316.2000 609.7600L1316.2000 609.7600Q1315.6400 619.2800 1311.6500 626.4200Q1307.6600 633.5600 1300.0300 637.4800Q1292.4000 641.4000 1281.2000 641.4000ZM1281.2000 627.5400L1281.2000 627.5400Q1288.6200 627.5400 1292.6800 622.8500Q1296.7400 618.1600 1297.1600 609.0600L1297.1600 609.0600Q1297.3000 606.9600 1297.3000 603.6000Q1297.3000 600.2400 1297.1600 598.1400L1297.1600 598.1400Q1296.7400 589.0400 1292.6800 584.3500Q1288.6200 579.6600 1281.2000 579.6600L1281.2000 579.6600Q1273.7800 579.6600 1269.7200 584.3500Q1265.6600 589.0400 1265.2400 598.1400L1265.2400 598.1400Q1265.1000 600.2400 1265.1000 603.6000Q1265.1000 606.9600 1265.2400 609.0600L1265.2400 609.0600Q1265.6600 618.1600 1269.7200 622.8500Q1273.7800 627.5400 1281.2000 627.5400ZM1347.4200 640L1335.2400 640Q1333.8400 640 1332.8600 639.0200Q1331.8800 638.0400 1331.8800 636.6400L1331.8800 636.6400L1331.8800 570.7000Q1331.8800 569.1600 1332.8600 568.1800Q1333.8400 567.2000 1335.2400 567.2000L1335.2400 567.2000L1346.5800 567.2000Q1347.9800 567.2000 1349.0300 568.1800Q1350.0800 569.1600 1350.0800 570.7000L1350.0800 570.7000L1350.0800 576.4400Q1353.3000 571.9600 1358.4100 569.5800Q1363.5200 567.2000 1370.2400 567.2000L1370.2400 567.2000L1375.9800 567.2000Q1377.5200 567.2000 1378.4300 568.1800Q1379.3400 569.1600 1379.3400 570.5600L1379.3400 570.5600L1379.3400 580.6400Q1379.3400 582.0400 1378.4300 583.0200Q1377.5200 584 1375.9800 584L1375.9800 584L1365.0600 584Q1358.3400 584 1354.6300 587.7100Q1350.9200 591.4200 1350.9200 598.1400L1350.9200 598.1400L1350.9200 636.6400Q1350.9200 638.0400 1349.9400 639.0200Q1348.9600 640 1347.4200 640L1347.4200 640ZM1434.5000 640L1423.1600 640Q1414.7600 640 1409.0200 637.0600Q1403.2800 634.1200 1400.4800 628.3100Q1397.6800 622.5000 1397.6800 613.8200L1397.6800 613.8200L1397.6800 582.0400L1386.6200 582.0400Q1385.2200 582.0400 1384.2400 581.0600Q1383.2600 580.0800 1383.2600 578.5400L1383.2600 578.5400L1383.2600 570.5600Q1383.2600 569.1600 1384.2400 568.1800Q1385.2200 567.2000 1386.6200 567.2000L1386.6200 567.2000L1397.6800 567.2000L1397.6800 543.9600Q1397.6800 542.5600 1398.5900 541.5800Q1399.5000 540.6000 1401.0400 540.6000L1401.0400 540.6000L1412.3800 540.6000Q1413.7800 540.6000 1414.7600 541.5800Q1415.7400 542.5600 1415.7400 543.9600L1415.7400 543.9600L1415.7400 567.2000L1433.2400 567.2000Q1434.6400 567.2000 1435.6200 568.1800Q1436.6000 569.1600 1436.6000 570.5600L1436.6000 570.5600L1436.6000 578.5400Q1436.6000 580.0800 1435.6200 581.0600Q1434.6400 582.0400 1433.2400 582.0400L1433.2400 582.0400L1415.7400 582.0400L1415.7400 612.4200Q1415.7400 618.1600 1417.7700 621.3800Q1419.8000 624.6000 1424.8400 624.6000L1424.8400 624.6000L1434.5000 624.6000Q1435.9000 624.6000 1436.8800 625.5800Q1437.8600 626.5600 1437.8600 627.9600L1437.8600 627.9600L1437.8600 636.6400Q1437.8600 638.0400 1436.8800 639.0200Q1435.9000 640 1434.5000 640L1434.5000 640Z" id="title"/></g></svg>